0
SECTION
2
ENTITIES
0
LINE
8
Polygon
10
-0.1530733729460359
20
-0.6304481869954852
11
-0.15507532865248155
21
-0.6312837914556442
0
LINE
8
Polygon
10
-0.15507532865248155
20
-0.6312837914556442
11
-0.15707272314625065
21
-0.6321302409229304
0
LINE
8
Polygon
10
-0.15707272314625073
20
-0.6321302409229304
11
-0.15906549767821038
21
-0.6329875105008234
0
LINE
8
Polygon
10
-0.15906549767821038
20
-0.6329875105008234
11
-0.16105359363511415
21
-0.6338555749745525
0
LINE
8
Polygon
10
-0.16105359363511423
20
-0.6338555749745525
11
-0.16303695254132608
21
-0.6347344088118381
0
LINE
8
Polygon
10
-0.16303695254132608
20
-0.6347344088118381
11
-0.1650155160605402
21
-0.6356239861636421
0
LINE
8
Polygon
10
-0.16501551606054032
20
-0.6356239861636422
11
-0.1669892259974973
21
-0.6365242808649293
0
LINE
8
Polygon
10
-0.1669892259974973
20
-0.6365242808649293
11
-0.1689580242996952
21
-0.6374352664354355
0
LINE
8
Polygon
10
-0.1689580242996952
20
-0.6374352664354355
11
-0.1709218530590977
21
-0.6383569160804479
0
LINE
8
Polygon
10
-0.1709218530590977
20
-0.6383569160804479
11
-0.17288065451383708
21
-0.6392892026915922
0
LINE
8
Polygon
10
-0.17288065451383708
20
-0.6392892026915922
11
-0.17483437104991303
21
-0.6402320988476302
0
LINE
8
Polygon
10
-0.17483437104991317
20
-0.6402320988476302
11
-0.17678294520288754
21
-0.6411855768152668
0
LINE
8
Polygon
10
-0.17678294520288754
20
-0.6411855768152668
11
-0.17872631965957453
21
-0.6421496085499645
0
LINE
8
Polygon
10
-0.17872631965957453
20
-0.6421496085499645
11
-0.1806644372597263
21
-0.6431241656967701
0
LINE
8
Polygon
10
-0.1806644372597263
20
-0.6431241656967701
11
-0.18259724099771452
21
-0.6441092195911469
0
LINE
8
Polygon
10
-0.18259724099771452
20
-0.6441092195911469
11
-0.1845246740242067
21
-0.6451047412598185
0
LINE
8
Polygon
10
-0.18452467402420683
20
-0.6451047412598188
11
-0.18644667964783862
21
-0.6461107014216221
0
LINE
8
Polygon
10
-0.18644667964783862
20
-0.6461107014216221
11
-0.1883632013368813
21
-0.6471270704883676
0
LINE
8
Polygon
10
-0.1883632013368813
20
-0.6471270704883676
11
-0.19027418272090446
21
-0.6481538185657092
0
LINE
8
Polygon
10
-0.19027418272090446
20
-0.6481538185657092
11
-0.19217956759243404
21
-0.649190915454025
0
LINE
8
Polygon
10
-0.19217956759243418
20
-0.649190915454025
11
-0.19407929990860567
21
-0.6502383306493041
0
LINE
8
Polygon
10
-0.19407929990860567
20
-0.6502383306493041
11
-0.19597332379281254
21
-0.6512960333440448
0
LINE
8
Polygon
10
-0.19597332379281254
20
-0.6512960333440448
11
-0.19786158353634972
21
-0.6523639924281603
0
LINE
8
Polygon
10
-0.19786158353634972
20
-0.6523639924281603
11
-0.19974402360005206
21
-0.6534421764898939
0
LINE
8
Polygon
10
-0.19974402360005206
20
-0.6534421764898939
11
-0.20162058861592813
21
-0.6545305538167425
0
LINE
8
Polygon
10
-0.20162058861592827
20
-0.6545305538167425
11
-0.20349122338878858
21
-0.6556290923963899
0
LINE
8
Polygon
10
-0.20349122338878858
20
-0.6556290923963899
11
-0.20535587289786933
21
-0.6567377599176482
0
LINE
8
Polygon
10
-0.20535587289786933
20
-0.6567377599176482
11
-0.20721448229845044
21
-0.6578565237714078
0
LINE
8
Polygon
10
-0.20721448229845044
20
-0.6578565237714078
11
-0.209066996923469
21
-0.6589853510515975
0
LINE
8
Polygon
10
-0.2090669969234692
20
-0.6589853510515975
11
-0.2109133622851271
21
-0.660124208556151
0
LINE
8
Polygon
10
-0.2109133622851271
20
-0.660124208556151
11
-0.21275352407649392
21
-0.6612730627879844
0
LINE
8
Polygon
10
-0.21275352407649392
20
-0.6612730627879844
11
-0.21458742817310406
21
-0.6624318799559814
0
LINE
8
Polygon
10
-0.21458742817310406
20
-0.6624318799559814
11
-0.21641502063454868
21
-0.6636006259759868
0
LINE
8
Polygon
10
-0.21641502063454882
20
-0.663600625975987
11
-0.2182362477060627
21
-0.6647792664718095
0
LINE
8
Polygon
10
-0.2182362477060627
20
-0.6647792664718095
11
-0.22005105582010487
21
-0.6659677667762329
0
LINE
8
Polygon
10
-0.22005105582010487
20
-0.6659677667762329
11
-0.2218593915979346
21
-0.6671660919320354
0
LINE
8
Polygon
10
-0.2218593915979346
20
-0.6671660919320354
11
-0.2236612018511811
21
-0.6683742066930178
0
LINE
8
Polygon
10
-0.2236612018511811
20
-0.6683742066930178
11
-0.22545643358340808
21
-0.6695920755250409
0
LINE
8
Polygon
10
-0.22545643358340822
20
-0.6695920755250409
11
-0.22724503399167284
21
-0.6708196626070696
0
LINE
8
Polygon
10
-0.22724503399167284
20
-0.6708196626070696
11
-0.22902695046807833
21
-0.6720569318322274
0
LINE
8
Polygon
10
-0.22902695046807833
20
-0.6720569318322274
11
-0.230802130601322
21
-0.6733038468088577
0
LINE
8
Polygon
10
-0.230802130601322
20
-0.6733038468088577
11
-0.23257052217823604
21
-0.6745603708615949
0
LINE
8
Polygon
10
-0.2325705221782362
20
-0.674560370861595
11
-0.23433207318532415
21
-0.6758264670324428
0
LINE
8
Polygon
10
-0.23433207318532415
20
-0.6758264670324428
11
-0.23608673181029027
21
-0.677102098081861
0
LINE
8
Polygon
10
-0.23608673181029027
20
-0.677102098081861
11
-0.2378344464435637
21
-0.6783872264898615
0
LINE
8
Polygon
10
-0.2378344464435637
20
-0.6783872264898615
11
-0.23957516567981638
21
-0.6796818144571112
0
LINE
8
Polygon
10
-0.23957516567981654
20
-0.6796818144571113
11
-0.24130883831947525
21
-0.6809858239060442
0
LINE
8
Polygon
10
-0.24130883831947525
20
-0.6809858239060442
11
-0.2430354133702275
21
-0.6822992164819819
0
LINE
8
Polygon
10
-0.2430354133702275
20
-0.6822992164819819
11
-0.24407322265867232
21
-0.6831345014834845
0
LINE
8
Polygon
10
-0.24407322265867232
20
-0.6831345014834845
11
-0.24506856772695101
21
-0.6840199603181973
0
LINE
8
Polygon
10
-0.24506856772695101
20
-0.6840199603181973
11
-0.24601902540933418
21
-0.6849534373382233
0
LINE
8
Polygon
10
-0.24601902540933418
20
-0.6849534373382233
11
-0.2469222818183503
21
-0.6859326599954821
0
LINE
8
Polygon
10
-0.2469222818183503
20
-0.6859326599954821
11
-0.24777613797794068
21
-0.6869552443742242
0
LINE
8
Polygon
10
-0.24777613797794068
20
-0.6869552443742242
11
-0.24857851517686266
21
-0.688018700994669
0
LINE
8
Polygon
10
-0.24857851517686266
20
-0.688018700994669
11
-0.2493274600293081
21
-0.6891204408736391
0
LINE
8
Polygon
10
-0.2493274600293081
20
-0.6891204408736391
11
-0.2500211492304177
21
-0.6902577818274351
0
LINE
8
Polygon
10
-0.25002114923041774
20
-0.6902577818274351
11
-0.2506578939951132
21
-0.6914279550016067
0
LINE
8
Polygon
10
-0.2506578939951132
20
-0.6914279550016067
11
-0.2512361441694414
21
-0.6926281116117236
0
LINE
8
Polygon
10
-0.2512361441694414
20
-0.6926281116117236
11
-0.2517544920044216
21
-0.693855329878736
0
LINE
8
Polygon
10
-0.2517544920044216
20
-0.693855329878736
11
-0.2522116755832073
21
-0.6951066221420408
0
LINE
8
Polygon
10
-0.2522116755832073
20
-0.6951066221420408
11
-0.25260658189322077
21
-0.696378942132935
0
LINE
8
Polygon
10
-0.25260658189322077
20
-0.696378942132935
11
-0.25293824953578
21
-0.6976691923907521
0
LINE
8
Polygon
10
-0.25293824953578
20
-0.6976691923907521
11
-0.253205871066622
21
-0.6989742318036234
0
LINE
8
Polygon
10
-0.253205871066622
20
-0.6989742318036234
11
-0.25340879496162455
21
-0.7002908832555098
0
LINE
8
Polygon
10
-0.25340879496162455
20
-0.7002908832555098
11
-0.2535465272029402
21
-0.7016159413608848
0
LINE
8
Polygon
10
-0.2535465272029402
20
-0.7016159413608848
11
-0.253618732481682
21
-0.7029461802682393
0
LINE
8
Polygon
10
-0.253618732481682
20
-0.7029461802682393
11
-0.2536252350142322
21
-0.7042783615134113
0
LINE
8
Polygon
10
-0.2536252350142322
20
-0.7042783615134113
11
-0.2535660189701874
21
-0.7056092419036213
0
LINE
8
Polygon
10
-0.2535660189701874
20
-0.7056092419036213
11
-0.25344122851089734
21
-0.7069355814130184
0
LINE
8
Polygon
10
-0.25344122851089734
20
-0.7069355814130184
11
-0.2532511674385046
21
-0.708254151070518
0
LINE
8
Polygon
10
-0.2532511674385046
20
-0.708254151070518
11
-0.2529962984563388
21
-0.7095617408207254
0
LINE
8
Polygon
10
-0.2529962984563388
20
-0.7095617408207254
11
-0.25267724204246594
21
-0.7108551673388099
0
LINE
8
Polygon
10
-0.25267724204246594
20
-0.7108551673388099
11
-0.25229477493913605
21
-0.7121312817803035
0
LINE
8
Polygon
10
-0.25229477493913605
20
-0.7121312817803035
11
-0.25184982826180546
21
-0.7133869774469561
0
LINE
8
Polygon
10
-0.25184982826180546
20
-0.7133869774469561
11
-0.25134348523233796
21
-0.7146191973499878
0
LINE
8
Polygon
10
-0.25134348523233796
20
-0.7146191973499878
11
-0.2507769785419032
21
-0.7158249416523215
0
LINE
8
Polygon
10
-0.2507769785419032
20
-0.7158249416523215
11
-0.25015168734999205
21
-0.7170012749716813
0
LINE
8
Polygon
10
-0.25015168734999205
20
-0.7170012749716813
11
-0.24946913392685588
21
-0.7181453335267749
0
LINE
8
Polygon
10
-0.24946913392685588
20
-0.7181453335267749
11
-0.24873097994754206
21
-0.7192543321091639
0
LINE
8
Polygon
10
-0.24873097994754206
20
-0.719254332109164
11
-0.24793902244654922
21
-0.7203255708638489
0
LINE
8
Polygon
10
-0.24793902244654922
20
-0.7203255708638489
11
-0.24709518944295014
21
-0.7213564418620609
0
LINE
8
Polygon
10
-0.24709518944295011
20
-0.7213564418620609
11
-0.24620153524663274
21
-0.7223444354502597
0
LINE
8
Polygon
10
-0.24620153524663274
20
-0.7223444354502597
11
-0.2452602354570867
21
-0.7232871463598807
0
LINE
8
Polygon
10
-0.2452602354570867
20
-0.7232871463598807
11
-0.2442735816669102
21
-0.7241822795629561
0
LINE
8
Polygon
10
-0.2442735816669102
20
-0.7241822795629561
11
-0.24324397588293228
21
-0.7250276558593572
0
LINE
8
Polygon
10
-0.2432439758829323
20
-0.7250276558593572
11
-0.24217392467853152
21
-0.7258212171820527
0
LINE
8
Polygon
10
-0.24217392467853152
20
-0.7258212171820527
11
-0.24106603309138766
21
-0.7265610316074688
0
LINE
8
Polygon
10
-0.2410660330913877
20
-0.7265610316074687
11
-0.23992299828152244
21
-0.7272452980587537
0
LINE
8
Polygon
10
-0.23992299828152244
20
-0.7272452980587537
11
-0.2387476029650683
21
-0.7278723506904963
0
LINE
8
Polygon
10
-0.2387476029650683
20
-0.7278723506904963
11
-0.2375427086397512
21
-0.7284406629442234
0
LINE
8
Polygon
10
-0.23754270863975122
20
-0.7284406629442234
11
-0.23631124861857966
21
-0.7289488512648034
0
LINE
8
Polygon
10
-0.23631124861857966
20
-0.7289488512648034
11
-0.23505622088869965
21
-0.7293956784687089
0
LINE
8
Polygon
10
-0.23505622088869965
20
-0.7293956784687089
11
-0.23378068081280048
21
-0.7297800567559376
0
LINE
8
Polygon
10
-0.2337806808128005
20
-0.7297800567559376
11
-0.23248773369083994
21
-0.7301010503582596
0
LINE
8
Polygon
10
-0.23248773369083997
20
-0.7301010503582596
11
-0.23118052720019727
21
-0.7303578778173432
0
LINE
8
Polygon
10
-0.23118052720019724
20
-0.7303578778173432
11
-0.22986224373265834
21
-0.7305499138872137
0
LINE
8
Polygon
10
-0.3369038919957616
20
-0.8907490615229863
11
-0.3320669485186677
21
-0.8985474217950297
0
LINE
8
Polygon
10
-0.3320669485186677
20
-0.8985474217950297
11
-0.3265854469904682
21
-0.905907013232707
0
LINE
8
Polygon
10
-0.32658544699046826
20
-0.905907013232707
11
-0.32049896214398976
21
-0.9127747018793168
0
LINE
8
Polygon
10
-0.32049896214398976
20
-0.9127747018793168
11
-0.3138514365030849
21
-0.9191009051630169
0
LINE
8
Polygon
10
-0.3138514365030849
20
-0.9191009051630169
11
-0.30669086313130434
21
-0.9248399498675416
0
LINE
8
Polygon
10
-0.30669086313130434
20
-0.9248399498675416
11
-0.29906893913693405
21
-0.9299504018785899
0
LINE
8
Polygon
10
-0.29906893913693405
20
-0.9299504018785899
11
-0.2910406924359837
21
-0.9343953653252186
0
LINE
8
Polygon
10
-0.2910406924359837
20
-0.9343953653252186
11
-0.2826640844677816
21
-0.9381427489565324
0
LINE
8
Polygon
10
-0.28266408446778146
20
-0.9381427489565324
11
-0.27399959173144534
21
-0.9411654978305151
0
LINE
8
Polygon
10
-0.27399959173144534
20
-0.9411654978305151
11
-0.2651097691644048
21
-0.9434417886422793
0
LINE
8
Polygon
10
-0.2651097691644048
20
-0.9434417886422793
11
-0.25605879851524754
21
-0.9449551872815278
0
LINE
8
Polygon
10
-0.2560587985152475
20
-0.9449551872815278
11
-0.24691202497149511
21
-0.9456947674817073
0
LINE
8
Polygon
10
-0.24691202497149511
20
-0.9456947674817073
11
-0.2377354853877132
21
-0.9456551897042488
0
LINE
8
Polygon
10
-0.2377354853877132
20
-0.9456551897042488
11
-0.22859543152000014
21
-0.9448367396883719
0
LINE
8
Polygon
10
-0.22859543152000014
20
-0.9448367396883719
11
-0.2195578517089545
21
-0.9432453263881366
0
LINE
8
Polygon
10
-0.2195578517089544
20
-0.9432453263881366
11
-0.21068799446441971
21
-0.9408924393116367
0
LINE
8
Polygon
10
-0.21068799446441971
20
-0.9408924393116367
11
-0.2020498973915769
21
-0.9377950655703311
0
LINE
8
Polygon
10
-0.2020498973915768
20
-0.9377950655703311
11
-0.1937059248593908
21
-0.9339755672373937
0
LINE
8
Polygon
10
-0.1937059248593908
20
-0.9339755672373937
11
-0.18571631774930153
21
-0.9294615199005134
0
LINE
8
Polygon
10
-0.18571631774930153
20
-0.9294615199005134
11
-0.17813875853483258
21
-0.9242855135747443
0
LINE
8
Polygon
10
-0.17813875853483258
20
-0.9242855135747443
11
-0.17102795483210828
21
-0.9184849174127531
0
LINE
8
Polygon
10
-0.1710279548321082
20
-0.918484917412753
11
-0.16443524442791363
21
-0.9121016099111822
0
LINE
8
Polygon
10
-0.16443524442791363
20
-0.9121016099111822
11
-0.15840822463687249
21
-0.9051816765609553
0
LINE
8
Polygon
10
-0.1584082246368724
20
-0.9051816765609552
11
-0.15299040866366836
21
-0.8977750771243932
0
LINE
8
Polygon
10
-0.15299040866366836
20
-0.8977750771243932
11
-0.14822091145126726
21
-0.8899352849413004
0
LINE
8
Polygon
10
-0.14822091145126726
20
-0.8899352849413004
11
-0.1441341672832182
21
-0.8817189008681144
0
LINE
8
Polygon
10
-0.1441341672832182
20
-0.8817189008681144
11
-0.14075968117885745
21
-0.8731852446373619
0
LINE
8
Polygon
10
-0.14075968117885743
20
-0.8731852446373618
11
-0.1381218158762631
21
-0.8643959265876748
0
LINE
8
Polygon
10
-0.1381218158762631
20
-0.8643959265876748
11
-0.1362396159408787
21
-0.855414402856346
0
LINE
8
Polygon
10
-0.1362396159408787
20
-0.8554144028563458
11
-0.1351266702696854
21
-0.8463055172457918
0
LINE
8
Polygon
10
-0.1351266702696854
20
-0.8463055172457918
11
-0.1347910139836006
21
-0.8371350330715076
0
LINE
8
Polygon
10
-0.1347910139836006
20
-0.8371350330715076
11
-0.1352350704164088
21
-0.8279691583714222
0
LINE
8
Polygon
10
-0.1352350704164088
20
-0.8279691583714222
11
-0.136455633619047
21
-0.8188740679044971
0
LINE
8
Polygon
10
-0.136455633619047
20
-0.818874067904497
11
-0.1384438915055578
21
-0.8099154253895893
0
LINE
8
Polygon
10
-0.1384438915055578
20
-0.8099154253895893
11
-0.14118548947360388
21
-0.8011579094338636
0
LINE
8
Polygon
10
-0.14118548947360388
20
-0.8011579094338634
11
-0.1446606340402235
21
-0.7926647465734045
0
LINE
8
Polygon
10
-0.1446606340402235
20
-0.7926647465734045
11
-0.14884423574460925
21
-0.7844972547973299
0
LINE
8
Polygon
10
-0.14884423574460925
20
-0.7844972547973299
11
-0.1537060902861965
21
-0.7767144008510174
0
LINE
8
Polygon
10
-0.1537060902861965
20
-0.7767144008510174
11
-0.15921109659030078
21
-0.7693723745145787
0
LINE
8
Polygon
10
-0.15921109659030083
20
-0.7693723745145787
11
-0.16531951022693844
21
-0.7625241829301583
0
LINE
8
Polygon
10
-0.16531951022693844
20
-0.7625241829301583
11
-0.17198723035322538
21
-0.7562192679068854
0
LINE
8
Polygon
10
-0.17198723035322544
20
-0.7562192679068853
11
-0.17916611810771987
21
-0.7505031489664192
0
LINE
8
Polygon
10
-0.17916611810771987
20
-0.7505031489664192
11
-0.186804344158
21
-0.7454170947061889
0
LINE
8
Polygon
10
-0.186804344158
20
-0.7454170947061889
11
-0.19484676289229272
21
-0.7409978248529798
0
LINE
8
Polygon
10
-0.19484676289229272
20
-0.7409978248529798
11
-0.20323531055360536
21
-0.7372772451579495
0
LINE
8
Polygon
10
-0.20323531055360544
20
-0.7372772451579495
11
-0.21190942444195685
21
-0.7342822170470473
0
LINE
8
Polygon
10
-0.21190942444195685
20
-0.7342822170470473
11
-0.22080648015819804
21
-0.7320343636898895
0
LINE
8
Polygon
10
-0.22080648015819815
20
-0.7320343636898895
11
-0.22986224373265837
21
-0.7305499138872136
0
LINE
8
Polygon
10
-0.33690389199576154
20
-0.8907490615229863
11
-0.3375857954324068
21
-0.889604615431635
0
LINE
8
Polygon
10
-0.3375857954324068
20
-0.889604615431635
11
-0.33832331933189
21
-0.888495197723732
0
LINE
8
Polygon
10
-0.33832331933189
20
-0.888495197723732
11
-0.33911466819364083
21
-0.8874235092746371
0
LINE
8
Polygon
10
-0.33911466819364083
20
-0.8874235092746371
11
-0.3399579154803175
21
-0.8863921591078993
0
LINE
8
Polygon
10
-0.3399579154803175
20
-0.8863921591078993
11
-0.3408510083079589
21
-0.8854036580435937
0
LINE
8
Polygon
10
-0.3408510083079589
20
-0.8854036580435937
11
-0.3417917724437263
21
-0.8844604125857348
0
LINE
8
Polygon
10
-0.3417917724437263
20
-0.8844604125857348
11
-0.34277791759906967
21
-0.8835647190636468
0
LINE
8
Polygon
10
-0.34277791759906967
20
-0.8835647190636468
11
-0.3438070430054306
21
-0.882718758041554
0
LINE
8
Polygon
10
-0.3438070430054306
20
-0.882718758041554
11
-0.3448766432589089
21
-0.8819245890100016
0
LINE
8
Polygon
10
-0.3448766432589089
20
-0.8819245890100016
11
-0.3459841144196639
21
-0.8811841453720294
0
LINE
8
Polygon
10
-0.3459841144196639
20
-0.8811841453720294
11
-0.3471267603512013
21
-0.8804992297363057
0
LINE
8
Polygon
10
-0.3471267603512013
20
-0.8804992297363057
11
-0.3483017992841122
21
-0.8798715095286802
0
LINE
8
Polygon
10
-0.3483017992841122
20
-0.8798715095286802
11
-0.3495063705882856
21
-0.8793025129328382
0
LINE
8
Polygon
10
-0.3495063705882856
20
-0.8793025129328382
11
-0.35073754173710747
21
-0.8787936251699412
0
LINE
8
Polygon
10
-0.35073754173710747
20
-0.8787936251699412
11
-0.35199231544669096
21
-0.8783460851263074
0
LINE
8
Polygon
10
-0.351992315446691
20
-0.8783460851263074
11
-0.3532676369727588
21
-0.8779609823373461
0
LINE
8
Polygon
10
-0.3532676369727588
20
-0.8779609823373461
11
-0.3545604015474123
21
-0.8776392543350854
0
LINE
8
Polygon
10
-0.3545604015474123
20
-0.8776392543350854
11
-0.3558674619376833
21
-0.8773816843657523
0
LINE
8
Polygon
10
-0.3558674619376833
20
-0.8773816843657523
11
-0.357185636107467
21
-0.8771888994829611
0
LINE
8
Polygon
10
-0.357185636107467
20
-0.8771888994829611
11
-0.3585117149641828
21
-0.8770613690211528
0
LINE
8
Polygon
10
-0.3585117149641828
20
-0.8770613690211528
11
-0.35984247017130444
21
-0.8769994034530011
0
LINE
8
Polygon
10
-0.35984247017130444
20
-0.8769994034530011
11
-0.36117466200773923
21
-0.8770031536335671
0
LINE
8
Polygon
10
-0.36117466200773923
20
-0.8770031536335671
11
-0.362505047254923
21
-0.8770726104330431
0
LINE
8
Polygon
10
-0.362505047254923
20
-0.8770726104330431
11
-0.36383038709242993
21
-0.8772076047589791
0
LINE
8
Polygon
10
-0.36383038709242993
20
-0.8772076047589791
11
-0.36514745498287454
21
-0.8774078079679382
0
LINE
8
Polygon
10
-0.36514745498287454
20
-0.8774078079679382
11
-0.3664530445269113
21
-0.8776727326655779
0
LINE
8
Polygon
10
-0.3664530445269113
20
-0.8776727326655779
11
-0.3677439772692079
21
-0.8780017338932116
0
LINE
8
Polygon
10
-0.3677439772692079
20
-0.8780017338932116
11
-0.36901711043638846
21
-0.8783940106979583
0
LINE
8
Polygon
10
-0.36901711043638846
20
-0.8783940106979583
11
-0.3702693445881102
21
-0.878848608082662
0
LINE
8
Polygon
10
-0.3702693445881102
20
-0.878848608082662
11
-0.3714976311626447
21
-0.8793644193308294
0
LINE
8
Polygon
10
-0.3714976311626447
20
-0.8793644193308294
11
-0.3726989798985959
21
-0.8799401887009303
0
LINE
8
Polygon
10
-0.3726989798985959
20
-0.8799401887009303
11
-0.373870466114686
21
-0.8805745144834968
0
LINE
8
Polygon
10
-0.373870466114686
20
-0.8805745144834968
11
-0.3750092378298867
21
-0.8812658524135835
0
LINE
8
Polygon
10
-0.3750092378298867
20
-0.8812658524135835
11
-0.3761125227065616
21
-0.882012519430277
0
LINE
8
Polygon
10
-0.3761125227065616
20
-0.882012519430277
11
-0.37717763479971717
21
-0.8828126977741051
0
LINE
8
Polygon
10
-0.37717763479971717
20
-0.8828126977741051
11
-0.3782019810959308
21
-0.8836644394123683
0
LINE
8
Polygon
10
-0.3782019810959308
20
-0.8836644394123683
11
-0.3791830678260371
21
-0.884565670781622
0
LINE
8
Polygon
10
-0.3791830678260371
20
-0.884565670781622
11
-0.38011850653620466
21
-0.8855141978357632
0
LINE
8
Polygon
10
-0.38011850653620466
20
-0.8855141978357632
11
-0.38100601990262206
21
-0.8865077113874313
0
LINE
8
Polygon
10
-0.38100601990262206
20
-0.8865077113874313
11
-0.38184344727563874
21
-0.8875437927297206
0
LINE
8
Polygon
10
-0.38184344727563874
20
-0.8875437927297206
11
-0.38262874993986257
21
-0.888619919524518
0
LINE
8
Polygon
10
-0.38262874993986257
20
-0.888619919524518
11
-0.38336001607740855
21
-0.8897334719431298
0
LINE
8
Polygon
10
-0.38336001607740855
20
-0.8897334719431298
11
-0.38403546542221617
21
-0.8908817390442507
0
LINE
8
Polygon
10
-0.38403546542221617
20
-0.8908817390442507
11
-0.3846534535941036
21
-0.892061925373745
0
LINE
8
Polygon
10
-0.3846534535941036
20
-0.892061925373745
11
-0.38521247610200826
21
-0.8932711577701741
0
LINE
8
Polygon
10
-0.38521247610200826
20
-0.8932711577701741
11
-0.38571117200666777
21
-0.8945064923595034
0
LINE
8
Polygon
10
-0.38571117200666777
20
-0.8945064923595034
11
-0.38614832723382364
21
-0.8957649217219581
0
LINE
8
Polygon
10
-0.38614832723382364
20
-0.8957649217219581
11
-0.38652287752988324
21
-0.8970433822135805
0
LINE
8
Polygon
10
-0.38652287752988324
20
-0.8970433822135805
11
-0.3870755623822864
21
-0.8991411431433177
0
LINE
8
Polygon
10
-0.3870755623822864
20
-0.8991411431433177
11
-0.3876168622260149
21
-0.9012418706229275
0
LINE
8
Polygon
10
-0.3876168622260149
20
-0.9012418706229275
11
-0.38814676113987917
21
-0.9033455028639557
0
LINE
8
Polygon
10
-0.3881467611398792
20
-0.9033455028639559
11
-0.3886652435380239
21
-0.9054519779925111
0
LINE
8
Polygon
10
-0.3886652435380239
20
-0.9054519779925111
11
-0.38917229417038623
21
-0.9075612340510846
0
LINE
8
Polygon
10
-0.38917229417038623
20
-0.9075612340510846
11
-0.3896678981231448
21
-0.9096732090003721
0
LINE
8
Polygon
10
-0.3896678981231448
20
-0.9096732090003721
11
-0.3901520408191579
21
-0.9117878407210991
0
LINE
8
Polygon
10
-0.3901520408191579
20
-0.9117878407210991
11
-0.39062470801839244
21
-0.913905067015848
0
LINE
8
Polygon
10
-0.3906247080183925
20
-0.9139050670158481
11
-0.391085885818343
21
-0.9160248256108868
0
LINE
8
Polygon
10
-0.391085885818343
20
-0.9160248256108868
11
-0.3915355606544403
21
-0.9181470541580016
0
LINE
8
Polygon
10
-0.3915355606544403
20
-0.9181470541580016
11
-0.39197371930045044
21
-0.9202716902363299
0
LINE
8
Polygon
10
-0.39197371930045044
20
-0.9202716902363299
11
-0.3924003488688639
21
-0.9223986713541971
0
LINE
8
Polygon
10
-0.3924003488688639
20
-0.9223986713541971
11
-0.3928154368112747
21
-0.9245279349509536
0
LINE
8
Polygon
10
-0.39281543681127473
20
-0.9245279349509539
11
-0.39321897091874924
21
-0.9266594183988166
0
LINE
8
Polygon
10
-0.39321897091874924
20
-0.9266594183988166
11
-0.3936109393221856
21
-0.9287930590047095
0
LINE
8
Polygon
10
-0.3936109393221856
20
-0.9287930590047095
11
-0.3939913304926624
21
-0.9309287940121089
0
LINE
8
Polygon
10
-0.3939913304926624
20
-0.9309287940121089
11
-0.3943601332417784
21
-0.9330665606028883
0
LINE
8
Polygon
10
-0.3943601332417784
20
-0.9330665606028885
11
-0.39471733672198095
21
-0.9352062958991667
0
LINE
8
Polygon
10
-0.39471733672198095
20
-0.9352062958991667
11
-0.39506293042688545
21
-0.9373479369651576
0
LINE
8
Polygon
10
-0.39506293042688545
20
-0.9373479369651576
11
-0.39539690419158435
21
-0.9394914208090204
0
LINE
8
Polygon
10
-0.39539690419158435
20
-0.9394914208090204
11
-0.395719248192946
21
-0.941636684384713
0
LINE
8
Polygon
10
-0.395719248192946
20
-0.941636684384713
11
-0.3960299529499036
21
-0.9437836645938468
0
LINE
8
Polygon
10
-0.3960299529499037
20
-0.943783664593847
11
-0.3963290093237342
21
-0.9459322982875414
0
LINE
8
Polygon
10
-0.3963290093237342
20
-0.9459322982875414
11
-0.39661640851832725
21
-0.9480825222682828
0
LINE
8
Polygon
10
-0.39661640851832725
20
-0.9480825222682828
11
-0.39689214208044354
21
-0.9502342732917821
0
LINE
8
Polygon
10
-0.39689214208044354
20
-0.9502342732917821
11
-0.39715620189996376
21
-0.952387488068836
0
LINE
8
Polygon
10
-0.39715620189996376
20
-0.952387488068836
11
-0.39740858021012704
21
-0.9545421032671874
0
LINE
8
Polygon
10
-0.39740858021012704
20
-0.9545421032671876
11
-0.39764926958775937
21
-0.9566980555133895
0
LINE
8
Polygon
10
-0.39764926958775937
20
-0.9566980555133895
11
-0.39787826295349193
21
-0.958855281394668
0
LINE
8
Polygon
10
-0.39787826295349193
20
-0.958855281394668
11
-0.39809555357196946
21
-0.9610137174607886
0
LINE
8
Polygon
10
-0.39809555357196946
20
-0.9610137174607886
11
-0.3983011350520481
21
-0.9631733002259208
0
LINE
8
Polygon
10
-0.3983011350520481
20
-0.9631733002259208
11
-0.3984950013469836
21
-0.9653339661705074
0
LINE
8
Polygon
10
-0.3984950013469837
20
-0.9653339661705075
11
-0.3986771467546092
21
-0.967495651743131
0
LINE
8
Polygon
10
-0.3986771467546092
20
-0.967495651743131
11
-0.398847565917503
21
-0.9696582933623844
0
LINE
8
Polygon
10
-0.398847565917503
20
-0.9696582933623844
11
-0.3990062538231459
21
-0.97182182741874
0
LINE
8
Polygon
10
-0.3990062538231459
20
-0.97182182741874
11
-0.399153205804069
21
-0.9739861902764213
0
LINE
8
Polygon
10
-0.399153205804069
20
-0.9739861902764215
11
-0.39928841753799066
21
-0.9761513182752747
0
LINE
8
Polygon
10
-0.39928841753799066
20
-0.9761513182752747
11
-0.3994118850479438
21
-0.9783171477326406
0
LINE
8
Polygon
10
-0.3994118850479438
20
-0.9783171477326406
11
-0.3995236047023929
21
-0.9804836149452283
0
LINE
8
Polygon
10
-0.3995236047023929
20
-0.9804836149452283
11
-0.39962357321534064
21
-0.9826506561909887
0
LINE
8
Polygon
10
-0.39962357321534064
20
-0.9826506561909887
11
-0.39971178764642484
21
-0.9848182077309887
0
LINE
8
Polygon
10
-0.39971178764642484
20
-0.9848182077309889
11
-0.3997882454010045
21
-0.9869862058112862
0
LINE
8
Polygon
10
-0.3997882454010045
20
-0.9869862058112862
11
-0.3998529442302367
21
-0.9891545866648043
0
LINE
8
Polygon
10
-0.3998529442302367
20
-0.9891545866648043
11
-0.39990588223114215
21
-0.9913232865132083
0
LINE
8
Polygon
10
-0.39990588223114215
20
-0.9913232865132083
11
-0.3999470578466616
21
-0.993492241568781
0
LINE
8
Polygon
10
-0.3999470578466616
20
-0.993492241568781
11
-0.39997646986570157
21
-0.9956613880362987
0
LINE
8
Polygon
10
-0.39997646986570157
20
-0.9956613880362988
11
-0.39999411742316954
21
-0.9978306621149075
0
LINE
8
Polygon
10
-0.39999411742316954
20
-0.9978306621149075
11
-0.4
21
-1.0
0
LINE
8
Polygon
10
-1
20
-1
11
-0.4
21
-1.0
0
LINE
8
Polygon
10
-0.2928932188134524
20
-0.2928932188134524
11
-0.29815609840063906
21
-0.290822469420584
0
LINE
8
Polygon
10
-0.29815609840063906
20
-0.290822469420584
11
-0.3034894991115695
21
-0.28894078361951697
0
LINE
8
Polygon
10
-0.3034894991115695
20
-0.28894078361951697
11
-0.3088866314914415
21
-0.28725055680887046
0
LINE
8
Polygon
10
-0.30888663149144147
20
-0.28725055680887046
11
-0.31434062495461157
21
-0.2857539406586874
0
LINE
8
Polygon
10
-0.31434062495461157
20
-0.2857539406586874
11
-0.31984453653089673
21
-0.284452840371344
0
LINE
8
Polygon
10
-0.31984453653089673
20
-0.284452840371344
11
-0.32539135970402183
21
-0.2833489122562146
0
LINE
8
Polygon
10
-0.32539135970402183
20
-0.2833489122562146
11
-0.33097403333096176
21
-0.28244356162117845
0
LINE
8
Polygon
10
-0.3309740333309617
20
-0.28244356162117845
11
-0.3365854506308237
21
-0.28173794098365357
0
LINE
8
Polygon
10
-0.3365854506308237
20
-0.28173794098365357
11
-0.34221846823182683
21
-0.28123294860343445
0
LINE
8
Polygon
10
-0.34221846823182683
20
-0.28123294860343445
11
-0.3478659152648625
21
-0.280929227339201
0
LINE
8
Polygon
10
-0.3478659152648625
20
-0.280929227339201
11
-0.35352060249205836
21
-0.2808271638301556
0
LINE
8
Polygon
10
-0.35352060249205836
20
-0.2808271638301556
11
-0.35917533145872654
21
-0.2809268880038282
0
LINE
8
Polygon
10
-0.35917533145872654
20
-0.2809268880038282
11
-0.3648229036570445
21
-0.2812282729106783
0
LINE
8
Polygon
10
-0.36482290365704445
20
-0.2812282729106783
11
-0.3704561296898037
21
-0.2817309348857024
0
LINE
8
Polygon
10
-0.3704561296898037
20
-0.2817309348857024
11
-0.3760678384225603
21
-0.28243423403684176
0
LINE
8
Polygon
10
-0.3760678384225603
20
-0.28243423403684176
11
-0.3816508861125376
21
-0.28333727505956974
0
LINE
8
Polygon
10
-0.3816508861125376
20
-0.28333727505956974
11
-0.3871981655026581
21
-0.28443890837662017
0
LINE
8
Polygon
10
-0.3871981655026581
20
-0.28443890837662017
11
-0.3927026148691293
21
-0.2857377316014071
0
LINE
8
Polygon
10
-0.3927026148691293
20
-0.2857377316014071
11
-0.39815722701106554
21
-0.2872320913232721
0
LINE
8
Polygon
10
-0.39815722701106554
20
-0.2872320913232721
11
-0.4035550581707016
21
-0.2889200852122873
0
LINE
8
Polygon
10
-0.4035550581707016
20
-0.2889200852122873
11
-0.4088892368728428
21
-0.290799564440934
0
LINE
8
Polygon
10
-0.4088892368728428
20
-0.290799564440934
11
-0.4141529726722988
21
-0.29286813641957443
0
LINE
8
Polygon
10
-0.4141529726722987
20
-0.29286813641957443
11
-0.4193395647981658
21
-0.2951231678422346
0
LINE
8
Polygon
10
-0.4193395647981658
20
-0.2951231678422346
11
-0.42444241068395305
21
-0.29756178803882005
0
LINE
8
Polygon
10
-0.42444241068395305
20
-0.29756178803882005
11
-0.42945501437269384
21
-0.30018089262949854
0
LINE
8
Polygon
10
-0.42945501437269384
20
-0.30018089262949854
11
-0.43437099478634217
21
-0.30297714747659615
0
LINE
8
Polygon
10
-0.43437099478634217
20
-0.30297714747659615
11
-0.4391840938489281
21
-0.30594699292897665
0
LINE
8
Polygon
10
-0.4391840938489281
20
-0.30594699292897665
11
-0.44388818445313016
21
-0.30908664835350164
0
LINE
8
Polygon
10
-0.44388818445313016
20
-0.30908664835350164
11
-0.44847727826012396
21
-0.31239211694780133
0
LINE
8
Polygon
10
-0.44847727826012396
20
-0.31239211694780133
11
-0.45294553332277776
21
-0.31585919082823133
0
LINE
8
Polygon
10
-0.45294553332277776
20
-0.31585919082823133
11
-0.45728726152249
21
-0.31948345638653614
0
LINE
8
Polygon
10
-0.45728726152249
20
-0.31948345638653614
11
-0.4614969358102026
21
-0.3232602999084022
0
LINE
8
Polygon
10
-0.4614969358102026
20
-0.3232602999084022
11
-0.4655691972423714
21
-0.3271849134467473
0
LINE
8
Polygon
10
-0.4655691972423714
20
-0.3271849134467473
11
-0.4694988618029369
21
-0.33125230094226904
0
LINE
8
Polygon
10
-0.4694988618029369
20
-0.33125230094226904
11
-0.47328092700261165
21
-0.33545728458346197
0
LINE
8
Polygon
10
-0.4732809270026116
20
-0.3354572845834619
11
-0.4769105782470825
21
-0.3397945113980062
0
LINE
8
Polygon
10
-0.4769105782470825
20
-0.3397945113980062
11
-0.4803831949660215
21
-0.3442584600671371
0
LINE
8
Polygon
10
-0.4803831949660215
20
-0.3442584600671371
11
-0.4836943564951026
21
-0.34884344795432115
0
LINE
8
Polygon
10
-0.4836943564951026
20
-0.34884344795432115
11
-0.4868398477035373
21
-0.3535436383392897
0
LINE
8
Polygon
10
-0.4868398477035373
20
-0.35354363833928965
11
-0.4898156643599638
21
-0.3583530478482237
0
LINE
8
Polygon
10
-0.4898156643599638
20
-0.3583530478482237
11
-0.4926180182298612
21
-0.3632655540706281
0
LINE
8
Polygon
10
-0.4926180182298612
20
-0.3632655540706281
11
-0.4952433418979961
21
-0.3682749033532018
0
LINE
8
Polygon
10
-0.4952433418979961
20
-0.3682749033532018
11
-0.49768829330976766
21
-0.37337471876077954
0
LINE
8
Polygon
10
-0.49768829330976766
20
-0.37337471876077954
11
-0.49994976002566405
21
-0.37855850819421366
0
LINE
8
Polygon
10
-0.49994976002566405
20
-0.37855850819421366
11
-0.5020248631834197
21
-0.3838196726548596
0
LINE
8
Polygon
10
-0.5020248631834197
20
-0.3838196726548596
11
-0.5039109611628256
21
-0.3891515146451451
0
LINE
8
Polygon
10
-0.5039109611628256
20
-0.3891515146451451
11
-0.5056056529485303
21
-0.3945472466945297
0
LINE
8
Polygon
10
-0.5056056529485303
20
-0.3945472466945297
11
-0.5071067811865475
21
-0.4
0
LINE
8
Polygon
10
-0.5071067811865476
20
-0.4
11
-0.5075153331269179
21
-0.4014755130247202
0
LINE
8
Polygon
10
-0.5075153331269179
20
-0.4014755130247202
11
-0.5079805758107954
21
-0.40293414341628536
0
LINE
8
Polygon
10
-0.5079805758107954
20
-0.40293414341628536
11
-0.5085018147912203
21
-0.4043737139423051
0
LINE
8
Polygon
10
-0.5085018147912203
20
-0.4043737139423051
11
-0.5090782720380638
21
-0.40579207582019833
0
LINE
8
Polygon
10
-0.5090782720380638
20
-0.40579207582019833
11
-0.5097090870993589
21
-0.407187111924585
0
LINE
8
Polygon
10
-0.5097090870993589
20
-0.407187111924585
11
-0.5103933183856586
21
-0.4085567399474247
0
LINE
8
Polygon
10
-0.5103933183856586
20
-0.4085567399474247
11
-0.5111299445755042
21
-0.4098989155061847
0
LINE
8
Polygon
10
-0.5111299445755042
20
-0.4098989155061847
11
-0.5119178661399064
21
-0.4112116351953983
0
LINE
8
Polygon
10
-0.5119178661399064
20
-0.4112116351953983
11
-0.5127559069835631
21
-0.4124929395770588
0
LINE
8
Polygon
10
-0.5127559069835631
20
-0.4124929395770588
11
-0.5136428162003639
21
-0.4137409161053849
0
LINE
8
Polygon
10
-0.5136428162003639
20
-0.4137409161053849
11
-0.5145772699405622
21
-0.4149537019815924
0
LINE
8
Polygon
10
-0.5145772699405622
20
-0.4149537019815924
11
-0.5155578733868266
21
-0.4161294869344106
0
LINE
8
Polygon
10
-0.5155578733868266
20
-0.4161294869344106
11
-0.5165831628362216
21
-0.4172665159221933
0
LINE
8
Polygon
10
-0.5165831628362216
20
-0.4172665159221933
11
-0.5176516078850129
21
-0.41836309175259123
0
LINE
8
Polygon
10
-0.5176516078850129
20
-0.41836309175259123
11
-0.518761613713031
21
-0.4194175776158748
0
LINE
8
Polygon
10
-0.518761613713031
20
-0.4194175776158748
11
-0.5199115234641895
21
-0.4204283995281273
0
LINE
8
Polygon
10
-0.5199115234641895
20
-0.4204283995281273
11
-0.5210996207195991
21
-0.42139404868066
0
LINE
8
Polygon
10
-0.5210996207195991
20
-0.42139404868066
11
-0.52232413205959
21
-0.42231308369214365
0
LINE
8
Polygon
10
-0.52232413205959
20
-0.42231308369214365
11
-0.5235832297108158
21
-0.42318413276009376
0
LINE
8
Polygon
10
-0.5235832297108158
20
-0.42318413276009376
11
-0.5248750342744892
21
-0.4240058957084991
0
LINE
8
Polygon
10
-0.5248750342744892
20
-0.4240058957084991
11
-0.5261976175316765
21
-0.4247771459285361
0
LINE
8
Polygon
10
-0.5261976175316765
20
-0.4247771459285361
11
-0.5275490053214638
21
-0.42549673220947315
0
LINE
8
Polygon
10
-0.5275490053214638
20
-0.42549673220947315
11
-0.5289271804876992
21
-0.4261635804570313
0
LINE
8
Polygon
10
-0.5289271804876992
20
-0.4261635804570313
11
-0.5303300858899107
21
-0.4267766952966369
0
LINE
8
Polygon
10
-0.5303300858899107
20
-0.4267766952966369
11
-0.531755627473909
21
-0.4273351615591727
0
LINE
8
Polygon
10
-0.531755627473909
20
-0.4273351615591727
11
-0.5332016773974877
21
-0.4278381456470099
0
LINE
8
Polygon
10
-0.5332016773974877
20
-0.4278381456470099
11
-0.5346660772065583
21
-0.42828489677828185
0
LINE
8
Polygon
10
-0.5346660772065583
20
-0.42828489677828185
11
-0.5361466410569791
21
-0.42867474810754297
0
LINE
8
Polygon
10
-0.5361466410569791
20
-0.42867474810754297
11
-0.5376411589772655
21
-0.42900711772113886
0
LINE
8
Polygon
10
-0.5376411589772655
20
-0.42900711772113886
11
-0.539147400167317
21
-0.4292815095058029
0
LINE
8
Polygon
10
-0.539147400167317
20
-0.4292815095058029
11
-0.5406631163282324
21
-0.42949751388918245
0
LINE
8
Polygon
10
-0.5406631163282324
20
-0.42949751388918245
11
-0.5421860450182446
21
-0.4296548084511888
0
LINE
8
Polygon
10
-0.5421860450182446
20
-0.4296548084511888
11
-0.543713913029767
21
-0.4297531584052598
0
LINE
8
Polygon
10
-0.543713913029767
20
-0.4297531584052598
11
-0.5452444397825084
21
-0.42979241694881487
0
LINE
8
Polygon
10
-0.5452444397825084
20
-0.42979241694881487
11
-0.5467753407275934
21
-0.42977252548238065
0
LINE
8
Polygon
10
-0.5467753407275934
20
-0.42977252548238065
11
-0.5483043307576065
21
-0.4296935136970601
0
LINE
8
Polygon
10
-0.5483043307576065
20
-0.4296935136970601
11
-0.5498291276174698
21
-0.42955549953021366
0
LINE
8
Polygon
10
-0.5498291276174698
20
-0.42955549953021366
11
-0.5513474553110628
21
-0.4293586889894195
0
LINE
8
Polygon
10
-0.5513474553110628
20
-0.4293586889894195
11
-0.5528570474985005
21
-0.4291033758449751
0
LINE
8
Polygon
10
-0.5528570474985005
20
-0.4291033758449751
11
-0.5543556508789976
21
-0.4287899411913998
0
LINE
8
Polygon
10
-0.5543556508789976
20
-0.4287899411913998
11
-0.5558410285542696
21
-0.4284188528785917
0
LINE
8
Polygon
10
-0.5558410285542696
20
-0.4284188528785917
11
-0.5573109633674511
21
-0.42799066481348913
0
LINE
8
Polygon
10
-0.5573109633674511
20
-0.42799066481348913
11
-0.5587632612125467
21
-0.4275060161332786
0
LINE
8
Polygon
10
-0.5587632612125467
20
-0.4275060161332786
11
-0.560195754309475
21
-0.4269656302513831
0
LINE
8
Polygon
10
-0.560195754309475
20
-0.4269656302513831
11
-0.5616063044398169
21
-0.4263703137776555
0
LINE
8
Polygon
10
-0.5616063044398169
20
-0.4263703137776555
11
-0.5629928061384389
21
-0.4257209553143878
0
LINE
8
Polygon
10
-0.5629928061384389
20
-0.4257209553143878
11
-0.5643531898362266
21
-0.42501852412993446
0
LINE
8
Polygon
10
-0.5643531898362266
20
-0.42501852412993446
11
-0.5656854249492381
21
-0.42426406871192857
0
LINE
8
Polygon
10
-0.565685424949238
20
-0.42426406871192857
11
-0.5802939785622302
21
-0.416611238151573
0
LINE
8
Polygon
10
-0.5802939785622302
20
-0.416611238151573
11
-0.5956185918222758
21
-0.41051764457477374
0
LINE
8
Polygon
10
-0.5956185918222758
20
-0.41051764457477374
11
-0.6114933856551471
21
-0.40604924720960955
0
LINE
8
Polygon
10
-0.6114933856551471
20
-0.40604924720960955
11
-0.6277465256360617
21
-0.4032544135812923
0
LINE
8
Polygon
10
-0.6277465256360617
20
-0.4032544135812923
11
-0.6442020819867224
21
-0.40216339596483985
0
LINE
8
Polygon
10
-0.6442020819867224
20
-0.40216339596483985
11
-0.6606819339019229
21
-0.4027880039236722
0
LINE
8
Polygon
10
-0.6606819339019229
20
-0.4027880039236722
11
-0.6770076975926099
21
-0.40512147647868957
0
LINE
8
Polygon
10
-0.6770076975926099
20
-0.40512147647868957
11
-0.6930026571755754
21
-0.40913855529151855
0
LINE
8
Polygon
10
-0.6930026571755754
20
-0.40913855529151855
11
-0.7084936775091414
21
-0.4147957580697669
0
LINE
8
Polygon
10
-0.7084936775091414
20
-0.4147957580697669
11
-0.723313078269624
21
-0.42203184923484915
0
LINE
8
Polygon
10
-0.723313078269624
20
-0.4220318492348492
11
-0.7373004489829026
21
-0.4307685027577086
0
LINE
8
Polygon
10
-0.7373004489829026
20
-0.4307685027577086
11
-0.7503043853645474
21
-0.44091114998766345
0
LINE
8
Polygon
10
-0.7503043853645474
20
-0.44091114998766345
11
-0.7621841281737409
21
-0.45235000329717795
0
LINE
8
Polygon
10
-0.7621841281737409
20
-0.452350003297178
11
-0.7728110868414546
21
-0.46496124446226095
0
LINE
8
Polygon
10
-0.7728110868414546
20
-0.46496124446226095
11
-0.7820702313805855
21
-0.4786083649150399
0
LINE
8
Polygon
10
-0.7820702313805855
20
-0.4786083649150399
11
-0.7898613375115235
21
-0.49314364336113903
0
LINE
8
Polygon
10
-0.7898613375115235
20
-0.4931436433611391
11
-0.7961000715254646
21
-0.508409744767604
0
LINE
8
Polygon
10
-0.7961000715254646
20
-0.508409744767604
11
-0.800718903142523
21
-0.5242414234133584
0
LINE
8
Polygon
10
-0.800718903142523
20
-0.5242414234133584
11
-0.8036678364835436
21
-0.5404673115677675
0
LINE
8
Polygon
10
-0.8036678364835436
20
-0.5404673115677676
11
-0.8049149512433109
21
-0.5569117744360144
0
LINE
8
Polygon
10
-0.8049149512433109
20
-0.5569117744360144
11
-0.8044467482073068
21
-0.573396811292699
0
LINE
8
Polygon
10
-0.8044467482073068
20
-0.573396811292699
11
-0.8022682953720179
21
-0.5897439822251141
0
LINE
8
Polygon
10
-0.8022682953720179
20
-0.5897439822251141
11
-0.7984031730871364
21
-0.6057763396304394
0
LINE
8
Polygon
10
-0.7984031730871364
20
-0.6057763396304394
11
-0.7928932188134525
21
-0.6213203435596428
0
LINE
8
Polygon
10
-0.7928932188134525
20
-0.6213203435596428
11
-0.7857980742592722
21
-0.6362077401757225
0
LINE
8
Polygon
10
-0.7857980742592722
20
-0.6362077401757225
11
-0.7771945397973152
21
-0.6502773829931893
0
LINE
8
Polygon
10
-0.7771945397973152
20
-0.6502773829931893
11
-0.7671757431501167
21
-0.6633769771850434
0
LINE
8
Polygon
10
-0.7671757431501167
20
-0.6633769771850434
11
-0.7558501313423754
21
-0.6753647280762459
0
LINE
8
Polygon
10
-0.7558501313423753
20
-0.675364728076246
11
-0.7433402968317183
21
-0.6861108759798044
0
LINE
8
Polygon
10
-0.7433402968317183
20
-0.6861108759798044
11
-0.7297816505242584
21
-0.6954991007618587
0
LINE
8
Polygon
10
-0.7297816505242585
20
-0.6954991007618587
11
-0.7153209560386984
21
-0.7034277809322571
0
LINE
8
Polygon
10
-0.7153209560386984
20
-0.7034277809322571
11
-0.7001147410846287
21
-0.7098110936317732
0
LINE
8
Polygon
10
-0.7001147410846287
20
-0.7098110936317732
11
-0.6843276031508267
21
-0.7145799436093141
0
LINE
8
Polygon
10
-0.684327603150827
20
-0.7145799436093141
11
-0.6681304278433914
21
-0.7176827111335379
0
LINE
8
Polygon
10
-0.6681304278433914
20
-0.7176827111335379
11
-0.6516985391590527
21
-0.7190858107432174
0
LINE
8
Polygon
10
-0.6516985391590527
20
-0.7190858107432174
11
-0.635209801715764
21
-0.7187740547882404
0
LINE
8
Polygon
10
-0.6352098017157641
20
-0.7187740547882404
11
-0.6188426954827005
21
-0.716750817826145
0
LINE
8
Polygon
10
-0.6188426954827005
20
-0.716750817826145
11
-0.6027743838494799
21
-0.7130380000947067
0
LINE
8
Polygon
10
-0.6027743838494799
20
-0.7130380000947067
11
-0.5871787959465077
21
-0.7076757904559622
0
LINE
8
Polygon
10
-0.5871787959465078
20
-0.7076757904559622
11
-0.5722247439740978
21
-0.7007222313776457
0
LINE
8
Polygon
10
-0.5722247439740978
20
-0.7007222313776457
11
-0.558074095919066
21
-0.6922525906608382
0
LINE
8
Polygon
10
-0.558074095919066
20
-0.6922525906608382
11
-0.5448800234379666
21
-0.6823585467144697
0
LINE
8
Polygon
10
-0.5448800234379667
20
-0.6823585467144698
11
-0.5327853438725048
21
-0.6711471961955549
0
LINE
8
Polygon
10
-0.5327853438725048
20
-0.6711471961955549
11
-0.5219209743437427
21
-0.6587398947568178
0
LINE
8
Polygon
10
-0.5219209743437427
20
-0.6587398947568178
11
-0.5124045146585352
21
-0.6452709434498675
0
LINE
8
Polygon
10
-0.5124045146585353
20
-0.6452709434498676
11
-0.5043389743673172
21
-0.6308861350027621
0
LINE
8
Polygon
10
-0.5043389743673172
20
-0.6308861350027621
11
-0.4978116577520273
21
-0.615741175707573
0
LINE
8
Polygon
10
-0.4978116577520273
20
-0.615741175707573
11
-0.4928932188134524
21
-0.6
0
LINE
8
Polygon
10
-0.49289321881345244
20
-0.6000000000000001
11
-0.4924846668730821
21
-0.5985244869752799
0
LINE
8
Polygon
10
-0.4924846668730821
20
-0.5985244869752799
11
-0.4920194241892047
21
-0.5970658565837148
0
LINE
8
Polygon
10
-0.4920194241892047
20
-0.5970658565837148
11
-0.4914981852087798
21
-0.595626286057695
0
LINE
8
Polygon
10
-0.4914981852087798
20
-0.595626286057695
11
-0.4909217279619363
21
-0.5942079241798018
0
LINE
8
Polygon
10
-0.4909217279619363
20
-0.5942079241798018
11
-0.49029091290064114
21
-0.5928128880754151
0
LINE
8
Polygon
10
-0.49029091290064114
20
-0.5928128880754151
11
-0.48960668161434145
21
-0.5914432600525754
0
LINE
8
Polygon
10
-0.48960668161434145
20
-0.5914432600525754
11
-0.48887005542449585
21
-0.5901010844938155
0
LINE
8
Polygon
10
-0.48887005542449585
20
-0.5901010844938155
11
-0.48808213386009364
21
-0.5887883648046018
0
LINE
8
Polygon
10
-0.48808213386009364
20
-0.5887883648046018
11
-0.487244093016437
21
-0.5875070604229413
0
LINE
8
Polygon
10
-0.48724409301643695
20
-0.5875070604229413
11
-0.48635718379963616
21
-0.5862590838946152
0
LINE
8
Polygon
10
-0.48635718379963616
20
-0.5862590838946152
11
-0.4854227300594378
21
-0.5850462980184077
0
LINE
8
Polygon
10
-0.4854227300594378
20
-0.5850462980184077
11
-0.4844421266131735
21
-0.5838705130655895
0
LINE
8
Polygon
10
-0.4844421266131735
20
-0.5838705130655895
11
-0.48341683716377837
21
-0.5827334840778068
0
LINE
8
Polygon
10
-0.48341683716377837
20
-0.5827334840778068
11
-0.48234839211498726
21
-0.5816369082474089
0
LINE
8
Polygon
10
-0.48234839211498726
20
-0.5816369082474089
11
-0.48123838628696913
21
-0.5805824223841253
0
LINE
8
Polygon
10
-0.48123838628696913
20
-0.5805824223841253
11
-0.48008847653581066
21
-0.5795716004718728
0
LINE
8
Polygon
10
-0.4800884765358106
20
-0.5795716004718728
11
-0.47890037928040097
21
-0.5786059513193401
0
LINE
8
Polygon
10
-0.47890037928040097
20
-0.5786059513193401
11
-0.47767586794041
21
-0.5776869163078565
0
LINE
8
Polygon
10
-0.47767586794041
20
-0.5776869163078565
11
-0.4764167702891842
21
-0.5768158672399063
0
LINE
8
Polygon
10
-0.4764167702891842
20
-0.5768158672399063
11
-0.4751249657255109
21
-0.575994104291501
0
LINE
8
Polygon
10
-0.47512496572551083
20
-0.575994104291501
11
-0.4738023824683236
21
-0.575222854071464
0
LINE
8
Polygon
10
-0.4738023824683236
20
-0.575222854071464
11
-0.47245099467853624
21
-0.574503267790527
0
LINE
8
Polygon
10
-0.47245099467853624
20
-0.574503267790527
11
-0.47107281951230096
21
-0.5738364195429688
0
LINE
8
Polygon
10
-0.47107281951230096
20
-0.5738364195429688
11
-0.46966991411008935
21
-0.5732233047033631
0
LINE
8
Polygon
10
-0.46966991411008935
20
-0.5732233047033631
11
-0.468244372526091
21
-0.5726648384408274
0
LINE
8
Polygon
10
-0.468244372526091
20
-0.5726648384408274
11
-0.4667983226025124
21
-0.5721618543529903
0
LINE
8
Polygon
10
-0.4667983226025124
20
-0.5721618543529903
11
-0.46533392279344166
21
-0.5717151032217183
0
LINE
8
Polygon
10
-0.46533392279344166
20
-0.5717151032217183
11
-0.463853358943021
21
-0.5713252518924571
0
LINE
8
Polygon
10
-0.463853358943021
20
-0.5713252518924571
11
-0.4623588410227346
21
-0.5709928822788612
0
LINE
8
Polygon
10
-0.4623588410227346
20
-0.5709928822788612
11
-0.460852599832683
21
-0.5707184904941972
0
LINE
8
Polygon
10
-0.460852599832683
20
-0.5707184904941972
11
-0.45933688367176767
21
-0.5705024861108177
0
LINE
8
Polygon
10
-0.45933688367176767
20
-0.5705024861108177
11
-0.4578139549817554
21
-0.5703451915488114
0
LINE
8
Polygon
10
-0.4578139549817554
20
-0.5703451915488114
11
-0.45628608697023304
21
-0.5702468415947403
0
LINE
8
Polygon
10
-0.45628608697023304
20
-0.5702468415947403
11
-0.45475556021749164
21
-0.5702075830511852
0
LINE
8
Polygon
10
-0.45475556021749164
20
-0.5702075830511852
11
-0.4532246592724066
21
-0.5702274745176195
0
LINE
8
Polygon
10
-0.4532246592724066
20
-0.5702274745176195
11
-0.45169566924239346
21
-0.57030648630294
0
LINE
8
Polygon
10
-0.45169566924239346
20
-0.57030648630294
11
-0.45017087238253023
21
-0.5704445004697865
0
LINE
8
Polygon
10
-0.45017087238253023
20
-0.5704445004697865
11
-0.4486525446889372
21
-0.5706413110105807
0
LINE
8
Polygon
10
-0.4486525446889372
20
-0.5706413110105807
11
-0.4471429525014995
21
-0.570896624155025
0
LINE
8
Polygon
10
-0.4471429525014995
20
-0.570896624155025
11
-0.4456443491210024
21
-0.5712100588086003
0
LINE
8
Polygon
10
-0.4456443491210024
20
-0.5712100588086003
11
-0.44415897144573047
21
-0.5715811471214084
0
LINE
8
Polygon
10
-0.44415897144573047
20
-0.5715811471214084
11
-0.442689036632549
21
-0.572009335186511
0
LINE
8
Polygon
10
-0.442689036632549
20
-0.572009335186511
11
-0.4412367387874534
21
-0.5724939838667216
0
LINE
8
Polygon
10
-0.4412367387874534
20
-0.5724939838667216
11
-0.4398042456905251
21
-0.573034369748617
0
LINE
8
Polygon
10
-0.4398042456905251
20
-0.573034369748617
11
-0.43839369556018315
21
-0.5736296862223447
0
LINE
8
Polygon
10
-0.43839369556018315
20
-0.5736296862223447
11
-0.4370071938615611
21
-0.5742790446856123
0
LINE
8
Polygon
10
-0.4370071938615611
20
-0.5742790446856123
11
-0.4356468101637734
21
-0.5749814758700657
0
LINE
8
Polygon
10
-0.4356468101637734
20
-0.5749814758700657
11
-0.43431457505076193
21
-0.5757359312880715
0
LINE
8
Polygon
10
-0.434314575050762
20
-0.5757359312880715
11
-0.42939743825579385
21
-0.5785301521699744
0
LINE
8
Polygon
10
-0.42939743825579385
20
-0.5785301521699744
11
-0.42438375148051555
21
-0.5811471828378669
0
LINE
8
Polygon
10
-0.42438375148051555
20
-0.5811471828378669
11
-0.4192798971817493
21
-0.5835836917941928
0
LINE
8
Polygon
10
-0.4192798971817493
20
-0.5835836917941928
11
-0.4140923726001783
21
-0.5858365773467425
0
LINE
8
Polygon
10
-0.4140923726001783
20
-0.5858365773467425
11
-0.4088277814893158
21
-0.587902971557129
0
LINE
8
Polygon
10
-0.4088277814893158
20
-0.587902971557129
11
-0.4034928257088827
21
-0.5897802438916916
0
LINE
8
Polygon
10
-0.4034928257088827
20
-0.5897802438916916
11
-0.3980942966932951
21
-0.5914660045701835
0
LINE
8
Polygon
10
-0.3980942966932951
20
-0.5914660045701835
11
-0.39263906680612304
21
-0.5929581076079781
0
LINE
8
Polygon
10
-0.39263906680612304
20
-0.5929581076079781
11
-0.3871340805915256
21
-0.5942546535479213
0
LINE
8
Polygon
10
-0.38713408059152576
20
-0.5942546535479213
11
-0.3815863459337998
21
-0.5953539918783535
0
LINE
8
Polygon
10
-0.3815863459337998
20
-0.5953539918783535
11
-0.3760029251362966
21
-0.5962547231342222
0
LINE
8
Polygon
10
-0.3760029251362966
20
-0.5962547231342222
11
-0.3703909259310618
21
-0.5969557006786098
0
LINE
8
Polygon
10
-0.3703909259310618
20
-0.5969557006786098
11
-0.3647574924306459
21
-0.5974560321624106
0
LINE
8
Polygon
10
-0.3647574924306459
20
-0.5974560321624106
11
-0.3591097960336002
21
-0.5977550806602969
0
LINE
8
Polygon
10
-0.3591097960336002
20
-0.5977550806602969
11
-0.3534550262952391
21
-0.5978524654815294
0
LINE
8
Polygon
10
-0.3534550262952391
20
-0.5978524654815294
11
-0.34780038177528777
21
-0.5977480626545788
0
LINE
8
Polygon
10
-0.34780038177528777
20
-0.5977480626545788
11
-0.34215306087406755
21
-0.5974420050849425
0
LINE
8
Polygon
10
-0.34215306087406755
20
-0.5974420050849425
11
-0.33652025266888397
21
-0.5969346823859554
0
LINE
8
Polygon
10
-0.33652025266888397
20
-0.5969346823859554
11
-0.3309091277622836
21
-0.5962267403828085
0
LINE
8
Polygon
10
-0.3309091277622836
20
-0.5962267403828085
11
-0.32532682915382855
21
-0.5953190802904105
0
LINE
8
Polygon
10
-0.32532682915382855
20
-0.5953190802904105
11
-0.31978046314701064
21
-0.5942128575661341
0
LINE
8
Polygon
10
-0.31978046314701064
20
-0.5942128575661341
11
-0.3142770903028792
21
-0.5929094804389112
0
LINE
8
Polygon
10
-0.3142770903028792
20
-0.5929094804389112
11
-0.30882371645189977
21
-0.5914106081165487
0
LINE
8
Polygon
10
-0.30882371645189977
20
-0.5914106081165487
11
-0.3034272837754849
21
-0.589718148673545
0
LINE
8
Polygon
10
-0.303427283775485
20
-0.589718148673545
11
-0.2980946619685509
21
-0.587834256622099
0
LINE
8
Polygon
10
-0.2980946619685507
20
-0.587834256622099
11
-0.2928326394943497
21
-0.5857613301694014
0
LINE
8
Polygon
10
-0.2928326394943498
20
-0.5857613301694014
11
-0.2876479149427109
21
-0.5835020081647008
0
LINE
8
Polygon
10
-0.2876479149427109
20
-0.5835020081647008
11
-0.2825470885026907
21
-0.5810591667400312
0
LINE
8
Polygon
10
-0.2825470885026907
20
-0.5810591667400312
11
-0.2775366535604879
21
-0.5784359156488766
0
LINE
8
Polygon
10
-0.2775366535604879
20
-0.5784359156488766
11
-0.2726229884333195
21
-0.5756355943074338
0
LINE
8
Polygon
10
-0.2726229884333195
20
-0.5756355943074338
11
-0.2678123482497803
21
-0.5726617675435135
0
LINE
8
Polygon
10
-0.2678123482497803
20
-0.5726617675435135
11
-0.26311085698702236
21
-0.5695182210584904
0
LINE
8
Polygon
10
-0.26311085698702236
20
-0.5695182210584904
11
-0.2585244996748909
21
-0.56620895660808
0
LINE
8
Polygon
10
-0.2585244996748909
20
-0.56620895660808
11
-0.25405911477694154
21
-0.5627381869080774
0
LINE
8
Polygon
10
-0.25405911477694154
20
-0.5627381869080774
11
-0.2497203867580368
21
-0.5591103302715409
0
LINE
8
Polygon
10
-0.2497203867580368
20
-0.5591103302715409
11
-0.24551383884798453
21
-0.5553300049842507
0
LINE
8
Polygon
10
-0.24551383884798453
20
-0.5553300049842507
11
-0.24144482601042933
21
-0.5514020234255997
0
LINE
8
Polygon
10
-0.24144482601042933
20
-0.5514020234255997
11
-0.23751852812594793
21
-0.5473313859424028
0
LINE
8
Polygon
10
-0.23751852812594793
20
-0.5473313859424028
11
-0.23373994339802656
21
-0.5431232744834215
0
LINE
8
Polygon
10
-0.23373994339802664
20
-0.5431232744834216
11
-0.2301138819903146
21
-0.5387830460027085
0
LINE
8
Polygon
10
-0.23011388199031452
20
-0.5387830460027084
11
-0.22664495990325362
21
-0.5343162256401696
0
LINE
8
Polygon
10
-0.22664495990325373
20
-0.5343162256401697
11
-0.22333759309787882
21
-0.5297284996880236
0
LINE
8
Polygon
10
-0.22333759309787873
20
-0.5297284996880235
11
-0.2201959918742698
21
-0.5250257083521135
0
LINE
8
Polygon
10
-0.2201959918742699
20
-0.5250257083521136
11
-0.21722415551181176
21
-0.520213838317287
0
LINE
8
Polygon
10
-0.21722415551181176
20
-0.520213838317287
11
-0.21442586717808487
21
-0.5152990151263045
0
LINE
8
Polygon
10
-0.21442586717808487
20
-0.5152990151263045
11
-0.21180468911286734
21
-0.5102874953819841
0
LINE
8
Polygon
10
-0.21180468911286734
20
-0.5102874953819841
11
-0.20936395809338018
21
-0.5051856587825031
0
LINE
8
Polygon
10
-0.20936395809338018
20
-0.5051856587825031
11
-0.2071067811865474
21
-0.5
0
LINE
8
Polygon
10
-0.2928932188134524
20
-0.2928932188134524
11
-0.1530733729460359
21
-0.6304481869954852
0
LINE
8
Polygon
10
-0.2071067811865474
20
-0.5
11
-0.5
21
0.20710678118654754
0
LINE
8
Polygon
10
-1.0
20
-0.4
11
-0.9945583269987557
21
-0.3999629835309107
0
LINE
8
Polygon
10
-0.9945583269987557
20
-0.3999629835309107
11
-0.9891176611551137
21
-0.39985194097473764
0
LINE
8
Polygon
10
-0.9891176611551137
20
-0.39985194097473764
11
-0.983679009440269
21
-0.39966689288349766
0
LINE
8
Polygon
10
-0.9836790094402689
20
-0.39966689288349766
11
-0.978243378452637
21
-0.3994078735063254
0
LINE
8
Polygon
10
-0.978243378452637
20
-0.3994078735063254
11
-0.9728117742315501
21
-0.3990749307831348
0
LINE
8
Polygon
10
-0.9728117742315501
20
-0.3990749307831348
11
-0.9673852020710569
21
-0.3986681263357459
0
LINE
8
Polygon
10
-0.9673852020710569
20
-0.3986681263357459
11
-0.9619646663338608
21
-0.39818753545647995
0
LINE
8
Polygon
10
-0.9619646663338608
20
-0.39818753545647995
11
-0.9565511702654294
21
-0.3976332470942241
0
LINE
8
Polygon
10
-0.9565511702654292
20
-0.3976332470942241
11
-0.951145715808312
21
-0.3970053638379686
0
LINE
8
Polygon
10
-0.951145715808312
20
-0.3970053638379686
11
-0.945749303416698
21
-0.396304001897819
0
LINE
8
Polygon
10
-0.945749303416698
20
-0.396304001897819
11
-0.9403629318712499
21
-0.39552929108348833
0
LINE
8
Polygon
10
-0.9403629318712499
20
-0.39552929108348833
11
-0.9349875980942466
21
-0.3946813747802711
0
LINE
8
Polygon
10
-0.9349875980942466
20
-0.3946813747802711
11
-0.9296242969650711
21
-0.39376040992250544
0
LINE
8
Polygon
10
-0.929624296965071
20
-0.3937604099225054
11
-0.9242740211360756
21
-0.3927665669645273
0
LINE
8
Polygon
10
-0.9242740211360756
20
-0.3927665669645273
11
-0.9189377608488596
21
-0.3917000298491224
0
LINE
8
Polygon
10
-0.9189377608488596
20
-0.3917000298491224
11
-0.9136165037509929
21
-0.3905609959734815
0
LINE
8
Polygon
10
-0.9136165037509929
20
-0.3905609959734815
11
-0.9083112347132198
21
-0.3893496761526658
0
LINE
8
Polygon
10
-0.9083112347132197
20
-0.3893496761526658
11
-0.9030229356471771
21
-0.38806629458058894
0
LINE
8
Polygon
10
-0.9030229356471771
20
-0.38806629458058894
11
-0.8977525853236592
21
-0.38671108878852234
0
LINE
8
Polygon
10
-0.8977525853236592
20
-0.38671108878852234
11
-0.8925011591914656
21
-0.38528430960113264
0
LINE
8
Polygon
10
-0.8925011591914656
20
-0.38528430960113264
11
-0.8872696291968616
21
-0.38378622109005806
0
LINE
8
Polygon
10
-0.8872696291968616
20
-0.38378622109005806
11
-0.8820589636036889
21
-0.3822171005250341
0
LINE
8
Polygon
10
-0.8820589636036889
20
-0.3822171005250341
11
-0.8768701268141568
21
-0.3805772383225752
0
LINE
8
Polygon
10
-0.8768701268141568
20
-0.3805772383225752
11
-0.8717040791903485
21
-0.37886693799222393
0
LINE
8
Polygon
10
-0.8717040791903485
20
-0.37886693799222393
11
-0.866561776876475
21
-0.3770865160803769
0
LINE
8
Polygon
10
-0.866561776876475
20
-0.3770865160803769
11
-0.8614441716219092
21
-0.37523630211169745
0
LINE
8
Polygon
10
-0.8614441716219092
20
-0.37523630211169745
11
-0.8563522106050351
21
-0.3733166385281264
0
LINE
8
Polygon
10
-0.8563522106050351
20
-0.3733166385281264
11
-0.8512868362579403
21
-0.3713278806255024
0
LINE
8
Polygon
10
-0.8512868362579403
20
-0.3713278806255024
11
-0.8462489860919898
21
-0.3692703964878025
0
LINE
8
Polygon
10
-0.8462489860919898
20
-0.3692703964878025
11
-0.8412395925243081
21
-0.36714456691901665
0
LINE
8
Polygon
10
-0.8412395925243081
20
-0.36714456691901665
11
-0.8362595827052062
21
-0.36495078537266745
0
LINE
8
Polygon
10
-0.8362595827052061
20
-0.36495078537266745
11
-0.8313098783465813
21
-0.3626894578789889
0
LINE
8
Polygon
10
-0.8313098783465813
20
-0.3626894578789889
11
-0.826391395551326
21
-0.3603610029697773
0
LINE
8
Polygon
10
-0.826391395551326
20
-0.3603610029697773
11
-0.8215050446437717
21
-0.35796585160092864
0
LINE
8
Polygon
10
-0.8215050446437717
20
-0.35796585160092864
11
-0.8166517300012051
21
-0.35550444707267587
0
LINE
8
Polygon
10
-0.8166517300012051
20
-0.35550444707267587
11
-0.8118323498864835
21
-0.35297724494754223
0
LINE
8
Polygon
10
-0.8118323498864833
20
-0.3529772449475422
11
-0.8070477962817819
21
-0.35038471296602436
0
LINE
8
Polygon
10
-0.8070477962817819
20
-0.35038471296602436
11
-0.8022989547235037
21
-0.3477273309600221
0
LINE
8
Polygon
10
-0.8022989547235037
20
-0.3477273309600221
11
-0.7975867041383824
21
-0.3450055907640299
0
LINE
8
Polygon
10
-0.7975867041383824
20
-0.3450055907640299
11
-0.792911916680809
21
-0.342219996124107
0
LINE
8
Polygon
10
-0.792911916680809
20
-0.342219996124107
11
-0.7882754575714102
21
-0.3393710626046426
0
LINE
8
Polygon
10
-0.78827545757141
20
-0.33937106260464256
11
-0.7836781849369125
21
-0.3364593174929347
0
LINE
8
Polygon
10
-0.7836781849369125
20
-0.3364593174929347
11
-0.7791209496513182
21
-0.3334852997015978
0
LINE
8
Polygon
10
-0.7791209496513182
20
-0.3334852997015978
11
-0.7746045951784223
21
-0.33044955966882017
0
LINE
8
Polygon
10
-0.7746045951784223
20
-0.33044955966882017
11
-0.7701299574157037
21
-0.32735265925648727
0
LINE
8
Polygon
10
-0.7701299574157037
20
-0.32735265925648727
11
-0.7656978645396146
21
-0.32419517164619094
0
LINE
8
Polygon
10
-0.7656978645396146
20
-0.32419517164619094
11
-0.7613091368522996
21
-0.32097768123314396
0
LINE
8
Polygon
10
-0.7613091368522995
20
-0.32097768123314396
11
-0.7569645866297726
21
-0.3177007835180183
0
LINE
8
Polygon
10
-0.7569645866297726
20
-0.3177007835180183
11
-0.7559267773413278
21
-0.3168654985165156
0
LINE
8
Polygon
10
-0.7559267773413278
20
-0.3168654985165156
11
-0.7549314322730492
21
-0.31598003968180277
0
LINE
8
Polygon
10
-0.7549314322730492
20
-0.31598003968180277
11
-0.7539809745906659
21
-0.3150465626617768
0
LINE
8
Polygon
10
-0.7539809745906659
20
-0.3150465626617768
11
-0.7530777181816498
21
-0.31406734000451797
0
LINE
8
Polygon
10
-0.7530777181816498
20
-0.31406734000451797
11
-0.7522238620220595
21
-0.3130447556257759
0
LINE
8
Polygon
10
-0.7522238620220595
20
-0.3130447556257759
11
-0.7514214848231374
21
-0.3119812990053311
0
LINE
8
Polygon
10
-0.7514214848231374
20
-0.3119812990053311
11
-0.750672539970692
21
-0.31087955912636095
0
LINE
8
Polygon
10
-0.750672539970692
20
-0.31087955912636095
11
-0.7499788507695825
21
-0.3097422181725649
0
LINE
8
Polygon
10
-0.7499788507695825
20
-0.3097422181725649
11
-0.749342106004887
21
-0.3085720449983934
0
LINE
8
Polygon
10
-0.749342106004887
20
-0.3085720449983934
11
-0.7487638558305587
21
-0.3073718883882766
0
LINE
8
Polygon
10
-0.7487638558305587
20
-0.3073718883882766
11
-0.7482455079955785
21
-0.3061446701212642
0
LINE
8
Polygon
10
-0.7482455079955785
20
-0.3061446701212642
11
-0.7477883244167929
21
-0.3048933778579594
0
LINE
8
Polygon
10
-0.7477883244167929
20
-0.3048933778579594
11
-0.7473934181067794
21
-0.30362105786706506
0
LINE
8
Polygon
10
-0.7473934181067794
20
-0.30362105786706506
11
-0.7470617504642202
21
-0.302330807609248
0
LINE
8
Polygon
10
-0.7470617504642202
20
-0.302330807609248
11
-0.7467941289333782
21
-0.3010257681963767
0
LINE
8
Polygon
10
-0.7467941289333782
20
-0.3010257681963767
11
-0.7465912050383756
21
-0.2997091167444903
0
LINE
8
Polygon
10
-0.7465912050383756
20
-0.2997091167444903
11
-0.74645347279706
21
-0.2983840586391153
0
LINE
8
Polygon
10
-0.74645347279706
20
-0.2983840586391153
11
-0.7463812675183181
21
-0.29705381973176087
0
LINE
8
Polygon
10
-0.7463812675183181
20
-0.29705381973176087
11
-0.7463747649857679
21
-0.29572163848658883
0
LINE
8
Polygon
10
-0.7463747649857679
20
-0.29572163848658883
11
-0.7464339810298127
21
-0.2943907580963789
0
LINE
8
Polygon
10
-0.7464339810298127
20
-0.2943907580963789
11
-0.7465587714891028
21
-0.2930644185869817
0
LINE
8
Polygon
10
-0.7465587714891028
20
-0.2930644185869817
11
-0.7467488325614955
21
-0.2917458489294821
0
LINE
8
Polygon
10
-0.7467488325614955
20
-0.2917458489294821
11
-0.7470037015436614
21
-0.2904382591792747
0
LINE
8
Polygon
10
-0.7470037015436614
20
-0.2904382591792747
11
-0.7473227579575342
21
-0.2891448326611901
0
LINE
8
Polygon
10
-0.7473227579575342
20
-0.2891448326611901
11
-0.7477052250608641
21
-0.2878687182196967
0
LINE
8
Polygon
10
-0.7477052250608641
20
-0.2878687182196967
11
-0.7481501717381946
21
-0.28661302255304405
0
LINE
8
Polygon
10
-0.7481501717381946
20
-0.28661302255304405
11
-0.7486565147676622
21
-0.28538080265001237
0
LINE
8
Polygon
10
-0.7486565147676622
20
-0.28538080265001237
11
-0.7492230214580969
21
-0.28417505834767864
0
LINE
8
Polygon
10
-0.7492230214580969
20
-0.28417505834767864
11
-0.7498483126500081
21
-0.2829987250283188
0
LINE
8
Polygon
10
-0.7498483126500081
20
-0.2829987250283188
11
-0.7505308660731442
21
-0.2818546664732252
0
LINE
8
Polygon
10
-0.7505308660731442
20
-0.2818546664732252
11
-0.7512690200524581
21
-0.28074566789083616
0
LINE
8
Polygon
10
-0.7512690200524581
20
-0.28074566789083616
11
-0.7520609775534509
21
-0.27967442913615126
0
LINE
8
Polygon
10
-0.7520609775534509
20
-0.27967442913615126
11
-0.7529048105570499
21
-0.27864355813793923
0
LINE
8
Polygon
10
-0.7529048105570499
20
-0.27864355813793923
11
-0.7537984647533674
21
-0.2776555645497404
0
LINE
8
Polygon
10
-0.7537984647533674
20
-0.2776555645497404
11
-0.7547397645429135
21
-0.2767128536401195
0
LINE
8
Polygon
10
-0.7547397645429135
20
-0.2767128536401195
11
-0.75572641833309
21
-0.27581772043704406
0
LINE
8
Polygon
10
-0.75572641833309
20
-0.27581772043704406
11
-0.7567560241170678
21
-0.27497234414064287
0
LINE
8
Polygon
10
-0.7567560241170678
20
-0.27497234414064287
11
-0.7578260753214686
21
-0.2741787828179474
0
LINE
8
Polygon
10
-0.7578260753214686
20
-0.2741787828179474
11
-0.7589339669086125
21
-0.2734389683925314
0
LINE
8
Polygon
10
-0.7589339669086125
20
-0.2734389683925314
11
-0.7600770017184777
21
-0.27275470194124646
0
LINE
8
Polygon
10
-0.7600770017184777
20
-0.27275470194124646
11
-0.7612523970349319
21
-0.2721276493095038
0
LINE
8
Polygon
10
-0.7612523970349319
20
-0.2721276493095038
11
-0.7624572913602489
21
-0.27155933705577673
0
LINE
8
Polygon
10
-0.7624572913602489
20
-0.27155933705577673
11
-0.7636887513814204
21
-0.27105114873519676
0
LINE
8
Polygon
10
-0.7636887513814204
20
-0.27105114873519676
11
-0.7649437791113004
21
-0.27060432153129127
0
LINE
8
Polygon
10
-0.7649437791113004
20
-0.27060432153129127
11
-0.7662193191871997
21
-0.2702199432440625
0
LINE
8
Polygon
10
-0.7662193191871997
20
-0.2702199432440625
11
-0.7675122663091601
21
-0.26989894964174055
0
LINE
8
Polygon
10
-0.7675122663091601
20
-0.26989894964174055
11
-0.7688194727998029
21
-0.269642122182657
0
LINE
8
Polygon
10
-0.7688194727998029
20
-0.269642122182657
11
-0.7701377562673417
21
-0.2694500861127864
0
LINE
8
Polygon
10
-0.6630961080042385
20
-0.10925093847701373
11
-0.6679330514813324
21
-0.10145257820497035
0
LINE
8
Polygon
10
-0.6679330514813324
20
-0.10145257820497035
11
-0.6734145530095318
21
-0.09409298676729304
0
LINE
8
Polygon
10
-0.6734145530095318
20
-0.09409298676729305
11
-0.6795010378560103
21
-0.08722529812068325
0
LINE
8
Polygon
10
-0.6795010378560103
20
-0.08722529812068325
11
-0.6861485634969152
21
-0.08089909483698308
0
LINE
8
Polygon
10
-0.6861485634969152
20
-0.0808990948369831
11
-0.6933091368686957
21
-0.07516005013245836
0
LINE
8
Polygon
10
-0.6933091368686957
20
-0.07516005013245836
11
-0.700931060863066
21
-0.07004959812141003
0
LINE
8
Polygon
10
-0.700931060863066
20
-0.07004959812141003
11
-0.7089593075640164
21
-0.06560463467478139
0
LINE
8
Polygon
10
-0.7089593075640164
20
-0.06560463467478139
11
-0.7173359155322185
21
-0.061857251043467606
0
LINE
8
Polygon
10
-0.7173359155322185
20
-0.061857251043467606
11
-0.7260004082685547
21
-0.058834502169484965
0
LINE
8
Polygon
10
-0.7260004082685547
20
-0.058834502169484965
11
-0.7348902308355952
21
-0.0565582113577206
0
LINE
8
Polygon
10
-0.7348902308355952
20
-0.0565582113577206
11
-0.7439412014847525
21
-0.055044812718472155
0
LINE
8
Polygon
10
-0.7439412014847525
20
-0.055044812718472155
11
-0.7530879750285049
21
-0.05430523251829268
0
LINE
8
Polygon
10
-0.753087975028505
20
-0.05430523251829267
11
-0.762264514612287
21
-0.05434481029575117
0
LINE
8
Polygon
10
-0.762264514612287
20
-0.05434481029575117
11
-0.7714045684799999
21
-0.05516326031162806
0
LINE
8
Polygon
10
-0.7714045684799999
20
-0.05516326031162806
11
-0.7804421482910456
21
-0.056754673611863315
0
LINE
8
Polygon
10
-0.7804421482910456
20
-0.056754673611863315
11
-0.7893120055355803
21
-0.05910756068836333
0
LINE
8
Polygon
10
-0.7893120055355803
20
-0.05910756068836333
11
-0.7979501026084233
21
-0.0622049344296689
0
LINE
8
Polygon
10
-0.7979501026084233
20
-0.0622049344296689
11
-0.8062940751406092
21
-0.06602443276260625
0
LINE
8
Polygon
10
-0.8062940751406092
20
-0.06602443276260625
11
-0.8142836822506986
21
-0.07053848009948656
0
LINE
8
Polygon
10
-0.8142836822506986
20
-0.07053848009948653
11
-0.8218612414651675
21
-0.07571448642525572
0
LINE
8
Polygon
10
-0.8218612414651675
20
-0.07571448642525572
11
-0.8289720451678919
21
-0.081515082587247
0
LINE
8
Polygon
10
-0.8289720451678919
20
-0.081515082587247
11
-0.8355647555720864
21
-0.08789839008881781
0
LINE
8
Polygon
10
-0.8355647555720864
20
-0.08789839008881778
11
-0.8415917753631277
21
-0.0948183234390448
0
LINE
8
Polygon
10
-0.8415917753631277
20
-0.0948183234390448
11
-0.8470095913363317
21
-0.10222492287560683
0
LINE
8
Polygon
10
-0.8470095913363317
20
-0.10222492287560683
11
-0.8517790885487329
21
-0.11006471505869969
0
LINE
8
Polygon
10
-0.8517790885487329
20
-0.11006471505869964
11
-0.8558658327167818
21
-0.11828109913188556
0
LINE
8
Polygon
10
-0.8558658327167818
20
-0.11828109913188556
11
-0.8592403188211426
21
-0.12681475536263814
0
LINE
8
Polygon
10
-0.8592403188211426
20
-0.12681475536263814
11
-0.861878184123737
21
-0.13560407341232522
0
LINE
8
Polygon
10
-0.861878184123737
20
-0.13560407341232517
11
-0.8637603840591214
21
-0.14458559714365413
0
LINE
8
Polygon
10
-0.8637603840591214
20
-0.14458559714365413
11
-0.8648733297303146
21
-0.15369448275420816
0
LINE
8
Polygon
10
-0.8648733297303146
20
-0.15369448275420816
11
-0.8652089860163995
21
-0.1628649669284924
0
LINE
8
Polygon
10
-0.8652089860163995
20
-0.16286496692849234
11
-0.8647649295835913
21
-0.17203084162857787
0
LINE
8
Polygon
10
-0.8647649295835913
20
-0.17203084162857787
11
-0.863544366380953
21
-0.18112593209550296
0
LINE
8
Polygon
10
-0.863544366380953
20
-0.18112593209550296
11
-0.8615561084944422
21
-0.19008457461041078
0
LINE
8
Polygon
10
-0.8615561084944422
20
-0.19008457461041073
11
-0.8588145105263961
21
-0.1988420905661365
0
LINE
8
Polygon
10
-0.8588145105263961
20
-0.1988420905661365
11
-0.8553393659597766
21
-0.20733525342659553
0
LINE
8
Polygon
10
-0.8553393659597766
20
-0.20733525342659553
11
-0.8511557642553907
21
-0.21550274520267015
0
LINE
8
Polygon
10
-0.8511557642553907
20
-0.2155027452026701
11
-0.8462939097138035
21
-0.2232855991489827
0
LINE
8
Polygon
10
-0.8462939097138035
20
-0.2232855991489827
11
-0.8407889034096993
21
-0.2306276254854213
0
LINE
8
Polygon
10
-0.8407889034096993
20
-0.2306276254854213
11
-0.8346804897730615
21
-0.2374758170698416
0
LINE
8
Polygon
10
-0.8346804897730616
20
-0.23747581706984158
11
-0.8280127696467746
21
-0.24378073209311457
0
LINE
8
Polygon
10
-0.8280127696467746
20
-0.24378073209311457
11
-0.8208338818922801
21
-0.2494968510335807
0
LINE
8
Polygon
10
-0.8208338818922801
20
-0.2494968510335807
11
-0.813195655842
21
-0.2545829052938111
0
LINE
8
Polygon
10
-0.813195655842
20
-0.2545829052938111
11
-0.8051532371077074
21
-0.2590021751470202
0
LINE
8
Polygon
10
-0.8051532371077074
20
-0.2590021751470202
11
-0.7967646894463947
21
-0.2627227548420505
0
LINE
8
Polygon
10
-0.7967646894463946
20
-0.26272275484205054
11
-0.7880905755580432
21
-0.2657177829529527
0
LINE
8
Polygon
10
-0.7880905755580432
20
-0.2657177829529527
11
-0.779193519841802
21
-0.26796563631011044
0
LINE
8
Polygon
10
-0.7791935198418019
20
-0.26796563631011044
11
-0.7701377562673417
21
-0.26945008611278637
0
LINE
8
Polygon
10
-0.6630961080042383
20
-0.10925093847701367
11
-0.6624142045675931
21
-0.1103953845683649
0
LINE
8
Polygon
10
-0.6624142045675931
20
-0.1103953845683649
11
-0.6616766806681098
21
-0.11150480227626788
0
LINE
8
Polygon
10
-0.6616766806681098
20
-0.11150480227626788
11
-0.6608853318063591
21
-0.1125764907253628
0
LINE
8
Polygon
10
-0.6608853318063591
20
-0.1125764907253628
11
-0.6600420845196824
21
-0.11360784089210063
0
LINE
8
Polygon
10
-0.6600420845196824
20
-0.11360784089210063
11
-0.659148991692041
21
-0.11459634195640621
0
LINE
8
Polygon
10
-0.659148991692041
20
-0.11459634195640621
11
-0.6582082275562736
21
-0.11553958741426512
0
LINE
8
Polygon
10
-0.6582082275562736
20
-0.11553958741426512
11
-0.6572220824009302
21
-0.11643528093635316
0
LINE
8
Polygon
10
-0.6572220824009302
20
-0.11643528093635316
11
-0.6561929569945693
21
-0.11728124195844591
0
LINE
8
Polygon
10
-0.6561929569945693
20
-0.11728124195844591
11
-0.655123356741091
21
-0.11807541098999833
0
LINE
8
Polygon
10
-0.655123356741091
20
-0.11807541098999834
11
-0.654015885580336
21
-0.11881585462797058
0
LINE
8
Polygon
10
-0.654015885580336
20
-0.11881585462797058
11
-0.6528732396487985
21
-0.11950077026369424
0
LINE
8
Polygon
10
-0.6528732396487985
20
-0.11950077026369424
11
-0.6516982007158877
21
-0.12012849047131977
0
LINE
8
Polygon
10
-0.6516982007158877
20
-0.12012849047131977
11
-0.6504936294117143
21
-0.12069748706716163
0
LINE
8
Polygon
10
-0.6504936294117143
20
-0.12069748706716163
11
-0.6492624582628924
21
-0.1212063748300587
0
LINE
8
Polygon
10
-0.6492624582628924
20
-0.1212063748300587
11
-0.6480076845533089
21
-0.1216539148736925
0
LINE
8
Polygon
10
-0.6480076845533089
20
-0.1216539148736925
11
-0.6467323630272411
21
-0.12203901766265382
0
LINE
8
Polygon
10
-0.6467323630272411
20
-0.12203901766265382
11
-0.6454395984525876
21
-0.12236074566491455
0
LINE
8
Polygon
10
-0.6454395984525876
20
-0.12236074566491455
11
-0.6441325380623165
21
-0.12261831563424769
0
LINE
8
Polygon
10
-0.6441325380623165
20
-0.12261831563424769
11
-0.6428143638925329
21
-0.12281110051703883
0
LINE
8
Polygon
10
-0.6428143638925329
20
-0.12281110051703883
11
-0.641488285035817
21
-0.12293863097884708
0
LINE
8
Polygon
10
-0.641488285035817
20
-0.12293863097884708
11
-0.6401575298286954
21
-0.1230005965469988
0
LINE
8
Polygon
10
-0.6401575298286954
20
-0.1230005965469988
11
-0.6388253379922607
21
-0.12299684636643284
0
LINE
8
Polygon
10
-0.6388253379922607
20
-0.12299684636643284
11
-0.6374949527450768
21
-0.12292738956695685
0
LINE
8
Polygon
10
-0.6374949527450768
20
-0.12292738956695685
11
-0.63616961290757
21
-0.12279239524102081
0
LINE
8
Polygon
10
-0.63616961290757
20
-0.12279239524102081
11
-0.6348525450171254
21
-0.12259219203206179
0
LINE
8
Polygon
10
-0.6348525450171254
20
-0.12259219203206179
11
-0.6335469554730886
21
-0.12232726733442202
0
LINE
8
Polygon
10
-0.6335469554730886
20
-0.12232726733442202
11
-0.6322560227307921
21
-0.12199826610678838
0
LINE
8
Polygon
10
-0.6322560227307921
20
-0.12199826610678838
11
-0.6309828895636114
21
-0.12160598930204158
0
LINE
8
Polygon
10
-0.6309828895636114
20
-0.12160598930204158
11
-0.6297306554118897
21
-0.12115139191733794
0
LINE
8
Polygon
10
-0.6297306554118897
20
-0.12115139191733794
11
-0.6285023688373552
21
-0.12063558066917046
0
LINE
8
Polygon
10
-0.6285023688373552
20
-0.12063558066917046
11
-0.627301020101404
21
-0.1200598112990697
0
LINE
8
Polygon
10
-0.627301020101404
20
-0.12005981129906969
11
-0.6261295338853139
21
-0.11942548551650319
0
LINE
8
Polygon
10
-0.6261295338853139
20
-0.11942548551650319
11
-0.6249907621701132
21
-0.11873414758641648
0
LINE
8
Polygon
10
-0.6249907621701132
20
-0.11873414758641648
11
-0.6238874772934383
21
-0.11798748056972287
0
LINE
8
Polygon
10
-0.6238874772934383
20
-0.11798748056972287
11
-0.6228223652002827
21
-0.11718730222589478
0
LINE
8
Polygon
10
-0.6228223652002827
20
-0.11718730222589478
11
-0.621798018904069
21
-0.11633556058763164
0
LINE
8
Polygon
10
-0.621798018904069
20
-0.11633556058763164
11
-0.6208169321739627
21
-0.1154343292183779
0
LINE
8
Polygon
10
-0.6208169321739627
20
-0.1154343292183779
11
-0.6198814934637952
21
-0.11448580216423669
0
LINE
8
Polygon
10
-0.6198814934637952
20
-0.1144858021642367
11
-0.6189939800973778
21
-0.11349228861256859
0
LINE
8
Polygon
10
-0.6189939800973778
20
-0.11349228861256858
11
-0.6181565527243611
21
-0.11245620727027925
0
LINE
8
Polygon
10
-0.6181565527243611
20
-0.11245620727027925
11
-0.6173712500601374
21
-0.11138008047548194
0
LINE
8
Polygon
10
-0.6173712500601374
20
-0.11138008047548194
11
-0.6166399839225913
21
-0.1102665280568701
0
LINE
8
Polygon
10
-0.6166399839225913
20
-0.11026652805687011
11
-0.6159645345777838
21
-0.10911826095574916
0
LINE
8
Polygon
10
-0.6159645345777838
20
-0.10911826095574917
11
-0.6153465464058964
21
-0.10793807462625496
0
LINE
8
Polygon
10
-0.6153465464058964
20
-0.10793807462625497
11
-0.6147875238979916
21
-0.10672884222982587
0
LINE
8
Polygon
10
-0.6147875238979916
20
-0.10672884222982587
11
-0.6142888279933322
21
-0.10549350764049649
0
LINE
8
Polygon
10
-0.6142888279933322
20
-0.10549350764049649
11
-0.6138516727661762
21
-0.10423507827804185
0
LINE
8
Polygon
10
-0.6138516727661762
20
-0.10423507827804185
11
-0.6134771224701167
21
-0.10295661778641944
0
LINE
8
Polygon
10
-0.6134771224701168
20
-0.10295661778641946
11
-0.6121122511322182
21
-0.09768876229272583
0
LINE
8
Polygon
10
-0.6121122511322182
20
-0.09768876229272583
11
-0.6108191709686502
21
-0.09240282633378327
0
LINE
8
Polygon
10
-0.6108191709686502
20
-0.09240282633378329
11
-0.6095981213057222
21
-0.087099788243017
0
LINE
8
Polygon
10
-0.6095981213057222
20
-0.087099788243017
11
-0.6084493281381695
21
-0.0817806295191548
0
LINE
8
Polygon
10
-0.6084493281381695
20
-0.0817806295191548
11
-0.6073730040873264
21
-0.07644633464456907
0
LINE
8
Polygon
10
-0.6073730040873264
20
-0.07644633464456908
11
-0.6063693483617725
21
-0.07109789090306655
0
LINE
8
Polygon
10
-0.6063693483617725
20
-0.07109789090306655
11
-0.6054385467204633
21
-0.06573628819715939
0
LINE
8
Polygon
10
-0.6054385467204633
20
-0.06573628819715939
11
-0.60458077143835
21
-0.06036251886485172
0
LINE
8
Polygon
10
-0.60458077143835
20
-0.06036251886485172
11
-0.6037961812744934
21
-0.054977577495975496
0
LINE
8
Polygon
10
-0.6037961812744934
20
-0.05497757749597551
11
-0.6030849214426817
21
-0.04958246074810937
0
LINE
8
Polygon
10
-0.6030849214426817
20
-0.04958246074810936
11
-0.6024471235845523
21
-0.04417816716211494
0
LINE
8
Polygon
10
-0.6024471235845523
20
-0.04417816716211493
11
-0.601882905745229
21
-0.03876569697732461
0
LINE
8
Polygon
10
-0.601882905745229
20
-0.03876569697732462
11
-0.6013923723514727
21
-0.033346051946414865
0
LINE
8
Polygon
10
-0.6013923723514727
20
-0.03334605194641486
11
-0.6009756141923545
21
-0.02792023514999948
0
LINE
8
Polygon
10
-0.6009756141923545
20
-0.027920235149999473
11
-0.6006327084024519
21
-0.022489250810977107
0
LINE
8
Polygon
10
-0.6006327084024519
20
-0.022489250810977118
11
-0.600363718447573
21
-0.017054104108667322
0
LINE
8
Polygon
10
-0.600363718447573
20
-0.01705410410866732
11
-0.6001686941130092
21
-0.011615800992769598
0
LINE
8
Polygon
10
-0.6001686941130092
20
-0.011615800992769595
11
-0.600047671494322
21
-0.006175347997179893
0
LINE
8
Polygon
10
-0.600047671494322
20
-0.006175347997179901
11
-0.6000006729906615
21
-0.0007337520536989322
0
LINE
8
Polygon
10
-0.6000006729906615
20
-0.0007337520536989287
11
-0.6000277073006209
21
0.004707979694333115
0
LINE
8
Polygon
10
-0.6000277073006209
20
0.004707979694333118
11
-0.6001287694206268
21
0.01014884007844102
0
LINE
8
Polygon
10
-0.6001287694206268
20
0.010148840078441024
11
-0.600303840645865
21
0.015587822091423646
0
LINE
8
Polygon
10
-0.600303840645865
20
0.015587822091423648
11
-0.6005528885737423
21
0.021023919073733185
0
LINE
8
Polygon
10
-0.6005528885737423
20
0.021023919073733164
11
-0.6008758671098844
21
0.026456124899790052
0
LINE
8
Polygon
10
-0.6008758671098844
20
0.02645612489979006
11
-0.601272716476666
21
0.031883434164199066
0
LINE
8
Polygon
10
-0.601272716476666
20
0.03188343416419907
11
-0.6017433632242757
21
0.037304842367832075
0
LINE
8
Polygon
10
-0.6017433632242757
20
0.03730484236783208
11
-0.6022877202443095
21
0.04271934610374314
0
LINE
8
Polygon
10
-0.6022877202443095
20
0.042719346103743144
11
-0.6029056867858934
21
0.048125943242881365
0
LINE
8
Polygon
10
-0.6029056867858934
20
0.04812594324288137
11
-0.6035971484743305
21
0.053523633119567385
0
LINE
8
Polygon
10
-0.6035971484743305
20
0.053523633119567364
11
-0.6043619773322697
21
0.05891141671669878
0
LINE
8
Polygon
10
-0.6043619773322697
20
0.05891141671669878
11
-0.6052000318033921
21
0.06428829685065068
0
LINE
8
Polygon
10
-0.6052000318033921
20
0.06428829685065068
11
-0.6061111567786105
21
0.0696532783558367
0
LINE
8
Polygon
10
-0.6061111567786105
20
0.0696532783558367
11
-0.6070951836247775
21
0.07500536826889659
0
LINE
8
Polygon
10
-0.6070951836247775
20
0.07500536826889659
11
-0.6081519302158966
21
0.08034357601247617
0
LINE
8
Polygon
10
-0.6081519302158966
20
0.08034357601247617
11
-0.6092812009668302
21
0.08566691357856582
0
LINE
8
Polygon
10
-0.6092812009668302
20
0.08566691357856582
11
-0.6104827868694988
21
0.09097439571136315
0
LINE
8
Polygon
10
-0.6104827868694988
20
0.09097439571136312
11
-0.6117564655315654
21
0.09626504008962662
0
LINE
8
Polygon
10
-0.6117564655315654
20
0.09626504008962665
11
-0.6131020012175958
21
0.10153786750848584
0
LINE
8
Polygon
10
-0.6131020012175958
20
0.10153786750848581
11
-0.6145191448926897
21
0.10679190206067489
0
LINE
8
Polygon
10
-0.6145191448926897
20
0.10679190206067486
11
-0.6160076342685714
21
0.11202617131715586
0
LINE
8
Polygon
10
-0.6160076342685714
20
0.11202617131715589
11
-0.6175671938521363
21
0.1172397065070981
0
LINE
8
Polygon
10
-0.6175671938521363
20
0.11723970650709808
11
-0.6191975349964387
21
0.12243154269718047
0
LINE
8
Polygon
10
-0.6191975349964387
20
0.12243154269718048
11
-0.6208983559541159
21
0.12760071897018385
0
LINE
8
Polygon
10
-0.6208983559541159
20
0.12760071897018385
11
-0.6226693419332359
21
0.13274627860283952
0
LINE
8
Polygon
10
-0.6226693419332359
20
0.13274627860283955
11
-0.6245101651555596
21
0.13786726924290213
0
LINE
8
Polygon
10
-0.6245101651555596
20
0.1378672692429021
11
-0.6264204849172077
21
0.14296274308541287
0
LINE
8
Polygon
10
-0.6264204849172077
20
0.14296274308541287
11
-0.6283999476517181
21
0.1480317570481219
0
LINE
8
Polygon
10
-0.6283999476517181
20
0.14803175704812194
11
-0.6304481869954852
21
0.15307337294603596
0
LINE
8
Polygon
10
-0.5
20
0.20710678118654754
11
-0.6304481869954852
21
0.15307337294603593
0
LINE
8
Polygon
10
-1.0
20
-0.4
11
-1
21
-1
0
ENDSEC
0
EOF
