0
SECTION
2
ENTITIES
0
LINE
8
Polygon
10
-0.2928932188134524
20
-0.2928932188134524
11
-0.3075395919856912
21
-0.2876526626959178
0
LINE
8
Polygon
10
-0.3075395919856912
20
-0.2876526626959178
11
-0.322629103192222
21
-0.2838729369030213
0
LINE
8
Polygon
10
-0.32262910319222193
20
-0.2838729369030213
11
-0.3380164321913599
21
-0.2815904422603567
0
LINE
8
Polygon
10
-0.3380164321913599
20
-0.2815904422603567
11
-0.35355339059327373
21
-0.2808271604390714
0
LINE
8
Polygon
10
-0.35355339059327373
20
-0.2808271604390714
11
-0.36909034899518756
21
-0.2815904422603567
0
LINE
8
Polygon
10
-0.36909034899518756
20
-0.2815904422603567
11
-0.38447767799432553
21
-0.2838729369030213
0
LINE
8
Polygon
10
-0.38447767799432553
20
-0.2838729369030213
11
-0.39956718920085627
21
-0.2876526626959178
0
LINE
8
Polygon
10
-0.39956718920085627
20
-0.2876526626959178
11
-0.41421356237309503
21
-0.2928932188134524
0
LINE
8
Polygon
10
-0.41421356237309503
20
-0.2928932188134524
11
-0.42827574493087117
21
-0.2995441358354338
0
LINE
8
Polygon
10
-0.42827574493087117
20
-0.2995441358354338
11
-0.4416183103689823
21
-0.3075413617951793
0
LINE
8
Polygon
10
-0.44161831036898225
20
-0.3075413617951792
11
-0.4541127624884712
21
-0.31680787903496804
0
LINE
8
Polygon
10
-0.4541127624884712
20
-0.31680787903496804
11
-0.46563877288526506
21
-0.32725444592818737
0
LINE
8
Polygon
10
-0.46563877288526506
20
-0.32725444592818737
11
-0.4760853397784844
21
-0.33878045632498116
0
LINE
8
Polygon
10
-0.4760853397784844
20
-0.33878045632498116
11
-0.4853518570182732
21
-0.3512749084444701
0
LINE
8
Polygon
10
-0.4853518570182732
20
-0.3512749084444701
11
-0.49334908297801866
21
-0.3646174738825813
0
LINE
8
Polygon
10
-0.4933490829780186
20
-0.36461747388258126
11
-0.5
21
-0.3786796564403574
0
LINE
8
Polygon
10
-0.5
20
-0.3786796564403574
11
-0.5052405561175346
21
-0.39332602961259616
0
LINE
8
Polygon
10
-0.5052405561175346
20
-0.39332602961259616
11
-0.5090202819104311
21
-0.40841554081912695
0
LINE
8
Polygon
10
-0.5090202819104311
20
-0.40841554081912684
11
-0.5113027765530958
21
-0.42380286981826487
0
LINE
8
Polygon
10
-0.5113027765530958
20
-0.42380286981826487
11
-0.512066058374381
21
-0.4393398282201787
0
LINE
8
Polygon
10
-0.512066058374381
20
-0.4393398282201787
11
-0.5113027765530958
21
-0.4548767866220925
0
LINE
8
Polygon
10
-0.5113027765530958
20
-0.4548767866220925
11
-0.5090202819104311
21
-0.4702641156212305
0
LINE
8
Polygon
10
-0.5090202819104311
20
-0.47026411562123044
11
-0.5052405561175346
21
-0.4853536268277612
0
LINE
8
Polygon
10
-0.5052405561175346
20
-0.4853536268277612
11
-0.5
21
-0.5
0
LINE
8
Polygon
10
-0.5
20
-0.5
11
-0.4933490829780186
21
-0.5140621825577761
0
LINE
8
Polygon
10
-0.4933490829780186
20
-0.5140621825577761
11
-0.48535185701827316
21
-0.5274047479958872
0
LINE
8
Polygon
10
-0.48535185701827316
20
-0.5274047479958872
11
-0.4760853397784844
21
-0.5398992001153763
0
LINE
8
Polygon
10
-0.4760853397784844
20
-0.5398992001153762
11
-0.4656387728852651
21
-0.55142521051217
0
LINE
8
Polygon
10
-0.4656387728852651
20
-0.55142521051217
11
-0.4541127624884713
21
-0.5618717774053893
0
LINE
8
Polygon
10
-0.4541127624884712
20
-0.5618717774053894
11
-0.4416183103689823
21
-0.5711382946451782
0
LINE
8
Polygon
10
-0.4416183103689823
20
-0.5711382946451782
11
-0.42827574493087117
21
-0.5791355206049236
0
LINE
8
Polygon
10
-0.42827574493087117
20
-0.5791355206049236
11
-0.41421356237309515
21
-0.585786437626905
0
LINE
8
Polygon
10
-0.41421356237309515
20
-0.585786437626905
11
-0.39956718920085643
21
-0.5910269937444396
0
LINE
8
Polygon
10
-0.39956718920085627
20
-0.5910269937444396
11
-0.3844776779943256
21
-0.5948067195373361
0
LINE
8
Polygon
10
-0.3844776779943254
20
-0.5948067195373361
11
-0.3690903489951875
21
-0.5970892141800007
0
LINE
8
Polygon
10
-0.3690903489951875
20
-0.5970892141800007
11
-0.3535533905932738
21
-0.597852496001286
0
LINE
8
Polygon
10
-0.3535533905932738
20
-0.597852496001286
11
-0.33801643219136
21
-0.5970892141800007
0
LINE
8
Polygon
10
-0.33801643219136
20
-0.5970892141800007
11
-0.3226291031922221
21
-0.5948067195373361
0
LINE
8
Polygon
10
-0.3226291031922221
20
-0.5948067195373361
11
-0.30753959198569136
21
-0.5910269937444397
0
LINE
8
Polygon
10
-0.30753959198569125
20
-0.5910269937444396
11
-0.29289321881345254
21
-0.5857864376269051
0
LINE
8
Polygon
10
-0.29289321881345237
20
-0.585786437626905
11
-0.2788310362556763
21
-0.5791355206049236
0
LINE
8
Polygon
10
-0.2788310362556763
20
-0.5791355206049236
11
-0.2654884708175652
21
-0.5711382946451782
0
LINE
8
Polygon
10
-0.2654884708175652
20
-0.5711382946451782
11
-0.2529940186980763
21
-0.5618717774053894
0
LINE
8
Polygon
10
-0.2529940186980763
20
-0.5618717774053894
11
-0.2414680083012825
21
-0.5514252105121702
0
LINE
8
Polygon
10
-0.2414680083012825
20
-0.5514252105121702
11
-0.23102144140806324
21
-0.5398992001153764
0
LINE
8
Polygon
10
-0.23102144140806302
20
-0.5398992001153762
11
-0.2217549241682743
21
-0.5274047479958872
0
LINE
8
Polygon
10
-0.2217549241682743
20
-0.5274047479958872
11
-0.21375769820852886
21
-0.5140621825577761
0
LINE
8
Polygon
10
-0.21375769820852886
20
-0.5140621825577761
11
-0.20710678118654746
21
-0.5000000000000001
0
LINE
8
Polygon
10
0
20
0
11
-0.2071067811865474
21
-0.5
0
LINE
8
Polygon
10
-0.2928932188134524
20
-0.2928932188134524
11
-0.5
21
0.20710678118654754
0
LINE
8
Polygon
10
-0.5
20
0.20710678118654754
11
0
21
0
0
ENDSEC
0
EOF
