0
SECTION
2
ENTITIES
0
LINE
8
Polygon
10
-30.76313787094631
20
-74.26878466919193
11
-31.08698377093696
21
-74.14011979566295
0
LINE
8
Polygon
10
-31.08698377093696
20
-74.14011979566295
11
-31.414429045013016
21
-74.02091237514628
0
LINE
8
Polygon
10
-31.414429045013016
20
-74.02091237514628
11
-31.745197568542316
21
-73.9112629316309
0
LINE
8
Polygon
10
-31.745197568542316
20
-73.9112629316309
11
-32.07901041449761
21
-73.81126392915485
0
LINE
8
Polygon
10
-32.07901041449761
20
-73.81126392915485
11
-32.41558608866721
21
-73.7209996938329
0
LINE
8
Polygon
10
-32.41558608866721
20
-73.7209996938329
11
-32.75464076703051
21
-73.64054634274702
0
LINE
8
Polygon
10
-32.75464076703051
20
-73.64054634274702
11
-33.0958885350981
21
-73.56997171975921
0
LINE
8
Polygon
10
-33.0958885350981
20
-73.56997171975921
11
-33.439041629014795
21
-73.50933533830072
0
LINE
8
Polygon
10
-33.439041629014795
20
-73.50933533830072
11
-33.78381067822213
21
-73.45868833118625
0
LINE
8
Polygon
10
-33.78381067822213
20
-73.45868833118625
11
-34.12990494947572
21
-73.4180734074952
0
LINE
8
Polygon
10
-34.12990494947572
20
-73.4180734074952
11
-34.47703259201177
21
-73.38752481655641
0
LINE
8
Polygon
10
-34.47703259201177
20
-73.38752481655641
11
-34.82490088365594
21
-73.36706831906669
0
LINE
8
Polygon
10
-34.82490088365594
20
-73.36706831906669
11
-35.173216477667054
21
-73.35672116536769
0
LINE
8
Polygon
10
-35.173216477667054
20
-73.35672116536769
11
-35.52168565010744
21
-73.35649208089914
0
LINE
8
Polygon
10
-35.52168565010744
20
-73.35649208089914
11
-35.87001454753144
21
-73.36638125884105
0
LINE
8
Polygon
10
-35.87001454753144
20
-73.36638125884105
11
-36.21790943478302
21
-73.38638035995062
0
LINE
8
Polygon
10
-36.21790943478302
20
-73.38638035995062
11
-36.565076942693736
21
-73.41647251959469
0
LINE
8
Polygon
10
-36.565076942693736
20
-73.41647251959469
11
-36.91122431547199
21
-73.45663236197105
0
LINE
8
Polygon
10
-36.91122431547199
20
-73.45663236197105
11
-37.25605965757509
21
-73.5068260215071
0
LINE
8
Polygon
10
-37.25605965757509
20
-73.5068260215071
11
-37.59929217985587
21
-73.56701117141762
0
LINE
8
Polygon
10
-37.59929217985587
20
-73.56701117141762
11
-37.94063244477635
21
-73.63713705939777
0
LINE
8
Polygon
10
-37.94063244477635
20
-73.63713705939777
11
-38.27979261048154
21
-73.71714455042084
0
LINE
8
Polygon
10
-38.27979261048154
20
-73.71714455042084
11
-38.6164866735278
21
-73.80696617660509
0
LINE
8
Polygon
10
-38.6164866735278
20
-73.80696617660509
11
-38.95043071006077
21
-73.90652619410736
0
LINE
8
Polygon
10
-38.95043071006077
20
-73.90652619410736
11
-39.03655510112143
21
-73.92940882219196
0
LINE
8
Polygon
10
-39.03655510112143
20
-73.92940882219196
11
-39.12437463571538
21
-73.94453346259529
0
LINE
8
Polygon
10
-39.12437463571538
20
-73.94453346259529
11
-39.21319193668746
21
-73.95178001016369
0
LINE
8
Polygon
10
-39.21319193668746
20
-73.95178001016369
11
-39.30230170359438
21
-73.95109091987884
0
LINE
8
Polygon
10
-39.30230170359438
20
-73.95109091987884
11
-39.39099631351343
21
-73.9424716638242
0
LINE
8
Polygon
10
-39.39099631351343
20
-73.9424716638242
11
-39.47857144029406
21
-73.92599068773103
0
LINE
8
Polygon
10
-39.47857144029406
20
-73.92599068773103
11
-39.5643316476298
21
-73.90177886744921
0
LINE
8
Polygon
10
-39.5643316476298
20
-73.90177886744921
11
-39.64759591153555
21
-73.87002846965862
0
LINE
8
Polygon
10
-39.64759591153555
20
-73.87002846965862
11
-39.727703028376446
21
-73.83099162507473
0
LINE
8
Polygon
10
-39.727703028376446
20
-73.83099162507473
11
-39.80401686550262
21
-73.78497832627203
0
LINE
8
Polygon
10
-39.80401686550262
20
-73.78497832627203
11
-39.87593141279482
21
-73.73235396602522
0
LINE
8
Polygon
10
-39.87593141279482
20
-73.73235396602522
11
-39.94287559500611
21
-73.67353643571589
0
LINE
8
Polygon
10
-39.94287559500611
20
-73.67353643571589
11
-40.00431780668491
21
-73.60899280684639
0
LINE
8
Polygon
10
-40.00431780668491
20
-73.60899280684639
11
-40.059770133667435
21
-73.53923562201321
0
LINE
8
Polygon
10
-40.059770133667435
20
-73.53923562201321
11
-40.108792227616426
21
-73.4648188247932
0
LINE
8
Polygon
10
-40.108792227616426
20
-73.4648188247932
11
-40.15099480283849
21
-73.38633336086355
0
LINE
8
Polygon
10
-40.15099480283849
20
-73.38633336086355
11
-40.1860427276117
21
-73.30440248528713
0
LINE
8
Polygon
10
-40.1860427276117
20
-73.30440248528713
11
-40.21365768547508
21
-73.21967681322823
0
LINE
8
Polygon
10
-40.21365768547508
20
-73.21967681322823
11
-40.23362038534671
21
-73.13282915340102
0
LINE
8
Polygon
10
-40.23362038534671
20
-73.13282915340102
11
-40.245772302919804
21
-73.04454916527844
0
LINE
8
Polygon
10
-40.245772302919804
20
-73.04454916527844
11
-40.25001693950819
21
-72.95553788248878
0
LINE
8
Polygon
10
-40.25001693950819
20
-72.95553788248878
11
-40.2463205883449
21
-72.8665021458899
0
LINE
8
Polygon
10
-40.2463205883449
20
-72.8665021458899
11
-40.23471260224843
21
-72.77814899052797
0
LINE
8
Polygon
10
-40.23471260224843
20
-72.77814899052797
11
-40.21528516053125
21
-72.69118003105419
0
LINE
8
Polygon
10
-40.21528516053125
20
-72.69118003105419
11
-40.05087110080624
21
-71.68908959886338
0
LINE
8
Polygon
10
-40.05087110080624
20
-71.68908959886338
11
-40.09231816932608
21
-70.67444712102464
0
LINE
8
Polygon
10
-40.09231816932608
20
-70.67444712102464
11
-40.33791672886415
21
-69.68910526924098
0
LINE
8
Polygon
10
-40.33791672886415
20
-69.68910526924098
11
-40.77753616089462
21
-68.77370810281276
0
LINE
8
Polygon
10
-40.77753616089462
20
-68.77370810281276
11
-41.393042740322315
21
-67.96601455448837
0
LINE
8
Polygon
10
-41.393042740322315
20
-67.96601455448837
11
-42.159047627863956
21
-67.29934092400195
0
LINE
8
Polygon
10
-42.159047627863956
20
-67.29934092400195
11
-43.04395412637606
21
-66.80118662439722
0
LINE
8
Polygon
10
-43.04395412637606
20
-66.80118662439722
11
-44.011261003179136
21
-66.49209986729964
0
LINE
8
Polygon
10
-44.011261003179136
20
-66.49209986729964
11
-45.02106811804139
21
-66.38483007613185
0
LINE
8
Polygon
10
-45.02106811804139
20
-66.38483007613185
11
-46.03172225164195
21
-66.48380198911585
0
LINE
8
Polygon
10
-46.03172225164195
20
-66.48380198911585
11
-47.00153524624769
21
-66.78493314462366
0
LINE
8
Polygon
10
-47.00153524624769
20
-66.78493314462366
11
-47.89050358755375
21
-67.27580227736595
0
LINE
8
Polygon
10
-47.89050358755375
20
-67.27580227736595
11
-48.661958497191705
21
-67.9361616792973
0
LINE
8
Polygon
10
-48.661958497191705
20
-67.9361616792973
11
-49.284078471753254
21
-68.73877239102195
0
LINE
8
Polygon
10
-49.284078471753254
20
-68.73877239102195
11
-49.73120187807806
21
-69.65052777315036
0
LINE
8
Polygon
10
-49.73120187807806
20
-69.65052777315036
11
-49.98488546197128
21
-70.63381911176101
0
LINE
8
Polygon
10
-49.98488546197128
20
-70.63381911176101
11
-50.03466510825441
21
-71.64808692853306
0
LINE
8
Polygon
10
-50.03466510825441
20
-71.64808692853306
11
-49.87848747179465
21
-72.65149400604122
0
LINE
8
Polygon
10
-49.87848747179465
20
-72.65149400604122
11
-49.52279467529915
21
-73.60265111811306
0
LINE
8
Polygon
10
-49.52279467529915
20
-73.60265111811306
11
-48.98225858020088
21
-74.46232428113464
0
LINE
8
Polygon
10
-48.98225858020088
20
-74.46232428113464
11
-48.27917559161383
21
-75.1950531044268
0
LINE
8
Polygon
10
-48.27917559161383
20
-75.1950531044268
11
-47.44254696085953
21
-75.77061348486123
0
LINE
8
Polygon
10
-47.44254696085953
20
-75.77061348486123
11
-46.5068825218796
21
-76.16526431148138
0
LINE
8
Polygon
10
-46.5068825218796
20
-76.16526431148138
11
-45.510777205838544
21
-76.36272675519761
0
LINE
8
Polygon
10
-45.510777205838544
20
-76.36272675519761
11
-45.42251864096292
21
-76.37503330344326
0
LINE
8
Polygon
10
-45.42251864096292
20
-76.37503330344326
11
-45.33570608515185
21
-76.39514811284278
0
LINE
8
Polygon
10
-45.33570608515185
20
-76.39514811284278
11
-45.25102891911639
21
-76.42291145118365
0
LINE
8
Polygon
10
-45.25102891911639
20
-76.42291145118365
11
-45.16915956638313
21
-76.45810284909088
0
LINE
8
Polygon
10
-45.16915956638313
20
-76.45810284909088
11
-45.09074815356191
21
-76.50044285077968
0
LINE
8
Polygon
10
-45.09074815356191
20
-76.50044285077968
11
-45.01641734767387
21
-76.54959523322104
0
LINE
8
Polygon
10
-45.01641734767387
20
-76.54959523322104
11
-44.94675741153684
21
-76.60516967609735
0
LINE
8
Polygon
10
-44.94675741153684
20
-76.60516967609735
11
-44.8823215164733
21
-76.66672486134593
0
LINE
8
Polygon
10
-44.8823215164733
20
-76.66672486134593
11
-44.82362134956285
21
-76.733771977677
0
LINE
8
Polygon
10
-44.82362134956285
20
-76.733771977677
11
-44.77112305032213
21
-76.80577860223654
0
LINE
8
Polygon
10
-44.77112305032213
20
-76.80577860223654
11
-44.72524350907906
21
-76.8821729285897
0
LINE
8
Polygon
10
-44.72524350907906
20
-76.8821729285897
11
-44.68634705643615
21
-76.9623483074502
0
LINE
8
Polygon
10
-44.68634705643615
20
-76.9623483074502
11
-44.65474257011195
21
-77.04566806409777
0
LINE
8
Polygon
10
-44.65474257011195
20
-77.04566806409777
11
-44.630681022135235
21
-77.13147055422826
0
LINE
8
Polygon
10
-44.630681022135235
20
-77.13147055422826
11
-44.61435348586973
21
-77.21907441808781
0
LINE
8
Polygon
10
-44.61435348586973
20
-77.21907441808781
11
-44.605889618695706
21
-77.30778399116811
0
LINE
8
Polygon
10
-44.605889618695706
20
-77.30778399116811
11
-44.605356632397395
21
-77.39689482849576
0
LINE
8
Polygon
10
-44.605356632397395
20
-77.39689482849576
11
-44.612758759432545
21
-77.48569929864779
0
LINE
8
Polygon
10
-44.612758759432545
20
-77.48569929864779
11
-44.62803721932232
21
-77.57349220307077
0
LINE
8
Polygon
10
-44.62803721932232
20
-77.57349220307077
11
-44.651070685428614
21
-77.65957637608042
0
LINE
8
Polygon
10
-44.651070685428614
20
-77.65957637608042
11
-44.68167624841193
21
-77.74326822107206
0
LINE
8
Polygon
10
-44.68167624841193
20
-77.74326822107206
11
-44.719610868719144
21
-77.82390313897848
0
LINE
8
Polygon
10
-44.719610868719144
20
-77.82390313897848
11
-44.7645733065667
21
-77.90084080586819
0
LINE
8
Polygon
10
-44.7645733065667
20
-77.90084080586819
11
-44.81620651409346
21
-77.97347025777391
0
LINE
8
Polygon
10
-44.81620651409346
20
-77.97347025777391
11
-45.02655774210946
21
-78.25128886315005
0
LINE
8
Polygon
10
-45.02655774210946
20
-78.25128886315005
11
-45.228753525803455
21
-78.5350980978084
0
LINE
8
Polygon
10
-45.228753525803455
20
-78.5350980978084
11
-45.4226233596259
21
-78.82465863406055
0
LINE
8
Polygon
10
-45.4226233596259
20
-78.82465863406055
11
-45.60800375904738
21
-79.11972629432057
0
LINE
8
Polygon
10
-45.60800375904738
20
-79.11972629432057
11
-45.784738398420046
21
-79.42005225701243
0
LINE
8
Polygon
10
-45.784738398420046
20
-79.42005225701243
11
-45.95267824280235
21
-79.72538326639378
0
LINE
8
Polygon
10
-45.95267824280235
20
-79.72538326639378
11
-46.11168167363563
21
-80.03546184611871
0
LINE
8
Polygon
10
-46.11168167363563
20
-80.03546184611871
11
-46.26161460816675
21
-80.35002651635976
0
LINE
8
Polygon
10
-46.26161460816675
20
-80.35002651635976
11
-46.40235061251601
21
-80.66881201430593
0
LINE
8
Polygon
10
-46.40235061251601
20
-80.66881201430593
11
-46.533771008294956
21
-80.99154951785067
0
LINE
8
Polygon
10
-46.533771008294956
20
-80.99154951785067
11
-46.655764972684274
21
-81.3179668722814
0
LINE
8
Polygon
10
-46.655764972684274
20
-81.3179668722814
11
-46.76822963188732
21
-81.64778881977934
0
LINE
8
Polygon
10
-46.76822963188732
20
-81.64778881977934
11
-46.87107014788043
21
-81.98073723153595
0
LINE
8
Polygon
10
-46.87107014788043
20
-81.98073723153595
11
-46.964199798386936
21
-82.31653134229062
0
LINE
8
Polygon
10
-46.964199798386936
20
-82.31653134229062
11
-47.04754005000744
21
-82.65488798709136
0
LINE
8
Polygon
10
-47.04754005000744
20
-82.65488798709136
11
-47.121020624444654
21
-82.99552184007922
0
LINE
8
Polygon
10
-47.121020624444654
20
-82.99552184007922
11
-47.1845795577669
21
-83.33814565509493
0
LINE
8
Polygon
10
-47.1845795577669
20
-83.33814565509493
11
-47.238163252660456
21
-83.6824705079048
0
LINE
8
Polygon
10
-47.238163252660456
20
-83.6824705079048
11
-47.28172652362652
21
-84.02820603984173
0
LINE
8
Polygon
10
-47.28172652362652
20
-84.02820603984173
11
-47.31523263508473
21
-84.37506070265592
0
LINE
8
Polygon
10
-47.31523263508473
20
-84.37506070265592
11
-47.338653332351264
21
-84.72274200436846
0
LINE
8
Polygon
10
-47.338653332351264
20
-84.72274200436846
11
-47.351968865465025
21
-85.07095675592112
0
LINE
8
Polygon
10
-47.351968865465025
20
-85.07095675592112
11
-47.35516800584225
21
-85.4194113184136
0
LINE
8
Polygon
10
-47.35516800584225
20
-85.4194113184136
11
-47.348248055745266
21
-85.76781185072036
0
LINE
8
Polygon
10
-47.348248055745266
20
-85.76781185072036
11
-81.14956076566446
21
-86.93034229353222
0
LINE
8
Polygon
10
-81.14956076566446
20
-86.93034229353222
11
-81.43125669029061
21
-78.7398539529707
0
LINE
8
Polygon
10
-81.43125669029061
20
-78.7398539529707
11
-81.02765236261465
21
-78.71916355361046
0
LINE
8
Polygon
10
-81.02765236261465
20
-78.71916355361046
11
-80.62497362816734
21
-78.6848942850397
0
LINE
8
Polygon
10
-80.62497362816734
20
-78.6848942850397
11
-80.22367720445887
21
-78.63708501540239
0
LINE
8
Polygon
10
-80.22367720445887
20
-78.63708501540239
11
-79.82421824118501
21
-78.57578996988782
0
LINE
8
Polygon
10
-79.82421824118501
20
-78.57578996988782
11
-79.42704980399715
21
-78.50107866922845
0
LINE
8
Polygon
10
-79.42704980399715
20
-78.50107866922845
11
-79.03262236063604
21
-78.4130358508497
0
LINE
8
Polygon
10
-79.03262236063604
20
-78.4130358508497
11
-78.64138327001206
21
-78.31176137276078
0
LINE
8
Polygon
10
-78.64138327001206
20
-78.31176137276078
11
-78.25377627481154
21
-78.19737010029615
0
LINE
8
Polygon
10
-78.25377627481154
20
-78.19737010029615
11
-77.8702409982046
21
-78.06999177583516
0
LINE
8
Polygon
10
-77.8702409982046
20
-78.06999177583516
11
-77.49121244522527
21
-77.92977087164871
0
LINE
8
Polygon
10
-77.49121244522527
20
-77.92977087164871
11
-77.11712050938966
21
-77.77686642603894
0
LINE
8
Polygon
10
-77.11712050938966
20
-77.77686642603894
11
-76.74838948511142
21
-77.61145186295828
0
LINE
8
Polygon
10
-76.74838948511142
20
-77.61145186295828
11
-76.38543758646767
21
-77.43371479531235
0
LINE
8
Polygon
10
-76.38543758646767
20
-77.43371479531235
11
-76.02867647286158
21
-77.24385681216971
0
LINE
8
Polygon
10
-76.02867647286158
20
-77.24385681216971
11
-75.67851078211874
21
-77.04209325011985
0
LINE
8
Polygon
10
-75.67851078211874
20
-77.04209325011985
11
-75.3353376715478
21
-76.82865294903888
0
LINE
8
Polygon
10
-75.3353376715478
20
-76.82865294903888
11
-74.99954636748534
21
-76.60377799253976
0
LINE
8
Polygon
10
-74.99954636748534
20
-76.60377799253976
11
-74.67151772383596
21
-76.36772343340138
0
LINE
8
Polygon
10
-74.67151772383596
20
-76.36772343340138
11
-74.3516237901086
21
-76.12075700428825
0
LINE
8
Polygon
10
-74.3516237901086
20
-76.12075700428825
11
-74.0402273894385
21
-75.86315881408855
0
LINE
8
Polygon
10
-74.0402273894385
20
-75.86315881408855
11
-73.73768170707389
21
-75.59522103021514
0
LINE
8
Polygon
10
-73.73768170707389
20
-75.59522103021514
11
-73.44432988979395
21
-75.31724754722978
0
LINE
8
Polygon
10
-73.44432988979395
20
-75.31724754722978
11
-73.16050465671228
21
-75.02955364216643
0
LINE
8
Polygon
10
-73.16050465671228
20
-75.02955364216643
11
-72.8865279219075
21
-74.73246561694465
0
LINE
8
Polygon
10
-72.8865279219075
20
-74.73246561694465
11
-72.82432232780782
21
-74.66865739281694
0
LINE
8
Polygon
10
-72.82432232780782
20
-74.66865739281694
11
-72.75668326281682
21
-74.6106403066201
0
LINE
8
Polygon
10
-72.75668326281682
20
-74.6106403066201
11
-72.6841478504679
21
-74.55887507350947
0
LINE
8
Polygon
10
-72.6841478504679
20
-74.55887507350947
11
-72.60729209631316
21
-74.5137727625162
0
LINE
8
Polygon
10
-72.60729209631316
20
-74.5137727625162
11
-72.52672631384878
21
-74.47569153223765
0
LINE
8
Polygon
10
-72.52672631384878
20
-74.47569153223765
11
-72.44309027799994
21
-74.44493378669085
0
LINE
8
Polygon
10
-72.44309027799994
20
-74.44493378669085
11
-72.35704814465201
21
-74.42174377391459
0
LINE
8
Polygon
10
-72.35704814465201
20
-74.42174377391459
11
-72.26928317657168
21
-74.40630564638938
0
LINE
8
Polygon
10
-72.26928317657168
20
-74.40630564638938
11
-72.1804923176
21
-74.39874199867813
0
LINE
8
Polygon
10
-72.1804923176
20
-74.39874199867813
11
-72.09138065820369
21
-74.39911289389943
0
LINE
8
Polygon
10
-72.09138065820369
20
-74.39911289389943
11
-72.0026558363338
21
-74.40741538676491
0
LINE
8
Polygon
10
-72.0026558363338
20
-74.40741538676491
11
-71.91502241805469
21
-74.42358354696782
0
LINE
8
Polygon
10
-71.91502241805469
20
-74.42358354696782
11
-71.82917630256715
21
-74.44748898273726
0
LINE
8
Polygon
10
-71.82917630256715
20
-74.44748898273726
11
-71.74579919605506
21
-74.47894186040048
0
LINE
8
Polygon
10
-71.74579919605506
20
-74.47894186040048
11
-71.66555319823931
21
-74.51769241185696
0
LINE
8
Polygon
10
-71.66555319823931
20
-74.51769241185696
11
-71.5890755446271
21
-74.56343291799318
0
LINE
8
Polygon
10
-71.5890755446271
20
-74.56343291799318
11
-71.51697354620855
21
-74.61580015228793
0
LINE
8
Polygon
10
-71.51697354620855
20
-74.61580015228793
11
-71.4498197667848
21
-74.67437826520334
0
LINE
8
Polygon
10
-71.4498197667848
20
-74.67437826520334
11
-71.38814747622416
21
-74.7387020864567
0
LINE
8
Polygon
10
-71.38814747622416
20
-74.7387020864567
11
-71.3324464157527
21
-74.80826081894932
0
LINE
8
Polygon
10
-71.3324464157527
20
-74.80826081894932
11
-71.28315890890661
21
-74.88250209501949
0
LINE
8
Polygon
10
-71.28315890890661
20
-74.88250209501949
11
-71.24067634902987
21
-74.9608363628079
0
LINE
8
Polygon
10
-71.24067634902987
20
-74.9608363628079
11
-71.20533609120965
21
-75.04264156790407
0
LINE
8
Polygon
10
-71.20533609120965
20
-75.04264156790407
11
-71.17741877333106
21
-75.12726809309619
0
LINE
8
Polygon
10
-71.17741877333106
20
-75.12726809309619
11
-70.80471711842307
21
-76.07189007767651
0
LINE
8
Polygon
10
-70.80471711842307
20
-76.07189007767651
11
-70.24884336978558
21
-76.9217262930141
0
LINE
8
Polygon
10
-70.24884336978558
20
-76.9217262930141
11
-69.5327265906287
21
-77.6417221096225
0
LINE
8
Polygon
10
-69.5327265906287
20
-77.6417221096225
11
-68.68590565904368
21
-78.20217864420222
0
LINE
8
Polygon
10
-68.68590565904368
20
-78.20217864420222
11
-67.74331082801616
21
-78.57997779963246
0
LINE
8
Polygon
10
-67.74331082801616
20
-78.57997779963246
11
-66.74382289829474
21
-78.7595358561624
0
LINE
8
Polygon
10
-66.74382289829474
20
-78.7595358561624
11
-65.72866943634487
21
-78.73344627941594
0
LINE
8
Polygon
10
-65.72866943634487
20
-78.73344627941594
11
-64.73972419129407
21
-78.50278523022243
0
LINE
8
Polygon
10
-64.73972419129407
20
-78.50278523022243
11
-63.817779857689835
21
-78.07706717439362
0
LINE
8
Polygon
10
-63.817779857689835
20
-78.07706717439362
11
-63.000865430341214
21
-77.47385242348538
0
LINE
8
Polygon
10
-63.000865430341214
20
-77.47385242348538
11
-62.32267755815069
21
-76.7180227949729
0
LINE
8
Polygon
10
-62.32267755815069
20
-76.7180227949729
11
-61.811190601533575
21
-75.84075526990762
0
LINE
8
Polygon
10
-61.811190601533575
20
-75.84075526990762
11
-61.48750272673388
21
-74.87823598333134
0
LINE
8
Polygon
10
-61.48750272673388
20
-74.87823598333134
11
-61.364965634132886
21
-73.87016759365706
0
LINE
8
Polygon
10
-61.364965634132886
20
-73.87016759365706
11
-61.44863381811664
21
-72.8581316000716
0
LINE
8
Polygon
10
-61.44863381811664
20
-72.8581316000716
11
-61.735056075810476
21
-71.88387316022047
0
LINE
8
Polygon
10
-61.735056075810476
20
-71.88387316022047
11
-62.21241786467208
21
-70.98757915719553
0
LINE
8
Polygon
10
-62.21241786467208
20
-70.98757915719553
11
-62.86102863687877
21
-70.20622054330491
0
LINE
8
Polygon
10
-62.86102863687877
20
-70.20622054330491
11
-63.6541340486049
21
-69.57202733677055
0
LINE
8
Polygon
10
-63.6541340486049
20
-69.57202733677055
11
-64.55901954162151
21
-69.11115917573996
0
LINE
8
Polygon
10
-64.55901954162151
20
-69.11115917573996
11
-65.53835977592438
21
-68.84262626751597
0
LINE
8
Polygon
10
-65.53835977592438
20
-68.84262626751597
11
-66.55175825106426
21
-68.77750524243373
0
LINE
8
Polygon
10
-66.55175825106426
20
-68.77750524243373
11
-67.55741360881824
21
-68.91848225738424
0
LINE
8
Polygon
10
-67.55741360881824
20
-68.91848225738424
11
-68.51384388440191
21
-69.25974219536492
0
LINE
8
Polygon
10
-68.51384388440191
20
-69.25974219536492
11
-68.59592609207648
21
-69.29443422019621
0
LINE
8
Polygon
10
-68.59592609207648
20
-69.29443422019621
11
-68.68077081175537
21
-69.32168121904452
0
LINE
8
Polygon
10
-68.68077081175537
20
-69.32168121904452
11
-68.7677042893642
21
-69.34126682279982
0
LINE
8
Polygon
10
-68.7677042893642
20
-69.34126682279982
11
-68.8560361839489
21
-69.35303550168516
0
LINE
8
Polygon
10
-68.8560361839489
20
-69.35303550168516
11
-68.94506504969058
21
-69.35689380032252
0
LINE
8
Polygon
10
-68.94506504969058
20
-69.35689380032252
11
-69.03408390610477
21
-69.35281107986444
0
LINE
8
Polygon
10
-69.03408390610477
20
-69.35281107986444
11
-69.12238585219124
21
-69.34081976129778
0
LINE
8
Polygon
10
-69.12238585219124
20
-69.34081976129778
11
-69.20926967995297
21
-69.32101506798789
0
LINE
8
Polygon
10
-69.20926967995297
20
-69.32101506798789
11
-69.2940454427065
21
-69.29355426950747
0
LINE
8
Polygon
10
-69.2940454427065
20
-69.29355426950747
11
-69.37603993396624
21
-69.25865543275482
0
LINE
8
Polygon
10
-69.37603993396624
20
-69.25865543275482
11
-69.45460203339408
21
-69.2165956902792
0
LINE
8
Polygon
10
-69.45460203339408
20
-69.2165956902792
11
-69.52910787736275
21
-69.16770903956406
0
LINE
8
Polygon
10
-69.52910787736275
20
-69.16770903956406
11
-69.59896581307255
21
-69.11238369074462
0
LINE
8
Polygon
10
-69.59896581307255
20
-69.11238369074462
11
-69.66362109688137
21
-69.05105898382133
0
LINE
8
Polygon
10
-69.66362109688137
20
-69.05105898382133
11
-69.72256029953802
21
-68.98422189984973
0
LINE
8
Polygon
10
-69.72256029953802
20
-68.98422189984973
11
-69.7753153833369
21
-68.91240319381154
0
LINE
8
Polygon
10
-69.7753153833369
20
-68.91240319381154
11
-69.82146741881743
21
-68.83617317987589
0
LINE
8
Polygon
10
-69.82146741881743
20
-68.83617317987589
11
-69.86064991149341
21
-68.75613720251992
0
LINE
8
Polygon
10
-69.86064991149341
20
-68.75613720251992
11
-69.89255171219511
21
-68.67293082947305
0
LINE
8
Polygon
10
-69.89255171219511
20
-68.67293082947305
11
-69.91691948791278
21
-68.58721480465736
0
LINE
8
Polygon
10
-69.91691948791278
20
-68.58721480465736
11
-69.93355973352037
21
-68.49966980120345
0
LINE
8
Polygon
10
-69.93355973352037
20
-68.49966980120345
11
-69.94234030840481
21
-68.41099101620769
0
LINE
8
Polygon
10
-69.94234030840481
20
-68.41099101620769
11
-69.94319148579787
21
-68.32188265015448
0
LINE
8
Polygon
10
-69.94319148579787
20
-68.32188265015448
11
-69.93610650647828
21
-68.23305231484234
0
LINE
8
Polygon
10
-69.93610650647828
20
-68.23305231484234
11
-69.89281748999005
21
-67.8312431474557
0
LINE
8
Polygon
10
-69.89281748999005
20
-67.8312431474557
11
-69.86308317679813
21
-67.42820417097394
0
LINE
8
Polygon
10
-69.86308317679813
20
-67.42820417097394
11
-69.84693729150804
21
-67.02439251149312
0
LINE
8
Polygon
10
-69.84693729150804
20
-67.02439251149312
11
-69.84439814675441
21
-66.62026617148497
0
LINE
8
Polygon
10
-69.84439814675441
20
-66.62026617148497
11
-69.85546862243075
21
-66.21628351033135
0
LINE
8
Polygon
10
-69.85546862243075
20
-66.21628351033135
11
-69.88013616242307
21
-65.8129027244538
0
LINE
8
Polygon
10
-69.88013616242307
20
-65.8129027244538
11
-69.91837278885103
21
-65.41058132762801
0
LINE
8
Polygon
10
-69.91837278885103
20
-65.41058132762801
11
-69.9701351338004
21
-65.0097756320724
0
LINE
8
Polygon
10
-69.9701351338004
20
-65.0097756320724
11
-70.03536448851085
21
-64.6109402308998
0
LINE
8
Polygon
10
-70.03536448851085
20
-64.6109402308998
11
-70.11398686996337
21
-64.21452748251852
0
LINE
8
Polygon
10
-70.11398686996337
20
-64.21452748251852
11
-70.2059131047916
21
-63.82098699756842
0
LINE
8
Polygon
10
-70.2059131047916
20
-63.82098699756842
11
-70.31103893042221
21
-63.430765128973206
0
LINE
8
Polygon
10
-70.31103893042221
20
-63.430765128973206
11
-70.42924511332923
21
-63.04430446568779
0
LINE
8
Polygon
10
-70.42924511332923
20
-63.04430446568779
11
-70.56039758426856
21
-62.66204333071461
0
LINE
8
Polygon
10
-70.56039758426856
20
-62.66204333071461
11
-70.70434759033903
21
-62.284415283958595
0
LINE
8
Polygon
10
-70.70434759033903
20
-62.284415283958595
11
-70.86093186369773
21
-61.91184863048409
0
LINE
8
Polygon
10
-70.86093186369773
20
-61.91184863048409
11
-71.02997280673809
21
-61.54476593473219
0
LINE
8
Polygon
10
-71.02997280673809
20
-61.54476593473219
11
-71.21127869352073
21
-61.18358354124875
0
LINE
8
Polygon
10
-71.21127869352073
20
-61.18358354124875
11
-71.40464388722873
21
-60.82871110246727
0
LINE
8
Polygon
10
-71.40464388722873
20
-60.82871110246727
11
-71.60984907340057
21
-60.48055111408169
0
LINE
8
Polygon
10
-71.60984907340057
20
-60.48055111408169
11
-71.8266615086761
21
-60.13949845853661
0
LINE
8
Polygon
10
-71.8266615086761
20
-60.13949845853661
11
-72.05483528477374
21
-59.80593995715222
0
LINE
8
Polygon
10
-72.05483528477374
20
-59.80593995715222
11
-72.29411160739924
21
-59.480253931392326
0
LINE
8
Polygon
10
-72.29411160739924
20
-59.480253931392326
11
-72.5442190897696
21
-59.162809773772715
0
LINE
8
Polygon
10
-72.5442190897696
20
-59.162809773772715
11
-30.96210175944698
21
-25.250874012767227
0
LINE
8
Polygon
10
-30.96210175944698
20
-25.250874012767227
11
-20.710678118654748
21
-50.0
0
LINE
8
Polygon
10
-20.710678118654748
20
-50.0
11
-30.76313787094631
21
-74.26878466919193
0
ENDSEC
0
EOF
