0
SECTION
2
ENTITIES
0
LINE
8
Polygon
10
-0.3076313787094631
20
-0.7426878466919193
11
-0.30924593757243957
21
-0.7420327664612032
0
LINE
8
Polygon
10
-0.30924593757243957
20
-0.7420327664612032
11
-0.3108698377093696
21
-0.7414011979566295
0
LINE
8
Polygon
10
-0.3108698377093696
20
-0.7414011979566296
11
-0.31250273675581985
21
-0.7407932743308403
0
LINE
8
Polygon
10
-0.31250273675581985
20
-0.7407932743308403
11
-0.31414429045013015
21
-0.7402091237514627
0
LINE
8
Polygon
10
-0.3141442904501301
20
-0.7402091237514627
11
-0.3157941527059939
21
-0.7396488693740886
0
LINE
8
Polygon
10
-0.3157941527059939
20
-0.7396488693740886
11
-0.31745197568542316
21
-0.739112629316309
0
LINE
8
Polygon
10
-0.31745197568542316
20
-0.739112629316309
11
-0.3191174098720822
21
-0.7386005166328125
0
LINE
8
Polygon
10
-0.31911740987208215
20
-0.7386005166328125
11
-0.3207901041449761
21
-0.7381126392915485
0
LINE
8
Polygon
10
-0.3207901041449761
20
-0.7381126392915485
11
-0.3224697058524768
21
-0.7376491001509664
0
LINE
8
Polygon
10
-0.3224697058524768
20
-0.7376491001509664
11
-0.32415586088667214
21
-0.7372099969383289
0
LINE
8
Polygon
10
-0.32415586088667214
20
-0.7372099969383289
11
-0.32584821375802187
21
-0.7367954222291084
0
LINE
8
Polygon
10
-0.32584821375802187
20
-0.7367954222291084
11
-0.3275464076703051
21
-0.7364054634274702
0
LINE
8
Polygon
10
-0.3275464076703051
20
-0.7364054634274702
11
-0.3292500845958429
21
-0.7360402027478441
0
LINE
8
Polygon
10
-0.3292500845958429
20
-0.7360402027478441
11
-0.33095888535098095
21
-0.7356997171975921
0
LINE
8
Polygon
10
-0.33095888535098095
20
-0.7356997171975921
11
-0.3326724496718157
21
-0.7353840785607728
0
LINE
8
Polygon
10
-0.3326724496718157
20
-0.7353840785607728
11
-0.33439041629014793
21
-0.7350933533830072
0
LINE
8
Polygon
10
-0.33439041629014793
20
-0.7350933533830072
11
-0.33611242300964894
21
-0.7348276029574491
0
LINE
8
Polygon
10
-0.33611242300964894
20
-0.7348276029574491
11
-0.3378381067822213
21
-0.7345868833118625
0
LINE
8
Polygon
10
-0.3378381067822213
20
-0.7345868833118625
11
-0.33956710378454014
21
-0.73437124519681
0
LINE
8
Polygon
10
-0.33956710378454014
20
-0.73437124519681
11
-0.3412990494947572
21
-0.7341807340749521
0
LINE
8
Polygon
10
-0.3412990494947572
20
-0.7341807340749521
11
-0.34303357876935264
21
-0.7340153901114634
0
LINE
8
Polygon
10
-0.34303357876935264
20
-0.7340153901114634
11
-0.3447703259201177
21
-0.7338752481655642
0
LINE
8
Polygon
10
-0.3447703259201177
20
-0.7338752481655642
11
-0.3465089247912519
21
-0.7337603377831706
0
LINE
8
Polygon
10
-0.3465089247912519
20
-0.7337603377831706
11
-0.3482490088365594
21
-0.733670683190667
0
LINE
8
Polygon
10
-0.3482490088365594
20
-0.733670683190667
11
-0.34999021119672746
21
-0.7336063032897964
0
LINE
8
Polygon
10
-0.34999021119672746
20
-0.7336063032897964
11
-0.3517321647766705
21
-0.733567211653677
0
LINE
8
Polygon
10
-0.3517321647766705
20
-0.733567211653677
11
-0.35347450232292454
21
-0.7335534165239399
0
LINE
8
Polygon
10
-0.3534745023229245
20
-0.7335534165239399
11
-0.3552168565010744
21
-0.7335649208089916
0
LINE
8
Polygon
10
-0.3552168565010744
20
-0.7335649208089916
11
-0.3569588599731986
21
-0.733601722083401
0
LINE
8
Polygon
10
-0.3569588599731986
20
-0.733601722083401
11
-0.35870014547531437
21
-0.7336638125884105
0
LINE
8
Polygon
10
-0.3587001454753143
20
-0.7336638125884105
11
-0.36044034589480745
21
-0.7337511792335718
0
LINE
8
Polygon
10
-0.36044034589480745
20
-0.7337511792335718
11
-0.36217909434783013
21
-0.7338638035995062
0
LINE
8
Polygon
10
-0.36217909434783013
20
-0.7338638035995062
11
-0.3639160242566504
21
-0.7340016619417873
0
LINE
8
Polygon
10
-0.3639160242566504
20
-0.7340016619417873
11
-0.3656507694269373
21
-0.734164725195947
0
LINE
8
Polygon
10
-0.3656507694269373
20
-0.734164725195947
11
-0.367382964124965
21
-0.734352958983604
0
LINE
8
Polygon
10
-0.36738296412496496
20
-0.734352958983604
11
-0.36911224315471985
21
-0.7345663236197106
0
LINE
8
Polygon
10
-0.36911224315471985
20
-0.7345663236197106
11
-0.3708382419348943
21
-0.7348047741209203
0
LINE
8
Polygon
10
-0.3708382419348943
20
-0.7348047741209203
11
-0.37256059657575086
21
-0.735068260215071
0
LINE
8
Polygon
10
-0.37256059657575086
20
-0.735068260215071
11
-0.37427894395584044
21
-0.7353567263517842
0
LINE
8
Polygon
10
-0.37427894395584044
20
-0.7353567263517842
11
-0.3759929217985587
21
-0.7356701117141763
0
LINE
8
Polygon
10
-0.3759929217985587
20
-0.7356701117141763
11
-0.37770216874852447
21
-0.7360083502316809
0
LINE
8
Polygon
10
-0.3777021687485244
20
-0.7360083502316809
11
-0.3794063244477634
21
-0.7363713705939778
0
LINE
8
Polygon
10
-0.3794063244477634
20
-0.7363713705939778
11
-0.38110502961168213
21
-0.7367590962660279
0
LINE
8
Polygon
10
-0.38110502961168213
20
-0.7367590962660279
11
-0.3827979261048154
21
-0.7371714455042085
0
LINE
8
Polygon
10
-0.3827979261048154
20
-0.7371714455042085
11
-0.38448465701633117
21
-0.7376083313735473
0
LINE
8
Polygon
10
-0.38448465701633117
20
-0.7376083313735473
11
-0.38616486673527795
21
-0.738069661766051
0
LINE
8
Polygon
10
-0.38616486673527795
20
-0.738069661766051
11
-0.38783820102555744
21
-0.7385553394201239
0
LINE
8
Polygon
10
-0.3895043071006076
20
-0.7390652619410737
11
-0.389932378881317
21
-0.7391892732899362
0
LINE
8
Polygon
10
-0.389932378881317
20
-0.7391892732899362
11
-0.39036555101121423
21
-0.7392940882219196
0
LINE
8
Polygon
10
-0.39036555101121423
20
-0.7392940882219196
11
-0.3908029631053441
21
-0.7393794985491364
0
LINE
8
Polygon
10
-0.3908029631053441
20
-0.7393794985491364
11
-0.3912437463571537
21
-0.7394453346259529
0
LINE
8
Polygon
10
-0.3912437463571537
20
-0.7394453346259529
11
-0.3916870252641528
21
-0.7394914656859458
0
LINE
8
Polygon
10
-0.3916870252641528
20
-0.7394914656859458
11
-0.3921319193668745
21
-0.7395178001016369
0
LINE
8
Polygon
10
-0.3921319193668745
20
-0.7395178001016369
11
-0.3925775449976815
21
-0.7395242855664866
0
LINE
8
Polygon
10
-0.3925775449976815
20
-0.7395242855664866
11
-0.3930230170359438
21
-0.7395109091987884
0
LINE
8
Polygon
10
-0.3930230170359438
20
-0.7395109091987884
11
-0.39346745066610384
21
-0.7394776975672539
0
LINE
8
Polygon
10
-0.39346745066610384
20
-0.7394776975672539
11
-0.39390996313513427
21
-0.7394247166382419
0
LINE
8
Polygon
10
-0.39390996313513427
20
-0.7394247166382419
11
-0.39434967550590005
21
-0.7393520716447328
0
LINE
8
Polygon
10
-0.39434967550590005
20
-0.7393520716447328
11
-0.3947857144029406
21
-0.7392599068773104
0
LINE
8
Polygon
10
-0.3947857144029406
20
-0.7392599068773104
11
-0.3952172137472056
21
-0.7391484053975655
0
LINE
8
Polygon
10
-0.3952172137472056
20
-0.7391484053975655
11
-0.3956433164762979
21
-0.739017788674492
0
LINE
8
Polygon
10
-0.3956433164762979
20
-0.739017788674492
11
-0.39606317624680765
21
-0.7388683161445947
0
LINE
8
Polygon
10
-0.39606317624680765
20
-0.7388683161445947
11
-0.39647595911535544
21
-0.7387002846965862
0
LINE
8
Polygon
10
-0.39647595911535544
20
-0.7387002846965862
11
-0.3968808451950064
21
-0.7385140280816935
0
LINE
8
Polygon
10
-0.3968808451950064
20
-0.7385140280816935
11
-0.3972770302837644
21
-0.7383099162507473
0
LINE
8
Polygon
10
-0.3972770302837643
20
-0.7383099162507473
11
-0.39766372746191236
21
-0.7380883546193695
0
LINE
8
Polygon
10
-0.39766372746191236
20
-0.7380883546193695
11
-0.3980401686550261
21
-0.7378497832627202
0
LINE
8
Polygon
10
-0.3980401686550261
20
-0.7378497832627202
11
-0.39840560615955606
21
-0.7375946760414008
0
LINE
8
Polygon
10
-0.39840560615955606
20
-0.7375946760414008
11
-0.39875931412794813
21
-0.7373235396602522
0
LINE
8
Polygon
10
-0.39875931412794813
20
-0.7373235396602522
11
-0.3991005900103531
21
-0.7370369126619162
0
LINE
8
Polygon
10
-0.3991005900103531
20
-0.7370369126619162
11
-0.399428755950061
21
-0.7367353643571589
0
LINE
8
Polygon
10
-0.39942875595006094
20
-0.7367353643571589
11
-0.3997431601298891
21
-0.7364194936940814
0
LINE
8
Polygon
10
-0.3997431601298891
20
-0.7364194936940814
11
-0.400043178066849
21
-0.7360899280684639
0
LINE
8
Polygon
10
-0.400043178066849
20
-0.7360899280684639
11
-0.4003282138525213
21
-0.7357473220776047
0
LINE
8
Polygon
10
-0.40032821385252126
20
-0.7357473220776047
11
-0.4005977013366743
21
-0.735392356220132
0
LINE
8
Polygon
10
-0.4005977013366743
20
-0.7353923562201321
11
-0.40085110525177575
21
-0.7350257355443681
0
LINE
8
Polygon
10
-0.40085110525177575
20
-0.7350257355443681
11
-0.4010879222761642
21
-0.734648188247932
0
LINE
8
Polygon
10
-0.4010879222761642
20
-0.734648188247932
11
-0.40130768203376765
21
-0.7342604642313629
0
LINE
8
Polygon
10
-0.40130768203376765
20
-0.7342604642313629
11
-0.40150994802838486
21
-0.7338633336086354
0
LINE
8
Polygon
10
-0.40150994802838486
20
-0.7338633336086354
11
-0.4016943185106725
21
-0.7334575851775265
0
LINE
8
Polygon
10
-0.4016943185106725
20
-0.7334575851775265
11
-0.4018604272761169
21
-0.7330440248528712
0
LINE
8
Polygon
10
-0.4018604272761169
20
-0.7330440248528712
11
-0.4020079443924052
21
-0.7326234740658212
0
LINE
8
Polygon
10
-0.4020079443924052
20
-0.7326234740658212
11
-0.4021365768547507
21
-0.7321967681322823
0
LINE
8
Polygon
10
-0.4021365768547507
20
-0.7321967681322823
11
-0.4022460691678717
21
-0.7317647545937748
0
LINE
8
Polygon
10
-0.4022460691678717
20
-0.7317647545937748
11
-0.4023362038534671
21
-0.7313282915340102
0
LINE
8
Polygon
10
-0.4023362038534671
20
-0.7313282915340102
11
-0.4024068018821808
21
-0.7308882458745292
0
LINE
8
Polygon
10
-0.4024068018821808
20
-0.7308882458745292
11
-0.40245772302919797
21
-0.7304454916527844
0
LINE
8
Polygon
10
-0.40245772302919797
20
-0.7304454916527844
11
-0.40248886615276497
21
-0.7300009082860904
0
LINE
8
Polygon
10
-0.40248886615276497
20
-0.7300009082860904
11
-0.4025001693950818
21
-0.7295553788248879
0
LINE
8
Polygon
10
-0.4025001693950818
20
-0.7295553788248879
11
-0.4024916103051667
21
-0.72910978819879
0
LINE
8
Polygon
10
-0.4024916103051667
20
-0.72910978819879
11
-0.40246320588344897
21
-0.728665021458899
0
LINE
8
Polygon
10
-0.40246320588344897
20
-0.728665021458899
11
-0.4024150125480022
21
-0.7282219620198789
0
LINE
8
Polygon
10
-0.4024150125480022
20
-0.7282219620198789
11
-0.40234712602248424
21
-0.7277814899052796
0
LINE
8
Polygon
10
-0.40234712602248424
20
-0.7277814899052796
11
-0.40225968114600685
21
-0.7273444799995976
0
LINE
8
Polygon
10
-0.40215285160531244
20
-0.7269118003105418
11
-0.4010757191741225
21
-0.7219431964692105
0
LINE
8
Polygon
10
-0.4010757191741225
20
-0.7219431964692105
11
-0.4005087110080624
21
-0.7168908959886338
0
LINE
8
Polygon
10
-0.4005087110080624
20
-0.7168908959886338
11
-0.40045768934523074
21
-0.7118071340748207
0
LINE
8
Polygon
10
-0.40045768934523074
20
-0.7118071340748207
11
-0.40092318169326074
21
-0.7067444712102463
0
LINE
8
Polygon
10
-0.40092318169326074
20
-0.7067444712102463
11
-0.4019003753754741
21
-0.7017552497365236
0
LINE
8
Polygon
10
-0.4019003753754741
20
-0.7017552497365236
11
-0.4033791672886414
21
-0.6968910526924098
0
LINE
8
Polygon
10
-0.4033791672886414
20
-0.6968910526924098
11
-0.4053442683579095
21
-0.692202170502167
0
LINE
8
Polygon
10
-0.4053442683579095
20
-0.692202170502167
11
-0.40777536160894623
21
-0.6877370810281276
0
LINE
8
Polygon
10
-0.40777536160894623
20
-0.6877370810281276
11
-0.41064731222301254
21
-0.6835419483631481
0
LINE
8
Polygon
10
-0.41064731222301254
20
-0.6835419483631481
11
-0.41393042740322317
21
-0.6796601455448837
0
LINE
8
Polygon
10
-0.41393042740322317
20
-0.6796601455448837
11
-0.4175907633652666
21
-0.6761318061264907
0
LINE
8
Polygon
10
-0.4175907633652666
20
-0.6761318061264907
11
-0.42159047627863955
21
-0.6729934092400195
0
LINE
8
Polygon
10
-0.42159047627863955
20
-0.6729934092400195
11
-0.4258882135300502
21
-0.6702774024424855
0
LINE
8
Polygon
10
-0.4258882135300502
20
-0.6702774024424855
11
-0.43043954126376055
21
-0.6680118662439724
0
LINE
8
Polygon
10
-0.43043954126376055
20
-0.6680118662439724
11
-0.4351974037785709
21
-0.6662202237861766
0
LINE
8
Polygon
10
-0.4351974037785709
20
-0.6662202237861766
11
-0.4401126100317913
21
-0.6649209986729966
0
LINE
8
Polygon
10
-0.4401126100317913
20
-0.6649209986729966
11
-0.44513434222028414
21
-0.6641276234569298
0
LINE
8
Polygon
10
-0.44513434222028414
20
-0.6641276234569298
11
-0.45021068118041385
21
-0.6638483007613185
0
LINE
8
Polygon
10
-0.45021068118041385
20
-0.6638483007613185
11
-0.4552891431748467
21
-0.664085918474285
0
LINE
8
Polygon
10
-0.4552891431748467
20
-0.664085918474285
11
-0.4603172225164195
21
-0.6648380198911586
0
LINE
8
Polygon
10
-0.4603172225164195
20
-0.6648380198911586
11
-0.465242934418945
21
-0.6660968291140883
0
LINE
8
Polygon
10
-0.465242934418945
20
-0.6660968291140883
11
-0.4700153524624769
21
-0.6678493314462366
0
LINE
8
Polygon
10
-0.4700153524624769
20
-0.6678493314462366
11
-0.4745851351162367
21
-0.670077407949369
0
LINE
8
Polygon
10
-0.4745851351162367
20
-0.670077407949369
11
-0.47890503587553745
21
-0.6727580227736596
0
LINE
8
Polygon
10
-0.47890503587553745
20
-0.6727580227736596
11
-0.48293039173845215
21
-0.675863461322933
0
LINE
8
Polygon
10
-0.48293039173845215
20
-0.675863461322933
11
-0.486619584971917
21
-0.679361616792973
0
LINE
8
Polygon
10
-0.486619584971917
20
-0.679361616792973
11
-0.4899344733931189
21
-0.6832163221204132
0
LINE
8
Polygon
10
-0.4899344733931189
20
-0.6832163221204132
11
-0.49284078471753245
21
-0.6873877239102195
0
LINE
8
Polygon
10
-0.49284078471753245
20
-0.6873877239102195
11
-0.4953084708964836
21
-0.691832694475772
0
LINE
8
Polygon
10
-0.4953084708964836
20
-0.691832694475772
11
-0.49731201878078046
21
-0.6965052777315037
0
LINE
8
Polygon
10
-0.49731201878078046
20
-0.6965052777315037
11
-0.4988307138984933
21
-0.7013571643280606
0
LINE
8
Polygon
10
-0.4988307138984933
20
-0.7013571643280606
11
-0.4998488546197126
21
-0.7063381911176101
0
LINE
8
Polygon
10
-0.4998488546197126
20
-0.7063381911176101
11
-0.5003559144940573
21
-0.7113968597853767
0
LINE
8
Polygon
10
-0.5003559144940573
20
-0.7113968597853767
11
-0.5003466510825438
21
-0.7164808692853306
0
LINE
8
Polygon
10
-0.5003466510825438
20
-0.7164808692853306
11
-0.4998211601586148
21
-0.7215376565752295
0
LINE
8
Polygon
10
-0.4998211601586148
20
-0.7215376565752295
11
-0.49878487471794636
21
-0.7265149400604122
0
LINE
8
Polygon
10
-0.49878487471794636
20
-0.7265149400604122
11
-0.49724850880727556
21
-0.7313612601277357
0
LINE
8
Polygon
10
-0.49724850880727556
20
-0.7313612601277357
11
-0.4952279467529914
21
-0.7360265111811305
0
LINE
8
Polygon
10
-0.4952279467529914
20
-0.7360265111811305
11
-0.4927440789347467
21
-0.7404624596781154
0
LINE
8
Polygon
10
-0.4927440789347467
20
-0.7404624596781154
11
-0.48982258580200866
21
-0.7446232428113463
0
LINE
8
Polygon
10
-0.48982258580200866
20
-0.7446232428113463
11
-0.48649367236657914
21
-0.7484658426793824
0
LINE
8
Polygon
10
-0.48649367236657914
20
-0.7484658426793824
11
-0.48279175591613815
21
-0.751950531044268
0
LINE
8
Polygon
10
-0.48279175591613815
20
-0.751950531044268
11
-0.4787551101775077
21
-0.7550412800776272
0
LINE
8
Polygon
10
-0.4787551101775077
20
-0.7550412800776272
11
-0.4744254696085952
21
-0.7577061348486123
0
LINE
8
Polygon
10
-0.4744254696085952
20
-0.7577061348486123
11
-0.4698475979102003
21
-0.7599175437025895
0
LINE
8
Polygon
10
-0.4698475979102003
20
-0.7599175437025895
11
-0.46506882521879583
21
-0.7616526431148138
0
LINE
8
Polygon
10
-0.46506882521879583
20
-0.7616526431148138
11
-0.46013855876519977
21
-0.7628934940740185
0
LINE
8
Polygon
10
-0.4551077720583854
20
-0.7636272675519759
11
-0.4546651077199242
21
-0.7636789642398886
0
LINE
8
Polygon
10
-0.4546651077199242
20
-0.7636789642398886
11
-0.45422518640962917
21
-0.7637503330344326
0
LINE
8
Polygon
10
-0.45422518640962917
20
-0.7637503330344326
11
-0.45378888191796535
21
-0.7638412321798652
0
LINE
8
Polygon
10
-0.45378888191796535
20
-0.7638412321798652
11
-0.4533570608515185
21
-0.7639514811284277
0
LINE
8
Polygon
10
-0.4533570608515185
20
-0.7639514811284277
11
-0.4529305809117041
21
-0.7640808608989571
0
LINE
8
Polygon
10
-0.4529305809117041
20
-0.7640808608989571
11
-0.45251028919116393
21
-0.7642291145118365
0
LINE
8
Polygon
10
-0.45251028919116393
20
-0.7642291145118365
11
-0.45209702049123507
21
-0.7643959474994184
0
LINE
8
Polygon
10
-0.45209702049123507
20
-0.7643959474994184
11
-0.4516915956638314
21
-0.7645810284909088
0
LINE
8
Polygon
10
-0.4516915956638314
20
-0.7645810284909088
11
-0.4512948199810327
21
-0.7647839898705505
0
LINE
8
Polygon
10
-0.4512948199810327
20
-0.7647839898705505
11
-0.4509074815356191
21
-0.7650044285077967
0
LINE
8
Polygon
10
-0.4509074815356191
20
-0.7650044285077967
11
-0.45053034967572736
21
-0.7652419065580266
0
LINE
8
Polygon
10
-0.45053034967572736
20
-0.7652419065580266
11
-0.4501641734767387
21
-0.7654959523322103
0
LINE
8
Polygon
10
-0.4501641734767387
20
-0.7654959523322103
11
-0.4498096802534337
21
-0.7657660612337985
0
LINE
8
Polygon
10
-0.4498096802534337
20
-0.7657660612337985
11
-0.44946757411536836
21
-0.7660516967609734
0
LINE
8
Polygon
10
-0.44946757411536836
20
-0.7660516967609734
11
-0.44913853456834185
21
-0.7663522915722708
0
LINE
8
Polygon
10
-0.44913853456834185
20
-0.7663522915722708
11
-0.44882321516473295
21
-0.7666672486134593
0
LINE
8
Polygon
10
-0.44882321516473295
20
-0.7666672486134593
11
-0.44852224220538667
21
-0.7669959423034332
0
LINE
8
Polygon
10
-0.44852224220538667
20
-0.7669959423034332
11
-0.4482362134956285
21
-0.76733771977677
0
LINE
8
Polygon
10
-0.4482362134956285
20
-0.76733771977677
11
-0.4479656971578784
21
-0.7676919021804783
0
LINE
8
Polygon
10
-0.4479656971578784
20
-0.7676919021804783
11
-0.4477112305032213
21
-0.7680577860223654
0
LINE
8
Polygon
10
-0.4477112305032213
20
-0.7680577860223654
11
-0.4474733189641775
21
-0.7684346445683429
0
LINE
8
Polygon
10
-0.4474733189641775
20
-0.7684346445683429
11
-0.44725243509079055
21
-0.768821729285897
0
LINE
8
Polygon
10
-0.44725243509079055
20
-0.768821729285897
11
-0.4470490176120285
21
-0.7692182713308562
0
LINE
8
Polygon
10
-0.4470490176120285
20
-0.7692182713308562
11
-0.4468634705643615
21
-0.769623483074502
0
LINE
8
Polygon
10
-0.4468634705643615
20
-0.769623483074502
11
-0.4466961624892475
21
-0.7700365596679905
0
LINE
8
Polygon
10
-0.4466961624892475
20
-0.7700365596679905
11
-0.4465474257011195
21
-0.7704566806409777
0
LINE
8
Polygon
10
-0.4465474257011195
20
-0.7704566806409777
11
-0.4464175556273283
21
-0.7708830115312729
0
LINE
8
Polygon
10
-0.4464175556273283
20
-0.7708830115312729
11
-0.4463068102213523
21
-0.7713147055422825
0
LINE
8
Polygon
10
-0.4463068102213523
20
-0.7713147055422825
11
-0.4462154094504391
21
-0.7717509052249543
0
LINE
8
Polygon
10
-0.4462154094504391
20
-0.7717509052249543
11
-0.4461435348586973
21
-0.7721907441808782
0
LINE
8
Polygon
10
-0.4461435348586973
20
-0.7721907441808782
11
-0.4460913292065058
21
-0.7726333487831653
0
LINE
8
Polygon
10
-0.4460913292065058
20
-0.7726333487831653
11
-0.44605889618695704
21
-0.7730778399116811
0
LINE
8
Polygon
10
-0.44605889618695704
20
-0.7730778399116811
11
-0.4460463002198975
21
-0.773523334699193
0
LINE
8
Polygon
10
-0.4460463002198975
20
-0.773523334699193
11
-0.44605356632397397
21
-0.7739689482849575
0
LINE
8
Polygon
10
-0.44605356632397397
20
-0.7739689482849575
11
-0.4460806800669408
21
-0.7744137955722694
0
LINE
8
Polygon
10
-0.4460806800669408
20
-0.7744137955722694
11
-0.44612758759432547
21
-0.7748569929864778
0
LINE
8
Polygon
10
-0.44612758759432547
20
-0.7748569929864778
11
-0.44619419573639696
21
-0.7752976602299805
0
LINE
8
Polygon
10
-0.44619419573639696
20
-0.7752976602299805
11
-0.44628037219322325
21
-0.7757349220307077
0
LINE
8
Polygon
10
-0.44628037219322325
20
-0.7757349220307077
11
-0.4463859457974511
21
-0.7761679098806259
0
LINE
8
Polygon
10
-0.4463859457974511
20
-0.7761679098806259
11
-0.4465107068542861
21
-0.7765957637608044
0
LINE
8
Polygon
10
-0.4465107068542861
20
-0.7765957637608044
11
-0.4466544075579973
21
-0.7770176338496224
0
LINE
8
Polygon
10
-0.4466544075579973
20
-0.7770176338496224
11
-0.44681676248411933
21
-0.7774326822107206
0
LINE
8
Polygon
10
-0.44681676248411933
20
-0.7774326822107206
11
-0.44699744915637507
21
-0.7778400844573461
0
LINE
8
Polygon
10
-0.44699744915637507
20
-0.7778400844573461
11
-0.44719610868719145
21
-0.7782390313897848
0
LINE
8
Polygon
10
-0.44719610868719145
20
-0.7782390313897848
11
-0.4474123464905373
21
-0.7786287306026279
0
LINE
8
Polygon
10
-0.4474123464905373
20
-0.7786287306026279
11
-0.447645733065667
21
-0.7790084080586819
0
LINE
8
Polygon
10
-0.447645733065667
20
-0.7790084080586819
11
-0.4478958048502134
21
-0.7793773096263936
0
LINE
8
Polygon
10
-0.4481620651409346
20
-0.7797347025777391
11
-0.44922390631677867
21
-0.7811161596881747
0
LINE
8
Polygon
10
-0.44922390631677867
20
-0.7811161596881747
11
-0.45026557742109463
21
-0.7825128886315005
0
LINE
8
Polygon
10
-0.45026557742109463
20
-0.7825128886315005
11
-0.45128685883992387
21
-0.7839245949374456
0
LINE
8
Polygon
10
-0.4512868588399238
20
-0.7839245949374456
11
-0.4522875352580345
21
-0.785350980978084
0
LINE
8
Polygon
10
-0.4522875352580345
20
-0.785350980978084
11
-0.4532673957043163
21
-0.7867917460305832
0
LINE
8
Polygon
10
-0.4532673957043163
20
-0.7867917460305832
11
-0.454226233596259
21
-0.7882465863406055
0
LINE
8
Polygon
10
-0.454226233596259
20
-0.7882465863406055
11
-0.45516384678350613
21
-0.7897151951863474
0
LINE
8
Polygon
10
-0.45516384678350613
20
-0.7897151951863474
11
-0.4560800375904738
21
-0.7911972629432057
0
LINE
8
Polygon
10
-0.4560800375904737
20
-0.7911972629432056
11
-0.4569746128580264
21
-0.7926924771490551
0
LINE
8
Polygon
10
-0.4569746128580264
20
-0.7926924771490551
11
-0.4578473839842004
21
-0.7942005225701243
0
LINE
8
Polygon
10
-0.4578473839842004
20
-0.7942005225701243
11
-0.4586981669639665
21
-0.7957210812674561
0
LINE
8
Polygon
10
-0.4586981669639665
20
-0.7957210812674561
11
-0.4595267824280234
21
-0.7972538326639378
0
LINE
8
Polygon
10
-0.4595267824280234
20
-0.7972538326639378
11
-0.46033305568061406
21
-0.7987984536118884
0
LINE
8
Polygon
10
-0.46033305568061406
20
-0.7987984536118884
11
-0.46111681673635624
21
-0.800354618461187
0
LINE
8
Polygon
10
-0.4611168167363562
20
-0.800354618461187
11
-0.46187790035608056
21
-0.8019219991279295
0
LINE
8
Polygon
10
-0.46187790035608056
20
-0.8019219991279295
11
-0.46261614608166746
21
-0.8035002651635976
0
LINE
8
Polygon
10
-0.46261614608166746
20
-0.8035002651635976
11
-0.46333139826987646
21
-0.8050890838247271
0
LINE
8
Polygon
10
-0.46333139826987646
20
-0.8050890838247271
11
-0.4640235061251601
21
-0.8066881201430594
0
LINE
8
Polygon
10
-0.4640235061251601
20
-0.8066881201430594
11
-0.4646923237314558
21
-0.8082970369961626
0
LINE
8
Polygon
10
-0.46469232373145575
20
-0.8082970369961626
11
-0.4653377100829495
21
-0.8099154951785067
0
LINE
8
Polygon
10
-0.4653377100829495
20
-0.8099154951785067
11
-0.46595952911380345
21
-0.8115431534729772
0
LINE
8
Polygon
10
-0.46595952911380345
20
-0.8115431534729772
11
-0.4665576497268427
21
-0.813179668722814
0
LINE
8
Polygon
10
-0.4665576497268427
20
-0.813179668722814
11
-0.46713194582119444
21
-0.8148246959039582
0
LINE
8
Polygon
10
-0.46713194582119444
20
-0.8148246959039582
11
-0.4676822963188732
21
-0.8164778881977933
0
LINE
8
Polygon
10
-0.4676822963188732
20
-0.8164778881977933
11
-0.46820858519030795
21
-0.8181388970642642
0
LINE
8
Polygon
10
-0.46820858519030795
20
-0.8181388970642641
11
-0.4687107014788042
21
-0.8198073723153595
0
LINE
8
Polygon
10
-0.4687107014788042
20
-0.8198073723153595
11
-0.46918853932393706
21
-0.8214829621889412
0
LINE
8
Polygon
10
-0.46918853932393706
20
-0.8214829621889412
11
-0.4696419979838693
21
-0.8231653134229062
0
LINE
8
Polygon
10
-0.4696419979838693
20
-0.8231653134229062
11
-0.4700709818565908
21
-0.8248540713296636
0
LINE
8
Polygon
10
-0.4700709818565908
20
-0.8248540713296636
11
-0.47047540050007436
21
-0.8265488798709135
0
LINE
8
Polygon
10
-0.47047540050007436
20
-0.8265488798709135
11
-0.4708551686513431
21
-0.8282493817327099
0
LINE
8
Polygon
10
-0.4708551686513431
20
-0.8282493817327099
11
-0.47121020624444643
21
-0.8299552184007922
0
LINE
8
Polygon
10
-0.47121020624444643
20
-0.8299552184007922
11
-0.47154043842734056
21
-0.8316660302361709
0
LINE
8
Polygon
10
-0.47154043842734056
20
-0.8316660302361709
11
-0.4718457955776689
21
-0.8333814565509493
0
LINE
8
Polygon
10
-0.4718457955776689
20
-0.8333814565509493
11
-0.4721262133174409
21
-0.835101135684367
0
LINE
8
Polygon
10
-0.4721262133174409
20
-0.835101135684367
11
-0.4723816325266045
21
-0.836824705079048
0
LINE
8
Polygon
10
-0.4723816325266045
20
-0.8368247050790479
11
-0.47261199935551035
21
-0.8385518013574386
0
LINE
8
Polygon
10
-0.47261199935551035
20
-0.8385518013574386
11
-0.47281726523626505
21
-0.8402820603984175
0
LINE
8
Polygon
10
-0.47281726523626505
20
-0.8402820603984175
11
-0.4729973868929704
21
-0.8420151174140625
0
LINE
8
Polygon
10
-0.4729973868929704
20
-0.8420151174140625
11
-0.47315232635084725
21
-0.8437506070265591
0
LINE
8
Polygon
10
-0.47315232635084725
20
-0.8437506070265591
11
-0.4732820509442419
21
-0.8454881633452318
0
LINE
8
Polygon
10
-0.4732820509442419
20
-0.8454881633452318
11
-0.47338653332351255
21
-0.8472274200436846
0
LINE
8
Polygon
10
-0.47338653332351255
20
-0.8472274200436846
11
-0.47346575146079567
21
-0.8489680104370328
0
LINE
8
Polygon
10
-0.47346575146079567
20
-0.8489680104370328
11
-0.47351968865465005
21
-0.8507095675592111
0
LINE
8
Polygon
10
-0.47351968865465005
20
-0.8507095675592111
11
-0.47354833353357795
21
-0.8524517242403401
0
LINE
8
Polygon
10
-0.47354833353357795
20
-0.8524517242403401
11
-0.4735516800584224
21
-0.8541941131841361
0
LINE
8
Polygon
10
-0.4735516800584224
20
-0.8541941131841361
11
-0.4735297275236406
21
-0.8559363670453479
0
LINE
8
Polygon
10
-0.8143125669029061
20
-0.7873985395297071
11
-0.8122936741923147
21
-0.7873120793999157
0
LINE
8
Polygon
10
-0.8122936741923147
20
-0.7873120793999157
11
-0.8102765236261464
21
-0.7871916355361046
0
LINE
8
Polygon
10
-0.8102765236261464
20
-0.7871916355361046
11
-0.8082616872071053
21
-0.7870372420924995
0
LINE
8
Polygon
10
-0.8082616872071053
20
-0.7870372420924995
11
-0.8062497362816734
21
-0.7868489428503971
0
LINE
8
Polygon
10
-0.8062497362816734
20
-0.7868489428503971
11
-0.8042412413780943
21
-0.7866267912057496
0
LINE
8
Polygon
10
-0.8042412413780943
20
-0.7866267912057496
11
-0.8022367720445887
21
-0.786370850154024
0
LINE
8
Polygon
10
-0.8022367720445887
20
-0.786370850154024
11
-0.8002368966878477
21
-0.7860811922723376
0
LINE
8
Polygon
10
-0.8002368966878477
20
-0.7860811922723376
11
-0.7982421824118501
21
-0.7857578996988782
0
LINE
8
Polygon
10
-0.7982421824118501
20
-0.7857578996988782
11
-0.7962531948570486
21
-0.7854010641096114
0
LINE
8
Polygon
10
-0.7962531948570486
20
-0.7854010641096114
11
-0.7942704980399715
21
-0.7850107866922845
0
LINE
8
Polygon
10
-0.7942704980399715
20
-0.7850107866922845
11
-0.792294654193285
21
-0.7845871781177329
0
LINE
8
Polygon
10
-0.7922946541932849
20
-0.7845871781177329
11
-0.7903262236063604
21
-0.7841303585084969
0
LINE
8
Polygon
10
-0.7903262236063604
20
-0.7841303585084969
11
-0.7883657644663938
21
-0.7836404574047584
0
LINE
8
Polygon
10
-0.7883657644663938
20
-0.7836404574047584
11
-0.7864138327001207
21
-0.7831176137276079
0
LINE
8
Polygon
10
-0.7864138327001206
20
-0.7831176137276079
11
-0.7844709818161717
21
-0.7825619757396501
0
LINE
8
Polygon
10
-0.7844709818161717
20
-0.7825619757396501
11
-0.7825377627481154
21
-0.7819737010029615
0
LINE
8
Polygon
10
-0.7825377627481154
20
-0.7819737010029615
11
-0.780614723698229
21
-0.78135295633441
0
LINE
8
Polygon
10
-0.780614723698229
20
-0.78135295633441
11
-0.7787024099820459
21
-0.7806999177583517
0
LINE
8
Polygon
10
-0.7787024099820459
20
-0.7806999177583517
11
-0.7768013638737197
21
-0.7800147704567145
0
LINE
8
Polygon
10
-0.7768013638737197
20
-0.7800147704567145
11
-0.7749121244522527
21
-0.7792977087164872
0
LINE
8
Polygon
10
-0.7749121244522527
20
-0.7792977087164872
11
-0.7730352274486287
21
-0.7785489358746249
0
LINE
8
Polygon
10
-0.7730352274486287
20
-0.7785489358746249
11
-0.7711712050938967
21
-0.7777686642603894
0
LINE
8
Polygon
10
-0.7711712050938967
20
-0.7777686642603894
11
-0.7693205859682453
21
-0.7769571151351384
0
LINE
8
Polygon
10
-0.7693205859682453
20
-0.7769571151351384
11
-0.7674838948511141
21
-0.7761145186295829
0
LINE
8
Polygon
10
-0.767483894851114
20
-0.7761145186295828
11
-0.7656616525723823
21
-0.7752411136785291
0
LINE
8
Polygon
10
-0.7656616525723823
20
-0.7752411136785291
11
-0.7638543758646769
21
-0.7743371479531236
0
LINE
8
Polygon
10
-0.7638543758646767
20
-0.7743371479531236
11
-0.7620625772168423
21
-0.7734028777906216
0
LINE
8
Polygon
10
-0.7620625772168423
20
-0.7734028777906216
11
-0.7602867647286158
21
-0.7724385681216971
0
LINE
8
Polygon
10
-0.7602867647286158
20
-0.7724385681216971
11
-0.7585274419665439
21
-0.7714444923953169
0
LINE
8
Polygon
10
-0.7585274419665439
20
-0.7714444923953169
11
-0.7567851078211874
21
-0.7704209325011985
0
LINE
8
Polygon
10
-0.7567851078211874
20
-0.7704209325011985
11
-0.7550602563656508
21
-0.7693681786898751
0
LINE
8
Polygon
10
-0.7550602563656508
20
-0.7693681786898751
11
-0.7533533767154781
21
-0.7682865294903889
0
LINE
8
Polygon
10
-0.7533533767154781
20
-0.7682865294903889
11
-0.7516649528899545
21
-0.7671762916256378
0
LINE
8
Polygon
10
-0.7516649528899545
20
-0.7671762916256378
11
-0.7499954636748534
21
-0.7660377799253977
0
LINE
8
Polygon
10
-0.7499954636748534
20
-0.7660377799253977
11
-0.7483453824866669
21
-0.7648713172370463
0
LINE
8
Polygon
10
-0.7483453824866669
20
-0.7648713172370463
11
-0.7467151772383597
21
-0.7636772343340138
0
LINE
8
Polygon
10
-0.7467151772383597
20
-0.7636772343340138
11
-0.7451053102066828
21
-0.7624558698219853
0
LINE
8
Polygon
10
-0.7451053102066828
20
-0.7624558698219853
11
-0.743516237901086
21
-0.7612075700428824
0
LINE
8
Polygon
10
-0.743516237901086
20
-0.7612075700428824
11
-0.7419484109342658
21
-0.7599326889766516
0
LINE
8
Polygon
10
-0.7419484109342658
20
-0.7599326889766516
11
-0.740402273894385
21
-0.7586315881408855
0
LINE
8
Polygon
10
-0.740402273894385
20
-0.7586315881408855
11
-0.738878265219001
21
-0.7573046364883083
0
LINE
8
Polygon
10
-0.738878265219001
20
-0.7573046364883083
11
-0.7373768170707389
21
-0.7559522103021514
0
LINE
8
Polygon
10
-0.7373768170707389
20
-0.7559522103021514
11
-0.7358983552147421
21
-0.7545746930894511
0
LINE
8
Polygon
10
-0.7358983552147421
20
-0.7545746930894511
11
-0.7344432988979395
21
-0.7531724754722977
0
LINE
8
Polygon
10
-0.7344432988979395
20
-0.7531724754722977
11
-0.7330120607301586
21
-0.7517459550770668
0
LINE
8
Polygon
10
-0.7330120607301586
20
-0.7517459550770668
11
-0.7316050465671228
21
-0.7502955364216642
0
LINE
8
Polygon
10
-0.7316050465671228
20
-0.7502955364216644
11
-0.7302226553953626
21
-0.748821630800818
0
LINE
8
Polygon
10
-0.7288652792190751
20
-0.7473246561694465
11
-0.7285613624121831
21
-0.7469986824917133
0
LINE
8
Polygon
10
-0.7285613624121831
20
-0.7469986824917133
11
-0.7282432232780782
21
-0.7466865739281694
0
LINE
8
Polygon
10
-0.7282432232780782
20
-0.7466865739281694
11
-0.7279114937182742
21
-0.7463889504021526
0
LINE
8
Polygon
10
-0.7279114937182742
20
-0.7463889504021526
11
-0.7275668326281682
21
-0.746106403066201
0
LINE
8
Polygon
10
-0.7275668326281682
20
-0.746106403066201
11
-0.7272099245883139
21
-0.7458394931278814
0
LINE
8
Polygon
10
-0.7272099245883139
20
-0.7458394931278814
11
-0.726841478504679
21
-0.7455887507350947
0
LINE
8
Polygon
10
-0.726841478504679
20
-0.7455887507350947
11
-0.7264622262005855
21
-0.7453546739230731
0
LINE
8
Polygon
10
-0.7264622262005855
20
-0.7453546739230731
11
-0.7260729209631316
21
-0.745137727625162
0
LINE
8
Polygon
10
-0.7260729209631316
20
-0.745137727625162
11
-0.7256743360469802
21
-0.744938342749349
0
LINE
8
Polygon
10
-0.7256743360469802
20
-0.744938342749349
11
-0.7252672631384877
21
-0.7447569153223764
0
LINE
8
Polygon
10
-0.7252672631384877
20
-0.7447569153223764
11
-0.724852510783223
21
-0.744593805703136
0
LINE
8
Polygon
10
-0.724852510783223
20
-0.744593805703136
11
-0.7244309027799994
21
-0.7444493378669086
0
LINE
8
Polygon
10
-0.7244309027799994
20
-0.7444493378669086
11
-0.7240032765446108
21
-0.7443237987618707
0
LINE
8
Polygon
10
-0.7240032765446108
20
-0.7443237987618707
11
-0.7235704814465201
21
-0.7442174377391458
0
LINE
8
Polygon
10
-0.7235704814465201
20
-0.7442174377391458
11
-0.723133377121806
21
-0.7441304660575327
0
LINE
8
Polygon
10
-0.723133377121806
20
-0.7441304660575327
11
-0.7226928317657167
21
-0.7440630564638939
0
LINE
8
Polygon
10
-0.7226928317657167
20
-0.7440630564638939
11
-0.7222497204082238
21
-0.7440153428500386
0
LINE
8
Polygon
10
-0.7222497204082238
20
-0.7440153428500386
11
-0.721804923176
21
-0.7439874199867813
0
LINE
8
Polygon
10
-0.721804923176
20
-0.7439874199867813
11
-0.7213593235442747
21
-0.7439793433357036
0
LINE
8
Polygon
10
-0.7213593235442747
20
-0.7439793433357036
11
-0.720913806582037
21
-0.7439911289389943
0
LINE
8
Polygon
10
-0.720913806582037
20
-0.7439911289389943
11
-0.7204692571940746
21
-0.7440227533875855
0
LINE
8
Polygon
10
-0.7204692571940746
20
-0.7440227533875855
11
-0.720026558363338
21
-0.7440741538676491
0
LINE
8
Polygon
10
-0.720026558363338
20
-0.7440741538676491
11
-0.7195865893971216
21
-0.7441452282853597
0
LINE
8
Polygon
10
-0.7195865893971216
20
-0.7441452282853597
11
-0.719150224180547
21
-0.7442358354696782
0
LINE
8
Polygon
10
-0.719150224180547
20
-0.7442358354696782
11
-0.7187183294408142
21
-0.7443457954527516
0
LINE
8
Polygon
10
-0.7187183294408142
20
-0.7443457954527515
11
-0.7182917630256715
21
-0.7444748898273725
0
LINE
8
Polygon
10
-0.7182917630256715
20
-0.7444748898273725
11
-0.7178713721995221
21
-0.7446228621807897
0
LINE
8
Polygon
10
-0.7178713721995221
20
-0.7446228621807897
11
-0.7174579919605506
21
-0.7447894186040048
0
LINE
8
Polygon
10
-0.7174579919605506
20
-0.7447894186040048
11
-0.7170524433822144
21
-0.7449742282755482
0
LINE
8
Polygon
10
-0.7170524433822144
20
-0.7449742282755482
11
-0.7166555319823931
21
-0.7451769241185696
0
LINE
8
Polygon
10
-0.7166555319823931
20
-0.7451769241185696
11
-0.7162680461234332
21
-0.7453971035299427
0
LINE
8
Polygon
10
-0.7162680461234332
20
-0.7453971035299427
11
-0.7158907554462709
21
-0.7456343291799318
0
LINE
8
Polygon
10
-0.7158907554462709
20
-0.7456343291799318
11
-0.7155244093417369
21
-0.7458881298808354
0
LINE
8
Polygon
10
-0.7155244093417369
20
-0.7458881298808354
11
-0.7151697354620855
21
-0.7461580015228793
0
LINE
8
Polygon
10
-0.7151697354620855
20
-0.7461580015228793
11
-0.7148274382757001
21
-0.7464434080755002
0
LINE
8
Polygon
10
-0.7148274382757001
20
-0.7464434080755002
11
-0.714498197667848
21
-0.7467437826520334
0
LINE
8
Polygon
10
-0.714498197667848
20
-0.7467437826520334
11
-0.7141826675902636
21
-0.747058528635687
0
LINE
8
Polygon
10
-0.7141826675902636
20
-0.747058528635687
11
-0.7138814747622416
21
-0.747387020864567
0
LINE
8
Polygon
10
-0.7138814747622416
20
-0.747387020864567
11
-0.7135952174258201
21
-0.7477286068734011
0
LINE
8
Polygon
10
-0.7135952174258201
20
-0.7477286068734011
11
-0.713324464157527
21
-0.7480826081894932
0
LINE
8
Polygon
10
-0.713324464157527
20
-0.7480826081894932
11
-0.7130697527390488
21
-0.7484483216803345
0
LINE
8
Polygon
10
-0.7130697527390488
20
-0.7484483216803345
11
-0.7128315890890662
21
-0.7488250209501949
0
LINE
8
Polygon
10
-0.7128315890890662
20
-0.7488250209501949
11
-0.7126104462583761
21
-0.7492119577829218
0
LINE
8
Polygon
10
-0.7126104462583761
20
-0.7492119577829218
11
-0.7124067634902987
21
-0.7496083636280789
0
LINE
8
Polygon
10
-0.7124067634902987
20
-0.7496083636280789
11
-0.7122209453482331
21
-0.7500134511274734
0
LINE
8
Polygon
10
-0.7122209453482331
20
-0.7500134511274734
11
-0.7120533609120965
21
-0.7504264156790407
0
LINE
8
Polygon
10
-0.7120533609120965
20
-0.7504264156790407
11
-0.7119043430452419
21
-0.7508464370349792
0
LINE
8
Polygon
10
-0.7117741877333106
20
-0.751272680930962
11
-0.7101511141442192
21
-0.7560906546264908
0
LINE
8
Polygon
10
-0.7101511141442192
20
-0.7560906546264908
11
-0.7080471711842307
21
-0.7607189007767652
0
LINE
8
Polygon
10
-0.7080471711842307
20
-0.7607189007767652
11
-0.7054841112994573
21
-0.765109568429125
0
LINE
8
Polygon
10
-0.7054841112994573
20
-0.765109568429125
11
-0.7024884336978557
21
-0.769217262930141
0
LINE
8
Polygon
10
-0.7024884336978557
20
-0.769217262930141
11
-0.6990911103766888
21
-0.7729995152561856
0
LINE
8
Polygon
10
-0.6990911103766888
20
-0.7729995152561856
11
-0.695327265906287
21
-0.7764172210962251
0
LINE
8
Polygon
10
-0.695327265906287
20
-0.7764172210962251
11
-0.6912358142807906
21
-0.7794350451471992
0
LINE
8
Polygon
10
-0.6912358142807906
20
-0.7794350451471992
11
-0.6868590565904369
21
-0.7820217864420222
0
LINE
8
Polygon
10
-0.6868590565904369
20
-0.7820217864420222
11
-0.6822422436750134
21
-0.7841507009331172
0
LINE
8
Polygon
10
-0.6822422436750134
20
-0.7841507009331172
11
-0.6774331082801616
21
-0.7857997779963246
0
LINE
8
Polygon
10
-0.6774331082801616
20
-0.7857997779963246
11
-0.6724813715535128
21
-0.7869519679964432
0
LINE
8
Polygon
10
-0.6724813715535128
20
-0.7869519679964432
11
-0.6674382289829474
21
-0.787595358561624
0
LINE
8
Polygon
10
-0.6674382289829474
20
-0.787595358561624
11
-0.6623558210918005
21
-0.7877232977441363
0
LINE
8
Polygon
10
-0.6623558210918005
20
-0.7877232977441363
11
-0.6572866943634487
21
-0.7873344627941594
0
LINE
8
Polygon
10
-0.6572866943634487
20
-0.7873344627941594
11
-0.6522832579687159
21
-0.7864328738355544
0
LINE
8
Polygon
10
-0.6522832579687159
20
-0.7864328738355544
11
-0.6473972419129408
21
-0.7850278523022242
0
LINE
8
Polygon
10
-0.6473972419129408
20
-0.7850278523022242
11
-0.6426791622048635
21
-0.7831339245647843
0
LINE
8
Polygon
10
-0.6426791622048635
20
-0.7831339245647843
11
-0.6381777985768984
21
-0.7807706717439361
0
LINE
8
Polygon
10
-0.6381777985768984
20
-0.7807706717439361
11
-0.6339396901565837
21
-0.7779625272633099
0
LINE
8
Polygon
10
-0.6339396901565837
20
-0.7779625272633099
11
-0.6300086543034121
21
-0.7747385242348537
0
LINE
8
Polygon
10
-0.6300086543034121
20
-0.7747385242348537
11
-0.6264253335857364
21
-0.7711319952885274
0
LINE
8
Polygon
10
-0.6264253335857364
20
-0.7711319952885274
11
-0.623226775581507
21
-0.767180227949729
0
LINE
8
Polygon
10
-0.623226775581507
20
-0.767180227949729
11
-0.6204460498472405
21
-0.7629240791274716
0
LINE
8
Polygon
10
-0.6204460498472405
20
-0.7629240791274716
11
-0.6181119060153358
21
-0.758407552699076
0
LINE
8
Polygon
10
-0.6181119060153358
20
-0.758407552699076
11
-0.616248476554632
21
-0.7536773445586878
0
LINE
8
Polygon
10
-0.616248476554632
20
-0.7536773445586878
11
-0.6148750272673388
21
-0.7487823598333134
0
LINE
8
Polygon
10
-0.6148750272673388
20
-0.7487823598333134
11
-0.6140057581019234
21
-0.74377320725783
0
LINE
8
Polygon
10
-0.6140057581019234
20
-0.74377320725783
11
-0.613649656341329
21
-0.7387016759365705
0
LINE
8
Polygon
10
-0.613649656341329
20
-0.7387016759365705
11
-0.6138104036843965
21
-0.7336201999011935
0
LINE
8
Polygon
10
-0.6138104036843965
20
-0.7336201999011935
11
-0.6144863381811665
21
-0.7285813160007161
0
LINE
8
Polygon
10
-0.6144863381811665
20
-0.7285813160007161
11
-0.6156704714156046
21
-0.7236371207285295
0
LINE
8
Polygon
10
-0.6156704714156046
20
-0.7236371207285295
11
-0.6173505607581049
21
-0.7188387316022047
0
LINE
8
Polygon
10
-0.6173505607581049
20
-0.7188387316022047
11
-0.6195092359407554
21
-0.7142357586648279
0
LINE
8
Polygon
10
-0.6195092359407554
20
-0.7142357586648279
11
-0.6221241786467209
21
-0.7098757915719554
0
LINE
8
Polygon
10
-0.6221241786467209
20
-0.7098757915719554
11
-0.6251683532569853
21
-0.7058039075671443
0
LINE
8
Polygon
10
-0.6251683532569853
20
-0.7058039075671443
11
-0.6286102863687878
21
-0.7020622054330492
0
LINE
8
Polygon
10
-0.6286102863687878
20
-0.7020622054330492
11
-0.6324143921958404
21
-0.6986893702365122
0
LINE
8
Polygon
10
-0.6324143921958404
20
-0.6986893702365122
11
-0.6365413404860492
21
-0.6957202733677056
0
LINE
8
Polygon
10
-0.6365413404860492
20
-0.6957202733677056
11
-0.6409484631528748
21
-0.6931856120084772
0
LINE
8
Polygon
10
-0.6409484631528748
20
-0.6931856120084772
11
-0.6455901954162151
21
-0.6911115917573996
0
LINE
8
Polygon
10
-0.6455901954162151
20
-0.6911115917573996
11
-0.6504185468918984
21
-0.6895196556928287
0
LINE
8
Polygon
10
-0.6504185468918984
20
-0.6895196556928287
11
-0.6553835977592437
21
-0.6884262626751598
0
LINE
8
Polygon
10
-0.6553835977592437
20
-0.6884262626751598
11
-0.660434014876864
21
-0.6878427171803928
0
LINE
8
Polygon
10
-0.660434014876864
20
-0.6878427171803928
11
-0.6655175825106426
21
-0.6877750524243375
0
LINE
8
Polygon
10
-0.6655175825106426
20
-0.6877750524243375
11
-0.6705817421867456
21
-0.6882239679858263
0
LINE
8
Polygon
10
-0.6705817421867456
20
-0.6882239679858263
11
-0.6755741360881824
21
-0.6891848225738425
0
LINE
8
Polygon
10
-0.6755741360881824
20
-0.6891848225738425
11
-0.6804431483767972
21
-0.6906476820133418
0
LINE
8
Polygon
10
-0.6851384388440189
20
-0.6925974219536493
11
-0.6855449835992006
21
-0.6927800298015659
0
LINE
8
Polygon
10
-0.6855449835992006
20
-0.6927800298015659
11
-0.6859592609207648
21
-0.6929443422019621
0
LINE
8
Polygon
10
-0.6859592609207648
20
-0.6929443422019621
11
-0.6863804479534305
21
-0.6930900327905416
0
LINE
8
Polygon
10
-0.6863804479534305
20
-0.6930900327905416
11
-0.6868077081175535
21
-0.6932168121904452
0
LINE
8
Polygon
10
-0.6868077081175535
20
-0.6932168121904452
11
-0.6872401927707773
21
-0.6933244285870226
0
LINE
8
Polygon
10
-0.6872401927707773
20
-0.6933244285870226
11
-0.6876770428936421
21
-0.6934126682279982
0
LINE
8
Polygon
10
-0.6876770428936421
20
-0.6934126682279982
11
-0.6881173907958059
21
-0.6934813558480344
0
LINE
8
Polygon
10
-0.6881173907958059
20
-0.6934813558480344
11
-0.688560361839489
21
-0.6935303550168516
0
LINE
8
Polygon
10
-0.688560361839489
20
-0.6935303550168516
11
-0.6890050761767155
21
-0.693559568410211
0
LINE
8
Polygon
10
-0.6890050761767155
20
-0.693559568410211
11
-0.6894506504969059
21
-0.6935689380032253
0
LINE
8
Polygon
10
-0.6894506504969059
20
-0.6935689380032253
11
-0.6898961997813458
21
-0.6935584451856092
0
LINE
8
Polygon
10
-0.6898961997813458
20
-0.6935584451856092
11
-0.6903408390610477
21
-0.6935281107986444
0
LINE
8
Polygon
10
-0.6903408390610477
20
-0.6935281107986444
11
-0.6907836851745146
21
-0.6934779950937839
0
LINE
8
Polygon
10
-0.6907836851745146
20
-0.6934779950937839
11
-0.6912238585219125
21
-0.6934081976129778
0
LINE
8
Polygon
10
-0.6912238585219125
20
-0.6934081976129778
11
-0.6916604848121695
21
-0.6933188569909584
0
LINE
8
Polygon
10
-0.6916604848121695
20
-0.6933188569909584
11
-0.6920926967995297
21
-0.6932101506798789
0
LINE
8
Polygon
10
-0.6920926967995297
20
-0.6932101506798789
11
-0.692519636006114
21
-0.6930822945968496
0
LINE
8
Polygon
10
-0.692519636006114
20
-0.6930822945968496
11
-0.6929404544270651
21
-0.6929355426950746
0
LINE
8
Polygon
10
-0.6929404544270651
20
-0.6929355426950746
11
-0.6933543162148914
21
-0.6927701864594388
0
LINE
8
Polygon
10
-0.6933543162148914
20
-0.6927701864594388
11
-0.6937603993396624
21
-0.6925865543275482
0
LINE
8
Polygon
10
-0.6937603993396623
20
-0.6925865543275483
11
-0.6941578972217598
21
-0.6923850110373737
0
LINE
8
Polygon
10
-0.6941578972217598
20
-0.6923850110373737
11
-0.6945460203339409
21
-0.692165956902792
0
LINE
8
Polygon
10
-0.6945460203339409
20
-0.692165956902792
11
-0.6949239977695301
21
-0.6919298270184661
0
LINE
8
Polygon
10
-0.6949239977695301
20
-0.6919298270184661
11
-0.6952910787736275
21
-0.6916770903956406
0
LINE
8
Polygon
10
-0.6952910787736275
20
-0.6916770903956406
11
-0.6956465342342902
21
-0.6914082490305731
0
LINE
8
Polygon
10
-0.6956465342342902
20
-0.6914082490305731
11
-0.6959896581307256
21
-0.6911238369074463
0
LINE
8
Polygon
10
-0.6959896581307256
20
-0.6911238369074463
11
-0.696319768935619
21
-0.6908244189377467
0
LINE
8
Polygon
10
-0.696319768935619
20
-0.6908244189377467
11
-0.6966362109688138
21
-0.6905105898382133
0
LINE
8
Polygon
10
-0.6966362109688138
20
-0.6905105898382133
11
-0.6969383556996501
21
-0.6901829729495855
0
LINE
8
Polygon
10
-0.6969383556996501
20
-0.6901829729495855
11
-0.6972256029953802
21
-0.6898422189984974
0
LINE
8
Polygon
10
-0.6972256029953802
20
-0.6898422189984974
11
-0.6974973823131764
21
-0.6894890048049764
0
LINE
8
Polygon
10
-0.6974973823131764
20
-0.6894890048049765
11
-0.697753153833369
21
-0.6891240319381154
0
LINE
8
Polygon
10
-0.697753153833369
20
-0.6891240319381154
11
-0.6979924095316583
21
-0.6887480253225853
0
LINE
8
Polygon
10
-0.6979924095316583
20
-0.6887480253225853
11
-0.6982146741881743
21
-0.6883617317987588
0
LINE
8
Polygon
10
-0.6982146741881743
20
-0.6883617317987588
11
-0.6984195063313785
21
-0.6879659186393051
0
LINE
8
Polygon
10
-0.6984195063313785
20
-0.6879659186393051
11
-0.6986064991149341
21
-0.6875613720251992
0
LINE
8
Polygon
10
-0.6986064991149341
20
-0.6875613720251992
11
-0.6987752811258006
21
-0.6871488954841762
0
LINE
8
Polygon
10
-0.6987752811258006
20
-0.6871488954841762
11
-0.6989255171219512
21
-0.6867293082947304
0
LINE
8
Polygon
10
-0.6989255171219512
20
-0.6867293082947304
11
-0.6990569086982441
21
-0.686303443858829
0
LINE
8
Polygon
10
-0.6990569086982441
20
-0.686303443858829
11
-0.6991691948791278
21
-0.6858721480465737
0
LINE
8
Polygon
10
-0.6991691948791278
20
-0.6858721480465737
11
-0.6992621526370018
21
-0.6854362775160977
0
LINE
8
Polygon
10
-0.6992621526370018
20
-0.6854362775160977
11
-0.6993355973352037
21
-0.6849966980120346
0
LINE
8
Polygon
10
-0.6993355973352037
20
-0.6849966980120346
11
-0.6993893830947422
21
-0.6845542826459392
0
LINE
8
Polygon
10
-0.6993893830947422
20
-0.6845542826459392
11
-0.699423403084048
21
-0.6841099101620769
0
LINE
8
Polygon
10
-0.699423403084048
20
-0.6841099101620769
11
-0.6994375897311681
21
-0.6836644631920233
0
LINE
8
Polygon
10
-0.6994375897311681
20
-0.6836644631920233
11
-0.6994319148579787
21
-0.6832188265015448
0
LINE
8
Polygon
10
-0.6994319148579787
20
-0.6832188265015448
11
-0.6994063897361552
21
-0.6827738852332382
0
LINE
8
Polygon
10
-0.6993610650647828
20
-0.6823305231484234
11
-0.6991277036921352
21
-0.6803232997924715
0
LINE
8
Polygon
10
-0.6991277036921352
20
-0.6803232997924715
11
-0.6989281748999006
21
-0.678312431474557
0
LINE
8
Polygon
10
-0.6989281748999006
20
-0.678312431474557
11
-0.6987625352683912
21
-0.676298488415929
0
LINE
8
Polygon
10
-0.6987625352683912
20
-0.6762984884159289
11
-0.6986308317679812
21
-0.6742820417097394
0
LINE
8
Polygon
10
-0.6986308317679812
20
-0.6742820417097394
11
-0.6985331017457879
21
-0.6722636631590991
0
LINE
8
Polygon
10
-0.6985331017457879
20
-0.6722636631590991
11
-0.6984693729150804
21
-0.6702439251149311
0
LINE
8
Polygon
10
-0.6984693729150804
20
-0.6702439251149311
11
-0.6984396633474218
21
-0.6682234003136698
0
LINE
8
Polygon
10
-0.6984396633474218
20
-0.6682234003136698
11
-0.6984439814675442
21
-0.6662026617148497
0
LINE
8
Polygon
10
-0.6984439814675442
20
-0.6662026617148497
11
-0.6984823260509596
21
-0.6641822823386321
0
LINE
8
Polygon
10
-0.6984823260509596
20
-0.6641822823386321
11
-0.6985546862243075
21
-0.6621628351033135
0
LINE
8
Polygon
10
-0.6985546862243075
20
-0.6621628351033135
11
-0.6986610414684381
21
-0.6601448926628637
0
LINE
8
Polygon
10
-0.6986610414684381
20
-0.6601448926628637
11
-0.6988013616242308
21
-0.658129027244538
0
LINE
8
Polygon
10
-0.6988013616242308
20
-0.658129027244538
11
-0.6989756069011462
21
-0.6561158104866117
0
LINE
8
Polygon
10
-0.6989756069011462
20
-0.6561158104866117
11
-0.6991837278885104
21
-0.65410581327628
0
LINE
8
Polygon
10
-0.6991837278885104
20
-0.65410581327628
11
-0.699425665569525
21
-0.6520996055877721
0
LINE
8
Polygon
10
-0.699425665569525
20
-0.6520996055877721
11
-0.699701351338004
21
-0.6500977563207241
0
LINE
8
Polygon
10
-0.699701351338004
20
-0.6500977563207241
11
-0.700010707017827
21
-0.6481008331388556
0
LINE
8
Polygon
10
-0.700010707017827
20
-0.6481008331388556
11
-0.7003536448851085
21
-0.6461094023089979
0
LINE
8
Polygon
10
-0.7003536448851085
20
-0.6461094023089979
11
-0.7007300676930736
21
-0.6441240285405185
0
LINE
8
Polygon
10
-0.7007300676930736
20
-0.6441240285405185
11
-0.7011398686996337
21
-0.6421452748251852
0
LINE
8
Polygon
10
-0.7011398686996337
20
-0.6421452748251852
11
-0.7015829316976561
21
-0.6401737022775202
0
LINE
8
Polygon
10
-0.7015829316976561
20
-0.6401737022775202
11
-0.7020591310479161
21
-0.6382098699756842
0
LINE
8
Polygon
10
-0.7020591310479161
20
-0.6382098699756842
11
-0.7025683317147251
21
-0.6362543348029389
0
LINE
8
Polygon
10
-0.7025683317147251
20
-0.6362543348029389
11
-0.7031103893042222
21
-0.6343076512897321
0
LINE
8
Polygon
10
-0.7031103893042222
20
-0.6343076512897321
11
-0.70368515010532
21
-0.6323703714564493
0
LINE
8
Polygon
10
-0.70368515010532
20
-0.6323703714564493
11
-0.7042924511332923
21
-0.6304430446568778
0
LINE
8
Polygon
10
-0.7042924511332923
20
-0.6304430446568778
11
-0.7049321201759923
21
-0.6285262174224265
0
LINE
8
Polygon
10
-0.7049321201759923
20
-0.6285262174224265
11
-0.7056039758426855
21
-0.6266204333071461
0
LINE
8
Polygon
10
-0.7056039758426855
20
-0.6266204333071461
11
-0.7063078276154879
21
-0.6247262327335938
0
LINE
8
Polygon
10
-0.7063078276154879
20
-0.6247262327335938
11
-0.7070434759033902
21
-0.6228441528395859
0
LINE
8
Polygon
10
-0.7070434759033902
20
-0.6228441528395859
11
-0.7078107120988562
21
-0.6209747273258813
0
LINE
8
Polygon
10
-0.7078107120988562
20
-0.6209747273258813
11
-0.7086093186369773
21
-0.6191184863048409
0
LINE
8
Polygon
10
-0.7086093186369773
20
-0.6191184863048409
11
-0.7094390690571675
21
-0.6172759561501034
0
LINE
8
Polygon
10
-0.7094390690571675
20
-0.6172759561501034
11
-0.7102997280673808
21
-0.6154476593473218
0
LINE
8
Polygon
10
-0.7102997280673808
20
-0.6154476593473218
11
-0.7111910516108326
21
-0.6136341143460023
0
LINE
8
Polygon
10
-0.7111910516108326
20
-0.6136341143460023
11
-0.7121127869352072
21
-0.6118358354124875
0
LINE
8
Polygon
10
-0.7121127869352072
20
-0.6118358354124875
11
-0.7130646726643303
21
-0.6100533324841269
0
LINE
8
Polygon
10
-0.7130646726643303
20
-0.6100533324841269
11
-0.7140464388722874
21
-0.6082871110246727
0
LINE
8
Polygon
10
-0.7140464388722874
20
-0.6082871110246727
11
-0.7150578071599669
21
-0.6065376718809472
0
LINE
8
Polygon
10
-0.7150578071599669
20
-0.6065376718809472
11
-0.7160984907340057
21
-0.6048055111408169
0
LINE
8
Polygon
10
-0.7160984907340057
20
-0.6048055111408169
11
-0.7171681944881143
21
-0.6030911199925171
0
LINE
8
Polygon
10
-0.7171681944881143
20
-0.6030911199925171
11
-0.7182666150867609
21
-0.6013949845853661
0
LINE
8
Polygon
10
-0.7182666150867609
20
-0.6013949845853661
11
-0.719393441051188
21
-0.5997175858919077
0
LINE
8
Polygon
10
-0.719393441051188
20
-0.5997175858919077
11
-0.7205483528477375
21
-0.5980593995715222
0
LINE
8
Polygon
10
-0.7205483528477375
20
-0.5980593995715222
11
-0.721731022978462
21
-0.5964208958355439
0
LINE
8
Polygon
10
-0.721731022978462
20
-0.5964208958355439
11
-0.7229411160739925
21
-0.5948025393139232
0
LINE
8
Polygon
10
-0.7229411160739925
20
-0.5948025393139232
11
-0.7241782889886388
21
-0.5932047889234716
0
LINE
8
Polygon
10
-0.8143125669029061
20
-0.7873985395297071
11
-0.8114956076566446
21
-0.8693034229353223
0
LINE
8
Polygon
10
-0.8114956076566446
20
-0.8693034229353223
11
-0.47348248055745257
21
-0.8576781185072037
0
LINE
8
Polygon
10
-0.3076313787094631
20
-0.7426878466919193
11
-0.20710678118654746
21
-0.5
0
LINE
8
Polygon
10
-0.20710678118654746
20
-0.5
11
-0.3096210175944698
21
-0.25250874012767227
0
LINE
8
Polygon
10
-0.3096210175944698
20
-0.25250874012767227
11
-0.725442190897696
21
-0.5916280977377272
0
LINE
8
Polygon
10
-0.9737947291879736
20
-1.0431641075223868
11
1.0431641075223865
21
-0.9737947291879736
0
LINE
8
Polygon
10
1.0431641075223865
20
-0.9737947291879736
11
0.9737947291879736
21
1.0431641075223868
0
LINE
8
Polygon
10
0.9737947291879736
20
1.0431641075223868
11
-1.0431641075223865
21
0.9737947291879736
0
ENDSEC
0
EOF
