0
SECTION
2
ENTITIES
0
LINE
8
Polygon
10
-0.3152850473567649
20
-0.761165437342145
11
-0.31653766810685385
21
-0.7606564784335667
0
LINE
8
Polygon
10
-0.31653766810685385
20
-0.7606564784335667
11
-0.31779705569344974
21
-0.7601645019901234
0
LINE
8
Polygon
10
-0.31779705569344974
20
-0.7601645019901234
11
-0.31906297988817045
21
-0.7596895979499265
0
LINE
8
Polygon
10
-0.31906297988817045
20
-0.7596895979499265
11
-0.32033520926767817
21
-0.7592318531300843
0
LINE
8
Polygon
10
-0.3203352092676781
20
-0.7592318531300843
11
-0.3216135112559852
21
-0.758791351210832
0
LINE
8
Polygon
10
-0.3216135112559852
20
-0.758791351210832
11
-0.3228976521669718
21
-0.7583681727202335
0
LINE
8
Polygon
10
-0.3228976521669718
20
-0.7583681727202335
11
-0.3241873972471059
21
-0.7579623950194603
0
LINE
8
Polygon
10
-0.3241873972471059
20
-0.7579623950194603
11
-0.3254825107183583
21
-0.7575740922886495
0
LINE
8
Polygon
10
-0.3254825107183583
20
-0.7575740922886495
11
-0.3267827558213056
21
-0.757203335513342
0
LINE
8
Polygon
10
-0.32678275582130556
20
-0.757203335513342
11
-0.32808789485841167
21
-0.7568501924715068
0
LINE
8
Polygon
10
-0.32808789485841167
20
-0.7568501924715068
11
-0.32939768923748136
21
-0.7565147277211496
0
LINE
8
Polygon
10
-0.32939768923748136
20
-0.7565147277211496
11
-0.33071189951527746
21
-0.7561970025885115
0
LINE
8
Polygon
10
-0.3307118995152774
20
-0.7561970025885115
11
-0.33203028544129315
21
-0.7558970751568578
0
LINE
8
Polygon
10
-0.33203028544129315
20
-0.7558970751568578
11
-0.3333526060016724
21
-0.7556150002558595
0
LINE
8
Polygon
10
-0.3333526060016723
20
-0.7556150002558595
11
-0.3346786194632692
21
-0.7553508294515706
0
LINE
8
Polygon
10
-0.3346786194632692
20
-0.7553508294515706
11
-0.33600808341783944
21
-0.7551046110370007
0
LINE
8
Polygon
10
-0.33600808341783944
20
-0.7551046110370007
11
-0.3373407548263547
21
-0.7548763900232868
0
LINE
8
Polygon
10
-0.3373407548263547
20
-0.7548763900232868
11
-0.3386763900634329
21
-0.7546662081314647
0
LINE
8
Polygon
10
-0.3386763900634329
20
-0.7546662081314647
11
-0.3400147449618749
21
-0.7544741037848424
0
LINE
8
Polygon
10
-0.3400147449618749
20
-0.7544741037848424
11
-0.3413555748573008
21
-0.7543001121019752
0
LINE
8
Polygon
10
-0.3413555748573008
20
-0.7543001121019752
11
-0.3426986346328771
21
-0.7541442648902467
0
LINE
8
Polygon
10
-0.3426986346328771
20
-0.7541442648902467
11
-0.34404367876412645
21
-0.7540065906400528
0
LINE
8
Polygon
10
-0.34404367876412645
20
-0.7540065906400528
11
-0.34539046136381174
21
-0.7538871145195948
0
LINE
8
Polygon
10
-0.34539046136381174
20
-0.7538871145195948
11
-0.34673873622688683
21
-0.753785858370277
0
LINE
8
Polygon
10
-0.34673873622688683
20
-0.753785858370277
11
-0.3480882568755052
21
-0.7537028407027153
0
LINE
8
Polygon
10
-0.3480882568755052
20
-0.7537028407027153
11
-0.34943877660407857
21
-0.7536380766933519
0
LINE
8
Polygon
10
-0.34943877660407857
20
-0.7536380766933519
11
-0.3507900485243771
21
-0.753591578181682
0
LINE
8
Polygon
10
-0.3507900485243771
20
-0.753591578181682
11
-0.3521418256106629
21
-0.7535633536680887
0
LINE
8
Polygon
10
-0.3521418256106629
20
-0.7535633536680887
11
-0.3534938607448487
21
-0.7535534083122896
0
LINE
8
Polygon
10
-0.3534938607448487
20
-0.7535534083122896
11
-0.3548459067616736
21
-0.753561743932393
0
LINE
8
Polygon
10
-0.3548459067616736
20
-0.753561743932393
11
-0.35619771649388743
21
-0.753588359004566
0
LINE
8
Polygon
10
-0.35619771649388743
20
-0.753588359004566
11
-0.35754904281743494
21
-0.7536332486633127
0
LINE
8
Polygon
10
-0.3575490428174349
20
-0.7536332486633127
11
-0.3588996386966327
21
-0.7536964047023641
0
LINE
8
Polygon
10
-0.3588996386966327
20
-0.7536964047023641
11
-0.3602492572293299
21
-0.7537778155761777
0
LINE
8
Polygon
10
-0.3602492572293299
20
-0.7537778155761777
11
-0.361597651692044
21
-0.7538774664020488
0
LINE
8
Polygon
10
-0.36159765169204394
20
-0.7538774664020488
11
-0.36294457558506443
21
-0.7539953389628307
0
LINE
8
Polygon
10
-0.36294457558506443
20
-0.7539953389628307
11
-0.36428978267751544
21
-0.754131411710265
0
LINE
8
Polygon
10
-0.36428978267751544
20
-0.754131411710265
11
-0.36563302705236894
21
-0.7542856597689213
0
LINE
8
Polygon
10
-0.36563302705236894
20
-0.7542856597689213
11
-0.36697406315140096
21
-0.7544580549407439
0
LINE
8
Polygon
10
-0.36697406315140096
20
-0.7544580549407439
11
-0.36831264582008194
21
-0.7546485657102078
0
LINE
8
Polygon
10
-0.3683126458200819
20
-0.7546485657102078
11
-0.36964853035239337
21
-0.7548571572500786
0
LINE
8
Polygon
10
-0.36964853035239337
20
-0.7548571572500786
11
-0.3709814725355627
21
-0.7550837914277807
0
LINE
8
Polygon
10
-0.3709814725355627
20
-0.7550837914277807
11
-0.3723112286947073
21
-0.7553284268123671
0
LINE
8
Polygon
10
-0.3723112286947073
20
-0.7553284268123671
11
-0.3736375557373811
21
-0.7555910186820943
0
LINE
8
Polygon
10
-0.3736375557373811
20
-0.7555910186820943
11
-0.37496021119801415
21
-0.7558715190325974
0
LINE
8
Polygon
10
-0.37496021119801415
20
-0.7558715190325974
11
-0.37627895328223754
21
-0.7561698765856657
0
LINE
8
Polygon
10
-0.37627895328223754
20
-0.7561698765856657
11
-0.3775935409110859
21
-0.7564860367986173
0
LINE
8
Polygon
10
-0.3775935409110859
20
-0.7564860367986173
11
-0.37890373376506903
21
-0.7568199418742695
0
LINE
8
Polygon
10
-0.37890373376506903
20
-0.7568199418742695
11
-0.37933167321263894
21
-0.7569220842644172
0
LINE
8
Polygon
10
-0.37933167321263894
20
-0.7569220842644172
11
-0.37976369126342185
21
-0.7570053047093167
0
LINE
8
Polygon
10
-0.37976369126342185
20
-0.7570053047093167
11
-0.3801989516806467
21
-0.7570694421231154
0
LINE
8
Polygon
10
-0.3801989516806467
20
-0.7570694421231154
11
-0.3806366119514482
21
-0.7571143723580751
0
LINE
8
Polygon
10
-0.3806366119514482
20
-0.7571143723580751
11
-0.3810758249176786
21
-0.7571400084448792
0
LINE
8
Polygon
10
-0.3810758249176786
20
-0.7571400084448792
11
-0.3815157404157117
21
-0.7571463007609752
0
LINE
8
Polygon
10
-0.3815157404157117
20
-0.7571463007609752
11
-0.3819555069220638
21
-0.7571332371266264
0
LINE
8
Polygon
10
-0.3819555069220638
20
-0.7571332371266264
11
-0.3823942732016474
21
-0.7571008428284878
0
LINE
8
Polygon
10
-0.3823942732016474
20
-0.7571008428284878
11
-0.38283118995546633
21
-0.75704918057066
0
LINE
8
Polygon
10
-0.38283118995546633
20
-0.75704918057066
11
-0.38326541146456333
21
-0.7569783503533155
0
LINE
8
Polygon
10
-0.38326541146456333
20
-0.7569783503533155
11
-0.38369609722703807
21
-0.7568884892791335
0
LINE
8
Polygon
10
-0.38369609722703807
20
-0.7568884892791335
11
-0.3841224135849665
21
-0.756779771287917
0
LINE
8
Polygon
10
-0.3841224135849665
20
-0.756779771287917
11
-0.38454353533807306
21
-0.7566524068199049
0
LINE
8
Polygon
10
-0.38454353533807306
20
-0.7566524068199049
11
-0.3849586473410313
21
-0.7565066424084337
0
LINE
8
Polygon
10
-0.3849586473410313
20
-0.7565066424084337
11
-0.385366946081302
21
-0.7563427602027343
0
LINE
8
Polygon
10
-0.385366946081302
20
-0.7563427602027343
11
-0.38576764123445423
21
-0.7561610774217894
0
LINE
8
Polygon
10
-0.38576764123445423
20
-0.7561610774217894
11
-0.38615995719395846
21
-0.7559619457403074
0
LINE
8
Polygon
10
-0.38615995719395846
20
-0.7559619457403075
11
-0.3865431345724914
21
-0.755745750608003
0
LINE
8
Polygon
10
-0.3865431345724914
20
-0.755745750608003
11
-0.38691643167184586
21
-0.7555129105034997
0
LINE
8
Polygon
10
-0.38691643167184586
20
-0.7555129105034997
11
-0.38727912591860053
21
-0.7552638761243016
0
LINE
8
Polygon
10
-0.38727912591860053
20
-0.7552638761243016
11
-0.38763051526277126
21
-0.7549991295143992
0
LINE
8
Polygon
10
-0.38763051526277126
20
-0.7549991295143992
11
-0.38796991953673526
21
-0.7547191831311996
0
LINE
8
Polygon
10
-0.38796991953673526
20
-0.7547191831311996
11
-0.38829668177179966
21
-0.7544245788535876
0
LINE
8
Polygon
10
-0.38829668177179966
20
-0.7544245788535876
11
-0.38861016946986443
21
-0.7541158869330364
0
LINE
8
Polygon
10
-0.38861016946986443
20
-0.7541158869330364
11
-0.3889097758277185
21
-0.7537937048897986
0
LINE
8
Polygon
10
-0.3889097758277185
20
-0.7537937048897986
11
-0.38919492091160046
21
-0.7534586563563149
0
LINE
8
Polygon
10
-0.38919492091160046
20
-0.7534586563563149
11
-0.38946505277974813
21
-0.7531113898700791
0
LINE
8
Polygon
10
-0.38946505277974813
20
-0.7531113898700791
11
-0.3897196485507662
21
-0.7527525776182937
0
LINE
8
Polygon
10
-0.3897196485507662
20
-0.7527525776182937
11
-0.3899582154157429
21
-0.7523829141367504
0
LINE
8
Polygon
10
-0.3899582154157429
20
-0.7523829141367504
11
-0.3901802915921567
21
-0.7520031149654494
0
LINE
8
Polygon
10
-0.3901802915921567
20
-0.7520031149654494
11
-0.3903854472177269
21
-0.7516139152635629
0
LINE
8
Polygon
10
-0.3903854472177269
20
-0.7516139152635629
11
-0.390573285182477
21
-0.751216068386423
0
LINE
8
Polygon
10
-0.390573285182477
20
-0.751216068386423
11
-0.39074344189740245
21
-0.7508103444272866
0
LINE
8
Polygon
10
-0.39074344189740245
20
-0.7508103444272866
11
-0.3908955879982518
21
-0.7503975287267035
0
LINE
8
Polygon
10
-0.3908955879982518
20
-0.7503975287267035
11
-0.3910294289830619
21
-0.7499784203523698
0
LINE
8
Polygon
10
-0.3910294289830619
20
-0.7499784203523698
11
-0.3911447057822111
21
-0.7495538305524105
0
LINE
8
Polygon
10
-0.3911447057822111
20
-0.7495538305524105
11
-0.391241195259888
21
-0.7491245811850852
0
LINE
8
Polygon
10
-0.391241195259888
20
-0.7491245811850852
11
-0.3913187106460048
21
-0.7486915031279561
0
LINE
8
Polygon
10
-0.3913187106460048
20
-0.7486915031279561
11
-0.3913771018977195
21
-0.7482554346695981
0
LINE
8
Polygon
10
-0.3913771018977195
20
-0.7482554346695981
11
-0.3914162559898663
21
-0.7478172198869633
0
LINE
8
Polygon
10
-0.3914162559898663
20
-0.7478172198869633
11
-0.39143609713373323
21
-0.7473777070115414
0
LINE
8
Polygon
10
-0.39143609713373323
20
-0.7473777070115414
11
-0.39143658692376293
21
-0.7469377467874787
0
LINE
8
Polygon
10
-0.39143658692376293
20
-0.7469377467874787
11
-0.39141772441189204
21
-0.7464981908248329
0
LINE
8
Polygon
10
-0.39141772441189204
20
-0.7464981908248329
11
-0.3913795461093868
21
-0.7460598899511521
0
LINE
8
Polygon
10
-0.3913795461093868
20
-0.7460598899511521
11
-0.3913221259161695
21
-0.7456236925645684
0
LINE
8
Polygon
10
-0.3913221259161695
20
-0.7456236925645685
11
-0.3912455749777742
21
-0.7451904429915942
0
LINE
8
Polygon
10
-0.3912455749777742
20
-0.7451904429915942
11
-0.39115004147020743
21
-0.7447609798527993
0
LINE
8
Polygon
10
-0.39115004147020743
20
-0.7447609798527993
11
-0.39103571031313117
21
-0.7443361344395334
0
LINE
8
Polygon
10
-0.3910357103131312
20
-0.7443361344395334
11
-0.38984899322866595
21
-0.7393486241576118
0
LINE
8
Polygon
10
-0.38984899322866595
20
-0.7393486241576118
11
-0.3891792361442208
21
-0.7342658117767865
0
LINE
8
Polygon
10
-0.3891792361442208
20
-0.7342658117767865
11
-0.3890334804989972
21
-0.729141135051107
0
LINE
8
Polygon
10
-0.3890334804989972
20
-0.729141135051107
11
-0.38941325868367527
21
-0.724028471872168
0
LINE
8
Polygon
10
-0.38941325868367527
20
-0.724028471872168
11
-0.390314577929743
21
-0.7189815738280716
0
LINE
8
Polygon
10
-0.390314577929743
20
-0.7189815738280716
11
-0.39172796228715884
21
-0.7140535010902715
0
LINE
8
Polygon
10
-0.39172796228715884
20
-0.7140535010902715
11
-0.39363855224901784
21
-0.7092960645695727
0
LINE
8
Polygon
10
-0.39363855224901784
20
-0.7092960645695727
11
-0.39602626097582616
21
-0.7047592812061356
0
LINE
8
Polygon
10
-0.39602626097582616
20
-0.7047592812061356
11
-0.3988659854769311
21
-0.7004908481202528
0
LINE
8
Polygon
10
-0.3988659854769311
20
-0.7004908481202528
11
-0.40212787052886795
21
-0.6965356411523702
0
LINE
8
Polygon
10
-0.40212787052886795
20
-0.6965356411523702
11
-0.40577762255593824
21
-0.6929352430644177
0
LINE
8
Polygon
10
-0.40577762255593824
20
-0.6929352430644177
11
-0.40977687017305986
21
-0.6897275063626632
0
LINE
8
Polygon
10
-0.40977687017305986
20
-0.6897275063626632
11
-0.41408356760035064
21
-0.6869461553383223
0
LINE
8
Polygon
10
-0.41408356760035064
20
-0.6869461553383223
11
-0.4186524367081763
21
-0.6846204315098353
0
LINE
8
Polygon
10
-0.4186524367081763
20
-0.6846204315098353
11
-0.4234354430452576
21
-0.6827747861944304
0
LINE
8
Polygon
10
-0.4234354430452576
20
-0.6827747861944303
11
-0.42838230084515094
21
-0.6814286234410941
0
LINE
8
Polygon
10
-0.42838230084515094
20
-0.6814286234410941
11
-0.4334410017017571
21
-0.6805960960276066
0
LINE
8
Polygon
10
-0.4334410017017571
20
-0.6805960960276066
11
-0.4385583613556676
21
-0.6802859566664089
0
LINE
8
Polygon
10
-0.43855836135566767
20
-0.6802859566664089
11
-0.4436805788427549
21
-0.6805014659836391
0
LINE
8
Polygon
10
-0.4436805788427549
20
-0.6805014659836391
11
-0.44875380212643856
21
-0.6812403582387928
0
LINE
8
Polygon
10
-0.44875380212643856
20
-0.6812403582387928
11
-0.45372469426689865
21
-0.6824948651454089
0
LINE
8
Polygon
10
-0.45372469426689865
20
-0.6824948651454089
11
-0.45854099417485894
21
-0.6842517975423489
0
LINE
8
Polygon
10
-0.45854099417485894
20
-0.6842517975423489
11
-0.46315206605449877
21
-0.686492684057019
0
LINE
8
Polygon
10
-0.4631520660544988
20
-0.6864926840570191
11
-0.4675094317589681
21
-0.6891939653027154
0
LINE
8
Polygon
10
-0.4675094317589681
20
-0.6891939653027154
11
-0.4715672804616272
21
-0.6923272415684096
0
LINE
8
Polygon
10
-0.4715672804616272
20
-0.6923272415684096
11
-0.4752829502846228
21
-0.6958595713969103
0
LINE
8
Polygon
10
-0.4752829502846228
20
-0.6958595713969103
11
-0.4786173768212339
21
-0.6997538179123199
0
LINE
8
Polygon
10
-0.4786173768212339
20
-0.6997538179123199
11
-0.48153550383648475
21
-0.7039690392557014
0
LINE
8
Polygon
10
-0.48153550383648475
20
-0.7039690392557014
11
-0.48400665182815444
21
-0.7084609190241394
0
LINE
8
Polygon
10
-0.48400665182815444
20
-0.7084609190241394
11
-0.4860048405733457
21
-0.7131822321878076
0
LINE
8
Polygon
10
-0.4860048405733457
20
-0.7131822321878076
11
-0.4875090622695448
21
-0.7180833415866601
0
LINE
8
Polygon
10
-0.4875090622695448
20
-0.7180833415866601
11
-0.48850350239852564
21
-0.7231127197868662
0
LINE
8
Polygon
10
-0.48850350239852564
20
-0.7231127197868662
11
-0.4889777059910608
21
-0.7282174908104933
0
LINE
8
Polygon
10
-0.4889777059910608
20
-0.7282174908104933
11
-0.4889266875444308
21
-0.7333439860430024
0
LINE
8
Polygon
10
-0.4889266875444308
20
-0.7333439860430024
11
-0.48835098343712036
21
-0.7384383084740683
0
LINE
8
Polygon
10
-0.48835098343712036
20
-0.7384383084740683
11
-0.48725664628964493
21
-0.7434468993396204
0
LINE
8
Polygon
10
-0.48725664628964493
20
-0.7434468993396204
11
-0.4856551813307936
21
-0.7483171012077575
0
LINE
8
Polygon
10
-0.4856551813307936
20
-0.7483171012077575
11
-0.4835634254382983
21
-0.7529977115885783
0
LINE
8
Polygon
10
-0.4835634254382983
20
-0.7529977115885783
11
-0.4810033701256244
21
-0.7574395212475896
0
LINE
8
Polygon
10
-0.4810033701256244
20
-0.7574395212475896
11
-0.4780019303358983
21
-0.7615958315631801
0
LINE
8
Polygon
10
-0.4780019303358983
20
-0.7615958315631801
11
-0.47459066147373863
21
-0.7654229454889596
0
LINE
8
Polygon
10
-0.47459066147373863
20
-0.7654229454889596
11
-0.47080542764995553
21
-0.7688806269592695
0
LINE
8
Polygon
10
-0.47080542764995553
20
-0.7688806269592695
11
-0.46668602462700104
21
-0.7719325239079409
0
LINE
8
Polygon
10
-0.46668602462700104
20
-0.7719325239079409
11
-0.4622757614293046
21
-0.7745465504529246
0
LINE
8
Polygon
10
-0.4622757614293046
20
-0.7745465504529246
11
-0.45762100501720127
21
-0.7766952242287265
0
LINE
8
Polygon
10
-0.45762100501720127
20
-0.7766952242287265
11
-0.4527706928114876
21
-0.778355955320126
0
LINE
8
Polygon
10
-0.4527706928114876
20
-0.778355955320126
11
-0.4477758181936408
21
-0.7795112837594999
0
LINE
8
Polygon
10
-0.4477758181936408
20
-0.7795112837594999
11
-0.44268889439085457
21
-0.7801490630908382
0
LINE
8
Polygon
10
-0.4426888943908546
20
-0.7801490630908381
11
-0.44225093592889814
21
-0.7801909871203707
0
LINE
8
Polygon
10
-0.44225093592889814
20
-0.7801909871203707
11
-0.4418152453799575
21
-0.7802521343542849
0
LINE
8
Polygon
10
-0.4418152453799575
20
-0.7802521343542849
11
-0.44138266608948357
21
-0.7803323864327913
0
LINE
8
Polygon
10
-0.44138266608948357
20
-0.7803323864327913
11
-0.4409540353806123
21
-0.7804315880157628
0
LINE
8
Polygon
10
-0.4409540353806123
20
-0.7804315880157628
11
-0.44053018293339824
21
-0.7805495470834185
0
LINE
8
Polygon
10
-0.44053018293339824
20
-0.7805495470834185
11
-0.44011192917884234
21
-0.7806860353080076
0
LINE
8
Polygon
10
-0.44011192917884234
20
-0.7806860353080076
11
-0.43970008371082286
21
-0.7808407884957723
0
LINE
8
Polygon
10
-0.43970008371082286
20
-0.7808407884957723
11
-0.4392954437190028
21
-0.7810135070983356
0
LINE
8
Polygon
10
-0.4392954437190028
20
-0.7810135070983356
11
-0.438898792445748
21
-0.781203856792522
0
LINE
8
Polygon
10
-0.438898792445748
20
-0.781203856792522
11
-0.43851089767004214
21
-0.7814114691274919
0
LINE
8
Polygon
10
-0.43851089767004214
20
-0.7814114691274919
11
-0.4381325102213336
21
-0.7816359422379336
0
LINE
8
Polygon
10
-0.4381325102213336
20
-0.7816359422379336
11
-0.4377643625261904
21
-0.7818768416219352
0
LINE
8
Polygon
10
-0.4377643625261904
20
-0.7818768416219352
11
-0.43740716719057726
21
-0.782133700982029
0
LINE
8
Polygon
10
-0.43740716719057726
20
-0.782133700982029
11
-0.4370616156204981
21
-0.7824060231277816
0
LINE
8
Polygon
10
-0.4370616156204981
20
-0.7824060231277816
11
-0.4367283766836741
21
-0.7826932809381819
0
LINE
8
Polygon
10
-0.4367283766836741
20
-0.7826932809381819
11
-0.43640809541484865
21
-0.7829949183819634
0
LINE
8
Polygon
10
-0.43640809541484865
20
-0.7829949183819634
11
-0.4361013917672241
21
-0.7833103515938885
0
LINE
8
Polygon
10
-0.4361013917672241
20
-0.7833103515938885
11
-0.43580885941244796
21
-0.7836389700049076
0
LINE
8
Polygon
10
-0.43580885941244796
20
-0.7836389700049076
11
-0.43553106459147084
21
-0.783980137524009
0
LINE
8
Polygon
10
-0.43553106459147084
20
-0.783980137524009
11
-0.43526854501850093
21
-0.7843331937694703
0
LINE
8
Polygon
10
-0.43526854501850093
20
-0.7843331937694703
11
-0.4350218088401762
21
-0.7846974553471274
0
LINE
8
Polygon
10
-0.4350218088401762
20
-0.7846974553471274
11
-0.43479133365196904
21
-0.7850722171731882
0
LINE
8
Polygon
10
-0.43479133365196904
20
-0.7850722171731882
11
-0.4345775655737275
21
-0.7854567538390297
0
LINE
8
Polygon
10
-0.4345775655737275
20
-0.7854567538390297
11
-0.4343809183861424
21
-0.7858503210153369
0
LINE
8
Polygon
10
-0.4343809183861424
20
-0.7858503210153369
11
-0.43420177272981175
21
-0.7862521568928658
0
LINE
8
Polygon
10
-0.43420177272981175
20
-0.7862521568928658
11
-0.4340404753684527
21
-0.7866614836570409
0
LINE
8
Polygon
10
-0.4340404753684527
20
-0.7866614836570409
11
-0.4338973385176877
21
-0.7870775089935346
0
LINE
8
Polygon
10
-0.4338973385176877
20
-0.7870775089935346
11
-0.4337726392407036
21
-0.7874994276219112
0
LINE
8
Polygon
10
-0.4337726392407036
20
-0.7874994276219112
11
-0.4336666189119534
21
-0.7879264228543708
0
LINE
8
Polygon
10
-0.4336666189119534
20
-0.7879264228543708
11
-0.43357948274993957
21
-0.7883576681765727
0
LINE
8
Polygon
10
-0.43357948274993957
20
-0.7883576681765727
11
-0.43351139941998196
21
-0.7887923288474799
0
LINE
8
Polygon
10
-0.43351139941998196
20
-0.7887923288474799
11
-0.4334625007077407
21
-0.7892295635151272
0
LINE
8
Polygon
10
-0.4334625007077407
20
-0.7892295635151272
11
-0.43343288126412494
21
-0.7896685258451869
0
LINE
8
Polygon
10
-0.43343288126412494
20
-0.7896685258451869
11
-0.43342259842208125
21
-0.7901083661591771
0
LINE
8
Polygon
10
-0.43342259842208125
20
-0.7901083661591771
11
-0.4334316720856175
21
-0.7905482330791445
0
LINE
8
Polygon
10
-0.4334316720856175
20
-0.7905482330791445
11
-0.4334600846912751
21
-0.7909872751756356
0
LINE
8
Polygon
10
-0.4334600846912751
20
-0.7909872751756356
11
-0.43350778124212624
21
-0.7914246426157685
0
LINE
8
Polygon
10
-0.43350778124212624
20
-0.7914246426157685
11
-0.43357466941422834
21
-0.7918594888082141
0
LINE
8
Polygon
10
-0.43357466941422834
20
-0.7918594888082141
11
-0.43366061973533143
21
-0.792290972041902
0
LINE
8
Polygon
10
-0.43366061973533143
20
-0.792290972041902
11
-0.4337654658354914
21
-0.7927182571152814
0
LINE
8
Polygon
10
-0.4337654658354914
20
-0.7927182571152814
11
-0.43388900476910425
21
-0.7931405169529802
0
LINE
8
Polygon
10
-0.43388900476910425
20
-0.7931405169529802
11
-0.43403099740773826
21
-0.7935569342067357
0
LINE
8
Polygon
10
-0.43403099740773826
20
-0.7935569342067357
11
-0.4341911689030036
21
-0.7939667028374969
0
LINE
8
Polygon
10
-0.4341911689030036
20
-0.7939667028374969
11
-0.43436920921856326
21
-0.794369029675636
0
LINE
8
Polygon
10
-0.43436920921856326
20
-0.794369029675636
11
-0.4345647737302555
21
-0.7947631359562484
0
LINE
8
Polygon
10
-0.4345647737302555
20
-0.7947631359562484
11
-0.4347774838931665
21
-0.7951482588265715
0
LINE
8
Polygon
10
-0.4347774838931665
20
-0.7951482588265715
11
-0.43500692797436186
21
-0.7955236528226023
0
LINE
8
Polygon
10
-0.43500692797436186
20
-0.7955236528226023
11
-0.43525266184985817
21
-0.7958885913120565
0
LINE
8
Polygon
10
-0.43525266184985817
20
-0.7958885913120565
11
-0.4360248457587019
21
-0.7969984696500276
0
LINE
8
Polygon
10
-0.4360248457587019
20
-0.7969984696500276
11
-0.4367819530780289
21
-0.7981186867813002
0
LINE
8
Polygon
10
-0.4367819530780289
20
-0.7981186867813002
11
-0.4375238454012081
21
-0.7992490379192136
0
LINE
8
Polygon
10
-0.4375238454012081
20
-0.7992490379192136
11
-0.4382503871030586
21
-0.8003893164245126
0
LINE
8
Polygon
10
-0.4382503871030586
20
-0.8003893164245126
11
-0.4389614453646435
21
-0.8015393138431214
0
LINE
8
Polygon
10
-0.4389614453646435
20
-0.8015393138431214
11
-0.4396568901975503
21
-0.8026988199442515
0
LINE
8
Polygon
10
-0.4396568901975503
20
-0.8026988199442515
11
-0.44033659446765405
21
-0.8038676227588346
0
LINE
8
Polygon
10
-0.44033659446765405
20
-0.8038676227588346
11
-0.441000433918359
21
-0.8050455086182721
0
LINE
8
Polygon
10
-0.44100043391835897
20
-0.805045508618272
11
-0.4416482871933136
21
-0.8062322621934953
0
LINE
8
Polygon
10
-0.4416482871933136
20
-0.8062322621934953
11
-0.4422800358585959
21
-0.8074276665343311
0
LINE
8
Polygon
10
-0.4422800358585959
20
-0.8074276665343311
11
-0.442895564424364
21
-0.808631503109161
0
LINE
8
Polygon
10
-0.442895564424364
20
-0.808631503109161
11
-0.4434947603659693
21
-0.8098435518448719
0
LINE
8
Polygon
10
-0.4434947603659693
20
-0.8098435518448719
11
-0.4440775141445266
21
-0.8110635911670874
0
LINE
8
Polygon
10
-0.4440775141445266
20
-0.8110635911670874
11
-0.44464371922693924
21
-0.8122913980406733
0
LINE
8
Polygon
10
-0.44464371922693924
20
-0.8122913980406733
11
-0.44519327210537424
21
-0.8135267480105112
0
LINE
8
Polygon
10
-0.44519327210537424
20
-0.8135267480105112
11
-0.4457260723161845
21
-0.8147694152425309
0
LINE
8
Polygon
10
-0.4457260723161845
20
-0.8147694152425309
11
-0.4462420224582746
21
-0.8160191725649947
0
LINE
8
Polygon
10
-0.4462420224582746
20
-0.8160191725649947
11
-0.44674102821090667
21
-0.8172757915100273
0
LINE
8
Polygon
10
-0.44674102821090667
20
-0.8172757915100273
11
-0.4472229983509432
21
-0.8185390423553814
0
LINE
8
Polygon
10
-0.44722299835094315
20
-0.8185390423553814
11
-0.44768784476952334
21
-0.8198086941664335
0
LINE
8
Polygon
10
-0.44768784476952334
20
-0.8198086941664335
11
-0.44813548248817037
21
-0.821084514838401
0
LINE
8
Polygon
10
-0.44813548248817037
20
-0.821084514838401
11
-0.44856582967432623
21
-0.8223662711387726
0
LINE
8
Polygon
10
-0.44856582967432623
20
-0.8223662711387726
11
-0.4489788076563117
21
-0.8236537287499467
0
LINE
8
Polygon
10
-0.4489788076563117
20
-0.8236537287499467
11
-0.4493743409377079
21
-0.8249466523120658
0
LINE
8
Polygon
10
-0.4493743409377079
20
-0.8249466523120658
11
-0.4497523572111582
21
-0.8262448054660432
0
LINE
8
Polygon
10
-0.44975235721115814
20
-0.8262448054660432
11
-0.45011278737158644
21
-0.8275479508967716
0
LINE
8
Polygon
10
-0.45011278737158644
20
-0.8275479508967716
11
-0.45045556552883037
21
-0.8288558503765067
0
LINE
8
Polygon
10
-0.45045556552883037
20
-0.8288558503765067
11
-0.45078062901968635
21
-0.8301682648084173
0
LINE
8
Polygon
10
-0.45078062901968635
20
-0.8301682648084173
11
-0.4510879184193655
21
-0.8314849542702949
0
LINE
8
Polygon
10
-0.4510879184193655
20
-0.8314849542702949
11
-0.4513773775523568
21
-0.8328056780584137
0
LINE
8
Polygon
10
-0.4513773775523568
20
-0.8328056780584137
11
-0.45164895350269646
21
-0.8341301947315333
0
LINE
8
Polygon
10
-0.45164895350269646
20
-0.8341301947315333
11
-0.4519025966236417
21
-0.835458262155037
0
LINE
8
Polygon
10
-0.4519025966236417
20
-0.835458262155037
11
-0.4521382605467464
21
-0.8367896375451962
0
LINE
8
Polygon
10
-0.4521382605467464
20
-0.8367896375451962
11
-0.452355902190338
21
-0.8381240775135536
0
LINE
8
Polygon
10
-0.452355902190338
20
-0.8381240775135536
11
-0.452555481767393
21
-0.8394613381114168
0
LINE
8
Polygon
10
-0.452555481767393
20
-0.8394613381114168
11
-0.4527369627928106
21
-0.8408011748744547
0
LINE
8
Polygon
10
-0.4527369627928106
20
-0.8408011748744547
11
-0.4529003120900824
21
-0.8421433428673883
0
LINE
8
Polygon
10
-0.4529003120900824
20
-0.8421433428673883
11
-0.45304549979735736
21
-0.8434875967287668
0
LINE
8
Polygon
10
-0.45304549979735736
20
-0.8434875967287668
11
-0.45317249937290105
21
-0.8448336907158223
0
LINE
8
Polygon
10
-0.45317249937290105
20
-0.8448336907158223
11
-0.4532812875999475
21
-0.8461813787493934
0
LINE
8
Polygon
10
-0.4532812875999475
20
-0.8461813787493934
11
-0.4533718445909437
21
-0.847530414458912
0
LINE
8
Polygon
10
-0.4533718445909437
20
-0.847530414458912
11
-0.45344415379118497
21
-0.8488805512274414
0
LINE
8
Polygon
10
-0.45344415379118497
20
-0.8488805512274414
11
-0.45349820198184143
21
-0.8502315422367608
0
LINE
8
Polygon
10
-0.45349820198184143
20
-0.8502315422367608
11
-0.45353397928237477
21
-0.8515831405124852
0
LINE
8
Polygon
10
-0.45353397928237477
20
-0.8515831405124852
11
-0.453551479152344
21
-0.8529350989692159
0
LINE
8
Polygon
10
-0.453551479152344
20
-0.8529350989692159
11
-0.45355069839260165
21
-0.8542871704557096
0
LINE
8
Polygon
10
-0.45355069839260165
20
-0.8542871704557096
11
-0.4535316371458782
21
-0.8556391078000596
0
LINE
8
Polygon
10
-0.4535316371458782
20
-0.8556391078000596
11
-0.45349429889675613
21
-0.856990663854882
0
LINE
8
Polygon
10
-0.8150000215552278
20
-0.7674103578690106
11
-0.8134174066690444
21
-0.7673433737048335
0
LINE
8
Polygon
10
-0.8134174066690444
20
-0.7673433737048335
11
-0.8118360513514871
21
-0.767251329607504
0
LINE
8
Polygon
10
-0.8118360513514871
20
-0.767251329607504
11
-0.8102563523893938
21
-0.7671342486723288
0
LINE
8
Polygon
10
-0.8102563523893938
20
-0.7671342486723288
11
-0.808678706153997
21
-0.7669921602767501
0
LINE
8
Polygon
10
-0.808678706153997
20
-0.7669921602767501
11
-0.8071035085014675
21
-0.7668251000729736
0
LINE
8
Polygon
10
-0.8071035085014675
20
-0.7668251000729736
11
-0.8055311546735888
21
-0.766633109979023
0
LINE
8
Polygon
10
-0.8055311546735888
20
-0.766633109979023
11
-0.8039620391985838
21
-0.7664162381682227
0
LINE
8
Polygon
10
-0.8039620391985838
20
-0.7664162381682227
11
-0.802396555792122
21
-0.7661745390571094
0
LINE
8
Polygon
10
-0.802396555792122
20
-0.7661745390571094
11
-0.8008350972585301
21
-0.7659080732917791
0
LINE
8
Polygon
10
-0.8008350972585301
20
-0.7659080732917791
11
-0.799278055392231
21
-0.7656169077326693
0
LINE
8
Polygon
10
-0.799278055392231
20
-0.7656169077326693
11
-0.7977258208794364
21
-0.7653011154377828
0
LINE
8
Polygon
10
-0.7977258208794364
20
-0.7653011154377828
11
-0.7961787832001181
21
-0.7649607756443568
0
LINE
8
Polygon
10
-0.7961787832001181
20
-0.7649607756443568
11
-0.7946373305302804
21
-0.7645959737489804
0
LINE
8
Polygon
10
-0.7946373305302804
20
-0.7645959737489804
11
-0.7931018496445614
21
-0.7642068012861677
0
LINE
8
Polygon
10
-0.7931018496445614
20
-0.7642068012861677
11
-0.791572725819185
21
-0.7637933559053901
0
LINE
8
Polygon
10
-0.791572725819185
20
-0.7637933559053901
11
-0.790050342735289
21
-0.7633557413465748
0
LINE
8
Polygon
10
-0.790050342735289
20
-0.7633557413465748
11
-0.7885350823826534
21
-0.7628940674140743
0
LINE
8
Polygon
10
-0.7885350823826534
20
-0.7628940674140743
11
-0.7870273249638532
21
-0.7624084499491153
0
LINE
8
Polygon
10
-0.7870273249638532
20
-0.7624084499491153
11
-0.7855274487988599
21
-0.7618990108007322
0
LINE
8
Polygon
10
-0.7855274487988599
20
-0.7618990108007322
11
-0.784035830230115
21
-0.7613658777951932
0
LINE
8
Polygon
10
-0.7840358302301149
20
-0.7613658777951932
11
-0.7825528435280992
21
-0.7608091847039263
0
LINE
8
Polygon
10
-0.7825528435280992
20
-0.7608091847039263
11
-0.7810788607974227
21
-0.7602290712099549
0
LINE
8
Polygon
10
-0.7810788607974227
20
-0.7602290712099549
11
-0.7796142518834586
21
-0.759625682872848
0
LINE
8
Polygon
10
-0.7796142518834586
20
-0.759625682872848
11
-0.7781593842795416
21
-0.7589991710921982
0
LINE
8
Polygon
10
-0.7781593842795416
20
-0.7589991710921982
11
-0.7767146230347598
21
-0.7583496930696318
0
LINE
8
Polygon
10
-0.7767146230347598
20
-0.7583496930696318
11
-0.775280330662357
21
-0.7576774117693661
0
LINE
8
Polygon
10
-0.7752803306623569
20
-0.7576774117693661
11
-0.7738568670487728
21
-0.7569824958773175
0
LINE
8
Polygon
10
-0.7738568670487728
20
-0.7569824958773175
11
-0.7724445893633415
21
-0.7562651197587765
0
LINE
8
Polygon
10
-0.7724445893633415
20
-0.7562651197587765
11
-0.7710438519686728
21
-0.7555254634146568
0
LINE
8
Polygon
10
-0.7710438519686728
20
-0.7555254634146568
11
-0.7696550063317363
21
-0.7547637124363293
0
LINE
8
Polygon
10
-0.7696550063317362
20
-0.7547637124363293
11
-0.7682784009356735
21
-0.7539800579590559
0
LINE
8
Polygon
10
-0.7682784009356735
20
-0.7539800579590559
11
-0.7669143811923573
21
-0.7531746966140289
0
LINE
8
Polygon
10
-0.7669143811923573
20
-0.7531746966140289
11
-0.7655632893557233
21
-0.7523478304790343
0
LINE
8
Polygon
10
-0.7655632893557233
20
-0.7523478304790343
11
-0.7642254644358922
21
-0.7514996670277472
0
LINE
8
Polygon
10
-0.7642254644358923
20
-0.7514996670277472
11
-0.762901242114108
21
-0.7506304190776729
0
LINE
8
Polygon
10
-0.762901242114108
20
-0.7506304190776729
11
-0.7615909546585091
21
-0.749740304736748
0
LINE
8
Polygon
10
-0.7615909546585091
20
-0.749740304736748
11
-0.7602949308407577
21
-0.7488295473486138
0
LINE
8
Polygon
10
-0.7602949308407577
20
-0.7488295473486138
11
-0.7590134958535455
21
-0.7478983754365758
0
LINE
8
Polygon
10
-0.7590134958535455
20
-0.7478983754365758
11
-0.7577469712289983
21
-0.7469470226462632
0
LINE
8
Polygon
10
-0.7577469712289983
20
-0.7469470226462632
11
-0.7564956747579978
21
-0.7459757276870043
0
LINE
8
Polygon
10
-0.7564956747579978
20
-0.7459757276870043
11
-0.7552599204104435
21
-0.74498473427193
0
LINE
8
Polygon
10
-0.7552599204104435
20
-0.74498473427193
11
-0.7540400182564724
21
-0.7439742910568226
0
LINE
8
Polygon
10
-0.7540400182564724
20
-0.7439742910568226
11
-0.7528362743886576
21
-0.7429446515777239
0
LINE
8
Polygon
10
-0.7528362743886576
20
-0.7429446515777239
11
-0.7516489908452052
21
-0.7418960741873197
0
LINE
8
Polygon
10
-0.7516489908452052
20
-0.7418960741873197
11
-0.7504784655341674
21
-0.7408288219901142
0
LINE
8
Polygon
10
-0.7504784655341674
20
-0.7408288219901142
11
-0.7493249921586935
21
-0.7397431627764137
0
LINE
8
Polygon
10
-0.7493249921586935
20
-0.7397431627764137
11
-0.7481888601433349
21
-0.7386393689551332
0
LINE
8
Polygon
10
-0.7481888601433349
20
-0.7386393689551332
11
-0.7470703545614238
21
-0.7375177174854449
0
LINE
8
Polygon
10
-0.7470703545614238
20
-0.7375177174854449
11
-0.7467553373508775
21
-0.7372105865757155
0
LINE
8
Polygon
10
-0.7467553373508775
20
-0.7372105865757155
11
-0.7464271157453244
21
-0.7369176090743614
0
LINE
8
Polygon
10
-0.7464271157453244
20
-0.7369176090743614
11
-0.7460863250676983
21
-0.7366393520839826
0
LINE
8
Polygon
10
-0.7460863250676983
20
-0.7366393520839826
11
-0.745733624970288
21
-0.7363763542133862
0
LINE
8
Polygon
10
-0.7457336249702878
20
-0.7363763542133862
11
-0.7453696981578782
21
-0.7361291245350284
0
LINE
8
Polygon
10
-0.7453696981578782
20
-0.7361291245350284
11
-0.7449952490662723
21
-0.7358981415996261
0
LINE
8
Polygon
10
-0.7449952490662723
20
-0.7358981415996261
11
-0.7446110024987481
21
-0.7356838525098492
0
LINE
8
Polygon
10
-0.7446110024987481
20
-0.7356838525098492
11
-0.7442177022230909
21
-0.735486672054886
0
LINE
8
Polygon
10
-0.7442177022230909
20
-0.735486672054886
11
-0.7438161095319179
21
-0.7353069819075546
0
LINE
8
Polygon
10
-0.7438161095319179
20
-0.7353069819075546
11
-0.7434070017690803
21
-0.7351451298855176
0
LINE
8
Polygon
10
-0.7434070017690803
20
-0.7351451298855176
11
-0.7429911708249953
21
-0.7350014292780277
0
LINE
8
Polygon
10
-0.7429911708249953
20
-0.7350014292780277
11
-0.7425694216038224
21
-0.7348761582395086
0
LINE
8
Polygon
10
-0.7425694216038224
20
-0.7348761582395086
11
-0.7421425704654482
21
-0.7347695592511451
0
LINE
8
Polygon
10
-0.7421425704654482
20
-0.7347695592511451
11
-0.7417114436452972
21
-0.7346818386515234
0
LINE
8
Polygon
10
-0.7417114436452972
20
-0.7346818386515234
11
-0.7412768756550276
21
-0.7346131662372314
0
LINE
8
Polygon
10
-0.7412768756550276
20
-0.7346131662372314
11
-0.7408397076672072
21
-0.734563674934192
0
LINE
8
Polygon
10
-0.7408397076672072
20
-0.734563674934192
11
-0.7404007858870947
21
-0.7345334605403636
0
LINE
8
Polygon
10
-0.7404007858870947
20
-0.7345334605403636
11
-0.7399609599146812
21
-0.7345225815403101
0
LINE
8
Polygon
10
-0.7399609599146812
20
-0.7345225815403101
11
-0.7395210811001601
21
-0.7345310589919938
0
LINE
8
Polygon
10
-0.7395210811001601
20
-0.7345310589919938
11
-0.7390820008960084
21
-0.7345588764860151
0
LINE
8
Polygon
10
-0.7390820008960084
20
-0.7345588764860151
11
-0.7386445692088711
21
-0.7346059801773753
0
LINE
8
Polygon
10
-0.7386445692088711
20
-0.7346059801773753
11
-0.7382096327544374
21
-0.7346722788897018
0
LINE
8
Polygon
10
-0.7382096327544374
20
-0.7346722788897018
11
-0.7377780334184932
21
-0.734757644291734
0
LINE
8
Polygon
10
-0.7377780334184932
20
-0.734757644291734
11
-0.7373506066273233
21
-0.7348619111457274
0
LINE
8
Polygon
10
-0.7373506066273233
20
-0.7348619111457274
11
-0.736928179730616
21
-0.7349848776272976
0
LINE
8
Polygon
10
-0.736928179730616
20
-0.7349848776272976
11
-0.7365115704000019
21
-0.7351263057160808
0
LINE
8
Polygon
10
-0.7365115704000019
20
-0.7351263057160808
11
-0.7361015850463263
21
-0.7352859216564597
0
LINE
8
Polygon
10
-0.7361015850463263
20
-0.7352859216564597
11
-0.7356990172587173
21
-0.7354634164874582
0
LINE
8
Polygon
10
-0.7356990172587173
20
-0.7354634164874582
11
-0.7353046462684739
21
-0.7356584466407831
0
LINE
8
Polygon
10
-0.7353046462684739
20
-0.7356584466407831
11
-0.7349192354407443
21
-0.7358706346058526
0
LINE
8
Polygon
10
-0.7349192354407443
20
-0.7358706346058526
11
-0.7345435307969171
21
-0.7360995696605259
0
LINE
8
Polygon
10
-0.7345435307969171
20
-0.7360995696605259
11
-0.7341782595705829
21
-0.736344808666118
0
LINE
8
Polygon
10
-0.7341782595705829
20
-0.736344808666118
11
-0.7338241287998625
21
-0.7366058769251624
0
LINE
8
Polygon
10
-0.7338241287998625
20
-0.7366058769251624
11
-0.7334818239588273
21
-0.7368822691002606
0
LINE
8
Polygon
10
-0.7334818239588273
20
-0.7368822691002606
11
-0.73315200763066
21
-0.7371734501922389
0
LINE
8
Polygon
10
-0.73315200763066
20
-0.7371734501922389
11
-0.7328353182251232
21
-0.7374788565757221
0
LINE
8
Polygon
10
-0.7328353182251232
20
-0.7374788565757221
11
-0.7325323687428205
21
-0.737797897090115
0
LINE
8
Polygon
10
-0.7325323687428205
20
-0.737797897090115
11
-0.7322437455886402
21
-0.7381299541838845
0
LINE
8
Polygon
10
-0.7322437455886402
20
-0.7381299541838845
11
-0.7319700074366798
21
-0.7384743851099246
0
LINE
8
Polygon
10
-0.7319700074366798
20
-0.7384743851099246
11
-0.7317116841488462
21
-0.7388305231696912
0
LINE
8
Polygon
10
-0.7317116841488462
20
-0.7388305231696912
11
-0.7314692757492282
21
-0.7391976790036993
0
LINE
8
Polygon
10
-0.7314692757492282
20
-0.7391976790036993
11
-0.7312432514562226
21
-0.7395751419258823
0
LINE
8
Polygon
10
-0.7312432514562226
20
-0.7395751419258823
11
-0.731034048774292
21
-0.7399621812992341
0
LINE
8
Polygon
10
-0.731034048774292
20
-0.7399621812992341
11
-0.7308420726471068
21
-0.740358047950068
0
LINE
8
Polygon
10
-0.7308420726471068
20
-0.740358047950068
11
-0.7306676946737156
21
-0.7407619756181567
0
LINE
8
Polygon
10
-0.7306676946737156
20
-0.7407619756181567
11
-0.730511252389259
21
-0.7411731824399453
0
LINE
8
Polygon
10
-0.730511252389259
20
-0.7411731824399453
11
-0.730373048611618
21
-0.7415908724619681
0
LINE
8
Polygon
10
-0.730373048611618
20
-0.7415908724619681
11
-0.7302533508552649
21
-0.7420142371815368
0
LINE
8
Polygon
10
-0.7302533508552649
20
-0.7420142371815368
11
-0.7287146628524154
21
-0.7469046354762284
0
LINE
8
Polygon
10
-0.7287146628524154
20
-0.7469046354762284
11
-0.7266832857986039
21
-0.7516117644861541
0
LINE
8
Polygon
10
-0.7266832857986039
20
-0.7516117644861541
11
-0.7241805764190548
21
-0.756086136175269
0
LINE
8
Polygon
10
-0.7241805764190548
20
-0.756086136175269
11
-0.7212328467548708
21
-0.7602807095835818
0
LINE
8
Polygon
10
-0.7212328467548708
20
-0.7602807095835818
11
-0.7178710875334281
21
-0.7641513853886424
0
LINE
8
Polygon
10
-0.7178710875334281
20
-0.7641513853886424
11
-0.7141306423497662
21
-0.7676574695403502
0
LINE
8
Polygon
10
-0.7141306423497662
20
-0.7676574695403502
11
-0.7100508360844404
21
-0.7707621010946967
0
LINE
8
Polygon
10
-0.7100508360844404
20
-0.7707621010946967
11
-0.7056745614644374
21
-0.773432639748443
0
LINE
8
Polygon
10
-0.7056745614644374
20
-0.773432639748443
11
-0.7010478281138149
21
-0.7756410090004191
0
LINE
8
Polygon
10
-0.7010478281138149
20
-0.7756410090004191
11
-0.6962192788350844
21
-0.7773639913316419
0
LINE
8
Polygon
10
-0.6962192788350844
20
-0.7773639913316419
11
-0.6912396782068767
21
-0.7785834723009029
0
LINE
8
Polygon
10
-0.6912396782068767
20
-0.7785834723009029
11
-0.6861613788744793
21
-0.779286630989541
0
LINE
8
Polygon
10
-0.6861613788744793
20
-0.779286630989541
11
-0.6810377711443566
21
-0.7794660747931779
0
LINE
8
Polygon
10
-0.6810377711443566
20
-0.7794660747931779
11
-0.6759227216693017
21
-0.7791199171432907
0
LINE
8
Polygon
10
-0.6759227216693017
20
-0.7791199171432907
11
-0.6708700071255557
21
-0.7782517973415045
0
LINE
8
Polygon
10
-0.6708700071255557
20
-0.7782517973415045
11
-0.6659327488358906
21
-0.7768708422980763
0
LINE
8
Polygon
10
-0.6659327488358906
20
-0.7768708422980763
11
-0.661162854282699
21
-0.7749915705768319
0
LINE
8
Polygon
10
-0.661162854282699
20
-0.7749915705768319
11
-0.6566104713827008
21
-0.7726337397553693
0
LINE
8
Polygon
10
-0.6566104713827008
20
-0.7726337397553693
11
-0.6523234612607066
21
-0.7698221387052991
0
LINE
8
Polygon
10
-0.6523234612607066
20
-0.7698221387052991
11
-0.6483468950653924
21
-0.766586326976363
0
LINE
8
Polygon
10
-0.6483468950653924
20
-0.766586326976363
11
-0.6447225801172701
21
-0.7629603240243988
0
LINE
8
Polygon
10
-0.6447225801172701
20
-0.7629603240243988
11
-0.6414886203706636
21
-0.7589822515504281
0
LINE
8
Polygon
10
-0.6414886203706636
20
-0.7589822515504281
11
-0.6386790158107378
21
-0.7546939327111065
0
LINE
8
Polygon
10
-0.6386790158107378
20
-0.7546939327111065
11
-0.6363233049972904
21
-0.750140452414208
0
LINE
8
Polygon
10
-0.6363233049972904
20
-0.750140452414208
11
-0.6344462545133915
21
-0.745369683321941
0
LINE
8
Polygon
10
-0.6344462545133915
20
-0.745369683321941
11
-0.633067598583833
21
-0.7404317825454239
0
LINE
8
Polygon
10
-0.633067598583833
20
-0.7404317825454239
11
-0.6322018316008847
21
-0.7353786643217849
0
LINE
8
Polygon
10
-0.6322018316008847
20
-0.7353786643217849
11
-0.6318580557386254
21
-0.7302634542178533
0
LINE
8
Polygon
10
-0.6318580557386254
20
-0.7302634542178533
11
-0.6320398852579403
21
-0.7251399305986298
0
LINE
8
Polygon
10
-0.6320398852579403
20
-0.7251399305986297
11
-0.63274540850827
21
-0.7200619592326136
0
LINE
8
Polygon
10
-0.63274540850827
20
-0.7200619592326136
11
-0.6339672080255998
21
-0.7150829269782203
0
LINE
8
Polygon
10
-0.6339672080255998
20
-0.7150829269782203
11
-0.6356924385153933
21
-0.7102551805051832
0
LINE
8
Polygon
10
-0.6356924385153933
20
-0.7102551805051832
11
-0.6379029619006009
21
-0.7056294759518977
0
LINE
8
Polygon
10
-0.6379029619006009
20
-0.7056294759518977
11
-0.6405755380149271
21
-0.7012544453046944
0
LINE
8
Polygon
10
-0.6405755380149271
20
-0.7012544453046944
11
-0.6436820689365176
21
-0.697176085109219
0
LINE
8
Polygon
10
-0.6436820689365176
20
-0.697176085109219
11
-0.6471898943932834
21
-0.6934372728893152
0
LINE
8
Polygon
10
-0.6471898943932834
20
-0.6934372728893152
11
-0.6510621351341401
21
-0.6900773163575004
0
LINE
8
Polygon
10
-0.6510621351341401
20
-0.6900773163575004
11
-0.655258080656156
21
-0.6871315401563761
0
LINE
8
Polygon
10
-0.655258080656156
20
-0.6871315401563761
11
-0.6597336172112699
21
-0.6846309144757363
0
LINE
8
Polygon
10
-0.6597336172112699
20
-0.6846309144757363
11
-0.664441691592762
21
-0.6826017294498767
0
LINE
8
Polygon
10
-0.664441691592762
20
-0.6826017294498767
11
-0.6693328058254969
21
-0.6810653187583056
0
LINE
8
Polygon
10
-0.6693328058254969
20
-0.6810653187583056
11
-0.6743555375590483
21
-0.6800378353357572
0
LINE
8
Polygon
10
-0.6743555375590483
20
-0.6800378353357572
11
-0.6794570806925956
21
-0.6795300815495653
0
LINE
8
Polygon
10
-0.6794570806925956
20
-0.6795300815495653
11
-0.6845838005477721
21
-0.6795473956298099
0
LINE
8
Polygon
10
-0.6845838005477721
20
-0.6795473956298099
11
-0.6896817977526994
21
-0.6800895955462505
0
LINE
8
Polygon
10
-0.6896817977526996
20
-0.6800895955462505
11
-0.6946974749088569
21
-0.6811509809220857
0
LINE
8
Polygon
10
-0.6946974749088569
20
-0.6811509809220857
11
-0.6995781000831763
21
-0.6827203929644237
0
LINE
8
Polygon
10
-0.6995781000831763
20
-0.6827203929644237
11
-0.7042723612011343
21
-0.6847813317813863
0
LINE
8
Polygon
10
-0.7042723612011343
20
-0.6847813317813863
11
-0.7046698546274811
21
-0.68496991654923
0
LINE
8
Polygon
10
-0.7046698546274811
20
-0.68496991654923
11
-0.7050752583263383
21
-0.6851408348911491
0
LINE
8
Polygon
10
-0.7050752583263383
20
-0.6851408348911491
11
-0.705487787577069
21
-0.6852937559686471
0
LINE
8
Polygon
10
-0.705487787577069
20
-0.6852937559686471
11
-0.7059066438664444
21
-0.6854283837796753
0
LINE
8
Polygon
10
-0.7059066438664444
20
-0.6854283837796753
11
-0.7063310164342882
21
-0.6855444577315902
0
LINE
8
Polygon
10
-0.7063310164342882
20
-0.6855444577315902
11
-0.706760083842827
21
-0.6856417531455696
0
LINE
8
Polygon
10
-0.706760083842827
20
-0.6856417531455696
11
-0.7071930155667071
21
-0.6857200816915133
0
LINE
8
Polygon
10
-0.7071930155667071
20
-0.6857200816915133
11
-0.7076289736006043
21
-0.6857792917525846
0
LINE
8
Polygon
10
-0.7076289736006043
20
-0.6857792917525846
11
-0.7080671140813097
21
-0.685819268718687
0
LINE
8
Polygon
10
-0.7080671140813097
20
-0.685819268718687
11
-0.7085065889211564
21
-0.6858399352083112
0
LINE
8
Polygon
10
-0.7085065889211564
20
-0.6858399352083112
11
-0.7089465474496215
21
-0.6858412512183168
0
LINE
8
Polygon
10
-0.7089465474496215
20
-0.6858412512183168
11
-0.7093861380599296
21
-0.6858232142013663
0
LINE
8
Polygon
10
-0.7093861380599296
20
-0.6858232142013663
11
-0.7098245098574667
21
-0.6857858590708542
0
LINE
8
Polygon
10
-0.7098245098574667
20
-0.6857858590708542
11
-0.7102608143068169
21
-0.6857292581333282
0
LINE
8
Polygon
10
-0.7102608143068169
20
-0.6857292581333282
11
-0.7106942068742313
21
-0.6856535209485282
0
LINE
8
Polygon
10
-0.7106942068742313
20
-0.6856535209485282
11
-0.7111238486623528
21
-0.6855587941173166
0
LINE
8
Polygon
10
-0.7111238486623528
20
-0.6855587941173166
11
-0.7115489080340286
21
-0.6854452609979104
0
LINE
8
Polygon
10
-0.7115489080340286
20
-0.6854452609979104
11
-0.7119685622220715
21
-0.6853131413509629
0
LINE
8
Polygon
10
-0.7119685622220715
20
-0.6853131413509629
11
-0.7123819989218512
21
-0.6851626909141842
0
LINE
8
Polygon
10
-0.7123819989218512
20
-0.6851626909141842
11
-0.7127884178636328
21
-0.6849942009073213
0
LINE
8
Polygon
10
-0.7127884178636328
20
-0.6849942009073213
11
-0.7131870323616218
21
-0.6848079974684581
0
LINE
8
Polygon
10
-0.7131870323616218
20
-0.6848079974684581
11
-0.713577070836714
21
-0.6846044410227253
0
LINE
8
Polygon
10
-0.713577070836714
20
-0.6846044410227253
11
-0.713957778310004
21
-0.6843839255846429
0
LINE
8
Polygon
10
-0.713957778310004
20
-0.6843839255846429
11
-0.7143284178641628
21
-0.684146877995445
0
LINE
8
Polygon
10
-0.7143284178641628
20
-0.684146877995445
11
-0.7146882720698526
21
-0.6838937570968633
0
LINE
8
Polygon
10
-0.7146882720698526
20
-0.6838937570968633
11
-0.7150366443744217
21
-0.6836250528429691
0
LINE
8
Polygon
10
-0.7150366443744217
20
-0.6836250528429691
11
-0.7153728604501871
21
-0.683341285351793
0
LINE
8
Polygon
10
-0.7153728604501871
20
-0.683341285351793
11
-0.7156962694996996
21
-0.6830430038985562
0
LINE
8
Polygon
10
-0.7156962694996996
20
-0.6830430038985562
11
-0.7160062455154603
21
-0.6827307858524656
0
LINE
8
Polygon
10
-0.7160062455154603
20
-0.6827307858524656
11
-0.7163021884916548
21
-0.6824052355591274
0
LINE
8
Polygon
10
-0.7163021884916548
20
-0.6824052355591274
11
-0.716583525585555
21
-0.6820669831707435
0
LINE
8
Polygon
10
-0.716583525585555
20
-0.6820669831707435
11
-0.7168497122263436
21
-0.681716683426357
0
LINE
8
Polygon
10
-0.7168497122263436
20
-0.681716683426357
11
-0.7171002331692141
21
-0.6813550143845042
0
LINE
8
Polygon
10
-0.7171002331692141
20
-0.6813550143845042
11
-0.7173346034927056
21
-0.6809826761107287
0
LINE
8
Polygon
10
-0.7173346034927056
20
-0.6809826761107287
11
-0.717552369537342
21
-0.6806003893224991
0
LINE
8
Polygon
10
-0.717552369537342
20
-0.6806003893224991
11
-0.7177531097837594
21
-0.6802088939941491
0
LINE
8
Polygon
10
-0.7177531097837594
20
-0.6802088939941491
11
-0.7179364356686206
21
-0.6798089479245455
0
LINE
8
Polygon
10
-0.7179364356686206
20
-0.6798089479245455
11
-0.7181019923367393
21
-0.6794013252702523
0
LINE
8
Polygon
10
-0.7181019923367393
20
-0.6794013252702523
11
-0.7182494593279556
21
-0.6789868150470332
0
LINE
8
Polygon
10
-0.7182494593279556
20
-0.6789868150470332
11
-0.718378551197436
21
-0.678566219602591
0
LINE
8
Polygon
10
-0.718378551197436
20
-0.678566219602591
11
-0.7184890180681953
21
-0.6781403530635013
0
LINE
8
Polygon
10
-0.7184890180681953
20
-0.6781403530635013
11
-0.7185806461147716
21
-0.6777100397593471
0
LINE
8
Polygon
10
-0.7185806461147716
20
-0.6777100397593471
11
-0.7186532579771177
21
-0.6772761126271023
0
LINE
8
Polygon
10
-0.7186532579771177
20
-0.6772761126271023
11
-0.7187067131039089
21
-0.6768394115988561
0
LINE
8
Polygon
10
-0.7187067131039089
20
-0.6768394115988561
11
-0.7187409080246017
21
-0.6764007819759961
0
LINE
8
Polygon
10
-0.7187409080246017
20
-0.6764007819759961
11
-0.7187557765497161
21
-0.6759610727929983
0
LINE
8
Polygon
10
-0.7187557765497161
20
-0.6759610727929983
11
-0.718751289898956
21
-0.6755211351739926
0
LINE
8
Polygon
10
-0.718751289898956
20
-0.6755211351739926
11
-0.7187274567569176
21
-0.6750818206852808
0
LINE
8
Polygon
10
-0.7187274567569177
20
-0.6750818206852807
11
-0.718619387540091
21
-0.6735014796459495
0
LINE
8
Polygon
10
-0.718619387540091
20
-0.6735014796459495
11
-0.7185363642009077
21
-0.6719196250757152
0
LINE
8
Polygon
10
-0.7185363642009077
20
-0.6719196250757152
11
-0.7184784075712254
21
-0.6703366538866863
0
LINE
8
Polygon
10
-0.7184784075712254
20
-0.6703366538866863
11
-0.7184455321932706
21
-0.6687529632711479
0
LINE
8
Polygon
10
-0.7184455321932706
20
-0.6687529632711479
11
-0.7184377463159911
21
-0.6671689506019008
0
LINE
8
Polygon
10
-0.7184377463159911
20
-0.6671689506019008
11
-0.7184550518929856
21
-0.6655850133325544
0
LINE
8
Polygon
10
-0.7184550518929856
20
-0.6655850133325544
11
-0.7184974445820136
21
-0.6640015488977984
0
LINE
8
Polygon
10
-0.7184974445820136
20
-0.6640015488977984
11
-0.7185649137460848
21
-0.6624189546136815
0
LINE
8
Polygon
10
-0.7185649137460848
20
-0.6624189546136815
11
-0.7186574424561284
21
-0.6608376275779176
0
LINE
8
Polygon
10
-0.7186574424561284
20
-0.6608376275779176
11
-0.7187750074952405
21
-0.6592579645702484
0
LINE
8
Polygon
10
-0.7187750074952405
20
-0.6592579645702484
11
-0.71891757936451
21
-0.6576803619528846
0
LINE
8
Polygon
10
-0.71891757936451
20
-0.6576803619528846
11
-0.7190851222904198
21
-0.6561052155710528
0
LINE
8
Polygon
10
-0.7190851222904198
20
-0.6561052155710528
11
-0.7192775942338236
21
-0.6545329206536719
0
LINE
8
Polygon
10
-0.7192775942338236
20
-0.6545329206536719
11
-0.7194949469004936
21
-0.6529638717141828
0
LINE
8
Polygon
10
-0.7194949469004936
20
-0.6529638717141828
11
-0.7197371257532389
21
-0.6513984624515607
0
LINE
8
Polygon
10
-0.7197371257532389
20
-0.6513984624515607
11
-0.7200040700255886
21
-0.6498370856515283
0
LINE
8
Polygon
10
-0.7200040700255886
20
-0.6498370856515283
11
-0.7202957127370405
21
-0.648280133088
0
LINE
8
Polygon
10
-0.7202957127370405
20
-0.648280133088
11
-0.7206119807098665
21
-0.6467279954247805
0
LINE
8
Polygon
10
-0.7206119807098665
20
-0.6467279954247805
11
-0.7209527945874747
21
-0.6451810621175402
0
LINE
8
Polygon
10
-0.7209527945874747
20
-0.6451810621175402
11
-0.7213180688543206
21
-0.6436397213160948
0
LINE
8
Polygon
10
-0.7213180688543206
20
-0.6436397213160948
11
-0.7217077118573648
21
-0.6421043597670131
0
LINE
8
Polygon
10
-0.7217077118573648
20
-0.6421043597670131
11
-0.7221216258290698
21
-0.6405753627165753
0
LINE
8
Polygon
10
-0.7221216258290698
20
-0.6405753627165753
11
-0.7225597069119319
21
-0.6390531138141095
0
LINE
8
Polygon
10
-0.7225597069119319
20
-0.6390531138141095
11
-0.7230218451845403
21
-0.6375379950157274
0
LINE
8
Polygon
10
-0.7230218451845403
20
-0.6375379950157274
11
-0.7235079246891578
21
-0.6360303864884861
0
LINE
8
Polygon
10
-0.7235079246891578
20
-0.6360303864884861
11
-0.7240178234608172
21
-0.6345306665149977
0
LINE
8
Polygon
10
-0.7240178234608172
20
-0.6345306665149977
11
-0.724551413557924
21
-0.6330392113985125
0
LINE
8
Polygon
10
-0.724551413557924
20
-0.6330392113985125
11
-0.7251085610943581
21
-0.6315563953684988
0
LINE
8
Polygon
10
-0.7251085610943581
20
-0.6315563953684988
11
-0.7256891262730691
21
-0.6300825904867428
0
LINE
8
Polygon
10
-0.7256891262730691
20
-0.6300825904867428
11
-0.726292963421153
21
-0.6286181665539917
0
LINE
8
Polygon
10
-0.726292963421153
20
-0.6286181665539917
11
-0.7269199210264038
21
-0.6271634910171663
0
LINE
8
Polygon
10
-0.7269199210264038
20
-0.6271634910171663
11
-0.7275698417753304
21
-0.6257189288771617
0
LINE
8
Polygon
10
-0.7275698417753304
20
-0.6257189288771617
11
-0.7282425625926289
21
-0.6242848425972631
0
LINE
8
Polygon
10
-0.7282425625926289
20
-0.6242848425972631
11
-0.728937914682101
21
-0.6228615920121985
0
LINE
8
Polygon
10
-0.728937914682101
20
-0.6228615920121985
11
-0.7296557235690073
21
-0.62144953423785
0
LINE
8
Polygon
10
-0.7296557235690073
20
-0.62144953423785
11
-0.7303958091438462
21
-0.6200490235816479
0
LINE
8
Polygon
10
-0.7303958091438462
20
-0.6200490235816478
11
-0.7311579857075453
21
-0.6186604114536698
0
LINE
8
Polygon
10
-0.7311579857075453
20
-0.6186604114536698
11
-0.7319420620180574
21
-0.6172840462784661
0
LINE
8
Polygon
10
-0.7319420620180574
20
-0.6172840462784661
11
-0.7327478413383455
21
-0.6159202734076344
0
LINE
8
Polygon
10
-0.7327478413383455
20
-0.6159202734076344
11
-0.7335751214857467
21
-0.6145694350331663
0
LINE
8
Polygon
10
-0.7335751214857467
20
-0.6145694350331663
11
-0.734423694882704
21
-0.6132318701015849
0
LINE
8
Polygon
10
-0.734423694882704
20
-0.6132318701015849
11
-0.7352933486088502
21
-0.6119079142288988
0
LINE
8
Polygon
10
-0.7352933486088502
20
-0.6119079142288988
11
-0.7361838644544331
21
-0.6105978996163903
0
LINE
8
Polygon
10
-0.7361838644544331
20
-0.6105978996163903
11
-0.7370950189750676
21
-0.6093021549672609
0
LINE
8
Polygon
10
-0.7370950189750676
20
-0.6093021549672609
11
-0.7380265835478016
21
-0.6080210054041548
0
LINE
8
Polygon
10
-0.7380265835478016
20
-0.6080210054041548
11
-0.7389783244284809
21
-0.6067547723875801
0
LINE
8
Polygon
10
-0.7389783244284809
20
-0.6067547723875801
11
-0.7399500028103994
21
-0.6055037736352498
0
LINE
8
Polygon
10
-0.7399500028103994
20
-0.6055037736352498
11
-0.7409413748842194
21
-0.6042683230423607
0
LINE
8
Polygon
10
-0.8150000215552278
20
-0.7674103578690106
11
-0.8114956076566446
21
-0.8693034229353223
0
LINE
8
Polygon
10
-0.8114956076566446
20
-0.8693034229353223
11
-0.45349429889675613
21
-0.856990663854882
0
LINE
8
Polygon
10
-0.3152850473567649
20
-0.761165437342145
11
-0.20710678118654746
21
-0.5
0
LINE
8
Polygon
10
-0.20710678118654746
20
-0.5
11
-0.3096210175944698
21
-0.25250874012767227
0
LINE
8
Polygon
10
-0.3096210175944698
20
-0.25250874012767227
11
-0.7409413748842194
21
-0.6042683230423607
0
ENDSEC
0
EOF
