0
SECTION
2
ENTITIES
0
LINE
8
Polygon
10
-0.08784049541554437
20
-0.45059828689978515
11
-0.08672646711791179
21
-0.4532252139450761
0
LINE
8
Polygon
10
-0.08672646711791179
20
-0.4532252139450761
11
-0.085568505334146
21
-0.45583307307787935
0
LINE
8
Polygon
10
-0.08556850533414603
20
-0.4558330730778793
11
-0.08436693628911732
21
-0.4584211296033895
0
LINE
8
Polygon
10
-0.08436693628911732
20
-0.4584211296033895
11
-0.08312209849287949
21
-0.46098865440565817
0
LINE
8
Polygon
10
-0.08312209849287949
20
-0.46098865440565817
11
-0.08183434264530395
21
-0.4635349241530028
0
LINE
8
Polygon
10
-0.08183434264530401
20
-0.4635349241530027
11
-0.08050403153727914
21
-0.4660592215017857
0
LINE
8
Polygon
10
-0.08050403153727914
20
-0.4660592215017857
11
-0.07913153994850386
21
-0.4685608352985074
0
LINE
8
Polygon
10
-0.07913153994850386
20
-0.4685608352985074
11
-0.07771725454190323
21
-0.47103906078015423
0
LINE
8
Polygon
10
-0.07771725454190329
20
-0.4710390607801542
11
-0.0762615737546967
21
-0.47349319977274706
0
LINE
8
Polygon
10
-0.0762615737546967
20
-0.47349319977274706
11
-0.07476490768614877
21
-0.4759225608880332
0
LINE
8
Polygon
10
-0.07476490768614877
20
-0.4759225608880332
11
-0.07322767798203472
21
-0.4783264597182665
0
LINE
8
Polygon
10
-0.07322767798203478
20
-0.4783264597182664
11
-0.07165031771585309
21
-0.4807042190290206
0
LINE
8
Polygon
10
-0.07165031771585309
20
-0.4807042190290206
11
-0.07003327126681852
21
-0.4830551689499828
0
LINE
8
Polygon
10
-0.07003327126681852
20
-0.4830551689499828
11
-0.06837699419467014
21
-0.48537864716367074
0
LINE
8
Polygon
10
-0.06837699419467017
20
-0.48537864716367074
11
-0.06668195311132943
21
-0.4876739990920238
0
LINE
8
Polygon
10
-0.06668195311132943
20
-0.4876739990920238
11
-0.06494862554944494
21
-0.4899405780808126
0
LINE
8
Polygon
10
-0.06494862554944494
20
-0.4899405780808126
11
-0.06317749982786008
21
-0.4921777455818164
0
LINE
8
Polygon
10
-0.06317749982786014
20
-0.4921777455818164
11
-0.06136907491404245
21
-0.4943848713327174
0
LINE
8
Polygon
10
-0.06136907491404245
20
-0.4943848713327174
11
-0.05952386028351275
21
-0.49656133353466037
0
LINE
8
Polygon
10
-0.05952386028351275
20
-0.49656133353466037
11
-0.057642375776314037
21
-0.49870651902742746
0
LINE
8
Polygon
10
-0.05764237577631409
20
-0.4987065190274274
11
-0.05572515145056041
21
-0.5008198234621801
0
LINE
8
Polygon
10
-0.05572515145056041
20
-0.5008198234621801
11
-0.05377272743310714
21
-0.5029006514717184
0
LINE
8
Polygon
10
-0.05377272743310714
20
-0.5029006514717184
11
-0.051785653767384685
21
-0.5049484168382092
0
LINE
8
Polygon
10
-0.051785653767384754
20
-0.5049484168382092
11
-0.04976449025843836
21
-0.5069625426583383
0
LINE
8
Polygon
10
-0.04976449025843836
20
-0.5069625426583383
11
-0.047709806315218095
21
-0.5089424615058369
0
LINE
8
Polygon
10
-0.047709806315218095
20
-0.5089424615058369
11
-0.04562218079016295
21
-0.510887615591339
0
LINE
8
Polygon
10
-0.045622180790163
20
-0.5108876155913389
11
-0.04350220181612466
21
-0.5127974569195237
0
LINE
8
Polygon
10
-0.04350220181612466
20
-0.5127974569195237
11
-0.04135046664067682
21
-0.5146714474434986
0
LINE
8
Polygon
10
-0.04135046664067682
20
-0.5146714474434986
11
-0.03916758145785651
21
-0.5165090592163796
0
LINE
8
Polygon
10
-0.039167581457856565
20
-0.5165090592163795
11
-0.03695416123738521
21
-0.518309774540026
0
LINE
8
Polygon
10
-0.03695416123738521
20
-0.518309774540026
11
-0.0347108295514172
21
-0.5200730861108891
0
LINE
8
Polygon
10
-0.0347108295514172
20
-0.5200730861108891
11
-0.03243821839886517
21
-0.5217984971629295
0
LINE
8
Polygon
10
-0.03243821839886525
20
-0.5217984971629295
11
-0.03013696802735119
21
-0.5234855216075697
0
LINE
8
Polygon
10
-0.03013696802735119
20
-0.5234855216075697
11
-0.02780772675283369
21
-0.5251336841706353
0
LINE
8
Polygon
10
-0.02780772675283369
20
-0.5251336841706353
11
-0.025451150776962306
21
-0.5267425205262517
0
LINE
8
Polygon
10
-0.02545115077696236
20
-0.5267425205262517
11
-0.02306790400221012
21
-0.5283115774276547
0
LINE
8
Polygon
10
-0.02306790400221012
20
-0.5283115774276547
11
-0.020658657844836906
21
-0.5298404128348813
0
LINE
8
Polygon
10
-0.020658657844836906
20
-0.5298404128348813
11
-0.018224091045735635
21
-0.5313285960393023
0
LINE
8
Polygon
10
-0.01822409104573569
20
-0.5313285960393023
11
-0.01576488947921527
21
-0.5327757077849635
0
LINE
8
Polygon
10
-0.01576488947921527
20
-0.5327757077849635
11
-0.013281745959773744
21
-0.5341813403866994
0
LINE
8
Polygon
10
-0.013281745959773744
20
-0.5341813403866994
11
-0.010775360046916288
21
-0.5355450978449876
0
LINE
8
Polygon
10
-0.010775360046916357
20
-0.5355450978449876
11
-0.008246437848073024
21
-0.5368665959575116
0
LINE
8
Polygon
10
-0.008246437848073024
20
-0.5368665959575116
11
-0.005695691819671833
21
-0.5381454624273992
0
LINE
8
Polygon
10
-0.005695691819671833
20
-0.5381454624273992
11
-0.00312384056642305
21
-0.5393813369681071
0
LINE
8
Polygon
10
-0.0031238405664231195
20
-0.5393813369681071
11
-0.0005316086388717223
21
-0.5405738714049223
0
LINE
8
Polygon
10
-0.0005316086388716945
20
-0.5405738714049223
11
0.002080273670725663
21
-0.541722729773051
0
LINE
8
Polygon
10
0.002080273670725663
20
-0.541722729773051
11
0.0047110705341408265
21
-0.5428275884122677
0
LINE
8
Polygon
10
0.0073600407944743335
20
-0.5438881360580979
11
0.007840186220453545
21
-0.5440617155127132
0
LINE
8
Polygon
10
0.007840186220453545
20
-0.5440617155127132
11
0.00832856519975845
21
-0.5442105625137794
0
LINE
8
Polygon
10
0.008328565199758452
20
-0.5442105625137794
11
0.00882390467755485
21
-0.5443342890626267
0
LINE
8
Polygon
10
0.00882390467755485
20
-0.5443342890626267
11
0.009324913455114898
21
-0.5444325726419321
0
LINE
8
Polygon
10
0.0093249134551149
20
-0.5444325726419321
11
0.009830285555577844
21
-0.5445051570564228
0
LINE
8
Polygon
10
0.009830285555577844
20
-0.5445051570564228
11
0.010338703628232804
21
-0.5445518531006995
0
LINE
8
Polygon
10
0.010338703628232804
20
-0.5445518531006995
11
0.010848842382449719
21
-0.5445725390524374
0
LINE
8
Polygon
10
0.01084884238244972
20
-0.5445725390524374
11
0.011359372042307248
21
-0.5445671609896781
0
LINE
8
Polygon
10
0.011359372042307248
20
-0.5445671609896781
11
0.011868961812912427
21
-0.5445357329313886
0
LINE
8
Polygon
10
0.011868961812912429
20
-0.5445357329313886
11
0.012376283349376517
21
-0.544478336800918
0
LINE
8
Polygon
10
0.012376283349376517
20
-0.544478336800918
11
0.012880014219404391
21
-0.5443951222124479
0
LINE
8
Polygon
10
0.012880014219404393
20
-0.5443951222124479
11
0.013378841350471637
21
-0.5442863060809944
0
LINE
8
Polygon
10
0.013378841350471637
20
-0.5442863060809944
11
0.013871464452603564
21
-0.5441521720569765
0
LINE
8
Polygon
10
0.013871464452603564
20
-0.5441521720569765
11
0.014356599407834037
21
-0.5439930697868268
0
LINE
8
Polygon
10
0.014356599407834039
20
-0.5439930697868268
11
0.014832981617508796
21
-0.5438094140015689
0
LINE
8
Polygon
10
0.014832981617508796
20
-0.5438094140015689
11
0.015299369298707906
21
-0.5436016834357414
0
LINE
8
Polygon
10
0.015299369298707906
20
-0.5436016834357414
11
0.015754546721194553
21
-0.5433704195794826
0
LINE
8
Polygon
10
0.015754546721194557
20
-0.5433704195794826
11
0.016197327376452464
21
-0.5431162252670312
0
LINE
8
Polygon
10
0.016197327376452464
20
-0.5431162252670312
11
0.01662655707055119
21
-0.5428397631053214
0
LINE
8
Polygon
10
0.01662655707055119
20
-0.5428397631053214
11
0.017041116932777187
21
-0.5425417537467697
0
LINE
8
Polygon
10
0.017041116932777187
20
-0.5425417537467697
11
0.017439926332188015
21
-0.542222974010753
0
LINE
8
Polygon
10
0.017439926332188015
20
-0.542222974010753
11
0.017821945694487154
21
-0.5418842548586789
0
LINE
8
Polygon
10
0.017821945694487154
20
-0.5418842548586789
11
0.018186179211876676
21
-0.5415264792279222
0
LINE
8
Polygon
10
0.018186179211876676
20
-0.5415264792279222
11
0.018531677438824036
21
-0.5411505797302775
0
LINE
8
Polygon
10
0.018531677438824036
20
-0.5411505797302775
11
0.018857539766976572
21
-0.5407575362209248
0
LINE
8
Polygon
10
0.018857539766976572
20
-0.5407575362209248
11
0.019162916772772425
21
-0.5403483732442462
0
LINE
8
Polygon
10
0.019162916772772425
20
-0.5403483732442462
11
0.01944701243162831
21
-0.539924157363152
0
LINE
8
Polygon
10
0.01944701243162831
20
-0.539924157363152
11
0.019709086192932497
21
-0.5394859943788766
0
LINE
8
Polygon
10
0.019709086192932497
20
-0.5394859943788766
11
0.019948454910434052
21
-0.5390350264484924
0
LINE
8
Polygon
10
0.019948454910434052
20
-0.5390350264484924
11
0.020164494622996465
21
-0.5385724291076557
0
LINE
8
Polygon
10
0.020164494622996465
20
-0.5385724291076557
11
0.02035664218107377
21
-0.5380994082063435
0
LINE
8
Polygon
10
0.020356642181073772
20
-0.5380994082063435
11
0.020524396714669393
21
-0.5376171967655715
0
LINE
8
Polygon
10
0.020524396714669393
20
-0.5376171967655715
11
0.020667320938951256
21
-0.5371270517632848
0
LINE
8
Polygon
10
0.020667320938951256
20
-0.5371270517632848
11
0.020785042294119788
21
-0.5366302508577999
0
LINE
8
Polygon
10
0.020785042294119788
20
-0.5366302508577999
11
0.02087725391655751
21
-0.5361280890573404
0
LINE
8
Polygon
10
0.02087725391655751
20
-0.5361280890573404
11
0.020943715438728788
21
-0.5356218753443457
0
LINE
8
Polygon
10
0.020943715438728788
20
-0.5356218753443457
11
0.02098425361574456
21
-0.5351129292633533
0
LINE
8
Polygon
10
0.02098425361574456
20
-0.5351129292633533
11
0.020998762776958863
21
-0.5346025774813498
0
LINE
8
Polygon
10
0.020998762776958863
20
-0.5346025774813498
11
0.020987205101419916
21
-0.5340921503295549
0
LINE
8
Polygon
10
0.020987205101419916
20
-0.5340921503295549
11
0.02094961071645781
21
-0.5335829783356544
0
LINE
8
Polygon
10
0.02094961071645781
20
-0.5335829783356544
11
0.020886077619151747
21
-0.5330763887555208
0
LINE
8
Polygon
10
0.020886077619151743
20
-0.5330763887555208
11
0.020796771420881578
21
-0.5325737021134624
0
LINE
8
Polygon
10
0.020796771420881578
20
-0.5325737021134624
11
0.02068192491562955
21
-0.5320762287600206
0
LINE
8
Polygon
10
0.020681924915629552
20
-0.5320762287600206
11
0.020541837473157458
21
-0.531585265456285
0
LINE
8
Polygon
10
0.020541837473157458
20
-0.531585265456285
11
0.020376874258641132
21
-0.5311020919936346
0
LINE
8
Polygon
10
0.020376874258641132
20
-0.5311020919936346
11
0.02018746528079636
21
-0.5306279678577112
0
LINE
8
Polygon
10
0.02018746528079636
20
-0.5306279678577112
11
0.019974104270977483
21
-0.5301641289453263
0
LINE
8
Polygon
10
0.10457670361564145
20
-0.533809321298786
11
0.10692926097318206
21
-0.5300563868564615
0
LINE
8
Polygon
10
0.10692926097318206
20
-0.5300563868564615
11
0.10894045326380493
21
-0.5261099772706426
0
LINE
8
Polygon
10
0.10894045326380493
20
-0.5261099772706426
11
0.11059449742025834
21
-0.5220010624531505
0
LINE
8
Polygon
10
0.11059449742025834
20
-0.5220010624531505
11
0.11187841313713821
21
-0.5177618875946606
0
LINE
8
Polygon
10
0.11187841313713821
20
-0.5177618875946606
11
0.11278212473535626
21
-0.5134257201167891
0
LINE
8
Polygon
10
0.11278212473535626
20
-0.5134257201167891
11
0.11329854023221281
21
-0.5090265886021023
0
LINE
8
Polygon
10
0.11329854023221281
20
-0.5090265886021023
11
0.11342360699656227
21
-0.504599015750826
0
LINE
8
Polygon
10
0.11342360699656227
20
-0.504599015750826
11
0.11315634355231115
21
-0.5001777474599086
0
LINE
8
Polygon
10
0.11315634355231116
20
-0.5001777474599086
11
0.1124988472806667
21
-0.4957974801505224
0
LINE
8
Polygon
10
0.1124988472806667
20
-0.4957974801505224
11
0.11145627796069209
21
-0.49149258848383065
0
LINE
8
Polygon
10
0.11145627796069209
20
-0.49149258848383065
11
0.11003681727733533
21
-0.48729685560180536
0
LINE
8
Polygon
10
0.11003681727733533
20
-0.48729685560180536
11
0.10825160461469761
21
-0.4832432080100601
0
LINE
8
Polygon
10
0.10825160461469763
20
-0.4832432080100601
11
0.10611464963841086
21
-0.4793634571832379
0
LINE
8
Polygon
10
0.10611464963841086
20
-0.4793634571832379
11
0.10364272235314437
21
-0.47568804992073505
0
LINE
8
Polygon
10
0.10364272235314437
20
-0.475688049920735
11
0.10085522149802753
21
-0.4722458294118735
0
LINE
8
Polygon
10
0.10085522149802753
20
-0.4722458294118735
11
0.09777402231277052
21
-0.4690638088855922
0
LINE
8
Polygon
10
0.0977740223127705
20
-0.4690638088855922
11
0.0944233048691564
21
-0.4661669596209662
0
LINE
8
Polygon
10
0.0944233048691564
20
-0.4661669596209662
11
0.0908293643150936
21
-0.463578014982167
0
LINE
8
Polygon
10
0.09082936431509361
20
-0.463578014982167
11
0.08702040452036028
21
-0.46131729201572264
0
LINE
8
Polygon
10
0.08702040452036028
20
-0.46131729201572264
11
0.08302631674343017
21
-0.45940253201011316
0
LINE
8
Polygon
10
0.08302631674343017
20
-0.45940253201011316
11
0.07887844505631797
21
-0.4578487612689299
0
LINE
8
Polygon
10
0.07887844505631798
20
-0.4578487612689299
11
0.0746093403683
21
-0.4566681731901967
0
LINE
8
Polygon
10
0.0746093403683
20
-0.4566681731901967
11
0.07025250497883803
21
-0.45587003257724934
0
LINE
8
Polygon
10
0.07025250497883805
20
-0.45587003257724934
11
0.06584212966435725
21
-0.4554606029321057
0
LINE
8
Polygon
10
0.06584212966435725
20
-0.4554606029321057
11
0.06141282536212025
21
-0.4554430973018992
0
LINE
8
Polygon
10
0.06141282536212025
20
-0.4554430973018992
11
0.05699935155683997
21
-0.4558176530641148
0
LINE
8
Polygon
10
0.05699935155683997
20
-0.4558176530641148
11
0.05263634350154881
21
-0.45658133084850333
0
LINE
8
Polygon
10
0.05263634350154881
20
-0.45658133084850333
11
0.04835804041339056
21
-0.45772813760413383
0
LINE
8
Polygon
10
0.04835804041339056
20
-0.45772813760413383
11
0.04419801677735036
21
-0.4592490736305633
0
LINE
8
Polygon
10
0.044198016777350385
20
-0.4592490736305633
11
0.04018891886654821
21
-0.4611322032040408
0
LINE
8
Polygon
10
0.04018891886654821
20
-0.4611322032040408
11
0.03636220854678376
21
-0.4633627482444989
0
LINE
8
Polygon
10
0.03636220854678376
20
-0.4633627482444989
11
0.03274791637585671
21
-0.46592320428826917
0
LINE
8
Polygon
10
0.03274791637585671
20
-0.46592320428826917
11
0.029374405935244145
21
-0.46879347785641245
0
LINE
8
Polygon
10
0.029374405935244145
20
-0.46879347785641245
11
0.02626815124357019
21
-0.47195104414065064
0
LINE
8
Polygon
10
0.02626815124357019
20
-0.47195104414065064
11
0.023453528998641573
21
-0.4753711237694396
0
LINE
8
Polygon
10
0.023453528998641573
20
-0.4753711237694396
11
0.02095262727845415
21
-0.47902687726699217
0
LINE
8
Polygon
10
0.02095262727845415
20
-0.47902687726699217
11
0.018785072202411712
21
-0.48288961567921046
0
LINE
8
Polygon
10
0.018785072202411712
20
-0.48288961567921046
11
0.01696787391305333
21
-0.48692902571361607
0
LINE
8
Polygon
10
0.01696787391305333
20
-0.48692902571361607
11
0.015515293086965955
21
-0.49111340762646627
0
LINE
8
Polygon
10
0.015515293086965955
20
-0.49111340762646627
11
0.01443872902245319
21
-0.4954099239902084
0
LINE
8
Polygon
10
0.01443872902245319
20
-0.4954099239902084
11
0.013746630182205656
21
-0.49978485738904227
0
LINE
8
Polygon
10
0.013746630182205656
20
-0.49978485738904227
11
0.013444427892999732
21
-0.5042038750202927
0
LINE
8
Polygon
10
0.013444427892999739
20
-0.5042038750202927
11
0.013534493722723973
21
-0.5086322981251032
0
LINE
8
Polygon
10
0.013534493722723973
20
-0.5086322981251032
11
0.014016120869222132
21
-0.5130353741340611
0
LINE
8
Polygon
10
0.014016120869222132
20
-0.5130353741340611
11
0.014885529707005962
21
-0.5173785493920593
0
LINE
8
Polygon
10
0.014885529707005962
20
-0.5173785493920593
11
0.01613589744830922
21
-0.5216277403221555
0
LINE
8
Polygon
10
0.01613589744830922
20
-0.5216277403221555
11
0.017757411685714472
21
-0.5257496009004377
0
LINE
8
Polygon
10
0.10457670361564138
20
-0.533809321298786
11
0.10429745608874666
21
-0.5342367441291034
0
LINE
8
Polygon
10
0.10429745608874666
20
-0.5342367441291034
11
0.10404038782059863
21
-0.5346778624382503
0
LINE
8
Polygon
10
0.10404038782059863
20
-0.5346778624382503
11
0.1038061689096564
21
-0.535131526365525
0
LINE
8
Polygon
10
0.1038061689096564
20
-0.535131526365525
11
0.10359540989308366
21
-0.535596553347631
0
LINE
8
Polygon
10
0.10359540989308366
20
-0.535596553347631
11
0.10340866015526483
21
-0.5360717312012583
0
LINE
8
Polygon
10
0.10340866015526483
20
-0.5360717312012583
11
0.1032464064957277
21
-0.5365558212828755
0
LINE
8
Polygon
10
0.1032464064957277
20
-0.5365558212828755
11
0.1031090718602058
21
-0.5370475617174945
0
LINE
8
Polygon
10
0.1031090718602058
20
-0.5370475617174945
11
0.10299701423814804
21
-0.537545670687994
0
LINE
8
Polygon
10
0.10299701423814804
20
-0.537545670687994
11
0.10291052572954953
21
-0.5380488497764244
0
LINE
8
Polygon
10
0.10291052572954953
20
-0.5380488497764244
11
0.10284983178353613
21
-0.5385557873485876
0
LINE
8
Polygon
10
0.10284983178353613
20
-0.5385557873485876
11
0.10281509061068744
21
-0.5390651619730658
0
LINE
8
Polygon
10
0.10281509061068744
20
-0.5390651619730658
11
0.10280639277063014
21
-0.5395756458657908
0
LINE
8
Polygon
10
0.10280639277063014
20
-0.5395756458657908
11
0.10282376093597669
21
-0.5400859083511703
0
LINE
8
Polygon
10
0.10282376093597669
20
-0.5400859083511703
11
0.10286714983322474
21
-0.5405946193307539
0
LINE
8
Polygon
10
0.10286714983322474
20
-0.5405946193307539
11
0.1029364463607714
21
-0.5411004527503925
0
LINE
8
Polygon
10
0.1029364463607714
20
-0.5411004527503925
11
0.10303146988373448
21
-0.541602090056857
0
LINE
8
Polygon
10
0.10303146988373448
20
-0.541602090056857
11
0.1031519727048125
21
-0.5420982236349038
0
LINE
8
Polygon
10
0.1031519727048125
20
-0.5420982236349038
11
0.1032976407099559
21
-0.5425875602158283
0
LINE
8
Polygon
10
0.1032976407099559
20
-0.5425875602158283
11
0.10346809418716642
21
-0.5430688242486212
0
LINE
8
Polygon
10
0.10346809418716642
20
-0.5430688242486212
11
0.10366288881629034
21
-0.5435407612249409
0
LINE
8
Polygon
10
0.10366288881629034
20
-0.5435407612249409
11
0.10388151682722532
21
-0.544002140949233
0
LINE
8
Polygon
10
0.10388151682722532
20
-0.544002140949233
11
0.10412340832352211
21
-0.544451760745475
0
LINE
8
Polygon
10
0.10412340832352211
20
-0.544451760745475
11
0.1043879327679304
21
-0.5448884485921844
0
LINE
8
Polygon
10
0.1043879327679304
20
-0.5448884485921844
11
0.1046744006260169
21
-0.545311066177522
0
LINE
8
Polygon
10
0.1046744006260169
20
-0.545311066177522
11
0.10498206516357106
21
-0.5457185118665223
0
LINE
8
Polygon
10
0.10498206516357105
20
-0.5457185118665223
11
0.10531012439311292
21
-0.5461097235727195
0
LINE
8
Polygon
10
0.10531012439311292
20
-0.5461097235727195
11
0.10565772316442973
21
-0.5464836815266826
0
LINE
8
Polygon
10
0.10565772316442973
20
-0.5464836815266826
11
0.10602395539369124
21
-0.5468394109342433
0
LINE
8
Polygon
10
0.10602395539369124
20
-0.5468394109342433
11
0.10640786642533348
21
-0.5471759845174857
0
LINE
8
Polygon
10
0.10640786642533348
20
-0.5471759845174857
11
0.10680845552055433
21
-0.5474925249318777
0
LINE
8
Polygon
10
0.10680845552055433
20
-0.5474925249318777
11
0.10722467846593386
21
-0.5477882070532393
0
LINE
8
Polygon
10
0.10722467846593386
20
-0.5477882070532393
11
0.10765545029537982
21
-0.5480622601285897
0
LINE
8
Polygon
10
0.10765545029537982
20
-0.5480622601285897
11
0.1080996481183028
21
-0.5483139697852654
0
LINE
8
Polygon
10
0.1080996481183028
20
-0.5483139697852654
11
0.10855611404664912
21
-0.5485426798930705
0
LINE
8
Polygon
10
0.10855611404664912
20
-0.5485426798930705
11
0.10902365821316126
21
-0.5487477942746086
0
LINE
8
Polygon
10
0.10902365821316126
20
-0.5487477942746086
11
0.1095010618729984
21
-0.5489287782593347
0
LINE
8
Polygon
10
0.1095010618729984
20
-0.5489287782593347
11
0.10998708058063206
21
-0.5490851600772786
0
LINE
8
Polygon
10
0.10998708058063206
20
-0.5490851600772786
11
0.11048044743373535
21
-0.549216532088804
0
LINE
8
Polygon
10
0.11048044743373535
20
-0.549216532088804
11
0.11097987637561052
21
-0.5493225518472018
0
LINE
8
Polygon
10
0.11097987637561053
20
-0.5493225518472018
11
0.11148406554754593
21
-0.5494029429913433
0
LINE
8
Polygon
10
0.11148406554754593
20
-0.5494029429913433
11
0.11199170068236405
21
-0.5494574959660694
0
LINE
8
Polygon
10
0.11199170068236405
20
-0.5494574959660694
11
0.11250145853031465
21
-0.5494860685684371
0
LINE
8
Polygon
10
0.11250145853031465
20
-0.5494860685684371
11
0.11301201030838268
21
-0.5494885863183988
0
LINE
8
Polygon
10
0.11301201030838268
20
-0.5494885863183988
11
0.11352202516401974
21
-0.5494650426529495
0
LINE
8
Polygon
10
0.11352202516401974
20
-0.5494650426529495
11
0.11403017364427026
21
-0.549415498943234
0
LINE
8
Polygon
10
0.11403017364427026
20
-0.549415498943234
11
0.11453513116124923
21
-0.5493400843345716
0
LINE
8
Polygon
10
0.11453513116124923
20
-0.5493400843345716
11
0.11503558144493829
21
-0.5492389954098131
0
LINE
8
Polygon
10
0.11553021997429964
20
-0.5491124956769101
11
0.11826906610636756
21
-0.5483121666107982
0
LINE
8
Polygon
10
0.11826906610636756
20
-0.5483121666107982
11
0.12099409369668038
21
-0.5474659814175686
0
LINE
8
Polygon
10
0.12099409369668043
20
-0.5474659814175686
11
0.1237045350413428
21
-0.546574178487347
0
LINE
8
Polygon
10
0.1237045350413428
20
-0.546574178487347
11
0.12639962654574527
21
-0.5456370090618403
0
LINE
8
Polygon
10
0.12639962654574527
20
-0.5456370090618403
11
0.1290786089396868
21
-0.5446547371635565
0
LINE
8
Polygon
10
0.12907860893968687
20
-0.5446547371635565
11
0.13174072749127896
21
-0.543627639521423
0
LINE
8
Polygon
10
0.13174072749127896
20
-0.543627639521423
11
0.13438523221957122
21
-0.5425560054928261
0
LINE
8
Polygon
10
0.13438523221957122
20
-0.5425560054928261
11
0.13701137810583855
21
-0.5414401369820918
0
LINE
8
Polygon
10
0.13701137810583858
20
-0.5414401369820918
11
0.13961842530347024
21
-0.5402803483554327
0
LINE
8
Polygon
10
0.13961842530347024
20
-0.5402803483554327
11
0.14220563934640207
21
-0.5390769663523832
0
LINE
8
Polygon
10
0.14220563934640207
20
-0.5390769663523832
11
0.14477229135603262
21
-0.5378303299937499
0
LINE
8
Polygon
10
0.14477229135603265
20
-0.5378303299937499
11
0.1473176582465653
21
-0.536540790486101
0
LINE
8
Polygon
10
0.1473176582465653
20
-0.536540790486101
11
0.14984102292871848
21
-0.5352087111228239
0
LINE
8
Polygon
10
0.14984102292871848
20
-0.5352087111228239
11
0.1523416745117464
21
-0.5338344671817761
0
LINE
8
Polygon
10
0.15234167451174643
20
-0.533834467181776
11
0.15481890850371366
21
-0.532418445819561
0
LINE
8
Polygon
10
0.15481890850371366
20
-0.532418445819561
11
0.15727202700996684
21
-0.5309610459624576
0
LINE
8
Polygon
10
0.15727202700996684
20
-0.5309610459624576
11
0.15970033892974805
21
-0.5294626781940324
0
LINE
8
Polygon
10
0.15970033892974805
20
-0.5294626781940324
11
0.162103160150894
21
-0.5279237646394693
0
LINE
8
Polygon
10
0.162103160150894
20
-0.5279237646394693
11
0.16447981374256618
21
-0.5263447388466468
0
LINE
8
Polygon
10
0.16447981374256615
20
-0.5263447388466468
11
0.1668296301459584
21
-0.5247260456639973
0
LINE
8
Polygon
10
0.1668296301459584
20
-0.5247260456639973
11
0.169151947362927
21
-0.5230681411151832
0
LINE
8
Polygon
10
0.169151947362927
20
-0.5230681411151832
11
0.17144611114249106
21
-0.5213714922706243
0
LINE
8
Polygon
10
0.17144611114249103
20
-0.5213714922706243
11
0.17371147516515043
21
-0.5196365771159128
0
LINE
8
Polygon
10
0.17371147516515043
20
-0.5196365771159128
11
0.17594740122496885
21
-0.5178638844171541
0
LINE
8
Polygon
10
0.17594740122496885
20
-0.5178638844171541
11
0.17815325940937143
21
-0.5160539135832701
0
LINE
8
Polygon
10
0.17815325940937143
20
-0.5160539135832701
11
0.18032842827660592
21
-0.5142071745253031
0
LINE
8
Polygon
10
0.18032842827660592
20
-0.5142071745253031
11
0.18247229503081713
21
-0.5123241875127629
0
LINE
8
Polygon
10
0.18247229503081713
20
-0.5123241875127629
11
0.18458425569468606
21
-0.5104054830270546
0
LINE
8
Polygon
10
0.184584255694686
20
-0.5104054830270546
11
0.18666371527958409
21
-0.5084516016120288
0
LINE
8
Polygon
10
0.18666371527958409
20
-0.5084516016120288
11
0.18871008795319566
21
-0.5064630937216993
0
LINE
8
Polygon
10
0.18871008795319566
20
-0.5064630937216993
11
0.19072279720456037
21
-0.5044405195651656
0
LINE
8
Polygon
10
0.19072279720456037
20
-0.5044405195651657
11
0.19270127600649
21
-0.5023844489487902
0
LINE
8
Polygon
10
0.19270127600649
20
-0.5023844489487902
11
0.194644966975313
21
-0.5002954611156704
0
LINE
8
Polygon
10
0.194644966975313
20
-0.5002954611156704
11
0.19655332252790272
21
-0.49817414458245163
0
LINE
8
Polygon
10
0.1965533225279027
20
-0.4981741445824517
11
0.19842580503594423
21
-0.4960210969735295
0
LINE
8
Polygon
10
0.19842580503594423
20
-0.4960210969735295
11
0.20026188697739689
21
-0.493836924852684
0
LINE
8
Polygon
10
0.20026188697739689
20
-0.493836924852684
11
0.20206105108510936
21
-0.4916222435521971
0
LINE
8
Polygon
10
0.20206105108510936
20
-0.49162224355219714
11
0.20382279049254615
21
-0.48937767699949897
0
LINE
8
Polygon
10
0.20382279049254615
20
-0.48937767699949897
11
0.20554660887658358
21
-0.4871038575413929
0
LINE
8
Polygon
10
0.20554660887658358
20
-0.4871038575413929
11
0.20723202059733561
21
-0.48480142576590884
0
LINE
8
Polygon
10
0.2072320205973356
20
-0.48480142576590884
11
0.20887855083497
21
-0.48247103032183447
0
LINE
8
Polygon
10
0.20887855083497
20
-0.48247103032183447
11
0.2104857357234761
21
-0.48011332773597576
0
LINE
8
Polygon
10
0.2104857357234761
20
-0.48011332773597576
11
0.21205312248134667
21
-0.47772898222819815
0
LINE
8
Polygon
10
0.21205312248134664
20
-0.4777289822281982
11
0.21358026953913709
21
-0.47531866552430035
0
LINE
8
Polygon
10
0.21358026953913709
20
-0.47531866552430035
11
0.21506674666386583
21
-0.4728830566667731
0
LINE
8
Polygon
10
0.21506674666386583
20
-0.4728830566667731
11
0.21651213508022096
21
-0.4704228418234975
0
LINE
8
Polygon
10
0.21651213508022096
20
-0.4704228418234975
11
0.21791602758853906
21
-0.4679387140944354
0
LINE
8
Polygon
10
-0.23362430062909534
20
-0.8494286626793437
11
-0.23364938785398745
21
-0.8487544191308481
0
LINE
8
Polygon
10
-0.23364938785398745
20
-0.8487544191308481
11
-0.23367826565850414
21
-0.8480803272944141
0
LINE
8
Polygon
10
-0.23367826565850414
20
-0.8480803272944141
11
-0.23371093312971822
21
-0.8474064084804126
0
LINE
8
Polygon
10
-0.23371093312971822
20
-0.8474064084804126
11
-0.23374738923489818
21
-0.8467326839937448
0
LINE
8
Polygon
10
-0.23374738923489818
20
-0.8467326839937448
11
-0.23378763282154058
21
-0.8460591751331684
0
LINE
8
Polygon
10
-0.23378763282154058
20
-0.8460591751331684
11
-0.23383166261740665
21
-0.8453859031906247
0
LINE
8
Polygon
10
-0.23383166261740665
20
-0.8453859031906247
11
-0.23387947723056252
21
-0.8447128894505647
0
LINE
8
Polygon
10
-0.23387947723056252
20
-0.8447128894505647
11
-0.23393107514942313
21
-0.8440401551892772
0
LINE
8
Polygon
10
-0.23393107514942313
20
-0.8440401551892772
11
-0.23398645474280008
21
-0.8433677216742157
0
LINE
8
Polygon
10
-0.23398645474280008
20
-0.8433677216742157
11
-0.23404561425995313
21
-0.8426956101633256
0
LINE
8
Polygon
10
-0.23404561425995313
20
-0.8426956101633256
11
-0.23410855183064566
21
-0.8420238419043731
0
LINE
8
Polygon
10
-0.23410855183064566
20
-0.8420238419043731
11
-0.23417526546520367
21
-0.8413524381342729
0
LINE
8
Polygon
10
-0.23417526546520367
20
-0.8413524381342729
11
-0.23424575305457884
21
-0.8406814200784168
0
LINE
8
Polygon
10
-0.23424575305457884
20
-0.8406814200784168
11
-0.23432001237041494
21
-0.8400108089500032
0
LINE
8
Polygon
10
-0.23432001237041494
20
-0.8400108089500032
11
-0.23439804106511858
21
-0.8393406259493656
0
LINE
8
Polygon
10
-0.23439804106511858
20
-0.8393406259493656
11
-0.23447983667193328
21
-0.8386708922633034
0
LINE
8
Polygon
10
-0.23447983667193328
20
-0.8386708922633034
11
-0.23456539660501735
21
-0.8380016290644112
0
LINE
8
Polygon
10
-0.23456539660501735
20
-0.8380016290644112
11
-0.23465471815952585
21
-0.8373328575104102
0
LINE
8
Polygon
10
-0.23465471815952585
20
-0.8373328575104102
11
-0.23474779851169597
21
-0.8366645987434789
0
LINE
8
Polygon
10
-0.23474779851169597
20
-0.8366645987434789
11
-0.23484463471893632
21
-0.8359968738895848
0
LINE
8
Polygon
10
-0.23484463471893632
20
-0.8359968738895848
11
-0.23494522371991994
21
-0.8353297040578164
0
LINE
8
Polygon
10
-0.23494522371991994
20
-0.8353297040578164
11
-0.23504956233468116
21
-0.8346631103397163
0
LINE
8
Polygon
10
-0.23504956233468116
20
-0.8346631103397163
11
-0.23515764726471594
21
-0.8339971138086142
0
LINE
8
Polygon
10
-0.23515764726471594
20
-0.8339971138086142
11
-0.23526947509308646
21
-0.8333317355189603
0
LINE
8
Polygon
10
-0.23526947509308646
20
-0.8333317355189603
11
-0.23538504228452878
21
-0.8326669965056606
0
LINE
8
Polygon
10
-0.23538504228452878
20
-0.8326669965056606
11
-0.2355043451855649
21
-0.8320029177834106
0
LINE
8
Polygon
10
-0.2355043451855649
20
-0.8320029177834106
11
-0.2356273800246181
21
-0.8313395203460325
0
LINE
8
Polygon
10
-0.2356273800246181
20
-0.8313395203460325
11
-0.2357541429121322
21
-0.8306768251658102
0
LINE
8
Polygon
10
-0.2357541429121322
20
-0.8306768251658102
11
-0.23588462984069453
21
-0.8300148531928272
0
LINE
8
Polygon
10
-0.23588462984069453
20
-0.8300148531928272
11
-0.2360188366851626
21
-0.8293536253543036
0
LINE
8
Polygon
10
-0.2360188366851626
20
-0.8293536253543036
11
-0.23615675920279464
21
-0.828693162553935
0
LINE
8
Polygon
10
-0.23615675920279464
20
-0.8286931625539349
11
-0.23629839303338349
21
-0.8280334856712314
0
LINE
8
Polygon
10
-0.23629839303338349
20
-0.8280334856712314
11
-0.23644373369939461
21
-0.8273746155608575
0
LINE
8
Polygon
10
-0.23644373369939461
20
-0.8273746155608575
11
-0.23659277660610764
21
-0.8267165730519728
0
LINE
8
Polygon
10
-0.23659277660610764
20
-0.8267165730519728
11
-0.23674551704176156
21
-0.8260593789475736
0
LINE
8
Polygon
10
-0.23674551704176156
20
-0.8260593789475736
11
-0.23690195017770366
21
-0.8254030540238354
0
LINE
8
Polygon
10
-0.23690195017770366
20
-0.8254030540238354
11
-0.23706207106854232
21
-0.8247476190294556
0
LINE
8
Polygon
10
-0.23706207106854232
20
-0.8247476190294556
11
-0.23722587465230313
21
-0.8240930946849978
0
LINE
8
Polygon
10
-0.23722587465230313
20
-0.8240930946849978
11
-0.23739335575058915
21
-0.8234395016822372
0
LINE
8
Polygon
10
-0.23739335575058912
20
-0.8234395016822372
11
-0.23756450906874438
21
-0.8227868606835058
0
LINE
8
Polygon
10
-0.23756450906874438
20
-0.8227868606835058
11
-0.23773932919602142
21
-0.8221351923210395
0
LINE
8
Polygon
10
-0.23773932919602142
20
-0.8221351923210395
11
-0.2379178106057523
21
-0.8214845171963258
0
LINE
8
Polygon
10
-0.2379178106057523
20
-0.8214845171963258
11
-0.23809994765552317
21
-0.8208348558794525
0
LINE
8
Polygon
10
-0.23809994765552317
20
-0.8208348558794525
11
-0.23828573458735294
21
-0.8201862289084576
0
LINE
8
Polygon
10
-0.23828573458735294
20
-0.8201862289084576
11
-0.238475165527875
21
-0.8195386567886798
0
LINE
8
Polygon
10
-0.238475165527875
20
-0.8195386567886798
11
-0.2386682344885232
21
-0.81889215999211
0
LINE
8
Polygon
10
-0.2386682344885232
20
-0.81889215999211
11
-0.23886493536572084
21
-0.8182467589567448
0
LINE
8
Polygon
10
-0.23906526194107386
20
-0.81760247408594
11
-0.23918927328993644
21
-0.8171744023052306
0
LINE
8
Polygon
10
-0.23918927328993644
20
-0.8171744023052306
11
-0.23929408822191978
21
-0.8167412301753334
0
LINE
8
Polygon
10
-0.23929408822191978
20
-0.8167412301753334
11
-0.23937949854913662
21
-0.8163038180812034
0
LINE
8
Polygon
10
-0.23937949854913662
20
-0.8163038180812034
11
-0.23944533462595308
21
-0.8158630348293939
0
LINE
8
Polygon
10
-0.23944533462595308
20
-0.8158630348293939
11
-0.23949146568594604
21
-0.8154197559223948
0
LINE
8
Polygon
10
-0.23949146568594604
20
-0.8154197559223948
11
-0.23951780010163712
21
-0.814974861819673
0
LINE
8
Polygon
10
-0.23951780010163712
20
-0.814974861819673
11
-0.23952428556648692
21
-0.8145292361888662
0
LINE
8
Polygon
10
-0.23952428556648692
20
-0.8145292361888662
11
-0.2395109091987886
21
-0.8140837641506038
0
LINE
8
Polygon
10
-0.2395109091987886
20
-0.8140837641506038
11
-0.2394776975672541
21
-0.8136393305204438
0
LINE
8
Polygon
10
-0.2394776975672541
20
-0.8136393305204438
11
-0.2394247166382421
21
-0.8131968180514134
0
LINE
8
Polygon
10
-0.2394247166382421
20
-0.8131968180514134
11
-0.23935207164473302
21
-0.8127571056806476
0
LINE
8
Polygon
10
-0.23935207164473302
20
-0.8127571056806476
11
-0.23925990687731055
21
-0.812321066783607
0
LINE
8
Polygon
10
-0.23925990687731055
20
-0.812321066783607
11
-0.23914840539756577
21
-0.811889567439342
0
LINE
8
Polygon
10
-0.23914840539756577
20
-0.811889567439342
11
-0.23901778867449225
21
-0.8114634647102498
0
LINE
8
Polygon
10
-0.23901778867449225
20
-0.8114634647102498
11
-0.23886831614459497
21
-0.8110436049397399
0
LINE
8
Polygon
10
-0.23886831614459497
20
-0.8110436049397399
11
-0.23870028469658644
21
-0.8106308220711922
0
LINE
8
Polygon
10
-0.23870028469658644
20
-0.8106308220711922
11
-0.23851402808169372
21
-0.8102259359915412
0
LINE
8
Polygon
10
-0.23851402808169372
20
-0.8102259359915412
11
-0.23830991625074746
21
-0.8098297509027833
0
LINE
8
Polygon
10
-0.23830991625074746
20
-0.8098297509027833
11
-0.23808835461936978
21
-0.8094430537246352
0
LINE
8
Polygon
10
-0.23808835461936978
20
-0.8094430537246352
11
-0.23784978326272047
21
-0.8090666125315215
0
LINE
8
Polygon
10
-0.2378497832627205
20
-0.8090666125315215
11
-0.23759467604140105
21
-0.8087011750269916
0
LINE
8
Polygon
10
-0.23759467604140105
20
-0.8087011750269916
11
-0.23732353966025246
21
-0.8083474670585995
0
LINE
8
Polygon
10
-0.23732353966025246
20
-0.8083474670585995
11
-0.23703691266191643
21
-0.8080061911761945
0
LINE
8
Polygon
10
-0.23703691266191643
20
-0.8080061911761945
11
-0.2367353643571591
21
-0.8076780252364867
0
LINE
8
Polygon
10
-0.2367353643571591
20
-0.8076780252364867
11
-0.23641949369408163
21
-0.8073636210566585
0
LINE
8
Polygon
10
-0.23641949369408163
20
-0.8073636210566585
11
-0.23608992806846404
21
-0.8070636031196986
0
LINE
8
Polygon
10
-0.23608992806846407
20
-0.8070636031196986
11
-0.2357473220776049
21
-0.8067785673340263
0
LINE
8
Polygon
10
-0.2357473220776049
20
-0.8067785673340263
11
-0.23539235622013227
21
-0.8065090798498734
0
LINE
8
Polygon
10
-0.23539235622013227
20
-0.8065090798498734
11
-0.23502573554436829
21
-0.8062556759347719
0
LINE
8
Polygon
10
-0.23502573554436829
20
-0.8062556759347719
11
-0.2346481882479322
21
-0.8060188589103835
0
LINE
8
Polygon
10
-0.2346481882479322
20
-0.8060188589103835
11
-0.23426046423136312
21
-0.80579909915278
0
LINE
8
Polygon
10
-0.23426046423136312
20
-0.80579909915278
11
-0.23386333360863568
21
-0.8055968331581628
0
LINE
8
Polygon
10
-0.23386333360863568
20
-0.8055968331581628
11
-0.23345758517752666
21
-0.8054124626758752
0
LINE
8
Polygon
10
-0.23345758517752668
20
-0.8054124626758752
11
-0.23304402485287146
21
-0.8052463539104308
0
LINE
8
Polygon
10
-0.23304402485287146
20
-0.8052463539104308
11
-0.23262347406582146
21
-0.8050988367941424
0
LINE
8
Polygon
10
-0.23262347406582146
20
-0.8050988367941424
11
-0.23219676813228254
21
-0.8049702043317969
0
LINE
8
Polygon
10
-0.23219676813228254
20
-0.8049702043317969
11
-0.231764754593775
21
-0.8048607120186759
0
LINE
8
Polygon
10
-0.231764754593775
20
-0.8048607120186759
11
-0.23132829153401047
21
-0.8047705773330806
0
LINE
8
Polygon
10
-0.23132829153401047
20
-0.8047705773330806
11
-0.2308882458745294
21
-0.8046999793043669
0
LINE
8
Polygon
10
-0.2308882458745294
20
-0.8046999793043669
11
-0.2304454916527846
21
-0.8046490581573497
0
LINE
8
Polygon
10
-0.2304454916527846
20
-0.8046490581573497
11
-0.23000090828609068
21
-0.8046179150337827
0
LINE
8
Polygon
10
-0.2300009082860907
20
-0.8046179150337827
11
-0.22955537882488805
21
-0.8046066117914658
0
LINE
8
Polygon
10
-0.22955537882488805
20
-0.8046066117914658
11
-0.22910978819879027
21
-0.8046151708813809
0
LINE
8
Polygon
10
-0.22910978819879027
20
-0.8046151708813809
11
-0.22866502145889928
21
-0.8046435753030986
0
LINE
8
Polygon
10
-0.22866502145889928
20
-0.8046435753030986
11
-0.22822196201987904
21
-0.8046917686385454
0
LINE
8
Polygon
10
-0.22822196201987904
20
-0.8046917686385454
11
-0.22778148990527985
21
-0.8047596551640633
0
LINE
8
Polygon
10
-0.22778148990527985
20
-0.8047596551640633
11
-0.22734447999959778
21
-0.8048471000405408
0
LINE
8
Polygon
10
-0.22691180031054198
20
-0.8049539295812352
11
-0.2219431964692106
21
-0.8060310620124251
0
LINE
8
Polygon
10
-0.2219431964692106
20
-0.8060310620124251
11
-0.2168908959886339
21
-0.8065980701784853
0
LINE
8
Polygon
10
-0.2168908959886339
20
-0.8065980701784853
11
-0.21180713407482085
21
-0.806649091841317
0
LINE
8
Polygon
10
-0.21180713407482085
20
-0.806649091841317
11
-0.20674447121024653
21
-0.8061835994932869
0
LINE
8
Polygon
10
-0.20674447121024653
20
-0.8061835994932869
11
-0.20175524973652376
21
-0.8052064058110735
0
LINE
8
Polygon
10
-0.20175524973652376
20
-0.8052064058110735
11
-0.19689105269240997
21
-0.8037276138979061
0
LINE
8
Polygon
10
-0.19689105269240997
20
-0.8037276138979061
11
-0.1922021705021672
21
-0.8017625128286382
0
LINE
8
Polygon
10
-0.1922021705021672
20
-0.8017625128286382
11
-0.18773708102812775
21
-0.7993314195776015
0
LINE
8
Polygon
10
-0.18773708102812775
20
-0.7993314195776015
11
-0.18354194836314824
21
-0.7964594689635351
0
LINE
8
Polygon
10
-0.18354194836314824
20
-0.7964594689635351
11
-0.1796601455448839
21
-0.7931763537833245
0
LINE
8
Polygon
10
-0.1796601455448839
20
-0.7931763537833245
11
-0.17613180612649093
21
-0.789516017821281
0
LINE
8
Polygon
10
-0.17613180612649093
20
-0.789516017821281
11
-0.1729934092400197
21
-0.7855163049079081
0
LINE
8
Polygon
10
-0.1729934092400197
20
-0.7855163049079081
11
-0.17027740244248568
21
-0.7812185676564974
0
LINE
8
Polygon
10
-0.17027740244248568
20
-0.7812185676564974
11
-0.16801186624397252
21
-0.7766672399227871
0
LINE
8
Polygon
10
-0.16801186624397252
20
-0.7766672399227871
11
-0.1662202237861768
21
-0.7719093774079767
0
LINE
8
Polygon
10
-0.1662202237861768
20
-0.7719093774079767
11
-0.16492099867299675
21
-0.7669941711547563
0
LINE
8
Polygon
10
-0.16492099867299675
20
-0.7669941711547563
11
-0.16412762345693
21
-0.7619724389662634
0
LINE
8
Polygon
10
-0.16412762345693
20
-0.7619724389662634
11
-0.16384830076131873
21
-0.7568961000061337
0
LINE
8
Polygon
10
-0.16384830076131873
20
-0.7568961000061337
11
-0.16408591847428522
21
-0.7518176380117009
0
LINE
8
Polygon
10
-0.16408591847428522
20
-0.7518176380117009
11
-0.16483801989115882
21
-0.7467895586701281
0
LINE
8
Polygon
10
-0.16483801989115882
20
-0.7467895586701281
11
-0.16609682911408846
21
-0.7418638467676026
0
LINE
8
Polygon
10
-0.16609682911408846
20
-0.7418638467676026
11
-0.16784933144623682
21
-0.7370914287240707
0
LINE
8
Polygon
10
-0.16784933144623682
20
-0.7370914287240707
11
-0.17007740794936915
21
-0.7325216460703109
0
LINE
8
Polygon
10
-0.17007740794936915
20
-0.7325216460703109
11
-0.17275802277365981
21
-0.7282017453110101
0
LINE
8
Polygon
10
-0.17275802277365981
20
-0.7282017453110101
11
-0.17586346132293312
21
-0.7241763894480955
0
LINE
8
Polygon
10
-0.17586346132293312
20
-0.7241763894480955
11
-0.17936161679297322
21
-0.7204871962146306
0
LINE
8
Polygon
10
-0.17936161679297322
20
-0.7204871962146306
11
-0.1832163221204134
21
-0.7171723077934288
0
LINE
8
Polygon
10
-0.1832163221204134
20
-0.7171723077934288
11
-0.18738772391021974
21
-0.7142659964690151
0
LINE
8
Polygon
10
-0.18738772391021974
20
-0.7142659964690151
11
-0.19183269447577223
21
-0.711798310290064
0
LINE
8
Polygon
10
-0.19183269447577223
20
-0.711798310290064
11
-0.1965052777315039
21
-0.7097947624057672
0
LINE
8
Polygon
10
-0.1965052777315039
20
-0.7097947624057672
11
-0.20135716432806086
21
-0.7082760672880543
0
LINE
8
Polygon
10
-0.20135716432806086
20
-0.7082760672880543
11
-0.20633819111761031
21
-0.707257926566835
0
LINE
8
Polygon
10
-0.20633819111761031
20
-0.707257926566835
11
-0.21139685978537695
21
-0.7067508666924903
0
LINE
8
Polygon
10
-0.21139685978537695
20
-0.7067508666924903
11
-0.21648086928533083
21
-0.7067601301040037
0
LINE
8
Polygon
10
-0.21648086928533083
20
-0.7067601301040037
11
-0.22153765657522967
21
-0.7072856210279329
0
LINE
8
Polygon
10
-0.22153765657522967
20
-0.7072856210279329
11
-0.22651494006041242
21
-0.7083219064686013
0
LINE
8
Polygon
10
-0.22651494006041242
20
-0.7083219064686013
11
-0.23136126012773597
21
-0.709858272379272
0
LINE
8
Polygon
10
-0.23136126012773597
20
-0.709858272379272
11
-0.23602651118113074
21
-0.7118788344335563
0
LINE
8
Polygon
10
-0.23602651118113074
20
-0.7118788344335563
11
-0.2404624596781156
21
-0.714362702251801
0
LINE
8
Polygon
10
-0.2404624596781156
20
-0.714362702251801
11
-0.2446232428113465
21
-0.717284195384539
0
LINE
8
Polygon
10
-0.2446232428113465
20
-0.717284195384539
11
-0.24846584267938265
21
-0.7206131088199685
0
LINE
8
Polygon
10
-0.24846584267938265
20
-0.7206131088199685
11
-0.2519505310442682
21
-0.7243150252704095
0
LINE
8
Polygon
10
-0.2519505310442682
20
-0.7243150252704095
11
-0.2550412800776274
21
-0.72835167100904
0
LINE
8
Polygon
10
-0.2550412800776274
20
-0.72835167100904
11
-0.25770613484861243
21
-0.7326813115779524
0
LINE
8
Polygon
10
-0.25770613484861243
20
-0.7326813115779524
11
-0.2599175437025897
21
-0.7372591832763473
0
LINE
8
Polygon
10
-0.2599175437025897
20
-0.7372591832763473
11
-0.26165264311481395
21
-0.7420379559677518
0
LINE
8
Polygon
10
-0.26165264311481395
20
-0.7420379559677518
11
-0.26289349407401874
21
-0.7469682224213479
0
LINE
8
Polygon
10
-0.26362726755197613
20
-0.7519990091281623
11
-0.26367896423988885
21
-0.7524416734666235
0
LINE
8
Polygon
10
-0.26367896423988885
20
-0.7524416734666235
11
-0.26375033303443296
21
-0.7528815947769185
0
LINE
8
Polygon
10
-0.26375033303443296
20
-0.7528815947769185
11
-0.26384123217986555
21
-0.7533178992685824
0
LINE
8
Polygon
10
-0.26384123217986555
20
-0.7533178992685824
11
-0.2639514811284279
21
-0.7537497203350292
0
LINE
8
Polygon
10
-0.2639514811284279
20
-0.7537497203350292
11
-0.2640808608989574
21
-0.7541762002748437
0
LINE
8
Polygon
10
-0.2640808608989574
20
-0.7541762002748437
11
-0.26422911451183684
21
-0.7545964919953837
0
LINE
8
Polygon
10
-0.26422911451183684
20
-0.7545964919953837
11
-0.2643959474994187
21
-0.7550097606953127
0
LINE
8
Polygon
10
-0.2643959474994187
20
-0.7550097606953127
11
-0.2645810284909091
21
-0.7554151855227164
0
LINE
8
Polygon
10
-0.2645810284909091
20
-0.7554151855227164
11
-0.26478398987055074
21
-0.755811961205515
0
LINE
8
Polygon
10
-0.26478398987055074
20
-0.755811961205515
11
-0.265004428507797
21
-0.7561992996509286
0
LINE
8
Polygon
10
-0.265004428507797
20
-0.7561992996509286
11
-0.2652419065580268
21
-0.7565764315108203
0
LINE
8
Polygon
10
-0.2652419065580268
20
-0.7565764315108203
11
-0.26549595233221057
21
-0.756942607709809
0
LINE
8
Polygon
10
-0.26549595233221057
20
-0.756942607709809
11
-0.26576606123379887
21
-0.757297100933114
0
LINE
8
Polygon
10
-0.26576606123379887
20
-0.757297100933114
11
-0.2660516967609737
21
-0.7576392070711793
0
LINE
8
Polygon
10
-0.2660516967609737
20
-0.7576392070711793
11
-0.26635229157227114
21
-0.7579682466182058
0
LINE
8
Polygon
10
-0.26635229157227114
20
-0.7579682466182058
11
-0.2666672486134595
21
-0.7582835660218147
0
LINE
8
Polygon
10
-0.2666672486134595
20
-0.7582835660218147
11
-0.2669959423034335
21
-0.7585845389811611
0
LINE
8
Polygon
10
-0.2669959423034335
20
-0.7585845389811611
11
-0.26733771977677023
21
-0.7588705676909192
0
LINE
8
Polygon
10
-0.26733771977677023
20
-0.7588705676909192
11
-0.2676919021804786
21
-0.7591410840286693
0
LINE
8
Polygon
10
-0.2676919021804786
20
-0.7591410840286693
11
-0.2680577860223657
21
-0.7593955506833264
0
LINE
8
Polygon
10
-0.2680577860223657
20
-0.7593955506833264
11
-0.2684346445683431
21
-0.7596334622223702
0
LINE
8
Polygon
10
-0.2684346445683431
20
-0.7596334622223702
11
-0.26882172928589726
21
-0.7598543460957571
0
LINE
8
Polygon
10
-0.26882172928589726
20
-0.7598543460957571
11
-0.2692182713308565
21
-0.7600577635745192
0
LINE
8
Polygon
10
-0.2692182713308565
20
-0.7600577635745192
11
-0.2696234830745023
21
-0.7602433106221862
0
LINE
8
Polygon
10
-0.2696234830745023
20
-0.7602433106221862
11
-0.2700365596679907
21
-0.7604106186973002
0
LINE
8
Polygon
10
-0.2700365596679907
20
-0.7604106186973002
11
-0.270456680640978
21
-0.7605593554854282
0
LINE
8
Polygon
10
-0.270456680640978
20
-0.7605593554854282
11
-0.27088301153127314
21
-0.7606892255592194
0
LINE
8
Polygon
10
-0.27088301153127314
20
-0.7606892255592194
11
-0.2713147055422828
21
-0.7607999709651954
0
LINE
8
Polygon
10
-0.2713147055422828
20
-0.7607999709651954
11
-0.2717509052249545
21
-0.7608913717361085
0
LINE
8
Polygon
10
-0.2717509052249545
20
-0.7608913717361085
11
-0.2721907441808785
21
-0.7609632463278504
0
LINE
8
Polygon
10
-0.2721907441808785
20
-0.7609632463278504
11
-0.27263334878316553
21
-0.761015451980042
0
LINE
8
Polygon
10
-0.27263334878316553
20
-0.761015451980042
11
-0.27307783991168144
21
-0.7610478849995906
0
LINE
8
Polygon
10
-0.27307783991168144
20
-0.7610478849995906
11
-0.27352333469919327
21
-0.7610604809666502
0
LINE
8
Polygon
10
-0.27352333469919327
20
-0.7610604809666502
11
-0.2739689482849578
21
-0.7610532148625737
0
LINE
8
Polygon
10
-0.2739689482849578
20
-0.7610532148625737
11
-0.2744137955722697
21
-0.7610261011196069
0
LINE
8
Polygon
10
-0.2744137955722697
20
-0.7610261011196069
11
-0.27485699298647814
21
-0.7609791935922222
0
LINE
8
Polygon
10
-0.27485699298647814
20
-0.7609791935922222
11
-0.27529766022998076
21
-0.7609125854501507
0
LINE
8
Polygon
10
-0.27529766022998076
20
-0.7609125854501507
11
-0.275734922030708
21
-0.7608264089933244
0
LINE
8
Polygon
10
-0.275734922030708
20
-0.7608264089933244
11
-0.2761679098806261
21
-0.7607208353890965
0
LINE
8
Polygon
10
-0.2761679098806261
20
-0.7607208353890965
11
-0.27659576376080464
21
-0.7605960743322615
0
LINE
8
Polygon
10
-0.27659576376080464
20
-0.7605960743322615
11
-0.27701763384962264
21
-0.7604523736285503
0
LINE
8
Polygon
10
-0.27701763384962264
20
-0.7604523736285503
11
-0.2774326822107208
21
-0.7602900187024283
0
LINE
8
Polygon
10
-0.2774326822107208
20
-0.7602900187024283
11
-0.27784008445734637
21
-0.7601093320301726
0
LINE
8
Polygon
10
-0.27784008445734637
20
-0.7601093320301726
11
-0.27823903138978506
21
-0.7599106724993563
0
LINE
8
Polygon
10
-0.27823903138978506
20
-0.7599106724993563
11
-0.27862873060262816
21
-0.7596944346960104
0
LINE
8
Polygon
10
-0.27862873060262816
20
-0.7596944346960104
11
-0.2790084080586821
21
-0.7594610481208807
0
LINE
8
Polygon
10
-0.2790084080586821
20
-0.7594610481208807
11
-0.2793773096263939
21
-0.7592109763363343
0
LINE
8
Polygon
10
-0.27973470257773936
20
-0.7589447160456131
11
-0.2802678125503338
21
-0.7585311613471014
0
LINE
8
Polygon
10
-0.2802678125503338
20
-0.7585311613471014
11
-0.2808032393331477
21
-0.758120610629423
0
LINE
8
Polygon
10
-0.2808032393331477
20
-0.758120610629423
11
-0.2813409659994913
21
-0.7577130768715039
0
LINE
8
Polygon
10
-0.2813409659994913
20
-0.7577130768715039
11
-0.2818809755499677
21
-0.7573085729568937
0
LINE
8
Polygon
10
-0.2818809755499677
20
-0.7573085729568937
11
-0.28242325091301
21
-0.756907111673358
0
LINE
8
Polygon
10
-0.28242325091301
20
-0.756907111673358
11
-0.28296777494542114
21
-0.7565087057124746
0
LINE
8
Polygon
10
-0.28296777494542114
20
-0.7565087057124746
11
-0.28351453043291597
21
-0.7561133676692318
0
LINE
8
Polygon
10
-0.28351453043291597
20
-0.7561133676692318
11
-0.2840635000906651
21
-0.7557211100416305
0
LINE
8
Polygon
10
-0.2840635000906651
20
-0.7557211100416305
11
-0.28461466656384193
21
-0.7553319452302889
0
LINE
8
Polygon
10
-0.28461466656384193
20
-0.7553319452302889
11
-0.2851680124281707
21
-0.7549458855380508
0
LINE
8
Polygon
10
-0.2851680124281707
20
-0.7549458855380508
11
-0.2857235201904776
21
-0.7545629431695963
0
LINE
8
Polygon
10
-0.2857235201904776
20
-0.7545629431695963
11
-0.28628117228924366
21
-0.7541831302310562
0
LINE
8
Polygon
10
-0.28628117228924366
20
-0.7541831302310562
11
-0.28684095109516033
21
-0.7538064587296293
0
LINE
8
Polygon
10
-0.28684095109516033
20
-0.7538064587296293
11
-0.2874028389116862
21
-0.7534329405732024
0
LINE
8
Polygon
10
-0.2874028389116862
20
-0.7534329405732024
11
-0.28796681797560697
21
-0.7530625875699747
0
LINE
8
Polygon
10
-0.28796681797560697
20
-0.7530625875699747
11
-0.2885328704575965
21
-0.7526954114280834
0
LINE
8
Polygon
10
-0.2885328704575965
20
-0.7526954114280834
11
-0.2891009784627811
21
-0.7523314237552345
0
LINE
8
Polygon
10
-0.2891009784627811
20
-0.7523314237552345
11
-0.2896711240313047
21
-0.7519706360583356
0
LINE
8
Polygon
10
-0.2896711240313046
20
-0.7519706360583356
11
-0.2902432891388967
21
-0.7516130597431315
0
LINE
8
Polygon
10
-0.2902432891388967
20
-0.7516130597431315
11
-0.2908174556974421
21
-0.7512587061138446
0
LINE
8
Polygon
10
-0.2908174556974421
20
-0.7512587061138446
11
-0.29139360555555316
21
-0.750907586372817
0
LINE
8
Polygon
10
-0.29139360555555316
20
-0.750907586372817
11
-0.291971720499143
21
-0.7505597116201561
0
LINE
8
Polygon
10
-0.291971720499143
20
-0.7505597116201561
11
-0.2925517822520017
21
-0.7502150928533844
0
LINE
8
Polygon
10
-0.2925517822520016
20
-0.7502150928533844
11
-0.29313377247637384
21
-0.7498737409670913
0
LINE
8
Polygon
10
-0.29313377247637384
20
-0.7498737409670913
11
-0.2937176727735387
21
-0.7495356667525886
0
LINE
8
Polygon
10
-0.29371767277353866
20
-0.7495356667525888
11
-0.29430346468439117
21
-0.7492008808975702
0
LINE
8
Polygon
10
-0.29430346468439117
20
-0.7492008808975702
11
-0.294891129690026
21
-0.7488693939857728
0
LINE
8
Polygon
10
-0.294891129690026
20
-0.7488693939857728
11
-0.2954806492123227
21
-0.7485412164966426
0
LINE
8
Polygon
10
-0.2954806492123227
20
-0.7485412164966426
11
-0.2960720046145333
21
-0.7482163588050036
0
LINE
8
Polygon
10
-0.2960720046145333
20
-0.7482163588050036
11
-0.2966651772018712
21
-0.7478948311807291
0
LINE
8
Polygon
10
-0.2966651772018712
20
-0.7478948311807291
11
-0.29726014822210234
21
-0.7475766437884179
0
LINE
8
Polygon
10
-0.29726014822210234
20
-0.7475766437884179
11
-0.29785689886613803
21
-0.7472618066870722
0
LINE
8
Polygon
10
-0.297856898866138
20
-0.7472618066870722
11
-0.29845541026862943
21
-0.7469503298297803
0
LINE
8
Polygon
10
-0.29845541026862943
20
-0.7469503298297803
11
-0.2990556635085641
21
-0.7466422230634011
0
LINE
8
Polygon
10
-0.2990556635085641
20
-0.7466422230634011
11
-0.2996576396098642
21
-0.7463374961282538
0
LINE
8
Polygon
10
-0.2996576396098642
20
-0.7463374961282538
11
-0.3002613195419861
21
-0.7460361586578091
0
LINE
8
Polygon
10
-0.3002613195419861
20
-0.7460361586578091
11
-0.3008666842205223
21
-0.7457382201783852
0
LINE
8
Polygon
10
-0.3008666842205223
20
-0.7457382201783852
11
-0.3014737145078047
21
-0.7454436901088464
0
LINE
8
Polygon
10
-0.3014737145078047
20
-0.7454436901088464
11
-0.30208239121350944
21
-0.7451525777603052
0
LINE
8
Polygon
10
-0.30208239121350944
20
-0.7451525777603052
11
-0.30269269509526375
21
-0.7448648923358284
0
LINE
8
Polygon
10
-0.3026926950952637
20
-0.7448648923358285
11
-0.30330460685925414
21
-0.744580642930146
0
LINE
8
Polygon
10
-0.30330460685925414
20
-0.744580642930146
11
-0.3039181071608366
21
-0.7442998385293632
0
LINE
8
Polygon
10
-0.3039181071608366
20
-0.7442998385293632
11
-0.3045331766051477
21
-0.7440224880106769
0
LINE
8
Polygon
10
-0.30453317660514767
20
-0.7440224880106769
11
-0.30514979574771817
21
-0.743748600142095
0
LINE
8
Polygon
10
-0.30514979574771817
20
-0.743748600142095
11
-0.3057679450950873
21
-0.7434781835821587
0
LINE
8
Polygon
10
-0.3057679450950873
20
-0.7434781835821587
11
-0.3063876051054195
21
-0.7432112468796694
0
LINE
8
Polygon
10
-0.3063876051054195
20
-0.7432112468796694
11
-0.30700875618912177
21
-0.7429477984734183
0
LINE
8
Polygon
10
-0.23362430062909534
20
-0.8494286626793437
11
0.8693034229353223
21
-0.8114956076566446
0
LINE
8
Polygon
10
0.8693034229353223
20
-0.8114956076566446
11
0.21927802867952287
21
-0.4654313733163667
0
LINE
8
Polygon
10
-0.08784049541554437
20
-0.45059828689978515
11
-0.20710678118654746
21
-0.5
0
LINE
8
Polygon
10
-0.20710678118654746
20
-0.5
11
-0.3076313787094631
21
-0.7426878466919193
0
LINE
8
Polygon
10
-0.9737947291879736
20
-1.0431641075223868
11
1.0431641075223865
21
-0.9737947291879736
0
LINE
8
Polygon
10
1.0431641075223865
20
-0.9737947291879736
11
0.9737947291879736
21
1.0431641075223868
0
LINE
8
Polygon
10
0.9737947291879736
20
1.0431641075223868
11
-1.0431641075223865
21
0.9737947291879736
0
ENDSEC
0
EOF
