0
SECTION
2
ENTITIES
0
LINE
8
Polygon
10
0.7426878466919193
20
-0.3076313787094631
11
0.7420327664612032
21
-0.30924593757243957
0
LINE
8
Polygon
10
0.7420327664612032
20
-0.30924593757243957
11
0.7414011979566295
21
-0.3108698377093696
0
LINE
8
Polygon
10
0.7414011979566295
20
-0.3108698377093696
11
0.7407932743308403
21
-0.31250273675581985
0
LINE
8
Polygon
10
0.7407932743308403
20
-0.3125027367558198
11
0.7402091237514627
21
-0.3141442904501301
0
LINE
8
Polygon
10
0.7402091237514627
20
-0.3141442904501301
11
0.7396488693740886
21
-0.3157941527059939
0
LINE
8
Polygon
10
0.7396488693740886
20
-0.3157941527059939
11
0.739112629316309
21
-0.31745197568542316
0
LINE
8
Polygon
10
0.739112629316309
20
-0.31745197568542316
11
0.7386005166328125
21
-0.3191174098720822
0
LINE
8
Polygon
10
0.7386005166328125
20
-0.3191174098720822
11
0.7381126392915485
21
-0.3207901041449761
0
LINE
8
Polygon
10
0.7381126392915485
20
-0.3207901041449761
11
0.7376491001509664
21
-0.32246970585247686
0
LINE
8
Polygon
10
0.7376491001509664
20
-0.3224697058524768
11
0.7372099969383289
21
-0.32415586088667214
0
LINE
8
Polygon
10
0.7372099969383289
20
-0.32415586088667214
11
0.7367954222291084
21
-0.32584821375802187
0
LINE
8
Polygon
10
0.7367954222291084
20
-0.32584821375802187
11
0.7364054634274702
21
-0.3275464076703051
0
LINE
8
Polygon
10
0.7364054634274702
20
-0.3275464076703051
11
0.7360402027478441
21
-0.32925008459584293
0
LINE
8
Polygon
10
0.7360402027478441
20
-0.32925008459584293
11
0.7356997171975921
21
-0.330958885350981
0
LINE
8
Polygon
10
0.7356997171975921
20
-0.33095888535098095
11
0.7353840785607728
21
-0.33267244967181564
0
LINE
8
Polygon
10
0.7353840785607728
20
-0.33267244967181564
11
0.7350933533830072
21
-0.33439041629014793
0
LINE
8
Polygon
10
0.7350933533830072
20
-0.33439041629014793
11
0.7348276029574491
21
-0.33611242300964894
0
LINE
8
Polygon
10
0.7348276029574491
20
-0.33611242300964894
11
0.7345868833118625
21
-0.3378381067822213
0
LINE
8
Polygon
10
0.7345868833118625
20
-0.3378381067822213
11
0.73437124519681
21
-0.33956710378454014
0
LINE
8
Polygon
10
0.73437124519681
20
-0.33956710378454014
11
0.7341807340749521
21
-0.3412990494947572
0
LINE
8
Polygon
10
0.7341807340749521
20
-0.34129904949475715
11
0.7340153901114634
21
-0.34303357876935264
0
LINE
8
Polygon
10
0.7340153901114634
20
-0.34303357876935264
11
0.7338752481655642
21
-0.3447703259201177
0
LINE
8
Polygon
10
0.7338752481655642
20
-0.3447703259201177
11
0.7337603377831706
21
-0.3465089247912519
0
LINE
8
Polygon
10
0.7337603377831706
20
-0.3465089247912519
11
0.733670683190667
21
-0.34824900883655946
0
LINE
8
Polygon
10
0.733670683190667
20
-0.3482490088365594
11
0.7336063032897964
21
-0.34999021119672746
0
LINE
8
Polygon
10
0.7336063032897964
20
-0.34999021119672746
11
0.733567211653677
21
-0.3517321647766705
0
LINE
8
Polygon
10
0.733567211653677
20
-0.3517321647766705
11
0.7335534165239399
21
-0.3534745023229245
0
LINE
8
Polygon
10
0.7335534165239399
20
-0.3534745023229245
11
0.7335649208089916
21
-0.3552168565010744
0
LINE
8
Polygon
10
0.7335649208089916
20
-0.3552168565010744
11
0.733601722083401
21
-0.3569588599731986
0
LINE
8
Polygon
10
0.733601722083401
20
-0.3569588599731986
11
0.7336638125884105
21
-0.35870014547531437
0
LINE
8
Polygon
10
0.7336638125884105
20
-0.3587001454753143
11
0.7337511792335718
21
-0.36044034589480745
0
LINE
8
Polygon
10
0.7337511792335718
20
-0.36044034589480745
11
0.7338638035995062
21
-0.36217909434783013
0
LINE
8
Polygon
10
0.7338638035995062
20
-0.36217909434783013
11
0.7340016619417873
21
-0.3639160242566504
0
LINE
8
Polygon
10
0.7340016619417873
20
-0.3639160242566504
11
0.734164725195947
21
-0.36565076942693736
0
LINE
8
Polygon
10
0.734164725195947
20
-0.36565076942693736
11
0.734352958983604
21
-0.367382964124965
0
LINE
8
Polygon
10
0.734352958983604
20
-0.36738296412496496
11
0.7345663236197106
21
-0.36911224315471985
0
LINE
8
Polygon
10
0.7345663236197106
20
-0.36911224315471985
11
0.7348047741209203
21
-0.37083824193489434
0
LINE
8
Polygon
10
0.7348047741209203
20
-0.37083824193489434
11
0.735068260215071
21
-0.37256059657575086
0
LINE
8
Polygon
10
0.735068260215071
20
-0.37256059657575086
11
0.7353567263517842
21
-0.37427894395584044
0
LINE
8
Polygon
10
0.7353567263517842
20
-0.37427894395584044
11
0.7356701117141764
21
-0.37599292179855875
0
LINE
8
Polygon
10
0.7356701117141764
20
-0.37599292179855875
11
0.7360083502316809
21
-0.3777021687485245
0
LINE
8
Polygon
10
0.7360083502316809
20
-0.37770216874852447
11
0.7363713705939778
21
-0.37940632444776345
0
LINE
8
Polygon
10
0.7363713705939778
20
-0.37940632444776345
11
0.7367590962660279
21
-0.3811050296116822
0
LINE
8
Polygon
10
0.7367590962660279
20
-0.3811050296116822
11
0.7371714455042085
21
-0.3827979261048154
0
LINE
8
Polygon
10
0.7371714455042085
20
-0.3827979261048154
11
0.7376083313735474
21
-0.3844846570163312
0
LINE
8
Polygon
10
0.7376083313735473
20
-0.38448465701633117
11
0.738069661766051
21
-0.38616486673527795
0
LINE
8
Polygon
10
0.738069661766051
20
-0.38616486673527795
11
0.7385553394201239
21
-0.38783820102555744
0
LINE
8
Polygon
10
0.7390652619410737
20
-0.3895043071006077
11
0.7391892732899362
21
-0.38993237888131704
0
LINE
8
Polygon
10
0.7391892732899362
20
-0.38993237888131704
11
0.7392940882219196
21
-0.3903655510112143
0
LINE
8
Polygon
10
0.7392940882219196
20
-0.3903655510112143
11
0.7393794985491364
21
-0.3908029631053442
0
LINE
8
Polygon
10
0.7393794985491364
20
-0.3908029631053442
11
0.7394453346259529
21
-0.39124374635715375
0
LINE
8
Polygon
10
0.7394453346259529
20
-0.39124374635715375
11
0.7394914656859458
21
-0.39168702526415283
0
LINE
8
Polygon
10
0.7394914656859458
20
-0.39168702526415283
11
0.7395178001016369
21
-0.3921319193668746
0
LINE
8
Polygon
10
0.7395178001016369
20
-0.3921319193668746
11
0.7395242855664866
21
-0.39257754499768155
0
LINE
8
Polygon
10
0.7395242855664866
20
-0.39257754499768155
11
0.7395109091987884
21
-0.39302301703594383
0
LINE
8
Polygon
10
0.7395109091987884
20
-0.39302301703594383
11
0.7394776975672539
21
-0.3934674506661039
0
LINE
8
Polygon
10
0.7394776975672539
20
-0.3934674506661039
11
0.7394247166382419
21
-0.3939099631351343
0
LINE
8
Polygon
10
0.7394247166382419
20
-0.3939099631351343
11
0.7393520716447328
21
-0.3943496755059001
0
LINE
8
Polygon
10
0.7393520716447328
20
-0.39434967550590005
11
0.7392599068773104
21
-0.39478571440294064
0
LINE
8
Polygon
10
0.7392599068773104
20
-0.39478571440294064
11
0.7391484053975655
21
-0.39521721374720564
0
LINE
8
Polygon
10
0.7391484053975655
20
-0.39521721374720564
11
0.739017788674492
21
-0.39564331647629797
0
LINE
8
Polygon
10
0.739017788674492
20
-0.39564331647629797
11
0.7388683161445947
21
-0.3960631762468077
0
LINE
8
Polygon
10
0.7388683161445947
20
-0.3960631762468077
11
0.7387002846965862
21
-0.3964759591153555
0
LINE
8
Polygon
10
0.7387002846965862
20
-0.3964759591153555
11
0.7385140280816935
21
-0.39688084519500644
0
LINE
8
Polygon
10
0.7385140280816935
20
-0.39688084519500644
11
0.7383099162507473
21
-0.3972770302837644
0
LINE
8
Polygon
10
0.7383099162507473
20
-0.3972770302837644
11
0.7380883546193695
21
-0.3976637274619124
0
LINE
8
Polygon
10
0.7380883546193695
20
-0.3976637274619124
11
0.7378497832627202
21
-0.39804016865502617
0
LINE
8
Polygon
10
0.7378497832627202
20
-0.39804016865502617
11
0.7375946760414008
21
-0.3984056061595561
0
LINE
8
Polygon
10
0.7375946760414008
20
-0.3984056061595561
11
0.7373235396602522
21
-0.3987593141279482
0
LINE
8
Polygon
10
0.7373235396602522
20
-0.3987593141279482
11
0.7370369126619162
21
-0.39910059001035314
0
LINE
8
Polygon
10
0.7370369126619162
20
-0.39910059001035314
11
0.7367353643571589
21
-0.39942875595006105
0
LINE
8
Polygon
10
0.7367353643571589
20
-0.39942875595006105
11
0.7364194936940814
21
-0.39974316012988914
0
LINE
8
Polygon
10
0.7364194936940814
20
-0.39974316012988914
11
0.7360899280684639
21
-0.4000431780668491
0
LINE
8
Polygon
10
0.7360899280684639
20
-0.4000431780668491
11
0.7357473220776047
21
-0.4003282138525214
0
LINE
8
Polygon
10
0.7357473220776047
20
-0.4003282138525214
11
0.735392356220132
21
-0.40059770133667433
0
LINE
8
Polygon
10
0.735392356220132
20
-0.40059770133667433
11
0.7350257355443681
21
-0.4008511052517758
0
LINE
8
Polygon
10
0.7350257355443681
20
-0.4008511052517758
11
0.734648188247932
21
-0.40108792227616424
0
LINE
8
Polygon
10
0.734648188247932
20
-0.40108792227616424
11
0.7342604642313629
21
-0.4013076820337677
0
LINE
8
Polygon
10
0.7342604642313629
20
-0.4013076820337677
11
0.7338633336086354
21
-0.4015099480283849
0
LINE
8
Polygon
10
0.7338633336086354
20
-0.4015099480283849
11
0.7334575851775265
21
-0.40169431851067255
0
LINE
8
Polygon
10
0.7334575851775265
20
-0.40169431851067255
11
0.7330440248528712
21
-0.401860427276117
0
LINE
8
Polygon
10
0.7330440248528712
20
-0.401860427276117
11
0.7326234740658212
21
-0.4020079443924053
0
LINE
8
Polygon
10
0.7326234740658212
20
-0.4020079443924053
11
0.7321967681322823
21
-0.40213657685475074
0
LINE
8
Polygon
10
0.7321967681322823
20
-0.40213657685475074
11
0.7317647545937748
21
-0.40224606916787176
0
LINE
8
Polygon
10
0.7317647545937748
20
-0.40224606916787176
11
0.7313282915340102
21
-0.40233620385346713
0
LINE
8
Polygon
10
0.7313282915340102
20
-0.40233620385346713
11
0.7308882458745292
21
-0.40240680188218086
0
LINE
8
Polygon
10
0.7308882458745292
20
-0.40240680188218086
11
0.7304454916527844
21
-0.402457723029198
0
LINE
8
Polygon
10
0.7304454916527844
20
-0.402457723029198
11
0.7300009082860904
21
-0.402488866152765
0
LINE
8
Polygon
10
0.7300009082860904
20
-0.402488866152765
11
0.7295553788248879
21
-0.4025001693950819
0
LINE
8
Polygon
10
0.7295553788248879
20
-0.4025001693950819
11
0.72910978819879
21
-0.4024916103051668
0
LINE
8
Polygon
10
0.72910978819879
20
-0.4024916103051668
11
0.728665021458899
21
-0.402463205883449
0
LINE
8
Polygon
10
0.728665021458899
20
-0.402463205883449
11
0.7282219620198789
21
-0.40241501254800227
0
LINE
8
Polygon
10
0.7282219620198789
20
-0.40241501254800227
11
0.7277814899052796
21
-0.4023471260224843
0
LINE
8
Polygon
10
0.7277814899052796
20
-0.4023471260224843
11
0.7273444799995976
21
-0.4022596811460069
0
LINE
8
Polygon
10
0.7269118003105418
20
-0.40215285160531244
11
0.7219431964692103
21
-0.40107571917412255
0
LINE
8
Polygon
10
0.7219431964692103
20
-0.40107571917412255
11
0.7168908959886338
21
-0.4005087110080624
0
LINE
8
Polygon
10
0.7168908959886338
20
-0.4005087110080624
11
0.7118071340748207
21
-0.4004576893452308
0
LINE
8
Polygon
10
0.7118071340748207
20
-0.4004576893452308
11
0.7067444712102463
21
-0.4009231816932608
0
LINE
8
Polygon
10
0.7067444712102463
20
-0.4009231816932608
11
0.7017552497365236
21
-0.4019003753754742
0
LINE
8
Polygon
10
0.7017552497365236
20
-0.4019003753754742
11
0.6968910526924098
21
-0.4033791672886415
0
LINE
8
Polygon
10
0.6968910526924098
20
-0.4033791672886415
11
0.692202170502167
21
-0.40534426835790954
0
LINE
8
Polygon
10
0.692202170502167
20
-0.40534426835790954
11
0.6877370810281276
21
-0.4077753616089463
0
LINE
8
Polygon
10
0.6877370810281276
20
-0.4077753616089463
11
0.6835419483631481
21
-0.4106473122230126
0
LINE
8
Polygon
10
0.6835419483631481
20
-0.4106473122230126
11
0.6796601455448837
21
-0.4139304274032232
0
LINE
8
Polygon
10
0.6796601455448837
20
-0.4139304274032232
11
0.6761318061264907
21
-0.4175907633652667
0
LINE
8
Polygon
10
0.6761318061264907
20
-0.4175907633652667
11
0.6729934092400195
21
-0.4215904762786396
0
LINE
8
Polygon
10
0.6729934092400195
20
-0.4215904762786396
11
0.6702774024424855
21
-0.42588821353005024
0
LINE
8
Polygon
10
0.6702774024424855
20
-0.42588821353005024
11
0.6680118662439724
21
-0.4304395412637606
0
LINE
8
Polygon
10
0.6680118662439724
20
-0.4304395412637606
11
0.6662202237861766
21
-0.43519740377857097
0
LINE
8
Polygon
10
0.6662202237861766
20
-0.43519740377857097
11
0.6649209986729966
21
-0.44011261003179136
0
LINE
8
Polygon
10
0.6649209986729966
20
-0.44011261003179136
11
0.6641276234569298
21
-0.4451343422202842
0
LINE
8
Polygon
10
0.6641276234569298
20
-0.4451343422202842
11
0.6638483007613185
21
-0.4502106811804139
0
LINE
8
Polygon
10
0.6638483007613185
20
-0.4502106811804139
11
0.664085918474285
21
-0.45528914317484676
0
LINE
8
Polygon
10
0.664085918474285
20
-0.45528914317484676
11
0.6648380198911586
21
-0.46031722251641954
0
LINE
8
Polygon
10
0.6648380198911586
20
-0.46031722251641954
11
0.6660968291140883
21
-0.46524293441894504
0
LINE
8
Polygon
10
0.6660968291140883
20
-0.46524293441894504
11
0.6678493314462366
21
-0.47001535246247694
0
LINE
8
Polygon
10
0.6678493314462366
20
-0.47001535246247694
11
0.670077407949369
21
-0.47458513511623673
0
LINE
8
Polygon
10
0.670077407949369
20
-0.47458513511623673
11
0.6727580227736596
21
-0.4789050358755375
0
LINE
8
Polygon
10
0.6727580227736596
20
-0.4789050358755375
11
0.675863461322933
21
-0.4829303917384522
0
LINE
8
Polygon
10
0.675863461322933
20
-0.4829303917384522
11
0.679361616792973
21
-0.48661958497191704
0
LINE
8
Polygon
10
0.679361616792973
20
-0.48661958497191704
11
0.6832163221204132
21
-0.48993447339311896
0
LINE
8
Polygon
10
0.6832163221204132
20
-0.48993447339311896
11
0.6873877239102195
21
-0.49284078471753257
0
LINE
8
Polygon
10
0.6873877239102195
20
-0.49284078471753257
11
0.691832694475772
21
-0.49530847089648367
0
LINE
8
Polygon
10
0.691832694475772
20
-0.49530847089648367
11
0.6965052777315037
21
-0.4973120187807805
0
LINE
8
Polygon
10
0.6965052777315037
20
-0.4973120187807805
11
0.7013571643280606
21
-0.4988307138984934
0
LINE
8
Polygon
10
0.7013571643280606
20
-0.4988307138984934
11
0.7063381911176101
21
-0.49984885461971273
0
LINE
8
Polygon
10
0.7063381911176101
20
-0.49984885461971273
11
0.7113968597853767
21
-0.5003559144940574
0
LINE
8
Polygon
10
0.7113968597853767
20
-0.5003559144940574
11
0.7164808692853306
21
-0.500346651082544
0
LINE
8
Polygon
10
0.7164808692853306
20
-0.500346651082544
11
0.7215376565752295
21
-0.4998211601586148
0
LINE
8
Polygon
10
0.7215376565752295
20
-0.4998211601586148
11
0.7265149400604122
21
-0.4987848747179464
0
LINE
8
Polygon
10
0.7265149400604122
20
-0.4987848747179464
11
0.7313612601277357
21
-0.49724850880727567
0
LINE
8
Polygon
10
0.7313612601277357
20
-0.49724850880727567
11
0.7360265111811306
21
-0.4952279467529915
0
LINE
8
Polygon
10
0.7360265111811306
20
-0.4952279467529915
11
0.7404624596781154
21
-0.4927440789347467
0
LINE
8
Polygon
10
0.7404624596781154
20
-0.4927440789347467
11
0.7446232428113463
21
-0.48982258580200866
0
LINE
8
Polygon
10
0.7446232428113463
20
-0.48982258580200866
11
0.7484658426793824
21
-0.4864936723665792
0
LINE
8
Polygon
10
0.7484658426793824
20
-0.4864936723665792
11
0.751950531044268
21
-0.4827917559161382
0
LINE
8
Polygon
10
0.751950531044268
20
-0.4827917559161382
11
0.7550412800776272
21
-0.4787551101775077
0
LINE
8
Polygon
10
0.7550412800776272
20
-0.4787551101775077
11
0.7577061348486123
21
-0.4744254696085953
0
LINE
8
Polygon
10
0.7577061348486123
20
-0.4744254696085953
11
0.7599175437025895
21
-0.46984759791020037
0
LINE
8
Polygon
10
0.7599175437025895
20
-0.46984759791020037
11
0.7616526431148138
21
-0.4650688252187959
0
LINE
8
Polygon
10
0.7616526431148138
20
-0.4650688252187959
11
0.7628934940740185
21
-0.4601385587651998
0
LINE
8
Polygon
10
0.7636272675519759
20
-0.4551077720583854
11
0.7636789642398886
21
-0.4546651077199242
0
LINE
8
Polygon
10
0.7636789642398886
20
-0.4546651077199242
11
0.7637503330344326
21
-0.45422518640962917
0
LINE
8
Polygon
10
0.7637503330344326
20
-0.45422518640962917
11
0.7638412321798652
21
-0.45378888191796535
0
LINE
8
Polygon
10
0.7638412321798652
20
-0.45378888191796535
11
0.7639514811284277
21
-0.4533570608515185
0
LINE
8
Polygon
10
0.7639514811284277
20
-0.4533570608515185
11
0.7640808608989571
21
-0.4529305809117041
0
LINE
8
Polygon
10
0.7640808608989571
20
-0.4529305809117041
11
0.7642291145118365
21
-0.45251028919116393
0
LINE
8
Polygon
10
0.7642291145118365
20
-0.45251028919116393
11
0.7643959474994184
21
-0.45209702049123507
0
LINE
8
Polygon
10
0.7643959474994184
20
-0.45209702049123507
11
0.7645810284909088
21
-0.4516915956638313
0
LINE
8
Polygon
10
0.7645810284909088
20
-0.4516915956638314
11
0.7647839898705505
21
-0.4512948199810327
0
LINE
8
Polygon
10
0.7647839898705505
20
-0.4512948199810327
11
0.7650044285077967
21
-0.4509074815356191
0
LINE
8
Polygon
10
0.7650044285077967
20
-0.4509074815356191
11
0.7652419065580266
21
-0.45053034967572736
0
LINE
8
Polygon
10
0.7652419065580266
20
-0.45053034967572736
11
0.7654959523322103
21
-0.4501641734767387
0
LINE
8
Polygon
10
0.7654959523322103
20
-0.4501641734767387
11
0.7657660612337985
21
-0.4498096802534337
0
LINE
8
Polygon
10
0.7657660612337985
20
-0.4498096802534337
11
0.7660516967609734
21
-0.44946757411536836
0
LINE
8
Polygon
10
0.7660516967609734
20
-0.44946757411536836
11
0.7663522915722708
21
-0.44913853456834185
0
LINE
8
Polygon
10
0.7663522915722708
20
-0.44913853456834185
11
0.7666672486134593
21
-0.44882321516473295
0
LINE
8
Polygon
10
0.7666672486134593
20
-0.44882321516473295
11
0.7669959423034332
21
-0.44852224220538667
0
LINE
8
Polygon
10
0.7669959423034332
20
-0.44852224220538667
11
0.76733771977677
21
-0.4482362134956285
0
LINE
8
Polygon
10
0.76733771977677
20
-0.4482362134956285
11
0.7676919021804783
21
-0.4479656971578784
0
LINE
8
Polygon
10
0.7676919021804783
20
-0.4479656971578784
11
0.7680577860223654
21
-0.4477112305032213
0
LINE
8
Polygon
10
0.7680577860223654
20
-0.4477112305032213
11
0.7684346445683429
21
-0.4474733189641775
0
LINE
8
Polygon
10
0.7684346445683429
20
-0.4474733189641775
11
0.768821729285897
21
-0.44725243509079055
0
LINE
8
Polygon
10
0.768821729285897
20
-0.44725243509079055
11
0.7692182713308562
21
-0.4470490176120285
0
LINE
8
Polygon
10
0.7692182713308562
20
-0.4470490176120285
11
0.769623483074502
21
-0.4468634705643615
0
LINE
8
Polygon
10
0.769623483074502
20
-0.4468634705643615
11
0.7700365596679905
21
-0.4466961624892475
0
LINE
8
Polygon
10
0.7700365596679905
20
-0.4466961624892475
11
0.7704566806409777
21
-0.4465474257011195
0
LINE
8
Polygon
10
0.7704566806409777
20
-0.4465474257011195
11
0.7708830115312729
21
-0.4464175556273283
0
LINE
8
Polygon
10
0.7708830115312729
20
-0.4464175556273283
11
0.7713147055422825
21
-0.4463068102213523
0
LINE
8
Polygon
10
0.7713147055422825
20
-0.4463068102213523
11
0.7717509052249543
21
-0.4462154094504391
0
LINE
8
Polygon
10
0.7717509052249543
20
-0.4462154094504391
11
0.7721907441808783
21
-0.4461435348586973
0
LINE
8
Polygon
10
0.7721907441808782
20
-0.4461435348586973
11
0.7726333487831653
21
-0.4460913292065058
0
LINE
8
Polygon
10
0.7726333487831653
20
-0.4460913292065058
11
0.7730778399116811
21
-0.44605889618695704
0
LINE
8
Polygon
10
0.7730778399116811
20
-0.44605889618695704
11
0.773523334699193
21
-0.4460463002198975
0
LINE
8
Polygon
10
0.773523334699193
20
-0.4460463002198975
11
0.7739689482849575
21
-0.44605356632397397
0
LINE
8
Polygon
10
0.7739689482849575
20
-0.44605356632397397
11
0.7744137955722694
21
-0.4460806800669408
0
LINE
8
Polygon
10
0.7744137955722694
20
-0.4460806800669408
11
0.7748569929864778
21
-0.44612758759432547
0
LINE
8
Polygon
10
0.7748569929864778
20
-0.44612758759432547
11
0.7752976602299805
21
-0.44619419573639696
0
LINE
8
Polygon
10
0.7752976602299805
20
-0.44619419573639696
11
0.7757349220307077
21
-0.44628037219322325
0
LINE
8
Polygon
10
0.7757349220307077
20
-0.44628037219322325
11
0.7761679098806259
21
-0.4463859457974511
0
LINE
8
Polygon
10
0.7761679098806259
20
-0.4463859457974511
11
0.7765957637608044
21
-0.4465107068542861
0
LINE
8
Polygon
10
0.7765957637608044
20
-0.4465107068542861
11
0.7770176338496224
21
-0.4466544075579973
0
LINE
8
Polygon
10
0.7770176338496223
20
-0.4466544075579973
11
0.7774326822107206
21
-0.44681676248411933
0
LINE
8
Polygon
10
0.7774326822107206
20
-0.44681676248411933
11
0.7778400844573461
21
-0.44699744915637507
0
LINE
8
Polygon
10
0.7778400844573461
20
-0.44699744915637507
11
0.7782390313897848
21
-0.44719610868719145
0
LINE
8
Polygon
10
0.7782390313897848
20
-0.44719610868719145
11
0.7786287306026279
21
-0.4474123464905373
0
LINE
8
Polygon
10
0.7786287306026279
20
-0.4474123464905373
11
0.7790084080586819
21
-0.447645733065667
0
LINE
8
Polygon
10
0.7790084080586819
20
-0.447645733065667
11
0.7793773096263936
21
-0.4478958048502134
0
LINE
8
Polygon
10
0.7797347025777391
20
-0.4481620651409346
11
0.7811161596881747
21
-0.44922390631677867
0
LINE
8
Polygon
10
0.7811161596881747
20
-0.44922390631677867
11
0.7825128886315005
21
-0.45026557742109463
0
LINE
8
Polygon
10
0.7825128886315005
20
-0.45026557742109463
11
0.7839245949374456
21
-0.45128685883992387
0
LINE
8
Polygon
10
0.7839245949374456
20
-0.4512868588399238
11
0.785350980978084
21
-0.45228753525803456
0
LINE
8
Polygon
10
0.785350980978084
20
-0.45228753525803456
11
0.7867917460305833
21
-0.4532673957043163
0
LINE
8
Polygon
10
0.7867917460305833
20
-0.4532673957043163
11
0.7882465863406055
21
-0.454226233596259
0
LINE
8
Polygon
10
0.7882465863406055
20
-0.454226233596259
11
0.7897151951863475
21
-0.45516384678350613
0
LINE
8
Polygon
10
0.7897151951863475
20
-0.45516384678350613
11
0.7911972629432057
21
-0.4560800375904738
0
LINE
8
Polygon
10
0.7911972629432057
20
-0.4560800375904737
11
0.7926924771490551
21
-0.45697461285802643
0
LINE
8
Polygon
10
0.7926924771490551
20
-0.45697461285802643
11
0.7942005225701243
21
-0.4578473839842004
0
LINE
8
Polygon
10
0.7942005225701243
20
-0.4578473839842004
11
0.7957210812674561
21
-0.4586981669639665
0
LINE
8
Polygon
10
0.7957210812674561
20
-0.4586981669639665
11
0.7972538326639378
21
-0.4595267824280234
0
LINE
8
Polygon
10
0.7972538326639378
20
-0.4595267824280234
11
0.7987984536118884
21
-0.46033305568061406
0
LINE
8
Polygon
10
0.7987984536118884
20
-0.46033305568061406
11
0.800354618461187
21
-0.46111681673635624
0
LINE
8
Polygon
10
0.800354618461187
20
-0.46111681673635624
11
0.8019219991279296
21
-0.46187790035608056
0
LINE
8
Polygon
10
0.8019219991279296
20
-0.46187790035608056
11
0.8035002651635976
21
-0.4626161460816675
0
LINE
8
Polygon
10
0.8035002651635976
20
-0.4626161460816675
11
0.8050890838247271
21
-0.46333139826987646
0
LINE
8
Polygon
10
0.8050890838247271
20
-0.46333139826987646
11
0.8066881201430594
21
-0.4640235061251601
0
LINE
8
Polygon
10
0.8066881201430594
20
-0.4640235061251601
11
0.8082970369961626
21
-0.46469232373145575
0
LINE
8
Polygon
10
0.8082970369961626
20
-0.46469232373145575
11
0.8099154951785067
21
-0.4653377100829495
0
LINE
8
Polygon
10
0.8099154951785067
20
-0.4653377100829495
11
0.8115431534729772
21
-0.46595952911380345
0
LINE
8
Polygon
10
0.8115431534729772
20
-0.46595952911380345
11
0.8131796687228141
21
-0.4665576497268427
0
LINE
8
Polygon
10
0.8131796687228141
20
-0.4665576497268427
11
0.8148246959039582
21
-0.46713194582119444
0
LINE
8
Polygon
10
0.8148246959039582
20
-0.46713194582119444
11
0.8164778881977933
21
-0.4676822963188732
0
LINE
8
Polygon
10
0.8164778881977933
20
-0.4676822963188732
11
0.8181388970642641
21
-0.46820858519030795
0
LINE
8
Polygon
10
0.8181388970642641
20
-0.46820858519030795
11
0.8198073723153595
21
-0.4687107014788043
0
LINE
8
Polygon
10
0.8198073723153595
20
-0.4687107014788043
11
0.8214829621889412
21
-0.46918853932393706
0
LINE
8
Polygon
10
0.8214829621889412
20
-0.46918853932393706
11
0.8231653134229062
21
-0.4696419979838693
0
LINE
8
Polygon
10
0.8231653134229062
20
-0.4696419979838693
11
0.8248540713296636
21
-0.47007098185659085
0
LINE
8
Polygon
10
0.8248540713296636
20
-0.4700709818565908
11
0.8265488798709135
21
-0.47047540050007436
0
LINE
8
Polygon
10
0.8265488798709135
20
-0.47047540050007436
11
0.8282493817327099
21
-0.4708551686513431
0
LINE
8
Polygon
10
0.8282493817327099
20
-0.4708551686513431
11
0.8299552184007922
21
-0.4712102062444465
0
LINE
8
Polygon
10
0.8299552184007922
20
-0.4712102062444465
11
0.8316660302361709
21
-0.47154043842734056
0
LINE
8
Polygon
10
0.8316660302361709
20
-0.47154043842734056
11
0.8333814565509494
21
-0.4718457955776689
0
LINE
8
Polygon
10
0.8333814565509493
20
-0.4718457955776689
11
0.835101135684367
21
-0.4721262133174409
0
LINE
8
Polygon
10
0.835101135684367
20
-0.4721262133174409
11
0.836824705079048
21
-0.4723816325266045
0
LINE
8
Polygon
10
0.836824705079048
20
-0.4723816325266045
11
0.8385518013574387
21
-0.47261199935551035
0
LINE
8
Polygon
10
0.8385518013574387
20
-0.47261199935551035
11
0.8402820603984175
21
-0.47281726523626505
0
LINE
8
Polygon
10
0.8402820603984175
20
-0.47281726523626505
11
0.8420151174140625
21
-0.4729973868929704
0
LINE
8
Polygon
10
0.8420151174140625
20
-0.4729973868929704
11
0.8437506070265591
21
-0.47315232635084725
0
LINE
8
Polygon
10
0.8437506070265591
20
-0.47315232635084725
11
0.8454881633452318
21
-0.4732820509442419
0
LINE
8
Polygon
10
0.8454881633452318
20
-0.4732820509442419
11
0.8472274200436846
21
-0.47338653332351255
0
LINE
8
Polygon
10
0.8472274200436846
20
-0.47338653332351255
11
0.8489680104370328
21
-0.47346575146079567
0
LINE
8
Polygon
10
0.8489680104370328
20
-0.47346575146079567
11
0.8507095675592112
21
-0.47351968865465005
0
LINE
8
Polygon
10
0.8507095675592112
20
-0.47351968865465005
11
0.8524517242403401
21
-0.47354833353357795
0
LINE
8
Polygon
10
0.8524517242403401
20
-0.47354833353357795
11
0.8541941131841361
21
-0.4735516800584224
0
LINE
8
Polygon
10
0.8541941131841361
20
-0.4735516800584224
11
0.8559363670453479
21
-0.4735297275236406
0
LINE
8
Polygon
10
0.2192780286795229
20
-0.46543137331636664
11
0.21963559769064753
21
-0.4647560838147161
0
LINE
8
Polygon
10
0.21963559769064753
20
-0.4647560838147161
11
0.2199901278107281
21
-0.46407919393983854
0
LINE
8
Polygon
10
0.2199901278107281
20
-0.46407919393983854
11
0.22034161187713358
21
-0.46340071736705274
0
LINE
8
Polygon
10
0.22034161187713358
20
-0.46340071736705274
11
0.2206900427887729
21
-0.4627206678037338
0
LINE
8
Polygon
10
0.2206900427887729
20
-0.4627206678037338
11
0.22103541350623837
21
-0.4620390589890362
0
LINE
8
Polygon
10
0.22103541350623837
20
-0.4620390589890362
11
0.22137771705194792
21
-0.4613559046936162
0
LINE
8
Polygon
10
0.22137771705194792
20
-0.4613559046936162
11
0.2217169465102861
21
-0.46067121871935374
0
LINE
8
Polygon
10
0.2217169465102861
20
-0.46067121871935374
11
0.22205309502774362
21
-0.4599850148990735
0
LINE
8
Polygon
10
0.22205309502774362
20
-0.4599850148990735
11
0.22238615581305612
21
-0.45929730709626543
0
LINE
8
Polygon
10
0.22238615581305612
20
-0.45929730709626543
11
0.22271612213734115
21
-0.45860810920480466
0
LINE
8
Polygon
10
0.22271612213734115
20
-0.45860810920480466
11
0.22304298733423414
21
-0.45791743514867095
0
LINE
8
Polygon
10
0.22304298733423414
20
-0.45791743514867095
11
0.22336674480002308
21
-0.4572252988816671
0
LINE
8
Polygon
10
0.22336674480002308
20
-0.4572252988816671
11
0.2236873879937821
21
-0.45653171438713736
0
LINE
8
Polygon
10
0.2236873879937821
20
-0.45653171438713736
11
0.22400491043750334
21
-0.4558366956776846
0
LINE
8
Polygon
10
0.22400491043750334
20
-0.4558366956776846
11
0.22431930571622805
21
-0.45514025679488745
0
LINE
8
Polygon
10
0.22431930571622805
20
-0.45514025679488745
11
0.2246305674781761
21
-0.45444241180901657
0
LINE
8
Polygon
10
0.2246305674781761
20
-0.45444241180901657
11
0.22493868943487433
21
-0.45374317481875037
0
LINE
8
Polygon
10
0.22493868943487433
20
-0.45374317481875037
11
0.22524366536128362
21
-0.45304255995089004
0
LINE
8
Polygon
10
0.22524366536128362
20
-0.45304255995089004
11
0.2255454890959245
21
-0.4523405813600744
0
LINE
8
Polygon
10
0.2255454890959245
20
-0.4523405813600744
11
0.2258441545410019
21
-0.4516372532284937
0
LINE
8
Polygon
10
0.2258441545410019
20
-0.4516372532284937
11
0.2261396556625281
21
-0.4509325897656032
0
LINE
8
Polygon
10
0.2261396556625281
20
-0.4509325897656032
11
0.2264319864904448
21
-0.45022660520783603
0
LINE
8
Polygon
10
0.2264319864904448
20
-0.45022660520783603
11
0.22672114111874364
21
-0.44951931381831584
0
LINE
8
Polygon
10
0.22672114111874364
20
-0.4495193138183158
11
0.22700711370558552
21
-0.4488107298865681
0
LINE
8
Polygon
10
0.22700711370558552
20
-0.4488107298865681
11
0.2272898984734187
21
-0.448100867728232
0
LINE
8
Polygon
10
0.2272898984734187
20
-0.448100867728232
11
0.2275694897090955
21
-0.44738974168477075
0
LINE
8
Polygon
10
0.2275694897090955
20
-0.44738974168477075
11
0.22784588176398762
21
-0.44667736612318215
0
LINE
8
Polygon
10
0.22784588176398762
20
-0.44667736612318215
11
0.2281190690541004
21
-0.4459637554357083
0
LINE
8
Polygon
10
0.2281190690541004
20
-0.4459637554357083
11
0.22838904606018556
21
-0.4452489240395445
0
LINE
8
Polygon
10
0.22838904606018556
20
-0.4452489240395445
11
0.22865580732785273
21
-0.4445328863765486
0
LINE
8
Polygon
10
0.22865580732785273
20
-0.4445328863765486
11
0.2289193474676796
21
-0.44381565691294844
0
LINE
8
Polygon
10
0.2289193474676796
20
-0.44381565691294844
11
0.2291796611553209
21
-0.4430972501390504
0
LINE
8
Polygon
10
0.2291796611553209
20
-0.4430972501390503
11
0.2294367431316159
21
-0.4423776805689459
0
LINE
8
Polygon
10
0.2294367431316159
20
-0.4423776805689459
11
0.22969058820269464
21
-0.44165696274021876
0
LINE
8
Polygon
10
0.22969058820269464
20
-0.4416569627402187
11
0.22994119124008291
21
-0.4409351112136512
0
LINE
8
Polygon
10
0.22994119124008291
20
-0.4409351112136512
11
0.23018854718080584
21
-0.4402121405729298
0
LINE
8
Polygon
10
0.23018854718080584
20
-0.4402121405729298
11
0.2304326510274902
21
-0.43948806542435054
0
LINE
8
Polygon
10
0.2304326510274902
20
-0.43948806542435054
11
0.2306734978484654
21
-0.4387629003965243
0
LINE
8
Polygon
10
0.2306734978484654
20
-0.4387629003965243
11
0.23091108277786296
21
-0.4380366601400807
0
LINE
8
Polygon
10
0.23091108277786296
20
-0.4380366601400807
11
0.2311454010157151
21
-0.4373093593273725
0
LINE
8
Polygon
10
0.2311454010157151
20
-0.4373093593273725
11
0.23137644782805142
21
-0.43658101265217913
0
LINE
8
Polygon
10
0.23137644782805142
20
-0.4365810126521791
11
0.23160421854699476
21
-0.4358516348294095
0
LINE
8
Polygon
10
0.23160421854699476
20
-0.4358516348294095
11
0.23182870857085536
21
-0.4351212405948052
0
LINE
8
Polygon
10
0.23182870857085536
20
-0.4351212405948052
11
0.23204991336422393
21
-0.43438984470464254
0
LINE
8
Polygon
10
0.23204991336422393
20
-0.43438984470464254
11
0.2322678284580632
21
-0.4336574619354343
0
LINE
8
Polygon
10
0.2322678284580632
20
-0.4336574619354343
11
0.23248244944979832
21
-0.4329241070836315
0
LINE
8
Polygon
10
0.23248244944979832
20
-0.4329241070836315
11
0.2326937720034056
21
-0.4321897949653241
0
LINE
8
Polygon
10
0.2329017918495004
20
-0.4314545404159423
11
0.23303448454906037
21
-0.43101973695958284
0
LINE
8
Polygon
10
0.23303448454906037
20
-0.43101973695958284
11
0.23318680120605084
21
-0.4305914134437892
0
LINE
8
Polygon
10
0.23318680120605084
20
-0.4305914134437892
11
0.2333584270407389
21
-0.4301704550479278
0
LINE
8
Polygon
10
0.2333584270407389
20
-0.4301704550479278
11
0.23354900736877485
21
-0.42975773173050524
0
LINE
8
Polygon
10
0.23354900736877485
20
-0.42975773173050524
11
0.2337581483341882
21
-0.42935409643129996
0
LINE
8
Polygon
10
0.2337581483341882
20
-0.42935409643129996
11
0.23398541772333561
21
-0.42896038330866476
0
LINE
8
Polygon
10
0.23398541772333561
20
-0.42896038330866476
11
0.23423034585811986
21
-0.42857740601564376
0
LINE
8
Polygon
10
0.23423034585811986
20
-0.42857740601564376
11
0.23449242656663308
21
-0.42820595601846545
0
LINE
8
Polygon
10
0.23449242656663308
20
-0.42820595601846545
11
0.2347711182292187
21
-0.42784680096088745
0
LINE
8
Polygon
10
0.2347711182292187
20
-0.42784680096088745
11
0.23506584489779017
21
-0.4275006830777734
0
LINE
8
Polygon
10
0.23506584489779017
20
-0.4275006830777734
11
0.23537599748609347
21
-0.42716831766117996
0
LINE
8
Polygon
10
0.23537599748609347
20
-0.42716831766117996
11
0.2357009350284531
21
-0.426850391582124
0
LINE
8
Polygon
10
0.2357009350284531
20
-0.426850391582124
11
0.23603998600440082
21
-0.42654756187108583
0
LINE
8
Polygon
10
0.23603998600440082
20
-0.42654756187108583
11
0.23639244972644918
21
-0.42626045436018023
0
LINE
8
Polygon
10
0.23639244972644918
20
-0.42626045436018023
11
0.23675759778814215
21
-0.4259896623898036
0
LINE
8
Polygon
10
0.23675759778814215
20
-0.4259896623898036
11
0.23713467556939
21
-0.4257357455824281
0
LINE
8
Polygon
10
0.23713467556939
20
-0.4257357455824281
11
0.23752290379597776
21
-0.425499228686078
0
LINE
8
Polygon
10
0.23752290379597776
20
-0.425499228686078
11
0.2379214801500243
21
-0.4252806004898782
0
LINE
8
Polygon
10
0.2379214801500243
20
-0.4252806004898782
11
0.23832958092806347
21
-0.42508031281391584
0
LINE
8
Polygon
10
0.23832958092806347
20
-0.42508031281391584
11
0.23874636274332142
21
-0.4248987795755024
0
LINE
8
Polygon
10
0.23874636274332142
20
-0.4248987795755024
11
0.2391709642686714
21
-0.4247363759337666
0
LINE
8
Polygon
10
0.2391709642686714
20
-0.4247363759337666
11
0.23960250801666444
21
-0.42459343751434514
0
LINE
8
Polygon
10
0.23960250801666444
20
-0.42459343751434514
11
0.24004010215295715
21
-0.42447025971577407
0
LINE
8
Polygon
10
0.24004010215295715
20
-0.42447025971577407
11
0.24048284233938916
21
-0.4243670970990142
0
LINE
8
Polygon
10
0.24048284233938916
20
-0.4243670970990142
11
0.24092981360290086
21
-0.42428416286137177
0
LINE
8
Polygon
10
0.24092981360290086
20
-0.42428416286137177
11
0.24138009222642962
21
-0.4242216283959018
0
LINE
8
Polygon
10
0.24138009222642962
20
-0.4242216283959018
11
0.24183274765787638
21
-0.4241796229372049
0
LINE
8
Polygon
10
0.24183274765787638
20
-0.4241796229372049
11
0.24228684443319756
21
-0.4241582332943495
0
LINE
8
Polygon
10
0.24228684443319756
20
-0.4241582332943495
11
0.2427414441096482
21
-0.4241575036714704
0
LINE
8
Polygon
10
0.2427414441096482
20
-0.4241575036714704
11
0.24319560720518088
21
-0.42417743557641663
0
LINE
8
Polygon
10
0.24319560720518088
20
-0.42417743557641663
11
0.24364839513999229
21
-0.42421798781763465
0
LINE
8
Polygon
10
0.24364839513999226
20
-0.42421798781763465
11
0.24409887217620557
21
-0.42427907658929576
0
LINE
8
Polygon
10
0.24409887217620557
20
-0.42427907658929576
11
0.24454610735167925
21
-0.4243605756444903
0
LINE
8
Polygon
10
0.24454610735167925
20
-0.4243605756444903
11
0.24498917640394655
21
-0.42446231655613137
0
LINE
8
Polygon
10
0.24498917640394655
20
-0.42446231655613137
11
0.24542716368030912
21
-0.4245840890650284
0
LINE
8
Polygon
10
0.24542716368030912
20
-0.4245840890650284
11
0.2458591640301378
21
-0.42472564151441194
0
LINE
8
Polygon
10
0.2458591640301378
20
-0.42472564151441194
11
0.2462842846754695
21
-0.4248866813700109
0
LINE
8
Polygon
10
0.2462842846754695
20
-0.4248866813700109
11
0.24670164705603465
21
-0.4250668758246081
0
LINE
8
Polygon
10
0.24670164705603465
20
-0.4250668758246081
11
0.24711038864490206
21
-0.4252658524858242
0
LINE
8
Polygon
10
0.24711038864490206
20
-0.4252658524858242
11
0.2475096647309893
21
-0.4254832001457092
0
LINE
8
Polygon
10
0.2475096647309893
20
-0.4254832001457092
11
0.2478986501647542
21
-0.42571846963055004
0
LINE
8
Polygon
10
0.2478986501647542
20
-0.42571846963055004
11
0.24827654106346067
21
-0.4259711747291401
0
LINE
8
Polygon
10
0.24827654106346067
20
-0.4259711747291401
11
0.24864255647249386
21
-0.4262407931975892
0
LINE
8
Polygon
10
0.24864255647249386
20
-0.4262407931975892
11
0.24899593997929192
21
-0.4265267678386008
0
LINE
8
Polygon
10
0.24899593997929192
20
-0.4265267678386008
11
0.24933596127655872
21
-0.42682850765298325
0
LINE
8
Polygon
10
0.24933596127655872
20
-0.42682850765298325
11
0.24966191767152726
21
-0.4271453890610174
0
LINE
8
Polygon
10
0.24966191767152726
20
-0.4271453890610174
11
0.24997313553815426
21
-0.42747675719115474
0
LINE
8
Polygon
10
0.2502689717092452
20
-0.42782192723338436
11
0.2536347003670377
21
-0.4315376802226487
0
LINE
8
Polygon
10
0.2536347003670377
20
-0.4315376802226487
11
0.25735561783965677
21
-0.43489769850192506
0
LINE
8
Polygon
10
0.2573556178396567
20
-0.434897698501925
11
0.26139431409773456
21
-0.43786820051507047
0
LINE
8
Polygon
10
0.26139431409773456
20
-0.43786820051507047
11
0.26571018417039116
21
-0.4404193208946409
0
LINE
8
Polygon
10
0.26571018417039116
20
-0.4404193208946409
11
0.27025983638679435
21
-0.44252541072769414
0
LINE
8
Polygon
10
0.27025983638679435
20
-0.44252541072769414
11
0.2749975286351447
21
-0.44416529542944405
0
LINE
8
Polygon
10
0.2749975286351447
20
-0.44416529542944405
11
0.2798756282529468
21
-0.4453224876321102
0
LINE
8
Polygon
10
0.2798756282529468
20
-0.4453224876321102
11
0.2848450909248393
21
-0.4459853529485811
0
LINE
8
Polygon
10
0.2848450909248393
20
-0.4459853529485811
11
0.28985595377315393
21
-0.4461472269443084
0
LINE
8
Polygon
10
0.28985595377315393
20
-0.4461472269443084
11
0.29485783768368223
21
-0.4458064821413976
0
LINE
8
Polygon
10
0.29485783768368223
20
-0.4458064821413976
11
0.29980045381627546
21
-0.444966544381238
0
LINE
8
Polygon
10
0.29980045381627546
20
-0.444966544381238
11
0.3046341092078311
21
-0.4436358583811624
0
LINE
8
Polygon
10
0.3046341092078311
20
-0.4436358583811624
11
0.3093102063843438
21
-0.44182780283142875
0
LINE
8
Polygon
10
0.3093102063843438
20
-0.44182780283142875
11
0.3137817319589305
21
-0.43956055588613807
0
LINE
8
Polygon
10
0.3137817319589305
20
-0.43956055588613807
11
0.31800372930347587
21
-0.4368569124004388
0
LINE
8
Polygon
10
0.31800372930347587
20
-0.4368569124004388
11
0.32193375054166656
21
-0.4337440547515118
0
LINE
8
Polygon
10
0.32193375054166656
20
-0.4337440547515118
11
0.32553228331908485
21
-0.4302532795474978
0
LINE
8
Polygon
10
0.32553228331908485
20
-0.4302532795474978
11
0.3287631480596249
21
-0.42641968297202887
0
LINE
8
Polygon
10
0.3287631480596249
20
-0.42641968297202887
11
0.33159386171422256
21
-0.4222818079279045
0
LINE
8
Polygon
10
0.33159386171422256
20
-0.4222818079279045
11
0.3339959643447766
21
-0.41788125652752317
0
LINE
8
Polygon
10
0.3339959643447765
20
-0.41788125652752317
11
0.33594530525979355
21
-0.4132622718260814
0
LINE
8
Polygon
10
0.33594530525979355
20
-0.4132622718260814
11
0.3374222858249541
21
-0.40847129300278745
0
LINE
8
Polygon
10
0.3374222858249541
20
-0.40847129300278745
11
0.33841205650738765
21
-0.40355648846228864
0
LINE
8
Polygon
10
0.33841205650738765
20
-0.40355648846228864
11
0.33890466617257703
21
-0.39856727155050037
0
LINE
8
Polygon
10
0.33890466617257703
20
-0.3985672715505003
11
0.33889516213286464
21
-0.3935538037538209
0
LINE
8
Polygon
10
0.33889516213286464
20
-0.3935538037538209
11
0.3383836399416744
21
-0.38856649037655727
0
LINE
8
Polygon
10
0.3383836399416745
20
-0.38856649037655727
11
0.33737524243281974
21
-0.3836554737670101
0
LINE
8
Polygon
10
0.33737524243281974
20
-0.3836554737670101
11
0.3358801080145556
21
-0.3788701291873132
0
LINE
8
Polygon
10
0.3358801080145556
20
-0.3788701291873132
11
0.3339132687382262
21
-0.37425856839554206
0
LINE
8
Polygon
10
0.3339132687382262
20
-0.3742585683955421
11
0.33149449916632334
21
-0.3698671559310667
0
LINE
8
Polygon
10
0.33149449916632334
20
-0.3698671559310667
11
0.32864811755943335
21
-0.365740042966406
0
LINE
8
Polygon
10
0.32864811755943335
20
-0.365740042966406
11
0.3254027413809342
21
-0.36191872341222797
0
LINE
8
Polygon
10
0.3254027413809342
20
-0.36191872341222797
11
0.3217909995775954
21
-0.35844161673840746
0
LINE
8
Polygon
10
0.3217909995775954
20
-0.35844161673840746
11
0.3178492045288034
21
-0.35534368170544894
0
LINE
8
Polygon
10
0.3178492045288034
20
-0.35534368170544894
11
0.31361698696263063
21
-0.35265606488981255
0
LINE
8
Polygon
10
0.31361698696263063
20
-0.35265606488981255
11
0.3091368975092931
21
-0.35040578753686114
0
LINE
8
Polygon
10
0.3091368975092931
20
-0.35040578753686114
11
0.3044539788979706
21
-0.3486154738898032
0
LINE
8
Polygon
10
0.3044539788979706
20
-0.3486154738898032
11
0.29961531309811446
21
-0.3473031237260073
0
LINE
8
Polygon
10
0.2996153130981144
20
-0.3473031237260073
11
0.2946695479582742
21
-0.3464819313876028
0
LINE
8
Polygon
10
0.29466954795827427
20
-0.3464819313876028
11
0.289666408101608
21
-0.34616015312582943
0
LINE
8
Polygon
10
0.289666408101608
20
-0.34616015312582943
11
0.2846561949955215
21
-0.34634102409285367
0
LINE
8
Polygon
10
0.2846561949955215
20
-0.34634102409285367
11
0.27968928122172815
21
-0.34702272581561394
0
LINE
8
Polygon
10
0.27968928122172815
20
-0.34702272581561394
11
0.2748156040313258
21
-0.34819840447871225
0
LINE
8
Polygon
10
0.2748156040313258
20
-0.34819840447871225
11
0.27008416327667994
21
-0.3498562398325362
0
LINE
8
Polygon
10
0.27008416327667994
20
-0.3498562398325362
11
0.26554252876789397
21
-0.3519795640338106
0
LINE
8
Polygon
10
0.26554252876789397
20
-0.3519795640338106
11
0.2612363620068965
21
-0.3545470292237582
0
LINE
8
Polygon
10
0.2612363620068965
20
-0.35454702922375814
11
0.2572089571076195
21
-0.3575328221590422
0
LINE
8
Polygon
10
0.25350080551784876
20
-0.3609069237375951
11
0.2531730821312769
21
-0.36122197735219497
0
LINE
8
Polygon
10
0.2531730821312769
20
-0.36122197735219497
11
0.25283137873832146
21
-0.3615218109550838
0
LINE
8
Polygon
10
0.25283137873832146
20
-0.3615218109550838
11
0.25247640150799183
21
-0.3618058049059456
0
LINE
8
Polygon
10
0.25247640150799183
20
-0.3618058049059456
11
0.25210888404119547
21
-0.3620733722989108
0
LINE
8
Polygon
10
0.25210888404119547
20
-0.3620733722989108
11
0.2517295858546679
21
-0.36232396017546403
0
LINE
8
Polygon
10
0.2517295858546679
20
-0.36232396017546403
11
0.2513392908113446
21
-0.36255705066719596
0
LINE
8
Polygon
10
0.2513392908113446
20
-0.36255705066719596
11
0.2509388055004191
21
-0.3627721620660373
0
LINE
8
Polygon
10
0.2509388055004191
20
-0.3627721620660373
11
0.2505289575704345
21
-0.36296884981976363
0
LINE
8
Polygon
10
0.2505289575704345
20
-0.36296884981976363
11
0.2501105940188532
21
-0.363146707450713
0
LINE
8
Polygon
10
0.2501105940188532
20
-0.363146707450713
11
0.24968457944164055
21
-0.36330536739581853
0
LINE
8
Polygon
10
0.24968457944164055
20
-0.36330536739581853
11
0.24925179424647814
21
-0.36344450176621934
0
LINE
8
Polygon
10
0.24925179424647814
20
-0.36344450176621934
11
0.24881313283330148
21
-0.3635638230248802
0
LINE
8
Polygon
10
0.24881313283330148
20
-0.3635638230248802
11
0.24836950174592023
21
-0.36366308458081964
0
LINE
8
Polygon
10
0.24836950174592023
20
-0.36366308458081964
11
0.24792181779854236
21
-0.36374208129871827
0
LINE
8
Polygon
10
0.24792181779854236
20
-0.36374208129871827
11
0.24747100618107296
21
-0.36380064992285444
0
LINE
8
Polygon
10
0.24747100618107296
20
-0.36380064992285444
11
0.24701799854710382
21
-0.36383866941449056
0
LINE
8
Polygon
10
0.24701799854710382
20
-0.36383866941449056
11
0.24656373108854518
21
-0.36385606120201364
0
LINE
8
Polygon
10
0.24656373108854518
20
-0.36385606120201364
11
0.24610914260087835
21
-0.3638527893433124
0
LINE
8
Polygon
10
0.24610914260087835
20
-0.3638527893433124
11
0.24565517254302788
21
-0.3638288606000558
0
LINE
8
Polygon
10
0.24565517254302788
20
-0.3638288606000558
11
0.24520275909586267
21
-0.3637843244237193
0
LINE
8
Polygon
10
0.24520275909586267
20
-0.3637843244237193
11
0.24475283722333818
21
-0.3637192728533874
0
LINE
8
Polygon
10
0.24475283722333818
20
-0.3637192728533874
11
0.24430633674028687
21
-0.36363384032554513
0
LINE
8
Polygon
10
0.24430633674028687
20
-0.36363384032554513
11
0.2438641803908499
21
-0.36352820339624886
0
LINE
8
Polygon
10
0.2438641803908499
20
-0.36352820339624886
11
0.24342728194152113
21
-0.3634025803762537
0
LINE
8
Polygon
10
0.24342728194152113
20
-0.3634025803762537
11
0.24299654429274456
21
-0.3632572308798493
0
LINE
8
Polygon
10
0.24299654429274456
20
-0.3632572308798493
11
0.24257285761296765
21
-0.36309245528833706
0
LINE
8
Polygon
10
0.24257285761296765
20
-0.36309245528833706
11
0.24215709749900674
21
-0.3629085941292583
0
LINE
8
Polygon
10
0.24215709749900674
20
-0.3629085941292583
11
0.24175012316652636
21
-0.3627060273726551
0
LINE
8
Polygon
10
0.24175012316652636
20
-0.3627060273726551
11
0.2413527756743723
21
-0.3624851736458189
0
LINE
8
Polygon
10
0.2413527756743723
20
-0.3624851736458189
11
0.24096587618642742
21
-0.36224648936814946
0
LINE
8
Polygon
10
0.24096587618642742
20
-0.36224648936814946
11
0.2405902242745831
21
-0.3619904678079123
0
LINE
8
Polygon
10
0.2405902242745831
20
-0.3619904678079123
11
0.2402265962663326
21
-0.36171763806284335
0
LINE
8
Polygon
10
0.2402265962663326
20
-0.36171763806284335
11
0.23987574364040198
21
-0.3614285639667085
0
LINE
8
Polygon
10
0.23987574364040198
20
-0.3614285639667085
11
0.23953839147373351
21
-0.3611238429240766
0
LINE
8
Polygon
10
0.23953839147373351
20
-0.3611238429240766
11
0.23921523694303162
21
-0.3608041046757149
0
LINE
8
Polygon
10
0.23921523694303162
20
-0.3608041046757149
11
0.2389069478839677
21
-0.36047000999715795
0
LINE
8
Polygon
10
0.2389069478839677
20
-0.36047000999715795
11
0.2386141614110217
21
-0.3601222493331397
0
LINE
8
Polygon
10
0.2386141614110217
20
-0.3601222493331397
11
0.23833748260081228
21
-0.3597615413707107
0
LINE
8
Polygon
10
0.23833748260081228
20
-0.3597615413707107
11
0.23807748324163705
21
-0.3593886315539895
0
LINE
8
Polygon
10
0.23807748324163705
20
-0.3593886315539895
11
0.23783470065180695
21
-0.3590042905436172
0
LINE
8
Polygon
10
0.23783470065180695
20
-0.3590042905436172
11
0.2376096365692167
21
-0.35860931262409973
0
LINE
8
Polygon
10
0.2376096365692167
20
-0.35860931262409973
11
0.23740275611444608
21
-0.35820451406232795
0
LINE
8
Polygon
10
0.23740275611444608
20
-0.35820451406232795
11
0.23721448682953555
21
-0.35779073142066947
0
LINE
8
Polygon
10
0.23721448682953555
20
-0.35779073142066947
11
0.23704521779442164
21
-0.35736881982811697
0
LINE
8
Polygon
10
0.23704521779442164
20
-0.35736881982811697
11
0.236895298822859
21
-0.3569396512130667
0
LINE
8
Polygon
10
0.236895298822859
20
-0.3569396512130667
11
0.2367650397394904
21
-0.35650411250137903
0
LINE
8
Polygon
10
0.2367650397394904
20
-0.35650411250137903
11
0.23665470973955877
21
-0.35606310378344513
0
LINE
8
Polygon
10
0.23656453683258455
20
-0.3556175364540477
11
0.23642834197603704
21
-0.3548656571620027
0
LINE
8
Polygon
10
0.23642834197603704
20
-0.3548656571620027
11
0.23628876896183848
21
-0.3541143976313053
0
LINE
8
Polygon
10
0.23628876896183848
20
-0.3541143976313053
11
0.23614582060980566
21
-0.3533637730397769
0
LINE
8
Polygon
10
0.23614582060980566
20
-0.3533637730397769
11
0.23599949980794796
21
-0.35261379855241093
0
LINE
8
Polygon
10
0.23599949980794796
20
-0.35261379855241093
11
0.23584980951240886
21
-0.35186448932106684
0
LINE
8
Polygon
10
0.23584980951240886
20
-0.35186448932106684
11
0.2356967527474063
21
-0.3511158604841636
0
LINE
8
Polygon
10
0.2356967527474063
20
-0.3511158604841636
11
0.2355403326051716
21
-0.35036792716637427
0
LINE
8
Polygon
10
0.2355403326051716
20
-0.35036792716637427
11
0.23538055224588694
21
-0.34962070447832005
0
LINE
8
Polygon
10
0.23538055224588694
20
-0.34962070447832005
11
0.23521741489762146
21
-0.3488742075162653
0
LINE
8
Polygon
10
0.23521741489762146
20
-0.3488742075162653
11
0.23505092385626614
21
-0.34812845136181225
0
LINE
8
Polygon
10
0.23505092385626614
20
-0.34812845136181225
11
0.23488108248546724
21
-0.34738345108159674
0
LINE
8
Polygon
10
0.23488108248546724
20
-0.34738345108159674
11
0.23470789421655822
21
-0.34663922172698325
0
LINE
8
Polygon
10
0.23470789421655822
20
-0.34663922172698325
11
0.2345313625484905
21
-0.34589577833376134
0
LINE
8
Polygon
10
0.2345313625484905
20
-0.34589577833376134
11
0.2343514910477627
21
-0.34515313592184155
0
LINE
8
Polygon
10
0.2343514910477627
20
-0.34515313592184155
11
0.23416828334834874
21
-0.3444113094949521
0
LINE
8
Polygon
10
0.23416828334834874
20
-0.34441130949495213
11
0.2339817431516242
21
-0.34367031404033577
0
LINE
8
Polygon
10
0.2339817431516242
20
-0.34367031404033577
11
0.23379187422629175
21
-0.342930164528447
0
LINE
8
Polygon
10
0.23379187422629175
20
-0.342930164528447
11
0.23359868040830487
21
-0.3421908759126495
0
LINE
8
Polygon
10
0.23359868040830487
20
-0.3421908759126495
11
0.2334021656007904
21
-0.34145246312891425
0
LINE
8
Polygon
10
0.2334021656007904
20
-0.34145246312891425
11
0.23320233377396973
21
-0.34071494109551753
0
LINE
8
Polygon
10
0.23320233377396973
20
-0.34071494109551753
11
0.23299918896507846
21
-0.33997832471273975
0
LINE
8
Polygon
10
0.23299918896507846
20
-0.33997832471273975
11
0.232792735278285
21
-0.3392426288625642
0
LINE
8
Polygon
10
0.232792735278285
20
-0.3392426288625642
11
0.23258297688460752
21
-0.3385078684083766
0
LINE
8
Polygon
10
0.23258297688460752
20
-0.33850786840837666
11
0.2323699180218298
21
-0.3377740581946647
0
LINE
8
Polygon
10
0.2323699180218298
20
-0.33777405819466466
11
0.2321535629944154
21
-0.33704121304671825
0
LINE
8
Polygon
10
0.2321535629944154
20
-0.33704121304671825
11
0.23193391617342102
21
-0.3363093477703298
0
LINE
8
Polygon
10
0.23193391617342102
20
-0.3363093477703298
11
0.23171098199640788
21
-0.33557847715149525
0
LINE
8
Polygon
10
0.23171098199640788
20
-0.33557847715149525
11
0.23148476496735226
21
-0.33484861595611537
0
LINE
8
Polygon
10
0.23148476496735226
20
-0.33484861595611537
11
0.23125526965655452
21
-0.3341197789296973
0
LINE
8
Polygon
10
0.23125526965655452
20
-0.3341197789296973
11
0.2310225007005465
21
-0.3333919807970568
0
LINE
8
Polygon
10
0.2310225007005465
20
-0.3333919807970568
11
0.2307864628019982
21
-0.33266523626202055
0
LINE
8
Polygon
10
0.2307864628019982
20
-0.33266523626202055
11
0.23054716072962256
21
-0.33193956000712943
0
LINE
8
Polygon
10
0.23054716072962256
20
-0.33193956000712943
11
0.23030459931807915
21
-0.3312149666933415
0
LINE
8
Polygon
10
0.23030459931807915
20
-0.3312149666933415
11
0.23005878346787656
21
-0.330491470959736
0
LINE
8
Polygon
10
0.23005878346787656
20
-0.330491470959736
11
0.2298097181452733
21
-0.32976908742321775
0
LINE
8
Polygon
10
0.2298097181452733
20
-0.32976908742321775
11
0.22955740838217747
21
-0.3290478306782215
0
LINE
8
Polygon
10
0.22955740838217747
20
-0.3290478306782215
11
0.22930185927604527
21
-0.3283277152964172
0
LINE
8
Polygon
10
0.22930185927604527
20
-0.3283277152964172
11
0.2290430759897778
21
-0.3276087558264158
0
LINE
8
Polygon
10
0.2290430759897778
20
-0.3276087558264158
11
0.22878106375161683
21
-0.32689096679347507
0
LINE
8
Polygon
10
0.22878106375161683
20
-0.32689096679347507
11
0.2285158278550392
21
-0.3261743626992063
0
LINE
8
Polygon
10
0.2285158278550392
20
-0.3261743626992063
11
0.2282473736586499
21
-0.3254589580212812
0
LINE
8
Polygon
10
0.2282473736586499
20
-0.3254589580212812
11
0.2279757065860737
21
-0.3247447672131396
0
LINE
8
Polygon
10
0.2279757065860737
20
-0.3247447672131396
11
0.22770083212584566
21
-0.3240318047036972
0
LINE
8
Polygon
10
0.22770083212584566
20
-0.3240318047036972
11
0.22742275583130026
21
-0.32332008489705416
0
LINE
8
Polygon
10
0.22742275583130026
20
-0.32332008489705416
11
0.22714148332045914
21
-0.3226096221722042
0
LINE
8
Polygon
10
0.22714148332045914
20
-0.3226096221722042
11
0.22685702027591764
21
-0.32190043088274395
0
LINE
8
Polygon
10
0.22685702027591764
20
-0.32190043088274395
11
0.22656937244472997
21
-0.32119252535658305
0
LINE
8
Polygon
10
0.22627854563829317
20
-0.3204859198956546
11
0.5
21
-0.20710678118654746
0
LINE
8
Polygon
10
0.5
20
-0.20710678118654746
11
0.7426878466919193
21
-0.3076313787094631
0
LINE
8
Polygon
10
0.8576781185072037
20
-0.47348248055745257
11
0.8693034229353223
21
-0.8114956076566446
0
LINE
8
Polygon
10
0.8693034229353223
20
-0.8114956076566446
11
0.2192780286795229
21
-0.46543137331636664
0
LINE
8
Polygon
10
-0.9737947291879736
20
-1.0431641075223868
11
1.0431641075223865
21
-0.9737947291879736
0
LINE
8
Polygon
10
1.0431641075223865
20
-0.9737947291879736
11
0.9737947291879736
21
1.0431641075223868
0
LINE
8
Polygon
10
0.9737947291879736
20
1.0431641075223868
11
-1.0431641075223865
21
0.9737947291879736
0
ENDSEC
0
EOF
