0
SECTION
2
ENTITIES
0
LINE
8
Polygon
10
46.675543077495654
20
38.06583502903593
11
46.82647657012586
21
37.884434768725804
0
LINE
8
Polygon
10
46.82647657012586
20
37.884434768725804
11
46.98094795553814
21
37.706037558190026
0
LINE
8
Polygon
10
46.98094795553814
20
37.706037558190026
11
47.13889749731604
21
37.530712386322755
0
LINE
8
Polygon
10
47.13889749731604
20
37.53071238632275
11
47.30026411398755
21
37.35852705401444
0
LINE
8
Polygon
10
47.30026411398755
20
37.35852705401444
11
47.464985402646235
21
37.18954814793217
0
LINE
8
Polygon
10
47.464985402646235
20
37.18954814793217
11
47.63299766308332
21
37.023841014769616
0
LINE
8
Polygon
10
47.63299766308332
20
37.023841014769616
11
47.80423592242164
21
36.86146973597647
0
LINE
8
Polygon
10
47.80423592242164
20
36.86146973597647
11
47.97863396024149
21
36.70249710297719
0
LINE
8
Polygon
10
47.97863396024149
20
36.70249710297719
11
48.15612433418915
21
36.546984592888606
0
LINE
8
Polygon
10
48.15612433418915
20
36.546984592888606
11
48.33663840605788
21
36.39499234474579
0
LINE
8
Polygon
10
48.33663840605788
20
36.39499234474579
11
48.52010636833125
21
36.24657913624536
0
LINE
8
Polygon
10
48.52010636833125
20
36.24657913624536
11
48.70645727117887
21
36.10180236101531
0
LINE
8
Polygon
10
48.70645727117888
20
36.10180236101531
11
48.8956190498937
21
35.96071800641998
0
LINE
8
Polygon
10
48.8956190498937
20
35.96071800641998
11
49.08751855276056
21
35.82338063190893
0
LINE
8
Polygon
10
49.08751855276056
20
35.82338063190893
11
49.28208156934502
21
35.689843347917936
0
LINE
8
Polygon
10
49.28208156934502
20
35.689843347917936
11
49.47923285919169
21
35.56015779533043
0
LINE
8
Polygon
10
49.4792328591917
20
35.560157795330426
11
49.67889618092087
21
35.43437412550717
0
LINE
8
Polygon
10
49.67889618092087
20
35.43437412550717
11
49.880994321712166
21
35.31254098089194
0
LINE
8
Polygon
10
49.880994321712166
20
35.31254098089194
11
50.085449127163926
21
35.19470547620079
0
LINE
8
Polygon
10
50.085449127163926
20
35.19470547620079
11
50.2921815315167
21
35.08091318020208
0
LINE
8
Polygon
10
50.2921815315167
20
35.08091318020208
11
50.501111588229165
21
34.97120809809435
0
LINE
8
Polygon
10
50.501111588229165
20
34.971208098094344
11
50.71215850089463
21
34.8656326544888
0
LINE
8
Polygon
10
50.71215850089463
20
34.8656326544888
11
50.9252406544863
21
34.76422767700311
0
LINE
8
Polygon
10
50.9252406544863
20
34.76422767700311
11
51.14027564691895
21
34.66703238047275
0
LINE
8
Polygon
10
51.14027564691895
20
34.66703238047275
11
51.35718032091513
21
34.57408435178602
0
LINE
8
Polygon
10
51.35718032091513
20
34.57408435178602
11
51.57587079616328
21
34.48541953534865
0
LINE
8
Polygon
10
51.57587079616328
20
34.48541953534865
11
51.796262501755564
21
34.40107221918351
0
LINE
8
Polygon
10
51.796262501755564
20
34.40107221918351
11
52.01827020889267
21
34.321075021670964
0
LINE
8
Polygon
10
52.01827020889267
20
34.321075021670964
11
52.24180806384311
21
34.24545887893483
0
LINE
8
Polygon
10
52.24180806384311
20
34.24545887893483
11
52.46678962114414
21
34.17425303287891
0
LINE
8
Polygon
10
52.46678962114414
20
34.17425303287891
11
52.69312787703151
21
34.107485019878695
0
LINE
8
Polygon
10
52.69312787703151
20
34.107485019878695
11
52.92073530308517
21
34.04518066013266
0
LINE
8
Polygon
10
52.92073530308517
20
34.04518066013266
11
53.1495238800778
21
33.98736404767718
0
LINE
8
Polygon
10
53.1495238800778
20
33.98736404767718
11
53.37940513201316
21
33.93405754106903
0
LINE
8
Polygon
10
53.37940513201316
20
33.93405754106903
11
53.61029016034116
21
33.88528175473895
0
LINE
8
Polygon
10
53.61029016034116
20
33.88528175473895
11
53.84208967833618
21
33.84105555101977
0
LINE
8
Polygon
10
53.84208967833618
20
33.84105555101977
11
54.07471404562568
21
33.80139603285206
0
LINE
8
Polygon
10
54.07471404562568
20
33.80139603285206
11
54.30807330285543
21
33.76631853717013
0
LINE
8
Polygon
10
54.30807330285543
20
33.76631853717013
11
54.54207720647817
21
33.73583662897106
0
LINE
8
Polygon
10
54.54207720647817
20
33.73583662897106
11
54.77663526365214
21
33.70996209606886
0
LINE
8
Polygon
10
54.77663526365214
20
33.70996209606886
11
55.01165676723605
21
33.688704944535964
0
LINE
8
Polygon
10
55.01165676723605
20
33.688704944535964
11
55.24705083086688
21
33.67207339483375
0
LINE
8
Polygon
10
55.24705083086688
20
33.67207339483375
11
55.48272642410704
21
33.66007387863353
0
LINE
8
Polygon
10
55.48272642410704
20
33.66007387863353
11
55.71859240764714
21
33.652711036329364
0
LINE
8
Polygon
10
55.71859240764714
20
33.652711036329364
11
55.95455756855103
21
33.64998771524349
0
LINE
8
Polygon
10
55.95455756855103
20
33.64998771524349
11
56.19053065552916
21
33.65190496852528
0
LINE
8
Polygon
10
56.19053065552917
20
33.65190496852528
11
56.42642041422686
21
33.65846205474397
0
LINE
8
Polygon
10
56.42642041422686
20
33.65846205474397
11
56.662135622513745
21
33.66965643817532
0
LINE
8
Polygon
10
56.662135622513745
20
33.66965643817532
11
56.70667560582208
21
33.671216094469685
0
LINE
8
Polygon
10
56.70667560582208
20
33.671216094469685
11
56.751240847905535
21
33.670789668735864
0
LINE
8
Polygon
10
56.751240847905535
20
33.670789668735864
11
56.79574283137999
21
33.66837800795885
0
LINE
8
Polygon
10
56.79574283137999
20
33.66837800795885
11
56.840093164508254
21
33.66398590228209
0
LINE
8
Polygon
10
56.840093164508254
20
33.66398590228209
11
56.88420375676754
21
33.65762207549318
0
LINE
8
Polygon
10
56.88420375676754
20
33.65762207549318
11
56.92798699381858
21
33.649299167696235
0
LINE
8
Polygon
10
56.92798699381858
20
33.649299167696235
11
56.97135591152899
21
33.639033710205624
0
LINE
8
Polygon
10
56.97135591152899
20
33.639033710205624
11
57.01422436870512
21
33.626846092710736
0
LINE
8
Polygon
10
57.01422436870512
20
33.626846092710736
11
57.0565072181894
21
33.612760522777144
0
LINE
8
Polygon
10
57.0565072181894
20
33.612760522777144
11
57.09812047598318
21
33.596804977764464
0
LINE
8
Polygon
10
57.09812047598318
20
33.596804977764464
11
57.13898148805943
21
33.57901114925655
0
LINE
8
Polygon
10
57.13898148805943
20
33.57901114925655
11
57.1790090945336
21
33.55941438011433
0
LINE
8
Polygon
10
57.1790090945336
20
33.55941438011433
11
57.21812379086689
21
33.53805359427631
0
LINE
8
Polygon
10
57.21812379086689
20
33.53805359427631
11
57.25624788578158
21
33.51497121944616
0
LINE
8
Polygon
10
57.25624788578158
20
33.51497121944616
11
57.2933056555747
21
33.490213102821016
0
LINE
8
Polygon
10
57.2933056555747
20
33.490213102821016
11
57.32922349452371
21
33.46382842002782
0
LINE
8
Polygon
10
57.32922349452371
20
33.46382842002782
11
57.36393006108531
21
33.43586957744862
0
LINE
8
Polygon
10
57.36393006108531
20
33.43586957744862
11
57.39735641959709
21
33.40639210812871
0
LINE
8
Polygon
10
57.39735641959709
20
33.40639210812871
11
57.429436177200444
21
33.37545456147462
0
LINE
8
Polygon
10
57.429436177200444
20
33.37545456147462
11
57.460105615712905
21
33.34311838696071
0
LINE
8
Polygon
10
57.460105615712905
20
33.34311838696071
11
57.48930381818794
21
33.309447812075646
0
LINE
8
Polygon
10
57.48930381818794
20
33.309447812075646
11
57.516972789910746
21
33.274509714751
0
LINE
8
Polygon
10
57.516972789910746
20
33.274509714751
11
57.54305757358986
21
33.238373490525476
0
LINE
8
Polygon
10
57.54305757358986
20
33.238373490525476
11
57.56750635851567
21
33.2011109147085
0
LINE
8
Polygon
10
57.56750635851567
20
33.2011109147085
11
57.59027058346903
21
33.16279599981708
0
LINE
8
Polygon
10
57.59027058346903
20
33.16279599981708
11
57.611305033175654
21
33.12350484856895
0
LINE
8
Polygon
10
57.611305033175654
20
33.12350484856895
11
57.63056792811461
21
33.083315502724126
0
LINE
8
Polygon
10
57.63056792811461
20
33.083315502724126
11
57.64802100750257
21
33.042307788075036
0
LINE
8
Polygon
10
57.64802100750257
20
33.042307788075036
11
57.66362960528906
21
33.00056315589311
0
LINE
8
Polygon
10
57.66362960528906
20
33.00056315589311
11
57.67736271901157
21
32.95816452114684
0
LINE
8
Polygon
10
57.67736271901157
20
32.95816452114684
11
57.689193071374056
21
32.91519609781245
0
LINE
8
Polygon
10
57.689193071374056
20
32.91519609781245
11
57.699097164426185
21
32.87174323160458
0
LINE
8
Polygon
10
57.699097164426185
20
32.87174323160458
11
57.70705532623602
21
32.82789223045897
0
LINE
8
Polygon
10
57.70705532623602
20
32.82789223045897
11
57.71305174996323
21
32.783730193103935
0
LINE
8
Polygon
10
57.71305174996323
20
32.783730193103935
11
57.71707452525532
21
32.73934483606117
0
LINE
8
Polygon
10
57.71707452525532
20
32.73934483606117
11
57.719115661904475
21
32.69482431941948
0
LINE
8
Polygon
10
57.719115661904475
20
32.69482431941948
11
57.719171105718026
21
32.650257071727395
0
LINE
8
Polygon
10
57.719171105718026
20
32.650257071727395
11
57.71724074657113
21
32.60573161435268
0
LINE
8
Polygon
10
57.71724074657113
20
32.60573161435268
11
57.71332841862542
21
32.56133638565736
0
LINE
8
Polygon
10
57.71332841862542
20
32.56133638565737
11
57.7074418927135
21
32.51715956533774
0
LINE
8
Polygon
10
57.7074418927135
20
32.51715956533774
11
57.699592860904126
21
32.47328889927807
0
LINE
8
Polygon
10
57.699592860904126
20
32.47328889927807
11
57.68979691327899
21
32.429811525265954
0
LINE
8
Polygon
10
57.68979691327899
20
32.429811525265954
11
57.67807350696695
21
32.38681379991558
0
LINE
8
Polygon
10
57.67807350696695
20
32.38681379991558
11
57.66444592749753
21
32.344381127142476
0
LINE
8
Polygon
10
57.66444592749753
20
32.344381127142476
11
57.648941242550165
21
32.3025977885307
0
LINE
8
Polygon
10
57.648941242550165
20
32.3025977885307
11
57.63159024819123
21
32.26154677592905
0
LINE
8
Polygon
10
57.63159024819123
20
32.26154677592905
11
57.61242740770559
21
32.221309626609234
0
LINE
8
Polygon
10
57.61242740770559
20
32.221309626609234
11
57.59149078314412
21
32.18196626131296
0
LINE
8
Polygon
10
57.59149078314412
20
32.18196626131296
11
57.36557723009656
21
31.726515440023135
0
LINE
8
Polygon
10
57.36557723009656
20
31.726515440023135
11
57.18708203973437
21
31.25047778281343
0
LINE
8
Polygon
10
57.18708203973437
20
31.25047778281343
11
57.05785065515341
21
30.75877499321037
0
LINE
8
Polygon
10
57.05785065515341
20
30.75877499321037
11
56.97921918611642
21
30.25649073490515
0
LINE
8
Polygon
10
56.97921918611642
20
30.25649073490515
11
56.952000595153976
21
29.748818072286642
0
LINE
8
Polygon
10
56.952000595153976
20
29.748818072286642
11
56.97647629242996
21
29.241005779892106
0
LINE
8
Polygon
10
56.97647629242996
20
29.241005779892106
11
57.052393226271306
21
28.738304075876425
0
LINE
8
Polygon
10
57.052393226271306
20
28.738304075876425
11
57.178966499442794
21
28.245910340556
0
LINE
8
Polygon
10
57.178966499442794
20
28.245910340556
11
57.35488748411739
21
27.7689153812375
0
LINE
8
Polygon
10
57.35488748411739
20
27.7689153812375
11
57.57833735164248
21
27.31225079889378
0
LINE
8
Polygon
10
57.57833735164248
20
27.31225079889378
11
57.84700587721894
21
26.88063800085748
0
LINE
8
Polygon
10
57.84700587721894
20
26.88063800085748
11
58.1581153250736
21
26.47853938668466
0
LINE
8
Polygon
10
58.1581153250736
20
26.47853938668466
11
58.50844916717881
21
26.110112211872664
0
LINE
8
Polygon
10
58.50844916717881
20
26.110112211872664
11
58.894385338599065
21
25.779165606430617
0
LINE
8
Polygon
10
58.894385338599065
20
25.779165606430617
11
59.31193368564143
21
25.489121192682763
0
LINE
8
Polygon
10
59.31193368564143
20
25.489121192682763
11
59.756777219637016
21
25.24297770947335
0
LINE
8
Polygon
10
59.756777219637016
20
25.24297770947335
11
60.224316749835126
21
25.04328000851946
0
LINE
8
Polygon
10
60.224316749835126
20
25.04328000851946
11
60.70971843395518
21
24.892092743455386
0
LINE
8
Polygon
10
60.70971843395518
20
24.892092743455386
11
61.20796375477625
21
24.79097902359479
0
LINE
8
Polygon
10
61.20796375477625
20
24.79097902359479
11
61.71390140606149
21
24.740984253107023
0
LINE
8
Polygon
10
61.71390140606149
20
24.740984253107023
11
62.22230055137425
21
24.74262532269284
0
LINE
8
Polygon
10
62.22230055137425
20
24.74262532269284
11
62.72790490514877
21
24.795885265505508
0
LINE
8
Polygon
10
62.72790490514877
20
24.795885265505508
11
63.22548707687646
21
24.90021343256927
0
LINE
8
Polygon
10
63.22548707687646
20
24.90021343256927
11
63.7099026165496
21
25.054531185881483
0
LINE
8
Polygon
10
63.7099026165496
20
25.054531185881483
11
64.17614320259149
21
25.257243050338076
0
LINE
8
Polygon
10
64.17614320259149
20
25.257243050338076
11
64.61938842236924
21
25.506253209183672
0
LINE
8
Polygon
10
64.61938842236924
20
25.506253209183672
11
65.03505560993564
21
25.798987172441745
0
LINE
8
Polygon
10
65.03505560993564
20
25.798987172441745
11
65.41884722573278
21
26.13241839429712
0
LINE
8
Polygon
10
65.41884722573278
20
26.13241839429712
11
65.7667952884039
21
26.5030995642364
0
LINE
8
Polygon
10
65.7667952884039
20
26.5030995642364
11
66.07530239933743
21
26.907198248430724
0
LINE
8
Polygon
10
66.07530239933743
20
26.907198248430724
11
66.34117893579484
21
27.340536512868052
0
LINE
8
Polygon
10
66.34117893579484
20
27.340536512868052
11
66.56167602808632
21
27.79863411857577
0
LINE
8
Polygon
10
66.56167602808632
20
27.79863411857577
11
66.73451397984694
21
28.276754842342626
0
LINE
8
Polygon
10
66.73451397984694
20
28.276754842342626
11
66.85790583757873
21
28.769955444034924
0
LINE
8
Polygon
10
66.85790583757873
20
28.769955444034924
11
66.93057586577602
21
29.273136774239
0
LINE
8
Polygon
10
66.93057586577602
20
29.273136774239
11
66.9517727366213
21
29.781096493833488
0
LINE
8
Polygon
10
66.9517727366213
20
29.781096493833488
11
66.92127729788488
21
30.2885828604291
0
LINE
8
Polygon
10
66.92127729788488
20
30.2885828604291
11
66.83940483871689
21
30.790349025583673
0
LINE
8
Polygon
10
66.83940483871689
20
30.790349025583673
11
66.70700182990575
21
31.281207281419203
0
LINE
8
Polygon
10
66.70700182990575
20
31.281207281419203
11
66.52543717230522
21
31.75608269579075
0
LINE
8
Polygon
10
66.52543717230522
20
31.75608269579075
11
66.29658804391181
21
32.21006558147887
0
LINE
8
Polygon
10
66.29658804391181
20
32.21006558147887
11
66.02282049191777
21
32.63846225693205
0
LINE
8
Polygon
10
66.02282049191777
20
32.63846225693205
11
65.70696497039684
21
33.036843573749096
0
LINE
8
Polygon
10
65.70696497039684
20
33.036843573749096
11
65.3522870765357
21
33.40109070918104
0
LINE
8
Polygon
10
65.3522870765357
20
33.40109070918104
11
64.96245378796644
21
33.72743775020854
0
LINE
8
Polygon
10
64.96245378796644
20
33.72743775020854
11
64.54149555026835
21
34.01251062892252
0
LINE
8
Polygon
10
64.54149555026835
20
34.01251062892252
11
64.09376460661306
21
34.25336200665926
0
LINE
8
Polygon
10
64.09376460661306
20
34.25336200665926
11
63.62389000037759
21
34.44750174622641
0
LINE
8
Polygon
10
63.62389000037759
20
34.44750174622641
11
63.58223062029714
21
34.4633364767949
0
LINE
8
Polygon
10
63.58223062029714
20
34.4633364767949
11
63.54131814870484
21
34.48101166587658
0
LINE
8
Polygon
10
63.54131814870484
20
34.48101166587658
11
63.501233847696305
21
34.500492206257185
0
LINE
8
Polygon
10
63.501233847696305
20
34.500492206257185
11
63.46205733441942
21
34.52173940485677
0
LINE
8
Polygon
10
63.46205733441942
20
34.52173940485677
11
63.42386642293538
21
34.544711059583456
0
LINE
8
Polygon
10
63.42386642293538
20
34.544711059583456
11
63.38673696966106
21
34.5693615431571
0
LINE
8
Polygon
10
63.38673696966106
20
34.5693615431571
11
63.350742722699806
21
34.595641893736115
0
LINE
8
Polygon
10
63.350742722699806
20
34.595641893736115
11
63.31595517535975
21
34.62349991216756
0
LINE
8
Polygon
10
63.31595517535975
20
34.62349991216756
11
63.28244342415078
21
34.65288026566734
0
LINE
8
Polygon
10
63.28244342415078
20
34.65288026566734
11
63.25027403154212
21
34.68372459772453
0
LINE
8
Polygon
10
63.25027403154212
20
34.68372459772453
11
63.2195108937531
21
34.71597164401156
0
LINE
8
Polygon
10
63.2195108937531
20
34.71597164401156
11
63.190215113839784
21
34.74955735407006
0
LINE
8
Polygon
10
63.190215113839784
20
34.74955735407006
11
63.1624448803294
21
34.7844150185306
0
LINE
8
Polygon
10
63.1624448803294
20
34.7844150185306
11
63.136255351643925
21
34.82047540161365
0
LINE
8
Polygon
10
63.136255351643925
20
34.82047540161365
11
63.11169854654195
21
34.857666878648686
0
LINE
8
Polygon
10
63.11169854654195
20
34.857666878648686
11
63.08882324079691
21
34.89591557833814
0
LINE
8
Polygon
10
63.08882324079691
20
34.89591557833814
11
63.06767487031648
21
34.935145529483755
0
LINE
8
Polygon
10
63.06767487031648
20
34.935145529483755
11
63.04829544089592
21
34.97527881188374
0
LINE
8
Polygon
10
63.04829544089592
20
34.97527881188374
11
63.030723444784286
21
35.016235711101295
0
LINE
8
Polygon
10
63.030723444784286
20
35.016235711101295
11
63.01499378422953
21
35.05793487679674
0
LINE
8
Polygon
10
63.01499378422953
20
35.05793487679674
11
63.001137702154196
21
35.10029348430909
0
LINE
8
Polygon
10
63.001137702154196
20
35.10029348430909
11
62.98918272009932
21
35.1432273991659
0
LINE
8
Polygon
10
62.98918272009932
20
35.1432273991659
11
62.97915258356004
21
35.18665134419473
0
LINE
8
Polygon
10
62.97915258356004
20
35.18665134419473
11
62.97106721482123
21
35.230479068904344
0
LINE
8
Polygon
10
62.97106721482123
20
35.230479068904344
11
62.96494267338706
21
35.27462352079906
0
LINE
8
Polygon
10
62.96494267338706
20
35.27462352079906
11
62.960791124082874
21
35.318997018286176
0
LINE
8
Polygon
10
62.960791124082874
20
35.318997018286176
11
62.95862081289293
21
35.36351142483285
0
LINE
8
Polygon
10
62.95862081289293
20
35.36351142483285
11
62.958436050581845
21
35.40807832402667
0
LINE
8
Polygon
10
62.958436050581845
20
35.40807832402667
11
62.96023720413242
21
35.45260919519209
0
LINE
8
Polygon
10
62.96023720413242
20
35.45260919519209
11
62.96402069601667
21
35.497015589213966
0
LINE
8
Polygon
10
62.96402069601667
20
35.497015589213966
11
62.96977901130166
21
35.54120930421896
0
LINE
8
Polygon
10
62.96977901130166
20
35.54120930421896
11
62.97750071257605
21
35.58510256076587
0
LINE
8
Polygon
10
62.97750071257605
20
35.58510256076587
11
62.98717046266751
21
35.6286081761969
0
LINE
8
Polygon
10
62.98717046266751
20
35.6286081761969
11
62.99876905510607
21
35.67163973780356
0
LINE
8
Polygon
10
62.99876905510607
20
35.67163973780356
11
63.01227345227285
21
35.71411177446329
0
LINE
8
Polygon
10
63.01227345227285
20
35.71411177446329
11
63.02765683115838
21
35.75593992640583
0
LINE
8
Polygon
10
63.02765683115838
20
35.75593992640583
11
63.04488863663954
21
35.797041112772206
0
LINE
8
Polygon
10
63.04488863663954
20
35.797041112772206
11
63.063934642169514
21
35.83733369663346
0
LINE
8
Polygon
10
63.063934642169514
20
35.83733369663346
11
63.08475701775998
21
35.87673764714142
0
LINE
8
Polygon
10
63.08475701775998
20
35.87673764714142
11
63.107314405120654
21
35.91517469848936
0
LINE
8
Polygon
10
63.107314405120654
20
35.91517469848936
11
63.131561999806884
21
35.95256850536692
0
LINE
8
Polygon
10
63.131561999806884
20
35.95256850536692
11
63.15745164021217
21
35.98884479460037
0
LINE
8
Polygon
10
63.15745164021217
20
35.98884479460037
11
63.184931903228794
21
36.02393151267717
0
LINE
8
Polygon
10
63.184931903228794
20
36.02393151267717
11
63.21394820638656
21
36.05775896886176
0
LINE
8
Polygon
10
63.21394820638656
20
36.05775896886176
11
63.24444291626686
21
36.09025997361823
0
LINE
8
Polygon
10
63.24444291626686
20
36.09025997361823
11
63.27635546297661
21
36.12136997206507
0
LINE
8
Polygon
10
63.27635546297661
20
36.12136997206507
11
63.30962246045475
21
36.1510271721968
0
LINE
8
Polygon
10
63.30962246045475
20
36.1510271721968
11
63.34417783237236
21
36.17917266761791
0
LINE
8
Polygon
10
63.34417783237236
20
36.17917266761791
11
63.528987878165765
21
36.32591128084556
0
LINE
8
Polygon
10
63.528987878165765
20
36.32591128084556
11
63.71087670349886
21
36.47625564840578
0
LINE
8
Polygon
10
63.71087670349886
20
36.47625564840578
11
63.88977396921733
21
36.63014762986222
0
LINE
8
Polygon
10
63.88977396921733
20
36.63014762986222
11
64.06561049304813
21
36.78752771286271
0
LINE
8
Polygon
10
64.06561049304813
20
36.78752771286271
11
64.23831827635327
21
36.94833503615354
0
LINE
8
Polygon
10
64.23831827635327
20
36.94833503615354
11
64.40783053042598
21
37.112507413115445
0
LINE
8
Polygon
10
64.40783053042598
20
37.112507413115445
11
64.57408170231889
21
37.27998135581212
0
LINE
8
Polygon
10
64.57408170231889
20
37.27998135581212
11
64.7370075001943
21
37.45069209954197
0
LINE
8
Polygon
10
64.7370075001943
20
37.45069209954197
11
64.89654491818685
21
37.62457362788355
0
LINE
8
Polygon
10
64.89654491818685
20
37.62457362788355
11
65.05263226076885
21
37.801558698225165
0
LINE
8
Polygon
10
65.05263226076885
20
37.801558698225165
11
65.2052091666088
21
37.98157886776858
0
LINE
8
Polygon
10
65.2052091666088
20
37.98157886776858
11
65.35421663191414
21
38.16456451999688
0
LINE
8
Polygon
10
65.35421663191414
20
38.16456451999688
11
65.4995970332488
21
38.350444891596226
0
LINE
8
Polygon
10
65.4995970332488
20
38.350444891596226
11
65.64129414981711
21
38.539148099821105
0
LINE
8
Polygon
10
65.64129414981711
20
38.539148099821105
11
65.7792531852052
21
38.730601170292495
0
LINE
8
Polygon
10
65.7792531852052
20
38.730601170292495
11
65.91342078857166
21
38.9247300652181
0
LINE
8
Polygon
10
65.91342078857166
20
38.9247300652181
11
66.04374507527902
21
39.12145971202394
0
LINE
8
Polygon
10
66.04374507527902
20
39.12145971202394
11
66.17017564695843
21
39.32071403238602
0
LINE
8
Polygon
10
66.17017564695843
20
39.32071403238602
11
66.29266361099937
21
39.52241597165097
0
LINE
8
Polygon
10
66.29266361099937
20
39.52241597165097
11
66.41116159945723
21
39.72648752863424
0
LINE
8
Polygon
10
66.41116159945723
20
39.72648752863424
11
66.5256237873712
21
39.93284978578434
0
LINE
8
Polygon
10
66.5256237873712
20
39.93284978578434
11
66.63600591048541
21
40.141422939701464
0
LINE
8
Polygon
10
66.63600591048541
20
40.141422939701464
11
66.74226528236667
21
40.352126331998626
0
LINE
8
Polygon
10
66.74226528236667
20
40.352126331998626
11
66.84436081091194
21
40.56487848049354
0
LINE
8
Polygon
10
66.84436081091194
20
40.56487848049354
11
66.94225301423921
21
40.77959711071893
0
LINE
8
Polygon
10
66.94225301423921
20
40.77959711071893
11
67.03590403595582
21
40.99619918773938
0
LINE
8
Polygon
10
67.03590403595582
20
40.99619918773938
11
67.12527765979802
21
41.21460094826216
0
LINE
8
Polygon
10
67.12527765979802
20
41.21460094826216
11
67.21033932363638
21
41.434717933029766
0
LINE
8
Polygon
10
67.21033932363638
20
41.434717933029766
11
67.29105613284155
21
41.65646501948159
0
LINE
8
Polygon
10
67.29105613284155
20
41.65646501948159
11
67.367396873005
21
41.87975645467208
0
LINE
8
Polygon
10
67.367396873005
20
41.87975645467208
11
67.43933202201018
21
42.10450588843275
0
LINE
8
Polygon
10
67.43933202201018
20
42.10450588843275
11
67.5068337614491
21
42.33062640676502
0
LINE
8
Polygon
10
67.5068337614491
20
42.33062640676502
11
67.56987598738023
21
42.55803056545123
0
LINE
8
Polygon
10
67.56987598738023
20
42.55803056545123
11
67.62843432042318
21
42.786630423870626
0
LINE
8
Polygon
10
67.62843432042318
20
42.786630423870626
11
67.68248611518666
21
43.0163375790073
0
LINE
8
Polygon
10
67.68248611518666
20
43.0163375790073
11
67.73201046902571
21
43.247063199637
0
LINE
8
Polygon
10
67.73201046902571
20
43.247063199637
11
67.77698823012517
21
43.4787180606795
0
LINE
8
Polygon
10
67.77698823012517
20
43.4787180606795
11
67.81740200490589
21
43.71121257770325
0
LINE
8
Polygon
10
67.81740200490589
20
43.71121257770325
11
67.85323616475111
21
43.9444568415691
0
LINE
8
Polygon
10
67.85323616475111
20
43.9444568415691
11
67.88447685205033
21
44.178360653199455
0
LINE
8
Polygon
10
67.88447685205033
20
44.178360653199455
11
67.91111198555821
21
44.41283355845964
0
LINE
8
Polygon
10
67.91111198555821
20
44.41283355845964
11
67.93313126506655
21
44.6477848831379
0
LINE
8
Polygon
10
67.93313126506655
20
44.6477848831379
11
67.95052617538761
21
44.883123768010456
0
LINE
8
Polygon
10
67.95052617538761
20
44.883123768010456
11
67.96328998964698
21
45.11875920397816
0
LINE
8
Polygon
10
67.96328998964698
20
45.11875920397816
11
67.97141777188504
21
45.35460006726106
0
LINE
8
Polygon
10
67.97141777188504
20
45.35460006726106
11
67.9749063789657
21
45.5905551546374
0
LINE
8
Polygon
10
67.9749063789657
20
45.5905551546374
11
67.97375446179194
21
45.826533218713195
0
LINE
8
Polygon
10
67.97375446179194
20
45.826533218713195
11
67.96796246582753
21
46.062443003209054
0
LINE
8
Polygon
10
84.94286626793436
20
-23.362430062909535
11
84.87544191308481
21
-23.364938785398746
0
LINE
8
Polygon
10
84.87544191308481
20
-23.364938785398746
11
84.80803272944141
21
-23.367826565850415
0
LINE
8
Polygon
10
84.80803272944141
20
-23.367826565850415
11
84.74064084804127
21
-23.371093312971823
0
LINE
8
Polygon
10
84.74064084804127
20
-23.371093312971823
11
84.67326839937448
21
-23.37473892348982
0
LINE
8
Polygon
10
84.67326839937448
20
-23.37473892348982
11
84.60591751331684
21
-23.378763282154058
0
LINE
8
Polygon
10
84.60591751331684
20
-23.378763282154058
11
84.53859031906245
21
-23.383166261740666
0
LINE
8
Polygon
10
84.53859031906246
20
-23.383166261740666
11
84.47128894505647
21
-23.38794772305625
0
LINE
8
Polygon
10
84.47128894505647
20
-23.38794772305625
11
84.40401551892772
21
-23.393107514942315
0
LINE
8
Polygon
10
84.40401551892772
20
-23.39310751494231
11
84.33677216742156
21
-23.39864547428001
0
LINE
8
Polygon
10
84.33677216742156
20
-23.39864547428001
11
84.26956101633255
21
-23.40456142599531
0
LINE
8
Polygon
10
84.26956101633256
20
-23.40456142599531
11
84.2023841904373
21
-23.410855183064566
0
LINE
8
Polygon
10
84.2023841904373
20
-23.410855183064566
11
84.13524381342728
21
-23.417526546520367
0
LINE
8
Polygon
10
84.1352438134273
20
-23.417526546520367
11
84.06814200784169
21
-23.424575305457886
0
LINE
8
Polygon
10
84.06814200784169
20
-23.424575305457886
11
84.00108089500033
21
-23.432001237041494
0
LINE
8
Polygon
10
84.00108089500033
20
-23.432001237041494
11
83.93406259493656
21
-23.439804106511858
0
LINE
8
Polygon
10
83.93406259493656
20
-23.439804106511858
11
83.86708922633034
21
-23.447983667193327
0
LINE
8
Polygon
10
83.86708922633034
20
-23.447983667193327
11
83.80016290644112
21
-23.456539660501736
0
LINE
8
Polygon
10
83.80016290644112
20
-23.456539660501736
11
83.73328575104102
21
-23.465471815952586
0
LINE
8
Polygon
10
83.73328575104102
20
-23.465471815952586
11
83.6664598743479
21
-23.474779851169597
0
LINE
8
Polygon
10
83.6664598743479
20
-23.474779851169597
11
83.59968738895847
21
-23.484463471893633
0
LINE
8
Polygon
10
83.59968738895847
20
-23.484463471893633
11
83.53297040578164
21
-23.494522371991998
0
LINE
8
Polygon
10
83.53297040578164
20
-23.494522371991994
11
83.46631103397164
21
-23.504956233468118
0
LINE
8
Polygon
10
83.46631103397164
20
-23.504956233468118
11
83.39971138086142
21
-23.515764726471595
0
LINE
8
Polygon
10
83.39971138086142
20
-23.515764726471595
11
83.33317355189604
21
-23.526947509308645
0
LINE
8
Polygon
10
83.33317355189604
20
-23.526947509308645
11
83.26669965056605
21
-23.53850422845288
0
LINE
8
Polygon
10
83.26669965056605
20
-23.53850422845288
11
83.20029177834107
21
-23.550434518556493
0
LINE
8
Polygon
10
83.20029177834107
20
-23.55043451855649
11
83.13395203460325
21
-23.56273800246181
0
LINE
8
Polygon
10
83.13395203460325
20
-23.56273800246181
11
83.06768251658102
21
-23.57541429121322
0
LINE
8
Polygon
10
83.06768251658102
20
-23.57541429121322
11
83.00148531928272
21
-23.58846298406945
0
LINE
8
Polygon
10
83.00148531928272
20
-23.58846298406945
11
82.93536253543036
21
-23.601883668516262
0
LINE
8
Polygon
10
82.93536253543036
20
-23.601883668516262
11
82.86931625539349
21
-23.615675920279465
0
LINE
8
Polygon
10
82.86931625539349
20
-23.615675920279465
11
82.80334856712314
21
-23.62983930333835
0
LINE
8
Polygon
10
82.80334856712315
20
-23.629839303338347
11
82.73746155608575
21
-23.644373369939462
0
LINE
8
Polygon
10
82.73746155608575
20
-23.644373369939462
11
82.67165730519727
21
-23.659277660610766
0
LINE
8
Polygon
10
82.67165730519727
20
-23.659277660610766
11
82.60593789475736
21
-23.674551704176157
0
LINE
8
Polygon
10
82.60593789475736
20
-23.674551704176157
11
82.54030540238354
21
-23.690195017770364
0
LINE
8
Polygon
10
82.54030540238354
20
-23.690195017770364
11
82.47476190294554
21
-23.706207106854233
0
LINE
8
Polygon
10
82.47476190294556
20
-23.706207106854233
11
82.40930946849979
21
-23.722587465230312
0
LINE
8
Polygon
10
82.40930946849979
20
-23.722587465230312
11
82.34395016822373
21
-23.739335575058913
0
LINE
8
Polygon
10
82.34395016822373
20
-23.739335575058913
11
82.27868606835058
21
-23.756450906874438
0
LINE
8
Polygon
10
82.27868606835058
20
-23.756450906874438
11
82.21351923210393
21
-23.773932919602146
0
LINE
8
Polygon
10
82.21351923210395
20
-23.773932919602142
11
82.14845171963258
21
-23.79178106057523
0
LINE
8
Polygon
10
82.14845171963258
20
-23.79178106057523
11
82.08348558794525
21
-23.809994765552318
0
LINE
8
Polygon
10
82.08348558794525
20
-23.809994765552318
11
82.01862289084576
21
-23.828573458735296
0
LINE
8
Polygon
10
82.01862289084576
20
-23.828573458735296
11
81.95386567886797
21
-23.8475165527875
0
LINE
8
Polygon
10
81.95386567886797
20
-23.8475165527875
11
81.88921599921099
21
-23.86682344885232
0
LINE
8
Polygon
10
81.88921599921099
20
-23.86682344885232
11
81.82467589567449
21
-23.886493536572083
0
LINE
8
Polygon
10
81.82467589567449
20
-23.886493536572083
11
81.760247408594
21
-23.906526194107386
0
LINE
8
Polygon
10
81.760247408594
20
-23.906526194107386
11
81.71744023052307
21
-23.918927328993643
0
LINE
8
Polygon
10
81.71744023052307
20
-23.918927328993643
11
81.67412301753333
21
-23.929408822191977
0
LINE
8
Polygon
10
81.67412301753333
20
-23.929408822191977
11
81.63038180812036
21
-23.93794985491366
0
LINE
8
Polygon
10
81.63038180812036
20
-23.93794985491366
11
81.5863034829394
21
-23.94453346259531
0
LINE
8
Polygon
10
81.5863034829394
20
-23.94453346259531
11
81.54197559223948
21
-23.949146568594603
0
LINE
8
Polygon
10
81.54197559223948
20
-23.949146568594603
11
81.4974861819673
21
-23.951780010163713
0
LINE
8
Polygon
10
81.4974861819673
20
-23.951780010163713
11
81.45292361888662
21
-23.95242855664869
0
LINE
8
Polygon
10
81.45292361888662
20
-23.95242855664869
11
81.40837641506037
21
-23.951090919878858
0
LINE
8
Polygon
10
81.40837641506037
20
-23.951090919878858
11
81.36393305204437
21
-23.94776975672541
0
LINE
8
Polygon
10
81.36393305204437
20
-23.94776975672541
11
81.31968180514134
21
-23.94247166382421
0
LINE
8
Polygon
10
81.31968180514134
20
-23.94247166382421
11
81.27571056806477
21
-23.9352071644733
0
LINE
8
Polygon
10
81.27571056806477
20
-23.9352071644733
11
81.23210667836071
21
-23.925990687731055
0
LINE
8
Polygon
10
81.23210667836071
20
-23.925990687731055
11
81.1889567439342
21
-23.914840539756575
0
LINE
8
Polygon
10
81.1889567439342
20
-23.914840539756575
11
81.14634647102498
21
-23.901778867449224
0
LINE
8
Polygon
10
81.14634647102498
20
-23.901778867449224
11
81.104360493974
21
-23.886831614459496
0
LINE
8
Polygon
10
81.104360493974
20
-23.886831614459496
11
81.06308220711922
21
-23.870028469658642
0
LINE
8
Polygon
10
81.06308220711922
20
-23.870028469658642
11
81.02259359915412
21
-23.85140280816937
0
LINE
8
Polygon
10
81.02259359915412
20
-23.85140280816937
11
80.98297509027833
21
-23.830991625074745
0
LINE
8
Polygon
10
80.98297509027833
20
-23.830991625074745
11
80.94430537246352
21
-23.80883546193698
0
LINE
8
Polygon
10
80.94430537246352
20
-23.80883546193698
11
80.90666125315215
21
-23.784978326272046
0
LINE
8
Polygon
10
80.90666125315215
20
-23.78497832627205
11
80.87011750269916
21
-23.759467604140106
0
LINE
8
Polygon
10
80.87011750269916
20
-23.759467604140106
11
80.83474670585996
21
-23.732353966025247
0
LINE
8
Polygon
10
80.83474670585996
20
-23.732353966025247
11
80.80061911761945
21
-23.703691266191644
0
LINE
8
Polygon
10
80.80061911761945
20
-23.703691266191644
11
80.76780252364867
21
-23.67353643571591
0
LINE
8
Polygon
10
80.76780252364867
20
-23.67353643571591
11
80.73636210566585
21
-23.641949369408163
0
LINE
8
Polygon
10
80.73636210566585
20
-23.641949369408163
11
80.70636031196986
21
-23.608992806846405
0
LINE
8
Polygon
10
80.70636031196986
20
-23.60899280684641
11
80.67785673340263
21
-23.57473220776049
0
LINE
8
Polygon
10
80.67785673340263
20
-23.57473220776049
11
80.65090798498734
21
-23.539235622013226
0
LINE
8
Polygon
10
80.65090798498734
20
-23.539235622013226
11
80.62556759347719
21
-23.50257355443683
0
LINE
8
Polygon
10
80.62556759347719
20
-23.50257355443683
11
80.60188589103835
21
-23.46481882479322
0
LINE
8
Polygon
10
80.60188589103835
20
-23.46481882479322
11
80.57990991527801
21
-23.426046423136313
0
LINE
8
Polygon
10
80.57990991527801
20
-23.426046423136313
11
80.55968331581627
21
-23.386333360863567
0
LINE
8
Polygon
10
80.55968331581627
20
-23.386333360863567
11
80.54124626758752
21
-23.345758517752664
0
LINE
8
Polygon
10
80.54124626758752
20
-23.345758517752667
11
80.52463539104308
21
-23.304402485287145
0
LINE
8
Polygon
10
80.52463539104308
20
-23.304402485287145
11
80.50988367941424
21
-23.262347406582144
0
LINE
8
Polygon
10
80.50988367941424
20
-23.262347406582144
11
80.49702043317969
21
-23.219676813228254
0
LINE
8
Polygon
10
80.49702043317969
20
-23.219676813228254
11
80.48607120186759
21
-23.1764754593775
0
LINE
8
Polygon
10
80.48607120186759
20
-23.1764754593775
11
80.47705773330806
21
-23.132829153401048
0
LINE
8
Polygon
10
80.47705773330806
20
-23.132829153401048
11
80.46999793043669
21
-23.08882458745294
0
LINE
8
Polygon
10
80.46999793043669
20
-23.08882458745294
11
80.46490581573497
21
-23.04454916527846
0
LINE
8
Polygon
10
80.46490581573497
20
-23.04454916527846
11
80.46179150337827
21
-23.000090828609068
0
LINE
8
Polygon
10
80.46179150337827
20
-23.00009082860907
11
80.46066117914657
21
-22.955537882488805
0
LINE
8
Polygon
10
80.46066117914657
20
-22.955537882488805
11
80.4615170881381
21
-22.910978819879027
0
LINE
8
Polygon
10
80.4615170881381
20
-22.910978819879027
11
80.46435753030985
21
-22.86650214588993
0
LINE
8
Polygon
10
80.46435753030985
20
-22.86650214588993
11
80.46917686385454
21
-22.822196201987904
0
LINE
8
Polygon
10
80.46917686385454
20
-22.822196201987904
11
80.47596551640633
21
-22.778148990527985
0
LINE
8
Polygon
10
80.47596551640633
20
-22.778148990527985
11
80.48471000405407
21
-22.734447999959777
0
LINE
8
Polygon
10
80.48471000405407
20
-22.734447999959777
11
80.49539295812352
21
-22.691180031054202
0
LINE
8
Polygon
10
80.49539295812352
20
-22.691180031054202
11
80.60310620124251
21
-22.19431964692106
0
LINE
8
Polygon
10
80.60310620124251
20
-22.19431964692106
11
80.65980701784852
21
-21.689089598863394
0
LINE
8
Polygon
10
80.65980701784852
20
-21.689089598863394
11
80.66490918413169
21
-21.180713407482088
0
LINE
8
Polygon
10
80.66490918413169
20
-21.180713407482088
11
80.61835994932869
21
-20.674447121024656
0
LINE
8
Polygon
10
80.61835994932869
20
-20.674447121024656
11
80.52064058110734
21
-20.17552497365238
0
LINE
8
Polygon
10
80.52064058110734
20
-20.17552497365238
11
80.37276138979061
21
-19.689105269241
0
LINE
8
Polygon
10
80.37276138979061
20
-19.689105269241
11
80.1762512828638
21
-19.22021705021672
0
LINE
8
Polygon
10
80.1762512828638
20
-19.22021705021672
11
79.93314195776014
21
-18.773708102812776
0
LINE
8
Polygon
10
79.93314195776014
20
-18.773708102812776
11
79.64594689635351
21
-18.354194836314825
0
LINE
8
Polygon
10
79.64594689635351
20
-18.354194836314825
11
79.31763537833245
21
-17.966014554488392
0
LINE
8
Polygon
10
79.31763537833245
20
-17.966014554488392
11
78.9516017821281
21
-17.613180612649096
0
LINE
8
Polygon
10
78.9516017821281
20
-17.613180612649096
11
78.55163049079081
21
-17.299340924001974
0
LINE
8
Polygon
10
78.55163049079081
20
-17.299340924001974
11
78.12185676564974
21
-17.02774024424857
0
LINE
8
Polygon
10
78.12185676564974
20
-17.02774024424857
11
77.6667239922787
21
-16.801186624397253
0
LINE
8
Polygon
10
77.6667239922787
20
-16.801186624397253
11
77.19093774079766
21
-16.62202237861768
0
LINE
8
Polygon
10
77.19093774079766
20
-16.62202237861768
11
76.69941711547563
21
-16.49209986729968
0
LINE
8
Polygon
10
76.69941711547563
20
-16.49209986729968
11
76.19724389662635
21
-16.412762345693004
0
LINE
8
Polygon
10
76.19724389662635
20
-16.412762345693004
11
75.68961000061337
21
-16.384830076131877
0
LINE
8
Polygon
10
75.68961000061337
20
-16.384830076131877
11
75.18176380117009
21
-16.408591847428525
0
LINE
8
Polygon
10
75.18176380117009
20
-16.408591847428525
11
74.6789558670128
21
-16.483801989115886
0
LINE
8
Polygon
10
74.6789558670128
20
-16.483801989115886
11
74.18638467676027
21
-16.60968291140885
0
LINE
8
Polygon
10
74.18638467676027
20
-16.60968291140885
11
73.70914287240707
21
-16.784933144623686
0
LINE
8
Polygon
10
73.70914287240707
20
-16.784933144623686
11
73.25216460703109
21
-17.00774079493692
0
LINE
8
Polygon
10
73.25216460703109
20
-17.00774079493692
11
72.82017453110102
21
-17.275802277365987
0
LINE
8
Polygon
10
72.82017453110102
20
-17.275802277365987
11
72.41763894480955
21
-17.586346132293315
0
LINE
8
Polygon
10
72.41763894480955
20
-17.586346132293315
11
72.04871962146306
21
-17.936161679297324
0
LINE
8
Polygon
10
72.04871962146306
20
-17.936161679297324
11
71.71723077934288
21
-18.321632212041344
0
LINE
8
Polygon
10
71.71723077934288
20
-18.321632212041344
11
71.42659964690151
21
-18.73877239102198
0
LINE
8
Polygon
10
71.42659964690151
20
-18.73877239102198
11
71.17983102900641
21
-19.183269447577224
0
LINE
8
Polygon
10
71.17983102900641
20
-19.183269447577224
11
70.97947624057672
21
-19.65052777315039
0
LINE
8
Polygon
10
70.97947624057672
20
-19.65052777315039
11
70.82760672880542
21
-20.13571643280609
0
LINE
8
Polygon
10
70.82760672880542
20
-20.13571643280609
11
70.7257926566835
21
-20.633819111761035
0
LINE
8
Polygon
10
70.7257926566835
20
-20.633819111761035
11
70.67508666924903
21
-21.1396859785377
0
LINE
8
Polygon
10
70.67508666924903
20
-21.1396859785377
11
70.67601301040037
21
-21.648086928533086
0
LINE
8
Polygon
10
70.67601301040037
20
-21.648086928533086
11
70.72856210279329
21
-22.15376565752297
0
LINE
8
Polygon
10
70.72856210279329
20
-22.15376565752297
11
70.83219064686013
21
-22.651494006041244
0
LINE
8
Polygon
10
70.83219064686013
20
-22.651494006041244
11
70.9858272379272
21
-23.1361260127736
0
LINE
8
Polygon
10
70.9858272379272
20
-23.1361260127736
11
71.18788344335563
21
-23.602651118113076
0
LINE
8
Polygon
10
71.18788344335563
20
-23.602651118113076
11
71.4362702251801
21
-24.046245967811565
0
LINE
8
Polygon
10
71.4362702251801
20
-24.046245967811565
11
71.7284195384539
21
-24.462324281134656
0
LINE
8
Polygon
10
71.7284195384539
20
-24.462324281134656
11
72.06131088199686
21
-24.84658426793827
0
LINE
8
Polygon
10
72.06131088199686
20
-24.84658426793827
11
72.43150252704096
21
-25.195053104426822
0
LINE
8
Polygon
10
72.43150252704096
20
-25.195053104426822
11
72.835167100904
21
-25.504128007762745
0
LINE
8
Polygon
10
72.835167100904
20
-25.504128007762745
11
73.26813115779525
21
-25.77061348486125
0
LINE
8
Polygon
10
73.26813115779525
20
-25.77061348486125
11
73.72591832763473
21
-25.991754370258967
0
LINE
8
Polygon
10
73.72591832763473
20
-25.991754370258967
11
74.20379559677518
21
-26.1652643114814
0
LINE
8
Polygon
10
74.20379559677518
20
-26.1652643114814
11
74.69682224213479
21
-26.289349407401875
0
LINE
8
Polygon
10
74.69682224213479
20
-26.289349407401875
11
75.19990091281623
21
-26.36272675519762
0
LINE
8
Polygon
10
75.19990091281623
20
-26.362726755197613
11
75.24416734666235
21
-26.367896423988885
0
LINE
8
Polygon
10
75.24416734666235
20
-26.367896423988885
11
75.28815947769185
21
-26.375033303443296
0
LINE
8
Polygon
10
75.28815947769185
20
-26.375033303443296
11
75.33178992685824
21
-26.384123217986556
0
LINE
8
Polygon
10
75.33178992685824
20
-26.384123217986556
11
75.37497203350291
21
-26.395148112842794
0
LINE
8
Polygon
10
75.37497203350291
20
-26.395148112842794
11
75.41762002748436
21
-26.40808608989574
0
LINE
8
Polygon
10
75.41762002748436
20
-26.40808608989574
11
75.45964919953838
21
-26.422911451183683
0
LINE
8
Polygon
10
75.45964919953838
20
-26.422911451183683
11
75.50097606953126
21
-26.439594749941868
0
LINE
8
Polygon
10
75.50097606953126
20
-26.439594749941868
11
75.54151855227164
21
-26.45810284909091
0
LINE
8
Polygon
10
75.54151855227164
20
-26.45810284909091
11
75.5811961205515
21
-26.478398987055073
0
LINE
8
Polygon
10
75.5811961205515
20
-26.478398987055073
11
75.61992996509287
21
-26.5004428507797
0
LINE
8
Polygon
10
75.61992996509287
20
-26.5004428507797
11
75.65764315108203
21
-26.52419065580268
0
LINE
8
Polygon
10
75.65764315108203
20
-26.52419065580268
11
75.6942607709809
21
-26.54959523322106
0
LINE
8
Polygon
10
75.6942607709809
20
-26.54959523322106
11
75.7297100933114
21
-26.576606123379886
0
LINE
8
Polygon
10
75.7297100933114
20
-26.576606123379886
11
75.76392070711793
21
-26.60516967609736
0
LINE
8
Polygon
10
75.76392070711793
20
-26.60516967609736
11
75.79682466182058
21
-26.635229157227116
0
LINE
8
Polygon
10
75.79682466182058
20
-26.635229157227116
11
75.82835660218147
21
-26.666724861345948
0
LINE
8
Polygon
10
75.82835660218147
20
-26.666724861345948
11
75.85845389811611
21
-26.699594230343347
0
LINE
8
Polygon
10
75.85845389811611
20
-26.699594230343347
11
75.88705676909193
21
-26.733771977677023
0
LINE
8
Polygon
10
75.88705676909193
20
-26.733771977677023
11
75.91410840286693
21
-26.76919021804786
0
LINE
8
Polygon
10
75.91410840286693
20
-26.76919021804786
11
75.93955506833264
21
-26.80577860223657
0
LINE
8
Polygon
10
75.93955506833264
20
-26.80577860223657
11
75.96334622223702
21
-26.843464456834308
0
LINE
8
Polygon
10
75.96334622223702
20
-26.843464456834308
11
75.9854346095757
21
-26.882172928589725
0
LINE
8
Polygon
10
75.9854346095757
20
-26.882172928589725
11
76.00577635745192
21
-26.921827133085653
0
LINE
8
Polygon
10
76.00577635745192
20
-26.921827133085653
11
76.02433106221862
21
-26.962348307450227
0
LINE
8
Polygon
10
76.02433106221862
20
-26.962348307450227
11
76.04106186973002
21
-27.003655966799073
0
LINE
8
Polygon
10
76.04106186973002
20
-27.003655966799073
11
76.05593554854282
21
-27.0456680640978
0
LINE
8
Polygon
10
76.05593554854282
20
-27.0456680640978
11
76.06892255592193
21
-27.088301153127315
0
LINE
8
Polygon
10
76.06892255592193
20
-27.088301153127315
11
76.07999709651953
21
-27.131470554228283
0
LINE
8
Polygon
10
76.07999709651953
20
-27.131470554228283
11
76.08913717361085
21
-27.17509052249545
0
LINE
8
Polygon
10
76.08913717361085
20
-27.17509052249545
11
76.09632463278504
21
-27.219074418087853
0
LINE
8
Polygon
10
76.09632463278504
20
-27.219074418087853
11
76.10154519800419
21
-27.263334878316552
0
LINE
8
Polygon
10
76.10154519800419
20
-27.263334878316552
11
76.10478849995907
21
-27.307783991168144
0
LINE
8
Polygon
10
76.10478849995907
20
-27.307783991168144
11
76.10604809666502
21
-27.352333469919326
0
LINE
8
Polygon
10
76.10604809666502
20
-27.352333469919326
11
76.10532148625737
21
-27.396894828495782
0
LINE
8
Polygon
10
76.10532148625737
20
-27.396894828495782
11
76.10261011196069
21
-27.44137955722697
0
LINE
8
Polygon
10
76.10261011196069
20
-27.44137955722697
11
76.09791935922222
21
-27.485699298647816
0
LINE
8
Polygon
10
76.09791935922222
20
-27.485699298647816
11
76.09125854501507
21
-27.52976602299807
0
LINE
8
Polygon
10
76.09125854501507
20
-27.52976602299807
11
76.08264089933245
21
-27.5734922030708
0
LINE
8
Polygon
10
76.08264089933245
20
-27.5734922030708
11
76.07208353890965
21
-27.61679098806261
0
LINE
8
Polygon
10
76.07208353890965
20
-27.61679098806261
11
76.05960743322615
21
-27.659576376080462
0
LINE
8
Polygon
10
76.05960743322615
20
-27.659576376080462
11
76.04523736285503
21
-27.701763384962263
0
LINE
8
Polygon
10
76.04523736285503
20
-27.701763384962263
11
76.02900187024282
21
-27.743268221072082
0
LINE
8
Polygon
10
76.02900187024282
20
-27.743268221072082
11
76.01093320301726
21
-27.78400844573464
0
LINE
8
Polygon
10
76.01093320301726
20
-27.78400844573464
11
75.99106724993563
21
-27.8239031389785
0
LINE
8
Polygon
10
75.99106724993563
20
-27.8239031389785
11
75.96944346960103
21
-27.862873060262817
0
LINE
8
Polygon
10
75.96944346960103
20
-27.862873060262817
11
75.94610481208807
21
-27.90084080586821
0
LINE
8
Polygon
10
75.94610481208807
20
-27.90084080586821
11
75.92109763363342
21
-27.937730962639385
0
LINE
8
Polygon
10
75.92109763363342
20
-27.937730962639385
11
75.8944716045613
21
-27.973470257773936
0
LINE
8
Polygon
10
75.8944716045613
20
-27.97347025777394
11
75.85311613471013
21
-28.026781255033384
0
LINE
8
Polygon
10
75.85311613471013
20
-28.026781255033384
11
75.81206106294229
21
-28.080323933314776
0
LINE
8
Polygon
10
75.81206106294229
20
-28.080323933314776
11
75.7713076871504
21
-28.134096599949142
0
LINE
8
Polygon
10
75.7713076871504
20
-28.13409659994914
11
75.73085729568938
21
-28.188097554996776
0
LINE
8
Polygon
10
75.73085729568938
20
-28.188097554996776
11
75.6907111673358
21
-28.24232509130101
0
LINE
8
Polygon
10
75.6907111673358
20
-28.24232509130101
11
75.65087057124747
21
-28.29677749454212
0
LINE
8
Polygon
10
75.65087057124747
20
-28.29677749454212
11
75.61133676692317
21
-28.351453043291595
0
LINE
8
Polygon
10
75.61133676692317
20
-28.351453043291595
11
75.57211100416305
21
-28.406350009066518
0
LINE
8
Polygon
10
75.57211100416305
20
-28.406350009066518
11
75.5331945230289
21
-28.4614666563842
0
LINE
8
Polygon
10
75.5331945230289
20
-28.4614666563842
11
75.49458855380507
21
-28.516801242817074
0
LINE
8
Polygon
10
75.49458855380507
20
-28.516801242817074
11
75.45629431695963
21
-28.572352019047763
0
LINE
8
Polygon
10
75.45629431695963
20
-28.57235201904776
11
75.41831302310563
21
-28.62811722892437
0
LINE
8
Polygon
10
75.41831302310563
20
-28.62811722892437
11
75.38064587296293
21
-28.68409510951604
0
LINE
8
Polygon
10
75.38064587296293
20
-28.68409510951604
11
75.34329405732024
21
-28.740283891168627
0
LINE
8
Polygon
10
75.34329405732024
20
-28.740283891168627
11
75.30625875699747
21
-28.796681797560698
0
LINE
8
Polygon
10
75.30625875699747
20
-28.796681797560698
11
75.26954114280834
21
-28.853287045759657
0
LINE
8
Polygon
10
75.26954114280834
20
-28.85328704575965
11
75.23314237552346
21
-28.910097846278116
0
LINE
8
Polygon
10
75.23314237552346
20
-28.910097846278116
11
75.19706360583356
21
-28.967112403130468
0
LINE
8
Polygon
10
75.19706360583356
20
-28.967112403130468
11
75.16130597431315
21
-29.024328913889676
0
LINE
8
Polygon
10
75.16130597431315
20
-29.024328913889676
11
75.12587061138446
21
-29.081745569744218
0
LINE
8
Polygon
10
75.12587061138446
20
-29.08174556974421
11
75.0907586372817
21
-29.139360555555317
0
LINE
8
Polygon
10
75.0907586372817
20
-29.139360555555317
11
75.05597116201561
21
-29.1971720499143
0
LINE
8
Polygon
10
75.05597116201561
20
-29.1971720499143
11
75.02150928533844
21
-29.25517822520017
0
LINE
8
Polygon
10
75.02150928533844
20
-29.25517822520017
11
74.98737409670912
21
-29.31337724763739
0
LINE
8
Polygon
10
74.98737409670912
20
-29.31337724763739
11
74.95356667525887
21
-29.37176727735388
0
LINE
8
Polygon
10
74.95356667525887
20
-29.37176727735387
11
74.92008808975702
21
-29.430346468439122
0
LINE
8
Polygon
10
74.92008808975702
20
-29.430346468439122
11
74.88693939857728
21
-29.4891129690026
0
LINE
8
Polygon
10
74.88693939857728
20
-29.4891129690026
11
74.85412164966426
21
-29.548064921232275
0
LINE
8
Polygon
10
74.85412164966426
20
-29.548064921232275
11
74.82163588050035
21
-29.60720046145334
0
LINE
8
Polygon
10
74.82163588050035
20
-29.60720046145333
11
74.78948311807291
21
-29.66651772018712
0
LINE
8
Polygon
10
74.78948311807291
20
-29.66651772018712
11
74.75766437884178
21
-29.726014822210235
0
LINE
8
Polygon
10
74.75766437884178
20
-29.726014822210235
11
74.72618066870722
21
-29.785689886613802
0
LINE
8
Polygon
10
74.72618066870722
20
-29.785689886613802
11
74.69503298297802
21
-29.845541026862943
0
LINE
8
Polygon
10
74.69503298297802
20
-29.845541026862943
11
74.66422230634011
21
-29.90556635085641
0
LINE
8
Polygon
10
74.66422230634011
20
-29.90556635085641
11
74.63374961282538
21
-29.96576396098642
0
LINE
8
Polygon
10
74.63374961282538
20
-29.96576396098642
11
74.60361586578091
21
-30.02613195419861
0
LINE
8
Polygon
10
74.60361586578091
20
-30.02613195419861
11
74.57382201783852
21
-30.086668422052238
0
LINE
8
Polygon
10
74.57382201783852
20
-30.086668422052238
11
74.54436901088464
21
-30.147371450780476
0
LINE
8
Polygon
10
74.54436901088464
20
-30.14737145078047
11
74.51525777603052
21
-30.208239121350942
0
LINE
8
Polygon
10
74.51525777603052
20
-30.208239121350942
11
74.48648923358284
21
-30.269269509526374
0
LINE
8
Polygon
10
74.48648923358284
20
-30.269269509526374
11
74.4580642930146
21
-30.33046068592542
0
LINE
8
Polygon
10
74.4580642930146
20
-30.33046068592542
11
74.42998385293632
21
-30.39181071608366
0
LINE
8
Polygon
10
74.42998385293632
20
-30.391810716083654
11
74.4022488010677
21
-30.453317660514767
0
LINE
8
Polygon
10
74.4022488010677
20
-30.453317660514767
11
74.3748600142095
21
-30.514979574771818
0
LINE
8
Polygon
10
74.3748600142095
20
-30.514979574771818
11
74.34781835821586
21
-30.576794509508737
0
LINE
8
Polygon
10
74.34781835821586
20
-30.576794509508737
11
74.32112468796694
21
-30.638760510541957
0
LINE
8
Polygon
10
74.32112468796694
20
-30.63876051054195
11
74.29477984734183
21
-30.70087561891218
0
LINE
8
Polygon
10
74.29477984734183
20
-30.70087561891218
11
74.26878466919193
21
-30.76313787094631
0
LINE
8
Polygon
10
84.94286626793436
20
-23.362430062909535
11
82.53789819770276
21
46.563547619573455
0
LINE
8
Polygon
10
46.675543077495654
20
38.06583502903593
11
30.962101759446973
21
25.25087401276722
0
LINE
8
Polygon
10
30.962101759446973
20
25.25087401276722
11
50.0
21
-20.710678118654748
0
LINE
8
Polygon
10
50.0
20
-20.710678118654748
11
74.26878466919193
21
-30.76313787094631
0
LINE
8
Polygon
10
73.46513301416788
20
46.25150749802967
11
73.48426959639323
21
46.252625257864835
0
LINE
8
Polygon
10
73.48426959639323
20
46.252625257864835
11
73.5033306529315
21
46.25465855321026
0
LINE
8
Polygon
10
73.5033306529315
20
46.25465855321026
11
73.52227240790215
21
46.25760271437232
0
LINE
8
Polygon
10
73.52227240790215
20
46.25760271437232
11
73.54105135941428
21
46.261450979750634
0
LINE
8
Polygon
10
73.54105135941428
20
46.261450979750634
11
73.55962437947359
21
46.266194511366834
0
LINE
8
Polygon
10
73.55962437947359
20
46.266194511366834
11
73.57794881303072
21
46.27182241516197
0
LINE
8
Polygon
10
73.57794881303072
20
46.27182241516197
11
73.59598257594345
21
46.278321766016006
0
LINE
8
Polygon
10
73.59598257594345
20
46.278321766016006
11
73.61368425162775
21
46.28567763743177
0
LINE
8
Polygon
10
73.61368425162775
20
46.28567763743177
11
73.63101318617554
21
46.29387313581535
0
LINE
8
Polygon
10
73.63101318617554
20
46.29387313581535
11
73.6479295817211
21
46.30288943927423
0
LINE
8
Polygon
10
73.6479295817211
20
46.30288943927423
11
73.66439458784141
21
46.31270584084379
0
LINE
8
Polygon
10
73.66439458784141
20
46.31270584084379
11
73.6803703907805
21
46.32329979604328
0
LINE
8
Polygon
10
73.6803703907805
20
46.32329979604328
11
73.695820300293
21
46.33464697465175
0
LINE
8
Polygon
10
73.695820300293
20
46.33464697465175
11
73.71070883390753
21
46.346721316585175
0
LINE
8
Polygon
10
73.71070883390753
20
46.346721316585175
11
73.72500179841626
21
46.35949509174639
0
LINE
8
Polygon
10
73.72500179841626
20
46.35949509174639
11
73.73866636840334
21
46.37293896371041
0
LINE
8
Polygon
10
73.73866636840334
20
46.37293896371041
11
73.75167116163233
21
46.38702205709887
0
LINE
8
Polygon
10
73.75167116163233
20
46.38702205709887
11
73.76398631111904
21
46.401712028488795
0
LINE
8
Polygon
10
73.76398631111904
20
46.401712028488795
11
73.77558353372442
21
46.41697514069301
0
LINE
8
Polygon
10
73.77558353372442
20
46.41697514069301
11
73.78643619510999
21
46.432776340241375
0
LINE
8
Polygon
10
73.78643619510999
20
46.432776340241375
11
73.79651937090667
21
46.44907933788505
0
LINE
8
Polygon
10
73.79651937090667
20
46.44907933788505
11
73.80580990395643
21
46.465846691938935
0
LINE
8
Polygon
10
73.80580990395643
20
46.465846691938935
11
73.81428645749527
21
46.483039894270675
0
LINE
8
Polygon
10
73.81428645749527
20
46.483039894270675
11
73.82192956415555
21
46.50061945873901
0
LINE
8
Polygon
10
73.82192956415555
20
46.50061945873901
11
73.82872167067505
21
46.51854501187816
0
LINE
8
Polygon
10
73.82872167067505
20
46.51854501187816
11
73.83464717820998
21
46.53677538562009
0
LINE
8
Polygon
10
73.83464717820998
20
46.53677538562009
11
73.83969247815948
21
46.55526871184163
0
LINE
8
Polygon
10
73.83969247815948
20
46.55526871184163
11
73.8438459834194
21
46.573982518519394
0
LINE
8
Polygon
10
73.8438459834194
20
46.573982518519394
11
73.8470981549933
21
46.59287382727159
0
LINE
8
Polygon
10
73.8470981549933
20
46.59287382727159
11
73.84944152389994
21
46.611899252062756
0
LINE
8
Polygon
10
73.84944152389994
20
46.611899252062756
11
73.85087070832654
21
46.63101509884473
0
LINE
8
Polygon
10
73.85087070832654
20
46.63101509884473
11
73.8513824259888
21
46.65017746590495
0
LINE
8
Polygon
10
73.8513824259888
20
46.65017746590495
11
73.85097550166901
21
46.669342344691806
0
LINE
8
Polygon
10
73.85097550166901
20
46.669342344691806
11
73.84965086991507
21
46.68846572088518
0
LINE
8
Polygon
10
73.84965086991507
20
46.68846572088518
11
73.84741157289422
21
46.70750367548039
0
LINE
8
Polygon
10
73.84741157289422
20
46.70750367548039
11
73.84426275340627
21
46.72641248565314
0
LINE
8
Polygon
10
73.84426275340627
20
46.72641248565314
11
73.84021164307273
21
46.74514872517399
0
LINE
8
Polygon
10
73.84021164307273
20
46.74514872517399
11
73.83526754572844
21
46.763669364141556
0
LINE
8
Polygon
10
73.83526754572844
20
46.763669364141556
11
73.8294418160543
21
46.78193186780564
0
LINE
8
Polygon
10
73.8294418160543
20
46.78193186780564
11
73.82274783349993
21
46.79989429425305
0
LINE
8
Polygon
10
73.82274783349993
20
46.79989429425305
11
73.81520097155634
21
46.81751539073202
0
LINE
8
Polygon
10
73.81520097155634
20
46.81751539073202
11
73.80681856244881
21
46.83475468839378
0
LINE
8
Polygon
10
73.80681856244881
20
46.83475468839378
11
73.79761985733161
21
46.851572595233925
0
LINE
8
Polygon
10
73.79761985733161
20
46.851572595233925
11
73.78762598207545
21
46.86793048701989
0
LINE
8
Polygon
10
73.78762598207545
20
46.86793048701989
11
73.77685988874957
21
46.88379079599592
0
LINE
8
Polygon
10
73.77685988874957
20
46.88379079599592
11
73.76534630290965
21
46.89911709716169
0
LINE
8
Polygon
10
73.76534630290965
20
46.89911709716169
11
73.75311166681283
21
46.913874191926425
0
LINE
8
Polygon
10
73.75311166681283
20
46.913874191926425
11
73.74018407869004
21
46.928028188946485
0
LINE
8
Polygon
10
73.74018407869004
20
46.92802818894648
11
73.6143729575919
21
47.07258364787045
0
LINE
8
Polygon
10
73.6143729575919
20
47.07258364787045
11
73.5029745617629
21
47.228516698579455
0
LINE
8
Polygon
10
73.5029745617629
20
47.228516698579455
11
73.40701165989614
21
47.39439569170998
0
LINE
8
Polygon
10
73.40701165989614
20
47.39439569170998
11
73.32736530464048
21
47.56869766241363
0
LINE
8
Polygon
10
73.32736530464048
20
47.56869766241363
11
73.26476674349792
21
47.74982231297111
0
LINE
8
Polygon
10
73.26476674349792
20
47.74982231297111
11
73.21979070510878
21
47.936106705413174
0
LINE
8
Polygon
10
73.21979070510878
20
47.936106705413174
11
73.19285012256479
21
48.12584052925299
0
LINE
8
Polygon
10
73.19285012256479
20
48.12584052925299
11
73.18419234219616
21
48.317281804154135
0
LINE
8
Polygon
10
73.18419234219616
20
48.317281804154135
11
73.19389685264046
21
48.50867287336512
0
LINE
8
Polygon
10
73.19389685264046
20
48.50867287336512
11
73.22187455504317
21
48.69825654108192
0
LINE
8
Polygon
10
73.22187455504317
20
48.69825654108192
11
73.26786858109028
21
48.88429220557845
0
LINE
8
Polygon
10
73.26786858109028
20
48.88429220557845
11
73.33145665136239
21
49.06507183998387
0
LINE
8
Polygon
10
73.33145665136239
20
49.06507183998387
11
73.41205495235802
21
49.23893567398424
0
LINE
8
Polygon
10
73.41205495235802
20
49.23893567398424
11
73.50892349659027
21
49.404287432472046
0
LINE
8
Polygon
10
73.50892349659027
20
49.404287432472046
11
73.62117291654494
21
49.559608991234924
0
LINE
8
Polygon
10
73.62117291654494
20
49.559608991234924
11
73.74777263012346
21
49.703474315126826
0
LINE
8
Polygon
10
73.74777263012346
20
49.703474315126826
11
73.88756030260247
21
49.83456255075303
0
LINE
8
Polygon
10
73.88756030260247
20
49.83456255075303
11
74.0392525182377
21
49.951670153462516
0
LINE
8
Polygon
10
74.0392525182377
20
49.951670153462516
11
74.20145656353463
21
50.05372193730775
0
LINE
8
Polygon
10
74.20145656353463
20
50.05372193730775
11
74.37268321400144
21
50.13978094652008
0
LINE
8
Polygon
10
74.37268321400144
20
50.13978094652008
11
74.55136040698662
21
50.20905705786903
0
LINE
8
Polygon
10
74.55136040698662
20
50.20905705786903
11
74.73584767506871
21
50.26091423492572
0
LINE
8
Polygon
10
74.73584767506871
20
50.26091423492572
11
74.92445120748268
21
50.294876367627616
0
LINE
8
Polygon
10
74.92445120748268
20
50.294876367627616
11
75.1154394013008
21
50.31063164353055
0
LINE
8
Polygon
10
75.1154394013008
20
50.31063164353055
11
75.30705875959046
21
50.30803541061485
0
LINE
8
Polygon
10
75.30705875959046
20
50.30803541061485
11
75.49754999058453
21
50.28711150536154
0
LINE
8
Polygon
10
75.49754999058453
20
50.28711150536154
11
75.68516416005541
21
50.24805203390527
0
LINE
8
Polygon
10
75.68516416005541
20
50.24805203390527
11
75.86817874859436
21
50.19121560827341
0
LINE
8
Polygon
10
75.86817874859436
20
50.19121560827341
11
76.04491346637187
21
50.11712405390457
0
LINE
8
Polygon
10
76.04491346637187
20
50.11712405390457
11
76.21374568018054
21
50.02645761867546
0
LINE
8
Polygon
10
76.21374568018054
20
50.02645761867546
11
76.37312531112212
21
49.92004872742285
0
LINE
8
Polygon
10
76.37312531112212
20
49.92004872742285
11
76.52158906616062
21
49.79887433930159
0
LINE
8
Polygon
10
76.52158906616062
20
49.79887433930159
11
76.65777387287845
21
49.66404697814699
0
LINE
8
Polygon
10
76.65777387287845
20
49.66404697814699
11
76.78042939408947
21
49.51680451819355
0
LINE
8
Polygon
10
76.78042939408947
20
49.51680451819355
11
76.88842950740926
21
49.35849881892913
0
LINE
8
Polygon
10
76.88842950740926
20
49.35849881892913
11
76.98078264438722
21
49.19058331343002
0
LINE
8
Polygon
10
76.98078264438722
20
49.19058331343002
11
77.05664089427465
21
49.01459966413071
0
LINE
8
Polygon
10
77.05664089427465
20
49.01459966413071
11
77.11530778884577
21
48.83216360854391
0
LINE
8
Polygon
10
77.11530778884577
20
48.83216360854391
11
77.15624469679767
21
48.64495012488414
0
LINE
8
Polygon
10
77.15624469679767
20
48.64495012488414
11
77.17907576902108
21
48.454678053791675
0
LINE
8
Polygon
10
77.17907576902108
20
48.454678053791675
11
77.18359138933864
21
48.263094317347694
0
LINE
8
Polygon
10
77.18359138933864
20
48.263094317347694
11
77.16975009902865
21
48.07195788026873
0
LINE
8
Polygon
10
77.16975009902865
20
48.07195788026873
11
77.13767897746504
21
47.88302360053543
0
LINE
8
Polygon
10
77.13767897746504
20
47.88302360053543
11
77.08767247537884
21
47.69802611772609
0
LINE
8
Polygon
10
77.08767247537884
20
47.69802611772609
11
77.02018971145311
21
47.5186639269789
0
LINE
8
Polygon
10
77.02018971145311
20
47.5186639269789
11
76.9358502570717
21
47.34658378480283
0
LINE
8
Polygon
10
76.93585025707172
20
47.34658378480283
11
76.83542844792316
21
47.18336558991017
0
LINE
8
Polygon
10
76.83542844792316
20
47.18336558991017
11
76.71984627468548
21
47.030507877882464
0
LINE
8
Polygon
10
76.7198462746855
20
47.030507877882464
11
76.70792168219323
21
47.01549913842138
0
LINE
8
Polygon
10
76.70792168219323
20
47.01549913842138
11
76.69672984003795
21
46.999936335476924
0
LINE
8
Polygon
10
76.69672984003795
20
46.999936335476924
11
76.68629645155588
21
46.98385521079303
0
LINE
8
Polygon
10
76.68629645155588
20
46.98385521079303
11
76.67664547820824
21
46.96729269649839
0
LINE
8
Polygon
10
76.67664547820824
20
46.96729269649839
11
76.66779908455112
21
46.950286830287574
0
LINE
8
Polygon
10
76.66779908455112
20
46.950286830287574
11
76.65977758733196
21
46.93287666806318
0
LINE
8
Polygon
10
76.65977758733196
20
46.93287666806318
11
76.65259940882989
21
46.91510219423948
0
LINE
8
Polygon
10
76.65259940882989
20
46.91510219423948
11
76.64628103454682
21
46.89700422991373
0
LINE
8
Polygon
10
76.64628103454682
20
46.89700422991373
11
76.64083697534669
21
46.878624339115845
0
LINE
8
Polygon
10
76.64083697534669
20
46.878624339115845
11
76.63627973412957
21
46.860004733351865
0
LINE
8
Polygon
10
76.63627973412957
20
46.860004733351865
11
76.63261977711736
21
46.84118817466051
0
LINE
8
Polygon
10
76.63261977711736
20
46.8411881746605
11
76.62986550981685
21
46.82221787740521
0
LINE
8
Polygon
10
76.62986550981685
20
46.82221787740521
11
76.62802325771564
21
46.80313740902751
0
LINE
8
Polygon
10
76.62802325771564
20
46.80313740902751
11
76.62709725175485
21
46.783990589989415
0
LINE
8
Polygon
10
76.62709725175485
20
46.783990589989415
11
76.6270896186123
21
46.764821393134774
0
LINE
8
Polygon
10
76.6270896186123
20
46.764821393134774
11
76.62800037581836
21
46.74567384270062
0
LINE
8
Polygon
10
76.62800037581836
20
46.74567384270062
11
76.62982743171571
21
46.72659191321053
0
LINE
8
Polygon
10
76.62982743171571
20
46.72659191321053
11
76.63256659026304
21
46.707619428482126
0
LINE
8
Polygon
10
76.63256659026304
20
46.707619428482126
11
76.63621156067174
21
46.68879996098072
0
LINE
8
Polygon
10
76.63621156067174
20
46.68879996098072
11
76.64075397185343
21
46.670176731750175
0
LINE
8
Polygon
10
76.64075397185343
20
46.670176731750175
11
76.64618339164507
21
46.651792511150894
0
LINE
8
Polygon
10
76.64618339164507
20
46.651792511150894
11
76.65248735076766
21
46.633689520632814
0
LINE
8
Polygon
10
76.65248735076766
20
46.633689520632814
11
76.65965137146331
21
46.61590933576907
0
LINE
8
Polygon
10
76.65965137146331
20
46.61590933576907
11
76.66765900074513
21
46.59849279077295
0
LINE
8
Polygon
10
76.66765900074513
20
46.59849279077295
11
76.67649184818328
21
46.58147988471751
0
LINE
8
Polygon
10
76.67649184818328
20
46.58147988471751
11
76.68612962814073
21
46.56490968967313
0
LINE
8
Polygon
10
76.68612962814073
20
46.56490968967313
11
76.69655020636154
21
46.54882026097411
0
LINE
8
Polygon
10
76.69655020636154
20
46.54882026097411
11
76.7077296508047
21
46.53324854982024
0
LINE
8
Polygon
10
76.7077296508047
20
46.53324854982024
11
76.7196422866067
21
46.5182303184142
0
LINE
8
Polygon
10
76.7196422866067
20
46.5182303184142
11
76.7322607550469
21
46.50380005782956
0
LINE
8
Polygon
10
76.7322607550469
20
46.50380005782956
11
76.74555607637981
21
46.489990908798156
0
LINE
8
Polygon
10
76.74555607637981
20
46.489990908798156
11
76.75949771639046
21
46.47683458559864
0
LINE
8
Polygon
10
76.75949771639046
20
46.47683458559864
11
76.77405365651964
21
46.46436130322098
0
LINE
8
Polygon
10
76.77405365651964
20
46.46436130322098
11
76.78919046739814
21
46.452599707974386
0
LINE
8
Polygon
10
76.78919046739814
20
46.452599707974386
11
76.8048733856212
21
46.441576811697736
0
LINE
8
Polygon
10
76.8048733856212
20
46.441576811697736
11
76.82106639358646
21
46.43131792972387
0
LINE
8
Polygon
10
76.82106639358646
20
46.43131792972387
11
76.8377323022126
21
46.42184662274001
0
LINE
8
Polygon
10
76.8377323022126
20
46.42184662274001
11
76.85483283634821
21
46.41318464267804
0
LINE
8
Polygon
10
76.85483283634821
20
46.41318464267804
11
76.87232872267504
21
46.40535188275863
0
LINE
8
Polygon
10
76.87232872267504
20
46.40535188275863
11
76.89017977990372
21
46.398366331804276
0
LINE
8
Polygon
10
76.89017977990372
20
46.398366331804276
11
76.90834501105445
21
46.39224403292586
0
LINE
8
Polygon
10
76.90834501105445
20
46.39224403292586
11
76.9267826976115
21
46.3869990466779
0
LINE
8
Polygon
10
76.9267826976115
20
46.3869990466779
11
76.94545049533423
21
46.38264341876682
0
LINE
8
Polygon
10
76.94545049533423
20
46.38264341876682
11
76.96430553150567
21
46.37918715238665
0
LINE
8
Polygon
10
76.96430553150567
20
46.37918715238665
11
76.98330450339445
21
46.376638185245554
0
LINE
8
Polygon
10
76.98330450339445
20
46.376638185245554
11
77.00240377770449
21
46.37500237133598
0
LINE
8
Polygon
10
77.00240377770449
20
46.37500237133598
11
77.02155949078382
21
46.374283467490315
0
LINE
8
Polygon
10
77.02155949078382
20
46.374283467490315
11
77.04072764936242
21
46.37448312475285
0
LINE
8
Polygon
10
67.96796246582753
20
46.062443003209054
11
73.46513301416788
21
46.25150749802967
0
LINE
8
Polygon
10
82.53789819770276
20
46.563547619573455
11
77.04072764936242
21
46.37448312475285
0
LINE
8
Polygon
10
73.74018407869004
20
46.928028188946485
11
73.74018407869004
21
46.92802818894648
0
LINE
8
Polygon
10
76.7198462746855
20
47.030507877882464
11
76.7198462746855
21
47.030507877882464
0
ENDSEC
0
EOF
