0
SECTION
2
ENTITIES
0
LINE
8
Polygon
10
0.4667554307749565
20
0.3806583502903593
11
0.46826476570125863
21
0.37884434768725805
0
LINE
8
Polygon
10
0.46826476570125863
20
0.37884434768725805
11
0.46980947955538144
21
0.37706037558190025
0
LINE
8
Polygon
10
0.46980947955538144
20
0.37706037558190025
11
0.47138897497316035
21
0.37530712386322757
0
LINE
8
Polygon
10
0.4713889749731604
20
0.3753071238632275
11
0.47300264113987556
21
0.3735852705401444
0
LINE
8
Polygon
10
0.47300264113987556
20
0.3735852705401444
11
0.4746498540264623
21
0.3718954814793217
0
LINE
8
Polygon
10
0.4746498540264623
20
0.3718954814793217
11
0.47632997663083326
21
0.37023841014769615
0
LINE
8
Polygon
10
0.47632997663083326
20
0.37023841014769615
11
0.4780423592242164
21
0.3686146973597647
0
LINE
8
Polygon
10
0.4780423592242164
20
0.3686146973597647
11
0.4797863396024149
21
0.36702497102977194
0
LINE
8
Polygon
10
0.4797863396024149
20
0.36702497102977194
11
0.48156124334189154
21
0.3654698459288861
0
LINE
8
Polygon
10
0.48156124334189154
20
0.3654698459288861
11
0.4833663840605788
21
0.36394992344745786
0
LINE
8
Polygon
10
0.4833663840605788
20
0.36394992344745786
11
0.4852010636833125
21
0.3624657913624536
0
LINE
8
Polygon
10
0.4852010636833125
20
0.3624657913624536
11
0.4870645727117887
21
0.3610180236101531
0
LINE
8
Polygon
10
0.48706457271178877
20
0.3610180236101531
11
0.488956190498937
21
0.35960718006419984
0
LINE
8
Polygon
10
0.488956190498937
20
0.35960718006419984
11
0.49087518552760556
21
0.3582338063190893
0
LINE
8
Polygon
10
0.49087518552760556
20
0.3582338063190893
11
0.49282081569345015
21
0.3568984334791794
0
LINE
8
Polygon
10
0.49282081569345015
20
0.3568984334791794
11
0.4947923285919169
21
0.3556015779533043
0
LINE
8
Polygon
10
0.49479232859191696
20
0.35560157795330427
11
0.49678896180920873
21
0.3543437412550717
0
LINE
8
Polygon
10
0.49678896180920873
20
0.3543437412550717
11
0.4988099432171217
21
0.3531254098089194
0
LINE
8
Polygon
10
0.4988099432171217
20
0.3531254098089194
11
0.5008544912716393
21
0.3519470547620079
0
LINE
8
Polygon
10
0.5008544912716393
20
0.3519470547620079
11
0.502921815315167
21
0.35080913180202083
0
LINE
8
Polygon
10
0.502921815315167
20
0.35080913180202083
11
0.5050111158822916
21
0.34971208098094353
0
LINE
8
Polygon
10
0.5050111158822916
20
0.3497120809809435
11
0.5071215850089463
21
0.348656326544888
0
LINE
8
Polygon
10
0.5071215850089463
20
0.348656326544888
11
0.509252406544863
21
0.3476422767700311
0
LINE
8
Polygon
10
0.509252406544863
20
0.3476422767700311
11
0.5114027564691895
21
0.3466703238047275
0
LINE
8
Polygon
10
0.5114027564691895
20
0.3466703238047275
11
0.5135718032091513
21
0.3457408435178602
0
LINE
8
Polygon
10
0.5135718032091513
20
0.3457408435178602
11
0.5157587079616328
21
0.3448541953534865
0
LINE
8
Polygon
10
0.5157587079616328
20
0.3448541953534865
11
0.5179626250175556
21
0.3440107221918351
0
LINE
8
Polygon
10
0.5179626250175556
20
0.3440107221918351
11
0.5201827020889267
21
0.34321075021670966
0
LINE
8
Polygon
10
0.5201827020889267
20
0.34321075021670966
11
0.5224180806384311
21
0.3424545887893483
0
LINE
8
Polygon
10
0.5224180806384311
20
0.3424545887893483
11
0.5246678962114414
21
0.3417425303287891
0
LINE
8
Polygon
10
0.5246678962114414
20
0.3417425303287891
11
0.5269312787703151
21
0.3410748501987869
0
LINE
8
Polygon
10
0.5269312787703151
20
0.3410748501987869
11
0.5292073530308518
21
0.34045180660132657
0
LINE
8
Polygon
10
0.5292073530308518
20
0.34045180660132657
11
0.531495238800778
21
0.3398736404767718
0
LINE
8
Polygon
10
0.531495238800778
20
0.3398736404767718
11
0.5337940513201316
21
0.3393405754106903
0
LINE
8
Polygon
10
0.5337940513201316
20
0.3393405754106903
11
0.5361029016034116
21
0.3388528175473895
0
LINE
8
Polygon
10
0.5361029016034116
20
0.3388528175473895
11
0.5384208967833618
21
0.3384105555101977
0
LINE
8
Polygon
10
0.5384208967833618
20
0.3384105555101977
11
0.5407471404562568
21
0.3380139603285206
0
LINE
8
Polygon
10
0.5407471404562568
20
0.3380139603285206
11
0.5430807330285543
21
0.3376631853717013
0
LINE
8
Polygon
10
0.5430807330285543
20
0.3376631853717013
11
0.5454207720647817
21
0.3373583662897106
0
LINE
8
Polygon
10
0.5454207720647817
20
0.3373583662897106
11
0.5477663526365214
21
0.3370996209606886
0
LINE
8
Polygon
10
0.5477663526365214
20
0.3370996209606886
11
0.5501165676723605
21
0.33688704944535963
0
LINE
8
Polygon
10
0.5501165676723605
20
0.33688704944535963
11
0.5524705083086688
21
0.3367207339483375
0
LINE
8
Polygon
10
0.5524705083086688
20
0.3367207339483375
11
0.5548272642410704
21
0.33660073878633534
0
LINE
8
Polygon
10
0.5548272642410704
20
0.33660073878633534
11
0.5571859240764714
21
0.33652711036329364
0
LINE
8
Polygon
10
0.5571859240764714
20
0.33652711036329364
11
0.5595455756855103
21
0.3364998771524349
0
LINE
8
Polygon
10
0.5595455756855103
20
0.3364998771524349
11
0.5619053065552916
21
0.3365190496852528
0
LINE
8
Polygon
10
0.5619053065552917
20
0.3365190496852528
11
0.5642642041422686
21
0.3365846205474397
0
LINE
8
Polygon
10
0.5666213562251374
20
0.3366965643817532
11
0.5670667560582208
21
0.33671216094469686
0
LINE
8
Polygon
10
0.5670667560582208
20
0.33671216094469686
11
0.5675124084790554
21
0.3367078966873587
0
LINE
8
Polygon
10
0.5675124084790554
20
0.3367078966873587
11
0.5679574283137999
21
0.3366837800795885
0
LINE
8
Polygon
10
0.5679574283137999
20
0.3366837800795885
11
0.5684009316450825
21
0.3366398590228209
0
LINE
8
Polygon
10
0.5684009316450825
20
0.3366398590228209
11
0.5688420375676754
21
0.33657622075493177
0
LINE
8
Polygon
10
0.5688420375676754
20
0.33657622075493177
11
0.5692798699381858
21
0.33649299167696234
0
LINE
8
Polygon
10
0.5692798699381858
20
0.33649299167696234
11
0.5697135591152899
21
0.33639033710205624
0
LINE
8
Polygon
10
0.5697135591152899
20
0.33639033710205624
11
0.5701422436870512
21
0.3362684609271074
0
LINE
8
Polygon
10
0.5701422436870512
20
0.3362684609271074
11
0.570565072181894
21
0.33612760522777146
0
LINE
8
Polygon
10
0.570565072181894
20
0.33612760522777146
11
0.5709812047598318
21
0.3359680497776446
0
LINE
8
Polygon
10
0.5709812047598318
20
0.3359680497776446
11
0.5713898148805943
21
0.3357901114925655
0
LINE
8
Polygon
10
0.5713898148805943
20
0.3357901114925655
11
0.571790090945336
21
0.33559414380114333
0
LINE
8
Polygon
10
0.571790090945336
20
0.33559414380114333
11
0.5721812379086689
21
0.3353805359427631
0
LINE
8
Polygon
10
0.5721812379086689
20
0.3353805359427631
11
0.5725624788578159
21
0.3351497121944616
0
LINE
8
Polygon
10
0.5725624788578159
20
0.3351497121944616
11
0.572933056555747
21
0.33490213102821015
0
LINE
8
Polygon
10
0.572933056555747
20
0.33490213102821015
11
0.5732922349452371
21
0.33463828420027825
0
LINE
8
Polygon
10
0.5732922349452371
20
0.33463828420027825
11
0.5736393006108531
21
0.3343586957744862
0
LINE
8
Polygon
10
0.5736393006108531
20
0.3343586957744862
11
0.5739735641959709
21
0.33406392108128713
0
LINE
8
Polygon
10
0.5739735641959709
20
0.33406392108128713
11
0.5742943617720044
21
0.3337545456147462
0
LINE
8
Polygon
10
0.5742943617720044
20
0.3337545456147462
11
0.5746010561571291
21
0.33343118386960713
0
LINE
8
Polygon
10
0.5746010561571291
20
0.33343118386960713
11
0.5748930381818794
21
0.33309447812075643
0
LINE
8
Polygon
10
0.5748930381818794
20
0.3330944781207565
11
0.5751697278991075
21
0.33274509714751
0
LINE
8
Polygon
10
0.5751697278991075
20
0.33274509714751
11
0.5754305757358986
21
0.33238373490525475
0
LINE
8
Polygon
10
0.5754305757358986
20
0.33238373490525475
11
0.5756750635851567
21
0.33201110914708504
0
LINE
8
Polygon
10
0.5756750635851567
20
0.33201110914708504
11
0.5759027058346903
21
0.3316279599981708
0
LINE
8
Polygon
10
0.5759027058346903
20
0.3316279599981708
11
0.5761130503317565
21
0.3312350484856895
0
LINE
8
Polygon
10
0.5761130503317565
20
0.3312350484856895
11
0.5763056792811461
21
0.33083315502724125
0
LINE
8
Polygon
10
0.5763056792811461
20
0.33083315502724125
11
0.5764802100750257
21
0.33042307788075037
0
LINE
8
Polygon
10
0.5764802100750257
20
0.33042307788075037
11
0.5766362960528906
21
0.33000563155893115
0
LINE
8
Polygon
10
0.5766362960528906
20
0.33000563155893115
11
0.5767736271901157
21
0.3295816452114684
0
LINE
8
Polygon
10
0.5767736271901157
20
0.3295816452114684
11
0.5768919307137406
21
0.3291519609781245
0
LINE
8
Polygon
10
0.5768919307137406
20
0.3291519609781245
11
0.5769909716442618
21
0.32871743231604583
0
LINE
8
Polygon
10
0.5769909716442618
20
0.32871743231604583
11
0.5770705532623602
21
0.3282789223045897
0
LINE
8
Polygon
10
0.5770705532623602
20
0.3282789223045897
11
0.5771305174996323
21
0.3278373019310394
0
LINE
8
Polygon
10
0.5771305174996323
20
0.3278373019310394
11
0.5771707452525532
21
0.32739344836061174
0
LINE
8
Polygon
10
0.5771707452525532
20
0.32739344836061174
11
0.5771911566190447
21
0.3269482431941948
0
LINE
8
Polygon
10
0.5771911566190447
20
0.3269482431941948
11
0.5771917110571803
21
0.32650257071727395
0
LINE
8
Polygon
10
0.5771917110571803
20
0.32650257071727395
11
0.5771724074657113
21
0.3260573161435268
0
LINE
8
Polygon
10
0.5771724074657113
20
0.3260573161435268
11
0.5771332841862542
21
0.32561336385657363
0
LINE
8
Polygon
10
0.5771332841862542
20
0.3256133638565737
11
0.577074418927135
21
0.32517159565337744
0
LINE
8
Polygon
10
0.577074418927135
20
0.32517159565337744
11
0.5769959286090413
21
0.3247328889927807
0
LINE
8
Polygon
10
0.5769959286090413
20
0.3247328889927807
11
0.5768979691327899
21
0.32429811525265956
0
LINE
8
Polygon
10
0.5768979691327899
20
0.32429811525265956
11
0.5767807350696695
21
0.32386813799915576
0
LINE
8
Polygon
10
0.5767807350696695
20
0.32386813799915576
11
0.5766444592749753
21
0.3234438112714248
0
LINE
8
Polygon
10
0.5766444592749753
20
0.3234438112714248
11
0.5764894124255017
21
0.32302597788530696
0
LINE
8
Polygon
10
0.5764894124255017
20
0.32302597788530696
11
0.5763159024819123
21
0.3226154677592905
0
LINE
8
Polygon
10
0.5763159024819123
20
0.3226154677592905
11
0.5761242740770559
21
0.32221309626609235
0
LINE
8
Polygon
10
0.5759149078314412
20
0.32181966261312955
11
0.5736557723009656
21
0.31726515440023134
0
LINE
8
Polygon
10
0.5736557723009656
20
0.31726515440023134
11
0.5718708203973437
21
0.3125047778281343
0
LINE
8
Polygon
10
0.5718708203973437
20
0.3125047778281343
11
0.5705785065515341
21
0.3075877499321037
0
LINE
8
Polygon
10
0.5705785065515341
20
0.3075877499321037
11
0.5697921918611641
21
0.3025649073490515
0
LINE
8
Polygon
10
0.5697921918611641
20
0.3025649073490515
11
0.5695200059515397
21
0.2974881807228664
0
LINE
8
Polygon
10
0.5695200059515397
20
0.2974881807228664
11
0.5697647629242996
21
0.29241005779892104
0
LINE
8
Polygon
10
0.5697647629242996
20
0.29241005779892104
11
0.570523932262713
21
0.28738304075876425
0
LINE
8
Polygon
10
0.570523932262713
20
0.28738304075876425
11
0.571789664994428
21
0.28245910340556
0
LINE
8
Polygon
10
0.571789664994428
20
0.28245910340556
11
0.5735488748411739
21
0.27768915381237497
0
LINE
8
Polygon
10
0.5735488748411739
20
0.27768915381237497
11
0.5757833735164248
21
0.2731225079889378
0
LINE
8
Polygon
10
0.5757833735164248
20
0.2731225079889378
11
0.5784700587721894
21
0.2688063800085748
0
LINE
8
Polygon
10
0.5784700587721894
20
0.2688063800085748
11
0.581581153250736
21
0.2647853938668466
0
LINE
8
Polygon
10
0.581581153250736
20
0.2647853938668466
11
0.5850844916717881
21
0.26110112211872666
0
LINE
8
Polygon
10
0.5850844916717881
20
0.26110112211872666
11
0.5889438533859906
21
0.25779165606430615
0
LINE
8
Polygon
10
0.5889438533859906
20
0.25779165606430615
11
0.5931193368564143
21
0.2548912119268276
0
LINE
8
Polygon
10
0.5931193368564143
20
0.2548912119268276
11
0.5975677721963701
21
0.2524297770947335
0
LINE
8
Polygon
10
0.5975677721963701
20
0.2524297770947335
11
0.6022431674983513
21
0.2504328000851946
0
LINE
8
Polygon
10
0.6022431674983513
20
0.2504328000851946
11
0.6070971843395518
21
0.24892092743455385
0
LINE
8
Polygon
10
0.6070971843395518
20
0.24892092743455385
11
0.6120796375477625
21
0.2479097902359479
0
LINE
8
Polygon
10
0.6120796375477625
20
0.2479097902359479
11
0.6171390140606149
21
0.24740984253107023
0
LINE
8
Polygon
10
0.6171390140606149
20
0.24740984253107023
11
0.6222230055137425
21
0.2474262532269284
0
LINE
8
Polygon
10
0.6222230055137425
20
0.2474262532269284
11
0.6272790490514877
21
0.24795885265505507
0
LINE
8
Polygon
10
0.6272790490514877
20
0.24795885265505507
11
0.6322548707687646
21
0.2490021343256927
0
LINE
8
Polygon
10
0.6322548707687646
20
0.2490021343256927
11
0.637099026165496
21
0.25054531185881485
0
LINE
8
Polygon
10
0.637099026165496
20
0.25054531185881485
11
0.6417614320259148
21
0.25257243050338074
0
LINE
8
Polygon
10
0.6417614320259148
20
0.25257243050338074
11
0.6461938842236924
21
0.2550625320918367
0
LINE
8
Polygon
10
0.6461938842236924
20
0.2550625320918367
11
0.6503505560993564
21
0.25798987172441745
0
LINE
8
Polygon
10
0.6503505560993564
20
0.25798987172441745
11
0.6541884722573278
21
0.2613241839429712
0
LINE
8
Polygon
10
0.6541884722573278
20
0.2613241839429712
11
0.657667952884039
21
0.265030995642364
0
LINE
8
Polygon
10
0.657667952884039
20
0.265030995642364
11
0.6607530239933743
21
0.26907198248430725
0
LINE
8
Polygon
10
0.6607530239933743
20
0.26907198248430725
11
0.6634117893579484
21
0.2734053651286805
0
LINE
8
Polygon
10
0.6634117893579484
20
0.2734053651286805
11
0.6656167602808633
21
0.2779863411857577
0
LINE
8
Polygon
10
0.6656167602808633
20
0.2779863411857577
11
0.6673451397984693
21
0.2827675484234263
0
LINE
8
Polygon
10
0.6673451397984693
20
0.2827675484234263
11
0.6685790583757872
21
0.2876995544403492
0
LINE
8
Polygon
10
0.6685790583757872
20
0.2876995544403492
11
0.6693057586577602
21
0.29273136774239
0
LINE
8
Polygon
10
0.6693057586577602
20
0.29273136774239
11
0.669517727366213
21
0.29781096493833487
0
LINE
8
Polygon
10
0.669517727366213
20
0.29781096493833487
11
0.6692127729788488
21
0.302885828604291
0
LINE
8
Polygon
10
0.6692127729788488
20
0.302885828604291
11
0.6683940483871689
21
0.30790349025583674
0
LINE
8
Polygon
10
0.6683940483871689
20
0.30790349025583674
11
0.6670700182990574
21
0.31281207281419204
0
LINE
8
Polygon
10
0.6670700182990574
20
0.31281207281419204
11
0.6652543717230522
21
0.3175608269579075
0
LINE
8
Polygon
10
0.6652543717230522
20
0.3175608269579075
11
0.6629658804391181
21
0.32210065581478875
0
LINE
8
Polygon
10
0.6629658804391181
20
0.32210065581478875
11
0.6602282049191777
21
0.3263846225693205
0
LINE
8
Polygon
10
0.6602282049191777
20
0.3263846225693205
11
0.6570696497039684
21
0.330368435737491
0
LINE
8
Polygon
10
0.6570696497039684
20
0.330368435737491
11
0.6535228707653571
21
0.3340109070918104
0
LINE
8
Polygon
10
0.6535228707653571
20
0.3340109070918104
11
0.6496245378796643
21
0.3372743775020854
0
LINE
8
Polygon
10
0.6496245378796643
20
0.3372743775020854
11
0.6454149555026836
21
0.3401251062892252
0
LINE
8
Polygon
10
0.6454149555026836
20
0.3401251062892252
11
0.6409376460661307
21
0.3425336200665926
0
LINE
8
Polygon
10
0.6362389000037759
20
0.34447501746226405
11
0.6358223062029714
21
0.34463336476794904
0
LINE
8
Polygon
10
0.6358223062029714
20
0.34463336476794904
11
0.6354131814870484
21
0.34481011665876576
0
LINE
8
Polygon
10
0.6354131814870484
20
0.34481011665876576
11
0.635012338476963
21
0.3450049220625719
0
LINE
8
Polygon
10
0.635012338476963
20
0.3450049220625719
11
0.6346205733441942
21
0.34521739404856766
0
LINE
8
Polygon
10
0.6346205733441942
20
0.34521739404856766
11
0.6342386642293538
21
0.34544711059583455
0
LINE
8
Polygon
10
0.6342386642293538
20
0.34544711059583455
11
0.6338673696966106
21
0.345693615431571
0
LINE
8
Polygon
10
0.6338673696966106
20
0.345693615431571
11
0.633507427226998
21
0.3459564189373612
0
LINE
8
Polygon
10
0.633507427226998
20
0.3459564189373612
11
0.6331595517535975
21
0.3462349991216756
0
LINE
8
Polygon
10
0.6331595517535975
20
0.3462349991216756
11
0.6328244342415078
21
0.3465288026566734
0
LINE
8
Polygon
10
0.6328244342415078
20
0.3465288026566734
11
0.6325027403154212
21
0.3468372459772453
0
LINE
8
Polygon
10
0.6325027403154212
20
0.3468372459772453
11
0.6321951089375311
21
0.3471597164401156
0
LINE
8
Polygon
10
0.6321951089375311
20
0.3471597164401156
11
0.6319021511383979
21
0.34749557354070065
0
LINE
8
Polygon
10
0.6319021511383979
20
0.34749557354070065
11
0.631624448803294
21
0.347844150185306
0
LINE
8
Polygon
10
0.631624448803294
20
0.347844150185306
11
0.6313625535164392
21
0.3482047540161365
0
LINE
8
Polygon
10
0.6313625535164392
20
0.3482047540161365
11
0.6311169854654195
21
0.34857666878648685
0
LINE
8
Polygon
10
0.6311169854654195
20
0.34857666878648685
11
0.6308882324079691
21
0.34895915578338144
0
LINE
8
Polygon
10
0.6308882324079691
20
0.34895915578338144
11
0.6306767487031648
21
0.3493514552948376
0
LINE
8
Polygon
10
0.6306767487031648
20
0.3493514552948376
11
0.6304829544089592
21
0.3497527881188374
0
LINE
8
Polygon
10
0.6304829544089592
20
0.3497527881188374
11
0.6303072344478429
21
0.35016235711101296
0
LINE
8
Polygon
10
0.6303072344478429
20
0.35016235711101296
11
0.6301499378422953
21
0.3505793487679674
0
LINE
8
Polygon
10
0.6301499378422953
20
0.3505793487679674
11
0.630011377021542
21
0.3510029348430909
0
LINE
8
Polygon
10
0.630011377021542
20
0.3510029348430909
11
0.6298918272009932
21
0.351432273991659
0
LINE
8
Polygon
10
0.6298918272009932
20
0.351432273991659
11
0.6297915258356004
21
0.3518665134419473
0
LINE
8
Polygon
10
0.6297915258356004
20
0.3518665134419473
11
0.6297106721482123
21
0.3523047906890434
0
LINE
8
Polygon
10
0.6297106721482123
20
0.3523047906890434
11
0.6296494267338706
21
0.3527462352079906
0
LINE
8
Polygon
10
0.6296494267338706
20
0.3527462352079906
11
0.6296079112408287
21
0.35318997018286175
0
LINE
8
Polygon
10
0.6296079112408287
20
0.35318997018286175
11
0.6295862081289293
21
0.3536351142483285
0
LINE
8
Polygon
10
0.6295862081289293
20
0.3536351142483285
11
0.6295843605058185
21
0.3540807832402667
0
LINE
8
Polygon
10
0.6295843605058185
20
0.3540807832402667
11
0.6296023720413242
21
0.3545260919519209
0
LINE
8
Polygon
10
0.6296023720413242
20
0.3545260919519209
11
0.6296402069601666
21
0.35497015589213965
0
LINE
8
Polygon
10
0.6296402069601666
20
0.35497015589213965
11
0.6296977901130166
21
0.35541209304218957
0
LINE
8
Polygon
10
0.6296977901130166
20
0.35541209304218957
11
0.6297750071257605
21
0.3558510256076587
0
LINE
8
Polygon
10
0.6297750071257605
20
0.3558510256076587
11
0.6298717046266751
21
0.35628608176196896
0
LINE
8
Polygon
10
0.6298717046266751
20
0.35628608176196896
11
0.6299876905510606
21
0.3567163973780356
0
LINE
8
Polygon
10
0.6299876905510606
20
0.3567163973780356
11
0.6301227345227285
21
0.3571411177446329
0
LINE
8
Polygon
10
0.6301227345227285
20
0.3571411177446329
11
0.6302765683115839
21
0.35755939926405833
0
LINE
8
Polygon
10
0.6302765683115839
20
0.35755939926405833
11
0.6304488863663954
21
0.35797041112772204
0
LINE
8
Polygon
10
0.6304488863663954
20
0.35797041112772204
11
0.6306393464216952
21
0.35837333696633455
0
LINE
8
Polygon
10
0.6306393464216952
20
0.35837333696633455
11
0.6308475701775998
21
0.35876737647141416
0
LINE
8
Polygon
10
0.6308475701775998
20
0.35876737647141416
11
0.6310731440512065
21
0.3591517469848936
0
LINE
8
Polygon
10
0.6310731440512065
20
0.3591517469848936
11
0.6313156199980688
21
0.3595256850536692
0
LINE
8
Polygon
10
0.6313156199980688
20
0.3595256850536692
11
0.6315745164021217
21
0.35988844794600366
0
LINE
8
Polygon
10
0.6315745164021217
20
0.35988844794600366
11
0.6318493190322879
21
0.3602393151267717
0
LINE
8
Polygon
10
0.6318493190322879
20
0.3602393151267717
11
0.6321394820638656
21
0.36057758968861764
0
LINE
8
Polygon
10
0.6321394820638656
20
0.36057758968861764
11
0.6324444291626686
21
0.36090259973618233
0
LINE
8
Polygon
10
0.6324444291626686
20
0.36090259973618233
11
0.6327635546297661
21
0.3612136997206507
0
LINE
8
Polygon
10
0.6327635546297661
20
0.3612136997206507
11
0.6330962246045475
21
0.361510271721968
0
LINE
8
Polygon
10
0.6334417783237236
20
0.3617917266761791
11
0.6352898787816577
21
0.36325911280845563
0
LINE
8
Polygon
10
0.6352898787816577
20
0.36325911280845563
11
0.6371087670349886
21
0.3647625564840578
0
LINE
8
Polygon
10
0.6371087670349886
20
0.3647625564840578
11
0.6388977396921733
21
0.36630147629862225
0
LINE
8
Polygon
10
0.6388977396921733
20
0.36630147629862225
11
0.6406561049304812
21
0.3678752771286271
0
LINE
8
Polygon
10
0.6406561049304812
20
0.3678752771286271
11
0.6423831827635327
21
0.36948335036153535
0
LINE
8
Polygon
10
0.6423831827635327
20
0.36948335036153535
11
0.6440783053042598
21
0.3711250741311544
0
LINE
8
Polygon
10
0.6440783053042598
20
0.3711250741311544
11
0.6457408170231889
21
0.3727998135581212
0
LINE
8
Polygon
10
0.6457408170231889
20
0.3727998135581212
11
0.647370075001943
21
0.3745069209954197
0
LINE
8
Polygon
10
0.647370075001943
20
0.3745069209954197
11
0.6489654491818685
21
0.3762457362788355
0
LINE
8
Polygon
10
0.6489654491818685
20
0.3762457362788355
11
0.6505263226076885
21
0.3780155869822517
0
LINE
8
Polygon
10
0.6505263226076885
20
0.3780155869822517
11
0.652052091666088
21
0.37981578867768584
0
LINE
8
Polygon
10
0.652052091666088
20
0.37981578867768584
11
0.6535421663191414
21
0.3816456451999688
0
LINE
8
Polygon
10
0.6535421663191414
20
0.3816456451999688
11
0.654995970332488
21
0.38350444891596225
0
LINE
8
Polygon
10
0.654995970332488
20
0.38350444891596225
11
0.6564129414981711
21
0.3853914809982111
0
LINE
8
Polygon
10
0.6564129414981711
20
0.3853914809982111
11
0.657792531852052
21
0.38730601170292495
0
LINE
8
Polygon
10
0.657792531852052
20
0.38730601170292495
11
0.6591342078857165
21
0.389247300652181
0
LINE
8
Polygon
10
0.6591342078857165
20
0.389247300652181
11
0.6604374507527903
21
0.3912145971202394
0
LINE
8
Polygon
10
0.6604374507527903
20
0.3912145971202394
11
0.6617017564695843
21
0.3932071403238602
0
LINE
8
Polygon
10
0.6617017564695843
20
0.3932071403238602
11
0.6629266361099937
21
0.3952241597165097
0
LINE
8
Polygon
10
0.6629266361099937
20
0.3952241597165097
11
0.6641116159945724
21
0.39726487528634236
0
LINE
8
Polygon
10
0.6641116159945724
20
0.39726487528634236
11
0.665256237873712
21
0.3993284978578434
0
LINE
8
Polygon
10
0.665256237873712
20
0.3993284978578434
11
0.6663600591048541
21
0.40141422939701465
0
LINE
8
Polygon
10
0.6663600591048541
20
0.40141422939701465
11
0.6674226528236668
21
0.4035212633199863
0
LINE
8
Polygon
10
0.6674226528236668
20
0.4035212633199863
11
0.6684436081091194
21
0.4056487848049354
0
LINE
8
Polygon
10
0.6684436081091194
20
0.4056487848049354
11
0.6694225301423922
21
0.4077959711071893
0
LINE
8
Polygon
10
0.6694225301423922
20
0.4077959711071893
11
0.6703590403595582
21
0.4099619918773938
0
LINE
8
Polygon
10
0.6703590403595582
20
0.4099619918773938
11
0.6712527765979801
21
0.4121460094826216
0
LINE
8
Polygon
10
0.6712527765979801
20
0.4121460094826216
11
0.6721033932363638
21
0.41434717933029763
0
LINE
8
Polygon
10
0.6721033932363638
20
0.41434717933029763
11
0.6729105613284155
21
0.41656465019481587
0
LINE
8
Polygon
10
0.6729105613284155
20
0.41656465019481587
11
0.67367396873005
21
0.41879756454672085
0
LINE
8
Polygon
10
0.67367396873005
20
0.41879756454672085
11
0.6743933202201018
21
0.42104505888432747
0
LINE
8
Polygon
10
0.6743933202201018
20
0.42104505888432747
11
0.675068337614491
21
0.4233062640676502
0
LINE
8
Polygon
10
0.675068337614491
20
0.4233062640676502
11
0.6756987598738023
21
0.4255803056545123
0
LINE
8
Polygon
10
0.6756987598738023
20
0.4255803056545123
11
0.6762843432042318
21
0.42786630423870625
0
LINE
8
Polygon
10
0.6762843432042318
20
0.42786630423870625
11
0.6768248611518666
21
0.430163375790073
0
LINE
8
Polygon
10
0.6768248611518666
20
0.430163375790073
11
0.677320104690257
21
0.43247063199637
0
LINE
8
Polygon
10
0.677320104690257
20
0.43247063199637
11
0.6777698823012517
21
0.43478718060679494
0
LINE
8
Polygon
10
0.6777698823012517
20
0.43478718060679494
11
0.6781740200490588
21
0.4371121257770325
0
LINE
8
Polygon
10
0.6781740200490588
20
0.4371121257770325
11
0.6785323616475111
21
0.439444568415691
0
LINE
8
Polygon
10
0.6785323616475111
20
0.439444568415691
11
0.6788447685205032
21
0.44178360653199455
0
LINE
8
Polygon
10
0.6788447685205032
20
0.44178360653199455
11
0.679111119855582
21
0.4441283355845964
0
LINE
8
Polygon
10
0.679111119855582
20
0.4441283355845964
11
0.6793313126506655
21
0.44647784883137903
0
LINE
8
Polygon
10
0.6793313126506655
20
0.44647784883137903
11
0.679505261753876
21
0.4488312376801046
0
LINE
8
Polygon
10
0.679505261753876
20
0.4488312376801046
11
0.6796328998964698
21
0.4511875920397816
0
LINE
8
Polygon
10
0.6796328998964698
20
0.4511875920397816
11
0.6797141777188505
21
0.45354600067261064
0
LINE
8
Polygon
10
0.6797141777188505
20
0.45354600067261064
11
0.6797490637896569
21
0.45590555154637397
0
LINE
8
Polygon
10
0.6797490637896569
20
0.45590555154637397
11
0.6797375446179195
21
0.45826533218713195
0
LINE
8
Polygon
10
0.8494286626793437
20
-0.23362430062909534
11
0.8487544191308481
21
-0.23364938785398745
0
LINE
8
Polygon
10
0.8487544191308481
20
-0.23364938785398745
11
0.8480803272944141
21
-0.23367826565850414
0
LINE
8
Polygon
10
0.8480803272944141
20
-0.23367826565850414
11
0.8474064084804126
21
-0.23371093312971822
0
LINE
8
Polygon
10
0.8474064084804126
20
-0.23371093312971822
11
0.8467326839937448
21
-0.23374738923489818
0
LINE
8
Polygon
10
0.8467326839937448
20
-0.23374738923489818
11
0.8460591751331684
21
-0.23378763282154058
0
LINE
8
Polygon
10
0.8460591751331684
20
-0.23378763282154058
11
0.8453859031906246
21
-0.23383166261740665
0
LINE
8
Polygon
10
0.8453859031906247
20
-0.23383166261740665
11
0.8447128894505647
21
-0.23387947723056252
0
LINE
8
Polygon
10
0.8447128894505647
20
-0.23387947723056252
11
0.8440401551892772
21
-0.23393107514942316
0
LINE
8
Polygon
10
0.8440401551892772
20
-0.23393107514942313
11
0.8433677216742156
21
-0.23398645474280008
0
LINE
8
Polygon
10
0.8433677216742156
20
-0.23398645474280008
11
0.8426956101633255
21
-0.23404561425995313
0
LINE
8
Polygon
10
0.8426956101633256
20
-0.23404561425995313
11
0.8420238419043731
21
-0.23410855183064566
0
LINE
8
Polygon
10
0.8420238419043731
20
-0.23410855183064566
11
0.8413524381342729
21
-0.23417526546520367
0
LINE
8
Polygon
10
0.841352438134273
20
-0.23417526546520367
11
0.8406814200784168
21
-0.23424575305457884
0
LINE
8
Polygon
10
0.8406814200784168
20
-0.23424575305457884
11
0.8400108089500032
21
-0.23432001237041494
0
LINE
8
Polygon
10
0.8400108089500032
20
-0.23432001237041494
11
0.8393406259493656
21
-0.23439804106511858
0
LINE
8
Polygon
10
0.8393406259493656
20
-0.23439804106511858
11
0.8386708922633034
21
-0.23447983667193328
0
LINE
8
Polygon
10
0.8386708922633034
20
-0.23447983667193328
11
0.8380016290644112
21
-0.23456539660501735
0
LINE
8
Polygon
10
0.8380016290644112
20
-0.23456539660501735
11
0.8373328575104102
21
-0.23465471815952588
0
LINE
8
Polygon
10
0.8373328575104102
20
-0.23465471815952588
11
0.8366645987434789
21
-0.23474779851169597
0
LINE
8
Polygon
10
0.8366645987434789
20
-0.23474779851169597
11
0.8359968738895848
21
-0.23484463471893635
0
LINE
8
Polygon
10
0.8359968738895848
20
-0.23484463471893635
11
0.8353297040578164
21
-0.23494522371991997
0
LINE
8
Polygon
10
0.8353297040578164
20
-0.23494522371991994
11
0.8346631103397163
21
-0.23504956233468116
0
LINE
8
Polygon
10
0.8346631103397163
20
-0.23504956233468116
11
0.8339971138086142
21
-0.23515764726471594
0
LINE
8
Polygon
10
0.8339971138086142
20
-0.23515764726471594
11
0.8333317355189603
21
-0.23526947509308646
0
LINE
8
Polygon
10
0.8333317355189603
20
-0.23526947509308646
11
0.8326669965056606
21
-0.23538504228452878
0
LINE
8
Polygon
10
0.8326669965056606
20
-0.23538504228452878
11
0.8320029177834106
21
-0.23550434518556493
0
LINE
8
Polygon
10
0.8320029177834106
20
-0.2355043451855649
11
0.8313395203460325
21
-0.2356273800246181
0
LINE
8
Polygon
10
0.8313395203460325
20
-0.2356273800246181
11
0.8306768251658102
21
-0.2357541429121322
0
LINE
8
Polygon
10
0.8306768251658102
20
-0.2357541429121322
11
0.8300148531928272
21
-0.23588462984069453
0
LINE
8
Polygon
10
0.8300148531928272
20
-0.23588462984069453
11
0.8293536253543036
21
-0.23601883668516263
0
LINE
8
Polygon
10
0.8293536253543036
20
-0.2360188366851626
11
0.8286931625539349
21
-0.23615675920279466
0
LINE
8
Polygon
10
0.8286931625539349
20
-0.23615675920279466
11
0.8280334856712314
21
-0.2362983930333835
0
LINE
8
Polygon
10
0.8280334856712315
20
-0.23629839303338349
11
0.8273746155608575
21
-0.23644373369939461
0
LINE
8
Polygon
10
0.8273746155608575
20
-0.23644373369939461
11
0.8267165730519728
21
-0.23659277660610767
0
LINE
8
Polygon
10
0.8267165730519728
20
-0.23659277660610764
11
0.8260593789475736
21
-0.23674551704176156
0
LINE
8
Polygon
10
0.8260593789475736
20
-0.23674551704176156
11
0.8254030540238354
21
-0.23690195017770366
0
LINE
8
Polygon
10
0.8254030540238354
20
-0.23690195017770366
11
0.8247476190294555
21
-0.23706207106854232
0
LINE
8
Polygon
10
0.8247476190294556
20
-0.23706207106854232
11
0.8240930946849978
21
-0.23722587465230313
0
LINE
8
Polygon
10
0.8240930946849978
20
-0.23722587465230313
11
0.8234395016822372
21
-0.23739335575058915
0
LINE
8
Polygon
10
0.8234395016822372
20
-0.23739335575058912
11
0.8227868606835058
21
-0.23756450906874438
0
LINE
8
Polygon
10
0.8227868606835058
20
-0.23756450906874438
11
0.8221351923210394
21
-0.23773932919602145
0
LINE
8
Polygon
10
0.8221351923210395
20
-0.23773932919602142
11
0.8214845171963258
21
-0.2379178106057523
0
LINE
8
Polygon
10
0.8214845171963258
20
-0.2379178106057523
11
0.8208348558794525
21
-0.23809994765552317
0
LINE
8
Polygon
10
0.8208348558794525
20
-0.23809994765552317
11
0.8201862289084576
21
-0.23828573458735294
0
LINE
8
Polygon
10
0.8201862289084576
20
-0.23828573458735294
11
0.8195386567886798
21
-0.238475165527875
0
LINE
8
Polygon
10
0.8195386567886798
20
-0.238475165527875
11
0.81889215999211
21
-0.2386682344885232
0
LINE
8
Polygon
10
0.81889215999211
20
-0.2386682344885232
11
0.8182467589567448
21
-0.23886493536572084
0
LINE
8
Polygon
10
0.81760247408594
20
-0.23906526194107386
11
0.8171744023052306
21
-0.23918927328993644
0
LINE
8
Polygon
10
0.8171744023052306
20
-0.23918927328993644
11
0.8167412301753334
21
-0.23929408822191978
0
LINE
8
Polygon
10
0.8167412301753334
20
-0.23929408822191978
11
0.8163038180812036
21
-0.23937949854913662
0
LINE
8
Polygon
10
0.8163038180812036
20
-0.23937949854913662
11
0.8158630348293939
21
-0.23944533462595308
0
LINE
8
Polygon
10
0.8158630348293939
20
-0.23944533462595308
11
0.8154197559223948
21
-0.23949146568594604
0
LINE
8
Polygon
10
0.8154197559223948
20
-0.23949146568594604
11
0.814974861819673
21
-0.23951780010163712
0
LINE
8
Polygon
10
0.814974861819673
20
-0.23951780010163712
11
0.8145292361888662
21
-0.23952428556648692
0
LINE
8
Polygon
10
0.8145292361888662
20
-0.23952428556648692
11
0.8140837641506038
21
-0.2395109091987886
0
LINE
8
Polygon
10
0.8140837641506038
20
-0.2395109091987886
11
0.8136393305204438
21
-0.2394776975672541
0
LINE
8
Polygon
10
0.8136393305204438
20
-0.2394776975672541
11
0.8131968180514134
21
-0.2394247166382421
0
LINE
8
Polygon
10
0.8131968180514134
20
-0.2394247166382421
11
0.8127571056806476
21
-0.23935207164473302
0
LINE
8
Polygon
10
0.8127571056806476
20
-0.23935207164473302
11
0.812321066783607
21
-0.23925990687731055
0
LINE
8
Polygon
10
0.812321066783607
20
-0.23925990687731055
11
0.811889567439342
21
-0.23914840539756577
0
LINE
8
Polygon
10
0.811889567439342
20
-0.23914840539756577
11
0.8114634647102498
21
-0.23901778867449225
0
LINE
8
Polygon
10
0.8114634647102498
20
-0.23901778867449225
11
0.8110436049397399
21
-0.23886831614459497
0
LINE
8
Polygon
10
0.8110436049397399
20
-0.23886831614459497
11
0.8106308220711922
21
-0.23870028469658644
0
LINE
8
Polygon
10
0.8106308220711922
20
-0.23870028469658644
11
0.8102259359915412
21
-0.23851402808169372
0
LINE
8
Polygon
10
0.8102259359915412
20
-0.23851402808169372
11
0.8098297509027833
21
-0.23830991625074746
0
LINE
8
Polygon
10
0.8098297509027833
20
-0.23830991625074746
11
0.8094430537246352
21
-0.23808835461936978
0
LINE
8
Polygon
10
0.8094430537246352
20
-0.23808835461936978
11
0.8090666125315215
21
-0.23784978326272047
0
LINE
8
Polygon
10
0.8090666125315215
20
-0.2378497832627205
11
0.8087011750269916
21
-0.23759467604140105
0
LINE
8
Polygon
10
0.8087011750269916
20
-0.23759467604140105
11
0.8083474670585995
21
-0.23732353966025246
0
LINE
8
Polygon
10
0.8083474670585995
20
-0.23732353966025246
11
0.8080061911761945
21
-0.23703691266191643
0
LINE
8
Polygon
10
0.8080061911761945
20
-0.23703691266191643
11
0.8076780252364867
21
-0.2367353643571591
0
LINE
8
Polygon
10
0.8076780252364867
20
-0.2367353643571591
11
0.8073636210566585
21
-0.23641949369408163
0
LINE
8
Polygon
10
0.8073636210566585
20
-0.23641949369408163
11
0.8070636031196986
21
-0.23608992806846404
0
LINE
8
Polygon
10
0.8070636031196986
20
-0.23608992806846407
11
0.8067785673340263
21
-0.2357473220776049
0
LINE
8
Polygon
10
0.8067785673340263
20
-0.2357473220776049
11
0.8065090798498734
21
-0.23539235622013227
0
LINE
8
Polygon
10
0.8065090798498734
20
-0.23539235622013227
11
0.8062556759347719
21
-0.23502573554436829
0
LINE
8
Polygon
10
0.8062556759347719
20
-0.23502573554436829
11
0.8060188589103835
21
-0.2346481882479322
0
LINE
8
Polygon
10
0.8060188589103835
20
-0.2346481882479322
11
0.80579909915278
21
-0.23426046423136312
0
LINE
8
Polygon
10
0.80579909915278
20
-0.23426046423136312
11
0.8055968331581628
21
-0.23386333360863568
0
LINE
8
Polygon
10
0.8055968331581628
20
-0.23386333360863568
11
0.8054124626758752
21
-0.23345758517752666
0
LINE
8
Polygon
10
0.8054124626758752
20
-0.23345758517752668
11
0.8052463539104308
21
-0.23304402485287146
0
LINE
8
Polygon
10
0.8052463539104308
20
-0.23304402485287146
11
0.8050988367941424
21
-0.23262347406582146
0
LINE
8
Polygon
10
0.8050988367941424
20
-0.23262347406582146
11
0.8049702043317969
21
-0.23219676813228254
0
LINE
8
Polygon
10
0.8049702043317969
20
-0.23219676813228254
11
0.8048607120186759
21
-0.231764754593775
0
LINE
8
Polygon
10
0.8048607120186759
20
-0.231764754593775
11
0.8047705773330806
21
-0.23132829153401047
0
LINE
8
Polygon
10
0.8047705773330806
20
-0.23132829153401047
11
0.8046999793043669
21
-0.2308882458745294
0
LINE
8
Polygon
10
0.8046999793043669
20
-0.2308882458745294
11
0.8046490581573497
21
-0.2304454916527846
0
LINE
8
Polygon
10
0.8046490581573497
20
-0.2304454916527846
11
0.8046179150337827
21
-0.23000090828609068
0
LINE
8
Polygon
10
0.8046179150337827
20
-0.2300009082860907
11
0.8046066117914658
21
-0.22955537882488805
0
LINE
8
Polygon
10
0.8046066117914658
20
-0.22955537882488805
11
0.8046151708813809
21
-0.22910978819879027
0
LINE
8
Polygon
10
0.8046151708813809
20
-0.22910978819879027
11
0.8046435753030986
21
-0.22866502145889928
0
LINE
8
Polygon
10
0.8046435753030986
20
-0.22866502145889928
11
0.8046917686385454
21
-0.22822196201987904
0
LINE
8
Polygon
10
0.8046917686385454
20
-0.22822196201987904
11
0.8047596551640633
21
-0.22778148990527985
0
LINE
8
Polygon
10
0.8047596551640633
20
-0.22778148990527985
11
0.8048471000405407
21
-0.22734447999959778
0
LINE
8
Polygon
10
0.8049539295812352
20
-0.226911800310542
11
0.8060310620124251
21
-0.2219431964692106
0
LINE
8
Polygon
10
0.8060310620124251
20
-0.2219431964692106
11
0.8065980701784853
21
-0.21689089598863392
0
LINE
8
Polygon
10
0.8065980701784853
20
-0.21689089598863392
11
0.806649091841317
21
-0.21180713407482088
0
LINE
8
Polygon
10
0.806649091841317
20
-0.21180713407482088
11
0.8061835994932869
21
-0.20674447121024656
0
LINE
8
Polygon
10
0.8061835994932869
20
-0.20674447121024656
11
0.8052064058110735
21
-0.20175524973652378
0
LINE
8
Polygon
10
0.8052064058110735
20
-0.20175524973652378
11
0.8037276138979061
21
-0.19689105269241
0
LINE
8
Polygon
10
0.8037276138979061
20
-0.19689105269241
11
0.8017625128286381
21
-0.19220217050216723
0
LINE
8
Polygon
10
0.8017625128286381
20
-0.19220217050216723
11
0.7993314195776015
21
-0.18773708102812778
0
LINE
8
Polygon
10
0.7993314195776015
20
-0.18773708102812778
11
0.796459468963535
21
-0.18354194836314824
0
LINE
8
Polygon
10
0.796459468963535
20
-0.18354194836314824
11
0.7931763537833245
21
-0.1796601455448839
0
LINE
8
Polygon
10
0.7931763537833245
20
-0.1796601455448839
11
0.789516017821281
21
-0.17613180612649096
0
LINE
8
Polygon
10
0.789516017821281
20
-0.17613180612649096
11
0.7855163049079081
21
-0.17299340924001974
0
LINE
8
Polygon
10
0.7855163049079081
20
-0.17299340924001974
11
0.7812185676564974
21
-0.17027740244248568
0
LINE
8
Polygon
10
0.7812185676564974
20
-0.17027740244248568
11
0.7766672399227871
21
-0.16801186624397255
0
LINE
8
Polygon
10
0.7766672399227871
20
-0.16801186624397255
11
0.7719093774079767
21
-0.1662202237861768
0
LINE
8
Polygon
10
0.7719093774079767
20
-0.1662202237861768
11
0.7669941711547563
21
-0.16492099867299678
0
LINE
8
Polygon
10
0.7669941711547563
20
-0.16492099867299678
11
0.7619724389662634
21
-0.16412762345693005
0
LINE
8
Polygon
10
0.7619724389662634
20
-0.16412762345693005
11
0.7568961000061337
21
-0.16384830076131876
0
LINE
8
Polygon
10
0.7568961000061337
20
-0.16384830076131876
11
0.7518176380117009
21
-0.16408591847428525
0
LINE
8
Polygon
10
0.7518176380117009
20
-0.16408591847428525
11
0.7467895586701281
21
-0.16483801989115884
0
LINE
8
Polygon
10
0.7467895586701281
20
-0.16483801989115884
11
0.7418638467676026
21
-0.1660968291140885
0
LINE
8
Polygon
10
0.7418638467676026
20
-0.1660968291140885
11
0.7370914287240707
21
-0.16784933144623684
0
LINE
8
Polygon
10
0.7370914287240707
20
-0.16784933144623684
11
0.7325216460703109
21
-0.1700774079493692
0
LINE
8
Polygon
10
0.7325216460703109
20
-0.1700774079493692
11
0.7282017453110101
21
-0.17275802277365987
0
LINE
8
Polygon
10
0.7282017453110101
20
-0.17275802277365987
11
0.7241763894480955
21
-0.17586346132293315
0
LINE
8
Polygon
10
0.7241763894480955
20
-0.17586346132293315
11
0.7204871962146306
21
-0.17936161679297324
0
LINE
8
Polygon
10
0.7204871962146306
20
-0.17936161679297324
11
0.7171723077934288
21
-0.18321632212041344
0
LINE
8
Polygon
10
0.7171723077934288
20
-0.18321632212041344
11
0.7142659964690151
21
-0.1873877239102198
0
LINE
8
Polygon
10
0.7142659964690151
20
-0.1873877239102198
11
0.711798310290064
21
-0.19183269447577225
0
LINE
8
Polygon
10
0.711798310290064
20
-0.19183269447577225
11
0.7097947624057672
21
-0.19650527773150392
0
LINE
8
Polygon
10
0.7097947624057672
20
-0.19650527773150392
11
0.7082760672880543
21
-0.2013571643280609
0
LINE
8
Polygon
10
0.7082760672880543
20
-0.2013571643280609
11
0.707257926566835
21
-0.20633819111761034
0
LINE
8
Polygon
10
0.707257926566835
20
-0.20633819111761034
11
0.7067508666924903
21
-0.21139685978537698
0
LINE
8
Polygon
10
0.7067508666924903
20
-0.21139685978537698
11
0.7067601301040037
21
-0.21648086928533086
0
LINE
8
Polygon
10
0.7067601301040037
20
-0.21648086928533086
11
0.7072856210279329
21
-0.2215376565752297
0
LINE
8
Polygon
10
0.7072856210279329
20
-0.2215376565752297
11
0.7083219064686013
21
-0.22651494006041245
0
LINE
8
Polygon
10
0.7083219064686013
20
-0.22651494006041245
11
0.709858272379272
21
-0.231361260127736
0
LINE
8
Polygon
10
0.709858272379272
20
-0.231361260127736
11
0.7118788344335563
21
-0.23602651118113077
0
LINE
8
Polygon
10
0.7118788344335563
20
-0.23602651118113077
11
0.714362702251801
21
-0.24046245967811566
0
LINE
8
Polygon
10
0.714362702251801
20
-0.24046245967811566
11
0.717284195384539
21
-0.24462324281134656
0
LINE
8
Polygon
10
0.717284195384539
20
-0.24462324281134656
11
0.7206131088199685
21
-0.24846584267938268
0
LINE
8
Polygon
10
0.7206131088199685
20
-0.24846584267938268
11
0.7243150252704096
21
-0.25195053104426823
0
LINE
8
Polygon
10
0.7243150252704096
20
-0.25195053104426823
11
0.72835167100904
21
-0.25504128007762744
0
LINE
8
Polygon
10
0.72835167100904
20
-0.25504128007762744
11
0.7326813115779525
21
-0.2577061348486125
0
LINE
8
Polygon
10
0.7326813115779525
20
-0.2577061348486125
11
0.7372591832763473
21
-0.2599175437025897
0
LINE
8
Polygon
10
0.7372591832763473
20
-0.2599175437025897
11
0.7420379559677518
21
-0.261652643114814
0
LINE
8
Polygon
10
0.7420379559677518
20
-0.261652643114814
11
0.7469682224213479
21
-0.26289349407401874
0
LINE
8
Polygon
10
0.7519990091281623
20
-0.26362726755197613
11
0.7524416734666235
21
-0.26367896423988885
0
LINE
8
Polygon
10
0.7524416734666235
20
-0.26367896423988885
11
0.7528815947769185
21
-0.26375033303443296
0
LINE
8
Polygon
10
0.7528815947769185
20
-0.26375033303443296
11
0.7533178992685824
21
-0.26384123217986555
0
LINE
8
Polygon
10
0.7533178992685824
20
-0.26384123217986555
11
0.7537497203350292
21
-0.2639514811284279
0
LINE
8
Polygon
10
0.7537497203350292
20
-0.2639514811284279
11
0.7541762002748437
21
-0.2640808608989574
0
LINE
8
Polygon
10
0.7541762002748437
20
-0.2640808608989574
11
0.7545964919953837
21
-0.26422911451183684
0
LINE
8
Polygon
10
0.7545964919953837
20
-0.26422911451183684
11
0.7550097606953127
21
-0.2643959474994187
0
LINE
8
Polygon
10
0.7550097606953127
20
-0.2643959474994187
11
0.7554151855227164
21
-0.2645810284909091
0
LINE
8
Polygon
10
0.7554151855227164
20
-0.2645810284909091
11
0.755811961205515
21
-0.26478398987055074
0
LINE
8
Polygon
10
0.755811961205515
20
-0.26478398987055074
11
0.7561992996509286
21
-0.265004428507797
0
LINE
8
Polygon
10
0.7561992996509286
20
-0.265004428507797
11
0.7565764315108203
21
-0.2652419065580268
0
LINE
8
Polygon
10
0.7565764315108203
20
-0.2652419065580268
11
0.756942607709809
21
-0.26549595233221057
0
LINE
8
Polygon
10
0.756942607709809
20
-0.26549595233221057
11
0.757297100933114
21
-0.26576606123379887
0
LINE
8
Polygon
10
0.757297100933114
20
-0.26576606123379887
11
0.7576392070711793
21
-0.2660516967609736
0
LINE
8
Polygon
10
0.7576392070711793
20
-0.2660516967609736
11
0.7579682466182058
21
-0.26635229157227114
0
LINE
8
Polygon
10
0.7579682466182058
20
-0.26635229157227114
11
0.7582835660218147
21
-0.2666672486134595
0
LINE
8
Polygon
10
0.7582835660218147
20
-0.2666672486134595
11
0.7585845389811611
21
-0.2669959423034335
0
LINE
8
Polygon
10
0.7585845389811611
20
-0.2669959423034335
11
0.7588705676909192
21
-0.26733771977677023
0
LINE
8
Polygon
10
0.7588705676909192
20
-0.26733771977677023
11
0.7591410840286693
21
-0.2676919021804786
0
LINE
8
Polygon
10
0.7591410840286693
20
-0.2676919021804786
11
0.7593955506833264
21
-0.2680577860223657
0
LINE
8
Polygon
10
0.7593955506833264
20
-0.2680577860223657
11
0.7596334622223702
21
-0.2684346445683431
0
LINE
8
Polygon
10
0.7596334622223702
20
-0.2684346445683431
11
0.7598543460957571
21
-0.26882172928589726
0
LINE
8
Polygon
10
0.7598543460957571
20
-0.26882172928589726
11
0.7600577635745192
21
-0.2692182713308565
0
LINE
8
Polygon
10
0.7600577635745192
20
-0.2692182713308565
11
0.7602433106221862
21
-0.2696234830745023
0
LINE
8
Polygon
10
0.7602433106221862
20
-0.2696234830745023
11
0.7604106186973002
21
-0.2700365596679907
0
LINE
8
Polygon
10
0.7604106186973002
20
-0.2700365596679907
11
0.7605593554854282
21
-0.270456680640978
0
LINE
8
Polygon
10
0.7605593554854282
20
-0.270456680640978
11
0.7606892255592194
21
-0.27088301153127314
0
LINE
8
Polygon
10
0.7606892255592194
20
-0.27088301153127314
11
0.7607999709651954
21
-0.2713147055422828
0
LINE
8
Polygon
10
0.7607999709651954
20
-0.2713147055422828
11
0.7608913717361085
21
-0.2717509052249545
0
LINE
8
Polygon
10
0.7608913717361085
20
-0.2717509052249545
11
0.7609632463278504
21
-0.2721907441808785
0
LINE
8
Polygon
10
0.7609632463278504
20
-0.2721907441808785
11
0.761015451980042
21
-0.27263334878316553
0
LINE
8
Polygon
10
0.761015451980042
20
-0.27263334878316553
11
0.7610478849995906
21
-0.27307783991168144
0
LINE
8
Polygon
10
0.7610478849995906
20
-0.27307783991168144
11
0.7610604809666502
21
-0.27352333469919327
0
LINE
8
Polygon
10
0.7610604809666502
20
-0.27352333469919327
11
0.7610532148625737
21
-0.2739689482849578
0
LINE
8
Polygon
10
0.7610532148625737
20
-0.2739689482849578
11
0.7610261011196069
21
-0.2744137955722697
0
LINE
8
Polygon
10
0.7610261011196069
20
-0.2744137955722697
11
0.7609791935922222
21
-0.27485699298647814
0
LINE
8
Polygon
10
0.7609791935922222
20
-0.27485699298647814
11
0.7609125854501507
21
-0.2752976602299807
0
LINE
8
Polygon
10
0.7609125854501507
20
-0.2752976602299807
11
0.7608264089933244
21
-0.275734922030708
0
LINE
8
Polygon
10
0.7608264089933244
20
-0.275734922030708
11
0.7607208353890965
21
-0.2761679098806261
0
LINE
8
Polygon
10
0.7607208353890965
20
-0.2761679098806261
11
0.7605960743322615
21
-0.27659576376080464
0
LINE
8
Polygon
10
0.7605960743322615
20
-0.27659576376080464
11
0.7604523736285503
21
-0.27701763384962264
0
LINE
8
Polygon
10
0.7604523736285503
20
-0.27701763384962264
11
0.7602900187024283
21
-0.2774326822107208
0
LINE
8
Polygon
10
0.7602900187024283
20
-0.2774326822107208
11
0.7601093320301726
21
-0.27784008445734637
0
LINE
8
Polygon
10
0.7601093320301726
20
-0.27784008445734637
11
0.7599106724993563
21
-0.278239031389785
0
LINE
8
Polygon
10
0.7599106724993563
20
-0.278239031389785
11
0.7596944346960104
21
-0.27862873060262816
0
LINE
8
Polygon
10
0.7596944346960104
20
-0.27862873060262816
11
0.7594610481208807
21
-0.2790084080586821
0
LINE
8
Polygon
10
0.7594610481208807
20
-0.2790084080586821
11
0.7592109763363343
21
-0.27937730962639384
0
LINE
8
Polygon
10
0.7589447160456131
20
-0.2797347025777394
11
0.7585311613471014
21
-0.28026781255033384
0
LINE
8
Polygon
10
0.7585311613471014
20
-0.28026781255033384
11
0.7581206106294229
21
-0.28080323933314777
0
LINE
8
Polygon
10
0.7581206106294229
20
-0.28080323933314777
11
0.7577130768715039
21
-0.28134096599949143
0
LINE
8
Polygon
10
0.7577130768715039
20
-0.2813409659994914
11
0.7573085729568937
21
-0.28188097554996777
0
LINE
8
Polygon
10
0.7573085729568937
20
-0.28188097554996777
11
0.756907111673358
21
-0.28242325091301007
0
LINE
8
Polygon
10
0.756907111673358
20
-0.28242325091301007
11
0.7565087057124746
21
-0.2829677749454212
0
LINE
8
Polygon
10
0.7565087057124746
20
-0.2829677749454212
11
0.7561133676692318
21
-0.28351453043291597
0
LINE
8
Polygon
10
0.7561133676692318
20
-0.28351453043291597
11
0.7557211100416305
21
-0.28406350009066517
0
LINE
8
Polygon
10
0.7557211100416305
20
-0.28406350009066517
11
0.7553319452302889
21
-0.284614666563842
0
LINE
8
Polygon
10
0.7553319452302889
20
-0.284614666563842
11
0.7549458855380508
21
-0.28516801242817075
0
LINE
8
Polygon
10
0.7549458855380508
20
-0.28516801242817075
11
0.7545629431695963
21
-0.28572352019047764
0
LINE
8
Polygon
10
0.7545629431695963
20
-0.2857235201904776
11
0.7541831302310562
21
-0.2862811722892437
0
LINE
8
Polygon
10
0.7541831302310562
20
-0.2862811722892437
11
0.7538064587296293
21
-0.2868409510951604
0
LINE
8
Polygon
10
0.7538064587296293
20
-0.2868409510951604
11
0.7534329405732024
21
-0.2874028389116863
0
LINE
8
Polygon
10
0.7534329405732024
20
-0.2874028389116863
11
0.7530625875699747
21
-0.28796681797560697
0
LINE
8
Polygon
10
0.7530625875699747
20
-0.28796681797560697
11
0.7526954114280834
21
-0.28853287045759657
0
LINE
8
Polygon
10
0.7526954114280834
20
-0.2885328704575965
11
0.7523314237552345
21
-0.28910097846278116
0
LINE
8
Polygon
10
0.7523314237552345
20
-0.28910097846278116
11
0.7519706360583356
21
-0.2896711240313047
0
LINE
8
Polygon
10
0.7519706360583356
20
-0.2896711240313047
11
0.7516130597431315
21
-0.29024328913889674
0
LINE
8
Polygon
10
0.7516130597431315
20
-0.29024328913889674
11
0.7512587061138446
21
-0.29081745569744216
0
LINE
8
Polygon
10
0.7512587061138446
20
-0.2908174556974421
11
0.750907586372817
21
-0.29139360555555316
0
LINE
8
Polygon
10
0.750907586372817
20
-0.29139360555555316
11
0.7505597116201561
21
-0.291971720499143
0
LINE
8
Polygon
10
0.7505597116201561
20
-0.291971720499143
11
0.7502150928533844
21
-0.2925517822520017
0
LINE
8
Polygon
10
0.7502150928533844
20
-0.2925517822520017
11
0.7498737409670913
21
-0.2931337724763739
0
LINE
8
Polygon
10
0.7498737409670913
20
-0.2931337724763739
11
0.7495356667525886
21
-0.2937176727735388
0
LINE
8
Polygon
10
0.7495356667525886
20
-0.2937176727735387
11
0.7492008808975702
21
-0.2943034646843912
0
LINE
8
Polygon
10
0.7492008808975702
20
-0.2943034646843912
11
0.7488693939857728
21
-0.294891129690026
0
LINE
8
Polygon
10
0.7488693939857728
20
-0.294891129690026
11
0.7485412164966426
21
-0.29548064921232275
0
LINE
8
Polygon
10
0.7485412164966426
20
-0.29548064921232275
11
0.7482163588050036
21
-0.29607200461453337
0
LINE
8
Polygon
10
0.7482163588050036
20
-0.2960720046145333
11
0.7478948311807291
21
-0.2966651772018712
0
LINE
8
Polygon
10
0.7478948311807291
20
-0.2966651772018712
11
0.7475766437884178
21
-0.29726014822210234
0
LINE
8
Polygon
10
0.7475766437884178
20
-0.29726014822210234
11
0.7472618066870722
21
-0.29785689886613803
0
LINE
8
Polygon
10
0.7472618066870722
20
-0.29785689886613803
11
0.7469503298297803
21
-0.29845541026862943
0
LINE
8
Polygon
10
0.7469503298297803
20
-0.29845541026862943
11
0.7466422230634011
21
-0.2990556635085641
0
LINE
8
Polygon
10
0.7466422230634011
20
-0.2990556635085641
11
0.7463374961282538
21
-0.2996576396098642
0
LINE
8
Polygon
10
0.7463374961282538
20
-0.2996576396098642
11
0.7460361586578091
21
-0.3002613195419861
0
LINE
8
Polygon
10
0.7460361586578091
20
-0.3002613195419861
11
0.7457382201783852
21
-0.3008666842205224
0
LINE
8
Polygon
10
0.7457382201783852
20
-0.3008666842205224
11
0.7454436901088464
21
-0.30147371450780475
0
LINE
8
Polygon
10
0.7454436901088464
20
-0.3014737145078047
11
0.7451525777603052
21
-0.30208239121350944
0
LINE
8
Polygon
10
0.7451525777603052
20
-0.30208239121350944
11
0.7448648923358284
21
-0.30269269509526375
0
LINE
8
Polygon
10
0.7448648923358284
20
-0.30269269509526375
11
0.744580642930146
21
-0.3033046068592542
0
LINE
8
Polygon
10
0.744580642930146
20
-0.3033046068592542
11
0.7442998385293632
21
-0.3039181071608366
0
LINE
8
Polygon
10
0.7442998385293632
20
-0.30391810716083656
11
0.7440224880106769
21
-0.30453317660514767
0
LINE
8
Polygon
10
0.7440224880106769
20
-0.30453317660514767
11
0.743748600142095
21
-0.30514979574771817
0
LINE
8
Polygon
10
0.743748600142095
20
-0.30514979574771817
11
0.7434781835821587
21
-0.30576794509508737
0
LINE
8
Polygon
10
0.7434781835821587
20
-0.30576794509508737
11
0.7432112468796694
21
-0.30638760510541957
0
LINE
8
Polygon
10
0.7432112468796694
20
-0.3063876051054195
11
0.7429477984734183
21
-0.30700875618912177
0
LINE
8
Polygon
10
0.8494286626793437
20
-0.23362430062909534
11
0.8253789819770276
21
0.4656354761957346
0
LINE
8
Polygon
10
0.4667554307749565
20
0.3806583502903593
11
0.30962101759446975
21
0.2525087401276722
0
LINE
8
Polygon
10
0.30962101759446975
20
0.2525087401276722
11
0.5
21
-0.20710678118654746
0
LINE
8
Polygon
10
0.5
20
-0.20710678118654746
11
0.7426878466919193
21
-0.3076313787094631
0
LINE
8
Polygon
10
0.7346513301416787
20
0.4625150749802967
11
0.7348426959639323
21
0.4625262525786483
0
LINE
8
Polygon
10
0.7348426959639323
20
0.4625262525786483
11
0.735033306529315
21
0.4625465855321026
0
LINE
8
Polygon
10
0.735033306529315
20
0.4625465855321026
11
0.7352227240790216
21
0.4625760271437232
0
LINE
8
Polygon
10
0.7352227240790216
20
0.4625760271437232
11
0.7354105135941429
21
0.46261450979750635
0
LINE
8
Polygon
10
0.7354105135941429
20
0.46261450979750635
11
0.7355962437947359
21
0.4626619451136683
0
LINE
8
Polygon
10
0.7355962437947359
20
0.4626619451136683
11
0.7357794881303071
21
0.46271822415161973
0
LINE
8
Polygon
10
0.7357794881303071
20
0.46271822415161973
11
0.7359598257594345
21
0.46278321766016006
0
LINE
8
Polygon
10
0.7359598257594345
20
0.46278321766016006
11
0.7361368425162774
21
0.46285677637431766
0
LINE
8
Polygon
10
0.7361368425162774
20
0.46285677637431766
11
0.7363101318617553
21
0.46293873135815355
0
LINE
8
Polygon
10
0.7363101318617553
20
0.46293873135815355
11
0.736479295817211
21
0.4630288943927423
0
LINE
8
Polygon
10
0.736479295817211
20
0.4630288943927423
11
0.7366439458784142
21
0.4631270584084379
0
LINE
8
Polygon
10
0.7366439458784142
20
0.4631270584084379
11
0.7368037039078049
21
0.46323299796043277
0
LINE
8
Polygon
10
0.7368037039078049
20
0.46323299796043277
11
0.7369582030029299
21
0.4633464697465175
0
LINE
8
Polygon
10
0.7369582030029299
20
0.4633464697465175
11
0.7371070883390753
21
0.46346721316585177
0
LINE
8
Polygon
10
0.7371070883390753
20
0.46346721316585177
11
0.7372500179841626
21
0.4635949509174639
0
LINE
8
Polygon
10
0.7372500179841626
20
0.4635949509174639
11
0.7373866636840334
21
0.46372938963710414
0
LINE
8
Polygon
10
0.7373866636840334
20
0.46372938963710414
11
0.7375167116163234
21
0.46387022057098865
0
LINE
8
Polygon
10
0.7375167116163234
20
0.46387022057098865
11
0.7376398631111905
21
0.46401712028488795
0
LINE
8
Polygon
10
0.7376398631111905
20
0.46401712028488795
11
0.7377558353372441
21
0.4641697514069301
0
LINE
8
Polygon
10
0.7377558353372441
20
0.4641697514069301
11
0.7378643619510998
21
0.4643277634024137
0
LINE
8
Polygon
10
0.7378643619510998
20
0.4643277634024137
11
0.7379651937090667
21
0.4644907933788505
0
LINE
8
Polygon
10
0.7379651937090667
20
0.4644907933788505
11
0.7380580990395643
21
0.46465846691938933
0
LINE
8
Polygon
10
0.7380580990395643
20
0.46465846691938933
11
0.7381428645749527
21
0.4648303989427067
0
LINE
8
Polygon
10
0.7381428645749527
20
0.4648303989427067
11
0.7382192956415555
21
0.46500619458739006
0
LINE
8
Polygon
10
0.7382192956415555
20
0.46500619458739006
11
0.7382872167067506
21
0.4651854501187816
0
LINE
8
Polygon
10
0.7382872167067506
20
0.4651854501187816
11
0.7383464717820998
21
0.4653677538562009
0
LINE
8
Polygon
10
0.7383464717820998
20
0.4653677538562009
11
0.7383969247815948
21
0.4655526871184163
0
LINE
8
Polygon
10
0.7383969247815948
20
0.4655526871184163
11
0.738438459834194
21
0.46573982518519397
0
LINE
8
Polygon
10
0.738438459834194
20
0.46573982518519397
11
0.7384709815499331
21
0.4659287382727159
0
LINE
8
Polygon
10
0.7384709815499331
20
0.4659287382727159
11
0.7384944152389994
21
0.46611899252062755
0
LINE
8
Polygon
10
0.7384944152389994
20
0.46611899252062755
11
0.7385087070832654
21
0.46631015098844725
0
LINE
8
Polygon
10
0.7385087070832654
20
0.46631015098844725
11
0.738513824259888
21
0.4665017746590495
0
LINE
8
Polygon
10
0.738513824259888
20
0.4665017746590495
11
0.7385097550166901
21
0.46669342344691805
0
LINE
8
Polygon
10
0.7385097550166901
20
0.46669342344691805
11
0.7384965086991507
21
0.4668846572088518
0
LINE
8
Polygon
10
0.7384965086991507
20
0.4668846572088518
11
0.7384741157289422
21
0.4670750367548039
0
LINE
8
Polygon
10
0.7384741157289422
20
0.4670750367548039
11
0.7384426275340628
21
0.46726412485653146
0
LINE
8
Polygon
10
0.7384426275340628
20
0.46726412485653146
11
0.7384021164307274
21
0.4674514872517399
0
LINE
8
Polygon
10
0.7384021164307274
20
0.4674514872517399
11
0.7383526754572844
21
0.4676366936414156
0
LINE
8
Polygon
10
0.7383526754572844
20
0.4676366936414156
11
0.738294418160543
21
0.4678193186780564
0
LINE
8
Polygon
10
0.738294418160543
20
0.4678193186780564
11
0.7382274783349994
21
0.4679989429425305
0
LINE
8
Polygon
10
0.7382274783349994
20
0.4679989429425305
11
0.7381520097155634
21
0.4681751539073202
0
LINE
8
Polygon
10
0.7381520097155634
20
0.4681751539073202
11
0.7380681856244881
21
0.4683475468839378
0
LINE
8
Polygon
10
0.7380681856244881
20
0.4683475468839378
11
0.7379761985733161
21
0.46851572595233926
0
LINE
8
Polygon
10
0.7379761985733161
20
0.46851572595233926
11
0.7378762598207546
21
0.4686793048701989
0
LINE
8
Polygon
10
0.7378762598207546
20
0.4686793048701989
11
0.7377685988874957
21
0.4688379079599592
0
LINE
8
Polygon
10
0.7377685988874957
20
0.4688379079599592
11
0.7376534630290965
21
0.4689911709716169
0
LINE
8
Polygon
10
0.7376534630290965
20
0.4689911709716169
11
0.7375311166681283
21
0.46913874191926425
0
LINE
8
Polygon
10
0.7374018407869003
20
0.4692802818894648
11
0.736143729575919
21
0.47072583647870453
0
LINE
8
Polygon
10
0.736143729575919
20
0.47072583647870453
11
0.735029745617629
21
0.47228516698579454
0
LINE
8
Polygon
10
0.735029745617629
20
0.47228516698579454
11
0.7340701165989614
21
0.4739439569170998
0
LINE
8
Polygon
10
0.7340701165989614
20
0.4739439569170998
11
0.7332736530464048
21
0.47568697662413634
0
LINE
8
Polygon
10
0.7332736530464048
20
0.47568697662413634
11
0.7326476674349792
21
0.47749822312971113
0
LINE
8
Polygon
10
0.7326476674349792
20
0.47749822312971113
11
0.7321979070510878
21
0.47936106705413173
0
LINE
8
Polygon
10
0.7321979070510878
20
0.47936106705413173
11
0.7319285012256479
21
0.4812584052925299
0
LINE
8
Polygon
10
0.7319285012256479
20
0.4812584052925299
11
0.7318419234219615
21
0.48317281804154133
0
LINE
8
Polygon
10
0.7318419234219615
20
0.48317281804154133
11
0.7319389685264046
21
0.4850867287336512
0
LINE
8
Polygon
10
0.7319389685264046
20
0.4850867287336512
11
0.7322187455504318
21
0.4869825654108192
0
LINE
8
Polygon
10
0.7322187455504318
20
0.4869825654108192
11
0.7326786858109028
21
0.4888429220557845
0
LINE
8
Polygon
10
0.7326786858109028
20
0.4888429220557845
11
0.7333145665136238
21
0.4906507183998387
0
LINE
8
Polygon
10
0.7333145665136238
20
0.49065071839983876
11
0.7341205495235802
21
0.49238935673984235
0
LINE
8
Polygon
10
0.7341205495235802
20
0.49238935673984235
11
0.7350892349659027
21
0.49404287432472044
0
LINE
8
Polygon
10
0.7350892349659027
20
0.49404287432472044
11
0.7362117291654493
21
0.49559608991234927
0
LINE
8
Polygon
10
0.7362117291654493
20
0.49559608991234927
11
0.7374777263012346
21
0.4970347431512683
0
LINE
8
Polygon
10
0.7374777263012346
20
0.4970347431512683
11
0.7388756030260247
21
0.49834562550753025
0
LINE
8
Polygon
10
0.7388756030260247
20
0.49834562550753025
11
0.740392525182377
21
0.49951670153462513
0
LINE
8
Polygon
10
0.740392525182377
20
0.49951670153462513
11
0.7420145656353464
21
0.5005372193730775
0
LINE
8
Polygon
10
0.7420145656353464
20
0.5005372193730775
11
0.7437268321400144
21
0.5013978094652007
0
LINE
8
Polygon
10
0.7437268321400144
20
0.5013978094652007
11
0.7455136040698661
21
0.5020905705786903
0
LINE
8
Polygon
10
0.7455136040698661
20
0.5020905705786903
11
0.7473584767506871
21
0.5026091423492572
0
LINE
8
Polygon
10
0.7473584767506871
20
0.5026091423492572
11
0.7492445120748268
21
0.5029487636762762
0
LINE
8
Polygon
10
0.7492445120748268
20
0.5029487636762762
11
0.7511543940130081
21
0.5031063164353055
0
LINE
8
Polygon
10
0.7511543940130081
20
0.5031063164353055
11
0.7530705875959046
21
0.5030803541061485
0
LINE
8
Polygon
10
0.7530705875959046
20
0.5030803541061485
11
0.7549754999058453
21
0.5028711150536154
0
LINE
8
Polygon
10
0.7549754999058453
20
0.5028711150536154
11
0.7568516416005541
21
0.5024805203390527
0
LINE
8
Polygon
10
0.7568516416005541
20
0.5024805203390527
11
0.7586817874859436
21
0.5019121560827341
0
LINE
8
Polygon
10
0.7586817874859436
20
0.5019121560827341
11
0.7604491346637187
21
0.5011712405390457
0
LINE
8
Polygon
10
0.7604491346637187
20
0.5011712405390457
11
0.7621374568018053
21
0.5002645761867546
0
LINE
8
Polygon
10
0.7621374568018053
20
0.5002645761867546
11
0.7637312531112213
21
0.4992004872742285
0
LINE
8
Polygon
10
0.7637312531112213
20
0.4992004872742285
11
0.7652158906616061
21
0.4979887433930159
0
LINE
8
Polygon
10
0.7652158906616061
20
0.4979887433930159
11
0.7665777387287845
21
0.4966404697814699
0
LINE
8
Polygon
10
0.7665777387287845
20
0.4966404697814699
11
0.7678042939408947
21
0.4951680451819355
0
LINE
8
Polygon
10
0.7678042939408947
20
0.4951680451819355
11
0.7688842950740926
21
0.49358498818929125
0
LINE
8
Polygon
10
0.7688842950740926
20
0.49358498818929125
11
0.7698078264438722
21
0.4919058331343002
0
LINE
8
Polygon
10
0.7698078264438722
20
0.4919058331343002
11
0.7705664089427465
21
0.49014599664130704
0
LINE
8
Polygon
10
0.7705664089427465
20
0.49014599664130704
11
0.7711530778884577
21
0.4883216360854391
0
LINE
8
Polygon
10
0.7711530778884577
20
0.4883216360854391
11
0.7715624469679767
21
0.4864495012488414
0
LINE
8
Polygon
10
0.7715624469679767
20
0.4864495012488414
11
0.7717907576902109
21
0.4845467805379167
0
LINE
8
Polygon
10
0.7717907576902109
20
0.4845467805379167
11
0.7718359138933865
21
0.48263094317347693
0
LINE
8
Polygon
10
0.7718359138933865
20
0.48263094317347693
11
0.7716975009902864
21
0.4807195788026873
0
LINE
8
Polygon
10
0.7716975009902864
20
0.4807195788026873
11
0.7713767897746504
21
0.4788302360053543
0
LINE
8
Polygon
10
0.7713767897746504
20
0.4788302360053543
11
0.7708767247537884
21
0.4769802611772609
0
LINE
8
Polygon
10
0.7708767247537884
20
0.4769802611772609
11
0.7702018971145311
21
0.475186639269789
0
LINE
8
Polygon
10
0.7702018971145311
20
0.475186639269789
11
0.769358502570717
21
0.4734658378480283
0
LINE
8
Polygon
10
0.7693585025707171
20
0.4734658378480283
11
0.7683542844792316
21
0.47183365589910164
0
LINE
8
Polygon
10
0.7671984627468549
20
0.47030507877882466
11
0.7670792168219323
21
0.47015499138421385
0
LINE
8
Polygon
10
0.7670792168219323
20
0.47015499138421385
11
0.7669672984003795
21
0.4699993633547692
0
LINE
8
Polygon
10
0.7669672984003795
20
0.4699993633547692
11
0.7668629645155587
21
0.4698385521079303
0
LINE
8
Polygon
10
0.7668629645155587
20
0.4698385521079303
11
0.7667664547820824
21
0.4696729269649839
0
LINE
8
Polygon
10
0.7667664547820824
20
0.4696729269649839
11
0.7666779908455111
21
0.46950286830287574
0
LINE
8
Polygon
10
0.7666779908455111
20
0.46950286830287574
11
0.7665977758733196
21
0.4693287666806318
0
LINE
8
Polygon
10
0.7665977758733196
20
0.4693287666806318
11
0.7665259940882988
21
0.46915102194239483
0
LINE
8
Polygon
10
0.7665259940882988
20
0.46915102194239483
11
0.7664628103454681
21
0.46897004229913736
0
LINE
8
Polygon
10
0.7664628103454681
20
0.46897004229913736
11
0.7664083697534668
21
0.4687862433911585
0
LINE
8
Polygon
10
0.7664083697534668
20
0.4687862433911585
11
0.7663627973412958
21
0.4686000473335187
0
LINE
8
Polygon
10
0.7663627973412958
20
0.4686000473335187
11
0.7663261977711735
21
0.4684118817466051
0
LINE
8
Polygon
10
0.7663261977711735
20
0.46841188174660503
11
0.7662986550981685
21
0.4682221787740521
0
LINE
8
Polygon
10
0.7662986550981685
20
0.4682221787740521
11
0.7662802325771564
21
0.46803137409027507
0
LINE
8
Polygon
10
0.7662802325771564
20
0.46803137409027507
11
0.7662709725175485
21
0.46783990589989416
0
LINE
8
Polygon
10
0.7662709725175485
20
0.46783990589989416
11
0.766270896186123
21
0.46764821393134776
0
LINE
8
Polygon
10
0.766270896186123
20
0.46764821393134776
11
0.7662800037581836
21
0.4674567384270062
0
LINE
8
Polygon
10
0.7662800037581836
20
0.4674567384270062
11
0.7662982743171571
21
0.4672659191321053
0
LINE
8
Polygon
10
0.7662982743171571
20
0.4672659191321053
11
0.7663256659026304
21
0.4670761942848213
0
LINE
8
Polygon
10
0.7663256659026304
20
0.4670761942848213
11
0.7663621156067174
21
0.4668879996098072
0
LINE
8
Polygon
10
0.7663621156067174
20
0.4668879996098072
11
0.7664075397185343
21
0.46670176731750174
0
LINE
8
Polygon
10
0.7664075397185343
20
0.46670176731750174
11
0.7664618339164506
21
0.4665179251115089
0
LINE
8
Polygon
10
0.7664618339164506
20
0.4665179251115089
11
0.7665248735076765
21
0.46633689520632815
0
LINE
8
Polygon
10
0.7665248735076765
20
0.46633689520632815
11
0.7665965137146331
21
0.4661590933576907
0
LINE
8
Polygon
10
0.7665965137146331
20
0.4661590933576907
11
0.7666765900074514
21
0.4659849279077295
0
LINE
8
Polygon
10
0.7666765900074514
20
0.4659849279077295
11
0.7667649184818328
21
0.4658147988471751
0
LINE
8
Polygon
10
0.7667649184818328
20
0.4658147988471751
11
0.7668612962814073
21
0.4656490968967313
0
LINE
8
Polygon
10
0.7668612962814073
20
0.4656490968967313
11
0.7669655020636154
21
0.4654882026097411
0
LINE
8
Polygon
10
0.7669655020636154
20
0.4654882026097411
11
0.7670772965080469
21
0.46533248549820244
0
LINE
8
Polygon
10
0.7670772965080469
20
0.46533248549820244
11
0.7671964228660669
21
0.465182303184142
0
LINE
8
Polygon
10
0.7671964228660669
20
0.465182303184142
11
0.7673226075504689
21
0.4650380005782956
0
LINE
8
Polygon
10
0.7673226075504689
20
0.4650380005782956
11
0.7674555607637981
21
0.46489990908798157
0
LINE
8
Polygon
10
0.7674555607637981
20
0.46489990908798157
11
0.7675949771639046
21
0.46476834585598636
0
LINE
8
Polygon
10
0.7675949771639046
20
0.46476834585598636
11
0.7677405365651964
21
0.46464361303220986
0
LINE
8
Polygon
10
0.7677405365651964
20
0.46464361303220986
11
0.7678919046739815
21
0.46452599707974385
0
LINE
8
Polygon
10
0.7678919046739815
20
0.46452599707974385
11
0.7680487338562121
21
0.4644157681169774
0
LINE
8
Polygon
10
0.7680487338562121
20
0.4644157681169774
11
0.7682106639358647
21
0.46431317929723864
0
LINE
8
Polygon
10
0.7682106639358647
20
0.46431317929723864
11
0.768377323022126
21
0.46421846622740015
0
LINE
8
Polygon
10
0.768377323022126
20
0.46421846622740015
11
0.7685483283634821
21
0.4641318464267804
0
LINE
8
Polygon
10
0.7685483283634821
20
0.4641318464267804
11
0.7687232872267504
21
0.46405351882758633
0
LINE
8
Polygon
10
0.7687232872267504
20
0.46405351882758633
11
0.7689017977990371
21
0.46398366331804275
0
LINE
8
Polygon
10
0.7689017977990371
20
0.46398366331804275
11
0.7690834501105446
21
0.4639224403292586
0
LINE
8
Polygon
10
0.7690834501105446
20
0.4639224403292586
11
0.769267826976115
21
0.463869990466779
0
LINE
8
Polygon
10
0.769267826976115
20
0.463869990466779
11
0.7694545049533423
21
0.46382643418766817
0
LINE
8
Polygon
10
0.7694545049533423
20
0.46382643418766817
11
0.7696430553150567
21
0.4637918715238665
0
LINE
8
Polygon
10
0.7696430553150567
20
0.4637918715238665
11
0.7698330450339445
21
0.46376638185245556
0
LINE
8
Polygon
10
0.7698330450339445
20
0.46376638185245556
11
0.7700240377770449
21
0.4637500237133598
0
LINE
8
Polygon
10
0.7700240377770449
20
0.4637500237133598
11
0.7702155949078382
21
0.4637428346749031
0
LINE
8
Polygon
10
0.6796796246582752
20
0.4606244300320905
11
0.7346513301416787
21
0.4625150749802967
0
LINE
8
Polygon
10
0.8253789819770276
20
0.4656354761957346
11
0.7704072764936242
21
0.46374483124752847
0
LINE
8
Polygon
10
0.7374018407869003
20
0.46928028188946486
11
0.7374018407869003
21
0.4692802818894648
0
LINE
8
Polygon
10
0.7671984627468549
20
0.4703050787788246
11
0.7671984627468549
21
0.47030507877882466
0
LINE
8
Polygon
10
-0.9737947291879736
20
-1.0431641075223868
11
1.0431641075223865
21
-0.9737947291879736
0
LINE
8
Polygon
10
1.0431641075223865
20
-0.9737947291879736
11
0.9737947291879736
21
1.0431641075223868
0
LINE
8
Polygon
10
0.9737947291879736
20
1.0431641075223868
11
-1.0431641075223865
21
0.9737947291879736
0
ENDSEC
0
EOF
