0
SECTION
2
ENTITIES
0
LINE
8
Polygon
10
0.725442190897696
20
0.5916280977377272
11
0.7259572569200298
21
0.5910008769974122
0
LINE
8
Polygon
10
0.7259572569200298
20
0.5910008769974122
11
0.726476553254582
21
0.5903771541572302
0
LINE
8
Polygon
10
0.726476553254582
20
0.5903771541572304
11
0.7270000561471927
21
0.5897569577481209
0
LINE
8
Polygon
10
0.7270000561471927
20
0.5897569577481209
11
0.727527741651281
21
0.5891403161397136
0
LINE
8
Polygon
10
0.727527741651281
20
0.5891403161397136
11
0.7280595856289414
21
0.5885272575390315
0
LINE
8
Polygon
10
0.7280595856289414
20
0.5885272575390316
11
0.728595563752047
21
0.5879178099891997
0
LINE
8
Polygon
10
0.728595563752047
20
0.5879178099891997
11
0.7291356515033633
21
0.5873120013681633
0
LINE
8
Polygon
10
0.7291356515033633
20
0.5873120013681633
11
0.7296798241776689
21
0.5867098593874118
0
LINE
8
Polygon
10
0.7296798241776687
20
0.5867098593874118
11
0.7302280568828854
21
0.5861114115907121
0
LINE
8
Polygon
10
0.7302280568828854
20
0.5861114115907121
11
0.7307803245412173
21
0.5855166853528475
0
LINE
8
Polygon
10
0.7307803245412173
20
0.5855166853528475
11
0.7313366018902979
21
0.5849257078783666
0
LINE
8
Polygon
10
0.7313366018902979
20
0.5849257078783666
11
0.7318968634843455
21
0.5843385062003382
0
LINE
8
Polygon
10
0.7318968634843455
20
0.5843385062003383
11
0.7324610836953267
21
0.583755107179115
0
LINE
8
Polygon
10
0.7324610836953267
20
0.583755107179115
11
0.73302923671413
21
0.583175537501105
0
LINE
8
Polygon
10
0.73302923671413
20
0.583175537501105
11
0.7336012965517447
21
0.5825998236775501
0
LINE
8
Polygon
10
0.7336012965517447
20
0.5825998236775501
11
0.7341772370404512
21
0.5820279920433146
0
LINE
8
Polygon
10
0.7341772370404512
20
0.5820279920433146
11
0.7347570318350171
21
0.5814600687556796
0
LINE
8
Polygon
10
0.7347570318350171
20
0.5814600687556796
11
0.7353406544139026
21
0.5808960797931466
0
LINE
8
Polygon
10
0.7353406544139026
20
0.5808960797931466
11
0.7359280780804738
21
0.5803360509542498
0
LINE
8
Polygon
10
0.7359280780804738
20
0.5803360509542498
11
0.7365192759642234
21
0.5797800078563753
0
LINE
8
Polygon
10
0.7365192759642234
20
0.5797800078563753
11
0.7371142210220005
21
0.5792279759345894
0
LINE
8
Polygon
10
0.7371142210220004
20
0.5792279759345894
11
0.7377128860392471
21
0.5786799804404756
0
LINE
8
Polygon
10
0.7377128860392471
20
0.5786799804404756
11
0.7383152436312435
21
0.578136046440979
0
LINE
8
Polygon
10
0.7383152436312435
20
0.578136046440979
11
0.73892126624436
21
0.5775961988172599
0
LINE
8
Polygon
10
0.73892126624436
20
0.5775961988172599
11
0.7395309261573187
21
0.5770604622635553
0
LINE
8
Polygon
10
0.7395309261573187
20
0.5770604622635553
11
0.7401441954824604
21
0.5765288612860503
0
LINE
8
Polygon
10
0.7401441954824604
20
0.5765288612860503
11
0.7407610461670203
21
0.5760014202017557
0
LINE
8
Polygon
10
0.7407610461670203
20
0.5760014202017557
11
0.7413814499944122
21
0.575478163137397
0
LINE
8
Polygon
10
0.7413814499944122
20
0.575478163137397
11
0.7420053785855183
21
0.5749591140283097
0
LINE
8
Polygon
10
0.7420053785855183
20
0.5749591140283097
11
0.7426328033999875
21
0.574444296617345
0
LINE
8
Polygon
10
0.7426328033999875
20
0.574444296617345
11
0.7432636957375411
21
0.573933734453784
0
LINE
8
Polygon
10
0.743263695737541
20
0.573933734453784
11
0.7438980267392856
21
0.5734274508922598
0
LINE
8
Polygon
10
0.7438980267392856
20
0.5734274508922598
11
0.7445357673890329
21
0.5729254690916894
0
LINE
8
Polygon
10
0.7445357673890329
20
0.5729254690916894
11
0.7451768885146273
21
0.5724278120142148
0
LINE
8
Polygon
10
0.7451768885146273
20
0.5724278120142148
11
0.74582136078928
21
0.5719345024241519
0
LINE
8
Polygon
10
0.74582136078928
20
0.5719345024241519
11
0.7464691547329108
21
0.5714455628869499
0
LINE
8
Polygon
10
0.7464691547329108
20
0.5714455628869499
11
0.7471202407134963
21
0.5709610157681587
0
LINE
8
Polygon
10
0.7471202407134963
20
0.5709610157681587
11
0.7477745889484259
21
0.5704808832324058
0
LINE
8
Polygon
10
0.7477745889484257
20
0.5704808832324059
11
0.7484321695058633
21
0.5700051872423826
0
LINE
8
Polygon
10
0.7484321695058633
20
0.5700051872423826
11
0.7490929523061166
21
0.5695339495578396
0
LINE
8
Polygon
10
0.7490929523061165
20
0.5695339495578396
11
0.7497569071230135
21
0.5690671917345914
0
LINE
8
Polygon
10
0.7497569071230135
20
0.5690671917345914
11
0.7504240035852842
21
0.5686049351235302
0
LINE
8
Polygon
10
0.7504240035852842
20
0.5686049351235302
11
0.7510942111779508
21
0.5681472008696492
0
LINE
8
Polygon
10
0.7510942111779508
20
0.5681472008696492
11
0.7517674992437231
21
0.5676940099110759
0
LINE
8
Polygon
10
0.751767499243723
20
0.5676940099110759
11
0.7524438369844006
21
0.5672453829781137
0
LINE
8
Polygon
10
0.7524438369844006
20
0.5672453829781137
11
0.7531231934622821
21
0.5668013405922938
0
LINE
8
Polygon
10
0.7531231934622821
20
0.5668013405922938
11
0.7538055376015798
21
0.566361903065437
0
LINE
8
Polygon
10
0.7544908381898415
20
0.5659270904987237
11
0.7546457672875255
21
0.5658244207512767
0
LINE
8
Polygon
10
0.7546457672875255
20
0.5658244207512767
11
0.7547957598653326
21
0.565714664981712
0
LINE
8
Polygon
10
0.7547957598653326
20
0.565714664981712
11
0.754940492088328
21
0.5655980601534379
0
LINE
8
Polygon
10
0.754940492088328
20
0.5655980601534379
11
0.7550796514787164
21
0.565474858017025
0
LINE
8
Polygon
10
0.7550796514787164
20
0.565474858017025
11
0.7552129375904837
21
0.5653453245666735
0
LINE
8
Polygon
10
0.7552129375904837
20
0.5653453245666735
11
0.7553400626580619
21
0.5652097394659316
0
LINE
8
Polygon
10
0.7553400626580619
20
0.5652097394659316
11
0.7554607522176171
21
0.5650683954438989
0
LINE
8
Polygon
10
0.7554607522176171
20
0.5650683954438989
11
0.755574745699618
21
0.5649215976632233
0
LINE
8
Polygon
10
0.755574745699618
20
0.5649215976632233
11
0.7556817969914078
21
0.5647696630612522
0
LINE
8
Polygon
10
0.7556817969914078
20
0.5647696630612522
11
0.7557816749685629
21
0.5646129196657632
0
LINE
8
Polygon
10
0.7557816749685629
20
0.5646129196657632
11
0.7558741639938915
21
0.56445170588675
0
LINE
8
Polygon
10
0.7558741639938915
20
0.56445170588675
11
0.7559590643829963
21
0.5642863697857925
0
LINE
8
Polygon
10
0.7559590643829963
20
0.5642863697857925
11
0.7560361928353944
21
0.5641172683245903
0
LINE
8
Polygon
10
0.7560361928353944
20
0.5641172683245903
11
0.7561053828302633
21
0.5639447665942802
0
LINE
8
Polygon
10
0.7561053828302633
20
0.5639447665942802
11
0.7561664849859616
21
0.5637692370272009
0
LINE
8
Polygon
10
0.7561664849859616
20
0.5637692370272009
11
0.7562193673825445
21
0.563591058592811
0
LINE
8
Polygon
10
0.7562193673825445
20
0.563591058592811
11
0.7562639158465793
21
0.5634106159794899
0
LINE
8
Polygon
10
0.7562639158465793
20
0.5634106159794899
11
0.7563000341976471
21
0.5632282987639943
0
LINE
8
Polygon
10
0.7563000341976471
20
0.5632282987639943
11
0.7563276444559971
21
0.5630445005703583
0
LINE
8
Polygon
10
0.7563276444559971
20
0.5630445005703583
11
0.7563466870109048
21
0.5628596182200579
0
LINE
8
Polygon
10
0.7563466870109048
20
0.5628596182200579
11
0.7563571207493723
21
0.5626740508752702
0
LINE
8
Polygon
10
0.7563571207493723
20
0.5626740508752702
11
0.7563589231448916
21
0.5624881991770795
0
LINE
8
Polygon
10
0.7563589231448916
20
0.5624881991770795
11
0.7563520903060792
21
0.562302464380491
0
LINE
8
Polygon
10
0.7563520903060792
20
0.562302464380491
11
0.7563366369850778
21
0.5621172474881189
0
LINE
8
Polygon
10
0.7563366369850778
20
0.5621172474881189
11
0.7563125965457064
21
0.5619329483844183
0
LINE
8
Polygon
10
0.7563125965457064
20
0.5619329483844183
11
0.7562800208914272
21
0.5617499649723333
0
LINE
8
Polygon
10
0.7562800208914272
20
0.5617499649723333
11
0.7562389803532863
21
0.561568692314221
0
LINE
8
Polygon
10
0.7562389803532863
20
0.561568692314221
11
0.756189563538068
21
0.56138952177891
0
LINE
8
Polygon
10
0.756189563538068
20
0.56138952177891
11
0.7561318771369926
21
0.5612128401967319
0
LINE
8
Polygon
10
0.7561318771369926
20
0.5612128401967319
11
0.7560660456953688
21
0.561039029024353
0
LINE
8
Polygon
10
0.7560660456953688
20
0.561039029024353
11
0.7559922113437004
21
0.5608684635212062
0
LINE
8
Polygon
10
0.7559922113437004
20
0.5608684635212062
11
0.7559105334908249
21
0.5607015119393041
0
LINE
8
Polygon
10
0.7559105334908249
20
0.5607015119393041
11
0.7558211884797491
21
0.5605385347281798
0
LINE
8
Polygon
10
0.7558211884797491
20
0.5605385347281798
11
0.7557243692069235
21
0.5603798837566747
0
LINE
8
Polygon
10
0.7557243692069235
20
0.5603798837566747
11
0.7556202847057775
21
0.5602259015532512
0
LINE
8
Polygon
10
0.7556202847057775
20
0.5602259015532512
11
0.7555091596954147
21
0.5600769205664714
0
LINE
8
Polygon
10
0.7555091596954147
20
0.5600769205664714
11
0.7553912340954435
21
0.559933262447239
0
LINE
8
Polygon
10
0.7553912340954435
20
0.559933262447239
11
0.7552667625079886
21
0.5597952373543521
0
LINE
8
Polygon
10
0.7552667625079886
20
0.5597952373543521
11
0.7551360136680034
21
0.5596631432848692
0
LINE
8
Polygon
10
0.7551360136680034
20
0.5596631432848692
11
0.75499926986307
21
0.5595372654307316
0
LINE
8
Polygon
10
0.75499926986307
20
0.5595372654307316
11
0.7548568263239378
21
0.5594178755630312
0
LINE
8
Polygon
10
0.7548568263239378
20
0.5594178755630312
11
0.7547089905871192
21
0.5593052314452565
0
LINE
8
Polygon
10
0.7547089905871192
20
0.5593052314452565
11
0.7545560818309154
21
0.559199576276778
0
LINE
8
Polygon
10
0.7545560818309154
20
0.559199576276778
11
0.7543984301863094
21
0.5591011381677805
0
LINE
8
Polygon
10
0.7543984301863094
20
0.5591011381677805
11
0.7542363760242103
21
0.5590101296467709
0
LINE
8
Polygon
10
0.7542363760242103
20
0.5590101296467709
11
0.7540702692205907
21
0.5589267472017284
0
LINE
8
Polygon
10
0.7540702692205907
20
0.5589267472017284
11
0.7539004684011023
21
0.5588511708558851
0
LINE
8
Polygon
10
0.7537273401668004
20
0.5587835637790551
11
0.7519104860050434
21
0.5580189246067297
0
LINE
8
Polygon
10
0.7519104860050434
20
0.5580189246067297
11
0.7501777276738402
21
0.557079147678627
0
LINE
8
Polygon
10
0.7501777276738401
20
0.557079147678627
11
0.7485458973267126
21
0.5559733620632646
0
LINE
8
Polygon
10
0.7485458973267126
20
0.5559733620632646
11
0.7470308466946436
21
0.5547123094508745
0
LINE
8
Polygon
10
0.7470308466946436
20
0.5547123094508745
11
0.7456472931010899
21
0.5533082398077609
0
LINE
8
Polygon
10
0.7456472931010899
20
0.5533082398077609
11
0.7444086764967204
21
0.5517747923791451
0
LINE
8
Polygon
10
0.7444086764967204
20
0.5517747923791451
11
0.7433270289026566
21
0.5501268631964419
0
LINE
8
Polygon
10
0.7433270289026566
20
0.550126863196442
11
0.7424128575304535
21
0.5483804603760156
0
LINE
8
Polygon
10
0.7424128575304535
20
0.5483804603760156
11
0.7416750427142036
21
0.5465525486150515
0
LINE
8
Polygon
10
0.7416750427142036
20
0.5465525486150515
11
0.741120751646258
21
0.5446608843951266
0
LINE
8
Polygon
10
0.741120751646258
20
0.5446608843951266
11
0.7407553687545451
21
0.5427238434943215
0
LINE
8
Polygon
10
0.7407553687545451
20
0.5427238434943215
11
0.740582443397805
21
0.5407602424834373
0
LINE
8
Polygon
10
0.740582443397805
20
0.5407602424834373
11
0.7406036553868341
21
0.5387891559403171
0
LINE
8
Polygon
10
0.7406036553868341
20
0.5387891559403171
11
0.7408187986666686
21
0.5368297311578641
0
LINE
8
Polygon
10
0.7408187986666686
20
0.5368297311578641
11
0.7412257833182179
21
0.5349010021457031
0
LINE
8
Polygon
10
0.7412257833182179
20
0.5349010021457031
11
0.7418206558599071
21
0.5330217047322816
0
LINE
8
Polygon
10
0.7418206558599071
20
0.5330217047322816
11
0.7425976376521146
21
0.5312100945635293
0
LINE
8
Polygon
10
0.7425976376521146
20
0.5312100945635293
11
0.7435491810313407
21
0.5294837697660478
0
LINE
8
Polygon
10
0.7435491810313407
20
0.5294837697660478
11
0.744666042628817
21
0.527859499997496
0
LINE
8
Polygon
10
0.744666042628817
20
0.527859499997496
11
0.7459373731613322
21
0.5263530635447895
0
LINE
8
Polygon
10
0.7459373731613322
20
0.5263530635447895
11
0.7473508228220411
21
0.5249790940525553
0
LINE
8
Polygon
10
0.7473508228220411
20
0.5249790940525553
11
0.7488926612474784
21
0.5237509383707325
0
LINE
8
Polygon
10
0.7488926612474784
20
0.5237509383707325
11
0.7505479108954125
21
0.5226805269022015
0
LINE
8
Polygon
10
0.7505479108954125
20
0.5226805269022015
11
0.7523004925378924
21
0.521778257709892
0
LINE
8
Polygon
10
0.7523004925378924
20
0.521778257709892
11
0.7541333814561594
21
0.5210528955091653
0
LINE
8
Polygon
10
0.7541333814561594
20
0.5210528955091653
11
0.7560287728201308
21
0.520511486526666
0
LINE
8
Polygon
10
0.7560287728201308
20
0.520511486526666
11
0.7579682546459496
21
0.5201592900527101
0
LINE
8
Polygon
10
0.7579682546459496
20
0.5201592900527101
11
0.7599329866514731
21
0.5199997273521174
0
LINE
8
Polygon
10
0.7599329866514731
20
0.5199997273521174
11
0.7619038832722858
21
0.5200343484297698
0
LINE
8
Polygon
10
0.7619038832722858
20
0.5200343484297698
11
0.7638617990604045
21
0.52026281697374
0
LINE
8
Polygon
10
0.7638617990604045
20
0.52026281697374
11
0.7657877146646971
21
0.5206829136222519
0
LINE
8
Polygon
10
0.7657877146646971
20
0.5206829136222519
11
0.7676629215863855
21
0.5212905575227401
0
LINE
8
Polygon
10
0.7676629215863855
20
0.5212905575227401
11
0.7694692039149051
21
0.522079845973578
0
LINE
8
Polygon
10
0.7694692039149051
20
0.522079845973578
11
0.7711890152787223
21
0.5230431117633961
0
LINE
8
Polygon
10
0.7711890152787223
20
0.5230431117633961
11
0.7728056492921955
21
0.5241709976509885
0
LINE
8
Polygon
10
0.7728056492921955
20
0.5241709976509885
11
0.7743034018427468
21
0.5254525472623052
0
LINE
8
Polygon
10
0.7743034018427468
20
0.5254525472623052
11
0.775667723641872
21
0.5268753115215485
0
LINE
8
Polygon
10
0.775667723641872
20
0.5268753115215485
11
0.776885361558097
21
0.5284254695824958
0
LINE
8
Polygon
10
0.776885361558097
20
0.5284254695824958
11
0.7779444873589609
21
0.530087963085308
0
LINE
8
Polygon
10
0.7779444873589609
20
0.530087963085308
11
0.7788348126114157
21
0.5318466424346466
0
LINE
8
Polygon
10
0.7788348126114157
20
0.5318466424346466
11
0.7795476886244904
21
0.5336844236781386
0
LINE
8
Polygon
10
0.7795476886244904
20
0.5336844236781386
11
0.7800761904633698
21
0.5355834544612619
0
LINE
8
Polygon
10
0.7800761904633698
20
0.5355834544612619
11
0.780415184218767
21
0.5375252874465494
0
LINE
8
Polygon
10
0.780415184218767
20
0.5375252874465493
11
0.7805613768781301
21
0.5394910595125063
0
LINE
8
Polygon
10
0.7805613768781301
20
0.5394910595125063
11
0.7805133483142309
21
0.541461674991487
0
LINE
8
Polygon
10
0.7805133483142309
20
0.541461674991487
11
0.7802715650803944
21
0.5434179911665427
0
LINE
8
Polygon
10
0.7802715650803944
20
0.5434179911665427
11
0.7798383758783627
21
0.5453410042253105
0
LINE
8
Polygon
10
0.7792179887428176
20
0.5472120338645728
11
0.7791549157819428
21
0.5473868649372016
0
LINE
8
Polygon
10
0.7791549157819428
20
0.5473868649372016
11
0.7791000322608134
21
0.5475644371801294
0
LINE
8
Polygon
10
0.7791000322608134
20
0.5475644371801294
11
0.7790534566733023
21
0.5477443672137479
0
LINE
8
Polygon
10
0.7790534566733023
20
0.5477443672137479
11
0.7790152895764008
21
0.5479262665679636
0
LINE
8
Polygon
10
0.7790152895764008
20
0.5479262665679636
11
0.7789856133731154
21
0.5481097425209072
0
LINE
8
Polygon
10
0.7789856133731154
20
0.5481097425209072
11
0.7789644921345588
21
0.5482943989468225
0
LINE
8
Polygon
10
0.7789644921345588
20
0.5482943989468225
11
0.7789519714616202
21
0.5484798371713049
0
LINE
8
Polygon
10
0.7789519714616202
20
0.5484798371713049
11
0.7789480783865124
21
0.5486656568320413
0
LINE
8
Polygon
10
0.7789480783865124
20
0.5486656568320413
11
0.7789528213144097
21
0.5488514567431956
0
LINE
8
Polygon
10
0.7789528213144097
20
0.5488514567431956
11
0.7789661900053002
21
0.549036835761571
0
LINE
8
Polygon
10
0.7789661900053002
20
0.549036835761571
11
0.7789881555960949
21
0.5492213936526812
0
LINE
8
Polygon
10
0.7789881555960949
20
0.5492213936526812
11
0.7790186706629426
21
0.5494047319548585
0
LINE
8
Polygon
10
0.7790186706629426
20
0.5494047319548585
11
0.7790576693236191
21
0.5495864548395358
0
LINE
8
Polygon
10
0.7790576693236191
20
0.5495864548395358
11
0.7791050673797661
21
0.5497661699658426
0
LINE
8
Polygon
10
0.7791050673797661
20
0.5497661699658426
11
0.7791607624986776
21
0.5499434893276716
0
LINE
8
Polygon
10
0.7791607624986776
20
0.5499434893276716
11
0.7792246344342353
21
0.5501180300913862
0
LINE
8
Polygon
10
0.7792246344342353
20
0.5501180300913862
11
0.7792965452865218
21
0.5502894154223612
0
LINE
8
Polygon
10
0.7792965452865218
20
0.5502894154223612
11
0.7793763397995471
21
0.5504572752985706
0
LINE
8
Polygon
10
0.7793763397995471
20
0.5504572752985706
11
0.7794638456964471
21
0.5506212473094679
0
LINE
8
Polygon
10
0.7794638456964471
20
0.5506212473094679
11
0.7795588740514307
21
0.5507809774384328
0
LINE
8
Polygon
10
0.7795588740514307
20
0.5507809774384328
11
0.7796612196976714
21
0.5509361208270948
0
LINE
8
Polygon
10
0.7796612196976714
20
0.5509361208270948
11
0.7797706616702644
21
0.5510863425198855
0
LINE
8
Polygon
10
0.7797706616702644
20
0.5510863425198855
11
0.7798869636832909
21
0.5512313181872094
0
LINE
8
Polygon
10
0.7798869636832909
20
0.5512313181872094
11
0.7800098746399606
21
0.5513707348256731
0
LINE
8
Polygon
10
0.7800098746399606
20
0.5513707348256731
11
0.780139129174732
21
0.5515042914338624
0
LINE
8
Polygon
10
0.780139129174732
20
0.5515042914338624
11
0.7802744482262376
21
0.5516316996622058
0
LINE
8
Polygon
10
0.7802744482262376
20
0.5516316996622058
11
0.7804155396397795
21
0.5517526844355235
0
LINE
8
Polygon
10
0.7804155396397795
20
0.5517526844355235
11
0.7805620987980935
21
0.5518669845469157
0
LINE
8
Polygon
10
0.7805620987980935
20
0.5518669845469157
11
0.7807138092790191
21
0.5519743532217111
0
LINE
8
Polygon
10
0.7807138092790191
20
0.5519743532217111
11
0.7808703435386576
21
0.5520745586502537
0
LINE
8
Polygon
10
0.7808703435386576
20
0.5520745586502537
11
0.7810313636185412
21
0.5521673844883823
0
LINE
8
Polygon
10
0.7810313636185412
20
0.5521673844883823
11
0.7811965218752872
21
0.5522526303245188
0
LINE
8
Polygon
10
0.7811965218752872
20
0.5522526303245188
11
0.781365461731163
21
0.5523301121123574
0
LINE
8
Polygon
10
0.781365461731163
20
0.5523301121123574
11
0.7815378184439388
21
0.5523996625682227
0
LINE
8
Polygon
10
0.7815378184439388
20
0.5523996625682227
11
0.7817132198943695
21
0.5524611315322355
0
LINE
8
Polygon
10
0.7817132198943695
20
0.5524611315322355
11
0.7818912873896013
21
0.5525143862925094
0
LINE
8
Polygon
10
0.7818912873896013
20
0.5525143862925094
11
0.7820716364807733
21
0.5525593118716761
0
LINE
8
Polygon
10
0.7820716364807733
20
0.5525593118716761
11
0.7822538777930436
21
0.5525958112751229
0
LINE
8
Polygon
10
0.7822538777930436
20
0.5525958112751229
11
0.7824376178662534
21
0.5526238057004044
0
LINE
8
Polygon
10
0.7824376178662534
20
0.5526238057004044
11
0.7826224600044093
21
0.5526432347073771
0
LINE
8
Polygon
10
0.7826224600044093
20
0.5526432347073771
11
0.7828080051321525
21
0.5526540563486908
0
LINE
8
Polygon
10
0.7828080051321525
20
0.5526540563486908
11
0.7829938526563655
21
0.5526562472603528
0
LINE
8
Polygon
10
0.7829938526563655
20
0.5526562472603528
11
0.7831796013310545
21
0.5526498027121706
0
LINE
8
Polygon
10
0.7831796013310545
20
0.5526498027121706
11
0.7833648501236427
21
0.5526347366179649
0
LINE
8
Polygon
10
0.7833648501236427
20
0.5526347366179649
11
0.7835491990808018
21
0.5526110815055297
0
LINE
8
Polygon
10
0.7835491990808018
20
0.5526110815055297
11
0.7837322501919541
21
0.552578888446404
0
LINE
8
Polygon
10
0.7837322501919541
20
0.552578888446404
11
0.7839136082485798
21
0.5525382269456083
0
LINE
8
Polygon
10
0.7840928816974744
20
0.5524891847915829
11
0.7848713151571033
21
0.5522595324165156
0
LINE
8
Polygon
10
0.7848713151571033
20
0.5522595324165156
11
0.7856512840245576
21
0.5520351500860038
0
LINE
8
Polygon
10
0.7856512840245576
20
0.5520351500860038
11
0.7864327526217396
21
0.5518160480639631
0
LINE
8
Polygon
10
0.7864327526217396
20
0.5518160480639631
11
0.7872156852019495
21
0.5516022363727723
0
LINE
8
Polygon
10
0.7872156852019495
20
0.5516022363727723
11
0.7880000459515204
21
0.5513937247928145
0
LINE
8
Polygon
10
0.7880000459515204
20
0.5513937247928145
11
0.788785798991457
21
0.5511905228620302
0
LINE
8
Polygon
10
0.788785798991457
20
0.5511905228620302
11
0.789572908379076
21
0.5509926398754805
0
LINE
8
Polygon
10
0.789572908379076
20
0.5509926398754805
11
0.7903613381096514
21
0.5508000848849223
0
LINE
8
Polygon
10
0.7903613381096514
20
0.5508000848849223
11
0.7911510521180601
21
0.5506128666983938
0
LINE
8
Polygon
10
0.7911510521180601
20
0.5506128666983938
11
0.7919420142804328
21
0.5504309938798125
0
LINE
8
Polygon
10
0.7919420142804328
20
0.5504309938798125
11
0.7927341884158056
21
0.5502544747485824
0
LINE
8
Polygon
10
0.7927341884158056
20
0.5502544747485824
11
0.7935275382877756
21
0.5500833173792139
0
LINE
8
Polygon
10
0.7935275382877756
20
0.5500833173792139
11
0.794322027606158
21
0.5499175296009545
0
LINE
8
Polygon
10
0.794322027606158
20
0.5499175296009545
11
0.7951176200286465
21
0.5497571189974308
0
LINE
8
Polygon
10
0.7951176200286465
20
0.5497571189974308
11
0.7959142791624755
21
0.5496020929063015
0
LINE
8
Polygon
10
0.7959142791624755
20
0.5496020929063015
11
0.7967119685660846
21
0.5494524584189211
0
LINE
8
Polygon
10
0.7967119685660846
20
0.5494524584189211
11
0.7975106517507863
21
0.5493082223800166
0
LINE
8
Polygon
10
0.7975106517507863
20
0.5493082223800166
11
0.798310292182434
21
0.5491693913873739
0
LINE
8
Polygon
10
0.798310292182434
20
0.5491693913873739
11
0.7991108532830942
21
0.5490359717915356
0
LINE
8
Polygon
10
0.7991108532830943
20
0.5490359717915356
11
0.7999122984327192
21
0.5489079696955115
0
LINE
8
Polygon
10
0.7999122984327192
20
0.5489079696955115
11
0.800714590970822
21
0.5487853909544982
0
LINE
8
Polygon
10
0.8007145909708221
20
0.5487853909544982
11
0.801517694198154
21
0.5486682411756123
0
LINE
8
Polygon
10
0.801517694198154
20
0.5486682411756123
11
0.8023215713783827
21
0.5485565257176335
0
LINE
8
Polygon
10
0.8023215713783827
20
0.5485565257176335
11
0.8031261857397731
21
0.5484502496907592
0
LINE
8
Polygon
10
0.8031261857397732
20
0.5484502496907592
11
0.8039315004768693
21
0.5483494179563714
0
LINE
8
Polygon
10
0.8039315004768693
20
0.5483494179563714
11
0.804737478752178
21
0.5482540351268136
0
LINE
8
Polygon
10
0.804737478752178
20
0.5482540351268136
11
0.8055440836978537
21
0.5481641055651806
0
LINE
8
Polygon
10
0.8055440836978537
20
0.5481641055651806
11
0.8063512784173851
21
0.548079633385118
0
LINE
8
Polygon
10
0.8063512784173851
20
0.548079633385118
11
0.8071590259872831
21
0.5480006224506349
0
LINE
8
Polygon
10
0.8071590259872831
20
0.5480006224506349
11
0.8079672894587693
21
0.5479270763759265
0
LINE
8
Polygon
10
0.8079672894587693
20
0.5479270763759265
11
0.8087760318594667
21
0.5478589985252094
0
LINE
8
Polygon
10
0.8087760318594667
20
0.5478589985252094
11
0.8095852161950903
21
0.547796392012567
0
LINE
8
Polygon
10
0.8095852161950903
20
0.547796392012567
11
0.8103948054511401
21
0.5477392597018075
0
LINE
8
Polygon
10
0.8103948054511401
20
0.5477392597018075
11
0.8112047625945935
21
0.547687604206333
0
LINE
8
Polygon
10
0.8112047625945935
20
0.547687604206333
11
0.8120150505755998
21
0.5476414278890195
0
LINE
8
Polygon
10
0.8120150505755998
20
0.5476414278890195
11
0.8128256323291748
21
0.5476007328621092
0
LINE
8
Polygon
10
0.8128256323291748
20
0.5476007328621092
11
0.8136364707768963
21
0.547565520987114
0
LINE
8
Polygon
10
0.8136364707768963
20
0.547565520987114
11
0.8144475288285998
21
0.5475357938747295
0
LINE
8
Polygon
10
0.8144475288285998
20
0.5475357938747295
11
0.815258769384076
21
0.5475115528847626
0
LINE
8
Polygon
10
0.815258769384076
20
0.5475115528847626
11
0.8160701553347671
21
0.5474927991260683
0
LINE
8
Polygon
10
0.8160701553347671
20
0.5474927991260683
11
0.8168816495654643
21
0.5474795334564991
0
LINE
8
Polygon
10
0.8168816495654643
20
0.5474795334564991
11
0.8176932149560059
21
0.5474717564828666
0
LINE
8
Polygon
10
0.817693214956006
20
0.5474717564828666
11
0.8185048143829754
21
0.5474694685609125
0
LINE
8
Polygon
10
0.8185048143829754
20
0.5474694685609125
11
0.8193164107213988
21
0.5474726697952932
0
LINE
8
Polygon
10
0.8193164107213988
20
0.5474726697952932
11
0.820127966846444
21
0.5474813600395747
0
LINE
8
Polygon
10
0.820127966846444
20
0.5474813600395747
11
0.8209394456351179
21
0.5474955388962393
0
LINE
8
Polygon
10
0.8209394456351179
20
0.5474955388962393
11
0.8217508099679651
21
0.547515205716704
0
LINE
8
Polygon
10
0.6796796246582752
20
0.4606244300320905
11
0.6796624529618079
21
0.46109664211752227
0
LINE
8
Polygon
10
0.6796624529618079
20
0.46109664211752227
11
0.6796434219717515
21
0.46156878292512604
0
LINE
8
Polygon
10
0.6796434219717515
20
0.46156878292512604
11
0.6796225319831909
21
0.4620408451341253
0
LINE
8
Polygon
10
0.6796225319831909
20
0.4620408451341253
11
0.6795997833200358
21
0.46251282142496203
0
LINE
8
Polygon
10
0.6795997833200358
20
0.46251282142496203
11
0.6795751763350153
21
0.4629847044794104
0
LINE
8
Polygon
10
0.6795751763350153
20
0.4629847044794104
11
0.679548711409673
21
0.4634564869806903
0
LINE
8
Polygon
10
0.679548711409673
20
0.4634564869806903
11
0.6795203889543607
21
0.46392816161358086
0
LINE
8
Polygon
10
0.6795203889543607
20
0.46392816161358086
11
0.679490209408232
21
0.46439972106453353
0
LINE
8
Polygon
10
0.679490209408232
20
0.46439972106453353
11
0.6794581732392356
21
0.46487115802178586
0
LINE
8
Polygon
10
0.6794581732392356
20
0.46487115802178586
11
0.6794242809441083
21
0.4653424651754748
0
LINE
8
Polygon
10
0.6794242809441083
20
0.4653424651754748
11
0.6793885330483669
21
0.4658136352177497
0
LINE
8
Polygon
10
0.6793885330483669
20
0.4658136352177497
11
0.6793509301063001
21
0.4662846608428862
0
LINE
8
Polygon
10
0.6793509301063001
20
0.4662846608428862
11
0.6793114727009602
21
0.46675553474739906
0
LINE
8
Polygon
10
0.6793114727009602
20
0.46675553474739906
11
0.6792701614441535
21
0.46722624963015547
0
LINE
8
Polygon
10
0.6792701614441535
20
0.46722624963015547
11
0.6792269969764319
21
0.46769679819248844
0
LINE
8
Polygon
10
0.6792269969764319
20
0.46769679819248844
11
0.6791819799670815
21
0.4681671731383098
0
LINE
8
Polygon
10
0.6791819799670815
20
0.4681671731383098
11
0.6791351111141134
21
0.4686373671742235
0
LINE
8
Polygon
10
0.6791351111141134
20
0.4686373671742235
11
0.6790863911442524
21
0.4691073730096384
0
LINE
8
Polygon
10
0.6790863911442524
20
0.4691073730096384
11
0.6790358208129257
21
0.46957718335688164
0
LINE
8
Polygon
10
0.6790358208129257
20
0.46957718335688164
11
0.6789834009042511
21
0.47004679093131146
0
LINE
8
Polygon
10
0.6789834009042511
20
0.47004679093131146
11
0.6789291322310255
21
0.47051618845143023
0
LINE
8
Polygon
10
0.6789291322310255
20
0.47051618845143023
11
0.6788730156347114
21
0.47098536863899726
0
LINE
8
Polygon
10
0.6788730156347114
20
0.47098536863899726
11
0.6788150519854242
21
0.47145432421914174
0
LINE
8
Polygon
10
0.6788150519854242
20
0.47145432421914174
11
0.6787552421819192
21
0.4719230479204755
0
LINE
8
Polygon
10
0.6787552421819192
20
0.4719230479204755
11
0.6786935871515769
21
0.47239153247520577
0
LINE
8
Polygon
10
0.6786935871515769
20
0.47239153247520577
11
0.6786300878503889
21
0.47285977061924783
0
LINE
8
Polygon
10
0.6786300878503889
20
0.47285977061924783
11
0.6785647452629435
21
0.47332775509233777
0
LINE
8
Polygon
10
0.6785647452629435
20
0.47332775509233777
11
0.6784975604024097
21
0.47379547863814486
0
LINE
8
Polygon
10
0.6784975604024097
20
0.47379547863814486
11
0.678428534310522
21
0.47426293400438424
0
LINE
8
Polygon
10
0.678428534310522
20
0.47426293400438424
11
0.678357668057564
21
0.47473011394292935
0
LINE
8
Polygon
10
0.678357668057564
20
0.47473011394292935
11
0.6782849627423521
21
0.47519701120992425
0
LINE
8
Polygon
10
0.6782849627423521
20
0.47519701120992425
11
0.6782104194922182
21
0.4756636185658958
0
LINE
8
Polygon
10
0.6782104194922182
20
0.4756636185658958
11
0.6781340394629921
21
0.47612992877586635
0
LINE
8
Polygon
10
0.6781340394629921
20
0.47612992877586635
11
0.6780558238389841
21
0.47659593460946537
0
LINE
8
Polygon
10
0.6780558238389841
20
0.47659593460946537
11
0.677975773832966
21
0.4770616288410421
0
LINE
8
Polygon
10
0.677975773832966
20
0.4770616288410421
11
0.6778938906861528
21
0.4775270042497771
0
LINE
8
Polygon
10
0.6778938906861528
20
0.4775270042497771
11
0.6778101756681831
21
0.47799205361979463
0
LINE
8
Polygon
10
0.6778101756681831
20
0.47799205361979463
11
0.6777246300770998
21
0.4784567697402741
0
LINE
8
Polygon
10
0.6777246300770998
20
0.4784567697402741
11
0.6776372552393295
21
0.4789211454055624
0
LINE
8
Polygon
10
0.6776372552393295
20
0.4789211454055624
11
0.6775480525096622
21
0.4793851734152851
0
LINE
8
Polygon
10
0.6775480525096622
20
0.4793851734152851
11
0.6774570232712305
21
0.47984884657445853
0
LINE
8
Polygon
10
0.6774570232712305
20
0.47984884657445853
11
0.6773641689354876
21
0.480312157693601
0
LINE
8
Polygon
10
0.6773641689354876
20
0.480312157693601
11
0.6772694909421858
21
0.48077509958884457
0
LINE
8
Polygon
10
0.6772694909421858
20
0.48077509958884457
11
0.6771729907593546
21
0.4812376650820462
0
LINE
8
Polygon
10
0.6771729907593546
20
0.4812376650820462
11
0.6770746698832766
21
0.48169984700089913
0
LINE
8
Polygon
10
0.6770746698832766
20
0.48169984700089913
11
0.676974529838466
21
0.4821616381790442
0
LINE
8
Polygon
10
0.676974529838466
20
0.4821616381790442
11
0.6768725721776434
21
0.48262303145618085
0
LINE
8
Polygon
10
0.6767687984817129
20
0.48308401967817816
11
0.6767318455407799
21
0.4832661695683961
0
LINE
8
Polygon
10
0.6767318455407799
20
0.4832661695683961
11
0.6767033938208183
21
0.4834498393862247
0
LINE
8
Polygon
10
0.6767033938208183
20
0.4834498393862247
11
0.6766835047492737
21
0.48363463258735256
0
LINE
8
Polygon
10
0.6766835047492737
20
0.48363463258735256
11
0.6766722212667787
21
0.48382015020207625
0
LINE
8
Polygon
10
0.6766722212667787
20
0.48382015020207625
11
0.6766695677344441
21
0.4840059916966789
0
LINE
8
Polygon
10
0.6766695677344441
20
0.4840059916966789
11
0.6766755498812632
21
0.4841917558381848
0
LINE
8
Polygon
10
0.6766755498812632
20
0.4841917558381848
11
0.6766901547917428
21
0.4843770415606241
0
LINE
8
Polygon
10
0.6766901547917428
20
0.4843770415606241
11
0.6767133509337877
21
0.48456144883093694
0
LINE
8
Polygon
10
0.6767133509337877
20
0.48456144883093694
11
0.6767450882267789
21
0.48474457951264693
0
LINE
8
Polygon
10
0.6767450882267789
20
0.48474457951264693
11
0.6767852981496979
21
0.4849260382254409
0
LINE
8
Polygon
10
0.6767852981496979
20
0.4849260382254409
11
0.6768338938890637
21
0.4851054331987971
0
LINE
8
Polygon
10
0.6768338938890637
20
0.4851054331987971
11
0.6768907705263643
21
0.4852823771178205
0
LINE
8
Polygon
10
0.6768907705263643
20
0.4852823771178205
11
0.6769558052645758
21
0.4854564879594581
0
LINE
8
Polygon
10
0.6769558052645758
20
0.4854564879594581
11
0.6770288576932825
21
0.485627389817289
0
LINE
8
Polygon
10
0.6770288576932825
20
0.485627389817289
11
0.6771097700918235
21
0.48579471371310884
0
LINE
8
Polygon
10
0.6771097700918235
20
0.48579471371310884
11
0.6771983677698127
21
0.48595809839355625
0
LINE
8
Polygon
10
0.6771983677698127
20
0.48595809839355625
11
0.6772944594442966
21
0.486117191110061
0
LINE
8
Polygon
10
0.6772944594442966
20
0.486117191110061
11
0.6773978376527353
21
0.48627164838043047
0
LINE
8
Polygon
10
0.6773978376527353
20
0.48627164838043047
11
0.6775082792009156
21
0.48642113673042986
0
LINE
8
Polygon
10
0.6775082792009156
20
0.48642113673042986
11
0.6776255456448282
21
0.48656533341375524
0
LINE
8
Polygon
10
0.6776255456448282
20
0.48656533341375524
11
0.6777493838054709
21
0.486703927108845
0
LINE
8
Polygon
10
0.6777493838054709
20
0.486703927108845
11
0.6778795263154626
21
0.4868366185910248
0
LINE
8
Polygon
10
0.6778795263154626
20
0.4868366185910248
11
0.6780156921962915
21
0.4869631213785358
0
LINE
8
Polygon
10
0.6780156921962915
20
0.4869631213785358
11
0.6781575874649501
21
0.48708316235105054
0
LINE
8
Polygon
10
0.6781575874649501
20
0.48708316235105054
11
0.6783049057686457
21
0.4871964823393415
0
LINE
8
Polygon
10
0.6783049057686457
20
0.4871964823393415
11
0.678457329046218
21
0.48730283668482904
0
LINE
8
Polygon
10
0.678457329046218
20
0.4873028366848291
11
0.6786145282148359
21
0.48740199576780097
0
LINE
8
Polygon
10
0.6786145282148359
20
0.48740199576780097
11
0.6787761638804887
21
0.4874937455031628
0
LINE
8
Polygon
10
0.6787761638804887
20
0.4874937455031628
11
0.6789418870707403
21
0.487577887802649
0
LINE
8
Polygon
10
0.6789418870707403
20
0.487577887802649
11
0.6791113399881629
21
0.48765424100249666
0
LINE
8
Polygon
10
0.6791113399881629
20
0.48765424100249666
11
0.6792841567828236
21
0.487722640255659
0
LINE
8
Polygon
10
0.6792841567828236
20
0.487722640255659
11
0.6794599643421575
21
0.48778293788771077
0
LINE
8
Polygon
10
0.6794599643421575
20
0.48778293788771077
11
0.6796383830965192
21
0.4878350037156788
0
LINE
8
Polygon
10
0.6796383830965192
20
0.4878350037156788
11
0.6798190278386769
21
0.4878787253291073
0
LINE
8
Polygon
10
0.6798190278386769
20
0.4878787253291073
11
0.6800015085554765
21
0.48791400833275334
0
LINE
8
Polygon
10
0.6800015085554765
20
0.48791400833275334
11
0.6801854312698832
21
0.4879407765503862
0
LINE
8
Polygon
10
0.6801854312698832
20
0.4879407765503862
11
0.6803703988915801
21
0.4879589721892529
0
LINE
8
Polygon
10
0.6803703988915801
20
0.4879589721892529
11
0.6805560120742887
21
0.48796855596485267
0
LINE
8
Polygon
10
0.6805560120742887
20
0.48796855596485267
11
0.6807418700779604
21
0.4879695071857527
0
LINE
8
Polygon
10
0.6807418700779604
20
0.4879695071857527
11
0.680927571633976
21
0.48796182379826103
0
LINE
8
Polygon
10
0.680927571633976
20
0.48796182379826103
11
0.6811127158114885
21
0.4879455223908603
0
LINE
8
Polygon
10
0.6811127158114885
20
0.4879455223908603
11
0.6812969028830339
21
0.4879206381583934
0
LINE
8
Polygon
10
0.6812969028830339
20
0.4879206381583934
11
0.6814797351875469
21
0.4878872248260775
0
LINE
8
Polygon
10
0.6814797351875469
20
0.4878872248260775
11
0.6816608179889124
21
0.4878453545335107
0
LINE
8
Polygon
10
0.6816608179889124
20
0.4878453545335107
11
0.6818397603282038
21
0.48779511767892253
0
LINE
8
Polygon
10
0.6818397603282038
20
0.48779511767892253
11
0.6820161758677659
21
0.4877366227240034
0
LINE
8
Polygon
10
0.6820161758677659
20
0.4877366227240034
11
0.6821896837253204
21
0.4876699959597352
0
LINE
8
Polygon
10
0.6823599092962926
20
0.48759538123372825
11
0.6841853007384103
21
0.48685135287943504
0
LINE
8
Polygon
10
0.6841853007384103
20
0.48685135287943504
11
0.6860750685432258
21
0.4862906303519478
0
LINE
8
Polygon
10
0.6860750685432258
20
0.4862906303519478
11
0.6880108553545868
21
0.4859186605549091
0
LINE
8
Polygon
10
0.6880108553545868
20
0.4859186605549091
11
0.6899738567840179
21
0.48573905683278634
0
LINE
8
Polygon
10
0.6899738567840179
20
0.48573905683278634
11
0.6919450040780585
21
0.48575356387055335
0
LINE
8
Polygon
10
0.6919450040780585
20
0.48575356387055335
11
0.6939051493536659
21
0.4859620407456807
0
LINE
8
Polygon
10
0.6939051493536659
20
0.4859620407456807
11
0.695835251602287
21
0.4863624622970686
0
LINE
8
Polygon
10
0.695835251602287
20
0.4863624622970686
11
0.6977165616557451
21
0.486950938797624
0
LINE
8
Polygon
10
0.6977165616557451
20
0.486950938797624
11
0.6995308043171637
21
0.4877217537393821
0
LINE
8
Polygon
10
0.6995308043171637
20
0.4877217537393821
11
0.7012603558876961
21
0.48866741936412356
0
LINE
8
Polygon
10
0.7012603558876961
20
0.48866741936412356
11
0.7028884153645508
21
0.4897787494000588
0
LINE
8
Polygon
10
0.7028884153645508
20
0.4897787494000588
11
0.7043991676472818
21
0.4910449482980096
0
LINE
8
Polygon
10
0.7043991676472818
20
0.4910449482980096
11
0.7057779371669427
21
0.4924537161002406
0
LINE
8
Polygon
10
0.7057779371669427
20
0.4924537161002406
11
0.7070113304457425
21
0.4939913679232356
0
LINE
8
Polygon
10
0.7070113304457425
20
0.4939913679232356
11
0.7080873662023635
21
0.4956429668937553
0
LINE
8
Polygon
10
0.7080873662023635
20
0.4956429668937553
11
0.70899559173909
21
0.4973924692468221
0
LINE
8
Polygon
10
0.70899559173909
20
0.4973924692468221
11
0.7097271844801528
21
0.49922288017614175
0
LINE
8
Polygon
10
0.7097271844801528
20
0.49922288017614175
11
0.7102750376749386
21
0.5011164189230154
0
LINE
8
Polygon
10
0.7102750376749386
20
0.5011164189230154
11
0.7106338294335356
21
0.503054691500057
0
LINE
8
Polygon
10
0.7106338294335356
20
0.503054691500057
11
0.7108000744239998
21
0.5050188693718634
0
LINE
8
Polygon
10
0.7108000744239998
20
0.5050188693718634
11
0.7107721577291491
21
0.5069898723569187
0
LINE
8
Polygon
10
0.7107721577291491
20
0.5069898723569187
11
0.7105503505339981
21
0.5089485539740092
0
LINE
8
Polygon
10
0.7105503505339981
20
0.5089485539740092
11
0.7101368074914454
21
0.5108758874326781
0
LINE
8
Polygon
10
0.7101368074914454
20
0.5108758874326781
11
0.7095355457918024
21
0.5127531504609965
0
LINE
8
Polygon
10
0.7095355457918024
20
0.5127531504609965
11
0.7087524061394845
21
0.5145621071752149
0
LINE
8
Polygon
10
0.7087524061394845
20
0.5145621071752149
11
0.7077949960159384
21
0.5162851852246021
0
LINE
8
Polygon
10
0.7077949960159384
20
0.5162851852246021
11
0.7066726157799581
21
0.5179056464906708
0
LINE
8
Polygon
10
0.7066726157799581
20
0.5179056464906708
11
0.7053961683232518
21
0.5194077496826043
0
LINE
8
Polygon
10
0.7053961683232518
20
0.5194077496826043
11
0.7039780531588775
21
0.5207769032494186
0
LINE
8
Polygon
10
0.7039780531588775
20
0.5207769032494186
11
0.7024320459713773
21
0.5219998071234604
0
LINE
8
Polygon
10
0.7024320459713773
20
0.5219998071234604
11
0.7007731647986725
21
0.523064581918332
0
LINE
8
Polygon
10
0.7007731647986725
20
0.523064581918332
11
0.6990175241456369
21
0.5239608843262041
0
LINE
8
Polygon
10
0.6990175241456369
20
0.5239608843262041
11
0.6971821784465035
21
0.5246800075935382
0
LINE
8
Polygon
10
0.6971821784465035
20
0.5246800075935382
11
0.6952849563967213
21
0.5252149660991895
0
LINE
8
Polygon
10
0.6952849563967213
20
0.5252149660991895
11
0.6933442877635764
21
0.525560563213292
0
LINE
8
Polygon
10
0.6933442877635764
20
0.525560563213292
11
0.6913790243579532
21
0.5257134417777374
0
LINE
8
Polygon
10
0.6913790243579532
20
0.5257134417777374
11
0.6894082569063302
21
0.5256721167178785
0
LINE
8
Polygon
10
0.6894082569063302
20
0.5256721167178785
11
0.6874511296019309
21
0.5254369894686642
0
LINE
8
Polygon
10
0.6874511296019309
20
0.5254369894686642
11
0.6855266541364933
21
0.5250103440750676
0
LINE
8
Polygon
10
0.6855266541364933
20
0.5250103440750676
11
0.6836535250191709
21
0.52439632500469
0
LINE
8
Polygon
10
0.6836535250191709
20
0.52439632500469
11
0.6818499379765698
21
0.5236008968880698
0
LINE
8
Polygon
10
0.6818499379765698
20
0.5236008968880698
11
0.6801334131980001
21
0.5226317865777825
0
LINE
8
Polygon
10
0.6801334131980001
20
0.5226317865777825
11
0.6785206251429504
21
0.5214984080891752
0
LINE
8
Polygon
10
0.6785206251429505
20
0.5214984080891752
11
0.6770272405640498
21
0.5202117711518652
0
LINE
8
Polygon
10
0.6770272405640498
20
0.5202117711518653
11
0.6756677663189752
21
0.5187843742603431
0
LINE
8
Polygon
10
0.6756677663189752
20
0.5187843742603431
11
0.6744554084496714
21
0.5172300832625933
0
LINE
8
Polygon
10
0.6744554084496714
20
0.5172300832625933
11
0.6734019438977997
21
0.515563996666135
0
LINE
8
Polygon
10
0.6725176061025812
20
0.5138022989699066
11
0.6724385811839073
21
0.5136340754145448
0
LINE
8
Polygon
10
0.6724385811839073
20
0.5136340754145448
11
0.6723518271567486
21
0.5134697043674539
0
LINE
8
Polygon
10
0.6723518271567486
20
0.5134697043674539
11
0.6722575313236047
21
0.5133095407067763
0
LINE
8
Polygon
10
0.6722575313236047
20
0.5133095407067763
11
0.6721558972697825
21
0.5131539302268796
0
LINE
8
Polygon
10
0.6721558972697825
20
0.5131539302268796
11
0.6720471444238544
21
0.5130032088917855
0
LINE
8
Polygon
10
0.6720471444238544
20
0.5130032088917855
11
0.6719315075839104
21
0.5128577021098207
0
LINE
8
Polygon
10
0.6719315075839104
20
0.5128577021098207
11
0.6718092364106277
21
0.5127177240310582
0
LINE
8
Polygon
10
0.6718092364106277
20
0.5127177240310582
11
0.6716805948882516
21
0.5125835768690653
0
LINE
8
Polygon
10
0.6716805948882516
20
0.5125835768690653
11
0.6715458607546517
21
0.512455550248423
0
LINE
8
Polygon
10
0.6715458607546517
20
0.512455550248423
11
0.6714053249016845
21
0.5123339205794243
0
LINE
8
Polygon
10
0.6714053249016845
20
0.5123339205794243
11
0.6712592907471553
21
0.5122189504613025
0
LINE
8
Polygon
10
0.6712592907471553
20
0.5122189504613025
11
0.671108073579738
21
0.5121108881152782
0
LINE
8
Polygon
10
0.671108073579738
20
0.5121108881152782
11
0.6709519998782645
21
0.5120099668486475
0
LINE
8
Polygon
10
0.6709519998782645
20
0.5120099668486475
11
0.6707914066068544
21
0.5119164045510709
0
LINE
8
Polygon
10
0.6707914066068544
20
0.5119164045510709
11
0.6706266404874083
21
0.5118304032241472
0
LINE
8
Polygon
10
0.6706266404874083
20
0.5118304032241472
11
0.6704580572510318
21
0.5117521485452915
0
LINE
8
Polygon
10
0.6704580572510318
20
0.5117521485452915
11
0.6702860208700108
21
0.5116818094668559
0
LINE
8
Polygon
10
0.6702860208700108
20
0.5116818094668559
11
0.6701109027719923
21
0.5116195378513607
0
LINE
8
Polygon
10
0.6701109027719923
20
0.5116195378513607
11
0.6699330810380701
21
0.5115654681436222
0
LINE
8
Polygon
10
0.6699330810380701
20
0.5115654681436222
11
0.6697529395865055
21
0.5115197170804853
0
LINE
8
Polygon
10
0.6697529395865055
20
0.5115197170804853
11
0.6695708673438445
21
0.5114823834387878
0
LINE
8
Polygon
10
0.6695708673438445
20
0.5114823834387878
11
0.6693872574052239
21
0.5114535478221012
0
LINE
8
Polygon
10
0.6693872574052239
20
0.5114535478221012
11
0.6692025061856756
21
0.5114332724867061
0
LINE
8
Polygon
10
0.6692025061856756
20
0.5114332724867061
11
0.6690170125642643
21
0.5114216012071815
0
LINE
8
Polygon
10
0.6690170125642643
20
0.5114216012071815
11
0.6688311770229054
21
0.5114185591818945
0
LINE
8
Polygon
10
0.6688311770229054
20
0.5114185591818945
11
0.6686454007817215
21
0.5114241529785972
0
LINE
8
Polygon
10
0.6686454007817215
20
0.5114241529785972
11
0.6684600849328056
21
0.5114383705202467
0
LINE
8
Polygon
10
0.6684600849328056
20
0.5114383705202467
11
0.6682756295742609
21
0.5114611811110795
0
LINE
8
Polygon
10
0.6682756295742609
20
0.5114611811110795
11
0.6680924329463865
21
0.5114925355028844
0
LINE
8
Polygon
10
0.6680924329463865
20
0.5114925355028844
11
0.6679108905718739
21
0.5115323660013286
0
LINE
8
Polygon
10
0.6679108905718739
20
0.5115323660013286
11
0.667731394401871
21
0.5115805866121114
0
LINE
8
Polygon
10
0.667731394401871
20
0.5115805866121114
11
0.667554331969757
21
0.5116370932266254
0
LINE
8
Polygon
10
0.667554331969757
20
0.5116370932266254
11
0.6673800855544554
21
0.5117017638467287
0
LINE
8
Polygon
10
0.6673800855544554
20
0.5117017638467287
11
0.6672090313550916
21
0.5117744588481385
0
LINE
8
Polygon
10
0.6672090313550916
20
0.5117744588481385
11
0.6670415386787761
21
0.5118550212818821
0
LINE
8
Polygon
10
0.6670415386787761
20
0.5118550212818821
11
0.6668779691432687
21
0.5119432772131494
0
LINE
8
Polygon
10
0.6668779691432687
20
0.5119432772131494
11
0.6667186758962427
21
0.5120390360968203
0
LINE
8
Polygon
10
0.6667186758962427
20
0.5120390360968203
11
0.6665640028528375
21
0.5121420911888525
0
LINE
8
Polygon
10
0.6665640028528375
20
0.5121420911888525
11
0.6664142839531432
21
0.5122522199926429
0
LINE
8
Polygon
10
0.6664142839531432
20
0.5122522199926429
11
0.666269842441222
21
0.5123691847393999
0
LINE
8
Polygon
10
0.666269842441222
20
0.5123691847393999
11
0.6661309901672221
21
0.5124927329014867
0
LINE
8
Polygon
10
0.6661309901672221
20
0.5124927329014867
11
0.6659980269140913
21
0.5126225977376313
0
LINE
8
Polygon
10
0.6659980269140913
20
0.5126225977376313
11
0.6658712397503436
21
0.5127584988688216
0
LINE
8
Polygon
10
0.6658712397503436
20
0.5127584988688216
11
0.6657509024102767
21
0.512900142883646
0
LINE
8
Polygon
10
0.6657509024102767
20
0.512900142883646
11
0.6656372747029774
21
0.5130472239717706
0
LINE
8
Polygon
10
0.6656372747029774
20
0.5130472239717706
11
0.6655306019513928
21
0.5131994245841852
0
LINE
8
Polygon
10
0.6655306019513928
20
0.5131994245841852
11
0.6654311144626759
21
0.5133564161187938
0
LINE
8
Polygon
10
0.6653390270309512
20
0.5135178596298692
11
0.6651136883707524
21
0.5139331927600275
0
LINE
8
Polygon
10
0.6651136883707524
20
0.5139331927600275
11
0.6648867160027538
21
0.5143476353555126
0
LINE
8
Polygon
10
0.6648867160027538
20
0.5143476353555126
11
0.6646581134462745
21
0.5147611809901872
0
LINE
8
Polygon
10
0.6646581134462745
20
0.5147611809901872
11
0.6644278842459097
21
0.5151738232518216
0
LINE
8
Polygon
10
0.6644278842459097
20
0.5151738232518216
11
0.6641960319714774
21
0.5155855557421936
0
LINE
8
Polygon
10
0.6641960319714774
20
0.5155855557421936
11
0.6639625602179615
21
0.5159963720771871
0
LINE
8
Polygon
10
0.6639625602179615
20
0.5159963720771871
11
0.6637274726054572
21
0.5164062658868919
0
LINE
8
Polygon
10
0.6637274726054572
20
0.5164062658868919
11
0.663490772779114
21
0.5168152308157017
0
LINE
8
Polygon
10
0.663490772779114
20
0.5168152308157017
11
0.6632524644090798
21
0.5172232605224132
0
LINE
8
Polygon
10
0.6632524644090798
20
0.5172232605224132
11
0.6630125511904439
21
0.5176303486803238
0
LINE
8
Polygon
10
0.6630125511904439
20
0.5176303486803238
11
0.6627710368431792
21
0.5180364889773303
0
LINE
8
Polygon
10
0.6627710368431792
20
0.5180364889773303
11
0.662527925112085
21
0.5184416751160268
0
LINE
8
Polygon
10
0.662527925112085
20
0.5184416751160268
11
0.6622832197667291
21
0.5188459008138017
0
LINE
8
Polygon
10
0.6622832197667291
20
0.5188459008138017
11
0.6620369246013889
21
0.5192491598029356
0
LINE
8
Polygon
10
0.6620369246013889
20
0.5192491598029356
11
0.6617890434349927
21
0.5196514458306987
0
LINE
8
Polygon
10
0.6617890434349927
20
0.5196514458306987
11
0.6615395801110604
21
0.5200527526594468
0
LINE
8
Polygon
10
0.6615395801110604
20
0.520052752659447
11
0.6612885384976444
21
0.5204530740667196
0
LINE
8
Polygon
10
0.6612885384976444
20
0.5204530740667196
11
0.6610359224872688
21
0.5208524038453353
0
LINE
8
Polygon
10
0.6610359224872688
20
0.5208524038453353
11
0.6607817359968701
21
0.5212507358034885
0
LINE
8
Polygon
10
0.6607817359968701
20
0.5212507358034885
11
0.6605259829677353
21
0.5216480637648448
0
LINE
8
Polygon
10
0.6605259829677353
20
0.521648063764845
11
0.6602686673654417
21
0.5220443815686383
0
LINE
8
Polygon
10
0.6602686673654417
20
0.5220443815686383
11
0.6600097931797948
21
0.522439683069765
0
LINE
8
Polygon
10
0.6600097931797948
20
0.522439683069765
11
0.6597493644247671
21
0.5228339621388798
0
LINE
8
Polygon
10
0.6597493644247671
20
0.5228339621388798
11
0.659487385138435
21
0.5232272126624906
0
LINE
8
Polygon
10
0.659487385138435
20
0.5232272126624906
11
0.6592238593829169
21
0.5236194285430539
0
LINE
8
Polygon
10
0.6592238593829169
20
0.5236194285430539
11
0.6589587912443102
21
0.5240106036990682
0
LINE
8
Polygon
10
0.6589587912443102
20
0.5240106036990683
11
0.6586921848326273
21
0.5244007320651695
0
LINE
8
Polygon
10
0.6586921848326273
20
0.5244007320651695
11
0.6584240442817323
21
0.5247898075922244
0
LINE
8
Polygon
10
0.6584240442817323
20
0.5247898075922245
11
0.6581543737492772
21
0.5251778242474247
0
LINE
8
Polygon
10
0.6581543737492772
20
0.5251778242474247
11
0.657883177416637
21
0.5255647760143799
0
LINE
8
Polygon
10
0.657883177416637
20
0.5255647760143799
11
0.6576104594888449
21
0.5259506568932117
0
LINE
8
Polygon
10
0.6576104594888449
20
0.5259506568932117
11
0.6573362241945272
21
0.5263354609006464
0
LINE
8
Polygon
10
0.6573362241945272
20
0.5263354609006464
11
0.6570604757858377
21
0.5267191820701075
0
LINE
8
Polygon
10
0.6570604757858377
20
0.5267191820701075
11
0.6567832185383919
21
0.5271018144518085
0
LINE
8
Polygon
10
0.6567832185383919
20
0.5271018144518085
11
0.6565044567512006
21
0.5274833521128449
0
LINE
8
Polygon
10
0.6565044567512006
20
0.5274833521128449
11
0.656224194746603
21
0.5278637891372869
0
LINE
8
Polygon
10
0.656224194746603
20
0.5278637891372869
11
0.6559424368702002
21
0.5282431196262701
0
LINE
8
Polygon
10
0.6559424368702002
20
0.5282431196262701
11
0.6556591874907873
21
0.528621337698088
0
LINE
8
Polygon
10
0.6556591874907873
20
0.528621337698088
11
0.655374451000286
21
0.5289984374882819
0
LINE
8
Polygon
10
0.655374451000286
20
0.5289984374882819
11
0.6550882318136765
21
0.5293744131497334
0
LINE
8
Polygon
10
0.6550882318136765
20
0.5293744131497334
11
0.6548005343689287
21
0.5297492588527539
0
LINE
8
Polygon
10
0.6548005343689287
20
0.5297492588527539
11
0.6545113631269339
21
0.5301229687851754
0
LINE
8
Polygon
10
0.6545113631269339
20
0.5301229687851754
11
0.654220722571435
21
0.5304955371524406
0
LINE
8
Polygon
10
0.654220722571435
20
0.5304955371524406
11
0.6539286172089577
21
0.5308669581776927
0
LINE
8
Polygon
10
0.6539286172089577
20
0.5308669581776927
11
0.65363505156874
21
0.531237226101865
0
LINE
8
Polygon
10
0.65363505156874
20
0.531237226101865
11
0.6533400302026624
21
0.5316063351837703
0
LINE
8
Polygon
10
0.6533400302026624
20
0.5316063351837703
11
0.653043557685177
21
0.5319742797001898
0
LINE
8
Polygon
10
0.6527456386132368
20
0.5323410539459619
11
0.725442190897696
21
0.5916280977377272
0
LINE
8
Polygon
10
0.8253789819770276
20
0.4656354761957346
11
0.8225620227307662
21
0.5475403596013498
0
LINE
8
Polygon
10
0.7346513301416787
20
0.4625150749802967
11
0.7348426959639323
21
0.4625262525786483
0
LINE
8
Polygon
10
0.7348426959639323
20
0.4625262525786483
11
0.735033306529315
21
0.4625465855321026
0
LINE
8
Polygon
10
0.735033306529315
20
0.4625465855321026
11
0.7352227240790216
21
0.4625760271437232
0
LINE
8
Polygon
10
0.7352227240790216
20
0.4625760271437232
11
0.7354105135941429
21
0.46261450979750635
0
LINE
8
Polygon
10
0.7354105135941429
20
0.46261450979750635
11
0.7355962437947359
21
0.4626619451136683
0
LINE
8
Polygon
10
0.7355962437947359
20
0.4626619451136683
11
0.7357794881303071
21
0.46271822415161973
0
LINE
8
Polygon
10
0.7357794881303071
20
0.46271822415161973
11
0.7359598257594345
21
0.46278321766016006
0
LINE
8
Polygon
10
0.7359598257594345
20
0.46278321766016006
11
0.7361368425162774
21
0.46285677637431766
0
LINE
8
Polygon
10
0.7361368425162774
20
0.46285677637431766
11
0.7363101318617553
21
0.46293873135815355
0
LINE
8
Polygon
10
0.7363101318617553
20
0.46293873135815355
11
0.736479295817211
21
0.4630288943927423
0
LINE
8
Polygon
10
0.736479295817211
20
0.4630288943927423
11
0.7366439458784142
21
0.4631270584084379
0
LINE
8
Polygon
10
0.7366439458784142
20
0.4631270584084379
11
0.7368037039078049
21
0.46323299796043277
0
LINE
8
Polygon
10
0.7368037039078049
20
0.46323299796043277
11
0.7369582030029299
21
0.4633464697465175
0
LINE
8
Polygon
10
0.7369582030029299
20
0.4633464697465175
11
0.7371070883390753
21
0.46346721316585177
0
LINE
8
Polygon
10
0.7371070883390753
20
0.46346721316585177
11
0.7372500179841626
21
0.4635949509174639
0
LINE
8
Polygon
10
0.7372500179841626
20
0.4635949509174639
11
0.7373866636840334
21
0.46372938963710414
0
LINE
8
Polygon
10
0.7373866636840334
20
0.46372938963710414
11
0.7375167116163234
21
0.46387022057098865
0
LINE
8
Polygon
10
0.7375167116163234
20
0.46387022057098865
11
0.7376398631111905
21
0.46401712028488795
0
LINE
8
Polygon
10
0.7376398631111905
20
0.46401712028488795
11
0.7377558353372441
21
0.4641697514069301
0
LINE
8
Polygon
10
0.7377558353372441
20
0.4641697514069301
11
0.7378643619510998
21
0.4643277634024137
0
LINE
8
Polygon
10
0.7378643619510998
20
0.4643277634024137
11
0.7379651937090667
21
0.4644907933788505
0
LINE
8
Polygon
10
0.7379651937090667
20
0.4644907933788505
11
0.7380580990395643
21
0.46465846691938933
0
LINE
8
Polygon
10
0.7380580990395643
20
0.46465846691938933
11
0.7381428645749527
21
0.4648303989427067
0
LINE
8
Polygon
10
0.7381428645749527
20
0.4648303989427067
11
0.7382192956415555
21
0.46500619458739006
0
LINE
8
Polygon
10
0.7382192956415555
20
0.46500619458739006
11
0.7382872167067506
21
0.4651854501187816
0
LINE
8
Polygon
10
0.7382872167067506
20
0.4651854501187816
11
0.7383464717820998
21
0.4653677538562009
0
LINE
8
Polygon
10
0.7383464717820998
20
0.4653677538562009
11
0.7383969247815948
21
0.4655526871184163
0
LINE
8
Polygon
10
0.7383969247815948
20
0.4655526871184163
11
0.738438459834194
21
0.46573982518519397
0
LINE
8
Polygon
10
0.738438459834194
20
0.46573982518519397
11
0.7384709815499331
21
0.4659287382727159
0
LINE
8
Polygon
10
0.7384709815499331
20
0.4659287382727159
11
0.7384944152389994
21
0.46611899252062755
0
LINE
8
Polygon
10
0.7384944152389994
20
0.46611899252062755
11
0.7385087070832654
21
0.46631015098844725
0
LINE
8
Polygon
10
0.7385087070832654
20
0.46631015098844725
11
0.738513824259888
21
0.4665017746590495
0
LINE
8
Polygon
10
0.738513824259888
20
0.4665017746590495
11
0.7385097550166901
21
0.46669342344691805
0
LINE
8
Polygon
10
0.7385097550166901
20
0.46669342344691805
11
0.7384965086991507
21
0.4668846572088518
0
LINE
8
Polygon
10
0.7384965086991507
20
0.4668846572088518
11
0.7384741157289422
21
0.4670750367548039
0
LINE
8
Polygon
10
0.7384741157289422
20
0.4670750367548039
11
0.7384426275340628
21
0.46726412485653146
0
LINE
8
Polygon
10
0.7384426275340628
20
0.46726412485653146
11
0.7384021164307274
21
0.4674514872517399
0
LINE
8
Polygon
10
0.7384021164307274
20
0.4674514872517399
11
0.7383526754572844
21
0.4676366936414156
0
LINE
8
Polygon
10
0.7383526754572844
20
0.4676366936414156
11
0.738294418160543
21
0.4678193186780564
0
LINE
8
Polygon
10
0.738294418160543
20
0.4678193186780564
11
0.7382274783349994
21
0.4679989429425305
0
LINE
8
Polygon
10
0.7382274783349994
20
0.4679989429425305
11
0.7381520097155634
21
0.4681751539073202
0
LINE
8
Polygon
10
0.7381520097155634
20
0.4681751539073202
11
0.7380681856244881
21
0.4683475468839378
0
LINE
8
Polygon
10
0.7380681856244881
20
0.4683475468839378
11
0.7379761985733161
21
0.46851572595233926
0
LINE
8
Polygon
10
0.7379761985733161
20
0.46851572595233926
11
0.7378762598207546
21
0.4686793048701989
0
LINE
8
Polygon
10
0.7378762598207546
20
0.4686793048701989
11
0.7377685988874957
21
0.4688379079599592
0
LINE
8
Polygon
10
0.7377685988874957
20
0.4688379079599592
11
0.7376534630290965
21
0.4689911709716169
0
LINE
8
Polygon
10
0.7376534630290965
20
0.4689911709716169
11
0.7375311166681283
21
0.46913874191926425
0
LINE
8
Polygon
10
0.7374018407869003
20
0.4692802818894648
11
0.736143729575919
21
0.47072583647870453
0
LINE
8
Polygon
10
0.736143729575919
20
0.47072583647870453
11
0.735029745617629
21
0.47228516698579454
0
LINE
8
Polygon
10
0.735029745617629
20
0.47228516698579454
11
0.7340701165989614
21
0.4739439569170998
0
LINE
8
Polygon
10
0.7340701165989614
20
0.4739439569170998
11
0.7332736530464048
21
0.47568697662413634
0
LINE
8
Polygon
10
0.7332736530464048
20
0.47568697662413634
11
0.7326476674349792
21
0.47749822312971113
0
LINE
8
Polygon
10
0.7326476674349792
20
0.47749822312971113
11
0.7321979070510878
21
0.47936106705413173
0
LINE
8
Polygon
10
0.7321979070510878
20
0.47936106705413173
11
0.7319285012256479
21
0.4812584052925299
0
LINE
8
Polygon
10
0.7319285012256479
20
0.4812584052925299
11
0.7318419234219615
21
0.48317281804154133
0
LINE
8
Polygon
10
0.7318419234219615
20
0.48317281804154133
11
0.7319389685264046
21
0.4850867287336512
0
LINE
8
Polygon
10
0.7319389685264046
20
0.4850867287336512
11
0.7322187455504318
21
0.4869825654108192
0
LINE
8
Polygon
10
0.7322187455504318
20
0.4869825654108192
11
0.7326786858109028
21
0.4888429220557845
0
LINE
8
Polygon
10
0.7326786858109028
20
0.4888429220557845
11
0.7333145665136238
21
0.4906507183998387
0
LINE
8
Polygon
10
0.7333145665136238
20
0.49065071839983876
11
0.7341205495235802
21
0.49238935673984235
0
LINE
8
Polygon
10
0.7341205495235802
20
0.49238935673984235
11
0.7350892349659027
21
0.49404287432472044
0
LINE
8
Polygon
10
0.7350892349659027
20
0.49404287432472044
11
0.7362117291654493
21
0.49559608991234927
0
LINE
8
Polygon
10
0.7362117291654493
20
0.49559608991234927
11
0.7374777263012346
21
0.4970347431512683
0
LINE
8
Polygon
10
0.7374777263012346
20
0.4970347431512683
11
0.7388756030260247
21
0.49834562550753025
0
LINE
8
Polygon
10
0.7388756030260247
20
0.49834562550753025
11
0.740392525182377
21
0.49951670153462513
0
LINE
8
Polygon
10
0.740392525182377
20
0.49951670153462513
11
0.7420145656353464
21
0.5005372193730775
0
LINE
8
Polygon
10
0.7420145656353464
20
0.5005372193730775
11
0.7437268321400144
21
0.5013978094652007
0
LINE
8
Polygon
10
0.7437268321400144
20
0.5013978094652007
11
0.7455136040698661
21
0.5020905705786903
0
LINE
8
Polygon
10
0.7455136040698661
20
0.5020905705786903
11
0.7473584767506871
21
0.5026091423492572
0
LINE
8
Polygon
10
0.7473584767506871
20
0.5026091423492572
11
0.7492445120748268
21
0.5029487636762762
0
LINE
8
Polygon
10
0.7492445120748268
20
0.5029487636762762
11
0.7511543940130081
21
0.5031063164353055
0
LINE
8
Polygon
10
0.7511543940130081
20
0.5031063164353055
11
0.7530705875959046
21
0.5030803541061485
0
LINE
8
Polygon
10
0.7530705875959046
20
0.5030803541061485
11
0.7549754999058453
21
0.5028711150536154
0
LINE
8
Polygon
10
0.7549754999058453
20
0.5028711150536154
11
0.7568516416005541
21
0.5024805203390527
0
LINE
8
Polygon
10
0.7568516416005541
20
0.5024805203390527
11
0.7586817874859436
21
0.5019121560827341
0
LINE
8
Polygon
10
0.7586817874859436
20
0.5019121560827341
11
0.7604491346637187
21
0.5011712405390457
0
LINE
8
Polygon
10
0.7604491346637187
20
0.5011712405390457
11
0.7621374568018053
21
0.5002645761867546
0
LINE
8
Polygon
10
0.7621374568018053
20
0.5002645761867546
11
0.7637312531112213
21
0.4992004872742285
0
LINE
8
Polygon
10
0.7637312531112213
20
0.4992004872742285
11
0.7652158906616061
21
0.4979887433930159
0
LINE
8
Polygon
10
0.7652158906616061
20
0.4979887433930159
11
0.7665777387287845
21
0.4966404697814699
0
LINE
8
Polygon
10
0.7665777387287845
20
0.4966404697814699
11
0.7678042939408947
21
0.4951680451819355
0
LINE
8
Polygon
10
0.7678042939408947
20
0.4951680451819355
11
0.7688842950740926
21
0.49358498818929125
0
LINE
8
Polygon
10
0.7688842950740926
20
0.49358498818929125
11
0.7698078264438722
21
0.4919058331343002
0
LINE
8
Polygon
10
0.7698078264438722
20
0.4919058331343002
11
0.7705664089427465
21
0.49014599664130704
0
LINE
8
Polygon
10
0.7705664089427465
20
0.49014599664130704
11
0.7711530778884577
21
0.4883216360854391
0
LINE
8
Polygon
10
0.7711530778884577
20
0.4883216360854391
11
0.7715624469679767
21
0.4864495012488414
0
LINE
8
Polygon
10
0.7715624469679767
20
0.4864495012488414
11
0.7717907576902109
21
0.4845467805379167
0
LINE
8
Polygon
10
0.7717907576902109
20
0.4845467805379167
11
0.7718359138933865
21
0.48263094317347693
0
LINE
8
Polygon
10
0.7718359138933865
20
0.48263094317347693
11
0.7716975009902864
21
0.4807195788026873
0
LINE
8
Polygon
10
0.7716975009902864
20
0.4807195788026873
11
0.7713767897746504
21
0.4788302360053543
0
LINE
8
Polygon
10
0.7713767897746504
20
0.4788302360053543
11
0.7708767247537884
21
0.4769802611772609
0
LINE
8
Polygon
10
0.7708767247537884
20
0.4769802611772609
11
0.7702018971145311
21
0.475186639269789
0
LINE
8
Polygon
10
0.7702018971145311
20
0.475186639269789
11
0.769358502570717
21
0.4734658378480283
0
LINE
8
Polygon
10
0.7693585025707171
20
0.4734658378480283
11
0.7683542844792316
21
0.47183365589910164
0
LINE
8
Polygon
10
0.7671984627468549
20
0.47030507877882466
11
0.7670792168219323
21
0.47015499138421385
0
LINE
8
Polygon
10
0.7670792168219323
20
0.47015499138421385
11
0.7669672984003795
21
0.4699993633547692
0
LINE
8
Polygon
10
0.7669672984003795
20
0.4699993633547692
11
0.7668629645155587
21
0.4698385521079303
0
LINE
8
Polygon
10
0.7668629645155587
20
0.4698385521079303
11
0.7667664547820824
21
0.4696729269649839
0
LINE
8
Polygon
10
0.7667664547820824
20
0.4696729269649839
11
0.7666779908455111
21
0.46950286830287574
0
LINE
8
Polygon
10
0.7666779908455111
20
0.46950286830287574
11
0.7665977758733196
21
0.4693287666806318
0
LINE
8
Polygon
10
0.7665977758733196
20
0.4693287666806318
11
0.7665259940882988
21
0.46915102194239483
0
LINE
8
Polygon
10
0.7665259940882988
20
0.46915102194239483
11
0.7664628103454681
21
0.46897004229913736
0
LINE
8
Polygon
10
0.7664628103454681
20
0.46897004229913736
11
0.7664083697534668
21
0.4687862433911585
0
LINE
8
Polygon
10
0.7664083697534668
20
0.4687862433911585
11
0.7663627973412958
21
0.4686000473335187
0
LINE
8
Polygon
10
0.7663627973412958
20
0.4686000473335187
11
0.7663261977711735
21
0.4684118817466051
0
LINE
8
Polygon
10
0.7663261977711735
20
0.46841188174660503
11
0.7662986550981685
21
0.4682221787740521
0
LINE
8
Polygon
10
0.7662986550981685
20
0.4682221787740521
11
0.7662802325771564
21
0.46803137409027507
0
LINE
8
Polygon
10
0.7662802325771564
20
0.46803137409027507
11
0.7662709725175485
21
0.46783990589989416
0
LINE
8
Polygon
10
0.7662709725175485
20
0.46783990589989416
11
0.766270896186123
21
0.46764821393134776
0
LINE
8
Polygon
10
0.766270896186123
20
0.46764821393134776
11
0.7662800037581836
21
0.4674567384270062
0
LINE
8
Polygon
10
0.7662800037581836
20
0.4674567384270062
11
0.7662982743171571
21
0.4672659191321053
0
LINE
8
Polygon
10
0.7662982743171571
20
0.4672659191321053
11
0.7663256659026304
21
0.4670761942848213
0
LINE
8
Polygon
10
0.7663256659026304
20
0.4670761942848213
11
0.7663621156067174
21
0.4668879996098072
0
LINE
8
Polygon
10
0.7663621156067174
20
0.4668879996098072
11
0.7664075397185343
21
0.46670176731750174
0
LINE
8
Polygon
10
0.7664075397185343
20
0.46670176731750174
11
0.7664618339164506
21
0.4665179251115089
0
LINE
8
Polygon
10
0.7664618339164506
20
0.4665179251115089
11
0.7665248735076765
21
0.46633689520632815
0
LINE
8
Polygon
10
0.7665248735076765
20
0.46633689520632815
11
0.7665965137146331
21
0.4661590933576907
0
LINE
8
Polygon
10
0.7665965137146331
20
0.4661590933576907
11
0.7666765900074514
21
0.4659849279077295
0
LINE
8
Polygon
10
0.7666765900074514
20
0.4659849279077295
11
0.7667649184818328
21
0.4658147988471751
0
LINE
8
Polygon
10
0.7667649184818328
20
0.4658147988471751
11
0.7668612962814073
21
0.4656490968967313
0
LINE
8
Polygon
10
0.7668612962814073
20
0.4656490968967313
11
0.7669655020636154
21
0.4654882026097411
0
LINE
8
Polygon
10
0.7669655020636154
20
0.4654882026097411
11
0.7670772965080469
21
0.46533248549820244
0
LINE
8
Polygon
10
0.7670772965080469
20
0.46533248549820244
11
0.7671964228660669
21
0.465182303184142
0
LINE
8
Polygon
10
0.7671964228660669
20
0.465182303184142
11
0.7673226075504689
21
0.4650380005782956
0
LINE
8
Polygon
10
0.7673226075504689
20
0.4650380005782956
11
0.7674555607637981
21
0.46489990908798157
0
LINE
8
Polygon
10
0.7674555607637981
20
0.46489990908798157
11
0.7675949771639046
21
0.46476834585598636
0
LINE
8
Polygon
10
0.7675949771639046
20
0.46476834585598636
11
0.7677405365651964
21
0.46464361303220986
0
LINE
8
Polygon
10
0.7677405365651964
20
0.46464361303220986
11
0.7678919046739815
21
0.46452599707974385
0
LINE
8
Polygon
10
0.7678919046739815
20
0.46452599707974385
11
0.7680487338562121
21
0.4644157681169774
0
LINE
8
Polygon
10
0.7680487338562121
20
0.4644157681169774
11
0.7682106639358647
21
0.46431317929723864
0
LINE
8
Polygon
10
0.7682106639358647
20
0.46431317929723864
11
0.768377323022126
21
0.46421846622740015
0
LINE
8
Polygon
10
0.768377323022126
20
0.46421846622740015
11
0.7685483283634821
21
0.4641318464267804
0
LINE
8
Polygon
10
0.7685483283634821
20
0.4641318464267804
11
0.7687232872267504
21
0.46405351882758633
0
LINE
8
Polygon
10
0.7687232872267504
20
0.46405351882758633
11
0.7689017977990371
21
0.46398366331804275
0
LINE
8
Polygon
10
0.7689017977990371
20
0.46398366331804275
11
0.7690834501105446
21
0.4639224403292586
0
LINE
8
Polygon
10
0.7690834501105446
20
0.4639224403292586
11
0.769267826976115
21
0.463869990466779
0
LINE
8
Polygon
10
0.769267826976115
20
0.463869990466779
11
0.7694545049533423
21
0.46382643418766817
0
LINE
8
Polygon
10
0.7694545049533423
20
0.46382643418766817
11
0.7696430553150567
21
0.4637918715238665
0
LINE
8
Polygon
10
0.7696430553150567
20
0.4637918715238665
11
0.7698330450339445
21
0.46376638185245556
0
LINE
8
Polygon
10
0.7698330450339445
20
0.46376638185245556
11
0.7700240377770449
21
0.4637500237133598
0
LINE
8
Polygon
10
0.7700240377770449
20
0.4637500237133598
11
0.7702155949078382
21
0.4637428346749031
0
LINE
8
Polygon
10
0.6796796246582752
20
0.4606244300320905
11
0.7346513301416787
21
0.4625150749802967
0
LINE
8
Polygon
10
0.8253789819770276
20
0.4656354761957346
11
0.7704072764936242
21
0.46374483124752847
0
LINE
8
Polygon
10
0.7374018407869003
20
0.46928028188946486
11
0.7374018407869003
21
0.4692802818894648
0
LINE
8
Polygon
10
0.7671984627468549
20
0.4703050787788246
11
0.7671984627468549
21
0.47030507877882466
0
LINE
8
Polygon
10
-0.9737947291879736
20
-1.0431641075223868
11
1.0431641075223865
21
-0.9737947291879736
0
LINE
8
Polygon
10
1.0431641075223865
20
-0.9737947291879736
11
0.9737947291879736
21
1.0431641075223868
0
LINE
8
Polygon
10
0.9737947291879736
20
1.0431641075223868
11
-1.0431641075223865
21
0.9737947291879736
0
ENDSEC
0
EOF
