0
SECTION
2
ENTITIES
0
LINE
8
Polygon
10
72.5442190897696
20
59.162809773772715
11
72.59572569200297
21
59.10008769974122
0
LINE
8
Polygon
10
72.59572569200297
20
59.10008769974122
11
72.6476553254582
21
59.03771541572303
0
LINE
8
Polygon
10
72.6476553254582
20
59.037715415723035
11
72.70000561471926
21
58.97569577481209
0
LINE
8
Polygon
10
72.70000561471926
20
58.97569577481209
11
72.7527741651281
21
58.91403161397136
0
LINE
8
Polygon
10
72.7527741651281
20
58.91403161397136
11
72.80595856289413
21
58.852725753903144
0
LINE
8
Polygon
10
72.80595856289413
20
58.85272575390316
11
72.8595563752047
21
58.791780998919975
0
LINE
8
Polygon
10
72.8595563752047
20
58.791780998919975
11
72.91356515033634
21
58.731200136816334
0
LINE
8
Polygon
10
72.91356515033634
20
58.731200136816334
11
72.96798241776689
21
58.67098593874118
0
LINE
8
Polygon
10
72.96798241776688
20
58.67098593874118
11
73.02280568828854
21
58.61114115907121
0
LINE
8
Polygon
10
73.02280568828854
20
58.61114115907121
11
73.07803245412174
21
58.55166853528475
0
LINE
8
Polygon
10
73.07803245412174
20
58.55166853528475
11
73.1336601890298
21
58.49257078783666
0
LINE
8
Polygon
10
73.1336601890298
20
58.49257078783666
11
73.18968634843455
21
58.43385062003382
0
LINE
8
Polygon
10
73.18968634843455
20
58.43385062003384
11
73.24610836953266
21
58.3755107179115
0
LINE
8
Polygon
10
73.24610836953266
20
58.3755107179115
11
73.302923671413
21
58.3175537501105
0
LINE
8
Polygon
10
73.302923671413
20
58.3175537501105
11
73.36012965517446
21
58.259982367755015
0
LINE
8
Polygon
10
73.36012965517446
20
58.259982367755015
11
73.41772370404513
21
58.202799204331455
0
LINE
8
Polygon
10
73.41772370404513
20
58.202799204331455
11
73.47570318350171
21
58.146006875567956
0
LINE
8
Polygon
10
73.47570318350171
20
58.146006875567956
11
73.53406544139027
21
58.089607979314664
0
LINE
8
Polygon
10
73.53406544139027
20
58.089607979314664
11
73.59280780804738
21
58.03360509542498
0
LINE
8
Polygon
10
73.59280780804738
20
58.03360509542498
11
73.65192759642234
21
57.978000785637526
0
LINE
8
Polygon
10
73.65192759642234
20
57.978000785637526
11
73.71142210220005
21
57.92279759345894
0
LINE
8
Polygon
10
73.71142210220005
20
57.92279759345894
11
73.77128860392472
21
57.86799804404757
0
LINE
8
Polygon
10
73.77128860392472
20
57.86799804404757
11
73.83152436312434
21
57.81360464409791
0
LINE
8
Polygon
10
73.83152436312434
20
57.81360464409791
11
73.892126624436
21
57.75961988172599
0
LINE
8
Polygon
10
73.892126624436
20
57.75961988172599
11
73.95309261573188
21
57.70604622635553
0
LINE
8
Polygon
10
73.95309261573188
20
57.70604622635553
11
74.01441954824604
21
57.65288612860503
0
LINE
8
Polygon
10
74.01441954824604
20
57.65288612860503
11
74.07610461670203
21
57.60014202017557
0
LINE
8
Polygon
10
74.07610461670203
20
57.60014202017557
11
74.13814499944122
21
57.547816313739695
0
LINE
8
Polygon
10
74.13814499944122
20
57.547816313739695
11
74.20053785855183
21
57.49591140283097
0
LINE
8
Polygon
10
74.20053785855183
20
57.49591140283097
11
74.26328033999874
21
57.444429661734496
0
LINE
8
Polygon
10
74.26328033999874
20
57.444429661734496
11
74.3263695737541
21
57.3933734453784
0
LINE
8
Polygon
10
74.3263695737541
20
57.3933734453784
11
74.38980267392856
21
57.34274508922598
0
LINE
8
Polygon
10
74.38980267392856
20
57.34274508922598
11
74.4535767389033
21
57.29254690916894
0
LINE
8
Polygon
10
74.4535767389033
20
57.29254690916894
11
74.51768885146272
21
57.24278120142148
0
LINE
8
Polygon
10
74.51768885146272
20
57.24278120142148
11
74.582136078928
21
57.19345024241519
0
LINE
8
Polygon
10
74.582136078928
20
57.19345024241519
11
74.64691547329107
21
57.14455628869499
0
LINE
8
Polygon
10
74.64691547329107
20
57.14455628869499
11
74.71202407134963
21
57.09610157681587
0
LINE
8
Polygon
10
74.71202407134963
20
57.09610157681587
11
74.77745889484258
21
57.04808832324058
0
LINE
8
Polygon
10
74.77745889484257
20
57.048088323240584
11
74.84321695058634
21
57.00051872423826
0
LINE
8
Polygon
10
74.84321695058634
20
57.00051872423826
11
74.90929523061166
21
56.95339495578396
0
LINE
8
Polygon
10
74.90929523061165
20
56.95339495578396
11
74.97569071230134
21
56.906719173459145
0
LINE
8
Polygon
10
74.97569071230134
20
56.906719173459145
11
75.04240035852841
21
56.86049351235302
0
LINE
8
Polygon
10
75.04240035852841
20
56.86049351235302
11
75.10942111779508
21
56.81472008696492
0
LINE
8
Polygon
10
75.10942111779508
20
56.81472008696492
11
75.17674992437232
21
56.76940099110759
0
LINE
8
Polygon
10
75.1767499243723
20
56.76940099110759
11
75.24438369844006
21
56.724538297811364
0
LINE
8
Polygon
10
75.24438369844006
20
56.724538297811364
11
75.31231934622821
21
56.68013405922938
0
LINE
8
Polygon
10
75.31231934622821
20
56.68013405922938
11
75.38055376015798
21
56.636190306543696
0
LINE
8
Polygon
10
75.38055376015797
20
56.636190306543696
11
75.44908381898416
21
56.59270904987237
0
LINE
8
Polygon
10
75.44908381898415
20
56.59270904987237
11
75.46457672875255
21
56.58244207512767
0
LINE
8
Polygon
10
75.46457672875255
20
56.58244207512767
11
75.47957598653326
21
56.5714664981712
0
LINE
8
Polygon
10
75.47957598653326
20
56.5714664981712
11
75.4940492088328
21
56.559806015343796
0
LINE
8
Polygon
10
75.4940492088328
20
56.559806015343796
11
75.50796514787163
21
56.5474858017025
0
LINE
8
Polygon
10
75.50796514787163
20
56.5474858017025
11
75.52129375904838
21
56.53453245666735
0
LINE
8
Polygon
10
75.52129375904838
20
56.53453245666735
11
75.53400626580618
21
56.52097394659316
0
LINE
8
Polygon
10
75.53400626580618
20
56.52097394659316
11
75.54607522176171
21
56.506839544389884
0
LINE
8
Polygon
10
75.54607522176171
20
56.506839544389884
11
75.5574745699618
21
56.492159766322324
0
LINE
8
Polygon
10
75.5574745699618
20
56.492159766322324
11
75.56817969914079
21
56.47696630612522
0
LINE
8
Polygon
10
75.56817969914079
20
56.47696630612522
11
75.57816749685628
21
56.46129196657632
0
LINE
8
Polygon
10
75.57816749685628
20
56.46129196657632
11
75.58741639938916
21
56.445170588675
0
LINE
8
Polygon
10
75.58741639938916
20
56.445170588675
11
75.59590643829964
21
56.42863697857925
0
LINE
8
Polygon
10
75.59590643829964
20
56.42863697857925
11
75.60361928353943
21
56.41172683245903
0
LINE
8
Polygon
10
75.60361928353943
20
56.41172683245903
11
75.61053828302633
21
56.394476659428015
0
LINE
8
Polygon
10
75.61053828302633
20
56.394476659428015
11
75.61664849859616
21
56.37692370272009
0
LINE
8
Polygon
10
75.61664849859616
20
56.37692370272009
11
75.62193673825445
21
56.3591058592811
0
LINE
8
Polygon
10
75.62193673825445
20
56.3591058592811
11
75.62639158465792
21
56.34106159794899
0
LINE
8
Polygon
10
75.62639158465792
20
56.34106159794899
11
75.63000341976472
21
56.322829876399425
0
LINE
8
Polygon
10
75.63000341976472
20
56.322829876399425
11
75.6327644455997
21
56.30445005703583
0
LINE
8
Polygon
10
75.6327644455997
20
56.30445005703583
11
75.63466870109048
21
56.285961822005795
0
LINE
8
Polygon
10
75.63466870109048
20
56.285961822005795
11
75.63571207493723
21
56.267405087527024
0
LINE
8
Polygon
10
75.63571207493723
20
56.267405087527024
11
75.63589231448915
21
56.24881991770795
0
LINE
8
Polygon
10
75.63589231448915
20
56.24881991770795
11
75.63520903060792
21
56.2302464380491
0
LINE
8
Polygon
10
75.63520903060792
20
56.2302464380491
11
75.63366369850777
21
56.21172474881189
0
LINE
8
Polygon
10
75.63366369850777
20
56.21172474881189
11
75.63125965457064
21
56.19329483844183
0
LINE
8
Polygon
10
75.63125965457064
20
56.19329483844183
11
75.62800208914273
21
56.17499649723333
0
LINE
8
Polygon
10
75.62800208914273
20
56.17499649723333
11
75.62389803532864
21
56.1568692314221
0
LINE
8
Polygon
10
75.62389803532864
20
56.1568692314221
11
75.6189563538068
21
56.138952177891
0
LINE
8
Polygon
10
75.6189563538068
20
56.138952177891
11
75.61318771369926
21
56.12128401967319
0
LINE
8
Polygon
10
75.61318771369926
20
56.12128401967319
11
75.60660456953688
21
56.1039029024353
0
LINE
8
Polygon
10
75.60660456953688
20
56.1039029024353
11
75.59922113437004
21
56.086846352120624
0
LINE
8
Polygon
10
75.59922113437004
20
56.086846352120624
11
75.5910533490825
21
56.07015119393041
0
LINE
8
Polygon
10
75.5910533490825
20
56.07015119393041
11
75.58211884797491
21
56.053853472817984
0
LINE
8
Polygon
10
75.58211884797491
20
56.053853472817984
11
75.57243692069235
21
56.03798837566747
0
LINE
8
Polygon
10
75.57243692069235
20
56.03798837566747
11
75.56202847057774
21
56.022590155325126
0
LINE
8
Polygon
10
75.56202847057774
20
56.022590155325126
11
75.55091596954146
21
56.00769205664714
0
LINE
8
Polygon
10
75.55091596954146
20
56.00769205664714
11
75.53912340954435
21
55.993326244723896
0
LINE
8
Polygon
10
75.53912340954435
20
55.993326244723896
11
75.52667625079886
21
55.97952373543521
0
LINE
8
Polygon
10
75.52667625079886
20
55.97952373543521
11
75.51360136680034
21
55.966314328486924
0
LINE
8
Polygon
10
75.51360136680034
20
55.966314328486924
11
75.499926986307
21
55.95372654307316
0
LINE
8
Polygon
10
75.499926986307
20
55.95372654307316
11
75.48568263239378
21
55.941787556303126
0
LINE
8
Polygon
10
75.48568263239378
20
55.941787556303126
11
75.47089905871192
21
55.930523144525644
0
LINE
8
Polygon
10
75.47089905871192
20
55.930523144525644
11
75.45560818309154
21
55.919957627677796
0
LINE
8
Polygon
10
75.45560818309154
20
55.919957627677796
11
75.43984301863094
21
55.91011381677805
0
LINE
8
Polygon
10
75.43984301863094
20
55.91011381677805
11
75.42363760242104
21
55.901012964677086
0
LINE
8
Polygon
10
75.42363760242104
20
55.901012964677086
11
75.40702692205907
21
55.89267472017284
0
LINE
8
Polygon
10
75.40702692205907
20
55.89267472017284
11
75.39004684011023
21
55.88511708558851
0
LINE
8
Polygon
10
75.39004684011023
20
55.88511708558851
11
75.37273401668004
21
55.87835637790551
0
LINE
8
Polygon
10
75.37273401668004
20
55.87835637790551
11
75.19104860050435
21
55.801892460672974
0
LINE
8
Polygon
10
75.19104860050435
20
55.801892460672974
11
75.01777276738402
21
55.7079147678627
0
LINE
8
Polygon
10
75.017772767384
20
55.7079147678627
11
74.85458973267126
21
55.59733620632647
0
LINE
8
Polygon
10
74.85458973267126
20
55.59733620632647
11
74.70308466946436
21
55.47123094508745
0
LINE
8
Polygon
10
74.70308466946436
20
55.47123094508745
11
74.56472931010899
21
55.33082398077609
0
LINE
8
Polygon
10
74.56472931010899
20
55.33082398077609
11
74.44086764967204
21
55.177479237914504
0
LINE
8
Polygon
10
74.44086764967204
20
55.177479237914504
11
74.33270289026565
21
55.01268631964419
0
LINE
8
Polygon
10
74.33270289026565
20
55.0126863196442
11
74.24128575304535
21
54.838046037601565
0
LINE
8
Polygon
10
74.24128575304535
20
54.838046037601565
11
74.16750427142036
21
54.655254861505156
0
LINE
8
Polygon
10
74.16750427142036
20
54.655254861505156
11
74.11207516462581
21
54.46608843951266
0
LINE
8
Polygon
10
74.11207516462581
20
54.46608843951266
11
74.0755368754545
21
54.272384349432144
0
LINE
8
Polygon
10
74.0755368754545
20
54.272384349432144
11
74.0582443397805
21
54.076024248343735
0
LINE
8
Polygon
10
74.0582443397805
20
54.076024248343735
11
74.06036553868341
21
53.87891559403171
0
LINE
8
Polygon
10
74.06036553868341
20
53.87891559403171
11
74.08187986666685
21
53.68297311578642
0
LINE
8
Polygon
10
74.08187986666685
20
53.68297311578642
11
74.12257833182179
21
53.49010021457031
0
LINE
8
Polygon
10
74.12257833182179
20
53.49010021457031
11
74.18206558599071
21
53.30217047322816
0
LINE
8
Polygon
10
74.18206558599071
20
53.30217047322816
11
74.25976376521146
21
53.12100945635293
0
LINE
8
Polygon
10
74.25976376521146
20
53.12100945635293
11
74.35491810313407
21
52.948376976604784
0
LINE
8
Polygon
10
74.35491810313407
20
52.948376976604784
11
74.4666042628817
21
52.785949999749604
0
LINE
8
Polygon
10
74.4666042628817
20
52.785949999749604
11
74.59373731613323
21
52.63530635447895
0
LINE
8
Polygon
10
74.59373731613323
20
52.63530635447895
11
74.73508228220412
21
52.49790940525553
0
LINE
8
Polygon
10
74.73508228220412
20
52.49790940525553
11
74.88926612474785
21
52.37509383707325
0
LINE
8
Polygon
10
74.88926612474785
20
52.37509383707325
11
75.05479108954125
21
52.268052690220145
0
LINE
8
Polygon
10
75.05479108954125
20
52.268052690220145
11
75.23004925378925
21
52.177825770989195
0
LINE
8
Polygon
10
75.23004925378925
20
52.177825770989195
11
75.41333814561594
21
52.10528955091653
0
LINE
8
Polygon
10
75.41333814561594
20
52.10528955091653
11
75.60287728201308
21
52.0511486526666
0
LINE
8
Polygon
10
75.60287728201308
20
52.0511486526666
11
75.79682546459496
21
52.01592900527101
0
LINE
8
Polygon
10
75.79682546459496
20
52.01592900527101
11
75.99329866514731
21
51.99997273521174
0
LINE
8
Polygon
10
75.99329866514731
20
51.99997273521174
11
76.19038832722858
21
52.00343484297698
0
LINE
8
Polygon
10
76.19038832722858
20
52.00343484297698
11
76.38617990604045
21
52.026281697374
0
LINE
8
Polygon
10
76.38617990604045
20
52.026281697374
11
76.5787714664697
21
52.068291362225196
0
LINE
8
Polygon
10
76.5787714664697
20
52.068291362225196
11
76.76629215863855
21
52.12905575227401
0
LINE
8
Polygon
10
76.76629215863855
20
52.12905575227401
11
76.94692039149051
21
52.20798459735781
0
LINE
8
Polygon
10
76.94692039149051
20
52.20798459735781
11
77.11890152787223
21
52.30431117633961
0
LINE
8
Polygon
10
77.11890152787223
20
52.30431117633961
11
77.28056492921955
21
52.417099765098854
0
LINE
8
Polygon
10
77.28056492921955
20
52.417099765098854
11
77.43034018427468
21
52.54525472623052
0
LINE
8
Polygon
10
77.43034018427468
20
52.54525472623052
11
77.5667723641872
21
52.687531152154854
0
LINE
8
Polygon
10
77.5667723641872
20
52.687531152154854
11
77.6885361558097
21
52.84254695824958
0
LINE
8
Polygon
10
77.6885361558097
20
52.84254695824958
11
77.7944487358961
21
53.008796308530805
0
LINE
8
Polygon
10
77.7944487358961
20
53.008796308530805
11
77.88348126114157
21
53.18466424346467
0
LINE
8
Polygon
10
77.88348126114157
20
53.18466424346467
11
77.95476886244904
21
53.36844236781386
0
LINE
8
Polygon
10
77.95476886244904
20
53.36844236781386
11
78.00761904633698
21
53.55834544612619
0
LINE
8
Polygon
10
78.00761904633698
20
53.55834544612619
11
78.0415184218767
21
53.75252874465494
0
LINE
8
Polygon
10
78.0415184218767
20
53.752528744654924
11
78.056137687813
21
53.94910595125063
0
LINE
8
Polygon
10
78.056137687813
20
53.94910595125063
11
78.05133483142309
21
54.1461674991487
0
LINE
8
Polygon
10
78.05133483142309
20
54.1461674991487
11
78.02715650803944
21
54.341799116654265
0
LINE
8
Polygon
10
78.02715650803944
20
54.341799116654265
11
77.98383758783626
21
54.534100422531054
0
LINE
8
Polygon
10
77.98383758783626
20
54.534100422531054
11
77.92179887428175
21
54.7212033864573
0
LINE
8
Polygon
10
77.92179887428176
20
54.72120338645728
11
77.91549157819429
21
54.73868649372016
0
LINE
8
Polygon
10
77.91549157819429
20
54.73868649372016
11
77.91000322608134
21
54.75644371801294
0
LINE
8
Polygon
10
77.91000322608134
20
54.75644371801294
11
77.90534566733022
21
54.774436721374784
0
LINE
8
Polygon
10
77.90534566733022
20
54.774436721374784
11
77.90152895764008
21
54.79262665679636
0
LINE
8
Polygon
10
77.90152895764008
20
54.79262665679636
11
77.89856133731155
21
54.810974252090716
0
LINE
8
Polygon
10
77.89856133731155
20
54.810974252090716
11
77.89644921345588
21
54.82943989468225
0
LINE
8
Polygon
10
77.89644921345588
20
54.82943989468225
11
77.89519714616202
21
54.84798371713049
0
LINE
8
Polygon
10
77.89519714616202
20
54.84798371713049
11
77.89480783865123
21
54.86656568320413
0
LINE
8
Polygon
10
77.89480783865123
20
54.86656568320413
11
77.89528213144096
21
54.88514567431956
0
LINE
8
Polygon
10
77.89528213144096
20
54.88514567431956
11
77.89661900053002
21
54.9036835761571
0
LINE
8
Polygon
10
77.89661900053002
20
54.9036835761571
11
77.89881555960949
21
54.922139365268116
0
LINE
8
Polygon
10
77.89881555960949
20
54.922139365268116
11
77.90186706629426
21
54.94047319548585
0
LINE
8
Polygon
10
77.90186706629426
20
54.94047319548585
11
77.90576693236191
21
54.95864548395358
0
LINE
8
Polygon
10
77.90576693236191
20
54.95864548395358
11
77.91050673797662
21
54.97661699658426
0
LINE
8
Polygon
10
77.91050673797662
20
54.97661699658426
11
77.91607624986776
21
54.99434893276715
0
LINE
8
Polygon
10
77.91607624986776
20
54.99434893276715
11
77.92246344342352
21
55.01180300913862
0
LINE
8
Polygon
10
77.92246344342352
20
55.01180300913862
11
77.92965452865218
21
55.02894154223612
0
LINE
8
Polygon
10
77.92965452865218
20
55.02894154223612
11
77.93763397995471
21
55.04572752985706
0
LINE
8
Polygon
10
77.93763397995471
20
55.04572752985706
11
77.9463845696447
21
55.06212473094679
0
LINE
8
Polygon
10
77.9463845696447
20
55.06212473094679
11
77.95588740514306
21
55.07809774384328
0
LINE
8
Polygon
10
77.95588740514306
20
55.07809774384328
11
77.96612196976714
21
55.09361208270948
0
LINE
8
Polygon
10
77.96612196976714
20
55.09361208270948
11
77.97706616702644
21
55.108634251988555
0
LINE
8
Polygon
10
77.97706616702644
20
55.108634251988555
11
77.98869636832909
21
55.123131818720935
0
LINE
8
Polygon
10
77.98869636832909
20
55.123131818720935
11
78.00098746399607
21
55.13707348256731
0
LINE
8
Polygon
10
78.00098746399607
20
55.13707348256731
11
78.0139129174732
21
55.15042914338623
0
LINE
8
Polygon
10
78.0139129174732
20
55.15042914338623
11
78.02744482262376
21
55.16316996622058
0
LINE
8
Polygon
10
78.02744482262376
20
55.16316996622058
11
78.04155396397795
21
55.17526844355235
0
LINE
8
Polygon
10
78.04155396397795
20
55.17526844355235
11
78.05620987980934
21
55.18669845469157
0
LINE
8
Polygon
10
78.05620987980934
20
55.18669845469157
11
78.07138092790191
21
55.19743532217111
0
LINE
8
Polygon
10
78.07138092790191
20
55.19743532217111
11
78.08703435386576
21
55.207455865025366
0
LINE
8
Polygon
10
78.08703435386576
20
55.207455865025366
11
78.10313636185413
21
55.21673844883823
0
LINE
8
Polygon
10
78.10313636185413
20
55.21673844883823
11
78.11965218752871
21
55.22526303245188
0
LINE
8
Polygon
10
78.11965218752871
20
55.22526303245188
11
78.1365461731163
21
55.23301121123574
0
LINE
8
Polygon
10
78.1365461731163
20
55.23301121123574
11
78.15378184439388
21
55.23996625682227
0
LINE
8
Polygon
10
78.15378184439388
20
55.23996625682227
11
78.17132198943695
21
55.246113153223554
0
LINE
8
Polygon
10
78.17132198943695
20
55.246113153223554
11
78.18912873896014
21
55.251438629250934
0
LINE
8
Polygon
10
78.18912873896014
20
55.251438629250934
11
78.20716364807733
21
55.255931187167604
0
LINE
8
Polygon
10
78.20716364807733
20
55.255931187167604
11
78.22538777930436
21
55.25958112751229
0
LINE
8
Polygon
10
78.22538777930436
20
55.25958112751229
11
78.24376178662534
21
55.262380570040435
0
LINE
8
Polygon
10
78.24376178662534
20
55.262380570040435
11
78.26224600044092
21
55.26432347073771
0
LINE
8
Polygon
10
78.26224600044092
20
55.26432347073771
11
78.28080051321525
21
55.26540563486908
0
LINE
8
Polygon
10
78.28080051321525
20
55.26540563486908
11
78.29938526563654
21
55.26562472603528
0
LINE
8
Polygon
10
78.29938526563654
20
55.26562472603528
11
78.31796013310544
21
55.264980271217055
0
LINE
8
Polygon
10
78.31796013310544
20
55.264980271217055
11
78.33648501236426
21
55.26347366179649
0
LINE
8
Polygon
10
78.33648501236426
20
55.26347366179649
11
78.35491990808018
21
55.26110815055297
0
LINE
8
Polygon
10
78.35491990808018
20
55.26110815055297
11
78.37322501919542
21
55.257888844640405
0
LINE
8
Polygon
10
78.37322501919542
20
55.257888844640405
11
78.39136082485798
21
55.253822694560824
0
LINE
8
Polygon
10
78.39136082485798
20
55.253822694560824
11
78.40928816974743
21
55.24891847915829
0
LINE
8
Polygon
10
78.40928816974744
20
55.24891847915829
11
78.48713151571033
21
55.22595324165156
0
LINE
8
Polygon
10
78.48713151571033
20
55.22595324165156
11
78.56512840245577
21
55.20351500860038
0
LINE
8
Polygon
10
78.56512840245577
20
55.20351500860038
11
78.64327526217396
21
55.18160480639631
0
LINE
8
Polygon
10
78.64327526217396
20
55.18160480639631
11
78.72156852019495
21
55.16022363727723
0
LINE
8
Polygon
10
78.72156852019495
20
55.16022363727723
11
78.80000459515205
21
55.13937247928145
0
LINE
8
Polygon
10
78.80000459515205
20
55.13937247928145
11
78.87857989914569
21
55.119052286203015
0
LINE
8
Polygon
10
78.87857989914569
20
55.119052286203015
11
78.9572908379076
21
55.099263987548056
0
LINE
8
Polygon
10
78.9572908379076
20
55.099263987548056
11
79.03613381096514
21
55.080008488492226
0
LINE
8
Polygon
10
79.03613381096514
20
55.080008488492226
11
79.11510521180601
21
55.06128666983938
0
LINE
8
Polygon
10
79.11510521180601
20
55.06128666983938
11
79.19420142804327
21
55.04309938798125
0
LINE
8
Polygon
10
79.19420142804327
20
55.04309938798125
11
79.27341884158055
21
55.02544747485823
0
LINE
8
Polygon
10
79.27341884158055
20
55.02544747485823
11
79.35275382877755
21
55.00833173792139
0
LINE
8
Polygon
10
79.35275382877755
20
55.00833173792139
11
79.4322027606158
21
54.991752960095454
0
LINE
8
Polygon
10
79.4322027606158
20
54.991752960095454
11
79.51176200286466
21
54.97571189974308
0
LINE
8
Polygon
10
79.51176200286466
20
54.97571189974308
11
79.59142791624755
21
54.96020929063015
0
LINE
8
Polygon
10
79.59142791624755
20
54.96020929063015
11
79.67119685660846
21
54.94524584189211
0
LINE
8
Polygon
10
79.67119685660846
20
54.94524584189211
11
79.75106517507862
21
54.93082223800167
0
LINE
8
Polygon
10
79.75106517507862
20
54.93082223800167
11
79.8310292182434
21
54.91693913873738
0
LINE
8
Polygon
10
79.8310292182434
20
54.91693913873738
11
79.91108532830941
21
54.903597179153564
0
LINE
8
Polygon
10
79.91108532830943
20
54.903597179153564
11
79.99122984327191
21
54.89079696955115
0
LINE
8
Polygon
10
79.99122984327191
20
54.89079696955115
11
80.0714590970822
21
54.87853909544982
0
LINE
8
Polygon
10
80.07145909708221
20
54.87853909544982
11
80.1517694198154
21
54.86682411756123
0
LINE
8
Polygon
10
80.1517694198154
20
54.86682411756123
11
80.23215713783827
21
54.85565257176334
0
LINE
8
Polygon
10
80.23215713783827
20
54.85565257176334
11
80.31261857397732
21
54.845024969075915
0
LINE
8
Polygon
10
80.31261857397732
20
54.845024969075915
11
80.39315004768693
21
54.834941795637135
0
LINE
8
Polygon
10
80.39315004768693
20
54.834941795637135
11
80.47374787521781
21
54.82540351268136
0
LINE
8
Polygon
10
80.47374787521781
20
54.82540351268136
11
80.55440836978536
21
54.81641055651806
0
LINE
8
Polygon
10
80.55440836978536
20
54.81641055651806
11
80.63512784173851
21
54.8079633385118
0
LINE
8
Polygon
10
80.63512784173851
20
54.8079633385118
11
80.7159025987283
21
54.800062245063486
0
LINE
8
Polygon
10
80.7159025987283
20
54.800062245063486
11
80.79672894587692
21
54.792707637592656
0
LINE
8
Polygon
10
80.79672894587692
20
54.792707637592656
11
80.87760318594667
21
54.785899852520934
0
LINE
8
Polygon
10
80.87760318594667
20
54.785899852520934
11
80.95852161950903
21
54.7796392012567
0
LINE
8
Polygon
10
80.95852161950903
20
54.7796392012567
11
81.039480545114
21
54.77392597018075
0
LINE
8
Polygon
10
81.039480545114
20
54.77392597018075
11
81.12047625945935
21
54.7687604206333
0
LINE
8
Polygon
10
81.12047625945935
20
54.7687604206333
11
81.20150505755997
21
54.76414278890195
0
LINE
8
Polygon
10
81.20150505755997
20
54.76414278890195
11
81.28256323291748
21
54.76007328621092
0
LINE
8
Polygon
10
81.28256323291748
20
54.76007328621092
11
81.36364707768962
21
54.756552098711396
0
LINE
8
Polygon
10
81.36364707768962
20
54.756552098711396
11
81.44475288285999
21
54.75357938747295
0
LINE
8
Polygon
10
81.44475288285999
20
54.75357938747295
11
81.5258769384076
21
54.75115528847626
0
LINE
8
Polygon
10
81.5258769384076
20
54.75115528847626
11
81.60701553347671
21
54.74927991260683
0
LINE
8
Polygon
10
81.60701553347671
20
54.74927991260683
11
81.68816495654643
21
54.74795334564991
0
LINE
8
Polygon
10
81.68816495654643
20
54.74795334564991
11
81.7693214956006
21
54.747175648286664
0
LINE
8
Polygon
10
81.7693214956006
20
54.747175648286664
11
81.85048143829754
21
54.74694685609125
0
LINE
8
Polygon
10
81.85048143829754
20
54.74694685609125
11
81.93164107213988
21
54.74726697952932
0
LINE
8
Polygon
10
81.93164107213988
20
54.74726697952932
11
82.0127966846444
21
54.74813600395747
0
LINE
8
Polygon
10
82.0127966846444
20
54.74813600395747
11
82.09394456351178
21
54.749553889623925
0
LINE
8
Polygon
10
82.09394456351178
20
54.749553889623925
11
82.17508099679651
21
54.7515205716704
0
LINE
8
Polygon
10
82.17508099679652
20
54.7515205716704
11
82.25620227307661
21
54.754035960134985
0
LINE
8
Polygon
10
67.96796246582753
20
46.062443003209054
11
67.96624529618079
21
46.109664211752225
0
LINE
8
Polygon
10
67.96624529618079
20
46.109664211752225
11
67.96434219717516
21
46.1568782925126
0
LINE
8
Polygon
10
67.96434219717516
20
46.1568782925126
11
67.96225319831909
21
46.20408451341253
0
LINE
8
Polygon
10
67.96225319831909
20
46.20408451341253
11
67.95997833200357
21
46.2512821424962
0
LINE
8
Polygon
10
67.95997833200357
20
46.2512821424962
11
67.95751763350152
21
46.29847044794104
0
LINE
8
Polygon
10
67.95751763350152
20
46.29847044794104
11
67.9548711409673
21
46.34564869806903
0
LINE
8
Polygon
10
67.9548711409673
20
46.34564869806903
11
67.95203889543608
21
46.392816161358084
0
LINE
8
Polygon
10
67.95203889543608
20
46.392816161358084
11
67.9490209408232
21
46.439972106453354
0
LINE
8
Polygon
10
67.9490209408232
20
46.439972106453354
11
67.94581732392356
21
46.487115802178586
0
LINE
8
Polygon
10
67.94581732392356
20
46.487115802178586
11
67.94242809441083
21
46.53424651754748
0
LINE
8
Polygon
10
67.94242809441083
20
46.53424651754748
11
67.93885330483668
21
46.58136352177497
0
LINE
8
Polygon
10
67.93885330483668
20
46.58136352177497
11
67.93509301063001
21
46.628466084288625
0
LINE
8
Polygon
10
67.93509301063001
20
46.628466084288625
11
67.93114727009602
21
46.67555347473991
0
LINE
8
Polygon
10
67.93114727009602
20
46.67555347473991
11
67.92701614441535
21
46.72262496301555
0
LINE
8
Polygon
10
67.92701614441535
20
46.72262496301555
11
67.92269969764318
21
46.76967981924884
0
LINE
8
Polygon
10
67.92269969764318
20
46.76967981924884
11
67.91819799670816
21
46.81671731383098
0
LINE
8
Polygon
10
67.91819799670816
20
46.81671731383098
11
67.91351111141134
21
46.86373671742235
0
LINE
8
Polygon
10
67.91351111141134
20
46.86373671742235
11
67.90863911442524
21
46.91073730096384
0
LINE
8
Polygon
10
67.90863911442524
20
46.91073730096384
11
67.90358208129257
21
46.95771833568816
0
LINE
8
Polygon
10
67.90358208129257
20
46.95771833568816
11
67.89834009042511
21
47.004679093131145
0
LINE
8
Polygon
10
67.89834009042511
20
47.004679093131145
11
67.89291322310255
21
47.051618845143025
0
LINE
8
Polygon
10
67.89291322310255
20
47.051618845143025
11
67.88730156347114
21
47.098536863899724
0
LINE
8
Polygon
10
67.88730156347114
20
47.098536863899724
11
67.88150519854243
21
47.14543242191417
0
LINE
8
Polygon
10
67.88150519854243
20
47.14543242191417
11
67.87552421819191
21
47.19230479204755
0
LINE
8
Polygon
10
67.87552421819191
20
47.19230479204755
11
67.86935871515769
21
47.239153247520576
0
LINE
8
Polygon
10
67.86935871515769
20
47.239153247520576
11
67.86300878503889
21
47.28597706192478
0
LINE
8
Polygon
10
67.86300878503889
20
47.28597706192478
11
67.85647452629435
21
47.33277550923378
0
LINE
8
Polygon
10
67.85647452629435
20
47.33277550923378
11
67.84975604024098
21
47.37954786381449
0
LINE
8
Polygon
10
67.84975604024098
20
47.37954786381449
11
67.84285343105219
21
47.426293400438425
0
LINE
8
Polygon
10
67.84285343105219
20
47.426293400438425
11
67.8357668057564
21
47.47301139429293
0
LINE
8
Polygon
10
67.8357668057564
20
47.47301139429293
11
67.8284962742352
21
47.51970112099242
0
LINE
8
Polygon
10
67.8284962742352
20
47.51970112099242
11
67.82104194922182
21
47.56636185658958
0
LINE
8
Polygon
10
67.82104194922182
20
47.56636185658958
11
67.81340394629922
21
47.612992877586635
0
LINE
8
Polygon
10
67.81340394629922
20
47.612992877586635
11
67.80558238389841
21
47.65959346094654
0
LINE
8
Polygon
10
67.80558238389841
20
47.65959346094654
11
67.7975773832966
21
47.70616288410421
0
LINE
8
Polygon
10
67.7975773832966
20
47.70616288410421
11
67.78938906861528
21
47.75270042497771
0
LINE
8
Polygon
10
67.78938906861528
20
47.75270042497771
11
67.78101756681832
21
47.79920536197946
0
LINE
8
Polygon
10
67.78101756681832
20
47.79920536197946
11
67.77246300770999
21
47.84567697402741
0
LINE
8
Polygon
10
67.77246300770999
20
47.84567697402741
11
67.76372552393295
21
47.89211454055624
0
LINE
8
Polygon
10
67.76372552393295
20
47.89211454055624
11
67.75480525096623
21
47.93851734152851
0
LINE
8
Polygon
10
67.75480525096623
20
47.93851734152851
11
67.74570232712304
21
47.98488465744585
0
LINE
8
Polygon
10
67.74570232712304
20
47.98488465744585
11
67.73641689354875
21
48.0312157693601
0
LINE
8
Polygon
10
67.73641689354875
20
48.0312157693601
11
67.72694909421858
21
48.077509958884455
0
LINE
8
Polygon
10
67.72694909421858
20
48.077509958884455
11
67.71729907593546
21
48.12376650820462
0
LINE
8
Polygon
10
67.71729907593546
20
48.12376650820462
11
67.70746698832765
21
48.16998470008991
0
LINE
8
Polygon
10
67.70746698832765
20
48.16998470008991
11
67.6974529838466
21
48.21616381790442
0
LINE
8
Polygon
10
67.6974529838466
20
48.21616381790442
11
67.68725721776434
21
48.262303145618084
0
LINE
8
Polygon
10
67.68725721776434
20
48.262303145618084
11
67.6768798481713
21
48.308401967817815
0
LINE
8
Polygon
10
67.6768798481713
20
48.308401967817815
11
67.67318455407799
21
48.32661695683961
0
LINE
8
Polygon
10
67.67318455407799
20
48.32661695683961
11
67.67033938208183
21
48.34498393862247
0
LINE
8
Polygon
10
67.67033938208183
20
48.34498393862247
11
67.66835047492738
21
48.36346325873526
0
LINE
8
Polygon
10
67.66835047492738
20
48.36346325873526
11
67.66722212667787
21
48.382015020207625
0
LINE
8
Polygon
10
67.66722212667787
20
48.382015020207625
11
67.66695677344441
21
48.40059916966789
0
LINE
8
Polygon
10
67.66695677344441
20
48.40059916966789
11
67.66755498812633
21
48.41917558381848
0
LINE
8
Polygon
10
67.66755498812633
20
48.41917558381848
11
67.66901547917428
21
48.43770415606241
0
LINE
8
Polygon
10
67.66901547917428
20
48.43770415606241
11
67.67133509337877
21
48.45614488309369
0
LINE
8
Polygon
10
67.67133509337877
20
48.45614488309369
11
67.6745088226779
21
48.4744579512647
0
LINE
8
Polygon
10
67.6745088226779
20
48.4744579512647
11
67.67852981496979
21
48.49260382254409
0
LINE
8
Polygon
10
67.67852981496979
20
48.49260382254409
11
67.68338938890636
21
48.51054331987971
0
LINE
8
Polygon
10
67.68338938890636
20
48.51054331987971
11
67.68907705263642
21
48.528237711782054
0
LINE
8
Polygon
10
67.68907705263642
20
48.528237711782054
11
67.69558052645758
21
48.54564879594581
0
LINE
8
Polygon
10
67.69558052645758
20
48.54564879594581
11
67.70288576932825
21
48.5627389817289
0
LINE
8
Polygon
10
67.70288576932825
20
48.5627389817289
11
67.71097700918234
21
48.57947137131088
0
LINE
8
Polygon
10
67.71097700918234
20
48.57947137131088
11
67.71983677698127
21
48.595809839355624
0
LINE
8
Polygon
10
67.71983677698127
20
48.595809839355624
11
67.72944594442966
21
48.6117191110061
0
LINE
8
Polygon
10
67.72944594442966
20
48.6117191110061
11
67.73978376527353
21
48.62716483804304
0
LINE
8
Polygon
10
67.73978376527353
20
48.62716483804304
11
67.75082792009157
21
48.642113673042985
0
LINE
8
Polygon
10
67.75082792009157
20
48.642113673042985
11
67.76255456448283
21
48.65653334137552
0
LINE
8
Polygon
10
67.76255456448283
20
48.65653334137552
11
67.77493838054708
21
48.6703927108845
0
LINE
8
Polygon
10
67.77493838054708
20
48.6703927108845
11
67.78795263154626
21
48.68366185910248
0
LINE
8
Polygon
10
67.78795263154626
20
48.68366185910248
11
67.80156921962916
21
48.69631213785358
0
LINE
8
Polygon
10
67.80156921962916
20
48.69631213785358
11
67.81575874649502
21
48.70831623510505
0
LINE
8
Polygon
10
67.81575874649502
20
48.70831623510505
11
67.83049057686456
21
48.71964823393415
0
LINE
8
Polygon
10
67.83049057686456
20
48.71964823393415
11
67.8457329046218
21
48.730283668482905
0
LINE
8
Polygon
10
67.8457329046218
20
48.73028366848291
11
67.8614528214836
21
48.7401995767801
0
LINE
8
Polygon
10
67.8614528214836
20
48.7401995767801
11
67.87761638804886
21
48.74937455031628
0
LINE
8
Polygon
10
67.87761638804886
20
48.74937455031628
11
67.89418870707404
21
48.757788780264896
0
LINE
8
Polygon
10
67.89418870707404
20
48.757788780264896
11
67.91113399881628
21
48.76542410024967
0
LINE
8
Polygon
10
67.91113399881628
20
48.76542410024967
11
67.92841567828236
21
48.772264025565896
0
LINE
8
Polygon
10
67.92841567828236
20
48.772264025565896
11
67.94599643421574
21
48.77829378877108
0
LINE
8
Polygon
10
67.94599643421574
20
48.77829378877108
11
67.96383830965192
21
48.783500371567875
0
LINE
8
Polygon
10
67.96383830965192
20
48.783500371567875
11
67.98190278386768
21
48.78787253291073
0
LINE
8
Polygon
10
67.98190278386768
20
48.78787253291073
11
68.00015085554764
21
48.79140083327533
0
LINE
8
Polygon
10
68.00015085554764
20
48.79140083327533
11
68.01854312698832
21
48.79407765503862
0
LINE
8
Polygon
10
68.01854312698832
20
48.79407765503862
11
68.03703988915801
21
48.79589721892529
0
LINE
8
Polygon
10
68.03703988915801
20
48.79589721892529
11
68.05560120742888
21
48.796855596485265
0
LINE
8
Polygon
10
68.05560120742888
20
48.796855596485265
11
68.07418700779604
21
48.796950718575275
0
LINE
8
Polygon
10
68.07418700779604
20
48.796950718575275
11
68.0927571633976
21
48.79618237982611
0
LINE
8
Polygon
10
68.0927571633976
20
48.79618237982611
11
68.11127158114884
21
48.79455223908603
0
LINE
8
Polygon
10
68.11127158114884
20
48.79455223908603
11
68.1296902883034
21
48.79206381583934
0
LINE
8
Polygon
10
68.1296902883034
20
48.79206381583934
11
68.1479735187547
21
48.78872248260775
0
LINE
8
Polygon
10
68.1479735187547
20
48.78872248260775
11
68.16608179889124
21
48.78453545335107
0
LINE
8
Polygon
10
68.16608179889124
20
48.78453545335107
11
68.18397603282038
21
48.77951176789225
0
LINE
8
Polygon
10
68.18397603282038
20
48.77951176789225
11
68.20161758677659
21
48.773662272400344
0
LINE
8
Polygon
10
68.20161758677659
20
48.773662272400344
11
68.21896837253205
21
48.76699959597352
0
LINE
8
Polygon
10
68.21896837253205
20
48.76699959597352
11
68.23599092962928
21
48.75953812337281
0
LINE
8
Polygon
10
68.23599092962927
20
48.75953812337283
11
68.41853007384103
21
48.6851352879435
0
LINE
8
Polygon
10
68.41853007384103
20
48.6851352879435
11
68.60750685432258
21
48.62906303519478
0
LINE
8
Polygon
10
68.60750685432258
20
48.62906303519478
11
68.80108553545868
21
48.59186605549091
0
LINE
8
Polygon
10
68.80108553545868
20
48.59186605549091
11
68.99738567840178
21
48.57390568327863
0
LINE
8
Polygon
10
68.99738567840178
20
48.57390568327863
11
69.19450040780585
21
48.575356387055336
0
LINE
8
Polygon
10
69.19450040780585
20
48.575356387055336
11
69.39051493536658
21
48.59620407456807
0
LINE
8
Polygon
10
69.39051493536658
20
48.59620407456807
11
69.5835251602287
21
48.636246229706856
0
LINE
8
Polygon
10
69.5835251602287
20
48.636246229706856
11
69.77165616557451
21
48.6950938797624
0
LINE
8
Polygon
10
69.77165616557451
20
48.6950938797624
11
69.95308043171637
21
48.77217537393821
0
LINE
8
Polygon
10
69.95308043171637
20
48.77217537393821
11
70.12603558876961
21
48.86674193641235
0
LINE
8
Polygon
10
70.12603558876961
20
48.86674193641235
11
70.28884153645508
21
48.977874940005876
0
LINE
8
Polygon
10
70.28884153645508
20
48.977874940005876
11
70.43991676472818
21
49.10449482980096
0
LINE
8
Polygon
10
70.43991676472818
20
49.10449482980096
11
70.57779371669427
21
49.24537161002406
0
LINE
8
Polygon
10
70.57779371669427
20
49.24537161002406
11
70.70113304457425
21
49.39913679232356
0
LINE
8
Polygon
10
70.70113304457425
20
49.39913679232356
11
70.80873662023635
21
49.56429668937553
0
LINE
8
Polygon
10
70.80873662023635
20
49.56429668937553
11
70.899559173909
21
49.73924692468221
0
LINE
8
Polygon
10
70.899559173909
20
49.73924692468221
11
70.97271844801529
21
49.92228801761417
0
LINE
8
Polygon
10
70.97271844801529
20
49.92228801761417
11
71.02750376749385
21
50.11164189230154
0
LINE
8
Polygon
10
71.02750376749385
20
50.11164189230154
11
71.06338294335356
21
50.3054691500057
0
LINE
8
Polygon
10
71.06338294335356
20
50.3054691500057
11
71.08000744239999
21
50.501886937186335
0
LINE
8
Polygon
10
71.08000744239999
20
50.501886937186335
11
71.07721577291491
21
50.698987235691874
0
LINE
8
Polygon
10
71.07721577291491
20
50.698987235691874
11
71.0550350533998
21
50.89485539740092
0
LINE
8
Polygon
10
71.0550350533998
20
50.89485539740092
11
71.01368074914454
21
51.08758874326781
0
LINE
8
Polygon
10
71.01368074914454
20
51.08758874326781
11
70.95355457918025
21
51.27531504609964
0
LINE
8
Polygon
10
70.95355457918025
20
51.27531504609964
11
70.87524061394845
21
51.456210717521486
0
LINE
8
Polygon
10
70.87524061394845
20
51.456210717521486
11
70.77949960159384
21
51.62851852246021
0
LINE
8
Polygon
10
70.77949960159384
20
51.62851852246021
11
70.66726157799582
21
51.790564649067086
0
LINE
8
Polygon
10
70.66726157799582
20
51.790564649067086
11
70.53961683232518
21
51.94077496826043
0
LINE
8
Polygon
10
70.53961683232518
20
51.94077496826043
11
70.39780531588775
21
52.07769032494186
0
LINE
8
Polygon
10
70.39780531588775
20
52.07769032494186
11
70.24320459713773
21
52.19998071234604
0
LINE
8
Polygon
10
70.24320459713773
20
52.19998071234604
11
70.07731647986725
21
52.30645819183321
0
LINE
8
Polygon
10
70.07731647986725
20
52.30645819183321
11
69.90175241456369
21
52.39608843262042
0
LINE
8
Polygon
10
69.90175241456369
20
52.39608843262042
11
69.71821784465035
21
52.468000759353814
0
LINE
8
Polygon
10
69.71821784465035
20
52.468000759353814
11
69.52849563967213
21
52.52149660991895
0
LINE
8
Polygon
10
69.52849563967213
20
52.52149660991895
11
69.33442877635764
21
52.5560563213292
0
LINE
8
Polygon
10
69.33442877635764
20
52.5560563213292
11
69.13790243579531
21
52.57134417777374
0
LINE
8
Polygon
10
69.13790243579531
20
52.57134417777374
11
68.94082569063302
21
52.56721167178785
0
LINE
8
Polygon
10
68.94082569063302
20
52.56721167178785
11
68.74511296019308
21
52.54369894686642
0
LINE
8
Polygon
10
68.74511296019308
20
52.54369894686642
11
68.55266541364932
21
52.501034407506765
0
LINE
8
Polygon
10
68.55266541364932
20
52.501034407506765
11
68.36535250191709
21
52.439632500469
0
LINE
8
Polygon
10
68.36535250191709
20
52.439632500469
11
68.18499379765697
21
52.36008968880698
0
LINE
8
Polygon
10
68.18499379765697
20
52.36008968880698
11
68.01334131980002
21
52.263178657778255
0
LINE
8
Polygon
10
68.01334131980002
20
52.263178657778255
11
67.85206251429504
21
52.149840808917524
0
LINE
8
Polygon
10
67.85206251429506
20
52.149840808917524
11
67.70272405640499
21
52.021177115186525
0
LINE
8
Polygon
10
67.70272405640499
20
52.02117711518653
11
67.56677663189751
21
51.87843742603431
0
LINE
8
Polygon
10
67.56677663189751
20
51.87843742603431
11
67.44554084496714
21
51.72300832625933
0
LINE
8
Polygon
10
67.44554084496714
20
51.72300832625933
11
67.34019438977997
21
51.556399666613494
0
LINE
8
Polygon
10
67.34019438977997
20
51.556399666613494
11
67.25176061025813
21
51.38022989699065
0
LINE
8
Polygon
10
67.25176061025812
20
51.380229896990656
11
67.24385811839073
21
51.36340754145448
0
LINE
8
Polygon
10
67.24385811839073
20
51.36340754145448
11
67.23518271567485
21
51.34697043674539
0
LINE
8
Polygon
10
67.23518271567485
20
51.34697043674539
11
67.22575313236047
21
51.33095407067763
0
LINE
8
Polygon
10
67.22575313236047
20
51.33095407067763
11
67.21558972697825
21
51.315393022687964
0
LINE
8
Polygon
10
67.21558972697825
20
51.315393022687964
11
67.20471444238544
21
51.30032088917855
0
LINE
8
Polygon
10
67.20471444238544
20
51.30032088917855
11
67.19315075839104
21
51.28577021098207
0
LINE
8
Polygon
10
67.19315075839104
20
51.28577021098207
11
67.18092364106278
21
51.27177240310582
0
LINE
8
Polygon
10
67.18092364106278
20
51.27177240310582
11
67.16805948882516
21
51.25835768690653
0
LINE
8
Polygon
10
67.16805948882516
20
51.25835768690653
11
67.15458607546518
21
51.245555024842304
0
LINE
8
Polygon
10
67.15458607546518
20
51.245555024842304
11
67.14053249016845
21
51.23339205794243
0
LINE
8
Polygon
10
67.14053249016845
20
51.23339205794243
11
67.12592907471553
21
51.22189504613025
0
LINE
8
Polygon
10
67.12592907471553
20
51.22189504613025
11
67.1108073579738
21
51.211088811527816
0
LINE
8
Polygon
10
67.1108073579738
20
51.211088811527816
11
67.09519998782645
21
51.200996684864755
0
LINE
8
Polygon
10
67.09519998782645
20
51.200996684864755
11
67.07914066068544
21
51.19164045510709
0
LINE
8
Polygon
10
67.07914066068544
20
51.19164045510709
11
67.06266404874083
21
51.18304032241472
0
LINE
8
Polygon
10
67.06266404874083
20
51.18304032241472
11
67.04580572510318
21
51.17521485452915
0
LINE
8
Polygon
10
67.04580572510318
20
51.17521485452915
11
67.02860208700108
21
51.168180946685595
0
LINE
8
Polygon
10
67.02860208700108
20
51.168180946685595
11
67.01109027719923
21
51.16195378513607
0
LINE
8
Polygon
10
67.01109027719923
20
51.16195378513607
11
66.99330810380701
21
51.15654681436222
0
LINE
8
Polygon
10
66.99330810380701
20
51.15654681436222
11
66.97529395865055
21
51.15197170804853
0
LINE
8
Polygon
10
66.97529395865055
20
51.15197170804853
11
66.95708673438445
21
51.14823834387878
0
LINE
8
Polygon
10
66.95708673438445
20
51.14823834387878
11
66.93872574052239
21
51.14535478221012
0
LINE
8
Polygon
10
66.93872574052239
20
51.14535478221012
11
66.92025061856755
21
51.14332724867061
0
LINE
8
Polygon
10
66.92025061856755
20
51.14332724867061
11
66.90170125642642
21
51.14216012071815
0
LINE
8
Polygon
10
66.90170125642642
20
51.14216012071815
11
66.88311770229053
21
51.14185591818945
0
LINE
8
Polygon
10
66.88311770229053
20
51.14185591818945
11
66.86454007817215
21
51.14241529785972
0
LINE
8
Polygon
10
66.86454007817215
20
51.14241529785972
11
66.84600849328056
21
51.143837052024665
0
LINE
8
Polygon
10
66.84600849328056
20
51.143837052024665
11
66.8275629574261
21
51.14611811110795
0
LINE
8
Polygon
10
66.8275629574261
20
51.14611811110795
11
66.80924329463865
21
51.14925355028844
0
LINE
8
Polygon
10
66.80924329463865
20
51.14925355028844
11
66.79108905718739
21
51.15323660013286
0
LINE
8
Polygon
10
66.79108905718739
20
51.15323660013286
11
66.7731394401871
21
51.158058661211136
0
LINE
8
Polygon
10
66.7731394401871
20
51.158058661211136
11
66.7554331969757
21
51.16370932266254
0
LINE
8
Polygon
10
66.7554331969757
20
51.16370932266254
11
66.73800855544553
21
51.17017638467287
0
LINE
8
Polygon
10
66.73800855544553
20
51.17017638467287
11
66.72090313550916
21
51.17744588481386
0
LINE
8
Polygon
10
66.72090313550916
20
51.17744588481386
11
66.70415386787761
21
51.18550212818821
0
LINE
8
Polygon
10
66.70415386787761
20
51.18550212818821
11
66.68779691432687
21
51.194327721314934
0
LINE
8
Polygon
10
66.68779691432687
20
51.194327721314934
11
66.67186758962427
21
51.20390360968203
0
LINE
8
Polygon
10
66.67186758962427
20
51.20390360968203
11
66.65640028528375
21
51.21420911888524
0
LINE
8
Polygon
10
66.65640028528375
20
51.21420911888524
11
66.64142839531432
21
51.22522199926429
0
LINE
8
Polygon
10
66.64142839531432
20
51.22522199926429
11
66.6269842441222
21
51.23691847393999
0
LINE
8
Polygon
10
66.6269842441222
20
51.23691847393999
11
66.61309901672222
21
51.249273290148665
0
LINE
8
Polygon
10
66.61309901672222
20
51.249273290148665
11
66.59980269140912
21
51.262259773763134
0
LINE
8
Polygon
10
66.59980269140912
20
51.262259773763134
11
66.58712397503436
21
51.27584988688216
0
LINE
8
Polygon
10
66.58712397503436
20
51.27584988688216
11
66.57509024102767
21
51.2900142883646
0
LINE
8
Polygon
10
66.57509024102767
20
51.2900142883646
11
66.56372747029774
21
51.30472239717706
0
LINE
8
Polygon
10
66.56372747029774
20
51.30472239717706
11
66.55306019513928
21
51.319942458418524
0
LINE
8
Polygon
10
66.55306019513928
20
51.319942458418524
11
66.54311144626759
21
51.33564161187938
0
LINE
8
Polygon
10
66.54311144626759
20
51.33564161187938
11
66.53390270309512
21
51.351785962986916
0
LINE
8
Polygon
10
66.53390270309512
20
51.351785962986916
11
66.51136883707524
21
51.39331927600275
0
LINE
8
Polygon
10
66.51136883707524
20
51.39331927600275
11
66.48867160027538
21
51.43476353555126
0
LINE
8
Polygon
10
66.48867160027538
20
51.43476353555126
11
66.46581134462744
21
51.47611809901872
0
LINE
8
Polygon
10
66.46581134462744
20
51.47611809901872
11
66.44278842459097
21
51.51738232518216
0
LINE
8
Polygon
10
66.44278842459097
20
51.51738232518216
11
66.41960319714774
21
51.558555574219355
0
LINE
8
Polygon
10
66.41960319714774
20
51.558555574219355
11
66.39625602179615
21
51.59963720771871
0
LINE
8
Polygon
10
66.39625602179615
20
51.59963720771871
11
66.37274726054572
21
51.64062658868919
0
LINE
8
Polygon
10
66.37274726054572
20
51.64062658868919
11
66.34907727791139
21
51.68152308157017
0
LINE
8
Polygon
10
66.34907727791139
20
51.68152308157017
11
66.32524644090797
21
51.72232605224132
0
LINE
8
Polygon
10
66.32524644090797
20
51.72232605224132
11
66.30125511904438
21
51.76303486803238
0
LINE
8
Polygon
10
66.30125511904438
20
51.76303486803238
11
66.27710368431792
21
51.803648897733034
0
LINE
8
Polygon
10
66.27710368431792
20
51.803648897733034
11
66.2527925112085
21
51.84416751160268
0
LINE
8
Polygon
10
66.2527925112085
20
51.84416751160268
11
66.22832197667292
21
51.88459008138017
0
LINE
8
Polygon
10
66.22832197667292
20
51.88459008138017
11
66.20369246013888
21
51.92491598029356
0
LINE
8
Polygon
10
66.20369246013888
20
51.92491598029356
11
66.17890434349927
21
51.965144583069865
0
LINE
8
Polygon
10
66.17890434349927
20
51.965144583069865
11
66.15395801110604
21
52.00527526594468
0
LINE
8
Polygon
10
66.15395801110604
20
52.0052752659447
11
66.12885384976444
21
52.04530740667196
0
LINE
8
Polygon
10
66.12885384976444
20
52.04530740667196
11
66.10359224872688
21
52.08524038453353
0
LINE
8
Polygon
10
66.10359224872688
20
52.08524038453353
11
66.078173599687
21
52.12507358034885
0
LINE
8
Polygon
10
66.078173599687
20
52.12507358034885
11
66.05259829677354
21
52.164806376484485
0
LINE
8
Polygon
10
66.05259829677354
20
52.1648063764845
11
66.02686673654416
21
52.20443815686383
0
LINE
8
Polygon
10
66.02686673654416
20
52.20443815686383
11
66.00097931797949
21
52.2439683069765
0
LINE
8
Polygon
10
66.00097931797949
20
52.2439683069765
11
65.9749364424767
21
52.283396213887976
0
LINE
8
Polygon
10
65.9749364424767
20
52.283396213887976
11
65.9487385138435
21
52.32272126624906
0
LINE
8
Polygon
10
65.9487385138435
20
52.32272126624906
11
65.9223859382917
21
52.36194285430539
0
LINE
8
Polygon
10
65.9223859382917
20
52.36194285430539
11
65.89587912443102
21
52.401060369906816
0
LINE
8
Polygon
10
65.89587912443102
20
52.40106036990683
11
65.86921848326273
21
52.44007320651695
0
LINE
8
Polygon
10
65.86921848326273
20
52.44007320651695
11
65.84240442817323
21
52.47898075922244
0
LINE
8
Polygon
10
65.84240442817323
20
52.47898075922245
11
65.81543737492773
21
52.517782424742464
0
LINE
8
Polygon
10
65.81543737492773
20
52.517782424742464
11
65.7883177416637
21
52.55647760143799
0
LINE
8
Polygon
10
65.7883177416637
20
52.55647760143799
11
65.76104594888449
21
52.595065689321174
0
LINE
8
Polygon
10
65.76104594888449
20
52.595065689321174
11
65.73362241945271
21
52.63354609006464
0
LINE
8
Polygon
10
65.73362241945271
20
52.63354609006464
11
65.70604757858376
21
52.67191820701075
0
LINE
8
Polygon
10
65.70604757858376
20
52.67191820701075
11
65.6783218538392
21
52.71018144518085
0
LINE
8
Polygon
10
65.6783218538392
20
52.71018144518085
11
65.65044567512007
21
52.74833521128449
0
LINE
8
Polygon
10
65.65044567512007
20
52.74833521128449
11
65.6224194746603
21
52.78637891372869
0
LINE
8
Polygon
10
65.6224194746603
20
52.78637891372869
11
65.59424368702001
21
52.824311962627014
0
LINE
8
Polygon
10
65.59424368702001
20
52.824311962627014
11
65.56591874907873
21
52.86213376980879
0
LINE
8
Polygon
10
65.56591874907873
20
52.86213376980879
11
65.5374451000286
21
52.89984374882819
0
LINE
8
Polygon
10
65.5374451000286
20
52.89984374882819
11
65.50882318136765
21
52.93744131497334
0
LINE
8
Polygon
10
65.50882318136765
20
52.93744131497334
11
65.48005343689287
21
52.97492588527539
0
LINE
8
Polygon
10
65.48005343689287
20
52.97492588527539
11
65.4511363126934
21
53.01229687851754
0
LINE
8
Polygon
10
65.4511363126934
20
53.01229687851754
11
65.4220722571435
21
53.04955371524406
0
LINE
8
Polygon
10
65.4220722571435
20
53.04955371524406
11
65.39286172089577
21
53.08669581776927
0
LINE
8
Polygon
10
65.39286172089577
20
53.08669581776927
11
65.363505156874
21
53.1237226101865
0
LINE
8
Polygon
10
65.363505156874
20
53.1237226101865
11
65.33400302026624
21
53.16063351837703
0
LINE
8
Polygon
10
65.33400302026624
20
53.16063351837703
11
65.3043557685177
21
53.197427970018985
0
LINE
8
Polygon
10
65.3043557685177
20
53.197427970018985
11
65.27456386132367
21
53.234105394596185
0
LINE
8
Polygon
10
65.27456386132367
20
53.234105394596185
11
72.5442190897696
21
59.162809773772715
0
LINE
8
Polygon
10
82.53789819770276
20
46.563547619573455
11
82.25620227307661
21
54.754035960134985
0
LINE
8
Polygon
10
73.46513301416788
20
46.25150749802967
11
73.48426959639323
21
46.252625257864835
0
LINE
8
Polygon
10
73.48426959639323
20
46.252625257864835
11
73.5033306529315
21
46.25465855321026
0
LINE
8
Polygon
10
73.5033306529315
20
46.25465855321026
11
73.52227240790215
21
46.25760271437232
0
LINE
8
Polygon
10
73.52227240790215
20
46.25760271437232
11
73.54105135941428
21
46.261450979750634
0
LINE
8
Polygon
10
73.54105135941428
20
46.261450979750634
11
73.55962437947359
21
46.266194511366834
0
LINE
8
Polygon
10
73.55962437947359
20
46.266194511366834
11
73.57794881303072
21
46.27182241516197
0
LINE
8
Polygon
10
73.57794881303072
20
46.27182241516197
11
73.59598257594345
21
46.278321766016006
0
LINE
8
Polygon
10
73.59598257594345
20
46.278321766016006
11
73.61368425162775
21
46.28567763743177
0
LINE
8
Polygon
10
73.61368425162775
20
46.28567763743177
11
73.63101318617554
21
46.29387313581535
0
LINE
8
Polygon
10
73.63101318617554
20
46.29387313581535
11
73.6479295817211
21
46.30288943927423
0
LINE
8
Polygon
10
73.6479295817211
20
46.30288943927423
11
73.66439458784141
21
46.31270584084379
0
LINE
8
Polygon
10
73.66439458784141
20
46.31270584084379
11
73.6803703907805
21
46.32329979604328
0
LINE
8
Polygon
10
73.6803703907805
20
46.32329979604328
11
73.695820300293
21
46.33464697465175
0
LINE
8
Polygon
10
73.695820300293
20
46.33464697465175
11
73.71070883390753
21
46.346721316585175
0
LINE
8
Polygon
10
73.71070883390753
20
46.346721316585175
11
73.72500179841626
21
46.35949509174639
0
LINE
8
Polygon
10
73.72500179841626
20
46.35949509174639
11
73.73866636840334
21
46.37293896371041
0
LINE
8
Polygon
10
73.73866636840334
20
46.37293896371041
11
73.75167116163233
21
46.38702205709887
0
LINE
8
Polygon
10
73.75167116163233
20
46.38702205709887
11
73.76398631111904
21
46.401712028488795
0
LINE
8
Polygon
10
73.76398631111904
20
46.401712028488795
11
73.77558353372442
21
46.41697514069301
0
LINE
8
Polygon
10
73.77558353372442
20
46.41697514069301
11
73.78643619510999
21
46.432776340241375
0
LINE
8
Polygon
10
73.78643619510999
20
46.432776340241375
11
73.79651937090667
21
46.44907933788505
0
LINE
8
Polygon
10
73.79651937090667
20
46.44907933788505
11
73.80580990395643
21
46.465846691938935
0
LINE
8
Polygon
10
73.80580990395643
20
46.465846691938935
11
73.81428645749527
21
46.483039894270675
0
LINE
8
Polygon
10
73.81428645749527
20
46.483039894270675
11
73.82192956415555
21
46.50061945873901
0
LINE
8
Polygon
10
73.82192956415555
20
46.50061945873901
11
73.82872167067505
21
46.51854501187816
0
LINE
8
Polygon
10
73.82872167067505
20
46.51854501187816
11
73.83464717820998
21
46.53677538562009
0
LINE
8
Polygon
10
73.83464717820998
20
46.53677538562009
11
73.83969247815948
21
46.55526871184163
0
LINE
8
Polygon
10
73.83969247815948
20
46.55526871184163
11
73.8438459834194
21
46.573982518519394
0
LINE
8
Polygon
10
73.8438459834194
20
46.573982518519394
11
73.8470981549933
21
46.59287382727159
0
LINE
8
Polygon
10
73.8470981549933
20
46.59287382727159
11
73.84944152389994
21
46.611899252062756
0
LINE
8
Polygon
10
73.84944152389994
20
46.611899252062756
11
73.85087070832654
21
46.63101509884473
0
LINE
8
Polygon
10
73.85087070832654
20
46.63101509884473
11
73.8513824259888
21
46.65017746590495
0
LINE
8
Polygon
10
73.8513824259888
20
46.65017746590495
11
73.85097550166901
21
46.669342344691806
0
LINE
8
Polygon
10
73.85097550166901
20
46.669342344691806
11
73.84965086991507
21
46.68846572088518
0
LINE
8
Polygon
10
73.84965086991507
20
46.68846572088518
11
73.84741157289422
21
46.70750367548039
0
LINE
8
Polygon
10
73.84741157289422
20
46.70750367548039
11
73.84426275340627
21
46.72641248565314
0
LINE
8
Polygon
10
73.84426275340627
20
46.72641248565314
11
73.84021164307273
21
46.74514872517399
0
LINE
8
Polygon
10
73.84021164307273
20
46.74514872517399
11
73.83526754572844
21
46.763669364141556
0
LINE
8
Polygon
10
73.83526754572844
20
46.763669364141556
11
73.8294418160543
21
46.78193186780564
0
LINE
8
Polygon
10
73.8294418160543
20
46.78193186780564
11
73.82274783349993
21
46.79989429425305
0
LINE
8
Polygon
10
73.82274783349993
20
46.79989429425305
11
73.81520097155634
21
46.81751539073202
0
LINE
8
Polygon
10
73.81520097155634
20
46.81751539073202
11
73.80681856244881
21
46.83475468839378
0
LINE
8
Polygon
10
73.80681856244881
20
46.83475468839378
11
73.79761985733161
21
46.851572595233925
0
LINE
8
Polygon
10
73.79761985733161
20
46.851572595233925
11
73.78762598207545
21
46.86793048701989
0
LINE
8
Polygon
10
73.78762598207545
20
46.86793048701989
11
73.77685988874957
21
46.88379079599592
0
LINE
8
Polygon
10
73.77685988874957
20
46.88379079599592
11
73.76534630290965
21
46.89911709716169
0
LINE
8
Polygon
10
73.76534630290965
20
46.89911709716169
11
73.75311166681283
21
46.913874191926425
0
LINE
8
Polygon
10
73.75311166681283
20
46.913874191926425
11
73.74018407869004
21
46.928028188946485
0
LINE
8
Polygon
10
73.74018407869004
20
46.92802818894648
11
73.6143729575919
21
47.07258364787045
0
LINE
8
Polygon
10
73.6143729575919
20
47.07258364787045
11
73.5029745617629
21
47.228516698579455
0
LINE
8
Polygon
10
73.5029745617629
20
47.228516698579455
11
73.40701165989614
21
47.39439569170998
0
LINE
8
Polygon
10
73.40701165989614
20
47.39439569170998
11
73.32736530464048
21
47.56869766241363
0
LINE
8
Polygon
10
73.32736530464048
20
47.56869766241363
11
73.26476674349792
21
47.74982231297111
0
LINE
8
Polygon
10
73.26476674349792
20
47.74982231297111
11
73.21979070510878
21
47.936106705413174
0
LINE
8
Polygon
10
73.21979070510878
20
47.936106705413174
11
73.19285012256479
21
48.12584052925299
0
LINE
8
Polygon
10
73.19285012256479
20
48.12584052925299
11
73.18419234219616
21
48.317281804154135
0
LINE
8
Polygon
10
73.18419234219616
20
48.317281804154135
11
73.19389685264046
21
48.50867287336512
0
LINE
8
Polygon
10
73.19389685264046
20
48.50867287336512
11
73.22187455504317
21
48.69825654108192
0
LINE
8
Polygon
10
73.22187455504317
20
48.69825654108192
11
73.26786858109028
21
48.88429220557845
0
LINE
8
Polygon
10
73.26786858109028
20
48.88429220557845
11
73.33145665136239
21
49.06507183998387
0
LINE
8
Polygon
10
73.33145665136239
20
49.06507183998387
11
73.41205495235802
21
49.23893567398424
0
LINE
8
Polygon
10
73.41205495235802
20
49.23893567398424
11
73.50892349659027
21
49.404287432472046
0
LINE
8
Polygon
10
73.50892349659027
20
49.404287432472046
11
73.62117291654494
21
49.559608991234924
0
LINE
8
Polygon
10
73.62117291654494
20
49.559608991234924
11
73.74777263012346
21
49.703474315126826
0
LINE
8
Polygon
10
73.74777263012346
20
49.703474315126826
11
73.88756030260247
21
49.83456255075303
0
LINE
8
Polygon
10
73.88756030260247
20
49.83456255075303
11
74.0392525182377
21
49.951670153462516
0
LINE
8
Polygon
10
74.0392525182377
20
49.951670153462516
11
74.20145656353463
21
50.05372193730775
0
LINE
8
Polygon
10
74.20145656353463
20
50.05372193730775
11
74.37268321400144
21
50.13978094652008
0
LINE
8
Polygon
10
74.37268321400144
20
50.13978094652008
11
74.55136040698662
21
50.20905705786903
0
LINE
8
Polygon
10
74.55136040698662
20
50.20905705786903
11
74.73584767506871
21
50.26091423492572
0
LINE
8
Polygon
10
74.73584767506871
20
50.26091423492572
11
74.92445120748268
21
50.294876367627616
0
LINE
8
Polygon
10
74.92445120748268
20
50.294876367627616
11
75.1154394013008
21
50.31063164353055
0
LINE
8
Polygon
10
75.1154394013008
20
50.31063164353055
11
75.30705875959046
21
50.30803541061485
0
LINE
8
Polygon
10
75.30705875959046
20
50.30803541061485
11
75.49754999058453
21
50.28711150536154
0
LINE
8
Polygon
10
75.49754999058453
20
50.28711150536154
11
75.68516416005541
21
50.24805203390527
0
LINE
8
Polygon
10
75.68516416005541
20
50.24805203390527
11
75.86817874859436
21
50.19121560827341
0
LINE
8
Polygon
10
75.86817874859436
20
50.19121560827341
11
76.04491346637187
21
50.11712405390457
0
LINE
8
Polygon
10
76.04491346637187
20
50.11712405390457
11
76.21374568018054
21
50.02645761867546
0
LINE
8
Polygon
10
76.21374568018054
20
50.02645761867546
11
76.37312531112212
21
49.92004872742285
0
LINE
8
Polygon
10
76.37312531112212
20
49.92004872742285
11
76.52158906616062
21
49.79887433930159
0
LINE
8
Polygon
10
76.52158906616062
20
49.79887433930159
11
76.65777387287845
21
49.66404697814699
0
LINE
8
Polygon
10
76.65777387287845
20
49.66404697814699
11
76.78042939408947
21
49.51680451819355
0
LINE
8
Polygon
10
76.78042939408947
20
49.51680451819355
11
76.88842950740926
21
49.35849881892913
0
LINE
8
Polygon
10
76.88842950740926
20
49.35849881892913
11
76.98078264438722
21
49.19058331343002
0
LINE
8
Polygon
10
76.98078264438722
20
49.19058331343002
11
77.05664089427465
21
49.01459966413071
0
LINE
8
Polygon
10
77.05664089427465
20
49.01459966413071
11
77.11530778884577
21
48.83216360854391
0
LINE
8
Polygon
10
77.11530778884577
20
48.83216360854391
11
77.15624469679767
21
48.64495012488414
0
LINE
8
Polygon
10
77.15624469679767
20
48.64495012488414
11
77.17907576902108
21
48.454678053791675
0
LINE
8
Polygon
10
77.17907576902108
20
48.454678053791675
11
77.18359138933864
21
48.263094317347694
0
LINE
8
Polygon
10
77.18359138933864
20
48.263094317347694
11
77.16975009902865
21
48.07195788026873
0
LINE
8
Polygon
10
77.16975009902865
20
48.07195788026873
11
77.13767897746504
21
47.88302360053543
0
LINE
8
Polygon
10
77.13767897746504
20
47.88302360053543
11
77.08767247537884
21
47.69802611772609
0
LINE
8
Polygon
10
77.08767247537884
20
47.69802611772609
11
77.02018971145311
21
47.5186639269789
0
LINE
8
Polygon
10
77.02018971145311
20
47.5186639269789
11
76.9358502570717
21
47.34658378480283
0
LINE
8
Polygon
10
76.93585025707172
20
47.34658378480283
11
76.83542844792316
21
47.18336558991017
0
LINE
8
Polygon
10
76.83542844792316
20
47.18336558991017
11
76.71984627468548
21
47.030507877882464
0
LINE
8
Polygon
10
76.7198462746855
20
47.030507877882464
11
76.70792168219323
21
47.01549913842138
0
LINE
8
Polygon
10
76.70792168219323
20
47.01549913842138
11
76.69672984003795
21
46.999936335476924
0
LINE
8
Polygon
10
76.69672984003795
20
46.999936335476924
11
76.68629645155588
21
46.98385521079303
0
LINE
8
Polygon
10
76.68629645155588
20
46.98385521079303
11
76.67664547820824
21
46.96729269649839
0
LINE
8
Polygon
10
76.67664547820824
20
46.96729269649839
11
76.66779908455112
21
46.950286830287574
0
LINE
8
Polygon
10
76.66779908455112
20
46.950286830287574
11
76.65977758733196
21
46.93287666806318
0
LINE
8
Polygon
10
76.65977758733196
20
46.93287666806318
11
76.65259940882989
21
46.91510219423948
0
LINE
8
Polygon
10
76.65259940882989
20
46.91510219423948
11
76.64628103454682
21
46.89700422991373
0
LINE
8
Polygon
10
76.64628103454682
20
46.89700422991373
11
76.64083697534669
21
46.878624339115845
0
LINE
8
Polygon
10
76.64083697534669
20
46.878624339115845
11
76.63627973412957
21
46.860004733351865
0
LINE
8
Polygon
10
76.63627973412957
20
46.860004733351865
11
76.63261977711736
21
46.84118817466051
0
LINE
8
Polygon
10
76.63261977711736
20
46.8411881746605
11
76.62986550981685
21
46.82221787740521
0
LINE
8
Polygon
10
76.62986550981685
20
46.82221787740521
11
76.62802325771564
21
46.80313740902751
0
LINE
8
Polygon
10
76.62802325771564
20
46.80313740902751
11
76.62709725175485
21
46.783990589989415
0
LINE
8
Polygon
10
76.62709725175485
20
46.783990589989415
11
76.6270896186123
21
46.764821393134774
0
LINE
8
Polygon
10
76.6270896186123
20
46.764821393134774
11
76.62800037581836
21
46.74567384270062
0
LINE
8
Polygon
10
76.62800037581836
20
46.74567384270062
11
76.62982743171571
21
46.72659191321053
0
LINE
8
Polygon
10
76.62982743171571
20
46.72659191321053
11
76.63256659026304
21
46.707619428482126
0
LINE
8
Polygon
10
76.63256659026304
20
46.707619428482126
11
76.63621156067174
21
46.68879996098072
0
LINE
8
Polygon
10
76.63621156067174
20
46.68879996098072
11
76.64075397185343
21
46.670176731750175
0
LINE
8
Polygon
10
76.64075397185343
20
46.670176731750175
11
76.64618339164507
21
46.651792511150894
0
LINE
8
Polygon
10
76.64618339164507
20
46.651792511150894
11
76.65248735076766
21
46.633689520632814
0
LINE
8
Polygon
10
76.65248735076766
20
46.633689520632814
11
76.65965137146331
21
46.61590933576907
0
LINE
8
Polygon
10
76.65965137146331
20
46.61590933576907
11
76.66765900074513
21
46.59849279077295
0
LINE
8
Polygon
10
76.66765900074513
20
46.59849279077295
11
76.67649184818328
21
46.58147988471751
0
LINE
8
Polygon
10
76.67649184818328
20
46.58147988471751
11
76.68612962814073
21
46.56490968967313
0
LINE
8
Polygon
10
76.68612962814073
20
46.56490968967313
11
76.69655020636154
21
46.54882026097411
0
LINE
8
Polygon
10
76.69655020636154
20
46.54882026097411
11
76.7077296508047
21
46.53324854982024
0
LINE
8
Polygon
10
76.7077296508047
20
46.53324854982024
11
76.7196422866067
21
46.5182303184142
0
LINE
8
Polygon
10
76.7196422866067
20
46.5182303184142
11
76.7322607550469
21
46.50380005782956
0
LINE
8
Polygon
10
76.7322607550469
20
46.50380005782956
11
76.74555607637981
21
46.489990908798156
0
LINE
8
Polygon
10
76.74555607637981
20
46.489990908798156
11
76.75949771639046
21
46.47683458559864
0
LINE
8
Polygon
10
76.75949771639046
20
46.47683458559864
11
76.77405365651964
21
46.46436130322098
0
LINE
8
Polygon
10
76.77405365651964
20
46.46436130322098
11
76.78919046739814
21
46.452599707974386
0
LINE
8
Polygon
10
76.78919046739814
20
46.452599707974386
11
76.8048733856212
21
46.441576811697736
0
LINE
8
Polygon
10
76.8048733856212
20
46.441576811697736
11
76.82106639358646
21
46.43131792972387
0
LINE
8
Polygon
10
76.82106639358646
20
46.43131792972387
11
76.8377323022126
21
46.42184662274001
0
LINE
8
Polygon
10
76.8377323022126
20
46.42184662274001
11
76.85483283634821
21
46.41318464267804
0
LINE
8
Polygon
10
76.85483283634821
20
46.41318464267804
11
76.87232872267504
21
46.40535188275863
0
LINE
8
Polygon
10
76.87232872267504
20
46.40535188275863
11
76.89017977990372
21
46.398366331804276
0
LINE
8
Polygon
10
76.89017977990372
20
46.398366331804276
11
76.90834501105445
21
46.39224403292586
0
LINE
8
Polygon
10
76.90834501105445
20
46.39224403292586
11
76.9267826976115
21
46.3869990466779
0
LINE
8
Polygon
10
76.9267826976115
20
46.3869990466779
11
76.94545049533423
21
46.38264341876682
0
LINE
8
Polygon
10
76.94545049533423
20
46.38264341876682
11
76.96430553150567
21
46.37918715238665
0
LINE
8
Polygon
10
76.96430553150567
20
46.37918715238665
11
76.98330450339445
21
46.376638185245554
0
LINE
8
Polygon
10
76.98330450339445
20
46.376638185245554
11
77.00240377770449
21
46.37500237133598
0
LINE
8
Polygon
10
77.00240377770449
20
46.37500237133598
11
77.02155949078382
21
46.374283467490315
0
LINE
8
Polygon
10
77.02155949078382
20
46.374283467490315
11
77.04072764936242
21
46.37448312475285
0
LINE
8
Polygon
10
67.96796246582753
20
46.062443003209054
11
73.46513301416788
21
46.25150749802967
0
LINE
8
Polygon
10
82.53789819770276
20
46.563547619573455
11
77.04072764936242
21
46.37448312475285
0
LINE
8
Polygon
10
73.74018407869004
20
46.928028188946485
11
73.74018407869004
21
46.92802818894648
0
LINE
8
Polygon
10
76.7198462746855
20
47.030507877882464
11
76.7198462746855
21
47.030507877882464
0
ENDSEC
0
EOF
