0
SECTION
2
ENTITIES
0
LINE
8
Polygon
10
-0.725442190897696
20
-0.5916280977377272
11
-0.7259572569200298
21
-0.5910008769974122
0
LINE
8
Polygon
10
-0.7259572569200298
20
-0.5910008769974122
11
-0.726476553254582
21
-0.5903771541572304
0
LINE
8
Polygon
10
-0.726476553254582
20
-0.5903771541572304
11
-0.7270000561471925
21
-0.5897569577481209
0
LINE
8
Polygon
10
-0.7270000561471925
20
-0.5897569577481209
11
-0.727527741651281
21
-0.5891403161397136
0
LINE
8
Polygon
10
-0.727527741651281
20
-0.5891403161397136
11
-0.7280595856289414
21
-0.5885272575390316
0
LINE
8
Polygon
10
-0.7280595856289414
20
-0.5885272575390316
11
-0.728595563752047
21
-0.5879178099891997
0
LINE
8
Polygon
10
-0.728595563752047
20
-0.5879178099891997
11
-0.7291356515033633
21
-0.5873120013681633
0
LINE
8
Polygon
10
-0.7291356515033633
20
-0.5873120013681633
11
-0.7296798241776687
21
-0.5867098593874118
0
LINE
8
Polygon
10
-0.7296798241776687
20
-0.5867098593874118
11
-0.7302280568828854
21
-0.5861114115907121
0
LINE
8
Polygon
10
-0.7302280568828854
20
-0.5861114115907121
11
-0.7307803245412173
21
-0.5855166853528475
0
LINE
8
Polygon
10
-0.7307803245412173
20
-0.5855166853528475
11
-0.7313366018902979
21
-0.5849257078783666
0
LINE
8
Polygon
10
-0.7313366018902979
20
-0.5849257078783666
11
-0.7318968634843455
21
-0.5843385062003383
0
LINE
8
Polygon
10
-0.7318968634843454
20
-0.5843385062003383
11
-0.7324610836953267
21
-0.5837551071791152
0
LINE
8
Polygon
10
-0.7324610836953267
20
-0.5837551071791152
11
-0.7330292367141299
21
-0.583175537501105
0
LINE
8
Polygon
10
-0.7330292367141299
20
-0.583175537501105
11
-0.7336012965517447
21
-0.5825998236775501
0
LINE
8
Polygon
10
-0.7336012965517447
20
-0.5825998236775501
11
-0.7341772370404512
21
-0.5820279920433147
0
LINE
8
Polygon
10
-0.7341772370404511
20
-0.5820279920433147
11
-0.7347570318350171
21
-0.5814600687556796
0
LINE
8
Polygon
10
-0.7347570318350171
20
-0.5814600687556796
11
-0.7353406544139026
21
-0.5808960797931466
0
LINE
8
Polygon
10
-0.7353406544139026
20
-0.5808960797931466
11
-0.7359280780804738
21
-0.5803360509542498
0
LINE
8
Polygon
10
-0.7359280780804738
20
-0.5803360509542498
11
-0.7365192759642234
21
-0.5797800078563753
0
LINE
8
Polygon
10
-0.7365192759642234
20
-0.5797800078563753
11
-0.7371142210220004
21
-0.5792279759345894
0
LINE
8
Polygon
10
-0.7371142210220004
20
-0.5792279759345894
11
-0.7377128860392471
21
-0.5786799804404756
0
LINE
8
Polygon
10
-0.7377128860392471
20
-0.5786799804404756
11
-0.7383152436312433
21
-0.578136046440979
0
LINE
8
Polygon
10
-0.7383152436312433
20
-0.578136046440979
11
-0.73892126624436
21
-0.5775961988172599
0
LINE
8
Polygon
10
-0.73892126624436
20
-0.5775961988172599
11
-0.7395309261573187
21
-0.5770604622635553
0
LINE
8
Polygon
10
-0.7395309261573187
20
-0.5770604622635553
11
-0.7401441954824602
21
-0.5765288612860503
0
LINE
8
Polygon
10
-0.7401441954824602
20
-0.5765288612860503
11
-0.7407610461670203
21
-0.5760014202017558
0
LINE
8
Polygon
10
-0.7407610461670203
20
-0.5760014202017558
11
-0.7413814499944122
21
-0.575478163137397
0
LINE
8
Polygon
10
-0.7413814499944122
20
-0.575478163137397
11
-0.7420053785855183
21
-0.5749591140283097
0
LINE
8
Polygon
10
-0.7420053785855183
20
-0.5749591140283097
11
-0.7426328033999874
21
-0.5744442966173451
0
LINE
8
Polygon
10
-0.7426328033999874
20
-0.5744442966173451
11
-0.743263695737541
21
-0.573933734453784
0
LINE
8
Polygon
10
-0.743263695737541
20
-0.573933734453784
11
-0.7438980267392856
21
-0.5734274508922598
0
LINE
8
Polygon
10
-0.7438980267392856
20
-0.5734274508922598
11
-0.7445357673890329
21
-0.5729254690916894
0
LINE
8
Polygon
10
-0.7445357673890329
20
-0.5729254690916894
11
-0.7451768885146273
21
-0.5724278120142148
0
LINE
8
Polygon
10
-0.7451768885146273
20
-0.5724278120142148
11
-0.74582136078928
21
-0.571934502424152
0
LINE
8
Polygon
10
-0.74582136078928
20
-0.571934502424152
11
-0.7464691547329106
21
-0.5714455628869499
0
LINE
8
Polygon
10
-0.7464691547329106
20
-0.5714455628869499
11
-0.7471202407134963
21
-0.5709610157681587
0
LINE
8
Polygon
10
-0.7471202407134963
20
-0.5709610157681587
11
-0.7477745889484257
21
-0.5704808832324059
0
LINE
8
Polygon
10
-0.7477745889484257
20
-0.5704808832324059
11
-0.7484321695058632
21
-0.5700051872423826
0
LINE
8
Polygon
10
-0.7484321695058632
20
-0.5700051872423826
11
-0.7490929523061165
21
-0.5695339495578396
0
LINE
8
Polygon
10
-0.7490929523061165
20
-0.5695339495578396
11
-0.7497569071230133
21
-0.5690671917345914
0
LINE
8
Polygon
10
-0.7497569071230133
20
-0.5690671917345914
11
-0.750424003585284
21
-0.5686049351235302
0
LINE
8
Polygon
10
-0.750424003585284
20
-0.5686049351235302
11
-0.7510942111779507
21
-0.5681472008696492
0
LINE
8
Polygon
10
-0.7510942111779507
20
-0.5681472008696492
11
-0.751767499243723
21
-0.5676940099110759
0
LINE
8
Polygon
10
-0.751767499243723
20
-0.5676940099110759
11
-0.7524438369844006
21
-0.5672453829781137
0
LINE
8
Polygon
10
-0.7524438369844005
20
-0.5672453829781137
11
-0.753123193462282
21
-0.5668013405922939
0
LINE
8
Polygon
10
-0.753123193462282
20
-0.5668013405922939
11
-0.7538055376015796
21
-0.5663619030654371
0
LINE
8
Polygon
10
-0.7544908381898415
20
-0.5659270904987238
11
-0.7546457672875255
21
-0.5658244207512768
0
LINE
8
Polygon
10
-0.7546457672875255
20
-0.5658244207512768
11
-0.7547957598653326
21
-0.5657146649817121
0
LINE
8
Polygon
10
-0.7547957598653326
20
-0.5657146649817121
11
-0.754940492088328
21
-0.565598060153438
0
LINE
8
Polygon
10
-0.754940492088328
20
-0.565598060153438
11
-0.7550796514787164
21
-0.5654748580170251
0
LINE
8
Polygon
10
-0.7550796514787164
20
-0.5654748580170251
11
-0.7552129375904837
21
-0.5653453245666736
0
LINE
8
Polygon
10
-0.7552129375904837
20
-0.5653453245666736
11
-0.7553400626580619
21
-0.5652097394659317
0
LINE
8
Polygon
10
-0.7553400626580619
20
-0.5652097394659317
11
-0.7554607522176171
21
-0.565068395443899
0
LINE
8
Polygon
10
-0.7554607522176171
20
-0.565068395443899
11
-0.755574745699618
21
-0.5649215976632234
0
LINE
8
Polygon
10
-0.755574745699618
20
-0.5649215976632234
11
-0.7556817969914078
21
-0.5647696630612523
0
LINE
8
Polygon
10
-0.7556817969914078
20
-0.5647696630612523
11
-0.7557816749685629
21
-0.5646129196657633
0
LINE
8
Polygon
10
-0.7557816749685629
20
-0.5646129196657633
11
-0.7558741639938915
21
-0.5644517058867501
0
LINE
8
Polygon
10
-0.7558741639938915
20
-0.5644517058867501
11
-0.7559590643829963
21
-0.5642863697857926
0
LINE
8
Polygon
10
-0.7559590643829963
20
-0.5642863697857926
11
-0.7560361928353944
21
-0.5641172683245904
0
LINE
8
Polygon
10
-0.7560361928353944
20
-0.5641172683245904
11
-0.7561053828302633
21
-0.5639447665942803
0
LINE
8
Polygon
10
-0.7561053828302633
20
-0.5639447665942803
11
-0.7561664849859616
21
-0.563769237027201
0
LINE
8
Polygon
10
-0.7561664849859616
20
-0.563769237027201
11
-0.7562193673825445
21
-0.5635910585928111
0
LINE
8
Polygon
10
-0.7562193673825445
20
-0.5635910585928111
11
-0.7562639158465793
21
-0.56341061597949
0
LINE
8
Polygon
10
-0.7562639158465793
20
-0.56341061597949
11
-0.7563000341976471
21
-0.5632282987639944
0
LINE
8
Polygon
10
-0.7563000341976471
20
-0.5632282987639944
11
-0.7563276444559971
21
-0.5630445005703584
0
LINE
8
Polygon
10
-0.7563276444559971
20
-0.5630445005703584
11
-0.7563466870109048
21
-0.562859618220058
0
LINE
8
Polygon
10
-0.7563466870109048
20
-0.562859618220058
11
-0.7563571207493723
21
-0.5626740508752703
0
LINE
8
Polygon
10
-0.7563571207493723
20
-0.5626740508752703
11
-0.7563589231448916
21
-0.5624881991770796
0
LINE
8
Polygon
10
-0.7563589231448916
20
-0.5624881991770796
11
-0.7563520903060792
21
-0.5623024643804911
0
LINE
8
Polygon
10
-0.7563520903060792
20
-0.5623024643804911
11
-0.7563366369850778
21
-0.562117247488119
0
LINE
8
Polygon
10
-0.7563366369850778
20
-0.562117247488119
11
-0.7563125965457064
21
-0.5619329483844184
0
LINE
8
Polygon
10
-0.7563125965457064
20
-0.5619329483844184
11
-0.7562800208914272
21
-0.5617499649723334
0
LINE
8
Polygon
10
-0.7562800208914272
20
-0.5617499649723334
11
-0.7562389803532863
21
-0.5615686923142211
0
LINE
8
Polygon
10
-0.7562389803532863
20
-0.5615686923142211
11
-0.756189563538068
21
-0.5613895217789101
0
LINE
8
Polygon
10
-0.756189563538068
20
-0.5613895217789101
11
-0.7561318771369926
21
-0.561212840196732
0
LINE
8
Polygon
10
-0.7561318771369926
20
-0.561212840196732
11
-0.7560660456953688
21
-0.5610390290243531
0
LINE
8
Polygon
10
-0.7560660456953688
20
-0.5610390290243531
11
-0.7559922113437004
21
-0.5608684635212063
0
LINE
8
Polygon
10
-0.7559922113437004
20
-0.5608684635212063
11
-0.7559105334908249
21
-0.5607015119393042
0
LINE
8
Polygon
10
-0.7559105334908249
20
-0.5607015119393042
11
-0.7558211884797491
21
-0.5605385347281799
0
LINE
8
Polygon
10
-0.7558211884797491
20
-0.5605385347281799
11
-0.7557243692069235
21
-0.5603798837566748
0
LINE
8
Polygon
10
-0.7557243692069235
20
-0.5603798837566748
11
-0.7556202847057775
21
-0.5602259015532514
0
LINE
8
Polygon
10
-0.7556202847057775
20
-0.5602259015532514
11
-0.7555091596954147
21
-0.5600769205664715
0
LINE
8
Polygon
10
-0.7555091596954147
20
-0.5600769205664715
11
-0.7553912340954435
21
-0.5599332624472391
0
LINE
8
Polygon
10
-0.7553912340954435
20
-0.5599332624472391
11
-0.7552667625079886
21
-0.5597952373543522
0
LINE
8
Polygon
10
-0.7552667625079886
20
-0.5597952373543522
11
-0.7551360136680034
21
-0.5596631432848693
0
LINE
8
Polygon
10
-0.7551360136680034
20
-0.5596631432848693
11
-0.75499926986307
21
-0.5595372654307317
0
LINE
8
Polygon
10
-0.75499926986307
20
-0.5595372654307317
11
-0.7548568263239378
21
-0.5594178755630314
0
LINE
8
Polygon
10
-0.7548568263239378
20
-0.5594178755630314
11
-0.7547089905871192
21
-0.5593052314452566
0
LINE
8
Polygon
10
-0.7547089905871192
20
-0.5593052314452566
11
-0.7545560818309154
21
-0.5591995762767781
0
LINE
8
Polygon
10
-0.7545560818309154
20
-0.5591995762767781
11
-0.7543984301863094
21
-0.5591011381677806
0
LINE
8
Polygon
10
-0.7543984301863094
20
-0.5591011381677806
11
-0.7542363760242103
21
-0.559010129646771
0
LINE
8
Polygon
10
-0.7542363760242103
20
-0.559010129646771
11
-0.7540702692205907
21
-0.5589267472017285
0
LINE
8
Polygon
10
-0.7540702692205907
20
-0.5589267472017285
11
-0.7539004684011023
21
-0.5588511708558852
0
LINE
8
Polygon
10
-0.7537273401668004
20
-0.5587835637790551
11
-0.7519104860050434
21
-0.5580189246067297
0
LINE
8
Polygon
10
-0.7519104860050434
20
-0.5580189246067297
11
-0.7501777276738402
21
-0.557079147678627
0
LINE
8
Polygon
10
-0.7501777276738402
20
-0.557079147678627
11
-0.7485458973267126
21
-0.5559733620632646
0
LINE
8
Polygon
10
-0.7485458973267126
20
-0.5559733620632646
11
-0.7470308466946436
21
-0.5547123094508745
0
LINE
8
Polygon
10
-0.7470308466946436
20
-0.5547123094508746
11
-0.7456472931010899
21
-0.5533082398077609
0
LINE
8
Polygon
10
-0.7456472931010899
20
-0.5533082398077609
11
-0.7444086764967204
21
-0.5517747923791451
0
LINE
8
Polygon
10
-0.7444086764967204
20
-0.5517747923791451
11
-0.7433270289026566
21
-0.550126863196442
0
LINE
8
Polygon
10
-0.7433270289026566
20
-0.550126863196442
11
-0.7424128575304535
21
-0.5483804603760156
0
LINE
8
Polygon
10
-0.7424128575304535
20
-0.5483804603760156
11
-0.7416750427142036
21
-0.5465525486150515
0
LINE
8
Polygon
10
-0.7416750427142036
20
-0.5465525486150515
11
-0.741120751646258
21
-0.5446608843951266
0
LINE
8
Polygon
10
-0.741120751646258
20
-0.5446608843951266
11
-0.7407553687545451
21
-0.5427238434943215
0
LINE
8
Polygon
10
-0.7407553687545451
20
-0.5427238434943215
11
-0.740582443397805
21
-0.5407602424834375
0
LINE
8
Polygon
10
-0.740582443397805
20
-0.5407602424834375
11
-0.7406036553868341
21
-0.5387891559403171
0
LINE
8
Polygon
10
-0.7406036553868341
20
-0.5387891559403171
11
-0.7408187986666686
21
-0.5368297311578641
0
LINE
8
Polygon
10
-0.7408187986666686
20
-0.5368297311578641
11
-0.7412257833182179
21
-0.5349010021457031
0
LINE
8
Polygon
10
-0.7412257833182179
20
-0.5349010021457031
11
-0.7418206558599071
21
-0.5330217047322816
0
LINE
8
Polygon
10
-0.7418206558599071
20
-0.5330217047322816
11
-0.7425976376521146
21
-0.5312100945635293
0
LINE
8
Polygon
10
-0.7425976376521146
20
-0.5312100945635293
11
-0.7435491810313407
21
-0.5294837697660478
0
LINE
8
Polygon
10
-0.7435491810313407
20
-0.5294837697660478
11
-0.744666042628817
21
-0.527859499997496
0
LINE
8
Polygon
10
-0.744666042628817
20
-0.527859499997496
11
-0.7459373731613322
21
-0.5263530635447895
0
LINE
8
Polygon
10
-0.7459373731613322
20
-0.5263530635447895
11
-0.7473508228220411
21
-0.5249790940525553
0
LINE
8
Polygon
10
-0.7473508228220411
20
-0.5249790940525553
11
-0.7488926612474784
21
-0.5237509383707325
0
LINE
8
Polygon
10
-0.7488926612474784
20
-0.5237509383707325
11
-0.7505479108954125
21
-0.5226805269022015
0
LINE
8
Polygon
10
-0.7505479108954125
20
-0.5226805269022015
11
-0.7523004925378924
21
-0.521778257709892
0
LINE
8
Polygon
10
-0.7523004925378924
20
-0.521778257709892
11
-0.7541333814561594
21
-0.5210528955091653
0
LINE
8
Polygon
10
-0.7541333814561594
20
-0.5210528955091653
11
-0.7560287728201308
21
-0.520511486526666
0
LINE
8
Polygon
10
-0.7560287728201308
20
-0.520511486526666
11
-0.7579682546459496
21
-0.5201592900527101
0
LINE
8
Polygon
10
-0.7579682546459496
20
-0.5201592900527101
11
-0.7599329866514731
21
-0.5199997273521174
0
LINE
8
Polygon
10
-0.7599329866514731
20
-0.5199997273521174
11
-0.7619038832722858
21
-0.5200343484297698
0
LINE
8
Polygon
10
-0.7619038832722858
20
-0.5200343484297698
11
-0.7638617990604045
21
-0.52026281697374
0
LINE
8
Polygon
10
-0.7638617990604045
20
-0.52026281697374
11
-0.7657877146646971
21
-0.5206829136222519
0
LINE
8
Polygon
10
-0.7657877146646971
20
-0.5206829136222519
11
-0.7676629215863855
21
-0.5212905575227401
0
LINE
8
Polygon
10
-0.7676629215863855
20
-0.5212905575227401
11
-0.7694692039149051
21
-0.522079845973578
0
LINE
8
Polygon
10
-0.7694692039149051
20
-0.522079845973578
11
-0.7711890152787223
21
-0.5230431117633961
0
LINE
8
Polygon
10
-0.7711890152787223
20
-0.5230431117633961
11
-0.7728056492921955
21
-0.5241709976509885
0
LINE
8
Polygon
10
-0.7728056492921955
20
-0.5241709976509885
11
-0.7743034018427468
21
-0.5254525472623052
0
LINE
8
Polygon
10
-0.7743034018427468
20
-0.5254525472623052
11
-0.775667723641872
21
-0.5268753115215485
0
LINE
8
Polygon
10
-0.775667723641872
20
-0.5268753115215485
11
-0.776885361558097
21
-0.5284254695824958
0
LINE
8
Polygon
10
-0.776885361558097
20
-0.5284254695824958
11
-0.7779444873589609
21
-0.530087963085308
0
LINE
8
Polygon
10
-0.7779444873589609
20
-0.530087963085308
11
-0.7788348126114157
21
-0.5318466424346466
0
LINE
8
Polygon
10
-0.7788348126114157
20
-0.5318466424346465
11
-0.7795476886244904
21
-0.5336844236781386
0
LINE
8
Polygon
10
-0.7795476886244904
20
-0.5336844236781386
11
-0.7800761904633698
21
-0.5355834544612619
0
LINE
8
Polygon
10
-0.7800761904633698
20
-0.5355834544612619
11
-0.780415184218767
21
-0.5375252874465494
0
LINE
8
Polygon
10
-0.780415184218767
20
-0.5375252874465493
11
-0.7805613768781301
21
-0.5394910595125063
0
LINE
8
Polygon
10
-0.7805613768781301
20
-0.5394910595125063
11
-0.7805133483142309
21
-0.541461674991487
0
LINE
8
Polygon
10
-0.7805133483142309
20
-0.541461674991487
11
-0.7802715650803944
21
-0.5434179911665427
0
LINE
8
Polygon
10
-0.7802715650803944
20
-0.5434179911665427
11
-0.7798383758783627
21
-0.5453410042253105
0
LINE
8
Polygon
10
-0.7792179887428176
20
-0.5472120338645728
11
-0.7791549157819428
21
-0.5473868649372016
0
LINE
8
Polygon
10
-0.7791549157819428
20
-0.5473868649372016
11
-0.7791000322608134
21
-0.5475644371801294
0
LINE
8
Polygon
10
-0.7791000322608134
20
-0.5475644371801294
11
-0.7790534566733023
21
-0.5477443672137479
0
LINE
8
Polygon
10
-0.7790534566733023
20
-0.5477443672137479
11
-0.7790152895764008
21
-0.5479262665679636
0
LINE
8
Polygon
10
-0.7790152895764008
20
-0.5479262665679636
11
-0.7789856133731154
21
-0.5481097425209072
0
LINE
8
Polygon
10
-0.7789856133731154
20
-0.5481097425209072
11
-0.7789644921345588
21
-0.5482943989468225
0
LINE
8
Polygon
10
-0.7789644921345588
20
-0.5482943989468225
11
-0.7789519714616202
21
-0.5484798371713049
0
LINE
8
Polygon
10
-0.7789519714616202
20
-0.5484798371713049
11
-0.7789480783865124
21
-0.5486656568320413
0
LINE
8
Polygon
10
-0.7789480783865124
20
-0.5486656568320413
11
-0.7789528213144097
21
-0.5488514567431956
0
LINE
8
Polygon
10
-0.7789528213144097
20
-0.5488514567431956
11
-0.7789661900053002
21
-0.549036835761571
0
LINE
8
Polygon
10
-0.7789661900053002
20
-0.549036835761571
11
-0.7789881555960949
21
-0.5492213936526812
0
LINE
8
Polygon
10
-0.7789881555960949
20
-0.5492213936526812
11
-0.7790186706629426
21
-0.5494047319548585
0
LINE
8
Polygon
10
-0.7790186706629426
20
-0.5494047319548585
11
-0.7790576693236191
21
-0.5495864548395358
0
LINE
8
Polygon
10
-0.7790576693236191
20
-0.5495864548395358
11
-0.7791050673797661
21
-0.5497661699658426
0
LINE
8
Polygon
10
-0.7791050673797661
20
-0.5497661699658426
11
-0.7791607624986776
21
-0.5499434893276716
0
LINE
8
Polygon
10
-0.7791607624986776
20
-0.5499434893276716
11
-0.7792246344342353
21
-0.5501180300913862
0
LINE
8
Polygon
10
-0.7792246344342353
20
-0.5501180300913862
11
-0.7792965452865218
21
-0.5502894154223612
0
LINE
8
Polygon
10
-0.7792965452865218
20
-0.5502894154223612
11
-0.7793763397995471
21
-0.5504572752985706
0
LINE
8
Polygon
10
-0.7793763397995471
20
-0.5504572752985706
11
-0.7794638456964471
21
-0.5506212473094679
0
LINE
8
Polygon
10
-0.7794638456964471
20
-0.5506212473094679
11
-0.7795588740514307
21
-0.5507809774384328
0
LINE
8
Polygon
10
-0.7795588740514307
20
-0.5507809774384328
11
-0.7796612196976714
21
-0.5509361208270948
0
LINE
8
Polygon
10
-0.7796612196976714
20
-0.5509361208270948
11
-0.7797706616702644
21
-0.5510863425198855
0
LINE
8
Polygon
10
-0.7797706616702644
20
-0.5510863425198855
11
-0.7798869636832909
21
-0.5512313181872094
0
LINE
8
Polygon
10
-0.7798869636832909
20
-0.5512313181872094
11
-0.7800098746399606
21
-0.5513707348256731
0
LINE
8
Polygon
10
-0.7800098746399606
20
-0.5513707348256731
11
-0.780139129174732
21
-0.5515042914338624
0
LINE
8
Polygon
10
-0.780139129174732
20
-0.5515042914338624
11
-0.7802744482262376
21
-0.5516316996622058
0
LINE
8
Polygon
10
-0.7802744482262376
20
-0.5516316996622058
11
-0.7804155396397795
21
-0.5517526844355235
0
LINE
8
Polygon
10
-0.7804155396397795
20
-0.5517526844355235
11
-0.7805620987980935
21
-0.5518669845469157
0
LINE
8
Polygon
10
-0.7805620987980935
20
-0.5518669845469157
11
-0.7807138092790191
21
-0.5519743532217111
0
LINE
8
Polygon
10
-0.7807138092790191
20
-0.5519743532217111
11
-0.7808703435386576
21
-0.5520745586502537
0
LINE
8
Polygon
10
-0.7808703435386576
20
-0.5520745586502537
11
-0.7810313636185412
21
-0.5521673844883823
0
LINE
8
Polygon
10
-0.7810313636185412
20
-0.5521673844883823
11
-0.7811965218752872
21
-0.5522526303245188
0
LINE
8
Polygon
10
-0.7811965218752872
20
-0.5522526303245188
11
-0.781365461731163
21
-0.5523301121123574
0
LINE
8
Polygon
10
-0.781365461731163
20
-0.5523301121123574
11
-0.7815378184439388
21
-0.5523996625682227
0
LINE
8
Polygon
10
-0.7815378184439388
20
-0.5523996625682227
11
-0.7817132198943695
21
-0.5524611315322355
0
LINE
8
Polygon
10
-0.7817132198943695
20
-0.5524611315322355
11
-0.7818912873896013
21
-0.5525143862925094
0
LINE
8
Polygon
10
-0.7818912873896013
20
-0.5525143862925094
11
-0.7820716364807733
21
-0.5525593118716761
0
LINE
8
Polygon
10
-0.7820716364807733
20
-0.5525593118716761
11
-0.7822538777930436
21
-0.5525958112751229
0
LINE
8
Polygon
10
-0.7822538777930436
20
-0.5525958112751229
11
-0.7824376178662534
21
-0.5526238057004044
0
LINE
8
Polygon
10
-0.7824376178662534
20
-0.5526238057004044
11
-0.7826224600044093
21
-0.5526432347073771
0
LINE
8
Polygon
10
-0.7826224600044093
20
-0.5526432347073771
11
-0.7828080051321525
21
-0.5526540563486908
0
LINE
8
Polygon
10
-0.7828080051321525
20
-0.5526540563486908
11
-0.7829938526563655
21
-0.5526562472603528
0
LINE
8
Polygon
10
-0.7829938526563655
20
-0.5526562472603528
11
-0.7831796013310545
21
-0.5526498027121706
0
LINE
8
Polygon
10
-0.7831796013310545
20
-0.5526498027121706
11
-0.7833648501236427
21
-0.5526347366179649
0
LINE
8
Polygon
10
-0.7833648501236427
20
-0.5526347366179649
11
-0.7835491990808018
21
-0.5526110815055297
0
LINE
8
Polygon
10
-0.7835491990808018
20
-0.5526110815055297
11
-0.7837322501919541
21
-0.552578888446404
0
LINE
8
Polygon
10
-0.7837322501919541
20
-0.552578888446404
11
-0.7839136082485798
21
-0.5525382269456083
0
LINE
8
Polygon
10
-0.7840928816974744
20
-0.5524891847915829
11
-0.7848713151571033
21
-0.5522595324165156
0
LINE
8
Polygon
10
-0.7848713151571033
20
-0.5522595324165156
11
-0.7856512840245576
21
-0.5520351500860038
0
LINE
8
Polygon
10
-0.7856512840245576
20
-0.5520351500860038
11
-0.7864327526217396
21
-0.5518160480639631
0
LINE
8
Polygon
10
-0.7864327526217396
20
-0.5518160480639631
11
-0.7872156852019495
21
-0.5516022363727723
0
LINE
8
Polygon
10
-0.7872156852019495
20
-0.5516022363727723
11
-0.7880000459515204
21
-0.5513937247928145
0
LINE
8
Polygon
10
-0.7880000459515204
20
-0.5513937247928145
11
-0.788785798991457
21
-0.5511905228620302
0
LINE
8
Polygon
10
-0.788785798991457
20
-0.5511905228620302
11
-0.789572908379076
21
-0.5509926398754805
0
LINE
8
Polygon
10
-0.789572908379076
20
-0.5509926398754805
11
-0.7903613381096514
21
-0.5508000848849223
0
LINE
8
Polygon
10
-0.7903613381096514
20
-0.5508000848849223
11
-0.7911510521180601
21
-0.5506128666983938
0
LINE
8
Polygon
10
-0.7911510521180601
20
-0.5506128666983938
11
-0.7919420142804328
21
-0.5504309938798125
0
LINE
8
Polygon
10
-0.7919420142804328
20
-0.5504309938798125
11
-0.7927341884158056
21
-0.5502544747485824
0
LINE
8
Polygon
10
-0.7927341884158056
20
-0.5502544747485824
11
-0.7935275382877756
21
-0.5500833173792139
0
LINE
8
Polygon
10
-0.7935275382877756
20
-0.5500833173792139
11
-0.794322027606158
21
-0.5499175296009545
0
LINE
8
Polygon
10
-0.794322027606158
20
-0.5499175296009545
11
-0.7951176200286465
21
-0.5497571189974308
0
LINE
8
Polygon
10
-0.7951176200286465
20
-0.5497571189974308
11
-0.7959142791624755
21
-0.5496020929063015
0
LINE
8
Polygon
10
-0.7959142791624755
20
-0.5496020929063015
11
-0.7967119685660846
21
-0.5494524584189211
0
LINE
8
Polygon
10
-0.7967119685660846
20
-0.5494524584189211
11
-0.7975106517507863
21
-0.5493082223800166
0
LINE
8
Polygon
10
-0.7975106517507863
20
-0.5493082223800166
11
-0.798310292182434
21
-0.5491693913873739
0
LINE
8
Polygon
10
-0.798310292182434
20
-0.5491693913873739
11
-0.7991108532830942
21
-0.5490359717915356
0
LINE
8
Polygon
10
-0.7991108532830942
20
-0.5490359717915356
11
-0.7999122984327192
21
-0.5489079696955115
0
LINE
8
Polygon
10
-0.7999122984327192
20
-0.5489079696955115
11
-0.800714590970822
21
-0.5487853909544982
0
LINE
8
Polygon
10
-0.8007145909708221
20
-0.5487853909544982
11
-0.801517694198154
21
-0.5486682411756123
0
LINE
8
Polygon
10
-0.801517694198154
20
-0.5486682411756123
11
-0.8023215713783827
21
-0.5485565257176335
0
LINE
8
Polygon
10
-0.8023215713783827
20
-0.5485565257176335
11
-0.8031261857397731
21
-0.5484502496907592
0
LINE
8
Polygon
10
-0.8031261857397731
20
-0.5484502496907592
11
-0.8039315004768693
21
-0.5483494179563714
0
LINE
8
Polygon
10
-0.8039315004768693
20
-0.5483494179563714
11
-0.804737478752178
21
-0.5482540351268136
0
LINE
8
Polygon
10
-0.804737478752178
20
-0.5482540351268136
11
-0.8055440836978537
21
-0.5481641055651806
0
LINE
8
Polygon
10
-0.8055440836978537
20
-0.5481641055651806
11
-0.8063512784173851
21
-0.548079633385118
0
LINE
8
Polygon
10
-0.8063512784173851
20
-0.548079633385118
11
-0.8071590259872831
21
-0.5480006224506349
0
LINE
8
Polygon
10
-0.8071590259872831
20
-0.5480006224506349
11
-0.8079672894587693
21
-0.5479270763759265
0
LINE
8
Polygon
10
-0.8079672894587693
20
-0.5479270763759265
11
-0.8087760318594666
21
-0.5478589985252094
0
LINE
8
Polygon
10
-0.8087760318594666
20
-0.5478589985252094
11
-0.8095852161950903
21
-0.547796392012567
0
LINE
8
Polygon
10
-0.8095852161950903
20
-0.547796392012567
11
-0.8103948054511401
21
-0.5477392597018075
0
LINE
8
Polygon
10
-0.8103948054511401
20
-0.5477392597018075
11
-0.8112047625945935
21
-0.547687604206333
0
LINE
8
Polygon
10
-0.8112047625945935
20
-0.547687604206333
11
-0.8120150505755998
21
-0.5476414278890195
0
LINE
8
Polygon
10
-0.8120150505755998
20
-0.5476414278890195
11
-0.8128256323291748
21
-0.5476007328621092
0
LINE
8
Polygon
10
-0.8128256323291748
20
-0.5476007328621092
11
-0.8136364707768962
21
-0.547565520987114
0
LINE
8
Polygon
10
-0.8136364707768962
20
-0.547565520987114
11
-0.8144475288285998
21
-0.5475357938747295
0
LINE
8
Polygon
10
-0.8144475288285998
20
-0.5475357938747295
11
-0.815258769384076
21
-0.5475115528847626
0
LINE
8
Polygon
10
-0.815258769384076
20
-0.5475115528847626
11
-0.816070155334767
21
-0.5474927991260683
0
LINE
8
Polygon
10
-0.816070155334767
20
-0.5474927991260683
11
-0.8168816495654643
21
-0.5474795334564991
0
LINE
8
Polygon
10
-0.8168816495654643
20
-0.5474795334564991
11
-0.8176932149560059
21
-0.5474717564828666
0
LINE
8
Polygon
10
-0.817693214956006
20
-0.5474717564828666
11
-0.8185048143829754
21
-0.5474694685609125
0
LINE
8
Polygon
10
-0.8185048143829754
20
-0.5474694685609125
11
-0.8193164107213988
21
-0.5474726697952932
0
LINE
8
Polygon
10
-0.8193164107213988
20
-0.5474726697952932
11
-0.820127966846444
21
-0.5474813600395747
0
LINE
8
Polygon
10
-0.820127966846444
20
-0.5474813600395747
11
-0.8209394456351179
21
-0.5474955388962393
0
LINE
8
Polygon
10
-0.8209394456351179
20
-0.5474955388962393
11
-0.8217508099679651
21
-0.547515205716704
0
LINE
8
Polygon
10
-0.6796796246582752
20
-0.4606244300320906
11
-0.6796624529618079
21
-0.46109664211752227
0
LINE
8
Polygon
10
-0.6796624529618079
20
-0.46109664211752227
11
-0.6796434219717515
21
-0.4615687829251261
0
LINE
8
Polygon
10
-0.6796434219717515
20
-0.4615687829251261
11
-0.6796225319831909
21
-0.46204084513412536
0
LINE
8
Polygon
10
-0.6796225319831909
20
-0.46204084513412536
11
-0.6795997833200358
21
-0.4625128214249621
0
LINE
8
Polygon
10
-0.6795997833200358
20
-0.46251282142496203
11
-0.6795751763350153
21
-0.4629847044794104
0
LINE
8
Polygon
10
-0.6795751763350153
20
-0.4629847044794104
11
-0.679548711409673
21
-0.46345648698069036
0
LINE
8
Polygon
10
-0.679548711409673
20
-0.46345648698069036
11
-0.6795203889543607
21
-0.4639281616135809
0
LINE
8
Polygon
10
-0.6795203889543607
20
-0.46392816161358086
11
-0.679490209408232
21
-0.46439972106453353
0
LINE
8
Polygon
10
-0.679490209408232
20
-0.46439972106453353
11
-0.6794581732392356
21
-0.4648711580217859
0
LINE
8
Polygon
10
-0.6794581732392356
20
-0.4648711580217859
11
-0.6794242809441083
21
-0.46534246517547484
0
LINE
8
Polygon
10
-0.6794242809441083
20
-0.4653424651754748
11
-0.6793885330483669
21
-0.46581363521774977
0
LINE
8
Polygon
10
-0.6793885330483669
20
-0.46581363521774977
11
-0.6793509301063001
21
-0.4662846608428863
0
LINE
8
Polygon
10
-0.6793509301063001
20
-0.4662846608428863
11
-0.6793114727009602
21
-0.4667555347473991
0
LINE
8
Polygon
10
-0.6793114727009602
20
-0.46675553474739906
11
-0.6792701614441535
21
-0.4672262496301555
0
LINE
8
Polygon
10
-0.6792701614441535
20
-0.4672262496301555
11
-0.6792269969764319
21
-0.4676967981924885
0
LINE
8
Polygon
10
-0.6792269969764319
20
-0.46769679819248844
11
-0.6791819799670815
21
-0.46816717313830986
0
LINE
8
Polygon
10
-0.6791819799670815
20
-0.46816717313830986
11
-0.6791351111141134
21
-0.4686373671742235
0
LINE
8
Polygon
10
-0.6791351111141134
20
-0.4686373671742235
11
-0.6790863911442524
21
-0.46910737300963845
0
LINE
8
Polygon
10
-0.6790863911442524
20
-0.4691073730096384
11
-0.6790358208129257
21
-0.46957718335688164
0
LINE
8
Polygon
10
-0.6790358208129257
20
-0.46957718335688164
11
-0.6789834009042511
21
-0.4700467909313115
0
LINE
8
Polygon
10
-0.6789834009042511
20
-0.47004679093131146
11
-0.6789291322310255
21
-0.47051618845143023
0
LINE
8
Polygon
10
-0.6789291322310255
20
-0.47051618845143023
11
-0.6788730156347114
21
-0.4709853686389973
0
LINE
8
Polygon
10
-0.6788730156347114
20
-0.4709853686389973
11
-0.6788150519854242
21
-0.4714543242191418
0
LINE
8
Polygon
10
-0.6788150519854242
20
-0.47145432421914174
11
-0.6787552421819192
21
-0.4719230479204755
0
LINE
8
Polygon
10
-0.6787552421819192
20
-0.4719230479204755
11
-0.6786935871515769
21
-0.47239153247520577
0
LINE
8
Polygon
10
-0.6786935871515769
20
-0.47239153247520577
11
-0.6786300878503889
21
-0.4728597706192479
0
LINE
8
Polygon
10
-0.6786300878503889
20
-0.47285977061924783
11
-0.6785647452629435
21
-0.47332775509233777
0
LINE
8
Polygon
10
-0.6785647452629435
20
-0.47332775509233777
11
-0.6784975604024097
21
-0.4737954786381449
0
LINE
8
Polygon
10
-0.6784975604024097
20
-0.4737954786381449
11
-0.678428534310522
21
-0.47426293400438435
0
LINE
8
Polygon
10
-0.678428534310522
20
-0.4742629340043843
11
-0.6783576680575639
21
-0.4747301139429294
0
LINE
8
Polygon
10
-0.6783576680575639
20
-0.4747301139429294
11
-0.6782849627423521
21
-0.4751970112099243
0
LINE
8
Polygon
10
-0.6782849627423521
20
-0.47519701120992425
11
-0.6782104194922182
21
-0.47566361856589584
0
LINE
8
Polygon
10
-0.6782104194922182
20
-0.47566361856589584
11
-0.6781340394629921
21
-0.47612992877586635
0
LINE
8
Polygon
10
-0.6781340394629921
20
-0.47612992877586635
11
-0.6780558238389841
21
-0.4765959346094655
0
LINE
8
Polygon
10
-0.6780558238389841
20
-0.4765959346094654
11
-0.677975773832966
21
-0.47706162884104214
0
LINE
8
Polygon
10
-0.677975773832966
20
-0.47706162884104214
11
-0.6778938906861528
21
-0.4775270042497772
0
LINE
8
Polygon
10
-0.6778938906861528
20
-0.4775270042497771
11
-0.6778101756681831
21
-0.47799205361979463
0
LINE
8
Polygon
10
-0.6778101756681831
20
-0.47799205361979463
11
-0.6777246300770998
21
-0.4784567697402742
0
LINE
8
Polygon
10
-0.6777246300770998
20
-0.4784567697402742
11
-0.6776372552393295
21
-0.47892114540556247
0
LINE
8
Polygon
10
-0.6776372552393295
20
-0.4789211454055624
11
-0.6775480525096622
21
-0.47938517341528514
0
LINE
8
Polygon
10
-0.6775480525096622
20
-0.47938517341528514
11
-0.6774570232712305
21
-0.4798488465744586
0
LINE
8
Polygon
10
-0.6774570232712305
20
-0.4798488465744586
11
-0.6773641689354875
21
-0.4803121576936011
0
LINE
8
Polygon
10
-0.6773641689354875
20
-0.480312157693601
11
-0.6772694909421858
21
-0.48077509958884457
0
LINE
8
Polygon
10
-0.6772694909421858
20
-0.48077509958884457
11
-0.6771729907593546
21
-0.48123766508204624
0
LINE
8
Polygon
10
-0.6771729907593546
20
-0.48123766508204624
11
-0.6770746698832766
21
-0.4816998470008992
0
LINE
8
Polygon
10
-0.6770746698832766
20
-0.48169984700089913
11
-0.676974529838466
21
-0.4821616381790442
0
LINE
8
Polygon
10
-0.676974529838466
20
-0.4821616381790442
11
-0.6768725721776434
21
-0.4826230314561809
0
LINE
8
Polygon
10
-0.6767687984817129
20
-0.4830840196781782
11
-0.6767318455407799
21
-0.48326616956839613
0
LINE
8
Polygon
10
-0.6767318455407799
20
-0.48326616956839613
11
-0.6767033938208183
21
-0.48344983938622477
0
LINE
8
Polygon
10
-0.6767033938208183
20
-0.48344983938622477
11
-0.6766835047492737
21
-0.4836346325873526
0
LINE
8
Polygon
10
-0.6766835047492737
20
-0.4836346325873526
11
-0.6766722212667787
21
-0.4838201502020763
0
LINE
8
Polygon
10
-0.6766722212667787
20
-0.4838201502020763
11
-0.6766695677344441
21
-0.48400599169667896
0
LINE
8
Polygon
10
-0.6766695677344441
20
-0.48400599169667896
11
-0.6766755498812632
21
-0.48419175583818486
0
LINE
8
Polygon
10
-0.6766755498812632
20
-0.48419175583818486
11
-0.6766901547917428
21
-0.48437704156062417
0
LINE
8
Polygon
10
-0.6766901547917428
20
-0.48437704156062417
11
-0.6767133509337877
21
-0.484561448830937
0
LINE
8
Polygon
10
-0.6767133509337877
20
-0.484561448830937
11
-0.6767450882267789
21
-0.484744579512647
0
LINE
8
Polygon
10
-0.6767450882267789
20
-0.484744579512647
11
-0.6767852981496979
21
-0.48492603822544095
0
LINE
8
Polygon
10
-0.6767852981496979
20
-0.48492603822544095
11
-0.6768338938890637
21
-0.4851054331987972
0
LINE
8
Polygon
10
-0.6768338938890637
20
-0.4851054331987972
11
-0.6768907705263643
21
-0.4852823771178206
0
LINE
8
Polygon
10
-0.6768907705263643
20
-0.4852823771178206
11
-0.6769558052645758
21
-0.48545648795945817
0
LINE
8
Polygon
10
-0.6769558052645758
20
-0.48545648795945817
11
-0.6770288576932825
21
-0.48562738981728903
0
LINE
8
Polygon
10
-0.6770288576932825
20
-0.48562738981728903
11
-0.6771097700918235
21
-0.4857947137131089
0
LINE
8
Polygon
10
-0.6771097700918235
20
-0.4857947137131089
11
-0.6771983677698127
21
-0.4859580983935563
0
LINE
8
Polygon
10
-0.6771983677698127
20
-0.4859580983935563
11
-0.6772944594442966
21
-0.4861171911100611
0
LINE
8
Polygon
10
-0.6772944594442966
20
-0.4861171911100611
11
-0.6773978376527353
21
-0.4862716483804305
0
LINE
8
Polygon
10
-0.6773978376527353
20
-0.4862716483804305
11
-0.6775082792009156
21
-0.4864211367304299
0
LINE
8
Polygon
10
-0.6775082792009156
20
-0.4864211367304299
11
-0.6776255456448282
21
-0.4865653334137553
0
LINE
8
Polygon
10
-0.6776255456448282
20
-0.4865653334137553
11
-0.6777493838054709
21
-0.4867039271088451
0
LINE
8
Polygon
10
-0.6777493838054709
20
-0.4867039271088451
11
-0.6778795263154626
21
-0.48683661859102484
0
LINE
8
Polygon
10
-0.6778795263154626
20
-0.48683661859102484
11
-0.6780156921962915
21
-0.48696312137853587
0
LINE
8
Polygon
10
-0.6780156921962915
20
-0.48696312137853587
11
-0.6781575874649501
21
-0.4870831623510506
0
LINE
8
Polygon
10
-0.6781575874649501
20
-0.4870831623510506
11
-0.6783049057686457
21
-0.48719648233934154
0
LINE
8
Polygon
10
-0.6783049057686457
20
-0.48719648233934154
11
-0.678457329046218
21
-0.4873028366848291
0
LINE
8
Polygon
10
-0.678457329046218
20
-0.4873028366848291
11
-0.6786145282148359
21
-0.487401995767801
0
LINE
8
Polygon
10
-0.6786145282148359
20
-0.487401995767801
11
-0.6787761638804887
21
-0.4874937455031629
0
LINE
8
Polygon
10
-0.6787761638804887
20
-0.4874937455031629
11
-0.6789418870707403
21
-0.48757788780264905
0
LINE
8
Polygon
10
-0.6789418870707403
20
-0.48757788780264905
11
-0.6791113399881629
21
-0.4876542410024967
0
LINE
8
Polygon
10
-0.6791113399881629
20
-0.4876542410024967
11
-0.6792841567828236
21
-0.48772264025565903
0
LINE
8
Polygon
10
-0.6792841567828236
20
-0.48772264025565903
11
-0.6794599643421575
21
-0.4877829378877108
0
LINE
8
Polygon
10
-0.6794599643421575
20
-0.4877829378877108
11
-0.6796383830965191
21
-0.48783500371567884
0
LINE
8
Polygon
10
-0.6796383830965191
20
-0.48783500371567884
11
-0.6798190278386768
21
-0.48787872532910737
0
LINE
8
Polygon
10
-0.6798190278386768
20
-0.48787872532910737
11
-0.6800015085554765
21
-0.4879140083327534
0
LINE
8
Polygon
10
-0.6800015085554765
20
-0.4879140083327534
11
-0.6801854312698832
21
-0.48794077655038626
0
LINE
8
Polygon
10
-0.6801854312698832
20
-0.48794077655038626
11
-0.6803703988915801
21
-0.48795897218925294
0
LINE
8
Polygon
10
-0.6803703988915801
20
-0.48795897218925294
11
-0.6805560120742887
21
-0.4879685559648527
0
LINE
8
Polygon
10
-0.6805560120742887
20
-0.4879685559648527
11
-0.6807418700779604
21
-0.48796950718575277
0
LINE
8
Polygon
10
-0.6807418700779604
20
-0.48796950718575277
11
-0.680927571633976
21
-0.4879618237982611
0
LINE
8
Polygon
10
-0.680927571633976
20
-0.4879618237982611
11
-0.6811127158114884
21
-0.48794552239086036
0
LINE
8
Polygon
10
-0.6811127158114884
20
-0.48794552239086036
11
-0.6812969028830339
21
-0.4879206381583935
0
LINE
8
Polygon
10
-0.6812969028830339
20
-0.4879206381583935
11
-0.6814797351875469
21
-0.48788722482607755
0
LINE
8
Polygon
10
-0.6814797351875469
20
-0.48788722482607755
11
-0.6816608179889124
21
-0.48784535453351074
0
LINE
8
Polygon
10
-0.6816608179889124
20
-0.48784535453351074
11
-0.6818397603282038
21
-0.4877951176789226
0
LINE
8
Polygon
10
-0.6818397603282038
20
-0.4877951176789226
11
-0.6820161758677659
21
-0.4877366227240035
0
LINE
8
Polygon
10
-0.6820161758677659
20
-0.4877366227240035
11
-0.6821896837253204
21
-0.48766999595973526
0
LINE
8
Polygon
10
-0.6823599092962926
20
-0.48759538123372825
11
-0.6841853007384103
21
-0.48685135287943504
0
LINE
8
Polygon
10
-0.6841853007384103
20
-0.48685135287943504
11
-0.6860750685432258
21
-0.4862906303519478
0
LINE
8
Polygon
10
-0.6860750685432258
20
-0.4862906303519478
11
-0.6880108553545868
21
-0.4859186605549091
0
LINE
8
Polygon
10
-0.6880108553545868
20
-0.4859186605549091
11
-0.6899738567840179
21
-0.48573905683278634
0
LINE
8
Polygon
10
-0.6899738567840179
20
-0.48573905683278634
11
-0.6919450040780585
21
-0.48575356387055335
0
LINE
8
Polygon
10
-0.6919450040780585
20
-0.48575356387055335
11
-0.6939051493536659
21
-0.4859620407456807
0
LINE
8
Polygon
10
-0.6939051493536659
20
-0.4859620407456807
11
-0.695835251602287
21
-0.4863624622970686
0
LINE
8
Polygon
10
-0.695835251602287
20
-0.4863624622970686
11
-0.6977165616557451
21
-0.486950938797624
0
LINE
8
Polygon
10
-0.6977165616557451
20
-0.486950938797624
11
-0.6995308043171637
21
-0.4877217537393821
0
LINE
8
Polygon
10
-0.6995308043171637
20
-0.4877217537393821
11
-0.7012603558876961
21
-0.48866741936412356
0
LINE
8
Polygon
10
-0.7012603558876961
20
-0.48866741936412356
11
-0.7028884153645508
21
-0.4897787494000588
0
LINE
8
Polygon
10
-0.7028884153645509
20
-0.4897787494000588
11
-0.7043991676472818
21
-0.49104494829800965
0
LINE
8
Polygon
10
-0.7043991676472818
20
-0.49104494829800965
11
-0.7057779371669427
21
-0.4924537161002406
0
LINE
8
Polygon
10
-0.7057779371669427
20
-0.4924537161002406
11
-0.7070113304457425
21
-0.49399136792323567
0
LINE
8
Polygon
10
-0.7070113304457425
20
-0.49399136792323567
11
-0.7080873662023636
21
-0.4956429668937553
0
LINE
8
Polygon
10
-0.7080873662023636
20
-0.4956429668937553
11
-0.70899559173909
21
-0.4973924692468221
0
LINE
8
Polygon
10
-0.70899559173909
20
-0.4973924692468221
11
-0.7097271844801528
21
-0.49922288017614175
0
LINE
8
Polygon
10
-0.7097271844801528
20
-0.49922288017614175
11
-0.7102750376749386
21
-0.5011164189230154
0
LINE
8
Polygon
10
-0.7102750376749386
20
-0.5011164189230154
11
-0.7106338294335356
21
-0.503054691500057
0
LINE
8
Polygon
10
-0.7106338294335356
20
-0.503054691500057
11
-0.7108000744239998
21
-0.5050188693718634
0
LINE
8
Polygon
10
-0.7108000744239998
20
-0.5050188693718634
11
-0.7107721577291491
21
-0.5069898723569187
0
LINE
8
Polygon
10
-0.7107721577291491
20
-0.5069898723569187
11
-0.7105503505339981
21
-0.5089485539740092
0
LINE
8
Polygon
10
-0.7105503505339981
20
-0.5089485539740092
11
-0.7101368074914454
21
-0.5108758874326781
0
LINE
8
Polygon
10
-0.7101368074914454
20
-0.5108758874326781
11
-0.7095355457918024
21
-0.5127531504609965
0
LINE
8
Polygon
10
-0.7095355457918024
20
-0.5127531504609965
11
-0.7087524061394845
21
-0.5145621071752149
0
LINE
8
Polygon
10
-0.7087524061394845
20
-0.5145621071752149
11
-0.7077949960159384
21
-0.5162851852246021
0
LINE
8
Polygon
10
-0.7077949960159384
20
-0.5162851852246021
11
-0.7066726157799581
21
-0.5179056464906708
0
LINE
8
Polygon
10
-0.7066726157799581
20
-0.5179056464906708
11
-0.7053961683232518
21
-0.5194077496826043
0
LINE
8
Polygon
10
-0.7053961683232518
20
-0.5194077496826043
11
-0.7039780531588775
21
-0.5207769032494186
0
LINE
8
Polygon
10
-0.7039780531588775
20
-0.5207769032494186
11
-0.7024320459713773
21
-0.5219998071234604
0
LINE
8
Polygon
10
-0.7024320459713773
20
-0.5219998071234604
11
-0.7007731647986725
21
-0.523064581918332
0
LINE
8
Polygon
10
-0.7007731647986725
20
-0.523064581918332
11
-0.6990175241456369
21
-0.5239608843262041
0
LINE
8
Polygon
10
-0.6990175241456369
20
-0.5239608843262041
11
-0.6971821784465035
21
-0.5246800075935382
0
LINE
8
Polygon
10
-0.6971821784465035
20
-0.5246800075935382
11
-0.6952849563967213
21
-0.5252149660991895
0
LINE
8
Polygon
10
-0.6952849563967213
20
-0.5252149660991895
11
-0.6933442877635764
21
-0.525560563213292
0
LINE
8
Polygon
10
-0.6933442877635764
20
-0.525560563213292
11
-0.6913790243579532
21
-0.5257134417777374
0
LINE
8
Polygon
10
-0.6913790243579532
20
-0.5257134417777374
11
-0.6894082569063302
21
-0.5256721167178785
0
LINE
8
Polygon
10
-0.6894082569063302
20
-0.5256721167178785
11
-0.6874511296019309
21
-0.5254369894686642
0
LINE
8
Polygon
10
-0.6874511296019309
20
-0.5254369894686642
11
-0.6855266541364933
21
-0.5250103440750676
0
LINE
8
Polygon
10
-0.6855266541364933
20
-0.5250103440750676
11
-0.6836535250191709
21
-0.52439632500469
0
LINE
8
Polygon
10
-0.6836535250191709
20
-0.52439632500469
11
-0.6818499379765698
21
-0.5236008968880698
0
LINE
8
Polygon
10
-0.6818499379765698
20
-0.5236008968880698
11
-0.6801334131980001
21
-0.5226317865777825
0
LINE
8
Polygon
10
-0.6801334131980001
20
-0.5226317865777825
11
-0.6785206251429504
21
-0.5214984080891752
0
LINE
8
Polygon
10
-0.6785206251429505
20
-0.5214984080891752
11
-0.6770272405640498
21
-0.5202117711518652
0
LINE
8
Polygon
10
-0.6770272405640498
20
-0.5202117711518652
11
-0.6756677663189752
21
-0.5187843742603431
0
LINE
8
Polygon
10
-0.6756677663189752
20
-0.5187843742603431
11
-0.6744554084496714
21
-0.5172300832625933
0
LINE
8
Polygon
10
-0.6744554084496714
20
-0.5172300832625933
11
-0.6734019438977997
21
-0.515563996666135
0
LINE
8
Polygon
10
-0.6725176061025812
20
-0.5138022989699066
11
-0.6724385811839073
21
-0.5136340754145448
0
LINE
8
Polygon
10
-0.6724385811839073
20
-0.5136340754145448
11
-0.6723518271567486
21
-0.5134697043674539
0
LINE
8
Polygon
10
-0.6723518271567486
20
-0.5134697043674539
11
-0.6722575313236047
21
-0.5133095407067763
0
LINE
8
Polygon
10
-0.6722575313236047
20
-0.5133095407067763
11
-0.6721558972697825
21
-0.5131539302268796
0
LINE
8
Polygon
10
-0.6721558972697825
20
-0.5131539302268796
11
-0.6720471444238544
21
-0.5130032088917855
0
LINE
8
Polygon
10
-0.6720471444238544
20
-0.5130032088917855
11
-0.6719315075839104
21
-0.5128577021098207
0
LINE
8
Polygon
10
-0.6719315075839104
20
-0.5128577021098207
11
-0.6718092364106277
21
-0.5127177240310582
0
LINE
8
Polygon
10
-0.6718092364106277
20
-0.5127177240310582
11
-0.6716805948882516
21
-0.5125835768690653
0
LINE
8
Polygon
10
-0.6716805948882516
20
-0.5125835768690653
11
-0.6715458607546517
21
-0.512455550248423
0
LINE
8
Polygon
10
-0.6715458607546517
20
-0.512455550248423
11
-0.6714053249016845
21
-0.5123339205794243
0
LINE
8
Polygon
10
-0.6714053249016845
20
-0.5123339205794243
11
-0.6712592907471553
21
-0.5122189504613025
0
LINE
8
Polygon
10
-0.6712592907471553
20
-0.5122189504613025
11
-0.671108073579738
21
-0.5121108881152782
0
LINE
8
Polygon
10
-0.671108073579738
20
-0.5121108881152782
11
-0.6709519998782645
21
-0.5120099668486475
0
LINE
8
Polygon
10
-0.6709519998782645
20
-0.5120099668486475
11
-0.6707914066068544
21
-0.5119164045510709
0
LINE
8
Polygon
10
-0.6707914066068544
20
-0.5119164045510709
11
-0.6706266404874083
21
-0.5118304032241472
0
LINE
8
Polygon
10
-0.6706266404874083
20
-0.5118304032241472
11
-0.6704580572510318
21
-0.5117521485452915
0
LINE
8
Polygon
10
-0.6704580572510318
20
-0.5117521485452915
11
-0.6702860208700108
21
-0.5116818094668559
0
LINE
8
Polygon
10
-0.6702860208700108
20
-0.5116818094668559
11
-0.6701109027719923
21
-0.5116195378513607
0
LINE
8
Polygon
10
-0.6701109027719923
20
-0.5116195378513607
11
-0.6699330810380701
21
-0.5115654681436222
0
LINE
8
Polygon
10
-0.6699330810380701
20
-0.5115654681436222
11
-0.6697529395865055
21
-0.5115197170804853
0
LINE
8
Polygon
10
-0.6697529395865055
20
-0.5115197170804853
11
-0.6695708673438445
21
-0.5114823834387878
0
LINE
8
Polygon
10
-0.6695708673438445
20
-0.5114823834387878
11
-0.6693872574052239
21
-0.5114535478221012
0
LINE
8
Polygon
10
-0.6693872574052239
20
-0.5114535478221012
11
-0.6692025061856756
21
-0.5114332724867061
0
LINE
8
Polygon
10
-0.6692025061856756
20
-0.5114332724867061
11
-0.6690170125642643
21
-0.5114216012071815
0
LINE
8
Polygon
10
-0.6690170125642643
20
-0.5114216012071815
11
-0.6688311770229055
21
-0.5114185591818945
0
LINE
8
Polygon
10
-0.6688311770229054
20
-0.5114185591818945
11
-0.6686454007817215
21
-0.5114241529785972
0
LINE
8
Polygon
10
-0.6686454007817215
20
-0.5114241529785972
11
-0.6684600849328056
21
-0.5114383705202467
0
LINE
8
Polygon
10
-0.6684600849328056
20
-0.5114383705202467
11
-0.6682756295742609
21
-0.5114611811110795
0
LINE
8
Polygon
10
-0.6682756295742609
20
-0.5114611811110795
11
-0.6680924329463865
21
-0.5114925355028844
0
LINE
8
Polygon
10
-0.6680924329463865
20
-0.5114925355028844
11
-0.6679108905718739
21
-0.5115323660013286
0
LINE
8
Polygon
10
-0.6679108905718739
20
-0.5115323660013286
11
-0.667731394401871
21
-0.5115805866121114
0
LINE
8
Polygon
10
-0.667731394401871
20
-0.5115805866121114
11
-0.667554331969757
21
-0.5116370932266254
0
LINE
8
Polygon
10
-0.667554331969757
20
-0.5116370932266254
11
-0.6673800855544554
21
-0.5117017638467287
0
LINE
8
Polygon
10
-0.6673800855544554
20
-0.5117017638467287
11
-0.6672090313550916
21
-0.5117744588481385
0
LINE
8
Polygon
10
-0.6672090313550916
20
-0.5117744588481385
11
-0.6670415386787761
21
-0.5118550212818821
0
LINE
8
Polygon
10
-0.6670415386787761
20
-0.5118550212818821
11
-0.6668779691432687
21
-0.5119432772131494
0
LINE
8
Polygon
10
-0.6668779691432687
20
-0.5119432772131494
11
-0.6667186758962427
21
-0.5120390360968203
0
LINE
8
Polygon
10
-0.6667186758962427
20
-0.5120390360968203
11
-0.6665640028528375
21
-0.5121420911888525
0
LINE
8
Polygon
10
-0.6665640028528375
20
-0.5121420911888525
11
-0.6664142839531432
21
-0.5122522199926429
0
LINE
8
Polygon
10
-0.6664142839531432
20
-0.5122522199926429
11
-0.666269842441222
21
-0.5123691847393999
0
LINE
8
Polygon
10
-0.666269842441222
20
-0.5123691847393999
11
-0.6661309901672221
21
-0.5124927329014867
0
LINE
8
Polygon
10
-0.6661309901672221
20
-0.5124927329014867
11
-0.6659980269140913
21
-0.5126225977376313
0
LINE
8
Polygon
10
-0.6659980269140913
20
-0.5126225977376313
11
-0.6658712397503436
21
-0.5127584988688216
0
LINE
8
Polygon
10
-0.6658712397503436
20
-0.5127584988688216
11
-0.6657509024102767
21
-0.512900142883646
0
LINE
8
Polygon
10
-0.6657509024102767
20
-0.512900142883646
11
-0.6656372747029774
21
-0.5130472239717706
0
LINE
8
Polygon
10
-0.6656372747029774
20
-0.5130472239717706
11
-0.6655306019513928
21
-0.5131994245841851
0
LINE
8
Polygon
10
-0.6655306019513928
20
-0.5131994245841851
11
-0.6654311144626759
21
-0.5133564161187938
0
LINE
8
Polygon
10
-0.6653390270309512
20
-0.5135178596298692
11
-0.6651136883707524
21
-0.5139331927600276
0
LINE
8
Polygon
10
-0.6651136883707524
20
-0.5139331927600276
11
-0.6648867160027538
21
-0.5143476353555128
0
LINE
8
Polygon
10
-0.6648867160027538
20
-0.5143476353555126
11
-0.6646581134462745
21
-0.5147611809901873
0
LINE
8
Polygon
10
-0.6646581134462745
20
-0.5147611809901873
11
-0.6644278842459097
21
-0.5151738232518217
0
LINE
8
Polygon
10
-0.6644278842459097
20
-0.5151738232518216
11
-0.6641960319714774
21
-0.5155855557421936
0
LINE
8
Polygon
10
-0.6641960319714774
20
-0.5155855557421936
11
-0.6639625602179615
21
-0.5159963720771872
0
LINE
8
Polygon
10
-0.6639625602179615
20
-0.5159963720771872
11
-0.6637274726054572
21
-0.516406265886892
0
LINE
8
Polygon
10
-0.6637274726054572
20
-0.516406265886892
11
-0.663490772779114
21
-0.5168152308157018
0
LINE
8
Polygon
10
-0.663490772779114
20
-0.5168152308157018
11
-0.6632524644090798
21
-0.5172232605224132
0
LINE
8
Polygon
10
-0.6632524644090798
20
-0.5172232605224132
11
-0.6630125511904439
21
-0.5176303486803238
0
LINE
8
Polygon
10
-0.6630125511904439
20
-0.5176303486803238
11
-0.6627710368431791
21
-0.5180364889773303
0
LINE
8
Polygon
10
-0.6627710368431791
20
-0.5180364889773303
11
-0.662527925112085
21
-0.5184416751160269
0
LINE
8
Polygon
10
-0.662527925112085
20
-0.5184416751160268
11
-0.6622832197667291
21
-0.5188459008138017
0
LINE
8
Polygon
10
-0.6622832197667291
20
-0.5188459008138017
11
-0.6620369246013889
21
-0.5192491598029356
0
LINE
8
Polygon
10
-0.6620369246013889
20
-0.5192491598029356
11
-0.6617890434349926
21
-0.5196514458306987
0
LINE
8
Polygon
10
-0.6617890434349926
20
-0.5196514458306987
11
-0.6615395801110603
21
-0.520052752659447
0
LINE
8
Polygon
10
-0.6615395801110603
20
-0.520052752659447
11
-0.6612885384976442
21
-0.5204530740667197
0
LINE
8
Polygon
10
-0.6612885384976444
20
-0.5204530740667196
11
-0.6610359224872688
21
-0.5208524038453354
0
LINE
8
Polygon
10
-0.6610359224872688
20
-0.5208524038453354
11
-0.6607817359968701
21
-0.5212507358034885
0
LINE
8
Polygon
10
-0.6607817359968701
20
-0.5212507358034885
11
-0.6605259829677352
21
-0.521648063764845
0
LINE
8
Polygon
10
-0.6605259829677352
20
-0.521648063764845
11
-0.6602686673654417
21
-0.5220443815686383
0
LINE
8
Polygon
10
-0.6602686673654417
20
-0.5220443815686383
11
-0.6600097931797948
21
-0.5224396830697651
0
LINE
8
Polygon
10
-0.6600097931797948
20
-0.522439683069765
11
-0.6597493644247671
21
-0.5228339621388798
0
LINE
8
Polygon
10
-0.6597493644247671
20
-0.5228339621388798
11
-0.659487385138435
21
-0.5232272126624907
0
LINE
8
Polygon
10
-0.659487385138435
20
-0.5232272126624906
11
-0.6592238593829169
21
-0.5236194285430539
0
LINE
8
Polygon
10
-0.6592238593829169
20
-0.5236194285430539
11
-0.6589587912443102
21
-0.5240106036990683
0
LINE
8
Polygon
10
-0.6589587912443102
20
-0.5240106036990683
11
-0.6586921848326273
21
-0.5244007320651696
0
LINE
8
Polygon
10
-0.6586921848326273
20
-0.5244007320651695
11
-0.6584240442817323
21
-0.5247898075922245
0
LINE
8
Polygon
10
-0.6584240442817323
20
-0.5247898075922245
11
-0.6581543737492772
21
-0.5251778242474247
0
LINE
8
Polygon
10
-0.6581543737492772
20
-0.5251778242474247
11
-0.6578831774166369
21
-0.5255647760143799
0
LINE
8
Polygon
10
-0.657883177416637
20
-0.5255647760143799
11
-0.6576104594888449
21
-0.5259506568932119
0
LINE
8
Polygon
10
-0.6576104594888449
20
-0.5259506568932119
11
-0.6573362241945271
21
-0.5263354609006465
0
LINE
8
Polygon
10
-0.6573362241945272
20
-0.5263354609006465
11
-0.6570604757858377
21
-0.5267191820701076
0
LINE
8
Polygon
10
-0.6570604757858377
20
-0.5267191820701076
11
-0.6567832185383919
21
-0.5271018144518085
0
LINE
8
Polygon
10
-0.6567832185383919
20
-0.5271018144518085
11
-0.6565044567512006
21
-0.5274833521128449
0
LINE
8
Polygon
10
-0.6565044567512006
20
-0.5274833521128449
11
-0.656224194746603
21
-0.5278637891372869
0
LINE
8
Polygon
10
-0.656224194746603
20
-0.5278637891372869
11
-0.6559424368702002
21
-0.5282431196262702
0
LINE
8
Polygon
10
-0.6559424368702002
20
-0.5282431196262701
11
-0.6556591874907872
21
-0.528621337698088
0
LINE
8
Polygon
10
-0.6556591874907872
20
-0.528621337698088
11
-0.655374451000286
21
-0.5289984374882819
0
LINE
8
Polygon
10
-0.655374451000286
20
-0.5289984374882819
11
-0.6550882318136765
21
-0.5293744131497334
0
LINE
8
Polygon
10
-0.6550882318136765
20
-0.5293744131497334
11
-0.6548005343689287
21
-0.5297492588527539
0
LINE
8
Polygon
10
-0.6548005343689287
20
-0.5297492588527539
11
-0.6545113631269338
21
-0.5301229687851754
0
LINE
8
Polygon
10
-0.6545113631269339
20
-0.5301229687851754
11
-0.654220722571435
21
-0.5304955371524406
0
LINE
8
Polygon
10
-0.654220722571435
20
-0.5304955371524406
11
-0.6539286172089577
21
-0.5308669581776927
0
LINE
8
Polygon
10
-0.6539286172089577
20
-0.5308669581776927
11
-0.65363505156874
21
-0.5312372261018651
0
LINE
8
Polygon
10
-0.65363505156874
20
-0.531237226101865
11
-0.6533400302026624
21
-0.5316063351837703
0
LINE
8
Polygon
10
-0.6533400302026624
20
-0.5316063351837703
11
-0.653043557685177
21
-0.5319742797001898
0
LINE
8
Polygon
10
-0.6527456386132368
20
-0.5323410539459619
11
-0.725442190897696
21
-0.5916280977377272
0
LINE
8
Polygon
10
-0.8225620227307662
20
-0.5475403596013498
11
-0.8253789819770276
21
-0.4656354761957346
0
LINE
8
Polygon
10
-0.7704072764936242
20
-0.46374483124752847
11
-0.7702159106713706
21
-0.46373365364917685
0
LINE
8
Polygon
10
-0.7702159106713706
20
-0.46373365364917685
11
-0.7700253001059879
21
-0.4637133206957226
0
LINE
8
Polygon
10
-0.7700253001059879
20
-0.4637133206957226
11
-0.7698358825562813
21
-0.46368387908410197
0
LINE
8
Polygon
10
-0.7698358825562813
20
-0.46368387908410197
11
-0.76964809304116
21
-0.4636453964303188
0
LINE
8
Polygon
10
-0.76964809304116
20
-0.4636453964303188
11
-0.769462362840567
21
-0.46359796111415685
0
LINE
8
Polygon
10
-0.769462362840567
20
-0.46359796111415685
11
-0.7692791185049958
21
-0.46354168207620544
0
LINE
8
Polygon
10
-0.7692791185049958
20
-0.46354168207620544
11
-0.7690987808758684
21
-0.4634766885676651
0
LINE
8
Polygon
10
-0.7690987808758684
20
-0.4634766885676651
11
-0.7689217641190255
21
-0.4634031298535075
0
LINE
8
Polygon
10
-0.7689217641190255
20
-0.4634031298535075
11
-0.7687484747735476
21
-0.4633211748696716
0
LINE
8
Polygon
10
-0.7687484747735476
20
-0.4633211748696716
11
-0.7685793108180918
21
-0.46323101183508286
0
LINE
8
Polygon
10
-0.7685793108180918
20
-0.46323101183508286
11
-0.7684146607568887
21
-0.4631328478193873
0
LINE
8
Polygon
10
-0.7684146607568887
20
-0.4631328478193873
11
-0.768254902727498
21
-0.4630269082673924
0
LINE
8
Polygon
10
-0.768254902727498
20
-0.4630269082673924
11
-0.768100403632373
21
-0.46291343648130767
0
LINE
8
Polygon
10
-0.768100403632373
20
-0.46291343648130767
11
-0.7679515182962275
21
-0.4627926930619734
0
LINE
8
Polygon
10
-0.7679515182962275
20
-0.4627926930619734
11
-0.7678085886511403
21
-0.4626649553103613
0
LINE
8
Polygon
10
-0.7678085886511403
20
-0.4626649553103613
11
-0.7676719429512695
21
-0.46253051659072103
0
LINE
8
Polygon
10
-0.7676719429512695
20
-0.46253051659072103
11
-0.7675418950189795
21
-0.4623896856568365
0
LINE
8
Polygon
10
-0.7675418950189795
20
-0.4623896856568365
11
-0.7674187435241124
21
-0.4622427859429372
0
LINE
8
Polygon
10
-0.7674187435241124
20
-0.4622427859429372
11
-0.7673027712980588
21
-0.46209015482089505
0
LINE
8
Polygon
10
-0.7673027712980588
20
-0.46209015482089505
11
-0.767194244684203
21
-0.46193214282541145
0
LINE
8
Polygon
10
-0.767194244684203
20
-0.46193214282541145
11
-0.7670934129262362
21
-0.46176911284897465
0
LINE
8
Polygon
10
-0.7670934129262362
20
-0.46176911284897465
11
-0.7670005075957386
21
-0.46160143930843583
0
LINE
8
Polygon
10
-0.7670005075957386
20
-0.46160143930843583
11
-0.7669157420603502
21
-0.46142950728511845
0
LINE
8
Polygon
10
-0.7669157420603502
20
-0.46142950728511845
11
-0.7668393109937474
21
-0.4612537116404351
0
LINE
8
Polygon
10
-0.7668393109937474
20
-0.4612537116404351
11
-0.7667713899285523
21
-0.4610744561090436
0
LINE
8
Polygon
10
-0.7667713899285523
20
-0.4610744561090436
11
-0.7667121348532031
21
-0.4608921523716243
0
LINE
8
Polygon
10
-0.7667121348532031
20
-0.4608921523716243
11
-0.7666616818537081
21
-0.46070721910940887
0
LINE
8
Polygon
10
-0.7666616818537081
20
-0.46070721910940887
11
-0.7666201468011089
21
-0.4605200810426312
0
LINE
8
Polygon
10
-0.7666201468011089
20
-0.4605200810426312
11
-0.7665876250853698
21
-0.46033116795510926
0
LINE
8
Polygon
10
-0.7665876250853698
20
-0.46033116795510926
11
-0.7665641913963035
21
-0.4601409137071976
0
LINE
8
Polygon
10
-0.7665641913963035
20
-0.4601409137071976
11
-0.7665498995520375
21
-0.4599497552393779
0
LINE
8
Polygon
10
-0.7665498995520375
20
-0.4599497552393779
11
-0.7665447823754149
21
-0.45975813156877565
0
LINE
8
Polygon
10
-0.7665447823754149
20
-0.45975813156877565
11
-0.7665488516186127
21
-0.4595664827809071
0
LINE
8
Polygon
10
-0.7665488516186127
20
-0.4595664827809071
11
-0.7665620979361522
21
-0.45937524901897336
0
LINE
8
Polygon
10
-0.7665620979361522
20
-0.45937524901897336
11
-0.7665844909063607
21
-0.4591848694730213
0
LINE
8
Polygon
10
-0.7665844909063607
20
-0.4591848694730213
11
-0.7666159791012401
21
-0.4589957813712937
0
LINE
8
Polygon
10
-0.7666159791012401
20
-0.4589957813712937
11
-0.7666564902045755
21
-0.45880841897608526
0
LINE
8
Polygon
10
-0.7666564902045755
20
-0.45880841897608526
11
-0.7667059311780184
21
-0.4586232125864096
0
LINE
8
Polygon
10
-0.7667059311780184
20
-0.4586232125864096
11
-0.7667641884747599
21
-0.4584405875497688
0
LINE
8
Polygon
10
-0.7667641884747599
20
-0.4584405875497688
11
-0.7668311283003035
21
-0.45826096328529464
0
LINE
8
Polygon
10
-0.7668311283003035
20
-0.45826096328529464
11
-0.7669065969197395
21
-0.458084752320505
0
LINE
8
Polygon
10
-0.7669065969197395
20
-0.458084752320505
11
-0.7669904210108148
21
-0.45791235934388735
0
LINE
8
Polygon
10
-0.7669904210108148
20
-0.45791235934388735
11
-0.7670824080619868
21
-0.4577441802754859
0
LINE
8
Polygon
10
-0.7670824080619868
20
-0.4577441802754859
11
-0.7671823468145483
21
-0.4575806013576263
0
LINE
8
Polygon
10
-0.7671823468145483
20
-0.4575806013576263
11
-0.7672900077478072
21
-0.45742199826786595
0
LINE
8
Polygon
10
-0.7672900077478072
20
-0.45742199826786595
11
-0.7674051436062064
21
-0.45726873525620826
0
LINE
8
Polygon
10
-0.7674051436062064
20
-0.45726873525620826
11
-0.7675274899671746
21
-0.4571211643085609
0
LINE
8
Polygon
10
-0.7676567658484026
20
-0.45697962433836037
11
-0.7689148770593839
21
-0.45553406974912064
0
LINE
8
Polygon
10
-0.7689148770593839
20
-0.45553406974912064
11
-0.7700288610176739
21
-0.45397473924203063
0
LINE
8
Polygon
10
-0.7700288610176739
20
-0.45397473924203063
11
-0.7709884900363415
21
-0.4523159493107254
0
LINE
8
Polygon
10
-0.7709884900363415
20
-0.4523159493107254
11
-0.7717849535888981
21
-0.45057292960368883
0
LINE
8
Polygon
10
-0.7717849535888981
20
-0.45057292960368883
11
-0.7724109392003237
21
-0.44876168309811404
0
LINE
8
Polygon
10
-0.7724109392003237
20
-0.44876168309811404
11
-0.7728606995842151
21
-0.44689883917369344
0
LINE
8
Polygon
10
-0.7728606995842151
20
-0.44689883917369344
11
-0.773130105409655
21
-0.4450015009352953
0
LINE
8
Polygon
10
-0.773130105409655
20
-0.4450015009352953
11
-0.7732166832133414
21
-0.44308708818628384
0
LINE
8
Polygon
10
-0.7732166832133414
20
-0.44308708818628384
11
-0.7731196381088983
21
-0.44117317749417395
0
LINE
8
Polygon
10
-0.7731196381088983
20
-0.44117317749417395
11
-0.7728398610848711
21
-0.439277340817006
0
LINE
8
Polygon
10
-0.7728398610848711
20
-0.439277340817006
11
-0.7723799208244001
21
-0.43741698417204067
0
LINE
8
Polygon
10
-0.7723799208244001
20
-0.43741698417204067
11
-0.7717440401216791
21
-0.43560918782798647
0
LINE
8
Polygon
10
-0.7717440401216791
20
-0.4356091878279864
11
-0.7709380571117227
21
-0.4338705494879828
0
LINE
8
Polygon
10
-0.7709380571117227
20
-0.4338705494879828
11
-0.7699693716694002
21
-0.43221703190310473
0
LINE
8
Polygon
10
-0.7699693716694002
20
-0.43221703190310473
11
-0.7688468774698536
21
-0.4306638163154759
0
LINE
8
Polygon
10
-0.7688468774698536
20
-0.4306638163154759
11
-0.7675808803340682
21
-0.4292251630765569
0
LINE
8
Polygon
10
-0.7675808803340682
20
-0.4292251630765569
11
-0.7661830036092782
21
-0.4279142807202949
0
LINE
8
Polygon
10
-0.7661830036092782
20
-0.4279142807202949
11
-0.7646660814529259
21
-0.42674320469320004
0
LINE
8
Polygon
10
-0.7646660814529259
20
-0.42674320469320004
11
-0.7630440409999565
21
-0.4257226868547477
0
LINE
8
Polygon
10
-0.7630440409999565
20
-0.4257226868547477
11
-0.7613317744952884
21
-0.42486209676262443
0
LINE
8
Polygon
10
-0.7613317744952884
20
-0.42486209676262443
11
-0.7595450025654368
21
-0.4241693356491349
0
LINE
8
Polygon
10
-0.7595450025654368
20
-0.4241693356491349
11
-0.7577001298846158
21
-0.4236507638785679
0
LINE
8
Polygon
10
-0.7577001298846158
20
-0.4236507638785679
11
-0.7558140945604761
21
-0.42331114255154906
0
LINE
8
Polygon
10
-0.7558140945604761
20
-0.42331114255154906
11
-0.7539042126222948
21
-0.4231535897925197
0
LINE
8
Polygon
10
-0.7539042126222948
20
-0.4231535897925197
11
-0.7519880190393983
21
-0.4231795521216766
0
LINE
8
Polygon
10
-0.7519880190393983
20
-0.4231795521216766
11
-0.7500831067294575
21
-0.42338879117420974
0
LINE
8
Polygon
10
-0.7500831067294575
20
-0.42338879117420974
11
-0.7482069650347488
21
-0.42377938588877245
0
LINE
8
Polygon
10
-0.7482069650347488
20
-0.42377938588877245
11
-0.7463768191493593
21
-0.4243477501450911
0
LINE
8
Polygon
10
-0.7463768191493593
20
-0.4243477501450911
11
-0.7446094719715842
21
-0.42508866568877945
0
LINE
8
Polygon
10
-0.7446094719715842
20
-0.42508866568877945
11
-0.7429211498334976
21
-0.4259953300410706
0
LINE
8
Polygon
10
-0.7429211498334976
20
-0.4259953300410706
11
-0.7413273535240816
21
-0.42705941895359667
0
LINE
8
Polygon
10
-0.7413273535240816
20
-0.42705941895359667
11
-0.7398427159736968
21
-0.42827116283480926
0
LINE
8
Polygon
10
-0.7398427159736968
20
-0.42827116283480926
11
-0.7384808679065183
21
-0.42961943644635525
0
LINE
8
Polygon
10
-0.7384808679065183
20
-0.42961943644635525
11
-0.7372543126944082
21
-0.43109186104588965
0
LINE
8
Polygon
10
-0.7372543126944082
20
-0.43109186104588965
11
-0.7361743115612103
21
-0.4326749180385339
0
LINE
8
Polygon
10
-0.7361743115612103
20
-0.4326749180385339
11
-0.7352507801914306
21
-0.434354073093525
0
LINE
8
Polygon
10
-0.7352507801914306
20
-0.434354073093525
11
-0.7344921976925564
21
-0.43611390958651813
0
LINE
8
Polygon
10
-0.7344921976925564
20
-0.43611390958651813
11
-0.7339055287468452
21
-0.43793827014238607
0
LINE
8
Polygon
10
-0.7339055287468452
20
-0.43793827014238607
11
-0.7334961596673262
21
-0.43981040497898377
0
LINE
8
Polygon
10
-0.7334961596673262
20
-0.43981040497898377
11
-0.733267848945092
21
-0.44171312568990845
0
LINE
8
Polygon
10
-0.733267848945092
20
-0.44171312568990845
11
-0.7332226927419164
21
-0.44362896305434824
0
LINE
8
Polygon
10
-0.7332226927419164
20
-0.44362896305434824
11
-0.7333611056450164
21
-0.4455403274251379
0
LINE
8
Polygon
10
-0.7333611056450164
20
-0.4455403274251379
11
-0.7336818168606525
21
-0.4474296702224709
0
LINE
8
Polygon
10
-0.7336818168606525
20
-0.4474296702224709
11
-0.7341818818815145
21
-0.4492796450505643
0
LINE
8
Polygon
10
-0.7341818818815145
20
-0.4492796450505643
11
-0.7348567095207718
21
-0.4510732669580362
0
LINE
8
Polygon
10
-0.7348567095207718
20
-0.4510732669580362
11
-0.7357001040645859
21
-0.45279406837979685
0
LINE
8
Polygon
10
-0.7357001040645857
20
-0.45279406837979685
11
-0.7367043221560713
21
-0.4544262503287235
0
LINE
8
Polygon
10
-0.737860143888448
20
-0.4559548274490005
11
-0.7379793898133706
21
-0.4561049148436113
0
LINE
8
Polygon
10
-0.7379793898133706
20
-0.4561049148436113
11
-0.7380913082349234
21
-0.45626054287305595
0
LINE
8
Polygon
10
-0.7380913082349234
20
-0.45626054287305595
11
-0.7381956421197442
21
-0.4564213541198949
0
LINE
8
Polygon
10
-0.7381956421197442
20
-0.4564213541198949
11
-0.7382921518532205
21
-0.45658697926284125
0
LINE
8
Polygon
10
-0.7382921518532205
20
-0.45658697926284125
11
-0.7383806157897917
21
-0.4567570379249494
0
LINE
8
Polygon
10
-0.7383806157897917
20
-0.4567570379249494
11
-0.7384608307619833
21
-0.4569311395471934
0
LINE
8
Polygon
10
-0.7384608307619833
20
-0.4569311395471934
11
-0.7385326125470041
21
-0.45710888428543034
0
LINE
8
Polygon
10
-0.7385326125470041
20
-0.45710888428543034
11
-0.7385957962898347
21
-0.4572898639286878
0
LINE
8
Polygon
10
-0.7385957962898347
20
-0.4572898639286878
11
-0.7386502368818361
21
-0.4574736628366667
0
LINE
8
Polygon
10
-0.7386502368818361
20
-0.4574736628366667
11
-0.7386958092940071
21
-0.4576598588943065
0
LINE
8
Polygon
10
-0.7386958092940071
20
-0.4576598588943065
11
-0.7387324088641294
21
-0.4578480244812201
0
LINE
8
Polygon
10
-0.7387324088641294
20
-0.45784802448122014
11
-0.7387599515371344
21
-0.4580377274537731
0
LINE
8
Polygon
10
-0.7387599515371344
20
-0.4580377274537731
11
-0.7387783740581465
21
-0.4582285321375501
0
LINE
8
Polygon
10
-0.7387783740581465
20
-0.4582285321375501
11
-0.7387876341177544
21
-0.458420000327931
0
LINE
8
Polygon
10
-0.7387876341177544
20
-0.458420000327931
11
-0.7387877104491799
21
-0.4586116922964774
0
LINE
8
Polygon
10
-0.7387877104491799
20
-0.4586116922964774
11
-0.7387786028771193
21
-0.458803167800819
0
LINE
8
Polygon
10
-0.7387786028771193
20
-0.458803167800819
11
-0.7387603323181458
21
-0.45899398709571987
0
LINE
8
Polygon
10
-0.7387603323181458
20
-0.45899398709571987
11
-0.7387329407326725
21
-0.4591837119430039
0
LINE
8
Polygon
10
-0.7387329407326725
20
-0.4591837119430039
11
-0.7386964910285855
21
-0.45937190661801797
0
LINE
8
Polygon
10
-0.7386964910285855
20
-0.45937190661801797
11
-0.7386510669167686
21
-0.45955813891032343
0
LINE
8
Polygon
10
-0.7386510669167686
20
-0.45955813891032343
11
-0.7385967727188523
21
-0.45974198111631626
0
LINE
8
Polygon
10
-0.7385967727188523
20
-0.45974198111631626
11
-0.7385337331276264
21
-0.459923011021497
0
LINE
8
Polygon
10
-0.7385337331276264
20
-0.459923011021497
11
-0.7384620929206698
21
-0.4601008128701345
0
LINE
8
Polygon
10
-0.7384620929206698
20
-0.4601008128701345
11
-0.7383820166278515
21
-0.4602749783200957
0
LINE
8
Polygon
10
-0.7383820166278515
20
-0.4602749783200957
11
-0.7382936881534701
21
-0.4604451073806501
0
LINE
8
Polygon
10
-0.7382936881534701
20
-0.4604451073806501
11
-0.7381973103538956
21
-0.4606108093310939
0
LINE
8
Polygon
10
-0.7381973103538956
20
-0.4606108093310939
11
-0.7380931045716875
21
-0.46077170361808406
0
LINE
8
Polygon
10
-0.7380931045716875
20
-0.46077170361808406
11
-0.737981310127256
21
-0.4609274207296227
0
LINE
8
Polygon
10
-0.737981310127256
20
-0.4609274207296227
11
-0.737862183769236
21
-0.46107760304368317
0
LINE
8
Polygon
10
-0.737862183769236
20
-0.46107760304368317
11
-0.737735999084834
21
-0.4612219056495296
0
LINE
8
Polygon
10
-0.737735999084834
20
-0.4612219056495296
11
-0.7376030458715048
21
-0.4613599971398436
0
LINE
8
Polygon
10
-0.7376030458715048
20
-0.4613599971398436
11
-0.7374636294713983
21
-0.4614915603718388
0
LINE
8
Polygon
10
-0.7374636294713983
20
-0.4614915603718388
11
-0.7373180700701065
21
-0.4616162931956153
0
LINE
8
Polygon
10
-0.7373180700701065
20
-0.4616162931956153
11
-0.7371667019613214
21
-0.4617339091480813
0
LINE
8
Polygon
10
-0.7371667019613214
20
-0.4617339091480813
11
-0.7370098727790908
21
-0.4618441381108478
0
LINE
8
Polygon
10
-0.7370098727790908
20
-0.4618441381108478
11
-0.7368479426994382
21
-0.4619467269305865
0
LINE
8
Polygon
10
-0.7368479426994382
20
-0.4619467269305865
11
-0.7366812836131769
21
-0.462041440000425
0
LINE
8
Polygon
10
-0.7366812836131769
20
-0.462041440000425
11
-0.7365102782718208
21
-0.46212805980104477
0
LINE
8
Polygon
10
-0.7365102782718208
20
-0.46212805980104477
11
-0.7363353194085525
21
-0.46220638740023884
0
LINE
8
Polygon
10
-0.7363353194085525
20
-0.46220638740023884
11
-0.7361568088362658
21
-0.4622762429097824
0
LINE
8
Polygon
10
-0.7361568088362658
20
-0.4622762429097824
11
-0.7359751565247583
21
-0.46233746589856656
0
LINE
8
Polygon
10
-0.7359751565247583
20
-0.46233746589856656
11
-0.7357907796591879
21
-0.46238991576104616
0
LINE
8
Polygon
10
-0.7357907796591879
20
-0.46238991576104616
11
-0.7356041016819606
21
-0.462433472040157
0
LINE
8
Polygon
10
-0.7356041016819606
20
-0.462433472040157
11
-0.7354155513202462
21
-0.4624680347039587
0
LINE
8
Polygon
10
-0.7354155513202462
20
-0.4624680347039587
11
-0.7352255616013584
21
-0.4624935243753696
0
LINE
8
Polygon
10
-0.7352255616013584
20
-0.4624935243753696
11
-0.735034568858258
21
-0.46250988251446534
0
LINE
8
Polygon
10
-0.735034568858258
20
-0.46250988251446534
11
-0.7348430117274647
21
-0.46251707155292204
0
LINE
8
Polygon
10
-0.8253789819770276
20
-0.4656354761957346
11
-0.7704072764936242
21
-0.46374483124752847
0
LINE
8
Polygon
10
-0.6796796246582752
20
-0.4606244300320906
11
-0.7346513301416787
21
-0.4625150749802967
0
LINE
8
Polygon
10
-0.7676567658484026
20
-0.4569796243383603
11
-0.7676567658484026
21
-0.45697962433836037
0
LINE
8
Polygon
10
-0.737860143888448
20
-0.45595482744900057
11
-0.737860143888448
21
-0.4559548274490005
0
LINE
8
Polygon
10
-0.9737947291879736
20
-1.0431641075223868
11
1.0431641075223865
21
-0.9737947291879736
0
LINE
8
Polygon
10
1.0431641075223865
20
-0.9737947291879736
11
0.9737947291879736
21
1.0431641075223868
0
LINE
8
Polygon
10
0.9737947291879736
20
1.0431641075223868
11
-1.0431641075223865
21
0.9737947291879736
0
ENDSEC
0
EOF
