0
SECTION
2
ENTITIES
0
LINE
8
Polygon
10
-0.4667554307749565
20
-0.3806583502903593
11
-0.46826476570125863
21
-0.3788443476872581
0
LINE
8
Polygon
10
-0.46826476570125863
20
-0.3788443476872581
11
-0.46980947955538144
21
-0.3770603755819003
0
LINE
8
Polygon
10
-0.46980947955538144
20
-0.3770603755819003
11
-0.47138897497316035
21
-0.37530712386322757
0
LINE
8
Polygon
10
-0.47138897497316035
20
-0.37530712386322757
11
-0.4730026411398755
21
-0.3735852705401444
0
LINE
8
Polygon
10
-0.4730026411398755
20
-0.3735852705401444
11
-0.47464985402646226
21
-0.3718954814793217
0
LINE
8
Polygon
10
-0.47464985402646226
20
-0.3718954814793217
11
-0.47632997663083326
21
-0.37023841014769615
0
LINE
8
Polygon
10
-0.47632997663083326
20
-0.37023841014769615
11
-0.47804235922421634
21
-0.3686146973597647
0
LINE
8
Polygon
10
-0.47804235922421634
20
-0.3686146973597647
11
-0.47978633960241485
21
-0.36702497102977194
0
LINE
8
Polygon
10
-0.47978633960241485
20
-0.36702497102977194
11
-0.48156124334189154
21
-0.3654698459288861
0
LINE
8
Polygon
10
-0.48156124334189154
20
-0.3654698459288861
11
-0.48336638406057875
21
-0.36394992344745786
0
LINE
8
Polygon
10
-0.48336638406057875
20
-0.36394992344745786
11
-0.4852010636833125
21
-0.3624657913624536
0
LINE
8
Polygon
10
-0.4852010636833125
20
-0.3624657913624536
11
-0.4870645727117887
21
-0.3610180236101531
0
LINE
8
Polygon
10
-0.4870645727117887
20
-0.3610180236101531
11
-0.48895619049893696
21
-0.35960718006419984
0
LINE
8
Polygon
10
-0.48895619049893696
20
-0.35960718006419984
11
-0.4908751855276055
21
-0.3582338063190893
0
LINE
8
Polygon
10
-0.49087518552760556
20
-0.3582338063190893
11
-0.49282081569345015
21
-0.3568984334791794
0
LINE
8
Polygon
10
-0.49282081569345015
20
-0.3568984334791794
11
-0.4947923285919169
21
-0.3556015779533043
0
LINE
8
Polygon
10
-0.4947923285919169
20
-0.3556015779533043
11
-0.4967889618092087
21
-0.35434374125507173
0
LINE
8
Polygon
10
-0.4967889618092087
20
-0.35434374125507173
11
-0.49880994321712163
21
-0.3531254098089194
0
LINE
8
Polygon
10
-0.4988099432171217
20
-0.3531254098089194
11
-0.5008544912716393
21
-0.3519470547620079
0
LINE
8
Polygon
10
-0.5008544912716393
20
-0.3519470547620079
11
-0.502921815315167
21
-0.3508091318020209
0
LINE
8
Polygon
10
-0.502921815315167
20
-0.35080913180202083
11
-0.5050111158822916
21
-0.3497120809809435
0
LINE
8
Polygon
10
-0.5050111158822916
20
-0.3497120809809435
11
-0.5071215850089463
21
-0.348656326544888
0
LINE
8
Polygon
10
-0.5071215850089463
20
-0.348656326544888
11
-0.509252406544863
21
-0.3476422767700311
0
LINE
8
Polygon
10
-0.509252406544863
20
-0.3476422767700311
11
-0.5114027564691895
21
-0.3466703238047275
0
LINE
8
Polygon
10
-0.5114027564691895
20
-0.3466703238047275
11
-0.5135718032091513
21
-0.3457408435178603
0
LINE
8
Polygon
10
-0.5135718032091513
20
-0.3457408435178602
11
-0.5157587079616328
21
-0.3448541953534865
0
LINE
8
Polygon
10
-0.5157587079616328
20
-0.3448541953534865
11
-0.5179626250175556
21
-0.3440107221918351
0
LINE
8
Polygon
10
-0.5179626250175556
20
-0.3440107221918351
11
-0.5201827020889267
21
-0.34321075021670966
0
LINE
8
Polygon
10
-0.5201827020889267
20
-0.34321075021670966
11
-0.5224180806384311
21
-0.34245458878934837
0
LINE
8
Polygon
10
-0.5224180806384311
20
-0.3424545887893483
11
-0.5246678962114414
21
-0.3417425303287891
0
LINE
8
Polygon
10
-0.5246678962114414
20
-0.3417425303287891
11
-0.5269312787703151
21
-0.3410748501987869
0
LINE
8
Polygon
10
-0.5269312787703151
20
-0.3410748501987869
11
-0.5292073530308516
21
-0.34045180660132657
0
LINE
8
Polygon
10
-0.5292073530308516
20
-0.34045180660132657
11
-0.5314952388007779
21
-0.3398736404767718
0
LINE
8
Polygon
10
-0.531495238800778
20
-0.3398736404767718
11
-0.5337940513201316
21
-0.3393405754106903
0
LINE
8
Polygon
10
-0.5337940513201316
20
-0.3393405754106903
11
-0.5361029016034116
21
-0.3388528175473895
0
LINE
8
Polygon
10
-0.5361029016034116
20
-0.3388528175473895
11
-0.5384208967833618
21
-0.3384105555101977
0
LINE
8
Polygon
10
-0.5384208967833618
20
-0.3384105555101977
11
-0.5407471404562567
21
-0.3380139603285206
0
LINE
8
Polygon
10
-0.5407471404562568
20
-0.3380139603285206
11
-0.5430807330285543
21
-0.3376631853717013
0
LINE
8
Polygon
10
-0.5430807330285543
20
-0.3376631853717013
11
-0.5454207720647817
21
-0.3373583662897106
0
LINE
8
Polygon
10
-0.5454207720647817
20
-0.3373583662897106
11
-0.5477663526365214
21
-0.3370996209606886
0
LINE
8
Polygon
10
-0.5477663526365214
20
-0.3370996209606886
11
-0.5501165676723605
21
-0.33688704944535963
0
LINE
8
Polygon
10
-0.5501165676723605
20
-0.33688704944535963
11
-0.5524705083086688
21
-0.3367207339483375
0
LINE
8
Polygon
10
-0.552470508308669
20
-0.3367207339483375
11
-0.5548272642410704
21
-0.33660073878633534
0
LINE
8
Polygon
10
-0.5548272642410704
20
-0.33660073878633534
11
-0.5571859240764714
21
-0.33652711036329364
0
LINE
8
Polygon
10
-0.5571859240764714
20
-0.33652711036329364
11
-0.5595455756855103
21
-0.3364998771524349
0
LINE
8
Polygon
10
-0.5595455756855103
20
-0.3364998771524349
11
-0.5619053065552916
21
-0.3365190496852528
0
LINE
8
Polygon
10
-0.5619053065552917
20
-0.3365190496852528
11
-0.5642642041422686
21
-0.3365846205474397
0
LINE
8
Polygon
10
-0.5666213562251374
20
-0.3366965643817532
11
-0.5670667560582208
21
-0.33671216094469686
0
LINE
8
Polygon
10
-0.5670667560582208
20
-0.33671216094469686
11
-0.5675124084790554
21
-0.3367078966873587
0
LINE
8
Polygon
10
-0.5675124084790554
20
-0.3367078966873587
11
-0.5679574283137999
21
-0.3366837800795885
0
LINE
8
Polygon
10
-0.5679574283137999
20
-0.3366837800795885
11
-0.5684009316450825
21
-0.3366398590228209
0
LINE
8
Polygon
10
-0.5684009316450825
20
-0.3366398590228209
11
-0.5688420375676754
21
-0.33657622075493177
0
LINE
8
Polygon
10
-0.5688420375676754
20
-0.33657622075493177
11
-0.5692798699381858
21
-0.33649299167696234
0
LINE
8
Polygon
10
-0.5692798699381858
20
-0.33649299167696234
11
-0.5697135591152899
21
-0.33639033710205624
0
LINE
8
Polygon
10
-0.5697135591152899
20
-0.33639033710205624
11
-0.5701422436870512
21
-0.3362684609271074
0
LINE
8
Polygon
10
-0.5701422436870512
20
-0.3362684609271074
11
-0.570565072181894
21
-0.33612760522777146
0
LINE
8
Polygon
10
-0.570565072181894
20
-0.33612760522777146
11
-0.5709812047598318
21
-0.3359680497776446
0
LINE
8
Polygon
10
-0.5709812047598318
20
-0.3359680497776446
11
-0.5713898148805943
21
-0.3357901114925655
0
LINE
8
Polygon
10
-0.5713898148805943
20
-0.3357901114925655
11
-0.571790090945336
21
-0.33559414380114333
0
LINE
8
Polygon
10
-0.571790090945336
20
-0.33559414380114333
11
-0.5721812379086689
21
-0.3353805359427631
0
LINE
8
Polygon
10
-0.5721812379086689
20
-0.3353805359427631
11
-0.5725624788578159
21
-0.3351497121944616
0
LINE
8
Polygon
10
-0.5725624788578159
20
-0.3351497121944616
11
-0.572933056555747
21
-0.33490213102821015
0
LINE
8
Polygon
10
-0.572933056555747
20
-0.33490213102821015
11
-0.5732922349452371
21
-0.33463828420027825
0
LINE
8
Polygon
10
-0.5732922349452371
20
-0.33463828420027825
11
-0.5736393006108531
21
-0.3343586957744862
0
LINE
8
Polygon
10
-0.5736393006108531
20
-0.3343586957744862
11
-0.5739735641959709
21
-0.33406392108128713
0
LINE
8
Polygon
10
-0.5739735641959709
20
-0.33406392108128713
11
-0.5742943617720044
21
-0.3337545456147462
0
LINE
8
Polygon
10
-0.5742943617720044
20
-0.3337545456147462
11
-0.5746010561571291
21
-0.33343118386960713
0
LINE
8
Polygon
10
-0.5746010561571291
20
-0.33343118386960713
11
-0.5748930381818794
21
-0.3330944781207565
0
LINE
8
Polygon
10
-0.5748930381818794
20
-0.3330944781207565
11
-0.5751697278991075
21
-0.33274509714751
0
LINE
8
Polygon
10
-0.5751697278991075
20
-0.33274509714751
11
-0.5754305757358986
21
-0.33238373490525475
0
LINE
8
Polygon
10
-0.5754305757358986
20
-0.33238373490525475
11
-0.5756750635851567
21
-0.33201110914708504
0
LINE
8
Polygon
10
-0.5756750635851567
20
-0.33201110914708504
11
-0.5759027058346903
21
-0.3316279599981708
0
LINE
8
Polygon
10
-0.5759027058346903
20
-0.3316279599981708
11
-0.5761130503317565
21
-0.3312350484856895
0
LINE
8
Polygon
10
-0.5761130503317565
20
-0.3312350484856895
11
-0.5763056792811461
21
-0.33083315502724125
0
LINE
8
Polygon
10
-0.5763056792811461
20
-0.33083315502724125
11
-0.5764802100750257
21
-0.33042307788075037
0
LINE
8
Polygon
10
-0.5764802100750257
20
-0.33042307788075037
11
-0.5766362960528906
21
-0.33000563155893115
0
LINE
8
Polygon
10
-0.5766362960528906
20
-0.3300056315589312
11
-0.5767736271901157
21
-0.3295816452114684
0
LINE
8
Polygon
10
-0.5767736271901157
20
-0.3295816452114684
11
-0.5768919307137406
21
-0.3291519609781245
0
LINE
8
Polygon
10
-0.5768919307137406
20
-0.3291519609781245
11
-0.5769909716442618
21
-0.32871743231604583
0
LINE
8
Polygon
10
-0.5769909716442618
20
-0.32871743231604583
11
-0.5770705532623602
21
-0.3282789223045897
0
LINE
8
Polygon
10
-0.5770705532623602
20
-0.3282789223045897
11
-0.5771305174996323
21
-0.3278373019310393
0
LINE
8
Polygon
10
-0.5771305174996323
20
-0.3278373019310394
11
-0.5771707452525532
21
-0.32739344836061174
0
LINE
8
Polygon
10
-0.5771707452525532
20
-0.32739344836061174
11
-0.5771911566190447
21
-0.3269482431941948
0
LINE
8
Polygon
10
-0.5771911566190447
20
-0.3269482431941948
11
-0.5771917110571803
21
-0.32650257071727395
0
LINE
8
Polygon
10
-0.5771917110571803
20
-0.326502570717274
11
-0.5771724074657113
21
-0.3260573161435268
0
LINE
8
Polygon
10
-0.5771724074657113
20
-0.3260573161435268
11
-0.5771332841862542
21
-0.3256133638565737
0
LINE
8
Polygon
10
-0.5771332841862542
20
-0.3256133638565737
11
-0.577074418927135
21
-0.32517159565337744
0
LINE
8
Polygon
10
-0.577074418927135
20
-0.32517159565337744
11
-0.5769959286090413
21
-0.3247328889927807
0
LINE
8
Polygon
10
-0.5769959286090413
20
-0.3247328889927807
11
-0.5768979691327899
21
-0.32429811525265956
0
LINE
8
Polygon
10
-0.5768979691327899
20
-0.32429811525265956
11
-0.5767807350696695
21
-0.32386813799915576
0
LINE
8
Polygon
10
-0.5767807350696695
20
-0.32386813799915576
11
-0.5766444592749753
21
-0.3234438112714248
0
LINE
8
Polygon
10
-0.5766444592749753
20
-0.3234438112714248
11
-0.5764894124255017
21
-0.32302597788530696
0
LINE
8
Polygon
10
-0.5764894124255017
20
-0.32302597788530696
11
-0.5763159024819123
21
-0.3226154677592905
0
LINE
8
Polygon
10
-0.5763159024819123
20
-0.3226154677592905
11
-0.5761242740770559
21
-0.32221309626609235
0
LINE
8
Polygon
10
-0.5759149078314412
20
-0.32181966261312955
11
-0.5736557723009656
21
-0.31726515440023134
0
LINE
8
Polygon
10
-0.5736557723009656
20
-0.31726515440023134
11
-0.5718708203973437
21
-0.3125047778281343
0
LINE
8
Polygon
10
-0.5718708203973437
20
-0.3125047778281343
11
-0.5705785065515341
21
-0.3075877499321037
0
LINE
8
Polygon
10
-0.5705785065515341
20
-0.3075877499321037
11
-0.5697921918611641
21
-0.3025649073490515
0
LINE
8
Polygon
10
-0.5697921918611641
20
-0.3025649073490515
11
-0.5695200059515397
21
-0.2974881807228664
0
LINE
8
Polygon
10
-0.5695200059515397
20
-0.2974881807228664
11
-0.5697647629242996
21
-0.29241005779892104
0
LINE
8
Polygon
10
-0.5697647629242996
20
-0.29241005779892104
11
-0.570523932262713
21
-0.28738304075876425
0
LINE
8
Polygon
10
-0.570523932262713
20
-0.28738304075876425
11
-0.571789664994428
21
-0.28245910340556
0
LINE
8
Polygon
10
-0.571789664994428
20
-0.28245910340556
11
-0.5735488748411739
21
-0.27768915381237497
0
LINE
8
Polygon
10
-0.5735488748411739
20
-0.27768915381237497
11
-0.5757833735164248
21
-0.2731225079889378
0
LINE
8
Polygon
10
-0.5757833735164248
20
-0.2731225079889378
11
-0.5784700587721894
21
-0.2688063800085748
0
LINE
8
Polygon
10
-0.5784700587721894
20
-0.2688063800085748
11
-0.581581153250736
21
-0.2647853938668466
0
LINE
8
Polygon
10
-0.581581153250736
20
-0.2647853938668466
11
-0.5850844916717881
21
-0.26110112211872666
0
LINE
8
Polygon
10
-0.5850844916717881
20
-0.26110112211872666
11
-0.5889438533859906
21
-0.25779165606430615
0
LINE
8
Polygon
10
-0.5889438533859906
20
-0.25779165606430615
11
-0.5931193368564143
21
-0.2548912119268277
0
LINE
8
Polygon
10
-0.5931193368564143
20
-0.2548912119268277
11
-0.5975677721963701
21
-0.2524297770947335
0
LINE
8
Polygon
10
-0.5975677721963701
20
-0.2524297770947335
11
-0.6022431674983512
21
-0.2504328000851946
0
LINE
8
Polygon
10
-0.6022431674983512
20
-0.2504328000851946
11
-0.6070971843395518
21
-0.24892092743455385
0
LINE
8
Polygon
10
-0.6070971843395518
20
-0.24892092743455385
11
-0.6120796375477625
21
-0.2479097902359479
0
LINE
8
Polygon
10
-0.6120796375477625
20
-0.2479097902359479
11
-0.6171390140606149
21
-0.24740984253107023
0
LINE
8
Polygon
10
-0.6171390140606149
20
-0.24740984253107023
11
-0.6222230055137425
21
-0.2474262532269284
0
LINE
8
Polygon
10
-0.6222230055137425
20
-0.2474262532269284
11
-0.6272790490514877
21
-0.24795885265505507
0
LINE
8
Polygon
10
-0.6272790490514877
20
-0.24795885265505507
11
-0.6322548707687646
21
-0.2490021343256927
0
LINE
8
Polygon
10
-0.6322548707687646
20
-0.2490021343256927
11
-0.637099026165496
21
-0.25054531185881485
0
LINE
8
Polygon
10
-0.637099026165496
20
-0.25054531185881485
11
-0.6417614320259148
21
-0.25257243050338074
0
LINE
8
Polygon
10
-0.6417614320259148
20
-0.25257243050338074
11
-0.6461938842236924
21
-0.2550625320918367
0
LINE
8
Polygon
10
-0.6461938842236924
20
-0.2550625320918367
11
-0.6503505560993564
21
-0.25798987172441745
0
LINE
8
Polygon
10
-0.6503505560993564
20
-0.25798987172441745
11
-0.6541884722573278
21
-0.2613241839429712
0
LINE
8
Polygon
10
-0.6541884722573278
20
-0.2613241839429712
11
-0.657667952884039
21
-0.265030995642364
0
LINE
8
Polygon
10
-0.657667952884039
20
-0.265030995642364
11
-0.6607530239933743
21
-0.26907198248430725
0
LINE
8
Polygon
10
-0.6607530239933743
20
-0.26907198248430725
11
-0.6634117893579484
21
-0.2734053651286805
0
LINE
8
Polygon
10
-0.6634117893579484
20
-0.2734053651286805
11
-0.6656167602808633
21
-0.2779863411857577
0
LINE
8
Polygon
10
-0.6656167602808633
20
-0.2779863411857577
11
-0.6673451397984693
21
-0.2827675484234263
0
LINE
8
Polygon
10
-0.6673451397984693
20
-0.2827675484234263
11
-0.6685790583757872
21
-0.2876995544403492
0
LINE
8
Polygon
10
-0.6685790583757872
20
-0.2876995544403492
11
-0.6693057586577602
21
-0.29273136774239
0
LINE
8
Polygon
10
-0.6693057586577602
20
-0.29273136774239
11
-0.669517727366213
21
-0.29781096493833487
0
LINE
8
Polygon
10
-0.669517727366213
20
-0.29781096493833487
11
-0.6692127729788488
21
-0.302885828604291
0
LINE
8
Polygon
10
-0.6692127729788488
20
-0.302885828604291
11
-0.6683940483871689
21
-0.30790349025583674
0
LINE
8
Polygon
10
-0.6683940483871689
20
-0.30790349025583674
11
-0.6670700182990574
21
-0.31281207281419204
0
LINE
8
Polygon
10
-0.6670700182990574
20
-0.31281207281419204
11
-0.6652543717230522
21
-0.3175608269579075
0
LINE
8
Polygon
10
-0.6652543717230522
20
-0.3175608269579075
11
-0.6629658804391181
21
-0.32210065581478875
0
LINE
8
Polygon
10
-0.6629658804391181
20
-0.32210065581478875
11
-0.6602282049191777
21
-0.3263846225693205
0
LINE
8
Polygon
10
-0.6602282049191777
20
-0.3263846225693205
11
-0.6570696497039684
21
-0.330368435737491
0
LINE
8
Polygon
10
-0.6570696497039684
20
-0.330368435737491
11
-0.6535228707653571
21
-0.3340109070918104
0
LINE
8
Polygon
10
-0.6535228707653571
20
-0.3340109070918104
11
-0.6496245378796643
21
-0.3372743775020854
0
LINE
8
Polygon
10
-0.6496245378796643
20
-0.3372743775020854
11
-0.6454149555026836
21
-0.3401251062892252
0
LINE
8
Polygon
10
-0.6454149555026836
20
-0.3401251062892252
11
-0.6409376460661307
21
-0.3425336200665926
0
LINE
8
Polygon
10
-0.6362389000037759
20
-0.34447501746226405
11
-0.6358223062029714
21
-0.34463336476794904
0
LINE
8
Polygon
10
-0.6358223062029714
20
-0.34463336476794904
11
-0.6354131814870484
21
-0.34481011665876576
0
LINE
8
Polygon
10
-0.6354131814870484
20
-0.34481011665876576
11
-0.635012338476963
21
-0.3450049220625719
0
LINE
8
Polygon
10
-0.635012338476963
20
-0.3450049220625719
11
-0.6346205733441942
21
-0.34521739404856766
0
LINE
8
Polygon
10
-0.6346205733441942
20
-0.34521739404856766
11
-0.6342386642293538
21
-0.34544711059583455
0
LINE
8
Polygon
10
-0.6342386642293538
20
-0.34544711059583455
11
-0.6338673696966106
21
-0.345693615431571
0
LINE
8
Polygon
10
-0.6338673696966106
20
-0.345693615431571
11
-0.633507427226998
21
-0.3459564189373612
0
LINE
8
Polygon
10
-0.633507427226998
20
-0.3459564189373612
11
-0.6331595517535975
21
-0.3462349991216756
0
LINE
8
Polygon
10
-0.6331595517535975
20
-0.3462349991216756
11
-0.6328244342415078
21
-0.3465288026566734
0
LINE
8
Polygon
10
-0.6328244342415078
20
-0.3465288026566734
11
-0.6325027403154212
21
-0.3468372459772453
0
LINE
8
Polygon
10
-0.6325027403154212
20
-0.3468372459772453
11
-0.6321951089375311
21
-0.3471597164401156
0
LINE
8
Polygon
10
-0.6321951089375311
20
-0.3471597164401156
11
-0.6319021511383979
21
-0.34749557354070065
0
LINE
8
Polygon
10
-0.6319021511383979
20
-0.34749557354070065
11
-0.631624448803294
21
-0.347844150185306
0
LINE
8
Polygon
10
-0.631624448803294
20
-0.347844150185306
11
-0.6313625535164392
21
-0.3482047540161365
0
LINE
8
Polygon
10
-0.6313625535164392
20
-0.3482047540161365
11
-0.6311169854654195
21
-0.34857666878648685
0
LINE
8
Polygon
10
-0.6311169854654195
20
-0.34857666878648685
11
-0.6308882324079691
21
-0.34895915578338144
0
LINE
8
Polygon
10
-0.6308882324079691
20
-0.34895915578338144
11
-0.6306767487031648
21
-0.3493514552948376
0
LINE
8
Polygon
10
-0.6306767487031648
20
-0.3493514552948376
11
-0.6304829544089592
21
-0.3497527881188374
0
LINE
8
Polygon
10
-0.6304829544089592
20
-0.3497527881188374
11
-0.6303072344478429
21
-0.35016235711101296
0
LINE
8
Polygon
10
-0.6303072344478429
20
-0.35016235711101296
11
-0.6301499378422953
21
-0.3505793487679674
0
LINE
8
Polygon
10
-0.6301499378422953
20
-0.3505793487679674
11
-0.630011377021542
21
-0.3510029348430909
0
LINE
8
Polygon
10
-0.630011377021542
20
-0.3510029348430909
11
-0.6298918272009932
21
-0.351432273991659
0
LINE
8
Polygon
10
-0.6298918272009932
20
-0.351432273991659
11
-0.6297915258356004
21
-0.3518665134419473
0
LINE
8
Polygon
10
-0.6297915258356004
20
-0.3518665134419473
11
-0.6297106721482123
21
-0.3523047906890434
0
LINE
8
Polygon
10
-0.6297106721482123
20
-0.3523047906890434
11
-0.6296494267338706
21
-0.3527462352079906
0
LINE
8
Polygon
10
-0.6296494267338706
20
-0.3527462352079906
11
-0.6296079112408287
21
-0.35318997018286175
0
LINE
8
Polygon
10
-0.6296079112408287
20
-0.35318997018286175
11
-0.6295862081289293
21
-0.3536351142483285
0
LINE
8
Polygon
10
-0.6295862081289293
20
-0.3536351142483285
11
-0.6295843605058185
21
-0.3540807832402667
0
LINE
8
Polygon
10
-0.6295843605058185
20
-0.3540807832402667
11
-0.6296023720413242
21
-0.3545260919519209
0
LINE
8
Polygon
10
-0.6296023720413242
20
-0.3545260919519209
11
-0.6296402069601666
21
-0.35497015589213965
0
LINE
8
Polygon
10
-0.6296402069601666
20
-0.35497015589213965
11
-0.6296977901130166
21
-0.35541209304218957
0
LINE
8
Polygon
10
-0.6296977901130166
20
-0.35541209304218957
11
-0.6297750071257605
21
-0.3558510256076587
0
LINE
8
Polygon
10
-0.6297750071257605
20
-0.3558510256076587
11
-0.6298717046266751
21
-0.35628608176196896
0
LINE
8
Polygon
10
-0.6298717046266751
20
-0.35628608176196896
11
-0.6299876905510606
21
-0.3567163973780356
0
LINE
8
Polygon
10
-0.6299876905510606
20
-0.3567163973780356
11
-0.6301227345227285
21
-0.3571411177446329
0
LINE
8
Polygon
10
-0.6301227345227285
20
-0.3571411177446329
11
-0.6302765683115839
21
-0.35755939926405833
0
LINE
8
Polygon
10
-0.6302765683115839
20
-0.35755939926405833
11
-0.6304488863663954
21
-0.35797041112772204
0
LINE
8
Polygon
10
-0.6304488863663954
20
-0.35797041112772204
11
-0.6306393464216952
21
-0.35837333696633455
0
LINE
8
Polygon
10
-0.6306393464216952
20
-0.35837333696633455
11
-0.6308475701775998
21
-0.35876737647141416
0
LINE
8
Polygon
10
-0.6308475701775998
20
-0.35876737647141416
11
-0.6310731440512065
21
-0.3591517469848936
0
LINE
8
Polygon
10
-0.6310731440512065
20
-0.3591517469848936
11
-0.6313156199980688
21
-0.35952568505366916
0
LINE
8
Polygon
10
-0.6313156199980688
20
-0.35952568505366916
11
-0.6315745164021217
21
-0.35988844794600366
0
LINE
8
Polygon
10
-0.6315745164021217
20
-0.35988844794600366
11
-0.6318493190322879
21
-0.3602393151267717
0
LINE
8
Polygon
10
-0.6318493190322879
20
-0.3602393151267717
11
-0.6321394820638656
21
-0.3605775896886176
0
LINE
8
Polygon
10
-0.6321394820638656
20
-0.3605775896886176
11
-0.6324444291626686
21
-0.36090259973618233
0
LINE
8
Polygon
10
-0.6324444291626686
20
-0.36090259973618233
11
-0.6327635546297661
21
-0.3612136997206507
0
LINE
8
Polygon
10
-0.6327635546297661
20
-0.3612136997206507
11
-0.6330962246045475
21
-0.361510271721968
0
LINE
8
Polygon
10
-0.6334417783237236
20
-0.3617917266761791
11
-0.6352898787816577
21
-0.3632591128084556
0
LINE
8
Polygon
10
-0.6352898787816577
20
-0.3632591128084556
11
-0.6371087670349885
21
-0.3647625564840578
0
LINE
8
Polygon
10
-0.6371087670349885
20
-0.3647625564840578
11
-0.6388977396921733
21
-0.3663014762986222
0
LINE
8
Polygon
10
-0.6388977396921733
20
-0.36630147629862225
11
-0.6406561049304812
21
-0.3678752771286271
0
LINE
8
Polygon
10
-0.6406561049304812
20
-0.3678752771286271
11
-0.6423831827635327
21
-0.36948335036153535
0
LINE
8
Polygon
10
-0.6423831827635327
20
-0.36948335036153535
11
-0.6440783053042598
21
-0.37112507413115436
0
LINE
8
Polygon
10
-0.6440783053042598
20
-0.37112507413115436
11
-0.6457408170231889
21
-0.3727998135581212
0
LINE
8
Polygon
10
-0.6457408170231889
20
-0.37279981355812125
11
-0.647370075001943
21
-0.3745069209954197
0
LINE
8
Polygon
10
-0.647370075001943
20
-0.3745069209954197
11
-0.6489654491818685
21
-0.3762457362788355
0
LINE
8
Polygon
10
-0.6489654491818685
20
-0.3762457362788355
11
-0.6505263226076885
21
-0.3780155869822517
0
LINE
8
Polygon
10
-0.6505263226076885
20
-0.3780155869822517
11
-0.652052091666088
21
-0.3798157886776858
0
LINE
8
Polygon
10
-0.6520520916660881
20
-0.37981578867768584
11
-0.6535421663191414
21
-0.3816456451999688
0
LINE
8
Polygon
10
-0.6535421663191414
20
-0.3816456451999688
11
-0.654995970332488
21
-0.3835044489159622
0
LINE
8
Polygon
10
-0.654995970332488
20
-0.3835044489159622
11
-0.656412941498171
21
-0.3853914809982111
0
LINE
8
Polygon
10
-0.656412941498171
20
-0.3853914809982111
11
-0.657792531852052
21
-0.3873060117029249
0
LINE
8
Polygon
10
-0.657792531852052
20
-0.3873060117029249
11
-0.6591342078857165
21
-0.389247300652181
0
LINE
8
Polygon
10
-0.6591342078857165
20
-0.38924730065218105
11
-0.6604374507527903
21
-0.3912145971202394
0
LINE
8
Polygon
10
-0.6604374507527903
20
-0.3912145971202394
11
-0.6617017564695843
21
-0.3932071403238602
0
LINE
8
Polygon
10
-0.6617017564695843
20
-0.3932071403238602
11
-0.6629266361099937
21
-0.3952241597165097
0
LINE
8
Polygon
10
-0.6629266361099937
20
-0.3952241597165097
11
-0.6641116159945724
21
-0.39726487528634236
0
LINE
8
Polygon
10
-0.6641116159945725
20
-0.3972648752863424
11
-0.665256237873712
21
-0.3993284978578434
0
LINE
8
Polygon
10
-0.665256237873712
20
-0.3993284978578434
11
-0.6663600591048541
21
-0.4014142293970146
0
LINE
8
Polygon
10
-0.6663600591048541
20
-0.4014142293970146
11
-0.6674226528236668
21
-0.4035212633199863
0
LINE
8
Polygon
10
-0.6674226528236668
20
-0.4035212633199863
11
-0.6684436081091194
21
-0.4056487848049353
0
LINE
8
Polygon
10
-0.6684436081091194
20
-0.4056487848049353
11
-0.6694225301423922
21
-0.40779597110718924
0
LINE
8
Polygon
10
-0.6694225301423922
20
-0.4077959711071893
11
-0.6703590403595582
21
-0.4099619918773938
0
LINE
8
Polygon
10
-0.6703590403595582
20
-0.4099619918773938
11
-0.6712527765979801
21
-0.4121460094826216
0
LINE
8
Polygon
10
-0.6712527765979801
20
-0.4121460094826216
11
-0.6721033932363638
21
-0.41434717933029763
0
LINE
8
Polygon
10
-0.6721033932363638
20
-0.41434717933029763
11
-0.6729105613284155
21
-0.4165646501948158
0
LINE
8
Polygon
10
-0.6729105613284155
20
-0.41656465019481587
11
-0.67367396873005
21
-0.41879756454672085
0
LINE
8
Polygon
10
-0.67367396873005
20
-0.41879756454672085
11
-0.6743933202201018
21
-0.42104505888432747
0
LINE
8
Polygon
10
-0.6743933202201018
20
-0.42104505888432747
11
-0.675068337614491
21
-0.42330626406765015
0
LINE
8
Polygon
10
-0.675068337614491
20
-0.42330626406765015
11
-0.6756987598738023
21
-0.4255803056545123
0
LINE
8
Polygon
10
-0.6756987598738023
20
-0.4255803056545123
11
-0.6762843432042318
21
-0.4278663042387062
0
LINE
8
Polygon
10
-0.6762843432042318
20
-0.42786630423870625
11
-0.6768248611518666
21
-0.430163375790073
0
LINE
8
Polygon
10
-0.6768248611518666
20
-0.430163375790073
11
-0.677320104690257
21
-0.43247063199637
0
LINE
8
Polygon
10
-0.677320104690257
20
-0.43247063199637
11
-0.6777698823012517
21
-0.4347871806067949
0
LINE
8
Polygon
10
-0.6777698823012517
20
-0.43478718060679494
11
-0.6781740200490588
21
-0.4371121257770325
0
LINE
8
Polygon
10
-0.6781740200490588
20
-0.4371121257770325
11
-0.6785323616475111
21
-0.43944456841569096
0
LINE
8
Polygon
10
-0.6785323616475111
20
-0.43944456841569096
11
-0.6788447685205032
21
-0.4417836065319945
0
LINE
8
Polygon
10
-0.6788447685205032
20
-0.4417836065319945
11
-0.679111119855582
21
-0.44412833558459636
0
LINE
8
Polygon
10
-0.679111119855582
20
-0.44412833558459636
11
-0.6793313126506655
21
-0.446477848831379
0
LINE
8
Polygon
10
-0.6793313126506655
20
-0.446477848831379
11
-0.679505261753876
21
-0.4488312376801045
0
LINE
8
Polygon
10
-0.679505261753876
20
-0.4488312376801046
11
-0.6796328998964698
21
-0.45118759203978154
0
LINE
8
Polygon
10
-0.6796328998964698
20
-0.45118759203978154
11
-0.6797141777188505
21
-0.4535460006726106
0
LINE
8
Polygon
10
-0.6797141777188505
20
-0.4535460006726106
11
-0.6797490637896569
21
-0.4559055515463739
0
LINE
8
Polygon
10
-0.6797490637896569
20
-0.45590555154637397
11
-0.6797375446179195
21
-0.45826533218713195
0
LINE
8
Polygon
10
-0.8494286626793437
20
0.23362430062909534
11
-0.8487544191308481
21
0.23364938785398745
0
LINE
8
Polygon
10
-0.8487544191308481
20
0.23364938785398745
11
-0.8480803272944141
21
0.23367826565850414
0
LINE
8
Polygon
10
-0.8480803272944141
20
0.23367826565850414
11
-0.8474064084804126
21
0.23371093312971822
0
LINE
8
Polygon
10
-0.8474064084804126
20
0.23371093312971822
11
-0.8467326839937448
21
0.23374738923489818
0
LINE
8
Polygon
10
-0.8467326839937448
20
0.23374738923489818
11
-0.8460591751331684
21
0.23378763282154058
0
LINE
8
Polygon
10
-0.8460591751331684
20
0.23378763282154058
11
-0.8453859031906246
21
0.23383166261740665
0
LINE
8
Polygon
10
-0.8453859031906247
20
0.23383166261740665
11
-0.8447128894505647
21
0.23387947723056252
0
LINE
8
Polygon
10
-0.8447128894505647
20
0.23387947723056252
11
-0.8440401551892772
21
0.23393107514942316
0
LINE
8
Polygon
10
-0.8440401551892772
20
0.23393107514942313
11
-0.8433677216742156
21
0.23398645474280008
0
LINE
8
Polygon
10
-0.8433677216742156
20
0.23398645474280008
11
-0.8426956101633255
21
0.23404561425995313
0
LINE
8
Polygon
10
-0.8426956101633255
20
0.23404561425995313
11
-0.8420238419043731
21
0.23410855183064566
0
LINE
8
Polygon
10
-0.8420238419043731
20
0.23410855183064566
11
-0.8413524381342729
21
0.23417526546520367
0
LINE
8
Polygon
10
-0.8413524381342729
20
0.23417526546520367
11
-0.8406814200784168
21
0.23424575305457884
0
LINE
8
Polygon
10
-0.8406814200784168
20
0.23424575305457884
11
-0.8400108089500031
21
0.23432001237041494
0
LINE
8
Polygon
10
-0.8400108089500031
20
0.23432001237041494
11
-0.8393406259493656
21
0.23439804106511858
0
LINE
8
Polygon
10
-0.8393406259493656
20
0.23439804106511858
11
-0.8386708922633034
21
0.23447983667193328
0
LINE
8
Polygon
10
-0.8386708922633034
20
0.23447983667193328
11
-0.8380016290644112
21
0.23456539660501735
0
LINE
8
Polygon
10
-0.8380016290644112
20
0.23456539660501735
11
-0.8373328575104102
21
0.23465471815952588
0
LINE
8
Polygon
10
-0.8373328575104102
20
0.23465471815952588
11
-0.8366645987434789
21
0.23474779851169597
0
LINE
8
Polygon
10
-0.8366645987434789
20
0.23474779851169597
11
-0.8359968738895847
21
0.23484463471893635
0
LINE
8
Polygon
10
-0.8359968738895847
20
0.23484463471893635
11
-0.8353297040578164
21
0.23494522371991997
0
LINE
8
Polygon
10
-0.8353297040578164
20
0.23494522371991997
11
-0.8346631103397163
21
0.23504956233468116
0
LINE
8
Polygon
10
-0.8346631103397163
20
0.23504956233468116
11
-0.8339971138086142
21
0.23515764726471594
0
LINE
8
Polygon
10
-0.8339971138086142
20
0.23515764726471594
11
-0.8333317355189603
21
0.23526947509308646
0
LINE
8
Polygon
10
-0.8333317355189603
20
0.23526947509308646
11
-0.8326669965056605
21
0.2353850422845288
0
LINE
8
Polygon
10
-0.8326669965056605
20
0.2353850422845288
11
-0.8320029177834106
21
0.23550434518556493
0
LINE
8
Polygon
10
-0.8320029177834106
20
0.23550434518556493
11
-0.8313395203460324
21
0.23562738002461814
0
LINE
8
Polygon
10
-0.8313395203460324
20
0.2356273800246181
11
-0.8306768251658102
21
0.2357541429121322
0
LINE
8
Polygon
10
-0.8306768251658102
20
0.2357541429121322
11
-0.8300148531928271
21
0.23588462984069453
0
LINE
8
Polygon
10
-0.8300148531928272
20
0.23588462984069453
11
-0.8293536253543035
21
0.23601883668516263
0
LINE
8
Polygon
10
-0.8293536253543035
20
0.23601883668516263
11
-0.8286931625539349
21
0.23615675920279466
0
LINE
8
Polygon
10
-0.8286931625539349
20
0.23615675920279466
11
-0.8280334856712314
21
0.2362983930333835
0
LINE
8
Polygon
10
-0.8280334856712314
20
0.2362983930333835
11
-0.8273746155608575
21
0.23644373369939464
0
LINE
8
Polygon
10
-0.8273746155608575
20
0.23644373369939464
11
-0.8267165730519728
21
0.23659277660610767
0
LINE
8
Polygon
10
-0.8267165730519728
20
0.23659277660610767
11
-0.8260593789475736
21
0.23674551704176156
0
LINE
8
Polygon
10
-0.8260593789475736
20
0.23674551704176156
11
-0.8254030540238354
21
0.23690195017770369
0
LINE
8
Polygon
10
-0.8254030540238354
20
0.23690195017770366
11
-0.8247476190294555
21
0.23706207106854232
0
LINE
8
Polygon
10
-0.8247476190294555
20
0.23706207106854232
11
-0.8240930946849978
21
0.23722587465230316
0
LINE
8
Polygon
10
-0.8240930946849978
20
0.23722587465230316
11
-0.8234395016822371
21
0.23739335575058915
0
LINE
8
Polygon
10
-0.8234395016822371
20
0.23739335575058915
11
-0.8227868606835057
21
0.2375645090687444
0
LINE
8
Polygon
10
-0.8227868606835057
20
0.2375645090687444
11
-0.8221351923210394
21
0.23773932919602145
0
LINE
8
Polygon
10
-0.8221351923210394
20
0.23773932919602145
11
-0.8214845171963256
21
0.2379178106057523
0
LINE
8
Polygon
10
-0.8214845171963256
20
0.2379178106057523
11
-0.8208348558794525
21
0.2380999476555232
0
LINE
8
Polygon
10
-0.8208348558794525
20
0.23809994765552317
11
-0.8201862289084576
21
0.23828573458735297
0
LINE
8
Polygon
10
-0.8201862289084576
20
0.23828573458735297
11
-0.8195386567886797
21
0.23847516552787504
0
LINE
8
Polygon
10
-0.8195386567886798
20
0.23847516552787504
11
-0.81889215999211
21
0.2386682344885232
0
LINE
8
Polygon
10
-0.81889215999211
20
0.2386682344885232
11
-0.8182467589567448
21
0.23886493536572084
0
LINE
8
Polygon
10
-0.8176024740859399
20
0.23906526194107386
11
-0.8171744023052305
21
0.23918927328993644
0
LINE
8
Polygon
10
-0.8171744023052305
20
0.23918927328993644
11
-0.8167412301753333
21
0.23929408822191978
0
LINE
8
Polygon
10
-0.8167412301753333
20
0.23929408822191978
11
-0.8163038180812033
21
0.23937949854913662
0
LINE
8
Polygon
10
-0.8163038180812034
20
0.23937949854913662
11
-0.8158630348293938
21
0.23944533462595308
0
LINE
8
Polygon
10
-0.8158630348293938
20
0.23944533462595308
11
-0.8154197559223947
21
0.23949146568594604
0
LINE
8
Polygon
10
-0.8154197559223947
20
0.23949146568594604
11
-0.8149748618196729
21
0.23951780010163712
0
LINE
8
Polygon
10
-0.8149748618196729
20
0.23951780010163712
11
-0.8145292361888661
21
0.23952428556648692
0
LINE
8
Polygon
10
-0.8145292361888661
20
0.23952428556648692
11
-0.8140837641506037
21
0.2395109091987886
0
LINE
8
Polygon
10
-0.8140837641506037
20
0.2395109091987886
11
-0.8136393305204437
21
0.2394776975672541
0
LINE
8
Polygon
10
-0.8136393305204437
20
0.2394776975672541
11
-0.8131968180514133
21
0.2394247166382421
0
LINE
8
Polygon
10
-0.8131968180514133
20
0.2394247166382421
11
-0.8127571056806475
21
0.23935207164473302
0
LINE
8
Polygon
10
-0.8127571056806475
20
0.23935207164473302
11
-0.8123210667836069
21
0.23925990687731055
0
LINE
8
Polygon
10
-0.8123210667836069
20
0.23925990687731055
11
-0.8118895674393419
21
0.23914840539756577
0
LINE
8
Polygon
10
-0.8118895674393419
20
0.23914840539756577
11
-0.8114634647102497
21
0.23901778867449225
0
LINE
8
Polygon
10
-0.8114634647102497
20
0.23901778867449225
11
-0.8110436049397398
21
0.23886831614459497
0
LINE
8
Polygon
10
-0.8110436049397398
20
0.23886831614459497
11
-0.8106308220711921
21
0.23870028469658644
0
LINE
8
Polygon
10
-0.8106308220711921
20
0.23870028469658644
11
-0.8102259359915411
21
0.23851402808169372
0
LINE
8
Polygon
10
-0.8102259359915411
20
0.23851402808169372
11
-0.8098297509027832
21
0.23830991625074746
0
LINE
8
Polygon
10
-0.8098297509027832
20
0.23830991625074746
11
-0.8094430537246351
21
0.23808835461936978
0
LINE
8
Polygon
10
-0.8094430537246351
20
0.23808835461936978
11
-0.8090666125315213
21
0.23784978326272047
0
LINE
8
Polygon
10
-0.8090666125315213
20
0.23784978326272047
11
-0.8087011750269915
21
0.23759467604140105
0
LINE
8
Polygon
10
-0.8087011750269915
20
0.23759467604140105
11
-0.8083474670585994
21
0.23732353966025246
0
LINE
8
Polygon
10
-0.8083474670585994
20
0.23732353966025246
11
-0.8080061911761944
21
0.23703691266191643
0
LINE
8
Polygon
10
-0.8080061911761944
20
0.23703691266191643
11
-0.8076780252364866
21
0.2367353643571591
0
LINE
8
Polygon
10
-0.8076780252364866
20
0.2367353643571591
11
-0.8073636210566584
21
0.23641949369408163
0
LINE
8
Polygon
10
-0.8073636210566584
20
0.23641949369408163
11
-0.8070636031196985
21
0.23608992806846407
0
LINE
8
Polygon
10
-0.8070636031196985
20
0.23608992806846407
11
-0.8067785673340262
21
0.2357473220776049
0
LINE
8
Polygon
10
-0.8067785673340262
20
0.2357473220776049
11
-0.8065090798498733
21
0.23539235622013227
0
LINE
8
Polygon
10
-0.8065090798498733
20
0.23539235622013227
11
-0.8062556759347718
21
0.23502573554436829
0
LINE
8
Polygon
10
-0.8062556759347718
20
0.23502573554436829
11
-0.8060188589103834
21
0.2346481882479322
0
LINE
8
Polygon
10
-0.8060188589103834
20
0.2346481882479322
11
-0.8057990991527799
21
0.23426046423136312
0
LINE
8
Polygon
10
-0.8057990991527799
20
0.23426046423136312
11
-0.8055968331581627
21
0.23386333360863568
0
LINE
8
Polygon
10
-0.8055968331581627
20
0.23386333360863568
11
-0.8054124626758751
21
0.23345758517752666
0
LINE
8
Polygon
10
-0.8054124626758751
20
0.23345758517752668
11
-0.8052463539104306
21
0.23304402485287146
0
LINE
8
Polygon
10
-0.8052463539104306
20
0.23304402485287146
11
-0.8050988367941423
21
0.23262347406582146
0
LINE
8
Polygon
10
-0.8050988367941423
20
0.23262347406582146
11
-0.8049702043317968
21
0.23219676813228254
0
LINE
8
Polygon
10
-0.8049702043317968
20
0.23219676813228254
11
-0.8048607120186758
21
0.231764754593775
0
LINE
8
Polygon
10
-0.8048607120186758
20
0.231764754593775
11
-0.8047705773330804
21
0.23132829153401047
0
LINE
8
Polygon
10
-0.8047705773330804
20
0.23132829153401047
11
-0.8046999793043668
21
0.23088824587452939
0
LINE
8
Polygon
10
-0.8046999793043668
20
0.2308882458745294
11
-0.8046490581573496
21
0.2304454916527846
0
LINE
8
Polygon
10
-0.8046490581573496
20
0.2304454916527846
11
-0.8046179150337825
21
0.23000090828609068
0
LINE
8
Polygon
10
-0.8046179150337825
20
0.23000090828609068
11
-0.8046066117914656
21
0.22955537882488805
0
LINE
8
Polygon
10
-0.8046066117914656
20
0.22955537882488805
11
-0.8046151708813808
21
0.22910978819879027
0
LINE
8
Polygon
10
-0.8046151708813808
20
0.22910978819879027
11
-0.8046435753030985
21
0.22866502145889928
0
LINE
8
Polygon
10
-0.8046435753030985
20
0.22866502145889928
11
-0.8046917686385453
21
0.22822196201987904
0
LINE
8
Polygon
10
-0.8046917686385453
20
0.22822196201987904
11
-0.8047596551640632
21
0.22778148990527985
0
LINE
8
Polygon
10
-0.8047596551640632
20
0.22778148990527985
11
-0.8048471000405406
21
0.22734447999959778
0
LINE
8
Polygon
10
-0.8049539295812351
20
0.226911800310542
11
-0.806031062012425
21
0.2219431964692106
0
LINE
8
Polygon
10
-0.806031062012425
20
0.2219431964692106
11
-0.8065980701784852
21
0.21689089598863392
0
LINE
8
Polygon
10
-0.8065980701784852
20
0.21689089598863392
11
-0.8066490918413168
21
0.21180713407482085
0
LINE
8
Polygon
10
-0.8066490918413168
20
0.21180713407482085
11
-0.8061835994932868
21
0.20674447121024656
0
LINE
8
Polygon
10
-0.8061835994932868
20
0.20674447121024656
11
-0.8052064058110734
21
0.20175524973652376
0
LINE
8
Polygon
10
-0.8052064058110734
20
0.20175524973652376
11
-0.803727613897906
21
0.19689105269241
0
LINE
8
Polygon
10
-0.803727613897906
20
0.19689105269241
11
-0.8017625128286381
21
0.19220217050216723
0
LINE
8
Polygon
10
-0.8017625128286381
20
0.19220217050216723
11
-0.7993314195776013
21
0.18773708102812778
0
LINE
8
Polygon
10
-0.7993314195776013
20
0.18773708102812778
11
-0.7964594689635349
21
0.18354194836314824
0
LINE
8
Polygon
10
-0.7964594689635349
20
0.18354194836314824
11
-0.7931763537833243
21
0.1796601455448839
0
LINE
8
Polygon
10
-0.7931763537833243
20
0.1796601455448839
11
-0.7895160178212809
21
0.17613180612649096
0
LINE
8
Polygon
10
-0.7895160178212809
20
0.17613180612649096
11
-0.7855163049079079
21
0.17299340924001974
0
LINE
8
Polygon
10
-0.7855163049079079
20
0.17299340924001974
11
-0.7812185676564973
21
0.17027740244248568
0
LINE
8
Polygon
10
-0.7812185676564973
20
0.17027740244248568
11
-0.776667239922787
21
0.16801186624397252
0
LINE
8
Polygon
10
-0.776667239922787
20
0.16801186624397252
11
-0.7719093774079766
21
0.1662202237861768
0
LINE
8
Polygon
10
-0.7719093774079766
20
0.1662202237861768
11
-0.7669941711547562
21
0.16492099867299675
0
LINE
8
Polygon
10
-0.7669941711547562
20
0.16492099867299675
11
-0.7619724389662633
21
0.16412762345693002
0
LINE
8
Polygon
10
-0.7619724389662633
20
0.16412762345693002
11
-0.7568961000061336
21
0.16384830076131876
0
LINE
8
Polygon
10
-0.7568961000061336
20
0.16384830076131876
11
-0.7518176380117008
21
0.16408591847428525
0
LINE
8
Polygon
10
-0.7518176380117008
20
0.16408591847428525
11
-0.746789558670128
21
0.16483801989115884
0
LINE
8
Polygon
10
-0.746789558670128
20
0.16483801989115884
11
-0.7418638467676025
21
0.1660968291140885
0
LINE
8
Polygon
10
-0.7418638467676025
20
0.1660968291140885
11
-0.7370914287240706
21
0.16784933144623684
0
LINE
8
Polygon
10
-0.7370914287240706
20
0.16784933144623684
11
-0.7325216460703108
21
0.1700774079493692
0
LINE
8
Polygon
10
-0.7325216460703108
20
0.1700774079493692
11
-0.72820174531101
21
0.17275802277365987
0
LINE
8
Polygon
10
-0.72820174531101
20
0.17275802277365987
11
-0.7241763894480954
21
0.17586346132293315
0
LINE
8
Polygon
10
-0.7241763894480954
20
0.17586346132293315
11
-0.7204871962146305
21
0.17936161679297324
0
LINE
8
Polygon
10
-0.7204871962146305
20
0.17936161679297324
11
-0.7171723077934287
21
0.18321632212041344
0
LINE
8
Polygon
10
-0.7171723077934287
20
0.18321632212041344
11
-0.714265996469015
21
0.1873877239102198
0
LINE
8
Polygon
10
-0.714265996469015
20
0.1873877239102198
11
-0.7117983102900639
21
0.19183269447577225
0
LINE
8
Polygon
10
-0.7117983102900639
20
0.19183269447577225
11
-0.7097947624057671
21
0.19650527773150392
0
LINE
8
Polygon
10
-0.7097947624057671
20
0.19650527773150392
11
-0.7082760672880541
21
0.2013571643280609
0
LINE
8
Polygon
10
-0.7082760672880541
20
0.2013571643280609
11
-0.7072579265668348
21
0.20633819111761034
0
LINE
8
Polygon
10
-0.7072579265668348
20
0.20633819111761034
11
-0.7067508666924902
21
0.21139685978537698
0
LINE
8
Polygon
10
-0.7067508666924902
20
0.21139685978537698
11
-0.7067601301040036
21
0.21648086928533086
0
LINE
8
Polygon
10
-0.7067601301040036
20
0.21648086928533086
11
-0.7072856210279328
21
0.2215376565752297
0
LINE
8
Polygon
10
-0.7072856210279328
20
0.2215376565752297
11
-0.7083219064686012
21
0.22651494006041245
0
LINE
8
Polygon
10
-0.7083219064686012
20
0.22651494006041245
11
-0.7098582723792719
21
0.231361260127736
0
LINE
8
Polygon
10
-0.7098582723792719
20
0.231361260127736
11
-0.7118788344335562
21
0.2360265111811308
0
LINE
8
Polygon
10
-0.7118788344335562
20
0.2360265111811308
11
-0.7143627022518009
21
0.24046245967811566
0
LINE
8
Polygon
10
-0.7143627022518009
20
0.24046245967811566
11
-0.7172841953845389
21
0.24462324281134656
0
LINE
8
Polygon
10
-0.7172841953845389
20
0.24462324281134656
11
-0.7206131088199684
21
0.24846584267938268
0
LINE
8
Polygon
10
-0.7206131088199684
20
0.24846584267938268
11
-0.7243150252704094
21
0.25195053104426823
0
LINE
8
Polygon
10
-0.7243150252704094
20
0.25195053104426823
11
-0.7283516710090399
21
0.25504128007762744
0
LINE
8
Polygon
10
-0.7283516710090399
20
0.25504128007762744
11
-0.7326813115779522
21
0.2577061348486125
0
LINE
8
Polygon
10
-0.7326813115779522
20
0.2577061348486125
11
-0.7372591832763472
21
0.2599175437025897
0
LINE
8
Polygon
10
-0.7372591832763472
20
0.2599175437025897
11
-0.7420379559677517
21
0.261652643114814
0
LINE
8
Polygon
10
-0.7420379559677517
20
0.261652643114814
11
-0.7469682224213477
21
0.26289349407401874
0
LINE
8
Polygon
10
-0.7519990091281623
20
0.2636272675519762
11
-0.7524416734666235
21
0.2636789642398889
0
LINE
8
Polygon
10
-0.7524416734666235
20
0.2636789642398889
11
-0.7528815947769185
21
0.263750333034433
0
LINE
8
Polygon
10
-0.7528815947769185
20
0.263750333034433
11
-0.7533178992685824
21
0.2638412321798656
0
LINE
8
Polygon
10
-0.7533178992685824
20
0.2638412321798656
11
-0.7537497203350292
21
0.263951481128428
0
LINE
8
Polygon
10
-0.7537497203350292
20
0.263951481128428
11
-0.7541762002748437
21
0.26408086089895744
0
LINE
8
Polygon
10
-0.7541762002748437
20
0.26408086089895744
11
-0.7545964919953837
21
0.2642291145118369
0
LINE
8
Polygon
10
-0.7545964919953837
20
0.2642291145118369
11
-0.7550097606953127
21
0.26439594749941875
0
LINE
8
Polygon
10
-0.7550097606953127
20
0.26439594749941875
11
-0.7554151855227164
21
0.26458102849090914
0
LINE
8
Polygon
10
-0.7554151855227164
20
0.26458102849090914
11
-0.755811961205515
21
0.2647839898705508
0
LINE
8
Polygon
10
-0.755811961205515
20
0.2647839898705508
11
-0.7561992996509286
21
0.26500442850779704
0
LINE
8
Polygon
10
-0.7561992996509286
20
0.26500442850779704
11
-0.7565764315108203
21
0.2652419065580269
0
LINE
8
Polygon
10
-0.7565764315108203
20
0.2652419065580269
11
-0.756942607709809
21
0.2654959523322106
0
LINE
8
Polygon
10
-0.756942607709809
20
0.2654959523322106
11
-0.757297100933114
21
0.2657660612337989
0
LINE
8
Polygon
10
-0.757297100933114
20
0.2657660612337989
11
-0.7576392070711793
21
0.26605169676097373
0
LINE
8
Polygon
10
-0.7576392070711793
20
0.2660516967609737
11
-0.7579682466182058
21
0.2663522915722712
0
LINE
8
Polygon
10
-0.7579682466182058
20
0.2663522915722712
11
-0.7582835660218147
21
0.26666724861345953
0
LINE
8
Polygon
10
-0.7582835660218147
20
0.26666724861345953
11
-0.7585845389811611
21
0.26699594230343354
0
LINE
8
Polygon
10
-0.7585845389811611
20
0.26699594230343354
11
-0.7588705676909192
21
0.2673377197767703
0
LINE
8
Polygon
10
-0.7588705676909192
20
0.2673377197767703
11
-0.7591410840286693
21
0.26769190218047867
0
LINE
8
Polygon
10
-0.7591410840286693
20
0.26769190218047867
11
-0.7593955506833264
21
0.26805778602236574
0
LINE
8
Polygon
10
-0.7593955506833264
20
0.26805778602236574
11
-0.7596334622223702
21
0.26843464456834315
0
LINE
8
Polygon
10
-0.7596334622223702
20
0.26843464456834315
11
-0.7598543460957571
21
0.2688217292858973
0
LINE
8
Polygon
10
-0.7598543460957571
20
0.2688217292858973
11
-0.7600577635745192
21
0.2692182713308566
0
LINE
8
Polygon
10
-0.7600577635745192
20
0.2692182713308566
11
-0.7602433106221862
21
0.26962348307450235
0
LINE
8
Polygon
10
-0.7602433106221862
20
0.26962348307450235
11
-0.7604106186973002
21
0.2700365596679908
0
LINE
8
Polygon
10
-0.7604106186973002
20
0.2700365596679908
11
-0.7605593554854282
21
0.27045668064097805
0
LINE
8
Polygon
10
-0.7605593554854282
20
0.27045668064097805
11
-0.7606892255592194
21
0.2708830115312732
0
LINE
8
Polygon
10
-0.7606892255592194
20
0.2708830115312732
11
-0.7607999709651954
21
0.2713147055422829
0
LINE
8
Polygon
10
-0.7607999709651954
20
0.2713147055422829
11
-0.7608913717361085
21
0.27175090522495454
0
LINE
8
Polygon
10
-0.7608913717361085
20
0.27175090522495454
11
-0.7609632463278504
21
0.2721907441808786
0
LINE
8
Polygon
10
-0.7609632463278504
20
0.2721907441808786
11
-0.761015451980042
21
0.2726333487831656
0
LINE
8
Polygon
10
-0.761015451980042
20
0.2726333487831656
11
-0.7610478849995906
21
0.2730778399116815
0
LINE
8
Polygon
10
-0.7610478849995906
20
0.2730778399116815
11
-0.7610604809666502
21
0.2735233346991933
0
LINE
8
Polygon
10
-0.7610604809666502
20
0.2735233346991933
11
-0.7610532148625737
21
0.2739689482849579
0
LINE
8
Polygon
10
-0.7610532148625737
20
0.2739689482849579
11
-0.7610261011196069
21
0.27441379557226975
0
LINE
8
Polygon
10
-0.7610261011196069
20
0.27441379557226975
11
-0.7609791935922222
21
0.2748569929864782
0
LINE
8
Polygon
10
-0.7609791935922222
20
0.2748569929864782
11
-0.7609125854501507
21
0.27529766022998076
0
LINE
8
Polygon
10
-0.7609125854501507
20
0.27529766022998076
11
-0.7608264089933244
21
0.27573492203070804
0
LINE
8
Polygon
10
-0.7608264089933244
20
0.27573492203070804
11
-0.7607208353890965
21
0.2761679098806262
0
LINE
8
Polygon
10
-0.7607208353890965
20
0.2761679098806262
11
-0.7605960743322615
21
0.2765957637608047
0
LINE
8
Polygon
10
-0.7605960743322615
20
0.2765957637608047
11
-0.7604523736285503
21
0.2770176338496227
0
LINE
8
Polygon
10
-0.7604523736285503
20
0.2770176338496227
11
-0.7602900187024283
21
0.27743268221072087
0
LINE
8
Polygon
10
-0.7602900187024283
20
0.27743268221072087
11
-0.7601093320301726
21
0.2778400844573464
0
LINE
8
Polygon
10
-0.7601093320301726
20
0.2778400844573464
11
-0.7599106724993563
21
0.27823903138978506
0
LINE
8
Polygon
10
-0.7599106724993563
20
0.27823903138978506
11
-0.7596944346960104
21
0.2786287306026282
0
LINE
8
Polygon
10
-0.7596944346960104
20
0.2786287306026282
11
-0.7594610481208807
21
0.27900840805868216
0
LINE
8
Polygon
10
-0.7594610481208807
20
0.27900840805868216
11
-0.7592109763363343
21
0.2793773096263939
0
LINE
8
Polygon
10
-0.7589447160456131
20
0.2797347025777394
11
-0.7585311613471014
21
0.28026781255033384
0
LINE
8
Polygon
10
-0.7585311613471014
20
0.28026781255033384
11
-0.7581206106294229
21
0.28080323933314777
0
LINE
8
Polygon
10
-0.7581206106294229
20
0.28080323933314777
11
-0.7577130768715039
21
0.2813409659994914
0
LINE
8
Polygon
10
-0.7577130768715039
20
0.2813409659994914
11
-0.7573085729568937
21
0.28188097554996777
0
LINE
8
Polygon
10
-0.7573085729568937
20
0.28188097554996777
11
-0.756907111673358
21
0.28242325091301007
0
LINE
8
Polygon
10
-0.756907111673358
20
0.28242325091301007
11
-0.7565087057124746
21
0.2829677749454212
0
LINE
8
Polygon
10
-0.7565087057124746
20
0.2829677749454212
11
-0.7561133676692318
21
0.28351453043291597
0
LINE
8
Polygon
10
-0.7561133676692318
20
0.28351453043291597
11
-0.7557211100416305
21
0.28406350009066517
0
LINE
8
Polygon
10
-0.7557211100416305
20
0.28406350009066517
11
-0.7553319452302889
21
0.284614666563842
0
LINE
8
Polygon
10
-0.7553319452302889
20
0.284614666563842
11
-0.7549458855380508
21
0.28516801242817075
0
LINE
8
Polygon
10
-0.7549458855380508
20
0.28516801242817075
11
-0.7545629431695963
21
0.28572352019047764
0
LINE
8
Polygon
10
-0.7545629431695963
20
0.28572352019047764
11
-0.7541831302310562
21
0.2862811722892437
0
LINE
8
Polygon
10
-0.7541831302310562
20
0.28628117228924377
11
-0.7538064587296293
21
0.2868409510951604
0
LINE
8
Polygon
10
-0.7538064587296293
20
0.2868409510951604
11
-0.7534329405732024
21
0.2874028389116863
0
LINE
8
Polygon
10
-0.7534329405732024
20
0.2874028389116863
11
-0.7530625875699747
21
0.28796681797560697
0
LINE
8
Polygon
10
-0.7530625875699747
20
0.28796681797560697
11
-0.7526954114280834
21
0.28853287045759657
0
LINE
8
Polygon
10
-0.7526954114280834
20
0.28853287045759657
11
-0.7523314237552345
21
0.28910097846278116
0
LINE
8
Polygon
10
-0.7523314237552345
20
0.28910097846278116
11
-0.7519706360583356
21
0.2896711240313047
0
LINE
8
Polygon
10
-0.7519706360583356
20
0.2896711240313047
11
-0.7516130597431315
21
0.29024328913889674
0
LINE
8
Polygon
10
-0.7516130597431315
20
0.29024328913889674
11
-0.7512587061138446
21
0.29081745569744216
0
LINE
8
Polygon
10
-0.7512587061138446
20
0.29081745569744216
11
-0.750907586372817
21
0.2913936055555532
0
LINE
8
Polygon
10
-0.750907586372817
20
0.2913936055555532
11
-0.7505597116201561
21
0.291971720499143
0
LINE
8
Polygon
10
-0.7505597116201561
20
0.291971720499143
11
-0.7502150928533844
21
0.2925517822520017
0
LINE
8
Polygon
10
-0.7502150928533844
20
0.2925517822520017
11
-0.7498737409670913
21
0.2931337724763739
0
LINE
8
Polygon
10
-0.7498737409670913
20
0.2931337724763739
11
-0.7495356667525886
21
0.2937176727735387
0
LINE
8
Polygon
10
-0.7495356667525886
20
0.2937176727735387
11
-0.7492008808975702
21
0.2943034646843912
0
LINE
8
Polygon
10
-0.7492008808975702
20
0.2943034646843912
11
-0.7488693939857728
21
0.29489112969002607
0
LINE
8
Polygon
10
-0.7488693939857728
20
0.29489112969002607
11
-0.7485412164966426
21
0.29548064921232275
0
LINE
8
Polygon
10
-0.7485412164966426
20
0.29548064921232275
11
-0.7482163588050036
21
0.29607200461453337
0
LINE
8
Polygon
10
-0.7482163588050036
20
0.2960720046145333
11
-0.7478948311807291
21
0.29666517720187124
0
LINE
8
Polygon
10
-0.7478948311807291
20
0.29666517720187124
11
-0.7475766437884178
21
0.2972601482221024
0
LINE
8
Polygon
10
-0.7475766437884178
20
0.2972601482221024
11
-0.7472618066870722
21
0.29785689886613803
0
LINE
8
Polygon
10
-0.7472618066870722
20
0.29785689886613803
11
-0.7469503298297803
21
0.29845541026862943
0
LINE
8
Polygon
10
-0.7469503298297803
20
0.29845541026862943
11
-0.7466422230634011
21
0.29905566350856416
0
LINE
8
Polygon
10
-0.7466422230634011
20
0.29905566350856416
11
-0.7463374961282538
21
0.29965763960986425
0
LINE
8
Polygon
10
-0.7463374961282538
20
0.29965763960986425
11
-0.7460361586578091
21
0.30026131954198615
0
LINE
8
Polygon
10
-0.7460361586578091
20
0.30026131954198615
11
-0.7457382201783852
21
0.3008666842205224
0
LINE
8
Polygon
10
-0.7457382201783852
20
0.3008666842205224
11
-0.7454436901088464
21
0.30147371450780475
0
LINE
8
Polygon
10
-0.7454436901088464
20
0.30147371450780475
11
-0.7451525777603052
21
0.3020823912135095
0
LINE
8
Polygon
10
-0.7451525777603052
20
0.3020823912135095
11
-0.7448648923358284
21
0.30269269509526375
0
LINE
8
Polygon
10
-0.7448648923358284
20
0.30269269509526375
11
-0.744580642930146
21
0.3033046068592542
0
LINE
8
Polygon
10
-0.744580642930146
20
0.3033046068592542
11
-0.7442998385293632
21
0.3039181071608366
0
LINE
8
Polygon
10
-0.7442998385293632
20
0.3039181071608366
11
-0.7440224880106769
21
0.3045331766051477
0
LINE
8
Polygon
10
-0.7440224880106769
20
0.3045331766051477
11
-0.743748600142095
21
0.3051497957477182
0
LINE
8
Polygon
10
-0.743748600142095
20
0.3051497957477182
11
-0.7434781835821587
21
0.30576794509508737
0
LINE
8
Polygon
10
-0.7434781835821587
20
0.30576794509508737
11
-0.7432112468796694
21
0.30638760510541957
0
LINE
8
Polygon
10
-0.7432112468796694
20
0.30638760510541957
11
-0.7429477984734183
21
0.3070087561891218
0
LINE
8
Polygon
10
-0.8253789819770276
20
-0.4656354761957346
11
-0.8494286626793437
21
0.23362430062909534
0
LINE
8
Polygon
10
-0.7426878466919193
20
0.30763137870946317
11
-0.4999999999999999
21
0.20710678118654757
0
LINE
8
Polygon
10
-0.4999999999999999
20
0.20710678118654757
11
-0.3096210175944698
21
-0.25250874012767227
0
LINE
8
Polygon
10
-0.3096210175944698
20
-0.25250874012767227
11
-0.4667554307749565
21
-0.3806583502903593
0
LINE
8
Polygon
10
-0.7704072764936242
20
-0.46374483124752847
11
-0.7702159106713706
21
-0.46373365364917685
0
LINE
8
Polygon
10
-0.7702159106713706
20
-0.46373365364917685
11
-0.7700253001059879
21
-0.4637133206957226
0
LINE
8
Polygon
10
-0.7700253001059879
20
-0.4637133206957226
11
-0.7698358825562813
21
-0.46368387908410197
0
LINE
8
Polygon
10
-0.7698358825562813
20
-0.46368387908410197
11
-0.76964809304116
21
-0.4636453964303188
0
LINE
8
Polygon
10
-0.76964809304116
20
-0.4636453964303188
11
-0.769462362840567
21
-0.46359796111415685
0
LINE
8
Polygon
10
-0.769462362840567
20
-0.46359796111415685
11
-0.7692791185049958
21
-0.46354168207620544
0
LINE
8
Polygon
10
-0.7692791185049958
20
-0.46354168207620544
11
-0.7690987808758684
21
-0.4634766885676651
0
LINE
8
Polygon
10
-0.7690987808758684
20
-0.4634766885676651
11
-0.7689217641190255
21
-0.4634031298535075
0
LINE
8
Polygon
10
-0.7689217641190255
20
-0.4634031298535075
11
-0.7687484747735476
21
-0.4633211748696716
0
LINE
8
Polygon
10
-0.7687484747735476
20
-0.4633211748696716
11
-0.7685793108180918
21
-0.46323101183508286
0
LINE
8
Polygon
10
-0.7685793108180918
20
-0.46323101183508286
11
-0.7684146607568887
21
-0.4631328478193873
0
LINE
8
Polygon
10
-0.7684146607568887
20
-0.4631328478193873
11
-0.768254902727498
21
-0.4630269082673924
0
LINE
8
Polygon
10
-0.768254902727498
20
-0.4630269082673924
11
-0.768100403632373
21
-0.46291343648130767
0
LINE
8
Polygon
10
-0.768100403632373
20
-0.46291343648130767
11
-0.7679515182962275
21
-0.4627926930619734
0
LINE
8
Polygon
10
-0.7679515182962275
20
-0.4627926930619734
11
-0.7678085886511403
21
-0.4626649553103613
0
LINE
8
Polygon
10
-0.7678085886511403
20
-0.4626649553103613
11
-0.7676719429512695
21
-0.46253051659072103
0
LINE
8
Polygon
10
-0.7676719429512695
20
-0.46253051659072103
11
-0.7675418950189795
21
-0.4623896856568365
0
LINE
8
Polygon
10
-0.7675418950189795
20
-0.4623896856568365
11
-0.7674187435241124
21
-0.4622427859429372
0
LINE
8
Polygon
10
-0.7674187435241124
20
-0.4622427859429372
11
-0.7673027712980588
21
-0.46209015482089505
0
LINE
8
Polygon
10
-0.7673027712980588
20
-0.46209015482089505
11
-0.767194244684203
21
-0.46193214282541145
0
LINE
8
Polygon
10
-0.767194244684203
20
-0.46193214282541145
11
-0.7670934129262362
21
-0.46176911284897465
0
LINE
8
Polygon
10
-0.7670934129262362
20
-0.46176911284897465
11
-0.7670005075957386
21
-0.46160143930843583
0
LINE
8
Polygon
10
-0.7670005075957386
20
-0.46160143930843583
11
-0.7669157420603502
21
-0.46142950728511845
0
LINE
8
Polygon
10
-0.7669157420603502
20
-0.46142950728511845
11
-0.7668393109937474
21
-0.4612537116404351
0
LINE
8
Polygon
10
-0.7668393109937474
20
-0.4612537116404351
11
-0.7667713899285523
21
-0.4610744561090436
0
LINE
8
Polygon
10
-0.7667713899285523
20
-0.4610744561090436
11
-0.7667121348532031
21
-0.4608921523716243
0
LINE
8
Polygon
10
-0.7667121348532031
20
-0.4608921523716243
11
-0.7666616818537081
21
-0.46070721910940887
0
LINE
8
Polygon
10
-0.7666616818537081
20
-0.46070721910940887
11
-0.7666201468011089
21
-0.4605200810426312
0
LINE
8
Polygon
10
-0.7666201468011089
20
-0.4605200810426312
11
-0.7665876250853698
21
-0.46033116795510926
0
LINE
8
Polygon
10
-0.7665876250853698
20
-0.46033116795510926
11
-0.7665641913963035
21
-0.4601409137071976
0
LINE
8
Polygon
10
-0.7665641913963035
20
-0.4601409137071976
11
-0.7665498995520375
21
-0.4599497552393779
0
LINE
8
Polygon
10
-0.7665498995520375
20
-0.4599497552393779
11
-0.7665447823754149
21
-0.45975813156877565
0
LINE
8
Polygon
10
-0.7665447823754149
20
-0.45975813156877565
11
-0.7665488516186127
21
-0.4595664827809071
0
LINE
8
Polygon
10
-0.7665488516186127
20
-0.4595664827809071
11
-0.7665620979361522
21
-0.45937524901897336
0
LINE
8
Polygon
10
-0.7665620979361522
20
-0.45937524901897336
11
-0.7665844909063607
21
-0.4591848694730213
0
LINE
8
Polygon
10
-0.7665844909063607
20
-0.4591848694730213
11
-0.7666159791012401
21
-0.4589957813712937
0
LINE
8
Polygon
10
-0.7666159791012401
20
-0.4589957813712937
11
-0.7666564902045755
21
-0.45880841897608526
0
LINE
8
Polygon
10
-0.7666564902045755
20
-0.45880841897608526
11
-0.7667059311780184
21
-0.4586232125864096
0
LINE
8
Polygon
10
-0.7667059311780184
20
-0.4586232125864096
11
-0.7667641884747599
21
-0.4584405875497688
0
LINE
8
Polygon
10
-0.7667641884747599
20
-0.4584405875497688
11
-0.7668311283003035
21
-0.45826096328529464
0
LINE
8
Polygon
10
-0.7668311283003035
20
-0.45826096328529464
11
-0.7669065969197395
21
-0.458084752320505
0
LINE
8
Polygon
10
-0.7669065969197395
20
-0.458084752320505
11
-0.7669904210108148
21
-0.45791235934388735
0
LINE
8
Polygon
10
-0.7669904210108148
20
-0.45791235934388735
11
-0.7670824080619868
21
-0.4577441802754859
0
LINE
8
Polygon
10
-0.7670824080619868
20
-0.4577441802754859
11
-0.7671823468145483
21
-0.4575806013576263
0
LINE
8
Polygon
10
-0.7671823468145483
20
-0.4575806013576263
11
-0.7672900077478072
21
-0.45742199826786595
0
LINE
8
Polygon
10
-0.7672900077478072
20
-0.45742199826786595
11
-0.7674051436062064
21
-0.45726873525620826
0
LINE
8
Polygon
10
-0.7674051436062064
20
-0.45726873525620826
11
-0.7675274899671746
21
-0.4571211643085609
0
LINE
8
Polygon
10
-0.7676567658484026
20
-0.45697962433836037
11
-0.7689148770593839
21
-0.45553406974912064
0
LINE
8
Polygon
10
-0.7689148770593839
20
-0.45553406974912064
11
-0.7700288610176739
21
-0.45397473924203063
0
LINE
8
Polygon
10
-0.7700288610176739
20
-0.45397473924203063
11
-0.7709884900363415
21
-0.4523159493107254
0
LINE
8
Polygon
10
-0.7709884900363415
20
-0.4523159493107254
11
-0.7717849535888981
21
-0.45057292960368883
0
LINE
8
Polygon
10
-0.7717849535888981
20
-0.45057292960368883
11
-0.7724109392003237
21
-0.44876168309811404
0
LINE
8
Polygon
10
-0.7724109392003237
20
-0.44876168309811404
11
-0.7728606995842151
21
-0.44689883917369344
0
LINE
8
Polygon
10
-0.7728606995842151
20
-0.44689883917369344
11
-0.773130105409655
21
-0.4450015009352953
0
LINE
8
Polygon
10
-0.773130105409655
20
-0.4450015009352953
11
-0.7732166832133414
21
-0.44308708818628384
0
LINE
8
Polygon
10
-0.7732166832133414
20
-0.44308708818628384
11
-0.7731196381088983
21
-0.44117317749417395
0
LINE
8
Polygon
10
-0.7731196381088983
20
-0.44117317749417395
11
-0.7728398610848711
21
-0.439277340817006
0
LINE
8
Polygon
10
-0.7728398610848711
20
-0.439277340817006
11
-0.7723799208244001
21
-0.43741698417204067
0
LINE
8
Polygon
10
-0.7723799208244001
20
-0.43741698417204067
11
-0.7717440401216791
21
-0.43560918782798647
0
LINE
8
Polygon
10
-0.7717440401216791
20
-0.4356091878279864
11
-0.7709380571117227
21
-0.4338705494879828
0
LINE
8
Polygon
10
-0.7709380571117227
20
-0.4338705494879828
11
-0.7699693716694002
21
-0.43221703190310473
0
LINE
8
Polygon
10
-0.7699693716694002
20
-0.43221703190310473
11
-0.7688468774698536
21
-0.4306638163154759
0
LINE
8
Polygon
10
-0.7688468774698536
20
-0.4306638163154759
11
-0.7675808803340682
21
-0.4292251630765569
0
LINE
8
Polygon
10
-0.7675808803340682
20
-0.4292251630765569
11
-0.7661830036092782
21
-0.4279142807202949
0
LINE
8
Polygon
10
-0.7661830036092782
20
-0.4279142807202949
11
-0.7646660814529259
21
-0.42674320469320004
0
LINE
8
Polygon
10
-0.7646660814529259
20
-0.42674320469320004
11
-0.7630440409999565
21
-0.4257226868547477
0
LINE
8
Polygon
10
-0.7630440409999565
20
-0.4257226868547477
11
-0.7613317744952884
21
-0.42486209676262443
0
LINE
8
Polygon
10
-0.7613317744952884
20
-0.42486209676262443
11
-0.7595450025654368
21
-0.4241693356491349
0
LINE
8
Polygon
10
-0.7595450025654368
20
-0.4241693356491349
11
-0.7577001298846158
21
-0.4236507638785679
0
LINE
8
Polygon
10
-0.7577001298846158
20
-0.4236507638785679
11
-0.7558140945604761
21
-0.42331114255154906
0
LINE
8
Polygon
10
-0.7558140945604761
20
-0.42331114255154906
11
-0.7539042126222948
21
-0.4231535897925197
0
LINE
8
Polygon
10
-0.7539042126222948
20
-0.4231535897925197
11
-0.7519880190393983
21
-0.4231795521216766
0
LINE
8
Polygon
10
-0.7519880190393983
20
-0.4231795521216766
11
-0.7500831067294575
21
-0.42338879117420974
0
LINE
8
Polygon
10
-0.7500831067294575
20
-0.42338879117420974
11
-0.7482069650347488
21
-0.42377938588877245
0
LINE
8
Polygon
10
-0.7482069650347488
20
-0.42377938588877245
11
-0.7463768191493593
21
-0.4243477501450911
0
LINE
8
Polygon
10
-0.7463768191493593
20
-0.4243477501450911
11
-0.7446094719715842
21
-0.42508866568877945
0
LINE
8
Polygon
10
-0.7446094719715842
20
-0.42508866568877945
11
-0.7429211498334976
21
-0.4259953300410706
0
LINE
8
Polygon
10
-0.7429211498334976
20
-0.4259953300410706
11
-0.7413273535240816
21
-0.42705941895359667
0
LINE
8
Polygon
10
-0.7413273535240816
20
-0.42705941895359667
11
-0.7398427159736968
21
-0.42827116283480926
0
LINE
8
Polygon
10
-0.7398427159736968
20
-0.42827116283480926
11
-0.7384808679065183
21
-0.42961943644635525
0
LINE
8
Polygon
10
-0.7384808679065183
20
-0.42961943644635525
11
-0.7372543126944082
21
-0.43109186104588965
0
LINE
8
Polygon
10
-0.7372543126944082
20
-0.43109186104588965
11
-0.7361743115612103
21
-0.4326749180385339
0
LINE
8
Polygon
10
-0.7361743115612103
20
-0.4326749180385339
11
-0.7352507801914306
21
-0.434354073093525
0
LINE
8
Polygon
10
-0.7352507801914306
20
-0.434354073093525
11
-0.7344921976925564
21
-0.43611390958651813
0
LINE
8
Polygon
10
-0.7344921976925564
20
-0.43611390958651813
11
-0.7339055287468452
21
-0.43793827014238607
0
LINE
8
Polygon
10
-0.7339055287468452
20
-0.43793827014238607
11
-0.7334961596673262
21
-0.43981040497898377
0
LINE
8
Polygon
10
-0.7334961596673262
20
-0.43981040497898377
11
-0.733267848945092
21
-0.44171312568990845
0
LINE
8
Polygon
10
-0.733267848945092
20
-0.44171312568990845
11
-0.7332226927419164
21
-0.44362896305434824
0
LINE
8
Polygon
10
-0.7332226927419164
20
-0.44362896305434824
11
-0.7333611056450164
21
-0.4455403274251379
0
LINE
8
Polygon
10
-0.7333611056450164
20
-0.4455403274251379
11
-0.7336818168606525
21
-0.4474296702224709
0
LINE
8
Polygon
10
-0.7336818168606525
20
-0.4474296702224709
11
-0.7341818818815145
21
-0.4492796450505643
0
LINE
8
Polygon
10
-0.7341818818815145
20
-0.4492796450505643
11
-0.7348567095207718
21
-0.4510732669580362
0
LINE
8
Polygon
10
-0.7348567095207718
20
-0.4510732669580362
11
-0.7357001040645859
21
-0.45279406837979685
0
LINE
8
Polygon
10
-0.7357001040645857
20
-0.45279406837979685
11
-0.7367043221560713
21
-0.4544262503287235
0
LINE
8
Polygon
10
-0.737860143888448
20
-0.4559548274490005
11
-0.7379793898133706
21
-0.4561049148436113
0
LINE
8
Polygon
10
-0.7379793898133706
20
-0.4561049148436113
11
-0.7380913082349234
21
-0.45626054287305595
0
LINE
8
Polygon
10
-0.7380913082349234
20
-0.45626054287305595
11
-0.7381956421197442
21
-0.4564213541198949
0
LINE
8
Polygon
10
-0.7381956421197442
20
-0.4564213541198949
11
-0.7382921518532205
21
-0.45658697926284125
0
LINE
8
Polygon
10
-0.7382921518532205
20
-0.45658697926284125
11
-0.7383806157897917
21
-0.4567570379249494
0
LINE
8
Polygon
10
-0.7383806157897917
20
-0.4567570379249494
11
-0.7384608307619833
21
-0.4569311395471934
0
LINE
8
Polygon
10
-0.7384608307619833
20
-0.4569311395471934
11
-0.7385326125470041
21
-0.45710888428543034
0
LINE
8
Polygon
10
-0.7385326125470041
20
-0.45710888428543034
11
-0.7385957962898347
21
-0.4572898639286878
0
LINE
8
Polygon
10
-0.7385957962898347
20
-0.4572898639286878
11
-0.7386502368818361
21
-0.4574736628366667
0
LINE
8
Polygon
10
-0.7386502368818361
20
-0.4574736628366667
11
-0.7386958092940071
21
-0.4576598588943065
0
LINE
8
Polygon
10
-0.7386958092940071
20
-0.4576598588943065
11
-0.7387324088641294
21
-0.4578480244812201
0
LINE
8
Polygon
10
-0.7387324088641294
20
-0.45784802448122014
11
-0.7387599515371344
21
-0.4580377274537731
0
LINE
8
Polygon
10
-0.7387599515371344
20
-0.4580377274537731
11
-0.7387783740581465
21
-0.4582285321375501
0
LINE
8
Polygon
10
-0.7387783740581465
20
-0.4582285321375501
11
-0.7387876341177544
21
-0.458420000327931
0
LINE
8
Polygon
10
-0.7387876341177544
20
-0.458420000327931
11
-0.7387877104491799
21
-0.4586116922964774
0
LINE
8
Polygon
10
-0.7387877104491799
20
-0.4586116922964774
11
-0.7387786028771193
21
-0.458803167800819
0
LINE
8
Polygon
10
-0.7387786028771193
20
-0.458803167800819
11
-0.7387603323181458
21
-0.45899398709571987
0
LINE
8
Polygon
10
-0.7387603323181458
20
-0.45899398709571987
11
-0.7387329407326725
21
-0.4591837119430039
0
LINE
8
Polygon
10
-0.7387329407326725
20
-0.4591837119430039
11
-0.7386964910285855
21
-0.45937190661801797
0
LINE
8
Polygon
10
-0.7386964910285855
20
-0.45937190661801797
11
-0.7386510669167686
21
-0.45955813891032343
0
LINE
8
Polygon
10
-0.7386510669167686
20
-0.45955813891032343
11
-0.7385967727188523
21
-0.45974198111631626
0
LINE
8
Polygon
10
-0.7385967727188523
20
-0.45974198111631626
11
-0.7385337331276264
21
-0.459923011021497
0
LINE
8
Polygon
10
-0.7385337331276264
20
-0.459923011021497
11
-0.7384620929206698
21
-0.4601008128701345
0
LINE
8
Polygon
10
-0.7384620929206698
20
-0.4601008128701345
11
-0.7383820166278515
21
-0.4602749783200957
0
LINE
8
Polygon
10
-0.7383820166278515
20
-0.4602749783200957
11
-0.7382936881534701
21
-0.4604451073806501
0
LINE
8
Polygon
10
-0.7382936881534701
20
-0.4604451073806501
11
-0.7381973103538956
21
-0.4606108093310939
0
LINE
8
Polygon
10
-0.7381973103538956
20
-0.4606108093310939
11
-0.7380931045716875
21
-0.46077170361808406
0
LINE
8
Polygon
10
-0.7380931045716875
20
-0.46077170361808406
11
-0.737981310127256
21
-0.4609274207296227
0
LINE
8
Polygon
10
-0.737981310127256
20
-0.4609274207296227
11
-0.737862183769236
21
-0.46107760304368317
0
LINE
8
Polygon
10
-0.737862183769236
20
-0.46107760304368317
11
-0.737735999084834
21
-0.4612219056495296
0
LINE
8
Polygon
10
-0.737735999084834
20
-0.4612219056495296
11
-0.7376030458715048
21
-0.4613599971398436
0
LINE
8
Polygon
10
-0.7376030458715048
20
-0.4613599971398436
11
-0.7374636294713983
21
-0.4614915603718388
0
LINE
8
Polygon
10
-0.7374636294713983
20
-0.4614915603718388
11
-0.7373180700701065
21
-0.4616162931956153
0
LINE
8
Polygon
10
-0.7373180700701065
20
-0.4616162931956153
11
-0.7371667019613214
21
-0.4617339091480813
0
LINE
8
Polygon
10
-0.7371667019613214
20
-0.4617339091480813
11
-0.7370098727790908
21
-0.4618441381108478
0
LINE
8
Polygon
10
-0.7370098727790908
20
-0.4618441381108478
11
-0.7368479426994382
21
-0.4619467269305865
0
LINE
8
Polygon
10
-0.7368479426994382
20
-0.4619467269305865
11
-0.7366812836131769
21
-0.462041440000425
0
LINE
8
Polygon
10
-0.7366812836131769
20
-0.462041440000425
11
-0.7365102782718208
21
-0.46212805980104477
0
LINE
8
Polygon
10
-0.7365102782718208
20
-0.46212805980104477
11
-0.7363353194085525
21
-0.46220638740023884
0
LINE
8
Polygon
10
-0.7363353194085525
20
-0.46220638740023884
11
-0.7361568088362658
21
-0.4622762429097824
0
LINE
8
Polygon
10
-0.7361568088362658
20
-0.4622762429097824
11
-0.7359751565247583
21
-0.46233746589856656
0
LINE
8
Polygon
10
-0.7359751565247583
20
-0.46233746589856656
11
-0.7357907796591879
21
-0.46238991576104616
0
LINE
8
Polygon
10
-0.7357907796591879
20
-0.46238991576104616
11
-0.7356041016819606
21
-0.462433472040157
0
LINE
8
Polygon
10
-0.7356041016819606
20
-0.462433472040157
11
-0.7354155513202462
21
-0.4624680347039587
0
LINE
8
Polygon
10
-0.7354155513202462
20
-0.4624680347039587
11
-0.7352255616013584
21
-0.4624935243753696
0
LINE
8
Polygon
10
-0.7352255616013584
20
-0.4624935243753696
11
-0.735034568858258
21
-0.46250988251446534
0
LINE
8
Polygon
10
-0.735034568858258
20
-0.46250988251446534
11
-0.7348430117274647
21
-0.46251707155292204
0
LINE
8
Polygon
10
-0.8253789819770276
20
-0.4656354761957346
11
-0.7704072764936242
21
-0.46374483124752847
0
LINE
8
Polygon
10
-0.6796796246582752
20
-0.4606244300320905
11
-0.7346513301416787
21
-0.4625150749802967
0
LINE
8
Polygon
10
-0.7676567658484026
20
-0.4569796243383603
11
-0.7676567658484026
21
-0.45697962433836037
0
LINE
8
Polygon
10
-0.737860143888448
20
-0.45595482744900057
11
-0.737860143888448
21
-0.4559548274490005
0
LINE
8
Polygon
10
-0.9737947291879736
20
-1.0431641075223868
11
1.0431641075223865
21
-0.9737947291879736
0
LINE
8
Polygon
10
1.0431641075223865
20
-0.9737947291879736
11
0.9737947291879736
21
1.0431641075223868
0
LINE
8
Polygon
10
0.9737947291879736
20
1.0431641075223868
11
-1.0431641075223865
21
0.9737947291879736
0
ENDSEC
0
EOF
