0
SECTION
2
ENTITIES
0
LINE
8
Polygon
10
-46.675543077495654
20
-38.06583502903593
11
-46.82647657012586
21
-37.88443476872581
0
LINE
8
Polygon
10
-46.82647657012586
20
-37.88443476872581
11
-46.98094795553814
21
-37.70603755819003
0
LINE
8
Polygon
10
-46.98094795553814
20
-37.70603755819003
11
-47.13889749731604
21
-37.530712386322755
0
LINE
8
Polygon
10
-47.13889749731604
20
-37.530712386322755
11
-47.30026411398755
21
-37.35852705401444
0
LINE
8
Polygon
10
-47.30026411398755
20
-37.35852705401444
11
-47.46498540264623
21
-37.18954814793217
0
LINE
8
Polygon
10
-47.46498540264623
20
-37.18954814793217
11
-47.63299766308332
21
-37.023841014769616
0
LINE
8
Polygon
10
-47.63299766308332
20
-37.023841014769616
11
-47.80423592242163
21
-36.86146973597647
0
LINE
8
Polygon
10
-47.80423592242163
20
-36.86146973597647
11
-47.97863396024148
21
-36.70249710297719
0
LINE
8
Polygon
10
-47.97863396024148
20
-36.70249710297719
11
-48.15612433418915
21
-36.546984592888606
0
LINE
8
Polygon
10
-48.15612433418915
20
-36.546984592888606
11
-48.33663840605787
21
-36.39499234474579
0
LINE
8
Polygon
10
-48.33663840605787
20
-36.39499234474579
11
-48.52010636833125
21
-36.24657913624536
0
LINE
8
Polygon
10
-48.52010636833125
20
-36.24657913624536
11
-48.70645727117887
21
-36.10180236101531
0
LINE
8
Polygon
10
-48.70645727117887
20
-36.10180236101531
11
-48.895619049893696
21
-35.96071800641998
0
LINE
8
Polygon
10
-48.895619049893696
20
-35.96071800641998
11
-49.08751855276055
21
-35.82338063190893
0
LINE
8
Polygon
10
-49.08751855276056
20
-35.82338063190893
11
-49.28208156934502
21
-35.689843347917936
0
LINE
8
Polygon
10
-49.28208156934502
20
-35.689843347917936
11
-49.47923285919169
21
-35.56015779533043
0
LINE
8
Polygon
10
-49.47923285919169
20
-35.56015779533043
11
-49.678896180920866
21
-35.434374125507176
0
LINE
8
Polygon
10
-49.678896180920866
20
-35.434374125507176
11
-49.880994321712166
21
-35.31254098089194
0
LINE
8
Polygon
10
-49.880994321712166
20
-35.31254098089194
11
-50.085449127163926
21
-35.19470547620079
0
LINE
8
Polygon
10
-50.085449127163926
20
-35.19470547620079
11
-50.2921815315167
21
-35.08091318020209
0
LINE
8
Polygon
10
-50.2921815315167
20
-35.08091318020208
11
-50.501111588229165
21
-34.971208098094344
0
LINE
8
Polygon
10
-50.501111588229165
20
-34.971208098094344
11
-50.71215850089463
21
-34.8656326544888
0
LINE
8
Polygon
10
-50.71215850089463
20
-34.8656326544888
11
-50.9252406544863
21
-34.76422767700311
0
LINE
8
Polygon
10
-50.9252406544863
20
-34.76422767700311
11
-51.14027564691895
21
-34.66703238047275
0
LINE
8
Polygon
10
-51.14027564691895
20
-34.66703238047275
11
-51.35718032091513
21
-34.57408435178603
0
LINE
8
Polygon
10
-51.35718032091513
20
-34.57408435178602
11
-51.57587079616328
21
-34.48541953534865
0
LINE
8
Polygon
10
-51.57587079616328
20
-34.48541953534865
11
-51.796262501755564
21
-34.40107221918351
0
LINE
8
Polygon
10
-51.796262501755564
20
-34.40107221918351
11
-52.01827020889267
21
-34.321075021670964
0
LINE
8
Polygon
10
-52.01827020889267
20
-34.321075021670964
11
-52.24180806384311
21
-34.24545887893483
0
LINE
8
Polygon
10
-52.24180806384311
20
-34.24545887893483
11
-52.46678962114414
21
-34.17425303287891
0
LINE
8
Polygon
10
-52.46678962114414
20
-34.17425303287891
11
-52.69312787703151
21
-34.107485019878695
0
LINE
8
Polygon
10
-52.69312787703151
20
-34.107485019878695
11
-52.920735303085166
21
-34.04518066013266
0
LINE
8
Polygon
10
-52.920735303085166
20
-34.04518066013266
11
-53.14952388007779
21
-33.98736404767718
0
LINE
8
Polygon
10
-53.1495238800778
20
-33.98736404767718
11
-53.37940513201316
21
-33.93405754106903
0
LINE
8
Polygon
10
-53.37940513201316
20
-33.93405754106903
11
-53.61029016034116
21
-33.88528175473895
0
LINE
8
Polygon
10
-53.61029016034116
20
-33.88528175473895
11
-53.84208967833618
21
-33.84105555101977
0
LINE
8
Polygon
10
-53.84208967833618
20
-33.84105555101977
11
-54.07471404562567
21
-33.80139603285206
0
LINE
8
Polygon
10
-54.07471404562568
20
-33.80139603285206
11
-54.30807330285543
21
-33.76631853717013
0
LINE
8
Polygon
10
-54.30807330285543
20
-33.76631853717013
11
-54.54207720647817
21
-33.73583662897106
0
LINE
8
Polygon
10
-54.54207720647817
20
-33.73583662897106
11
-54.77663526365214
21
-33.70996209606886
0
LINE
8
Polygon
10
-54.77663526365214
20
-33.70996209606886
11
-55.01165676723605
21
-33.688704944535964
0
LINE
8
Polygon
10
-55.01165676723605
20
-33.688704944535964
11
-55.24705083086688
21
-33.67207339483375
0
LINE
8
Polygon
10
-55.2470508308669
20
-33.67207339483375
11
-55.48272642410704
21
-33.66007387863353
0
LINE
8
Polygon
10
-55.48272642410704
20
-33.66007387863353
11
-55.71859240764714
21
-33.652711036329364
0
LINE
8
Polygon
10
-55.71859240764714
20
-33.652711036329364
11
-55.95455756855103
21
-33.64998771524349
0
LINE
8
Polygon
10
-55.95455756855103
20
-33.64998771524349
11
-56.19053065552916
21
-33.65190496852528
0
LINE
8
Polygon
10
-56.19053065552917
20
-33.65190496852528
11
-56.42642041422686
21
-33.65846205474397
0
LINE
8
Polygon
10
-56.42642041422686
20
-33.65846205474397
11
-56.662135622513745
21
-33.66965643817532
0
LINE
8
Polygon
10
-56.662135622513745
20
-33.66965643817532
11
-56.70667560582208
21
-33.671216094469685
0
LINE
8
Polygon
10
-56.70667560582208
20
-33.671216094469685
11
-56.751240847905535
21
-33.670789668735864
0
LINE
8
Polygon
10
-56.751240847905535
20
-33.670789668735864
11
-56.79574283137999
21
-33.66837800795885
0
LINE
8
Polygon
10
-56.79574283137999
20
-33.66837800795885
11
-56.840093164508254
21
-33.66398590228209
0
LINE
8
Polygon
10
-56.840093164508254
20
-33.66398590228209
11
-56.88420375676754
21
-33.65762207549318
0
LINE
8
Polygon
10
-56.88420375676754
20
-33.65762207549318
11
-56.92798699381858
21
-33.649299167696235
0
LINE
8
Polygon
10
-56.92798699381858
20
-33.649299167696235
11
-56.97135591152899
21
-33.639033710205624
0
LINE
8
Polygon
10
-56.97135591152899
20
-33.639033710205624
11
-57.01422436870512
21
-33.626846092710736
0
LINE
8
Polygon
10
-57.01422436870512
20
-33.626846092710736
11
-57.0565072181894
21
-33.612760522777144
0
LINE
8
Polygon
10
-57.0565072181894
20
-33.612760522777144
11
-57.09812047598318
21
-33.596804977764464
0
LINE
8
Polygon
10
-57.09812047598318
20
-33.596804977764464
11
-57.13898148805943
21
-33.57901114925655
0
LINE
8
Polygon
10
-57.13898148805943
20
-33.57901114925655
11
-57.1790090945336
21
-33.55941438011433
0
LINE
8
Polygon
10
-57.1790090945336
20
-33.55941438011433
11
-57.21812379086689
21
-33.53805359427631
0
LINE
8
Polygon
10
-57.21812379086689
20
-33.53805359427631
11
-57.25624788578158
21
-33.51497121944616
0
LINE
8
Polygon
10
-57.25624788578158
20
-33.51497121944616
11
-57.2933056555747
21
-33.490213102821016
0
LINE
8
Polygon
10
-57.2933056555747
20
-33.490213102821016
11
-57.32922349452371
21
-33.46382842002782
0
LINE
8
Polygon
10
-57.32922349452371
20
-33.46382842002782
11
-57.36393006108531
21
-33.43586957744862
0
LINE
8
Polygon
10
-57.36393006108531
20
-33.43586957744862
11
-57.39735641959709
21
-33.40639210812871
0
LINE
8
Polygon
10
-57.39735641959709
20
-33.40639210812871
11
-57.429436177200444
21
-33.37545456147462
0
LINE
8
Polygon
10
-57.429436177200444
20
-33.37545456147462
11
-57.460105615712905
21
-33.34311838696071
0
LINE
8
Polygon
10
-57.460105615712905
20
-33.34311838696071
11
-57.48930381818794
21
-33.309447812075646
0
LINE
8
Polygon
10
-57.48930381818794
20
-33.309447812075646
11
-57.516972789910746
21
-33.274509714751
0
LINE
8
Polygon
10
-57.516972789910746
20
-33.274509714751
11
-57.54305757358986
21
-33.238373490525476
0
LINE
8
Polygon
10
-57.54305757358986
20
-33.238373490525476
11
-57.56750635851567
21
-33.2011109147085
0
LINE
8
Polygon
10
-57.56750635851567
20
-33.2011109147085
11
-57.59027058346903
21
-33.16279599981708
0
LINE
8
Polygon
10
-57.59027058346903
20
-33.16279599981708
11
-57.611305033175654
21
-33.12350484856895
0
LINE
8
Polygon
10
-57.611305033175654
20
-33.12350484856895
11
-57.63056792811461
21
-33.083315502724126
0
LINE
8
Polygon
10
-57.63056792811461
20
-33.083315502724126
11
-57.64802100750257
21
-33.042307788075036
0
LINE
8
Polygon
10
-57.64802100750257
20
-33.042307788075036
11
-57.66362960528906
21
-33.00056315589311
0
LINE
8
Polygon
10
-57.66362960528906
20
-33.00056315589312
11
-57.67736271901157
21
-32.95816452114684
0
LINE
8
Polygon
10
-57.67736271901157
20
-32.95816452114684
11
-57.689193071374056
21
-32.91519609781245
0
LINE
8
Polygon
10
-57.689193071374056
20
-32.91519609781245
11
-57.699097164426185
21
-32.87174323160458
0
LINE
8
Polygon
10
-57.699097164426185
20
-32.87174323160458
11
-57.70705532623602
21
-32.82789223045897
0
LINE
8
Polygon
10
-57.70705532623602
20
-32.82789223045897
11
-57.71305174996323
21
-32.783730193103935
0
LINE
8
Polygon
10
-57.71305174996323
20
-32.783730193103935
11
-57.71707452525532
21
-32.73934483606117
0
LINE
8
Polygon
10
-57.71707452525532
20
-32.73934483606117
11
-57.719115661904475
21
-32.69482431941948
0
LINE
8
Polygon
10
-57.719115661904475
20
-32.69482431941948
11
-57.719171105718026
21
-32.650257071727395
0
LINE
8
Polygon
10
-57.719171105718026
20
-32.6502570717274
11
-57.71724074657113
21
-32.60573161435268
0
LINE
8
Polygon
10
-57.71724074657113
20
-32.60573161435268
11
-57.71332841862542
21
-32.56133638565737
0
LINE
8
Polygon
10
-57.71332841862542
20
-32.56133638565737
11
-57.7074418927135
21
-32.51715956533774
0
LINE
8
Polygon
10
-57.7074418927135
20
-32.51715956533774
11
-57.699592860904126
21
-32.47328889927807
0
LINE
8
Polygon
10
-57.699592860904126
20
-32.47328889927807
11
-57.68979691327899
21
-32.429811525265954
0
LINE
8
Polygon
10
-57.68979691327899
20
-32.429811525265954
11
-57.67807350696695
21
-32.38681379991558
0
LINE
8
Polygon
10
-57.67807350696695
20
-32.38681379991558
11
-57.66444592749753
21
-32.344381127142476
0
LINE
8
Polygon
10
-57.66444592749753
20
-32.344381127142476
11
-57.648941242550165
21
-32.3025977885307
0
LINE
8
Polygon
10
-57.648941242550165
20
-32.3025977885307
11
-57.63159024819123
21
-32.26154677592905
0
LINE
8
Polygon
10
-57.63159024819123
20
-32.26154677592905
11
-57.61242740770559
21
-32.221309626609234
0
LINE
8
Polygon
10
-57.61242740770559
20
-32.221309626609234
11
-57.59149078314412
21
-32.18196626131296
0
LINE
8
Polygon
10
-57.59149078314412
20
-32.18196626131296
11
-57.36557723009656
21
-31.726515440023135
0
LINE
8
Polygon
10
-57.36557723009656
20
-31.726515440023135
11
-57.18708203973437
21
-31.25047778281343
0
LINE
8
Polygon
10
-57.18708203973437
20
-31.25047778281343
11
-57.05785065515341
21
-30.75877499321037
0
LINE
8
Polygon
10
-57.05785065515341
20
-30.75877499321037
11
-56.97921918611642
21
-30.25649073490515
0
LINE
8
Polygon
10
-56.97921918611642
20
-30.25649073490515
11
-56.952000595153976
21
-29.748818072286642
0
LINE
8
Polygon
10
-56.952000595153976
20
-29.748818072286642
11
-56.97647629242996
21
-29.241005779892106
0
LINE
8
Polygon
10
-56.97647629242996
20
-29.241005779892106
11
-57.052393226271306
21
-28.738304075876425
0
LINE
8
Polygon
10
-57.052393226271306
20
-28.738304075876425
11
-57.178966499442794
21
-28.245910340556
0
LINE
8
Polygon
10
-57.178966499442794
20
-28.245910340556
11
-57.35488748411739
21
-27.7689153812375
0
LINE
8
Polygon
10
-57.35488748411739
20
-27.7689153812375
11
-57.57833735164248
21
-27.31225079889378
0
LINE
8
Polygon
10
-57.57833735164248
20
-27.31225079889378
11
-57.84700587721894
21
-26.88063800085748
0
LINE
8
Polygon
10
-57.84700587721894
20
-26.88063800085748
11
-58.1581153250736
21
-26.47853938668466
0
LINE
8
Polygon
10
-58.1581153250736
20
-26.47853938668466
11
-58.50844916717881
21
-26.110112211872664
0
LINE
8
Polygon
10
-58.50844916717881
20
-26.110112211872664
11
-58.894385338599065
21
-25.779165606430617
0
LINE
8
Polygon
10
-58.894385338599065
20
-25.779165606430617
11
-59.31193368564143
21
-25.489121192682767
0
LINE
8
Polygon
10
-59.31193368564143
20
-25.489121192682767
11
-59.756777219637016
21
-25.24297770947335
0
LINE
8
Polygon
10
-59.756777219637016
20
-25.24297770947335
11
-60.22431674983512
21
-25.04328000851946
0
LINE
8
Polygon
10
-60.22431674983512
20
-25.04328000851946
11
-60.70971843395518
21
-24.892092743455386
0
LINE
8
Polygon
10
-60.70971843395518
20
-24.892092743455386
11
-61.20796375477625
21
-24.79097902359479
0
LINE
8
Polygon
10
-61.20796375477625
20
-24.79097902359479
11
-61.71390140606149
21
-24.740984253107023
0
LINE
8
Polygon
10
-61.71390140606149
20
-24.740984253107023
11
-62.22230055137425
21
-24.74262532269284
0
LINE
8
Polygon
10
-62.22230055137425
20
-24.74262532269284
11
-62.72790490514877
21
-24.795885265505508
0
LINE
8
Polygon
10
-62.72790490514877
20
-24.795885265505508
11
-63.22548707687646
21
-24.90021343256927
0
LINE
8
Polygon
10
-63.22548707687646
20
-24.90021343256927
11
-63.7099026165496
21
-25.054531185881483
0
LINE
8
Polygon
10
-63.7099026165496
20
-25.054531185881483
11
-64.17614320259149
21
-25.257243050338076
0
LINE
8
Polygon
10
-64.17614320259149
20
-25.257243050338076
11
-64.61938842236924
21
-25.506253209183672
0
LINE
8
Polygon
10
-64.61938842236924
20
-25.506253209183672
11
-65.03505560993564
21
-25.798987172441745
0
LINE
8
Polygon
10
-65.03505560993564
20
-25.798987172441745
11
-65.41884722573278
21
-26.13241839429712
0
LINE
8
Polygon
10
-65.41884722573278
20
-26.13241839429712
11
-65.7667952884039
21
-26.5030995642364
0
LINE
8
Polygon
10
-65.7667952884039
20
-26.5030995642364
11
-66.07530239933743
21
-26.907198248430724
0
LINE
8
Polygon
10
-66.07530239933743
20
-26.907198248430724
11
-66.34117893579484
21
-27.340536512868052
0
LINE
8
Polygon
10
-66.34117893579484
20
-27.340536512868052
11
-66.56167602808632
21
-27.79863411857577
0
LINE
8
Polygon
10
-66.56167602808632
20
-27.79863411857577
11
-66.73451397984694
21
-28.276754842342626
0
LINE
8
Polygon
10
-66.73451397984694
20
-28.276754842342626
11
-66.85790583757873
21
-28.769955444034924
0
LINE
8
Polygon
10
-66.85790583757873
20
-28.769955444034924
11
-66.93057586577602
21
-29.273136774239
0
LINE
8
Polygon
10
-66.93057586577602
20
-29.273136774239
11
-66.9517727366213
21
-29.781096493833488
0
LINE
8
Polygon
10
-66.9517727366213
20
-29.781096493833488
11
-66.92127729788488
21
-30.2885828604291
0
LINE
8
Polygon
10
-66.92127729788488
20
-30.2885828604291
11
-66.83940483871689
21
-30.790349025583673
0
LINE
8
Polygon
10
-66.83940483871689
20
-30.790349025583673
11
-66.70700182990575
21
-31.281207281419203
0
LINE
8
Polygon
10
-66.70700182990575
20
-31.281207281419203
11
-66.52543717230522
21
-31.75608269579075
0
LINE
8
Polygon
10
-66.52543717230522
20
-31.75608269579075
11
-66.29658804391181
21
-32.21006558147887
0
LINE
8
Polygon
10
-66.29658804391181
20
-32.21006558147887
11
-66.02282049191777
21
-32.63846225693205
0
LINE
8
Polygon
10
-66.02282049191777
20
-32.63846225693205
11
-65.70696497039684
21
-33.036843573749096
0
LINE
8
Polygon
10
-65.70696497039684
20
-33.036843573749096
11
-65.3522870765357
21
-33.40109070918104
0
LINE
8
Polygon
10
-65.3522870765357
20
-33.40109070918104
11
-64.96245378796644
21
-33.72743775020854
0
LINE
8
Polygon
10
-64.96245378796644
20
-33.72743775020854
11
-64.54149555026835
21
-34.01251062892252
0
LINE
8
Polygon
10
-64.54149555026835
20
-34.01251062892252
11
-64.09376460661306
21
-34.25336200665926
0
LINE
8
Polygon
10
-64.09376460661306
20
-34.25336200665926
11
-63.62389000037759
21
-34.44750174622641
0
LINE
8
Polygon
10
-63.62389000037759
20
-34.44750174622641
11
-63.58223062029714
21
-34.4633364767949
0
LINE
8
Polygon
10
-63.58223062029714
20
-34.4633364767949
11
-63.54131814870484
21
-34.48101166587658
0
LINE
8
Polygon
10
-63.54131814870484
20
-34.48101166587658
11
-63.501233847696305
21
-34.500492206257185
0
LINE
8
Polygon
10
-63.501233847696305
20
-34.500492206257185
11
-63.46205733441942
21
-34.52173940485677
0
LINE
8
Polygon
10
-63.46205733441942
20
-34.52173940485677
11
-63.42386642293538
21
-34.544711059583456
0
LINE
8
Polygon
10
-63.42386642293538
20
-34.544711059583456
11
-63.38673696966106
21
-34.5693615431571
0
LINE
8
Polygon
10
-63.38673696966106
20
-34.5693615431571
11
-63.350742722699806
21
-34.595641893736115
0
LINE
8
Polygon
10
-63.350742722699806
20
-34.595641893736115
11
-63.31595517535975
21
-34.62349991216756
0
LINE
8
Polygon
10
-63.31595517535975
20
-34.62349991216756
11
-63.28244342415078
21
-34.65288026566734
0
LINE
8
Polygon
10
-63.28244342415078
20
-34.65288026566734
11
-63.25027403154212
21
-34.68372459772453
0
LINE
8
Polygon
10
-63.25027403154212
20
-34.68372459772453
11
-63.2195108937531
21
-34.71597164401156
0
LINE
8
Polygon
10
-63.2195108937531
20
-34.71597164401156
11
-63.190215113839784
21
-34.74955735407006
0
LINE
8
Polygon
10
-63.190215113839784
20
-34.74955735407006
11
-63.1624448803294
21
-34.7844150185306
0
LINE
8
Polygon
10
-63.1624448803294
20
-34.7844150185306
11
-63.136255351643925
21
-34.82047540161365
0
LINE
8
Polygon
10
-63.136255351643925
20
-34.82047540161365
11
-63.11169854654195
21
-34.857666878648686
0
LINE
8
Polygon
10
-63.11169854654195
20
-34.857666878648686
11
-63.08882324079691
21
-34.89591557833814
0
LINE
8
Polygon
10
-63.08882324079691
20
-34.89591557833814
11
-63.06767487031648
21
-34.935145529483755
0
LINE
8
Polygon
10
-63.06767487031648
20
-34.935145529483755
11
-63.04829544089592
21
-34.97527881188374
0
LINE
8
Polygon
10
-63.04829544089592
20
-34.97527881188374
11
-63.030723444784286
21
-35.016235711101295
0
LINE
8
Polygon
10
-63.030723444784286
20
-35.016235711101295
11
-63.01499378422953
21
-35.05793487679674
0
LINE
8
Polygon
10
-63.01499378422953
20
-35.05793487679674
11
-63.001137702154196
21
-35.10029348430909
0
LINE
8
Polygon
10
-63.001137702154196
20
-35.10029348430909
11
-62.98918272009932
21
-35.1432273991659
0
LINE
8
Polygon
10
-62.98918272009932
20
-35.1432273991659
11
-62.97915258356004
21
-35.18665134419473
0
LINE
8
Polygon
10
-62.97915258356004
20
-35.18665134419473
11
-62.97106721482123
21
-35.230479068904344
0
LINE
8
Polygon
10
-62.97106721482123
20
-35.230479068904344
11
-62.96494267338706
21
-35.27462352079906
0
LINE
8
Polygon
10
-62.96494267338706
20
-35.27462352079906
11
-62.960791124082874
21
-35.318997018286176
0
LINE
8
Polygon
10
-62.960791124082874
20
-35.318997018286176
11
-62.95862081289293
21
-35.36351142483285
0
LINE
8
Polygon
10
-62.95862081289293
20
-35.36351142483285
11
-62.958436050581845
21
-35.40807832402667
0
LINE
8
Polygon
10
-62.958436050581845
20
-35.40807832402667
11
-62.96023720413242
21
-35.45260919519209
0
LINE
8
Polygon
10
-62.96023720413242
20
-35.45260919519209
11
-62.96402069601667
21
-35.497015589213966
0
LINE
8
Polygon
10
-62.96402069601667
20
-35.497015589213966
11
-62.96977901130166
21
-35.54120930421896
0
LINE
8
Polygon
10
-62.96977901130166
20
-35.54120930421896
11
-62.97750071257605
21
-35.58510256076587
0
LINE
8
Polygon
10
-62.97750071257605
20
-35.58510256076587
11
-62.98717046266751
21
-35.6286081761969
0
LINE
8
Polygon
10
-62.98717046266751
20
-35.6286081761969
11
-62.99876905510607
21
-35.67163973780356
0
LINE
8
Polygon
10
-62.99876905510607
20
-35.67163973780356
11
-63.01227345227285
21
-35.71411177446329
0
LINE
8
Polygon
10
-63.01227345227285
20
-35.71411177446329
11
-63.02765683115838
21
-35.75593992640583
0
LINE
8
Polygon
10
-63.02765683115838
20
-35.75593992640583
11
-63.04488863663954
21
-35.797041112772206
0
LINE
8
Polygon
10
-63.04488863663954
20
-35.797041112772206
11
-63.063934642169514
21
-35.83733369663346
0
LINE
8
Polygon
10
-63.063934642169514
20
-35.83733369663346
11
-63.08475701775998
21
-35.87673764714142
0
LINE
8
Polygon
10
-63.08475701775998
20
-35.87673764714142
11
-63.107314405120654
21
-35.91517469848936
0
LINE
8
Polygon
10
-63.107314405120654
20
-35.91517469848936
11
-63.131561999806884
21
-35.95256850536692
0
LINE
8
Polygon
10
-63.131561999806884
20
-35.95256850536692
11
-63.15745164021217
21
-35.98884479460037
0
LINE
8
Polygon
10
-63.15745164021217
20
-35.98884479460037
11
-63.184931903228794
21
-36.02393151267717
0
LINE
8
Polygon
10
-63.184931903228794
20
-36.02393151267717
11
-63.21394820638656
21
-36.057758968861755
0
LINE
8
Polygon
10
-63.21394820638656
20
-36.057758968861755
11
-63.24444291626686
21
-36.09025997361823
0
LINE
8
Polygon
10
-63.24444291626686
20
-36.09025997361823
11
-63.27635546297661
21
-36.12136997206507
0
LINE
8
Polygon
10
-63.27635546297661
20
-36.12136997206507
11
-63.30962246045475
21
-36.1510271721968
0
LINE
8
Polygon
10
-63.30962246045475
20
-36.1510271721968
11
-63.34417783237236
21
-36.17917266761791
0
LINE
8
Polygon
10
-63.34417783237236
20
-36.17917266761791
11
-63.528987878165765
21
-36.32591128084556
0
LINE
8
Polygon
10
-63.528987878165765
20
-36.32591128084556
11
-63.710876703498855
21
-36.47625564840578
0
LINE
8
Polygon
10
-63.710876703498855
20
-36.47625564840578
11
-63.88977396921733
21
-36.63014762986222
0
LINE
8
Polygon
10
-63.88977396921733
20
-36.63014762986222
11
-64.06561049304813
21
-36.78752771286271
0
LINE
8
Polygon
10
-64.06561049304813
20
-36.78752771286271
11
-64.23831827635327
21
-36.94833503615354
0
LINE
8
Polygon
10
-64.23831827635327
20
-36.94833503615354
11
-64.40783053042598
21
-37.11250741311544
0
LINE
8
Polygon
10
-64.40783053042598
20
-37.11250741311544
11
-64.57408170231889
21
-37.27998135581212
0
LINE
8
Polygon
10
-64.57408170231889
20
-37.279981355812126
11
-64.7370075001943
21
-37.45069209954197
0
LINE
8
Polygon
10
-64.7370075001943
20
-37.45069209954197
11
-64.89654491818685
21
-37.62457362788355
0
LINE
8
Polygon
10
-64.89654491818685
20
-37.62457362788355
11
-65.05263226076885
21
-37.801558698225165
0
LINE
8
Polygon
10
-65.05263226076885
20
-37.801558698225165
11
-65.2052091666088
21
-37.981578867768576
0
LINE
8
Polygon
10
-65.20520916660881
20
-37.98157886776858
11
-65.35421663191414
21
-38.16456451999688
0
LINE
8
Polygon
10
-65.35421663191414
20
-38.16456451999688
11
-65.4995970332488
21
-38.35044489159622
0
LINE
8
Polygon
10
-65.4995970332488
20
-38.35044489159622
11
-65.6412941498171
21
-38.539148099821105
0
LINE
8
Polygon
10
-65.6412941498171
20
-38.539148099821105
11
-65.7792531852052
21
-38.73060117029249
0
LINE
8
Polygon
10
-65.7792531852052
20
-38.73060117029249
11
-65.91342078857166
21
-38.9247300652181
0
LINE
8
Polygon
10
-65.91342078857166
20
-38.92473006521811
11
-66.04374507527902
21
-39.12145971202394
0
LINE
8
Polygon
10
-66.04374507527902
20
-39.12145971202394
11
-66.17017564695843
21
-39.32071403238602
0
LINE
8
Polygon
10
-66.17017564695843
20
-39.32071403238602
11
-66.29266361099937
21
-39.52241597165097
0
LINE
8
Polygon
10
-66.29266361099937
20
-39.52241597165097
11
-66.41116159945723
21
-39.72648752863424
0
LINE
8
Polygon
10
-66.41116159945724
20
-39.726487528634244
11
-66.5256237873712
21
-39.93284978578434
0
LINE
8
Polygon
10
-66.5256237873712
20
-39.93284978578434
11
-66.63600591048541
21
-40.14142293970146
0
LINE
8
Polygon
10
-66.63600591048541
20
-40.14142293970146
11
-66.74226528236667
21
-40.352126331998626
0
LINE
8
Polygon
10
-66.74226528236667
20
-40.352126331998626
11
-66.84436081091194
21
-40.56487848049353
0
LINE
8
Polygon
10
-66.84436081091194
20
-40.56487848049353
11
-66.94225301423921
21
-40.779597110718925
0
LINE
8
Polygon
10
-66.94225301423921
20
-40.77959711071893
11
-67.03590403595582
21
-40.99619918773938
0
LINE
8
Polygon
10
-67.03590403595582
20
-40.99619918773938
11
-67.12527765979802
21
-41.21460094826216
0
LINE
8
Polygon
10
-67.12527765979802
20
-41.21460094826216
11
-67.21033932363638
21
-41.434717933029766
0
LINE
8
Polygon
10
-67.21033932363638
20
-41.434717933029766
11
-67.29105613284155
21
-41.65646501948158
0
LINE
8
Polygon
10
-67.29105613284155
20
-41.65646501948159
11
-67.367396873005
21
-41.87975645467208
0
LINE
8
Polygon
10
-67.367396873005
20
-41.87975645467208
11
-67.43933202201018
21
-42.10450588843275
0
LINE
8
Polygon
10
-67.43933202201018
20
-42.10450588843275
11
-67.5068337614491
21
-42.33062640676501
0
LINE
8
Polygon
10
-67.5068337614491
20
-42.33062640676501
11
-67.56987598738023
21
-42.55803056545123
0
LINE
8
Polygon
10
-67.56987598738023
20
-42.55803056545123
11
-67.62843432042318
21
-42.78663042387062
0
LINE
8
Polygon
10
-67.62843432042318
20
-42.786630423870626
11
-67.68248611518666
21
-43.0163375790073
0
LINE
8
Polygon
10
-67.68248611518666
20
-43.0163375790073
11
-67.73201046902571
21
-43.247063199637
0
LINE
8
Polygon
10
-67.73201046902571
20
-43.247063199637
11
-67.77698823012517
21
-43.47871806067949
0
LINE
8
Polygon
10
-67.77698823012517
20
-43.4787180606795
11
-67.81740200490589
21
-43.71121257770325
0
LINE
8
Polygon
10
-67.81740200490589
20
-43.71121257770325
11
-67.85323616475111
21
-43.9444568415691
0
LINE
8
Polygon
10
-67.85323616475111
20
-43.9444568415691
11
-67.88447685205033
21
-44.17836065319945
0
LINE
8
Polygon
10
-67.88447685205033
20
-44.17836065319945
11
-67.91111198555821
21
-44.41283355845964
0
LINE
8
Polygon
10
-67.91111198555821
20
-44.41283355845964
11
-67.93313126506655
21
-44.647784883137895
0
LINE
8
Polygon
10
-67.93313126506655
20
-44.647784883137895
11
-67.95052617538761
21
-44.88312376801045
0
LINE
8
Polygon
10
-67.95052617538761
20
-44.883123768010456
11
-67.96328998964698
21
-45.11875920397815
0
LINE
8
Polygon
10
-67.96328998964698
20
-45.11875920397815
11
-67.97141777188504
21
-45.35460006726106
0
LINE
8
Polygon
10
-67.97141777188504
20
-45.35460006726106
11
-67.9749063789657
21
-45.59055515463739
0
LINE
8
Polygon
10
-67.9749063789657
20
-45.5905551546374
11
-67.97375446179194
21
-45.826533218713195
0
LINE
8
Polygon
10
-67.97375446179194
20
-45.826533218713195
11
-67.96796246582753
21
-46.062443003209054
0
LINE
8
Polygon
10
-84.94286626793436
20
23.362430062909535
11
-84.87544191308481
21
23.364938785398746
0
LINE
8
Polygon
10
-84.87544191308481
20
23.364938785398746
11
-84.80803272944141
21
23.367826565850415
0
LINE
8
Polygon
10
-84.80803272944141
20
23.367826565850415
11
-84.74064084804127
21
23.371093312971823
0
LINE
8
Polygon
10
-84.74064084804127
20
23.371093312971823
11
-84.67326839937448
21
23.37473892348982
0
LINE
8
Polygon
10
-84.67326839937448
20
23.37473892348982
11
-84.60591751331684
21
23.378763282154058
0
LINE
8
Polygon
10
-84.60591751331684
20
23.378763282154058
11
-84.53859031906245
21
23.383166261740666
0
LINE
8
Polygon
10
-84.53859031906246
20
23.383166261740666
11
-84.47128894505647
21
23.38794772305625
0
LINE
8
Polygon
10
-84.47128894505647
20
23.38794772305625
11
-84.40401551892772
21
23.393107514942315
0
LINE
8
Polygon
10
-84.40401551892772
20
23.39310751494231
11
-84.33677216742156
21
23.39864547428001
0
LINE
8
Polygon
10
-84.33677216742156
20
23.39864547428001
11
-84.26956101633255
21
23.40456142599531
0
LINE
8
Polygon
10
-84.26956101633255
20
23.40456142599531
11
-84.2023841904373
21
23.410855183064566
0
LINE
8
Polygon
10
-84.2023841904373
20
23.410855183064566
11
-84.13524381342728
21
23.417526546520367
0
LINE
8
Polygon
10
-84.13524381342728
20
23.417526546520367
11
-84.06814200784169
21
23.424575305457886
0
LINE
8
Polygon
10
-84.06814200784169
20
23.424575305457886
11
-84.00108089500031
21
23.432001237041494
0
LINE
8
Polygon
10
-84.00108089500031
20
23.432001237041494
11
-83.93406259493656
21
23.439804106511858
0
LINE
8
Polygon
10
-83.93406259493656
20
23.439804106511858
11
-83.86708922633034
21
23.447983667193327
0
LINE
8
Polygon
10
-83.86708922633034
20
23.447983667193327
11
-83.80016290644112
21
23.456539660501736
0
LINE
8
Polygon
10
-83.80016290644112
20
23.456539660501736
11
-83.73328575104102
21
23.465471815952586
0
LINE
8
Polygon
10
-83.73328575104102
20
23.465471815952586
11
-83.6664598743479
21
23.474779851169597
0
LINE
8
Polygon
10
-83.6664598743479
20
23.474779851169597
11
-83.59968738895847
21
23.484463471893633
0
LINE
8
Polygon
10
-83.59968738895847
20
23.484463471893633
11
-83.53297040578164
21
23.494522371991998
0
LINE
8
Polygon
10
-83.53297040578164
20
23.494522371991998
11
-83.46631103397164
21
23.504956233468118
0
LINE
8
Polygon
10
-83.46631103397164
20
23.504956233468118
11
-83.39971138086142
21
23.515764726471595
0
LINE
8
Polygon
10
-83.39971138086142
20
23.515764726471595
11
-83.33317355189604
21
23.526947509308645
0
LINE
8
Polygon
10
-83.33317355189604
20
23.526947509308645
11
-83.26669965056604
21
23.53850422845288
0
LINE
8
Polygon
10
-83.26669965056604
20
23.53850422845288
11
-83.20029177834107
21
23.550434518556493
0
LINE
8
Polygon
10
-83.20029177834107
20
23.550434518556493
11
-83.13395203460324
21
23.562738002461813
0
LINE
8
Polygon
10
-83.13395203460324
20
23.56273800246181
11
-83.06768251658102
21
23.57541429121322
0
LINE
8
Polygon
10
-83.06768251658102
20
23.57541429121322
11
-83.00148531928271
21
23.58846298406945
0
LINE
8
Polygon
10
-83.00148531928272
20
23.58846298406945
11
-82.93536253543034
21
23.601883668516262
0
LINE
8
Polygon
10
-82.93536253543034
20
23.601883668516262
11
-82.86931625539349
21
23.615675920279465
0
LINE
8
Polygon
10
-82.86931625539349
20
23.615675920279465
11
-82.80334856712314
21
23.62983930333835
0
LINE
8
Polygon
10
-82.80334856712314
20
23.62983930333835
11
-82.73746155608575
21
23.644373369939466
0
LINE
8
Polygon
10
-82.73746155608575
20
23.644373369939466
11
-82.67165730519727
21
23.659277660610766
0
LINE
8
Polygon
10
-82.67165730519727
20
23.659277660610766
11
-82.60593789475736
21
23.674551704176157
0
LINE
8
Polygon
10
-82.60593789475736
20
23.674551704176157
11
-82.54030540238354
21
23.690195017770368
0
LINE
8
Polygon
10
-82.54030540238354
20
23.690195017770364
11
-82.47476190294554
21
23.706207106854233
0
LINE
8
Polygon
10
-82.47476190294554
20
23.706207106854233
11
-82.40930946849979
21
23.722587465230315
0
LINE
8
Polygon
10
-82.40930946849979
20
23.722587465230315
11
-82.34395016822371
21
23.739335575058913
0
LINE
8
Polygon
10
-82.34395016822371
20
23.739335575058913
11
-82.27868606835057
21
23.75645090687444
0
LINE
8
Polygon
10
-82.27868606835057
20
23.75645090687444
11
-82.21351923210393
21
23.773932919602146
0
LINE
8
Polygon
10
-82.21351923210393
20
23.773932919602146
11
-82.14845171963256
21
23.79178106057523
0
LINE
8
Polygon
10
-82.14845171963256
20
23.79178106057523
11
-82.08348558794525
21
23.809994765552318
0
LINE
8
Polygon
10
-82.08348558794525
20
23.809994765552318
11
-82.01862289084576
21
23.828573458735296
0
LINE
8
Polygon
10
-82.01862289084576
20
23.828573458735296
11
-81.95386567886797
21
23.847516552787503
0
LINE
8
Polygon
10
-81.95386567886797
20
23.847516552787503
11
-81.88921599921099
21
23.86682344885232
0
LINE
8
Polygon
10
-81.88921599921099
20
23.86682344885232
11
-81.82467589567449
21
23.886493536572083
0
LINE
8
Polygon
10
-81.82467589567449
20
23.886493536572083
11
-81.76024740859398
21
23.906526194107393
0
LINE
8
Polygon
10
-81.76024740859398
20
23.906526194107386
11
-81.71744023052305
21
23.918927328993643
0
LINE
8
Polygon
10
-81.71744023052305
20
23.918927328993643
11
-81.67412301753333
21
23.929408822191977
0
LINE
8
Polygon
10
-81.67412301753333
20
23.929408822191977
11
-81.63038180812033
21
23.93794985491366
0
LINE
8
Polygon
10
-81.63038180812035
20
23.93794985491366
11
-81.58630348293939
21
23.94453346259531
0
LINE
8
Polygon
10
-81.58630348293939
20
23.94453346259531
11
-81.54197559223947
21
23.949146568594603
0
LINE
8
Polygon
10
-81.54197559223947
20
23.949146568594603
11
-81.49748618196729
21
23.951780010163713
0
LINE
8
Polygon
10
-81.49748618196729
20
23.951780010163713
11
-81.45292361888662
21
23.95242855664869
0
LINE
8
Polygon
10
-81.45292361888662
20
23.95242855664869
11
-81.40837641506037
21
23.951090919878858
0
LINE
8
Polygon
10
-81.40837641506037
20
23.951090919878858
11
-81.36393305204437
21
23.94776975672541
0
LINE
8
Polygon
10
-81.36393305204437
20
23.94776975672541
11
-81.31968180514133
21
23.94247166382421
0
LINE
8
Polygon
10
-81.31968180514133
20
23.94247166382421
11
-81.27571056806475
21
23.9352071644733
0
LINE
8
Polygon
10
-81.27571056806475
20
23.9352071644733
11
-81.2321066783607
21
23.925990687731055
0
LINE
8
Polygon
10
-81.2321066783607
20
23.925990687731055
11
-81.1889567439342
21
23.914840539756575
0
LINE
8
Polygon
10
-81.1889567439342
20
23.914840539756575
11
-81.14634647102497
21
23.901778867449224
0
LINE
8
Polygon
10
-81.14634647102497
20
23.901778867449224
11
-81.10436049397399
21
23.886831614459496
0
LINE
8
Polygon
10
-81.10436049397399
20
23.886831614459496
11
-81.06308220711921
21
23.870028469658642
0
LINE
8
Polygon
10
-81.06308220711921
20
23.870028469658642
11
-81.0225935991541
21
23.85140280816937
0
LINE
8
Polygon
10
-81.0225935991541
20
23.85140280816937
11
-80.98297509027832
21
23.830991625074745
0
LINE
8
Polygon
10
-80.98297509027832
20
23.830991625074745
11
-80.9443053724635
21
23.80883546193698
0
LINE
8
Polygon
10
-80.9443053724635
20
23.80883546193698
11
-80.90666125315214
21
23.784978326272046
0
LINE
8
Polygon
10
-80.90666125315214
20
23.784978326272046
11
-80.87011750269915
21
23.759467604140106
0
LINE
8
Polygon
10
-80.87011750269915
20
23.759467604140106
11
-80.83474670585994
21
23.732353966025247
0
LINE
8
Polygon
10
-80.83474670585994
20
23.732353966025247
11
-80.80061911761945
21
23.703691266191644
0
LINE
8
Polygon
10
-80.80061911761945
20
23.703691266191644
11
-80.76780252364865
21
23.67353643571591
0
LINE
8
Polygon
10
-80.76780252364865
20
23.67353643571591
11
-80.73636210566583
21
23.641949369408163
0
LINE
8
Polygon
10
-80.73636210566583
20
23.641949369408163
11
-80.70636031196985
21
23.60899280684641
0
LINE
8
Polygon
10
-80.70636031196985
20
23.60899280684641
11
-80.67785673340262
21
23.57473220776049
0
LINE
8
Polygon
10
-80.67785673340262
20
23.57473220776049
11
-80.65090798498733
21
23.539235622013226
0
LINE
8
Polygon
10
-80.65090798498733
20
23.539235622013226
11
-80.62556759347717
21
23.50257355443683
0
LINE
8
Polygon
10
-80.62556759347717
20
23.50257355443683
11
-80.60188589103834
21
23.46481882479322
0
LINE
8
Polygon
10
-80.60188589103834
20
23.46481882479322
11
-80.579909915278
21
23.426046423136313
0
LINE
8
Polygon
10
-80.579909915278
20
23.426046423136313
11
-80.55968331581627
21
23.386333360863567
0
LINE
8
Polygon
10
-80.55968331581627
20
23.386333360863567
11
-80.54124626758751
21
23.345758517752664
0
LINE
8
Polygon
10
-80.54124626758751
20
23.345758517752667
11
-80.52463539104306
21
23.304402485287145
0
LINE
8
Polygon
10
-80.52463539104306
20
23.304402485287145
11
-80.50988367941423
21
23.262347406582144
0
LINE
8
Polygon
10
-80.50988367941423
20
23.262347406582144
11
-80.49702043317967
21
23.219676813228254
0
LINE
8
Polygon
10
-80.49702043317967
20
23.219676813228254
11
-80.48607120186759
21
23.1764754593775
0
LINE
8
Polygon
10
-80.48607120186759
20
23.1764754593775
11
-80.47705773330804
21
23.132829153401048
0
LINE
8
Polygon
10
-80.47705773330804
20
23.132829153401048
11
-80.46999793043668
21
23.08882458745294
0
LINE
8
Polygon
10
-80.46999793043668
20
23.08882458745294
11
-80.46490581573495
21
23.04454916527846
0
LINE
8
Polygon
10
-80.46490581573495
20
23.04454916527846
11
-80.46179150337825
21
23.000090828609068
0
LINE
8
Polygon
10
-80.46179150337825
20
23.000090828609068
11
-80.46066117914657
21
22.955537882488805
0
LINE
8
Polygon
10
-80.46066117914657
20
22.955537882488805
11
-80.46151708813808
21
22.910978819879027
0
LINE
8
Polygon
10
-80.46151708813808
20
22.910978819879027
11
-80.46435753030985
21
22.86650214588993
0
LINE
8
Polygon
10
-80.46435753030985
20
22.86650214588993
11
-80.46917686385453
21
22.822196201987904
0
LINE
8
Polygon
10
-80.46917686385453
20
22.822196201987904
11
-80.47596551640632
21
22.778148990527985
0
LINE
8
Polygon
10
-80.47596551640632
20
22.778148990527985
11
-80.48471000405407
21
22.734447999959777
0
LINE
8
Polygon
10
-80.48471000405407
20
22.734447999959777
11
-80.49539295812352
21
22.691180031054202
0
LINE
8
Polygon
10
-80.49539295812352
20
22.691180031054202
11
-80.6031062012425
21
22.19431964692106
0
LINE
8
Polygon
10
-80.6031062012425
20
22.19431964692106
11
-80.65980701784852
21
21.689089598863394
0
LINE
8
Polygon
10
-80.65980701784852
20
21.689089598863394
11
-80.66490918413169
21
21.180713407482084
0
LINE
8
Polygon
10
-80.66490918413169
20
21.180713407482084
11
-80.61835994932868
21
20.674447121024656
0
LINE
8
Polygon
10
-80.61835994932868
20
20.674447121024656
11
-80.52064058110734
21
20.175524973652376
0
LINE
8
Polygon
10
-80.52064058110734
20
20.175524973652376
11
-80.3727613897906
21
19.689105269241
0
LINE
8
Polygon
10
-80.3727613897906
20
19.689105269241
11
-80.1762512828638
21
19.22021705021672
0
LINE
8
Polygon
10
-80.1762512828638
20
19.22021705021672
11
-79.93314195776013
21
18.773708102812776
0
LINE
8
Polygon
10
-79.93314195776013
20
18.773708102812776
11
-79.6459468963535
21
18.354194836314825
0
LINE
8
Polygon
10
-79.6459468963535
20
18.354194836314825
11
-79.31763537833243
21
17.966014554488392
0
LINE
8
Polygon
10
-79.31763537833243
20
17.966014554488392
11
-78.9516017821281
21
17.613180612649096
0
LINE
8
Polygon
10
-78.9516017821281
20
17.613180612649096
11
-78.55163049079079
21
17.299340924001974
0
LINE
8
Polygon
10
-78.55163049079079
20
17.299340924001974
11
-78.12185676564974
21
17.02774024424857
0
LINE
8
Polygon
10
-78.12185676564974
20
17.02774024424857
11
-77.66672399227869
21
16.801186624397253
0
LINE
8
Polygon
10
-77.66672399227869
20
16.801186624397253
11
-77.19093774079766
21
16.62202237861768
0
LINE
8
Polygon
10
-77.19093774079766
20
16.62202237861768
11
-76.69941711547563
21
16.492099867299675
0
LINE
8
Polygon
10
-76.69941711547563
20
16.492099867299675
11
-76.19724389662633
21
16.412762345693004
0
LINE
8
Polygon
10
-76.19724389662633
20
16.412762345693004
11
-75.68961000061336
21
16.384830076131877
0
LINE
8
Polygon
10
-75.68961000061336
20
16.384830076131877
11
-75.18176380117008
21
16.408591847428525
0
LINE
8
Polygon
10
-75.18176380117008
20
16.408591847428525
11
-74.6789558670128
21
16.483801989115886
0
LINE
8
Polygon
10
-74.6789558670128
20
16.483801989115886
11
-74.18638467676026
21
16.60968291140885
0
LINE
8
Polygon
10
-74.18638467676026
20
16.60968291140885
11
-73.70914287240706
21
16.784933144623686
0
LINE
8
Polygon
10
-73.70914287240706
20
16.784933144623686
11
-73.25216460703108
21
17.00774079493692
0
LINE
8
Polygon
10
-73.25216460703108
20
17.00774079493692
11
-72.820174531101
21
17.275802277365987
0
LINE
8
Polygon
10
-72.820174531101
20
17.275802277365987
11
-72.41763894480954
21
17.586346132293315
0
LINE
8
Polygon
10
-72.41763894480954
20
17.586346132293315
11
-72.04871962146305
21
17.936161679297324
0
LINE
8
Polygon
10
-72.04871962146305
20
17.936161679297324
11
-71.71723077934287
21
18.321632212041344
0
LINE
8
Polygon
10
-71.71723077934287
20
18.321632212041344
11
-71.42659964690151
21
18.73877239102198
0
LINE
8
Polygon
10
-71.42659964690151
20
18.73877239102198
11
-71.1798310290064
21
19.183269447577224
0
LINE
8
Polygon
10
-71.1798310290064
20
19.183269447577224
11
-70.97947624057672
21
19.65052777315039
0
LINE
8
Polygon
10
-70.97947624057672
20
19.65052777315039
11
-70.82760672880542
21
20.13571643280609
0
LINE
8
Polygon
10
-70.82760672880542
20
20.13571643280609
11
-70.72579265668348
21
20.633819111761035
0
LINE
8
Polygon
10
-70.72579265668348
20
20.633819111761035
11
-70.67508666924903
21
21.1396859785377
0
LINE
8
Polygon
10
-70.67508666924903
20
21.1396859785377
11
-70.67601301040037
21
21.648086928533086
0
LINE
8
Polygon
10
-70.67601301040037
20
21.648086928533086
11
-70.72856210279328
21
22.15376565752297
0
LINE
8
Polygon
10
-70.72856210279328
20
22.15376565752297
11
-70.83219064686011
21
22.651494006041244
0
LINE
8
Polygon
10
-70.83219064686011
20
22.651494006041244
11
-70.9858272379272
21
23.1361260127736
0
LINE
8
Polygon
10
-70.9858272379272
20
23.1361260127736
11
-71.18788344335562
21
23.60265111811308
0
LINE
8
Polygon
10
-71.18788344335562
20
23.60265111811308
11
-71.43627022518008
21
24.046245967811565
0
LINE
8
Polygon
10
-71.43627022518008
20
24.046245967811565
11
-71.72841953845389
21
24.462324281134656
0
LINE
8
Polygon
10
-71.72841953845389
20
24.462324281134656
11
-72.06131088199685
21
24.84658426793827
0
LINE
8
Polygon
10
-72.06131088199685
20
24.84658426793827
11
-72.43150252704093
21
25.195053104426822
0
LINE
8
Polygon
10
-72.43150252704093
20
25.195053104426822
11
-72.83516710090399
21
25.504128007762745
0
LINE
8
Polygon
10
-72.83516710090399
20
25.504128007762745
11
-73.26813115779522
21
25.77061348486125
0
LINE
8
Polygon
10
-73.26813115779522
20
25.77061348486125
11
-73.72591832763472
21
25.991754370258967
0
LINE
8
Polygon
10
-73.72591832763472
20
25.991754370258967
11
-74.20379559677517
21
26.1652643114814
0
LINE
8
Polygon
10
-74.20379559677517
20
26.1652643114814
11
-74.69682224213477
21
26.289349407401875
0
LINE
8
Polygon
10
-74.69682224213477
20
26.289349407401875
11
-75.19990091281622
21
26.36272675519762
0
LINE
8
Polygon
10
-75.19990091281623
20
26.36272675519762
11
-75.24416734666235
21
26.36789642398889
0
LINE
8
Polygon
10
-75.24416734666235
20
26.36789642398889
11
-75.28815947769185
21
26.375033303443303
0
LINE
8
Polygon
10
-75.28815947769185
20
26.375033303443303
11
-75.33178992685824
21
26.38412321798656
0
LINE
8
Polygon
10
-75.33178992685824
20
26.38412321798656
11
-75.37497203350291
21
26.395148112842797
0
LINE
8
Polygon
10
-75.37497203350291
20
26.395148112842797
11
-75.41762002748436
21
26.408086089895743
0
LINE
8
Polygon
10
-75.41762002748436
20
26.408086089895743
11
-75.45964919953838
21
26.42291145118369
0
LINE
8
Polygon
10
-75.45964919953838
20
26.42291145118369
11
-75.50097606953126
21
26.439594749941875
0
LINE
8
Polygon
10
-75.50097606953126
20
26.439594749941875
11
-75.54151855227164
21
26.458102849090913
0
LINE
8
Polygon
10
-75.54151855227164
20
26.458102849090913
11
-75.5811961205515
21
26.47839898705508
0
LINE
8
Polygon
10
-75.5811961205515
20
26.47839898705508
11
-75.61992996509287
21
26.500442850779706
0
LINE
8
Polygon
10
-75.61992996509287
20
26.500442850779706
11
-75.65764315108203
21
26.524190655802688
0
LINE
8
Polygon
10
-75.65764315108203
20
26.524190655802688
11
-75.6942607709809
21
26.549595233221062
0
LINE
8
Polygon
10
-75.6942607709809
20
26.549595233221062
11
-75.7297100933114
21
26.576606123379893
0
LINE
8
Polygon
10
-75.7297100933114
20
26.576606123379893
11
-75.76392070711793
21
26.605169676097372
0
LINE
8
Polygon
10
-75.76392070711793
20
26.60516967609737
11
-75.79682466182058
21
26.63522915722712
0
LINE
8
Polygon
10
-75.79682466182058
20
26.63522915722712
11
-75.82835660218147
21
26.66672486134595
0
LINE
8
Polygon
10
-75.82835660218147
20
26.66672486134595
11
-75.85845389811611
21
26.699594230343354
0
LINE
8
Polygon
10
-75.85845389811611
20
26.699594230343354
11
-75.88705676909193
21
26.73377197767703
0
LINE
8
Polygon
10
-75.88705676909193
20
26.73377197767703
11
-75.91410840286693
21
26.769190218047868
0
LINE
8
Polygon
10
-75.91410840286693
20
26.769190218047868
11
-75.93955506833264
21
26.805778602236575
0
LINE
8
Polygon
10
-75.93955506833264
20
26.805778602236575
11
-75.96334622223702
21
26.843464456834315
0
LINE
8
Polygon
10
-75.96334622223702
20
26.843464456834315
11
-75.9854346095757
21
26.882172928589732
0
LINE
8
Polygon
10
-75.9854346095757
20
26.882172928589732
11
-76.00577635745192
21
26.921827133085657
0
LINE
8
Polygon
10
-76.00577635745192
20
26.921827133085657
11
-76.02433106221862
21
26.962348307450235
0
LINE
8
Polygon
10
-76.02433106221862
20
26.962348307450235
11
-76.04106186973002
21
27.00365596679908
0
LINE
8
Polygon
10
-76.04106186973002
20
27.00365596679908
11
-76.05593554854282
21
27.045668064097804
0
LINE
8
Polygon
10
-76.05593554854282
20
27.045668064097804
11
-76.06892255592193
21
27.08830115312732
0
LINE
8
Polygon
10
-76.06892255592193
20
27.08830115312732
11
-76.07999709651953
21
27.131470554228287
0
LINE
8
Polygon
10
-76.07999709651953
20
27.131470554228287
11
-76.08913717361085
21
27.175090522495456
0
LINE
8
Polygon
10
-76.08913717361085
20
27.175090522495456
11
-76.09632463278504
21
27.219074418087857
0
LINE
8
Polygon
10
-76.09632463278504
20
27.219074418087857
11
-76.10154519800419
21
27.26333487831656
0
LINE
8
Polygon
10
-76.10154519800419
20
27.26333487831656
11
-76.10478849995907
21
27.30778399116815
0
LINE
8
Polygon
10
-76.10478849995907
20
27.30778399116815
11
-76.10604809666502
21
27.352333469919333
0
LINE
8
Polygon
10
-76.10604809666502
20
27.352333469919333
11
-76.10532148625737
21
27.39689482849579
0
LINE
8
Polygon
10
-76.10532148625737
20
27.39689482849579
11
-76.10261011196069
21
27.441379557226973
0
LINE
8
Polygon
10
-76.10261011196069
20
27.441379557226973
11
-76.09791935922222
21
27.48569929864782
0
LINE
8
Polygon
10
-76.09791935922222
20
27.48569929864782
11
-76.09125854501507
21
27.529766022998075
0
LINE
8
Polygon
10
-76.09125854501507
20
27.529766022998075
11
-76.08264089933245
21
27.573492203070803
0
LINE
8
Polygon
10
-76.08264089933245
20
27.573492203070803
11
-76.07208353890965
21
27.61679098806262
0
LINE
8
Polygon
10
-76.07208353890965
20
27.61679098806262
11
-76.05960743322615
21
27.65957637608047
0
LINE
8
Polygon
10
-76.05960743322615
20
27.65957637608047
11
-76.04523736285503
21
27.70176338496227
0
LINE
8
Polygon
10
-76.04523736285503
20
27.70176338496227
11
-76.02900187024282
21
27.743268221072086
0
LINE
8
Polygon
10
-76.02900187024282
20
27.743268221072086
11
-76.01093320301726
21
27.784008445734642
0
LINE
8
Polygon
10
-76.01093320301726
20
27.784008445734642
11
-75.99106724993563
21
27.823903138978505
0
LINE
8
Polygon
10
-75.99106724993563
20
27.823903138978505
11
-75.96944346960103
21
27.86287306026282
0
LINE
8
Polygon
10
-75.96944346960103
20
27.86287306026282
11
-75.94610481208807
21
27.900840805868217
0
LINE
8
Polygon
10
-75.94610481208807
20
27.900840805868217
11
-75.92109763363342
21
27.93773096263939
0
LINE
8
Polygon
10
-75.92109763363342
20
27.93773096263939
11
-75.8944716045613
21
27.97347025777394
0
LINE
8
Polygon
10
-75.8944716045613
20
27.97347025777394
11
-75.85311613471013
21
28.026781255033384
0
LINE
8
Polygon
10
-75.85311613471013
20
28.026781255033384
11
-75.81206106294229
21
28.080323933314776
0
LINE
8
Polygon
10
-75.81206106294229
20
28.080323933314776
11
-75.7713076871504
21
28.13409659994914
0
LINE
8
Polygon
10
-75.7713076871504
20
28.13409659994914
11
-75.73085729568938
21
28.188097554996776
0
LINE
8
Polygon
10
-75.73085729568938
20
28.188097554996776
11
-75.6907111673358
21
28.24232509130101
0
LINE
8
Polygon
10
-75.6907111673358
20
28.24232509130101
11
-75.65087057124747
21
28.29677749454212
0
LINE
8
Polygon
10
-75.65087057124747
20
28.29677749454212
11
-75.61133676692317
21
28.351453043291595
0
LINE
8
Polygon
10
-75.61133676692317
20
28.351453043291595
11
-75.57211100416305
21
28.406350009066518
0
LINE
8
Polygon
10
-75.57211100416305
20
28.406350009066518
11
-75.5331945230289
21
28.4614666563842
0
LINE
8
Polygon
10
-75.5331945230289
20
28.4614666563842
11
-75.49458855380507
21
28.516801242817074
0
LINE
8
Polygon
10
-75.49458855380507
20
28.516801242817074
11
-75.45629431695963
21
28.572352019047763
0
LINE
8
Polygon
10
-75.45629431695963
20
28.572352019047763
11
-75.41831302310563
21
28.62811722892437
0
LINE
8
Polygon
10
-75.41831302310563
20
28.628117228924378
11
-75.38064587296293
21
28.68409510951604
0
LINE
8
Polygon
10
-75.38064587296293
20
28.68409510951604
11
-75.34329405732024
21
28.740283891168627
0
LINE
8
Polygon
10
-75.34329405732024
20
28.740283891168627
11
-75.30625875699747
21
28.796681797560698
0
LINE
8
Polygon
10
-75.30625875699747
20
28.796681797560698
11
-75.26954114280834
21
28.853287045759657
0
LINE
8
Polygon
10
-75.26954114280834
20
28.853287045759657
11
-75.23314237552346
21
28.910097846278116
0
LINE
8
Polygon
10
-75.23314237552346
20
28.910097846278116
11
-75.19706360583356
21
28.967112403130468
0
LINE
8
Polygon
10
-75.19706360583356
20
28.967112403130468
11
-75.16130597431315
21
29.024328913889676
0
LINE
8
Polygon
10
-75.16130597431315
20
29.024328913889676
11
-75.12587061138446
21
29.081745569744218
0
LINE
8
Polygon
10
-75.12587061138446
20
29.081745569744218
11
-75.0907586372817
21
29.13936055555532
0
LINE
8
Polygon
10
-75.0907586372817
20
29.13936055555532
11
-75.05597116201561
21
29.1971720499143
0
LINE
8
Polygon
10
-75.05597116201561
20
29.1971720499143
11
-75.02150928533844
21
29.25517822520017
0
LINE
8
Polygon
10
-75.02150928533844
20
29.25517822520017
11
-74.98737409670912
21
29.31337724763739
0
LINE
8
Polygon
10
-74.98737409670912
20
29.31337724763739
11
-74.95356667525887
21
29.37176727735387
0
LINE
8
Polygon
10
-74.95356667525887
20
29.37176727735387
11
-74.92008808975702
21
29.430346468439122
0
LINE
8
Polygon
10
-74.92008808975702
20
29.430346468439122
11
-74.88693939857728
21
29.489112969002605
0
LINE
8
Polygon
10
-74.88693939857728
20
29.489112969002605
11
-74.85412164966426
21
29.548064921232275
0
LINE
8
Polygon
10
-74.85412164966426
20
29.548064921232275
11
-74.82163588050035
21
29.60720046145334
0
LINE
8
Polygon
10
-74.82163588050035
20
29.60720046145333
11
-74.78948311807291
21
29.666517720187123
0
LINE
8
Polygon
10
-74.78948311807291
20
29.666517720187123
11
-74.75766437884178
21
29.72601482221024
0
LINE
8
Polygon
10
-74.75766437884178
20
29.72601482221024
11
-74.72618066870722
21
29.785689886613802
0
LINE
8
Polygon
10
-74.72618066870722
20
29.785689886613802
11
-74.69503298297802
21
29.845541026862943
0
LINE
8
Polygon
10
-74.69503298297802
20
29.845541026862943
11
-74.66422230634011
21
29.905566350856418
0
LINE
8
Polygon
10
-74.66422230634011
20
29.905566350856418
11
-74.63374961282538
21
29.965763960986425
0
LINE
8
Polygon
10
-74.63374961282538
20
29.965763960986425
11
-74.60361586578091
21
30.026131954198615
0
LINE
8
Polygon
10
-74.60361586578091
20
30.026131954198615
11
-74.57382201783852
21
30.086668422052238
0
LINE
8
Polygon
10
-74.57382201783852
20
30.086668422052238
11
-74.54436901088464
21
30.147371450780476
0
LINE
8
Polygon
10
-74.54436901088464
20
30.147371450780476
11
-74.51525777603052
21
30.20823912135095
0
LINE
8
Polygon
10
-74.51525777603052
20
30.20823912135095
11
-74.48648923358284
21
30.269269509526374
0
LINE
8
Polygon
10
-74.48648923358284
20
30.269269509526374
11
-74.4580642930146
21
30.33046068592542
0
LINE
8
Polygon
10
-74.4580642930146
20
30.33046068592542
11
-74.42998385293632
21
30.39181071608366
0
LINE
8
Polygon
10
-74.42998385293632
20
30.39181071608366
11
-74.4022488010677
21
30.453317660514774
0
LINE
8
Polygon
10
-74.4022488010677
20
30.453317660514774
11
-74.3748600142095
21
30.51497957477182
0
LINE
8
Polygon
10
-74.3748600142095
20
30.51497957477182
11
-74.34781835821586
21
30.576794509508737
0
LINE
8
Polygon
10
-74.34781835821586
20
30.576794509508737
11
-74.32112468796694
21
30.638760510541957
0
LINE
8
Polygon
10
-74.32112468796694
20
30.638760510541957
11
-74.29477984734183
21
30.700875618912182
0
LINE
8
Polygon
10
-74.29477984734183
20
30.700875618912182
11
-74.26878466919193
21
30.763137870946316
0
LINE
8
Polygon
10
-82.53789819770276
20
-46.563547619573455
11
-84.94286626793436
21
23.362430062909535
0
LINE
8
Polygon
10
-74.26878466919193
20
30.763137870946316
11
-49.999999999999986
21
20.71067811865476
0
LINE
8
Polygon
10
-49.999999999999986
20
20.71067811865476
11
-30.96210175944698
21
-25.250874012767227
0
LINE
8
Polygon
10
-30.96210175944698
20
-25.250874012767227
11
-46.675543077495654
21
-38.06583502903593
0
LINE
8
Polygon
10
-77.04072764936242
20
-46.37448312475285
11
-77.02159106713707
21
-46.37336536491768
0
LINE
8
Polygon
10
-77.02159106713707
20
-46.37336536491768
11
-77.00253001059879
21
-46.371332069572254
0
LINE
8
Polygon
10
-77.00253001059879
20
-46.371332069572254
11
-76.98358825562813
21
-46.3683879084102
0
LINE
8
Polygon
10
-76.98358825562813
20
-46.3683879084102
11
-76.964809304116
21
-46.36453964303188
0
LINE
8
Polygon
10
-76.964809304116
20
-46.36453964303188
11
-76.9462362840567
21
-46.35979611141568
0
LINE
8
Polygon
10
-76.9462362840567
20
-46.35979611141568
11
-76.92791185049957
21
-46.354168207620546
0
LINE
8
Polygon
10
-76.92791185049957
20
-46.354168207620546
11
-76.90987808758683
21
-46.34766885676651
0
LINE
8
Polygon
10
-76.90987808758683
20
-46.34766885676651
11
-76.89217641190254
21
-46.34031298535075
0
LINE
8
Polygon
10
-76.89217641190254
20
-46.34031298535075
11
-76.87484747735476
21
-46.332117486967164
0
LINE
8
Polygon
10
-76.87484747735476
20
-46.332117486967164
11
-76.85793108180918
21
-46.323101183508285
0
LINE
8
Polygon
10
-76.85793108180918
20
-46.323101183508285
11
-76.84146607568887
21
-46.31328478193873
0
LINE
8
Polygon
10
-76.84146607568887
20
-46.31328478193873
11
-76.8254902727498
21
-46.30269082673924
0
LINE
8
Polygon
10
-76.8254902727498
20
-46.30269082673924
11
-76.81004036323729
21
-46.29134364813077
0
LINE
8
Polygon
10
-76.81004036323729
20
-46.29134364813077
11
-76.79515182962275
21
-46.27926930619734
0
LINE
8
Polygon
10
-76.79515182962275
20
-46.27926930619734
11
-76.78085886511403
21
-46.26649553103613
0
LINE
8
Polygon
10
-76.78085886511403
20
-46.26649553103613
11
-76.76719429512696
21
-46.253051659072106
0
LINE
8
Polygon
10
-76.76719429512696
20
-46.253051659072106
11
-76.75418950189795
21
-46.23896856568365
0
LINE
8
Polygon
10
-76.75418950189795
20
-46.23896856568365
11
-76.74187435241124
21
-46.22427859429372
0
LINE
8
Polygon
10
-76.74187435241124
20
-46.22427859429372
11
-76.73027712980588
21
-46.209015482089505
0
LINE
8
Polygon
10
-76.73027712980588
20
-46.209015482089505
11
-76.7194244684203
21
-46.19321428254114
0
LINE
8
Polygon
10
-76.7194244684203
20
-46.19321428254114
11
-76.70934129262362
21
-46.176911284897464
0
LINE
8
Polygon
10
-76.70934129262362
20
-46.176911284897464
11
-76.70005075957386
21
-46.16014393084358
0
LINE
8
Polygon
10
-76.70005075957386
20
-46.16014393084358
11
-76.69157420603501
21
-46.14295072851184
0
LINE
8
Polygon
10
-76.69157420603501
20
-46.14295072851184
11
-76.68393109937473
21
-46.12537116404351
0
LINE
8
Polygon
10
-76.68393109937473
20
-46.12537116404351
11
-76.67713899285523
21
-46.10744561090436
0
LINE
8
Polygon
10
-76.67713899285523
20
-46.10744561090436
11
-76.67121348532031
21
-46.08921523716243
0
LINE
8
Polygon
10
-76.67121348532031
20
-46.08921523716243
11
-76.66616818537081
21
-46.07072191094089
0
LINE
8
Polygon
10
-76.66616818537081
20
-46.07072191094089
11
-76.66201468011089
21
-46.05200810426312
0
LINE
8
Polygon
10
-76.66201468011089
20
-46.05200810426312
11
-76.65876250853698
21
-46.03311679551093
0
LINE
8
Polygon
10
-76.65876250853698
20
-46.03311679551093
11
-76.65641913963034
21
-46.01409137071976
0
LINE
8
Polygon
10
-76.65641913963034
20
-46.01409137071976
11
-76.65498995520375
21
-45.99497552393779
0
LINE
8
Polygon
10
-76.65498995520375
20
-45.99497552393779
11
-76.6544782375415
21
-45.975813156877564
0
LINE
8
Polygon
10
-76.6544782375415
20
-45.975813156877564
11
-76.65488516186127
21
-45.95664827809071
0
LINE
8
Polygon
10
-76.65488516186127
20
-45.95664827809071
11
-76.65620979361522
21
-45.93752490189733
0
LINE
8
Polygon
10
-76.65620979361522
20
-45.93752490189733
11
-76.65844909063607
21
-45.91848694730213
0
LINE
8
Polygon
10
-76.65844909063607
20
-45.91848694730213
11
-76.66159791012402
21
-45.89957813712937
0
LINE
8
Polygon
10
-76.66159791012402
20
-45.89957813712937
11
-76.66564902045755
21
-45.880841897608526
0
LINE
8
Polygon
10
-76.66564902045755
20
-45.880841897608526
11
-76.67059311780184
21
-45.86232125864096
0
LINE
8
Polygon
10
-76.67059311780184
20
-45.86232125864096
11
-76.67641884747599
21
-45.84405875497688
0
LINE
8
Polygon
10
-76.67641884747599
20
-45.84405875497688
11
-76.68311283003035
21
-45.82609632852947
0
LINE
8
Polygon
10
-76.68311283003035
20
-45.82609632852947
11
-76.69065969197395
21
-45.8084752320505
0
LINE
8
Polygon
10
-76.69065969197395
20
-45.8084752320505
11
-76.69904210108149
21
-45.79123593438874
0
LINE
8
Polygon
10
-76.69904210108149
20
-45.79123593438874
11
-76.70824080619867
21
-45.77441802754859
0
LINE
8
Polygon
10
-76.70824080619867
20
-45.77441802754859
11
-76.71823468145483
21
-45.758060135762626
0
LINE
8
Polygon
10
-76.71823468145483
20
-45.758060135762626
11
-76.72900077478072
21
-45.742199826786596
0
LINE
8
Polygon
10
-76.72900077478072
20
-45.742199826786596
11
-76.74051436062064
21
-45.726873525620825
0
LINE
8
Polygon
10
-76.74051436062064
20
-45.726873525620825
11
-76.75274899671746
21
-45.71211643085609
0
LINE
8
Polygon
10
-76.75274899671746
20
-45.71211643085609
11
-76.76567658484026
21
-45.69796243383603
0
LINE
8
Polygon
10
-76.76567658484026
20
-45.69796243383604
11
-76.89148770593839
21
-45.553406974912065
0
LINE
8
Polygon
10
-76.89148770593839
20
-45.553406974912065
11
-77.00288610176739
21
-45.39747392420306
0
LINE
8
Polygon
10
-77.00288610176739
20
-45.39747392420306
11
-77.09884900363416
21
-45.231594931072536
0
LINE
8
Polygon
10
-77.09884900363416
20
-45.231594931072536
11
-77.1784953588898
21
-45.05729296036888
0
LINE
8
Polygon
10
-77.1784953588898
20
-45.05729296036888
11
-77.24109392003237
21
-44.876168309811405
0
LINE
8
Polygon
10
-77.24109392003237
20
-44.876168309811405
11
-77.2860699584215
21
-44.68988391736934
0
LINE
8
Polygon
10
-77.2860699584215
20
-44.68988391736934
11
-77.3130105409655
21
-44.50015009352953
0
LINE
8
Polygon
10
-77.3130105409655
20
-44.50015009352953
11
-77.32166832133413
21
-44.30870881862838
0
LINE
8
Polygon
10
-77.32166832133413
20
-44.30870881862838
11
-77.31196381088982
21
-44.117317749417396
0
LINE
8
Polygon
10
-77.31196381088982
20
-44.117317749417396
11
-77.28398610848711
21
-43.9277340817006
0
LINE
8
Polygon
10
-77.28398610848711
20
-43.9277340817006
11
-77.23799208244002
21
-43.74169841720407
0
LINE
8
Polygon
10
-77.23799208244002
20
-43.74169841720407
11
-77.17440401216791
21
-43.560918782798645
0
LINE
8
Polygon
10
-77.17440401216791
20
-43.56091878279864
11
-77.09380571117227
21
-43.38705494879828
0
LINE
8
Polygon
10
-77.09380571117227
20
-43.38705494879828
11
-76.99693716694001
21
-43.22170319031047
0
LINE
8
Polygon
10
-76.99693716694001
20
-43.22170319031047
11
-76.88468774698536
21
-43.06638163154759
0
LINE
8
Polygon
10
-76.88468774698536
20
-43.06638163154759
11
-76.75808803340682
21
-42.92251630765569
0
LINE
8
Polygon
10
-76.75808803340682
20
-42.92251630765569
11
-76.61830036092782
21
-42.79142807202949
0
LINE
8
Polygon
10
-76.61830036092782
20
-42.79142807202949
11
-76.4666081452926
21
-42.67432046932
0
LINE
8
Polygon
10
-76.4666081452926
20
-42.67432046932
11
-76.30440409999565
21
-42.57226868547477
0
LINE
8
Polygon
10
-76.30440409999565
20
-42.57226868547477
11
-76.13317744952884
21
-42.48620967626244
0
LINE
8
Polygon
10
-76.13317744952884
20
-42.48620967626244
11
-75.95450025654368
21
-42.41693356491349
0
LINE
8
Polygon
10
-75.95450025654368
20
-42.41693356491349
11
-75.77001298846157
21
-42.365076387856796
0
LINE
8
Polygon
10
-75.77001298846157
20
-42.365076387856796
11
-75.58140945604761
21
-42.33111425515491
0
LINE
8
Polygon
10
-75.58140945604761
20
-42.33111425515491
11
-75.39042126222948
21
-42.31535897925197
0
LINE
8
Polygon
10
-75.39042126222948
20
-42.31535897925197
11
-75.19880190393982
21
-42.31795521216766
0
LINE
8
Polygon
10
-75.19880190393982
20
-42.31795521216766
11
-75.00831067294575
21
-42.33887911742097
0
LINE
8
Polygon
10
-75.00831067294575
20
-42.33887911742097
11
-74.82069650347488
21
-42.37793858887724
0
LINE
8
Polygon
10
-74.82069650347488
20
-42.37793858887724
11
-74.63768191493592
21
-42.43477501450911
0
LINE
8
Polygon
10
-74.63768191493592
20
-42.43477501450911
11
-74.46094719715842
21
-42.50886656887795
0
LINE
8
Polygon
10
-74.46094719715842
20
-42.50886656887795
11
-74.29211498334976
21
-42.59953300410706
0
LINE
8
Polygon
10
-74.29211498334976
20
-42.59953300410706
11
-74.13273535240816
21
-42.705941895359665
0
LINE
8
Polygon
10
-74.13273535240816
20
-42.705941895359665
11
-73.98427159736968
21
-42.827116283480926
0
LINE
8
Polygon
10
-73.98427159736968
20
-42.827116283480926
11
-73.84808679065183
21
-42.961943644635525
0
LINE
8
Polygon
10
-73.84808679065183
20
-42.961943644635525
11
-73.72543126944082
21
-43.109186104588964
0
LINE
8
Polygon
10
-73.72543126944082
20
-43.109186104588964
11
-73.61743115612103
21
-43.26749180385339
0
LINE
8
Polygon
10
-73.61743115612103
20
-43.26749180385339
11
-73.52507801914307
21
-43.4354073093525
0
LINE
8
Polygon
10
-73.52507801914307
20
-43.4354073093525
11
-73.44921976925563
21
-43.61139095865181
0
LINE
8
Polygon
10
-73.44921976925563
20
-43.61139095865181
11
-73.39055287468452
21
-43.79382701423861
0
LINE
8
Polygon
10
-73.39055287468452
20
-43.79382701423861
11
-73.34961596673261
21
-43.98104049789838
0
LINE
8
Polygon
10
-73.34961596673261
20
-43.98104049789838
11
-73.3267848945092
21
-44.17131256899084
0
LINE
8
Polygon
10
-73.3267848945092
20
-44.17131256899084
11
-73.32226927419164
21
-44.36289630543482
0
LINE
8
Polygon
10
-73.32226927419164
20
-44.36289630543482
11
-73.33611056450164
21
-44.55403274251379
0
LINE
8
Polygon
10
-73.33611056450164
20
-44.55403274251379
11
-73.36818168606524
21
-44.742967022247086
0
LINE
8
Polygon
10
-73.36818168606524
20
-44.742967022247086
11
-73.41818818815145
21
-44.92796450505643
0
LINE
8
Polygon
10
-73.41818818815145
20
-44.92796450505643
11
-73.48567095207717
21
-45.10732669580362
0
LINE
8
Polygon
10
-73.48567095207717
20
-45.10732669580362
11
-73.57001040645858
21
-45.279406837979685
0
LINE
8
Polygon
10
-73.57001040645858
20
-45.279406837979685
11
-73.67043221560714
21
-45.44262503287235
0
LINE
8
Polygon
10
-73.67043221560714
20
-45.44262503287235
11
-73.7860143888448
21
-45.59548274490005
0
LINE
8
Polygon
10
-73.7860143888448
20
-45.59548274490005
11
-73.79793898133707
21
-45.610491484361134
0
LINE
8
Polygon
10
-73.79793898133707
20
-45.610491484361134
11
-73.80913082349234
21
-45.62605428730559
0
LINE
8
Polygon
10
-73.80913082349234
20
-45.62605428730559
11
-73.81956421197442
21
-45.642135411989486
0
LINE
8
Polygon
10
-73.81956421197442
20
-45.642135411989486
11
-73.82921518532206
21
-45.65869792628413
0
LINE
8
Polygon
10
-73.82921518532206
20
-45.65869792628413
11
-73.83806157897918
21
-45.67570379249494
0
LINE
8
Polygon
10
-73.83806157897918
20
-45.67570379249494
11
-73.84608307619833
21
-45.69311395471934
0
LINE
8
Polygon
10
-73.84608307619833
20
-45.69311395471934
11
-73.85326125470041
21
-45.710888428543036
0
LINE
8
Polygon
10
-73.85326125470041
20
-45.710888428543036
11
-73.85957962898347
21
-45.728986392868784
0
LINE
8
Polygon
10
-73.85957962898347
20
-45.728986392868784
11
-73.86502368818361
21
-45.747366283666665
0
LINE
8
Polygon
10
-73.86502368818361
20
-45.747366283666665
11
-73.86958092940071
21
-45.76598588943065
0
LINE
8
Polygon
10
-73.86958092940071
20
-45.76598588943065
11
-73.87324088641294
21
-45.78480244812201
0
LINE
8
Polygon
10
-73.87324088641294
20
-45.784802448122015
11
-73.87599515371343
21
-45.80377274537731
0
LINE
8
Polygon
10
-73.87599515371343
20
-45.80377274537731
11
-73.87783740581465
21
-45.82285321375501
0
LINE
8
Polygon
10
-73.87783740581465
20
-45.82285321375501
11
-73.87876341177544
21
-45.8420000327931
0
LINE
8
Polygon
10
-73.87876341177544
20
-45.8420000327931
11
-73.878771044918
21
-45.86116922964774
0
LINE
8
Polygon
10
-73.878771044918
20
-45.86116922964774
11
-73.87786028771193
21
-45.8803167800819
0
LINE
8
Polygon
10
-73.87786028771193
20
-45.8803167800819
11
-73.87603323181457
21
-45.89939870957199
0
LINE
8
Polygon
10
-73.87603323181457
20
-45.89939870957199
11
-73.87329407326725
21
-45.91837119430039
0
LINE
8
Polygon
10
-73.87329407326725
20
-45.91837119430039
11
-73.86964910285855
21
-45.93719066180179
0
LINE
8
Polygon
10
-73.86964910285855
20
-45.93719066180179
11
-73.86510669167686
21
-45.95581389103234
0
LINE
8
Polygon
10
-73.86510669167686
20
-45.95581389103234
11
-73.85967727188523
21
-45.97419811163162
0
LINE
8
Polygon
10
-73.85967727188523
20
-45.97419811163162
11
-73.85337331276264
21
-45.9923011021497
0
LINE
8
Polygon
10
-73.85337331276264
20
-45.9923011021497
11
-73.84620929206697
21
-46.01008128701345
0
LINE
8
Polygon
10
-73.84620929206697
20
-46.01008128701345
11
-73.83820166278515
21
-46.027497832009566
0
LINE
8
Polygon
10
-73.83820166278515
20
-46.027497832009566
11
-73.82936881534701
21
-46.04451073806501
0
LINE
8
Polygon
10
-73.82936881534701
20
-46.04451073806501
11
-73.81973103538955
21
-46.06108093310939
0
LINE
8
Polygon
10
-73.81973103538955
20
-46.06108093310939
11
-73.80931045716875
21
-46.077170361808406
0
LINE
8
Polygon
10
-73.80931045716875
20
-46.077170361808406
11
-73.7981310127256
21
-46.092742072962274
0
LINE
8
Polygon
10
-73.7981310127256
20
-46.092742072962274
11
-73.7862183769236
21
-46.10776030436832
0
LINE
8
Polygon
10
-73.7862183769236
20
-46.10776030436832
11
-73.7735999084834
21
-46.12219056495296
0
LINE
8
Polygon
10
-73.7735999084834
20
-46.12219056495296
11
-73.76030458715049
21
-46.13599971398436
0
LINE
8
Polygon
10
-73.76030458715049
20
-46.13599971398436
11
-73.74636294713983
21
-46.14915603718388
0
LINE
8
Polygon
10
-73.74636294713983
20
-46.14915603718388
11
-73.73180700701066
21
-46.161629319561534
0
LINE
8
Polygon
10
-73.73180700701066
20
-46.161629319561534
11
-73.71667019613214
21
-46.17339091480813
0
LINE
8
Polygon
10
-73.71667019613214
20
-46.17339091480813
11
-73.70098727790908
21
-46.18441381108478
0
LINE
8
Polygon
10
-73.70098727790908
20
-46.18441381108478
11
-73.68479426994382
21
-46.19467269305865
0
LINE
8
Polygon
10
-73.68479426994382
20
-46.19467269305865
11
-73.66812836131768
21
-46.204144000042504
0
LINE
8
Polygon
10
-73.66812836131768
20
-46.204144000042504
11
-73.65102782718208
21
-46.21280598010448
0
LINE
8
Polygon
10
-73.65102782718208
20
-46.21280598010448
11
-73.63353194085525
21
-46.22063874002389
0
LINE
8
Polygon
10
-73.63353194085525
20
-46.22063874002389
11
-73.61568088362658
21
-46.22762429097824
0
LINE
8
Polygon
10
-73.61568088362658
20
-46.22762429097824
11
-73.59751565247583
21
-46.23374658985666
0
LINE
8
Polygon
10
-73.59751565247583
20
-46.23374658985666
11
-73.5790779659188
21
-46.23899157610462
0
LINE
8
Polygon
10
-73.5790779659188
20
-46.23899157610462
11
-73.56041016819606
21
-46.2433472040157
0
LINE
8
Polygon
10
-73.56041016819606
20
-46.2433472040157
11
-73.54155513202461
21
-46.24680347039587
0
LINE
8
Polygon
10
-73.54155513202461
20
-46.24680347039587
11
-73.52255616013585
21
-46.24935243753696
0
LINE
8
Polygon
10
-73.52255616013585
20
-46.24935243753696
11
-73.5034568858258
21
-46.250988251446536
0
LINE
8
Polygon
10
-73.5034568858258
20
-46.250988251446536
11
-73.48430117274647
21
-46.2517071552922
0
LINE
8
Polygon
10
-73.48430117274647
20
-46.2517071552922
11
-73.46513301416788
21
-46.25150749802967
0
LINE
8
Polygon
10
-82.53789819770276
20
-46.563547619573455
11
-77.04072764936242
21
-46.37448312475285
0
LINE
8
Polygon
10
-67.96796246582753
20
-46.062443003209054
11
-73.46513301416788
21
-46.25150749802967
0
LINE
8
Polygon
10
-76.76567658484026
20
-45.69796243383603
11
-76.76567658484026
21
-45.69796243383604
0
LINE
8
Polygon
10
-73.7860143888448
20
-45.59548274490005
11
-73.7860143888448
21
-45.59548274490005
0
ENDSEC
0
EOF
