0
SECTION
2
ENTITIES
0
LINE
8
Polygon
10
-8.083997845677407
20
-30.565283347907307
11
-8.11975474678987
21
-30.63281229807236
0
LINE
8
Polygon
10
-8.11975474678987
20
-30.63281229807236
11
-8.155207758797928
21
-30.700501285560115
0
LINE
8
Polygon
10
-8.155207758797928
20
-30.700501285560115
11
-8.190356165438475
21
-30.768348942838696
0
LINE
8
Polygon
10
-8.190356165438475
20
-30.768348942838696
11
-8.225199256602409
21
-30.8363538991706
0
LINE
8
Polygon
10
-8.225199256602409
20
-30.8363538991706
11
-8.259736328348957
21
-30.90451478064036
0
LINE
8
Polygon
10
-8.259736328348952
20
-30.90451478064035
11
-8.29396668291991
21
-30.97283021018235
0
LINE
8
Polygon
10
-8.29396668291991
20
-30.97283021018235
11
-8.327889628753724
21
-31.041298807608598
0
LINE
8
Polygon
10
-8.327889628753724
20
-31.041298807608598
11
-8.361504480499478
21
-31.10991918963662
0
LINE
8
Polygon
10
-8.361504480499478
20
-31.10991918963662
11
-8.394810559030732
21
-31.17868996991743
0
LINE
8
Polygon
10
-8.394810559030732
20
-31.17868996991743
11
-8.427807191459236
21
-31.247609759063504
0
LINE
8
Polygon
10
-8.427807191459236
20
-31.247609759063504
11
-8.460493711148533
21
-31.316677164676875
0
LINE
8
Polygon
10
-8.460493711148533
20
-31.316677164676875
11
-8.492869457727428
21
-31.385890791377264
0
LINE
8
Polygon
10
-8.492869457727426
20
-31.385890791377257
11
-8.524933777103325
21
-31.455249240830234
0
LINE
8
Polygon
10
-8.524933777103325
20
-31.455249240830234
11
-8.556686021475448
21
-31.52475111177551
0
LINE
8
Polygon
10
-8.556686021475448
20
-31.52475111177551
11
-8.588125549347922
21
-31.594395000055226
0
LINE
8
Polygon
10
-8.588125549347922
20
-31.594395000055226
11
-8.619251725542728
21
-31.664179498642316
0
LINE
8
Polygon
10
-8.619251725542728
20
-31.664179498642316
11
-8.650063921212553
21
-31.734103197668933
0
LINE
8
Polygon
10
-8.650063921212553
20
-31.734103197668933
11
-8.68056151385348
21
-31.804164684454967
0
LINE
8
Polygon
10
-8.68056151385348
20
-31.804164684454967
11
-8.710743887317571
21
-31.874362543536535
0
LINE
8
Polygon
10
-8.710743887317571
20
-31.874362543536535
11
-8.740610431825308
21
-31.94469535669461
0
LINE
8
Polygon
10
-8.740610431825308
20
-31.94469535669461
11
-8.770160543977932
21
-32.015161702983654
0
LINE
8
Polygon
10
-8.770160543977928
20
-32.015161702983654
11
-8.799393626769596
21
-32.085760158760365
0
LINE
8
Polygon
10
-8.799393626769596
20
-32.085760158760365
11
-8.82830908959948
21
-32.15648929771239
0
LINE
8
Polygon
10
-8.82830908959948
20
-32.15648929771239
11
-8.856906348283669
21
-32.227347690887164
0
LINE
8
Polygon
10
-8.856906348283669
20
-32.227347690887164
11
-8.885184825066991
21
-32.29833390672078
0
LINE
8
Polygon
10
-8.885184825066991
20
-32.29833390672078
11
-8.91314394863467
21
-32.369446511066904
0
LINE
8
Polygon
10
-8.91314394863467
20
-32.369446511066904
11
-8.940783154123883
21
-32.44068406722576
0
LINE
8
Polygon
10
-8.940783154123883
20
-32.44068406722576
11
-8.96810188313516
21
-32.512045135973146
0
LINE
8
Polygon
10
-8.968101883135157
20
-32.51204513597314
11
-8.995099583743674
21
-32.583528275589515
0
LINE
8
Polygon
10
-8.995099583743674
20
-32.583528275589515
11
-9.02177571051039
21
-32.65513204188911
0
LINE
8
Polygon
10
-9.02177571051039
20
-32.65513204188911
11
-9.048129724493078
21
-32.72685498824913
0
LINE
8
Polygon
10
-9.048129724493078
20
-32.72685498824913
11
-9.07416109325721
21
-32.79869566563894
0
LINE
8
Polygon
10
-9.07416109325721
20
-32.79869566563894
11
-9.099869290886708
21
-32.87065262264939
0
LINE
8
Polygon
10
-9.099869290886708
20
-32.87065262264939
11
-9.125253797994585
21
-32.9427244055221
0
LINE
8
Polygon
10
-9.125253797994585
20
-32.9427244055221
11
-9.15031410173341
21
-33.01490955817886
0
LINE
8
Polygon
10
-9.15031410173341
20
-33.01490955817886
11
-9.175049695805704
21
-33.087206622250996
0
LINE
8
Polygon
10
-9.175049695805704
20
-33.087206622250996
11
-9.19946008047414
21
-33.159614137108925
0
LINE
8
Polygon
10
-9.19946008047414
20
-33.15961413710892
11
-9.223544762571656
21
-33.232130639891544
0
LINE
8
Polygon
10
-9.223544762571656
20
-33.232130639891544
11
-9.247303255511415
21
-33.3047546655359
0
LINE
8
Polygon
10
-9.247303255511415
20
-33.3047546655359
11
-9.27073507929663
21
-33.377484746806715
0
LINE
8
Polygon
10
-9.27073507929663
20
-33.377484746806715
11
-9.293839760530261
21
-33.45031941432606
0
LINE
8
Polygon
10
-9.293839760530261
20
-33.45031941432606
11
-9.316616832424597
21
-33.523257196603026
0
LINE
8
Polygon
10
-9.316616832424597
20
-33.523257196603026
11
-9.339065834810656
21
-33.596296620063455
0
LINE
8
Polygon
10
-9.339065834810656
20
-33.596296620063455
11
-9.361186314147513
21
-33.66943620907973
0
LINE
8
Polygon
10
-9.36118631414751
20
-33.66943620907972
11
-9.382977823531439
21
-33.74267448600054
0
LINE
8
Polygon
10
-9.382977823531439
20
-33.74267448600054
11
-9.404439922704949
21
-33.816009971180826
0
LINE
8
Polygon
10
-9.404439922704949
20
-33.816009971180826
11
-9.42557217806568
21
-33.889441183011556
0
LINE
8
Polygon
10
-9.42557217806568
20
-33.889441183011556
11
-9.446374162675161
21
-33.962966637949755
0
LINE
8
Polygon
10
-9.44637416267516
20
-33.96296663794975
11
-9.459643432631156
21
-34.00644698358569
0
LINE
8
Polygon
10
-9.459643432631156
20
-34.00644698358569
11
-9.474875098330205
21
-34.04927933516505
0
LINE
8
Polygon
10
-9.474875098330205
20
-34.04927933516505
11
-9.492037681799008
21
-34.0913751747512
0
LINE
8
Polygon
10
-9.492037681799008
20
-34.0913751747512
11
-9.511095714602606
21
-34.132647506493456
0
LINE
8
Polygon
10
-9.511095714602606
20
-34.132647506493456
11
-9.53200981114394
21
-34.17301103641398
0
LINE
8
Polygon
10
-9.53200981114394
20
-34.17301103641398
11
-9.554736750058682
21
-34.2123823486775
0
LINE
8
Polygon
10
-9.554736750058682
20
-34.2123823486775
11
-9.579229563537108
21
-34.2506800779796
0
LINE
8
Polygon
10
-9.579229563537108
20
-34.2506800779796
11
-9.60543763438843
21
-34.287825077697434
0
LINE
8
Polygon
10
-9.60543763438843
20
-34.287825077697434
11
-9.63330680064699
21
-34.32374058345523
0
LINE
8
Polygon
10
-9.63330680064699
20
-34.32374058345523
11
-9.662779467504139
21
-34.358352371766635
0
LINE
8
Polygon
10
-9.662779467504139
20
-34.358352371766635
11
-9.693794726334467
21
-34.39158891342598
0
LINE
8
Polygon
10
-9.693794726334467
20
-34.39158891342598
11
-9.72628848057043
21
-34.42338152133158
0
LINE
8
Polygon
10
-9.726288480570432
20
-34.42338152133158
11
-9.760193578165202
21
-34.453664492435394
0
LINE
8
Polygon
10
-9.760193578165202
20
-34.453664492435394
11
-9.795439950370039
21
-34.48237524352595
0
LINE
8
Polygon
10
-9.795439950370039
20
-34.48237524352595
11
-9.831954756539336
21
-34.509454440563616
0
LINE
8
Polygon
10
-9.831954756539336
20
-34.509454440563616
11
-9.86966253466412
21
-34.534846121301165
0
LINE
8
Polygon
10
-9.86966253466412
20
-34.534846121301165
11
-9.908485357322897
21
-34.55849781093618
0
LINE
8
Polygon
10
-9.908485357322897
20
-34.55849781093618
11
-9.948342992727548
21
-34.58036063055616
0
LINE
8
Polygon
10
-9.948342992727548
20
-34.58036063055616
11
-9.989153070531467
21
-34.600389398152394
0
LINE
8
Polygon
10
-9.989153070531467
20
-34.600389398152394
11
-10.030831252057263
21
-34.618542721993734
0
LINE
8
Polygon
10
-10.030831252057263
20
-34.618542721993734
11
-10.073291404592261
21
-34.63478308616732
0
LINE
8
Polygon
10
-10.073291404592261
20
-34.63478308616732
11
-10.116445779391563
21
-34.649076928109466
0
LINE
8
Polygon
10
-10.116445779391563
20
-34.649076928109466
11
-10.160205193020836
21
-34.66139470796657
0
LINE
8
Polygon
10
-10.160205193020836
20
-34.66139470796657
11
-10.204479211664037
21
-34.671710969642554
0
LINE
8
Polygon
10
-10.204479211664037
20
-34.671710969642554
11
-10.249176338015205
21
-34.6800043934068
0
LINE
8
Polygon
10
-10.249176338015205
20
-34.6800043934068
11
-10.294204200368084
21
-34.6862578399538
0
LINE
8
Polygon
10
-10.294204200368084
20
-34.6862578399538
11
-10.339469743512758
21
-34.69045838582348
0
LINE
8
Polygon
10
-10.339469743512758
20
-34.69045838582348
11
-10.384879421044877
21
-34.692597350109025
0
LINE
8
Polygon
10
-10.384879421044877
20
-34.692597350109025
11
-10.430339388689942
21
-34.692670312396935
0
LINE
8
Polygon
10
-10.430339388689942
20
-34.692670312396935
11
-10.475755698243207
21
-34.69067712190231
0
LINE
8
Polygon
10
-10.475755698243207
20
-34.69067712190231
11
-10.521034491724347
21
-34.68662189778051
0
LINE
8
Polygon
10
-10.521034491724347
20
-34.68662189778051
11
-10.566082195345677
21
-34.6805130206144
0
LINE
8
Polygon
10
-10.566082195345677
20
-34.6805130206144
11
-10.610805712893045
21
-34.672363115094946
0
LINE
8
Polygon
10
-10.610805712893045
20
-34.672363115094946
11
-10.655112618119773
21
-34.66218902393084
0
LINE
8
Polygon
10
-10.655112618119773
20
-34.66218902393084
11
-10.69891134575603
21
-34.650011773041136
0
LINE
8
Polygon
10
-10.69891134575603
20
-34.650011773041136
11
-10.7421113807389
21
-34.635856528102785
0
LINE
8
Polygon
10
-10.7421113807389
20
-34.635856528102785
11
-10.784623445272072
21
-34.619752542542884
0
LINE
8
Polygon
10
-10.784623445272072
20
-34.619752542542884
11
-10.826359683328585
21
-34.60173309708316
0
LINE
8
Polygon
10
-10.826359683328585
20
-34.60173309708316
11
-10.867233842215326
21
-34.581835430961554
0
LINE
8
Polygon
10
-10.867233842215326
20
-34.581835430961554
11
-10.907161450824049
21
-34.560100664973056
0
LINE
8
Polygon
10
-10.907161450824049
20
-34.560100664973056
11
-10.94605999420054
21
-34.536573716488974
0
LINE
8
Polygon
10
-10.946059994200539
20
-34.536573716488974
11
-10.983849084071188
21
-34.51130320662997
0
LINE
8
Polygon
10
-10.983849084071188
20
-34.51130320662997
11
-11.020450624974508
21
-34.484341359785056
0
LINE
8
Polygon
10
-11.020450624974508
20
-34.484341359785056
11
-11.05578897565431
21
-34.4557438956839
0
LINE
8
Polygon
10
-11.05578897565431
20
-34.4557438956839
11
-11.089791105380991
21
-34.42556991424565
0
LINE
8
Polygon
10
-11.089791105380991
20
-34.42556991424565
11
-11.122386744877847
21
-34.39388177344224
0
LINE
8
Polygon
10
-11.122386744877847
20
-34.39388177344224
11
-11.153508531540545
21
-34.360744960428505
0
LINE
8
Polygon
10
-11.153508531540544
20
-34.360744960428505
11
-11.183092148649632
21
-34.32622795620553
0
LINE
8
Polygon
10
-11.183092148649637
20
-34.32622795620554
11
-11.519665014428886
21
-33.954652657279105
0
LINE
8
Polygon
10
-11.519665014428886
20
-33.954652657279105
11
-11.891756761690791
21
-33.61865082935147
0
LINE
8
Polygon
10
-11.891756761690791
20
-33.61865082935147
11
-12.29562638749857
21
-33.32160062803693
0
LINE
8
Polygon
10
-12.29562638749857
20
-33.32160062803693
11
-12.727213394764231
21
-33.06648859007989
0
LINE
8
Polygon
10
-12.727213394764231
20
-33.06648859007989
11
-13.18217861640455
21
-32.855879606774565
0
LINE
8
Polygon
10
-13.18217861640455
20
-32.855879606774565
11
-13.655947841239586
21
-32.69189113659957
0
LINE
8
Polygon
10
-13.655947841239588
20
-32.69189113659957
11
-14.143757803019799
21
-32.57617191633296
0
LINE
8
Polygon
10
-14.143757803019799
20
-32.57617191633296
11
-14.640704070209045
21
-32.509885384685866
0
LINE
8
Polygon
10
-14.640704070209045
20
-32.509885384685866
11
-15.141790355040511
21
-32.49369798511314
0
LINE
8
Polygon
10
-15.141790355040511
20
-32.49369798511314
11
-15.64197874609334
21
-32.52777246540421
0
LINE
8
Polygon
10
-15.64197874609334
20
-32.52777246540421
11
-16.136240359352662
21
-32.61176624142018
0
LINE
8
Polygon
10
-16.136240359352662
20
-32.61176624142018
11
-16.619605898508226
21
-32.74483484142774
0
LINE
8
Polygon
10
-16.61960589850823
20
-32.74483484142774
11
-17.087215616159497
21
-32.92564039640111
0
LINE
8
Polygon
10
-17.087215616159497
20
-32.92564039640111
11
-17.534368173618166
21
-33.15236509093017
0
LINE
8
Polygon
10
-17.534368173618166
20
-33.15236509093017
11
-17.956567908072707
21
-33.422729439500095
0
LINE
8
Polygon
10
-17.956567908072707
20
-33.422729439500095
11
-18.349570031891773
21
-33.7340152043928
0
LINE
8
Polygon
10
-18.349570031891773
20
-33.7340152043928
11
-18.709423309633603
21
-34.0830927247942
0
LINE
8
Polygon
10
-18.709423309633603
20
-34.0830927247942
11
-19.03250978368761
21
-34.466452382341096
0
LINE
8
Polygon
10
-19.03250978368761
20
-34.466452382341096
11
-19.315581149147373
21
-34.88023988675353
0
LINE
8
Polygon
10
-19.315581149147373
20
-34.88023988675353
11
-19.555791412202773
21
-35.32029502679166
0
LINE
8
Polygon
10
-19.555791412202773
20
-35.32029502679166
11
-19.750725503704473
21
-35.78219349693585
0
LINE
8
Polygon
10
-19.750725503704473
20
-35.78219349693585
11
-19.89842356022053
21
-36.26129137926523
0
LINE
8
Polygon
10
-19.89842356022053
20
-36.26129137926523
11
-19.997400628463883
21
-36.75277183331511
0
LINE
8
Polygon
10
-19.997400628463883
20
-36.75277183331511
11
-20.04666159498282
21
-37.251693524493945
0
LINE
8
Polygon
10
-20.04666159498282
20
-37.251693524493945
11
-20.04571119101158
21
-37.753040304161885
0
LINE
8
Polygon
10
-20.04571119101158
20
-37.753040304161885
11
-19.994558971892562
21
-38.25177164188825
0
LINE
8
Polygon
10
-19.994558971892562
20
-38.25177164188825
11
-19.893719221007093
21
-38.742873302842966
0
LINE
8
Polygon
10
-19.893719221007093
20
-38.742873302842966
11
-19.744205779180675
21
-39.22140776081266
0
LINE
8
Polygon
10
-19.744205779180675
20
-39.22140776081265
11
-19.547521851547735
21
-39.68256383998977
0
LINE
8
Polygon
10
-19.547521851547735
20
-39.68256383998977
11
-19.305644894357453
21
-40.12170508643731
0
LINE
8
Polygon
10
-19.305644894357453
20
-40.12170508643731
11
-19.02100673366845
21
-40.53441638290338
0
LINE
8
Polygon
10
-19.02100673366845
20
-40.53441638290337
11
-18.696469115818537
21
-40.91654833832118
0
LINE
8
Polygon
10
-18.696469115818537
20
-40.91654833832118
11
-18.335294935484654
21
-41.26425900570324
0
LINE
8
Polygon
10
-18.335294935484654
20
-41.26425900570324
11
-17.941115430605453
21
-41.57405250899908
0
LINE
8
Polygon
10
-17.941115430605457
20
-41.57405250899908
11
-17.517893673988183
21
-41.84281419056272
0
LINE
8
Polygon
10
-17.517893673988176
20
-41.84281419056272
11
-17.069884728654422
21
-42.06784192585787
0
LINE
8
Polygon
10
-17.06988472865443
20
-42.06784192585786
11
-16.601592867522175
21
-42.246873290563656
0
LINE
8
Polygon
10
-16.601592867522175
20
-42.246873290563656
11
-16.117726287536556
21
-42.37810830694325
0
LINE
8
Polygon
10
-16.117726287536556
20
-42.37810830694325
11
-15.623149773552539
21
-42.4602275407837
0
LINE
8
Polygon
10
-15.623149773552539
20
-42.4602275407837
11
-15.12283578788591
21
-42.49240536696103
0
LINE
8
Polygon
10
-15.12283578788591
20
-42.49240536696103
11
-14.621814477277265
21
-42.47431827025861
0
LINE
8
Polygon
10
-14.62181447727727
20
-42.47431827025861
11
-14.125123099897932
21
-42.40614809798258
0
LINE
8
Polygon
10
-14.125123099897927
20
-42.40614809798258
11
-13.637755380857694
21
-42.28858023167275
0
LINE
8
Polygon
10
-13.637755380857698
20
-42.28858023167275
11
-13.164611305393109
21
-42.12279669629035
0
LINE
8
Polygon
10
-13.164611305393112
20
-42.12279669629036
11
-12.710447854514516
21
-41.91046427616292
0
LINE
8
Polygon
10
-12.710447854514515
20
-41.91046427616292
11
-12.279831178414762
21
-41.65371775716816
0
LINE
8
Polygon
10
-12.279831178414765
20
-41.65371775716816
11
-11.877090688487064
21
-41.355138463639754
0
LINE
8
Polygon
10
-11.87709068848706
20
-41.355138463639754
11
-11.506275529509997
21
-41.017728305784445
0
LINE
8
Polygon
10
-11.506275529509999
20
-41.017728305784466
11
-11.473503190852812
21
-40.98622294432448
0
LINE
8
Polygon
10
-11.473503190852812
20
-40.98622294432448
11
-11.439332851557262
21
-40.9562395840356
0
LINE
8
Polygon
10
-11.439332851557262
20
-40.9562395840356
11
-11.403835128524301
21
-40.92784018894942
0
LINE
8
Polygon
10
-11.403835128524301
20
-40.92784018894942
11
-11.36708338184467
21
-40.901083449652894
0
LINE
8
Polygon
10
-11.36708338184467
20
-40.901083449652894
11
-11.32915356319191
21
-40.876024661997576
0
LINE
8
Polygon
10
-11.32915356319191
20
-40.876024661997576
11
-11.290124058859577
21
-40.85271561282438
0
LINE
8
Polygon
10
-11.290124058859577
20
-40.85271561282438
11
-11.250075527767027
21
-40.83120447294025
0
LINE
8
Polygon
10
-11.250075527767027
20
-40.83120447294025
11
-11.209090734768564
21
-40.811535697567614
0
LINE
8
Polygon
10
-11.209090734768564
20
-40.811535697567614
11
-11.167254379610442
21
-40.79374993447268
0
LINE
8
Polygon
10
-11.167254379610442
20
-40.79374993447268
11
-11.124652921889174
21
-40.77788393996212
0
LINE
8
Polygon
10
-11.124652921889174
20
-40.77788393996212
11
-11.081374402372935
21
-40.76397050292204
0
LINE
8
Polygon
10
-11.081374402372935
20
-40.76397050292204
11
-11.037508261055267
21
-40.75203837705595
0
LINE
8
Polygon
10
-11.037508261055267
20
-40.75203837705595
11
-10.993145152317142
21
-40.742112221462015
0
LINE
8
Polygon
10
-10.993145152317142
20
-40.742112221462015
11
-10.948376757579355
21
-40.73421254967215
0
LINE
8
Polygon
10
-10.948376757579355
20
-40.73421254967215
11
-10.903295595832416
21
-40.728355687258535
0
LINE
8
Polygon
10
-10.903295595832416
20
-40.728355687258535
11
-10.857994832435502
21
-40.72455373809492
0
LINE
8
Polygon
10
-10.857994832435502
20
-40.72455373809492
11
-10.812568086579638
21
-40.72281455934261
0
LINE
8
Polygon
10
-10.812568086579637
20
-40.72281455934261
11
-10.767109237812953
21
-40.723141745212736
0
LINE
8
Polygon
10
-10.767109237812953
20
-40.723141745212736
11
-10.721712232027908
21
-40.725534619538394
0
LINE
8
Polygon
10
-10.721712232027908
20
-40.725534619538394
11
-10.676470887311389
21
-40.72998823717205
0
LINE
8
Polygon
10
-10.676470887311389
20
-40.72998823717205
11
-10.63147870005894
21
-40.73649339420523
0
LINE
8
Polygon
10
-10.63147870005894
20
-40.73649339420523
11
-10.586828651753807
21
-40.74503664698946
0
LINE
8
Polygon
10
-10.586828651753807
20
-40.74503664698946
11
-10.54261301681011
21
-40.75560033991909
0
LINE
8
Polygon
10
-10.54261301681011
20
-40.75560033991909
11
-10.498923171877232
21
-40.76816264191861
0
LINE
8
Polygon
10
-10.498923171877232
20
-40.76816264191861
11
-10.455849406999576
21
-40.78269759155905
0
LINE
8
Polygon
10
-10.455849406999576
20
-40.78269759155905
11
-10.413480739021885
21
-40.79917515071027
0
LINE
8
Polygon
10
-10.413480739021885
20
-40.79917515071027
11
-10.371904727625793
21
-40.81756126661815
0
LINE
8
Polygon
10
-10.371904727625793
20
-40.81756126661815
11
-10.331207294377757
21
-40.83781794227846
0
LINE
8
Polygon
10
-10.331207294377757
20
-40.83781794227846
11
-10.29147254516235
21
-40.85990331496209
0
LINE
8
Polygon
10
-10.29147254516235
20
-40.85990331496209
11
-10.252782596367863
21
-40.88377174272903
0
LINE
8
Polygon
10
-10.252782596367863
20
-40.88377174272903
11
-10.21521740518343
21
-40.90937389875275
0
LINE
8
Polygon
10
-10.21521740518343
20
-40.90937389875275
11
-10.178854604358381
21
-40.93665687325964
0
LINE
8
Polygon
10
-10.178854604358381
20
-40.93665687325964
11
-10.143769341765319
21
-40.965564282873125
0
LINE
8
Polygon
10
-10.143769341765319
20
-40.965564282873125
11
-10.11003412509847
21
-40.996036387136314
0
LINE
8
Polygon
10
-10.11003412509847
20
-40.996036387136314
11
-10.077718672028281
21
-41.028010211972486
0
LINE
8
Polygon
10
-10.077718672028281
20
-41.028010211972486
11
-10.046889766121891
21
-41.061419679828184
0
LINE
8
Polygon
10
-10.046889766121891
20
-41.061419679828184
11
-10.017611118827292
21
-41.09619574623001
0
LINE
8
Polygon
10
-10.017611118827292
20
-41.09619574623001
11
-9.989943237806347
21
-41.132266542472905
0
LINE
8
Polygon
10
-9.989943237806347
20
-41.132266542472905
11
-9.963943301888825
21
-41.16955752414503
0
LINE
8
Polygon
10
-9.963943301888825
20
-41.16955752414503
11
-9.939665042905816
21
-41.20799162518225
0
LINE
8
Polygon
10
-9.939665042905816
20
-41.20799162518225
11
-9.917158634646787
21
-41.247489417134005
0
LINE
8
Polygon
10
-9.917158634646787
20
-41.247489417134005
11
-9.896470589169729
21
-41.287969273311184
0
LINE
8
Polygon
10
-9.896470589169727
20
-41.287969273311184
11
-9.877643660678675
21
-41.32934753747703
0
LINE
8
Polygon
10
-9.877643660678675
20
-41.32934753747703
11
-9.860716757167285
21
-41.37153869673228
0
LINE
8
Polygon
10
-9.860716757167285
20
-41.37153869673228
11
-9.845724860011021
21
-41.41445555823731
0
LINE
8
Polygon
10
-9.845724860011021
20
-41.41445555823731
11
-9.83269895167416
21
-41.458009429406076
0
LINE
8
Polygon
10
-9.83269895167416
20
-41.458009429406076
11
-9.821665951680995
21
-41.502110301199465
0
LINE
8
Polygon
10
-9.821665951680995
20
-41.502110301199465
11
-9.812648660983575
21
-41.54666703413921
0
LINE
8
Polygon
10
-9.812648660983575
20
-41.546667034139205
11
-9.799029175328824
21
-41.62185496334371
0
LINE
8
Polygon
10
-9.799029175328824
20
-41.62185496334371
11
-9.785071873908969
21
-41.696980916413445
0
LINE
8
Polygon
10
-9.785071873908969
20
-41.696980916413445
11
-9.770777038705686
21
-41.772043375566284
0
LINE
8
Polygon
10
-9.770777038705686
20
-41.772043375566284
11
-9.756144958519913
21
-41.84704082430288
0
LINE
8
Polygon
10
-9.756144958519913
20
-41.84704082430288
11
-9.741175928966003
21
-41.9219717474373
0
LINE
8
Polygon
10
-9.741175928966006
20
-41.92197174743729
11
-9.725870252465752
21
-41.99683463112761
0
LINE
8
Polygon
10
-9.725870252465752
20
-41.99683463112761
11
-9.71022823824228
21
-42.07162796290655
0
LINE
8
Polygon
10
-9.71022823824228
20
-42.07162796290655
11
-9.694250202313812
21
-42.14635023171197
0
LINE
8
Polygon
10
-9.694250202313812
20
-42.14635023171197
11
-9.677936467487266
21
-42.220999927917454
0
LINE
8
Polygon
10
-9.677936467487266
20
-42.220999927917454
11
-9.661287363351734
21
-42.29557554336275
0
LINE
8
Polygon
10
-9.661287363351734
20
-42.29557554336275
11
-9.644303226271845
21
-42.370075571384305
0
LINE
8
Polygon
10
-9.644303226271845
20
-42.370075571384305
11
-9.626984399380941
21
-42.444498506845655
0
LINE
8
Polygon
10
-9.626984399380945
20
-42.444498506845655
11
-9.60933123257417
21
-42.51884284616784
0
LINE
8
Polygon
10
-9.60933123257417
20
-42.51884284616784
11
-9.59134408250139
21
-42.59310708735982
0
LINE
8
Polygon
10
-9.59134408250139
20
-42.59310708735982
11
-9.573023312559995
21
-42.66728973004877
0
LINE
8
Polygon
10
-9.573023312559995
20
-42.66728973004877
11
-9.554369292887541
21
-42.7413892755104
0
LINE
8
Polygon
10
-9.554369292887541
20
-42.7413892755104
11
-9.535382400354294
21
-42.815404226699286
0
LINE
8
Polygon
10
-9.535382400354294
20
-42.815404226699286
11
-9.516063018555606
21
-42.88933308827903
0
LINE
8
Polygon
10
-9.516063018555606
20
-42.88933308827903
11
-9.49641153780416
21
-42.96317436665256
0
LINE
8
Polygon
10
-9.49641153780416
20
-42.96317436665256
11
-9.47642835512209
21
-43.03692656999223
0
LINE
8
Polygon
10
-9.47642835512209
20
-43.03692656999223
11
-9.456113874232965
21
-43.11058820827001
0
LINE
8
Polygon
10
-9.456113874232969
20
-43.11058820827
11
-9.43546850555362
21
-43.184157793287554
0
LINE
8
Polygon
10
-9.43546850555362
20
-43.184157793287554
11
-9.414492666185872
21
-43.25763383870632
0
LINE
8
Polygon
10
-9.414492666185872
20
-43.25763383870632
11
-9.393186779908097
21
-43.33101486007751
0
LINE
8
Polygon
10
-9.393186779908097
20
-43.33101486007751
11
-9.37155127716666
21
-43.40429937487215
0
LINE
8
Polygon
10
-9.37155127716666
20
-43.40429937487215
11
-9.349586595067219
21
-43.477485902511
0
LINE
8
Polygon
10
-9.349586595067219
20
-43.477485902511
11
-9.327293177365906
21
-43.550572964394455
0
LINE
8
Polygon
10
-9.327293177365906
20
-43.550572964394455
11
-9.304671474460346
21
-43.62355908393244
0
LINE
8
Polygon
10
-9.30467147446035
20
-43.62355908393244
11
-9.281721943380571
21
-43.696442786574245
0
LINE
8
Polygon
10
-9.281721943380571
20
-43.696442786574245
11
-9.258445047779768
21
-43.7692225998383
0
LINE
8
Polygon
10
-9.258445047779768
20
-43.7692225998383
11
-9.23484125792494
21
-43.841897053341924
0
LINE
8
Polygon
10
-9.23484125792494
20
-43.841897053341924
11
-9.210911050687375
21
-43.91446467883104
0
LINE
8
Polygon
10
-9.210911050687375
20
-43.91446467883104
11
-9.186654909533035
21
-43.98692401020983
0
LINE
8
Polygon
10
-9.186654909533035
20
-43.98692401020983
11
-9.162073324512773
21
-44.05927358357038
0
LINE
8
Polygon
10
-9.162073324512773
20
-44.05927358357038
11
-9.137166792252446
21
-44.1315119372222
0
LINE
8
Polygon
10
-9.137166792252446
20
-44.1315119372222
11
-9.111935815942864
21
-44.20363761172184
0
LINE
8
Polygon
10
-9.111935815942864
20
-44.20363761172184
11
-9.086380905329646
21
-44.275649149902264
0
LINE
8
Polygon
10
-9.086380905329646
20
-44.27564914990226
11
-9.0605025767029
21
-44.347545096902394
0
LINE
8
Polygon
10
-9.0605025767029
20
-44.347545096902394
11
-9.034301352886803
21
-44.41932400019647
0
LINE
8
Polygon
10
-9.034301352886803
20
-44.41932400019647
11
-9.007777763229038
21
-44.49098440962335
0
LINE
8
Polygon
10
-9.007777763229038
20
-44.49098440962335
11
-8.980932343590109
21
-44.56252487741586
0
LINE
8
Polygon
10
-8.980932343590109
20
-44.56252487741586
11
-8.953765636332486
21
-44.63394395823002
0
LINE
8
Polygon
10
-8.953765636332486
20
-44.63394395823002
11
-8.926278190309683
21
-44.70524020917427
0
LINE
8
Polygon
10
-8.926278190309683
20
-44.70524020917427
11
-8.898470560855143
21
-44.776412189838574
0
LINE
8
Polygon
10
-8.898470560855145
20
-44.77641218983857
11
-8.870343309771034
21
-44.84745846232356
0
LINE
8
Polygon
10
-8.870343309771034
20
-44.84745846232356
11
-8.841897005316884
21
-44.91837759126959
0
LINE
8
Polygon
10
-8.841897005316884
20
-44.91837759126959
11
-8.813132222198117
21
-44.98916814388568
0
LINE
8
Polygon
10
-8.813132222198117
20
-44.98916814388568
11
-8.784049541554435
21
-45.059828689978524
0
LINE
8
Polygon
10
-8.083997845677407
20
-30.565283347907307
11
-25.86867601227395
21
-21.096974744736784
0
LINE
8
Polygon
10
-25.86867601227395
20
-21.096974744736784
11
-30.96210175944698
21
-25.250874012767227
0
LINE
8
Polygon
10
-30.96210175944698
20
-25.250874012767227
11
-20.710678118654748
21
-50.0
0
LINE
8
Polygon
10
-20.710678118654748
20
-50.0
11
-8.784049541554435
21
-45.059828689978524
0
ENDSEC
0
EOF
