0
SECTION
2
ENTITIES
0
LINE
8
Polygon
10
22.627854563829317
20
-32.04859198956546
11
22.51645173406606
21
-31.78589928503637
0
LINE
8
Polygon
10
22.51645173406606
20
-31.78589928503637
11
22.400655555689482
21
-31.525113371756046
0
LINE
8
Polygon
10
22.400655555689482
20
-31.525113371756046
11
22.280498651186612
21
-31.266307719205027
0
LINE
8
Polygon
10
22.280498651186612
20
-31.266307719205027
11
22.15601487156283
21
-31.00955523897816
0
LINE
8
Polygon
10
22.15601487156283
20
-31.00955523897816
11
22.02723928680528
21
-30.754928264243702
0
LINE
8
Polygon
10
22.02723928680528
20
-30.754928264243702
11
21.894208176002795
21
-30.502498529365408
0
LINE
8
Polygon
10
21.894208176002795
20
-30.502498529365408
11
21.756959017125265
21
-30.252337149693236
0
LINE
8
Polygon
10
21.756959017125265
20
-30.252337149693236
11
21.615530476465207
21
-30.004514601528555
0
LINE
8
Polygon
10
21.615530476465207
20
-30.00451460152856
11
21.46996239774455
21
-29.75910070226927
0
LINE
8
Polygon
10
21.46996239774455
20
-29.75910070226927
11
21.320295790889755
21
-29.516164590740658
0
LINE
8
Polygon
10
21.320295790889755
20
-29.516164590740658
11
21.166572820478354
21
-29.275774707717332
0
LINE
8
Polygon
10
21.166572820478354
20
-29.27577470771734
11
21.00883679386019
21
-29.037998776641917
0
LINE
8
Polygon
10
21.00883679386019
20
-29.037998776641917
11
20.847132148956735
21
-28.802903784545702
0
LINE
8
Polygon
10
20.847132148956735
20
-28.802903784545702
11
20.681504441741893
21
-28.5705559631769
0
LINE
8
Polygon
10
20.681504441741897
20
-28.5705559631769
11
20.512000333407826
21
-28.341020770341597
0
LINE
8
Polygon
10
20.512000333407826
20
-28.341020770341597
11
20.338667577219375
21
-28.114362871462717
0
LINE
8
Polygon
10
20.338667577219375
20
-28.114362871462717
11
20.161555005060887
21
-27.890646121362337
0
LINE
8
Polygon
10
20.16155500506089
20
-27.890646121362337
11
19.980712513679126
21
-27.669933546272237
0
LINE
8
Polygon
10
19.980712513679126
20
-27.669933546272237
11
19.796191050626156
21
-27.45228732607794
0
LINE
8
Polygon
10
19.796191050626156
20
-27.45228732607794
11
19.608042599906284
21
-27.23776877680123
0
LINE
8
Polygon
10
19.608042599906288
20
-27.23776877680123
11
19.41632016733092
21
-27.026438333325963
0
LINE
8
Polygon
10
19.41632016733092
20
-27.026438333325963
11
19.221077765585594
21
-26.81835553237214
0
LINE
8
Polygon
10
19.221077765585594
20
-26.81835553237214
11
19.02237039901335
21
-26.613578995723053
0
LINE
8
Polygon
10
19.02237039901335
20
-26.613578995723053
11
18.820254048118716
21
-26.412166413710143
0
LINE
8
Polygon
10
18.820254048118716
20
-26.412166413710143
11
18.61478565379669
21
-26.21417452896029
0
LINE
8
Polygon
10
18.61478565379669
20
-26.21417452896029
11
18.406023101291176
21
-26.019659120410083
0
LINE
8
Polygon
10
18.406023101291176
20
-26.01965912041009
11
18.194025203887346
21
-25.828674987591604
0
LINE
8
Polygon
10
18.19402520388735
20
-25.82867498759161
11
17.978851686342566
21
-25.64127593519412
0
LINE
8
Polygon
10
17.978851686342562
20
-25.64127593519412
11
17.760563168060532
21
-25.457514757906026
0
LINE
8
Polygon
10
17.760563168060536
20
-25.457514757906026
11
17.5392211460134
21
-25.27744322554137
0
LINE
8
Polygon
10
17.5392211460134
20
-25.27744322554137
11
17.3148879774166
21
-25.101112068455073
0
LINE
8
Polygon
10
17.314887977416603
20
-25.101112068455073
11
17.087626862161404
21
-24.92857096325103
0
LINE
8
Polygon
10
17.087626862161404
20
-24.92857096325103
11
16.857501825009997
21
-24.75986851878701
0
LINE
8
Polygon
10
16.857501825009997
20
-24.75986851878701
11
16.62457769755825
21
-24.595052262480436
0
LINE
8
Polygon
10
16.62457769755825
20
-24.595052262480436
11
16.388920099971113
21
-24.434168626918805
0
LINE
8
Polygon
10
16.388920099971113
20
-24.434168626918805
11
16.150595422495893
21
-24.277262936778506
0
LINE
8
Polygon
10
16.150595422495893
20
-24.277262936778506
11
15.909670806758571
21
-24.124379396055854
0
LINE
8
Polygon
10
15.909670806758571
20
-24.124379396055854
11
15.666214126848446
21
-23.975561075613747
0
LINE
8
Polygon
10
15.666214126848446
20
-23.975561075613747
11
15.420293970196408
21
-23.83084990104763
0
LINE
8
Polygon
10
15.420293970196408
20
-23.83084990104763
11
15.17197961825226
21
-23.690286640874042
0
LINE
8
Polygon
10
15.171979618252257
20
-23.69028664087404
11
14.921341026966514
21
-23.553910895045213
0
LINE
8
Polygon
10
14.921341026966514
20
-23.553910895045213
11
14.668448807082186
21
-23.42176108379281
0
LINE
8
Polygon
10
14.668448807082186
20
-23.42176108379281
11
14.413374204242068
21
-23.293874436804053
0
LINE
8
Polygon
10
14.413374204242063
20
-23.293874436804053
11
14.156189078917192
21
-23.170286982733266
0
LINE
8
Polygon
10
14.156189078917192
20
-23.170286982733266
11
13.89696588616205
21
-23.051033539051748
0
LINE
8
Polygon
10
13.89696588616205
20
-23.051033539051748
11
13.635777655202316
21
-22.93614770223887
0
LINE
8
Polygon
10
13.635777655202313
20
-22.93614770223887
11
13.372697968860795
21
-22.825661838317195
0
LINE
8
Polygon
10
13.372697968860795
20
-22.825661838317195
11
13.10780094282745
21
-22.71960707373418
0
LINE
8
Polygon
10
13.10780094282745
20
-22.71960707373418
11
13.059786400229529
21
-22.70224912827266
0
LINE
8
Polygon
10
13.059786400229529
20
-22.70224912827266
11
13.010948502299035
21
-22.687364428166045
0
LINE
8
Polygon
10
13.010948502299035
20
-22.687364428166045
11
12.961414554519395
21
-22.67499177328131
0
LINE
8
Polygon
10
12.961414554519395
20
-22.67499177328131
11
12.911313676763392
21
-22.665163415350776
0
LINE
8
Polygon
10
12.911313676763392
20
-22.665163415350776
11
12.860776466717097
21
-22.657904973901704
0
LINE
8
Polygon
10
12.860776466717097
20
-22.657904973901704
11
12.809934659451603
21
-22.653235369474025
0
LINE
8
Polygon
10
12.809934659451603
20
-22.653235369474025
11
12.75892078402991
21
-22.651166774300247
0
LINE
8
Polygon
10
12.75892078402991
20
-22.651166774300247
11
12.707867818044157
21
-22.65170458057618
0
LINE
8
Polygon
10
12.707867818044157
20
-22.65170458057618
11
12.656908840983638
21
-22.654847386405123
0
LINE
8
Polygon
10
12.656908840983638
20
-22.654847386405123
11
12.60617668733723
21
-22.660586999452185
0
LINE
8
Polygon
10
12.60617668733723
20
-22.660586999452185
11
12.555803600334443
21
-22.668908458299196
0
LINE
8
Polygon
10
12.555803600334443
20
-22.668908458299196
11
12.505920887227717
21
-22.679790071444547
0
LINE
8
Polygon
10
12.505920887227717
20
-22.679790071444547
11
12.456658577014526
21
-22.693203473846328
0
LINE
8
Polygon
10
12.456658577014526
20
-22.693203473846328
11
12.408145081491478
21
-22.7091137008613
0
LINE
8
Polygon
10
12.408145081491478
20
-22.7091137008613
11
12.360506860524003
21
-22.72747927938709
0
LINE
8
Polygon
10
12.360506860524003
20
-22.72747927938709
11
12.31386809240409
21
-22.748252335969838
0
LINE
8
Polygon
10
12.31386809240409
20
-22.748252335969838
11
12.268350350155426
21
-22.771378721595717
0
LINE
8
Polygon
10
12.268350350155426
20
-22.771378721595717
11
12.224072284629637
21
-22.796798152840864
0
LINE
8
Polygon
10
12.224072284629637
20
-22.796798152840864
11
12.181149315219763
21
-22.824444369011832
0
LINE
8
Polygon
10
12.181149315219763
20
-22.824444369011832
11
12.139693328997163
21
-22.85424530486701
0
LINE
8
Polygon
10
12.139693328997163
20
-22.85424530486701
11
12.09981238905608
21
-22.886123278468677
0
LINE
8
Polygon
10
12.09981238905608
20
-22.886123278468677
11
12.061610452826166
21
-22.919995193676098
0
LINE
8
Polygon
10
12.061610452826166
20
-22.919995193676098
11
12.025187101087214
21
-22.955772756751763
0
LINE
8
Polygon
10
12.025187101087214
20
-22.955772756751763
11
11.990637278392478
21
-22.993362706516233
0
LINE
8
Polygon
10
11.990637278392478
20
-22.99336270651623
11
11.958051045577225
21
-23.0326670574515
0
LINE
8
Polygon
10
11.958051045577225
20
-23.0326670574515
11
11.927513344997639
21
-23.073583355119357
0
LINE
8
Polygon
10
11.927513344997639
20
-23.073583355119357
11
11.899103779112052
21
-23.116004943228777
0
LINE
8
Polygon
10
11.899103779112052
20
-23.116004943228777
11
11.872896402981633
21
-23.15982124165632
0
LINE
8
Polygon
10
11.872896402981633
20
-23.15982124165632
11
11.848959531231475
21
-23.20491803469473
0
LINE
8
Polygon
10
11.848959531231475
20
-23.20491803469473
11
11.827355559975235
21
-23.25117776877841
0
LINE
8
Polygon
10
11.827355559975235
20
-23.25117776877841
11
11.808140804167506
21
-23.29847985890963
0
LINE
8
Polygon
10
11.808140804167506
20
-23.29847985890963
11
11.791365350807942
21
-23.34670100298683
0
LINE
8
Polygon
10
11.791365350807942
20
-23.346701002986826
11
11.777072928379756
21
-23.39571550321551
0
LINE
8
Polygon
10
11.777072928379756
20
-23.39571550321551
11
11.765300792862904
21
-23.445395593763994
0
LINE
8
Polygon
10
11.765300792862904
20
-23.445395593763994
11
11.75607963061913
21
-23.49561177380994
0
LINE
8
Polygon
10
11.75607963061913
20
-23.49561177380994
11
11.749433478402004
21
-23.54623314510942
0
LINE
8
Polygon
10
11.749433478402004
20
-23.54623314510942
11
11.745379660700426
21
-23.597127753208657
0
LINE
8
Polygon
10
11.745379660700426
20
-23.597127753208657
11
11.743928744578996
21
-23.648162931409004
0
LINE
8
Polygon
10
11.743928744578996
20
-23.648162931409004
11
11.745084512132891
21
-23.699205646588496
0
LINE
8
Polygon
10
11.745084512132891
20
-23.699205646588496
11
11.748843950629102
21
-23.750122845978545
0
LINE
8
Polygon
10
11.748843950629102
20
-23.750122845978545
11
11.755197260359708
21
-23.800781803991907
0
LINE
8
Polygon
10
11.755197260359708
20
-23.800781803991907
11
11.764127880186724
21
-23.851050468197734
0
LINE
8
Polygon
10
11.764127880186724
20
-23.851050468197734
11
11.775612530711927
21
-23.90079780354192
0
LINE
8
Polygon
10
11.775612530711927
20
-23.90079780354192
11
11.789621274959137
21
-23.949894133915475
0
LINE
8
Polygon
10
11.789621274959137
20
-23.94989413391547
11
11.806117596410768
21
-23.99821148018053
0
LINE
8
Polygon
10
11.806117596410768
20
-23.99821148018053
11
11.825058494195247
21
-24.045623893772866
0
LINE
8
Polygon
10
11.825058494195247
20
-24.045623893772866
11
11.846394595177134
21
-24.09200778501135
0
LINE
8
Polygon
10
11.846394595177134
20
-24.09200778501135
11
11.870070282657824
21
-24.137242245258484
0
LINE
8
Polygon
10
3.386134660710735
20
-23.727488549665377
11
3.1508789249566753
21
-24.10278199389783
0
LINE
8
Polygon
10
3.1508789249566753
20
-24.10278199389783
11
2.9497596958943877
21
-24.49742295247972
0
LINE
8
Polygon
10
2.9497596958943877
20
-24.49742295247972
11
2.784355280249046
21
-24.90831443422893
0
LINE
8
Polygon
10
2.784355280249046
20
-24.90831443422893
11
2.65596370856106
21
-25.332231920077923
0
LINE
8
Polygon
10
2.655963708561061
20
-25.33223192007792
11
2.5655925487392555
21
-25.76584866786507
0
LINE
8
Polygon
10
2.5655925487392555
20
-25.76584866786507
11
2.5139509990536006
21
-26.205761819333752
0
LINE
8
Polygon
10
2.5139509990536006
20
-26.205761819333752
11
2.501444322618654
21
-26.648519104461382
0
LINE
8
Polygon
10
2.501444322618654
20
-26.648519104461382
11
2.5281706670437663
21
-27.090645933553116
0
LINE
8
Polygon
10
2.5281706670437663
20
-27.090645933553116
11
2.5939202942082114
21
-27.528672664491737
0
LINE
8
Polygon
10
2.593920294208211
20
-27.528672664491737
11
2.698177226205672
21
-27.959161831160912
0
LINE
8
Polygon
10
2.698177226205672
20
-27.959161831160912
11
2.8401232945413484
21
-28.37873511936344
0
LINE
8
Polygon
10
2.8401232945413484
20
-28.37873511936344
11
3.01864456080512
21
-28.784099878537965
0
LINE
8
Polygon
10
3.01864456080512
20
-28.784099878537965
11
3.2323400584337962
21
-29.172074961220183
0
LINE
8
Polygon
10
3.2323400584337962
20
-29.172074961220183
11
3.4795327869604447
21
-29.539615687470477
0
LINE
8
Polygon
10
3.4795327869604447
20
-29.539615687470477
11
3.7582828724721287
21
-29.88383773835663
0
LINE
8
Polygon
10
3.7582828724721287
20
-29.88383773835663
11
4.066402790997832
21
-30.20203979098476
0
LINE
8
Polygon
10
4.066402790997832
20
-30.20203979098476
11
4.401474535359243
21
-30.49172471744736
0
LINE
8
Polygon
10
4.401474535359243
20
-30.49172471744736
11
4.760868590765523
21
-30.750619181327277
0
LINE
8
Polygon
10
4.760868590765519
20
-30.75061918132727
11
5.141764570238852
21
-30.976691477971713
0
LINE
8
Polygon
10
5.141764570238856
20
-30.976691477971713
11
5.541173347931867
21
-31.16816747853266
0
LINE
8
Polygon
10
5.541173347931863
20
-31.16816747853266
11
5.955960516643083
21
-31.323544552650983
0
LINE
8
Polygon
10
5.955960516643083
20
-31.323544552650983
11
6.38287098544488
21
-31.441603360524304
0
LINE
8
Polygon
10
6.38287098544488
20
-31.441603360524304
11
6.818554524391077
21
-31.52141742181904
0
LINE
8
Polygon
10
6.818554524391077
20
-31.52141742181904
11
7.259592055839158
21
-31.562360386333406
0
LINE
8
Polygon
10
7.259592055839158
20
-31.562360386333406
11
7.702522486062858
21
-31.564110949354056
0
LINE
8
Polygon
10
7.702522486062858
20
-31.564110949354056
11
8.143869866590885
21
-31.526655373132495
0
LINE
8
Polygon
10
8.143869866590885
20
-31.526655373132495
11
8.580170672120001
21
-31.450287594693645
0
LINE
8
Polygon
10
8.580170672120001
20
-31.450287594693645
11
9.008000980935824
21
-31.335606919130594
0
LINE
8
Polygon
10
9.008000980935824
20
-31.335606919130594
11
9.424003344539846
21
-31.183513316487648
0
LINE
8
Polygon
10
9.424003344539841
20
-31.183513316487648
11
9.82491313562006
21
-30.995200359139897
0
LINE
8
Polygon
10
9.824913135620065
20
-30.995200359139897
11
10.20758416759651
21
-30.77214585509408
0
LINE
8
Polygon
10
10.207584167596504
20
-30.772145855094085
11
10.56901338468921
21
-30.51610025071706
0
LINE
8
Polygon
10
10.569013384689214
20
-30.51610025071706
11
10.90636442875047
21
-30.229072893902725
0
LINE
8
Polygon
10
10.906364428750466
20
-30.229072893902732
11
11.216989897917863
21
-29.91331626547891
0
LINE
8
Polygon
10
11.216989897917864
20
-29.913316265478905
11
11.498452122410727
21
-29.571308302600013
0
LINE
8
Polygon
10
11.498452122410724
20
-29.57130830260002
11
11.748542294429464
21
-29.205732952844766
0
LINE
8
Polygon
10
11.748542294429464
20
-29.205732952844766
11
11.96529780203371
21
-28.819459111622937
0
LINE
8
Polygon
10
11.96529780203371
20
-28.819459111622937
11
12.147017630969547
21
-28.41551810818237
0
LINE
8
Polygon
10
12.147017630969547
20
-28.41551810818237
11
12.292275713578285
21
-27.997079916897356
0
LINE
8
Polygon
10
12.292275713578285
20
-27.997079916897356
11
12.399932120029563
21
-27.567428280523142
0
LINE
8
Polygon
10
12.399932120029563
20
-27.567428280523142
11
12.469142004054316
21
-27.129934940639757
0
LINE
8
Polygon
10
12.469142004054316
20
-27.129934940639757
11
12.499362232974908
21
-26.688033177514704
0
LINE
8
Polygon
10
12.499362232974907
20
-26.688033177514708
11
12.490355650002485
21
-26.245190867033646
0
LINE
8
Polygon
10
12.490355650002485
20
-26.245190867033646
11
12.442192935352667
21
-25.804883266137864
0
LINE
8
Polygon
10
12.442192935352669
20
-25.804883266137864
11
12.355252051574285
21
-25.370565740338048
0
LINE
8
Polygon
10
12.355252051574283
20
-25.37056574033804
11
12.230215277443959
21
-24.945646647328417
0
LINE
8
Polygon
10
12.230215277443959
20
-24.94564664732842
11
12.068063853703434
21
-24.533460589500212
0
LINE
8
Polygon
10
12.068063853703434
20
-24.533460589500212
11
11.870070282657833
21
-24.137242245258488
0
LINE
8
Polygon
10
3.386134660710743
20
-23.727488549665374
11
3.4140594134002153
21
-23.684746266633645
0
LINE
8
Polygon
10
3.4140594134002153
20
-23.684746266633645
11
3.439766240215018
21
-23.640634435718948
0
LINE
8
Polygon
10
3.439766240215018
20
-23.640634435718948
11
3.4631881313092414
21
-23.595268042991478
0
LINE
8
Polygon
10
3.4631881313092414
20
-23.595268042991478
11
3.484264032966515
21
-23.548765344780882
0
LINE
8
Polygon
10
3.484264032966515
20
-23.548765344780882
11
3.5029390067483983
21
-23.501247559418147
0
LINE
8
Polygon
10
3.5029390067483983
20
-23.501247559418147
11
3.5191643727021114
21
-23.452838551256434
0
LINE
8
Polygon
10
3.5191643727021114
20
-23.452838551256434
11
3.5328978362543006
21
-23.403664507794524
0
LINE
8
Polygon
10
3.5328978362543006
20
-23.403664507794524
11
3.5441035984600773
21
-23.353853610744576
0
LINE
8
Polygon
10
3.5441035984600773
20
-23.353853610744576
11
3.552752449319928
21
-23.303535701901534
0
LINE
8
Polygon
10
3.552752449319928
20
-23.303535701901534
11
3.558821843921268
21
-23.252841944685223
0
LINE
8
Polygon
10
3.558821843921268
20
-23.252841944685223
11
3.562295961206137
21
-23.2019044822374
0
LINE
8
Polygon
10
3.562295961206137
20
-23.2019044822374
11
3.5631657452118675
21
-23.150856092964904
0
LINE
8
Polygon
10
3.5631657452118675
20
-23.150856092964904
11
3.5614289286772127
21
-23.09982984442694
0
LINE
8
Polygon
10
3.5614289286772127
20
-23.09982984442694
11
3.5570900389524067
21
-23.048958746468582
0
LINE
8
Polygon
10
3.5570900389524067
20
-23.048958746468582
11
3.5501603861977413
21
-22.998375404504724
0
LINE
8
Polygon
10
3.5501603861977413
20
-22.998375404504724
11
3.540658033901433
21
-22.948211673858275
0
LINE
8
Polygon
10
3.540658033901433
20
-22.948211673858275
11
3.528607751793632
21
-22.898598316053594
0
LINE
8
Polygon
10
3.528607751793632
20
-22.898598316053594
11
3.514040951279292
21
-22.849664657961146
0
LINE
8
Polygon
10
3.514040951279292
20
-22.849664657961146
11
3.4969956035582395
21
-22.80153825468185
0
LINE
8
Polygon
10
3.4969956035582395
20
-22.80153825468185
11
3.4775161406458475
21
-22.754344557049887
0
LINE
8
Polygon
10
3.4775161406458475
20
-22.754344557049887
11
3.4556533395523488
21
-22.708206584620672
0
LINE
8
Polygon
10
3.4556533395523488
20
-22.708206584620672
11
3.431464189922669
21
-22.663244604996482
0
LINE
8
Polygon
10
3.431464189922669
20
-22.663244604996482
11
3.405011745481841
21
-22.619575820325537
0
LINE
8
Polygon
10
3.405011745481841
20
-22.619575820325537
11
3.37636495967319
21
-22.57731406179177
0
LINE
8
Polygon
10
3.37636495967319
20
-22.57731406179177
11
3.345598505917776
21
-22.536569492891743
0
LINE
8
Polygon
10
3.345598505917776
20
-22.536569492891743
11
3.312792582963589
21
-22.49744832227203
0
LINE
8
Polygon
10
3.312792582963589
20
-22.49744832227203
11
3.2780327058319076
21
-22.460052526875714
0
LINE
8
Polygon
10
3.2780327058319076
20
-22.460052526875714
11
3.2414094829057576
21
-22.42447958611965
0
LINE
8
Polygon
10
3.2414094829057576
20
-22.42447958611965
11
3.203018379741534
21
-22.390822227795404
0
LINE
8
Polygon
10
3.203018379741534
20
-22.390822227795404
11
3.162959470219448
21
-22.35916818635621
0
LINE
8
Polygon
10
3.1629594702194486
20
-22.35916818635621
11
3.1213371756814947
21
-22.329599974220056
0
LINE
8
Polygon
10
3.1213371756814943
20
-22.329599974220056
11
3.078259992736899
21
-22.302194666685004
0
LINE
8
Polygon
10
3.078259992736899
20
-22.302194666685004
11
3.033840210444601
21
-22.27702370101744
0
LINE
8
Polygon
10
3.033840210444601
20
-22.27702370101744
11
2.9881936176099693
21
-22.254152690236932
0
LINE
8
Polygon
10
2.988193617609969
20
-22.25415269023693
11
2.9414392009587558
21
-22.23364125208312
0
LINE
8
Polygon
10
2.9414392009587558
20
-22.23364125208312
11
2.89369883497504
21
-22.215542853610497
0
LINE
8
Polygon
10
2.89369883497504
20
-22.215542853610497
11
2.845096964211675
21
-22.19990467181612
0
LINE
8
Polygon
10
2.845096964211675
20
-22.19990467181612
11
2.795760278901346
21
-22.186767470663575
0
LINE
8
Polygon
10
2.795760278901346
20
-22.186767470663575
11
2.7458173847138285
21
-22.176165494823795
0
LINE
8
Polygon
10
2.745817384713828
20
-22.176165494823795
11
2.695398467520288
21
-22.168126380409646
0
LINE
8
Polygon
10
2.695398467520288
20
-22.168126380409646
11
2.6446349540384757
21
-22.162671082937035
0
LINE
8
Polygon
10
2.6446349540384753
20
-22.162671082937035
11
2.593659169243416
21
-22.159813822700265
0
LINE
8
Polygon
10
2.5936591692434154
20
-22.159813822700265
11
2.5426039914366134
21
-22.15956204770409
0
LINE
8
Polygon
10
2.542603991436614
20
-22.15956204770409
11
2.4916025058729074
21
-22.16191641424902
0
LINE
8
Polygon
10
2.491602505872907
20
-22.161916414249024
11
2.440787657847855
21
-22.16687078522057
0
LINE
8
Polygon
10
2.440787657847855
20
-22.16687078522057
11
2.3902919061499577
21
-22.17441224608682
0
LINE
8
Polygon
10
2.3902919061499577
20
-22.17441224608682
11
2.3402468777810514
21
-22.184521138562665
0
LINE
8
Polygon
10
2.3402468777810514
20
-22.184521138562665
11
2.2907830248449175
21
-22.19717111185297
0
LINE
8
Polygon
10
2.2907830248449175
20
-22.197171111852967
11
2.016898411638126
21
-22.27720401846416
0
LINE
8
Polygon
10
2.016898411638126
20
-22.27720401846416
11
1.7443956526068436
21
-22.36182253778711
0
LINE
8
Polygon
10
1.7443956526068394
20
-22.36182253778711
11
1.4733515181406025
21
-22.451002830809273
0
LINE
8
Polygon
10
1.4733515181406025
20
-22.451002830809273
11
1.203842367700355
21
-22.54471977335994
0
LINE
8
Polygon
10
1.203842367700355
20
-22.54471977335994
11
0.9359441283061993
21
-22.64294696318833
0
LINE
8
Polygon
10
0.9359441283061959
20
-22.64294696318833
11
0.6697322731469848
21
-22.745656727401673
0
LINE
8
Polygon
10
0.6697322731469848
20
-22.745656727401673
11
0.4052818003177583
21
-22.852820130261364
0
LINE
8
Polygon
10
0.4052818003177583
20
-22.852820130261364
11
0.1426672116910263
21
-22.96440698133479
0
LINE
8
Polygon
10
0.14266721169102353
20
-22.964406981334793
11
-0.1180375080721427
21
-23.080385844000702
0
LINE
8
Polygon
10
-0.1180375080721427
20
-23.080385844000702
11
-0.3767589123653284
21
-23.200724044305655
0
LINE
8
Polygon
10
-0.3767589123653284
20
-23.200724044305655
11
-0.633424113328386
21
-23.325387680168987
0
LINE
8
Polygon
10
-0.6334241133283791
20
-23.325387680168983
11
-0.8879608023816488
21
-23.454341630933865
0
LINE
8
Polygon
10
-0.8879608023816488
20
-23.454341630933865
11
-1.1402972705969696
21
-23.587549567261586
0
LINE
8
Polygon
10
-1.1402972705969696
20
-23.587549567261586
11
-1.390362428899765
21
-23.72497396136638
0
LINE
8
Polygon
10
-1.3903624288997594
20
-23.724973961366373
11
-1.6380858280964832
21
-23.866576097587874
0
LINE
8
Polygon
10
-1.6380858280964832
20
-23.866576097587874
11
-1.8833976787218056
21
-24.01231608329822
0
LINE
8
Polygon
10
-1.8833976787218056
20
-24.01231608329822
11
-2.1262288706999324
21
-24.16215286014074
0
LINE
8
Polygon
10
-2.126228870699924
20
-24.162152860140736
11
-2.3665109928145176
21
-24.316044215597042
0
LINE
8
Polygon
10
-2.3665109928145176
20
-24.316044215597042
11
-2.604176351981738
21
-24.473946794879296
0
LINE
8
Polygon
10
-2.604176351981738
20
-24.473946794879296
11
-2.839157992320962
21
-24.635816113144244
0
LINE
8
Polygon
10
-2.8391579923209562
20
-24.635816113144244
11
-3.0713897140178164
21
-24.80160656802565
0
LINE
8
Polygon
10
-3.0713897140178164
20
-24.80160656802565
11
-3.300806091974226
21
-24.97127145248155
0
LINE
8
Polygon
10
-3.300806091974226
20
-24.97127145248155
11
-3.527342494240167
21
-25.1447629679527
0
LINE
8
Polygon
10
-3.5273424942401586
20
-25.144762967952694
11
-3.7509351002220024
21
-25.32203223782855
0
LINE
8
Polygon
10
-3.7509351002220024
20
-25.32203223782855
11
-3.971520918662265
21
-25.503029321216964
0
LINE
8
Polygon
10
-3.971520918662265
20
-25.503029321216964
11
-4.1890378053857145
21
-25.68770322701367
0
LINE
8
Polygon
10
-4.189037805385709
20
-25.68770322701367
11
-4.403424480806834
21
-25.876001928267684
0
LINE
8
Polygon
10
-4.403424480806834
20
-25.876001928267684
11
-4.6146205471937245
21
-26.067872376838526
0
LINE
8
Polygon
10
-4.6146205471937245
20
-26.067872376838526
11
-4.822566505683534
21
-26.26326051834109
0
LINE
8
Polygon
10
-4.822566505683529
20
-26.263260518341085
11
-5.027203773044684
21
-26.46211130737404
0
LINE
8
Polygon
10
-5.027203773044684
20
-26.46211130737404
11
-5.228474698181159
21
-26.664368723027415
0
LINE
8
Polygon
10
-5.228474698181154
20
-26.66436872302741
11
-5.426322578374116
21
-26.869975784664945
0
LINE
8
Polygon
10
-5.426322578374116
20
-26.869975784664945
11
-5.620691675256417
21
-27.07887456797694
0
LINE
8
Polygon
10
-5.620691675256417
20
-27.07887456797694
11
-5.811527230515392
21
-27.291006221298815
0
LINE
8
Polygon
10
-5.811527230515387
20
-27.291006221298808
11
-5.9987754813195435
21
-27.506310982191028
0
LINE
8
Polygon
10
-5.9987754813195435
20
-27.506310982191028
11
-6.182383675464809
21
-27.724728194275578
0
LINE
8
Polygon
10
-6.182383675464809
20
-27.724728194275578
11
-6.362300086236056
21
-27.94619632432427
0
LINE
8
Polygon
10
-6.362300086236051
20
-27.94619632432426
11
-6.5384740269797295
21
-28.17065297959408
0
LINE
8
Polygon
10
-6.5384740269797295
20
-28.17065297959408
11
-6.710855865383475
21
-28.398034925404687
0
LINE
8
Polygon
10
-6.710855865383475
20
-28.398034925404687
11
-6.8793970374586815
21
-28.628278102953093
0
LINE
8
Polygon
10
-6.879397037458676
20
-28.628278102953086
11
-7.0440500612221175
21
-28.86131764736053
0
LINE
8
Polygon
10
-7.0440500612221175
20
-28.86131764736053
11
-7.204768550072729
21
-29.0970879059464
0
LINE
8
Polygon
10
-7.204768550072729
20
-29.0970879059464
11
-7.361507225859787
21
-29.335522456724156
0
LINE
8
Polygon
10
-7.361507225859781
20
-29.33552245672415
11
-7.514221931638826
21
-29.57655412711394
0
LINE
8
Polygon
10
-7.514221931638826
20
-29.57655412711394
11
-7.662869644111703
21
-29.820115012866665
0
LINE
8
Polygon
10
-7.662869644111703
20
-29.820115012866665
11
-7.807408485747216
21
-30.06613649719423
0
LINE
8
Polygon
10
-7.807408485747211
20
-30.06613649719422
11
-7.947797736579024
21
-30.31454927010044
0
LINE
8
Polygon
10
-7.947797736579024
20
-30.31454927010044
11
-8.083997845677407
21
-30.565283347907307
0
LINE
8
Polygon
10
22.627854563829317
20
-32.04859198956546
11
50.0
21
-20.710678118654748
0
LINE
8
Polygon
10
50.0
20
-20.710678118654748
11
30.962101759446973
21
25.25087401276722
0
LINE
8
Polygon
10
30.962101759446973
20
25.25087401276722
11
-25.86867601227395
21
-21.096974744736784
0
LINE
8
Polygon
10
-25.86867601227395
20
-21.096974744736784
11
-8.083997845677407
21
-30.565283347907307
0
ENDSEC
0
EOF
