0
SECTION
2
ENTITIES
0
LINE
8
Polygon
10
0.22627854563829317
20
-0.3204859198956546
11
0.2251645173406606
21
-0.3178589928503637
0
LINE
8
Polygon
10
0.2251645173406606
20
-0.3178589928503637
11
0.22400655555689483
21
-0.31525113371756047
0
LINE
8
Polygon
10
0.22400655555689483
20
-0.31525113371756047
11
0.22280498651186612
21
-0.3126630771920503
0
LINE
8
Polygon
10
0.22280498651186612
20
-0.3126630771920503
11
0.22156014871562832
21
-0.3100955523897816
0
LINE
8
Polygon
10
0.22156014871562832
20
-0.3100955523897816
11
0.2202723928680528
21
-0.307549282642437
0
LINE
8
Polygon
10
0.2202723928680528
20
-0.307549282642437
11
0.21894208176002794
21
-0.30502498529365407
0
LINE
8
Polygon
10
0.21894208176002794
20
-0.30502498529365407
11
0.21756959017125266
21
-0.30252337149693237
0
LINE
8
Polygon
10
0.21756959017125266
20
-0.30252337149693237
11
0.21615530476465206
21
-0.30004514601528554
0
LINE
8
Polygon
10
0.21615530476465206
20
-0.3000451460152856
11
0.2146996239774455
21
-0.2975910070226927
0
LINE
8
Polygon
10
0.2146996239774455
20
-0.2975910070226927
11
0.21320295790889757
21
-0.29516164590740657
0
LINE
8
Polygon
10
0.21320295790889757
20
-0.29516164590740657
11
0.21166572820478355
21
-0.29275774707717334
0
LINE
8
Polygon
10
0.21166572820478355
20
-0.2927577470771734
11
0.2100883679386019
21
-0.29037998776641916
0
LINE
8
Polygon
10
0.2100883679386019
20
-0.29037998776641916
11
0.20847132148956735
21
-0.288029037845457
0
LINE
8
Polygon
10
0.20847132148956735
20
-0.288029037845457
11
0.20681504441741894
21
-0.285705559631769
0
LINE
8
Polygon
10
0.20681504441741896
20
-0.285705559631769
11
0.20512000333407826
21
-0.28341020770341596
0
LINE
8
Polygon
10
0.20512000333407826
20
-0.28341020770341596
11
0.20338667577219374
21
-0.28114362871462717
0
LINE
8
Polygon
10
0.20338667577219374
20
-0.28114362871462717
11
0.20161555005060888
21
-0.2789064612136234
0
LINE
8
Polygon
10
0.2016155500506089
20
-0.2789064612136234
11
0.19980712513679125
21
-0.27669933546272235
0
LINE
8
Polygon
10
0.19980712513679125
20
-0.27669933546272235
11
0.19796191050626155
21
-0.2745228732607794
0
LINE
8
Polygon
10
0.19796191050626155
20
-0.2745228732607794
11
0.19608042599906284
21
-0.2723776877680123
0
LINE
8
Polygon
10
0.19608042599906286
20
-0.2723776877680123
11
0.1941632016733092
21
-0.27026438333325964
0
LINE
8
Polygon
10
0.1941632016733092
20
-0.27026438333325964
11
0.19221077765585595
21
-0.2681835553237214
0
LINE
8
Polygon
10
0.19221077765585595
20
-0.2681835553237214
11
0.19022370399013352
21
-0.26613578995723053
0
LINE
8
Polygon
10
0.19022370399013352
20
-0.26613578995723053
11
0.18820254048118717
21
-0.2641216641371014
0
LINE
8
Polygon
10
0.18820254048118717
20
-0.2641216641371014
11
0.1861478565379669
21
-0.2621417452896029
0
LINE
8
Polygon
10
0.1861478565379669
20
-0.2621417452896029
11
0.18406023101291175
21
-0.2601965912041008
0
LINE
8
Polygon
10
0.18406023101291177
20
-0.2601965912041009
11
0.18194025203887346
21
-0.25828674987591604
0
LINE
8
Polygon
10
0.18194025203887348
20
-0.2582867498759161
11
0.17978851686342567
21
-0.2564127593519412
0
LINE
8
Polygon
10
0.17978851686342562
20
-0.2564127593519412
11
0.17760563168060534
21
-0.25457514757906025
0
LINE
8
Polygon
10
0.17760563168060536
20
-0.25457514757906025
11
0.175392211460134
21
-0.2527744322554137
0
LINE
8
Polygon
10
0.175392211460134
20
-0.2527744322554137
11
0.17314887977416601
21
-0.2510111206845507
0
LINE
8
Polygon
10
0.17314887977416604
20
-0.2510111206845507
11
0.17087626862161404
21
-0.2492857096325103
0
LINE
8
Polygon
10
0.17087626862161404
20
-0.2492857096325103
11
0.1685750182501
21
-0.2475986851878701
0
LINE
8
Polygon
10
0.1685750182501
20
-0.2475986851878701
11
0.16624577697558252
21
-0.24595052262480438
0
LINE
8
Polygon
10
0.16624577697558252
20
-0.24595052262480438
11
0.16388920099971113
21
-0.24434168626918804
0
LINE
8
Polygon
10
0.16388920099971113
20
-0.24434168626918804
11
0.16150595422495892
21
-0.24277262936778507
0
LINE
8
Polygon
10
0.16150595422495892
20
-0.24277262936778507
11
0.15909670806758572
21
-0.24124379396055853
0
LINE
8
Polygon
10
0.15909670806758572
20
-0.24124379396055853
11
0.15666214126848446
21
-0.23975561075613747
0
LINE
8
Polygon
10
0.15666214126848446
20
-0.23975561075613747
11
0.15420293970196408
21
-0.23830849901047627
0
LINE
8
Polygon
10
0.15420293970196408
20
-0.23830849901047627
11
0.1517197961825226
21
-0.23690286640874042
0
LINE
8
Polygon
10
0.15171979618252257
20
-0.2369028664087404
11
0.14921341026966514
21
-0.23553910895045213
0
LINE
8
Polygon
10
0.14921341026966514
20
-0.23553910895045213
11
0.14668448807082185
21
-0.2342176108379281
0
LINE
8
Polygon
10
0.14668448807082185
20
-0.2342176108379281
11
0.1441337420424207
21
-0.23293874436804055
0
LINE
8
Polygon
10
0.14413374204242063
20
-0.23293874436804055
11
0.14156189078917192
21
-0.23170286982733268
0
LINE
8
Polygon
10
0.14156189078917192
20
-0.23170286982733268
11
0.1389696588616205
21
-0.23051033539051746
0
LINE
8
Polygon
10
0.1389696588616205
20
-0.23051033539051746
11
0.13635777655202316
21
-0.2293614770223887
0
LINE
8
Polygon
10
0.13635777655202314
20
-0.2293614770223887
11
0.13372697968860794
21
-0.22825661838317196
0
LINE
8
Polygon
10
0.1310780094282745
20
-0.22719607073734183
11
0.13059786400229528
21
-0.22702249128272659
0
LINE
8
Polygon
10
0.13059786400229528
20
-0.22702249128272659
11
0.13010948502299036
21
-0.22687364428166046
0
LINE
8
Polygon
10
0.13010948502299036
20
-0.22687364428166046
11
0.12961414554519396
21
-0.22674991773281308
0
LINE
8
Polygon
10
0.12961414554519396
20
-0.22674991773281308
11
0.12911313676763392
21
-0.22665163415350775
0
LINE
8
Polygon
10
0.12911313676763392
20
-0.22665163415350775
11
0.12860776466717097
21
-0.22657904973901705
0
LINE
8
Polygon
10
0.12860776466717097
20
-0.22657904973901705
11
0.12809934659451602
21
-0.22653235369474026
0
LINE
8
Polygon
10
0.12809934659451602
20
-0.22653235369474026
11
0.1275892078402991
21
-0.22651166774300246
0
LINE
8
Polygon
10
0.1275892078402991
20
-0.22651166774300246
11
0.12707867818044158
21
-0.2265170458057618
0
LINE
8
Polygon
10
0.12707867818044158
20
-0.2265170458057618
11
0.12656908840983638
21
-0.22654847386405125
0
LINE
8
Polygon
10
0.12656908840983638
20
-0.22654847386405125
11
0.1260617668733723
21
-0.22660586999452187
0
LINE
8
Polygon
10
0.1260617668733723
20
-0.22660586999452187
11
0.12555803600334442
21
-0.22668908458299197
0
LINE
8
Polygon
10
0.12555803600334442
20
-0.22668908458299197
11
0.12505920887227717
21
-0.22679790071444547
0
LINE
8
Polygon
10
0.12505920887227717
20
-0.22679790071444547
11
0.12456658577014526
21
-0.22693203473846327
0
LINE
8
Polygon
10
0.12456658577014526
20
-0.22693203473846327
11
0.12408145081491478
21
-0.22709113700861303
0
LINE
8
Polygon
10
0.12408145081491478
20
-0.22709113700861303
11
0.12360506860524002
21
-0.2272747927938709
0
LINE
8
Polygon
10
0.12360506860524002
20
-0.2272747927938709
11
0.12313868092404091
21
-0.22748252335969837
0
LINE
8
Polygon
10
0.12313868092404091
20
-0.22748252335969837
11
0.12268350350155426
21
-0.22771378721595717
0
LINE
8
Polygon
10
0.12268350350155427
20
-0.22771378721595717
11
0.12224072284629636
21
-0.22796798152840864
0
LINE
8
Polygon
10
0.12224072284629636
20
-0.22796798152840864
11
0.12181149315219762
21
-0.22824444369011831
0
LINE
8
Polygon
10
0.12181149315219762
20
-0.22824444369011831
11
0.12139693328997163
21
-0.2285424530486701
0
LINE
8
Polygon
10
0.12139693328997163
20
-0.2285424530486701
11
0.1209981238905608
21
-0.22886123278468679
0
LINE
8
Polygon
10
0.1209981238905608
20
-0.22886123278468679
11
0.12061610452826166
21
-0.22919995193676096
0
LINE
8
Polygon
10
0.12061610452826166
20
-0.22919995193676096
11
0.12025187101087215
21
-0.22955772756751763
0
LINE
8
Polygon
10
0.12025187101087215
20
-0.22955772756751763
11
0.11990637278392478
21
-0.22993362706516232
0
LINE
8
Polygon
10
0.11990637278392478
20
-0.2299336270651623
11
0.11958051045577225
21
-0.23032667057451503
0
LINE
8
Polygon
10
0.11958051045577225
20
-0.23032667057451503
11
0.1192751334499764
21
-0.23073583355119356
0
LINE
8
Polygon
10
0.1192751334499764
20
-0.23073583355119356
11
0.11899103779112051
21
-0.23116004943228777
0
LINE
8
Polygon
10
0.11899103779112051
20
-0.23116004943228777
11
0.11872896402981632
21
-0.2315982124165632
0
LINE
8
Polygon
10
0.11872896402981632
20
-0.2315982124165632
11
0.11848959531231476
21
-0.23204918034694733
0
LINE
8
Polygon
10
0.11848959531231476
20
-0.23204918034694733
11
0.11827355559975235
21
-0.23251177768778408
0
LINE
8
Polygon
10
0.11827355559975235
20
-0.23251177768778408
11
0.11808140804167505
21
-0.2329847985890963
0
LINE
8
Polygon
10
0.11808140804167505
20
-0.2329847985890963
11
0.11791365350807942
21
-0.2334670100298683
0
LINE
8
Polygon
10
0.11791365350807942
20
-0.23346701002986828
11
0.11777072928379756
21
-0.23395715503215508
0
LINE
8
Polygon
10
0.11777072928379756
20
-0.23395715503215508
11
0.11765300792862904
21
-0.23445395593763993
0
LINE
8
Polygon
10
0.11765300792862904
20
-0.23445395593763993
11
0.1175607963061913
21
-0.2349561177380994
0
LINE
8
Polygon
10
0.1175607963061913
20
-0.2349561177380994
11
0.11749433478402004
21
-0.2354623314510942
0
LINE
8
Polygon
10
0.11749433478402004
20
-0.2354623314510942
11
0.11745379660700425
21
-0.23597127753208658
0
LINE
8
Polygon
10
0.11745379660700425
20
-0.23597127753208658
11
0.11743928744578996
21
-0.23648162931409006
0
LINE
8
Polygon
10
0.11743928744578996
20
-0.23648162931409006
11
0.1174508451213289
21
-0.23699205646588495
0
LINE
8
Polygon
10
0.1174508451213289
20
-0.23699205646588495
11
0.11748843950629101
21
-0.23750122845978544
0
LINE
8
Polygon
10
0.11748843950629101
20
-0.23750122845978544
11
0.11755197260359708
21
-0.23800781803991908
0
LINE
8
Polygon
10
0.11755197260359708
20
-0.23800781803991908
11
0.11764127880186724
21
-0.23851050468197735
0
LINE
8
Polygon
10
0.11764127880186724
20
-0.23851050468197735
11
0.11775612530711926
21
-0.2390079780354192
0
LINE
8
Polygon
10
0.11775612530711926
20
-0.2390079780354192
11
0.11789621274959136
21
-0.23949894133915475
0
LINE
8
Polygon
10
0.11789621274959136
20
-0.23949894133915473
11
0.11806117596410769
21
-0.23998211480180529
0
LINE
8
Polygon
10
0.11806117596410769
20
-0.23998211480180529
11
0.11825058494195247
21
-0.24045623893772866
0
LINE
8
Polygon
10
0.11825058494195247
20
-0.24045623893772866
11
0.11846394595177134
21
-0.24092007785011352
0
LINE
8
Polygon
10
0.03386134660710735
20
-0.23727488549665376
11
0.03150878924956675
21
-0.2410278199389783
0
LINE
8
Polygon
10
0.03150878924956675
20
-0.2410278199389783
11
0.029497596958943877
21
-0.2449742295247972
0
LINE
8
Polygon
10
0.029497596958943877
20
-0.2449742295247972
11
0.027843552802490457
21
-0.24908314434228931
0
LINE
8
Polygon
10
0.027843552802490457
20
-0.24908314434228931
11
0.0265596370856106
21
-0.25332231920077924
0
LINE
8
Polygon
10
0.026559637085610606
20
-0.2533223192007792
11
0.025655925487392553
21
-0.2576584866786507
0
LINE
8
Polygon
10
0.025655925487392553
20
-0.2576584866786507
11
0.025139509990536005
21
-0.2620576181933375
0
LINE
8
Polygon
10
0.025139509990536005
20
-0.2620576181933375
11
0.02501444322618654
21
-0.2664851910446138
0
LINE
8
Polygon
10
0.02501444322618654
20
-0.2664851910446138
11
0.025281706670437665
21
-0.27090645933553115
0
LINE
8
Polygon
10
0.025281706670437665
20
-0.27090645933553115
11
0.025939202942082115
21
-0.2752867266449174
0
LINE
8
Polygon
10
0.025939202942082108
20
-0.2752867266449174
11
0.026981772262056718
21
-0.2795916183116091
0
LINE
8
Polygon
10
0.026981772262056718
20
-0.2795916183116091
11
0.028401232945413482
21
-0.2837873511936344
0
LINE
8
Polygon
10
0.028401232945413482
20
-0.2837873511936344
11
0.0301864456080512
21
-0.28784099878537966
0
LINE
8
Polygon
10
0.0301864456080512
20
-0.28784099878537966
11
0.03232340058433796
21
-0.29172074961220185
0
LINE
8
Polygon
10
0.03232340058433796
20
-0.29172074961220185
11
0.034795327869604445
21
-0.2953961568747048
0
LINE
8
Polygon
10
0.034795327869604445
20
-0.2953961568747048
11
0.03758282872472129
21
-0.2988383773835663
0
LINE
8
Polygon
10
0.03758282872472129
20
-0.2988383773835663
11
0.04066402790997832
21
-0.3020203979098476
0
LINE
8
Polygon
10
0.04066402790997832
20
-0.3020203979098476
11
0.04401474535359243
21
-0.3049172471744736
0
LINE
8
Polygon
10
0.04401474535359243
20
-0.3049172471744736
11
0.04760868590765523
21
-0.30750619181327277
0
LINE
8
Polygon
10
0.047608685907655185
20
-0.3075061918132727
11
0.05141764570238852
21
-0.30976691477971713
0
LINE
8
Polygon
10
0.05141764570238856
20
-0.30976691477971713
11
0.055411733479318666
21
-0.3116816747853266
0
LINE
8
Polygon
10
0.055411733479318624
20
-0.3116816747853266
11
0.05955960516643083
21
-0.31323544552650984
0
LINE
8
Polygon
10
0.05955960516643083
20
-0.31323544552650984
11
0.0638287098544488
21
-0.31441603360524306
0
LINE
8
Polygon
10
0.0638287098544488
20
-0.31441603360524306
11
0.06818554524391077
21
-0.3152141742181904
0
LINE
8
Polygon
10
0.06818554524391077
20
-0.3152141742181904
11
0.07259592055839158
21
-0.31562360386333405
0
LINE
8
Polygon
10
0.07259592055839158
20
-0.31562360386333405
11
0.07702522486062857
21
-0.3156411094935406
0
LINE
8
Polygon
10
0.07702522486062857
20
-0.3156411094935406
11
0.08143869866590885
21
-0.31526655373132495
0
LINE
8
Polygon
10
0.08143869866590885
20
-0.31526655373132495
11
0.08580170672120001
21
-0.31450287594693643
0
LINE
8
Polygon
10
0.08580170672120001
20
-0.31450287594693643
11
0.09008000980935825
21
-0.31335606919130593
0
LINE
8
Polygon
10
0.09008000980935825
20
-0.31335606919130593
11
0.09424003344539846
21
-0.3118351331648765
0
LINE
8
Polygon
10
0.09424003344539841
20
-0.3118351331648765
11
0.0982491313562006
21
-0.30995200359139896
0
LINE
8
Polygon
10
0.09824913135620064
20
-0.30995200359139896
11
0.10207584167596509
21
-0.3077214585509408
0
LINE
8
Polygon
10
0.10207584167596505
20
-0.30772145855094085
11
0.1056901338468921
21
-0.3051610025071706
0
LINE
8
Polygon
10
0.10569013384689213
20
-0.3051610025071706
11
0.1090636442875047
21
-0.30229072893902725
0
LINE
8
Polygon
10
0.10906364428750466
20
-0.3022907289390273
11
0.11216989897917862
21
-0.2991331626547891
0
LINE
8
Polygon
10
0.11216989897917864
20
-0.29913316265478906
11
0.11498452122410727
21
-0.29571308302600013
0
LINE
8
Polygon
10
0.11498452122410724
20
-0.2957130830260002
11
0.11748542294429465
21
-0.29205732952844765
0
LINE
8
Polygon
10
0.11748542294429465
20
-0.29205732952844765
11
0.1196529780203371
21
-0.28819459111622936
0
LINE
8
Polygon
10
0.1196529780203371
20
-0.28819459111622936
11
0.12147017630969548
21
-0.2841551810818237
0
LINE
8
Polygon
10
0.12147017630969548
20
-0.2841551810818237
11
0.12292275713578285
21
-0.27997079916897355
0
LINE
8
Polygon
10
0.12292275713578285
20
-0.27997079916897355
11
0.12399932120029562
21
-0.27567428280523143
0
LINE
8
Polygon
10
0.12399932120029562
20
-0.27567428280523143
11
0.12469142004054315
21
-0.27129934940639755
0
LINE
8
Polygon
10
0.12469142004054315
20
-0.27129934940639755
11
0.12499362232974909
21
-0.26688033177514703
0
LINE
8
Polygon
10
0.12499362232974907
20
-0.2668803317751471
11
0.12490355650002484
21
-0.26245190867033646
0
LINE
8
Polygon
10
0.12490355650002484
20
-0.26245190867033646
11
0.12442192935352667
21
-0.2580488326613786
0
LINE
8
Polygon
10
0.12442192935352668
20
-0.2580488326613786
11
0.12355252051574285
21
-0.25370565740338047
0
LINE
8
Polygon
10
0.12355252051574284
20
-0.2537056574033804
11
0.12230215277443958
21
-0.24945646647328418
0
LINE
8
Polygon
10
0.1223021527744396
20
-0.2494564664732842
11
0.12068063853703434
21
-0.2453346058950021
0
LINE
8
Polygon
10
0.033861346607107434
20
-0.23727488549665374
11
0.03414059413400215
21
-0.23684746266633644
0
LINE
8
Polygon
10
0.03414059413400215
20
-0.23684746266633644
11
0.034397662402150184
21
-0.2364063443571895
0
LINE
8
Polygon
10
0.034397662402150184
20
-0.2364063443571895
11
0.034631881313092416
21
-0.23595268042991477
0
LINE
8
Polygon
10
0.034631881313092416
20
-0.23595268042991477
11
0.03484264032966515
21
-0.2354876534478088
0
LINE
8
Polygon
10
0.03484264032966515
20
-0.2354876534478088
11
0.035029390067483984
21
-0.23501247559418148
0
LINE
8
Polygon
10
0.035029390067483984
20
-0.23501247559418148
11
0.03519164372702111
21
-0.23452838551256433
0
LINE
8
Polygon
10
0.03519164372702111
20
-0.23452838551256433
11
0.035328978362543006
21
-0.23403664507794525
0
LINE
8
Polygon
10
0.035328978362543006
20
-0.23403664507794525
11
0.03544103598460077
21
-0.23353853610744577
0
LINE
8
Polygon
10
0.03544103598460077
20
-0.23353853610744577
11
0.03552752449319928
21
-0.23303535701901534
0
LINE
8
Polygon
10
0.03552752449319928
20
-0.23303535701901534
11
0.03558821843921268
21
-0.23252841944685224
0
LINE
8
Polygon
10
0.03558821843921268
20
-0.23252841944685224
11
0.03562295961206137
21
-0.23201904482237398
0
LINE
8
Polygon
10
0.03562295961206137
20
-0.23201904482237398
11
0.03563165745211867
21
-0.23150856092964903
0
LINE
8
Polygon
10
0.03563165745211867
20
-0.23150856092964903
11
0.03561428928677213
21
-0.2309982984442694
0
LINE
8
Polygon
10
0.03561428928677213
20
-0.2309982984442694
11
0.03557090038952407
21
-0.2304895874646858
0
LINE
8
Polygon
10
0.03557090038952407
20
-0.2304895874646858
11
0.03550160386197741
21
-0.22998375404504723
0
LINE
8
Polygon
10
0.03550160386197741
20
-0.22998375404504723
11
0.03540658033901433
21
-0.22948211673858274
0
LINE
8
Polygon
10
0.03540658033901433
20
-0.22948211673858274
11
0.03528607751793632
21
-0.22898598316053592
0
LINE
8
Polygon
10
0.03528607751793632
20
-0.22898598316053592
11
0.03514040951279292
21
-0.22849664657961147
0
LINE
8
Polygon
10
0.03514040951279292
20
-0.22849664657961147
11
0.034969956035582395
21
-0.22801538254681852
0
LINE
8
Polygon
10
0.034969956035582395
20
-0.22801538254681852
11
0.03477516140645848
21
-0.22754344557049885
0
LINE
8
Polygon
10
0.03477516140645848
20
-0.22754344557049885
11
0.03455653339552349
21
-0.22708206584620672
0
LINE
8
Polygon
10
0.03455653339552349
20
-0.22708206584620672
11
0.03431464189922669
21
-0.22663244604996483
0
LINE
8
Polygon
10
0.03431464189922669
20
-0.22663244604996483
11
0.03405011745481841
21
-0.22619575820325535
0
LINE
8
Polygon
10
0.03405011745481841
20
-0.22619575820325535
11
0.0337636495967319
21
-0.2257731406179177
0
LINE
8
Polygon
10
0.0337636495967319
20
-0.2257731406179177
11
0.03345598505917776
21
-0.22536569492891745
0
LINE
8
Polygon
10
0.03345598505917776
20
-0.22536569492891745
11
0.03312792582963589
21
-0.22497448322272032
0
LINE
8
Polygon
10
0.03312792582963589
20
-0.22497448322272032
11
0.03278032705831908
21
-0.22460052526875715
0
LINE
8
Polygon
10
0.03278032705831908
20
-0.22460052526875715
11
0.03241409482905758
21
-0.2242447958611965
0
LINE
8
Polygon
10
0.03241409482905758
20
-0.2242447958611965
11
0.03203018379741534
21
-0.22390822227795404
0
LINE
8
Polygon
10
0.03203018379741534
20
-0.22390822227795404
11
0.03162959470219448
21
-0.2235916818635621
0
LINE
8
Polygon
10
0.03162959470219449
20
-0.2235916818635621
11
0.031213371756814948
21
-0.22329599974220055
0
LINE
8
Polygon
10
0.031213371756814944
20
-0.22329599974220055
11
0.03078259992736899
21
-0.22302194666685005
0
LINE
8
Polygon
10
0.03078259992736899
20
-0.22302194666685005
11
0.030338402104446008
21
-0.2227702370101744
0
LINE
8
Polygon
10
0.030338402104446008
20
-0.2227702370101744
11
0.02988193617609969
21
-0.2225415269023693
0
LINE
8
Polygon
10
0.029881936176099688
20
-0.22254152690236928
11
0.029414392009587557
21
-0.2223364125208312
0
LINE
8
Polygon
10
0.029414392009587557
20
-0.2223364125208312
11
0.0289369883497504
21
-0.22215542853610498
0
LINE
8
Polygon
10
0.0289369883497504
20
-0.22215542853610498
11
0.028450969642116748
21
-0.2219990467181612
0
LINE
8
Polygon
10
0.028450969642116748
20
-0.2219990467181612
11
0.02795760278901346
21
-0.22186767470663576
0
LINE
8
Polygon
10
0.02795760278901346
20
-0.22186767470663576
11
0.027458173847138286
21
-0.22176165494823796
0
LINE
8
Polygon
10
0.027458173847138282
20
-0.22176165494823796
11
0.02695398467520288
21
-0.22168126380409647
0
LINE
8
Polygon
10
0.02695398467520288
20
-0.22168126380409647
11
0.026446349540384755
21
-0.22162671082937035
0
LINE
8
Polygon
10
0.026446349540384752
20
-0.22162671082937035
11
0.025936591692434157
21
-0.22159813822700267
0
LINE
8
Polygon
10
0.025936591692434154
20
-0.22159813822700267
11
0.025426039914366136
21
-0.2215956204770409
0
LINE
8
Polygon
10
0.02542603991436614
20
-0.2215956204770409
11
0.024916025058729075
21
-0.22161916414249022
0
LINE
8
Polygon
10
0.02491602505872907
20
-0.22161916414249025
11
0.024407876578478552
21
-0.22166870785220572
0
LINE
8
Polygon
10
0.024407876578478552
20
-0.22166870785220572
11
0.023902919061499578
21
-0.2217441224608682
0
LINE
8
Polygon
10
0.023902919061499578
20
-0.2217441224608682
11
0.023402468777810517
21
-0.22184521138562666
0
LINE
8
Polygon
10
0.022907830248449175
20
-0.22197171111852967
11
0.02016898411638126
21
-0.2227720401846416
0
LINE
8
Polygon
10
0.02016898411638126
20
-0.2227720401846416
11
0.017443956526068435
21
-0.2236182253778711
0
LINE
8
Polygon
10
0.017443956526068394
20
-0.2236182253778711
11
0.014733515181406025
21
-0.22451002830809272
0
LINE
8
Polygon
10
0.014733515181406025
20
-0.22451002830809272
11
0.01203842367700355
21
-0.22544719773359942
0
LINE
8
Polygon
10
0.01203842367700355
20
-0.22544719773359942
11
0.009359441283061994
21
-0.2264294696318833
0
LINE
8
Polygon
10
0.009359441283061959
20
-0.2264294696318833
11
0.006697322731469849
21
-0.22745656727401675
0
LINE
8
Polygon
10
0.006697322731469849
20
-0.22745656727401675
11
0.004052818003177583
21
-0.22852820130261364
0
LINE
8
Polygon
10
0.004052818003177583
20
-0.22852820130261364
11
0.001426672116910263
21
-0.2296440698133479
0
LINE
8
Polygon
10
0.0014266721169102353
20
-0.22964406981334792
11
-0.001180375080721427
21
-0.23080385844000703
0
LINE
8
Polygon
10
-0.001180375080721427
20
-0.23080385844000703
11
-0.003767589123653284
21
-0.23200724044305654
0
LINE
8
Polygon
10
-0.003767589123653284
20
-0.23200724044305654
11
-0.0063342411332838605
21
-0.23325387680168985
0
LINE
8
Polygon
10
-0.006334241133283791
20
-0.23325387680168982
11
-0.008879608023816488
21
-0.23454341630933864
0
LINE
8
Polygon
10
-0.008879608023816488
20
-0.23454341630933864
11
-0.011402972705969697
21
-0.23587549567261587
0
LINE
8
Polygon
10
-0.011402972705969697
20
-0.23587549567261587
11
-0.013903624288997649
21
-0.2372497396136638
0
LINE
8
Polygon
10
-0.013903624288997593
20
-0.23724973961366375
11
-0.016380858280964833
21
-0.23866576097587874
0
LINE
8
Polygon
10
-0.016380858280964833
20
-0.23866576097587874
11
-0.018833976787218057
21
-0.2401231608329822
0
LINE
8
Polygon
10
-0.018833976787218057
20
-0.2401231608329822
11
-0.021262288706999324
21
-0.2416215286014074
0
LINE
8
Polygon
10
-0.02126228870699924
20
-0.24162152860140737
11
-0.023665109928145175
21
-0.24316044215597044
0
LINE
8
Polygon
10
-0.023665109928145175
20
-0.24316044215597044
11
-0.02604176351981738
21
-0.24473946794879298
0
LINE
8
Polygon
10
-0.02604176351981738
20
-0.24473946794879298
11
-0.02839157992320962
21
-0.24635816113144246
0
LINE
8
Polygon
10
-0.028391579923209564
20
-0.24635816113144243
11
-0.030713897140178165
21
-0.2480160656802565
0
LINE
8
Polygon
10
-0.030713897140178165
20
-0.2480160656802565
11
-0.03300806091974226
21
-0.2497127145248155
0
LINE
8
Polygon
10
-0.03300806091974226
20
-0.2497127145248155
11
-0.03527342494240167
21
-0.251447629679527
0
LINE
8
Polygon
10
-0.035273424942401585
20
-0.25144762967952694
11
-0.037509351002220026
21
-0.2532203223782855
0
LINE
8
Polygon
10
-0.037509351002220026
20
-0.2532203223782855
11
-0.03971520918662265
21
-0.25503029321216963
0
LINE
8
Polygon
10
-0.03971520918662265
20
-0.25503029321216963
11
-0.04189037805385715
21
-0.2568770322701367
0
LINE
8
Polygon
10
-0.04189037805385709
20
-0.2568770322701367
11
-0.044034244808068335
21
-0.25876001928267683
0
LINE
8
Polygon
10
-0.044034244808068335
20
-0.25876001928267683
11
-0.04614620547193725
21
-0.26067872376838525
0
LINE
8
Polygon
10
-0.04614620547193725
20
-0.26067872376838525
11
-0.04822566505683534
21
-0.2626326051834109
0
LINE
8
Polygon
10
-0.04822566505683529
20
-0.26263260518341086
11
-0.05027203773044685
21
-0.2646211130737404
0
LINE
8
Polygon
10
-0.05027203773044685
20
-0.2646211130737404
11
-0.0522847469818116
21
-0.26664368723027415
0
LINE
8
Polygon
10
-0.05228474698181154
20
-0.2666436872302741
11
-0.054263225783741154
21
-0.26869975784664946
0
LINE
8
Polygon
10
-0.054263225783741154
20
-0.26869975784664946
11
-0.05620691675256417
21
-0.2707887456797694
0
LINE
8
Polygon
10
-0.05620691675256417
20
-0.2707887456797694
11
-0.058115272305153926
21
-0.27291006221298814
0
LINE
8
Polygon
10
-0.05811527230515387
20
-0.2729100622129881
11
-0.05998775481319543
21
-0.2750631098219103
0
LINE
8
Polygon
10
-0.05998775481319543
20
-0.2750631098219103
11
-0.06182383675464809
21
-0.2772472819427558
0
LINE
8
Polygon
10
-0.06182383675464809
20
-0.2772472819427558
11
-0.06362300086236056
21
-0.2794619632432427
0
LINE
8
Polygon
10
-0.0636230008623605
20
-0.2794619632432426
11
-0.06538474026979729
21
-0.2817065297959408
0
LINE
8
Polygon
10
-0.06538474026979729
20
-0.2817065297959408
11
-0.06710855865383475
21
-0.28398034925404686
0
LINE
8
Polygon
10
-0.06710855865383475
20
-0.28398034925404686
11
-0.06879397037458682
21
-0.2862827810295309
0
LINE
8
Polygon
10
-0.06879397037458676
20
-0.28628278102953086
11
-0.07044050061222118
21
-0.2886131764736053
0
LINE
8
Polygon
10
-0.07044050061222118
20
-0.2886131764736053
11
-0.0720476855007273
21
-0.290970879059464
0
LINE
8
Polygon
10
-0.0720476855007273
20
-0.290970879059464
11
-0.07361507225859787
21
-0.29335522456724156
0
LINE
8
Polygon
10
-0.07361507225859781
20
-0.2933552245672415
11
-0.07514221931638826
21
-0.2957655412711394
0
LINE
8
Polygon
10
-0.07514221931638826
20
-0.2957655412711394
11
-0.07662869644111703
21
-0.29820115012866666
0
LINE
8
Polygon
10
-0.07662869644111703
20
-0.29820115012866666
11
-0.07807408485747216
21
-0.3006613649719423
0
LINE
8
Polygon
10
-0.07807408485747211
20
-0.3006613649719422
11
-0.07947797736579024
21
-0.3031454927010044
0
LINE
8
Polygon
10
0.22627854563829317
20
-0.3204859198956546
11
0.5
21
-0.20710678118654746
0
LINE
8
Polygon
10
0.5
20
-0.20710678118654746
11
0.30962101759446975
21
0.2525087401276722
0
LINE
8
Polygon
10
0.30962101759446975
20
0.2525087401276722
11
-0.2586867601227395
21
-0.21096974744736785
0
LINE
8
Polygon
10
-0.2586867601227395
20
-0.21096974744736785
11
-0.08083997845677407
21
-0.30565283347907307
0
LINE
8
Polygon
10
-0.9737947291879736
20
-1.0431641075223868
11
1.0431641075223865
21
-0.9737947291879736
0
LINE
8
Polygon
10
1.0431641075223865
20
-0.9737947291879736
11
0.9737947291879736
21
1.0431641075223868
0
LINE
8
Polygon
10
0.9737947291879736
20
1.0431641075223868
11
-1.0431641075223865
21
0.9737947291879736
0
ENDSEC
0
EOF
