0
SECTION
2
ENTITIES
0
LINE
8
Polygon
10
-0.23362430062909534
20
-0.8494286626793437
11
-0.23364938785398745
21
-0.8487544191308481
0
LINE
8
Polygon
10
-0.23364938785398745
20
-0.8487544191308481
11
-0.23367826565850414
21
-0.8480803272944141
0
LINE
8
Polygon
10
-0.23367826565850414
20
-0.8480803272944141
11
-0.23371093312971822
21
-0.8474064084804126
0
LINE
8
Polygon
10
-0.23371093312971822
20
-0.8474064084804126
11
-0.23374738923489818
21
-0.8467326839937448
0
LINE
8
Polygon
10
-0.23374738923489818
20
-0.8467326839937448
11
-0.23378763282154058
21
-0.8460591751331684
0
LINE
8
Polygon
10
-0.23378763282154058
20
-0.8460591751331684
11
-0.23383166261740665
21
-0.8453859031906247
0
LINE
8
Polygon
10
-0.23383166261740665
20
-0.8453859031906247
11
-0.23387947723056252
21
-0.8447128894505647
0
LINE
8
Polygon
10
-0.23387947723056252
20
-0.8447128894505647
11
-0.23393107514942313
21
-0.8440401551892772
0
LINE
8
Polygon
10
-0.23393107514942313
20
-0.8440401551892772
11
-0.23398645474280008
21
-0.8433677216742157
0
LINE
8
Polygon
10
-0.23398645474280008
20
-0.8433677216742157
11
-0.23404561425995313
21
-0.8426956101633256
0
LINE
8
Polygon
10
-0.23404561425995313
20
-0.8426956101633256
11
-0.23410855183064566
21
-0.8420238419043731
0
LINE
8
Polygon
10
-0.23410855183064566
20
-0.8420238419043731
11
-0.23417526546520367
21
-0.8413524381342729
0
LINE
8
Polygon
10
-0.23417526546520367
20
-0.8413524381342729
11
-0.23424575305457884
21
-0.8406814200784168
0
LINE
8
Polygon
10
-0.23424575305457884
20
-0.8406814200784168
11
-0.23432001237041494
21
-0.8400108089500032
0
LINE
8
Polygon
10
-0.23432001237041494
20
-0.8400108089500032
11
-0.23439804106511858
21
-0.8393406259493656
0
LINE
8
Polygon
10
-0.23439804106511858
20
-0.8393406259493656
11
-0.23447983667193328
21
-0.8386708922633034
0
LINE
8
Polygon
10
-0.23447983667193328
20
-0.8386708922633034
11
-0.23456539660501735
21
-0.8380016290644112
0
LINE
8
Polygon
10
-0.23456539660501735
20
-0.8380016290644112
11
-0.23465471815952585
21
-0.8373328575104102
0
LINE
8
Polygon
10
-0.23465471815952585
20
-0.8373328575104102
11
-0.23474779851169597
21
-0.8366645987434789
0
LINE
8
Polygon
10
-0.23474779851169597
20
-0.8366645987434789
11
-0.23484463471893632
21
-0.8359968738895848
0
LINE
8
Polygon
10
-0.23484463471893632
20
-0.8359968738895848
11
-0.23494522371991994
21
-0.8353297040578164
0
LINE
8
Polygon
10
-0.23494522371991994
20
-0.8353297040578164
11
-0.23504956233468116
21
-0.8346631103397163
0
LINE
8
Polygon
10
-0.23504956233468116
20
-0.8346631103397163
11
-0.23515764726471594
21
-0.8339971138086142
0
LINE
8
Polygon
10
-0.23515764726471594
20
-0.8339971138086142
11
-0.23526947509308646
21
-0.8333317355189603
0
LINE
8
Polygon
10
-0.23526947509308646
20
-0.8333317355189603
11
-0.23538504228452878
21
-0.8326669965056606
0
LINE
8
Polygon
10
-0.23538504228452878
20
-0.8326669965056606
11
-0.2355043451855649
21
-0.8320029177834106
0
LINE
8
Polygon
10
-0.2355043451855649
20
-0.8320029177834106
11
-0.2356273800246181
21
-0.8313395203460325
0
LINE
8
Polygon
10
-0.2356273800246181
20
-0.8313395203460325
11
-0.2357541429121322
21
-0.8306768251658102
0
LINE
8
Polygon
10
-0.2357541429121322
20
-0.8306768251658102
11
-0.23588462984069453
21
-0.8300148531928272
0
LINE
8
Polygon
10
-0.23588462984069453
20
-0.8300148531928272
11
-0.2360188366851626
21
-0.8293536253543036
0
LINE
8
Polygon
10
-0.2360188366851626
20
-0.8293536253543036
11
-0.23615675920279464
21
-0.828693162553935
0
LINE
8
Polygon
10
-0.23615675920279464
20
-0.8286931625539349
11
-0.23629839303338349
21
-0.8280334856712314
0
LINE
8
Polygon
10
-0.23629839303338349
20
-0.8280334856712314
11
-0.23644373369939461
21
-0.8273746155608575
0
LINE
8
Polygon
10
-0.23644373369939461
20
-0.8273746155608575
11
-0.23659277660610764
21
-0.8267165730519728
0
LINE
8
Polygon
10
-0.23659277660610764
20
-0.8267165730519728
11
-0.23674551704176156
21
-0.8260593789475736
0
LINE
8
Polygon
10
-0.23674551704176156
20
-0.8260593789475736
11
-0.23690195017770366
21
-0.8254030540238354
0
LINE
8
Polygon
10
-0.23690195017770366
20
-0.8254030540238354
11
-0.23706207106854232
21
-0.8247476190294556
0
LINE
8
Polygon
10
-0.23706207106854232
20
-0.8247476190294556
11
-0.23722587465230313
21
-0.8240930946849978
0
LINE
8
Polygon
10
-0.23722587465230313
20
-0.8240930946849978
11
-0.23739335575058915
21
-0.8234395016822372
0
LINE
8
Polygon
10
-0.23739335575058912
20
-0.8234395016822372
11
-0.23756450906874438
21
-0.8227868606835058
0
LINE
8
Polygon
10
-0.23756450906874438
20
-0.8227868606835058
11
-0.23773932919602142
21
-0.8221351923210395
0
LINE
8
Polygon
10
-0.23773932919602142
20
-0.8221351923210395
11
-0.2379178106057523
21
-0.8214845171963258
0
LINE
8
Polygon
10
-0.2379178106057523
20
-0.8214845171963258
11
-0.23809994765552317
21
-0.8208348558794525
0
LINE
8
Polygon
10
-0.23809994765552317
20
-0.8208348558794525
11
-0.23828573458735294
21
-0.8201862289084576
0
LINE
8
Polygon
10
-0.23828573458735294
20
-0.8201862289084576
11
-0.238475165527875
21
-0.8195386567886798
0
LINE
8
Polygon
10
-0.238475165527875
20
-0.8195386567886798
11
-0.2386682344885232
21
-0.81889215999211
0
LINE
8
Polygon
10
-0.2386682344885232
20
-0.81889215999211
11
-0.23886493536572084
21
-0.8182467589567448
0
LINE
8
Polygon
10
-0.23906526194107386
20
-0.81760247408594
11
-0.23918927328993644
21
-0.8171744023052306
0
LINE
8
Polygon
10
-0.23918927328993644
20
-0.8171744023052306
11
-0.23929408822191978
21
-0.8167412301753334
0
LINE
8
Polygon
10
-0.23929408822191978
20
-0.8167412301753334
11
-0.23937949854913662
21
-0.8163038180812034
0
LINE
8
Polygon
10
-0.23937949854913662
20
-0.8163038180812034
11
-0.23944533462595308
21
-0.8158630348293939
0
LINE
8
Polygon
10
-0.23944533462595308
20
-0.8158630348293939
11
-0.23949146568594604
21
-0.8154197559223948
0
LINE
8
Polygon
10
-0.23949146568594604
20
-0.8154197559223948
11
-0.23951780010163712
21
-0.814974861819673
0
LINE
8
Polygon
10
-0.23951780010163712
20
-0.814974861819673
11
-0.23952428556648692
21
-0.8145292361888662
0
LINE
8
Polygon
10
-0.23952428556648692
20
-0.8145292361888662
11
-0.2395109091987886
21
-0.8140837641506038
0
LINE
8
Polygon
10
-0.2395109091987886
20
-0.8140837641506038
11
-0.2394776975672541
21
-0.8136393305204438
0
LINE
8
Polygon
10
-0.2394776975672541
20
-0.8136393305204438
11
-0.2394247166382421
21
-0.8131968180514134
0
LINE
8
Polygon
10
-0.2394247166382421
20
-0.8131968180514134
11
-0.23935207164473302
21
-0.8127571056806476
0
LINE
8
Polygon
10
-0.23935207164473302
20
-0.8127571056806476
11
-0.23925990687731055
21
-0.812321066783607
0
LINE
8
Polygon
10
-0.23925990687731055
20
-0.812321066783607
11
-0.23914840539756577
21
-0.811889567439342
0
LINE
8
Polygon
10
-0.23914840539756577
20
-0.811889567439342
11
-0.23901778867449225
21
-0.8114634647102498
0
LINE
8
Polygon
10
-0.23901778867449225
20
-0.8114634647102498
11
-0.23886831614459497
21
-0.8110436049397399
0
LINE
8
Polygon
10
-0.23886831614459497
20
-0.8110436049397399
11
-0.23870028469658644
21
-0.8106308220711922
0
LINE
8
Polygon
10
-0.23870028469658644
20
-0.8106308220711922
11
-0.23851402808169372
21
-0.8102259359915412
0
LINE
8
Polygon
10
-0.23851402808169372
20
-0.8102259359915412
11
-0.23830991625074746
21
-0.8098297509027833
0
LINE
8
Polygon
10
-0.23830991625074746
20
-0.8098297509027833
11
-0.23808835461936978
21
-0.8094430537246352
0
LINE
8
Polygon
10
-0.23808835461936978
20
-0.8094430537246352
11
-0.23784978326272047
21
-0.8090666125315215
0
LINE
8
Polygon
10
-0.2378497832627205
20
-0.8090666125315215
11
-0.23759467604140105
21
-0.8087011750269916
0
LINE
8
Polygon
10
-0.23759467604140105
20
-0.8087011750269916
11
-0.23732353966025246
21
-0.8083474670585995
0
LINE
8
Polygon
10
-0.23732353966025246
20
-0.8083474670585995
11
-0.23703691266191643
21
-0.8080061911761945
0
LINE
8
Polygon
10
-0.23703691266191643
20
-0.8080061911761945
11
-0.2367353643571591
21
-0.8076780252364867
0
LINE
8
Polygon
10
-0.2367353643571591
20
-0.8076780252364867
11
-0.23641949369408163
21
-0.8073636210566585
0
LINE
8
Polygon
10
-0.23641949369408163
20
-0.8073636210566585
11
-0.23608992806846404
21
-0.8070636031196986
0
LINE
8
Polygon
10
-0.23608992806846407
20
-0.8070636031196986
11
-0.2357473220776049
21
-0.8067785673340263
0
LINE
8
Polygon
10
-0.2357473220776049
20
-0.8067785673340263
11
-0.23539235622013227
21
-0.8065090798498734
0
LINE
8
Polygon
10
-0.23539235622013227
20
-0.8065090798498734
11
-0.23502573554436829
21
-0.8062556759347719
0
LINE
8
Polygon
10
-0.23502573554436829
20
-0.8062556759347719
11
-0.2346481882479322
21
-0.8060188589103835
0
LINE
8
Polygon
10
-0.2346481882479322
20
-0.8060188589103835
11
-0.23426046423136312
21
-0.80579909915278
0
LINE
8
Polygon
10
-0.23426046423136312
20
-0.80579909915278
11
-0.23386333360863568
21
-0.8055968331581628
0
LINE
8
Polygon
10
-0.23386333360863568
20
-0.8055968331581628
11
-0.23345758517752666
21
-0.8054124626758752
0
LINE
8
Polygon
10
-0.23345758517752668
20
-0.8054124626758752
11
-0.23304402485287146
21
-0.8052463539104308
0
LINE
8
Polygon
10
-0.23304402485287146
20
-0.8052463539104308
11
-0.23262347406582146
21
-0.8050988367941424
0
LINE
8
Polygon
10
-0.23262347406582146
20
-0.8050988367941424
11
-0.23219676813228254
21
-0.8049702043317969
0
LINE
8
Polygon
10
-0.23219676813228254
20
-0.8049702043317969
11
-0.231764754593775
21
-0.8048607120186759
0
LINE
8
Polygon
10
-0.231764754593775
20
-0.8048607120186759
11
-0.23132829153401047
21
-0.8047705773330806
0
LINE
8
Polygon
10
-0.23132829153401047
20
-0.8047705773330806
11
-0.2308882458745294
21
-0.8046999793043669
0
LINE
8
Polygon
10
-0.2308882458745294
20
-0.8046999793043669
11
-0.2304454916527846
21
-0.8046490581573497
0
LINE
8
Polygon
10
-0.2304454916527846
20
-0.8046490581573497
11
-0.23000090828609068
21
-0.8046179150337827
0
LINE
8
Polygon
10
-0.2300009082860907
20
-0.8046179150337827
11
-0.22955537882488805
21
-0.8046066117914658
0
LINE
8
Polygon
10
-0.22955537882488805
20
-0.8046066117914658
11
-0.22910978819879027
21
-0.8046151708813809
0
LINE
8
Polygon
10
-0.22910978819879027
20
-0.8046151708813809
11
-0.22866502145889928
21
-0.8046435753030986
0
LINE
8
Polygon
10
-0.22866502145889928
20
-0.8046435753030986
11
-0.22822196201987904
21
-0.8046917686385454
0
LINE
8
Polygon
10
-0.22822196201987904
20
-0.8046917686385454
11
-0.22778148990527985
21
-0.8047596551640633
0
LINE
8
Polygon
10
-0.22778148990527985
20
-0.8047596551640633
11
-0.22734447999959778
21
-0.8048471000405408
0
LINE
8
Polygon
10
-0.22691180031054198
20
-0.8049539295812352
11
-0.2219431964692106
21
-0.8060310620124251
0
LINE
8
Polygon
10
-0.2219431964692106
20
-0.8060310620124251
11
-0.2168908959886339
21
-0.8065980701784853
0
LINE
8
Polygon
10
-0.2168908959886339
20
-0.8065980701784853
11
-0.21180713407482085
21
-0.806649091841317
0
LINE
8
Polygon
10
-0.21180713407482085
20
-0.806649091841317
11
-0.20674447121024653
21
-0.8061835994932869
0
LINE
8
Polygon
10
-0.20674447121024653
20
-0.8061835994932869
11
-0.20175524973652376
21
-0.8052064058110735
0
LINE
8
Polygon
10
-0.20175524973652376
20
-0.8052064058110735
11
-0.19689105269240997
21
-0.8037276138979061
0
LINE
8
Polygon
10
-0.19689105269240997
20
-0.8037276138979061
11
-0.1922021705021672
21
-0.8017625128286382
0
LINE
8
Polygon
10
-0.1922021705021672
20
-0.8017625128286382
11
-0.18773708102812775
21
-0.7993314195776015
0
LINE
8
Polygon
10
-0.18773708102812775
20
-0.7993314195776015
11
-0.18354194836314824
21
-0.7964594689635351
0
LINE
8
Polygon
10
-0.18354194836314824
20
-0.7964594689635351
11
-0.1796601455448839
21
-0.7931763537833245
0
LINE
8
Polygon
10
-0.1796601455448839
20
-0.7931763537833245
11
-0.17613180612649093
21
-0.789516017821281
0
LINE
8
Polygon
10
-0.17613180612649093
20
-0.789516017821281
11
-0.1729934092400197
21
-0.7855163049079081
0
LINE
8
Polygon
10
-0.1729934092400197
20
-0.7855163049079081
11
-0.17027740244248568
21
-0.7812185676564974
0
LINE
8
Polygon
10
-0.17027740244248568
20
-0.7812185676564974
11
-0.16801186624397252
21
-0.7766672399227871
0
LINE
8
Polygon
10
-0.16801186624397252
20
-0.7766672399227871
11
-0.1662202237861768
21
-0.7719093774079767
0
LINE
8
Polygon
10
-0.1662202237861768
20
-0.7719093774079767
11
-0.16492099867299675
21
-0.7669941711547563
0
LINE
8
Polygon
10
-0.16492099867299675
20
-0.7669941711547563
11
-0.16412762345693
21
-0.7619724389662634
0
LINE
8
Polygon
10
-0.16412762345693
20
-0.7619724389662634
11
-0.16384830076131873
21
-0.7568961000061337
0
LINE
8
Polygon
10
-0.16384830076131873
20
-0.7568961000061337
11
-0.16408591847428522
21
-0.7518176380117009
0
LINE
8
Polygon
10
-0.16408591847428522
20
-0.7518176380117009
11
-0.16483801989115882
21
-0.7467895586701281
0
LINE
8
Polygon
10
-0.16483801989115882
20
-0.7467895586701281
11
-0.16609682911408846
21
-0.7418638467676026
0
LINE
8
Polygon
10
-0.16609682911408846
20
-0.7418638467676026
11
-0.16784933144623682
21
-0.7370914287240707
0
LINE
8
Polygon
10
-0.16784933144623682
20
-0.7370914287240707
11
-0.17007740794936915
21
-0.7325216460703109
0
LINE
8
Polygon
10
-0.17007740794936915
20
-0.7325216460703109
11
-0.17275802277365981
21
-0.7282017453110101
0
LINE
8
Polygon
10
-0.17275802277365981
20
-0.7282017453110101
11
-0.17586346132293312
21
-0.7241763894480955
0
LINE
8
Polygon
10
-0.17586346132293312
20
-0.7241763894480955
11
-0.17936161679297322
21
-0.7204871962146306
0
LINE
8
Polygon
10
-0.17936161679297322
20
-0.7204871962146306
11
-0.1832163221204134
21
-0.7171723077934288
0
LINE
8
Polygon
10
-0.1832163221204134
20
-0.7171723077934288
11
-0.18738772391021974
21
-0.7142659964690151
0
LINE
8
Polygon
10
-0.18738772391021974
20
-0.7142659964690151
11
-0.19183269447577223
21
-0.711798310290064
0
LINE
8
Polygon
10
-0.19183269447577223
20
-0.711798310290064
11
-0.1965052777315039
21
-0.7097947624057672
0
LINE
8
Polygon
10
-0.1965052777315039
20
-0.7097947624057672
11
-0.20135716432806086
21
-0.7082760672880543
0
LINE
8
Polygon
10
-0.20135716432806086
20
-0.7082760672880543
11
-0.20633819111761031
21
-0.707257926566835
0
LINE
8
Polygon
10
-0.20633819111761031
20
-0.707257926566835
11
-0.21139685978537695
21
-0.7067508666924903
0
LINE
8
Polygon
10
-0.21139685978537695
20
-0.7067508666924903
11
-0.21648086928533083
21
-0.7067601301040037
0
LINE
8
Polygon
10
-0.21648086928533083
20
-0.7067601301040037
11
-0.22153765657522967
21
-0.7072856210279329
0
LINE
8
Polygon
10
-0.22153765657522967
20
-0.7072856210279329
11
-0.22651494006041242
21
-0.7083219064686013
0
LINE
8
Polygon
10
-0.22651494006041242
20
-0.7083219064686013
11
-0.23136126012773597
21
-0.709858272379272
0
LINE
8
Polygon
10
-0.23136126012773597
20
-0.709858272379272
11
-0.23602651118113074
21
-0.7118788344335563
0
LINE
8
Polygon
10
-0.23602651118113074
20
-0.7118788344335563
11
-0.2404624596781156
21
-0.714362702251801
0
LINE
8
Polygon
10
-0.2404624596781156
20
-0.714362702251801
11
-0.2446232428113465
21
-0.717284195384539
0
LINE
8
Polygon
10
-0.2446232428113465
20
-0.717284195384539
11
-0.24846584267938265
21
-0.7206131088199685
0
LINE
8
Polygon
10
-0.24846584267938265
20
-0.7206131088199685
11
-0.2519505310442682
21
-0.7243150252704095
0
LINE
8
Polygon
10
-0.2519505310442682
20
-0.7243150252704095
11
-0.2550412800776274
21
-0.72835167100904
0
LINE
8
Polygon
10
-0.2550412800776274
20
-0.72835167100904
11
-0.25770613484861243
21
-0.7326813115779524
0
LINE
8
Polygon
10
-0.25770613484861243
20
-0.7326813115779524
11
-0.2599175437025897
21
-0.7372591832763473
0
LINE
8
Polygon
10
-0.2599175437025897
20
-0.7372591832763473
11
-0.26165264311481395
21
-0.7420379559677518
0
LINE
8
Polygon
10
-0.26165264311481395
20
-0.7420379559677518
11
-0.26289349407401874
21
-0.7469682224213479
0
LINE
8
Polygon
10
-0.26362726755197613
20
-0.7519990091281623
11
-0.26367896423988885
21
-0.7524416734666235
0
LINE
8
Polygon
10
-0.26367896423988885
20
-0.7524416734666235
11
-0.26375033303443296
21
-0.7528815947769185
0
LINE
8
Polygon
10
-0.26375033303443296
20
-0.7528815947769185
11
-0.26384123217986555
21
-0.7533178992685824
0
LINE
8
Polygon
10
-0.26384123217986555
20
-0.7533178992685824
11
-0.2639514811284279
21
-0.7537497203350292
0
LINE
8
Polygon
10
-0.2639514811284279
20
-0.7537497203350292
11
-0.2640808608989574
21
-0.7541762002748437
0
LINE
8
Polygon
10
-0.2640808608989574
20
-0.7541762002748437
11
-0.26422911451183684
21
-0.7545964919953837
0
LINE
8
Polygon
10
-0.26422911451183684
20
-0.7545964919953837
11
-0.2643959474994187
21
-0.7550097606953127
0
LINE
8
Polygon
10
-0.2643959474994187
20
-0.7550097606953127
11
-0.2645810284909091
21
-0.7554151855227164
0
LINE
8
Polygon
10
-0.2645810284909091
20
-0.7554151855227164
11
-0.26478398987055074
21
-0.755811961205515
0
LINE
8
Polygon
10
-0.26478398987055074
20
-0.755811961205515
11
-0.265004428507797
21
-0.7561992996509286
0
LINE
8
Polygon
10
-0.265004428507797
20
-0.7561992996509286
11
-0.2652419065580268
21
-0.7565764315108203
0
LINE
8
Polygon
10
-0.2652419065580268
20
-0.7565764315108203
11
-0.26549595233221057
21
-0.756942607709809
0
LINE
8
Polygon
10
-0.26549595233221057
20
-0.756942607709809
11
-0.26576606123379887
21
-0.757297100933114
0
LINE
8
Polygon
10
-0.26576606123379887
20
-0.757297100933114
11
-0.2660516967609737
21
-0.7576392070711793
0
LINE
8
Polygon
10
-0.2660516967609737
20
-0.7576392070711793
11
-0.26635229157227114
21
-0.7579682466182058
0
LINE
8
Polygon
10
-0.26635229157227114
20
-0.7579682466182058
11
-0.2666672486134595
21
-0.7582835660218147
0
LINE
8
Polygon
10
-0.2666672486134595
20
-0.7582835660218147
11
-0.2669959423034335
21
-0.7585845389811611
0
LINE
8
Polygon
10
-0.2669959423034335
20
-0.7585845389811611
11
-0.26733771977677023
21
-0.7588705676909192
0
LINE
8
Polygon
10
-0.26733771977677023
20
-0.7588705676909192
11
-0.2676919021804786
21
-0.7591410840286693
0
LINE
8
Polygon
10
-0.2676919021804786
20
-0.7591410840286693
11
-0.2680577860223657
21
-0.7593955506833264
0
LINE
8
Polygon
10
-0.2680577860223657
20
-0.7593955506833264
11
-0.2684346445683431
21
-0.7596334622223702
0
LINE
8
Polygon
10
-0.2684346445683431
20
-0.7596334622223702
11
-0.26882172928589726
21
-0.7598543460957571
0
LINE
8
Polygon
10
-0.26882172928589726
20
-0.7598543460957571
11
-0.2692182713308565
21
-0.7600577635745192
0
LINE
8
Polygon
10
-0.2692182713308565
20
-0.7600577635745192
11
-0.2696234830745023
21
-0.7602433106221862
0
LINE
8
Polygon
10
-0.2696234830745023
20
-0.7602433106221862
11
-0.2700365596679907
21
-0.7604106186973002
0
LINE
8
Polygon
10
-0.2700365596679907
20
-0.7604106186973002
11
-0.270456680640978
21
-0.7605593554854282
0
LINE
8
Polygon
10
-0.270456680640978
20
-0.7605593554854282
11
-0.27088301153127314
21
-0.7606892255592194
0
LINE
8
Polygon
10
-0.27088301153127314
20
-0.7606892255592194
11
-0.2713147055422828
21
-0.7607999709651954
0
LINE
8
Polygon
10
-0.2713147055422828
20
-0.7607999709651954
11
-0.2717509052249545
21
-0.7608913717361085
0
LINE
8
Polygon
10
-0.2717509052249545
20
-0.7608913717361085
11
-0.2721907441808785
21
-0.7609632463278504
0
LINE
8
Polygon
10
-0.2721907441808785
20
-0.7609632463278504
11
-0.27263334878316553
21
-0.761015451980042
0
LINE
8
Polygon
10
-0.27263334878316553
20
-0.761015451980042
11
-0.27307783991168144
21
-0.7610478849995906
0
LINE
8
Polygon
10
-0.27307783991168144
20
-0.7610478849995906
11
-0.27352333469919327
21
-0.7610604809666502
0
LINE
8
Polygon
10
-0.27352333469919327
20
-0.7610604809666502
11
-0.2739689482849578
21
-0.7610532148625737
0
LINE
8
Polygon
10
-0.2739689482849578
20
-0.7610532148625737
11
-0.2744137955722697
21
-0.7610261011196069
0
LINE
8
Polygon
10
-0.2744137955722697
20
-0.7610261011196069
11
-0.27485699298647814
21
-0.7609791935922222
0
LINE
8
Polygon
10
-0.27485699298647814
20
-0.7609791935922222
11
-0.27529766022998076
21
-0.7609125854501507
0
LINE
8
Polygon
10
-0.27529766022998076
20
-0.7609125854501507
11
-0.275734922030708
21
-0.7608264089933244
0
LINE
8
Polygon
10
-0.275734922030708
20
-0.7608264089933244
11
-0.2761679098806261
21
-0.7607208353890965
0
LINE
8
Polygon
10
-0.2761679098806261
20
-0.7607208353890965
11
-0.27659576376080464
21
-0.7605960743322615
0
LINE
8
Polygon
10
-0.27659576376080464
20
-0.7605960743322615
11
-0.27701763384962264
21
-0.7604523736285503
0
LINE
8
Polygon
10
-0.27701763384962264
20
-0.7604523736285503
11
-0.2774326822107208
21
-0.7602900187024283
0
LINE
8
Polygon
10
-0.2774326822107208
20
-0.7602900187024283
11
-0.27784008445734637
21
-0.7601093320301726
0
LINE
8
Polygon
10
-0.27784008445734637
20
-0.7601093320301726
11
-0.27823903138978506
21
-0.7599106724993563
0
LINE
8
Polygon
10
-0.27823903138978506
20
-0.7599106724993563
11
-0.27862873060262816
21
-0.7596944346960104
0
LINE
8
Polygon
10
-0.27862873060262816
20
-0.7596944346960104
11
-0.2790084080586821
21
-0.7594610481208807
0
LINE
8
Polygon
10
-0.2790084080586821
20
-0.7594610481208807
11
-0.2793773096263939
21
-0.7592109763363343
0
LINE
8
Polygon
10
-0.27973470257773936
20
-0.7589447160456131
11
-0.2802678125503338
21
-0.7585311613471014
0
LINE
8
Polygon
10
-0.2802678125503338
20
-0.7585311613471014
11
-0.2808032393331477
21
-0.758120610629423
0
LINE
8
Polygon
10
-0.2808032393331477
20
-0.758120610629423
11
-0.2813409659994913
21
-0.7577130768715039
0
LINE
8
Polygon
10
-0.2813409659994913
20
-0.7577130768715039
11
-0.2818809755499677
21
-0.7573085729568937
0
LINE
8
Polygon
10
-0.2818809755499677
20
-0.7573085729568937
11
-0.28242325091301
21
-0.756907111673358
0
LINE
8
Polygon
10
-0.28242325091301
20
-0.756907111673358
11
-0.28296777494542114
21
-0.7565087057124746
0
LINE
8
Polygon
10
-0.28296777494542114
20
-0.7565087057124746
11
-0.28351453043291597
21
-0.7561133676692318
0
LINE
8
Polygon
10
-0.28351453043291597
20
-0.7561133676692318
11
-0.2840635000906651
21
-0.7557211100416305
0
LINE
8
Polygon
10
-0.2840635000906651
20
-0.7557211100416305
11
-0.28461466656384193
21
-0.7553319452302889
0
LINE
8
Polygon
10
-0.28461466656384193
20
-0.7553319452302889
11
-0.2851680124281707
21
-0.7549458855380508
0
LINE
8
Polygon
10
-0.2851680124281707
20
-0.7549458855380508
11
-0.2857235201904776
21
-0.7545629431695963
0
LINE
8
Polygon
10
-0.2857235201904776
20
-0.7545629431695963
11
-0.28628117228924366
21
-0.7541831302310562
0
LINE
8
Polygon
10
-0.28628117228924366
20
-0.7541831302310562
11
-0.28684095109516033
21
-0.7538064587296293
0
LINE
8
Polygon
10
-0.28684095109516033
20
-0.7538064587296293
11
-0.2874028389116862
21
-0.7534329405732024
0
LINE
8
Polygon
10
-0.2874028389116862
20
-0.7534329405732024
11
-0.28796681797560697
21
-0.7530625875699747
0
LINE
8
Polygon
10
-0.28796681797560697
20
-0.7530625875699747
11
-0.2885328704575965
21
-0.7526954114280834
0
LINE
8
Polygon
10
-0.2885328704575965
20
-0.7526954114280834
11
-0.2891009784627811
21
-0.7523314237552345
0
LINE
8
Polygon
10
-0.2891009784627811
20
-0.7523314237552345
11
-0.2896711240313047
21
-0.7519706360583356
0
LINE
8
Polygon
10
-0.2896711240313046
20
-0.7519706360583356
11
-0.2902432891388967
21
-0.7516130597431315
0
LINE
8
Polygon
10
-0.2902432891388967
20
-0.7516130597431315
11
-0.2908174556974421
21
-0.7512587061138446
0
LINE
8
Polygon
10
-0.2908174556974421
20
-0.7512587061138446
11
-0.29139360555555316
21
-0.750907586372817
0
LINE
8
Polygon
10
-0.29139360555555316
20
-0.750907586372817
11
-0.291971720499143
21
-0.7505597116201561
0
LINE
8
Polygon
10
-0.291971720499143
20
-0.7505597116201561
11
-0.2925517822520017
21
-0.7502150928533844
0
LINE
8
Polygon
10
-0.2925517822520016
20
-0.7502150928533844
11
-0.29313377247637384
21
-0.7498737409670913
0
LINE
8
Polygon
10
-0.29313377247637384
20
-0.7498737409670913
11
-0.2937176727735387
21
-0.7495356667525886
0
LINE
8
Polygon
10
-0.29371767277353866
20
-0.7495356667525888
11
-0.29430346468439117
21
-0.7492008808975702
0
LINE
8
Polygon
10
-0.29430346468439117
20
-0.7492008808975702
11
-0.294891129690026
21
-0.7488693939857728
0
LINE
8
Polygon
10
-0.294891129690026
20
-0.7488693939857728
11
-0.2954806492123227
21
-0.7485412164966426
0
LINE
8
Polygon
10
-0.2954806492123227
20
-0.7485412164966426
11
-0.2960720046145333
21
-0.7482163588050036
0
LINE
8
Polygon
10
-0.2960720046145333
20
-0.7482163588050036
11
-0.2966651772018712
21
-0.7478948311807291
0
LINE
8
Polygon
10
-0.2966651772018712
20
-0.7478948311807291
11
-0.29726014822210234
21
-0.7475766437884179
0
LINE
8
Polygon
10
-0.29726014822210234
20
-0.7475766437884179
11
-0.29785689886613803
21
-0.7472618066870722
0
LINE
8
Polygon
10
-0.297856898866138
20
-0.7472618066870722
11
-0.29845541026862943
21
-0.7469503298297803
0
LINE
8
Polygon
10
-0.29845541026862943
20
-0.7469503298297803
11
-0.2990556635085641
21
-0.7466422230634011
0
LINE
8
Polygon
10
-0.2990556635085641
20
-0.7466422230634011
11
-0.2996576396098642
21
-0.7463374961282538
0
LINE
8
Polygon
10
-0.2996576396098642
20
-0.7463374961282538
11
-0.3002613195419861
21
-0.7460361586578091
0
LINE
8
Polygon
10
-0.3002613195419861
20
-0.7460361586578091
11
-0.3008666842205223
21
-0.7457382201783852
0
LINE
8
Polygon
10
-0.3008666842205223
20
-0.7457382201783852
11
-0.3014737145078047
21
-0.7454436901088464
0
LINE
8
Polygon
10
-0.3014737145078047
20
-0.7454436901088464
11
-0.30208239121350944
21
-0.7451525777603052
0
LINE
8
Polygon
10
-0.30208239121350944
20
-0.7451525777603052
11
-0.30269269509526375
21
-0.7448648923358284
0
LINE
8
Polygon
10
-0.3026926950952637
20
-0.7448648923358285
11
-0.30330460685925414
21
-0.744580642930146
0
LINE
8
Polygon
10
-0.30330460685925414
20
-0.744580642930146
11
-0.3039181071608366
21
-0.7442998385293632
0
LINE
8
Polygon
10
-0.3039181071608366
20
-0.7442998385293632
11
-0.3045331766051477
21
-0.7440224880106769
0
LINE
8
Polygon
10
-0.30453317660514767
20
-0.7440224880106769
11
-0.30514979574771817
21
-0.743748600142095
0
LINE
8
Polygon
10
-0.30514979574771817
20
-0.743748600142095
11
-0.3057679450950873
21
-0.7434781835821587
0
LINE
8
Polygon
10
-0.3057679450950873
20
-0.7434781835821587
11
-0.3063876051054195
21
-0.7432112468796694
0
LINE
8
Polygon
10
-0.3063876051054195
20
-0.7432112468796694
11
-0.30700875618912177
21
-0.7429477984734183
0
LINE
8
Polygon
10
-0.3076313787094631
20
-0.7426878466919193
11
-0.30924593757243957
21
-0.7420327664612032
0
LINE
8
Polygon
10
-0.30924593757243957
20
-0.7420327664612032
11
-0.3108698377093696
21
-0.7414011979566295
0
LINE
8
Polygon
10
-0.3108698377093696
20
-0.7414011979566296
11
-0.31250273675581985
21
-0.7407932743308403
0
LINE
8
Polygon
10
-0.31250273675581985
20
-0.7407932743308403
11
-0.31414429045013015
21
-0.7402091237514627
0
LINE
8
Polygon
10
-0.3141442904501301
20
-0.7402091237514627
11
-0.3157941527059939
21
-0.7396488693740886
0
LINE
8
Polygon
10
-0.3157941527059939
20
-0.7396488693740886
11
-0.31745197568542316
21
-0.739112629316309
0
LINE
8
Polygon
10
-0.31745197568542316
20
-0.739112629316309
11
-0.3191174098720822
21
-0.7386005166328125
0
LINE
8
Polygon
10
-0.31911740987208215
20
-0.7386005166328125
11
-0.3207901041449761
21
-0.7381126392915485
0
LINE
8
Polygon
10
-0.3207901041449761
20
-0.7381126392915485
11
-0.3224697058524768
21
-0.7376491001509664
0
LINE
8
Polygon
10
-0.3224697058524768
20
-0.7376491001509664
11
-0.32415586088667214
21
-0.7372099969383289
0
LINE
8
Polygon
10
-0.32415586088667214
20
-0.7372099969383289
11
-0.32584821375802187
21
-0.7367954222291084
0
LINE
8
Polygon
10
-0.32584821375802187
20
-0.7367954222291084
11
-0.3275464076703051
21
-0.7364054634274702
0
LINE
8
Polygon
10
-0.3275464076703051
20
-0.7364054634274702
11
-0.3292500845958429
21
-0.7360402027478441
0
LINE
8
Polygon
10
-0.3292500845958429
20
-0.7360402027478441
11
-0.33095888535098095
21
-0.7356997171975921
0
LINE
8
Polygon
10
-0.33095888535098095
20
-0.7356997171975921
11
-0.3326724496718157
21
-0.7353840785607728
0
LINE
8
Polygon
10
-0.3326724496718157
20
-0.7353840785607728
11
-0.33439041629014793
21
-0.7350933533830072
0
LINE
8
Polygon
10
-0.33439041629014793
20
-0.7350933533830072
11
-0.33611242300964894
21
-0.7348276029574491
0
LINE
8
Polygon
10
-0.33611242300964894
20
-0.7348276029574491
11
-0.3378381067822213
21
-0.7345868833118625
0
LINE
8
Polygon
10
-0.3378381067822213
20
-0.7345868833118625
11
-0.33956710378454014
21
-0.73437124519681
0
LINE
8
Polygon
10
-0.33956710378454014
20
-0.73437124519681
11
-0.3412990494947572
21
-0.7341807340749521
0
LINE
8
Polygon
10
-0.3412990494947572
20
-0.7341807340749521
11
-0.34303357876935264
21
-0.7340153901114634
0
LINE
8
Polygon
10
-0.34303357876935264
20
-0.7340153901114634
11
-0.3447703259201177
21
-0.7338752481655642
0
LINE
8
Polygon
10
-0.3447703259201177
20
-0.7338752481655642
11
-0.3465089247912519
21
-0.7337603377831706
0
LINE
8
Polygon
10
-0.3465089247912519
20
-0.7337603377831706
11
-0.3482490088365594
21
-0.733670683190667
0
LINE
8
Polygon
10
-0.3482490088365594
20
-0.733670683190667
11
-0.34999021119672746
21
-0.7336063032897964
0
LINE
8
Polygon
10
-0.34999021119672746
20
-0.7336063032897964
11
-0.3517321647766705
21
-0.733567211653677
0
LINE
8
Polygon
10
-0.3517321647766705
20
-0.733567211653677
11
-0.35347450232292454
21
-0.7335534165239399
0
LINE
8
Polygon
10
-0.3534745023229245
20
-0.7335534165239399
11
-0.3552168565010744
21
-0.7335649208089916
0
LINE
8
Polygon
10
-0.3552168565010744
20
-0.7335649208089916
11
-0.3569588599731986
21
-0.733601722083401
0
LINE
8
Polygon
10
-0.3569588599731986
20
-0.733601722083401
11
-0.35870014547531437
21
-0.7336638125884105
0
LINE
8
Polygon
10
-0.3587001454753143
20
-0.7336638125884105
11
-0.36044034589480745
21
-0.7337511792335718
0
LINE
8
Polygon
10
-0.36044034589480745
20
-0.7337511792335718
11
-0.36217909434783013
21
-0.7338638035995062
0
LINE
8
Polygon
10
-0.36217909434783013
20
-0.7338638035995062
11
-0.3639160242566504
21
-0.7340016619417873
0
LINE
8
Polygon
10
-0.3639160242566504
20
-0.7340016619417873
11
-0.3656507694269373
21
-0.734164725195947
0
LINE
8
Polygon
10
-0.3656507694269373
20
-0.734164725195947
11
-0.367382964124965
21
-0.734352958983604
0
LINE
8
Polygon
10
-0.36738296412496496
20
-0.734352958983604
11
-0.36911224315471985
21
-0.7345663236197106
0
LINE
8
Polygon
10
-0.36911224315471985
20
-0.7345663236197106
11
-0.3708382419348943
21
-0.7348047741209203
0
LINE
8
Polygon
10
-0.3708382419348943
20
-0.7348047741209203
11
-0.37256059657575086
21
-0.735068260215071
0
LINE
8
Polygon
10
-0.37256059657575086
20
-0.735068260215071
11
-0.37427894395584044
21
-0.7353567263517842
0
LINE
8
Polygon
10
-0.37427894395584044
20
-0.7353567263517842
11
-0.3759929217985587
21
-0.7356701117141763
0
LINE
8
Polygon
10
-0.3759929217985587
20
-0.7356701117141763
11
-0.37770216874852447
21
-0.7360083502316809
0
LINE
8
Polygon
10
-0.3777021687485244
20
-0.7360083502316809
11
-0.3794063244477634
21
-0.7363713705939778
0
LINE
8
Polygon
10
-0.3794063244477634
20
-0.7363713705939778
11
-0.38110502961168213
21
-0.7367590962660279
0
LINE
8
Polygon
10
-0.38110502961168213
20
-0.7367590962660279
11
-0.3827979261048154
21
-0.7371714455042085
0
LINE
8
Polygon
10
-0.3827979261048154
20
-0.7371714455042085
11
-0.38448465701633117
21
-0.7376083313735473
0
LINE
8
Polygon
10
-0.38448465701633117
20
-0.7376083313735473
11
-0.38616486673527795
21
-0.738069661766051
0
LINE
8
Polygon
10
-0.38616486673527795
20
-0.738069661766051
11
-0.38783820102555744
21
-0.7385553394201239
0
LINE
8
Polygon
10
-0.3895043071006076
20
-0.7390652619410737
11
-0.389932378881317
21
-0.7391892732899362
0
LINE
8
Polygon
10
-0.389932378881317
20
-0.7391892732899362
11
-0.39036555101121423
21
-0.7392940882219196
0
LINE
8
Polygon
10
-0.39036555101121423
20
-0.7392940882219196
11
-0.3908029631053441
21
-0.7393794985491364
0
LINE
8
Polygon
10
-0.3908029631053441
20
-0.7393794985491364
11
-0.3912437463571537
21
-0.7394453346259529
0
LINE
8
Polygon
10
-0.3912437463571537
20
-0.7394453346259529
11
-0.3916870252641528
21
-0.7394914656859458
0
LINE
8
Polygon
10
-0.3916870252641528
20
-0.7394914656859458
11
-0.3921319193668745
21
-0.7395178001016369
0
LINE
8
Polygon
10
-0.3921319193668745
20
-0.7395178001016369
11
-0.3925775449976815
21
-0.7395242855664866
0
LINE
8
Polygon
10
-0.3925775449976815
20
-0.7395242855664866
11
-0.3930230170359438
21
-0.7395109091987884
0
LINE
8
Polygon
10
-0.3930230170359438
20
-0.7395109091987884
11
-0.39346745066610384
21
-0.7394776975672539
0
LINE
8
Polygon
10
-0.39346745066610384
20
-0.7394776975672539
11
-0.39390996313513427
21
-0.7394247166382419
0
LINE
8
Polygon
10
-0.39390996313513427
20
-0.7394247166382419
11
-0.39434967550590005
21
-0.7393520716447328
0
LINE
8
Polygon
10
-0.39434967550590005
20
-0.7393520716447328
11
-0.3947857144029406
21
-0.7392599068773104
0
LINE
8
Polygon
10
-0.3947857144029406
20
-0.7392599068773104
11
-0.3952172137472056
21
-0.7391484053975655
0
LINE
8
Polygon
10
-0.3952172137472056
20
-0.7391484053975655
11
-0.3956433164762979
21
-0.739017788674492
0
LINE
8
Polygon
10
-0.3956433164762979
20
-0.739017788674492
11
-0.39606317624680765
21
-0.7388683161445947
0
LINE
8
Polygon
10
-0.39606317624680765
20
-0.7388683161445947
11
-0.39647595911535544
21
-0.7387002846965862
0
LINE
8
Polygon
10
-0.39647595911535544
20
-0.7387002846965862
11
-0.3968808451950064
21
-0.7385140280816935
0
LINE
8
Polygon
10
-0.3968808451950064
20
-0.7385140280816935
11
-0.3972770302837644
21
-0.7383099162507473
0
LINE
8
Polygon
10
-0.3972770302837643
20
-0.7383099162507473
11
-0.39766372746191236
21
-0.7380883546193695
0
LINE
8
Polygon
10
-0.39766372746191236
20
-0.7380883546193695
11
-0.3980401686550261
21
-0.7378497832627202
0
LINE
8
Polygon
10
-0.3980401686550261
20
-0.7378497832627202
11
-0.39840560615955606
21
-0.7375946760414008
0
LINE
8
Polygon
10
-0.39840560615955606
20
-0.7375946760414008
11
-0.39875931412794813
21
-0.7373235396602522
0
LINE
8
Polygon
10
-0.39875931412794813
20
-0.7373235396602522
11
-0.3991005900103531
21
-0.7370369126619162
0
LINE
8
Polygon
10
-0.3991005900103531
20
-0.7370369126619162
11
-0.399428755950061
21
-0.7367353643571589
0
LINE
8
Polygon
10
-0.39942875595006094
20
-0.7367353643571589
11
-0.3997431601298891
21
-0.7364194936940814
0
LINE
8
Polygon
10
-0.3997431601298891
20
-0.7364194936940814
11
-0.400043178066849
21
-0.7360899280684639
0
LINE
8
Polygon
10
-0.400043178066849
20
-0.7360899280684639
11
-0.4003282138525213
21
-0.7357473220776047
0
LINE
8
Polygon
10
-0.40032821385252126
20
-0.7357473220776047
11
-0.4005977013366743
21
-0.735392356220132
0
LINE
8
Polygon
10
-0.4005977013366743
20
-0.7353923562201321
11
-0.40085110525177575
21
-0.7350257355443681
0
LINE
8
Polygon
10
-0.40085110525177575
20
-0.7350257355443681
11
-0.4010879222761642
21
-0.734648188247932
0
LINE
8
Polygon
10
-0.4010879222761642
20
-0.734648188247932
11
-0.40130768203376765
21
-0.7342604642313629
0
LINE
8
Polygon
10
-0.40130768203376765
20
-0.7342604642313629
11
-0.40150994802838486
21
-0.7338633336086354
0
LINE
8
Polygon
10
-0.40150994802838486
20
-0.7338633336086354
11
-0.4016943185106725
21
-0.7334575851775265
0
LINE
8
Polygon
10
-0.4016943185106725
20
-0.7334575851775265
11
-0.4018604272761169
21
-0.7330440248528712
0
LINE
8
Polygon
10
-0.4018604272761169
20
-0.7330440248528712
11
-0.4020079443924052
21
-0.7326234740658212
0
LINE
8
Polygon
10
-0.4020079443924052
20
-0.7326234740658212
11
-0.4021365768547507
21
-0.7321967681322823
0
LINE
8
Polygon
10
-0.4021365768547507
20
-0.7321967681322823
11
-0.4022460691678717
21
-0.7317647545937748
0
LINE
8
Polygon
10
-0.4022460691678717
20
-0.7317647545937748
11
-0.4023362038534671
21
-0.7313282915340102
0
LINE
8
Polygon
10
-0.4023362038534671
20
-0.7313282915340102
11
-0.4024068018821808
21
-0.7308882458745292
0
LINE
8
Polygon
10
-0.4024068018821808
20
-0.7308882458745292
11
-0.40245772302919797
21
-0.7304454916527844
0
LINE
8
Polygon
10
-0.40245772302919797
20
-0.7304454916527844
11
-0.40248886615276497
21
-0.7300009082860904
0
LINE
8
Polygon
10
-0.40248886615276497
20
-0.7300009082860904
11
-0.4025001693950818
21
-0.7295553788248879
0
LINE
8
Polygon
10
-0.4025001693950818
20
-0.7295553788248879
11
-0.4024916103051667
21
-0.72910978819879
0
LINE
8
Polygon
10
-0.4024916103051667
20
-0.72910978819879
11
-0.40246320588344897
21
-0.728665021458899
0
LINE
8
Polygon
10
-0.40246320588344897
20
-0.728665021458899
11
-0.4024150125480022
21
-0.7282219620198789
0
LINE
8
Polygon
10
-0.4024150125480022
20
-0.7282219620198789
11
-0.40234712602248424
21
-0.7277814899052796
0
LINE
8
Polygon
10
-0.40234712602248424
20
-0.7277814899052796
11
-0.40225968114600685
21
-0.7273444799995976
0
LINE
8
Polygon
10
-0.40215285160531244
20
-0.7269118003105418
11
-0.4010757191741225
21
-0.7219431964692105
0
LINE
8
Polygon
10
-0.4010757191741225
20
-0.7219431964692105
11
-0.4005087110080624
21
-0.7168908959886338
0
LINE
8
Polygon
10
-0.4005087110080624
20
-0.7168908959886338
11
-0.40045768934523074
21
-0.7118071340748207
0
LINE
8
Polygon
10
-0.40045768934523074
20
-0.7118071340748207
11
-0.40092318169326074
21
-0.7067444712102463
0
LINE
8
Polygon
10
-0.40092318169326074
20
-0.7067444712102463
11
-0.4019003753754741
21
-0.7017552497365236
0
LINE
8
Polygon
10
-0.4019003753754741
20
-0.7017552497365236
11
-0.4033791672886414
21
-0.6968910526924098
0
LINE
8
Polygon
10
-0.4033791672886414
20
-0.6968910526924098
11
-0.4053442683579095
21
-0.692202170502167
0
LINE
8
Polygon
10
-0.4053442683579095
20
-0.692202170502167
11
-0.40777536160894623
21
-0.6877370810281276
0
LINE
8
Polygon
10
-0.40777536160894623
20
-0.6877370810281276
11
-0.41064731222301254
21
-0.6835419483631481
0
LINE
8
Polygon
10
-0.41064731222301254
20
-0.6835419483631481
11
-0.41393042740322317
21
-0.6796601455448837
0
LINE
8
Polygon
10
-0.41393042740322317
20
-0.6796601455448837
11
-0.4175907633652666
21
-0.6761318061264907
0
LINE
8
Polygon
10
-0.4175907633652666
20
-0.6761318061264907
11
-0.42159047627863955
21
-0.6729934092400195
0
LINE
8
Polygon
10
-0.42159047627863955
20
-0.6729934092400195
11
-0.4258882135300502
21
-0.6702774024424855
0
LINE
8
Polygon
10
-0.4258882135300502
20
-0.6702774024424855
11
-0.43043954126376055
21
-0.6680118662439724
0
LINE
8
Polygon
10
-0.43043954126376055
20
-0.6680118662439724
11
-0.4351974037785709
21
-0.6662202237861766
0
LINE
8
Polygon
10
-0.4351974037785709
20
-0.6662202237861766
11
-0.4401126100317913
21
-0.6649209986729966
0
LINE
8
Polygon
10
-0.4401126100317913
20
-0.6649209986729966
11
-0.44513434222028414
21
-0.6641276234569298
0
LINE
8
Polygon
10
-0.44513434222028414
20
-0.6641276234569298
11
-0.45021068118041385
21
-0.6638483007613185
0
LINE
8
Polygon
10
-0.45021068118041385
20
-0.6638483007613185
11
-0.4552891431748467
21
-0.664085918474285
0
LINE
8
Polygon
10
-0.4552891431748467
20
-0.664085918474285
11
-0.4603172225164195
21
-0.6648380198911586
0
LINE
8
Polygon
10
-0.4603172225164195
20
-0.6648380198911586
11
-0.465242934418945
21
-0.6660968291140883
0
LINE
8
Polygon
10
-0.465242934418945
20
-0.6660968291140883
11
-0.4700153524624769
21
-0.6678493314462366
0
LINE
8
Polygon
10
-0.4700153524624769
20
-0.6678493314462366
11
-0.4745851351162367
21
-0.670077407949369
0
LINE
8
Polygon
10
-0.4745851351162367
20
-0.670077407949369
11
-0.47890503587553745
21
-0.6727580227736596
0
LINE
8
Polygon
10
-0.47890503587553745
20
-0.6727580227736596
11
-0.48293039173845215
21
-0.675863461322933
0
LINE
8
Polygon
10
-0.48293039173845215
20
-0.675863461322933
11
-0.486619584971917
21
-0.679361616792973
0
LINE
8
Polygon
10
-0.486619584971917
20
-0.679361616792973
11
-0.4899344733931189
21
-0.6832163221204132
0
LINE
8
Polygon
10
-0.4899344733931189
20
-0.6832163221204132
11
-0.49284078471753245
21
-0.6873877239102195
0
LINE
8
Polygon
10
-0.49284078471753245
20
-0.6873877239102195
11
-0.4953084708964836
21
-0.691832694475772
0
LINE
8
Polygon
10
-0.4953084708964836
20
-0.691832694475772
11
-0.49731201878078046
21
-0.6965052777315037
0
LINE
8
Polygon
10
-0.49731201878078046
20
-0.6965052777315037
11
-0.4988307138984933
21
-0.7013571643280606
0
LINE
8
Polygon
10
-0.4988307138984933
20
-0.7013571643280606
11
-0.4998488546197126
21
-0.7063381911176101
0
LINE
8
Polygon
10
-0.4998488546197126
20
-0.7063381911176101
11
-0.5003559144940573
21
-0.7113968597853767
0
LINE
8
Polygon
10
-0.5003559144940573
20
-0.7113968597853767
11
-0.5003466510825438
21
-0.7164808692853306
0
LINE
8
Polygon
10
-0.5003466510825438
20
-0.7164808692853306
11
-0.4998211601586148
21
-0.7215376565752295
0
LINE
8
Polygon
10
-0.4998211601586148
20
-0.7215376565752295
11
-0.49878487471794636
21
-0.7265149400604122
0
LINE
8
Polygon
10
-0.49878487471794636
20
-0.7265149400604122
11
-0.49724850880727556
21
-0.7313612601277357
0
LINE
8
Polygon
10
-0.49724850880727556
20
-0.7313612601277357
11
-0.4952279467529914
21
-0.7360265111811305
0
LINE
8
Polygon
10
-0.4952279467529914
20
-0.7360265111811305
11
-0.4927440789347467
21
-0.7404624596781154
0
LINE
8
Polygon
10
-0.4927440789347467
20
-0.7404624596781154
11
-0.48982258580200866
21
-0.7446232428113463
0
LINE
8
Polygon
10
-0.48982258580200866
20
-0.7446232428113463
11
-0.48649367236657914
21
-0.7484658426793824
0
LINE
8
Polygon
10
-0.48649367236657914
20
-0.7484658426793824
11
-0.48279175591613815
21
-0.751950531044268
0
LINE
8
Polygon
10
-0.48279175591613815
20
-0.751950531044268
11
-0.4787551101775077
21
-0.7550412800776272
0
LINE
8
Polygon
10
-0.4787551101775077
20
-0.7550412800776272
11
-0.4744254696085952
21
-0.7577061348486123
0
LINE
8
Polygon
10
-0.4744254696085952
20
-0.7577061348486123
11
-0.4698475979102003
21
-0.7599175437025895
0
LINE
8
Polygon
10
-0.4698475979102003
20
-0.7599175437025895
11
-0.46506882521879583
21
-0.7616526431148138
0
LINE
8
Polygon
10
-0.46506882521879583
20
-0.7616526431148138
11
-0.46013855876519977
21
-0.7628934940740185
0
LINE
8
Polygon
10
-0.4551077720583854
20
-0.7636272675519759
11
-0.4546651077199242
21
-0.7636789642398886
0
LINE
8
Polygon
10
-0.4546651077199242
20
-0.7636789642398886
11
-0.45422518640962917
21
-0.7637503330344326
0
LINE
8
Polygon
10
-0.45422518640962917
20
-0.7637503330344326
11
-0.45378888191796535
21
-0.7638412321798652
0
LINE
8
Polygon
10
-0.45378888191796535
20
-0.7638412321798652
11
-0.4533570608515185
21
-0.7639514811284277
0
LINE
8
Polygon
10
-0.4533570608515185
20
-0.7639514811284277
11
-0.4529305809117041
21
-0.7640808608989571
0
LINE
8
Polygon
10
-0.4529305809117041
20
-0.7640808608989571
11
-0.45251028919116393
21
-0.7642291145118365
0
LINE
8
Polygon
10
-0.45251028919116393
20
-0.7642291145118365
11
-0.45209702049123507
21
-0.7643959474994184
0
LINE
8
Polygon
10
-0.45209702049123507
20
-0.7643959474994184
11
-0.4516915956638314
21
-0.7645810284909088
0
LINE
8
Polygon
10
-0.4516915956638314
20
-0.7645810284909088
11
-0.4512948199810327
21
-0.7647839898705505
0
LINE
8
Polygon
10
-0.4512948199810327
20
-0.7647839898705505
11
-0.4509074815356191
21
-0.7650044285077967
0
LINE
8
Polygon
10
-0.4509074815356191
20
-0.7650044285077967
11
-0.45053034967572736
21
-0.7652419065580266
0
LINE
8
Polygon
10
-0.45053034967572736
20
-0.7652419065580266
11
-0.4501641734767387
21
-0.7654959523322103
0
LINE
8
Polygon
10
-0.4501641734767387
20
-0.7654959523322103
11
-0.4498096802534337
21
-0.7657660612337985
0
LINE
8
Polygon
10
-0.4498096802534337
20
-0.7657660612337985
11
-0.44946757411536836
21
-0.7660516967609734
0
LINE
8
Polygon
10
-0.44946757411536836
20
-0.7660516967609734
11
-0.44913853456834185
21
-0.7663522915722708
0
LINE
8
Polygon
10
-0.44913853456834185
20
-0.7663522915722708
11
-0.44882321516473295
21
-0.7666672486134593
0
LINE
8
Polygon
10
-0.44882321516473295
20
-0.7666672486134593
11
-0.44852224220538667
21
-0.7669959423034332
0
LINE
8
Polygon
10
-0.44852224220538667
20
-0.7669959423034332
11
-0.4482362134956285
21
-0.76733771977677
0
LINE
8
Polygon
10
-0.4482362134956285
20
-0.76733771977677
11
-0.4479656971578784
21
-0.7676919021804783
0
LINE
8
Polygon
10
-0.4479656971578784
20
-0.7676919021804783
11
-0.4477112305032213
21
-0.7680577860223654
0
LINE
8
Polygon
10
-0.4477112305032213
20
-0.7680577860223654
11
-0.4474733189641775
21
-0.7684346445683429
0
LINE
8
Polygon
10
-0.4474733189641775
20
-0.7684346445683429
11
-0.44725243509079055
21
-0.768821729285897
0
LINE
8
Polygon
10
-0.44725243509079055
20
-0.768821729285897
11
-0.4470490176120285
21
-0.7692182713308562
0
LINE
8
Polygon
10
-0.4470490176120285
20
-0.7692182713308562
11
-0.4468634705643615
21
-0.769623483074502
0
LINE
8
Polygon
10
-0.4468634705643615
20
-0.769623483074502
11
-0.4466961624892475
21
-0.7700365596679905
0
LINE
8
Polygon
10
-0.4466961624892475
20
-0.7700365596679905
11
-0.4465474257011195
21
-0.7704566806409777
0
LINE
8
Polygon
10
-0.4465474257011195
20
-0.7704566806409777
11
-0.4464175556273283
21
-0.7708830115312729
0
LINE
8
Polygon
10
-0.4464175556273283
20
-0.7708830115312729
11
-0.4463068102213523
21
-0.7713147055422825
0
LINE
8
Polygon
10
-0.4463068102213523
20
-0.7713147055422825
11
-0.4462154094504391
21
-0.7717509052249543
0
LINE
8
Polygon
10
-0.4462154094504391
20
-0.7717509052249543
11
-0.4461435348586973
21
-0.7721907441808782
0
LINE
8
Polygon
10
-0.4461435348586973
20
-0.7721907441808782
11
-0.4460913292065058
21
-0.7726333487831653
0
LINE
8
Polygon
10
-0.4460913292065058
20
-0.7726333487831653
11
-0.44605889618695704
21
-0.7730778399116811
0
LINE
8
Polygon
10
-0.44605889618695704
20
-0.7730778399116811
11
-0.4460463002198975
21
-0.773523334699193
0
LINE
8
Polygon
10
-0.4460463002198975
20
-0.773523334699193
11
-0.44605356632397397
21
-0.7739689482849575
0
LINE
8
Polygon
10
-0.44605356632397397
20
-0.7739689482849575
11
-0.4460806800669408
21
-0.7744137955722694
0
LINE
8
Polygon
10
-0.4460806800669408
20
-0.7744137955722694
11
-0.44612758759432547
21
-0.7748569929864778
0
LINE
8
Polygon
10
-0.44612758759432547
20
-0.7748569929864778
11
-0.44619419573639696
21
-0.7752976602299805
0
LINE
8
Polygon
10
-0.44619419573639696
20
-0.7752976602299805
11
-0.44628037219322325
21
-0.7757349220307077
0
LINE
8
Polygon
10
-0.44628037219322325
20
-0.7757349220307077
11
-0.4463859457974511
21
-0.7761679098806259
0
LINE
8
Polygon
10
-0.4463859457974511
20
-0.7761679098806259
11
-0.4465107068542861
21
-0.7765957637608044
0
LINE
8
Polygon
10
-0.4465107068542861
20
-0.7765957637608044
11
-0.4466544075579973
21
-0.7770176338496224
0
LINE
8
Polygon
10
-0.4466544075579973
20
-0.7770176338496224
11
-0.44681676248411933
21
-0.7774326822107206
0
LINE
8
Polygon
10
-0.44681676248411933
20
-0.7774326822107206
11
-0.44699744915637507
21
-0.7778400844573461
0
LINE
8
Polygon
10
-0.44699744915637507
20
-0.7778400844573461
11
-0.44719610868719145
21
-0.7782390313897848
0
LINE
8
Polygon
10
-0.44719610868719145
20
-0.7782390313897848
11
-0.4474123464905373
21
-0.7786287306026279
0
LINE
8
Polygon
10
-0.4474123464905373
20
-0.7786287306026279
11
-0.447645733065667
21
-0.7790084080586819
0
LINE
8
Polygon
10
-0.447645733065667
20
-0.7790084080586819
11
-0.4478958048502134
21
-0.7793773096263936
0
LINE
8
Polygon
10
-0.4481620651409346
20
-0.7797347025777391
11
-0.44922390631677867
21
-0.7811161596881747
0
LINE
8
Polygon
10
-0.44922390631677867
20
-0.7811161596881747
11
-0.45026557742109463
21
-0.7825128886315005
0
LINE
8
Polygon
10
-0.45026557742109463
20
-0.7825128886315005
11
-0.45128685883992387
21
-0.7839245949374456
0
LINE
8
Polygon
10
-0.4512868588399238
20
-0.7839245949374456
11
-0.4522875352580345
21
-0.785350980978084
0
LINE
8
Polygon
10
-0.4522875352580345
20
-0.785350980978084
11
-0.4532673957043163
21
-0.7867917460305832
0
LINE
8
Polygon
10
-0.4532673957043163
20
-0.7867917460305832
11
-0.454226233596259
21
-0.7882465863406055
0
LINE
8
Polygon
10
-0.454226233596259
20
-0.7882465863406055
11
-0.45516384678350613
21
-0.7897151951863474
0
LINE
8
Polygon
10
-0.45516384678350613
20
-0.7897151951863474
11
-0.4560800375904738
21
-0.7911972629432057
0
LINE
8
Polygon
10
-0.4560800375904737
20
-0.7911972629432056
11
-0.4569746128580264
21
-0.7926924771490551
0
LINE
8
Polygon
10
-0.4569746128580264
20
-0.7926924771490551
11
-0.4578473839842004
21
-0.7942005225701243
0
LINE
8
Polygon
10
-0.4578473839842004
20
-0.7942005225701243
11
-0.4586981669639665
21
-0.7957210812674561
0
LINE
8
Polygon
10
-0.4586981669639665
20
-0.7957210812674561
11
-0.4595267824280234
21
-0.7972538326639378
0
LINE
8
Polygon
10
-0.4595267824280234
20
-0.7972538326639378
11
-0.46033305568061406
21
-0.7987984536118884
0
LINE
8
Polygon
10
-0.46033305568061406
20
-0.7987984536118884
11
-0.46111681673635624
21
-0.800354618461187
0
LINE
8
Polygon
10
-0.4611168167363562
20
-0.800354618461187
11
-0.46187790035608056
21
-0.8019219991279295
0
LINE
8
Polygon
10
-0.46187790035608056
20
-0.8019219991279295
11
-0.46261614608166746
21
-0.8035002651635976
0
LINE
8
Polygon
10
-0.46261614608166746
20
-0.8035002651635976
11
-0.46333139826987646
21
-0.8050890838247271
0
LINE
8
Polygon
10
-0.46333139826987646
20
-0.8050890838247271
11
-0.4640235061251601
21
-0.8066881201430594
0
LINE
8
Polygon
10
-0.4640235061251601
20
-0.8066881201430594
11
-0.4646923237314558
21
-0.8082970369961626
0
LINE
8
Polygon
10
-0.46469232373145575
20
-0.8082970369961626
11
-0.4653377100829495
21
-0.8099154951785067
0
LINE
8
Polygon
10
-0.4653377100829495
20
-0.8099154951785067
11
-0.46595952911380345
21
-0.8115431534729772
0
LINE
8
Polygon
10
-0.46595952911380345
20
-0.8115431534729772
11
-0.4665576497268427
21
-0.813179668722814
0
LINE
8
Polygon
10
-0.4665576497268427
20
-0.813179668722814
11
-0.46713194582119444
21
-0.8148246959039582
0
LINE
8
Polygon
10
-0.46713194582119444
20
-0.8148246959039582
11
-0.4676822963188732
21
-0.8164778881977933
0
LINE
8
Polygon
10
-0.4676822963188732
20
-0.8164778881977933
11
-0.46820858519030795
21
-0.8181388970642642
0
LINE
8
Polygon
10
-0.46820858519030795
20
-0.8181388970642641
11
-0.4687107014788042
21
-0.8198073723153595
0
LINE
8
Polygon
10
-0.4687107014788042
20
-0.8198073723153595
11
-0.46918853932393706
21
-0.8214829621889412
0
LINE
8
Polygon
10
-0.46918853932393706
20
-0.8214829621889412
11
-0.4696419979838693
21
-0.8231653134229062
0
LINE
8
Polygon
10
-0.4696419979838693
20
-0.8231653134229062
11
-0.4700709818565908
21
-0.8248540713296636
0
LINE
8
Polygon
10
-0.4700709818565908
20
-0.8248540713296636
11
-0.47047540050007436
21
-0.8265488798709135
0
LINE
8
Polygon
10
-0.47047540050007436
20
-0.8265488798709135
11
-0.4708551686513431
21
-0.8282493817327099
0
LINE
8
Polygon
10
-0.4708551686513431
20
-0.8282493817327099
11
-0.47121020624444643
21
-0.8299552184007922
0
LINE
8
Polygon
10
-0.47121020624444643
20
-0.8299552184007922
11
-0.47154043842734056
21
-0.8316660302361709
0
LINE
8
Polygon
10
-0.47154043842734056
20
-0.8316660302361709
11
-0.4718457955776689
21
-0.8333814565509493
0
LINE
8
Polygon
10
-0.4718457955776689
20
-0.8333814565509493
11
-0.4721262133174409
21
-0.835101135684367
0
LINE
8
Polygon
10
-0.4721262133174409
20
-0.835101135684367
11
-0.4723816325266045
21
-0.836824705079048
0
LINE
8
Polygon
10
-0.4723816325266045
20
-0.8368247050790479
11
-0.47261199935551035
21
-0.8385518013574386
0
LINE
8
Polygon
10
-0.47261199935551035
20
-0.8385518013574386
11
-0.47281726523626505
21
-0.8402820603984175
0
LINE
8
Polygon
10
-0.47281726523626505
20
-0.8402820603984175
11
-0.4729973868929704
21
-0.8420151174140625
0
LINE
8
Polygon
10
-0.4729973868929704
20
-0.8420151174140625
11
-0.47315232635084725
21
-0.8437506070265591
0
LINE
8
Polygon
10
-0.47315232635084725
20
-0.8437506070265591
11
-0.4732820509442419
21
-0.8454881633452318
0
LINE
8
Polygon
10
-0.4732820509442419
20
-0.8454881633452318
11
-0.47338653332351255
21
-0.8472274200436846
0
LINE
8
Polygon
10
-0.47338653332351255
20
-0.8472274200436846
11
-0.47346575146079567
21
-0.8489680104370328
0
LINE
8
Polygon
10
-0.47346575146079567
20
-0.8489680104370328
11
-0.47351968865465005
21
-0.8507095675592111
0
LINE
8
Polygon
10
-0.47351968865465005
20
-0.8507095675592111
11
-0.47354833353357795
21
-0.8524517242403401
0
LINE
8
Polygon
10
-0.47354833353357795
20
-0.8524517242403401
11
-0.4735516800584224
21
-0.8541941131841361
0
LINE
8
Polygon
10
-0.4735516800584224
20
-0.8541941131841361
11
-0.4735297275236406
21
-0.8559363670453479
0
LINE
8
Polygon
10
-0.47348248055745257
20
-0.8576781185072037
11
-0.23362430062909534
21
-0.8494286626793437
0
LINE
8
Polygon
10
-0.9737947291879736
20
-1.0431641075223868
11
1.0431641075223865
21
-0.9737947291879736
0
LINE
8
Polygon
10
1.0431641075223865
20
-0.9737947291879736
11
0.9737947291879736
21
1.0431641075223868
0
LINE
8
Polygon
10
0.9737947291879736
20
1.0431641075223868
11
-1.0431641075223865
21
0.9737947291879736
0
ENDSEC
0
EOF
