0
SECTION
2
ENTITIES
0
LINE
8
Polygon
10
-81.43125669029061
20
-78.7398539529707
11
-81.22936741923147
21
-78.73120793999156
0
LINE
8
Polygon
10
-81.22936741923147
20
-78.73120793999156
11
-81.02765236261465
21
-78.71916355361046
0
LINE
8
Polygon
10
-81.02765236261465
20
-78.71916355361046
11
-80.82616872071054
21
-78.70372420924994
0
LINE
8
Polygon
10
-80.82616872071054
20
-78.70372420924994
11
-80.62497362816734
21
-78.6848942850397
0
LINE
8
Polygon
10
-80.62497362816734
20
-78.6848942850397
11
-80.42412413780943
21
-78.66267912057496
0
LINE
8
Polygon
10
-80.42412413780943
20
-78.66267912057496
11
-80.22367720445887
21
-78.63708501540239
0
LINE
8
Polygon
10
-80.22367720445887
20
-78.63708501540239
11
-80.02368966878477
21
-78.60811922723376
0
LINE
8
Polygon
10
-80.02368966878477
20
-78.60811922723376
11
-79.82421824118501
21
-78.57578996988782
0
LINE
8
Polygon
10
-79.82421824118501
20
-78.57578996988782
11
-79.62531948570486
21
-78.54010641096114
0
LINE
8
Polygon
10
-79.62531948570486
20
-78.54010641096114
11
-79.42704980399715
21
-78.50107866922845
0
LINE
8
Polygon
10
-79.42704980399715
20
-78.50107866922845
11
-79.2294654193285
21
-78.4587178117733
0
LINE
8
Polygon
10
-79.22946541932849
20
-78.4587178117733
11
-79.03262236063604
21
-78.4130358508497
0
LINE
8
Polygon
10
-79.03262236063604
20
-78.4130358508497
11
-78.83657644663938
21
-78.36404574047585
0
LINE
8
Polygon
10
-78.83657644663938
20
-78.36404574047585
11
-78.64138327001207
21
-78.31176137276078
0
LINE
8
Polygon
10
-78.64138327001206
20
-78.31176137276078
11
-78.44709818161716
21
-78.25619757396501
0
LINE
8
Polygon
10
-78.44709818161716
20
-78.25619757396501
11
-78.25377627481154
21
-78.19737010029615
0
LINE
8
Polygon
10
-78.25377627481154
20
-78.19737010029615
11
-78.06147236982291
21
-78.135295633441
0
LINE
8
Polygon
10
-78.06147236982291
20
-78.135295633441
11
-77.8702409982046
21
-78.06999177583516
0
LINE
8
Polygon
10
-77.8702409982046
20
-78.06999177583516
11
-77.68013638737197
21
-78.00147704567145
0
LINE
8
Polygon
10
-77.68013638737197
20
-78.00147704567145
11
-77.49121244522527
21
-77.92977087164871
0
LINE
8
Polygon
10
-77.49121244522527
20
-77.92977087164871
11
-77.30352274486287
21
-77.8548935874625
0
LINE
8
Polygon
10
-77.30352274486287
20
-77.8548935874625
11
-77.11712050938966
21
-77.77686642603894
0
LINE
8
Polygon
10
-77.11712050938966
20
-77.77686642603894
11
-76.93205859682453
21
-77.69571151351384
0
LINE
8
Polygon
10
-76.93205859682453
20
-77.69571151351384
11
-76.74838948511142
21
-77.61145186295829
0
LINE
8
Polygon
10
-76.7483894851114
20
-77.61145186295828
11
-76.56616525723823
21
-77.52411136785291
0
LINE
8
Polygon
10
-76.56616525723823
20
-77.52411136785291
11
-76.38543758646769
21
-77.43371479531235
0
LINE
8
Polygon
10
-76.38543758646767
20
-77.43371479531235
11
-76.20625772168424
21
-77.34028777906215
0
LINE
8
Polygon
10
-76.20625772168424
20
-77.34028777906215
11
-76.02867647286158
21
-77.24385681216971
0
LINE
8
Polygon
10
-76.02867647286158
20
-77.24385681216971
11
-75.85274419665438
21
-77.14444923953168
0
LINE
8
Polygon
10
-75.85274419665438
20
-77.14444923953168
11
-75.67851078211874
21
-77.04209325011985
0
LINE
8
Polygon
10
-75.67851078211874
20
-77.04209325011985
11
-75.50602563656508
21
-76.9368178689875
0
LINE
8
Polygon
10
-75.50602563656508
20
-76.9368178689875
11
-75.3353376715478
21
-76.82865294903888
0
LINE
8
Polygon
10
-75.3353376715478
20
-76.82865294903888
11
-75.16649528899545
21
-76.71762916256378
0
LINE
8
Polygon
10
-75.16649528899545
20
-76.71762916256378
11
-74.99954636748534
21
-76.60377799253976
0
LINE
8
Polygon
10
-74.99954636748534
20
-76.60377799253976
11
-74.83453824866669
21
-76.48713172370462
0
LINE
8
Polygon
10
-74.83453824866669
20
-76.48713172370462
11
-74.67151772383596
21
-76.36772343340138
0
LINE
8
Polygon
10
-74.67151772383596
20
-76.36772343340138
11
-74.51053102066828
21
-76.24558698219853
0
LINE
8
Polygon
10
-74.51053102066828
20
-76.24558698219853
11
-74.3516237901086
21
-76.12075700428824
0
LINE
8
Polygon
10
-74.3516237901086
20
-76.12075700428824
11
-74.19484109342658
21
-75.99326889766516
0
LINE
8
Polygon
10
-74.19484109342658
20
-75.99326889766516
11
-74.0402273894385
21
-75.86315881408855
0
LINE
8
Polygon
10
-74.0402273894385
20
-75.86315881408855
11
-73.8878265219001
21
-75.73046364883082
0
LINE
8
Polygon
10
-73.8878265219001
20
-75.73046364883082
11
-73.73768170707389
21
-75.59522103021514
0
LINE
8
Polygon
10
-73.73768170707389
20
-75.59522103021514
11
-73.58983552147421
21
-75.45746930894511
0
LINE
8
Polygon
10
-73.58983552147421
20
-75.45746930894511
11
-73.44432988979395
21
-75.31724754722977
0
LINE
8
Polygon
10
-73.44432988979395
20
-75.31724754722977
11
-73.30120607301586
21
-75.17459550770667
0
LINE
8
Polygon
10
-73.30120607301586
20
-75.17459550770667
11
-73.16050465671228
21
-75.02955364216642
0
LINE
8
Polygon
10
-73.16050465671228
20
-75.02955364216643
11
-73.02226553953626
21
-74.8821630800818
0
LINE
8
Polygon
10
-73.02226553953626
20
-74.8821630800818
11
-72.8865279219075
21
-74.73246561694465
0
LINE
8
Polygon
10
-72.8865279219075
20
-74.73246561694465
11
-72.85613624121831
21
-74.69986824917133
0
LINE
8
Polygon
10
-72.85613624121831
20
-74.69986824917133
11
-72.82432232780782
21
-74.66865739281694
0
LINE
8
Polygon
10
-72.82432232780782
20
-74.66865739281694
11
-72.79114937182743
21
-74.63889504021526
0
LINE
8
Polygon
10
-72.79114937182743
20
-74.63889504021526
11
-72.75668326281682
21
-74.6106403066201
0
LINE
8
Polygon
10
-72.75668326281682
20
-74.6106403066201
11
-72.72099245883139
21
-74.58394931278815
0
LINE
8
Polygon
10
-72.72099245883139
20
-74.58394931278815
11
-72.6841478504679
21
-74.55887507350947
0
LINE
8
Polygon
10
-72.6841478504679
20
-74.55887507350947
11
-72.64622262005855
21
-74.53546739230731
0
LINE
8
Polygon
10
-72.64622262005855
20
-74.53546739230731
11
-72.60729209631316
21
-74.5137727625162
0
LINE
8
Polygon
10
-72.60729209631316
20
-74.5137727625162
11
-72.56743360469801
21
-74.4938342749349
0
LINE
8
Polygon
10
-72.56743360469801
20
-74.4938342749349
11
-72.52672631384877
21
-74.47569153223765
0
LINE
8
Polygon
10
-72.52672631384877
20
-74.47569153223765
11
-72.48525107832229
21
-74.4593805703136
0
LINE
8
Polygon
10
-72.48525107832229
20
-74.4593805703136
11
-72.44309027799994
21
-74.44493378669085
0
LINE
8
Polygon
10
-72.44309027799994
20
-74.44493378669085
11
-72.40032765446108
21
-74.43237987618707
0
LINE
8
Polygon
10
-72.40032765446108
20
-74.43237987618707
11
-72.35704814465201
21
-74.42174377391459
0
LINE
8
Polygon
10
-72.35704814465201
20
-74.42174377391459
11
-72.3133377121806
21
-74.41304660575328
0
LINE
8
Polygon
10
-72.3133377121806
20
-74.41304660575328
11
-72.26928317657168
21
-74.4063056463894
0
LINE
8
Polygon
10
-72.26928317657168
20
-74.4063056463894
11
-72.22497204082238
21
-74.40153428500386
0
LINE
8
Polygon
10
-72.22497204082238
20
-74.40153428500386
11
-72.1804923176
21
-74.39874199867813
0
LINE
8
Polygon
10
-72.1804923176
20
-74.39874199867813
11
-72.13593235442747
21
-74.39793433357036
0
LINE
8
Polygon
10
-72.13593235442747
20
-74.39793433357036
11
-72.09138065820369
21
-74.39911289389943
0
LINE
8
Polygon
10
-72.09138065820369
20
-74.39911289389943
11
-72.04692571940747
21
-74.40227533875856
0
LINE
8
Polygon
10
-72.04692571940747
20
-74.40227533875856
11
-72.0026558363338
21
-74.40741538676491
0
LINE
8
Polygon
10
-72.0026558363338
20
-74.40741538676491
11
-71.95865893971217
21
-74.41452282853597
0
LINE
8
Polygon
10
-71.95865893971217
20
-74.41452282853597
11
-71.91502241805469
21
-74.42358354696782
0
LINE
8
Polygon
10
-71.91502241805469
20
-74.42358354696782
11
-71.87183294408142
21
-74.43457954527516
0
LINE
8
Polygon
10
-71.87183294408142
20
-74.43457954527514
11
-71.82917630256715
21
-74.44748898273726
0
LINE
8
Polygon
10
-71.82917630256715
20
-74.44748898273726
11
-71.78713721995221
21
-74.46228621807897
0
LINE
8
Polygon
10
-71.78713721995221
20
-74.46228621807897
11
-71.74579919605506
21
-74.47894186040048
0
LINE
8
Polygon
10
-71.74579919605506
20
-74.47894186040048
11
-71.70524433822145
21
-74.49742282755481
0
LINE
8
Polygon
10
-71.70524433822145
20
-74.49742282755481
11
-71.66555319823931
21
-74.51769241185696
0
LINE
8
Polygon
10
-71.66555319823931
20
-74.51769241185696
11
-71.62680461234332
21
-74.53971035299428
0
LINE
8
Polygon
10
-71.62680461234332
20
-74.53971035299428
11
-71.5890755446271
21
-74.56343291799318
0
LINE
8
Polygon
10
-71.5890755446271
20
-74.56343291799318
11
-71.55244093417369
21
-74.58881298808355
0
LINE
8
Polygon
10
-71.55244093417369
20
-74.58881298808355
11
-71.51697354620855
21
-74.61580015228793
0
LINE
8
Polygon
10
-71.51697354620855
20
-74.61580015228793
11
-71.48274382757
21
-74.64434080755002
0
LINE
8
Polygon
10
-71.48274382757
20
-74.64434080755002
11
-71.4498197667848
21
-74.67437826520334
0
LINE
8
Polygon
10
-71.4498197667848
20
-74.67437826520334
11
-71.41826675902637
21
-74.7058528635687
0
LINE
8
Polygon
10
-71.41826675902637
20
-74.7058528635687
11
-71.38814747622416
21
-74.7387020864567
0
LINE
8
Polygon
10
-71.38814747622416
20
-74.7387020864567
11
-71.359521742582
21
-74.77286068734011
0
LINE
8
Polygon
10
-71.359521742582
20
-74.77286068734011
11
-71.3324464157527
21
-74.80826081894932
0
LINE
8
Polygon
10
-71.3324464157527
20
-74.80826081894932
11
-71.30697527390488
21
-74.84483216803345
0
LINE
8
Polygon
10
-71.30697527390488
20
-74.84483216803345
11
-71.28315890890661
21
-74.88250209501949
0
LINE
8
Polygon
10
-71.28315890890661
20
-74.88250209501949
11
-71.26104462583761
21
-74.92119577829219
0
LINE
8
Polygon
10
-71.26104462583761
20
-74.92119577829219
11
-71.24067634902987
21
-74.9608363628079
0
LINE
8
Polygon
10
-71.24067634902987
20
-74.9608363628079
11
-71.22209453482331
21
-75.00134511274734
0
LINE
8
Polygon
10
-71.22209453482331
20
-75.00134511274734
11
-71.20533609120965
21
-75.04264156790407
0
LINE
8
Polygon
10
-71.20533609120965
20
-75.04264156790407
11
-71.19043430452419
21
-75.08464370349792
0
LINE
8
Polygon
10
-71.19043430452419
20
-75.08464370349792
11
-71.17741877333106
21
-75.12726809309619
0
LINE
8
Polygon
10
-71.17741877333106
20
-75.1272680930962
11
-71.01511141442191
21
-75.60906546264908
0
LINE
8
Polygon
10
-71.01511141442191
20
-75.60906546264908
11
-70.80471711842307
21
-76.07189007767651
0
LINE
8
Polygon
10
-70.80471711842307
20
-76.07189007767651
11
-70.54841112994573
21
-76.5109568429125
0
LINE
8
Polygon
10
-70.54841112994573
20
-76.5109568429125
11
-70.24884336978558
21
-76.9217262930141
0
LINE
8
Polygon
10
-70.24884336978558
20
-76.9217262930141
11
-69.90911103766888
21
-77.29995152561855
0
LINE
8
Polygon
10
-69.90911103766888
20
-77.29995152561855
11
-69.5327265906287
21
-77.6417221096225
0
LINE
8
Polygon
10
-69.5327265906287
20
-77.6417221096225
11
-69.12358142807906
21
-77.94350451471992
0
LINE
8
Polygon
10
-69.12358142807906
20
-77.94350451471992
11
-68.68590565904368
21
-78.20217864420222
0
LINE
8
Polygon
10
-68.68590565904368
20
-78.20217864420222
11
-68.22422436750134
21
-78.41507009331173
0
LINE
8
Polygon
10
-68.22422436750134
20
-78.41507009331173
11
-67.74331082801616
21
-78.57997779963246
0
LINE
8
Polygon
10
-67.74331082801616
20
-78.57997779963246
11
-67.24813715535129
21
-78.69519679964432
0
LINE
8
Polygon
10
-67.24813715535129
20
-78.69519679964432
11
-66.74382289829474
21
-78.7595358561624
0
LINE
8
Polygon
10
-66.74382289829474
20
-78.7595358561624
11
-66.23558210918004
21
-78.77232977441363
0
LINE
8
Polygon
10
-66.23558210918004
20
-78.77232977441363
11
-65.72866943634487
21
-78.73344627941594
0
LINE
8
Polygon
10
-65.72866943634487
20
-78.73344627941594
11
-65.22832579687159
21
-78.64328738355543
0
LINE
8
Polygon
10
-65.22832579687159
20
-78.64328738355543
11
-64.73972419129407
21
-78.50278523022241
0
LINE
8
Polygon
10
-64.73972419129407
20
-78.50278523022241
11
-64.26791622048636
21
-78.31339245647843
0
LINE
8
Polygon
10
-64.26791622048636
20
-78.31339245647843
11
-63.817779857689835
21
-78.0770671743936
0
LINE
8
Polygon
10
-63.817779857689835
20
-78.0770671743936
11
-63.39396901565837
21
-77.79625272633099
0
LINE
8
Polygon
10
-63.39396901565837
20
-77.79625272633099
11
-63.000865430341214
21
-77.47385242348537
0
LINE
8
Polygon
10
-63.000865430341214
20
-77.47385242348537
11
-62.64253335857364
21
-77.11319952885273
0
LINE
8
Polygon
10
-62.64253335857364
20
-77.11319952885273
11
-62.322677558150694
21
-76.7180227949729
0
LINE
8
Polygon
10
-62.322677558150694
20
-76.7180227949729
11
-62.04460498472405
21
-76.29240791274717
0
LINE
8
Polygon
10
-62.04460498472405
20
-76.29240791274717
11
-61.81119060153358
21
-75.8407552699076
0
LINE
8
Polygon
10
-61.81119060153358
20
-75.8407552699076
11
-61.6248476554632
21
-75.36773445586878
0
LINE
8
Polygon
10
-61.6248476554632
20
-75.36773445586878
11
-61.48750272673388
21
-74.87823598333134
0
LINE
8
Polygon
10
-61.48750272673388
20
-74.87823598333134
11
-61.400575810192336
21
-74.37732072578301
0
LINE
8
Polygon
10
-61.400575810192336
20
-74.37732072578301
11
-61.36496563413289
21
-73.87016759365706
0
LINE
8
Polygon
10
-61.36496563413289
20
-73.87016759365706
11
-61.381040368439656
21
-73.36201999011935
0
LINE
8
Polygon
10
-61.381040368439656
20
-73.36201999011935
11
-61.44863381811665
21
-72.8581316000716
0
LINE
8
Polygon
10
-61.44863381811665
20
-72.8581316000716
11
-61.56704714156046
21
-72.36371207285295
0
LINE
8
Polygon
10
-61.56704714156046
20
-72.36371207285295
11
-61.73505607581049
21
-71.88387316022047
0
LINE
8
Polygon
10
-61.73505607581049
20
-71.88387316022047
11
-61.95092359407553
21
-71.42357586648279
0
LINE
8
Polygon
10
-61.95092359407553
20
-71.42357586648279
11
-62.21241786467209
21
-70.98757915719554
0
LINE
8
Polygon
10
-62.21241786467209
20
-70.98757915719554
11
-62.51683532569853
21
-70.58039075671442
0
LINE
8
Polygon
10
-62.51683532569853
20
-70.58039075671442
11
-62.86102863687878
21
-70.20622054330492
0
LINE
8
Polygon
10
-62.86102863687878
20
-70.20622054330492
11
-63.24143921958404
21
-69.86893702365123
0
LINE
8
Polygon
10
-63.24143921958404
20
-69.86893702365123
11
-63.65413404860492
21
-69.57202733677056
0
LINE
8
Polygon
10
-63.65413404860492
20
-69.57202733677056
11
-64.09484631528748
21
-69.31856120084771
0
LINE
8
Polygon
10
-64.09484631528748
20
-69.31856120084771
11
-64.55901954162151
21
-69.11115917573996
0
LINE
8
Polygon
10
-64.55901954162151
20
-69.11115917573996
11
-65.04185468918983
21
-68.95196556928286
0
LINE
8
Polygon
10
-65.04185468918983
20
-68.95196556928286
11
-65.53835977592438
21
-68.84262626751598
0
LINE
8
Polygon
10
-65.53835977592438
20
-68.84262626751598
11
-66.04340148768641
21
-68.78427171803928
0
LINE
8
Polygon
10
-66.04340148768641
20
-68.78427171803928
11
-66.55175825106426
21
-68.77750524243375
0
LINE
8
Polygon
10
-66.55175825106426
20
-68.77750524243375
11
-67.05817421867457
21
-68.82239679858263
0
LINE
8
Polygon
10
-67.05817421867457
20
-68.82239679858263
11
-67.55741360881824
21
-68.91848225738426
0
LINE
8
Polygon
10
-67.55741360881824
20
-68.91848225738426
11
-68.04431483767972
21
-69.06476820133418
0
LINE
8
Polygon
10
-68.04431483767972
20
-69.06476820133418
11
-68.5138438844019
21
-69.25974219536492
0
LINE
8
Polygon
10
-68.5138438844019
20
-69.25974219536492
11
-68.55449835992006
21
-69.2780029801566
0
LINE
8
Polygon
10
-68.55449835992006
20
-69.2780029801566
11
-68.59592609207648
21
-69.29443422019621
0
LINE
8
Polygon
10
-68.59592609207648
20
-69.29443422019621
11
-68.63804479534305
21
-69.30900327905417
0
LINE
8
Polygon
10
-68.63804479534305
20
-69.30900327905417
11
-68.68077081175535
21
-69.32168121904452
0
LINE
8
Polygon
10
-68.68077081175535
20
-69.32168121904452
11
-68.72401927707773
21
-69.33244285870227
0
LINE
8
Polygon
10
-68.72401927707773
20
-69.33244285870227
11
-68.7677042893642
21
-69.34126682279982
0
LINE
8
Polygon
10
-68.7677042893642
20
-69.34126682279982
11
-68.81173907958059
21
-69.34813558480344
0
LINE
8
Polygon
10
-68.81173907958059
20
-69.34813558480344
11
-68.8560361839489
21
-69.35303550168516
0
LINE
8
Polygon
10
-68.8560361839489
20
-69.35303550168516
11
-68.90050761767155
21
-69.35595684102111
0
LINE
8
Polygon
10
-68.90050761767155
20
-69.35595684102111
11
-68.94506504969058
21
-69.35689380032252
0
LINE
8
Polygon
10
-68.94506504969058
20
-69.35689380032252
11
-68.98961997813457
21
-69.35584451856091
0
LINE
8
Polygon
10
-68.98961997813457
20
-69.35584451856091
11
-69.03408390610477
21
-69.35281107986444
0
LINE
8
Polygon
10
-69.03408390610477
20
-69.35281107986444
11
-69.07836851745147
21
-69.34779950937839
0
LINE
8
Polygon
10
-69.07836851745147
20
-69.34779950937839
11
-69.12238585219124
21
-69.34081976129778
0
LINE
8
Polygon
10
-69.12238585219124
20
-69.34081976129778
11
-69.16604848121695
21
-69.33188569909584
0
LINE
8
Polygon
10
-69.16604848121695
20
-69.33188569909584
11
-69.20926967995297
21
-69.32101506798789
0
LINE
8
Polygon
10
-69.20926967995297
20
-69.32101506798789
11
-69.2519636006114
21
-69.30822945968495
0
LINE
8
Polygon
10
-69.2519636006114
20
-69.30822945968495
11
-69.2940454427065
21
-69.29355426950747
0
LINE
8
Polygon
10
-69.2940454427065
20
-69.29355426950747
11
-69.33543162148914
21
-69.27701864594388
0
LINE
8
Polygon
10
-69.33543162148914
20
-69.27701864594388
11
-69.37603993396624
21
-69.25865543275482
0
LINE
8
Polygon
10
-69.37603993396623
20
-69.25865543275484
11
-69.41578972217599
21
-69.23850110373738
0
LINE
8
Polygon
10
-69.41578972217599
20
-69.23850110373738
11
-69.45460203339408
21
-69.2165956902792
0
LINE
8
Polygon
10
-69.45460203339408
20
-69.2165956902792
11
-69.49239977695301
21
-69.1929827018466
0
LINE
8
Polygon
10
-69.49239977695301
20
-69.1929827018466
11
-69.52910787736275
21
-69.16770903956406
0
LINE
8
Polygon
10
-69.52910787736275
20
-69.16770903956406
11
-69.56465342342902
21
-69.14082490305731
0
LINE
8
Polygon
10
-69.56465342342902
20
-69.14082490305731
11
-69.59896581307255
21
-69.11238369074462
0
LINE
8
Polygon
10
-69.59896581307255
20
-69.11238369074462
11
-69.6319768935619
21
-69.08244189377467
0
LINE
8
Polygon
10
-69.6319768935619
20
-69.08244189377467
11
-69.66362109688137
21
-69.05105898382133
0
LINE
8
Polygon
10
-69.66362109688137
20
-69.05105898382133
11
-69.69383556996502
21
-69.01829729495856
0
LINE
8
Polygon
10
-69.69383556996502
20
-69.01829729495856
11
-69.72256029953802
21
-68.98422189984974
0
LINE
8
Polygon
10
-69.72256029953802
20
-68.98422189984974
11
-69.74973823131764
21
-68.94890048049764
0
LINE
8
Polygon
10
-69.74973823131764
20
-68.94890048049766
11
-69.7753153833369
21
-68.91240319381154
0
LINE
8
Polygon
10
-69.7753153833369
20
-68.91240319381154
11
-69.79924095316584
21
-68.87480253225853
0
LINE
8
Polygon
10
-69.79924095316584
20
-68.87480253225853
11
-69.82146741881743
21
-68.83617317987589
0
LINE
8
Polygon
10
-69.82146741881743
20
-68.83617317987589
11
-69.84195063313786
21
-68.79659186393052
0
LINE
8
Polygon
10
-69.84195063313786
20
-68.79659186393052
11
-69.86064991149341
21
-68.75613720251992
0
LINE
8
Polygon
10
-69.86064991149341
20
-68.75613720251992
11
-69.87752811258005
21
-68.71488954841763
0
LINE
8
Polygon
10
-69.87752811258005
20
-68.71488954841763
11
-69.89255171219511
21
-68.67293082947305
0
LINE
8
Polygon
10
-69.89255171219511
20
-68.67293082947305
11
-69.90569086982441
21
-68.6303443858829
0
LINE
8
Polygon
10
-69.90569086982441
20
-68.6303443858829
11
-69.91691948791278
21
-68.58721480465736
0
LINE
8
Polygon
10
-69.91691948791278
20
-68.58721480465736
11
-69.92621526370017
21
-68.54362775160978
0
LINE
8
Polygon
10
-69.92621526370017
20
-68.54362775160978
11
-69.93355973352037
21
-68.49966980120345
0
LINE
8
Polygon
10
-69.93355973352037
20
-68.49966980120345
11
-69.93893830947422
21
-68.45542826459392
0
LINE
8
Polygon
10
-69.93893830947422
20
-68.45542826459392
11
-69.94234030840481
21
-68.41099101620769
0
LINE
8
Polygon
10
-69.94234030840481
20
-68.41099101620769
11
-69.94375897311681
21
-68.36644631920234
0
LINE
8
Polygon
10
-69.94375897311681
20
-68.36644631920234
11
-69.94319148579787
21
-68.32188265015448
0
LINE
8
Polygon
10
-69.94319148579787
20
-68.32188265015448
11
-69.94063897361552
21
-68.27738852332382
0
LINE
8
Polygon
10
-69.94063897361552
20
-68.27738852332382
11
-69.93610650647828
21
-68.23305231484234
0
LINE
8
Polygon
10
-69.93610650647828
20
-68.23305231484234
11
-69.91277036921352
21
-68.03232997924715
0
LINE
8
Polygon
10
-69.91277036921352
20
-68.03232997924715
11
-69.89281748999005
21
-67.8312431474557
0
LINE
8
Polygon
10
-69.89281748999005
20
-67.8312431474557
11
-69.87625352683912
21
-67.6298488415929
0
LINE
8
Polygon
10
-69.87625352683912
20
-67.62984884159289
11
-69.86308317679813
21
-67.42820417097394
0
LINE
8
Polygon
10
-69.86308317679813
20
-67.42820417097394
11
-69.85331017457878
21
-67.22636631590991
0
LINE
8
Polygon
10
-69.85331017457878
20
-67.22636631590991
11
-69.84693729150804
21
-67.02439251149312
0
LINE
8
Polygon
10
-69.84693729150804
20
-67.02439251149312
11
-69.84396633474218
21
-66.82234003136698
0
LINE
8
Polygon
10
-69.84396633474218
20
-66.82234003136698
11
-69.84439814675441
21
-66.62026617148497
0
LINE
8
Polygon
10
-69.84439814675441
20
-66.62026617148497
11
-69.84823260509596
21
-66.4182282338632
0
LINE
8
Polygon
10
-69.84823260509596
20
-66.4182282338632
11
-69.85546862243075
21
-66.21628351033135
0
LINE
8
Polygon
10
-69.85546862243075
20
-66.21628351033135
11
-69.86610414684381
21
-66.01448926628638
0
LINE
8
Polygon
10
-69.86610414684381
20
-66.01448926628638
11
-69.88013616242309
21
-65.8129027244538
0
LINE
8
Polygon
10
-69.88013616242309
20
-65.8129027244538
11
-69.89756069011463
21
-65.61158104866117
0
LINE
8
Polygon
10
-69.89756069011463
20
-65.61158104866117
11
-69.91837278885103
21
-65.41058132762801
0
LINE
8
Polygon
10
-69.91837278885103
20
-65.41058132762801
11
-69.9425665569525
21
-65.20996055877721
0
LINE
8
Polygon
10
-69.9425665569525
20
-65.20996055877721
11
-69.9701351338004
21
-65.0097756320724
0
LINE
8
Polygon
10
-69.9701351338004
20
-65.0097756320724
11
-70.0010707017827
21
-64.81008331388556
0
LINE
8
Polygon
10
-70.0010707017827
20
-64.81008331388556
11
-70.03536448851085
21
-64.6109402308998
0
LINE
8
Polygon
10
-70.03536448851085
20
-64.6109402308998
11
-70.07300676930736
21
-64.41240285405185
0
LINE
8
Polygon
10
-70.07300676930736
20
-64.41240285405185
11
-70.11398686996337
21
-64.21452748251852
0
LINE
8
Polygon
10
-70.11398686996337
20
-64.21452748251852
11
-70.15829316976561
21
-64.01737022775202
0
LINE
8
Polygon
10
-70.15829316976561
20
-64.01737022775202
11
-70.2059131047916
21
-63.82098699756842
0
LINE
8
Polygon
10
-70.2059131047916
20
-63.82098699756842
11
-70.25683317147251
21
-63.62543348029389
0
LINE
8
Polygon
10
-70.25683317147251
20
-63.62543348029389
11
-70.31103893042221
21
-63.430765128973206
0
LINE
8
Polygon
10
-70.31103893042221
20
-63.430765128973206
11
-70.368515010532
21
-63.237037145644926
0
LINE
8
Polygon
10
-70.368515010532
20
-63.237037145644926
11
-70.42924511332923
21
-63.04430446568779
0
LINE
8
Polygon
10
-70.42924511332923
20
-63.04430446568779
11
-70.49321201759923
21
-62.852621742242654
0
LINE
8
Polygon
10
-70.49321201759923
20
-62.852621742242654
11
-70.56039758426856
21
-62.66204333071461
0
LINE
8
Polygon
10
-70.56039758426856
20
-62.66204333071461
11
-70.6307827615488
21
-62.47262327335938
0
LINE
8
Polygon
10
-70.6307827615488
20
-62.47262327335938
11
-70.70434759033903
21
-62.284415283958595
0
LINE
8
Polygon
10
-70.70434759033903
20
-62.284415283958595
11
-70.78107120988561
21
-62.09747273258813
0
LINE
8
Polygon
10
-70.78107120988561
20
-62.09747273258813
11
-70.86093186369773
21
-61.91184863048409
0
LINE
8
Polygon
10
-70.86093186369773
20
-61.91184863048409
11
-70.94390690571674
21
-61.727595615010344
0
LINE
8
Polygon
10
-70.94390690571674
20
-61.727595615010344
11
-71.02997280673809
21
-61.54476593473218
0
LINE
8
Polygon
10
-71.02997280673809
20
-61.54476593473218
11
-71.11910516108327
21
-61.36341143460024
0
LINE
8
Polygon
10
-71.11910516108327
20
-61.36341143460024
11
-71.21127869352073
21
-61.18358354124875
0
LINE
8
Polygon
10
-71.21127869352073
20
-61.18358354124875
11
-71.30646726643303
21
-61.00533324841268
0
LINE
8
Polygon
10
-71.30646726643303
20
-61.00533324841268
11
-71.40464388722873
21
-60.82871110246727
0
LINE
8
Polygon
10
-71.40464388722873
20
-60.82871110246727
11
-71.50578071599669
21
-60.65376718809472
0
LINE
8
Polygon
10
-71.50578071599669
20
-60.65376718809472
11
-71.60984907340057
21
-60.48055111408169
0
LINE
8
Polygon
10
-71.60984907340057
20
-60.48055111408169
11
-71.71681944881144
21
-60.309111999251705
0
LINE
8
Polygon
10
-71.71681944881144
20
-60.309111999251705
11
-71.8266615086761
21
-60.13949845853661
0
LINE
8
Polygon
10
-71.8266615086761
20
-60.13949845853661
11
-71.93934410511879
21
-59.97175858919077
0
LINE
8
Polygon
10
-71.93934410511879
20
-59.97175858919077
11
-72.05483528477376
21
-59.80593995715222
0
LINE
8
Polygon
10
-72.05483528477376
20
-59.80593995715222
11
-72.1731022978462
21
-59.642089583554394
0
LINE
8
Polygon
10
-72.1731022978462
20
-59.642089583554394
11
-72.29411160739924
21
-59.480253931392326
0
LINE
8
Polygon
10
-72.29411160739924
20
-59.480253931392326
11
-72.41782889886387
21
-59.32047889234716
0
LINE
8
Polygon
10
-72.41782889886387
20
-59.32047889234716
11
-72.5442190897696
21
-59.162809773772715
0
LINE
8
Polygon
10
-72.5442190897696
20
-59.162809773772715
11
-72.59572569200297
21
-59.10008769974122
0
LINE
8
Polygon
10
-72.59572569200297
20
-59.10008769974122
11
-72.6476553254582
21
-59.037715415723035
0
LINE
8
Polygon
10
-72.6476553254582
20
-59.037715415723035
11
-72.70000561471926
21
-58.97569577481209
0
LINE
8
Polygon
10
-72.70000561471926
20
-58.97569577481209
11
-72.7527741651281
21
-58.91403161397136
0
LINE
8
Polygon
10
-72.7527741651281
20
-58.91403161397136
11
-72.80595856289413
21
-58.85272575390316
0
LINE
8
Polygon
10
-72.80595856289413
20
-58.85272575390316
11
-72.8595563752047
21
-58.791780998919975
0
LINE
8
Polygon
10
-72.8595563752047
20
-58.791780998919975
11
-72.91356515033634
21
-58.731200136816334
0
LINE
8
Polygon
10
-72.91356515033634
20
-58.731200136816334
11
-72.96798241776688
21
-58.67098593874118
0
LINE
8
Polygon
10
-72.96798241776688
20
-58.67098593874118
11
-73.02280568828854
21
-58.61114115907121
0
LINE
8
Polygon
10
-73.02280568828854
20
-58.61114115907121
11
-73.07803245412174
21
-58.55166853528475
0
LINE
8
Polygon
10
-73.07803245412174
20
-58.55166853528475
11
-73.1336601890298
21
-58.49257078783666
0
LINE
8
Polygon
10
-73.1336601890298
20
-58.49257078783666
11
-73.18968634843455
21
-58.43385062003384
0
LINE
8
Polygon
10
-73.18968634843453
20
-58.43385062003384
11
-73.24610836953266
21
-58.37551071791152
0
LINE
8
Polygon
10
-73.24610836953266
20
-58.37551071791152
11
-73.30292367141298
21
-58.3175537501105
0
LINE
8
Polygon
10
-73.30292367141298
20
-58.3175537501105
11
-73.36012965517446
21
-58.259982367755015
0
LINE
8
Polygon
10
-73.36012965517446
20
-58.259982367755015
11
-73.41772370404513
21
-58.20279920433147
0
LINE
8
Polygon
10
-73.41772370404512
20
-58.20279920433147
11
-73.47570318350171
21
-58.146006875567956
0
LINE
8
Polygon
10
-73.47570318350171
20
-58.146006875567956
11
-73.53406544139027
21
-58.089607979314664
0
LINE
8
Polygon
10
-73.53406544139027
20
-58.089607979314664
11
-73.59280780804738
21
-58.03360509542498
0
LINE
8
Polygon
10
-73.59280780804738
20
-58.03360509542498
11
-73.65192759642234
21
-57.978000785637526
0
LINE
8
Polygon
10
-73.65192759642234
20
-57.978000785637526
11
-73.71142210220005
21
-57.92279759345894
0
LINE
8
Polygon
10
-73.71142210220005
20
-57.92279759345894
11
-73.77128860392472
21
-57.86799804404757
0
LINE
8
Polygon
10
-73.77128860392472
20
-57.86799804404757
11
-73.83152436312433
21
-57.81360464409791
0
LINE
8
Polygon
10
-73.83152436312433
20
-57.81360464409791
11
-73.892126624436
21
-57.75961988172599
0
LINE
8
Polygon
10
-73.892126624436
20
-57.75961988172599
11
-73.95309261573188
21
-57.70604622635553
0
LINE
8
Polygon
10
-73.95309261573188
20
-57.70604622635553
11
-74.01441954824602
21
-57.65288612860503
0
LINE
8
Polygon
10
-74.01441954824602
20
-57.65288612860503
11
-74.07610461670203
21
-57.60014202017558
0
LINE
8
Polygon
10
-74.07610461670203
20
-57.60014202017558
11
-74.13814499944122
21
-57.547816313739695
0
LINE
8
Polygon
10
-74.13814499944122
20
-57.547816313739695
11
-74.20053785855183
21
-57.49591140283097
0
LINE
8
Polygon
10
-74.20053785855183
20
-57.49591140283097
11
-74.26328033999874
21
-57.44442966173451
0
LINE
8
Polygon
10
-74.26328033999874
20
-57.44442966173451
11
-74.3263695737541
21
-57.3933734453784
0
LINE
8
Polygon
10
-74.3263695737541
20
-57.3933734453784
11
-74.38980267392856
21
-57.34274508922598
0
LINE
8
Polygon
10
-74.38980267392856
20
-57.34274508922598
11
-74.4535767389033
21
-57.29254690916894
0
LINE
8
Polygon
10
-74.4535767389033
20
-57.29254690916894
11
-74.51768885146272
21
-57.24278120142148
0
LINE
8
Polygon
10
-74.51768885146272
20
-57.24278120142148
11
-74.582136078928
21
-57.1934502424152
0
LINE
8
Polygon
10
-74.582136078928
20
-57.1934502424152
11
-74.64691547329106
21
-57.14455628869499
0
LINE
8
Polygon
10
-74.64691547329106
20
-57.14455628869499
11
-74.71202407134963
21
-57.09610157681587
0
LINE
8
Polygon
10
-74.71202407134963
20
-57.09610157681587
11
-74.77745889484257
21
-57.048088323240584
0
LINE
8
Polygon
10
-74.77745889484257
20
-57.048088323240584
11
-74.84321695058632
21
-57.00051872423826
0
LINE
8
Polygon
10
-74.84321695058632
20
-57.00051872423826
11
-74.90929523061165
21
-56.95339495578396
0
LINE
8
Polygon
10
-74.90929523061165
20
-56.95339495578396
11
-74.97569071230133
21
-56.906719173459145
0
LINE
8
Polygon
10
-74.97569071230133
20
-56.906719173459145
11
-75.04240035852841
21
-56.86049351235302
0
LINE
8
Polygon
10
-75.04240035852841
20
-56.86049351235302
11
-75.10942111779507
21
-56.81472008696492
0
LINE
8
Polygon
10
-75.10942111779507
20
-56.81472008696492
11
-75.1767499243723
21
-56.76940099110759
0
LINE
8
Polygon
10
-75.1767499243723
20
-56.76940099110759
11
-75.24438369844006
21
-56.724538297811364
0
LINE
8
Polygon
10
-75.24438369844006
20
-56.724538297811364
11
-75.3123193462282
21
-56.680134059229395
0
LINE
8
Polygon
10
-75.3123193462282
20
-56.680134059229395
11
-75.38055376015797
21
-56.63619030654371
0
LINE
8
Polygon
10
-75.38055376015797
20
-56.63619030654371
11
-75.44908381898415
21
-56.59270904987237
0
LINE
8
Polygon
10
-75.44908381898415
20
-56.59270904987238
11
-75.46457672875255
21
-56.58244207512768
0
LINE
8
Polygon
10
-75.46457672875255
20
-56.58244207512768
11
-75.47957598653326
21
-56.571466498171205
0
LINE
8
Polygon
10
-75.47957598653326
20
-56.571466498171205
11
-75.4940492088328
21
-56.5598060153438
0
LINE
8
Polygon
10
-75.4940492088328
20
-56.5598060153438
11
-75.50796514787163
21
-56.547485801702514
0
LINE
8
Polygon
10
-75.50796514787163
20
-56.547485801702514
11
-75.52129375904838
21
-56.534532456667364
0
LINE
8
Polygon
10
-75.52129375904838
20
-56.534532456667364
11
-75.53400626580618
21
-56.520973946593166
0
LINE
8
Polygon
10
-75.53400626580618
20
-56.520973946593166
11
-75.54607522176171
21
-56.5068395443899
0
LINE
8
Polygon
10
-75.54607522176171
20
-56.5068395443899
11
-75.5574745699618
21
-56.49215976632234
0
LINE
8
Polygon
10
-75.5574745699618
20
-56.49215976632234
11
-75.56817969914079
21
-56.476966306125234
0
LINE
8
Polygon
10
-75.56817969914079
20
-56.476966306125234
11
-75.57816749685628
21
-56.46129196657633
0
LINE
8
Polygon
10
-75.57816749685628
20
-56.46129196657633
11
-75.58741639938916
21
-56.44517058867501
0
LINE
8
Polygon
10
-75.58741639938916
20
-56.44517058867501
11
-75.59590643829964
21
-56.42863697857926
0
LINE
8
Polygon
10
-75.59590643829964
20
-56.42863697857926
11
-75.60361928353943
21
-56.41172683245904
0
LINE
8
Polygon
10
-75.60361928353943
20
-56.41172683245904
11
-75.61053828302633
21
-56.39447665942803
0
LINE
8
Polygon
10
-75.61053828302633
20
-56.39447665942803
11
-75.61664849859616
21
-56.376923702720106
0
LINE
8
Polygon
10
-75.61664849859616
20
-56.376923702720106
11
-75.62193673825445
21
-56.35910585928111
0
LINE
8
Polygon
10
-75.62193673825445
20
-56.35910585928111
11
-75.62639158465792
21
-56.34106159794901
0
LINE
8
Polygon
10
-75.62639158465792
20
-56.34106159794901
11
-75.63000341976472
21
-56.32282987639944
0
LINE
8
Polygon
10
-75.63000341976472
20
-56.32282987639944
11
-75.6327644455997
21
-56.30445005703584
0
LINE
8
Polygon
10
-75.6327644455997
20
-56.30445005703584
11
-75.63466870109048
21
-56.2859618220058
0
LINE
8
Polygon
10
-75.63466870109048
20
-56.2859618220058
11
-75.63571207493723
21
-56.26740508752703
0
LINE
8
Polygon
10
-75.63571207493723
20
-56.26740508752703
11
-75.63589231448915
21
-56.24881991770796
0
LINE
8
Polygon
10
-75.63589231448915
20
-56.24881991770796
11
-75.63520903060792
21
-56.230246438049114
0
LINE
8
Polygon
10
-75.63520903060792
20
-56.230246438049114
11
-75.63366369850777
21
-56.211724748811896
0
LINE
8
Polygon
10
-75.63366369850777
20
-56.211724748811896
11
-75.63125965457064
21
-56.193294838441844
0
LINE
8
Polygon
10
-75.63125965457064
20
-56.193294838441844
11
-75.62800208914273
21
-56.174996497233344
0
LINE
8
Polygon
10
-75.62800208914273
20
-56.174996497233344
11
-75.62389803532864
21
-56.156869231422114
0
LINE
8
Polygon
10
-75.62389803532864
20
-56.156869231422114
11
-75.6189563538068
21
-56.138952177891014
0
LINE
8
Polygon
10
-75.6189563538068
20
-56.138952177891014
11
-75.61318771369926
21
-56.1212840196732
0
LINE
8
Polygon
10
-75.61318771369926
20
-56.1212840196732
11
-75.60660456953688
21
-56.10390290243531
0
LINE
8
Polygon
10
-75.60660456953688
20
-56.10390290243531
11
-75.59922113437004
21
-56.08684635212063
0
LINE
8
Polygon
10
-75.59922113437004
20
-56.08684635212063
11
-75.5910533490825
21
-56.070151193930414
0
LINE
8
Polygon
10
-75.5910533490825
20
-56.070151193930414
11
-75.58211884797491
21
-56.05385347281799
0
LINE
8
Polygon
10
-75.58211884797491
20
-56.05385347281799
11
-75.57243692069235
21
-56.03798837566748
0
LINE
8
Polygon
10
-75.57243692069235
20
-56.03798837566748
11
-75.56202847057774
21
-56.02259015532513
0
LINE
8
Polygon
10
-75.56202847057774
20
-56.02259015532513
11
-75.55091596954146
21
-56.00769205664715
0
LINE
8
Polygon
10
-75.55091596954146
20
-56.00769205664715
11
-75.53912340954435
21
-55.9933262447239
0
LINE
8
Polygon
10
-75.53912340954435
20
-55.9933262447239
11
-75.52667625079886
21
-55.97952373543522
0
LINE
8
Polygon
10
-75.52667625079886
20
-55.97952373543522
11
-75.51360136680034
21
-55.96631432848693
0
LINE
8
Polygon
10
-75.51360136680034
20
-55.96631432848693
11
-75.499926986307
21
-55.95372654307317
0
LINE
8
Polygon
10
-75.499926986307
20
-55.95372654307317
11
-75.48568263239378
21
-55.94178755630313
0
LINE
8
Polygon
10
-75.48568263239378
20
-55.94178755630313
11
-75.47089905871192
21
-55.93052314452566
0
LINE
8
Polygon
10
-75.47089905871192
20
-55.93052314452566
11
-75.45560818309154
21
-55.91995762767781
0
LINE
8
Polygon
10
-75.45560818309154
20
-55.91995762767781
11
-75.43984301863094
21
-55.910113816778065
0
LINE
8
Polygon
10
-75.43984301863094
20
-55.910113816778065
11
-75.42363760242104
21
-55.9010129646771
0
LINE
8
Polygon
10
-75.42363760242104
20
-55.9010129646771
11
-75.40702692205907
21
-55.89267472017285
0
LINE
8
Polygon
10
-75.40702692205907
20
-55.89267472017285
11
-75.39004684011023
21
-55.88511708558852
0
LINE
8
Polygon
10
-75.39004684011023
20
-55.88511708558852
11
-75.37273401668004
21
-55.878356377905526
0
LINE
8
Polygon
10
-75.37273401668004
20
-55.87835637790551
11
-75.19104860050435
21
-55.801892460672974
0
LINE
8
Polygon
10
-75.19104860050435
20
-55.801892460672974
11
-75.01777276738402
21
-55.7079147678627
0
LINE
8
Polygon
10
-75.01777276738402
20
-55.7079147678627
11
-74.85458973267126
21
-55.59733620632647
0
LINE
8
Polygon
10
-74.85458973267126
20
-55.59733620632647
11
-74.70308466946436
21
-55.47123094508745
0
LINE
8
Polygon
10
-74.70308466946436
20
-55.471230945087456
11
-74.56472931010899
21
-55.33082398077609
0
LINE
8
Polygon
10
-74.56472931010899
20
-55.33082398077609
11
-74.44086764967204
21
-55.177479237914504
0
LINE
8
Polygon
10
-74.44086764967204
20
-55.177479237914504
11
-74.33270289026565
21
-55.0126863196442
0
LINE
8
Polygon
10
-74.33270289026565
20
-55.0126863196442
11
-74.24128575304535
21
-54.838046037601565
0
LINE
8
Polygon
10
-74.24128575304535
20
-54.838046037601565
11
-74.16750427142036
21
-54.655254861505156
0
LINE
8
Polygon
10
-74.16750427142036
20
-54.655254861505156
11
-74.11207516462581
21
-54.46608843951266
0
LINE
8
Polygon
10
-74.11207516462581
20
-54.46608843951266
11
-74.0755368754545
21
-54.272384349432144
0
LINE
8
Polygon
10
-74.0755368754545
20
-54.272384349432144
11
-74.0582443397805
21
-54.07602424834374
0
LINE
8
Polygon
10
-74.0582443397805
20
-54.07602424834374
11
-74.06036553868341
21
-53.87891559403171
0
LINE
8
Polygon
10
-74.06036553868341
20
-53.87891559403171
11
-74.08187986666685
21
-53.68297311578642
0
LINE
8
Polygon
10
-74.08187986666685
20
-53.68297311578642
11
-74.12257833182179
21
-53.49010021457031
0
LINE
8
Polygon
10
-74.12257833182179
20
-53.49010021457031
11
-74.18206558599071
21
-53.30217047322816
0
LINE
8
Polygon
10
-74.18206558599071
20
-53.30217047322816
11
-74.25976376521146
21
-53.12100945635293
0
LINE
8
Polygon
10
-74.25976376521146
20
-53.12100945635293
11
-74.35491810313407
21
-52.948376976604784
0
LINE
8
Polygon
10
-74.35491810313407
20
-52.948376976604784
11
-74.4666042628817
21
-52.785949999749604
0
LINE
8
Polygon
10
-74.4666042628817
20
-52.785949999749604
11
-74.59373731613323
21
-52.63530635447895
0
LINE
8
Polygon
10
-74.59373731613323
20
-52.63530635447895
11
-74.73508228220412
21
-52.49790940525553
0
LINE
8
Polygon
10
-74.73508228220412
20
-52.49790940525553
11
-74.88926612474785
21
-52.37509383707325
0
LINE
8
Polygon
10
-74.88926612474785
20
-52.37509383707325
11
-75.05479108954125
21
-52.268052690220145
0
LINE
8
Polygon
10
-75.05479108954125
20
-52.268052690220145
11
-75.23004925378925
21
-52.177825770989195
0
LINE
8
Polygon
10
-75.23004925378925
20
-52.177825770989195
11
-75.41333814561594
21
-52.10528955091653
0
LINE
8
Polygon
10
-75.41333814561594
20
-52.10528955091653
11
-75.60287728201308
21
-52.0511486526666
0
LINE
8
Polygon
10
-75.60287728201308
20
-52.0511486526666
11
-75.79682546459496
21
-52.01592900527101
0
LINE
8
Polygon
10
-75.79682546459496
20
-52.01592900527101
11
-75.99329866514731
21
-51.99997273521174
0
LINE
8
Polygon
10
-75.99329866514731
20
-51.99997273521174
11
-76.19038832722858
21
-52.00343484297698
0
LINE
8
Polygon
10
-76.19038832722858
20
-52.00343484297698
11
-76.38617990604045
21
-52.026281697374
0
LINE
8
Polygon
10
-76.38617990604045
20
-52.026281697374
11
-76.5787714664697
21
-52.068291362225196
0
LINE
8
Polygon
10
-76.5787714664697
20
-52.068291362225196
11
-76.76629215863855
21
-52.12905575227401
0
LINE
8
Polygon
10
-76.76629215863855
20
-52.12905575227401
11
-76.94692039149051
21
-52.20798459735781
0
LINE
8
Polygon
10
-76.94692039149051
20
-52.20798459735781
11
-77.11890152787223
21
-52.30431117633961
0
LINE
8
Polygon
10
-77.11890152787223
20
-52.30431117633961
11
-77.28056492921955
21
-52.417099765098854
0
LINE
8
Polygon
10
-77.28056492921955
20
-52.417099765098854
11
-77.43034018427468
21
-52.54525472623052
0
LINE
8
Polygon
10
-77.43034018427468
20
-52.54525472623052
11
-77.5667723641872
21
-52.687531152154854
0
LINE
8
Polygon
10
-77.5667723641872
20
-52.687531152154854
11
-77.6885361558097
21
-52.84254695824958
0
LINE
8
Polygon
10
-77.6885361558097
20
-52.84254695824958
11
-77.7944487358961
21
-53.008796308530805
0
LINE
8
Polygon
10
-77.7944487358961
20
-53.008796308530805
11
-77.88348126114157
21
-53.18466424346467
0
LINE
8
Polygon
10
-77.88348126114157
20
-53.18466424346465
11
-77.95476886244904
21
-53.36844236781386
0
LINE
8
Polygon
10
-77.95476886244904
20
-53.36844236781386
11
-78.00761904633698
21
-53.55834544612619
0
LINE
8
Polygon
10
-78.00761904633698
20
-53.55834544612619
11
-78.0415184218767
21
-53.75252874465494
0
LINE
8
Polygon
10
-78.0415184218767
20
-53.752528744654924
11
-78.056137687813
21
-53.94910595125063
0
LINE
8
Polygon
10
-78.056137687813
20
-53.94910595125063
11
-78.05133483142309
21
-54.1461674991487
0
LINE
8
Polygon
10
-78.05133483142309
20
-54.1461674991487
11
-78.02715650803944
21
-54.341799116654265
0
LINE
8
Polygon
10
-78.02715650803944
20
-54.341799116654265
11
-77.98383758783626
21
-54.534100422531054
0
LINE
8
Polygon
10
-77.98383758783626
20
-54.534100422531054
11
-77.92179887428175
21
-54.7212033864573
0
LINE
8
Polygon
10
-77.92179887428176
20
-54.72120338645728
11
-77.91549157819429
21
-54.73868649372016
0
LINE
8
Polygon
10
-77.91549157819429
20
-54.73868649372016
11
-77.91000322608134
21
-54.75644371801294
0
LINE
8
Polygon
10
-77.91000322608134
20
-54.75644371801294
11
-77.90534566733022
21
-54.774436721374784
0
LINE
8
Polygon
10
-77.90534566733022
20
-54.774436721374784
11
-77.90152895764008
21
-54.79262665679636
0
LINE
8
Polygon
10
-77.90152895764008
20
-54.79262665679636
11
-77.89856133731155
21
-54.810974252090716
0
LINE
8
Polygon
10
-77.89856133731155
20
-54.810974252090716
11
-77.89644921345588
21
-54.82943989468225
0
LINE
8
Polygon
10
-77.89644921345588
20
-54.82943989468225
11
-77.89519714616202
21
-54.84798371713049
0
LINE
8
Polygon
10
-77.89519714616202
20
-54.84798371713049
11
-77.89480783865123
21
-54.86656568320413
0
LINE
8
Polygon
10
-77.89480783865123
20
-54.86656568320413
11
-77.89528213144096
21
-54.88514567431956
0
LINE
8
Polygon
10
-77.89528213144096
20
-54.88514567431956
11
-77.89661900053002
21
-54.9036835761571
0
LINE
8
Polygon
10
-77.89661900053002
20
-54.9036835761571
11
-77.89881555960949
21
-54.922139365268116
0
LINE
8
Polygon
10
-77.89881555960949
20
-54.922139365268116
11
-77.90186706629426
21
-54.94047319548585
0
LINE
8
Polygon
10
-77.90186706629426
20
-54.94047319548585
11
-77.90576693236191
21
-54.95864548395358
0
LINE
8
Polygon
10
-77.90576693236191
20
-54.95864548395358
11
-77.91050673797662
21
-54.97661699658426
0
LINE
8
Polygon
10
-77.91050673797662
20
-54.97661699658426
11
-77.91607624986776
21
-54.99434893276715
0
LINE
8
Polygon
10
-77.91607624986776
20
-54.99434893276715
11
-77.92246344342352
21
-55.01180300913862
0
LINE
8
Polygon
10
-77.92246344342352
20
-55.01180300913862
11
-77.92965452865218
21
-55.02894154223612
0
LINE
8
Polygon
10
-77.92965452865218
20
-55.02894154223612
11
-77.93763397995471
21
-55.04572752985706
0
LINE
8
Polygon
10
-77.93763397995471
20
-55.04572752985706
11
-77.9463845696447
21
-55.06212473094679
0
LINE
8
Polygon
10
-77.9463845696447
20
-55.06212473094679
11
-77.95588740514306
21
-55.07809774384328
0
LINE
8
Polygon
10
-77.95588740514306
20
-55.07809774384328
11
-77.96612196976714
21
-55.09361208270948
0
LINE
8
Polygon
10
-77.96612196976714
20
-55.09361208270948
11
-77.97706616702644
21
-55.108634251988555
0
LINE
8
Polygon
10
-77.97706616702644
20
-55.108634251988555
11
-77.98869636832909
21
-55.123131818720935
0
LINE
8
Polygon
10
-77.98869636832909
20
-55.123131818720935
11
-78.00098746399607
21
-55.13707348256731
0
LINE
8
Polygon
10
-78.00098746399607
20
-55.13707348256731
11
-78.0139129174732
21
-55.15042914338623
0
LINE
8
Polygon
10
-78.0139129174732
20
-55.15042914338623
11
-78.02744482262376
21
-55.16316996622058
0
LINE
8
Polygon
10
-78.02744482262376
20
-55.16316996622058
11
-78.04155396397795
21
-55.17526844355235
0
LINE
8
Polygon
10
-78.04155396397795
20
-55.17526844355235
11
-78.05620987980934
21
-55.18669845469157
0
LINE
8
Polygon
10
-78.05620987980934
20
-55.18669845469157
11
-78.07138092790191
21
-55.19743532217111
0
LINE
8
Polygon
10
-78.07138092790191
20
-55.19743532217111
11
-78.08703435386576
21
-55.207455865025366
0
LINE
8
Polygon
10
-78.08703435386576
20
-55.207455865025366
11
-78.10313636185413
21
-55.21673844883823
0
LINE
8
Polygon
10
-78.10313636185413
20
-55.21673844883823
11
-78.11965218752871
21
-55.22526303245188
0
LINE
8
Polygon
10
-78.11965218752871
20
-55.22526303245188
11
-78.1365461731163
21
-55.23301121123574
0
LINE
8
Polygon
10
-78.1365461731163
20
-55.23301121123574
11
-78.15378184439388
21
-55.23996625682227
0
LINE
8
Polygon
10
-78.15378184439388
20
-55.23996625682227
11
-78.17132198943695
21
-55.246113153223554
0
LINE
8
Polygon
10
-78.17132198943695
20
-55.246113153223554
11
-78.18912873896014
21
-55.251438629250934
0
LINE
8
Polygon
10
-78.18912873896014
20
-55.251438629250934
11
-78.20716364807733
21
-55.255931187167604
0
LINE
8
Polygon
10
-78.20716364807733
20
-55.255931187167604
11
-78.22538777930436
21
-55.25958112751229
0
LINE
8
Polygon
10
-78.22538777930436
20
-55.25958112751229
11
-78.24376178662534
21
-55.262380570040435
0
LINE
8
Polygon
10
-78.24376178662534
20
-55.262380570040435
11
-78.26224600044092
21
-55.26432347073771
0
LINE
8
Polygon
10
-78.26224600044092
20
-55.26432347073771
11
-78.28080051321525
21
-55.26540563486908
0
LINE
8
Polygon
10
-78.28080051321525
20
-55.26540563486908
11
-78.29938526563654
21
-55.26562472603528
0
LINE
8
Polygon
10
-78.29938526563654
20
-55.26562472603528
11
-78.31796013310544
21
-55.264980271217055
0
LINE
8
Polygon
10
-78.31796013310544
20
-55.264980271217055
11
-78.33648501236426
21
-55.26347366179649
0
LINE
8
Polygon
10
-78.33648501236426
20
-55.26347366179649
11
-78.35491990808018
21
-55.26110815055297
0
LINE
8
Polygon
10
-78.35491990808018
20
-55.26110815055297
11
-78.37322501919542
21
-55.257888844640405
0
LINE
8
Polygon
10
-78.37322501919542
20
-55.257888844640405
11
-78.39136082485798
21
-55.253822694560824
0
LINE
8
Polygon
10
-78.39136082485798
20
-55.253822694560824
11
-78.40928816974743
21
-55.24891847915829
0
LINE
8
Polygon
10
-78.40928816974744
20
-55.24891847915829
11
-78.48713151571033
21
-55.22595324165156
0
LINE
8
Polygon
10
-78.48713151571033
20
-55.22595324165156
11
-78.56512840245577
21
-55.20351500860038
0
LINE
8
Polygon
10
-78.56512840245577
20
-55.20351500860038
11
-78.64327526217396
21
-55.18160480639631
0
LINE
8
Polygon
10
-78.64327526217396
20
-55.18160480639631
11
-78.72156852019495
21
-55.16022363727723
0
LINE
8
Polygon
10
-78.72156852019495
20
-55.16022363727723
11
-78.80000459515205
21
-55.13937247928145
0
LINE
8
Polygon
10
-78.80000459515205
20
-55.13937247928145
11
-78.87857989914569
21
-55.119052286203015
0
LINE
8
Polygon
10
-78.87857989914569
20
-55.119052286203015
11
-78.9572908379076
21
-55.099263987548056
0
LINE
8
Polygon
10
-78.9572908379076
20
-55.099263987548056
11
-79.03613381096514
21
-55.080008488492226
0
LINE
8
Polygon
10
-79.03613381096514
20
-55.080008488492226
11
-79.11510521180601
21
-55.06128666983938
0
LINE
8
Polygon
10
-79.11510521180601
20
-55.06128666983938
11
-79.19420142804327
21
-55.04309938798125
0
LINE
8
Polygon
10
-79.19420142804327
20
-55.04309938798125
11
-79.27341884158055
21
-55.02544747485823
0
LINE
8
Polygon
10
-79.27341884158055
20
-55.02544747485823
11
-79.35275382877755
21
-55.00833173792139
0
LINE
8
Polygon
10
-79.35275382877755
20
-55.00833173792139
11
-79.4322027606158
21
-54.991752960095454
0
LINE
8
Polygon
10
-79.4322027606158
20
-54.991752960095454
11
-79.51176200286466
21
-54.97571189974308
0
LINE
8
Polygon
10
-79.51176200286466
20
-54.97571189974308
11
-79.59142791624755
21
-54.96020929063015
0
LINE
8
Polygon
10
-79.59142791624755
20
-54.96020929063015
11
-79.67119685660846
21
-54.94524584189211
0
LINE
8
Polygon
10
-79.67119685660846
20
-54.94524584189211
11
-79.75106517507862
21
-54.93082223800167
0
LINE
8
Polygon
10
-79.75106517507862
20
-54.93082223800167
11
-79.8310292182434
21
-54.91693913873738
0
LINE
8
Polygon
10
-79.8310292182434
20
-54.91693913873738
11
-79.91108532830941
21
-54.903597179153564
0
LINE
8
Polygon
10
-79.91108532830941
20
-54.903597179153564
11
-79.99122984327191
21
-54.89079696955115
0
LINE
8
Polygon
10
-79.99122984327191
20
-54.89079696955115
11
-80.0714590970822
21
-54.87853909544982
0
LINE
8
Polygon
10
-80.07145909708221
20
-54.87853909544982
11
-80.1517694198154
21
-54.86682411756123
0
LINE
8
Polygon
10
-80.1517694198154
20
-54.86682411756123
11
-80.23215713783827
21
-54.85565257176334
0
LINE
8
Polygon
10
-80.23215713783827
20
-54.85565257176334
11
-80.31261857397732
21
-54.845024969075915
0
LINE
8
Polygon
10
-80.31261857397732
20
-54.845024969075915
11
-80.39315004768693
21
-54.834941795637135
0
LINE
8
Polygon
10
-80.39315004768693
20
-54.834941795637135
11
-80.47374787521781
21
-54.82540351268136
0
LINE
8
Polygon
10
-80.47374787521781
20
-54.82540351268136
11
-80.55440836978536
21
-54.81641055651806
0
LINE
8
Polygon
10
-80.55440836978536
20
-54.81641055651806
11
-80.63512784173851
21
-54.8079633385118
0
LINE
8
Polygon
10
-80.63512784173851
20
-54.8079633385118
11
-80.7159025987283
21
-54.800062245063486
0
LINE
8
Polygon
10
-80.7159025987283
20
-54.800062245063486
11
-80.79672894587692
21
-54.792707637592656
0
LINE
8
Polygon
10
-80.79672894587692
20
-54.792707637592656
11
-80.87760318594665
21
-54.785899852520934
0
LINE
8
Polygon
10
-80.87760318594665
20
-54.785899852520934
11
-80.95852161950903
21
-54.7796392012567
0
LINE
8
Polygon
10
-80.95852161950903
20
-54.7796392012567
11
-81.039480545114
21
-54.77392597018075
0
LINE
8
Polygon
10
-81.039480545114
20
-54.77392597018075
11
-81.12047625945935
21
-54.7687604206333
0
LINE
8
Polygon
10
-81.12047625945935
20
-54.7687604206333
11
-81.20150505755997
21
-54.76414278890195
0
LINE
8
Polygon
10
-81.20150505755997
20
-54.76414278890195
11
-81.28256323291748
21
-54.76007328621092
0
LINE
8
Polygon
10
-81.28256323291748
20
-54.76007328621092
11
-81.36364707768962
21
-54.756552098711396
0
LINE
8
Polygon
10
-81.36364707768962
20
-54.756552098711396
11
-81.44475288285999
21
-54.75357938747295
0
LINE
8
Polygon
10
-81.44475288285999
20
-54.75357938747295
11
-81.5258769384076
21
-54.75115528847626
0
LINE
8
Polygon
10
-81.5258769384076
20
-54.75115528847626
11
-81.6070155334767
21
-54.74927991260683
0
LINE
8
Polygon
10
-81.6070155334767
20
-54.74927991260683
11
-81.68816495654643
21
-54.74795334564991
0
LINE
8
Polygon
10
-81.68816495654643
20
-54.74795334564991
11
-81.7693214956006
21
-54.747175648286664
0
LINE
8
Polygon
10
-81.7693214956006
20
-54.747175648286664
11
-81.85048143829754
21
-54.74694685609125
0
LINE
8
Polygon
10
-81.85048143829754
20
-54.74694685609125
11
-81.93164107213988
21
-54.74726697952932
0
LINE
8
Polygon
10
-81.93164107213988
20
-54.74726697952932
11
-82.0127966846444
21
-54.74813600395747
0
LINE
8
Polygon
10
-82.0127966846444
20
-54.74813600395747
11
-82.09394456351178
21
-54.749553889623925
0
LINE
8
Polygon
10
-82.09394456351178
20
-54.749553889623925
11
-82.17508099679651
21
-54.7515205716704
0
LINE
8
Polygon
10
-82.17508099679651
20
-54.7515205716704
11
-82.25620227307661
21
-54.754035960134985
0
LINE
8
Polygon
10
-82.25620227307661
20
-54.754035960134985
11
-81.43125669029061
21
-78.7398539529707
0
ENDSEC
0
EOF
