0
SECTION
2
ENTITIES
0
LINE
8
Polygon
10
-0.8143125669029061
20
-0.7873985395297071
11
-0.8122936741923147
21
-0.7873120793999157
0
LINE
8
Polygon
10
-0.8122936741923147
20
-0.7873120793999157
11
-0.8102765236261464
21
-0.7871916355361046
0
LINE
8
Polygon
10
-0.8102765236261464
20
-0.7871916355361046
11
-0.8082616872071053
21
-0.7870372420924995
0
LINE
8
Polygon
10
-0.8082616872071053
20
-0.7870372420924995
11
-0.8062497362816734
21
-0.7868489428503971
0
LINE
8
Polygon
10
-0.8062497362816734
20
-0.7868489428503971
11
-0.8042412413780943
21
-0.7866267912057496
0
LINE
8
Polygon
10
-0.8042412413780943
20
-0.7866267912057496
11
-0.8022367720445887
21
-0.786370850154024
0
LINE
8
Polygon
10
-0.8022367720445887
20
-0.786370850154024
11
-0.8002368966878477
21
-0.7860811922723376
0
LINE
8
Polygon
10
-0.8002368966878477
20
-0.7860811922723376
11
-0.7982421824118501
21
-0.7857578996988782
0
LINE
8
Polygon
10
-0.7982421824118501
20
-0.7857578996988782
11
-0.7962531948570486
21
-0.7854010641096114
0
LINE
8
Polygon
10
-0.7962531948570486
20
-0.7854010641096114
11
-0.7942704980399715
21
-0.7850107866922845
0
LINE
8
Polygon
10
-0.7942704980399715
20
-0.7850107866922845
11
-0.792294654193285
21
-0.7845871781177329
0
LINE
8
Polygon
10
-0.7922946541932849
20
-0.7845871781177329
11
-0.7903262236063604
21
-0.7841303585084969
0
LINE
8
Polygon
10
-0.7903262236063604
20
-0.7841303585084969
11
-0.7883657644663938
21
-0.7836404574047584
0
LINE
8
Polygon
10
-0.7883657644663938
20
-0.7836404574047584
11
-0.7864138327001207
21
-0.7831176137276079
0
LINE
8
Polygon
10
-0.7864138327001206
20
-0.7831176137276079
11
-0.7844709818161717
21
-0.7825619757396501
0
LINE
8
Polygon
10
-0.7844709818161717
20
-0.7825619757396501
11
-0.7825377627481154
21
-0.7819737010029615
0
LINE
8
Polygon
10
-0.7825377627481154
20
-0.7819737010029615
11
-0.780614723698229
21
-0.78135295633441
0
LINE
8
Polygon
10
-0.780614723698229
20
-0.78135295633441
11
-0.7787024099820459
21
-0.7806999177583517
0
LINE
8
Polygon
10
-0.7787024099820459
20
-0.7806999177583517
11
-0.7768013638737197
21
-0.7800147704567145
0
LINE
8
Polygon
10
-0.7768013638737197
20
-0.7800147704567145
11
-0.7749121244522527
21
-0.7792977087164872
0
LINE
8
Polygon
10
-0.7749121244522527
20
-0.7792977087164872
11
-0.7730352274486287
21
-0.7785489358746249
0
LINE
8
Polygon
10
-0.7730352274486287
20
-0.7785489358746249
11
-0.7711712050938967
21
-0.7777686642603894
0
LINE
8
Polygon
10
-0.7711712050938967
20
-0.7777686642603894
11
-0.7693205859682453
21
-0.7769571151351384
0
LINE
8
Polygon
10
-0.7693205859682453
20
-0.7769571151351384
11
-0.7674838948511141
21
-0.7761145186295829
0
LINE
8
Polygon
10
-0.767483894851114
20
-0.7761145186295828
11
-0.7656616525723823
21
-0.7752411136785291
0
LINE
8
Polygon
10
-0.7656616525723823
20
-0.7752411136785291
11
-0.7638543758646769
21
-0.7743371479531236
0
LINE
8
Polygon
10
-0.7638543758646767
20
-0.7743371479531236
11
-0.7620625772168423
21
-0.7734028777906216
0
LINE
8
Polygon
10
-0.7620625772168423
20
-0.7734028777906216
11
-0.7602867647286158
21
-0.7724385681216971
0
LINE
8
Polygon
10
-0.7602867647286158
20
-0.7724385681216971
11
-0.7585274419665439
21
-0.7714444923953169
0
LINE
8
Polygon
10
-0.7585274419665439
20
-0.7714444923953169
11
-0.7567851078211874
21
-0.7704209325011985
0
LINE
8
Polygon
10
-0.7567851078211874
20
-0.7704209325011985
11
-0.7550602563656508
21
-0.7693681786898751
0
LINE
8
Polygon
10
-0.7550602563656508
20
-0.7693681786898751
11
-0.7533533767154781
21
-0.7682865294903889
0
LINE
8
Polygon
10
-0.7533533767154781
20
-0.7682865294903889
11
-0.7516649528899545
21
-0.7671762916256378
0
LINE
8
Polygon
10
-0.7516649528899545
20
-0.7671762916256378
11
-0.7499954636748534
21
-0.7660377799253977
0
LINE
8
Polygon
10
-0.7499954636748534
20
-0.7660377799253977
11
-0.7483453824866669
21
-0.7648713172370463
0
LINE
8
Polygon
10
-0.7483453824866669
20
-0.7648713172370463
11
-0.7467151772383597
21
-0.7636772343340138
0
LINE
8
Polygon
10
-0.7467151772383597
20
-0.7636772343340138
11
-0.7451053102066828
21
-0.7624558698219853
0
LINE
8
Polygon
10
-0.7451053102066828
20
-0.7624558698219853
11
-0.743516237901086
21
-0.7612075700428824
0
LINE
8
Polygon
10
-0.743516237901086
20
-0.7612075700428824
11
-0.7419484109342658
21
-0.7599326889766516
0
LINE
8
Polygon
10
-0.7419484109342658
20
-0.7599326889766516
11
-0.740402273894385
21
-0.7586315881408855
0
LINE
8
Polygon
10
-0.740402273894385
20
-0.7586315881408855
11
-0.738878265219001
21
-0.7573046364883083
0
LINE
8
Polygon
10
-0.738878265219001
20
-0.7573046364883083
11
-0.7373768170707389
21
-0.7559522103021514
0
LINE
8
Polygon
10
-0.7373768170707389
20
-0.7559522103021514
11
-0.7358983552147421
21
-0.7545746930894511
0
LINE
8
Polygon
10
-0.7358983552147421
20
-0.7545746930894511
11
-0.7344432988979395
21
-0.7531724754722977
0
LINE
8
Polygon
10
-0.7344432988979395
20
-0.7531724754722977
11
-0.7330120607301586
21
-0.7517459550770668
0
LINE
8
Polygon
10
-0.7330120607301586
20
-0.7517459550770668
11
-0.7316050465671228
21
-0.7502955364216642
0
LINE
8
Polygon
10
-0.7316050465671228
20
-0.7502955364216644
11
-0.7302226553953626
21
-0.748821630800818
0
LINE
8
Polygon
10
-0.7288652792190751
20
-0.7473246561694465
11
-0.7285613624121831
21
-0.7469986824917133
0
LINE
8
Polygon
10
-0.7285613624121831
20
-0.7469986824917133
11
-0.7282432232780782
21
-0.7466865739281694
0
LINE
8
Polygon
10
-0.7282432232780782
20
-0.7466865739281694
11
-0.7279114937182742
21
-0.7463889504021526
0
LINE
8
Polygon
10
-0.7279114937182742
20
-0.7463889504021526
11
-0.7275668326281682
21
-0.746106403066201
0
LINE
8
Polygon
10
-0.7275668326281682
20
-0.746106403066201
11
-0.7272099245883139
21
-0.7458394931278814
0
LINE
8
Polygon
10
-0.7272099245883139
20
-0.7458394931278814
11
-0.726841478504679
21
-0.7455887507350947
0
LINE
8
Polygon
10
-0.726841478504679
20
-0.7455887507350947
11
-0.7264622262005855
21
-0.7453546739230731
0
LINE
8
Polygon
10
-0.7264622262005855
20
-0.7453546739230731
11
-0.7260729209631316
21
-0.745137727625162
0
LINE
8
Polygon
10
-0.7260729209631316
20
-0.745137727625162
11
-0.7256743360469802
21
-0.744938342749349
0
LINE
8
Polygon
10
-0.7256743360469802
20
-0.744938342749349
11
-0.7252672631384877
21
-0.7447569153223764
0
LINE
8
Polygon
10
-0.7252672631384877
20
-0.7447569153223764
11
-0.724852510783223
21
-0.744593805703136
0
LINE
8
Polygon
10
-0.724852510783223
20
-0.744593805703136
11
-0.7244309027799994
21
-0.7444493378669086
0
LINE
8
Polygon
10
-0.7244309027799994
20
-0.7444493378669086
11
-0.7240032765446108
21
-0.7443237987618707
0
LINE
8
Polygon
10
-0.7240032765446108
20
-0.7443237987618707
11
-0.7235704814465201
21
-0.7442174377391458
0
LINE
8
Polygon
10
-0.7235704814465201
20
-0.7442174377391458
11
-0.723133377121806
21
-0.7441304660575327
0
LINE
8
Polygon
10
-0.723133377121806
20
-0.7441304660575327
11
-0.7226928317657167
21
-0.7440630564638939
0
LINE
8
Polygon
10
-0.7226928317657167
20
-0.7440630564638939
11
-0.7222497204082238
21
-0.7440153428500386
0
LINE
8
Polygon
10
-0.7222497204082238
20
-0.7440153428500386
11
-0.721804923176
21
-0.7439874199867813
0
LINE
8
Polygon
10
-0.721804923176
20
-0.7439874199867813
11
-0.7213593235442747
21
-0.7439793433357036
0
LINE
8
Polygon
10
-0.7213593235442747
20
-0.7439793433357036
11
-0.720913806582037
21
-0.7439911289389943
0
LINE
8
Polygon
10
-0.720913806582037
20
-0.7439911289389943
11
-0.7204692571940746
21
-0.7440227533875855
0
LINE
8
Polygon
10
-0.7204692571940746
20
-0.7440227533875855
11
-0.720026558363338
21
-0.7440741538676491
0
LINE
8
Polygon
10
-0.720026558363338
20
-0.7440741538676491
11
-0.7195865893971216
21
-0.7441452282853597
0
LINE
8
Polygon
10
-0.7195865893971216
20
-0.7441452282853597
11
-0.719150224180547
21
-0.7442358354696782
0
LINE
8
Polygon
10
-0.719150224180547
20
-0.7442358354696782
11
-0.7187183294408142
21
-0.7443457954527516
0
LINE
8
Polygon
10
-0.7187183294408142
20
-0.7443457954527515
11
-0.7182917630256715
21
-0.7444748898273725
0
LINE
8
Polygon
10
-0.7182917630256715
20
-0.7444748898273725
11
-0.7178713721995221
21
-0.7446228621807897
0
LINE
8
Polygon
10
-0.7178713721995221
20
-0.7446228621807897
11
-0.7174579919605506
21
-0.7447894186040048
0
LINE
8
Polygon
10
-0.7174579919605506
20
-0.7447894186040048
11
-0.7170524433822144
21
-0.7449742282755482
0
LINE
8
Polygon
10
-0.7170524433822144
20
-0.7449742282755482
11
-0.7166555319823931
21
-0.7451769241185696
0
LINE
8
Polygon
10
-0.7166555319823931
20
-0.7451769241185696
11
-0.7162680461234332
21
-0.7453971035299427
0
LINE
8
Polygon
10
-0.7162680461234332
20
-0.7453971035299427
11
-0.7158907554462709
21
-0.7456343291799318
0
LINE
8
Polygon
10
-0.7158907554462709
20
-0.7456343291799318
11
-0.7155244093417369
21
-0.7458881298808354
0
LINE
8
Polygon
10
-0.7155244093417369
20
-0.7458881298808354
11
-0.7151697354620855
21
-0.7461580015228793
0
LINE
8
Polygon
10
-0.7151697354620855
20
-0.7461580015228793
11
-0.7148274382757001
21
-0.7464434080755002
0
LINE
8
Polygon
10
-0.7148274382757001
20
-0.7464434080755002
11
-0.714498197667848
21
-0.7467437826520334
0
LINE
8
Polygon
10
-0.714498197667848
20
-0.7467437826520334
11
-0.7141826675902636
21
-0.747058528635687
0
LINE
8
Polygon
10
-0.7141826675902636
20
-0.747058528635687
11
-0.7138814747622416
21
-0.747387020864567
0
LINE
8
Polygon
10
-0.7138814747622416
20
-0.747387020864567
11
-0.7135952174258201
21
-0.7477286068734011
0
LINE
8
Polygon
10
-0.7135952174258201
20
-0.7477286068734011
11
-0.713324464157527
21
-0.7480826081894932
0
LINE
8
Polygon
10
-0.713324464157527
20
-0.7480826081894932
11
-0.7130697527390488
21
-0.7484483216803345
0
LINE
8
Polygon
10
-0.7130697527390488
20
-0.7484483216803345
11
-0.7128315890890662
21
-0.7488250209501949
0
LINE
8
Polygon
10
-0.7128315890890662
20
-0.7488250209501949
11
-0.7126104462583761
21
-0.7492119577829218
0
LINE
8
Polygon
10
-0.7126104462583761
20
-0.7492119577829218
11
-0.7124067634902987
21
-0.7496083636280789
0
LINE
8
Polygon
10
-0.7124067634902987
20
-0.7496083636280789
11
-0.7122209453482331
21
-0.7500134511274734
0
LINE
8
Polygon
10
-0.7122209453482331
20
-0.7500134511274734
11
-0.7120533609120965
21
-0.7504264156790407
0
LINE
8
Polygon
10
-0.7120533609120965
20
-0.7504264156790407
11
-0.7119043430452419
21
-0.7508464370349792
0
LINE
8
Polygon
10
-0.7117741877333106
20
-0.751272680930962
11
-0.7101511141442192
21
-0.7560906546264908
0
LINE
8
Polygon
10
-0.7101511141442192
20
-0.7560906546264908
11
-0.7080471711842307
21
-0.7607189007767652
0
LINE
8
Polygon
10
-0.7080471711842307
20
-0.7607189007767652
11
-0.7054841112994573
21
-0.765109568429125
0
LINE
8
Polygon
10
-0.7054841112994573
20
-0.765109568429125
11
-0.7024884336978557
21
-0.769217262930141
0
LINE
8
Polygon
10
-0.7024884336978557
20
-0.769217262930141
11
-0.6990911103766888
21
-0.7729995152561856
0
LINE
8
Polygon
10
-0.6990911103766888
20
-0.7729995152561856
11
-0.695327265906287
21
-0.7764172210962251
0
LINE
8
Polygon
10
-0.695327265906287
20
-0.7764172210962251
11
-0.6912358142807906
21
-0.7794350451471992
0
LINE
8
Polygon
10
-0.6912358142807906
20
-0.7794350451471992
11
-0.6868590565904369
21
-0.7820217864420222
0
LINE
8
Polygon
10
-0.6868590565904369
20
-0.7820217864420222
11
-0.6822422436750134
21
-0.7841507009331172
0
LINE
8
Polygon
10
-0.6822422436750134
20
-0.7841507009331172
11
-0.6774331082801616
21
-0.7857997779963246
0
LINE
8
Polygon
10
-0.6774331082801616
20
-0.7857997779963246
11
-0.6724813715535128
21
-0.7869519679964432
0
LINE
8
Polygon
10
-0.6724813715535128
20
-0.7869519679964432
11
-0.6674382289829474
21
-0.787595358561624
0
LINE
8
Polygon
10
-0.6674382289829474
20
-0.787595358561624
11
-0.6623558210918005
21
-0.7877232977441363
0
LINE
8
Polygon
10
-0.6623558210918005
20
-0.7877232977441363
11
-0.6572866943634487
21
-0.7873344627941594
0
LINE
8
Polygon
10
-0.6572866943634487
20
-0.7873344627941594
11
-0.6522832579687159
21
-0.7864328738355544
0
LINE
8
Polygon
10
-0.6522832579687159
20
-0.7864328738355544
11
-0.6473972419129408
21
-0.7850278523022242
0
LINE
8
Polygon
10
-0.6473972419129408
20
-0.7850278523022242
11
-0.6426791622048635
21
-0.7831339245647843
0
LINE
8
Polygon
10
-0.6426791622048635
20
-0.7831339245647843
11
-0.6381777985768984
21
-0.7807706717439361
0
LINE
8
Polygon
10
-0.6381777985768984
20
-0.7807706717439361
11
-0.6339396901565837
21
-0.7779625272633099
0
LINE
8
Polygon
10
-0.6339396901565837
20
-0.7779625272633099
11
-0.6300086543034121
21
-0.7747385242348537
0
LINE
8
Polygon
10
-0.6300086543034121
20
-0.7747385242348537
11
-0.6264253335857364
21
-0.7711319952885274
0
LINE
8
Polygon
10
-0.6264253335857364
20
-0.7711319952885274
11
-0.623226775581507
21
-0.767180227949729
0
LINE
8
Polygon
10
-0.623226775581507
20
-0.767180227949729
11
-0.6204460498472405
21
-0.7629240791274716
0
LINE
8
Polygon
10
-0.6204460498472405
20
-0.7629240791274716
11
-0.6181119060153358
21
-0.758407552699076
0
LINE
8
Polygon
10
-0.6181119060153358
20
-0.758407552699076
11
-0.616248476554632
21
-0.7536773445586878
0
LINE
8
Polygon
10
-0.616248476554632
20
-0.7536773445586878
11
-0.6148750272673388
21
-0.7487823598333134
0
LINE
8
Polygon
10
-0.6148750272673388
20
-0.7487823598333134
11
-0.6140057581019234
21
-0.74377320725783
0
LINE
8
Polygon
10
-0.6140057581019234
20
-0.74377320725783
11
-0.613649656341329
21
-0.7387016759365705
0
LINE
8
Polygon
10
-0.613649656341329
20
-0.7387016759365705
11
-0.6138104036843965
21
-0.7336201999011935
0
LINE
8
Polygon
10
-0.6138104036843965
20
-0.7336201999011935
11
-0.6144863381811665
21
-0.7285813160007161
0
LINE
8
Polygon
10
-0.6144863381811665
20
-0.7285813160007161
11
-0.6156704714156046
21
-0.7236371207285295
0
LINE
8
Polygon
10
-0.6156704714156046
20
-0.7236371207285295
11
-0.6173505607581049
21
-0.7188387316022047
0
LINE
8
Polygon
10
-0.6173505607581049
20
-0.7188387316022047
11
-0.6195092359407554
21
-0.7142357586648279
0
LINE
8
Polygon
10
-0.6195092359407554
20
-0.7142357586648279
11
-0.6221241786467209
21
-0.7098757915719554
0
LINE
8
Polygon
10
-0.6221241786467209
20
-0.7098757915719554
11
-0.6251683532569853
21
-0.7058039075671443
0
LINE
8
Polygon
10
-0.6251683532569853
20
-0.7058039075671443
11
-0.6286102863687878
21
-0.7020622054330492
0
LINE
8
Polygon
10
-0.6286102863687878
20
-0.7020622054330492
11
-0.6324143921958404
21
-0.6986893702365122
0
LINE
8
Polygon
10
-0.6324143921958404
20
-0.6986893702365122
11
-0.6365413404860492
21
-0.6957202733677056
0
LINE
8
Polygon
10
-0.6365413404860492
20
-0.6957202733677056
11
-0.6409484631528748
21
-0.6931856120084772
0
LINE
8
Polygon
10
-0.6409484631528748
20
-0.6931856120084772
11
-0.6455901954162151
21
-0.6911115917573996
0
LINE
8
Polygon
10
-0.6455901954162151
20
-0.6911115917573996
11
-0.6504185468918984
21
-0.6895196556928287
0
LINE
8
Polygon
10
-0.6504185468918984
20
-0.6895196556928287
11
-0.6553835977592437
21
-0.6884262626751598
0
LINE
8
Polygon
10
-0.6553835977592437
20
-0.6884262626751598
11
-0.660434014876864
21
-0.6878427171803928
0
LINE
8
Polygon
10
-0.660434014876864
20
-0.6878427171803928
11
-0.6655175825106426
21
-0.6877750524243375
0
LINE
8
Polygon
10
-0.6655175825106426
20
-0.6877750524243375
11
-0.6705817421867456
21
-0.6882239679858263
0
LINE
8
Polygon
10
-0.6705817421867456
20
-0.6882239679858263
11
-0.6755741360881824
21
-0.6891848225738425
0
LINE
8
Polygon
10
-0.6755741360881824
20
-0.6891848225738425
11
-0.6804431483767972
21
-0.6906476820133418
0
LINE
8
Polygon
10
-0.6851384388440189
20
-0.6925974219536493
11
-0.6855449835992006
21
-0.6927800298015659
0
LINE
8
Polygon
10
-0.6855449835992006
20
-0.6927800298015659
11
-0.6859592609207648
21
-0.6929443422019621
0
LINE
8
Polygon
10
-0.6859592609207648
20
-0.6929443422019621
11
-0.6863804479534305
21
-0.6930900327905416
0
LINE
8
Polygon
10
-0.6863804479534305
20
-0.6930900327905416
11
-0.6868077081175535
21
-0.6932168121904452
0
LINE
8
Polygon
10
-0.6868077081175535
20
-0.6932168121904452
11
-0.6872401927707773
21
-0.6933244285870226
0
LINE
8
Polygon
10
-0.6872401927707773
20
-0.6933244285870226
11
-0.6876770428936421
21
-0.6934126682279982
0
LINE
8
Polygon
10
-0.6876770428936421
20
-0.6934126682279982
11
-0.6881173907958059
21
-0.6934813558480344
0
LINE
8
Polygon
10
-0.6881173907958059
20
-0.6934813558480344
11
-0.688560361839489
21
-0.6935303550168516
0
LINE
8
Polygon
10
-0.688560361839489
20
-0.6935303550168516
11
-0.6890050761767155
21
-0.693559568410211
0
LINE
8
Polygon
10
-0.6890050761767155
20
-0.693559568410211
11
-0.6894506504969059
21
-0.6935689380032253
0
LINE
8
Polygon
10
-0.6894506504969059
20
-0.6935689380032253
11
-0.6898961997813458
21
-0.6935584451856092
0
LINE
8
Polygon
10
-0.6898961997813458
20
-0.6935584451856092
11
-0.6903408390610477
21
-0.6935281107986444
0
LINE
8
Polygon
10
-0.6903408390610477
20
-0.6935281107986444
11
-0.6907836851745146
21
-0.6934779950937839
0
LINE
8
Polygon
10
-0.6907836851745146
20
-0.6934779950937839
11
-0.6912238585219125
21
-0.6934081976129778
0
LINE
8
Polygon
10
-0.6912238585219125
20
-0.6934081976129778
11
-0.6916604848121695
21
-0.6933188569909584
0
LINE
8
Polygon
10
-0.6916604848121695
20
-0.6933188569909584
11
-0.6920926967995297
21
-0.6932101506798789
0
LINE
8
Polygon
10
-0.6920926967995297
20
-0.6932101506798789
11
-0.692519636006114
21
-0.6930822945968496
0
LINE
8
Polygon
10
-0.692519636006114
20
-0.6930822945968496
11
-0.6929404544270651
21
-0.6929355426950746
0
LINE
8
Polygon
10
-0.6929404544270651
20
-0.6929355426950746
11
-0.6933543162148914
21
-0.6927701864594388
0
LINE
8
Polygon
10
-0.6933543162148914
20
-0.6927701864594388
11
-0.6937603993396624
21
-0.6925865543275482
0
LINE
8
Polygon
10
-0.6937603993396623
20
-0.6925865543275483
11
-0.6941578972217598
21
-0.6923850110373737
0
LINE
8
Polygon
10
-0.6941578972217598
20
-0.6923850110373737
11
-0.6945460203339409
21
-0.692165956902792
0
LINE
8
Polygon
10
-0.6945460203339409
20
-0.692165956902792
11
-0.6949239977695301
21
-0.6919298270184661
0
LINE
8
Polygon
10
-0.6949239977695301
20
-0.6919298270184661
11
-0.6952910787736275
21
-0.6916770903956406
0
LINE
8
Polygon
10
-0.6952910787736275
20
-0.6916770903956406
11
-0.6956465342342902
21
-0.6914082490305731
0
LINE
8
Polygon
10
-0.6956465342342902
20
-0.6914082490305731
11
-0.6959896581307256
21
-0.6911238369074463
0
LINE
8
Polygon
10
-0.6959896581307256
20
-0.6911238369074463
11
-0.696319768935619
21
-0.6908244189377467
0
LINE
8
Polygon
10
-0.696319768935619
20
-0.6908244189377467
11
-0.6966362109688138
21
-0.6905105898382133
0
LINE
8
Polygon
10
-0.6966362109688138
20
-0.6905105898382133
11
-0.6969383556996501
21
-0.6901829729495855
0
LINE
8
Polygon
10
-0.6969383556996501
20
-0.6901829729495855
11
-0.6972256029953802
21
-0.6898422189984974
0
LINE
8
Polygon
10
-0.6972256029953802
20
-0.6898422189984974
11
-0.6974973823131764
21
-0.6894890048049764
0
LINE
8
Polygon
10
-0.6974973823131764
20
-0.6894890048049765
11
-0.697753153833369
21
-0.6891240319381154
0
LINE
8
Polygon
10
-0.697753153833369
20
-0.6891240319381154
11
-0.6979924095316583
21
-0.6887480253225853
0
LINE
8
Polygon
10
-0.6979924095316583
20
-0.6887480253225853
11
-0.6982146741881743
21
-0.6883617317987588
0
LINE
8
Polygon
10
-0.6982146741881743
20
-0.6883617317987588
11
-0.6984195063313785
21
-0.6879659186393051
0
LINE
8
Polygon
10
-0.6984195063313785
20
-0.6879659186393051
11
-0.6986064991149341
21
-0.6875613720251992
0
LINE
8
Polygon
10
-0.6986064991149341
20
-0.6875613720251992
11
-0.6987752811258006
21
-0.6871488954841762
0
LINE
8
Polygon
10
-0.6987752811258006
20
-0.6871488954841762
11
-0.6989255171219512
21
-0.6867293082947304
0
LINE
8
Polygon
10
-0.6989255171219512
20
-0.6867293082947304
11
-0.6990569086982441
21
-0.686303443858829
0
LINE
8
Polygon
10
-0.6990569086982441
20
-0.686303443858829
11
-0.6991691948791278
21
-0.6858721480465737
0
LINE
8
Polygon
10
-0.6991691948791278
20
-0.6858721480465737
11
-0.6992621526370018
21
-0.6854362775160977
0
LINE
8
Polygon
10
-0.6992621526370018
20
-0.6854362775160977
11
-0.6993355973352037
21
-0.6849966980120346
0
LINE
8
Polygon
10
-0.6993355973352037
20
-0.6849966980120346
11
-0.6993893830947422
21
-0.6845542826459392
0
LINE
8
Polygon
10
-0.6993893830947422
20
-0.6845542826459392
11
-0.699423403084048
21
-0.6841099101620769
0
LINE
8
Polygon
10
-0.699423403084048
20
-0.6841099101620769
11
-0.6994375897311681
21
-0.6836644631920233
0
LINE
8
Polygon
10
-0.6994375897311681
20
-0.6836644631920233
11
-0.6994319148579787
21
-0.6832188265015448
0
LINE
8
Polygon
10
-0.6994319148579787
20
-0.6832188265015448
11
-0.6994063897361552
21
-0.6827738852332382
0
LINE
8
Polygon
10
-0.6993610650647828
20
-0.6823305231484234
11
-0.6991277036921352
21
-0.6803232997924715
0
LINE
8
Polygon
10
-0.6991277036921352
20
-0.6803232997924715
11
-0.6989281748999006
21
-0.678312431474557
0
LINE
8
Polygon
10
-0.6989281748999006
20
-0.678312431474557
11
-0.6987625352683912
21
-0.676298488415929
0
LINE
8
Polygon
10
-0.6987625352683912
20
-0.6762984884159289
11
-0.6986308317679812
21
-0.6742820417097394
0
LINE
8
Polygon
10
-0.6986308317679812
20
-0.6742820417097394
11
-0.6985331017457879
21
-0.6722636631590991
0
LINE
8
Polygon
10
-0.6985331017457879
20
-0.6722636631590991
11
-0.6984693729150804
21
-0.6702439251149311
0
LINE
8
Polygon
10
-0.6984693729150804
20
-0.6702439251149311
11
-0.6984396633474218
21
-0.6682234003136698
0
LINE
8
Polygon
10
-0.6984396633474218
20
-0.6682234003136698
11
-0.6984439814675442
21
-0.6662026617148497
0
LINE
8
Polygon
10
-0.6984439814675442
20
-0.6662026617148497
11
-0.6984823260509596
21
-0.6641822823386321
0
LINE
8
Polygon
10
-0.6984823260509596
20
-0.6641822823386321
11
-0.6985546862243075
21
-0.6621628351033135
0
LINE
8
Polygon
10
-0.6985546862243075
20
-0.6621628351033135
11
-0.6986610414684381
21
-0.6601448926628637
0
LINE
8
Polygon
10
-0.6986610414684381
20
-0.6601448926628637
11
-0.6988013616242308
21
-0.658129027244538
0
LINE
8
Polygon
10
-0.6988013616242308
20
-0.658129027244538
11
-0.6989756069011462
21
-0.6561158104866117
0
LINE
8
Polygon
10
-0.6989756069011462
20
-0.6561158104866117
11
-0.6991837278885104
21
-0.65410581327628
0
LINE
8
Polygon
10
-0.6991837278885104
20
-0.65410581327628
11
-0.699425665569525
21
-0.6520996055877721
0
LINE
8
Polygon
10
-0.699425665569525
20
-0.6520996055877721
11
-0.699701351338004
21
-0.6500977563207241
0
LINE
8
Polygon
10
-0.699701351338004
20
-0.6500977563207241
11
-0.700010707017827
21
-0.6481008331388556
0
LINE
8
Polygon
10
-0.700010707017827
20
-0.6481008331388556
11
-0.7003536448851085
21
-0.6461094023089979
0
LINE
8
Polygon
10
-0.7003536448851085
20
-0.6461094023089979
11
-0.7007300676930736
21
-0.6441240285405185
0
LINE
8
Polygon
10
-0.7007300676930736
20
-0.6441240285405185
11
-0.7011398686996337
21
-0.6421452748251852
0
LINE
8
Polygon
10
-0.7011398686996337
20
-0.6421452748251852
11
-0.7015829316976561
21
-0.6401737022775202
0
LINE
8
Polygon
10
-0.7015829316976561
20
-0.6401737022775202
11
-0.7020591310479161
21
-0.6382098699756842
0
LINE
8
Polygon
10
-0.7020591310479161
20
-0.6382098699756842
11
-0.7025683317147251
21
-0.6362543348029389
0
LINE
8
Polygon
10
-0.7025683317147251
20
-0.6362543348029389
11
-0.7031103893042222
21
-0.6343076512897321
0
LINE
8
Polygon
10
-0.7031103893042222
20
-0.6343076512897321
11
-0.70368515010532
21
-0.6323703714564493
0
LINE
8
Polygon
10
-0.70368515010532
20
-0.6323703714564493
11
-0.7042924511332923
21
-0.6304430446568778
0
LINE
8
Polygon
10
-0.7042924511332923
20
-0.6304430446568778
11
-0.7049321201759923
21
-0.6285262174224265
0
LINE
8
Polygon
10
-0.7049321201759923
20
-0.6285262174224265
11
-0.7056039758426855
21
-0.6266204333071461
0
LINE
8
Polygon
10
-0.7056039758426855
20
-0.6266204333071461
11
-0.7063078276154879
21
-0.6247262327335938
0
LINE
8
Polygon
10
-0.7063078276154879
20
-0.6247262327335938
11
-0.7070434759033902
21
-0.6228441528395859
0
LINE
8
Polygon
10
-0.7070434759033902
20
-0.6228441528395859
11
-0.7078107120988562
21
-0.6209747273258813
0
LINE
8
Polygon
10
-0.7078107120988562
20
-0.6209747273258813
11
-0.7086093186369773
21
-0.6191184863048409
0
LINE
8
Polygon
10
-0.7086093186369773
20
-0.6191184863048409
11
-0.7094390690571675
21
-0.6172759561501034
0
LINE
8
Polygon
10
-0.7094390690571675
20
-0.6172759561501034
11
-0.7102997280673808
21
-0.6154476593473218
0
LINE
8
Polygon
10
-0.7102997280673808
20
-0.6154476593473218
11
-0.7111910516108326
21
-0.6136341143460023
0
LINE
8
Polygon
10
-0.7111910516108326
20
-0.6136341143460023
11
-0.7121127869352072
21
-0.6118358354124875
0
LINE
8
Polygon
10
-0.7121127869352072
20
-0.6118358354124875
11
-0.7130646726643303
21
-0.6100533324841269
0
LINE
8
Polygon
10
-0.7130646726643303
20
-0.6100533324841269
11
-0.7140464388722874
21
-0.6082871110246727
0
LINE
8
Polygon
10
-0.7140464388722874
20
-0.6082871110246727
11
-0.7150578071599669
21
-0.6065376718809472
0
LINE
8
Polygon
10
-0.7150578071599669
20
-0.6065376718809472
11
-0.7160984907340057
21
-0.6048055111408169
0
LINE
8
Polygon
10
-0.7160984907340057
20
-0.6048055111408169
11
-0.7171681944881143
21
-0.6030911199925171
0
LINE
8
Polygon
10
-0.7171681944881143
20
-0.6030911199925171
11
-0.7182666150867609
21
-0.6013949845853661
0
LINE
8
Polygon
10
-0.7182666150867609
20
-0.6013949845853661
11
-0.719393441051188
21
-0.5997175858919077
0
LINE
8
Polygon
10
-0.719393441051188
20
-0.5997175858919077
11
-0.7205483528477375
21
-0.5980593995715222
0
LINE
8
Polygon
10
-0.7205483528477375
20
-0.5980593995715222
11
-0.721731022978462
21
-0.5964208958355439
0
LINE
8
Polygon
10
-0.721731022978462
20
-0.5964208958355439
11
-0.7229411160739925
21
-0.5948025393139232
0
LINE
8
Polygon
10
-0.7229411160739925
20
-0.5948025393139232
11
-0.7241782889886388
21
-0.5932047889234716
0
LINE
8
Polygon
10
-0.725442190897696
20
-0.5916280977377272
11
-0.7259572569200298
21
-0.5910008769974122
0
LINE
8
Polygon
10
-0.7259572569200298
20
-0.5910008769974122
11
-0.726476553254582
21
-0.5903771541572304
0
LINE
8
Polygon
10
-0.726476553254582
20
-0.5903771541572304
11
-0.7270000561471925
21
-0.5897569577481209
0
LINE
8
Polygon
10
-0.7270000561471925
20
-0.5897569577481209
11
-0.727527741651281
21
-0.5891403161397136
0
LINE
8
Polygon
10
-0.727527741651281
20
-0.5891403161397136
11
-0.7280595856289414
21
-0.5885272575390316
0
LINE
8
Polygon
10
-0.7280595856289414
20
-0.5885272575390316
11
-0.728595563752047
21
-0.5879178099891997
0
LINE
8
Polygon
10
-0.728595563752047
20
-0.5879178099891997
11
-0.7291356515033633
21
-0.5873120013681633
0
LINE
8
Polygon
10
-0.7291356515033633
20
-0.5873120013681633
11
-0.7296798241776687
21
-0.5867098593874118
0
LINE
8
Polygon
10
-0.7296798241776687
20
-0.5867098593874118
11
-0.7302280568828854
21
-0.5861114115907121
0
LINE
8
Polygon
10
-0.7302280568828854
20
-0.5861114115907121
11
-0.7307803245412173
21
-0.5855166853528475
0
LINE
8
Polygon
10
-0.7307803245412173
20
-0.5855166853528475
11
-0.7313366018902979
21
-0.5849257078783666
0
LINE
8
Polygon
10
-0.7313366018902979
20
-0.5849257078783666
11
-0.7318968634843455
21
-0.5843385062003383
0
LINE
8
Polygon
10
-0.7318968634843454
20
-0.5843385062003383
11
-0.7324610836953267
21
-0.5837551071791152
0
LINE
8
Polygon
10
-0.7324610836953267
20
-0.5837551071791152
11
-0.7330292367141299
21
-0.583175537501105
0
LINE
8
Polygon
10
-0.7330292367141299
20
-0.583175537501105
11
-0.7336012965517447
21
-0.5825998236775501
0
LINE
8
Polygon
10
-0.7336012965517447
20
-0.5825998236775501
11
-0.7341772370404512
21
-0.5820279920433147
0
LINE
8
Polygon
10
-0.7341772370404511
20
-0.5820279920433147
11
-0.7347570318350171
21
-0.5814600687556796
0
LINE
8
Polygon
10
-0.7347570318350171
20
-0.5814600687556796
11
-0.7353406544139026
21
-0.5808960797931466
0
LINE
8
Polygon
10
-0.7353406544139026
20
-0.5808960797931466
11
-0.7359280780804738
21
-0.5803360509542498
0
LINE
8
Polygon
10
-0.7359280780804738
20
-0.5803360509542498
11
-0.7365192759642234
21
-0.5797800078563753
0
LINE
8
Polygon
10
-0.7365192759642234
20
-0.5797800078563753
11
-0.7371142210220004
21
-0.5792279759345894
0
LINE
8
Polygon
10
-0.7371142210220004
20
-0.5792279759345894
11
-0.7377128860392471
21
-0.5786799804404756
0
LINE
8
Polygon
10
-0.7377128860392471
20
-0.5786799804404756
11
-0.7383152436312433
21
-0.578136046440979
0
LINE
8
Polygon
10
-0.7383152436312433
20
-0.578136046440979
11
-0.73892126624436
21
-0.5775961988172599
0
LINE
8
Polygon
10
-0.73892126624436
20
-0.5775961988172599
11
-0.7395309261573187
21
-0.5770604622635553
0
LINE
8
Polygon
10
-0.7395309261573187
20
-0.5770604622635553
11
-0.7401441954824602
21
-0.5765288612860503
0
LINE
8
Polygon
10
-0.7401441954824602
20
-0.5765288612860503
11
-0.7407610461670203
21
-0.5760014202017558
0
LINE
8
Polygon
10
-0.7407610461670203
20
-0.5760014202017558
11
-0.7413814499944122
21
-0.575478163137397
0
LINE
8
Polygon
10
-0.7413814499944122
20
-0.575478163137397
11
-0.7420053785855183
21
-0.5749591140283097
0
LINE
8
Polygon
10
-0.7420053785855183
20
-0.5749591140283097
11
-0.7426328033999874
21
-0.5744442966173451
0
LINE
8
Polygon
10
-0.7426328033999874
20
-0.5744442966173451
11
-0.743263695737541
21
-0.573933734453784
0
LINE
8
Polygon
10
-0.743263695737541
20
-0.573933734453784
11
-0.7438980267392856
21
-0.5734274508922598
0
LINE
8
Polygon
10
-0.7438980267392856
20
-0.5734274508922598
11
-0.7445357673890329
21
-0.5729254690916894
0
LINE
8
Polygon
10
-0.7445357673890329
20
-0.5729254690916894
11
-0.7451768885146273
21
-0.5724278120142148
0
LINE
8
Polygon
10
-0.7451768885146273
20
-0.5724278120142148
11
-0.74582136078928
21
-0.571934502424152
0
LINE
8
Polygon
10
-0.74582136078928
20
-0.571934502424152
11
-0.7464691547329106
21
-0.5714455628869499
0
LINE
8
Polygon
10
-0.7464691547329106
20
-0.5714455628869499
11
-0.7471202407134963
21
-0.5709610157681587
0
LINE
8
Polygon
10
-0.7471202407134963
20
-0.5709610157681587
11
-0.7477745889484257
21
-0.5704808832324059
0
LINE
8
Polygon
10
-0.7477745889484257
20
-0.5704808832324059
11
-0.7484321695058632
21
-0.5700051872423826
0
LINE
8
Polygon
10
-0.7484321695058632
20
-0.5700051872423826
11
-0.7490929523061165
21
-0.5695339495578396
0
LINE
8
Polygon
10
-0.7490929523061165
20
-0.5695339495578396
11
-0.7497569071230133
21
-0.5690671917345914
0
LINE
8
Polygon
10
-0.7497569071230133
20
-0.5690671917345914
11
-0.750424003585284
21
-0.5686049351235302
0
LINE
8
Polygon
10
-0.750424003585284
20
-0.5686049351235302
11
-0.7510942111779507
21
-0.5681472008696492
0
LINE
8
Polygon
10
-0.7510942111779507
20
-0.5681472008696492
11
-0.751767499243723
21
-0.5676940099110759
0
LINE
8
Polygon
10
-0.751767499243723
20
-0.5676940099110759
11
-0.7524438369844006
21
-0.5672453829781137
0
LINE
8
Polygon
10
-0.7524438369844005
20
-0.5672453829781137
11
-0.753123193462282
21
-0.5668013405922939
0
LINE
8
Polygon
10
-0.753123193462282
20
-0.5668013405922939
11
-0.7538055376015796
21
-0.5663619030654371
0
LINE
8
Polygon
10
-0.7544908381898415
20
-0.5659270904987238
11
-0.7546457672875255
21
-0.5658244207512768
0
LINE
8
Polygon
10
-0.7546457672875255
20
-0.5658244207512768
11
-0.7547957598653326
21
-0.5657146649817121
0
LINE
8
Polygon
10
-0.7547957598653326
20
-0.5657146649817121
11
-0.754940492088328
21
-0.565598060153438
0
LINE
8
Polygon
10
-0.754940492088328
20
-0.565598060153438
11
-0.7550796514787164
21
-0.5654748580170251
0
LINE
8
Polygon
10
-0.7550796514787164
20
-0.5654748580170251
11
-0.7552129375904837
21
-0.5653453245666736
0
LINE
8
Polygon
10
-0.7552129375904837
20
-0.5653453245666736
11
-0.7553400626580619
21
-0.5652097394659317
0
LINE
8
Polygon
10
-0.7553400626580619
20
-0.5652097394659317
11
-0.7554607522176171
21
-0.565068395443899
0
LINE
8
Polygon
10
-0.7554607522176171
20
-0.565068395443899
11
-0.755574745699618
21
-0.5649215976632234
0
LINE
8
Polygon
10
-0.755574745699618
20
-0.5649215976632234
11
-0.7556817969914078
21
-0.5647696630612523
0
LINE
8
Polygon
10
-0.7556817969914078
20
-0.5647696630612523
11
-0.7557816749685629
21
-0.5646129196657633
0
LINE
8
Polygon
10
-0.7557816749685629
20
-0.5646129196657633
11
-0.7558741639938915
21
-0.5644517058867501
0
LINE
8
Polygon
10
-0.7558741639938915
20
-0.5644517058867501
11
-0.7559590643829963
21
-0.5642863697857926
0
LINE
8
Polygon
10
-0.7559590643829963
20
-0.5642863697857926
11
-0.7560361928353944
21
-0.5641172683245904
0
LINE
8
Polygon
10
-0.7560361928353944
20
-0.5641172683245904
11
-0.7561053828302633
21
-0.5639447665942803
0
LINE
8
Polygon
10
-0.7561053828302633
20
-0.5639447665942803
11
-0.7561664849859616
21
-0.563769237027201
0
LINE
8
Polygon
10
-0.7561664849859616
20
-0.563769237027201
11
-0.7562193673825445
21
-0.5635910585928111
0
LINE
8
Polygon
10
-0.7562193673825445
20
-0.5635910585928111
11
-0.7562639158465793
21
-0.56341061597949
0
LINE
8
Polygon
10
-0.7562639158465793
20
-0.56341061597949
11
-0.7563000341976471
21
-0.5632282987639944
0
LINE
8
Polygon
10
-0.7563000341976471
20
-0.5632282987639944
11
-0.7563276444559971
21
-0.5630445005703584
0
LINE
8
Polygon
10
-0.7563276444559971
20
-0.5630445005703584
11
-0.7563466870109048
21
-0.562859618220058
0
LINE
8
Polygon
10
-0.7563466870109048
20
-0.562859618220058
11
-0.7563571207493723
21
-0.5626740508752703
0
LINE
8
Polygon
10
-0.7563571207493723
20
-0.5626740508752703
11
-0.7563589231448916
21
-0.5624881991770796
0
LINE
8
Polygon
10
-0.7563589231448916
20
-0.5624881991770796
11
-0.7563520903060792
21
-0.5623024643804911
0
LINE
8
Polygon
10
-0.7563520903060792
20
-0.5623024643804911
11
-0.7563366369850778
21
-0.562117247488119
0
LINE
8
Polygon
10
-0.7563366369850778
20
-0.562117247488119
11
-0.7563125965457064
21
-0.5619329483844184
0
LINE
8
Polygon
10
-0.7563125965457064
20
-0.5619329483844184
11
-0.7562800208914272
21
-0.5617499649723334
0
LINE
8
Polygon
10
-0.7562800208914272
20
-0.5617499649723334
11
-0.7562389803532863
21
-0.5615686923142211
0
LINE
8
Polygon
10
-0.7562389803532863
20
-0.5615686923142211
11
-0.756189563538068
21
-0.5613895217789101
0
LINE
8
Polygon
10
-0.756189563538068
20
-0.5613895217789101
11
-0.7561318771369926
21
-0.561212840196732
0
LINE
8
Polygon
10
-0.7561318771369926
20
-0.561212840196732
11
-0.7560660456953688
21
-0.5610390290243531
0
LINE
8
Polygon
10
-0.7560660456953688
20
-0.5610390290243531
11
-0.7559922113437004
21
-0.5608684635212063
0
LINE
8
Polygon
10
-0.7559922113437004
20
-0.5608684635212063
11
-0.7559105334908249
21
-0.5607015119393042
0
LINE
8
Polygon
10
-0.7559105334908249
20
-0.5607015119393042
11
-0.7558211884797491
21
-0.5605385347281799
0
LINE
8
Polygon
10
-0.7558211884797491
20
-0.5605385347281799
11
-0.7557243692069235
21
-0.5603798837566748
0
LINE
8
Polygon
10
-0.7557243692069235
20
-0.5603798837566748
11
-0.7556202847057775
21
-0.5602259015532514
0
LINE
8
Polygon
10
-0.7556202847057775
20
-0.5602259015532514
11
-0.7555091596954147
21
-0.5600769205664715
0
LINE
8
Polygon
10
-0.7555091596954147
20
-0.5600769205664715
11
-0.7553912340954435
21
-0.5599332624472391
0
LINE
8
Polygon
10
-0.7553912340954435
20
-0.5599332624472391
11
-0.7552667625079886
21
-0.5597952373543522
0
LINE
8
Polygon
10
-0.7552667625079886
20
-0.5597952373543522
11
-0.7551360136680034
21
-0.5596631432848693
0
LINE
8
Polygon
10
-0.7551360136680034
20
-0.5596631432848693
11
-0.75499926986307
21
-0.5595372654307317
0
LINE
8
Polygon
10
-0.75499926986307
20
-0.5595372654307317
11
-0.7548568263239378
21
-0.5594178755630314
0
LINE
8
Polygon
10
-0.7548568263239378
20
-0.5594178755630314
11
-0.7547089905871192
21
-0.5593052314452566
0
LINE
8
Polygon
10
-0.7547089905871192
20
-0.5593052314452566
11
-0.7545560818309154
21
-0.5591995762767781
0
LINE
8
Polygon
10
-0.7545560818309154
20
-0.5591995762767781
11
-0.7543984301863094
21
-0.5591011381677806
0
LINE
8
Polygon
10
-0.7543984301863094
20
-0.5591011381677806
11
-0.7542363760242103
21
-0.559010129646771
0
LINE
8
Polygon
10
-0.7542363760242103
20
-0.559010129646771
11
-0.7540702692205907
21
-0.5589267472017285
0
LINE
8
Polygon
10
-0.7540702692205907
20
-0.5589267472017285
11
-0.7539004684011023
21
-0.5588511708558852
0
LINE
8
Polygon
10
-0.7537273401668004
20
-0.5587835637790551
11
-0.7519104860050434
21
-0.5580189246067297
0
LINE
8
Polygon
10
-0.7519104860050434
20
-0.5580189246067297
11
-0.7501777276738402
21
-0.557079147678627
0
LINE
8
Polygon
10
-0.7501777276738402
20
-0.557079147678627
11
-0.7485458973267126
21
-0.5559733620632646
0
LINE
8
Polygon
10
-0.7485458973267126
20
-0.5559733620632646
11
-0.7470308466946436
21
-0.5547123094508745
0
LINE
8
Polygon
10
-0.7470308466946436
20
-0.5547123094508746
11
-0.7456472931010899
21
-0.5533082398077609
0
LINE
8
Polygon
10
-0.7456472931010899
20
-0.5533082398077609
11
-0.7444086764967204
21
-0.5517747923791451
0
LINE
8
Polygon
10
-0.7444086764967204
20
-0.5517747923791451
11
-0.7433270289026566
21
-0.550126863196442
0
LINE
8
Polygon
10
-0.7433270289026566
20
-0.550126863196442
11
-0.7424128575304535
21
-0.5483804603760156
0
LINE
8
Polygon
10
-0.7424128575304535
20
-0.5483804603760156
11
-0.7416750427142036
21
-0.5465525486150515
0
LINE
8
Polygon
10
-0.7416750427142036
20
-0.5465525486150515
11
-0.741120751646258
21
-0.5446608843951266
0
LINE
8
Polygon
10
-0.741120751646258
20
-0.5446608843951266
11
-0.7407553687545451
21
-0.5427238434943215
0
LINE
8
Polygon
10
-0.7407553687545451
20
-0.5427238434943215
11
-0.740582443397805
21
-0.5407602424834375
0
LINE
8
Polygon
10
-0.740582443397805
20
-0.5407602424834375
11
-0.7406036553868341
21
-0.5387891559403171
0
LINE
8
Polygon
10
-0.7406036553868341
20
-0.5387891559403171
11
-0.7408187986666686
21
-0.5368297311578641
0
LINE
8
Polygon
10
-0.7408187986666686
20
-0.5368297311578641
11
-0.7412257833182179
21
-0.5349010021457031
0
LINE
8
Polygon
10
-0.7412257833182179
20
-0.5349010021457031
11
-0.7418206558599071
21
-0.5330217047322816
0
LINE
8
Polygon
10
-0.7418206558599071
20
-0.5330217047322816
11
-0.7425976376521146
21
-0.5312100945635293
0
LINE
8
Polygon
10
-0.7425976376521146
20
-0.5312100945635293
11
-0.7435491810313407
21
-0.5294837697660478
0
LINE
8
Polygon
10
-0.7435491810313407
20
-0.5294837697660478
11
-0.744666042628817
21
-0.527859499997496
0
LINE
8
Polygon
10
-0.744666042628817
20
-0.527859499997496
11
-0.7459373731613322
21
-0.5263530635447895
0
LINE
8
Polygon
10
-0.7459373731613322
20
-0.5263530635447895
11
-0.7473508228220411
21
-0.5249790940525553
0
LINE
8
Polygon
10
-0.7473508228220411
20
-0.5249790940525553
11
-0.7488926612474784
21
-0.5237509383707325
0
LINE
8
Polygon
10
-0.7488926612474784
20
-0.5237509383707325
11
-0.7505479108954125
21
-0.5226805269022015
0
LINE
8
Polygon
10
-0.7505479108954125
20
-0.5226805269022015
11
-0.7523004925378924
21
-0.521778257709892
0
LINE
8
Polygon
10
-0.7523004925378924
20
-0.521778257709892
11
-0.7541333814561594
21
-0.5210528955091653
0
LINE
8
Polygon
10
-0.7541333814561594
20
-0.5210528955091653
11
-0.7560287728201308
21
-0.520511486526666
0
LINE
8
Polygon
10
-0.7560287728201308
20
-0.520511486526666
11
-0.7579682546459496
21
-0.5201592900527101
0
LINE
8
Polygon
10
-0.7579682546459496
20
-0.5201592900527101
11
-0.7599329866514731
21
-0.5199997273521174
0
LINE
8
Polygon
10
-0.7599329866514731
20
-0.5199997273521174
11
-0.7619038832722858
21
-0.5200343484297698
0
LINE
8
Polygon
10
-0.7619038832722858
20
-0.5200343484297698
11
-0.7638617990604045
21
-0.52026281697374
0
LINE
8
Polygon
10
-0.7638617990604045
20
-0.52026281697374
11
-0.7657877146646971
21
-0.5206829136222519
0
LINE
8
Polygon
10
-0.7657877146646971
20
-0.5206829136222519
11
-0.7676629215863855
21
-0.5212905575227401
0
LINE
8
Polygon
10
-0.7676629215863855
20
-0.5212905575227401
11
-0.7694692039149051
21
-0.522079845973578
0
LINE
8
Polygon
10
-0.7694692039149051
20
-0.522079845973578
11
-0.7711890152787223
21
-0.5230431117633961
0
LINE
8
Polygon
10
-0.7711890152787223
20
-0.5230431117633961
11
-0.7728056492921955
21
-0.5241709976509885
0
LINE
8
Polygon
10
-0.7728056492921955
20
-0.5241709976509885
11
-0.7743034018427468
21
-0.5254525472623052
0
LINE
8
Polygon
10
-0.7743034018427468
20
-0.5254525472623052
11
-0.775667723641872
21
-0.5268753115215485
0
LINE
8
Polygon
10
-0.775667723641872
20
-0.5268753115215485
11
-0.776885361558097
21
-0.5284254695824958
0
LINE
8
Polygon
10
-0.776885361558097
20
-0.5284254695824958
11
-0.7779444873589609
21
-0.530087963085308
0
LINE
8
Polygon
10
-0.7779444873589609
20
-0.530087963085308
11
-0.7788348126114157
21
-0.5318466424346466
0
LINE
8
Polygon
10
-0.7788348126114157
20
-0.5318466424346465
11
-0.7795476886244904
21
-0.5336844236781386
0
LINE
8
Polygon
10
-0.7795476886244904
20
-0.5336844236781386
11
-0.7800761904633698
21
-0.5355834544612619
0
LINE
8
Polygon
10
-0.7800761904633698
20
-0.5355834544612619
11
-0.780415184218767
21
-0.5375252874465494
0
LINE
8
Polygon
10
-0.780415184218767
20
-0.5375252874465493
11
-0.7805613768781301
21
-0.5394910595125063
0
LINE
8
Polygon
10
-0.7805613768781301
20
-0.5394910595125063
11
-0.7805133483142309
21
-0.541461674991487
0
LINE
8
Polygon
10
-0.7805133483142309
20
-0.541461674991487
11
-0.7802715650803944
21
-0.5434179911665427
0
LINE
8
Polygon
10
-0.7802715650803944
20
-0.5434179911665427
11
-0.7798383758783627
21
-0.5453410042253105
0
LINE
8
Polygon
10
-0.7792179887428176
20
-0.5472120338645728
11
-0.7791549157819428
21
-0.5473868649372016
0
LINE
8
Polygon
10
-0.7791549157819428
20
-0.5473868649372016
11
-0.7791000322608134
21
-0.5475644371801294
0
LINE
8
Polygon
10
-0.7791000322608134
20
-0.5475644371801294
11
-0.7790534566733023
21
-0.5477443672137479
0
LINE
8
Polygon
10
-0.7790534566733023
20
-0.5477443672137479
11
-0.7790152895764008
21
-0.5479262665679636
0
LINE
8
Polygon
10
-0.7790152895764008
20
-0.5479262665679636
11
-0.7789856133731154
21
-0.5481097425209072
0
LINE
8
Polygon
10
-0.7789856133731154
20
-0.5481097425209072
11
-0.7789644921345588
21
-0.5482943989468225
0
LINE
8
Polygon
10
-0.7789644921345588
20
-0.5482943989468225
11
-0.7789519714616202
21
-0.5484798371713049
0
LINE
8
Polygon
10
-0.7789519714616202
20
-0.5484798371713049
11
-0.7789480783865124
21
-0.5486656568320413
0
LINE
8
Polygon
10
-0.7789480783865124
20
-0.5486656568320413
11
-0.7789528213144097
21
-0.5488514567431956
0
LINE
8
Polygon
10
-0.7789528213144097
20
-0.5488514567431956
11
-0.7789661900053002
21
-0.549036835761571
0
LINE
8
Polygon
10
-0.7789661900053002
20
-0.549036835761571
11
-0.7789881555960949
21
-0.5492213936526812
0
LINE
8
Polygon
10
-0.7789881555960949
20
-0.5492213936526812
11
-0.7790186706629426
21
-0.5494047319548585
0
LINE
8
Polygon
10
-0.7790186706629426
20
-0.5494047319548585
11
-0.7790576693236191
21
-0.5495864548395358
0
LINE
8
Polygon
10
-0.7790576693236191
20
-0.5495864548395358
11
-0.7791050673797661
21
-0.5497661699658426
0
LINE
8
Polygon
10
-0.7791050673797661
20
-0.5497661699658426
11
-0.7791607624986776
21
-0.5499434893276716
0
LINE
8
Polygon
10
-0.7791607624986776
20
-0.5499434893276716
11
-0.7792246344342353
21
-0.5501180300913862
0
LINE
8
Polygon
10
-0.7792246344342353
20
-0.5501180300913862
11
-0.7792965452865218
21
-0.5502894154223612
0
LINE
8
Polygon
10
-0.7792965452865218
20
-0.5502894154223612
11
-0.7793763397995471
21
-0.5504572752985706
0
LINE
8
Polygon
10
-0.7793763397995471
20
-0.5504572752985706
11
-0.7794638456964471
21
-0.5506212473094679
0
LINE
8
Polygon
10
-0.7794638456964471
20
-0.5506212473094679
11
-0.7795588740514307
21
-0.5507809774384328
0
LINE
8
Polygon
10
-0.7795588740514307
20
-0.5507809774384328
11
-0.7796612196976714
21
-0.5509361208270948
0
LINE
8
Polygon
10
-0.7796612196976714
20
-0.5509361208270948
11
-0.7797706616702644
21
-0.5510863425198855
0
LINE
8
Polygon
10
-0.7797706616702644
20
-0.5510863425198855
11
-0.7798869636832909
21
-0.5512313181872094
0
LINE
8
Polygon
10
-0.7798869636832909
20
-0.5512313181872094
11
-0.7800098746399606
21
-0.5513707348256731
0
LINE
8
Polygon
10
-0.7800098746399606
20
-0.5513707348256731
11
-0.780139129174732
21
-0.5515042914338624
0
LINE
8
Polygon
10
-0.780139129174732
20
-0.5515042914338624
11
-0.7802744482262376
21
-0.5516316996622058
0
LINE
8
Polygon
10
-0.7802744482262376
20
-0.5516316996622058
11
-0.7804155396397795
21
-0.5517526844355235
0
LINE
8
Polygon
10
-0.7804155396397795
20
-0.5517526844355235
11
-0.7805620987980935
21
-0.5518669845469157
0
LINE
8
Polygon
10
-0.7805620987980935
20
-0.5518669845469157
11
-0.7807138092790191
21
-0.5519743532217111
0
LINE
8
Polygon
10
-0.7807138092790191
20
-0.5519743532217111
11
-0.7808703435386576
21
-0.5520745586502537
0
LINE
8
Polygon
10
-0.7808703435386576
20
-0.5520745586502537
11
-0.7810313636185412
21
-0.5521673844883823
0
LINE
8
Polygon
10
-0.7810313636185412
20
-0.5521673844883823
11
-0.7811965218752872
21
-0.5522526303245188
0
LINE
8
Polygon
10
-0.7811965218752872
20
-0.5522526303245188
11
-0.781365461731163
21
-0.5523301121123574
0
LINE
8
Polygon
10
-0.781365461731163
20
-0.5523301121123574
11
-0.7815378184439388
21
-0.5523996625682227
0
LINE
8
Polygon
10
-0.7815378184439388
20
-0.5523996625682227
11
-0.7817132198943695
21
-0.5524611315322355
0
LINE
8
Polygon
10
-0.7817132198943695
20
-0.5524611315322355
11
-0.7818912873896013
21
-0.5525143862925094
0
LINE
8
Polygon
10
-0.7818912873896013
20
-0.5525143862925094
11
-0.7820716364807733
21
-0.5525593118716761
0
LINE
8
Polygon
10
-0.7820716364807733
20
-0.5525593118716761
11
-0.7822538777930436
21
-0.5525958112751229
0
LINE
8
Polygon
10
-0.7822538777930436
20
-0.5525958112751229
11
-0.7824376178662534
21
-0.5526238057004044
0
LINE
8
Polygon
10
-0.7824376178662534
20
-0.5526238057004044
11
-0.7826224600044093
21
-0.5526432347073771
0
LINE
8
Polygon
10
-0.7826224600044093
20
-0.5526432347073771
11
-0.7828080051321525
21
-0.5526540563486908
0
LINE
8
Polygon
10
-0.7828080051321525
20
-0.5526540563486908
11
-0.7829938526563655
21
-0.5526562472603528
0
LINE
8
Polygon
10
-0.7829938526563655
20
-0.5526562472603528
11
-0.7831796013310545
21
-0.5526498027121706
0
LINE
8
Polygon
10
-0.7831796013310545
20
-0.5526498027121706
11
-0.7833648501236427
21
-0.5526347366179649
0
LINE
8
Polygon
10
-0.7833648501236427
20
-0.5526347366179649
11
-0.7835491990808018
21
-0.5526110815055297
0
LINE
8
Polygon
10
-0.7835491990808018
20
-0.5526110815055297
11
-0.7837322501919541
21
-0.552578888446404
0
LINE
8
Polygon
10
-0.7837322501919541
20
-0.552578888446404
11
-0.7839136082485798
21
-0.5525382269456083
0
LINE
8
Polygon
10
-0.7840928816974744
20
-0.5524891847915829
11
-0.7848713151571033
21
-0.5522595324165156
0
LINE
8
Polygon
10
-0.7848713151571033
20
-0.5522595324165156
11
-0.7856512840245576
21
-0.5520351500860038
0
LINE
8
Polygon
10
-0.7856512840245576
20
-0.5520351500860038
11
-0.7864327526217396
21
-0.5518160480639631
0
LINE
8
Polygon
10
-0.7864327526217396
20
-0.5518160480639631
11
-0.7872156852019495
21
-0.5516022363727723
0
LINE
8
Polygon
10
-0.7872156852019495
20
-0.5516022363727723
11
-0.7880000459515204
21
-0.5513937247928145
0
LINE
8
Polygon
10
-0.7880000459515204
20
-0.5513937247928145
11
-0.788785798991457
21
-0.5511905228620302
0
LINE
8
Polygon
10
-0.788785798991457
20
-0.5511905228620302
11
-0.789572908379076
21
-0.5509926398754805
0
LINE
8
Polygon
10
-0.789572908379076
20
-0.5509926398754805
11
-0.7903613381096514
21
-0.5508000848849223
0
LINE
8
Polygon
10
-0.7903613381096514
20
-0.5508000848849223
11
-0.7911510521180601
21
-0.5506128666983938
0
LINE
8
Polygon
10
-0.7911510521180601
20
-0.5506128666983938
11
-0.7919420142804328
21
-0.5504309938798125
0
LINE
8
Polygon
10
-0.7919420142804328
20
-0.5504309938798125
11
-0.7927341884158056
21
-0.5502544747485824
0
LINE
8
Polygon
10
-0.7927341884158056
20
-0.5502544747485824
11
-0.7935275382877756
21
-0.5500833173792139
0
LINE
8
Polygon
10
-0.7935275382877756
20
-0.5500833173792139
11
-0.794322027606158
21
-0.5499175296009545
0
LINE
8
Polygon
10
-0.794322027606158
20
-0.5499175296009545
11
-0.7951176200286465
21
-0.5497571189974308
0
LINE
8
Polygon
10
-0.7951176200286465
20
-0.5497571189974308
11
-0.7959142791624755
21
-0.5496020929063015
0
LINE
8
Polygon
10
-0.7959142791624755
20
-0.5496020929063015
11
-0.7967119685660846
21
-0.5494524584189211
0
LINE
8
Polygon
10
-0.7967119685660846
20
-0.5494524584189211
11
-0.7975106517507863
21
-0.5493082223800166
0
LINE
8
Polygon
10
-0.7975106517507863
20
-0.5493082223800166
11
-0.798310292182434
21
-0.5491693913873739
0
LINE
8
Polygon
10
-0.798310292182434
20
-0.5491693913873739
11
-0.7991108532830942
21
-0.5490359717915356
0
LINE
8
Polygon
10
-0.7991108532830942
20
-0.5490359717915356
11
-0.7999122984327192
21
-0.5489079696955115
0
LINE
8
Polygon
10
-0.7999122984327192
20
-0.5489079696955115
11
-0.800714590970822
21
-0.5487853909544982
0
LINE
8
Polygon
10
-0.8007145909708221
20
-0.5487853909544982
11
-0.801517694198154
21
-0.5486682411756123
0
LINE
8
Polygon
10
-0.801517694198154
20
-0.5486682411756123
11
-0.8023215713783827
21
-0.5485565257176335
0
LINE
8
Polygon
10
-0.8023215713783827
20
-0.5485565257176335
11
-0.8031261857397731
21
-0.5484502496907592
0
LINE
8
Polygon
10
-0.8031261857397731
20
-0.5484502496907592
11
-0.8039315004768693
21
-0.5483494179563714
0
LINE
8
Polygon
10
-0.8039315004768693
20
-0.5483494179563714
11
-0.804737478752178
21
-0.5482540351268136
0
LINE
8
Polygon
10
-0.804737478752178
20
-0.5482540351268136
11
-0.8055440836978537
21
-0.5481641055651806
0
LINE
8
Polygon
10
-0.8055440836978537
20
-0.5481641055651806
11
-0.8063512784173851
21
-0.548079633385118
0
LINE
8
Polygon
10
-0.8063512784173851
20
-0.548079633385118
11
-0.8071590259872831
21
-0.5480006224506349
0
LINE
8
Polygon
10
-0.8071590259872831
20
-0.5480006224506349
11
-0.8079672894587693
21
-0.5479270763759265
0
LINE
8
Polygon
10
-0.8079672894587693
20
-0.5479270763759265
11
-0.8087760318594666
21
-0.5478589985252094
0
LINE
8
Polygon
10
-0.8087760318594666
20
-0.5478589985252094
11
-0.8095852161950903
21
-0.547796392012567
0
LINE
8
Polygon
10
-0.8095852161950903
20
-0.547796392012567
11
-0.8103948054511401
21
-0.5477392597018075
0
LINE
8
Polygon
10
-0.8103948054511401
20
-0.5477392597018075
11
-0.8112047625945935
21
-0.547687604206333
0
LINE
8
Polygon
10
-0.8112047625945935
20
-0.547687604206333
11
-0.8120150505755998
21
-0.5476414278890195
0
LINE
8
Polygon
10
-0.8120150505755998
20
-0.5476414278890195
11
-0.8128256323291748
21
-0.5476007328621092
0
LINE
8
Polygon
10
-0.8128256323291748
20
-0.5476007328621092
11
-0.8136364707768962
21
-0.547565520987114
0
LINE
8
Polygon
10
-0.8136364707768962
20
-0.547565520987114
11
-0.8144475288285998
21
-0.5475357938747295
0
LINE
8
Polygon
10
-0.8144475288285998
20
-0.5475357938747295
11
-0.815258769384076
21
-0.5475115528847626
0
LINE
8
Polygon
10
-0.815258769384076
20
-0.5475115528847626
11
-0.816070155334767
21
-0.5474927991260683
0
LINE
8
Polygon
10
-0.816070155334767
20
-0.5474927991260683
11
-0.8168816495654643
21
-0.5474795334564991
0
LINE
8
Polygon
10
-0.8168816495654643
20
-0.5474795334564991
11
-0.8176932149560059
21
-0.5474717564828666
0
LINE
8
Polygon
10
-0.817693214956006
20
-0.5474717564828666
11
-0.8185048143829754
21
-0.5474694685609125
0
LINE
8
Polygon
10
-0.8185048143829754
20
-0.5474694685609125
11
-0.8193164107213988
21
-0.5474726697952932
0
LINE
8
Polygon
10
-0.8193164107213988
20
-0.5474726697952932
11
-0.820127966846444
21
-0.5474813600395747
0
LINE
8
Polygon
10
-0.820127966846444
20
-0.5474813600395747
11
-0.8209394456351179
21
-0.5474955388962393
0
LINE
8
Polygon
10
-0.8209394456351179
20
-0.5474955388962393
11
-0.8217508099679651
21
-0.547515205716704
0
LINE
8
Polygon
10
-0.8225620227307662
20
-0.5475403596013498
11
-0.8143125669029061
21
-0.7873985395297071
0
LINE
8
Polygon
10
-0.9737947291879736
20
-1.0431641075223868
11
1.0431641075223865
21
-0.9737947291879736
0
LINE
8
Polygon
10
1.0431641075223865
20
-0.9737947291879736
11
0.9737947291879736
21
1.0431641075223868
0
LINE
8
Polygon
10
0.9737947291879736
20
1.0431641075223868
11
-1.0431641075223865
21
0.9737947291879736
0
ENDSEC
0
EOF
