0
SECTION
2
ENTITIES
0
LINE
8
Polygon
10
-0.4667554307749565
20
-0.3806583502903593
11
-0.46826476570125863
21
-0.3788443476872581
0
LINE
8
Polygon
10
-0.46826476570125863
20
-0.3788443476872581
11
-0.46980947955538144
21
-0.3770603755819003
0
LINE
8
Polygon
10
-0.46980947955538144
20
-0.3770603755819003
11
-0.47138897497316035
21
-0.37530712386322757
0
LINE
8
Polygon
10
-0.47138897497316035
20
-0.37530712386322757
11
-0.4730026411398755
21
-0.3735852705401444
0
LINE
8
Polygon
10
-0.4730026411398755
20
-0.3735852705401444
11
-0.47464985402646226
21
-0.3718954814793217
0
LINE
8
Polygon
10
-0.47464985402646226
20
-0.3718954814793217
11
-0.47632997663083326
21
-0.37023841014769615
0
LINE
8
Polygon
10
-0.47632997663083326
20
-0.37023841014769615
11
-0.47804235922421634
21
-0.3686146973597647
0
LINE
8
Polygon
10
-0.47804235922421634
20
-0.3686146973597647
11
-0.47978633960241485
21
-0.36702497102977194
0
LINE
8
Polygon
10
-0.47978633960241485
20
-0.36702497102977194
11
-0.48156124334189154
21
-0.3654698459288861
0
LINE
8
Polygon
10
-0.48156124334189154
20
-0.3654698459288861
11
-0.48336638406057875
21
-0.36394992344745786
0
LINE
8
Polygon
10
-0.48336638406057875
20
-0.36394992344745786
11
-0.4852010636833125
21
-0.3624657913624536
0
LINE
8
Polygon
10
-0.4852010636833125
20
-0.3624657913624536
11
-0.4870645727117887
21
-0.3610180236101531
0
LINE
8
Polygon
10
-0.4870645727117887
20
-0.3610180236101531
11
-0.48895619049893696
21
-0.35960718006419984
0
LINE
8
Polygon
10
-0.48895619049893696
20
-0.35960718006419984
11
-0.4908751855276055
21
-0.3582338063190893
0
LINE
8
Polygon
10
-0.49087518552760556
20
-0.3582338063190893
11
-0.49282081569345015
21
-0.3568984334791794
0
LINE
8
Polygon
10
-0.49282081569345015
20
-0.3568984334791794
11
-0.4947923285919169
21
-0.3556015779533043
0
LINE
8
Polygon
10
-0.4947923285919169
20
-0.3556015779533043
11
-0.4967889618092087
21
-0.35434374125507173
0
LINE
8
Polygon
10
-0.4967889618092087
20
-0.35434374125507173
11
-0.49880994321712163
21
-0.3531254098089194
0
LINE
8
Polygon
10
-0.4988099432171217
20
-0.3531254098089194
11
-0.5008544912716393
21
-0.3519470547620079
0
LINE
8
Polygon
10
-0.5008544912716393
20
-0.3519470547620079
11
-0.502921815315167
21
-0.3508091318020209
0
LINE
8
Polygon
10
-0.502921815315167
20
-0.35080913180202083
11
-0.5050111158822916
21
-0.3497120809809435
0
LINE
8
Polygon
10
-0.5050111158822916
20
-0.3497120809809435
11
-0.5071215850089463
21
-0.348656326544888
0
LINE
8
Polygon
10
-0.5071215850089463
20
-0.348656326544888
11
-0.509252406544863
21
-0.3476422767700311
0
LINE
8
Polygon
10
-0.509252406544863
20
-0.3476422767700311
11
-0.5114027564691895
21
-0.3466703238047275
0
LINE
8
Polygon
10
-0.5114027564691895
20
-0.3466703238047275
11
-0.5135718032091513
21
-0.3457408435178603
0
LINE
8
Polygon
10
-0.5135718032091513
20
-0.3457408435178602
11
-0.5157587079616328
21
-0.3448541953534865
0
LINE
8
Polygon
10
-0.5157587079616328
20
-0.3448541953534865
11
-0.5179626250175556
21
-0.3440107221918351
0
LINE
8
Polygon
10
-0.5179626250175556
20
-0.3440107221918351
11
-0.5201827020889267
21
-0.34321075021670966
0
LINE
8
Polygon
10
-0.5201827020889267
20
-0.34321075021670966
11
-0.5224180806384311
21
-0.34245458878934837
0
LINE
8
Polygon
10
-0.5224180806384311
20
-0.3424545887893483
11
-0.5246678962114414
21
-0.3417425303287891
0
LINE
8
Polygon
10
-0.5246678962114414
20
-0.3417425303287891
11
-0.5269312787703151
21
-0.3410748501987869
0
LINE
8
Polygon
10
-0.5269312787703151
20
-0.3410748501987869
11
-0.5292073530308516
21
-0.34045180660132657
0
LINE
8
Polygon
10
-0.5292073530308516
20
-0.34045180660132657
11
-0.5314952388007779
21
-0.3398736404767718
0
LINE
8
Polygon
10
-0.531495238800778
20
-0.3398736404767718
11
-0.5337940513201316
21
-0.3393405754106903
0
LINE
8
Polygon
10
-0.5337940513201316
20
-0.3393405754106903
11
-0.5361029016034116
21
-0.3388528175473895
0
LINE
8
Polygon
10
-0.5361029016034116
20
-0.3388528175473895
11
-0.5384208967833618
21
-0.3384105555101977
0
LINE
8
Polygon
10
-0.5384208967833618
20
-0.3384105555101977
11
-0.5407471404562567
21
-0.3380139603285206
0
LINE
8
Polygon
10
-0.5407471404562568
20
-0.3380139603285206
11
-0.5430807330285543
21
-0.3376631853717013
0
LINE
8
Polygon
10
-0.5430807330285543
20
-0.3376631853717013
11
-0.5454207720647817
21
-0.3373583662897106
0
LINE
8
Polygon
10
-0.5454207720647817
20
-0.3373583662897106
11
-0.5477663526365214
21
-0.3370996209606886
0
LINE
8
Polygon
10
-0.5477663526365214
20
-0.3370996209606886
11
-0.5501165676723605
21
-0.33688704944535963
0
LINE
8
Polygon
10
-0.5501165676723605
20
-0.33688704944535963
11
-0.5524705083086688
21
-0.3367207339483375
0
LINE
8
Polygon
10
-0.552470508308669
20
-0.3367207339483375
11
-0.5548272642410704
21
-0.33660073878633534
0
LINE
8
Polygon
10
-0.5548272642410704
20
-0.33660073878633534
11
-0.5571859240764714
21
-0.33652711036329364
0
LINE
8
Polygon
10
-0.5571859240764714
20
-0.33652711036329364
11
-0.5595455756855103
21
-0.3364998771524349
0
LINE
8
Polygon
10
-0.5595455756855103
20
-0.3364998771524349
11
-0.5619053065552916
21
-0.3365190496852528
0
LINE
8
Polygon
10
-0.5619053065552917
20
-0.3365190496852528
11
-0.5642642041422686
21
-0.3365846205474397
0
LINE
8
Polygon
10
-0.5666213562251374
20
-0.3366965643817532
11
-0.5670667560582208
21
-0.33671216094469686
0
LINE
8
Polygon
10
-0.5670667560582208
20
-0.33671216094469686
11
-0.5675124084790554
21
-0.3367078966873587
0
LINE
8
Polygon
10
-0.5675124084790554
20
-0.3367078966873587
11
-0.5679574283137999
21
-0.3366837800795885
0
LINE
8
Polygon
10
-0.5679574283137999
20
-0.3366837800795885
11
-0.5684009316450825
21
-0.3366398590228209
0
LINE
8
Polygon
10
-0.5684009316450825
20
-0.3366398590228209
11
-0.5688420375676754
21
-0.33657622075493177
0
LINE
8
Polygon
10
-0.5688420375676754
20
-0.33657622075493177
11
-0.5692798699381858
21
-0.33649299167696234
0
LINE
8
Polygon
10
-0.5692798699381858
20
-0.33649299167696234
11
-0.5697135591152899
21
-0.33639033710205624
0
LINE
8
Polygon
10
-0.5697135591152899
20
-0.33639033710205624
11
-0.5701422436870512
21
-0.3362684609271074
0
LINE
8
Polygon
10
-0.5701422436870512
20
-0.3362684609271074
11
-0.570565072181894
21
-0.33612760522777146
0
LINE
8
Polygon
10
-0.570565072181894
20
-0.33612760522777146
11
-0.5709812047598318
21
-0.3359680497776446
0
LINE
8
Polygon
10
-0.5709812047598318
20
-0.3359680497776446
11
-0.5713898148805943
21
-0.3357901114925655
0
LINE
8
Polygon
10
-0.5713898148805943
20
-0.3357901114925655
11
-0.571790090945336
21
-0.33559414380114333
0
LINE
8
Polygon
10
-0.571790090945336
20
-0.33559414380114333
11
-0.5721812379086689
21
-0.3353805359427631
0
LINE
8
Polygon
10
-0.5721812379086689
20
-0.3353805359427631
11
-0.5725624788578159
21
-0.3351497121944616
0
LINE
8
Polygon
10
-0.5725624788578159
20
-0.3351497121944616
11
-0.572933056555747
21
-0.33490213102821015
0
LINE
8
Polygon
10
-0.572933056555747
20
-0.33490213102821015
11
-0.5732922349452371
21
-0.33463828420027825
0
LINE
8
Polygon
10
-0.5732922349452371
20
-0.33463828420027825
11
-0.5736393006108531
21
-0.3343586957744862
0
LINE
8
Polygon
10
-0.5736393006108531
20
-0.3343586957744862
11
-0.5739735641959709
21
-0.33406392108128713
0
LINE
8
Polygon
10
-0.5739735641959709
20
-0.33406392108128713
11
-0.5742943617720044
21
-0.3337545456147462
0
LINE
8
Polygon
10
-0.5742943617720044
20
-0.3337545456147462
11
-0.5746010561571291
21
-0.33343118386960713
0
LINE
8
Polygon
10
-0.5746010561571291
20
-0.33343118386960713
11
-0.5748930381818794
21
-0.3330944781207565
0
LINE
8
Polygon
10
-0.5748930381818794
20
-0.3330944781207565
11
-0.5751697278991075
21
-0.33274509714751
0
LINE
8
Polygon
10
-0.5751697278991075
20
-0.33274509714751
11
-0.5754305757358986
21
-0.33238373490525475
0
LINE
8
Polygon
10
-0.5754305757358986
20
-0.33238373490525475
11
-0.5756750635851567
21
-0.33201110914708504
0
LINE
8
Polygon
10
-0.5756750635851567
20
-0.33201110914708504
11
-0.5759027058346903
21
-0.3316279599981708
0
LINE
8
Polygon
10
-0.5759027058346903
20
-0.3316279599981708
11
-0.5761130503317565
21
-0.3312350484856895
0
LINE
8
Polygon
10
-0.5761130503317565
20
-0.3312350484856895
11
-0.5763056792811461
21
-0.33083315502724125
0
LINE
8
Polygon
10
-0.5763056792811461
20
-0.33083315502724125
11
-0.5764802100750257
21
-0.33042307788075037
0
LINE
8
Polygon
10
-0.5764802100750257
20
-0.33042307788075037
11
-0.5766362960528906
21
-0.33000563155893115
0
LINE
8
Polygon
10
-0.5766362960528906
20
-0.3300056315589312
11
-0.5767736271901157
21
-0.3295816452114684
0
LINE
8
Polygon
10
-0.5767736271901157
20
-0.3295816452114684
11
-0.5768919307137406
21
-0.3291519609781245
0
LINE
8
Polygon
10
-0.5768919307137406
20
-0.3291519609781245
11
-0.5769909716442618
21
-0.32871743231604583
0
LINE
8
Polygon
10
-0.5769909716442618
20
-0.32871743231604583
11
-0.5770705532623602
21
-0.3282789223045897
0
LINE
8
Polygon
10
-0.5770705532623602
20
-0.3282789223045897
11
-0.5771305174996323
21
-0.3278373019310393
0
LINE
8
Polygon
10
-0.5771305174996323
20
-0.3278373019310394
11
-0.5771707452525532
21
-0.32739344836061174
0
LINE
8
Polygon
10
-0.5771707452525532
20
-0.32739344836061174
11
-0.5771911566190447
21
-0.3269482431941948
0
LINE
8
Polygon
10
-0.5771911566190447
20
-0.3269482431941948
11
-0.5771917110571803
21
-0.32650257071727395
0
LINE
8
Polygon
10
-0.5771917110571803
20
-0.326502570717274
11
-0.5771724074657113
21
-0.3260573161435268
0
LINE
8
Polygon
10
-0.5771724074657113
20
-0.3260573161435268
11
-0.5771332841862542
21
-0.3256133638565737
0
LINE
8
Polygon
10
-0.5771332841862542
20
-0.3256133638565737
11
-0.577074418927135
21
-0.32517159565337744
0
LINE
8
Polygon
10
-0.577074418927135
20
-0.32517159565337744
11
-0.5769959286090413
21
-0.3247328889927807
0
LINE
8
Polygon
10
-0.5769959286090413
20
-0.3247328889927807
11
-0.5768979691327899
21
-0.32429811525265956
0
LINE
8
Polygon
10
-0.5768979691327899
20
-0.32429811525265956
11
-0.5767807350696695
21
-0.32386813799915576
0
LINE
8
Polygon
10
-0.5767807350696695
20
-0.32386813799915576
11
-0.5766444592749753
21
-0.3234438112714248
0
LINE
8
Polygon
10
-0.5766444592749753
20
-0.3234438112714248
11
-0.5764894124255017
21
-0.32302597788530696
0
LINE
8
Polygon
10
-0.5764894124255017
20
-0.32302597788530696
11
-0.5763159024819123
21
-0.3226154677592905
0
LINE
8
Polygon
10
-0.5763159024819123
20
-0.3226154677592905
11
-0.5761242740770559
21
-0.32221309626609235
0
LINE
8
Polygon
10
-0.5759149078314412
20
-0.32181966261312955
11
-0.5736557723009656
21
-0.31726515440023134
0
LINE
8
Polygon
10
-0.5736557723009656
20
-0.31726515440023134
11
-0.5718708203973437
21
-0.3125047778281343
0
LINE
8
Polygon
10
-0.5718708203973437
20
-0.3125047778281343
11
-0.5705785065515341
21
-0.3075877499321037
0
LINE
8
Polygon
10
-0.5705785065515341
20
-0.3075877499321037
11
-0.5697921918611641
21
-0.3025649073490515
0
LINE
8
Polygon
10
-0.5697921918611641
20
-0.3025649073490515
11
-0.5695200059515397
21
-0.2974881807228664
0
LINE
8
Polygon
10
-0.5695200059515397
20
-0.2974881807228664
11
-0.5697647629242996
21
-0.29241005779892104
0
LINE
8
Polygon
10
-0.5697647629242996
20
-0.29241005779892104
11
-0.570523932262713
21
-0.28738304075876425
0
LINE
8
Polygon
10
-0.570523932262713
20
-0.28738304075876425
11
-0.571789664994428
21
-0.28245910340556
0
LINE
8
Polygon
10
-0.571789664994428
20
-0.28245910340556
11
-0.5735488748411739
21
-0.27768915381237497
0
LINE
8
Polygon
10
-0.5735488748411739
20
-0.27768915381237497
11
-0.5757833735164248
21
-0.2731225079889378
0
LINE
8
Polygon
10
-0.5757833735164248
20
-0.2731225079889378
11
-0.5784700587721894
21
-0.2688063800085748
0
LINE
8
Polygon
10
-0.5784700587721894
20
-0.2688063800085748
11
-0.581581153250736
21
-0.2647853938668466
0
LINE
8
Polygon
10
-0.581581153250736
20
-0.2647853938668466
11
-0.5850844916717881
21
-0.26110112211872666
0
LINE
8
Polygon
10
-0.5850844916717881
20
-0.26110112211872666
11
-0.5889438533859906
21
-0.25779165606430615
0
LINE
8
Polygon
10
-0.5889438533859906
20
-0.25779165606430615
11
-0.5931193368564143
21
-0.2548912119268277
0
LINE
8
Polygon
10
-0.5931193368564143
20
-0.2548912119268277
11
-0.5975677721963701
21
-0.2524297770947335
0
LINE
8
Polygon
10
-0.5975677721963701
20
-0.2524297770947335
11
-0.6022431674983512
21
-0.2504328000851946
0
LINE
8
Polygon
10
-0.6022431674983512
20
-0.2504328000851946
11
-0.6070971843395518
21
-0.24892092743455385
0
LINE
8
Polygon
10
-0.6070971843395518
20
-0.24892092743455385
11
-0.6120796375477625
21
-0.2479097902359479
0
LINE
8
Polygon
10
-0.6120796375477625
20
-0.2479097902359479
11
-0.6171390140606149
21
-0.24740984253107023
0
LINE
8
Polygon
10
-0.6171390140606149
20
-0.24740984253107023
11
-0.6222230055137425
21
-0.2474262532269284
0
LINE
8
Polygon
10
-0.6222230055137425
20
-0.2474262532269284
11
-0.6272790490514877
21
-0.24795885265505507
0
LINE
8
Polygon
10
-0.6272790490514877
20
-0.24795885265505507
11
-0.6322548707687646
21
-0.2490021343256927
0
LINE
8
Polygon
10
-0.6322548707687646
20
-0.2490021343256927
11
-0.637099026165496
21
-0.25054531185881485
0
LINE
8
Polygon
10
-0.637099026165496
20
-0.25054531185881485
11
-0.6417614320259148
21
-0.25257243050338074
0
LINE
8
Polygon
10
-0.6417614320259148
20
-0.25257243050338074
11
-0.6461938842236924
21
-0.2550625320918367
0
LINE
8
Polygon
10
-0.6461938842236924
20
-0.2550625320918367
11
-0.6503505560993564
21
-0.25798987172441745
0
LINE
8
Polygon
10
-0.6503505560993564
20
-0.25798987172441745
11
-0.6541884722573278
21
-0.2613241839429712
0
LINE
8
Polygon
10
-0.6541884722573278
20
-0.2613241839429712
11
-0.657667952884039
21
-0.265030995642364
0
LINE
8
Polygon
10
-0.657667952884039
20
-0.265030995642364
11
-0.6607530239933743
21
-0.26907198248430725
0
LINE
8
Polygon
10
-0.6607530239933743
20
-0.26907198248430725
11
-0.6634117893579484
21
-0.2734053651286805
0
LINE
8
Polygon
10
-0.6634117893579484
20
-0.2734053651286805
11
-0.6656167602808633
21
-0.2779863411857577
0
LINE
8
Polygon
10
-0.6656167602808633
20
-0.2779863411857577
11
-0.6673451397984693
21
-0.2827675484234263
0
LINE
8
Polygon
10
-0.6673451397984693
20
-0.2827675484234263
11
-0.6685790583757872
21
-0.2876995544403492
0
LINE
8
Polygon
10
-0.6685790583757872
20
-0.2876995544403492
11
-0.6693057586577602
21
-0.29273136774239
0
LINE
8
Polygon
10
-0.6693057586577602
20
-0.29273136774239
11
-0.669517727366213
21
-0.29781096493833487
0
LINE
8
Polygon
10
-0.669517727366213
20
-0.29781096493833487
11
-0.6692127729788488
21
-0.302885828604291
0
LINE
8
Polygon
10
-0.6692127729788488
20
-0.302885828604291
11
-0.6683940483871689
21
-0.30790349025583674
0
LINE
8
Polygon
10
-0.6683940483871689
20
-0.30790349025583674
11
-0.6670700182990574
21
-0.31281207281419204
0
LINE
8
Polygon
10
-0.6670700182990574
20
-0.31281207281419204
11
-0.6652543717230522
21
-0.3175608269579075
0
LINE
8
Polygon
10
-0.6652543717230522
20
-0.3175608269579075
11
-0.6629658804391181
21
-0.32210065581478875
0
LINE
8
Polygon
10
-0.6629658804391181
20
-0.32210065581478875
11
-0.6602282049191777
21
-0.3263846225693205
0
LINE
8
Polygon
10
-0.6602282049191777
20
-0.3263846225693205
11
-0.6570696497039684
21
-0.330368435737491
0
LINE
8
Polygon
10
-0.6570696497039684
20
-0.330368435737491
11
-0.6535228707653571
21
-0.3340109070918104
0
LINE
8
Polygon
10
-0.6535228707653571
20
-0.3340109070918104
11
-0.6496245378796643
21
-0.3372743775020854
0
LINE
8
Polygon
10
-0.6496245378796643
20
-0.3372743775020854
11
-0.6454149555026836
21
-0.3401251062892252
0
LINE
8
Polygon
10
-0.6454149555026836
20
-0.3401251062892252
11
-0.6409376460661307
21
-0.3425336200665926
0
LINE
8
Polygon
10
-0.6362389000037759
20
-0.34447501746226405
11
-0.6358223062029714
21
-0.34463336476794904
0
LINE
8
Polygon
10
-0.6358223062029714
20
-0.34463336476794904
11
-0.6354131814870484
21
-0.34481011665876576
0
LINE
8
Polygon
10
-0.6354131814870484
20
-0.34481011665876576
11
-0.635012338476963
21
-0.3450049220625719
0
LINE
8
Polygon
10
-0.635012338476963
20
-0.3450049220625719
11
-0.6346205733441942
21
-0.34521739404856766
0
LINE
8
Polygon
10
-0.6346205733441942
20
-0.34521739404856766
11
-0.6342386642293538
21
-0.34544711059583455
0
LINE
8
Polygon
10
-0.6342386642293538
20
-0.34544711059583455
11
-0.6338673696966106
21
-0.345693615431571
0
LINE
8
Polygon
10
-0.6338673696966106
20
-0.345693615431571
11
-0.633507427226998
21
-0.3459564189373612
0
LINE
8
Polygon
10
-0.633507427226998
20
-0.3459564189373612
11
-0.6331595517535975
21
-0.3462349991216756
0
LINE
8
Polygon
10
-0.6331595517535975
20
-0.3462349991216756
11
-0.6328244342415078
21
-0.3465288026566734
0
LINE
8
Polygon
10
-0.6328244342415078
20
-0.3465288026566734
11
-0.6325027403154212
21
-0.3468372459772453
0
LINE
8
Polygon
10
-0.6325027403154212
20
-0.3468372459772453
11
-0.6321951089375311
21
-0.3471597164401156
0
LINE
8
Polygon
10
-0.6321951089375311
20
-0.3471597164401156
11
-0.6319021511383979
21
-0.34749557354070065
0
LINE
8
Polygon
10
-0.6319021511383979
20
-0.34749557354070065
11
-0.631624448803294
21
-0.347844150185306
0
LINE
8
Polygon
10
-0.631624448803294
20
-0.347844150185306
11
-0.6313625535164392
21
-0.3482047540161365
0
LINE
8
Polygon
10
-0.6313625535164392
20
-0.3482047540161365
11
-0.6311169854654195
21
-0.34857666878648685
0
LINE
8
Polygon
10
-0.6311169854654195
20
-0.34857666878648685
11
-0.6308882324079691
21
-0.34895915578338144
0
LINE
8
Polygon
10
-0.6308882324079691
20
-0.34895915578338144
11
-0.6306767487031648
21
-0.3493514552948376
0
LINE
8
Polygon
10
-0.6306767487031648
20
-0.3493514552948376
11
-0.6304829544089592
21
-0.3497527881188374
0
LINE
8
Polygon
10
-0.6304829544089592
20
-0.3497527881188374
11
-0.6303072344478429
21
-0.35016235711101296
0
LINE
8
Polygon
10
-0.6303072344478429
20
-0.35016235711101296
11
-0.6301499378422953
21
-0.3505793487679674
0
LINE
8
Polygon
10
-0.6301499378422953
20
-0.3505793487679674
11
-0.630011377021542
21
-0.3510029348430909
0
LINE
8
Polygon
10
-0.630011377021542
20
-0.3510029348430909
11
-0.6298918272009932
21
-0.351432273991659
0
LINE
8
Polygon
10
-0.6298918272009932
20
-0.351432273991659
11
-0.6297915258356004
21
-0.3518665134419473
0
LINE
8
Polygon
10
-0.6297915258356004
20
-0.3518665134419473
11
-0.6297106721482123
21
-0.3523047906890434
0
LINE
8
Polygon
10
-0.6297106721482123
20
-0.3523047906890434
11
-0.6296494267338706
21
-0.3527462352079906
0
LINE
8
Polygon
10
-0.6296494267338706
20
-0.3527462352079906
11
-0.6296079112408287
21
-0.35318997018286175
0
LINE
8
Polygon
10
-0.6296079112408287
20
-0.35318997018286175
11
-0.6295862081289293
21
-0.3536351142483285
0
LINE
8
Polygon
10
-0.6295862081289293
20
-0.3536351142483285
11
-0.6295843605058185
21
-0.3540807832402667
0
LINE
8
Polygon
10
-0.6295843605058185
20
-0.3540807832402667
11
-0.6296023720413242
21
-0.3545260919519209
0
LINE
8
Polygon
10
-0.6296023720413242
20
-0.3545260919519209
11
-0.6296402069601666
21
-0.35497015589213965
0
LINE
8
Polygon
10
-0.6296402069601666
20
-0.35497015589213965
11
-0.6296977901130166
21
-0.35541209304218957
0
LINE
8
Polygon
10
-0.6296977901130166
20
-0.35541209304218957
11
-0.6297750071257605
21
-0.3558510256076587
0
LINE
8
Polygon
10
-0.6297750071257605
20
-0.3558510256076587
11
-0.6298717046266751
21
-0.35628608176196896
0
LINE
8
Polygon
10
-0.6298717046266751
20
-0.35628608176196896
11
-0.6299876905510606
21
-0.3567163973780356
0
LINE
8
Polygon
10
-0.6299876905510606
20
-0.3567163973780356
11
-0.6301227345227285
21
-0.3571411177446329
0
LINE
8
Polygon
10
-0.6301227345227285
20
-0.3571411177446329
11
-0.6302765683115839
21
-0.35755939926405833
0
LINE
8
Polygon
10
-0.6302765683115839
20
-0.35755939926405833
11
-0.6304488863663954
21
-0.35797041112772204
0
LINE
8
Polygon
10
-0.6304488863663954
20
-0.35797041112772204
11
-0.6306393464216952
21
-0.35837333696633455
0
LINE
8
Polygon
10
-0.6306393464216952
20
-0.35837333696633455
11
-0.6308475701775998
21
-0.35876737647141416
0
LINE
8
Polygon
10
-0.6308475701775998
20
-0.35876737647141416
11
-0.6310731440512065
21
-0.3591517469848936
0
LINE
8
Polygon
10
-0.6310731440512065
20
-0.3591517469848936
11
-0.6313156199980688
21
-0.35952568505366916
0
LINE
8
Polygon
10
-0.6313156199980688
20
-0.35952568505366916
11
-0.6315745164021217
21
-0.35988844794600366
0
LINE
8
Polygon
10
-0.6315745164021217
20
-0.35988844794600366
11
-0.6318493190322879
21
-0.3602393151267717
0
LINE
8
Polygon
10
-0.6318493190322879
20
-0.3602393151267717
11
-0.6321394820638656
21
-0.3605775896886176
0
LINE
8
Polygon
10
-0.6321394820638656
20
-0.3605775896886176
11
-0.6324444291626686
21
-0.36090259973618233
0
LINE
8
Polygon
10
-0.6324444291626686
20
-0.36090259973618233
11
-0.6327635546297661
21
-0.3612136997206507
0
LINE
8
Polygon
10
-0.6327635546297661
20
-0.3612136997206507
11
-0.6330962246045475
21
-0.361510271721968
0
LINE
8
Polygon
10
-0.6334417783237236
20
-0.3617917266761791
11
-0.6352898787816577
21
-0.3632591128084556
0
LINE
8
Polygon
10
-0.6352898787816577
20
-0.3632591128084556
11
-0.6371087670349885
21
-0.3647625564840578
0
LINE
8
Polygon
10
-0.6371087670349885
20
-0.3647625564840578
11
-0.6388977396921733
21
-0.3663014762986222
0
LINE
8
Polygon
10
-0.6388977396921733
20
-0.36630147629862225
11
-0.6406561049304812
21
-0.3678752771286271
0
LINE
8
Polygon
10
-0.6406561049304812
20
-0.3678752771286271
11
-0.6423831827635327
21
-0.36948335036153535
0
LINE
8
Polygon
10
-0.6423831827635327
20
-0.36948335036153535
11
-0.6440783053042598
21
-0.37112507413115436
0
LINE
8
Polygon
10
-0.6440783053042598
20
-0.37112507413115436
11
-0.6457408170231889
21
-0.3727998135581212
0
LINE
8
Polygon
10
-0.6457408170231889
20
-0.37279981355812125
11
-0.647370075001943
21
-0.3745069209954197
0
LINE
8
Polygon
10
-0.647370075001943
20
-0.3745069209954197
11
-0.6489654491818685
21
-0.3762457362788355
0
LINE
8
Polygon
10
-0.6489654491818685
20
-0.3762457362788355
11
-0.6505263226076885
21
-0.3780155869822517
0
LINE
8
Polygon
10
-0.6505263226076885
20
-0.3780155869822517
11
-0.652052091666088
21
-0.3798157886776858
0
LINE
8
Polygon
10
-0.6520520916660881
20
-0.37981578867768584
11
-0.6535421663191414
21
-0.3816456451999688
0
LINE
8
Polygon
10
-0.6535421663191414
20
-0.3816456451999688
11
-0.654995970332488
21
-0.3835044489159622
0
LINE
8
Polygon
10
-0.654995970332488
20
-0.3835044489159622
11
-0.656412941498171
21
-0.3853914809982111
0
LINE
8
Polygon
10
-0.656412941498171
20
-0.3853914809982111
11
-0.657792531852052
21
-0.3873060117029249
0
LINE
8
Polygon
10
-0.657792531852052
20
-0.3873060117029249
11
-0.6591342078857165
21
-0.389247300652181
0
LINE
8
Polygon
10
-0.6591342078857165
20
-0.38924730065218105
11
-0.6604374507527903
21
-0.3912145971202394
0
LINE
8
Polygon
10
-0.6604374507527903
20
-0.3912145971202394
11
-0.6617017564695843
21
-0.3932071403238602
0
LINE
8
Polygon
10
-0.6617017564695843
20
-0.3932071403238602
11
-0.6629266361099937
21
-0.3952241597165097
0
LINE
8
Polygon
10
-0.6629266361099937
20
-0.3952241597165097
11
-0.6641116159945724
21
-0.39726487528634236
0
LINE
8
Polygon
10
-0.6641116159945725
20
-0.3972648752863424
11
-0.665256237873712
21
-0.3993284978578434
0
LINE
8
Polygon
10
-0.665256237873712
20
-0.3993284978578434
11
-0.6663600591048541
21
-0.4014142293970146
0
LINE
8
Polygon
10
-0.6663600591048541
20
-0.4014142293970146
11
-0.6674226528236668
21
-0.4035212633199863
0
LINE
8
Polygon
10
-0.6674226528236668
20
-0.4035212633199863
11
-0.6684436081091194
21
-0.4056487848049353
0
LINE
8
Polygon
10
-0.6684436081091194
20
-0.4056487848049353
11
-0.6694225301423922
21
-0.40779597110718924
0
LINE
8
Polygon
10
-0.6694225301423922
20
-0.4077959711071893
11
-0.6703590403595582
21
-0.4099619918773938
0
LINE
8
Polygon
10
-0.6703590403595582
20
-0.4099619918773938
11
-0.6712527765979801
21
-0.4121460094826216
0
LINE
8
Polygon
10
-0.6712527765979801
20
-0.4121460094826216
11
-0.6721033932363638
21
-0.41434717933029763
0
LINE
8
Polygon
10
-0.6721033932363638
20
-0.41434717933029763
11
-0.6729105613284155
21
-0.4165646501948158
0
LINE
8
Polygon
10
-0.6729105613284155
20
-0.41656465019481587
11
-0.67367396873005
21
-0.41879756454672085
0
LINE
8
Polygon
10
-0.67367396873005
20
-0.41879756454672085
11
-0.6743933202201018
21
-0.42104505888432747
0
LINE
8
Polygon
10
-0.6743933202201018
20
-0.42104505888432747
11
-0.675068337614491
21
-0.42330626406765015
0
LINE
8
Polygon
10
-0.675068337614491
20
-0.42330626406765015
11
-0.6756987598738023
21
-0.4255803056545123
0
LINE
8
Polygon
10
-0.6756987598738023
20
-0.4255803056545123
11
-0.6762843432042318
21
-0.4278663042387062
0
LINE
8
Polygon
10
-0.6762843432042318
20
-0.42786630423870625
11
-0.6768248611518666
21
-0.430163375790073
0
LINE
8
Polygon
10
-0.6768248611518666
20
-0.430163375790073
11
-0.677320104690257
21
-0.43247063199637
0
LINE
8
Polygon
10
-0.677320104690257
20
-0.43247063199637
11
-0.6777698823012517
21
-0.4347871806067949
0
LINE
8
Polygon
10
-0.6777698823012517
20
-0.43478718060679494
11
-0.6781740200490588
21
-0.4371121257770325
0
LINE
8
Polygon
10
-0.6781740200490588
20
-0.4371121257770325
11
-0.6785323616475111
21
-0.43944456841569096
0
LINE
8
Polygon
10
-0.6785323616475111
20
-0.43944456841569096
11
-0.6788447685205032
21
-0.4417836065319945
0
LINE
8
Polygon
10
-0.6788447685205032
20
-0.4417836065319945
11
-0.679111119855582
21
-0.44412833558459636
0
LINE
8
Polygon
10
-0.679111119855582
20
-0.44412833558459636
11
-0.6793313126506655
21
-0.446477848831379
0
LINE
8
Polygon
10
-0.6793313126506655
20
-0.446477848831379
11
-0.679505261753876
21
-0.4488312376801045
0
LINE
8
Polygon
10
-0.679505261753876
20
-0.4488312376801046
11
-0.6796328998964698
21
-0.45118759203978154
0
LINE
8
Polygon
10
-0.6796328998964698
20
-0.45118759203978154
11
-0.6797141777188505
21
-0.4535460006726106
0
LINE
8
Polygon
10
-0.6797141777188505
20
-0.4535460006726106
11
-0.6797490637896569
21
-0.4559055515463739
0
LINE
8
Polygon
10
-0.6797490637896569
20
-0.45590555154637397
11
-0.6797375446179195
21
-0.45826533218713195
0
LINE
8
Polygon
10
-0.6796796246582752
20
-0.4606244300320906
11
-0.6796624529618079
21
-0.46109664211752227
0
LINE
8
Polygon
10
-0.6796624529618079
20
-0.46109664211752227
11
-0.6796434219717515
21
-0.4615687829251261
0
LINE
8
Polygon
10
-0.6796434219717515
20
-0.4615687829251261
11
-0.6796225319831909
21
-0.46204084513412536
0
LINE
8
Polygon
10
-0.6796225319831909
20
-0.46204084513412536
11
-0.6795997833200358
21
-0.4625128214249621
0
LINE
8
Polygon
10
-0.6795997833200358
20
-0.46251282142496203
11
-0.6795751763350153
21
-0.4629847044794104
0
LINE
8
Polygon
10
-0.6795751763350153
20
-0.4629847044794104
11
-0.679548711409673
21
-0.46345648698069036
0
LINE
8
Polygon
10
-0.679548711409673
20
-0.46345648698069036
11
-0.6795203889543607
21
-0.4639281616135809
0
LINE
8
Polygon
10
-0.6795203889543607
20
-0.46392816161358086
11
-0.679490209408232
21
-0.46439972106453353
0
LINE
8
Polygon
10
-0.679490209408232
20
-0.46439972106453353
11
-0.6794581732392356
21
-0.4648711580217859
0
LINE
8
Polygon
10
-0.6794581732392356
20
-0.4648711580217859
11
-0.6794242809441083
21
-0.46534246517547484
0
LINE
8
Polygon
10
-0.6794242809441083
20
-0.4653424651754748
11
-0.6793885330483669
21
-0.46581363521774977
0
LINE
8
Polygon
10
-0.6793885330483669
20
-0.46581363521774977
11
-0.6793509301063001
21
-0.4662846608428863
0
LINE
8
Polygon
10
-0.6793509301063001
20
-0.4662846608428863
11
-0.6793114727009602
21
-0.4667555347473991
0
LINE
8
Polygon
10
-0.6793114727009602
20
-0.46675553474739906
11
-0.6792701614441535
21
-0.4672262496301555
0
LINE
8
Polygon
10
-0.6792701614441535
20
-0.4672262496301555
11
-0.6792269969764319
21
-0.4676967981924885
0
LINE
8
Polygon
10
-0.6792269969764319
20
-0.46769679819248844
11
-0.6791819799670815
21
-0.46816717313830986
0
LINE
8
Polygon
10
-0.6791819799670815
20
-0.46816717313830986
11
-0.6791351111141134
21
-0.4686373671742235
0
LINE
8
Polygon
10
-0.6791351111141134
20
-0.4686373671742235
11
-0.6790863911442524
21
-0.46910737300963845
0
LINE
8
Polygon
10
-0.6790863911442524
20
-0.4691073730096384
11
-0.6790358208129257
21
-0.46957718335688164
0
LINE
8
Polygon
10
-0.6790358208129257
20
-0.46957718335688164
11
-0.6789834009042511
21
-0.4700467909313115
0
LINE
8
Polygon
10
-0.6789834009042511
20
-0.47004679093131146
11
-0.6789291322310255
21
-0.47051618845143023
0
LINE
8
Polygon
10
-0.6789291322310255
20
-0.47051618845143023
11
-0.6788730156347114
21
-0.4709853686389973
0
LINE
8
Polygon
10
-0.6788730156347114
20
-0.4709853686389973
11
-0.6788150519854242
21
-0.4714543242191418
0
LINE
8
Polygon
10
-0.6788150519854242
20
-0.47145432421914174
11
-0.6787552421819192
21
-0.4719230479204755
0
LINE
8
Polygon
10
-0.6787552421819192
20
-0.4719230479204755
11
-0.6786935871515769
21
-0.47239153247520577
0
LINE
8
Polygon
10
-0.6786935871515769
20
-0.47239153247520577
11
-0.6786300878503889
21
-0.4728597706192479
0
LINE
8
Polygon
10
-0.6786300878503889
20
-0.47285977061924783
11
-0.6785647452629435
21
-0.47332775509233777
0
LINE
8
Polygon
10
-0.6785647452629435
20
-0.47332775509233777
11
-0.6784975604024097
21
-0.4737954786381449
0
LINE
8
Polygon
10
-0.6784975604024097
20
-0.4737954786381449
11
-0.678428534310522
21
-0.47426293400438435
0
LINE
8
Polygon
10
-0.678428534310522
20
-0.4742629340043843
11
-0.6783576680575639
21
-0.4747301139429294
0
LINE
8
Polygon
10
-0.6783576680575639
20
-0.4747301139429294
11
-0.6782849627423521
21
-0.4751970112099243
0
LINE
8
Polygon
10
-0.6782849627423521
20
-0.47519701120992425
11
-0.6782104194922182
21
-0.47566361856589584
0
LINE
8
Polygon
10
-0.6782104194922182
20
-0.47566361856589584
11
-0.6781340394629921
21
-0.47612992877586635
0
LINE
8
Polygon
10
-0.6781340394629921
20
-0.47612992877586635
11
-0.6780558238389841
21
-0.4765959346094655
0
LINE
8
Polygon
10
-0.6780558238389841
20
-0.4765959346094654
11
-0.677975773832966
21
-0.47706162884104214
0
LINE
8
Polygon
10
-0.677975773832966
20
-0.47706162884104214
11
-0.6778938906861528
21
-0.4775270042497772
0
LINE
8
Polygon
10
-0.6778938906861528
20
-0.4775270042497771
11
-0.6778101756681831
21
-0.47799205361979463
0
LINE
8
Polygon
10
-0.6778101756681831
20
-0.47799205361979463
11
-0.6777246300770998
21
-0.4784567697402742
0
LINE
8
Polygon
10
-0.6777246300770998
20
-0.4784567697402742
11
-0.6776372552393295
21
-0.47892114540556247
0
LINE
8
Polygon
10
-0.6776372552393295
20
-0.4789211454055624
11
-0.6775480525096622
21
-0.47938517341528514
0
LINE
8
Polygon
10
-0.6775480525096622
20
-0.47938517341528514
11
-0.6774570232712305
21
-0.4798488465744586
0
LINE
8
Polygon
10
-0.6774570232712305
20
-0.4798488465744586
11
-0.6773641689354875
21
-0.4803121576936011
0
LINE
8
Polygon
10
-0.6773641689354875
20
-0.480312157693601
11
-0.6772694909421858
21
-0.48077509958884457
0
LINE
8
Polygon
10
-0.6772694909421858
20
-0.48077509958884457
11
-0.6771729907593546
21
-0.48123766508204624
0
LINE
8
Polygon
10
-0.6771729907593546
20
-0.48123766508204624
11
-0.6770746698832766
21
-0.4816998470008992
0
LINE
8
Polygon
10
-0.6770746698832766
20
-0.48169984700089913
11
-0.676974529838466
21
-0.4821616381790442
0
LINE
8
Polygon
10
-0.676974529838466
20
-0.4821616381790442
11
-0.6768725721776434
21
-0.4826230314561809
0
LINE
8
Polygon
10
-0.6767687984817129
20
-0.4830840196781782
11
-0.6767318455407799
21
-0.48326616956839613
0
LINE
8
Polygon
10
-0.6767318455407799
20
-0.48326616956839613
11
-0.6767033938208183
21
-0.48344983938622477
0
LINE
8
Polygon
10
-0.6767033938208183
20
-0.48344983938622477
11
-0.6766835047492737
21
-0.4836346325873526
0
LINE
8
Polygon
10
-0.6766835047492737
20
-0.4836346325873526
11
-0.6766722212667787
21
-0.4838201502020763
0
LINE
8
Polygon
10
-0.6766722212667787
20
-0.4838201502020763
11
-0.6766695677344441
21
-0.48400599169667896
0
LINE
8
Polygon
10
-0.6766695677344441
20
-0.48400599169667896
11
-0.6766755498812632
21
-0.48419175583818486
0
LINE
8
Polygon
10
-0.6766755498812632
20
-0.48419175583818486
11
-0.6766901547917428
21
-0.48437704156062417
0
LINE
8
Polygon
10
-0.6766901547917428
20
-0.48437704156062417
11
-0.6767133509337877
21
-0.484561448830937
0
LINE
8
Polygon
10
-0.6767133509337877
20
-0.484561448830937
11
-0.6767450882267789
21
-0.484744579512647
0
LINE
8
Polygon
10
-0.6767450882267789
20
-0.484744579512647
11
-0.6767852981496979
21
-0.48492603822544095
0
LINE
8
Polygon
10
-0.6767852981496979
20
-0.48492603822544095
11
-0.6768338938890637
21
-0.4851054331987972
0
LINE
8
Polygon
10
-0.6768338938890637
20
-0.4851054331987972
11
-0.6768907705263643
21
-0.4852823771178206
0
LINE
8
Polygon
10
-0.6768907705263643
20
-0.4852823771178206
11
-0.6769558052645758
21
-0.48545648795945817
0
LINE
8
Polygon
10
-0.6769558052645758
20
-0.48545648795945817
11
-0.6770288576932825
21
-0.48562738981728903
0
LINE
8
Polygon
10
-0.6770288576932825
20
-0.48562738981728903
11
-0.6771097700918235
21
-0.4857947137131089
0
LINE
8
Polygon
10
-0.6771097700918235
20
-0.4857947137131089
11
-0.6771983677698127
21
-0.4859580983935563
0
LINE
8
Polygon
10
-0.6771983677698127
20
-0.4859580983935563
11
-0.6772944594442966
21
-0.4861171911100611
0
LINE
8
Polygon
10
-0.6772944594442966
20
-0.4861171911100611
11
-0.6773978376527353
21
-0.4862716483804305
0
LINE
8
Polygon
10
-0.6773978376527353
20
-0.4862716483804305
11
-0.6775082792009156
21
-0.4864211367304299
0
LINE
8
Polygon
10
-0.6775082792009156
20
-0.4864211367304299
11
-0.6776255456448282
21
-0.4865653334137553
0
LINE
8
Polygon
10
-0.6776255456448282
20
-0.4865653334137553
11
-0.6777493838054709
21
-0.4867039271088451
0
LINE
8
Polygon
10
-0.6777493838054709
20
-0.4867039271088451
11
-0.6778795263154626
21
-0.48683661859102484
0
LINE
8
Polygon
10
-0.6778795263154626
20
-0.48683661859102484
11
-0.6780156921962915
21
-0.48696312137853587
0
LINE
8
Polygon
10
-0.6780156921962915
20
-0.48696312137853587
11
-0.6781575874649501
21
-0.4870831623510506
0
LINE
8
Polygon
10
-0.6781575874649501
20
-0.4870831623510506
11
-0.6783049057686457
21
-0.48719648233934154
0
LINE
8
Polygon
10
-0.6783049057686457
20
-0.48719648233934154
11
-0.678457329046218
21
-0.4873028366848291
0
LINE
8
Polygon
10
-0.678457329046218
20
-0.4873028366848291
11
-0.6786145282148359
21
-0.487401995767801
0
LINE
8
Polygon
10
-0.6786145282148359
20
-0.487401995767801
11
-0.6787761638804887
21
-0.4874937455031629
0
LINE
8
Polygon
10
-0.6787761638804887
20
-0.4874937455031629
11
-0.6789418870707403
21
-0.48757788780264905
0
LINE
8
Polygon
10
-0.6789418870707403
20
-0.48757788780264905
11
-0.6791113399881629
21
-0.4876542410024967
0
LINE
8
Polygon
10
-0.6791113399881629
20
-0.4876542410024967
11
-0.6792841567828236
21
-0.48772264025565903
0
LINE
8
Polygon
10
-0.6792841567828236
20
-0.48772264025565903
11
-0.6794599643421575
21
-0.4877829378877108
0
LINE
8
Polygon
10
-0.6794599643421575
20
-0.4877829378877108
11
-0.6796383830965191
21
-0.48783500371567884
0
LINE
8
Polygon
10
-0.6796383830965191
20
-0.48783500371567884
11
-0.6798190278386768
21
-0.48787872532910737
0
LINE
8
Polygon
10
-0.6798190278386768
20
-0.48787872532910737
11
-0.6800015085554765
21
-0.4879140083327534
0
LINE
8
Polygon
10
-0.6800015085554765
20
-0.4879140083327534
11
-0.6801854312698832
21
-0.48794077655038626
0
LINE
8
Polygon
10
-0.6801854312698832
20
-0.48794077655038626
11
-0.6803703988915801
21
-0.48795897218925294
0
LINE
8
Polygon
10
-0.6803703988915801
20
-0.48795897218925294
11
-0.6805560120742887
21
-0.4879685559648527
0
LINE
8
Polygon
10
-0.6805560120742887
20
-0.4879685559648527
11
-0.6807418700779604
21
-0.48796950718575277
0
LINE
8
Polygon
10
-0.6807418700779604
20
-0.48796950718575277
11
-0.680927571633976
21
-0.4879618237982611
0
LINE
8
Polygon
10
-0.680927571633976
20
-0.4879618237982611
11
-0.6811127158114884
21
-0.48794552239086036
0
LINE
8
Polygon
10
-0.6811127158114884
20
-0.48794552239086036
11
-0.6812969028830339
21
-0.4879206381583935
0
LINE
8
Polygon
10
-0.6812969028830339
20
-0.4879206381583935
11
-0.6814797351875469
21
-0.48788722482607755
0
LINE
8
Polygon
10
-0.6814797351875469
20
-0.48788722482607755
11
-0.6816608179889124
21
-0.48784535453351074
0
LINE
8
Polygon
10
-0.6816608179889124
20
-0.48784535453351074
11
-0.6818397603282038
21
-0.4877951176789226
0
LINE
8
Polygon
10
-0.6818397603282038
20
-0.4877951176789226
11
-0.6820161758677659
21
-0.4877366227240035
0
LINE
8
Polygon
10
-0.6820161758677659
20
-0.4877366227240035
11
-0.6821896837253204
21
-0.48766999595973526
0
LINE
8
Polygon
10
-0.6823599092962926
20
-0.48759538123372825
11
-0.6841853007384103
21
-0.48685135287943504
0
LINE
8
Polygon
10
-0.6841853007384103
20
-0.48685135287943504
11
-0.6860750685432258
21
-0.4862906303519478
0
LINE
8
Polygon
10
-0.6860750685432258
20
-0.4862906303519478
11
-0.6880108553545868
21
-0.4859186605549091
0
LINE
8
Polygon
10
-0.6880108553545868
20
-0.4859186605549091
11
-0.6899738567840179
21
-0.48573905683278634
0
LINE
8
Polygon
10
-0.6899738567840179
20
-0.48573905683278634
11
-0.6919450040780585
21
-0.48575356387055335
0
LINE
8
Polygon
10
-0.6919450040780585
20
-0.48575356387055335
11
-0.6939051493536659
21
-0.4859620407456807
0
LINE
8
Polygon
10
-0.6939051493536659
20
-0.4859620407456807
11
-0.695835251602287
21
-0.4863624622970686
0
LINE
8
Polygon
10
-0.695835251602287
20
-0.4863624622970686
11
-0.6977165616557451
21
-0.486950938797624
0
LINE
8
Polygon
10
-0.6977165616557451
20
-0.486950938797624
11
-0.6995308043171637
21
-0.4877217537393821
0
LINE
8
Polygon
10
-0.6995308043171637
20
-0.4877217537393821
11
-0.7012603558876961
21
-0.48866741936412356
0
LINE
8
Polygon
10
-0.7012603558876961
20
-0.48866741936412356
11
-0.7028884153645508
21
-0.4897787494000588
0
LINE
8
Polygon
10
-0.7028884153645509
20
-0.4897787494000588
11
-0.7043991676472818
21
-0.49104494829800965
0
LINE
8
Polygon
10
-0.7043991676472818
20
-0.49104494829800965
11
-0.7057779371669427
21
-0.4924537161002406
0
LINE
8
Polygon
10
-0.7057779371669427
20
-0.4924537161002406
11
-0.7070113304457425
21
-0.49399136792323567
0
LINE
8
Polygon
10
-0.7070113304457425
20
-0.49399136792323567
11
-0.7080873662023636
21
-0.4956429668937553
0
LINE
8
Polygon
10
-0.7080873662023636
20
-0.4956429668937553
11
-0.70899559173909
21
-0.4973924692468221
0
LINE
8
Polygon
10
-0.70899559173909
20
-0.4973924692468221
11
-0.7097271844801528
21
-0.49922288017614175
0
LINE
8
Polygon
10
-0.7097271844801528
20
-0.49922288017614175
11
-0.7102750376749386
21
-0.5011164189230154
0
LINE
8
Polygon
10
-0.7102750376749386
20
-0.5011164189230154
11
-0.7106338294335356
21
-0.503054691500057
0
LINE
8
Polygon
10
-0.7106338294335356
20
-0.503054691500057
11
-0.7108000744239998
21
-0.5050188693718634
0
LINE
8
Polygon
10
-0.7108000744239998
20
-0.5050188693718634
11
-0.7107721577291491
21
-0.5069898723569187
0
LINE
8
Polygon
10
-0.7107721577291491
20
-0.5069898723569187
11
-0.7105503505339981
21
-0.5089485539740092
0
LINE
8
Polygon
10
-0.7105503505339981
20
-0.5089485539740092
11
-0.7101368074914454
21
-0.5108758874326781
0
LINE
8
Polygon
10
-0.7101368074914454
20
-0.5108758874326781
11
-0.7095355457918024
21
-0.5127531504609965
0
LINE
8
Polygon
10
-0.7095355457918024
20
-0.5127531504609965
11
-0.7087524061394845
21
-0.5145621071752149
0
LINE
8
Polygon
10
-0.7087524061394845
20
-0.5145621071752149
11
-0.7077949960159384
21
-0.5162851852246021
0
LINE
8
Polygon
10
-0.7077949960159384
20
-0.5162851852246021
11
-0.7066726157799581
21
-0.5179056464906708
0
LINE
8
Polygon
10
-0.7066726157799581
20
-0.5179056464906708
11
-0.7053961683232518
21
-0.5194077496826043
0
LINE
8
Polygon
10
-0.7053961683232518
20
-0.5194077496826043
11
-0.7039780531588775
21
-0.5207769032494186
0
LINE
8
Polygon
10
-0.7039780531588775
20
-0.5207769032494186
11
-0.7024320459713773
21
-0.5219998071234604
0
LINE
8
Polygon
10
-0.7024320459713773
20
-0.5219998071234604
11
-0.7007731647986725
21
-0.523064581918332
0
LINE
8
Polygon
10
-0.7007731647986725
20
-0.523064581918332
11
-0.6990175241456369
21
-0.5239608843262041
0
LINE
8
Polygon
10
-0.6990175241456369
20
-0.5239608843262041
11
-0.6971821784465035
21
-0.5246800075935382
0
LINE
8
Polygon
10
-0.6971821784465035
20
-0.5246800075935382
11
-0.6952849563967213
21
-0.5252149660991895
0
LINE
8
Polygon
10
-0.6952849563967213
20
-0.5252149660991895
11
-0.6933442877635764
21
-0.525560563213292
0
LINE
8
Polygon
10
-0.6933442877635764
20
-0.525560563213292
11
-0.6913790243579532
21
-0.5257134417777374
0
LINE
8
Polygon
10
-0.6913790243579532
20
-0.5257134417777374
11
-0.6894082569063302
21
-0.5256721167178785
0
LINE
8
Polygon
10
-0.6894082569063302
20
-0.5256721167178785
11
-0.6874511296019309
21
-0.5254369894686642
0
LINE
8
Polygon
10
-0.6874511296019309
20
-0.5254369894686642
11
-0.6855266541364933
21
-0.5250103440750676
0
LINE
8
Polygon
10
-0.6855266541364933
20
-0.5250103440750676
11
-0.6836535250191709
21
-0.52439632500469
0
LINE
8
Polygon
10
-0.6836535250191709
20
-0.52439632500469
11
-0.6818499379765698
21
-0.5236008968880698
0
LINE
8
Polygon
10
-0.6818499379765698
20
-0.5236008968880698
11
-0.6801334131980001
21
-0.5226317865777825
0
LINE
8
Polygon
10
-0.6801334131980001
20
-0.5226317865777825
11
-0.6785206251429504
21
-0.5214984080891752
0
LINE
8
Polygon
10
-0.6785206251429505
20
-0.5214984080891752
11
-0.6770272405640498
21
-0.5202117711518652
0
LINE
8
Polygon
10
-0.6770272405640498
20
-0.5202117711518652
11
-0.6756677663189752
21
-0.5187843742603431
0
LINE
8
Polygon
10
-0.6756677663189752
20
-0.5187843742603431
11
-0.6744554084496714
21
-0.5172300832625933
0
LINE
8
Polygon
10
-0.6744554084496714
20
-0.5172300832625933
11
-0.6734019438977997
21
-0.515563996666135
0
LINE
8
Polygon
10
-0.6725176061025812
20
-0.5138022989699066
11
-0.6724385811839073
21
-0.5136340754145448
0
LINE
8
Polygon
10
-0.6724385811839073
20
-0.5136340754145448
11
-0.6723518271567486
21
-0.5134697043674539
0
LINE
8
Polygon
10
-0.6723518271567486
20
-0.5134697043674539
11
-0.6722575313236047
21
-0.5133095407067763
0
LINE
8
Polygon
10
-0.6722575313236047
20
-0.5133095407067763
11
-0.6721558972697825
21
-0.5131539302268796
0
LINE
8
Polygon
10
-0.6721558972697825
20
-0.5131539302268796
11
-0.6720471444238544
21
-0.5130032088917855
0
LINE
8
Polygon
10
-0.6720471444238544
20
-0.5130032088917855
11
-0.6719315075839104
21
-0.5128577021098207
0
LINE
8
Polygon
10
-0.6719315075839104
20
-0.5128577021098207
11
-0.6718092364106277
21
-0.5127177240310582
0
LINE
8
Polygon
10
-0.6718092364106277
20
-0.5127177240310582
11
-0.6716805948882516
21
-0.5125835768690653
0
LINE
8
Polygon
10
-0.6716805948882516
20
-0.5125835768690653
11
-0.6715458607546517
21
-0.512455550248423
0
LINE
8
Polygon
10
-0.6715458607546517
20
-0.512455550248423
11
-0.6714053249016845
21
-0.5123339205794243
0
LINE
8
Polygon
10
-0.6714053249016845
20
-0.5123339205794243
11
-0.6712592907471553
21
-0.5122189504613025
0
LINE
8
Polygon
10
-0.6712592907471553
20
-0.5122189504613025
11
-0.671108073579738
21
-0.5121108881152782
0
LINE
8
Polygon
10
-0.671108073579738
20
-0.5121108881152782
11
-0.6709519998782645
21
-0.5120099668486475
0
LINE
8
Polygon
10
-0.6709519998782645
20
-0.5120099668486475
11
-0.6707914066068544
21
-0.5119164045510709
0
LINE
8
Polygon
10
-0.6707914066068544
20
-0.5119164045510709
11
-0.6706266404874083
21
-0.5118304032241472
0
LINE
8
Polygon
10
-0.6706266404874083
20
-0.5118304032241472
11
-0.6704580572510318
21
-0.5117521485452915
0
LINE
8
Polygon
10
-0.6704580572510318
20
-0.5117521485452915
11
-0.6702860208700108
21
-0.5116818094668559
0
LINE
8
Polygon
10
-0.6702860208700108
20
-0.5116818094668559
11
-0.6701109027719923
21
-0.5116195378513607
0
LINE
8
Polygon
10
-0.6701109027719923
20
-0.5116195378513607
11
-0.6699330810380701
21
-0.5115654681436222
0
LINE
8
Polygon
10
-0.6699330810380701
20
-0.5115654681436222
11
-0.6697529395865055
21
-0.5115197170804853
0
LINE
8
Polygon
10
-0.6697529395865055
20
-0.5115197170804853
11
-0.6695708673438445
21
-0.5114823834387878
0
LINE
8
Polygon
10
-0.6695708673438445
20
-0.5114823834387878
11
-0.6693872574052239
21
-0.5114535478221012
0
LINE
8
Polygon
10
-0.6693872574052239
20
-0.5114535478221012
11
-0.6692025061856756
21
-0.5114332724867061
0
LINE
8
Polygon
10
-0.6692025061856756
20
-0.5114332724867061
11
-0.6690170125642643
21
-0.5114216012071815
0
LINE
8
Polygon
10
-0.6690170125642643
20
-0.5114216012071815
11
-0.6688311770229055
21
-0.5114185591818945
0
LINE
8
Polygon
10
-0.6688311770229054
20
-0.5114185591818945
11
-0.6686454007817215
21
-0.5114241529785972
0
LINE
8
Polygon
10
-0.6686454007817215
20
-0.5114241529785972
11
-0.6684600849328056
21
-0.5114383705202467
0
LINE
8
Polygon
10
-0.6684600849328056
20
-0.5114383705202467
11
-0.6682756295742609
21
-0.5114611811110795
0
LINE
8
Polygon
10
-0.6682756295742609
20
-0.5114611811110795
11
-0.6680924329463865
21
-0.5114925355028844
0
LINE
8
Polygon
10
-0.6680924329463865
20
-0.5114925355028844
11
-0.6679108905718739
21
-0.5115323660013286
0
LINE
8
Polygon
10
-0.6679108905718739
20
-0.5115323660013286
11
-0.667731394401871
21
-0.5115805866121114
0
LINE
8
Polygon
10
-0.667731394401871
20
-0.5115805866121114
11
-0.667554331969757
21
-0.5116370932266254
0
LINE
8
Polygon
10
-0.667554331969757
20
-0.5116370932266254
11
-0.6673800855544554
21
-0.5117017638467287
0
LINE
8
Polygon
10
-0.6673800855544554
20
-0.5117017638467287
11
-0.6672090313550916
21
-0.5117744588481385
0
LINE
8
Polygon
10
-0.6672090313550916
20
-0.5117744588481385
11
-0.6670415386787761
21
-0.5118550212818821
0
LINE
8
Polygon
10
-0.6670415386787761
20
-0.5118550212818821
11
-0.6668779691432687
21
-0.5119432772131494
0
LINE
8
Polygon
10
-0.6668779691432687
20
-0.5119432772131494
11
-0.6667186758962427
21
-0.5120390360968203
0
LINE
8
Polygon
10
-0.6667186758962427
20
-0.5120390360968203
11
-0.6665640028528375
21
-0.5121420911888525
0
LINE
8
Polygon
10
-0.6665640028528375
20
-0.5121420911888525
11
-0.6664142839531432
21
-0.5122522199926429
0
LINE
8
Polygon
10
-0.6664142839531432
20
-0.5122522199926429
11
-0.666269842441222
21
-0.5123691847393999
0
LINE
8
Polygon
10
-0.666269842441222
20
-0.5123691847393999
11
-0.6661309901672221
21
-0.5124927329014867
0
LINE
8
Polygon
10
-0.6661309901672221
20
-0.5124927329014867
11
-0.6659980269140913
21
-0.5126225977376313
0
LINE
8
Polygon
10
-0.6659980269140913
20
-0.5126225977376313
11
-0.6658712397503436
21
-0.5127584988688216
0
LINE
8
Polygon
10
-0.6658712397503436
20
-0.5127584988688216
11
-0.6657509024102767
21
-0.512900142883646
0
LINE
8
Polygon
10
-0.6657509024102767
20
-0.512900142883646
11
-0.6656372747029774
21
-0.5130472239717706
0
LINE
8
Polygon
10
-0.6656372747029774
20
-0.5130472239717706
11
-0.6655306019513928
21
-0.5131994245841851
0
LINE
8
Polygon
10
-0.6655306019513928
20
-0.5131994245841851
11
-0.6654311144626759
21
-0.5133564161187938
0
LINE
8
Polygon
10
-0.6653390270309512
20
-0.5135178596298692
11
-0.6651136883707524
21
-0.5139331927600276
0
LINE
8
Polygon
10
-0.6651136883707524
20
-0.5139331927600276
11
-0.6648867160027538
21
-0.5143476353555128
0
LINE
8
Polygon
10
-0.6648867160027538
20
-0.5143476353555126
11
-0.6646581134462745
21
-0.5147611809901873
0
LINE
8
Polygon
10
-0.6646581134462745
20
-0.5147611809901873
11
-0.6644278842459097
21
-0.5151738232518217
0
LINE
8
Polygon
10
-0.6644278842459097
20
-0.5151738232518216
11
-0.6641960319714774
21
-0.5155855557421936
0
LINE
8
Polygon
10
-0.6641960319714774
20
-0.5155855557421936
11
-0.6639625602179615
21
-0.5159963720771872
0
LINE
8
Polygon
10
-0.6639625602179615
20
-0.5159963720771872
11
-0.6637274726054572
21
-0.516406265886892
0
LINE
8
Polygon
10
-0.6637274726054572
20
-0.516406265886892
11
-0.663490772779114
21
-0.5168152308157018
0
LINE
8
Polygon
10
-0.663490772779114
20
-0.5168152308157018
11
-0.6632524644090798
21
-0.5172232605224132
0
LINE
8
Polygon
10
-0.6632524644090798
20
-0.5172232605224132
11
-0.6630125511904439
21
-0.5176303486803238
0
LINE
8
Polygon
10
-0.6630125511904439
20
-0.5176303486803238
11
-0.6627710368431791
21
-0.5180364889773303
0
LINE
8
Polygon
10
-0.6627710368431791
20
-0.5180364889773303
11
-0.662527925112085
21
-0.5184416751160269
0
LINE
8
Polygon
10
-0.662527925112085
20
-0.5184416751160268
11
-0.6622832197667291
21
-0.5188459008138017
0
LINE
8
Polygon
10
-0.6622832197667291
20
-0.5188459008138017
11
-0.6620369246013889
21
-0.5192491598029356
0
LINE
8
Polygon
10
-0.6620369246013889
20
-0.5192491598029356
11
-0.6617890434349926
21
-0.5196514458306987
0
LINE
8
Polygon
10
-0.6617890434349926
20
-0.5196514458306987
11
-0.6615395801110603
21
-0.520052752659447
0
LINE
8
Polygon
10
-0.6615395801110603
20
-0.520052752659447
11
-0.6612885384976442
21
-0.5204530740667197
0
LINE
8
Polygon
10
-0.6612885384976444
20
-0.5204530740667196
11
-0.6610359224872688
21
-0.5208524038453354
0
LINE
8
Polygon
10
-0.6610359224872688
20
-0.5208524038453354
11
-0.6607817359968701
21
-0.5212507358034885
0
LINE
8
Polygon
10
-0.6607817359968701
20
-0.5212507358034885
11
-0.6605259829677352
21
-0.521648063764845
0
LINE
8
Polygon
10
-0.6605259829677352
20
-0.521648063764845
11
-0.6602686673654417
21
-0.5220443815686383
0
LINE
8
Polygon
10
-0.6602686673654417
20
-0.5220443815686383
11
-0.6600097931797948
21
-0.5224396830697651
0
LINE
8
Polygon
10
-0.6600097931797948
20
-0.522439683069765
11
-0.6597493644247671
21
-0.5228339621388798
0
LINE
8
Polygon
10
-0.6597493644247671
20
-0.5228339621388798
11
-0.659487385138435
21
-0.5232272126624907
0
LINE
8
Polygon
10
-0.659487385138435
20
-0.5232272126624906
11
-0.6592238593829169
21
-0.5236194285430539
0
LINE
8
Polygon
10
-0.6592238593829169
20
-0.5236194285430539
11
-0.6589587912443102
21
-0.5240106036990683
0
LINE
8
Polygon
10
-0.6589587912443102
20
-0.5240106036990683
11
-0.6586921848326273
21
-0.5244007320651696
0
LINE
8
Polygon
10
-0.6586921848326273
20
-0.5244007320651695
11
-0.6584240442817323
21
-0.5247898075922245
0
LINE
8
Polygon
10
-0.6584240442817323
20
-0.5247898075922245
11
-0.6581543737492772
21
-0.5251778242474247
0
LINE
8
Polygon
10
-0.6581543737492772
20
-0.5251778242474247
11
-0.6578831774166369
21
-0.5255647760143799
0
LINE
8
Polygon
10
-0.657883177416637
20
-0.5255647760143799
11
-0.6576104594888449
21
-0.5259506568932119
0
LINE
8
Polygon
10
-0.6576104594888449
20
-0.5259506568932119
11
-0.6573362241945271
21
-0.5263354609006465
0
LINE
8
Polygon
10
-0.6573362241945272
20
-0.5263354609006465
11
-0.6570604757858377
21
-0.5267191820701076
0
LINE
8
Polygon
10
-0.6570604757858377
20
-0.5267191820701076
11
-0.6567832185383919
21
-0.5271018144518085
0
LINE
8
Polygon
10
-0.6567832185383919
20
-0.5271018144518085
11
-0.6565044567512006
21
-0.5274833521128449
0
LINE
8
Polygon
10
-0.6565044567512006
20
-0.5274833521128449
11
-0.656224194746603
21
-0.5278637891372869
0
LINE
8
Polygon
10
-0.656224194746603
20
-0.5278637891372869
11
-0.6559424368702002
21
-0.5282431196262702
0
LINE
8
Polygon
10
-0.6559424368702002
20
-0.5282431196262701
11
-0.6556591874907872
21
-0.528621337698088
0
LINE
8
Polygon
10
-0.6556591874907872
20
-0.528621337698088
11
-0.655374451000286
21
-0.5289984374882819
0
LINE
8
Polygon
10
-0.655374451000286
20
-0.5289984374882819
11
-0.6550882318136765
21
-0.5293744131497334
0
LINE
8
Polygon
10
-0.6550882318136765
20
-0.5293744131497334
11
-0.6548005343689287
21
-0.5297492588527539
0
LINE
8
Polygon
10
-0.6548005343689287
20
-0.5297492588527539
11
-0.6545113631269338
21
-0.5301229687851754
0
LINE
8
Polygon
10
-0.6545113631269339
20
-0.5301229687851754
11
-0.654220722571435
21
-0.5304955371524406
0
LINE
8
Polygon
10
-0.654220722571435
20
-0.5304955371524406
11
-0.6539286172089577
21
-0.5308669581776927
0
LINE
8
Polygon
10
-0.6539286172089577
20
-0.5308669581776927
11
-0.65363505156874
21
-0.5312372261018651
0
LINE
8
Polygon
10
-0.65363505156874
20
-0.531237226101865
11
-0.6533400302026624
21
-0.5316063351837703
0
LINE
8
Polygon
10
-0.6533400302026624
20
-0.5316063351837703
11
-0.653043557685177
21
-0.5319742797001898
0
LINE
8
Polygon
10
-0.6527456386132368
20
-0.5323410539459619
11
-0.4667554307749565
21
-0.3806583502903593
0
LINE
8
Polygon
10
-0.9737947291879736
20
-1.0431641075223868
11
1.0431641075223865
21
-0.9737947291879736
0
LINE
8
Polygon
10
1.0431641075223865
20
-0.9737947291879736
11
0.9737947291879736
21
1.0431641075223868
0
LINE
8
Polygon
10
0.9737947291879736
20
1.0431641075223868
11
-1.0431641075223865
21
0.9737947291879736
0
ENDSEC
0
EOF
