0
SECTION
2
ENTITIES
0
LINE
8
Polygon
10
-46.675543077495654
20
-38.06583502903593
11
-46.82647657012586
21
-37.88443476872581
0
LINE
8
Polygon
10
-46.82647657012586
20
-37.88443476872581
11
-46.98094795553814
21
-37.70603755819003
0
LINE
8
Polygon
10
-46.98094795553814
20
-37.70603755819003
11
-47.13889749731604
21
-37.530712386322755
0
LINE
8
Polygon
10
-47.13889749731604
20
-37.530712386322755
11
-47.30026411398755
21
-37.35852705401444
0
LINE
8
Polygon
10
-47.30026411398755
20
-37.35852705401444
11
-47.46498540264623
21
-37.18954814793217
0
LINE
8
Polygon
10
-47.46498540264623
20
-37.18954814793217
11
-47.63299766308332
21
-37.023841014769616
0
LINE
8
Polygon
10
-47.63299766308332
20
-37.023841014769616
11
-47.80423592242163
21
-36.86146973597647
0
LINE
8
Polygon
10
-47.80423592242163
20
-36.86146973597647
11
-47.97863396024148
21
-36.70249710297719
0
LINE
8
Polygon
10
-47.97863396024148
20
-36.70249710297719
11
-48.15612433418915
21
-36.546984592888606
0
LINE
8
Polygon
10
-48.15612433418915
20
-36.546984592888606
11
-48.33663840605787
21
-36.39499234474579
0
LINE
8
Polygon
10
-48.33663840605787
20
-36.39499234474579
11
-48.52010636833125
21
-36.24657913624536
0
LINE
8
Polygon
10
-48.52010636833125
20
-36.24657913624536
11
-48.70645727117887
21
-36.10180236101531
0
LINE
8
Polygon
10
-48.70645727117887
20
-36.10180236101531
11
-48.895619049893696
21
-35.96071800641998
0
LINE
8
Polygon
10
-48.895619049893696
20
-35.96071800641998
11
-49.08751855276055
21
-35.82338063190893
0
LINE
8
Polygon
10
-49.08751855276056
20
-35.82338063190893
11
-49.28208156934502
21
-35.689843347917936
0
LINE
8
Polygon
10
-49.28208156934502
20
-35.689843347917936
11
-49.47923285919169
21
-35.56015779533043
0
LINE
8
Polygon
10
-49.47923285919169
20
-35.56015779533043
11
-49.678896180920866
21
-35.434374125507176
0
LINE
8
Polygon
10
-49.678896180920866
20
-35.434374125507176
11
-49.880994321712166
21
-35.31254098089194
0
LINE
8
Polygon
10
-49.880994321712166
20
-35.31254098089194
11
-50.085449127163926
21
-35.19470547620079
0
LINE
8
Polygon
10
-50.085449127163926
20
-35.19470547620079
11
-50.2921815315167
21
-35.08091318020209
0
LINE
8
Polygon
10
-50.2921815315167
20
-35.08091318020208
11
-50.501111588229165
21
-34.971208098094344
0
LINE
8
Polygon
10
-50.501111588229165
20
-34.971208098094344
11
-50.71215850089463
21
-34.8656326544888
0
LINE
8
Polygon
10
-50.71215850089463
20
-34.8656326544888
11
-50.9252406544863
21
-34.76422767700311
0
LINE
8
Polygon
10
-50.9252406544863
20
-34.76422767700311
11
-51.14027564691895
21
-34.66703238047275
0
LINE
8
Polygon
10
-51.14027564691895
20
-34.66703238047275
11
-51.35718032091513
21
-34.57408435178603
0
LINE
8
Polygon
10
-51.35718032091513
20
-34.57408435178602
11
-51.57587079616328
21
-34.48541953534865
0
LINE
8
Polygon
10
-51.57587079616328
20
-34.48541953534865
11
-51.796262501755564
21
-34.40107221918351
0
LINE
8
Polygon
10
-51.796262501755564
20
-34.40107221918351
11
-52.01827020889267
21
-34.321075021670964
0
LINE
8
Polygon
10
-52.01827020889267
20
-34.321075021670964
11
-52.24180806384311
21
-34.24545887893483
0
LINE
8
Polygon
10
-52.24180806384311
20
-34.24545887893483
11
-52.46678962114414
21
-34.17425303287891
0
LINE
8
Polygon
10
-52.46678962114414
20
-34.17425303287891
11
-52.69312787703151
21
-34.107485019878695
0
LINE
8
Polygon
10
-52.69312787703151
20
-34.107485019878695
11
-52.920735303085166
21
-34.04518066013266
0
LINE
8
Polygon
10
-52.920735303085166
20
-34.04518066013266
11
-53.14952388007779
21
-33.98736404767718
0
LINE
8
Polygon
10
-53.1495238800778
20
-33.98736404767718
11
-53.37940513201316
21
-33.93405754106903
0
LINE
8
Polygon
10
-53.37940513201316
20
-33.93405754106903
11
-53.61029016034116
21
-33.88528175473895
0
LINE
8
Polygon
10
-53.61029016034116
20
-33.88528175473895
11
-53.84208967833618
21
-33.84105555101977
0
LINE
8
Polygon
10
-53.84208967833618
20
-33.84105555101977
11
-54.07471404562567
21
-33.80139603285206
0
LINE
8
Polygon
10
-54.07471404562568
20
-33.80139603285206
11
-54.30807330285543
21
-33.76631853717013
0
LINE
8
Polygon
10
-54.30807330285543
20
-33.76631853717013
11
-54.54207720647817
21
-33.73583662897106
0
LINE
8
Polygon
10
-54.54207720647817
20
-33.73583662897106
11
-54.77663526365214
21
-33.70996209606886
0
LINE
8
Polygon
10
-54.77663526365214
20
-33.70996209606886
11
-55.01165676723605
21
-33.688704944535964
0
LINE
8
Polygon
10
-55.01165676723605
20
-33.688704944535964
11
-55.24705083086688
21
-33.67207339483375
0
LINE
8
Polygon
10
-55.2470508308669
20
-33.67207339483375
11
-55.48272642410704
21
-33.66007387863353
0
LINE
8
Polygon
10
-55.48272642410704
20
-33.66007387863353
11
-55.71859240764714
21
-33.652711036329364
0
LINE
8
Polygon
10
-55.71859240764714
20
-33.652711036329364
11
-55.95455756855103
21
-33.64998771524349
0
LINE
8
Polygon
10
-55.95455756855103
20
-33.64998771524349
11
-56.19053065552916
21
-33.65190496852528
0
LINE
8
Polygon
10
-56.19053065552917
20
-33.65190496852528
11
-56.42642041422686
21
-33.65846205474397
0
LINE
8
Polygon
10
-56.42642041422686
20
-33.65846205474397
11
-56.662135622513745
21
-33.66965643817532
0
LINE
8
Polygon
10
-56.662135622513745
20
-33.66965643817532
11
-56.70667560582208
21
-33.671216094469685
0
LINE
8
Polygon
10
-56.70667560582208
20
-33.671216094469685
11
-56.751240847905535
21
-33.670789668735864
0
LINE
8
Polygon
10
-56.751240847905535
20
-33.670789668735864
11
-56.79574283137999
21
-33.66837800795885
0
LINE
8
Polygon
10
-56.79574283137999
20
-33.66837800795885
11
-56.840093164508254
21
-33.66398590228209
0
LINE
8
Polygon
10
-56.840093164508254
20
-33.66398590228209
11
-56.88420375676754
21
-33.65762207549318
0
LINE
8
Polygon
10
-56.88420375676754
20
-33.65762207549318
11
-56.92798699381858
21
-33.649299167696235
0
LINE
8
Polygon
10
-56.92798699381858
20
-33.649299167696235
11
-56.97135591152899
21
-33.639033710205624
0
LINE
8
Polygon
10
-56.97135591152899
20
-33.639033710205624
11
-57.01422436870512
21
-33.626846092710736
0
LINE
8
Polygon
10
-57.01422436870512
20
-33.626846092710736
11
-57.0565072181894
21
-33.612760522777144
0
LINE
8
Polygon
10
-57.0565072181894
20
-33.612760522777144
11
-57.09812047598318
21
-33.596804977764464
0
LINE
8
Polygon
10
-57.09812047598318
20
-33.596804977764464
11
-57.13898148805943
21
-33.57901114925655
0
LINE
8
Polygon
10
-57.13898148805943
20
-33.57901114925655
11
-57.1790090945336
21
-33.55941438011433
0
LINE
8
Polygon
10
-57.1790090945336
20
-33.55941438011433
11
-57.21812379086689
21
-33.53805359427631
0
LINE
8
Polygon
10
-57.21812379086689
20
-33.53805359427631
11
-57.25624788578158
21
-33.51497121944616
0
LINE
8
Polygon
10
-57.25624788578158
20
-33.51497121944616
11
-57.2933056555747
21
-33.490213102821016
0
LINE
8
Polygon
10
-57.2933056555747
20
-33.490213102821016
11
-57.32922349452371
21
-33.46382842002782
0
LINE
8
Polygon
10
-57.32922349452371
20
-33.46382842002782
11
-57.36393006108531
21
-33.43586957744862
0
LINE
8
Polygon
10
-57.36393006108531
20
-33.43586957744862
11
-57.39735641959709
21
-33.40639210812871
0
LINE
8
Polygon
10
-57.39735641959709
20
-33.40639210812871
11
-57.429436177200444
21
-33.37545456147462
0
LINE
8
Polygon
10
-57.429436177200444
20
-33.37545456147462
11
-57.460105615712905
21
-33.34311838696071
0
LINE
8
Polygon
10
-57.460105615712905
20
-33.34311838696071
11
-57.48930381818794
21
-33.309447812075646
0
LINE
8
Polygon
10
-57.48930381818794
20
-33.309447812075646
11
-57.516972789910746
21
-33.274509714751
0
LINE
8
Polygon
10
-57.516972789910746
20
-33.274509714751
11
-57.54305757358986
21
-33.238373490525476
0
LINE
8
Polygon
10
-57.54305757358986
20
-33.238373490525476
11
-57.56750635851567
21
-33.2011109147085
0
LINE
8
Polygon
10
-57.56750635851567
20
-33.2011109147085
11
-57.59027058346903
21
-33.16279599981708
0
LINE
8
Polygon
10
-57.59027058346903
20
-33.16279599981708
11
-57.611305033175654
21
-33.12350484856895
0
LINE
8
Polygon
10
-57.611305033175654
20
-33.12350484856895
11
-57.63056792811461
21
-33.083315502724126
0
LINE
8
Polygon
10
-57.63056792811461
20
-33.083315502724126
11
-57.64802100750257
21
-33.042307788075036
0
LINE
8
Polygon
10
-57.64802100750257
20
-33.042307788075036
11
-57.66362960528906
21
-33.00056315589311
0
LINE
8
Polygon
10
-57.66362960528906
20
-33.00056315589312
11
-57.67736271901157
21
-32.95816452114684
0
LINE
8
Polygon
10
-57.67736271901157
20
-32.95816452114684
11
-57.689193071374056
21
-32.91519609781245
0
LINE
8
Polygon
10
-57.689193071374056
20
-32.91519609781245
11
-57.699097164426185
21
-32.87174323160458
0
LINE
8
Polygon
10
-57.699097164426185
20
-32.87174323160458
11
-57.70705532623602
21
-32.82789223045897
0
LINE
8
Polygon
10
-57.70705532623602
20
-32.82789223045897
11
-57.71305174996323
21
-32.783730193103935
0
LINE
8
Polygon
10
-57.71305174996323
20
-32.783730193103935
11
-57.71707452525532
21
-32.73934483606117
0
LINE
8
Polygon
10
-57.71707452525532
20
-32.73934483606117
11
-57.719115661904475
21
-32.69482431941948
0
LINE
8
Polygon
10
-57.719115661904475
20
-32.69482431941948
11
-57.719171105718026
21
-32.650257071727395
0
LINE
8
Polygon
10
-57.719171105718026
20
-32.6502570717274
11
-57.71724074657113
21
-32.60573161435268
0
LINE
8
Polygon
10
-57.71724074657113
20
-32.60573161435268
11
-57.71332841862542
21
-32.56133638565737
0
LINE
8
Polygon
10
-57.71332841862542
20
-32.56133638565737
11
-57.7074418927135
21
-32.51715956533774
0
LINE
8
Polygon
10
-57.7074418927135
20
-32.51715956533774
11
-57.699592860904126
21
-32.47328889927807
0
LINE
8
Polygon
10
-57.699592860904126
20
-32.47328889927807
11
-57.68979691327899
21
-32.429811525265954
0
LINE
8
Polygon
10
-57.68979691327899
20
-32.429811525265954
11
-57.67807350696695
21
-32.38681379991558
0
LINE
8
Polygon
10
-57.67807350696695
20
-32.38681379991558
11
-57.66444592749753
21
-32.344381127142476
0
LINE
8
Polygon
10
-57.66444592749753
20
-32.344381127142476
11
-57.648941242550165
21
-32.3025977885307
0
LINE
8
Polygon
10
-57.648941242550165
20
-32.3025977885307
11
-57.63159024819123
21
-32.26154677592905
0
LINE
8
Polygon
10
-57.63159024819123
20
-32.26154677592905
11
-57.61242740770559
21
-32.221309626609234
0
LINE
8
Polygon
10
-57.61242740770559
20
-32.221309626609234
11
-57.59149078314412
21
-32.18196626131296
0
LINE
8
Polygon
10
-57.59149078314412
20
-32.18196626131296
11
-57.36557723009656
21
-31.726515440023135
0
LINE
8
Polygon
10
-57.36557723009656
20
-31.726515440023135
11
-57.18708203973437
21
-31.25047778281343
0
LINE
8
Polygon
10
-57.18708203973437
20
-31.25047778281343
11
-57.05785065515341
21
-30.75877499321037
0
LINE
8
Polygon
10
-57.05785065515341
20
-30.75877499321037
11
-56.97921918611642
21
-30.25649073490515
0
LINE
8
Polygon
10
-56.97921918611642
20
-30.25649073490515
11
-56.952000595153976
21
-29.748818072286642
0
LINE
8
Polygon
10
-56.952000595153976
20
-29.748818072286642
11
-56.97647629242996
21
-29.241005779892106
0
LINE
8
Polygon
10
-56.97647629242996
20
-29.241005779892106
11
-57.052393226271306
21
-28.738304075876425
0
LINE
8
Polygon
10
-57.052393226271306
20
-28.738304075876425
11
-57.178966499442794
21
-28.245910340556
0
LINE
8
Polygon
10
-57.178966499442794
20
-28.245910340556
11
-57.35488748411739
21
-27.7689153812375
0
LINE
8
Polygon
10
-57.35488748411739
20
-27.7689153812375
11
-57.57833735164248
21
-27.31225079889378
0
LINE
8
Polygon
10
-57.57833735164248
20
-27.31225079889378
11
-57.84700587721894
21
-26.88063800085748
0
LINE
8
Polygon
10
-57.84700587721894
20
-26.88063800085748
11
-58.1581153250736
21
-26.47853938668466
0
LINE
8
Polygon
10
-58.1581153250736
20
-26.47853938668466
11
-58.50844916717881
21
-26.110112211872664
0
LINE
8
Polygon
10
-58.50844916717881
20
-26.110112211872664
11
-58.894385338599065
21
-25.779165606430617
0
LINE
8
Polygon
10
-58.894385338599065
20
-25.779165606430617
11
-59.31193368564143
21
-25.489121192682767
0
LINE
8
Polygon
10
-59.31193368564143
20
-25.489121192682767
11
-59.756777219637016
21
-25.24297770947335
0
LINE
8
Polygon
10
-59.756777219637016
20
-25.24297770947335
11
-60.22431674983512
21
-25.04328000851946
0
LINE
8
Polygon
10
-60.22431674983512
20
-25.04328000851946
11
-60.70971843395518
21
-24.892092743455386
0
LINE
8
Polygon
10
-60.70971843395518
20
-24.892092743455386
11
-61.20796375477625
21
-24.79097902359479
0
LINE
8
Polygon
10
-61.20796375477625
20
-24.79097902359479
11
-61.71390140606149
21
-24.740984253107023
0
LINE
8
Polygon
10
-61.71390140606149
20
-24.740984253107023
11
-62.22230055137425
21
-24.74262532269284
0
LINE
8
Polygon
10
-62.22230055137425
20
-24.74262532269284
11
-62.72790490514877
21
-24.795885265505508
0
LINE
8
Polygon
10
-62.72790490514877
20
-24.795885265505508
11
-63.22548707687646
21
-24.90021343256927
0
LINE
8
Polygon
10
-63.22548707687646
20
-24.90021343256927
11
-63.7099026165496
21
-25.054531185881483
0
LINE
8
Polygon
10
-63.7099026165496
20
-25.054531185881483
11
-64.17614320259149
21
-25.257243050338076
0
LINE
8
Polygon
10
-64.17614320259149
20
-25.257243050338076
11
-64.61938842236924
21
-25.506253209183672
0
LINE
8
Polygon
10
-64.61938842236924
20
-25.506253209183672
11
-65.03505560993564
21
-25.798987172441745
0
LINE
8
Polygon
10
-65.03505560993564
20
-25.798987172441745
11
-65.41884722573278
21
-26.13241839429712
0
LINE
8
Polygon
10
-65.41884722573278
20
-26.13241839429712
11
-65.7667952884039
21
-26.5030995642364
0
LINE
8
Polygon
10
-65.7667952884039
20
-26.5030995642364
11
-66.07530239933743
21
-26.907198248430724
0
LINE
8
Polygon
10
-66.07530239933743
20
-26.907198248430724
11
-66.34117893579484
21
-27.340536512868052
0
LINE
8
Polygon
10
-66.34117893579484
20
-27.340536512868052
11
-66.56167602808632
21
-27.79863411857577
0
LINE
8
Polygon
10
-66.56167602808632
20
-27.79863411857577
11
-66.73451397984694
21
-28.276754842342626
0
LINE
8
Polygon
10
-66.73451397984694
20
-28.276754842342626
11
-66.85790583757873
21
-28.769955444034924
0
LINE
8
Polygon
10
-66.85790583757873
20
-28.769955444034924
11
-66.93057586577602
21
-29.273136774239
0
LINE
8
Polygon
10
-66.93057586577602
20
-29.273136774239
11
-66.9517727366213
21
-29.781096493833488
0
LINE
8
Polygon
10
-66.9517727366213
20
-29.781096493833488
11
-66.92127729788488
21
-30.2885828604291
0
LINE
8
Polygon
10
-66.92127729788488
20
-30.2885828604291
11
-66.83940483871689
21
-30.790349025583673
0
LINE
8
Polygon
10
-66.83940483871689
20
-30.790349025583673
11
-66.70700182990575
21
-31.281207281419203
0
LINE
8
Polygon
10
-66.70700182990575
20
-31.281207281419203
11
-66.52543717230522
21
-31.75608269579075
0
LINE
8
Polygon
10
-66.52543717230522
20
-31.75608269579075
11
-66.29658804391181
21
-32.21006558147887
0
LINE
8
Polygon
10
-66.29658804391181
20
-32.21006558147887
11
-66.02282049191777
21
-32.63846225693205
0
LINE
8
Polygon
10
-66.02282049191777
20
-32.63846225693205
11
-65.70696497039684
21
-33.036843573749096
0
LINE
8
Polygon
10
-65.70696497039684
20
-33.036843573749096
11
-65.3522870765357
21
-33.40109070918104
0
LINE
8
Polygon
10
-65.3522870765357
20
-33.40109070918104
11
-64.96245378796644
21
-33.72743775020854
0
LINE
8
Polygon
10
-64.96245378796644
20
-33.72743775020854
11
-64.54149555026835
21
-34.01251062892252
0
LINE
8
Polygon
10
-64.54149555026835
20
-34.01251062892252
11
-64.09376460661306
21
-34.25336200665926
0
LINE
8
Polygon
10
-64.09376460661306
20
-34.25336200665926
11
-63.62389000037759
21
-34.44750174622641
0
LINE
8
Polygon
10
-63.62389000037759
20
-34.44750174622641
11
-63.58223062029714
21
-34.4633364767949
0
LINE
8
Polygon
10
-63.58223062029714
20
-34.4633364767949
11
-63.54131814870484
21
-34.48101166587658
0
LINE
8
Polygon
10
-63.54131814870484
20
-34.48101166587658
11
-63.501233847696305
21
-34.500492206257185
0
LINE
8
Polygon
10
-63.501233847696305
20
-34.500492206257185
11
-63.46205733441942
21
-34.52173940485677
0
LINE
8
Polygon
10
-63.46205733441942
20
-34.52173940485677
11
-63.42386642293538
21
-34.544711059583456
0
LINE
8
Polygon
10
-63.42386642293538
20
-34.544711059583456
11
-63.38673696966106
21
-34.5693615431571
0
LINE
8
Polygon
10
-63.38673696966106
20
-34.5693615431571
11
-63.350742722699806
21
-34.595641893736115
0
LINE
8
Polygon
10
-63.350742722699806
20
-34.595641893736115
11
-63.31595517535975
21
-34.62349991216756
0
LINE
8
Polygon
10
-63.31595517535975
20
-34.62349991216756
11
-63.28244342415078
21
-34.65288026566734
0
LINE
8
Polygon
10
-63.28244342415078
20
-34.65288026566734
11
-63.25027403154212
21
-34.68372459772453
0
LINE
8
Polygon
10
-63.25027403154212
20
-34.68372459772453
11
-63.2195108937531
21
-34.71597164401156
0
LINE
8
Polygon
10
-63.2195108937531
20
-34.71597164401156
11
-63.190215113839784
21
-34.74955735407006
0
LINE
8
Polygon
10
-63.190215113839784
20
-34.74955735407006
11
-63.1624448803294
21
-34.7844150185306
0
LINE
8
Polygon
10
-63.1624448803294
20
-34.7844150185306
11
-63.136255351643925
21
-34.82047540161365
0
LINE
8
Polygon
10
-63.136255351643925
20
-34.82047540161365
11
-63.11169854654195
21
-34.857666878648686
0
LINE
8
Polygon
10
-63.11169854654195
20
-34.857666878648686
11
-63.08882324079691
21
-34.89591557833814
0
LINE
8
Polygon
10
-63.08882324079691
20
-34.89591557833814
11
-63.06767487031648
21
-34.935145529483755
0
LINE
8
Polygon
10
-63.06767487031648
20
-34.935145529483755
11
-63.04829544089592
21
-34.97527881188374
0
LINE
8
Polygon
10
-63.04829544089592
20
-34.97527881188374
11
-63.030723444784286
21
-35.016235711101295
0
LINE
8
Polygon
10
-63.030723444784286
20
-35.016235711101295
11
-63.01499378422953
21
-35.05793487679674
0
LINE
8
Polygon
10
-63.01499378422953
20
-35.05793487679674
11
-63.001137702154196
21
-35.10029348430909
0
LINE
8
Polygon
10
-63.001137702154196
20
-35.10029348430909
11
-62.98918272009932
21
-35.1432273991659
0
LINE
8
Polygon
10
-62.98918272009932
20
-35.1432273991659
11
-62.97915258356004
21
-35.18665134419473
0
LINE
8
Polygon
10
-62.97915258356004
20
-35.18665134419473
11
-62.97106721482123
21
-35.230479068904344
0
LINE
8
Polygon
10
-62.97106721482123
20
-35.230479068904344
11
-62.96494267338706
21
-35.27462352079906
0
LINE
8
Polygon
10
-62.96494267338706
20
-35.27462352079906
11
-62.960791124082874
21
-35.318997018286176
0
LINE
8
Polygon
10
-62.960791124082874
20
-35.318997018286176
11
-62.95862081289293
21
-35.36351142483285
0
LINE
8
Polygon
10
-62.95862081289293
20
-35.36351142483285
11
-62.958436050581845
21
-35.40807832402667
0
LINE
8
Polygon
10
-62.958436050581845
20
-35.40807832402667
11
-62.96023720413242
21
-35.45260919519209
0
LINE
8
Polygon
10
-62.96023720413242
20
-35.45260919519209
11
-62.96402069601667
21
-35.497015589213966
0
LINE
8
Polygon
10
-62.96402069601667
20
-35.497015589213966
11
-62.96977901130166
21
-35.54120930421896
0
LINE
8
Polygon
10
-62.96977901130166
20
-35.54120930421896
11
-62.97750071257605
21
-35.58510256076587
0
LINE
8
Polygon
10
-62.97750071257605
20
-35.58510256076587
11
-62.98717046266751
21
-35.6286081761969
0
LINE
8
Polygon
10
-62.98717046266751
20
-35.6286081761969
11
-62.99876905510607
21
-35.67163973780356
0
LINE
8
Polygon
10
-62.99876905510607
20
-35.67163973780356
11
-63.01227345227285
21
-35.71411177446329
0
LINE
8
Polygon
10
-63.01227345227285
20
-35.71411177446329
11
-63.02765683115838
21
-35.75593992640583
0
LINE
8
Polygon
10
-63.02765683115838
20
-35.75593992640583
11
-63.04488863663954
21
-35.797041112772206
0
LINE
8
Polygon
10
-63.04488863663954
20
-35.797041112772206
11
-63.063934642169514
21
-35.83733369663346
0
LINE
8
Polygon
10
-63.063934642169514
20
-35.83733369663346
11
-63.08475701775998
21
-35.87673764714142
0
LINE
8
Polygon
10
-63.08475701775998
20
-35.87673764714142
11
-63.107314405120654
21
-35.91517469848936
0
LINE
8
Polygon
10
-63.107314405120654
20
-35.91517469848936
11
-63.131561999806884
21
-35.95256850536692
0
LINE
8
Polygon
10
-63.131561999806884
20
-35.95256850536692
11
-63.15745164021217
21
-35.98884479460037
0
LINE
8
Polygon
10
-63.15745164021217
20
-35.98884479460037
11
-63.184931903228794
21
-36.02393151267717
0
LINE
8
Polygon
10
-63.184931903228794
20
-36.02393151267717
11
-63.21394820638656
21
-36.057758968861755
0
LINE
8
Polygon
10
-63.21394820638656
20
-36.057758968861755
11
-63.24444291626686
21
-36.09025997361823
0
LINE
8
Polygon
10
-63.24444291626686
20
-36.09025997361823
11
-63.27635546297661
21
-36.12136997206507
0
LINE
8
Polygon
10
-63.27635546297661
20
-36.12136997206507
11
-63.30962246045475
21
-36.1510271721968
0
LINE
8
Polygon
10
-63.30962246045475
20
-36.1510271721968
11
-63.34417783237236
21
-36.17917266761791
0
LINE
8
Polygon
10
-63.34417783237236
20
-36.17917266761791
11
-63.528987878165765
21
-36.32591128084556
0
LINE
8
Polygon
10
-63.528987878165765
20
-36.32591128084556
11
-63.710876703498855
21
-36.47625564840578
0
LINE
8
Polygon
10
-63.710876703498855
20
-36.47625564840578
11
-63.88977396921733
21
-36.63014762986222
0
LINE
8
Polygon
10
-63.88977396921733
20
-36.63014762986222
11
-64.06561049304813
21
-36.78752771286271
0
LINE
8
Polygon
10
-64.06561049304813
20
-36.78752771286271
11
-64.23831827635327
21
-36.94833503615354
0
LINE
8
Polygon
10
-64.23831827635327
20
-36.94833503615354
11
-64.40783053042598
21
-37.11250741311544
0
LINE
8
Polygon
10
-64.40783053042598
20
-37.11250741311544
11
-64.57408170231889
21
-37.27998135581212
0
LINE
8
Polygon
10
-64.57408170231889
20
-37.279981355812126
11
-64.7370075001943
21
-37.45069209954197
0
LINE
8
Polygon
10
-64.7370075001943
20
-37.45069209954197
11
-64.89654491818685
21
-37.62457362788355
0
LINE
8
Polygon
10
-64.89654491818685
20
-37.62457362788355
11
-65.05263226076885
21
-37.801558698225165
0
LINE
8
Polygon
10
-65.05263226076885
20
-37.801558698225165
11
-65.2052091666088
21
-37.981578867768576
0
LINE
8
Polygon
10
-65.20520916660881
20
-37.98157886776858
11
-65.35421663191414
21
-38.16456451999688
0
LINE
8
Polygon
10
-65.35421663191414
20
-38.16456451999688
11
-65.4995970332488
21
-38.35044489159622
0
LINE
8
Polygon
10
-65.4995970332488
20
-38.35044489159622
11
-65.6412941498171
21
-38.539148099821105
0
LINE
8
Polygon
10
-65.6412941498171
20
-38.539148099821105
11
-65.7792531852052
21
-38.73060117029249
0
LINE
8
Polygon
10
-65.7792531852052
20
-38.73060117029249
11
-65.91342078857166
21
-38.9247300652181
0
LINE
8
Polygon
10
-65.91342078857166
20
-38.92473006521811
11
-66.04374507527902
21
-39.12145971202394
0
LINE
8
Polygon
10
-66.04374507527902
20
-39.12145971202394
11
-66.17017564695843
21
-39.32071403238602
0
LINE
8
Polygon
10
-66.17017564695843
20
-39.32071403238602
11
-66.29266361099937
21
-39.52241597165097
0
LINE
8
Polygon
10
-66.29266361099937
20
-39.52241597165097
11
-66.41116159945723
21
-39.72648752863424
0
LINE
8
Polygon
10
-66.41116159945724
20
-39.726487528634244
11
-66.5256237873712
21
-39.93284978578434
0
LINE
8
Polygon
10
-66.5256237873712
20
-39.93284978578434
11
-66.63600591048541
21
-40.14142293970146
0
LINE
8
Polygon
10
-66.63600591048541
20
-40.14142293970146
11
-66.74226528236667
21
-40.352126331998626
0
LINE
8
Polygon
10
-66.74226528236667
20
-40.352126331998626
11
-66.84436081091194
21
-40.56487848049353
0
LINE
8
Polygon
10
-66.84436081091194
20
-40.56487848049353
11
-66.94225301423921
21
-40.779597110718925
0
LINE
8
Polygon
10
-66.94225301423921
20
-40.77959711071893
11
-67.03590403595582
21
-40.99619918773938
0
LINE
8
Polygon
10
-67.03590403595582
20
-40.99619918773938
11
-67.12527765979802
21
-41.21460094826216
0
LINE
8
Polygon
10
-67.12527765979802
20
-41.21460094826216
11
-67.21033932363638
21
-41.434717933029766
0
LINE
8
Polygon
10
-67.21033932363638
20
-41.434717933029766
11
-67.29105613284155
21
-41.65646501948158
0
LINE
8
Polygon
10
-67.29105613284155
20
-41.65646501948159
11
-67.367396873005
21
-41.87975645467208
0
LINE
8
Polygon
10
-67.367396873005
20
-41.87975645467208
11
-67.43933202201018
21
-42.10450588843275
0
LINE
8
Polygon
10
-67.43933202201018
20
-42.10450588843275
11
-67.5068337614491
21
-42.33062640676501
0
LINE
8
Polygon
10
-67.5068337614491
20
-42.33062640676501
11
-67.56987598738023
21
-42.55803056545123
0
LINE
8
Polygon
10
-67.56987598738023
20
-42.55803056545123
11
-67.62843432042318
21
-42.78663042387062
0
LINE
8
Polygon
10
-67.62843432042318
20
-42.786630423870626
11
-67.68248611518666
21
-43.0163375790073
0
LINE
8
Polygon
10
-67.68248611518666
20
-43.0163375790073
11
-67.73201046902571
21
-43.247063199637
0
LINE
8
Polygon
10
-67.73201046902571
20
-43.247063199637
11
-67.77698823012517
21
-43.47871806067949
0
LINE
8
Polygon
10
-67.77698823012517
20
-43.4787180606795
11
-67.81740200490589
21
-43.71121257770325
0
LINE
8
Polygon
10
-67.81740200490589
20
-43.71121257770325
11
-67.85323616475111
21
-43.9444568415691
0
LINE
8
Polygon
10
-67.85323616475111
20
-43.9444568415691
11
-67.88447685205033
21
-44.17836065319945
0
LINE
8
Polygon
10
-67.88447685205033
20
-44.17836065319945
11
-67.91111198555821
21
-44.41283355845964
0
LINE
8
Polygon
10
-67.91111198555821
20
-44.41283355845964
11
-67.93313126506655
21
-44.647784883137895
0
LINE
8
Polygon
10
-67.93313126506655
20
-44.647784883137895
11
-67.95052617538761
21
-44.88312376801045
0
LINE
8
Polygon
10
-67.95052617538761
20
-44.883123768010456
11
-67.96328998964698
21
-45.11875920397815
0
LINE
8
Polygon
10
-67.96328998964698
20
-45.11875920397815
11
-67.97141777188504
21
-45.35460006726106
0
LINE
8
Polygon
10
-67.97141777188504
20
-45.35460006726106
11
-67.9749063789657
21
-45.59055515463739
0
LINE
8
Polygon
10
-67.9749063789657
20
-45.5905551546374
11
-67.97375446179194
21
-45.826533218713195
0
LINE
8
Polygon
10
-67.97375446179194
20
-45.826533218713195
11
-67.96796246582753
21
-46.062443003209054
0
LINE
8
Polygon
10
-67.96796246582753
20
-46.06244300320906
11
-67.96624529618079
21
-46.109664211752225
0
LINE
8
Polygon
10
-67.96624529618079
20
-46.109664211752225
11
-67.96434219717516
21
-46.15687829251261
0
LINE
8
Polygon
10
-67.96434219717516
20
-46.15687829251261
11
-67.96225319831909
21
-46.20408451341254
0
LINE
8
Polygon
10
-67.96225319831909
20
-46.20408451341254
11
-67.95997833200357
21
-46.25128214249621
0
LINE
8
Polygon
10
-67.95997833200357
20
-46.2512821424962
11
-67.95751763350152
21
-46.29847044794104
0
LINE
8
Polygon
10
-67.95751763350152
20
-46.29847044794104
11
-67.9548711409673
21
-46.345648698069034
0
LINE
8
Polygon
10
-67.9548711409673
20
-46.345648698069034
11
-67.95203889543608
21
-46.39281616135809
0
LINE
8
Polygon
10
-67.95203889543608
20
-46.392816161358084
11
-67.9490209408232
21
-46.439972106453354
0
LINE
8
Polygon
10
-67.9490209408232
20
-46.439972106453354
11
-67.94581732392356
21
-46.48711580217859
0
LINE
8
Polygon
10
-67.94581732392356
20
-46.48711580217859
11
-67.94242809441083
21
-46.53424651754749
0
LINE
8
Polygon
10
-67.94242809441083
20
-46.53424651754748
11
-67.93885330483668
21
-46.581363521774975
0
LINE
8
Polygon
10
-67.93885330483668
20
-46.581363521774975
11
-67.93509301063001
21
-46.628466084288625
0
LINE
8
Polygon
10
-67.93509301063001
20
-46.628466084288625
11
-67.93114727009602
21
-46.675553474739914
0
LINE
8
Polygon
10
-67.93114727009602
20
-46.67555347473991
11
-67.92701614441535
21
-46.722624963015555
0
LINE
8
Polygon
10
-67.92701614441535
20
-46.722624963015555
11
-67.92269969764318
21
-46.76967981924885
0
LINE
8
Polygon
10
-67.92269969764318
20
-46.76967981924884
11
-67.91819799670816
21
-46.816717313830985
0
LINE
8
Polygon
10
-67.91819799670816
20
-46.816717313830985
11
-67.91351111141134
21
-46.86373671742235
0
LINE
8
Polygon
10
-67.91351111141134
20
-46.86373671742235
11
-67.90863911442524
21
-46.910737300963845
0
LINE
8
Polygon
10
-67.90863911442524
20
-46.91073730096384
11
-67.90358208129257
21
-46.95771833568816
0
LINE
8
Polygon
10
-67.90358208129257
20
-46.95771833568816
11
-67.89834009042511
21
-47.00467909313115
0
LINE
8
Polygon
10
-67.89834009042511
20
-47.004679093131145
11
-67.89291322310255
21
-47.051618845143025
0
LINE
8
Polygon
10
-67.89291322310255
20
-47.051618845143025
11
-67.88730156347114
21
-47.09853686389973
0
LINE
8
Polygon
10
-67.88730156347114
20
-47.09853686389973
11
-67.88150519854243
21
-47.14543242191418
0
LINE
8
Polygon
10
-67.88150519854243
20
-47.14543242191417
11
-67.87552421819191
21
-47.19230479204755
0
LINE
8
Polygon
10
-67.87552421819191
20
-47.19230479204755
11
-67.86935871515769
21
-47.239153247520576
0
LINE
8
Polygon
10
-67.86935871515769
20
-47.239153247520576
11
-67.86300878503889
21
-47.28597706192479
0
LINE
8
Polygon
10
-67.86300878503889
20
-47.28597706192478
11
-67.85647452629435
21
-47.33277550923378
0
LINE
8
Polygon
10
-67.85647452629435
20
-47.33277550923378
11
-67.84975604024098
21
-47.379547863814494
0
LINE
8
Polygon
10
-67.84975604024098
20
-47.379547863814494
11
-67.84285343105219
21
-47.42629340043843
0
LINE
8
Polygon
10
-67.84285343105219
20
-47.42629340043843
11
-67.83576680575639
21
-47.47301139429294
0
LINE
8
Polygon
10
-67.83576680575639
20
-47.47301139429294
11
-67.8284962742352
21
-47.51970112099243
0
LINE
8
Polygon
10
-67.8284962742352
20
-47.51970112099242
11
-67.82104194922182
21
-47.56636185658959
0
LINE
8
Polygon
10
-67.82104194922182
20
-47.56636185658959
11
-67.81340394629922
21
-47.612992877586635
0
LINE
8
Polygon
10
-67.81340394629922
20
-47.612992877586635
11
-67.80558238389841
21
-47.659593460946546
0
LINE
8
Polygon
10
-67.80558238389841
20
-47.65959346094654
11
-67.7975773832966
21
-47.70616288410422
0
LINE
8
Polygon
10
-67.7975773832966
20
-47.70616288410422
11
-67.78938906861528
21
-47.75270042497772
0
LINE
8
Polygon
10
-67.78938906861528
20
-47.75270042497771
11
-67.78101756681832
21
-47.79920536197946
0
LINE
8
Polygon
10
-67.78101756681832
20
-47.79920536197946
11
-67.77246300770999
21
-47.84567697402742
0
LINE
8
Polygon
10
-67.77246300770999
20
-47.84567697402742
11
-67.76372552393295
21
-47.89211454055625
0
LINE
8
Polygon
10
-67.76372552393295
20
-47.89211454055624
11
-67.75480525096623
21
-47.93851734152852
0
LINE
8
Polygon
10
-67.75480525096623
20
-47.93851734152852
11
-67.74570232712304
21
-47.98488465744586
0
LINE
8
Polygon
10
-67.74570232712304
20
-47.98488465744586
11
-67.73641689354875
21
-48.03121576936011
0
LINE
8
Polygon
10
-67.73641689354875
20
-48.0312157693601
11
-67.72694909421858
21
-48.077509958884455
0
LINE
8
Polygon
10
-67.72694909421858
20
-48.077509958884455
11
-67.71729907593546
21
-48.123766508204625
0
LINE
8
Polygon
10
-67.71729907593546
20
-48.123766508204625
11
-67.70746698832765
21
-48.16998470008992
0
LINE
8
Polygon
10
-67.70746698832765
20
-48.16998470008991
11
-67.6974529838466
21
-48.21616381790442
0
LINE
8
Polygon
10
-67.6974529838466
20
-48.21616381790442
11
-67.68725721776434
21
-48.26230314561809
0
LINE
8
Polygon
10
-67.68725721776434
20
-48.26230314561809
11
-67.6768798481713
21
-48.30840196781782
0
LINE
8
Polygon
10
-67.6768798481713
20
-48.30840196781782
11
-67.67318455407799
21
-48.326616956839615
0
LINE
8
Polygon
10
-67.67318455407799
20
-48.326616956839615
11
-67.67033938208183
21
-48.34498393862248
0
LINE
8
Polygon
10
-67.67033938208183
20
-48.34498393862248
11
-67.66835047492738
21
-48.363463258735266
0
LINE
8
Polygon
10
-67.66835047492738
20
-48.363463258735266
11
-67.66722212667787
21
-48.38201502020763
0
LINE
8
Polygon
10
-67.66722212667787
20
-48.38201502020763
11
-67.66695677344441
21
-48.4005991696679
0
LINE
8
Polygon
10
-67.66695677344441
20
-48.4005991696679
11
-67.66755498812633
21
-48.419175583818486
0
LINE
8
Polygon
10
-67.66755498812633
20
-48.419175583818486
11
-67.66901547917428
21
-48.437704156062416
0
LINE
8
Polygon
10
-67.66901547917428
20
-48.437704156062416
11
-67.67133509337877
21
-48.4561448830937
0
LINE
8
Polygon
10
-67.67133509337877
20
-48.4561448830937
11
-67.6745088226779
21
-48.4744579512647
0
LINE
8
Polygon
10
-67.6745088226779
20
-48.4744579512647
11
-67.67852981496979
21
-48.4926038225441
0
LINE
8
Polygon
10
-67.67852981496979
20
-48.4926038225441
11
-67.68338938890636
21
-48.510543319879716
0
LINE
8
Polygon
10
-67.68338938890636
20
-48.510543319879716
11
-67.68907705263642
21
-48.528237711782054
0
LINE
8
Polygon
10
-67.68907705263642
20
-48.528237711782054
11
-67.69558052645758
21
-48.545648795945816
0
LINE
8
Polygon
10
-67.69558052645758
20
-48.545648795945816
11
-67.70288576932825
21
-48.562738981728906
0
LINE
8
Polygon
10
-67.70288576932825
20
-48.562738981728906
11
-67.71097700918234
21
-48.57947137131089
0
LINE
8
Polygon
10
-67.71097700918234
20
-48.57947137131089
11
-67.71983677698127
21
-48.59580983935563
0
LINE
8
Polygon
10
-67.71983677698127
20
-48.59580983935563
11
-67.72944594442966
21
-48.61171911100611
0
LINE
8
Polygon
10
-67.72944594442966
20
-48.61171911100611
11
-67.73978376527353
21
-48.62716483804305
0
LINE
8
Polygon
10
-67.73978376527353
20
-48.62716483804305
11
-67.75082792009157
21
-48.64211367304299
0
LINE
8
Polygon
10
-67.75082792009157
20
-48.64211367304299
11
-67.76255456448283
21
-48.65653334137553
0
LINE
8
Polygon
10
-67.76255456448283
20
-48.65653334137553
11
-67.77493838054708
21
-48.67039271088451
0
LINE
8
Polygon
10
-67.77493838054708
20
-48.67039271088451
11
-67.78795263154626
21
-48.683661859102486
0
LINE
8
Polygon
10
-67.78795263154626
20
-48.683661859102486
11
-67.80156921962916
21
-48.69631213785359
0
LINE
8
Polygon
10
-67.80156921962916
20
-48.69631213785359
11
-67.81575874649502
21
-48.70831623510506
0
LINE
8
Polygon
10
-67.81575874649502
20
-48.70831623510506
11
-67.83049057686456
21
-48.71964823393415
0
LINE
8
Polygon
10
-67.83049057686456
20
-48.71964823393415
11
-67.8457329046218
21
-48.73028366848291
0
LINE
8
Polygon
10
-67.8457329046218
20
-48.73028366848291
11
-67.8614528214836
21
-48.7401995767801
0
LINE
8
Polygon
10
-67.8614528214836
20
-48.7401995767801
11
-67.87761638804886
21
-48.74937455031629
0
LINE
8
Polygon
10
-67.87761638804886
20
-48.74937455031629
11
-67.89418870707404
21
-48.7577887802649
0
LINE
8
Polygon
10
-67.89418870707404
20
-48.7577887802649
11
-67.91113399881628
21
-48.765424100249675
0
LINE
8
Polygon
10
-67.91113399881628
20
-48.765424100249675
11
-67.92841567828236
21
-48.7722640255659
0
LINE
8
Polygon
10
-67.92841567828236
20
-48.7722640255659
11
-67.94599643421574
21
-48.77829378877108
0
LINE
8
Polygon
10
-67.94599643421574
20
-48.77829378877108
11
-67.96383830965192
21
-48.78350037156788
0
LINE
8
Polygon
10
-67.96383830965192
20
-48.78350037156788
11
-67.98190278386768
21
-48.78787253291074
0
LINE
8
Polygon
10
-67.98190278386768
20
-48.78787253291074
11
-68.00015085554764
21
-48.79140083327534
0
LINE
8
Polygon
10
-68.00015085554764
20
-48.79140083327534
11
-68.01854312698832
21
-48.79407765503863
0
LINE
8
Polygon
10
-68.01854312698832
20
-48.79407765503863
11
-68.03703988915801
21
-48.79589721892529
0
LINE
8
Polygon
10
-68.03703988915801
20
-48.79589721892529
11
-68.05560120742888
21
-48.79685559648527
0
LINE
8
Polygon
10
-68.05560120742888
20
-48.79685559648527
11
-68.07418700779604
21
-48.796950718575275
0
LINE
8
Polygon
10
-68.07418700779604
20
-48.796950718575275
11
-68.0927571633976
21
-48.79618237982611
0
LINE
8
Polygon
10
-68.0927571633976
20
-48.79618237982611
11
-68.11127158114884
21
-48.79455223908604
0
LINE
8
Polygon
10
-68.11127158114884
20
-48.79455223908604
11
-68.1296902883034
21
-48.79206381583935
0
LINE
8
Polygon
10
-68.1296902883034
20
-48.79206381583935
11
-68.1479735187547
21
-48.78872248260775
0
LINE
8
Polygon
10
-68.1479735187547
20
-48.78872248260775
11
-68.16608179889124
21
-48.784535453351076
0
LINE
8
Polygon
10
-68.16608179889124
20
-48.784535453351076
11
-68.18397603282038
21
-48.77951176789226
0
LINE
8
Polygon
10
-68.18397603282038
20
-48.77951176789226
11
-68.20161758677659
21
-48.77366227240035
0
LINE
8
Polygon
10
-68.20161758677659
20
-48.77366227240035
11
-68.21896837253205
21
-48.76699959597352
0
LINE
8
Polygon
10
-68.21896837253205
20
-48.76699959597352
11
-68.23599092962928
21
-48.75953812337282
0
LINE
8
Polygon
10
-68.23599092962927
20
-48.75953812337283
11
-68.41853007384103
21
-48.6851352879435
0
LINE
8
Polygon
10
-68.41853007384103
20
-48.6851352879435
11
-68.60750685432258
21
-48.62906303519478
0
LINE
8
Polygon
10
-68.60750685432258
20
-48.62906303519478
11
-68.80108553545868
21
-48.59186605549091
0
LINE
8
Polygon
10
-68.80108553545868
20
-48.59186605549091
11
-68.99738567840178
21
-48.57390568327863
0
LINE
8
Polygon
10
-68.99738567840178
20
-48.57390568327863
11
-69.19450040780585
21
-48.575356387055336
0
LINE
8
Polygon
10
-69.19450040780585
20
-48.575356387055336
11
-69.39051493536658
21
-48.59620407456807
0
LINE
8
Polygon
10
-69.39051493536658
20
-48.59620407456807
11
-69.5835251602287
21
-48.636246229706856
0
LINE
8
Polygon
10
-69.5835251602287
20
-48.636246229706856
11
-69.77165616557451
21
-48.6950938797624
0
LINE
8
Polygon
10
-69.77165616557451
20
-48.6950938797624
11
-69.95308043171637
21
-48.77217537393821
0
LINE
8
Polygon
10
-69.95308043171637
20
-48.77217537393821
11
-70.12603558876961
21
-48.86674193641235
0
LINE
8
Polygon
10
-70.12603558876961
20
-48.86674193641235
11
-70.28884153645508
21
-48.977874940005876
0
LINE
8
Polygon
10
-70.2888415364551
20
-48.977874940005876
11
-70.43991676472818
21
-49.10449482980096
0
LINE
8
Polygon
10
-70.43991676472818
20
-49.10449482980096
11
-70.57779371669427
21
-49.24537161002406
0
LINE
8
Polygon
10
-70.57779371669427
20
-49.24537161002406
11
-70.70113304457425
21
-49.39913679232357
0
LINE
8
Polygon
10
-70.70113304457425
20
-49.39913679232357
11
-70.80873662023636
21
-49.56429668937553
0
LINE
8
Polygon
10
-70.80873662023636
20
-49.56429668937553
11
-70.899559173909
21
-49.73924692468221
0
LINE
8
Polygon
10
-70.899559173909
20
-49.73924692468221
11
-70.97271844801529
21
-49.92228801761417
0
LINE
8
Polygon
10
-70.97271844801529
20
-49.92228801761417
11
-71.02750376749385
21
-50.11164189230154
0
LINE
8
Polygon
10
-71.02750376749385
20
-50.11164189230154
11
-71.06338294335356
21
-50.3054691500057
0
LINE
8
Polygon
10
-71.06338294335356
20
-50.3054691500057
11
-71.08000744239999
21
-50.501886937186335
0
LINE
8
Polygon
10
-71.08000744239999
20
-50.501886937186335
11
-71.07721577291491
21
-50.698987235691874
0
LINE
8
Polygon
10
-71.07721577291491
20
-50.698987235691874
11
-71.0550350533998
21
-50.89485539740092
0
LINE
8
Polygon
10
-71.0550350533998
20
-50.89485539740092
11
-71.01368074914454
21
-51.08758874326781
0
LINE
8
Polygon
10
-71.01368074914454
20
-51.08758874326781
11
-70.95355457918025
21
-51.27531504609964
0
LINE
8
Polygon
10
-70.95355457918025
20
-51.27531504609964
11
-70.87524061394845
21
-51.456210717521486
0
LINE
8
Polygon
10
-70.87524061394845
20
-51.456210717521486
11
-70.77949960159384
21
-51.62851852246021
0
LINE
8
Polygon
10
-70.77949960159384
20
-51.62851852246021
11
-70.66726157799582
21
-51.790564649067086
0
LINE
8
Polygon
10
-70.66726157799582
20
-51.790564649067086
11
-70.53961683232518
21
-51.94077496826043
0
LINE
8
Polygon
10
-70.53961683232518
20
-51.94077496826043
11
-70.39780531588775
21
-52.07769032494186
0
LINE
8
Polygon
10
-70.39780531588775
20
-52.07769032494186
11
-70.24320459713773
21
-52.19998071234604
0
LINE
8
Polygon
10
-70.24320459713773
20
-52.19998071234604
11
-70.07731647986725
21
-52.30645819183321
0
LINE
8
Polygon
10
-70.07731647986725
20
-52.30645819183321
11
-69.90175241456369
21
-52.39608843262042
0
LINE
8
Polygon
10
-69.90175241456369
20
-52.39608843262042
11
-69.71821784465035
21
-52.468000759353814
0
LINE
8
Polygon
10
-69.71821784465035
20
-52.468000759353814
11
-69.52849563967213
21
-52.52149660991895
0
LINE
8
Polygon
10
-69.52849563967213
20
-52.52149660991895
11
-69.33442877635764
21
-52.5560563213292
0
LINE
8
Polygon
10
-69.33442877635764
20
-52.5560563213292
11
-69.13790243579531
21
-52.57134417777374
0
LINE
8
Polygon
10
-69.13790243579531
20
-52.57134417777374
11
-68.94082569063302
21
-52.56721167178785
0
LINE
8
Polygon
10
-68.94082569063302
20
-52.56721167178785
11
-68.74511296019308
21
-52.54369894686642
0
LINE
8
Polygon
10
-68.74511296019308
20
-52.54369894686642
11
-68.55266541364932
21
-52.501034407506765
0
LINE
8
Polygon
10
-68.55266541364932
20
-52.501034407506765
11
-68.36535250191709
21
-52.439632500469
0
LINE
8
Polygon
10
-68.36535250191709
20
-52.439632500469
11
-68.18499379765697
21
-52.36008968880698
0
LINE
8
Polygon
10
-68.18499379765697
20
-52.36008968880698
11
-68.01334131980002
21
-52.263178657778255
0
LINE
8
Polygon
10
-68.01334131980002
20
-52.263178657778255
11
-67.85206251429504
21
-52.149840808917524
0
LINE
8
Polygon
10
-67.85206251429506
20
-52.149840808917524
11
-67.70272405640499
21
-52.021177115186525
0
LINE
8
Polygon
10
-67.70272405640499
20
-52.021177115186525
11
-67.56677663189751
21
-51.87843742603431
0
LINE
8
Polygon
10
-67.56677663189751
20
-51.87843742603431
11
-67.44554084496714
21
-51.72300832625933
0
LINE
8
Polygon
10
-67.44554084496714
20
-51.72300832625933
11
-67.34019438977997
21
-51.556399666613494
0
LINE
8
Polygon
10
-67.34019438977997
20
-51.556399666613494
11
-67.25176061025813
21
-51.38022989699065
0
LINE
8
Polygon
10
-67.25176061025812
20
-51.380229896990656
11
-67.24385811839073
21
-51.36340754145448
0
LINE
8
Polygon
10
-67.24385811839073
20
-51.36340754145448
11
-67.23518271567485
21
-51.34697043674539
0
LINE
8
Polygon
10
-67.23518271567485
20
-51.34697043674539
11
-67.22575313236047
21
-51.33095407067763
0
LINE
8
Polygon
10
-67.22575313236047
20
-51.33095407067763
11
-67.21558972697825
21
-51.315393022687964
0
LINE
8
Polygon
10
-67.21558972697825
20
-51.315393022687964
11
-67.20471444238544
21
-51.30032088917855
0
LINE
8
Polygon
10
-67.20471444238544
20
-51.30032088917855
11
-67.19315075839104
21
-51.28577021098207
0
LINE
8
Polygon
10
-67.19315075839104
20
-51.28577021098207
11
-67.18092364106278
21
-51.27177240310582
0
LINE
8
Polygon
10
-67.18092364106278
20
-51.27177240310582
11
-67.16805948882516
21
-51.25835768690653
0
LINE
8
Polygon
10
-67.16805948882516
20
-51.25835768690653
11
-67.15458607546518
21
-51.245555024842304
0
LINE
8
Polygon
10
-67.15458607546518
20
-51.245555024842304
11
-67.14053249016845
21
-51.23339205794243
0
LINE
8
Polygon
10
-67.14053249016845
20
-51.23339205794243
11
-67.12592907471553
21
-51.22189504613025
0
LINE
8
Polygon
10
-67.12592907471553
20
-51.22189504613025
11
-67.1108073579738
21
-51.211088811527816
0
LINE
8
Polygon
10
-67.1108073579738
20
-51.211088811527816
11
-67.09519998782645
21
-51.200996684864755
0
LINE
8
Polygon
10
-67.09519998782645
20
-51.200996684864755
11
-67.07914066068544
21
-51.19164045510709
0
LINE
8
Polygon
10
-67.07914066068544
20
-51.19164045510709
11
-67.06266404874083
21
-51.18304032241472
0
LINE
8
Polygon
10
-67.06266404874083
20
-51.18304032241472
11
-67.04580572510318
21
-51.17521485452915
0
LINE
8
Polygon
10
-67.04580572510318
20
-51.17521485452915
11
-67.02860208700108
21
-51.168180946685595
0
LINE
8
Polygon
10
-67.02860208700108
20
-51.168180946685595
11
-67.01109027719923
21
-51.16195378513607
0
LINE
8
Polygon
10
-67.01109027719923
20
-51.16195378513607
11
-66.99330810380701
21
-51.15654681436222
0
LINE
8
Polygon
10
-66.99330810380701
20
-51.15654681436222
11
-66.97529395865055
21
-51.15197170804853
0
LINE
8
Polygon
10
-66.97529395865055
20
-51.15197170804853
11
-66.95708673438445
21
-51.14823834387878
0
LINE
8
Polygon
10
-66.95708673438445
20
-51.14823834387878
11
-66.93872574052239
21
-51.14535478221012
0
LINE
8
Polygon
10
-66.93872574052239
20
-51.14535478221012
11
-66.92025061856755
21
-51.14332724867061
0
LINE
8
Polygon
10
-66.92025061856755
20
-51.14332724867061
11
-66.90170125642642
21
-51.14216012071815
0
LINE
8
Polygon
10
-66.90170125642642
20
-51.14216012071815
11
-66.88311770229055
21
-51.14185591818945
0
LINE
8
Polygon
10
-66.88311770229053
20
-51.14185591818945
11
-66.86454007817215
21
-51.14241529785972
0
LINE
8
Polygon
10
-66.86454007817215
20
-51.14241529785972
11
-66.84600849328056
21
-51.143837052024665
0
LINE
8
Polygon
10
-66.84600849328056
20
-51.143837052024665
11
-66.8275629574261
21
-51.14611811110795
0
LINE
8
Polygon
10
-66.8275629574261
20
-51.14611811110795
11
-66.80924329463865
21
-51.14925355028844
0
LINE
8
Polygon
10
-66.80924329463865
20
-51.14925355028844
11
-66.79108905718739
21
-51.15323660013286
0
LINE
8
Polygon
10
-66.79108905718739
20
-51.15323660013286
11
-66.7731394401871
21
-51.158058661211136
0
LINE
8
Polygon
10
-66.7731394401871
20
-51.158058661211136
11
-66.7554331969757
21
-51.16370932266254
0
LINE
8
Polygon
10
-66.7554331969757
20
-51.16370932266254
11
-66.73800855544553
21
-51.17017638467287
0
LINE
8
Polygon
10
-66.73800855544553
20
-51.17017638467287
11
-66.72090313550916
21
-51.17744588481386
0
LINE
8
Polygon
10
-66.72090313550916
20
-51.17744588481386
11
-66.70415386787761
21
-51.18550212818821
0
LINE
8
Polygon
10
-66.70415386787761
20
-51.18550212818821
11
-66.68779691432687
21
-51.194327721314934
0
LINE
8
Polygon
10
-66.68779691432687
20
-51.194327721314934
11
-66.67186758962427
21
-51.20390360968203
0
LINE
8
Polygon
10
-66.67186758962427
20
-51.20390360968203
11
-66.65640028528375
21
-51.21420911888524
0
LINE
8
Polygon
10
-66.65640028528375
20
-51.21420911888524
11
-66.64142839531432
21
-51.22522199926429
0
LINE
8
Polygon
10
-66.64142839531432
20
-51.22522199926429
11
-66.6269842441222
21
-51.23691847393999
0
LINE
8
Polygon
10
-66.6269842441222
20
-51.23691847393999
11
-66.61309901672222
21
-51.249273290148665
0
LINE
8
Polygon
10
-66.61309901672222
20
-51.249273290148665
11
-66.59980269140912
21
-51.262259773763134
0
LINE
8
Polygon
10
-66.59980269140912
20
-51.262259773763134
11
-66.58712397503436
21
-51.27584988688216
0
LINE
8
Polygon
10
-66.58712397503436
20
-51.27584988688216
11
-66.57509024102767
21
-51.2900142883646
0
LINE
8
Polygon
10
-66.57509024102767
20
-51.2900142883646
11
-66.56372747029774
21
-51.30472239717706
0
LINE
8
Polygon
10
-66.56372747029774
20
-51.30472239717706
11
-66.55306019513928
21
-51.31994245841851
0
LINE
8
Polygon
10
-66.55306019513928
20
-51.31994245841851
11
-66.54311144626759
21
-51.33564161187938
0
LINE
8
Polygon
10
-66.54311144626759
20
-51.33564161187938
11
-66.53390270309512
21
-51.351785962986916
0
LINE
8
Polygon
10
-66.53390270309512
20
-51.351785962986916
11
-66.51136883707524
21
-51.39331927600276
0
LINE
8
Polygon
10
-66.51136883707524
20
-51.39331927600276
11
-66.48867160027538
21
-51.43476353555128
0
LINE
8
Polygon
10
-66.48867160027538
20
-51.43476353555126
11
-66.46581134462744
21
-51.476118099018734
0
LINE
8
Polygon
10
-66.46581134462744
20
-51.476118099018734
11
-66.44278842459097
21
-51.51738232518217
0
LINE
8
Polygon
10
-66.44278842459097
20
-51.51738232518216
11
-66.41960319714774
21
-51.558555574219355
0
LINE
8
Polygon
10
-66.41960319714774
20
-51.558555574219355
11
-66.39625602179615
21
-51.599637207718715
0
LINE
8
Polygon
10
-66.39625602179615
20
-51.599637207718715
11
-66.37274726054572
21
-51.6406265886892
0
LINE
8
Polygon
10
-66.37274726054572
20
-51.6406265886892
11
-66.34907727791139
21
-51.68152308157018
0
LINE
8
Polygon
10
-66.34907727791139
20
-51.68152308157018
11
-66.32524644090797
21
-51.72232605224132
0
LINE
8
Polygon
10
-66.32524644090797
20
-51.72232605224132
11
-66.30125511904438
21
-51.76303486803238
0
LINE
8
Polygon
10
-66.30125511904438
20
-51.76303486803238
11
-66.27710368431791
21
-51.803648897733034
0
LINE
8
Polygon
10
-66.27710368431791
20
-51.803648897733034
11
-66.2527925112085
21
-51.84416751160269
0
LINE
8
Polygon
10
-66.2527925112085
20
-51.84416751160268
11
-66.22832197667292
21
-51.88459008138017
0
LINE
8
Polygon
10
-66.22832197667292
20
-51.88459008138017
11
-66.20369246013888
21
-51.92491598029356
0
LINE
8
Polygon
10
-66.20369246013888
20
-51.92491598029356
11
-66.17890434349925
21
-51.965144583069865
0
LINE
8
Polygon
10
-66.17890434349925
20
-51.965144583069865
11
-66.15395801110603
21
-52.0052752659447
0
LINE
8
Polygon
10
-66.15395801110603
20
-52.0052752659447
11
-66.12885384976443
21
-52.04530740667197
0
LINE
8
Polygon
10
-66.12885384976444
20
-52.04530740667196
11
-66.10359224872688
21
-52.085240384533535
0
LINE
8
Polygon
10
-66.10359224872688
20
-52.085240384533535
11
-66.078173599687
21
-52.12507358034885
0
LINE
8
Polygon
10
-66.078173599687
20
-52.12507358034885
11
-66.05259829677352
21
-52.1648063764845
0
LINE
8
Polygon
10
-66.05259829677352
20
-52.1648063764845
11
-66.02686673654416
21
-52.20443815686383
0
LINE
8
Polygon
10
-66.02686673654416
20
-52.20443815686383
11
-66.00097931797949
21
-52.243968306976505
0
LINE
8
Polygon
10
-66.00097931797949
20
-52.2439683069765
11
-65.9749364424767
21
-52.283396213887976
0
LINE
8
Polygon
10
-65.9749364424767
20
-52.283396213887976
11
-65.9487385138435
21
-52.322721266249076
0
LINE
8
Polygon
10
-65.9487385138435
20
-52.32272126624906
11
-65.9223859382917
21
-52.36194285430539
0
LINE
8
Polygon
10
-65.9223859382917
20
-52.36194285430539
11
-65.89587912443102
21
-52.40106036990683
0
LINE
8
Polygon
10
-65.89587912443102
20
-52.40106036990683
11
-65.86921848326273
21
-52.440073206516956
0
LINE
8
Polygon
10
-65.86921848326273
20
-52.44007320651695
11
-65.84240442817323
21
-52.47898075922245
0
LINE
8
Polygon
10
-65.84240442817323
20
-52.47898075922245
11
-65.81543737492773
21
-52.517782424742464
0
LINE
8
Polygon
10
-65.81543737492773
20
-52.517782424742464
11
-65.78831774166369
21
-52.55647760143799
0
LINE
8
Polygon
10
-65.7883177416637
20
-52.55647760143799
11
-65.76104594888449
21
-52.59506568932119
0
LINE
8
Polygon
10
-65.76104594888449
20
-52.59506568932119
11
-65.73362241945271
21
-52.633546090064655
0
LINE
8
Polygon
10
-65.73362241945271
20
-52.633546090064655
11
-65.70604757858376
21
-52.67191820701076
0
LINE
8
Polygon
10
-65.70604757858376
20
-52.67191820701076
11
-65.6783218538392
21
-52.71018144518085
0
LINE
8
Polygon
10
-65.6783218538392
20
-52.71018144518085
11
-65.65044567512007
21
-52.74833521128449
0
LINE
8
Polygon
10
-65.65044567512007
20
-52.74833521128449
11
-65.6224194746603
21
-52.78637891372869
0
LINE
8
Polygon
10
-65.6224194746603
20
-52.78637891372869
11
-65.59424368702001
21
-52.82431196262702
0
LINE
8
Polygon
10
-65.59424368702001
20
-52.824311962627014
11
-65.56591874907872
21
-52.86213376980879
0
LINE
8
Polygon
10
-65.56591874907872
20
-52.86213376980879
11
-65.5374451000286
21
-52.89984374882819
0
LINE
8
Polygon
10
-65.5374451000286
20
-52.89984374882819
11
-65.50882318136765
21
-52.93744131497334
0
LINE
8
Polygon
10
-65.50882318136765
20
-52.93744131497334
11
-65.48005343689287
21
-52.97492588527539
0
LINE
8
Polygon
10
-65.48005343689287
20
-52.97492588527539
11
-65.45113631269338
21
-53.01229687851754
0
LINE
8
Polygon
10
-65.4511363126934
20
-53.01229687851754
11
-65.4220722571435
21
-53.04955371524406
0
LINE
8
Polygon
10
-65.4220722571435
20
-53.04955371524406
11
-65.39286172089577
21
-53.08669581776927
0
LINE
8
Polygon
10
-65.39286172089577
20
-53.08669581776927
11
-65.363505156874
21
-53.123722610186505
0
LINE
8
Polygon
10
-65.363505156874
20
-53.1237226101865
11
-65.33400302026624
21
-53.16063351837703
0
LINE
8
Polygon
10
-65.33400302026624
20
-53.16063351837703
11
-65.3043557685177
21
-53.197427970018985
0
LINE
8
Polygon
10
-65.3043557685177
20
-53.197427970018985
11
-65.27456386132367
21
-53.234105394596185
0
LINE
8
Polygon
10
-65.27456386132367
20
-53.234105394596185
11
-46.675543077495654
21
-38.06583502903593
0
ENDSEC
0
EOF
