0
SECTION
2
ENTITIES
0
LINE
8
Polygon
10
-0.08083997845677407
20
-0.30565283347907307
11
-0.0811975474678987
21
-0.3063281229807236
0
LINE
8
Polygon
10
-0.0811975474678987
20
-0.3063281229807236
11
-0.08155207758797928
21
-0.30700501285560117
0
LINE
8
Polygon
10
-0.08155207758797928
20
-0.30700501285560117
11
-0.08190356165438475
21
-0.30768348942838697
0
LINE
8
Polygon
10
-0.08190356165438475
20
-0.30768348942838697
11
-0.08225199256602408
21
-0.308363538991706
0
LINE
8
Polygon
10
-0.08225199256602408
20
-0.308363538991706
11
-0.08259736328348957
21
-0.3090451478064036
0
LINE
8
Polygon
10
-0.08259736328348952
20
-0.3090451478064035
11
-0.0829396668291991
21
-0.3097283021018235
0
LINE
8
Polygon
10
-0.0829396668291991
20
-0.3097283021018235
11
-0.08327889628753724
21
-0.31041298807608597
0
LINE
8
Polygon
10
-0.08327889628753724
20
-0.31041298807608597
11
-0.08361504480499479
21
-0.3110991918963662
0
LINE
8
Polygon
10
-0.08361504480499479
20
-0.3110991918963662
11
-0.08394810559030733
21
-0.3117868996991743
0
LINE
8
Polygon
10
-0.08394810559030733
20
-0.3117868996991743
11
-0.08427807191459236
21
-0.31247609759063505
0
LINE
8
Polygon
10
-0.08427807191459236
20
-0.31247609759063505
11
-0.08460493711148534
21
-0.31316677164676876
0
LINE
8
Polygon
10
-0.08460493711148534
20
-0.31316677164676876
11
-0.08492869457727428
21
-0.31385890791377263
0
LINE
8
Polygon
10
-0.08492869457727426
20
-0.3138589079137726
11
-0.08524933777103325
21
-0.31455249240830235
0
LINE
8
Polygon
10
-0.08524933777103325
20
-0.31455249240830235
11
-0.08556686021475449
21
-0.3152475111177551
0
LINE
8
Polygon
10
-0.08556686021475449
20
-0.3152475111177551
11
-0.08588125549347922
21
-0.31594395000055225
0
LINE
8
Polygon
10
-0.08588125549347922
20
-0.31594395000055225
11
-0.08619251725542729
21
-0.31664179498642314
0
LINE
8
Polygon
10
-0.08619251725542729
20
-0.31664179498642314
11
-0.08650063921212553
21
-0.31734103197668934
0
LINE
8
Polygon
10
-0.08650063921212553
20
-0.31734103197668934
11
-0.0868056151385348
21
-0.31804164684454966
0
LINE
8
Polygon
10
-0.0868056151385348
20
-0.31804164684454966
11
-0.08710743887317571
21
-0.31874362543536533
0
LINE
8
Polygon
10
-0.08710743887317571
20
-0.31874362543536533
11
-0.08740610431825308
21
-0.3194469535669461
0
LINE
8
Polygon
10
-0.08740610431825308
20
-0.3194469535669461
11
-0.08770160543977931
21
-0.3201516170298366
0
LINE
8
Polygon
10
-0.08770160543977928
20
-0.3201516170298365
11
-0.08799393626769597
21
-0.3208576015876037
0
LINE
8
Polygon
10
-0.08799393626769597
20
-0.3208576015876037
11
-0.08828309089599481
21
-0.3215648929771239
0
LINE
8
Polygon
10
-0.08828309089599481
20
-0.3215648929771239
11
-0.08856906348283669
21
-0.32227347690887165
0
LINE
8
Polygon
10
-0.08856906348283669
20
-0.32227347690887165
11
-0.08885184825066991
21
-0.3229833390672078
0
LINE
8
Polygon
10
-0.08885184825066991
20
-0.3229833390672078
11
-0.08913143948634669
21
-0.323694465110669
0
LINE
8
Polygon
10
-0.08913143948634669
20
-0.323694465110669
11
-0.08940783154123882
21
-0.3244068406722576
0
LINE
8
Polygon
10
-0.08940783154123882
20
-0.3244068406722576
11
-0.0896810188313516
21
-0.32512045135973144
0
LINE
8
Polygon
10
-0.08968101883135157
20
-0.3251204513597314
11
-0.08995099583743674
21
-0.32583528275589513
0
LINE
8
Polygon
10
-0.08995099583743674
20
-0.32583528275589513
11
-0.09021775710510391
21
-0.3265513204188911
0
LINE
8
Polygon
10
-0.09021775710510391
20
-0.3265513204188911
11
-0.09048129724493079
21
-0.32726854988249127
0
LINE
8
Polygon
10
-0.09048129724493079
20
-0.32726854988249127
11
-0.0907416109325721
21
-0.3279869566563894
0
LINE
8
Polygon
10
-0.0907416109325721
20
-0.3279869566563894
11
-0.09099869290886708
21
-0.3287065262264939
0
LINE
8
Polygon
10
-0.09099869290886708
20
-0.3287065262264939
11
-0.09125253797994584
21
-0.329427244055221
0
LINE
8
Polygon
10
-0.09125253797994584
20
-0.329427244055221
11
-0.09150314101733412
21
-0.33014909558178857
0
LINE
8
Polygon
10
-0.09150314101733412
20
-0.33014909558178857
11
-0.09175049695805704
21
-0.33087206622251
0
LINE
8
Polygon
10
-0.09175049695805704
20
-0.33087206622251
11
-0.0919946008047414
21
-0.3315961413710892
0
LINE
8
Polygon
10
-0.0919946008047414
20
-0.33159614137108917
11
-0.09223544762571656
21
-0.33232130639891544
0
LINE
8
Polygon
10
-0.09223544762571656
20
-0.33232130639891544
11
-0.09247303255511416
21
-0.333047546655359
0
LINE
8
Polygon
10
-0.09247303255511416
20
-0.333047546655359
11
-0.0927073507929663
21
-0.3337748474680672
0
LINE
8
Polygon
10
-0.0927073507929663
20
-0.3337748474680672
11
-0.09293839760530262
21
-0.33450319414326063
0
LINE
8
Polygon
10
-0.09293839760530262
20
-0.33450319414326063
11
-0.09316616832424596
21
-0.3352325719660303
0
LINE
8
Polygon
10
-0.09316616832424596
20
-0.3352325719660303
11
-0.09339065834810656
21
-0.33596296620063454
0
LINE
8
Polygon
10
-0.09339065834810656
20
-0.33596296620063454
11
-0.09361186314147513
21
-0.3366943620907973
0
LINE
8
Polygon
10
-0.0936118631414751
20
-0.3366943620907972
11
-0.09382977823531438
21
-0.3374267448600054
0
LINE
8
Polygon
10
-0.09382977823531438
20
-0.3374267448600054
11
-0.09404439922704949
21
-0.33816009971180827
0
LINE
8
Polygon
10
-0.09404439922704949
20
-0.33816009971180827
11
-0.0942557217806568
21
-0.3388944118301156
0
LINE
8
Polygon
10
-0.0944637416267516
20
-0.3396296663794975
11
-0.09459643432631155
21
-0.3400644698358569
0
LINE
8
Polygon
10
-0.09459643432631155
20
-0.3400644698358569
11
-0.09474875098330204
21
-0.34049279335165056
0
LINE
8
Polygon
10
-0.09474875098330204
20
-0.34049279335165056
11
-0.09492037681799008
21
-0.340913751747512
0
LINE
8
Polygon
10
-0.09492037681799008
20
-0.340913751747512
11
-0.09511095714602605
21
-0.3413264750649345
0
LINE
8
Polygon
10
-0.09511095714602605
20
-0.3413264750649345
11
-0.09532009811143939
21
-0.3417301103641398
0
LINE
8
Polygon
10
-0.09532009811143939
20
-0.3417301103641398
11
-0.09554736750058682
21
-0.342123823486775
0
LINE
8
Polygon
10
-0.09554736750058682
20
-0.342123823486775
11
-0.09579229563537107
21
-0.342506800779796
0
LINE
8
Polygon
10
-0.09579229563537107
20
-0.342506800779796
11
-0.09605437634388429
21
-0.3428782507769743
0
LINE
8
Polygon
10
-0.09605437634388429
20
-0.3428782507769743
11
-0.0963330680064699
21
-0.3432374058345523
0
LINE
8
Polygon
10
-0.0963330680064699
20
-0.3432374058345523
11
-0.09662779467504139
21
-0.3435835237176664
0
LINE
8
Polygon
10
-0.09662779467504139
20
-0.3435835237176664
11
-0.09693794726334468
21
-0.3439158891342598
0
LINE
8
Polygon
10
-0.09693794726334468
20
-0.3439158891342598
11
-0.0972628848057043
21
-0.34423381521331575
0
LINE
8
Polygon
10
-0.09726288480570432
20
-0.34423381521331575
11
-0.09760193578165202
21
-0.34453664492435393
0
LINE
8
Polygon
10
-0.09760193578165202
20
-0.34453664492435393
11
-0.09795439950370038
21
-0.34482375243525953
0
LINE
8
Polygon
10
-0.09795439950370038
20
-0.34482375243525953
11
-0.09831954756539335
21
-0.34509454440563614
0
LINE
8
Polygon
10
-0.09831954756539335
20
-0.34509454440563614
11
-0.0986966253466412
21
-0.34534846121301166
0
LINE
8
Polygon
10
-0.0986966253466412
20
-0.34534846121301166
11
-0.09908485357322898
21
-0.3455849781093618
0
LINE
8
Polygon
10
-0.09908485357322898
20
-0.3455849781093618
11
-0.09948342992727549
21
-0.34580360630556156
0
LINE
8
Polygon
10
-0.09948342992727549
20
-0.34580360630556156
11
-0.09989153070531467
21
-0.3460038939815239
0
LINE
8
Polygon
10
-0.09989153070531467
20
-0.3460038939815239
11
-0.10030831252057262
21
-0.34618542721993734
0
LINE
8
Polygon
10
-0.10030831252057262
20
-0.34618542721993734
11
-0.1007329140459226
21
-0.34634783086167314
0
LINE
8
Polygon
10
-0.1007329140459226
20
-0.34634783086167314
11
-0.10116445779391564
21
-0.3464907692810946
0
LINE
8
Polygon
10
-0.10116445779391564
20
-0.3464907692810946
11
-0.10160205193020835
21
-0.3466139470796657
0
LINE
8
Polygon
10
-0.10160205193020835
20
-0.3466139470796657
11
-0.10204479211664036
21
-0.34671710969642555
0
LINE
8
Polygon
10
-0.10204479211664036
20
-0.34671710969642555
11
-0.10249176338015206
21
-0.346800043934068
0
LINE
8
Polygon
10
-0.10249176338015206
20
-0.346800043934068
11
-0.10294204200368083
21
-0.346862578399538
0
LINE
8
Polygon
10
-0.10294204200368083
20
-0.346862578399538
11
-0.10339469743512758
21
-0.34690458385823486
0
LINE
8
Polygon
10
-0.10339469743512758
20
-0.34690458385823486
11
-0.10384879421044876
21
-0.3469259735010903
0
LINE
8
Polygon
10
-0.10384879421044876
20
-0.3469259735010903
11
-0.10430339388689942
21
-0.34692670312396934
0
LINE
8
Polygon
10
-0.10430339388689942
20
-0.34692670312396934
11
-0.10475755698243207
21
-0.34690677121902314
0
LINE
8
Polygon
10
-0.10475755698243207
20
-0.34690677121902314
11
-0.10521034491724347
21
-0.3468662189778051
0
LINE
8
Polygon
10
-0.10521034491724347
20
-0.3468662189778051
11
-0.10566082195345677
21
-0.346805130206144
0
LINE
8
Polygon
10
-0.10566082195345677
20
-0.346805130206144
11
-0.10610805712893046
21
-0.34672363115094945
0
LINE
8
Polygon
10
-0.10610805712893046
20
-0.34672363115094945
11
-0.10655112618119773
21
-0.3466218902393084
0
LINE
8
Polygon
10
-0.10655112618119773
20
-0.3466218902393084
11
-0.1069891134575603
21
-0.34650011773041134
0
LINE
8
Polygon
10
-0.1069891134575603
20
-0.34650011773041134
11
-0.10742111380738899
21
-0.3463585652810278
0
LINE
8
Polygon
10
-0.107421113807389
20
-0.3463585652810278
11
-0.10784623445272071
21
-0.34619752542542886
0
LINE
8
Polygon
10
-0.10784623445272071
20
-0.34619752542542886
11
-0.10826359683328585
21
-0.34601733097083165
0
LINE
8
Polygon
10
-0.10826359683328585
20
-0.34601733097083165
11
-0.10867233842215326
21
-0.34581835430961555
0
LINE
8
Polygon
10
-0.10867233842215326
20
-0.34581835430961555
11
-0.10907161450824049
21
-0.3456010066497306
0
LINE
8
Polygon
10
-0.10907161450824049
20
-0.3456010066497306
11
-0.10946059994200541
21
-0.3453657371648897
0
LINE
8
Polygon
10
-0.1094605999420054
20
-0.3453657371648897
11
-0.10983849084071189
21
-0.3451130320662997
0
LINE
8
Polygon
10
-0.10983849084071189
20
-0.3451130320662997
11
-0.11020450624974508
21
-0.3448434135978506
0
LINE
8
Polygon
10
-0.11020450624974508
20
-0.3448434135978506
11
-0.11055788975654311
21
-0.344557438956839
0
LINE
8
Polygon
10
-0.11055788975654311
20
-0.344557438956839
11
-0.11089791105380992
21
-0.3442556991424565
0
LINE
8
Polygon
10
-0.11089791105380992
20
-0.3442556991424565
11
-0.11122386744877846
21
-0.34393881773442236
0
LINE
8
Polygon
10
-0.11122386744877846
20
-0.34393881773442236
11
-0.11153508531540546
21
-0.343607449604285
0
LINE
8
Polygon
10
-0.11183092148649637
20
-0.3432622795620554
11
-0.11519665014428887
21
-0.33954652657279105
0
LINE
8
Polygon
10
-0.11519665014428887
20
-0.33954652657279105
11
-0.11891756761690792
21
-0.33618650829351476
0
LINE
8
Polygon
10
-0.11891756761690792
20
-0.33618650829351476
11
-0.1229562638749857
21
-0.3332160062803693
0
LINE
8
Polygon
10
-0.1229562638749857
20
-0.3332160062803693
11
-0.1272721339476423
21
-0.3306648859007989
0
LINE
8
Polygon
10
-0.1272721339476423
20
-0.3306648859007989
11
-0.1318217861640455
21
-0.32855879606774563
0
LINE
8
Polygon
10
-0.1318217861640455
20
-0.32855879606774563
11
-0.13655947841239585
21
-0.3269189113659957
0
LINE
8
Polygon
10
-0.13655947841239588
20
-0.3269189113659957
11
-0.141437578030198
21
-0.3257617191633296
0
LINE
8
Polygon
10
-0.141437578030198
20
-0.3257617191633296
11
-0.14640704070209046
21
-0.32509885384685866
0
LINE
8
Polygon
10
-0.14640704070209046
20
-0.32509885384685866
11
-0.1514179035504051
21
-0.32493697985113135
0
LINE
8
Polygon
10
-0.1514179035504051
20
-0.32493697985113135
11
-0.1564197874609334
21
-0.32527772465404214
0
LINE
8
Polygon
10
-0.1564197874609334
20
-0.32527772465404214
11
-0.1613624035935266
21
-0.32611766241420176
0
LINE
8
Polygon
10
-0.1613624035935266
20
-0.32611766241420176
11
-0.16619605898508227
21
-0.3274483484142774
0
LINE
8
Polygon
10
-0.1661960589850823
20
-0.3274483484142774
11
-0.17087215616159498
21
-0.32925640396401107
0
LINE
8
Polygon
10
-0.17087215616159498
20
-0.32925640396401107
11
-0.17534368173618167
21
-0.3315236509093017
0
LINE
8
Polygon
10
-0.17534368173618167
20
-0.3315236509093017
11
-0.17956567908072707
21
-0.334227294395001
0
LINE
8
Polygon
10
-0.17956567908072707
20
-0.334227294395001
11
-0.18349570031891774
21
-0.337340152043928
0
LINE
8
Polygon
10
-0.18349570031891774
20
-0.337340152043928
11
-0.18709423309633605
21
-0.34083092724794195
0
LINE
8
Polygon
10
-0.18709423309633602
20
-0.34083092724794195
11
-0.1903250978368761
21
-0.34466452382341095
0
LINE
8
Polygon
10
-0.1903250978368761
20
-0.34466452382341095
11
-0.19315581149147373
21
-0.3488023988675353
0
LINE
8
Polygon
10
-0.19315581149147373
20
-0.3488023988675353
11
-0.19555791412202772
21
-0.3532029502679166
0
LINE
8
Polygon
10
-0.19555791412202772
20
-0.3532029502679166
11
-0.19750725503704472
21
-0.35782193496935844
0
LINE
8
Polygon
10
-0.19750725503704472
20
-0.35782193496935844
11
-0.1989842356022053
21
-0.3626129137926523
0
LINE
8
Polygon
10
-0.1989842356022053
20
-0.3626129137926523
11
-0.19997400628463882
21
-0.3675277183331511
0
LINE
8
Polygon
10
-0.19997400628463882
20
-0.3675277183331511
11
-0.2004666159498282
21
-0.37251693524493945
0
LINE
8
Polygon
10
-0.2004666159498282
20
-0.37251693524493945
11
-0.2004571119101158
21
-0.3775304030416189
0
LINE
8
Polygon
10
-0.2004571119101158
20
-0.3775304030416189
11
-0.19994558971892562
21
-0.3825177164188825
0
LINE
8
Polygon
10
-0.19994558971892562
20
-0.3825177164188825
11
-0.19893719221007092
21
-0.3874287330284297
0
LINE
8
Polygon
10
-0.19893719221007092
20
-0.3874287330284297
11
-0.19744205779180674
21
-0.3922140776081266
0
LINE
8
Polygon
10
-0.19744205779180676
20
-0.39221407760812654
11
-0.19547521851547733
21
-0.3968256383998977
0
LINE
8
Polygon
10
-0.19547521851547733
20
-0.3968256383998977
11
-0.19305644894357452
21
-0.4012170508643731
0
LINE
8
Polygon
10
-0.19305644894357452
20
-0.4012170508643731
11
-0.1902100673366845
21
-0.4053441638290338
0
LINE
8
Polygon
10
-0.1902100673366845
20
-0.40534416382903377
11
-0.18696469115818537
21
-0.4091654833832118
0
LINE
8
Polygon
10
-0.18696469115818537
20
-0.4091654833832118
11
-0.18335294935484653
21
-0.41264259005703235
0
LINE
8
Polygon
10
-0.18335294935484653
20
-0.41264259005703235
11
-0.17941115430605453
21
-0.4157405250899908
0
LINE
8
Polygon
10
-0.1794111543060546
20
-0.4157405250899908
11
-0.17517893673988183
21
-0.4184281419056272
0
LINE
8
Polygon
10
-0.17517893673988177
20
-0.4184281419056272
11
-0.17069884728654422
21
-0.4206784192585787
0
LINE
8
Polygon
10
-0.17069884728654428
20
-0.42067841925857863
11
-0.16601592867522175
21
-0.4224687329056366
0
LINE
8
Polygon
10
-0.16601592867522175
20
-0.4224687329056366
11
-0.16117726287536557
21
-0.42378108306943246
0
LINE
8
Polygon
10
-0.16117726287536557
20
-0.42378108306943246
11
-0.1562314977355254
21
-0.42460227540783696
0
LINE
8
Polygon
10
-0.1562314977355254
20
-0.42460227540783696
11
-0.1512283578788591
21
-0.42492405366961034
0
LINE
8
Polygon
10
-0.1512283578788591
20
-0.42492405366961034
11
-0.14621814477277265
21
-0.4247431827025861
0
LINE
8
Polygon
10
-0.1462181447727727
20
-0.4247431827025861
11
-0.14125123099897932
21
-0.4240614809798258
0
LINE
8
Polygon
10
-0.14125123099897927
20
-0.4240614809798258
11
-0.13637755380857694
21
-0.4228858023167275
0
LINE
8
Polygon
10
-0.13637755380857697
20
-0.4228858023167275
11
-0.1316461130539311
21
-0.42122796696290354
0
LINE
8
Polygon
10
-0.13164611305393112
20
-0.4212279669629036
11
-0.12710447854514517
21
-0.4191046427616292
0
LINE
8
Polygon
10
-0.12710447854514514
20
-0.4191046427616292
11
-0.12279831178414762
21
-0.41653717757168157
0
LINE
8
Polygon
10
-0.12279831178414766
20
-0.4165371775716816
11
-0.11877090688487063
21
-0.4135513846363975
0
LINE
8
Polygon
10
-0.11506275529509999
20
-0.4101772830578447
11
-0.11473503190852812
21
-0.4098622294432448
0
LINE
8
Polygon
10
-0.11473503190852812
20
-0.4098622294432448
11
-0.11439332851557263
21
-0.409562395840356
0
LINE
8
Polygon
10
-0.11439332851557263
20
-0.409562395840356
11
-0.11403835128524302
21
-0.40927840188949416
0
LINE
8
Polygon
10
-0.11403835128524302
20
-0.40927840188949416
11
-0.1136708338184467
21
-0.409010834496529
0
LINE
8
Polygon
10
-0.1136708338184467
20
-0.409010834496529
11
-0.1132915356319191
21
-0.40876024661997573
0
LINE
8
Polygon
10
-0.1132915356319191
20
-0.40876024661997573
11
-0.11290124058859577
21
-0.4085271561282438
0
LINE
8
Polygon
10
-0.11290124058859577
20
-0.4085271561282438
11
-0.11250075527767027
21
-0.40831204472940247
0
LINE
8
Polygon
10
-0.11250075527767027
20
-0.40831204472940247
11
-0.11209090734768565
21
-0.40811535697567614
0
LINE
8
Polygon
10
-0.11209090734768565
20
-0.40811535697567614
11
-0.11167254379610442
21
-0.4079374993447268
0
LINE
8
Polygon
10
-0.11167254379610442
20
-0.4079374993447268
11
-0.11124652921889175
21
-0.40777883939962123
0
LINE
8
Polygon
10
-0.11124652921889175
20
-0.40777883939962123
11
-0.11081374402372936
21
-0.4076397050292204
0
LINE
8
Polygon
10
-0.11081374402372936
20
-0.4076397050292204
11
-0.11037508261055266
21
-0.40752038377055955
0
LINE
8
Polygon
10
-0.11037508261055266
20
-0.40752038377055955
11
-0.10993145152317142
21
-0.4074211222146201
0
LINE
8
Polygon
10
-0.10993145152317142
20
-0.4074211222146201
11
-0.10948376757579356
21
-0.4073421254967215
0
LINE
8
Polygon
10
-0.10948376757579356
20
-0.4073421254967215
11
-0.10903295595832416
21
-0.40728355687258533
0
LINE
8
Polygon
10
-0.10903295595832416
20
-0.40728355687258533
11
-0.10857994832435502
21
-0.4072455373809492
0
LINE
8
Polygon
10
-0.10857994832435502
20
-0.4072455373809492
11
-0.10812568086579638
21
-0.4072281455934261
0
LINE
8
Polygon
10
-0.10812568086579637
20
-0.4072281455934261
11
-0.10767109237812954
21
-0.4072314174521274
0
LINE
8
Polygon
10
-0.10767109237812954
20
-0.4072314174521274
11
-0.10721712232027908
21
-0.40725534619538395
0
LINE
8
Polygon
10
-0.10721712232027908
20
-0.40725534619538395
11
-0.10676470887311389
21
-0.4072998823717205
0
LINE
8
Polygon
10
-0.10676470887311389
20
-0.4072998823717205
11
-0.1063147870005894
21
-0.40736493394205237
0
LINE
8
Polygon
10
-0.1063147870005894
20
-0.40736493394205237
11
-0.10586828651753807
21
-0.40745036646989463
0
LINE
8
Polygon
10
-0.10586828651753807
20
-0.40745036646989463
11
-0.1054261301681011
21
-0.4075560033991909
0
LINE
8
Polygon
10
-0.1054261301681011
20
-0.4075560033991909
11
-0.10498923171877232
21
-0.40768162641918604
0
LINE
8
Polygon
10
-0.10498923171877232
20
-0.40768162641918604
11
-0.10455849406999576
21
-0.4078269759155905
0
LINE
8
Polygon
10
-0.10455849406999576
20
-0.4078269759155905
11
-0.10413480739021885
21
-0.4079917515071027
0
LINE
8
Polygon
10
-0.10413480739021885
20
-0.4079917515071027
11
-0.10371904727625793
21
-0.40817561266618146
0
LINE
8
Polygon
10
-0.10371904727625793
20
-0.40817561266618146
11
-0.10331207294377757
21
-0.40837817942278465
0
LINE
8
Polygon
10
-0.10331207294377757
20
-0.40837817942278465
11
-0.1029147254516235
21
-0.40859903314962087
0
LINE
8
Polygon
10
-0.1029147254516235
20
-0.40859903314962087
11
-0.10252782596367863
21
-0.4088377174272903
0
LINE
8
Polygon
10
-0.10252782596367863
20
-0.4088377174272903
11
-0.1021521740518343
21
-0.4090937389875275
0
LINE
8
Polygon
10
-0.1021521740518343
20
-0.4090937389875275
11
-0.10178854604358381
21
-0.4093665687325964
0
LINE
8
Polygon
10
-0.10178854604358381
20
-0.4093665687325964
11
-0.10143769341765319
21
-0.40965564282873124
0
LINE
8
Polygon
10
-0.10143769341765319
20
-0.40965564282873124
11
-0.10110034125098472
21
-0.40996036387136314
0
LINE
8
Polygon
10
-0.10110034125098472
20
-0.40996036387136314
11
-0.10077718672028281
21
-0.4102801021197249
0
LINE
8
Polygon
10
-0.10077718672028281
20
-0.4102801021197249
11
-0.10046889766121891
21
-0.4106141967982818
0
LINE
8
Polygon
10
-0.10046889766121891
20
-0.4106141967982818
11
-0.10017611118827292
21
-0.4109619574623001
0
LINE
8
Polygon
10
-0.10017611118827292
20
-0.4109619574623001
11
-0.09989943237806348
21
-0.41132266542472906
0
LINE
8
Polygon
10
-0.09989943237806348
20
-0.41132266542472906
11
-0.09963943301888825
21
-0.4116955752414503
0
LINE
8
Polygon
10
-0.09963943301888825
20
-0.4116955752414503
11
-0.09939665042905815
21
-0.41207991625182255
0
LINE
8
Polygon
10
-0.09939665042905815
20
-0.41207991625182255
11
-0.09917158634646787
21
-0.41247489417134003
0
LINE
8
Polygon
10
-0.09917158634646787
20
-0.41247489417134003
11
-0.09896470589169729
21
-0.4128796927331118
0
LINE
8
Polygon
10
-0.09896470589169727
20
-0.4128796927331118
11
-0.09877643660678675
21
-0.4132934753747703
0
LINE
8
Polygon
10
-0.09877643660678675
20
-0.4132934753747703
11
-0.09860716757167286
21
-0.4137153869673228
0
LINE
8
Polygon
10
-0.09860716757167286
20
-0.4137153869673228
11
-0.09845724860011021
21
-0.41414455558237306
0
LINE
8
Polygon
10
-0.09845724860011021
20
-0.41414455558237306
11
-0.0983269895167416
21
-0.41458009429406073
0
LINE
8
Polygon
10
-0.0983269895167416
20
-0.41458009429406073
11
-0.09821665951680995
21
-0.41502110301199463
0
LINE
8
Polygon
10
-0.09812648660983575
20
-0.41546667034139206
11
-0.09799029175328824
21
-0.4162185496334371
0
LINE
8
Polygon
10
-0.09799029175328824
20
-0.4162185496334371
11
-0.09785071873908968
21
-0.41696980916413445
0
LINE
8
Polygon
10
-0.09785071873908968
20
-0.41696980916413445
11
-0.09770777038705686
21
-0.41772043375566287
0
LINE
8
Polygon
10
-0.09770777038705686
20
-0.41772043375566287
11
-0.09756144958519913
21
-0.41847040824302884
0
LINE
8
Polygon
10
-0.09756144958519913
20
-0.41847040824302884
11
-0.09741175928966003
21
-0.419219717474373
0
LINE
8
Polygon
10
-0.09741175928966006
20
-0.4192197174743729
11
-0.09725870252465751
21
-0.4199683463112761
0
LINE
8
Polygon
10
-0.09725870252465751
20
-0.4199683463112761
11
-0.0971022823824228
21
-0.4207162796290655
0
LINE
8
Polygon
10
-0.0971022823824228
20
-0.4207162796290655
11
-0.09694250202313812
21
-0.4214635023171197
0
LINE
8
Polygon
10
-0.09694250202313812
20
-0.4214635023171197
11
-0.09677936467487266
21
-0.4222099992791745
0
LINE
8
Polygon
10
-0.09677936467487266
20
-0.4222099992791745
11
-0.09661287363351734
21
-0.4229557554336275
0
LINE
8
Polygon
10
-0.09661287363351734
20
-0.4229557554336275
11
-0.09644303226271844
21
-0.4237007557138431
0
LINE
8
Polygon
10
-0.09644303226271844
20
-0.4237007557138431
11
-0.09626984399380942
21
-0.42444498506845657
0
LINE
8
Polygon
10
-0.09626984399380945
20
-0.4244449850684565
11
-0.0960933123257417
21
-0.4251884284616784
0
LINE
8
Polygon
10
-0.0960933123257417
20
-0.4251884284616784
11
-0.09591344082501391
21
-0.4259310708735982
0
LINE
8
Polygon
10
-0.09591344082501391
20
-0.4259310708735982
11
-0.09573023312559995
21
-0.4266728973004877
0
LINE
8
Polygon
10
-0.09573023312559995
20
-0.4266728973004877
11
-0.0955436929288754
21
-0.427413892755104
0
LINE
8
Polygon
10
-0.0955436929288754
20
-0.427413892755104
11
-0.09535382400354295
21
-0.42815404226699283
0
LINE
8
Polygon
10
-0.09535382400354295
20
-0.42815404226699283
11
-0.09516063018555607
21
-0.4288933308827903
0
LINE
8
Polygon
10
-0.09516063018555607
20
-0.4288933308827903
11
-0.09496411537804161
21
-0.42963174366652557
0
LINE
8
Polygon
10
-0.09496411537804161
20
-0.42963174366652557
11
-0.09476428355122091
21
-0.4303692656999223
0
LINE
8
Polygon
10
-0.09476428355122091
20
-0.4303692656999223
11
-0.09456113874232966
21
-0.43110588208270006
0
LINE
8
Polygon
10
-0.09456113874232969
20
-0.4311058820827
11
-0.09435468505553621
21
-0.43184157793287553
0
LINE
8
Polygon
10
-0.09435468505553621
20
-0.43184157793287553
11
-0.09414492666185872
21
-0.43257633838706316
0
LINE
8
Polygon
10
-0.09414492666185872
20
-0.43257633838706316
11
-0.09393186779908097
21
-0.4333101486007751
0
LINE
8
Polygon
10
-0.09393186779908097
20
-0.4333101486007751
11
-0.09371551277166659
21
-0.4340429937487215
0
LINE
8
Polygon
10
-0.09371551277166659
20
-0.4340429937487215
11
-0.09349586595067219
21
-0.43477485902511
0
LINE
8
Polygon
10
-0.09349586595067219
20
-0.43477485902511
11
-0.09327293177365906
21
-0.4355057296439446
0
LINE
8
Polygon
10
-0.09327293177365906
20
-0.4355057296439446
11
-0.09304671474460346
21
-0.43623559083932445
0
LINE
8
Polygon
10
-0.09304671474460349
20
-0.4362355908393244
11
-0.09281721943380572
21
-0.43696442786574247
0
LINE
8
Polygon
10
-0.09281721943380572
20
-0.43696442786574247
11
-0.09258445047779768
21
-0.437692225998383
0
LINE
8
Polygon
10
-0.09258445047779768
20
-0.437692225998383
11
-0.09234841257924939
21
-0.4384189705334192
0
LINE
8
Polygon
10
-0.09234841257924939
20
-0.4384189705334192
11
-0.09210911050687376
21
-0.4391446467883104
0
LINE
8
Polygon
10
-0.09210911050687376
20
-0.4391446467883104
11
-0.09186654909533035
21
-0.4398692401020983
0
LINE
8
Polygon
10
-0.09186654909533035
20
-0.4398692401020983
11
-0.09162073324512773
21
-0.4405927358357038
0
LINE
8
Polygon
10
-0.09162073324512773
20
-0.4405927358357038
11
-0.09137166792252446
21
-0.441315119372222
0
LINE
8
Polygon
10
-0.09137166792252446
20
-0.441315119372222
11
-0.09111935815942865
21
-0.44203637611721835
0
LINE
8
Polygon
10
-0.09111935815942865
20
-0.44203637611721835
11
-0.09086380905329647
21
-0.44275649149902263
0
LINE
8
Polygon
10
-0.09086380905329647
20
-0.4427564914990226
11
-0.090605025767029
21
-0.44347545096902397
0
LINE
8
Polygon
10
-0.090605025767029
20
-0.44347545096902397
11
-0.09034301352886803
21
-0.4441932400019647
0
LINE
8
Polygon
10
-0.09034301352886803
20
-0.4441932400019647
11
-0.09007777763229038
21
-0.4449098440962335
0
LINE
8
Polygon
10
-0.09007777763229038
20
-0.4449098440962335
11
-0.08980932343590109
21
-0.4456252487741586
0
LINE
8
Polygon
10
-0.08980932343590109
20
-0.4456252487741586
11
-0.08953765636332486
21
-0.4463394395823002
0
LINE
8
Polygon
10
-0.08953765636332486
20
-0.4463394395823002
11
-0.08926278190309683
21
-0.4470524020917427
0
LINE
8
Polygon
10
-0.08926278190309683
20
-0.4470524020917427
11
-0.08898470560855143
21
-0.4477641218983857
0
LINE
8
Polygon
10
-0.08898470560855146
20
-0.44776412189838566
11
-0.08870343309771034
21
-0.4484745846232356
0
LINE
8
Polygon
10
-0.08870343309771034
20
-0.4484745846232356
11
-0.08841897005316884
21
-0.44918377591269587
0
LINE
8
Polygon
10
-0.08841897005316884
20
-0.44918377591269587
11
-0.08813132222198117
21
-0.44989168143885677
0
LINE
8
Polygon
10
-0.08784049541554437
20
-0.45059828689978515
11
-0.08672646711791179
21
-0.4532252139450761
0
LINE
8
Polygon
10
-0.08672646711791179
20
-0.4532252139450761
11
-0.085568505334146
21
-0.45583307307787935
0
LINE
8
Polygon
10
-0.08556850533414603
20
-0.4558330730778793
11
-0.08436693628911732
21
-0.4584211296033895
0
LINE
8
Polygon
10
-0.08436693628911732
20
-0.4584211296033895
11
-0.08312209849287949
21
-0.46098865440565817
0
LINE
8
Polygon
10
-0.08312209849287949
20
-0.46098865440565817
11
-0.08183434264530395
21
-0.4635349241530028
0
LINE
8
Polygon
10
-0.08183434264530401
20
-0.4635349241530027
11
-0.08050403153727914
21
-0.4660592215017857
0
LINE
8
Polygon
10
-0.08050403153727914
20
-0.4660592215017857
11
-0.07913153994850386
21
-0.4685608352985074
0
LINE
8
Polygon
10
-0.07913153994850386
20
-0.4685608352985074
11
-0.07771725454190323
21
-0.47103906078015423
0
LINE
8
Polygon
10
-0.07771725454190329
20
-0.4710390607801542
11
-0.0762615737546967
21
-0.47349319977274706
0
LINE
8
Polygon
10
-0.0762615737546967
20
-0.47349319977274706
11
-0.07476490768614877
21
-0.4759225608880332
0
LINE
8
Polygon
10
-0.07476490768614877
20
-0.4759225608880332
11
-0.07322767798203472
21
-0.4783264597182665
0
LINE
8
Polygon
10
-0.07322767798203478
20
-0.4783264597182664
11
-0.07165031771585309
21
-0.4807042190290206
0
LINE
8
Polygon
10
-0.07165031771585309
20
-0.4807042190290206
11
-0.07003327126681852
21
-0.4830551689499828
0
LINE
8
Polygon
10
-0.07003327126681852
20
-0.4830551689499828
11
-0.06837699419467014
21
-0.48537864716367074
0
LINE
8
Polygon
10
-0.06837699419467017
20
-0.48537864716367074
11
-0.06668195311132943
21
-0.4876739990920238
0
LINE
8
Polygon
10
-0.06668195311132943
20
-0.4876739990920238
11
-0.06494862554944494
21
-0.4899405780808126
0
LINE
8
Polygon
10
-0.06494862554944494
20
-0.4899405780808126
11
-0.06317749982786008
21
-0.4921777455818164
0
LINE
8
Polygon
10
-0.06317749982786014
20
-0.4921777455818164
11
-0.06136907491404245
21
-0.4943848713327174
0
LINE
8
Polygon
10
-0.06136907491404245
20
-0.4943848713327174
11
-0.05952386028351275
21
-0.49656133353466037
0
LINE
8
Polygon
10
-0.05952386028351275
20
-0.49656133353466037
11
-0.057642375776314037
21
-0.49870651902742746
0
LINE
8
Polygon
10
-0.05764237577631409
20
-0.4987065190274274
11
-0.05572515145056041
21
-0.5008198234621801
0
LINE
8
Polygon
10
-0.05572515145056041
20
-0.5008198234621801
11
-0.05377272743310714
21
-0.5029006514717184
0
LINE
8
Polygon
10
-0.05377272743310714
20
-0.5029006514717184
11
-0.051785653767384685
21
-0.5049484168382092
0
LINE
8
Polygon
10
-0.051785653767384754
20
-0.5049484168382092
11
-0.04976449025843836
21
-0.5069625426583383
0
LINE
8
Polygon
10
-0.04976449025843836
20
-0.5069625426583383
11
-0.047709806315218095
21
-0.5089424615058369
0
LINE
8
Polygon
10
-0.047709806315218095
20
-0.5089424615058369
11
-0.04562218079016295
21
-0.510887615591339
0
LINE
8
Polygon
10
-0.045622180790163
20
-0.5108876155913389
11
-0.04350220181612466
21
-0.5127974569195237
0
LINE
8
Polygon
10
-0.04350220181612466
20
-0.5127974569195237
11
-0.04135046664067682
21
-0.5146714474434986
0
LINE
8
Polygon
10
-0.04135046664067682
20
-0.5146714474434986
11
-0.03916758145785651
21
-0.5165090592163796
0
LINE
8
Polygon
10
-0.039167581457856565
20
-0.5165090592163795
11
-0.03695416123738521
21
-0.518309774540026
0
LINE
8
Polygon
10
-0.03695416123738521
20
-0.518309774540026
11
-0.0347108295514172
21
-0.5200730861108891
0
LINE
8
Polygon
10
-0.0347108295514172
20
-0.5200730861108891
11
-0.03243821839886517
21
-0.5217984971629295
0
LINE
8
Polygon
10
-0.03243821839886525
20
-0.5217984971629295
11
-0.03013696802735119
21
-0.5234855216075697
0
LINE
8
Polygon
10
-0.03013696802735119
20
-0.5234855216075697
11
-0.02780772675283369
21
-0.5251336841706353
0
LINE
8
Polygon
10
-0.02780772675283369
20
-0.5251336841706353
11
-0.025451150776962306
21
-0.5267425205262517
0
LINE
8
Polygon
10
-0.02545115077696236
20
-0.5267425205262517
11
-0.02306790400221012
21
-0.5283115774276547
0
LINE
8
Polygon
10
-0.02306790400221012
20
-0.5283115774276547
11
-0.020658657844836906
21
-0.5298404128348813
0
LINE
8
Polygon
10
-0.020658657844836906
20
-0.5298404128348813
11
-0.018224091045735635
21
-0.5313285960393023
0
LINE
8
Polygon
10
-0.01822409104573569
20
-0.5313285960393023
11
-0.01576488947921527
21
-0.5327757077849635
0
LINE
8
Polygon
10
-0.01576488947921527
20
-0.5327757077849635
11
-0.013281745959773744
21
-0.5341813403866994
0
LINE
8
Polygon
10
-0.013281745959773744
20
-0.5341813403866994
11
-0.010775360046916288
21
-0.5355450978449876
0
LINE
8
Polygon
10
-0.010775360046916357
20
-0.5355450978449876
11
-0.008246437848073024
21
-0.5368665959575116
0
LINE
8
Polygon
10
-0.008246437848073024
20
-0.5368665959575116
11
-0.005695691819671833
21
-0.5381454624273992
0
LINE
8
Polygon
10
-0.005695691819671833
20
-0.5381454624273992
11
-0.00312384056642305
21
-0.5393813369681071
0
LINE
8
Polygon
10
-0.0031238405664231195
20
-0.5393813369681071
11
-0.0005316086388717223
21
-0.5405738714049223
0
LINE
8
Polygon
10
-0.0005316086388716945
20
-0.5405738714049223
11
0.002080273670725663
21
-0.541722729773051
0
LINE
8
Polygon
10
0.002080273670725663
20
-0.541722729773051
11
0.0047110705341408265
21
-0.5428275884122677
0
LINE
8
Polygon
10
0.0073600407944743335
20
-0.5438881360580979
11
0.007840186220453545
21
-0.5440617155127132
0
LINE
8
Polygon
10
0.007840186220453545
20
-0.5440617155127132
11
0.00832856519975845
21
-0.5442105625137794
0
LINE
8
Polygon
10
0.008328565199758452
20
-0.5442105625137794
11
0.00882390467755485
21
-0.5443342890626267
0
LINE
8
Polygon
10
0.00882390467755485
20
-0.5443342890626267
11
0.009324913455114898
21
-0.5444325726419321
0
LINE
8
Polygon
10
0.0093249134551149
20
-0.5444325726419321
11
0.009830285555577844
21
-0.5445051570564228
0
LINE
8
Polygon
10
0.009830285555577844
20
-0.5445051570564228
11
0.010338703628232804
21
-0.5445518531006995
0
LINE
8
Polygon
10
0.010338703628232804
20
-0.5445518531006995
11
0.010848842382449719
21
-0.5445725390524374
0
LINE
8
Polygon
10
0.01084884238244972
20
-0.5445725390524374
11
0.011359372042307248
21
-0.5445671609896781
0
LINE
8
Polygon
10
0.011359372042307248
20
-0.5445671609896781
11
0.011868961812912427
21
-0.5445357329313886
0
LINE
8
Polygon
10
0.011868961812912429
20
-0.5445357329313886
11
0.012376283349376517
21
-0.544478336800918
0
LINE
8
Polygon
10
0.012376283349376517
20
-0.544478336800918
11
0.012880014219404391
21
-0.5443951222124479
0
LINE
8
Polygon
10
0.012880014219404393
20
-0.5443951222124479
11
0.013378841350471637
21
-0.5442863060809944
0
LINE
8
Polygon
10
0.013378841350471637
20
-0.5442863060809944
11
0.013871464452603564
21
-0.5441521720569765
0
LINE
8
Polygon
10
0.013871464452603564
20
-0.5441521720569765
11
0.014356599407834037
21
-0.5439930697868268
0
LINE
8
Polygon
10
0.014356599407834039
20
-0.5439930697868268
11
0.014832981617508796
21
-0.5438094140015689
0
LINE
8
Polygon
10
0.014832981617508796
20
-0.5438094140015689
11
0.015299369298707906
21
-0.5436016834357414
0
LINE
8
Polygon
10
0.015299369298707906
20
-0.5436016834357414
11
0.015754546721194553
21
-0.5433704195794826
0
LINE
8
Polygon
10
0.015754546721194557
20
-0.5433704195794826
11
0.016197327376452464
21
-0.5431162252670312
0
LINE
8
Polygon
10
0.016197327376452464
20
-0.5431162252670312
11
0.01662655707055119
21
-0.5428397631053214
0
LINE
8
Polygon
10
0.01662655707055119
20
-0.5428397631053214
11
0.017041116932777187
21
-0.5425417537467697
0
LINE
8
Polygon
10
0.017041116932777187
20
-0.5425417537467697
11
0.017439926332188015
21
-0.542222974010753
0
LINE
8
Polygon
10
0.017439926332188015
20
-0.542222974010753
11
0.017821945694487154
21
-0.5418842548586789
0
LINE
8
Polygon
10
0.017821945694487154
20
-0.5418842548586789
11
0.018186179211876676
21
-0.5415264792279222
0
LINE
8
Polygon
10
0.018186179211876676
20
-0.5415264792279222
11
0.018531677438824036
21
-0.5411505797302775
0
LINE
8
Polygon
10
0.018531677438824036
20
-0.5411505797302775
11
0.018857539766976572
21
-0.5407575362209248
0
LINE
8
Polygon
10
0.018857539766976572
20
-0.5407575362209248
11
0.019162916772772425
21
-0.5403483732442462
0
LINE
8
Polygon
10
0.019162916772772425
20
-0.5403483732442462
11
0.01944701243162831
21
-0.539924157363152
0
LINE
8
Polygon
10
0.01944701243162831
20
-0.539924157363152
11
0.019709086192932497
21
-0.5394859943788766
0
LINE
8
Polygon
10
0.019709086192932497
20
-0.5394859943788766
11
0.019948454910434052
21
-0.5390350264484924
0
LINE
8
Polygon
10
0.019948454910434052
20
-0.5390350264484924
11
0.020164494622996465
21
-0.5385724291076557
0
LINE
8
Polygon
10
0.020164494622996465
20
-0.5385724291076557
11
0.02035664218107377
21
-0.5380994082063435
0
LINE
8
Polygon
10
0.020356642181073772
20
-0.5380994082063435
11
0.020524396714669393
21
-0.5376171967655715
0
LINE
8
Polygon
10
0.020524396714669393
20
-0.5376171967655715
11
0.020667320938951256
21
-0.5371270517632848
0
LINE
8
Polygon
10
0.020667320938951256
20
-0.5371270517632848
11
0.020785042294119788
21
-0.5366302508577999
0
LINE
8
Polygon
10
0.020785042294119788
20
-0.5366302508577999
11
0.02087725391655751
21
-0.5361280890573404
0
LINE
8
Polygon
10
0.02087725391655751
20
-0.5361280890573404
11
0.020943715438728788
21
-0.5356218753443457
0
LINE
8
Polygon
10
0.020943715438728788
20
-0.5356218753443457
11
0.02098425361574456
21
-0.5351129292633533
0
LINE
8
Polygon
10
0.02098425361574456
20
-0.5351129292633533
11
0.020998762776958863
21
-0.5346025774813498
0
LINE
8
Polygon
10
0.020998762776958863
20
-0.5346025774813498
11
0.020987205101419916
21
-0.5340921503295549
0
LINE
8
Polygon
10
0.020987205101419916
20
-0.5340921503295549
11
0.02094961071645781
21
-0.5335829783356544
0
LINE
8
Polygon
10
0.02094961071645781
20
-0.5335829783356544
11
0.020886077619151747
21
-0.5330763887555208
0
LINE
8
Polygon
10
0.020886077619151743
20
-0.5330763887555208
11
0.020796771420881578
21
-0.5325737021134624
0
LINE
8
Polygon
10
0.020796771420881578
20
-0.5325737021134624
11
0.02068192491562955
21
-0.5320762287600206
0
LINE
8
Polygon
10
0.020681924915629552
20
-0.5320762287600206
11
0.020541837473157458
21
-0.531585265456285
0
LINE
8
Polygon
10
0.020541837473157458
20
-0.531585265456285
11
0.020376874258641132
21
-0.5311020919936346
0
LINE
8
Polygon
10
0.020376874258641132
20
-0.5311020919936346
11
0.02018746528079636
21
-0.5306279678577112
0
LINE
8
Polygon
10
0.02018746528079636
20
-0.5306279678577112
11
0.019974104270977483
21
-0.5301641289453263
0
LINE
8
Polygon
10
0.10457670361564145
20
-0.533809321298786
11
0.10692926097318206
21
-0.5300563868564615
0
LINE
8
Polygon
10
0.10692926097318206
20
-0.5300563868564615
11
0.10894045326380493
21
-0.5261099772706426
0
LINE
8
Polygon
10
0.10894045326380493
20
-0.5261099772706426
11
0.11059449742025834
21
-0.5220010624531505
0
LINE
8
Polygon
10
0.11059449742025834
20
-0.5220010624531505
11
0.11187841313713821
21
-0.5177618875946606
0
LINE
8
Polygon
10
0.11187841313713821
20
-0.5177618875946606
11
0.11278212473535626
21
-0.5134257201167891
0
LINE
8
Polygon
10
0.11278212473535626
20
-0.5134257201167891
11
0.11329854023221281
21
-0.5090265886021023
0
LINE
8
Polygon
10
0.11329854023221281
20
-0.5090265886021023
11
0.11342360699656227
21
-0.504599015750826
0
LINE
8
Polygon
10
0.11342360699656227
20
-0.504599015750826
11
0.11315634355231115
21
-0.5001777474599086
0
LINE
8
Polygon
10
0.11315634355231116
20
-0.5001777474599086
11
0.1124988472806667
21
-0.4957974801505224
0
LINE
8
Polygon
10
0.1124988472806667
20
-0.4957974801505224
11
0.11145627796069209
21
-0.49149258848383065
0
LINE
8
Polygon
10
0.11145627796069209
20
-0.49149258848383065
11
0.11003681727733533
21
-0.48729685560180536
0
LINE
8
Polygon
10
0.11003681727733533
20
-0.48729685560180536
11
0.10825160461469761
21
-0.4832432080100601
0
LINE
8
Polygon
10
0.10825160461469763
20
-0.4832432080100601
11
0.10611464963841086
21
-0.4793634571832379
0
LINE
8
Polygon
10
0.10611464963841086
20
-0.4793634571832379
11
0.10364272235314437
21
-0.47568804992073505
0
LINE
8
Polygon
10
0.10364272235314437
20
-0.475688049920735
11
0.10085522149802753
21
-0.4722458294118735
0
LINE
8
Polygon
10
0.10085522149802753
20
-0.4722458294118735
11
0.09777402231277052
21
-0.4690638088855922
0
LINE
8
Polygon
10
0.0977740223127705
20
-0.4690638088855922
11
0.0944233048691564
21
-0.4661669596209662
0
LINE
8
Polygon
10
0.0944233048691564
20
-0.4661669596209662
11
0.0908293643150936
21
-0.463578014982167
0
LINE
8
Polygon
10
0.09082936431509361
20
-0.463578014982167
11
0.08702040452036028
21
-0.46131729201572264
0
LINE
8
Polygon
10
0.08702040452036028
20
-0.46131729201572264
11
0.08302631674343017
21
-0.45940253201011316
0
LINE
8
Polygon
10
0.08302631674343017
20
-0.45940253201011316
11
0.07887844505631797
21
-0.4578487612689299
0
LINE
8
Polygon
10
0.07887844505631798
20
-0.4578487612689299
11
0.0746093403683
21
-0.4566681731901967
0
LINE
8
Polygon
10
0.0746093403683
20
-0.4566681731901967
11
0.07025250497883803
21
-0.45587003257724934
0
LINE
8
Polygon
10
0.07025250497883805
20
-0.45587003257724934
11
0.06584212966435725
21
-0.4554606029321057
0
LINE
8
Polygon
10
0.06584212966435725
20
-0.4554606029321057
11
0.06141282536212025
21
-0.4554430973018992
0
LINE
8
Polygon
10
0.06141282536212025
20
-0.4554430973018992
11
0.05699935155683997
21
-0.4558176530641148
0
LINE
8
Polygon
10
0.05699935155683997
20
-0.4558176530641148
11
0.05263634350154881
21
-0.45658133084850333
0
LINE
8
Polygon
10
0.05263634350154881
20
-0.45658133084850333
11
0.04835804041339056
21
-0.45772813760413383
0
LINE
8
Polygon
10
0.04835804041339056
20
-0.45772813760413383
11
0.04419801677735036
21
-0.4592490736305633
0
LINE
8
Polygon
10
0.044198016777350385
20
-0.4592490736305633
11
0.04018891886654821
21
-0.4611322032040408
0
LINE
8
Polygon
10
0.04018891886654821
20
-0.4611322032040408
11
0.03636220854678376
21
-0.4633627482444989
0
LINE
8
Polygon
10
0.03636220854678376
20
-0.4633627482444989
11
0.03274791637585671
21
-0.46592320428826917
0
LINE
8
Polygon
10
0.03274791637585671
20
-0.46592320428826917
11
0.029374405935244145
21
-0.46879347785641245
0
LINE
8
Polygon
10
0.029374405935244145
20
-0.46879347785641245
11
0.02626815124357019
21
-0.47195104414065064
0
LINE
8
Polygon
10
0.02626815124357019
20
-0.47195104414065064
11
0.023453528998641573
21
-0.4753711237694396
0
LINE
8
Polygon
10
0.023453528998641573
20
-0.4753711237694396
11
0.02095262727845415
21
-0.47902687726699217
0
LINE
8
Polygon
10
0.02095262727845415
20
-0.47902687726699217
11
0.018785072202411712
21
-0.48288961567921046
0
LINE
8
Polygon
10
0.018785072202411712
20
-0.48288961567921046
11
0.01696787391305333
21
-0.48692902571361607
0
LINE
8
Polygon
10
0.01696787391305333
20
-0.48692902571361607
11
0.015515293086965955
21
-0.49111340762646627
0
LINE
8
Polygon
10
0.015515293086965955
20
-0.49111340762646627
11
0.01443872902245319
21
-0.4954099239902084
0
LINE
8
Polygon
10
0.01443872902245319
20
-0.4954099239902084
11
0.013746630182205656
21
-0.49978485738904227
0
LINE
8
Polygon
10
0.013746630182205656
20
-0.49978485738904227
11
0.013444427892999732
21
-0.5042038750202927
0
LINE
8
Polygon
10
0.013444427892999739
20
-0.5042038750202927
11
0.013534493722723973
21
-0.5086322981251032
0
LINE
8
Polygon
10
0.013534493722723973
20
-0.5086322981251032
11
0.014016120869222132
21
-0.5130353741340611
0
LINE
8
Polygon
10
0.014016120869222132
20
-0.5130353741340611
11
0.014885529707005962
21
-0.5173785493920593
0
LINE
8
Polygon
10
0.014885529707005962
20
-0.5173785493920593
11
0.01613589744830922
21
-0.5216277403221555
0
LINE
8
Polygon
10
0.01613589744830922
20
-0.5216277403221555
11
0.017757411685714472
21
-0.5257496009004377
0
LINE
8
Polygon
10
0.10457670361564138
20
-0.533809321298786
11
0.10429745608874666
21
-0.5342367441291034
0
LINE
8
Polygon
10
0.10429745608874666
20
-0.5342367441291034
11
0.10404038782059863
21
-0.5346778624382503
0
LINE
8
Polygon
10
0.10404038782059863
20
-0.5346778624382503
11
0.1038061689096564
21
-0.535131526365525
0
LINE
8
Polygon
10
0.1038061689096564
20
-0.535131526365525
11
0.10359540989308366
21
-0.535596553347631
0
LINE
8
Polygon
10
0.10359540989308366
20
-0.535596553347631
11
0.10340866015526483
21
-0.5360717312012583
0
LINE
8
Polygon
10
0.10340866015526483
20
-0.5360717312012583
11
0.1032464064957277
21
-0.5365558212828755
0
LINE
8
Polygon
10
0.1032464064957277
20
-0.5365558212828755
11
0.1031090718602058
21
-0.5370475617174945
0
LINE
8
Polygon
10
0.1031090718602058
20
-0.5370475617174945
11
0.10299701423814804
21
-0.537545670687994
0
LINE
8
Polygon
10
0.10299701423814804
20
-0.537545670687994
11
0.10291052572954953
21
-0.5380488497764244
0
LINE
8
Polygon
10
0.10291052572954953
20
-0.5380488497764244
11
0.10284983178353613
21
-0.5385557873485876
0
LINE
8
Polygon
10
0.10284983178353613
20
-0.5385557873485876
11
0.10281509061068744
21
-0.5390651619730658
0
LINE
8
Polygon
10
0.10281509061068744
20
-0.5390651619730658
11
0.10280639277063014
21
-0.5395756458657908
0
LINE
8
Polygon
10
0.10280639277063014
20
-0.5395756458657908
11
0.10282376093597669
21
-0.5400859083511703
0
LINE
8
Polygon
10
0.10282376093597669
20
-0.5400859083511703
11
0.10286714983322474
21
-0.5405946193307539
0
LINE
8
Polygon
10
0.10286714983322474
20
-0.5405946193307539
11
0.1029364463607714
21
-0.5411004527503925
0
LINE
8
Polygon
10
0.1029364463607714
20
-0.5411004527503925
11
0.10303146988373448
21
-0.541602090056857
0
LINE
8
Polygon
10
0.10303146988373448
20
-0.541602090056857
11
0.1031519727048125
21
-0.5420982236349038
0
LINE
8
Polygon
10
0.1031519727048125
20
-0.5420982236349038
11
0.1032976407099559
21
-0.5425875602158283
0
LINE
8
Polygon
10
0.1032976407099559
20
-0.5425875602158283
11
0.10346809418716642
21
-0.5430688242486212
0
LINE
8
Polygon
10
0.10346809418716642
20
-0.5430688242486212
11
0.10366288881629034
21
-0.5435407612249409
0
LINE
8
Polygon
10
0.10366288881629034
20
-0.5435407612249409
11
0.10388151682722532
21
-0.544002140949233
0
LINE
8
Polygon
10
0.10388151682722532
20
-0.544002140949233
11
0.10412340832352211
21
-0.544451760745475
0
LINE
8
Polygon
10
0.10412340832352211
20
-0.544451760745475
11
0.1043879327679304
21
-0.5448884485921844
0
LINE
8
Polygon
10
0.1043879327679304
20
-0.5448884485921844
11
0.1046744006260169
21
-0.545311066177522
0
LINE
8
Polygon
10
0.1046744006260169
20
-0.545311066177522
11
0.10498206516357106
21
-0.5457185118665223
0
LINE
8
Polygon
10
0.10498206516357105
20
-0.5457185118665223
11
0.10531012439311292
21
-0.5461097235727195
0
LINE
8
Polygon
10
0.10531012439311292
20
-0.5461097235727195
11
0.10565772316442973
21
-0.5464836815266826
0
LINE
8
Polygon
10
0.10565772316442973
20
-0.5464836815266826
11
0.10602395539369124
21
-0.5468394109342433
0
LINE
8
Polygon
10
0.10602395539369124
20
-0.5468394109342433
11
0.10640786642533348
21
-0.5471759845174857
0
LINE
8
Polygon
10
0.10640786642533348
20
-0.5471759845174857
11
0.10680845552055433
21
-0.5474925249318777
0
LINE
8
Polygon
10
0.10680845552055433
20
-0.5474925249318777
11
0.10722467846593386
21
-0.5477882070532393
0
LINE
8
Polygon
10
0.10722467846593386
20
-0.5477882070532393
11
0.10765545029537982
21
-0.5480622601285897
0
LINE
8
Polygon
10
0.10765545029537982
20
-0.5480622601285897
11
0.1080996481183028
21
-0.5483139697852654
0
LINE
8
Polygon
10
0.1080996481183028
20
-0.5483139697852654
11
0.10855611404664912
21
-0.5485426798930705
0
LINE
8
Polygon
10
0.10855611404664912
20
-0.5485426798930705
11
0.10902365821316126
21
-0.5487477942746086
0
LINE
8
Polygon
10
0.10902365821316126
20
-0.5487477942746086
11
0.1095010618729984
21
-0.5489287782593347
0
LINE
8
Polygon
10
0.1095010618729984
20
-0.5489287782593347
11
0.10998708058063206
21
-0.5490851600772786
0
LINE
8
Polygon
10
0.10998708058063206
20
-0.5490851600772786
11
0.11048044743373535
21
-0.549216532088804
0
LINE
8
Polygon
10
0.11048044743373535
20
-0.549216532088804
11
0.11097987637561052
21
-0.5493225518472018
0
LINE
8
Polygon
10
0.11097987637561053
20
-0.5493225518472018
11
0.11148406554754593
21
-0.5494029429913433
0
LINE
8
Polygon
10
0.11148406554754593
20
-0.5494029429913433
11
0.11199170068236405
21
-0.5494574959660694
0
LINE
8
Polygon
10
0.11199170068236405
20
-0.5494574959660694
11
0.11250145853031465
21
-0.5494860685684371
0
LINE
8
Polygon
10
0.11250145853031465
20
-0.5494860685684371
11
0.11301201030838268
21
-0.5494885863183988
0
LINE
8
Polygon
10
0.11301201030838268
20
-0.5494885863183988
11
0.11352202516401974
21
-0.5494650426529495
0
LINE
8
Polygon
10
0.11352202516401974
20
-0.5494650426529495
11
0.11403017364427026
21
-0.549415498943234
0
LINE
8
Polygon
10
0.11403017364427026
20
-0.549415498943234
11
0.11453513116124923
21
-0.5493400843345716
0
LINE
8
Polygon
10
0.11453513116124923
20
-0.5493400843345716
11
0.11503558144493829
21
-0.5492389954098131
0
LINE
8
Polygon
10
0.11553021997429964
20
-0.5491124956769101
11
0.11826906610636756
21
-0.5483121666107982
0
LINE
8
Polygon
10
0.11826906610636756
20
-0.5483121666107982
11
0.12099409369668038
21
-0.5474659814175686
0
LINE
8
Polygon
10
0.12099409369668043
20
-0.5474659814175686
11
0.1237045350413428
21
-0.546574178487347
0
LINE
8
Polygon
10
0.1237045350413428
20
-0.546574178487347
11
0.12639962654574527
21
-0.5456370090618403
0
LINE
8
Polygon
10
0.12639962654574527
20
-0.5456370090618403
11
0.1290786089396868
21
-0.5446547371635565
0
LINE
8
Polygon
10
0.12907860893968687
20
-0.5446547371635565
11
0.13174072749127896
21
-0.543627639521423
0
LINE
8
Polygon
10
0.13174072749127896
20
-0.543627639521423
11
0.13438523221957122
21
-0.5425560054928261
0
LINE
8
Polygon
10
0.13438523221957122
20
-0.5425560054928261
11
0.13701137810583855
21
-0.5414401369820918
0
LINE
8
Polygon
10
0.13701137810583858
20
-0.5414401369820918
11
0.13961842530347024
21
-0.5402803483554327
0
LINE
8
Polygon
10
0.13961842530347024
20
-0.5402803483554327
11
0.14220563934640207
21
-0.5390769663523832
0
LINE
8
Polygon
10
0.14220563934640207
20
-0.5390769663523832
11
0.14477229135603262
21
-0.5378303299937499
0
LINE
8
Polygon
10
0.14477229135603265
20
-0.5378303299937499
11
0.1473176582465653
21
-0.536540790486101
0
LINE
8
Polygon
10
0.1473176582465653
20
-0.536540790486101
11
0.14984102292871848
21
-0.5352087111228239
0
LINE
8
Polygon
10
0.14984102292871848
20
-0.5352087111228239
11
0.1523416745117464
21
-0.5338344671817761
0
LINE
8
Polygon
10
0.15234167451174643
20
-0.533834467181776
11
0.15481890850371366
21
-0.532418445819561
0
LINE
8
Polygon
10
0.15481890850371366
20
-0.532418445819561
11
0.15727202700996684
21
-0.5309610459624576
0
LINE
8
Polygon
10
0.15727202700996684
20
-0.5309610459624576
11
0.15970033892974805
21
-0.5294626781940324
0
LINE
8
Polygon
10
0.15970033892974805
20
-0.5294626781940324
11
0.162103160150894
21
-0.5279237646394693
0
LINE
8
Polygon
10
0.162103160150894
20
-0.5279237646394693
11
0.16447981374256618
21
-0.5263447388466468
0
LINE
8
Polygon
10
0.16447981374256615
20
-0.5263447388466468
11
0.1668296301459584
21
-0.5247260456639973
0
LINE
8
Polygon
10
0.1668296301459584
20
-0.5247260456639973
11
0.169151947362927
21
-0.5230681411151832
0
LINE
8
Polygon
10
0.169151947362927
20
-0.5230681411151832
11
0.17144611114249106
21
-0.5213714922706243
0
LINE
8
Polygon
10
0.17144611114249103
20
-0.5213714922706243
11
0.17371147516515043
21
-0.5196365771159128
0
LINE
8
Polygon
10
0.17371147516515043
20
-0.5196365771159128
11
0.17594740122496885
21
-0.5178638844171541
0
LINE
8
Polygon
10
0.17594740122496885
20
-0.5178638844171541
11
0.17815325940937143
21
-0.5160539135832701
0
LINE
8
Polygon
10
0.17815325940937143
20
-0.5160539135832701
11
0.18032842827660592
21
-0.5142071745253031
0
LINE
8
Polygon
10
0.18032842827660592
20
-0.5142071745253031
11
0.18247229503081713
21
-0.5123241875127629
0
LINE
8
Polygon
10
0.18247229503081713
20
-0.5123241875127629
11
0.18458425569468606
21
-0.5104054830270546
0
LINE
8
Polygon
10
0.184584255694686
20
-0.5104054830270546
11
0.18666371527958409
21
-0.5084516016120288
0
LINE
8
Polygon
10
0.18666371527958409
20
-0.5084516016120288
11
0.18871008795319566
21
-0.5064630937216993
0
LINE
8
Polygon
10
0.18871008795319566
20
-0.5064630937216993
11
0.19072279720456037
21
-0.5044405195651656
0
LINE
8
Polygon
10
0.19072279720456037
20
-0.5044405195651657
11
0.19270127600649
21
-0.5023844489487902
0
LINE
8
Polygon
10
0.19270127600649
20
-0.5023844489487902
11
0.194644966975313
21
-0.5002954611156704
0
LINE
8
Polygon
10
0.194644966975313
20
-0.5002954611156704
11
0.19655332252790272
21
-0.49817414458245163
0
LINE
8
Polygon
10
0.1965533225279027
20
-0.4981741445824517
11
0.19842580503594423
21
-0.4960210969735295
0
LINE
8
Polygon
10
0.19842580503594423
20
-0.4960210969735295
11
0.20026188697739689
21
-0.493836924852684
0
LINE
8
Polygon
10
0.20026188697739689
20
-0.493836924852684
11
0.20206105108510936
21
-0.4916222435521971
0
LINE
8
Polygon
10
0.20206105108510936
20
-0.49162224355219714
11
0.20382279049254615
21
-0.48937767699949897
0
LINE
8
Polygon
10
0.20382279049254615
20
-0.48937767699949897
11
0.20554660887658358
21
-0.4871038575413929
0
LINE
8
Polygon
10
0.20554660887658358
20
-0.4871038575413929
11
0.20723202059733561
21
-0.48480142576590884
0
LINE
8
Polygon
10
0.2072320205973356
20
-0.48480142576590884
11
0.20887855083497
21
-0.48247103032183447
0
LINE
8
Polygon
10
0.20887855083497
20
-0.48247103032183447
11
0.2104857357234761
21
-0.48011332773597576
0
LINE
8
Polygon
10
0.2104857357234761
20
-0.48011332773597576
11
0.21205312248134667
21
-0.47772898222819815
0
LINE
8
Polygon
10
0.21205312248134664
20
-0.4777289822281982
11
0.21358026953913709
21
-0.47531866552430035
0
LINE
8
Polygon
10
0.21358026953913709
20
-0.47531866552430035
11
0.21506674666386583
21
-0.4728830566667731
0
LINE
8
Polygon
10
0.21506674666386583
20
-0.4728830566667731
11
0.21651213508022096
21
-0.4704228418234975
0
LINE
8
Polygon
10
0.21651213508022096
20
-0.4704228418234975
11
0.21791602758853906
21
-0.4679387140944354
0
LINE
8
Polygon
10
0.21927802867952287
20
-0.4654313733163667
11
-0.08083997845677407
21
-0.30565283347907307
0
LINE
8
Polygon
10
-0.9737947291879736
20
-1.0431641075223868
11
1.0431641075223865
21
-0.9737947291879736
0
LINE
8
Polygon
10
1.0431641075223865
20
-0.9737947291879736
11
0.9737947291879736
21
1.0431641075223868
0
LINE
8
Polygon
10
0.9737947291879736
20
1.0431641075223868
11
-1.0431641075223865
21
0.9737947291879736
0
ENDSEC
0
EOF
