0
SECTION
2
ENTITIES
0
LINE
8
Polygon
10
0.8893603837292584
20
-0.22974553049474786
11
0.8885702857304234
21
-0.2314920489788772
0
LINE
8
Polygon
10
0.8885702857304234
20
-0.2314920489788772
11
0.887864769373377
21
-0.2332744149158017
0
LINE
8
Polygon
10
0.887864769373377
20
-0.2332744149158017
11
0.8872454549565372
21
-0.23508853489977824
0
LINE
8
Polygon
10
0.8872454549565372
20
-0.23508853489977824
11
0.8867137648057788
21
-0.23693024259828938
0
LINE
8
Polygon
10
0.8867137648057788
20
-0.2369302425982894
11
0.8862709200079009
21
-0.238795308320499
0
LINE
8
Polygon
10
0.8862709200079009
20
-0.238795308320499
11
0.8859179376062623
21
-0.24067944873121738
0
LINE
8
Polygon
10
0.8859179376062623
20
-0.2406794487312174
11
0.8856556282650256
21
-0.24257833668806705
0
LINE
8
Polygon
10
0.8856556282650256
20
-0.24257833668806705
11
0.8854845944073756
21
-0.24448761117925633
0
LINE
8
Polygon
10
0.8854845944073756
20
-0.24448761117925633
11
0.8854052288319854
21
-0.24640288733913815
0
LINE
8
Polygon
10
0.8854052288319854
20
-0.24640288733913818
11
0.88541771381091
21
-0.24831976651855192
0
LINE
8
Polygon
10
0.88541771381091
20
-0.24831976651855192
11
0.8855220206709777
21
-0.2502338463868206
0
LINE
8
Polygon
10
0.8855220206709777
20
-0.2502338463868206
11
0.8857179098596417
21
-0.25214073104220314
0
LINE
8
Polygon
10
0.8857179098596417
20
-0.25214073104220314
11
0.8860049314951387
21
-0.25403604110758166
0
LINE
8
Polygon
10
0.8860049314951387
20
-0.2540360411075817
11
0.8863824263996948
21
-0.25591542378819865
0
LINE
8
Polygon
10
0.8863824263996948
20
-0.25591542378819865
11
0.8868495276134009
21
-0.25777456286834377
0
LINE
8
Polygon
10
0.8868495276134009
20
-0.25777456286834377
11
0.8874051623852853
21
-0.2596091886240339
0
LINE
8
Polygon
10
0.8874051623852853
20
-0.2596091886240339
11
0.888048054637008
21
-0.26141508762891863
0
LINE
8
Polygon
10
0.888048054637008
20
-0.26141508762891863
11
0.8887767278935192
21
-0.26318811243089235
0
LINE
8
Polygon
10
0.8887767278935192
20
-0.26318811243089235
11
0.8895895086739523
21
-0.26492419107718906
0
LINE
8
Polygon
10
0.8895895086739523
20
-0.2649241910771891
11
0.890484530334962
21
-0.2666193364660841
0
LINE
8
Polygon
10
0.890484530334962
20
-0.2666193364660841
11
0.8914597373576838
21
-0.2682696555037259
0
LINE
8
Polygon
10
0.8914597373576838
20
-0.2682696555037259
11
0.8925128900684653
21
-0.2698713580450681
0
LINE
8
Polygon
10
0.8925128900684653
20
-0.2698713580450681
11
0.893641569782532
21
-0.27142076559836814
0
LINE
8
Polygon
10
0.893641569782532
20
-0.27142076559836814
11
0.8948431843587706
21
-0.27291431977326086
0
LINE
8
Polygon
10
0.8948431843587706
20
-0.27291431977326086
11
0.8961149741528762
21
-0.27434859045300625
0
LINE
8
Polygon
10
0.8961149741528762
20
-0.27434859045300625
11
0.8974540183551883
21
-0.275720283672142
0
LINE
8
Polygon
10
0.8974540183551883
20
-0.275720283672142
11
0.898857241698662
21
-0.27702624918144897
0
LINE
8
Polygon
10
0.898857241698662
20
-0.277026249181449
11
0.9003214215215676
21
-0.27826348768285647
0
LINE
8
Polygon
10
0.9003214215215676
20
-0.27826348768285647
11
0.9018431951686996
21
-0.27942915771767046
0
LINE
8
Polygon
10
0.9018431951686996
20
-0.27942915771767046
11
0.903419067714096
21
-0.2805205821923065
0
LINE
8
Polygon
10
0.903419067714096
20
-0.2805205821923065
11
0.9050454199875325
21
-0.2815352545265389
0
LINE
8
Polygon
10
0.9050454199875325
20
-0.2815352545265389
11
0.906718516886358
21
-0.2824708444101466
0
LINE
8
Polygon
10
0.906718516886358
20
-0.2824708444101466
11
0.9084345159535818
21
-0.28332520315473547
0
LINE
8
Polygon
10
0.9084345159535818
20
-0.28332520315473547
11
0.9101894762025124
21
-0.2840963686284453
0
LINE
8
Polygon
10
0.9101894762025124
20
-0.2840963686284453
11
0.911979367167681
21
-0.28478256976220784
0
LINE
8
Polygon
10
0.911979367167681
20
-0.28478256976220784
11
0.9138000781612625
21
-0.2853822306172085
0
LINE
8
Polygon
10
0.9138000781612624
20
-0.2853822306172085
11
0.9156474277137376
21
-0.2858939740042087
0
LINE
8
Polygon
10
0.9156474277137376
20
-0.2858939740042087
11
0.9175171731771122
21
-0.28631662464641694
0
LINE
8
Polygon
10
0.9175171731771122
20
-0.28631662464641694
11
0.9194050204686395
21
-0.286649211878646
0
LINE
8
Polygon
10
0.9194050204686395
20
-0.286649211878646
11
0.9213066339326693
21
-0.2868909718765552
0
LINE
8
Polygon
10
0.9213066339326693
20
-0.2868909718765552
11
0.9232176462979734
21
-0.28704134941086007
0
LINE
8
Polygon
10
0.9232176462979734
20
-0.28704134941086007
11
0.9251336687076794
21
-0.2870999991224793
0
LINE
8
Polygon
10
0.9251336687076794
20
-0.2870999991224793
11
0.9270503007987794
21
-0.2870667863156911
0
LINE
8
Polygon
10
0.9270503007987794
20
-0.2870667863156911
11
0.9289631408080624
21
-0.28694178726747716
0
LINE
8
Polygon
10
0.9289631408080625
20
-0.28694178726747716
11
0.9308677956812647
21
-0.2867252890523441
0
LINE
8
Polygon
10
0.9308677956812647
20
-0.2867252890523441
11
0.9327598911622161
21
-0.2864177888830241
0
LINE
8
Polygon
10
0.9327598911622161
20
-0.2864177888830241
11
0.9346350818388173
21
-0.28601999296856934
0
LINE
8
Polygon
10
0.9346350818388173
20
-0.28601999296856934
11
0.9364890611227711
21
-0.2855328148924629
0
LINE
8
Polygon
10
0.936489061122771
20
-0.28553281489246296
11
0.9551349109255458
21
-0.28110794493965696
0
LINE
8
Polygon
10
0.9551349109255458
20
-0.28110794493965696
11
0.974118662696314
21
-0.2784879530173916
0
LINE
8
Polygon
10
0.974118662696314
20
-0.2784879530173916
11
0.9932660231982291
21
-0.277696893742381
0
LINE
8
Polygon
10
0.9932660231982291
20
-0.277696893742381
11
1.0124011970732796
21
-0.27874202997200154
0
LINE
8
Polygon
10
1.0124011970732796
20
-0.27874202997200154
11
1.0313485008510654
21
-0.2816137661226928
0
LINE
8
Polygon
10
1.0313485008510654
20
-0.2816137661226928
11
1.0499339759303141
21
-0.2862857362687349
0
LINE
8
Polygon
10
1.0499339759303141
20
-0.2862857362687349
11
1.0679869857240638
21
-0.29271504621255107
0
LINE
8
Polygon
10
1.0679869857240638
20
-0.29271504621255107
11
1.0853417823048364
21
-0.3008426673040447
0
LINE
8
Polygon
10
1.0853417823048364
20
-0.3008426673040447
11
1.1018390281661468
21
-0.3105939783932448
0
LINE
8
Polygon
10
1.1018390281661465
20
-0.3105939783932448
11
1.1173272591287886
21
-0.3218794509404952
0
LINE
8
Polygon
10
1.1173272591287886
20
-0.3218794509404952
11
1.1316642749606844
21
-0.33459547099406733
0
LINE
8
Polygon
10
1.1316642749606844
20
-0.3345954709940674
11
1.1447184449427734
21
-0.3486252904884732
0
LINE
8
Polygon
10
1.1447184449427734
20
-0.3486252904884731
11
1.1563699163942998
21
-0.3638400991294368
0
LINE
8
Polygon
10
1.1563699163942998
20
-0.3638400991294369
11
1.1665117150618163
21
-0.3801002070243569
0
LINE
8
Polygon
10
1.1665117150618163
20
-0.3801002070243569
11
1.1750507272690303
21
-0.3972563272003155
0
LINE
8
Polygon
10
1.17505072726903
20
-0.3972563272003155
11
1.1819085548102
21
-0.41515094623460774
0
LINE
8
Polygon
10
1.1819085548102
20
-0.4151509462346078
11
1.1870222347381527
21
-0.43361977041378424
0
LINE
8
Polygon
10
1.1870222347381527
20
-0.4336197704137843
11
1.190344817438418
21
-0.4524932341437618
0
LINE
8
Polygon
10
1.190344817438418
20
-0.4524932341437618
11
1.1918457976820764
21
-0.4715980567620178
0
LINE
8
Polygon
10
1.1918457976820764
20
-0.4715980567620179
11
1.1915113946997484
21
-0.49075883345849575
0
LINE
8
Polygon
10
1.1915113946997484
20
-0.4907588334584958
11
1.1893446787053152
21
-0.5097996456986905
0
LINE
8
Polygon
10
1.1893446787053152
20
-0.5097996456986905
11
1.1853655427077325
21
-0.5285456763633305
0
LINE
8
Polygon
10
1.1853655427077325
20
-0.5285456763633305
11
1.1796105198697417
21
-0.5468248147757689
0
LINE
8
Polygon
10
1.1796105198697417
20
-0.5468248147757688
11
1.1721324480903346
21
-0.5644692368810381
0
LINE
8
Polygon
10
1.1721324480903346
20
-0.5644692368810382
11
1.1629999848905082
21
-0.5813169460686606
0
LINE
8
Polygon
10
1.1629999848905082
20
-0.5813169460686606
11
1.1522969770562246
21
-0.5972132604926441
0
LINE
8
Polygon
10
1.1522969770562246
20
-0.5972132604926441
11
1.1401216908259995
21
-0.6120122332333101
0
LINE
8
Polygon
10
1.1401216908259995
20
-0.6120122332333101
11
1.126585909690906
21
-0.6255779922621935
0
LINE
8
Polygon
10
1.126585909690906
20
-0.6255779922621935
11
1.1118139080902525
21
-0.6377859879075551
0
LINE
8
Polygon
10
1.1118139080902525
20
-0.637785987907555
11
1.0959413104256202
21
-0.6485241363673031
0
LINE
8
Polygon
10
1.0959413104256202
20
-0.6485241363673031
11
1.0791138458688576
21
-0.6576938487705237
0
LINE
8
Polygon
10
1.0791138458688576
20
-0.6576938487705237
11
1.0614860103963624
21
-0.6652109363396239
0
LINE
8
Polygon
10
1.0614860103963624
20
-0.6652109363396239
11
1.0432196483337557
21
-0.6710063833426295
0
LINE
8
Polygon
10
1.0432196483337557
20
-0.6710063833426295
11
1.0244824664340413
21
-0.675026980739024
0
LINE
8
Polygon
10
1.0244824664340413
20
-0.675026980739024
11
1.0054464941317647
21
-0.6772358147015125
0
LINE
8
Polygon
10
1.0054464941317647
20
-0.6772358147015125
11
0.9862865041098577
21
-0.6776126055285047
0
LINE
8
Polygon
10
0.9862865041098579
20
-0.6776126055285047
11
0.9671784076802248
21
-0.6761538938356992
0
LINE
8
Polygon
10
0.9671784076802248
20
-0.6761538938356992
11
0.948297639710373
21
-0.672873072317314
0
LINE
8
Polygon
10
0.948297639710373
20
-0.672873072317314
11
0.9298175479243641
21
-0.6678002627853517
0
LINE
8
Polygon
10
0.9298175479243641
20
-0.6678002627853517
11
0.9119078013662045
21
-0.6609820396158321
0
LINE
8
Polygon
10
0.9119078013662045
20
-0.6609820396158321
11
0.8947328326378592
21
-0.6524810021410739
0
LINE
8
Polygon
10
0.8947328326378592
20
-0.6524810021410739
11
0.8784503282139802
21
-0.642375199913975
0
LINE
8
Polygon
10
0.8784503282139802
20
-0.642375199913975
11
0.8632097806940425
21
-0.630757416121039
0
LINE
8
Polygon
10
0.8632097806940425
20
-0.6307574161210391
11
0.8491511162839217
21
-0.6177343157232658
0
LINE
8
Polygon
10
0.8491511162839216
20
-0.6177343157232658
11
0.8364034101082487
21
-0.6034254661459729
0
LINE
8
Polygon
10
0.8364034101082488
20
-0.603425466145973
11
0.8250837011484936
21
-0.587962239508776
0
LINE
8
Polygon
10
0.8250837011484936
20
-0.587962239508776
11
0.815295917687041
21
-0.5714866064745465
0
LINE
8
Polygon
10
0.8152959176870409
20
-0.5714866064745465
11
0.8071299231229517
21
-0.5541498327912412
0
LINE
8
Polygon
10
0.8071299231229518
20
-0.5541498327912413
11
0.8063548771040174
21
-0.5523965828570612
0
LINE
8
Polygon
10
0.8063548771040174
20
-0.5523965828570612
11
0.805496724210134
21
-0.5506824780545803
0
LINE
8
Polygon
10
0.805496724210134
20
-0.5506824780545803
11
0.8045574352868564
21
-0.5490114550200961
0
LINE
8
Polygon
10
0.8045574352868564
20
-0.5490114550200961
11
0.8035391675178435
21
-0.5473873514477343
0
LINE
8
Polygon
10
0.8035391675178435
20
-0.5473873514477343
11
0.8024442594706402
21
-0.5458138972757489
0
LINE
8
Polygon
10
0.8024442594706402
20
-0.5458138972757489
11
0.8012752257258924
21
-0.544294706120295
0
LINE
8
Polygon
10
0.8012752257258924
20
-0.544294706120295
11
0.8000347511023264
21
-0.542833266976349
0
LINE
8
Polygon
10
0.8000347511023264
20
-0.542833266976349
11
0.7987256844907578
21
-0.5414329362048363
0
LINE
8
Polygon
10
0.7987256844907578
20
-0.5414329362048363
11
0.7973510323112911
21
-0.5400969298243665
0
LINE
8
Polygon
10
0.7973510323112911
20
-0.5400969298243665
11
0.7959139516087337
21
-0.5388283161252817
0
LINE
8
Polygon
10
0.7959139516087337
20
-0.5388283161252817
11
0.7944177428020842
21
-0.5376300086229796
0
LINE
8
Polygon
10
0.7944177428020842
20
-0.5376300086229796
11
0.7928658421047461
21
-0.5365047593666945
0
LINE
8
Polygon
10
0.7928658421047461
20
-0.5365047593666945
11
0.7912618136328727
21
-0.5354551526191037
0
LINE
8
Polygon
10
0.7912618136328727
20
-0.5354551526191037
11
0.7896093412199703
21
-0.5344835989212747
0
LINE
8
Polygon
10
0.7896093412199703
20
-0.5344835989212747
11
0.7879122199565559
21
-0.5335923295565844
0
LINE
8
Polygon
10
0.7879122199565559
20
-0.5335923295565844
11
0.7861743474743013
21
-0.5327833914263231
0
LINE
8
Polygon
10
0.7861743474743013
20
-0.5327833914263231
11
0.784399714994679
21
-0.5320586423487532
0
LINE
8
Polygon
10
0.784399714994679
20
-0.5320586423487532
11
0.7825923981626693
21
-0.5314197467924192
0
LINE
8
Polygon
10
0.7825923981626693
20
-0.5314197467924192
11
0.7807565476865789
21
-0.5308681720535059
0
LINE
8
Polygon
10
0.7807565476865789
20
-0.5308681720535059
11
0.7788963798054676
21
-0.5304051848860267
0
LINE
8
Polygon
10
0.7788963798054676
20
-0.5304051848860267
11
0.7770161666060766
21
-0.5300318485925792
0
LINE
8
Polygon
10
0.7770161666060766
20
-0.5300318485925792
11
0.7751202262114972
21
-0.5297490205823496
0
LINE
8
Polygon
10
0.7751202262114972
20
-0.5297490205823496
11
0.7732129128641093
21
-0.5295573504019757
0
LINE
8
Polygon
10
0.7732129128641093
20
-0.5295573504019757
11
0.7712986069255706
21
-0.5294572782437886
0
LINE
8
Polygon
10
0.7712986069255706
20
-0.5294572782437886
11
0.7693817048168182
21
-0.5294490339348619
0
LINE
8
Polygon
10
0.7693817048168183
20
-0.5294490339348619
11
0.7674666089211892
21
-0.529532636409187
0
LINE
8
Polygon
10
0.7674666089211891
20
-0.529532636409187
11
0.7655577174738466
21
-0.5297078936641896
0
LINE
8
Polygon
10
0.7655577174738466
20
-0.5297078936641896
11
0.7636594144607339
21
-0.5299744032016848
0
LINE
8
Polygon
10
0.7636594144607338
20
-0.5299744032016848
11
0.761776059550253
21
-0.5303315529522603
0
LINE
8
Polygon
10
0.761776059550253
20
-0.5303315529522603
11
0.759911978080791
21
-0.5307785226809636
0
LINE
8
Polygon
10
0.759911978080791
20
-0.5307785226809636
11
0.7580714511270893
21
-0.5313142858710639
0
LINE
8
Polygon
10
0.7580714511270893
20
-0.5313142858710639
11
0.7562587056682697
21
-0.5319376120815648
0
LINE
8
Polygon
10
0.7562587056682697
20
-0.5319376120815648
11
0.7544779048800964
21
-0.5326470697730518
0
LINE
8
Polygon
10
0.7544779048800964
20
-0.5326470697730518
11
0.7527331385737707
21
-0.5334410295953849
0
LINE
8
Polygon
10
0.7527331385737707
20
-0.5334410295953849
11
0.7510284138032148
21
-0.5343176681296863
0
LINE
8
Polygon
10
0.7510284138032148
20
-0.5343176681296863
11
0.7493676456624181
21
-0.5352749720760289
0
LINE
8
Polygon
10
0.7493676456624181
20
-0.5352749720760289
11
0.7477546482939785
21
-0.5363107428772083
0
LINE
8
Polygon
10
0.7477546482939785
20
-0.5363107428772083
11
0.7461931261294916
21
-0.5374226017679785
0
LINE
8
Polygon
10
0.7461931261294916
20
-0.5374226017679785
11
0.7446866653819025
21
-0.5386079952381572
0
LINE
8
Polygon
10
0.7446866653819025
20
-0.5386079952381572
11
0.7432387258093609
21
-0.5398642008970509
0
LINE
8
Polygon
10
0.7432387258093609
20
-0.5398642008970509
11
0.7418526327694933
21
-0.5411883337257352
0
LINE
8
Polygon
10
0.7418526327694933
20
-0.5411883337257352
11
0.7405315695823422
21
-0.5425773527028276
0
LINE
8
Polygon
10
0.7405315695823422
20
-0.5425773527028276
11
0.7392785702195096
21
-0.5440280677885386
0
LINE
8
Polygon
10
0.7392785702195096
20
-0.5440280677885386
11
0.7380965123362973
21
-0.5455371472509607
0
LINE
8
Polygon
10
0.7380965123362973
20
-0.5455371472509607
11
0.7369881106628441
21
-0.5471011253177682
0
LINE
8
Polygon
10
0.7369881106628441
20
-0.5471011253177682
11
0.7359559107694406
21
-0.5487164101357574
0
LINE
8
Polygon
10
0.7359559107694406
20
-0.5487164101357574
11
0.7350022832203373
21
-0.5503792920199453
0
LINE
8
Polygon
10
0.7350022832203373
20
-0.5503792920199453
11
0.7341294181294753
21
-0.5520859519732819
0
LINE
8
Polygon
10
1.0
20
0.0
11
0.8893603837292584
21
-0.22974553049474786
0
LINE
8
Polygon
10
0.6234898018587336
20
-0.7818314824680298
11
0.7341294181294753
21
-0.5520859519732819
0
LINE
8
Polygon
10
0.9364890611227711
20
-0.2855328148924629
11
0.936489061122771
21
-0.28553281489246296
0
LINE
8
Polygon
10
0.8071299231229517
20
-0.5541498327912413
11
0.8071299231229518
21
-0.5541498327912413
0
LINE
8
Polygon
10
0.7341294181294753
20
0.5520859519732819
11
0.7350022832203373
21
0.5503792920199453
0
LINE
8
Polygon
10
0.7350022832203373
20
0.5503792920199453
11
0.7359559107694406
21
0.5487164101357574
0
LINE
8
Polygon
10
0.7359559107694406
20
0.5487164101357574
11
0.7369881106628441
21
0.5471011253177682
0
LINE
8
Polygon
10
0.7369881106628441
20
0.5471011253177682
11
0.7380965123362973
21
0.5455371472509608
0
LINE
8
Polygon
10
0.7380965123362973
20
0.5455371472509607
11
0.7392785702195096
21
0.5440280677885386
0
LINE
8
Polygon
10
0.7392785702195096
20
0.5440280677885386
11
0.7405315695823422
21
0.5425773527028276
0
LINE
8
Polygon
10
0.7405315695823422
20
0.5425773527028276
11
0.7418526327694933
21
0.5411883337257352
0
LINE
8
Polygon
10
0.7418526327694933
20
0.5411883337257352
11
0.7432387258093609
21
0.5398642008970509
0
LINE
8
Polygon
10
0.7432387258093609
20
0.5398642008970509
11
0.7446866653819025
21
0.5386079952381572
0
LINE
8
Polygon
10
0.7446866653819025
20
0.5386079952381572
11
0.7461931261294916
21
0.5374226017679785
0
LINE
8
Polygon
10
0.7461931261294916
20
0.5374226017679785
11
0.7477546482939785
21
0.5363107428772083
0
LINE
8
Polygon
10
0.7477546482939785
20
0.5363107428772083
11
0.7493676456624181
21
0.5352749720760289
0
LINE
8
Polygon
10
0.7493676456624181
20
0.5352749720760289
11
0.7510284138032148
21
0.5343176681296863
0
LINE
8
Polygon
10
0.7510284138032148
20
0.5343176681296863
11
0.7527331385737707
21
0.5334410295953849
0
LINE
8
Polygon
10
0.7527331385737707
20
0.5334410295953849
11
0.7544779048800964
21
0.5326470697730518
0
LINE
8
Polygon
10
0.7544779048800964
20
0.5326470697730518
11
0.7562587056682697
21
0.5319376120815648
0
LINE
8
Polygon
10
0.7562587056682697
20
0.5319376120815648
11
0.7580714511270893
21
0.5313142858710639
0
LINE
8
Polygon
10
0.7580714511270893
20
0.5313142858710639
11
0.759911978080791
21
0.5307785226809636
0
LINE
8
Polygon
10
0.759911978080791
20
0.5307785226809636
11
0.761776059550253
21
0.5303315529522603
0
LINE
8
Polygon
10
0.761776059550253
20
0.5303315529522603
11
0.7636594144607339
21
0.5299744032016848
0
LINE
8
Polygon
10
0.7636594144607339
20
0.5299744032016848
11
0.7655577174738466
21
0.5297078936641896
0
LINE
8
Polygon
10
0.7655577174738466
20
0.5297078936641896
11
0.7674666089211892
21
0.529532636409187
0
LINE
8
Polygon
10
0.7674666089211892
20
0.529532636409187
11
0.7693817048168183
21
0.5294490339348619
0
LINE
8
Polygon
10
0.7693817048168183
20
0.5294490339348619
11
0.7712986069255706
21
0.5294572782437886
0
LINE
8
Polygon
10
0.7712986069255706
20
0.5294572782437886
11
0.7732129128641093
21
0.5295573504019757
0
LINE
8
Polygon
10
0.7732129128641093
20
0.5295573504019757
11
0.7751202262114972
21
0.5297490205823496
0
LINE
8
Polygon
10
0.7751202262114972
20
0.5297490205823496
11
0.7770161666060766
21
0.5300318485925792
0
LINE
8
Polygon
10
0.7770161666060766
20
0.5300318485925792
11
0.7788963798054676
21
0.5304051848860267
0
LINE
8
Polygon
10
0.7788963798054676
20
0.5304051848860267
11
0.7807565476865789
21
0.5308681720535059
0
LINE
8
Polygon
10
0.7807565476865789
20
0.5308681720535059
11
0.7825923981626693
21
0.5314197467924192
0
LINE
8
Polygon
10
0.7825923981626693
20
0.5314197467924192
11
0.784399714994679
21
0.5320586423487532
0
LINE
8
Polygon
10
0.784399714994679
20
0.5320586423487532
11
0.7861743474743013
21
0.5327833914263231
0
LINE
8
Polygon
10
0.7861743474743013
20
0.5327833914263231
11
0.7879122199565559
21
0.5335923295565844
0
LINE
8
Polygon
10
0.7879122199565559
20
0.5335923295565844
11
0.7896093412199703
21
0.5344835989212747
0
LINE
8
Polygon
10
0.7896093412199703
20
0.5344835989212747
11
0.7912618136328727
21
0.5354551526191037
0
LINE
8
Polygon
10
0.7912618136328727
20
0.5354551526191037
11
0.7928658421047461
21
0.5365047593666945
0
LINE
8
Polygon
10
0.7928658421047461
20
0.5365047593666945
11
0.7944177428020842
21
0.5376300086229796
0
LINE
8
Polygon
10
0.7944177428020842
20
0.5376300086229796
11
0.7959139516087337
21
0.5388283161252817
0
LINE
8
Polygon
10
0.7959139516087337
20
0.5388283161252817
11
0.7973510323112911
21
0.5400969298243665
0
LINE
8
Polygon
10
0.7973510323112911
20
0.5400969298243665
11
0.7987256844907579
21
0.5414329362048363
0
LINE
8
Polygon
10
0.7987256844907579
20
0.5414329362048363
11
0.8000347511023264
21
0.542833266976349
0
LINE
8
Polygon
10
0.8000347511023264
20
0.542833266976349
11
0.8012752257258924
21
0.544294706120295
0
LINE
8
Polygon
10
0.8012752257258924
20
0.544294706120295
11
0.8024442594706402
21
0.5458138972757489
0
LINE
8
Polygon
10
0.8024442594706402
20
0.5458138972757489
11
0.8035391675178435
21
0.5473873514477343
0
LINE
8
Polygon
10
0.8035391675178435
20
0.5473873514477343
11
0.8045574352868564
21
0.5490114550200961
0
LINE
8
Polygon
10
0.8045574352868564
20
0.5490114550200961
11
0.805496724210134
21
0.5506824780545803
0
LINE
8
Polygon
10
0.805496724210134
20
0.5506824780545803
11
0.8063548771040174
21
0.5523965828570612
0
LINE
8
Polygon
10
0.8063548771040174
20
0.5523965828570612
11
0.8071299231229518
21
0.5541498327912413
0
LINE
8
Polygon
10
0.8071299231229517
20
0.5541498327912413
11
0.815295917687041
21
0.5714866064745465
0
LINE
8
Polygon
10
0.815295917687041
20
0.5714866064745465
11
0.8250837011484936
21
0.587962239508776
0
LINE
8
Polygon
10
0.8250837011484936
20
0.587962239508776
11
0.8364034101082488
21
0.603425466145973
0
LINE
8
Polygon
10
0.8364034101082488
20
0.603425466145973
11
0.8491511162839217
21
0.6177343157232658
0
LINE
8
Polygon
10
0.8491511162839217
20
0.6177343157232658
11
0.8632097806940425
21
0.6307574161210391
0
LINE
8
Polygon
10
0.8632097806940425
20
0.6307574161210391
11
0.8784503282139802
21
0.642375199913975
0
LINE
8
Polygon
10
0.8784503282139802
20
0.642375199913975
11
0.8947328326378593
21
0.652481002141074
0
LINE
8
Polygon
10
0.8947328326378593
20
0.652481002141074
11
0.9119078013662046
21
0.6609820396158321
0
LINE
8
Polygon
10
0.9119078013662046
20
0.6609820396158321
11
0.9298175479243642
21
0.6678002627853517
0
LINE
8
Polygon
10
0.9298175479243641
20
0.6678002627853517
11
0.9482976397103731
21
0.672873072317314
0
LINE
8
Polygon
10
0.9482976397103731
20
0.672873072317314
11
0.9671784076802248
21
0.6761538938356992
0
LINE
8
Polygon
10
0.9671784076802248
20
0.6761538938356992
11
0.9862865041098579
21
0.6776126055285047
0
LINE
8
Polygon
10
0.9862865041098579
20
0.6776126055285047
11
1.005446494131765
21
0.6772358147015125
0
LINE
8
Polygon
10
1.005446494131765
20
0.6772358147015125
11
1.0244824664340413
21
0.675026980739024
0
LINE
8
Polygon
10
1.0244824664340413
20
0.675026980739024
11
1.0432196483337557
21
0.6710063833426294
0
LINE
8
Polygon
10
1.0432196483337557
20
0.6710063833426295
11
1.0614860103963624
21
0.6652109363396239
0
LINE
8
Polygon
10
1.0614860103963624
20
0.6652109363396239
11
1.0791138458688576
21
0.6576938487705237
0
LINE
8
Polygon
10
1.0791138458688576
20
0.6576938487705237
11
1.0959413104256202
21
0.6485241363673031
0
LINE
8
Polygon
10
1.0959413104256202
20
0.6485241363673031
11
1.1118139080902525
21
0.6377859879075551
0
LINE
8
Polygon
10
1.1118139080902525
20
0.637785987907555
11
1.126585909690906
21
0.6255779922621933
0
LINE
8
Polygon
10
1.126585909690906
20
0.6255779922621933
11
1.1401216908259997
21
0.6120122332333101
0
LINE
8
Polygon
10
1.1401216908259997
20
0.61201223323331
11
1.1522969770562246
21
0.5972132604926441
0
LINE
8
Polygon
10
1.1522969770562246
20
0.5972132604926441
11
1.1629999848905082
21
0.5813169460686606
0
LINE
8
Polygon
10
1.1629999848905082
20
0.5813169460686606
11
1.1721324480903346
21
0.5644692368810382
0
LINE
8
Polygon
10
1.1721324480903346
20
0.5644692368810382
11
1.1796105198697417
21
0.5468248147757688
0
LINE
8
Polygon
10
1.1796105198697417
20
0.5468248147757688
11
1.1853655427077325
21
0.5285456763633304
0
LINE
8
Polygon
10
1.1853655427077328
20
0.5285456763633304
11
1.1893446787053152
21
0.5097996456986904
0
LINE
8
Polygon
10
1.1893446787053152
20
0.5097996456986904
11
1.1915113946997484
21
0.4907588334584957
0
LINE
8
Polygon
10
1.1915113946997484
20
0.4907588334584957
11
1.1918457976820764
21
0.47159805676201777
0
LINE
8
Polygon
10
1.1918457976820764
20
0.4715980567620179
11
1.190344817438418
21
0.4524932341437618
0
LINE
8
Polygon
10
1.190344817438418
20
0.4524932341437618
11
1.1870222347381527
21
0.43361977041378424
0
LINE
8
Polygon
10
1.1870222347381527
20
0.43361977041378424
11
1.1819085548102
21
0.41515094623460774
0
LINE
8
Polygon
10
1.1819085548102
20
0.41515094623460774
11
1.17505072726903
21
0.39725632720031545
0
LINE
8
Polygon
10
1.17505072726903
20
0.39725632720031545
11
1.1665117150618163
21
0.3801002070243568
0
LINE
8
Polygon
10
1.1665117150618163
20
0.3801002070243568
11
1.1563699163942998
21
0.3638400991294368
0
LINE
8
Polygon
10
1.1563699163942998
20
0.3638400991294368
11
1.1447184449427732
21
0.3486252904884731
0
LINE
8
Polygon
10
1.1447184449427734
20
0.3486252904884731
11
1.1316642749606844
21
0.33459547099406733
0
LINE
8
Polygon
10
1.1316642749606844
20
0.33459547099406733
11
1.1173272591287886
21
0.3218794509404952
0
LINE
8
Polygon
10
1.1173272591287886
20
0.3218794509404952
11
1.1018390281661465
21
0.3105939783932448
0
LINE
8
Polygon
10
1.1018390281661465
20
0.3105939783932448
11
1.0853417823048361
21
0.30084266730404463
0
LINE
8
Polygon
10
1.0853417823048361
20
0.30084266730404463
11
1.0679869857240638
21
0.292715046212551
0
LINE
8
Polygon
10
1.0679869857240638
20
0.292715046212551
11
1.049933975930314
21
0.2862857362687349
0
LINE
8
Polygon
10
1.049933975930314
20
0.2862857362687349
11
1.0313485008510652
21
0.28161376612269273
0
LINE
8
Polygon
10
1.0313485008510654
20
0.2816137661226928
11
1.0124011970732796
21
0.27874202997200154
0
LINE
8
Polygon
10
1.0124011970732796
20
0.2787420299720015
11
0.993266023198229
21
0.277696893742381
0
LINE
8
Polygon
10
0.9932660231982291
20
0.277696893742381
11
0.974118662696314
21
0.2784879530173916
0
LINE
8
Polygon
10
0.974118662696314
20
0.2784879530173916
11
0.9551349109255458
21
0.28110794493965696
0
LINE
8
Polygon
10
0.9551349109255457
20
0.281107944939657
11
0.936489061122771
21
0.28553281489246296
0
LINE
8
Polygon
10
0.9364890611227711
20
0.2855328148924629
11
0.9346350818388173
21
0.28601999296856934
0
LINE
8
Polygon
10
0.9346350818388173
20
0.28601999296856934
11
0.9327598911622161
21
0.2864177888830241
0
LINE
8
Polygon
10
0.9327598911622161
20
0.2864177888830241
11
0.9308677956812647
21
0.2867252890523441
0
LINE
8
Polygon
10
0.9308677956812647
20
0.2867252890523441
11
0.9289631408080624
21
0.28694178726747716
0
LINE
8
Polygon
10
0.9289631408080624
20
0.28694178726747716
11
0.9270503007987794
21
0.2870667863156911
0
LINE
8
Polygon
10
0.9270503007987794
20
0.2870667863156911
11
0.9251336687076794
21
0.2870999991224793
0
LINE
8
Polygon
10
0.9251336687076794
20
0.2870999991224793
11
0.9232176462979734
21
0.28704134941086007
0
LINE
8
Polygon
10
0.9232176462979734
20
0.28704134941086007
11
0.9213066339326693
21
0.2868909718765552
0
LINE
8
Polygon
10
0.9213066339326693
20
0.2868909718765552
11
0.9194050204686395
21
0.286649211878646
0
LINE
8
Polygon
10
0.9194050204686395
20
0.286649211878646
11
0.9175171731771122
21
0.28631662464641694
0
LINE
8
Polygon
10
0.9175171731771122
20
0.28631662464641694
11
0.9156474277137376
21
0.2858939740042087
0
LINE
8
Polygon
10
0.9156474277137376
20
0.2858939740042087
11
0.9138000781612624
21
0.2853822306172085
0
LINE
8
Polygon
10
0.9138000781612624
20
0.2853822306172085
11
0.9119793671676809
21
0.28478256976220784
0
LINE
8
Polygon
10
0.9119793671676809
20
0.28478256976220784
11
0.9101894762025124
21
0.2840963686284453
0
LINE
8
Polygon
10
0.9101894762025124
20
0.2840963686284453
11
0.9084345159535818
21
0.28332520315473547
0
LINE
8
Polygon
10
0.9084345159535818
20
0.28332520315473547
11
0.9067185168863581
21
0.2824708444101466
0
LINE
8
Polygon
10
0.906718516886358
20
0.2824708444101466
11
0.9050454199875325
21
0.2815352545265389
0
LINE
8
Polygon
10
0.9050454199875325
20
0.2815352545265389
11
0.903419067714096
21
0.2805205821923065
0
LINE
8
Polygon
10
0.903419067714096
20
0.2805205821923065
11
0.9018431951686996
21
0.27942915771767046
0
LINE
8
Polygon
10
0.9018431951686996
20
0.27942915771767046
11
0.9003214215215676
21
0.27826348768285647
0
LINE
8
Polygon
10
0.9003214215215676
20
0.2782634876828564
11
0.898857241698662
21
0.27702624918144897
0
LINE
8
Polygon
10
0.898857241698662
20
0.27702624918144897
11
0.8974540183551883
21
0.275720283672142
0
LINE
8
Polygon
10
0.8974540183551883
20
0.275720283672142
11
0.8961149741528762
21
0.2743485904530063
0
LINE
8
Polygon
10
0.8961149741528762
20
0.27434859045300625
11
0.8948431843587706
21
0.27291431977326086
0
LINE
8
Polygon
10
0.8948431843587706
20
0.27291431977326086
11
0.893641569782532
21
0.27142076559836814
0
LINE
8
Polygon
10
0.893641569782532
20
0.27142076559836814
11
0.8925128900684653
21
0.2698713580450681
0
LINE
8
Polygon
10
0.8925128900684653
20
0.2698713580450681
11
0.8914597373576838
21
0.2682696555037259
0
LINE
8
Polygon
10
0.8914597373576838
20
0.2682696555037259
11
0.890484530334962
21
0.2666193364660841
0
LINE
8
Polygon
10
0.890484530334962
20
0.2666193364660841
11
0.8895895086739523
21
0.2649241910771891
0
LINE
8
Polygon
10
0.8895895086739523
20
0.2649241910771891
11
0.8887767278935192
21
0.2631881124308924
0
LINE
8
Polygon
10
0.8887767278935192
20
0.26318811243089235
11
0.888048054637008
21
0.26141508762891863
0
LINE
8
Polygon
10
0.888048054637008
20
0.26141508762891863
11
0.8874051623852853
21
0.2596091886240339
0
LINE
8
Polygon
10
0.8874051623852853
20
0.2596091886240339
11
0.8868495276134009
21
0.2577745628683438
0
LINE
8
Polygon
10
0.8868495276134009
20
0.25777456286834377
11
0.8863824263996948
21
0.25591542378819865
0
LINE
8
Polygon
10
0.8863824263996948
20
0.25591542378819865
11
0.8860049314951387
21
0.25403604110758166
0
LINE
8
Polygon
10
0.8860049314951387
20
0.25403604110758166
11
0.8857179098596417
21
0.25214073104220314
0
LINE
8
Polygon
10
0.8857179098596417
20
0.25214073104220314
11
0.8855220206709777
21
0.2502338463868206
0
LINE
8
Polygon
10
0.8855220206709777
20
0.2502338463868206
11
0.88541771381091
21
0.24831976651855192
0
LINE
8
Polygon
10
0.88541771381091
20
0.24831976651855192
11
0.8854052288319854
21
0.24640288733913818
0
LINE
8
Polygon
10
0.8854052288319854
20
0.24640288733913818
11
0.8854845944073756
21
0.24448761117925635
0
LINE
8
Polygon
10
0.8854845944073756
20
0.24448761117925633
11
0.8856556282650256
21
0.24257833668806705
0
LINE
8
Polygon
10
0.8856556282650256
20
0.24257833668806705
11
0.8859179376062623
21
0.24067944873121738
0
LINE
8
Polygon
10
0.8859179376062623
20
0.24067944873121738
11
0.8862709200079009
21
0.238795308320499
0
LINE
8
Polygon
10
0.8862709200079009
20
0.238795308320499
11
0.8867137648057788
21
0.2369302425982894
0
LINE
8
Polygon
10
0.8867137648057788
20
0.23693024259828938
11
0.8872454549565372
21
0.23508853489977824
0
LINE
8
Polygon
10
0.8872454549565372
20
0.23508853489977824
11
0.887864769373377
21
0.2332744149158017
0
LINE
8
Polygon
10
0.887864769373377
20
0.2332744149158017
11
0.8885702857304234
21
0.23149204897887724
0
LINE
8
Polygon
10
0.8885702857304234
20
0.2314920489788772
11
0.8893603837292584
21
0.22974553049474786
0
LINE
8
Polygon
10
0.6234898018587336
20
0.7818314824680298
11
0.7341294181294753
21
0.5520859519732819
0
LINE
8
Polygon
10
1.0
20
0.0
11
0.8893603837292584
21
0.22974553049474786
0
LINE
8
Polygon
10
0.8071299231229518
20
0.5541498327912413
11
0.8071299231229517
21
0.5541498327912413
0
LINE
8
Polygon
10
0.936489061122771
20
0.28553281489246296
11
0.9364890611227711
21
0.2855328148924629
0
LINE
8
Polygon
10
0.026084027167169413
20
0.9181854521043715
11
0.027962570131106416
21
0.9178038004362087
0
LINE
8
Polygon
10
0.027962570131106416
20
0.9178038004362087
11
0.029857240591427622
21
0.9175125865801597
0
LINE
8
Polygon
10
0.029857240591427622
20
0.9175125865801597
11
0.031763687222301
21
0.9173124793419092
0
LINE
8
Polygon
10
0.031763687222300996
20
0.9173124793419092
11
0.03367753165258179
21
0.91720393829045
0
LINE
8
Polygon
10
0.03367753165258179
20
0.91720393829045
11
0.03559437852123896
21
0.9171872127026304
0
LINE
8
Polygon
10
0.03559437852123896
20
0.9171872127026304
11
0.03750982557180083
21
0.9172623409906617
0
LINE
8
Polygon
10
0.03750982557180082
20
0.9172623409906617
11
0.03941947376263692
21
0.9174291506139006
0
LINE
8
Polygon
10
0.03941947376263692
20
0.9174291506139006
11
0.04131893736985653
21
0.9176872584751079
0
LINE
8
Polygon
10
0.04131893736985653
20
0.9176872584751079
11
0.043203854059621544
21
0.9180360718002748
0
LINE
8
Polygon
10
0.043203854059621544
20
0.9180360718002748
11
0.04506989490674147
21
0.918474789499996
0
LINE
8
Polygon
10
0.04506989490674147
20
0.918474789499996
11
0.0469127743365416
21
0.9190024040092623
0
LINE
8
Polygon
10
0.04691277433654159
20
0.9190024040092623
11
0.04872825996717179
21
0.919617703601448
0
LINE
8
Polygon
10
0.04872825996717179
20
0.919617703601448
11
0.050512182329752034
21
0.9203192751711791
0
LINE
8
Polygon
10
0.050512182329752034
20
0.9203192751711791
11
0.05226044444403104
21
0.9211055074796893
0
LINE
8
Polygon
10
0.05226044444403103
20
0.9211055074796893
11
0.053969031227566584
21
0.9219745948552139
0
LINE
8
Polygon
10
0.053969031227566584
20
0.9219745948552139
11
0.05563401871681824
21
0.9229245413399194
0
LINE
8
Polygon
10
0.05563401871681824
20
0.9229245413399194
11
0.05725158307897511
21
0.923953165273847
0
LINE
8
Polygon
10
0.05725158307897511
20
0.923953165273847
11
0.05881800939382209
21
0.9250581043053431
0
LINE
8
Polygon
10
0.05881800939382209
20
0.9250581043053431
11
0.0603297001854759
21
0.9262368208164677
0
LINE
8
Polygon
10
0.0603297001854759
20
0.9262368208164677
11
0.061783183684396926
21
0.9274866077509222
0
LINE
8
Polygon
10
0.061783183684396926
20
0.9274866077509222
11
0.06317512180070214
21
0.9288045948311112
0
LINE
8
Polygon
10
0.06317512180070214
20
0.9288045948311112
11
0.0645023177904675
21
0.9301877551500618
0
LINE
8
Polygon
10
0.0645023177904675
20
0.9301877551500618
11
0.06576172359741338
21
0.9316329121230581
0
LINE
8
Polygon
10
0.06576172359741338
20
0.9316329121230581
11
0.06695044685311184
21
0.9331367467830292
0
LINE
8
Polygon
10
0.06695044685311184
20
0.9331367467830292
11
0.06806575751963916
21
0.9346958054029338
0
LINE
8
Polygon
10
0.06806575751963916
20
0.9346958054029338
11
0.06910509415941785
21
0.9363065074276368
0
LINE
8
Polygon
10
0.06910509415941785
20
0.9363065074276368
11
0.07006606981784892
21
0.93796515369706
0
LINE
8
Polygon
10
0.07006606981784891
20
0.93796515369706
11
0.0709464775052241
21
0.9396679349417241
0
LINE
8
Polygon
10
0.07094647750522412
20
0.9396679349417241
11
0.07174429526532833
21
0.9414109405311675
0
LINE
8
Polygon
10
0.07174429526532833
20
0.9414109405311675
11
0.0724576908190917
21
0.9431901674551542
0
LINE
8
Polygon
10
0.0724576908190917
20
0.9431901674551542
11
0.07308502577262642
21
0.9450015295170409
0
LINE
8
Polygon
10
0.07308502577262642
20
0.9450015295170409
11
0.07362485937998442
21
0.9468408667181911
0
LINE
8
Polygon
10
0.07362485937998442
20
0.9468408667181911
11
0.07407595185199399
21
0.9487039548118854
0
LINE
8
Polygon
10
0.07407595185199399
20
0.9487039548118854
11
0.07443726720357632
21
0.9505865150047822
0
LINE
8
Polygon
10
0.07443726720357632
20
0.9505865150047822
11
0.074707975633003
21
0.9524842237836537
0
LINE
8
Polygon
10
0.074707975633003
20
0.9524842237836537
11
0.0748874554276297
21
0.9543927228448243
0
LINE
8
Polygon
10
0.0748874554276297
20
0.9543927228448243
11
0.07497529439173005
21
0.9563076291035103
0
LINE
8
Polygon
10
0.07497529439173005
20
0.9563076291035103
11
0.07497129079314979
21
0.9582245447600709
0
LINE
8
Polygon
10
0.07497129079314979
20
0.9582245447600709
11
0.07487545382660762
21
0.9601390674000553
0
LINE
8
Polygon
10
0.07487545382660762
20
0.9601390674000553
11
0.07468800359257852
21
0.9620468001048468
0
LINE
8
Polygon
10
0.07468800359257852
20
0.9620468001048468
11
0.07440937059180788
21
0.9639433615496859
0
LINE
8
Polygon
10
0.07440937059180788
20
0.9639433615496859
11
0.07404019473661788
21
0.9658243960658799
0
LINE
8
Polygon
10
0.07404019473661788
20
0.9658243960658799
11
0.07358132388127595
21
0.9676855836440909
0
LINE
8
Polygon
10
0.07358132388127595
20
0.9676855836440907
11
0.07303381187480137
21
0.9695226498557269
0
LINE
8
Polygon
10
0.07303381187480137
20
0.9695226498557269
11
0.07239891614068122
21
0.9713313756696536
0
LINE
8
Polygon
10
0.07239891614068122
20
0.9713313756696536
11
0.07167809478905465
21
0.9731076071416773
0
LINE
8
Polygon
10
0.07167809478905465
20
0.9731076071416773
11
0.07087300326799734
21
0.9748472649545504
0
LINE
8
Polygon
10
0.07087300326799734
20
0.9748472649545504
11
0.06998549056159709
21
0.9765463537865857
0
LINE
8
Polygon
10
0.06998549056159709
20
0.9765463537865856
11
0.06152246942430928
21
0.993740087011127
0
LINE
8
Polygon
10
0.06152246942430928
20
0.993740087011127
11
0.05474388399557567
21
1.0116648734408797
0
LINE
8
Polygon
10
0.05474388399557567
20
1.0116648734408797
11
0.04971196968649311
21
1.0301561423901144
0
LINE
8
Polygon
10
0.049711969686493135
20
1.0301561423901142
11
0.04647292540668996
21
1.0490441221952802
0
LINE
8
Polygon
10
0.04647292540668996
20
1.0490441221952802
11
0.04505648940383358
21
1.0681553989191597
0
LINE
8
Polygon
10
0.04505648940383358
20
1.0681553989191597
11
0.04547566623143401
21
1.0873145084953921
0
LINE
8
Polygon
10
0.04547566623143401
20
1.0873145084953921
11
0.04772660735170084
21
1.1063455476956032
0
LINE
8
Polygon
10
0.04772660735170081
20
1.1063455476956032
11
0.05178864646966036
21
1.125073789128558
0
LINE
8
Polygon
10
0.05178864646966036
20
1.125073789128558
11
0.057624489274124
21
1.143327285443743
0
LINE
8
Polygon
10
0.057624489274124
20
1.143327285443743
11
0.06518055584346194
21
1.160938448010894
0
LINE
8
Polygon
10
0.06518055584346194
20
1.160938448010894
11
0.07438747257249329
21
1.17774558558133
0
LINE
8
Polygon
10
0.07438747257249329
20
1.17774558558133
11
0.08516070910402332
21
1.1935943888043683
0
LINE
8
Polygon
10
0.08516070910402324
20
1.193594388804368
11
0.09740135441724498
21
1.2083393469692048
0
LINE
8
Polygon
10
0.09740135441724498
20
1.2083393469692048
11
0.11099702494759786
21
1.221845083964903
0
LINE
8
Polygon
10
0.11099702494759786
20
1.221845083964903
11
0.12582289640047206
21
1.2339876011927984
0
LINE
8
Polygon
10
0.125822896400472
20
1.2339876011927984
11
0.1417428497854913
21
1.244655416019917
0
LINE
8
Polygon
10
0.14174284978549134
20
1.244655416019917
11
0.15861072114942737
21
1.2537505853210675
0
LINE
8
Polygon
10
0.1586107211494273
20
1.2537505853210675
11
0.17627164353372354
21
1.261189604712274
0
LINE
8
Polygon
10
0.17627164353372354
20
1.261189604712274
11
0.19456346883587516
21
1.266904175219534
0
LINE
8
Polygon
10
0.19456346883587516
20
1.266904175219534
11
0.21331825652029993
21
1.2708418303439744
0
LINE
8
Polygon
10
0.21331825652029987
20
1.2708418303439744
11
0.2323638155105784
21
1.2729664177662054
0
LINE
8
Polygon
10
0.23236381551057833
20
1.2729664177662054
11
0.25152528510667355
21
1.2732584312672641
0
LINE
8
Polygon
10
0.25152528510667355
20
1.2732584312672641
11
0.27062674041244444
21
1.2717151898187153
0
LINE
8
Polygon
10
0.27062674041244444
20
1.2717151898187153
11
0.28949280753373546
21
1.268350862197656
0
LINE
8
Polygon
10
0.28949280753373546
20
1.268350862197656
11
0.3079502737176178
21
1.2631963369006263
0
LINE
8
Polygon
10
0.3079502737176178
20
1.2631963369006263
11
0.32582967764980436
21
1.2562989385507703
0
LINE
8
Polygon
10
0.3258296776498043
20
1.2562989385507706
11
0.34296686530943266
21
1.247721993401968
0
LINE
8
Polygon
10
0.34296686530943266
20
1.247721993401968
11
0.3592044970966328
21
1.2375442479291148
0
LINE
8
Polygon
10
0.3592044970966328
20
1.2375442479291148
11
0.37439349239567166
21
1.2258591458425836
0
LINE
8
Polygon
10
0.37439349239567166
20
1.2258591458425836
11
0.3883943983108791
21
1.2127739701647262
0
LINE
8
Polygon
10
0.388394398310879
20
1.2127739701647262
11
0.40107867000874625
21
1.1984088582451633
0
LINE
8
Polygon
10
0.40107867000874625
20
1.1984088582451633
11
0.412329850911145
21
1.1828956987581865
0
LINE
8
Polygon
10
0.412329850911145
20
1.1828956987581865
11
0.42204464190410107
21
1.1663769208091352
0
LINE
8
Polygon
10
0.42204464190410107
20
1.1663769208091352
11
0.43013384974552543
21
1.1490041862671836
0
LINE
8
Polygon
10
0.43013384974552543
20
1.1490041862671836
11
0.4365232059643998
21
1.1309369973304615
0
LINE
8
Polygon
10
0.43652320596439975
20
1.1309369973304617
11
0.4411540487329569
21
1.1123412321077077
0
LINE
8
Polygon
10
0.4411540487329569
20
1.1123412321077077
11
0.44398386145146423
21
1.0933876216615406
0
LINE
8
Polygon
10
0.44398386145146423
20
1.0933876216615406
11
0.44498666310076745
21
1.0742501824958886
0
LINE
8
Polygon
10
0.44498666310076745
20
1.0742501824958886
11
0.4441532467786966
21
1.0551046188791917
0
LINE
8
Polygon
10
0.4441532467786966
20
1.0551046188791917
11
0.44149126423028967
21
1.0361267096719355
0
LINE
8
Polygon
10
0.4414912642302896
20
1.0361267096719355
11
0.4370251555957462
21
1.017490694469341
0
LINE
8
Polygon
10
0.4370251555957462
20
1.017490694469341
11
0.43079592502110753
21
0.9993676738763253
0
LINE
8
Polygon
10
0.4307959250211076
20
0.9993676738763254
11
0.4228607641918229
21
0.9819240386020981
0
LINE
8
Polygon
10
0.42286076419182284
20
0.981924038602098
11
0.41329252724560595
21
0.9653199417971545
0
LINE
8
Polygon
10
0.413292527245606
20
0.9653199417971546
11
0.4021790618855036
21
0.9497078286584189
0
LINE
8
Polygon
10
0.40217906188550356
20
0.9497078286584189
11
0.3896224028343451
21
0.9352310368024915
0
LINE
8
Polygon
10
0.3896224028343451
20
0.9352310368024916
11
0.37573783503561453
21
0.9220224802572315
0
LINE
8
Polygon
10
0.37573783503561453
20
0.9220224802572317
11
0.3606528352016643
21
0.9102034291541776
0
LINE
8
Polygon
10
0.3606528352016642
20
0.9102034291541775
11
0.35911600686779344
21
0.9090576803442805
0
LINE
8
Polygon
10
0.35911600686779344
20
0.9090576803442805
11
0.35763583523487413
21
0.9078396189335668
0
LINE
8
Polygon
10
0.35763583523487413
20
0.9078396189335668
11
0.3562157196851193
21
0.9065520423383643
0
LINE
8
Polygon
10
0.3562157196851193
20
0.9065520423383643
11
0.354858921675128
21
0.9051979076245148
0
LINE
8
Polygon
10
0.354858921675128
20
0.9051979076245147
11
0.35356855724558045
21
0.9037803247161361
0
LINE
8
Polygon
10
0.35356855724558045
20
0.9037803247161361
11
0.35234758986489634
21
0.9023025492533293
0
LINE
8
Polygon
10
0.35234758986489634
20
0.9023025492533293
11
0.3511988236232934
21
0.9007679751152303
0
LINE
8
Polygon
10
0.35119882362329335
20
0.9007679751152303
11
0.35012489679287584
21
0.8991801266255821
0
LINE
8
Polygon
10
0.35012489679287584
20
0.8991801266255821
11
0.3491282757685428
21
0.8975426504587247
0
LINE
8
Polygon
10
0.3491282757685428
20
0.8975426504587247
11
0.34821124940363246
21
0.8958593072645935
0
LINE
8
Polygon
10
0.34821124940363246
20
0.8958593072645935
11
0.34737592375331056
21
0.8941339630319596
0
LINE
8
Polygon
10
0.34737592375331056
20
0.8941339630319596
11
0.34662421723777553
21
0.892370580209748
0
LINE
8
Polygon
10
0.34662421723777553
20
0.892370580209748
11
0.3459578562363886
21
0.8905732086068235
0
LINE
8
Polygon
10
0.3459578562363886
20
0.8905732086068235
11
0.3453783711228478
21
0.8887459760911449
0
LINE
8
Polygon
10
0.3453783711228478
20
0.8887459760911449
11
0.34488709275051077
21
0.8868930791096474
0
LINE
8
Polygon
10
0.34488709275051077
20
0.8868930791096474
11
0.3444851493959391
21
0.8850187730506259
0
LINE
8
Polygon
10
0.3444851493959391
20
0.8850187730506259
11
0.34417346416768296
21
0.883127362470753
0
LINE
8
Polygon
10
0.34417346416768296
20
0.883127362470753
11
0.3439527528862577
21
0.8812231912091747
0
LINE
8
Polygon
10
0.3439527528862577
20
0.8812231912091747
11
0.3438235224401805
21
0.8793106324113922
0
LINE
8
Polygon
10
0.3438235224401805
20
0.8793106324113922
11
0.34378606962184355
21
0.8773940784858354
0
LINE
8
Polygon
10
0.34378606962184355
20
0.8773940784858354
11
0.3438404804458965
21
0.8754779310161989
0
LINE
8
Polygon
10
0.3438404804458965
20
0.8754779310161989
11
0.34398662995170415
21
0.8735665906527049
0
LINE
8
Polygon
10
0.34398662995170415
20
0.8735665906527049
11
0.3442241824903327
21
0.8716644470055112
0
LINE
8
Polygon
10
0.3442241824903327
20
0.8716644470055112
11
0.34455259249540565
21
0.8697758685634716
0
LINE
8
Polygon
10
0.34455259249540565
20
0.8697758685634716
11
0.3449711057360587
21
0.8679051926614065
0
LINE
8
Polygon
10
0.3449711057360587
20
0.8679051926614065
11
0.34547876104911707
21
0.8660567155189207
0
LINE
8
Polygon
10
0.34547876104911707
20
0.8660567155189207
11
0.3460743925465153
21
0.8642346823736471
0
LINE
8
Polygon
10
0.3460743925465153
20
0.8642346823736471
11
0.34675663229289194
21
0.8624432777315764
0
LINE
8
Polygon
10
0.34675663229289194
20
0.8624432777315764
11
0.3475239134472083
21
0.8606866157568642
0
LINE
8
Polygon
10
0.3475239134472083
20
0.8606866157568641
11
0.3483744738611768
21
0.858968730823186
0
LINE
8
Polygon
10
0.3483744738611768
20
0.858968730823186
11
0.34930636012623456
21
0.8572935682483398
0
LINE
8
Polygon
10
0.34930636012623456
20
0.8572935682483398
11
0.350317432059768
21
0.8556649752333758
0
LINE
8
Polygon
10
0.350317432059768
20
0.8556649752333758
11
0.3514053676202852
21
0.8540866920270623
0
LINE
8
Polygon
10
0.3514053676202852
20
0.8540866920270623
11
0.35256766824024777
21
0.8525623433359804
0
LINE
8
Polygon
10
0.35256766824024777
20
0.8525623433359804
11
0.35380166456431494
21
0.8510954299999727
0
LINE
8
Polygon
10
0.35380166456431494
20
0.8510954299999727
11
0.35510452257982117
21
0.8496893209520678
0
LINE
8
Polygon
10
0.35510452257982117
20
0.8496893209520678
11
0.35647325012540815
21
0.8483472454813434
0
LINE
8
Polygon
10
0.35647325012540815
20
0.8483472454813434
11
0.35790470376286265
21
0.8470722858164964
0
LINE
8
Polygon
10
0.35790470376286265
20
0.8470722858164964
11
0.35939559599637994
21
0.8458673700471553
0
LINE
8
Polygon
10
0.35939559599637994
20
0.8458673700471553
11
0.3609425028226705
21
0.8447352653991901
0
LINE
8
Polygon
10
0.36094250282267043
20
0.8447352653991901
11
0.3625418715945727
21
0.8436785718794633
0
LINE
8
Polygon
10
0.3625418715945727
20
0.8436785718794633
11
0.3641900291801105
21
0.8426997163046195
0
LINE
8
Polygon
10
0.3641900291801105
20
0.8426997163046195
11
0.3658831903982577
21
0.8418009467276248
0
LINE
8
Polygon
10
0.3658831903982577
20
0.8418009467276248
11
0.36761746671203616
21
0.840984327274859
0
LINE
8
Polygon
10
0.36761746671203616
20
0.840984327274859
11
0.3693888751589825
21
0.8402517334056137
0
LINE
8
Polygon
10
0.3693888751589825
20
0.8402517334056137
11
0.3711933474984735
21
0.8396048476048878
0
LINE
8
Polygon
10
0.37119334749847344
20
0.8396048476048878
11
0.37302673955490256
21
0.8390451555193701
0
LINE
8
Polygon
10
0.37302673955490256
20
0.8390451555193701
11
0.3748848407352499
21
0.8385739425454819
0
LINE
8
Polygon
10
-0.22252093395631428
20
0.9749279121818237
11
0.026084027167169413
21
0.9181854521043715
0
LINE
8
Polygon
10
0.6234898018587336
20
0.7818314824680298
11
0.3748848407352499
21
0.8385739425454819
0
LINE
8
Polygon
10
0.06998549056159709
20
0.9765463537865857
11
0.06998549056159709
21
0.9765463537865856
0
LINE
8
Polygon
10
0.36065283520166425
20
0.9102034291541775
11
0.3606528352016642
21
0.9102034291541775
0
LINE
8
Polygon
10
-0.7016031682692027
20
0.5928725792309708
11
-0.7001335285993283
21
0.5941033273383837
0
LINE
8
Polygon
10
-0.7001335285993283
20
0.5941033273383837
11
-0.698724540728645
21
0.5954030714837585
0
LINE
8
Polygon
10
-0.698724540728645
20
0.5954030714837585
11
-0.6973794405577736
21
0.5967688266570931
0
LINE
8
Polygon
10
-0.6973794405577736
20
0.5967688266570931
11
-0.6961013172619783
21
0.5981974562465648
0
LINE
8
Polygon
10
-0.6961013172619783
20
0.5981974562465648
11
-0.6948931061965256
21
0.5996856792421156
0
LINE
8
Polygon
10
-0.6948931061965256
20
0.5996856792421156
11
-0.6937575821553067
21
0.6012300777706641
0
LINE
8
Polygon
10
-0.6937575821553067
20
0.6012300777706641
11
-0.6926973529982092
21
0.6028271049456393
0
LINE
8
Polygon
10
-0.6926973529982092
20
0.6028271049456393
11
-0.6917148536618704
21
0.6044730930128082
0
LINE
8
Polygon
10
-0.6917148536618704
20
0.6044730930128082
11
-0.6908123405675684
21
0.6061642617736898
0
LINE
8
Polygon
10
-0.6908123405675684
20
0.6061642617736898
11
-0.6899918864390953
21
0.6078967272672106
0
LINE
8
Polygon
10
-0.6899918864390953
20
0.6078967272672106
11
-0.6892553755425109
21
0.6096665106896613
0
LINE
8
Polygon
10
-0.6892553755425109
20
0.6096665106896613
11
-0.6886044993587125
21
0.611469547532472
0
LINE
8
Polygon
10
-0.6886044993587125
20
0.611469547532472
11
-0.6880407526987562
21
0.6133016969168172
0
LINE
8
Polygon
10
-0.6880407526987562
20
0.6133016969168172
11
-0.687565430270854
21
0.6151587511036146
0
LINE
8
Polygon
10
-0.687565430270854
20
0.6151587511036146
11
-0.6871796237069298
21
0.6170364451570753
0
LINE
8
Polygon
10
-0.6871796237069298
20
0.6170364451570753
11
-0.6868842190555615
21
0.618930466739613
0
LINE
8
Polygon
10
-0.6868842190555615
20
0.618930466739613
11
-0.6866798947470713
21
0.6208364660156173
0
LINE
8
Polygon
10
-0.6866798947470713
20
0.6208364660156173
11
-0.6865671200354324
21
0.6227500656413445
0
LINE
8
Polygon
10
-0.6865671200354324
20
0.6227500656413445
11
-0.6865461539205746
21
0.6246668708179852
0
LINE
8
Polygon
10
-0.6865461539205746
20
0.6246668708179852
11
-0.6866170445535611
21
0.626582479384818
0
LINE
8
Polygon
10
-0.6866170445535611
20
0.626582479384818
11
-0.6867796291260043
21
0.6284924919292723
0
LINE
8
Polygon
10
-0.6867796291260043
20
0.6284924919292723
11
-0.6870335342439738
21
0.6303925218906774
0
LINE
8
Polygon
10
-0.6870335342439738
20
0.6303925218906774
11
-0.6873781767855381
21
0.632278205634499
0
LINE
8
Polygon
10
-0.6873781767855381
20
0.632278205634499
11
-0.6878127652399698
21
0.6341452124739196
0
LINE
8
Polygon
10
-0.6878127652399698
20
0.6341452124739196
11
-0.6883363015255404
21
0.6359892546157536
0
LINE
8
Polygon
10
-0.6883363015255404
20
0.6359892546157536
11
-0.688947583281728
21
0.6378060970078506
0
LINE
8
Polygon
10
-0.688947583281728
20
0.6378060970078506
11
-0.689645206630575
21
0.6395915670653739
0
LINE
8
Polygon
10
-0.689645206630575
20
0.6395915670653739
11
-0.6904275694008529
21
0.641341564253615
0
LINE
8
Polygon
10
-0.6904275694008529
20
0.641341564253615
11
-0.6912928748076308
21
0.6430520695053373
0
LINE
8
Polygon
10
-0.6912928748076308
20
0.6430520695053373
11
-0.6922391355787956
21
0.6447191544510205
0
LINE
8
Polygon
10
-0.6922391355787956
20
0.6447191544510205
11
-0.6932641785190483
21
0.6463389904408067
0
LINE
8
Polygon
10
-0.6932641785190483
20
0.6463389904408067
11
-0.694365649500894
21
0.6479078573374301
0
LINE
8
Polygon
10
-0.694365649500894
20
0.6479078573374301
11
-0.6955410188711623
21
0.6494221520599343
0
LINE
8
Polygon
10
-0.6955410188711623
20
0.6494221520599343
11
-0.6967875872606435
21
0.6508783968585566
0
LINE
8
Polygon
10
-0.6967875872606435
20
0.6508783968585566
11
-0.6981024917834965
21
0.652273247301776
0
LINE
8
Polygon
10
-0.6981024917834965
20
0.652273247301776
11
-0.699482712612191
21
0.653603499957179
0
LINE
8
Polygon
10
-0.699482712612191
20
0.653603499957179
11
-0.7009250799128842
21
0.6548660997485062
0
LINE
8
Polygon
10
-0.7009250799128842
20
0.6548660997485062
11
-0.7024262811253047
21
0.6560581469719818
0
LINE
8
Polygon
10
-0.7024262811253047
20
0.6560581469719818
11
-0.7039828685704224
21
0.6571769039558129
0
LINE
8
Polygon
10
-0.7039828685704224
20
0.6571769039558129
11
-0.7055912673684355
21
0.6582198013475627
0
LINE
8
Polygon
10
-0.7055912673684355
20
0.6582198013475627
11
-0.7072477836488875
21
0.6591844440149615
0
LINE
8
Polygon
10
-0.7072477836488875
20
0.6591844440149615
11
-0.7089486130340605
21
0.6600686165465981
0
LINE
8
Polygon
10
-0.7089486130340605
20
0.6600686165465981
11
-0.7106898493761601
21
0.6608702883398654
0
LINE
8
Polygon
10
-0.7106898493761601
20
0.6608702883398654
11
-0.7124674937282276
21
0.6615876182644687
0
LINE
8
Polygon
10
-0.7124674937282276
20
0.6615876182644687
11
-0.7142774635281756
21
0.6622189588907907
0
LINE
8
Polygon
10
-0.7142774635281756
20
0.6622189588907907
11
-0.7161156019748556
21
0.6627628602734014
0
LINE
8
Polygon
10
-0.7161156019748556
20
0.6627628602734014
11
-0.7179776875746233
21
0.6632180732810209
0
LINE
8
Polygon
10
-0.7179776875746233
20
0.6632180732810209
11
-0.7198594438364789
21
0.6635835524652928
0
LINE
8
Polygon
10
-0.7198594438364788
20
0.6635835524652929
11
-0.7385786531445957
21
0.6676870134247501
0
LINE
8
Polygon
10
-0.7385786531445957
20
0.6676870134247501
11
-0.7568191943777355
21
0.6735632234694136
0
LINE
8
Polygon
10
-0.7568191943777356
20
0.6735632234694137
11
-0.7744135978485708
21
0.6811582320587665
0
LINE
8
Polygon
10
-0.7744135978485708
20
0.6811582320587665
11
-0.791200326176696
21
0.690402308053943
0
LINE
8
Polygon
10
-0.7912003261766961
20
0.690402308053943
11
-0.8070252573923499
21
0.7012105799318477
0
LINE
8
Polygon
10
-0.8070252573923499
20
0.7012105799318477
11
-0.8217430999579188
21
0.7134838150058617
0
LINE
8
Polygon
10
-0.8217430999579188
20
0.7134838150058617
11
-0.8352187267156562
21
0.7271093304989736
0
LINE
8
Polygon
10
-0.8352187267156562
20
0.7271093304989736
11
-0.8473284155144035
21
0.7419620281046067
0
LINE
8
Polygon
10
-0.8473284155144035
20
0.7419620281046067
11
-0.8579609851248956
21
0.7579055425366545
0
LINE
8
Polygon
10
-0.8579609851248956
20
0.7579055425366545
11
-0.8670188160146086
21
0.774793493523682
0
LINE
8
Polygon
10
-0.8670188160146086
20
0.774793493523682
11
-0.8744187466102332
21
0.7924708297525038
0
LINE
8
Polygon
10
-0.8744187466102332
20
0.7924708297525039
11
-0.8800928368190244
21
0.810775252422159
0
LINE
8
Polygon
10
-0.8800928368190244
20
0.810775252422159
11
-0.883988991799004
21
0.8295387053383697
0
LINE
8
Polygon
10
-0.883988991799004
20
0.8295387053383697
11
-0.8860714402510679
21
0.8485889178676665
0
LINE
8
Polygon
10
-0.8860714402510679
20
0.8485889178676665
11
-0.8863210628417112
21
0.8677509865850342
0
LINE
8
Polygon
10
-0.8863210628417112
20
0.8677509865850342
11
-0.884735567741066
21
0.8868489810936917
0
LINE
8
Polygon
10
-0.884735567741066
20
0.8868489810936918
11
-0.8813295116646029
21
0.9057075592736838
0
LINE
8
Polygon
10
-0.8813295116646029
20
0.9057075592736837
11
-0.8761341662253109
21
0.9241535771293974
0
LINE
8
Polygon
10
-0.8761341662253109
20
0.9241535771293974
11
-0.8691972308233972
21
0.9420176784557042
0
LINE
8
Polygon
10
-0.8691972308233972
20
0.9420176784557042
11
-0.8605823947095216
21
0.9591358497277165
0
LINE
8
Polygon
10
-0.8605823947095216
20
0.9591358497277165
11
-0.8503687522423399
21
0.9753509259384366
0
LINE
8
Polygon
10
-0.8503687522423399
20
0.9753509259384366
11
-0.8386500767089817
21
0.9905140335589331
0
LINE
8
Polygon
10
-0.8386500767089817
20
0.9905140335589331
11
-0.8255339593756482
21
1.0044859573729648
0
LINE
8
Polygon
10
-0.8255339593756483
20
1.0044859573729648
11
-0.8111408216728601
21
1.017138418636903
0
LINE
8
Polygon
10
-0.8111408216728601
20
1.017138418636903
11
-0.795602809584661
21
1.0283552528299302
0
LINE
8
Polygon
10
-0.795602809584661
20
1.0283552528299302
11
-0.7790625803925896
21
1.038033476181384
0
LINE
8
Polygon
10
-0.7790625803925896
20
1.038033476181384
11
-0.7616719929135368
21
1.046084231183264
0
LINE
8
Polygon
10
-0.7616719929135368
20
1.046084231183264
11
-0.743590713256657
21
1.052433602406983
0
LINE
8
Polygon
10
-0.743590713256657
20
1.052433602406983
11
-0.7249847489001231
21
1.0570232951341998
0
LINE
8
Polygon
10
-0.7249847489001232
20
1.0570232951341998
11
-0.7060249245466339
21
1.0598111705711077
0
LINE
8
Polygon
10
-0.7060249245466339
20
1.0598111705711077
11
-0.6868853137511174
21
1.0607716327322718
0
LINE
8
Polygon
10
-0.6868853137511174
20
1.0607716327322718
11
-0.667741640720138
21
1.0598958634419722
0
LINE
8
Polygon
10
-0.667741640720138
20
1.0598958634419722
11
-0.6487696669563738
21
1.0571919032954598
0
LINE
8
Polygon
10
-0.6487696669563738
20
1.0571919032954598
11
-0.6301435775606724
21
1.0526845778368068
0
LINE
8
Polygon
10
-0.6301435775606724
20
1.0526845778368068
11
-0.6120343820073342
21
1.0464152696311244
0
LINE
8
Polygon
10
-0.6120343820073342
20
1.0464152696311244
11
-0.5946083440753944
21
1.0384415383237955
0
LINE
8
Polygon
10
-0.5946083440753945
20
1.0384415383237955
11
-0.5780254553509867
21
1.0288365921750247
0
LINE
8
Polygon
10
-0.5780254553509867
20
1.0288365921750247
11
-0.5624379663158354
21
1.0176886159216447
0
LINE
8
Polygon
10
-0.5624379663158354
20
1.0176886159216447
11
-0.5479889885082212
21
1.005099961137199
0
LINE
8
Polygon
10
-0.5479889885082212
20
1.005099961137199
11
-0.534811180590226
21
0.9911862065237487
0
LINE
8
Polygon
10
-0.534811180590226
20
0.9911862065237487
11
-0.5230255303847159
21
0.9760750967630382
0
LINE
8
Polygon
10
-0.5230255303847159
20
0.9760750967630382
11
-0.5127402440643937
21
0.9599053696696122
0
LINE
8
Polygon
10
-0.5127402440643937
20
0.9599053696696122
11
-0.5040497526914808
21
0.9428254824140063
0
LINE
8
Polygon
10
-0.5040497526914809
20
0.9428254824140063
11
-0.4970338452291635
21
0.9249922485107829
0
LINE
8
Polygon
10
-0.49703384522916344
20
0.9249922485107828
11
-0.4917569359847812
21
0.9065693980854703
0
LINE
8
Polygon
10
-0.4917569359847812
20
0.9065693980854704
11
-0.488267473210495
21
0.8877260746388553
0
LINE
8
Polygon
10
-0.488267473210495
20
0.8877260746388554
11
-0.48659749429117627
21
0.8686352821101019
0
LINE
8
Polygon
10
-0.48659749429117627
20
0.8686352821101018
11
-0.48676233160341886
21
0.8494722964964931
0
LINE
8
Polygon
10
-0.4867623316034189
20
0.8494722964964933
11
-0.48682474590621705
21
0.8475563930234615
0
LINE
8
Polygon
10
-0.48682474590621705
20
0.8475563930234615
11
-0.48679529906586744
21
0.8456396993737715
0
LINE
8
Polygon
10
-0.48679529906586744
20
0.8456396993737715
11
-0.48667405871038233
21
0.84372661745201
0
LINE
8
Polygon
10
-0.48667405871038233
20
0.84372661745201
11
-0.4864613032820037
21
0.8418215408680209
0
LINE
8
Polygon
10
-0.4864613032820037
20
0.8418215408680209
11
-0.4861575213977289
21
0.8399288448464803
0
LINE
8
Polygon
10
-0.4861575213977289
20
0.8399288448464803
11
-0.48576341072714646
21
0.8380528761786978
0
LINE
8
Polygon
10
-0.48576341072714646
20
0.8380528761786978
11
-0.48527987639015846
21
0.8361979432397153
0
LINE
8
Polygon
10
-0.48527987639015846
20
0.8361979432397153
11
-0.48470802887827
21
0.8343683060936353
0
LINE
8
Polygon
10
-0.48470802887827
20
0.8343683060936353
11
-0.48404918150421944
21
0.8325681667098999
0
LINE
8
Polygon
10
-0.48404918150421944
20
0.8325681667098999
11
-0.48330484738580654
21
0.8308016593129907
0
LINE
8
Polygon
10
-0.48330484738580654
20
0.8308016593129907
11
-0.48247673597084545
21
0.8290728408877129
0
LINE
8
Polygon
10
-0.48247673597084545
20
0.8290728408877129
11
-0.481566749111224
21
0.8273856818618694
0
LINE
8
Polygon
10
-0.48156674911122394
20
0.8273856818618694
11
-0.4805769766950847
21
0.8257440569877224
0
LINE
8
Polygon
10
-0.4805769766950847
20
0.8257440569877224
11
-0.4795096918471595
21
0.8241517364431843
0
LINE
8
Polygon
10
-0.4795096918471595
20
0.8241517364431843
11
-0.47836734570828066
21
0.822612377173177
0
LINE
8
Polygon
10
-0.47836734570828066
20
0.822612377173177
11
-0.4771525618060575
21
0.8211295144910422
0
LINE
8
Polygon
10
-0.4771525618060575
20
0.8211295144910422
11
-0.47586813002964734
21
0.8197065539592927
0
LINE
8
Polygon
10
-0.47586813002964734
20
0.8197065539592927
11
-0.47451700022245846
21
0.8183467635683521
0
LINE
8
Polygon
10
-0.47451700022245846
20
0.8183467635683521
11
-0.47310227540749966
21
0.817053266231243
0
LINE
8
Polygon
10
-0.47310227540749966
20
0.817053266231243
11
-0.4716272046609356
21
0.815829032611463
0
LINE
8
Polygon
10
-0.4716272046609356
20
0.815829032611463
11
-0.4700951756502146
21
0.8146768743005188
0
LINE
8
Polygon
10
-0.4700951756502145
20
0.8146768743005188
11
-0.46850970685390536
21
0.813599437360787
0
LINE
8
Polygon
10
-0.46850970685390536
20
0.813599437360787
11
-0.4668744394811121
21
0.8125991962485313
0
LINE
8
Polygon
10
-0.4668744394811121
20
0.8125991962485313
11
-0.46519312910902383
21
0.8116784481310328
0
LINE
8
Polygon
10
-0.46519312910902383
20
0.8116784481310328
11
-0.4634696370578051
21
0.8108393076108846
0
LINE
8
Polygon
10
-0.4634696370578051
20
0.8108393076108846
11
-0.4617079215226359
21
0.810083701869567
0
LINE
8
Polygon
10
-0.4617079215226359
20
0.810083701869567
11
-0.45991202848326707
21
0.8094133662414558
0
LINE
8
Polygon
10
-0.45991202848326707
20
0.8094133662414558
11
-0.45808608241196824
21
0.8088298402284305
0
LINE
8
Polygon
10
-0.45808608241196824
20
0.8088298402284305
11
-0.45623427680120915
21
0.8083344639642335
0
LINE
8
Polygon
10
-0.45623427680120915
20
0.8083344639642335
11
-0.454360864532828
21
0.8079283751366999
0
LINE
8
Polygon
10
-0.454360864532828
20
0.8079283751366999
11
-0.4524701481108052
21
0.8076125063749297
0
LINE
8
Polygon
10
-0.45247014811080527
20
0.8076125063749297
11
-0.45056646978007514
21
0.8073875831073974
0
LINE
8
Polygon
10
-0.45056646978007514
20
0.8073875831073974
11
-0.4486542015540668
21
0.807254121895925
0
LINE
8
Polygon
10
-0.4486542015540668
20
0.807254121895925
11
-0.44673773517387927
21
0.8072124292493374
0
LINE
8
Polygon
10
-0.44673773517387927
20
0.8072124292493374
11
-0.44482147202214917
21
0.8072626009195316
0
LINE
8
Polygon
10
-0.44482147202214917
20
0.8072626009195316
11
-0.44290981301477594
21
0.8074045216815703
0
LINE
8
Polygon
10
-0.44290981301477594
20
0.8074045216815703
11
-0.4410071484937189
21
0.8076378655983099
0
LINE
8
Polygon
10
-0.4410071484937189
20
0.8076378655983099
11
-0.4391178481440781
21
0.8079620967689519
0
LINE
8
Polygon
10
-0.4391178481440781
20
0.8079620967689519
11
-0.4372462509586167
21
0.8083764705597999
0
LINE
8
Polygon
10
-0.4372462509586167
20
0.8083764705597999
11
-0.4353966552727713
21
0.8088800353143953
0
LINE
8
Polygon
10
-0.4353966552727713
20
0.8088800353143952
11
-0.4335733088930366
21
0.8094716345391049
0
LINE
8
Polygon
10
-0.4335733088930366
20
0.8094716345391049
11
-0.43178039934139534
21
0.810149909559139
0
LINE
8
Polygon
10
-0.43178039934139534
20
0.810149909559139
11
-0.43002204423819906
21
0.8109133026389034
0
LINE
8
Polygon
10
-0.43002204423819906
20
0.8109133026389034
11
-0.42830228184558483
21
0.811760060559515
0
LINE
8
Polygon
10
-0.42830228184558483
20
0.811760060559515
11
-0.4266250617931483
21
0.8126882386452687
0
LINE
8
Polygon
10
-0.4266250617931483
20
0.8126882386452687
11
-0.4249942360071705
21
0.8136957052298058
0
LINE
8
Polygon
10
-0.4249942360071705
20
0.8136957052298058
11
-0.4234135498642322
21
0.8147801465517275
0
LINE
8
Polygon
10
-0.4234135498642322
20
0.8147801465517275
11
-0.42188663358953077
21
0.8159390720684112
0
LINE
8
Polygon
10
-0.9009688679024191
20
0.43388373911755834
11
-0.7016031682692027
21
0.5928725792309708
0
LINE
8
Polygon
10
-0.22252093395631428
20
0.9749279121818237
11
-0.4218866335895307
21
0.8159390720684112
0
LINE
8
Polygon
10
-0.7198594438364789
20
0.6635835524652928
11
-0.7198594438364788
21
0.6635835524652929
0
LINE
8
Polygon
10
-0.48676233160341886
20
0.8494722964964931
11
-0.4867623316034189
21
0.8494722964964933
0
LINE
8
Polygon
10
-0.9009688679024193
20
-0.178885438199983
11
-0.9010148001732089
21
-0.17696906874456247
0
LINE
8
Polygon
10
-0.9010148001732089
20
-0.17696906874456247
11
-0.9011524914969027
21
-0.1750571004491799
0
LINE
8
Polygon
10
-0.9011524914969027
20
-0.1750571004491799
11
-0.9013816256497426
21
-0.17315392436610952
0
LINE
8
Polygon
10
-0.9013816256497426
20
-0.17315392436610952
11
-0.9017016763991305
21
-0.17126391135531174
0
LINE
8
Polygon
10
-0.9017016763991305
20
-0.17126391135531174
11
-0.9021119087121823
21
-0.16939140204625694
0
LINE
8
Polygon
10
-0.9021119087121823
20
-0.16939140204625694
11
-0.9026113804438134
21
-0.1675406968691771
0
LINE
8
Polygon
10
-0.9026113804438134
20
-0.1675406968691771
11
-0.9031989445004824
21
-0.16571604617863953
0
LINE
8
Polygon
10
-0.9031989445004824
20
-0.16571604617863953
11
-0.9038732514746215
21
-0.16392164049212488
0
LINE
8
Polygon
10
-0.9038732514746215
20
-0.16392164049212488
11
-0.904632752743704
21
-0.16216160086602813
0
LINE
8
Polygon
10
-0.904632752743704
20
-0.16216160086602813
11
-0.9054757040268322
21
-0.1604399694311846
0
LINE
8
Polygon
10
-0.9054757040268322
20
-0.1604399694311846
11
-0.9064001693906759
21
-0.15876070010965757
0
LINE
8
Polygon
10
-0.9064001693906759
20
-0.15876070010965757
11
-0.907404025695564
21
-0.1571276495341073
0
LINE
8
Polygon
10
-0.907404025695564
20
-0.1571276495341073
11
-0.908484967471515
21
-0.1555445681905962
0
LINE
8
Polygon
10
-0.908484967471515
20
-0.1555445681905962
11
-0.9096405122130106
21
-0.15401509180517192
0
LINE
8
Polygon
10
-0.9096405122130106
20
-0.15401509180517192
11
-0.9108680060803521
21
-0.15254273299400956
0
LINE
8
Polygon
10
-0.9108680060803521
20
-0.15254273299400956
11
-0.9121646299945043
21
-0.15113087319628976
0
LINE
8
Polygon
10
-0.9121646299945043
20
-0.15113087319628976
11
-0.9135274061114302
21
-0.1497827549083398
0
LINE
8
Polygon
10
-0.9135274061114302
20
-0.1497827549083398
11
-0.9149532046610485
21
-0.14850147423687268
0
LINE
8
Polygon
10
-0.9149532046610485
20
-0.14850147423687268
11
-0.9164387511351053
21
-0.14728997378842631
0
LINE
8
Polygon
10
-0.9164387511351053
20
-0.14728997378842631
11
-0.9179806338074551
21
-0.14615103591133372
0
LINE
8
Polygon
10
-0.9179806338074551
20
-0.14615103591133372
11
-0.9195753115694761
21
-0.145087276305744
0
LINE
8
Polygon
10
-0.9195753115694761
20
-0.145087276305744
11
-0.921219122062629
21
-0.14410113801637014
0
LINE
8
Polygon
10
-0.921219122062629
20
-0.14410113801637014
11
-0.9229082900894788
21
-0.14319488582175935
0
LINE
8
Polygon
10
-0.9229082900894788
20
-0.14319488582175935
11
-0.9246389362838647
21
-0.14237060103297192
0
LINE
8
Polygon
10
-0.9246389362838647
20
-0.14237060103297192
11
-0.9264070860203046
21
-0.14163017671361416
0
LINE
8
Polygon
10
-0.9264070860203046
20
-0.14163017671361416
11
-0.9282086785421739
21
-0.14097531333220287
0
LINE
8
Polygon
10
-0.9282086785421739
20
-0.14097531333220287
11
-0.9300395762876942
21
-0.14040751485684633
0
LINE
8
Polygon
10
-0.9300395762876942
20
-0.14040751485684633
11
-0.9318955743923139
21
-0.13992808530121073
0
LINE
8
Polygon
10
-0.9318955743923139
20
-0.13992808530121073
11
-0.9337724103456565
21
-0.13953812572970475
0
LINE
8
Polygon
10
-0.9337724103456565
20
-0.13953812572970475
11
-0.9356657737808604
21
-0.13923853172876022
0
LINE
8
Polygon
10
-0.9356657737808604
20
-0.13923853172876022
11
-0.9375713163738248
21
-0.13902999135001598
0
LINE
8
Polygon
10
-0.9375713163738248
20
-0.13902999135001598
11
-0.939484661829631
21
-0.1389129835301294
0
LINE
8
Polygon
10
-0.939484661829631
20
-0.1389129835301294
11
-0.9414014159331993
21
-0.13888777699084393
0
LINE
8
Polygon
10
-0.9414014159331993
20
-0.13888777699084393
11
-0.9433171766411036
21
-0.13895442962183888
0
LINE
8
Polygon
10
-0.9433171766411036
20
-0.13895442962183888
11
-0.9452275441913638
21
-0.13911278834777951
0
LINE
8
Polygon
10
-0.9452275441913638
20
-0.13911278834777951
11
-0.9471281312079985
21
-0.13936248947987173
0
LINE
8
Polygon
10
-0.9471281312079985
20
-0.13936248947987173
11
-0.9490145727771325
21
-0.13970295955111472
0
LINE
8
Polygon
10
-0.9490145727771325
20
-0.13970295955111472
11
-0.9508825364715165
21
-0.14013341663333315
0
LINE
8
Polygon
10
-0.9508825364715165
20
-0.14013341663333315
11
-0.9527277323004388
21
-0.14065287213296376
0
LINE
8
Polygon
10
-0.9527277323004388
20
-0.14065287213296376
11
-0.9545459225621756
21
-0.14126013306147298
0
LINE
8
Polygon
10
-0.9545459225621756
20
-0.14126013306147298
11
-0.9563329315763547
21
-0.14195380477519037
0
LINE
8
Polygon
10
-0.9563329315763547
20
-0.14195380477519037
11
-0.9580846552738786
21
-0.14273229417826627
0
LINE
8
Polygon
10
-0.9580846552738786
20
-0.14273229417826627
11
-0.9597970706223865
21
-0.14359381338139723
0
LINE
8
Polygon
10
-0.9597970706223866
20
-0.14359381338139723
11
-0.9614662448656036
21
-0.14453638380791684
0
LINE
8
Polygon
10
-0.9614662448656037
20
-0.14453638380791684
11
-0.9630883445553633
21
-0.1455578407378216
0
LINE
8
Polygon
10
-0.9630883445553633
20
-0.14555784073782158
11
-0.9646596443555555
21
-0.1466558382792963
0
LINE
8
Polygon
10
-0.9646596443555555
20
-0.14665583827929632
11
-0.9661765355977847
21
-0.1478278547563209
0
LINE
8
Polygon
10
-0.9661765355977847
20
-0.14782785475632093
11
-0.9676355345690859
21
-0.1490711984999858
0
LINE
8
Polygon
10
-0.967635534569086
20
-0.14907119849998582
11
-0.9825149856367381
21
-0.1611479996034331
0
LINE
8
Polygon
10
-0.9825149856367381
20
-0.1611479996034331
11
-0.9984819830864973
21
-0.17174527196033046
0
LINE
8
Polygon
10
-0.9984819830864975
20
-0.17174527196033054
11
-1.0153899310451222
21
-0.18076572010858327
0
LINE
8
Polygon
10
-1.0153899310451222
20
-0.18076572010858327
11
-1.0330835946036372
21
-0.18812652569254978
0
LINE
8
Polygon
10
-1.0330835946036374
20
-0.1881265256925498
11
-1.0514005250569332
21
-0.19376010783324893
0
LINE
8
Polygon
10
-1.0514005250569332
20
-0.19376010783324893
11
-1.0701725513745228
21
-0.19761474360055603
0
LINE
8
Polygon
10
-1.0701725513745228
20
-0.19761474360055603
11
-1.0892273242089974
21
-0.19965504289072028
0
LINE
8
Polygon
10
-1.0892273242089976
20
-0.1996550428907203
11
-1.1083898982663607
21
-0.19986227334926757
0
LINE
8
Polygon
10
-1.1083898982663607
20
-0.19986227334926757
11
-1.127484338510214
21
-0.19823453235611363
0
LINE
8
Polygon
10
-1.1274843385102142
20
-0.1982345323561136
11
-1.1463353354529464
21
-0.19478676449386098
0
LINE
8
Polygon
10
-1.1463353354529464
20
-0.19478676449386098
11
-1.1647698147036463
21
-0.18955062433890027
0
LINE
8
Polygon
10
-1.1647698147036463
20
-0.18955062433890027
11
-1.1826185259951918
21
-0.18257418583505508
0
LINE
8
Polygon
10
-1.182618525995192
20
-0.18257418583505503
11
-1.1997175971013705
21
-0.17392150091806385
0
LINE
8
Polygon
10
-1.1997175971013705
20
-0.17392150091806385
11
-1.21591003837724
21
-0.16367201144324617
0
LINE
8
Polygon
10
-1.21591003837724
20
-0.16367201144324617
11
-1.2310471841092734
21
-0.1519198198155513
0
LINE
8
Polygon
10
-1.2310471841092736
20
-0.1519198198155512
11
-1.244990057441994
21
-0.13877282501846588
0
LINE
8
Polygon
10
-1.244990057441994
20
-0.1387728250184659
11
-1.257610646349463
21
-0.124351731974055
0
LINE
8
Polygon
10
-1.257610646349463
20
-0.12435173197405493
11
-1.2687930789366955
21
-0.10878894332937811
0
LINE
8
Polygon
10
-1.2687930789366955
20
-0.1087889433293782
11
-1.278434687280355
21
-0.0922273438439916
0
LINE
8
Polygon
10
-1.278434687280355
20
-0.0922273438439916
11
-1.2864469500414082
21
-0.07481898853929031
0
LINE
8
Polygon
10
-1.2864469500414082
20
-0.07481898853929031
11
-1.2927563051954485
21
-0.056723706654029024
0
LINE
8
Polygon
10
-1.2927563051954485
20
-0.056723706654029114
11
-1.2973048254188633
21
-0.03810763422335597
0
LINE
8
Polygon
10
-1.2973048254188633
20
-0.03810763422335597
11
-1.300050749930002
21
-0.01914168875401518
0
LINE
8
Polygon
10
-1.300050749930002
20
-0.01914168875401518
11
-1.3009688679024192
21
3.8436389804505544e-16
0
LINE
8
Polygon
10
-1.3009688679024192
20
3.8436389804505544e-16
11
-1.300050749930002
21
0.019141688754015947
0
LINE
8
Polygon
10
-1.300050749930002
20
0.019141688754015947
11
-1.297304825418863
21
0.03810763422335673
0
LINE
8
Polygon
10
-1.297304825418863
20
0.03810763422335665
11
-1.2927563051954485
21
0.05672370665402979
0
LINE
8
Polygon
10
-1.2927563051954485
20
0.05672370665402979
11
-1.286446950041408
21
0.07481898853929107
0
LINE
8
Polygon
10
-1.286446950041408
20
0.07481898853929107
11
-1.2784346872803547
21
0.09222734384399237
0
LINE
8
Polygon
10
-1.2784346872803547
20
0.09222734384399237
11
-1.2687930789366952
21
0.10878894332937894
0
LINE
8
Polygon
10
-1.2687930789366955
20
0.10878894332937887
11
-1.2576106463494627
21
0.12435173197405566
0
LINE
8
Polygon
10
-1.2576106463494627
20
0.12435173197405566
11
-1.244990057441994
21
0.13877282501846658
0
LINE
8
Polygon
10
-1.244990057441994
20
0.13877282501846658
11
-1.2310471841092734
21
0.1519198198155519
0
LINE
8
Polygon
10
-1.2310471841092734
20
0.1519198198155519
11
-1.2159100383772399
21
0.16367201144324678
0
LINE
8
Polygon
10
-1.2159100383772399
20
0.16367201144324678
11
-1.1997175971013703
21
0.17392150091806452
0
LINE
8
Polygon
10
-1.1997175971013705
20
0.17392150091806446
11
-1.1826185259951918
21
0.18257418583505566
0
LINE
8
Polygon
10
-1.1826185259951918
20
0.18257418583505566
11
-1.1647698147036463
21
0.18955062433890085
0
LINE
8
Polygon
10
-1.1647698147036463
20
0.18955062433890085
11
-1.1463353354529462
21
0.1947867644938616
0
LINE
8
Polygon
10
-1.1463353354529462
20
0.1947867644938616
11
-1.127484338510214
21
0.19823453235611418
0
LINE
8
Polygon
10
-1.127484338510214
20
0.19823453235611418
11
-1.1083898982663607
21
0.19986227334926815
0
LINE
8
Polygon
10
-1.1083898982663607
20
0.19986227334926815
11
-1.0892273242089974
21
0.19965504289072084
0
LINE
8
Polygon
10
-1.0892273242089974
20
0.19965504289072084
11
-1.0701725513745226
21
0.19761474360055659
0
LINE
8
Polygon
10
-1.0701725513745228
20
0.19761474360055659
11
-1.0514005250569332
21
0.19376010783324946
0
LINE
8
Polygon
10
-1.051400525056933
20
0.19376010783324943
11
-1.0330835946036372
21
0.18812652569255026
0
LINE
8
Polygon
10
-1.0330835946036372
20
0.1881265256925503
11
-1.015389931045122
21
0.18076572010858377
0
LINE
8
Polygon
10
-1.015389931045122
20
0.18076572010858374
11
-0.9984819830864972
21
0.1717452719603309
0
LINE
8
Polygon
10
-0.9984819830864973
20
0.171745271960331
11
-0.982514985636738
21
0.16114799960343357
0
LINE
8
Polygon
10
-0.9825149856367381
20
0.16114799960343362
11
-0.9676355345690859
21
0.14907119849998632
0
LINE
8
Polygon
10
-0.9676355345690859
20
0.14907119849998623
11
-0.9661765355977846
21
0.14782785475632138
0
LINE
8
Polygon
10
-0.9661765355977846
20
0.14782785475632138
11
-0.9646596443555554
21
0.1466558382792968
0
LINE
8
Polygon
10
-0.9646596443555554
20
0.14665583827929676
11
-0.9630883445553632
21
0.14555784073782205
0
LINE
8
Polygon
10
-0.9630883445553632
20
0.14555784073782205
11
-0.9614662448656036
21
0.14453638380791728
0
LINE
8
Polygon
10
-0.9614662448656036
20
0.14453638380791728
11
-0.9597970706223865
21
0.1435938133813977
0
LINE
8
Polygon
10
-0.9597970706223865
20
0.1435938133813977
11
-0.9580846552738786
21
0.14273229417826672
0
LINE
8
Polygon
10
-0.9580846552738786
20
0.14273229417826672
11
-0.9563329315763546
21
0.14195380477519082
0
LINE
8
Polygon
10
-0.9563329315763546
20
0.14195380477519082
11
-0.9545459225621756
21
0.14126013306147342
0
LINE
8
Polygon
10
-0.9545459225621756
20
0.14126013306147342
11
-0.9527277323004387
21
0.1406528721329642
0
LINE
8
Polygon
10
-0.9527277323004387
20
0.1406528721329642
11
-0.9508825364715164
21
0.1401334166333336
0
LINE
8
Polygon
10
-0.9508825364715164
20
0.1401334166333336
11
-0.9490145727771324
21
0.13970295955111517
0
LINE
8
Polygon
10
-0.9490145727771324
20
0.13970295955111517
11
-0.9471281312079985
21
0.13936248947987218
0
LINE
8
Polygon
10
-0.9471281312079985
20
0.13936248947987218
11
-0.9452275441913638
21
0.13911278834777996
0
LINE
8
Polygon
10
-0.9452275441913638
20
0.13911278834777996
11
-0.9433171766411036
21
0.13895442962183932
0
LINE
8
Polygon
10
-0.9433171766411036
20
0.13895442962183932
11
-0.9414014159331993
21
0.13888777699084437
0
LINE
8
Polygon
10
-0.9414014159331993
20
0.13888777699084437
11
-0.9394846618296309
21
0.13891298353012985
0
LINE
8
Polygon
10
-0.9394846618296309
20
0.13891298353012985
11
-0.9375713163738247
21
0.13902999135001642
0
LINE
8
Polygon
10
-0.9375713163738247
20
0.13902999135001642
11
-0.9356657737808602
21
0.13923853172876066
0
LINE
8
Polygon
10
-0.9356657737808602
20
0.13923853172876066
11
-0.9337724103456564
21
0.1395381257297052
0
LINE
8
Polygon
10
-0.9337724103456564
20
0.1395381257297052
11
-0.9318955743923137
21
0.13992808530121117
0
LINE
8
Polygon
10
-0.9318955743923137
20
0.13992808530121117
11
-0.9300395762876942
21
0.14040751485684677
0
LINE
8
Polygon
10
-0.9300395762876942
20
0.14040751485684677
11
-0.9282086785421738
21
0.1409753133322033
0
LINE
8
Polygon
10
-0.9282086785421738
20
0.1409753133322033
11
-0.9264070860203045
21
0.14163017671361458
0
LINE
8
Polygon
10
-0.9264070860203045
20
0.14163017671361458
11
-0.9246389362838647
21
0.14237060103297233
0
LINE
8
Polygon
10
-0.9246389362838647
20
0.14237060103297233
11
-0.9229082900894788
21
0.14319488582175977
0
LINE
8
Polygon
10
-0.9229082900894788
20
0.14319488582175977
11
-0.9212191220626289
21
0.1441011380163706
0
LINE
8
Polygon
10
-0.9212191220626289
20
0.1441011380163706
11
-0.919575311569476
21
0.14508727630574442
0
LINE
8
Polygon
10
-0.919575311569476
20
0.14508727630574442
11
-0.9179806338074551
21
0.1461510359113341
0
LINE
8
Polygon
10
-0.9179806338074551
20
0.1461510359113341
11
-0.9164387511351053
21
0.14728997378842673
0
LINE
8
Polygon
10
-0.9164387511351053
20
0.14728997378842673
11
-0.9149532046610483
21
0.1485014742368731
0
LINE
8
Polygon
10
-0.9149532046610483
20
0.1485014742368731
11
-0.9135274061114301
21
0.14978275490834023
0
LINE
8
Polygon
10
-0.9135274061114301
20
0.14978275490834023
11
-0.9121646299945042
21
0.15113087319629015
0
LINE
8
Polygon
10
-0.9121646299945042
20
0.15113087319629015
11
-0.910868006080352
21
0.15254273299400994
0
LINE
8
Polygon
10
-0.910868006080352
20
0.15254273299400994
11
-0.9096405122130105
21
0.15401509180517234
0
LINE
8
Polygon
10
-0.9096405122130105
20
0.15401509180517234
11
-0.9084849674715149
21
0.15554456819059662
0
LINE
8
Polygon
10
-0.9084849674715149
20
0.15554456819059662
11
-0.907404025695564
21
0.15712764953410768
0
LINE
8
Polygon
10
-0.907404025695564
20
0.15712764953410768
11
-0.9064001693906759
21
0.15876070010965798
0
LINE
8
Polygon
10
-0.9064001693906759
20
0.15876070010965798
11
-0.9054757040268321
21
0.160439969431185
0
LINE
8
Polygon
10
-0.9054757040268321
20
0.160439969431185
11
-0.9046327527437039
21
0.16216160086602852
0
LINE
8
Polygon
10
-0.9046327527437039
20
0.16216160086602852
11
-0.9038732514746214
21
0.16392164049212526
0
LINE
8
Polygon
10
-0.9038732514746214
20
0.16392164049212526
11
-0.9031989445004823
21
0.16571604617863991
0
LINE
8
Polygon
10
-0.9031989445004823
20
0.16571604617863991
11
-0.9026113804438134
21
0.1675406968691775
0
LINE
8
Polygon
10
-0.9026113804438134
20
0.16754069686917752
11
-0.9021119087121822
21
0.16939140204625736
0
LINE
8
Polygon
10
-0.9021119087121822
20
0.16939140204625733
11
-0.9017016763991303
21
0.17126391135531213
0
LINE
8
Polygon
10
-0.9017016763991303
20
0.17126391135531213
11
-0.9013816256497424
21
0.1731539243661099
0
LINE
8
Polygon
10
-0.9013816256497424
20
0.1731539243661099
11
-0.9011524914969026
21
0.1750571004491803
0
LINE
8
Polygon
10
-0.9011524914969026
20
0.17505710044918027
11
-0.9010148001732088
21
0.17696906874456286
0
LINE
8
Polygon
10
-0.9010148001732088
20
0.17696906874456286
11
-0.9009688679024191
21
0.1788854381999834
0
LINE
8
Polygon
10
-0.9009688679024195
20
-0.43388373911755795
11
-0.9009688679024193
21
-0.178885438199983
0
LINE
8
Polygon
10
-0.9009688679024191
20
0.43388373911755834
11
-0.9009688679024191
21
0.1788854381999834
0
LINE
8
Polygon
10
-0.9676355345690859
20
-0.14907119849998576
11
-0.967635534569086
21
-0.14907119849998582
0
LINE
8
Polygon
10
-0.9676355345690858
20
0.14907119849998623
11
-0.9676355345690859
21
0.14907119849998623
0
LINE
8
Polygon
10
-0.42188663358953116
20
-0.8159390720684111
11
-0.4234135498642326
21
-0.8147801465517274
0
LINE
8
Polygon
10
-0.4234135498642326
20
-0.8147801465517274
11
-0.42499423600717096
21
-0.8136957052298056
0
LINE
8
Polygon
10
-0.42499423600717096
20
-0.8136957052298056
11
-0.4266250617931487
21
-0.8126882386452686
0
LINE
8
Polygon
10
-0.4266250617931487
20
-0.8126882386452686
11
-0.4283022818455852
21
-0.8117600605595149
0
LINE
8
Polygon
10
-0.4283022818455852
20
-0.8117600605595149
11
-0.43002204423819945
21
-0.8109133026389033
0
LINE
8
Polygon
10
-0.43002204423819945
20
-0.8109133026389033
11
-0.4317803993413958
21
-0.8101499095591389
0
LINE
8
Polygon
10
-0.4317803993413958
20
-0.8101499095591389
11
-0.43357330889303697
21
-0.8094716345391046
0
LINE
8
Polygon
10
-0.43357330889303697
20
-0.8094716345391046
11
-0.4353966552727717
21
-0.8088800353143951
0
LINE
8
Polygon
10
-0.4353966552727717
20
-0.8088800353143951
11
-0.43724625095861713
21
-0.8083764705597997
0
LINE
8
Polygon
10
-0.43724625095861713
20
-0.8083764705597997
11
-0.4391178481440785
21
-0.8079620967689517
0
LINE
8
Polygon
10
-0.4391178481440785
20
-0.8079620967689517
11
-0.4410071484937193
21
-0.8076378655983097
0
LINE
8
Polygon
10
-0.4410071484937193
20
-0.8076378655983097
11
-0.4429098130147764
21
-0.8074045216815701
0
LINE
8
Polygon
10
-0.44290981301477633
20
-0.8074045216815701
11
-0.44482147202214956
21
-0.8072626009195314
0
LINE
8
Polygon
10
-0.44482147202214956
20
-0.8072626009195314
11
-0.44673773517387966
21
-0.8072124292493372
0
LINE
8
Polygon
10
-0.44673773517387966
20
-0.8072124292493372
11
-0.4486542015540672
21
-0.8072541218959247
0
LINE
8
Polygon
10
-0.4486542015540672
20
-0.8072541218959247
11
-0.45056646978007553
21
-0.8073875831073972
0
LINE
8
Polygon
10
-0.45056646978007553
20
-0.8073875831073972
11
-0.45247014811080566
21
-0.8076125063749294
0
LINE
8
Polygon
10
-0.45247014811080566
20
-0.8076125063749294
11
-0.45436086453282837
21
-0.8079283751366997
0
LINE
8
Polygon
10
-0.45436086453282837
20
-0.8079283751366997
11
-0.4562342768012096
21
-0.8083344639642331
0
LINE
8
Polygon
10
-0.45623427680120954
20
-0.8083344639642331
11
-0.45808608241196863
21
-0.8088298402284303
0
LINE
8
Polygon
10
-0.45808608241196863
20
-0.8088298402284303
11
-0.45991202848326745
21
-0.8094133662414555
0
LINE
8
Polygon
10
-0.45991202848326745
20
-0.8094133662414555
11
-0.4617079215226363
21
-0.8100837018695668
0
LINE
8
Polygon
10
-0.4617079215226363
20
-0.8100837018695668
11
-0.4634696370578055
21
-0.8108393076108844
0
LINE
8
Polygon
10
-0.4634696370578055
20
-0.8108393076108844
11
-0.4651931291090242
21
-0.8116784481310325
0
LINE
8
Polygon
10
-0.4651931291090243
20
-0.8116784481310325
11
-0.46687443948111257
21
-0.812599196248531
0
LINE
8
Polygon
10
-0.46687443948111257
20
-0.812599196248531
11
-0.4685097068539058
21
-0.8135994373607867
0
LINE
8
Polygon
10
-0.4685097068539058
20
-0.8135994373607867
11
-0.47009517565021497
21
-0.8146768743005185
0
LINE
8
Polygon
10
-0.47009517565021497
20
-0.8146768743005185
11
-0.47162720466093605
21
-0.8158290326114627
0
LINE
8
Polygon
10
-0.47162720466093605
20
-0.8158290326114627
11
-0.4731022754075001
21
-0.8170532662312426
0
LINE
8
Polygon
10
-0.4731022754075001
20
-0.8170532662312426
11
-0.4745170002224589
21
-0.8183467635683519
0
LINE
8
Polygon
10
-0.4745170002224589
20
-0.8183467635683519
11
-0.4758681300296478
21
-0.8197065539592925
0
LINE
8
Polygon
10
-0.4758681300296478
20
-0.8197065539592925
11
-0.4771525618060579
21
-0.8211295144910419
0
LINE
8
Polygon
10
-0.4771525618060579
20
-0.8211295144910419
11
-0.4783673457082811
21
-0.8226123771731767
0
LINE
8
Polygon
10
-0.4783673457082811
20
-0.8226123771731767
11
-0.47950969184715997
21
-0.824151736443184
0
LINE
8
Polygon
10
-0.47950969184715997
20
-0.824151736443184
11
-0.48057697669508515
21
-0.825744056987722
0
LINE
8
Polygon
10
-0.48057697669508515
20
-0.825744056987722
11
-0.48156674911122443
21
-0.8273856818618692
0
LINE
8
Polygon
10
-0.48156674911122443
20
-0.8273856818618692
11
-0.4824767359708459
21
-0.8290728408877126
0
LINE
8
Polygon
10
-0.4824767359708459
20
-0.8290728408877126
11
-0.483304847385807
21
-0.8308016593129903
0
LINE
8
Polygon
10
-0.48330484738580703
20
-0.8308016593129903
11
-0.48404918150421994
21
-0.8325681667098996
0
LINE
8
Polygon
10
-0.48404918150421994
20
-0.8325681667098996
11
-0.48470802887827047
21
-0.834368306093635
0
LINE
8
Polygon
10
-0.48470802887827047
20
-0.834368306093635
11
-0.4852798763901589
21
-0.836197943239715
0
LINE
8
Polygon
10
-0.4852798763901589
20
-0.8361979432397151
11
-0.4857634107271469
21
-0.8380528761786975
0
LINE
8
Polygon
10
-0.4857634107271469
20
-0.8380528761786975
11
-0.4861575213977294
21
-0.83992884484648
0
LINE
8
Polygon
10
-0.4861575213977294
20
-0.83992884484648
11
-0.4864613032820042
21
-0.8418215408680205
0
LINE
8
Polygon
10
-0.4864613032820042
20
-0.8418215408680205
11
-0.48667405871038283
21
-0.8437266174520097
0
LINE
8
Polygon
10
-0.48667405871038283
20
-0.8437266174520098
11
-0.48679529906586794
21
-0.8456396993737713
0
LINE
8
Polygon
10
-0.48679529906586794
20
-0.8456396993737713
11
-0.48682474590621755
21
-0.8475563930234613
0
LINE
8
Polygon
10
-0.48682474590621755
20
-0.8475563930234613
11
-0.4867623316034194
21
-0.849472296496493
0
LINE
8
Polygon
10
-0.4867623316034194
20
-0.8494722964964929
11
-0.4865974942911768
21
-0.8686352821101017
0
LINE
8
Polygon
10
-0.4865974942911768
20
-0.8686352821101017
11
-0.4882674732104956
21
-0.8877260746388551
0
LINE
8
Polygon
10
-0.4882674732104956
20
-0.8877260746388551
11
-0.4917569359847818
21
-0.9065693980854702
0
LINE
8
Polygon
10
-0.4917569359847818
20
-0.9065693980854702
11
-0.49703384522916405
21
-0.9249922485107827
0
LINE
8
Polygon
10
-0.49703384522916405
20
-0.9249922485107827
11
-0.5040497526914814
21
-0.9428254824140061
0
LINE
8
Polygon
10
-0.5040497526914814
20
-0.9428254824140061
11
-0.5127402440643943
21
-0.959905369669612
0
LINE
8
Polygon
10
-0.5127402440643943
20
-0.959905369669612
11
-0.5230255303847166
21
-0.9760750967630379
0
LINE
8
Polygon
10
-0.5230255303847166
20
-0.9760750967630379
11
-0.5348111805902267
21
-0.9911862065237484
0
LINE
8
Polygon
10
-0.5348111805902267
20
-0.9911862065237484
11
-0.5479889885082219
21
-1.0050999611371987
0
LINE
8
Polygon
10
-0.5479889885082219
20
-1.0050999611371987
11
-0.5624379663158361
21
-1.0176886159216445
0
LINE
8
Polygon
10
-0.5624379663158361
20
-1.0176886159216445
11
-0.5780254553509874
21
-1.0288365921750242
0
LINE
8
Polygon
10
-0.5780254553509874
20
-1.0288365921750242
11
-0.5946083440753952
21
-1.0384415383237953
0
LINE
8
Polygon
10
-0.5946083440753951
20
-1.038441538323795
11
-0.6120343820073348
21
-1.0464152696311242
0
LINE
8
Polygon
10
-0.6120343820073348
20
-1.0464152696311242
11
-0.6301435775606732
21
-1.0526845778368066
0
LINE
8
Polygon
10
-0.6301435775606732
20
-1.0526845778368066
11
-0.6487696669563745
21
-1.0571919032954593
0
LINE
8
Polygon
10
-0.6487696669563745
20
-1.0571919032954593
11
-0.6677416407201386
21
-1.0598958634419717
0
LINE
8
Polygon
10
-0.6677416407201386
20
-1.0598958634419717
11
-0.686885313751118
21
-1.0607716327322716
0
LINE
8
Polygon
10
-0.686885313751118
20
-1.0607716327322716
11
-0.7060249245466346
21
-1.0598111705711075
0
LINE
8
Polygon
10
-0.7060249245466346
20
-1.0598111705711075
11
-0.7249847489001239
21
-1.0570232951341996
0
LINE
8
Polygon
10
-0.7249847489001239
20
-1.0570232951341996
11
-0.7435907132566578
21
-1.0524336024069825
0
LINE
8
Polygon
10
-0.7435907132566578
20
-1.0524336024069825
11
-0.7616719929135376
21
-1.0460842311832637
0
LINE
8
Polygon
10
-0.7616719929135376
20
-1.0460842311832637
11
-0.7790625803925902
21
-1.0380334761813836
0
LINE
8
Polygon
10
-0.7790625803925902
20
-1.0380334761813836
11
-0.7956028095846618
21
-1.0283552528299298
0
LINE
8
Polygon
10
-0.7956028095846617
20
-1.0283552528299298
11
-0.8111408216728606
21
-1.0171384186369026
0
LINE
8
Polygon
10
-0.8111408216728606
20
-1.0171384186369026
11
-0.8255339593756489
21
-1.0044859573729643
0
LINE
8
Polygon
10
-0.8255339593756489
20
-1.0044859573729643
11
-0.8386500767089824
21
-0.9905140335589326
0
LINE
8
Polygon
10
-0.8386500767089824
20
-0.9905140335589326
11
-0.8503687522423405
21
-0.9753509259384362
0
LINE
8
Polygon
10
-0.8503687522423405
20
-0.9753509259384362
11
-0.8605823947095221
21
-0.959135849727716
0
LINE
8
Polygon
10
-0.8605823947095221
20
-0.959135849727716
11
-0.8691972308233978
21
-0.9420176784557037
0
LINE
8
Polygon
10
-0.8691972308233977
20
-0.9420176784557038
11
-0.8761341662253116
21
-0.9241535771293969
0
LINE
8
Polygon
10
-0.8761341662253116
20
-0.9241535771293969
11
-0.8813295116646036
21
-0.9057075592736833
0
LINE
8
Polygon
10
-0.8813295116646036
20
-0.9057075592736833
11
-0.8847355677410665
21
-0.8868489810936913
0
LINE
8
Polygon
10
-0.8847355677410665
20
-0.8868489810936913
11
-0.8863210628417117
21
-0.8677509865850338
0
LINE
8
Polygon
10
-0.8863210628417117
20
-0.8677509865850338
11
-0.8860714402510685
21
-0.8485889178676661
0
LINE
8
Polygon
10
-0.8860714402510685
20
-0.8485889178676661
11
-0.8839889917990046
21
-0.8295387053383693
0
LINE
8
Polygon
10
-0.8839889917990046
20
-0.8295387053383693
11
-0.8800928368190248
21
-0.8107752524221584
0
LINE
8
Polygon
10
-0.8800928368190248
20
-0.8107752524221585
11
-0.8744187466102338
21
-0.7924708297525035
0
LINE
8
Polygon
10
-0.8744187466102338
20
-0.7924708297525035
11
-0.8670188160146092
21
-0.7747934935236815
0
LINE
8
Polygon
10
-0.8670188160146092
20
-0.7747934935236815
11
-0.857960985124896
21
-0.7579055425366541
0
LINE
8
Polygon
10
-0.857960985124896
20
-0.7579055425366541
11
-0.847328415514404
21
-0.7419620281046061
0
LINE
8
Polygon
10
-0.847328415514404
20
-0.7419620281046061
11
-0.8352187267156567
21
-0.7271093304989731
0
LINE
8
Polygon
10
-0.8352187267156567
20
-0.7271093304989731
11
-0.8217430999579193
21
-0.7134838150058612
0
LINE
8
Polygon
10
-0.8217430999579193
20
-0.7134838150058612
11
-0.8070252573923503
21
-0.7012105799318472
0
LINE
8
Polygon
10
-0.8070252573923503
20
-0.7012105799318472
11
-0.7912003261766964
21
-0.6904023080539425
0
LINE
8
Polygon
10
-0.7912003261766963
20
-0.6904023080539425
11
-0.7744135978485712
21
-0.681158232058766
0
LINE
8
Polygon
10
-0.7744135978485713
20
-0.6811582320587661
11
-0.7568191943777361
21
-0.6735632234694133
0
LINE
8
Polygon
10
-0.756819194377736
20
-0.6735632234694133
11
-0.7385786531445963
21
-0.6676870134247498
0
LINE
8
Polygon
10
-0.738578653144596
20
-0.6676870134247497
11
-0.7198594438364792
21
-0.6635835524652924
0
LINE
8
Polygon
10
-0.7198594438364793
20
-0.6635835524652924
11
-0.7179776875746238
21
-0.6632180732810206
0
LINE
8
Polygon
10
-0.7179776875746238
20
-0.6632180732810206
11
-0.7161156019748559
21
-0.662762860273401
0
LINE
8
Polygon
10
-0.7161156019748559
20
-0.662762860273401
11
-0.7142774635281759
21
-0.6622189588907904
0
LINE
8
Polygon
10
-0.7142774635281759
20
-0.6622189588907904
11
-0.7124674937282279
21
-0.6615876182644683
0
LINE
8
Polygon
10
-0.7124674937282279
20
-0.6615876182644683
11
-0.7106898493761604
21
-0.660870288339865
0
LINE
8
Polygon
10
-0.7106898493761604
20
-0.660870288339865
11
-0.7089486130340609
21
-0.6600686165465978
0
LINE
8
Polygon
10
-0.7089486130340609
20
-0.6600686165465978
11
-0.7072477836488879
21
-0.6591844440149611
0
LINE
8
Polygon
10
-0.7072477836488879
20
-0.6591844440149611
11
-0.7055912673684358
21
-0.6582198013475624
0
LINE
8
Polygon
10
-0.7055912673684358
20
-0.6582198013475624
11
-0.7039828685704228
21
-0.6571769039558125
0
LINE
8
Polygon
10
-0.7039828685704228
20
-0.6571769039558125
11
-0.702426281125305
21
-0.6560581469719815
0
LINE
8
Polygon
10
-0.702426281125305
20
-0.6560581469719815
11
-0.7009250799128846
21
-0.6548660997485058
0
LINE
8
Polygon
10
-0.7009250799128846
20
-0.6548660997485058
11
-0.6994827126121913
21
-0.6536034999571787
0
LINE
8
Polygon
10
-0.6994827126121913
20
-0.6536034999571787
11
-0.6981024917834968
21
-0.6522732473017757
0
LINE
8
Polygon
10
-0.6981024917834968
20
-0.6522732473017757
11
-0.6967875872606438
21
-0.6508783968585563
0
LINE
8
Polygon
10
-0.6967875872606438
20
-0.6508783968585563
11
-0.6955410188711626
21
-0.6494221520599339
0
LINE
8
Polygon
10
-0.6955410188711626
20
-0.6494221520599339
11
-0.6943656495008943
21
-0.6479078573374297
0
LINE
8
Polygon
10
-0.6943656495008943
20
-0.6479078573374297
11
-0.6932641785190486
21
-0.6463389904408063
0
LINE
8
Polygon
10
-0.6932641785190486
20
-0.6463389904408063
11
-0.6922391355787959
21
-0.6447191544510201
0
LINE
8
Polygon
10
-0.6922391355787959
20
-0.6447191544510201
11
-0.6912928748076311
21
-0.643052069505337
0
LINE
8
Polygon
10
-0.6912928748076311
20
-0.643052069505337
11
-0.6904275694008533
21
-0.6413415642536147
0
LINE
8
Polygon
10
-0.6904275694008533
20
-0.6413415642536147
11
-0.6896452066305754
21
-0.6395915670653736
0
LINE
8
Polygon
10
-0.6896452066305754
20
-0.6395915670653736
11
-0.6889475832817283
21
-0.6378060970078503
0
LINE
8
Polygon
10
-0.6889475832817283
20
-0.6378060970078503
11
-0.6883363015255407
21
-0.6359892546157532
0
LINE
8
Polygon
10
-0.6883363015255407
20
-0.6359892546157532
11
-0.6878127652399701
21
-0.6341452124739192
0
LINE
8
Polygon
10
-0.6878127652399701
20
-0.6341452124739192
11
-0.6873781767855385
21
-0.6322782056344987
0
LINE
8
Polygon
10
-0.6873781767855385
20
-0.6322782056344987
11
-0.6870335342439742
21
-0.6303925218906771
0
LINE
8
Polygon
10
-0.6870335342439742
20
-0.6303925218906771
11
-0.6867796291260047
21
-0.6284924919292718
0
LINE
8
Polygon
10
-0.6867796291260047
20
-0.6284924919292718
11
-0.6866170445535614
21
-0.6265824793848177
0
LINE
8
Polygon
10
-0.6866170445535614
20
-0.6265824793848177
11
-0.6865461539205749
21
-0.6246668708179849
0
LINE
8
Polygon
10
-0.6865461539205749
20
-0.6246668708179849
11
-0.6865671200354327
21
-0.6227500656413442
0
LINE
8
Polygon
10
-0.6865671200354327
20
-0.6227500656413442
11
-0.6866798947470716
21
-0.6208364660156169
0
LINE
8
Polygon
10
-0.6866798947470716
20
-0.6208364660156169
11
-0.6868842190555619
21
-0.6189304667396127
0
LINE
8
Polygon
10
-0.6868842190555619
20
-0.6189304667396127
11
-0.6871796237069301
21
-0.6170364451570749
0
LINE
8
Polygon
10
-0.6871796237069301
20
-0.6170364451570749
11
-0.6875654302708545
21
-0.6151587511036143
0
LINE
8
Polygon
10
-0.6875654302708545
20
-0.6151587511036143
11
-0.6880407526987565
21
-0.6133016969168168
0
LINE
8
Polygon
10
-0.6880407526987565
20
-0.6133016969168168
11
-0.6886044993587128
21
-0.6114695475324715
0
LINE
8
Polygon
10
-0.6886044993587128
20
-0.6114695475324715
11
-0.6892553755425113
21
-0.6096665106896608
0
LINE
8
Polygon
10
-0.6892553755425113
20
-0.6096665106896608
11
-0.6899918864390956
21
-0.6078967272672101
0
LINE
8
Polygon
10
-0.6899918864390956
20
-0.6078967272672101
11
-0.6908123405675688
21
-0.6061642617736894
0
LINE
8
Polygon
10
-0.6908123405675688
20
-0.6061642617736894
11
-0.6917148536618707
21
-0.6044730930128077
0
LINE
8
Polygon
10
-0.6917148536618707
20
-0.6044730930128077
11
-0.6926973529982097
21
-0.6028271049456388
0
LINE
8
Polygon
10
-0.6926973529982097
20
-0.6028271049456388
11
-0.693757582155307
21
-0.6012300777706637
0
LINE
8
Polygon
10
-0.693757582155307
20
-0.6012300777706637
11
-0.6948931061965259
21
-0.5996856792421152
0
LINE
8
Polygon
10
-0.6948931061965259
20
-0.5996856792421152
11
-0.6961013172619787
21
-0.5981974562465644
0
LINE
8
Polygon
10
-0.6961013172619787
20
-0.5981974562465644
11
-0.6973794405577739
21
-0.5967688266570926
0
LINE
8
Polygon
10
-0.6973794405577739
20
-0.5967688266570926
11
-0.6987245407286454
21
-0.595403071483758
0
LINE
8
Polygon
10
-0.6987245407286454
20
-0.595403071483758
11
-0.7001335285993286
21
-0.5941033273383832
0
LINE
8
Polygon
10
-0.7001335285993286
20
-0.5941033273383832
11
-0.7016031682692031
21
-0.5928725792309704
0
LINE
8
Polygon
10
-0.22252093395631478
20
-0.9749279121818237
11
-0.42188663358953116
21
-0.8159390720684111
0
LINE
8
Polygon
10
-0.9009688679024195
20
-0.43388373911755795
11
-0.7016031682692031
21
-0.5928725792309704
0
LINE
8
Polygon
10
-0.4867623316034194
20
-0.849472296496493
11
-0.4867623316034194
21
-0.8494722964964929
0
LINE
8
Polygon
10
-0.7198594438364794
20
-0.6635835524652924
11
-0.7198594438364793
21
-0.6635835524652924
0
LINE
8
Polygon
10
0.3748848407352496
20
-0.8385739425454823
11
0.37302673955490223
21
-0.8390451555193705
0
LINE
8
Polygon
10
0.37302673955490223
20
-0.8390451555193705
11
0.3711933474984731
21
-0.8396048476048883
0
LINE
8
Polygon
10
0.37119334749847316
20
-0.8396048476048883
11
0.36938887515898217
21
-0.8402517334056141
0
LINE
8
Polygon
10
0.36938887515898217
20
-0.8402517334056141
11
0.3676174667120358
21
-0.8409843272748594
0
LINE
8
Polygon
10
0.3676174667120358
20
-0.8409843272748594
11
0.36588319039825734
21
-0.8418009467276253
0
LINE
8
Polygon
10
0.36588319039825734
20
-0.8418009467276253
11
0.3641900291801102
21
-0.8426997163046199
0
LINE
8
Polygon
10
0.3641900291801102
20
-0.8426997163046199
11
0.36254187159457235
21
-0.8436785718794637
0
LINE
8
Polygon
10
0.36254187159457235
20
-0.8436785718794637
11
0.3609425028226701
21
-0.8447352653991905
0
LINE
8
Polygon
10
0.3609425028226701
20
-0.8447352653991905
11
0.35939559599637955
21
-0.8458673700471557
0
LINE
8
Polygon
10
0.3593955959963796
20
-0.8458673700471557
11
0.3579047037628623
21
-0.8470722858164969
0
LINE
8
Polygon
10
0.3579047037628623
20
-0.8470722858164969
11
0.3564732501254078
21
-0.8483472454813439
0
LINE
8
Polygon
10
0.3564732501254078
20
-0.8483472454813439
11
0.3551045225798209
21
-0.8496893209520683
0
LINE
8
Polygon
10
0.3551045225798209
20
-0.8496893209520683
11
0.3538016645643146
21
-0.8510954299999731
0
LINE
8
Polygon
10
0.3538016645643146
20
-0.8510954299999731
11
0.35256766824024743
21
-0.8525623433359808
0
LINE
8
Polygon
10
0.35256766824024743
20
-0.8525623433359808
11
0.35140536762028485
21
-0.8540866920270628
0
LINE
8
Polygon
10
0.35140536762028485
20
-0.8540866920270628
11
0.3503174320597677
21
-0.8556649752333761
0
LINE
8
Polygon
10
0.3503174320597677
20
-0.8556649752333763
11
0.3493063601262342
21
-0.8572935682483402
0
LINE
8
Polygon
10
0.3493063601262342
20
-0.8572935682483402
11
0.3483744738611765
21
-0.8589687308231865
0
LINE
8
Polygon
10
0.3483744738611765
20
-0.8589687308231865
11
0.34752391344720795
21
-0.8606866157568646
0
LINE
8
Polygon
10
0.34752391344720795
20
-0.8606866157568646
11
0.3467566322928916
21
-0.8624432777315768
0
LINE
8
Polygon
10
0.3467566322928916
20
-0.8624432777315768
11
0.34607439254651495
21
-0.8642346823736475
0
LINE
8
Polygon
10
0.34607439254651495
20
-0.8642346823736475
11
0.34547876104911673
21
-0.8660567155189212
0
LINE
8
Polygon
10
0.34547876104911673
20
-0.8660567155189212
11
0.3449711057360584
21
-0.867905192661407
0
LINE
8
Polygon
10
0.3449711057360584
20
-0.867905192661407
11
0.3445525924954053
21
-0.869775868563472
0
LINE
8
Polygon
10
0.3445525924954053
20
-0.869775868563472
11
0.3442241824903324
21
-0.8716644470055116
0
LINE
8
Polygon
10
0.3442241824903324
20
-0.8716644470055116
11
0.3439866299517038
21
-0.8735665906527054
0
LINE
8
Polygon
10
0.3439866299517038
20
-0.8735665906527054
11
0.34384048044589616
21
-0.8754779310161992
0
LINE
8
Polygon
10
0.34384048044589616
20
-0.8754779310161992
11
0.3437860696218432
21
-0.8773940784858358
0
LINE
8
Polygon
10
0.3437860696218432
20
-0.8773940784858358
11
0.34382352244018016
21
-0.8793106324113926
0
LINE
8
Polygon
10
0.34382352244018016
20
-0.8793106324113926
11
0.3439527528862574
21
-0.8812231912091751
0
LINE
8
Polygon
10
0.3439527528862574
20
-0.8812231912091751
11
0.34417346416768263
21
-0.8831273624707534
0
LINE
8
Polygon
10
0.34417346416768263
20
-0.8831273624707534
11
0.3444851493959388
21
-0.8850187730506264
0
LINE
8
Polygon
10
0.3444851493959388
20
-0.8850187730506264
11
0.34488709275051044
21
-0.8868930791096478
0
LINE
8
Polygon
10
0.34488709275051044
20
-0.8868930791096479
11
0.34537837112284747
21
-0.8887459760911454
0
LINE
8
Polygon
10
0.34537837112284747
20
-0.8887459760911454
11
0.34595785623638825
21
-0.890573208606824
0
LINE
8
Polygon
10
0.34595785623638825
20
-0.890573208606824
11
0.34662421723777515
21
-0.8923705802097485
0
LINE
8
Polygon
10
0.3466242172377752
20
-0.8923705802097485
11
0.3473759237533102
21
-0.89413396303196
0
LINE
8
Polygon
10
0.3473759237533102
20
-0.89413396303196
11
0.34821124940363213
21
-0.895859307264594
0
LINE
8
Polygon
10
0.34821124940363213
20
-0.895859307264594
11
0.34912827576854244
21
-0.8975426504587252
0
LINE
8
Polygon
10
0.34912827576854244
20
-0.8975426504587252
11
0.3501248967928755
21
-0.8991801266255826
0
LINE
8
Polygon
10
0.3501248967928755
20
-0.8991801266255826
11
0.351198823623293
21
-0.9007679751152308
0
LINE
8
Polygon
10
0.351198823623293
20
-0.9007679751152308
11
0.35234758986489595
21
-0.9023025492533298
0
LINE
8
Polygon
10
0.35234758986489595
20
-0.9023025492533298
11
0.35356855724558006
21
-0.9037803247161366
0
LINE
8
Polygon
10
0.35356855724558006
20
-0.9037803247161366
11
0.35485892167512767
21
-0.9051979076245151
0
LINE
8
Polygon
10
0.35485892167512767
20
-0.9051979076245151
11
0.3562157196851189
21
-0.9065520423383647
0
LINE
8
Polygon
10
0.3562157196851189
20
-0.9065520423383647
11
0.3576358352348738
21
-0.9078396189335672
0
LINE
8
Polygon
10
0.3576358352348738
20
-0.9078396189335672
11
0.35911600686779305
21
-0.9090576803442808
0
LINE
8
Polygon
10
0.35911600686779305
20
-0.9090576803442809
11
0.3606528352016638
21
-0.910203429154178
0
LINE
8
Polygon
10
0.36065283520166375
20
-0.9102034291541781
11
0.37573783503561403
21
-0.922022480257232
0
LINE
8
Polygon
10
0.37573783503561403
20
-0.922022480257232
11
0.3896224028343447
21
-0.9352310368024921
0
LINE
8
Polygon
10
0.3896224028343447
20
-0.9352310368024921
11
0.4021790618855031
21
-0.9497078286584193
0
LINE
8
Polygon
10
0.4021790618855031
20
-0.9497078286584193
11
0.4132925272456055
21
-0.9653199417971551
0
LINE
8
Polygon
10
0.4132925272456055
20
-0.9653199417971551
11
0.4228607641918224
21
-0.9819240386020984
0
LINE
8
Polygon
10
0.4228607641918224
20
-0.9819240386020984
11
0.43079592502110703
21
-0.9993676738763257
0
LINE
8
Polygon
10
0.4307959250211071
20
-0.9993676738763257
11
0.4370251555957456
21
-1.0174906944693414
0
LINE
8
Polygon
10
0.4370251555957456
20
-1.0174906944693414
11
0.44149126423028917
21
-1.036126709671936
0
LINE
8
Polygon
10
0.44149126423028917
20
-1.036126709671936
11
0.44415324677869605
21
-1.0551046188791922
0
LINE
8
Polygon
10
0.44415324677869605
20
-1.0551046188791922
11
0.44498666310076695
21
-1.074250182495889
0
LINE
8
Polygon
10
0.44498666310076695
20
-1.074250182495889
11
0.44398386145146373
21
-1.093387621661541
0
LINE
8
Polygon
10
0.44398386145146373
20
-1.093387621661541
11
0.4411540487329564
21
-1.1123412321077082
0
LINE
8
Polygon
10
0.4411540487329564
20
-1.1123412321077082
11
0.4365232059643993
21
-1.1309369973304622
0
LINE
8
Polygon
10
0.4365232059643993
20
-1.130936997330462
11
0.43013384974552493
21
-1.149004186267184
0
LINE
8
Polygon
10
0.43013384974552493
20
-1.149004186267184
11
0.42204464190410057
21
-1.1663769208091357
0
LINE
8
Polygon
10
0.42204464190410057
20
-1.1663769208091357
11
0.4123298509111445
21
-1.182895698758187
0
LINE
8
Polygon
10
0.4123298509111445
20
-1.182895698758187
11
0.40107867000874575
21
-1.1984088582451637
0
LINE
8
Polygon
10
0.40107867000874575
20
-1.1984088582451637
11
0.3883943983108785
21
-1.2127739701647267
0
LINE
8
Polygon
10
0.3883943983108786
20
-1.2127739701647267
11
0.3743934923956712
21
-1.225859145842584
0
LINE
8
Polygon
10
0.37439349239567116
20
-1.225859145842584
11
0.3592044970966323
21
-1.2375442479291152
0
LINE
8
Polygon
10
0.3592044970966323
20
-1.2375442479291152
11
0.34296686530943216
21
-1.2477219934019685
0
LINE
8
Polygon
10
0.34296686530943216
20
-1.2477219934019685
11
0.32582967764980386
21
-1.256298938550771
0
LINE
8
Polygon
10
0.32582967764980386
20
-1.256298938550771
11
0.30795027371761724
21
-1.2631963369006267
0
LINE
8
Polygon
10
0.30795027371761724
20
-1.2631963369006267
11
0.2894928075337349
21
-1.2683508621976565
0
LINE
8
Polygon
10
0.2894928075337349
20
-1.2683508621976565
11
0.2706267404124439
21
-1.2717151898187158
0
LINE
8
Polygon
10
0.2706267404124439
20
-1.2717151898187158
11
0.251525285106673
21
-1.2732584312672646
0
LINE
8
Polygon
10
0.2515252851066731
20
-1.2732584312672646
11
0.2323638155105779
21
-1.272966417766206
0
LINE
8
Polygon
10
0.2323638155105779
20
-1.272966417766206
11
0.21331825652029937
21
-1.2708418303439748
0
LINE
8
Polygon
10
0.21331825652029937
20
-1.2708418303439748
11
0.1945634688358746
21
-1.2669041752195345
0
LINE
8
Polygon
10
0.1945634688358746
20
-1.2669041752195345
11
0.176271643533723
21
-1.2611896047122744
0
LINE
8
Polygon
10
0.1762716435337231
20
-1.2611896047122744
11
0.15861072114942687
21
-1.253750585321068
0
LINE
8
Polygon
10
0.1586107211494268
20
-1.253750585321068
11
0.1417428497854908
21
-1.2446554160199175
0
LINE
8
Polygon
10
0.14174284978549084
20
-1.2446554160199175
11
0.12582289640047156
21
-1.2339876011927988
0
LINE
8
Polygon
10
0.1258228964004715
20
-1.2339876011927988
11
0.11099702494759728
21
-1.2218450839649035
0
LINE
8
Polygon
10
0.11099702494759736
20
-1.2218450839649035
11
0.09740135441724448
21
-1.2083393469692052
0
LINE
8
Polygon
10
0.09740135441724454
20
-1.2083393469692054
11
0.08516070910402282
21
-1.1935943888043687
0
LINE
8
Polygon
10
0.08516070910402274
20
-1.1935943888043685
11
0.07438747257249273
21
-1.1777455855813304
0
LINE
8
Polygon
10
0.07438747257249279
20
-1.1777455855813304
11
0.06518055584346144
21
-1.1609384480108944
0
LINE
8
Polygon
10
0.06518055584346139
20
-1.1609384480108942
11
0.05762448927412345
21
-1.1433272854437433
0
LINE
8
Polygon
10
0.0576244892741235
20
-1.1433272854437435
11
0.05178864646965986
21
-1.1250737891285585
0
LINE
8
Polygon
10
0.05178864646965989
20
-1.1250737891285585
11
0.04772660735170034
21
-1.1063455476956037
0
LINE
8
Polygon
10
0.04772660735170031
20
-1.1063455476956037
11
0.04547566623143351
21
-1.0873145084953924
0
LINE
8
Polygon
10
0.04547566623143351
20
-1.0873145084953926
11
0.04505648940383308
21
-1.0681553989191601
0
LINE
8
Polygon
10
0.04505648940383308
20
-1.06815539891916
11
0.04647292540668946
21
-1.0490441221952806
0
LINE
8
Polygon
10
0.04647292540668946
20
-1.0490441221952806
11
0.049711969686492635
21
-1.0301561423901147
0
LINE
8
Polygon
10
0.04971196968649266
20
-1.0301561423901147
11
0.05474388399557523
21
-1.01166487344088
0
LINE
8
Polygon
10
0.0547438839955752
20
-1.01166487344088
11
0.061522469424308834
21
-0.9937400870111275
0
LINE
8
Polygon
10
0.06152246942430878
20
-0.9937400870111275
11
0.06998549056159659
21
-0.976546353786586
0
LINE
8
Polygon
10
0.06998549056159666
20
-0.9765463537865859
11
0.07087300326799692
21
-0.9748472649545507
0
LINE
8
Polygon
10
0.07087300326799692
20
-0.9748472649545507
11
0.07167809478905421
21
-0.9731076071416777
0
LINE
8
Polygon
10
0.07167809478905421
20
-0.9731076071416777
11
0.0723989161406808
21
-0.9713313756696538
0
LINE
8
Polygon
10
0.0723989161406808
20
-0.9713313756696538
11
0.07303381187480093
21
-0.9695226498557271
0
LINE
8
Polygon
10
0.07303381187480093
20
-0.9695226498557271
11
0.07358132388127553
21
-0.9676855836440911
0
LINE
8
Polygon
10
0.07358132388127553
20
-0.9676855836440911
11
0.07404019473661745
21
-0.9658243960658802
0
LINE
8
Polygon
10
0.07404019473661745
20
-0.9658243960658802
11
0.07440937059180747
21
-0.9639433615496861
0
LINE
8
Polygon
10
0.07440937059180747
20
-0.9639433615496861
11
0.0746880035925781
21
-0.962046800104847
0
LINE
8
Polygon
10
0.0746880035925781
20
-0.962046800104847
11
0.07487545382660721
21
-0.9601390674000555
0
LINE
8
Polygon
10
0.07487545382660721
20
-0.9601390674000555
11
0.07497129079314938
21
-0.9582245447600711
0
LINE
8
Polygon
10
0.07497129079314938
20
-0.9582245447600711
11
0.07497529439172963
21
-0.9563076291035105
0
LINE
8
Polygon
10
0.07497529439172963
20
-0.9563076291035105
11
0.07488745542762928
21
-0.9543927228448247
0
LINE
8
Polygon
10
0.07488745542762928
20
-0.9543927228448247
11
0.07470797563300258
21
-0.9524842237836539
0
LINE
8
Polygon
10
0.07470797563300258
20
-0.9524842237836539
11
0.07443726720357594
21
-0.9505865150047824
0
LINE
8
Polygon
10
0.07443726720357592
20
-0.9505865150047824
11
0.07407595185199359
21
-0.9487039548118856
0
LINE
8
Polygon
10
0.07407595185199359
20
-0.9487039548118856
11
0.07362485937998402
21
-0.9468408667181915
0
LINE
8
Polygon
10
0.07362485937998402
20
-0.9468408667181915
11
0.07308502577262602
21
-0.9450015295170411
0
LINE
8
Polygon
10
0.07308502577262602
20
-0.9450015295170411
11
0.07245769081909129
21
-0.9431901674551545
0
LINE
8
Polygon
10
0.0724576908190913
20
-0.9431901674551545
11
0.07174429526532794
21
-0.9414109405311677
0
LINE
8
Polygon
10
0.07174429526532794
20
-0.9414109405311677
11
0.0709464775052237
21
-0.9396679349417243
0
LINE
8
Polygon
10
0.07094647750522372
20
-0.9396679349417243
11
0.07006606981784852
21
-0.9379651536970603
0
LINE
8
Polygon
10
0.07006606981784852
20
-0.9379651536970603
11
0.06910509415941746
21
-0.9363065074276371
0
LINE
8
Polygon
10
0.06910509415941746
20
-0.9363065074276371
11
0.06806575751963875
21
-0.9346958054029341
0
LINE
8
Polygon
10
0.06806575751963875
20
-0.9346958054029341
11
0.06695044685311144
21
-0.9331367467830294
0
LINE
8
Polygon
10
0.06695044685311144
20
-0.9331367467830294
11
0.06576172359741299
21
-0.9316329121230583
0
LINE
8
Polygon
10
0.06576172359741299
20
-0.9316329121230583
11
0.06450231779046711
21
-0.930187755150062
0
LINE
8
Polygon
10
0.06450231779046711
20
-0.930187755150062
11
0.06317512180070176
21
-0.9288045948311116
0
LINE
8
Polygon
10
0.06317512180070176
20
-0.9288045948311116
11
0.06178318368439654
21
-0.9274866077509224
0
LINE
8
Polygon
10
0.06178318368439654
20
-0.9274866077509224
11
0.06032970018547551
21
-0.926236820816468
0
LINE
8
Polygon
10
0.06032970018547551
20
-0.926236820816468
11
0.058818009393821695
21
-0.9250581043053434
0
LINE
8
Polygon
10
0.0588180093938217
20
-0.9250581043053434
11
0.057251583078974724
21
-0.9239531652738472
0
LINE
8
Polygon
10
0.057251583078974724
20
-0.9239531652738472
11
0.05563401871681785
21
-0.9229245413399196
0
LINE
8
Polygon
10
0.05563401871681785
20
-0.9229245413399196
11
0.0539690312275662
21
-0.9219745948552142
0
LINE
8
Polygon
10
0.0539690312275662
20
-0.9219745948552142
11
0.05226044444403065
21
-0.9211055074796896
0
LINE
8
Polygon
10
0.05226044444403065
20
-0.9211055074796896
11
0.050512182329751645
21
-0.9203192751711793
0
LINE
8
Polygon
10
0.05051218232975165
20
-0.9203192751711793
11
0.04872825996717141
21
-0.9196177036014482
0
LINE
8
Polygon
10
0.04872825996717141
20
-0.9196177036014482
11
0.0469127743365412
21
-0.9190024040092625
0
LINE
8
Polygon
10
0.0469127743365412
20
-0.9190024040092625
11
0.045069894906741084
21
-0.9184747894999963
0
LINE
8
Polygon
10
0.045069894906741084
20
-0.9184747894999963
11
0.043203854059621155
21
-0.918036071800275
0
LINE
8
Polygon
10
0.04320385405962116
20
-0.918036071800275
11
0.041318937369856146
21
-0.9176872584751081
0
LINE
8
Polygon
10
0.041318937369856146
20
-0.9176872584751081
11
0.03941947376263654
21
-0.917429150613901
0
LINE
8
Polygon
10
0.03941947376263654
20
-0.917429150613901
11
0.03750982557180044
21
-0.917262340990662
0
LINE
8
Polygon
10
0.03750982557180045
20
-0.917262340990662
11
0.035594378521238576
21
-0.9171872127026306
0
LINE
8
Polygon
10
0.03559437852123857
20
-0.9171872127026306
11
0.0336775316525814
21
-0.9172039382904502
0
LINE
8
Polygon
10
0.03367753165258141
20
-0.9172039382904502
11
0.031763687222300614
21
-0.9173124793419094
0
LINE
8
Polygon
10
0.03176368722230061
20
-0.9173124793419094
11
0.029857240591427223
21
-0.9175125865801599
0
LINE
8
Polygon
10
0.029857240591427234
20
-0.9175125865801599
11
0.027962570131106028
21
-0.9178038004362089
0
LINE
8
Polygon
10
0.027962570131106035
20
-0.9178038004362089
11
0.02608402716716903
21
-0.9181854521043717
0
LINE
8
Polygon
10
0.6234898018587334
20
-0.7818314824680304
11
0.3748848407352496
21
-0.8385739425454823
0
LINE
8
Polygon
10
-0.22252093395631478
20
-0.9749279121818237
11
0.026084027167169024
21
-0.9181854521043717
0
LINE
8
Polygon
10
0.3606528352016638
20
-0.910203429154178
11
0.36065283520166375
21
-0.9102034291541781
0
LINE
8
Polygon
10
0.06998549056159664
20
-0.9765463537865859
11
0.06998549056159666
21
-0.9765463537865859
0
ENDSEC
0
EOF
