0
SECTION
2
ENTITIES
0
LINE
8
Polygon
10
-0.09995542012432237
20
0.7586862691031603
11
-0.10204600805570582
21
0.7595423548270104
0
LINE
8
Polygon
10
-0.10204600805570582
20
0.7595423548270104
11
-0.10414343490828742
21
0.7603815456655543
0
LINE
8
Polygon
10
-0.10414343490828737
20
0.7603815456655542
11
-0.10624756415026235
21
0.7612037869917423
0
LINE
8
Polygon
10
-0.10624756415026235
20
0.7612037869917423
11
-0.10835825881353467
21
0.7620090252818528
0
LINE
8
Polygon
10
-0.10835825881353467
20
0.7620090252818528
11
-0.1104753815026326
21
0.7627972081189742
0
LINE
8
Polygon
10
-0.1104753815026326
20
0.7627972081189742
11
-0.11259879440365278
21
0.7635682841964188
0
LINE
8
Polygon
10
-0.11259879440365271
20
0.7635682841964188
11
-0.11472835929323094
21
0.7643222033210612
0
LINE
8
Polygon
10
-0.11472835929323094
20
0.7643222033210612
11
-0.11686393754754007
21
0.7650589164166066
0
LINE
8
Polygon
10
-0.11686393754754007
20
0.7650589164166066
11
-0.11900539015131337
21
0.765778375526785
0
LINE
8
Polygon
10
-0.11900539015131337
20
0.765778375526785
11
-0.12115257770689393
21
0.7664805338184729
0
LINE
8
Polygon
10
-0.12115257770689387
20
0.7664805338184728
11
-0.1233053604433086
21
0.767165345584742
0
LINE
8
Polygon
10
-0.1233053604433086
20
0.767165345584742
11
-0.12546359822536676
21
0.7678327662478345
0
LINE
8
Polygon
10
-0.12546359822536676
20
0.7678327662478345
11
-0.1276271505627818
21
0.7684827523620648
0
LINE
8
Polygon
10
-0.1276271505627818
20
0.7684827523620648
11
-0.12979587661931674
21
0.7691152616166472
0
LINE
8
Polygon
10
-0.12979587661931669
20
0.7691152616166472
11
-0.13196963522195165
21
0.7697302528384515
0
LINE
8
Polygon
10
-0.13196963522195165
20
0.7697302528384515
11
-0.13414828487007394
21
0.7703276859946815
0
LINE
8
Polygon
10
-0.13414828487007394
20
0.7703276859946815
11
-0.13633168374468843
21
0.7709075221954815
0
LINE
8
Polygon
10
-0.13633168374468843
20
0.7709075221954815
11
-0.13851968971764966
21
0.7714697236964687
0
LINE
8
Polygon
10
-0.1385196897176496
20
0.7714697236964686
11
-0.14071216036091339
21
0.7720142539011885
0
LINE
8
Polygon
10
-0.14071216036091339
20
0.7720142539011885
11
-0.14290895295580847
21
0.7725410773634986
0
LINE
8
Polygon
10
-0.14290895295580847
20
0.7725410773634986
11
-0.14510992450232632
21
0.7730501597898747
0
LINE
8
Polygon
10
-0.14510992450232632
20
0.7730501597898747
11
-0.14731493172843
21
0.7735414680416441
0
LINE
8
Polygon
10
-0.14731493172842994
20
0.7735414680416441
11
-0.14952383109938033
21
0.7740149701371419
0
LINE
8
Polygon
10
-0.14952383109938033
20
0.7740149701371419
11
-0.15173647882707963
21
0.7744706352537938
0
LINE
8
Polygon
10
-0.15173647882707963
20
0.7744706352537938
11
-0.15395273087943095
21
0.7749084337301213
0
LINE
8
Polygon
10
-0.15395273087943095
20
0.7749084337301213
11
-0.15617244298971425
21
0.7753283370676738
0
LINE
8
Polygon
10
-0.1561724429897142
20
0.7753283370676738
11
-0.1583954706659773
21
0.7757303179328827
0
LINE
8
Polygon
10
-0.1583954706659773
20
0.7757303179328827
11
-0.1606216692004417
21
0.7761143501588412
0
LINE
8
Polygon
10
-0.1606216692004417
20
0.7761143501588412
11
-0.16285089367892203
21
0.7764804087470076
0
LINE
8
Polygon
10
-0.16285089367892203
20
0.7764804087470076
11
-0.16508299899025936
21
0.7768284698688321
0
LINE
8
Polygon
10
-0.1650829989902593
20
0.7768284698688321
11
-0.1673178398357672
21
0.7771585108673089
0
LINE
8
Polygon
10
-0.1673178398357672
20
0.7771585108673089
11
-0.16955527073868998
21
0.7774705102584496
0
LINE
8
Polygon
10
-0.16955527073868998
20
0.7774705102584496
11
-0.1717951460536723
21
0.7777644477326835
0
LINE
8
Polygon
10
-0.1717951460536723
20
0.7777644477326835
11
-0.1740373199762401
21
0.778040304156178
0
LINE
8
Polygon
10
-0.17403731997624006
20
0.778040304156178
11
-0.1762816465522915
21
0.7782980615720849
0
LINE
8
Polygon
10
-0.1762816465522915
20
0.7782980615720849
11
-0.17852797968759823
21
0.7785377032017096
0
LINE
8
Polygon
10
-0.17852797968759823
20
0.7785377032017096
11
-0.18077617315731492
21
0.7787592134456024
0
LINE
8
Polygon
10
-0.18077617315731492
20
0.7787592134456024
11
-0.18302608061549794
21
0.7789625778845748
0
LINE
8
Polygon
10
-0.18302608061549788
20
0.7789625778845748
11
-0.1852775556046317
21
0.7791477832806376
0
LINE
8
Polygon
10
-0.1852775556046317
20
0.7791477832806376
11
-0.18753045156516263
21
0.779314817577863
0
LINE
8
Polygon
10
-0.18753045156516263
20
0.779314817577863
11
-0.18978462184503883
21
0.779463669903169
0
LINE
8
Polygon
10
-0.18978462184503883
20
0.779463669903169
11
-0.19203991970925682
21
0.7795943305670272
0
LINE
8
Polygon
10
-0.19203991970925677
20
0.7795943305670272
11
-0.194296198349413
21
0.7797067910640942
0
LINE
8
Polygon
10
-0.194296198349413
20
0.7797067910640942
11
-0.1965533108932606
21
0.7798010440737645
0
LINE
8
Polygon
10
-0.1965533108932606
20
0.7798010440737645
11
-0.19881111041426966
21
0.779877083460647
0
LINE
8
Polygon
10
-0.19881111041426966
20
0.779877083460647
11
-0.20106944994119155
21
0.779934904274965
0
LINE
8
Polygon
10
-0.2010694499411915
20
0.779934904274965
11
-0.2033281824676259
21
0.7799745027528782
0
LINE
8
Polygon
10
-0.2033281824676259
20
0.7799745027528782
11
-0.20558716096159052
21
0.779995876316727
0
LINE
8
Polygon
10
-0.2055871609615905
20
0.779995876316727
11
-0.2060021463214045
21
0.7799878738369785
0
LINE
8
Polygon
10
-0.2060021463214045
20
0.7799878738369785
11
-0.2064162297747098
21
0.7799593820444611
0
LINE
8
Polygon
10
-0.2064162297747098
20
0.7799593820444611
11
-0.206828400309475
21
0.7799104705037632
0
LINE
8
Polygon
10
-0.206828400309475
20
0.7799104705037632
11
-0.20723765158418542
21
0.7798412586356336
0
LINE
8
Polygon
10
-0.20723765158418542
20
0.7798412586356336
11
-0.20764298438489207
21
0.7797519154254082
0
LINE
8
Polygon
10
-0.20764298438489207
20
0.7797519154254082
11
-0.20804340906485844
21
0.7796426590104207
0
LINE
8
Polygon
10
-0.20804340906485844
20
0.7796426590104207
11
-0.20843794796084814
21
0.7795137561474063
0
LINE
8
Polygon
10
-0.20843794796084814
20
0.7795137561474063
11
-0.2088256377801541
21
0.7793655215611971
0
LINE
8
Polygon
10
-0.2088256377801541
20
0.7793655215611971
11
-0.20920553195254118
21
0.7791983171763013
0
LINE
8
Polygon
10
-0.20920553195254118
20
0.7791983171763013
11
-0.20957670294135985
21
0.77901255123324
0
LINE
8
Polygon
10
-0.20957670294135985
20
0.77901255123324
11
-0.2099382445081879
21
0.7788086772918016
0
LINE
8
Polygon
10
-0.2099382445081879
20
0.7788086772918016
11
-0.21028927392547128
21
0.7785871931236455
0
LINE
8
Polygon
10
-0.21028927392547128
20
0.7785871931236455
11
-0.21062893413176165
21
0.7783486394969599
0
LINE
8
Polygon
10
-0.21062893413176165
20
0.7783486394969599
11
-0.2109563958242883
21
0.7780935988561403
0
LINE
8
Polygon
10
-0.2109563958242883
20
0.7780935988561403
11
-0.2112708594837555
21
0.7778226938997136
0
LINE
8
Polygon
10
-0.2112708594837555
20
0.7778226938997136
11
-0.2115715573264216
21
0.7775365860599782
0
LINE
8
Polygon
10
-0.2115715573264216
20
0.7775365860599782
11
-0.21185775517869354
21
0.7772359738880739
0
LINE
8
Polygon
10
-0.21185775517869354
20
0.7772359738880739
11
-0.2121287542696601
21
0.776921591348423
0
LINE
8
Polygon
10
-0.2121287542696601
20
0.776921591348423
11
-0.21238389293718704
21
0.7765942060267076
0
LINE
8
Polygon
10
-0.21238389293718704
20
0.7765942060267076
11
-0.2126225482434089
21
0.7762546172557592
0
LINE
8
Polygon
10
-0.2126225482434089
20
0.7762546172557592
11
-0.21284413749567274
21
0.7759036541639344
0
LINE
8
Polygon
10
-0.21284413749567274
20
0.7759036541639344
11
-0.21304811966922074
21
0.7755421736507435
0
LINE
8
Polygon
10
-0.21304811966922074
20
0.7755421736507435
11
-0.2132339967281377
21
0.7751710582946743
0
LINE
8
Polygon
10
-0.2132339967281377
20
0.7751710582946743
11
-0.2134013148413385
21
0.7747912141983175
0
LINE
8
Polygon
10
-0.2134013148413385
20
0.7747912141983175
11
-0.2135496654906268
21
0.7744035687760592
0
LINE
8
Polygon
10
-0.2135496654906268
20
0.7744035687760592
11
-0.21367868646811883
21
0.774009068489736
0
LINE
8
Polygon
10
-0.21367868646811886
20
0.774009068489736
11
-0.21378806276059814
21
0.773608676537787
0
LINE
8
Polygon
10
-0.21378806276059814
20
0.773608676537787
11
-0.21387752731864082
21
0.7732033705035409
0
LINE
8
Polygon
10
-0.21387752731864082
20
0.7732033705035409
11
-0.21394686170863444
21
0.7727941399683822
0
LINE
8
Polygon
10
-0.21394686170863444
20
0.7727941399683822
11
-0.213995896646098
21
0.7723819840956228
0
LINE
8
Polygon
10
-0.213995896646098
20
0.7723819840956228
11
-0.21402451240900122
21
0.7719679091909792
0
LINE
8
Polygon
10
-0.21402451240900122
20
0.7719679091909792
11
-0.21403263913007378
21
0.7715529262456108
0
LINE
8
Polygon
10
-0.21403263913007378
20
0.7715529262456108
11
-0.21402025696739077
21
0.7711380484677178
0
LINE
8
Polygon
10
-0.21402025696739077
20
0.7711380484677178
11
-0.21398739615281814
21
0.7707242888087277
0
LINE
8
Polygon
10
-0.21398739615281814
20
0.7707242888087277
11
-0.21393413691819957
21
0.7703126574901064
0
LINE
8
Polygon
10
-0.21393413691819957
20
0.7703126574901064
11
-0.21386060929946507
21
0.7699041595368369
0
LINE
8
Polygon
10
-0.21386060929946507
20
0.7699041595368369
11
-0.2137669928191399
21
0.7694997923235843
0
LINE
8
Polygon
10
-0.2137669928191399
20
0.7694997923235843
11
-0.2136535160480283
21
0.7691005431395399
0
LINE
8
Polygon
10
-0.2136535160480283
20
0.7691005431395399
11
-0.21352045604714281
21
0.7687073867778892
0
LINE
8
Polygon
10
-0.21352045604714281
20
0.7687073867778892
11
-0.21336813769124172
21
0.7683212831557905
0
LINE
8
Polygon
10
-0.21336813769124172
20
0.7683212831557905
11
-0.2131969328756258
21
0.7679431749706741
0
LINE
8
Polygon
10
-0.2131969328756258
20
0.7679431749706741
11
-0.21300725960813144
21
0.767573985398584
0
LINE
8
Polygon
10
-0.21300725960813144
20
0.767573985398584
11
-0.21279958098853707
21
0.7672146158401828
0
LINE
8
Polygon
10
-0.21279958098853707
20
0.7672146158401828
11
-0.21257440407787442
21
0.766865943719923
0
LINE
8
Polygon
10
-0.21257440407787442
20
0.766865943719923
11
-0.21233227866040572
21
0.7665288203437568
0
LINE
8
Polygon
10
-0.21233227866040572
20
0.7665288203437568
11
-0.21207379590128905
21
0.7662040688206171
0
LINE
8
Polygon
10
-0.21207379590128903
20
0.7662040688206171
11
-0.21179958690320985
21
0.7658924820527426
0
LINE
8
Polygon
10
-0.21179958690320985
20
0.7658924820527426
11
-0.21151032116550203
21
0.7655948207997545
0
LINE
8
Polygon
10
-0.27753540279047173
20
0.7561245971377433
11
-0.279278559305215
21
0.7526460762195114
0
LINE
8
Polygon
10
-0.279278559305215
20
0.7526460762195114
11
-0.2806923342135718
21
0.7490211703004608
0
LINE
8
Polygon
10
-0.2806923342135718
20
0.7490211703004608
11
-0.28176459445566854
21
0.7452809884350047
0
LINE
8
Polygon
10
-0.28176459445566854
20
0.7452809884350047
11
-0.28248613786103177
21
0.7414576289792846
0
LINE
8
Polygon
10
-0.28248613786103177
20
0.7414576289792845
11
-0.2828507721218996
21
0.7375839041220871
0
LINE
8
Polygon
10
-0.2828507721218996
20
0.7375839041220871
11
-0.28285536793579746
21
0.7336930582896282
0
LINE
8
Polygon
10
-0.28285536793579746
20
0.7336930582896282
11
-0.2824998858613087
21
0.7298184828408616
0
LINE
8
Polygon
10
-0.2824998858613087
20
0.7298184828408616
11
-0.28178737665656206
21
0.7259934295018061
0
LINE
8
Polygon
10
-0.28178737665656206
20
0.7259934295018061
11
-0.2807239550975312
21
0.7222507249982076
0
LINE
8
Polygon
10
-0.2807239550975312
20
0.7222507249982076
11
-0.2793187475008386
21
0.7186224893355659
0
LINE
8
Polygon
10
-0.2793187475008386
20
0.7186224893355659
11
-0.27758381340142513
21
0.7151398601442566
0
LINE
8
Polygon
10
-0.2775838134014251
20
0.7151398601442566
11
-0.2755340420572487
21
0.7118327254554268
0
LINE
8
Polygon
10
-0.2755340420572487
20
0.7118327254554268
11
-0.27318702466921374
21
0.7087294672009901
0
LINE
8
Polygon
10
-0.27318702466921374
20
0.7087294672009901
11
-0.2705629034129418
21
0.7058567176390113
0
LINE
8
Polygon
10
-0.2705629034129418
20
0.7058567176390113
11
-0.2676841985779997
21
0.7032391307948457
0
LINE
8
Polygon
10
-0.2676841985779997
20
0.7032391307948457
11
-0.2645756152980791
21
0.7008991708795338
0
LINE
8
Polygon
10
-0.2645756152980791
20
0.7008991708795338
11
-0.2612638315307777
21
0.6988569195012487
0
LINE
8
Polygon
10
-0.26126383153077776
20
0.6988569195012488
11
-0.25777726910654397
21
0.6971299033243156
0
LINE
8
Polygon
10
-0.25777726910654397
20
0.6971299033243156
11
-0.2541458498116512
21
0.6957329436548373
0
LINE
8
Polygon
10
-0.2541458498116512
20
0.6957329436548373
11
-0.2504007385985054
21
0.694678029243789
0
LINE
8
Polygon
10
-0.2504007385985054
20
0.694678029243789
11
-0.24657407612706184
21
0.6939742133991867
0
LINE
8
Polygon
10
-0.24657407612706184
20
0.6939742133991867
11
-0.24269870293269005
21
0.6936275362903193
0
LINE
8
Polygon
10
-0.2426987029326901
20
0.6936275362903193
11
-0.23880787758768646
21
0.6936409731108287
0
LINE
8
Polygon
10
-0.23880787758768646
20
0.6936409731108287
11
-0.23493499127518067
21
0.694014408545507
0
LINE
8
Polygon
10
-0.23493499127518067
20
0.694014408545507
11
-0.23111328122497218
21
0.6947446377599344
0
LINE
8
Polygon
10
-0.2311132812249722
20
0.6947446377599344
11
-0.2273755454705988
21
0.6958253939044678
0
LINE
8
Polygon
10
-0.22737554547059882
20
0.6958253939044678
11
-0.2237538613756011
21
0.697247401896537
0
LINE
8
Polygon
10
-0.2237538613756011
20
0.697247401896537
11
-0.22027931034459913
21
0.6989984580196899
0
LINE
8
Polygon
10
-0.22027931034459913
20
0.6989984580196899
11
-0.21698171108171915
21
0.7010635346562633
0
LINE
8
Polygon
10
-0.21698171108171915
20
0.7010635346562633
11
-0.21388936368555506
21
0.7034249092548616
0
LINE
8
Polygon
10
-0.2138893636855551
20
0.7034249092548616
11
-0.21102880677684932
21
0.706062316425839
0
LINE
8
Polygon
10
-0.21102880677684935
20
0.706062316425839
11
-0.20842458974323091
21
0.7089531218594993
0
LINE
8
Polygon
10
-0.20842458974323091
20
0.7089531218594993
11
-0.20609906205561374
21
0.712072516574439
0
LINE
8
Polygon
10
-0.20609906205561374
20
0.712072516574439
11
-0.20407218146434758
21
0.7153937298289917
0
LINE
8
Polygon
10
-0.2040721814643476
20
0.7153937298289917
11
-0.20236134272118922
21
0.7188882588685586
0
LINE
8
Polygon
10
-0.20236134272118925
20
0.7188882588685586
11
-0.20098122829700601
21
0.7225261135371276
0
LINE
8
Polygon
10
-0.20098122829700601
20
0.7225261135371276
11
-0.19994368237635818
21
0.7262760736537175
0
LINE
8
Polygon
10
-0.19994368237635818
20
0.7262760736537175
11
-0.19925760921034155
21
0.7301059569449341
0
LINE
8
Polygon
10
-0.19925760921034155
20
0.7301059569449341
11
-0.19892889670002992
21
0.7339828952342331
0
LINE
8
Polygon
10
-0.19892889670002992
20
0.7339828952342331
11
-0.19896036586632646
21
0.7378736165176252
0
LINE
8
Polygon
10
-0.19896036586632646
20
0.7378736165176252
11
-0.19935174663987526
21
0.7417447305050408
0
LINE
8
Polygon
10
-0.19935174663987526
20
0.7417447305050408
11
-0.20009968017880503
21
0.7455630151768289
0
LINE
8
Polygon
10
-0.20009968017880503
20
0.7455630151768289
11
-0.20119774769441334
21
0.749295701896155
0
LINE
8
Polygon
10
-0.20119774769441334
20
0.749295701896155
11
-0.20263652553740963
21
0.7529107566304531
0
LINE
8
Polygon
10
-0.2026365255374096
20
0.752910756630453
11
-0.20440366607196375
21
0.756377154868481
0
LINE
8
Polygon
10
-0.20440366607196375
20
0.756377154868481
11
-0.20648400364349795
21
0.7596651478736335
0
LINE
8
Polygon
10
-0.20648400364349795
20
0.7596651478736335
11
-0.2088596847308018
21
0.7627465179885166
0
LINE
8
Polygon
10
-0.2088596847308018
20
0.7627465179885166
11
-0.21151032116550234
21
0.7655948207997545
0
LINE
8
Polygon
10
-0.277535402790472
20
0.756124597137743
11
-0.2773414673901006
21
0.756491565731801
0
LINE
8
Polygon
10
-0.2773414673901006
20
0.756491565731801
11
-0.27716589593482605
21
0.756867666187311
0
LINE
8
Polygon
10
-0.27716589593482605
20
0.756867666187311
11
-0.277009117093923
21
0.7572519802302332
0
LINE
8
Polygon
10
-0.277009117093923
20
0.7572519802302332
11
-0.2768715136532604
21
0.7576435695325129
0
LINE
8
Polygon
10
-0.2768715136532604
20
0.7576435695325129
11
-0.27675342158070393
21
0.7580414780030704
0
LINE
8
Polygon
10
-0.27675342158070393
20
0.7580414780030704
11
-0.27665512920582874
21
0.7584447341221604
0
LINE
8
Polygon
10
-0.27665512920582874
20
0.7584447341221604
11
-0.2765768765159437
21
0.7588523533134012
0
LINE
8
Polygon
10
-0.2765768765159437
20
0.7588523533134012
11
-0.27651885457014647
21
0.7592633403476833
0
LINE
8
Polygon
10
-0.27651885457014647
20
0.7592633403476833
11
-0.27648120503284024
21
0.7596766917730863
0
LINE
8
Polygon
10
-0.27648120503284024
20
0.7596766917730863
11
-0.2764640198278507
21
0.7600913983648733
0
LINE
8
Polygon
10
-0.2764640198278507
20
0.7600913983648733
11
-0.27646734091398806
21
0.7605064475895792
0
LINE
8
Polygon
10
-0.27646734091398806
20
0.7605064475895792
11
-0.2764911601826017
21
0.7609208260771781
0
LINE
8
Polygon
10
-0.2764911601826017
20
0.7609208260771781
11
-0.2765354194773781
21
0.7613335220952931
0
LINE
8
Polygon
10
-0.2765354194773781
20
0.7613335220952931
11
-0.2766000107363331
21
0.7617435280194073
0
LINE
8
Polygon
10
-0.2766000107363331
20
0.7617435280194073
11
-0.2766847762556528
21
0.7621498427930453
0
LINE
8
Polygon
10
-0.2766847762556528
20
0.7621498427930453
11
-0.2767895090747373
21
0.7625514743719192
0
LINE
8
Polygon
10
-0.2767895090747373
20
0.7625514743719192
11
-0.276913953481509
21
0.7629474421460692
0
LINE
8
Polygon
10
-0.276913953481509
20
0.7629474421460692
11
-0.27705780563675014
21
0.7633367793340882
0
LINE
8
Polygon
10
-0.27705780563675014
20
0.7633367793340882
11
-0.27722071431594675
21
0.7637185353435818
0
LINE
8
Polygon
10
-0.27722071431594675
20
0.7637185353435818
11
-0.27740228176682596
21
0.7640917780921026
0
LINE
8
Polygon
10
-0.27740228176682596
20
0.7640917780921026
11
-0.2776020646804947
21
0.7644555962828904
0
LINE
8
Polygon
10
-0.2776020646804947
20
0.7644555962828904
11
-0.27781957527380735
21
0.7648091016298639
0
LINE
8
Polygon
10
-0.27781957527380735
20
0.7648091016298639
11
-0.27805428248032066
21
0.7651514310264292
0
LINE
8
Polygon
10
-0.27805428248032066
20
0.7651514310264292
11
-0.27830561324692726
21
0.7654817486528118
0
LINE
8
Polygon
10
-0.27830561324692726
20
0.7654817486528118
11
-0.2785729539330026
21
0.7657992480167654
0
LINE
8
Polygon
10
-0.2785729539330026
20
0.7657992480167654
11
-0.27885565180864896
21
0.7661031539226756
0
LINE
8
Polygon
10
-0.27885565180864896
20
0.7661031539226756
11
-0.2791530166483787
21
0.7663927243642517
0
LINE
8
Polygon
10
-0.2791530166483787
20
0.7663927243642517
11
-0.27946432241634506
21
0.7666672523361834
0
LINE
8
Polygon
10
-0.27946432241634506
20
0.7666672523361834
11
-0.27978880903900644
21
0.7669260675603413
0
LINE
8
Polygon
10
-0.27978880903900644
20
0.7669260675603413
11
-0.28012568426089623
21
0.7671685381223046
0
LINE
8
Polygon
10
-0.28012568426089623
20
0.7671685381223046
11
-0.28047412557896656
21
0.7673940720142222
0
LINE
8
Polygon
10
-0.28047412557896656
20
0.7673940720142222
11
-0.2808332822507839
21
0.7676021185802385
0
LINE
8
Polygon
10
-0.2808332822507839
20
0.7676021185802385
11
-0.2812022773716724
21
0.7677921698609564
0
LINE
8
Polygon
10
-0.2812022773716724
20
0.7677921698609564
11
-0.2815802100157349
21
0.7679637618336534
0
LINE
8
Polygon
10
-0.2815802100157349
20
0.7679637618336534
11
-0.28196615743552234
21
0.7681164755452236
0
LINE
8
Polygon
10
-0.28196615743552234
20
0.7681164755452236
11
-0.28235917731498283
21
0.768249938135079
0
LINE
8
Polygon
10
-0.28235917731498283
20
0.768249938135079
11
-0.28275831007018826
21
0.7683638237455142
0
LINE
8
Polygon
10
-0.28275831007018826
20
0.7683638237455142
11
-0.2831625811922217
21
0.7684578543173083
0
LINE
8
Polygon
10
-0.2831625811922217
20
0.7684578543173083
11
-0.28357100362650495
21
0.7685318002686254
0
LINE
8
Polygon
10
-0.283571003626505
20
0.7685318002686254
11
-0.2839825801827577
21
0.768585481055554
0
LINE
8
Polygon
10
-0.2839825801827577
20
0.768585481055554
11
-0.2843963059697027
21
0.7686187656129161
0
LINE
8
Polygon
10
-0.2843963059697027
20
0.7686187656129161
11
-0.28481117084857477
21
0.7686315726742721
0
LINE
8
Polygon
10
-0.2848111708485747
20
0.7686315726742721
11
-0.2852261618994404
21
0.7686238709703379
0
LINE
8
Polygon
10
-0.2852261618994404
20
0.7686238709703379
11
-0.28564026589430913
21
0.7685956793053311
0
LINE
8
Polygon
10
-0.28564026589430913
20
0.7685956793053311
11
-0.28605247177099596
21
0.7685470665110593
0
LINE
8
Polygon
10
-0.28605247177099596
20
0.7685470665110593
11
-0.28646177310169657
21
0.7684781512788621
0
LINE
8
Polygon
10
-0.28646177310169657
20
0.7684781512788621
11
-0.286867170550247
21
0.7683891018698191
0
LINE
8
Polygon
10
-0.286867170550247
20
0.7683891018698191
11
-0.28726767431206873
21
0.7682801357039293
0
LINE
8
Polygon
10
-0.28726767431206873
20
0.7682801357039293
11
-0.28942956974956824
21
0.7676246597068517
0
LINE
8
Polygon
10
-0.28942956974956824
20
0.7676246597068517
11
-0.2915861063928478
21
0.7669517627075876
0
LINE
8
Polygon
10
-0.29158610639284777
20
0.7669517627075876
11
-0.2937371438623563
21
0.7662614885083042
0
LINE
8
Polygon
10
-0.2937371438623563
20
0.7662614885083042
11
-0.295882542136511
21
0.765553882042336
0
LINE
8
Polygon
10
-0.295882542136511
20
0.765553882042336
11
-0.29802216156081196
21
0.7648289893712598
0
LINE
8
Polygon
10
-0.29802216156081196
20
0.7648289893712598
11
-0.3001558628569329
21
0.7640868576818959
0
LINE
8
Polygon
10
-0.30015586285693285
20
0.7640868576818959
11
-0.3022835071317874
21
0.7633275352832375
0
LINE
8
Polygon
10
-0.3022835071317874
20
0.7633275352832375
11
-0.3044049558865708
21
0.7625510716033049
0
LINE
8
Polygon
10
-0.3044049558865708
20
0.7625510716033049
11
-0.30652007102577455
21
0.7617575171859288
0
LINE
8
Polygon
10
-0.30652007102577455
20
0.7617575171859288
11
-0.3086287148661767
21
0.7609469236874598
0
LINE
8
Polygon
10
-0.3086287148661766
20
0.7609469236874598
11
-0.31073075014580354
21
0.7601193438734057
0
LINE
8
Polygon
10
-0.31073075014580354
20
0.7601193438734057
11
-0.3128260400328655
21
0.7592748316149973
0
LINE
8
Polygon
10
-0.3128260400328655
20
0.7592748316149973
11
-0.3149144481346632
21
0.7584134418856809
0
LINE
8
Polygon
10
-0.3149144481346632
20
0.7584134418856809
11
-0.3169958385064666
21
0.7575352307575403
0
LINE
8
Polygon
10
-0.3169958385064666
20
0.7575352307575403
11
-0.31907007566036427
21
0.7566402553976468
0
LINE
8
Polygon
10
-0.31907007566036427
20
0.7566402553976468
11
-0.3211370245740827
21
0.7557285740643378
0
LINE
8
Polygon
10
-0.3211370245740827
20
0.7557285740643378
11
-0.32319655069977576
21
0.7548002461034242
0
LINE
8
Polygon
10
-0.32319655069977576
20
0.7548002461034242
11
-0.3252485199727829
21
0.753855331944328
0
LINE
8
Polygon
10
-0.3252485199727828
20
0.753855331944328
11
-0.3272927988203562
21
0.7528938930961477
0
LINE
8
Polygon
10
-0.3272927988203562
20
0.7528938930961477
11
-0.3293292541703555
21
0.7519159921436556
0
LINE
8
Polygon
10
-0.3293292541703555
20
0.7519159921436556
11
-0.3313577534599103
21
0.7509216927432223
0
LINE
8
Polygon
10
-0.3313577534599103
20
0.7509216927432223
11
-0.333378164644049
21
0.7499110596186743
0
LINE
8
Polygon
10
-0.333378164644049
20
0.7499110596186743
11
-0.33539035620429464
21
0.7488841585570806
0
LINE
8
Polygon
10
-0.3353903562042946
20
0.7488841585570807
11
-0.33739419715722574
21
0.7478410564044695
0
LINE
8
Polygon
10
-0.33739419715722574
20
0.7478410564044695
11
-0.3393895570630031
21
0.7467818210614781
0
LINE
8
Polygon
10
-0.3393895570630031
20
0.7467818210614781
11
-0.3413763060338604
21
0.7457065214789319
0
LINE
8
Polygon
10
-0.34137630603386027
20
0.745706521478932
11
-0.34335431474255884
21
0.7446152276533567
0
LINE
8
Polygon
10
-0.34335431474255884
20
0.7446152276533567
11
-0.34532345443080703
21
0.743508010622422
0
LINE
8
Polygon
10
-0.34532345443080703
20
0.743508010622422
11
-0.347283596917641
21
0.7423849424603167
0
LINE
8
Polygon
10
-0.347283596917641
20
0.7423849424603167
11
-0.34923461460776895
21
0.7412460962730579
0
LINE
8
Polygon
10
-0.34923461460776895
20
0.7412460962730579
11
-0.3511763804998769
21
0.7400915461937315
0
LINE
8
Polygon
10
-0.35117638049987676
20
0.7400915461937316
11
-0.35310876819489556
21
0.7389213673776671
0
LINE
8
Polygon
10
-0.35310876819489556
20
0.7389213673776671
11
-0.35503165190422903
21
0.737735635997545
0
LINE
8
Polygon
10
-0.35503165190422903
20
0.737735635997545
11
-0.3569449064579419
21
0.7365344292384386
0
LINE
8
Polygon
10
-0.35694490645794186
20
0.7365344292384386
11
-0.358848407312908
21
0.7353178252927896
0
LINE
8
Polygon
10
-0.358848407312908
20
0.7353178252927896
11
-0.36074203056091747
21
0.7340859033553178
0
LINE
8
Polygon
10
-0.36074203056091747
20
0.7340859033553178
11
-0.362625652936742
21
0.7328387436178665
0
LINE
8
Polygon
10
-0.362625652936742
20
0.7328387436178665
11
-0.3644991518261592
21
0.7315764272641823
0
LINE
8
Polygon
10
-0.3644991518261592
20
0.7315764272641823
11
-0.36636240527393416
21
0.73029903646463
0
LINE
8
Polygon
10
-0.3663624052739341
20
0.7302990364646301
11
-0.36821529199175795
21
0.7290066543708444
0
LINE
8
Polygon
10
-0.36821529199175795
20
0.7290066543708444
11
-0.37005769136614325
21
0.7276993651103167
0
LINE
8
Polygon
10
-0.37005769136614325
20
0.7276993651103167
11
-0.37188948346627493
21
0.7263772537809192
0
LINE
8
Polygon
10
-0.3718894834662749
20
0.7263772537809192
11
-0.37371054905181766
21
0.7250404064453653
0
LINE
8
Polygon
10
-0.37371054905181766
20
0.7250404064453653
11
-0.37552076958067754
21
0.7236889101256069
0
LINE
8
Polygon
10
-0.37552076958067754
20
0.7236889101256069
11
-0.3773200272167186
21
0.7223228527971708
0
LINE
8
Polygon
10
-0.3773200272167186
20
0.7223228527971708
11
-0.37910820483743335
21
0.7209423233834308
0
LINE
8
Polygon
10
-0.37910820483743335
20
0.7209423233834308
11
-0.38088518604156674
21
0.7195474117498201
0
LINE
8
Polygon
10
-0.3808851860415666
20
0.7195474117498202
11
-0.3826508551566936
21
0.7181382086979808
0
LINE
8
Polygon
10
-0.44842051208338735
20
1.0141689824974176
11
-0.4475644263595372
21
1.016259570428801
0
LINE
8
Polygon
10
-0.4475644263595372
20
1.016259570428801
11
-0.44672523552099347
21
1.0183569972813826
0
LINE
8
Polygon
10
-0.44672523552099347
20
1.0183569972813826
11
-0.4459029941948053
21
1.0204611265233576
0
LINE
8
Polygon
10
-0.4459029941948053
20
1.0204611265233576
11
-0.44509775590469486
21
1.02257182118663
0
LINE
8
Polygon
10
-0.44509775590469486
20
1.02257182118663
11
-0.4443095730675734
21
1.0246889438757278
0
LINE
8
Polygon
10
-0.4443095730675734
20
1.0246889438757278
11
-0.44353849699012887
21
1.026812356776748
0
LINE
8
Polygon
10
-0.44353849699012887
20
1.026812356776748
11
-0.4427845778654865
21
1.0289419216663263
0
LINE
8
Polygon
10
-0.4427845778654865
20
1.0289419216663263
11
-0.44204786476994107
21
1.0310774999206354
0
LINE
8
Polygon
10
-0.44204786476994107
20
1.0310774999206354
11
-0.44132840565976267
21
1.0332189525244087
0
LINE
8
Polygon
10
-0.44132840565976267
20
1.0332189525244087
11
-0.44062624736807476
21
1.0353661400799892
0
LINE
8
Polygon
10
-0.44062624736807476
20
1.0353661400799892
11
-0.4399414356018056
21
1.037518922816404
0
LINE
8
Polygon
10
-0.4399414356018056
20
1.037518922816404
11
-0.43927401493871315
21
1.039677160598462
0
LINE
8
Polygon
10
-0.43927401493871315
20
1.039677160598462
11
-0.4386240288244829
21
1.041840712935877
0
LINE
8
Polygon
10
-0.4386240288244829
20
1.041840712935877
11
-0.43799151956990034
21
1.044009438992412
0
LINE
8
Polygon
10
-0.43799151956990034
20
1.044009438992412
11
-0.4373765283480961
21
1.0461831975950469
0
LINE
8
Polygon
10
-0.4373765283480961
20
1.0461831975950469
11
-0.4367790951918662
21
1.0483618472431693
0
LINE
8
Polygon
10
-0.4367790951918662
20
1.0483618472431693
11
-0.4361992589910661
21
1.0505452461177835
0
LINE
8
Polygon
10
-0.4361992589910661
20
1.0505452461177835
11
-0.435637057490079
21
1.0527332520907449
0
LINE
8
Polygon
10
-0.435637057490079
20
1.0527332520907449
11
-0.43509252728535913
21
1.0549257227340088
0
LINE
8
Polygon
10
-0.43509252728535913
20
1.0549257227340088
11
-0.43456570382304904
21
1.0571225153289037
0
LINE
8
Polygon
10
-0.43456570382304904
20
1.0571225153289037
11
-0.4340566213966729
21
1.0593234868754215
0
LINE
8
Polygon
10
-0.4340566213966729
20
1.0593234868754215
11
-0.4335653131449036
21
1.0615284941015253
0
LINE
8
Polygon
10
-0.4335653131449036
20
1.0615284941015253
11
-0.4330918110494057
21
1.0637373934724756
0
LINE
8
Polygon
10
-0.4330918110494057
20
1.0637373934724756
11
-0.4326361459327539
21
1.0659500412001748
0
LINE
8
Polygon
10
-0.4326361459327539
20
1.0659500412001748
11
-0.4321983474564263
21
1.0681662932525262
0
LINE
8
Polygon
10
-0.4321983474564263
20
1.0681662932525262
11
-0.43177844411887384
21
1.0703860053628094
0
LINE
8
Polygon
10
-0.43177844411887384
20
1.0703860053628094
11
-0.4313764632536649
21
1.0726090330390725
0
LINE
8
Polygon
10
-0.4313764632536649
20
1.0726090330390725
11
-0.4309924310277064
21
1.074835231573537
0
LINE
8
Polygon
10
-0.4309924310277064
20
1.074835231573537
11
-0.43062637243954005
21
1.0770644560520173
0
LINE
8
Polygon
10
-0.43062637243954005
20
1.0770644560520173
11
-0.4302783113177155
21
1.0792965613633545
0
LINE
8
Polygon
10
-0.4302783113177155
20
1.0792965613633545
11
-0.42994827031923877
21
1.0815314022088625
0
LINE
8
Polygon
10
-0.42994827031923877
20
1.0815314022088625
11
-0.429636270928098
21
1.0837688331117852
0
LINE
8
Polygon
10
-0.429636270928098
20
1.0837688331117852
11
-0.4293423334538641
21
1.0860087084267676
0
LINE
8
Polygon
10
-0.4293423334538641
20
1.0860087084267676
11
-0.4290664770303697
21
1.0882508823493353
0
LINE
8
Polygon
10
-0.4290664770303697
20
1.0882508823493353
11
-0.4288087196144627
21
1.0904952089253868
0
LINE
8
Polygon
10
-0.4288087196144627
20
1.0904952089253868
11
-0.42856907798483806
21
1.0927415420606934
0
LINE
8
Polygon
10
-0.42856907798483806
20
1.0927415420606934
11
-0.4283475677409453
21
1.0949897355304101
0
LINE
8
Polygon
10
-0.4283475677409453
20
1.0949897355304101
11
-0.4281442033019729
21
1.0972396429885931
0
LINE
8
Polygon
10
-0.4281442033019729
20
1.0972396429885931
11
-0.42795899790591
21
1.099491117977727
0
LINE
8
Polygon
10
-0.42795899790591
20
1.099491117977727
11
-0.42779196360868466
21
1.101744013938258
0
LINE
8
Polygon
10
-0.42779196360868466
20
1.101744013938258
11
-0.42764311128337873
21
1.1039981842181341
0
LINE
8
Polygon
10
-0.42764311128337873
20
1.1039981842181341
11
-0.42751245061952037
21
1.106253482082352
0
LINE
8
Polygon
10
-0.42751245061952037
20
1.106253482082352
11
-0.42739999012245333
21
1.1085097607225083
0
LINE
8
Polygon
10
-0.42739999012245333
20
1.1085097607225083
11
-0.42730573711278313
21
1.1107668732663558
0
LINE
8
Polygon
10
-0.42730573711278313
20
1.1107668732663558
11
-0.42722969772590064
21
1.113024672787365
0
LINE
8
Polygon
10
-0.42722969772590064
20
1.113024672787365
11
-0.4271718769115826
21
1.1152830123142867
0
LINE
8
Polygon
10
-0.4271718769115826
20
1.1152830123142867
11
-0.4271322784336695
21
1.1175417448407212
0
LINE
8
Polygon
10
-0.4271322784336695
20
1.1175417448407212
11
-0.4271109048698206
21
1.1198007233346858
0
LINE
8
Polygon
10
-0.4271109048698206
20
1.1198007233346858
11
-0.4271189073495691
21
1.1202157086945
0
LINE
8
Polygon
10
-0.4271189073495691
20
1.1202157086945
11
-0.4271473991420865
21
1.1206297921478052
0
LINE
8
Polygon
10
-0.4271473991420865
20
1.1206297921478052
11
-0.4271963106827845
21
1.1210419626825703
0
LINE
8
Polygon
10
-0.4271963106827845
20
1.1210419626825703
11
-0.42726552255091405
21
1.1214512139572808
0
LINE
8
Polygon
10
-0.42726552255091405
20
1.1214512139572808
11
-0.42735486576113946
21
1.1218565467579875
0
LINE
8
Polygon
10
-0.42735486576113946
20
1.1218565467579875
11
-0.4274641221761269
21
1.1222569714379538
0
LINE
8
Polygon
10
-0.4274641221761269
20
1.1222569714379538
11
-0.4275930250391414
21
1.1226515103339436
0
LINE
8
Polygon
10
-0.4275930250391414
20
1.1226515103339436
11
-0.42774125962535053
21
1.1230392001532494
0
LINE
8
Polygon
10
-0.42774125962535053
20
1.1230392001532494
11
-0.4279084640102464
21
1.1234190943256366
0
LINE
8
Polygon
10
-0.4279084640102464
20
1.1234190943256366
11
-0.4280942299533077
21
1.1237902653144551
0
LINE
8
Polygon
10
-0.4280942299533077
20
1.1237902653144551
11
-0.42829810389474604
21
1.1241518068812832
0
LINE
8
Polygon
10
-0.42829810389474604
20
1.1241518068812832
11
-0.4285195880629021
21
1.1245028362985667
0
LINE
8
Polygon
10
-0.4285195880629021
20
1.1245028362985667
11
-0.4287581416895877
21
1.1248424965048571
0
LINE
8
Polygon
10
-0.4287581416895877
20
1.1248424965048571
11
-0.4290131823304073
21
1.1251699581973837
0
LINE
8
Polygon
10
-0.4290131823304073
20
1.1251699581973837
11
-0.4292840872868341
21
1.125484421856851
0
LINE
8
Polygon
10
-0.4292840872868341
20
1.125484421856851
11
-0.4295701951265694
21
1.125785119699517
0
LINE
8
Polygon
10
-0.4295701951265694
20
1.125785119699517
11
-0.4298708072984737
21
1.126071317551789
0
LINE
8
Polygon
10
-0.4298708072984737
20
1.126071317551789
11
-0.4301851898381247
21
1.1263423166427555
0
LINE
8
Polygon
10
-0.4301851898381247
20
1.1263423166427555
11
-0.43051257515984004
21
1.1265974553102824
0
LINE
8
Polygon
10
-0.43051257515984004
20
1.1265974553102824
11
-0.4308521639307884
21
1.1268361106165043
0
LINE
8
Polygon
10
-0.4308521639307884
20
1.1268361106165043
11
-0.4312031270226132
21
1.127057699868768
0
LINE
8
Polygon
10
-0.4312031270226132
20
1.127057699868768
11
-0.43156460753580406
21
1.127261682042316
0
LINE
8
Polygon
10
-0.43156460753580406
20
1.127261682042316
11
-0.43193572289187343
21
1.127447559101233
0
LINE
8
Polygon
10
-0.43193572289187343
20
1.127447559101233
11
-0.4323155669882301
21
1.1276148772144339
0
LINE
8
Polygon
10
-0.4323155669882301
20
1.1276148772144339
11
-0.4327032124104884
21
1.1277632278637222
0
LINE
8
Polygon
10
-0.4327032124104884
20
1.1277632278637222
11
-0.4330977126968116
21
1.1278922488412142
0
LINE
8
Polygon
10
-0.4330977126968116
20
1.1278922488412142
11
-0.43349810464876065
21
1.1280016251336935
0
LINE
8
Polygon
10
-0.43349810464876065
20
1.1280016251336935
11
-0.43390341068300675
21
1.1280910896917362
0
LINE
8
Polygon
10
-0.43390341068300675
20
1.1280910896917362
11
-0.4343126412181655
21
1.1281604240817298
0
LINE
8
Polygon
10
-0.4343126412181655
20
1.1281604240817298
11
-0.4347247970909248
21
1.1282094590191933
0
LINE
8
Polygon
10
-0.4347247970909248
20
1.1282094590191933
11
-0.4351388719955684
21
1.1282380747820966
0
LINE
8
Polygon
10
-0.4351388719955684
20
1.1282380747820966
11
-0.43555385494093685
21
1.1282462015031691
0
LINE
8
Polygon
10
-0.43555385494093685
20
1.1282462015031691
11
-0.4359687327188298
21
1.1282338193404862
0
LINE
8
Polygon
10
-0.4359687327188298
20
1.1282338193404862
11
-0.43638249237782
21
1.1282009585259136
0
LINE
8
Polygon
10
-0.43638249237782
20
1.1282009585259136
11
-0.4367941236964413
21
1.1281476992912949
0
LINE
8
Polygon
10
-0.4367941236964413
20
1.1281476992912949
11
-0.43720262164971074
21
1.1280741716725604
0
LINE
8
Polygon
10
-0.43720262164971074
20
1.1280741716725604
11
-0.4376069888629633
21
1.1279805551922353
0
LINE
8
Polygon
10
-0.4376069888629633
20
1.1279805551922353
11
-0.4380062380470078
21
1.1278670784211238
0
LINE
8
Polygon
10
-0.4380062380470078
20
1.1278670784211238
11
-0.4383993944086585
21
1.1277340184202382
0
LINE
8
Polygon
10
-0.4383993944086585
20
1.1277340184202382
11
-0.4387854980307571
21
1.1275817000643371
0
LINE
8
Polygon
10
-0.4387854980307571
20
1.1275817000643371
11
-0.43916360621587347
21
1.1274104952487212
0
LINE
8
Polygon
10
-0.43916360621587347
20
1.1274104952487212
11
-0.4395327957879636
21
1.1272208219812268
0
LINE
8
Polygon
10
-0.4395327957879636
20
1.1272208219812268
11
-0.4398921653463648
21
1.1270131433616324
0
LINE
8
Polygon
10
-0.4398921653463648
20
1.1270131433616324
11
-0.4402408374666247
21
1.12678796645097
0
LINE
8
Polygon
10
-0.4402408374666247
20
1.12678796645097
11
-0.44057796084279083
21
1.126545841033501
0
LINE
8
Polygon
10
-0.44057796084279083
20
1.126545841033501
11
-0.4409027123659305
21
1.1262873582743844
0
LINE
8
Polygon
10
-0.4409027123659305
20
1.1262873582743844
11
-0.441214299133805
21
1.1260131492763052
0
LINE
8
Polygon
10
-0.441214299133805
20
1.1260131492763052
11
-0.4415119603867931
21
1.1257238835385974
0
LINE
8
Polygon
10
-0.4509821840488044
20
1.191748965163567
11
-0.45446070496703617
21
1.1934921216783103
0
LINE
8
Polygon
10
-0.45446070496703617
20
1.1934921216783103
11
-0.45808561088608685
21
1.194905896586667
0
LINE
8
Polygon
10
-0.45808561088608685
20
1.194905896586667
11
-0.46182579275154295
21
1.1959781568287637
0
LINE
8
Polygon
10
-0.46182579275154295
20
1.1959781568287637
11
-0.4656491522072631
21
1.196699700234127
0
LINE
8
Polygon
10
-0.4656491522072631
20
1.196699700234127
11
-0.46952287706446055
21
1.197064334494995
0
LINE
8
Polygon
10
-0.46952287706446055
20
1.197064334494995
11
-0.4734137228969194
21
1.1970689303088928
0
LINE
8
Polygon
10
-0.4734137228969194
20
1.1970689303088928
11
-0.47728829834568604
21
1.196713448234404
0
LINE
8
Polygon
10
-0.47728829834568604
20
1.196713448234404
11
-0.48111335168474145
21
1.1960009390296573
0
LINE
8
Polygon
10
-0.48111335168474145
20
1.1960009390296573
11
-0.48485605618833993
21
1.1949375174706265
0
LINE
8
Polygon
10
-0.48485605618833993
20
1.1949375174706265
11
-0.4884842918509817
21
1.1935323098739339
0
LINE
8
Polygon
10
-0.4884842918509817
20
1.1935323098739339
11
-0.49196692104229106
21
1.1917973757745204
0
LINE
8
Polygon
10
-0.49196692104229106
20
1.1917973757745204
11
-0.4952740557311208
21
1.189747604430344
0
LINE
8
Polygon
10
-0.4952740557311208
20
1.189747604430344
11
-0.4983773139855575
21
1.187400587042309
0
LINE
8
Polygon
10
-0.4983773139855575
20
1.187400587042309
11
-0.5012500635475364
21
1.1847764657860371
0
LINE
8
Polygon
10
-0.5012500635475364
20
1.1847764657860371
11
-0.503867650391702
21
1.181897760951095
0
LINE
8
Polygon
10
-0.503867650391702
20
1.181897760951095
11
-0.5062076103070138
21
1.1787891776711745
0
LINE
8
Polygon
10
-0.5062076103070138
20
1.1787891776711743
11
-0.5082498616852988
21
1.175477393903873
0
LINE
8
Polygon
10
-0.5082498616852988
20
1.175477393903873
11
-0.509976877862232
21
1.1719908314796392
0
LINE
8
Polygon
10
-0.509976877862232
20
1.1719908314796392
11
-0.5113738375317103
21
1.1683594121847465
0
LINE
8
Polygon
10
-0.5113738375317103
20
1.1683594121847465
11
-0.5124287519427586
21
1.1646143009716008
0
LINE
8
Polygon
10
-0.5124287519427586
20
1.1646143009716008
11
-0.5131325677873609
21
1.1607876385001572
0
LINE
8
Polygon
10
-0.5131325677873609
20
1.1607876385001572
11
-0.5134792448962284
21
1.1569122653057853
0
LINE
8
Polygon
10
-0.5134792448962284
20
1.1569122653057855
11
-0.513465808075719
21
1.1530214399607819
0
LINE
8
Polygon
10
-0.513465808075719
20
1.1530214399607819
11
-0.5130923726410407
21
1.149148553648276
0
LINE
8
Polygon
10
-0.5130923726410407
20
1.149148553648276
11
-0.5123621434266131
21
1.1453268435980675
0
LINE
8
Polygon
10
-0.5123621434266131
20
1.1453268435980675
11
-0.5112813872820798
21
1.1415891078436942
0
LINE
8
Polygon
10
-0.5112813872820798
20
1.1415891078436942
11
-0.5098593792900107
21
1.1379674237486963
0
LINE
8
Polygon
10
-0.5098593792900107
20
1.1379674237486963
11
-0.5081083231668578
21
1.1344928727176944
0
LINE
8
Polygon
10
-0.5081083231668578
20
1.1344928727176944
11
-0.5060432465302844
21
1.1311952734548145
0
LINE
8
Polygon
10
-0.5060432465302844
20
1.1311952734548145
11
-0.5036818719316861
21
1.1281029260586504
0
LINE
8
Polygon
10
-0.5036818719316861
20
1.1281029260586504
11
-0.5010444647607085
21
1.1252423691499447
0
LINE
8
Polygon
10
-0.5010444647607085
20
1.1252423691499447
11
-0.4981536593270483
21
1.1226381521163262
0
LINE
8
Polygon
10
-0.4981536593270483
20
1.1226381521163262
11
-0.4950342646121086
21
1.120312624428709
0
LINE
8
Polygon
10
-0.4950342646121086
20
1.120312624428709
11
-0.4917130513575559
21
1.118285743837443
0
LINE
8
Polygon
10
-0.4917130513575559
20
1.118285743837443
11
-0.488218522317989
21
1.1165749050942846
0
LINE
8
Polygon
10
-0.48821852231798907
20
1.1165749050942846
11
-0.48458066764942004
21
1.1151947906701014
0
LINE
8
Polygon
10
-0.48458066764942004
20
1.1151947906701014
11
-0.4808307075328301
21
1.1141572447494534
0
LINE
8
Polygon
10
-0.4808307075328301
20
1.1141572447494534
11
-0.4770008242416135
21
1.113471171583437
0
LINE
8
Polygon
10
-0.4770008242416135
20
1.113471171583437
11
-0.4731238859523145
21
1.1131424590731251
0
LINE
8
Polygon
10
-0.4731238859523145
20
1.1131424590731251
11
-0.4692331646689224
21
1.1131739282394217
0
LINE
8
Polygon
10
-0.46923316466892245
20
1.1131739282394217
11
-0.4653620506815069
21
1.1135653090129707
0
LINE
8
Polygon
10
-0.4653620506815069
20
1.1135653090129707
11
-0.46154376600971875
21
1.1143132425519002
0
LINE
8
Polygon
10
-0.46154376600971875
20
1.1143132425519002
11
-0.4578110792903926
21
1.1154113100675087
0
LINE
8
Polygon
10
-0.4578110792903926
20
1.1154113100675087
11
-0.45419602455609454
21
1.116850087910505
0
LINE
8
Polygon
10
-0.4541960245560946
20
1.116850087910505
11
-0.45072962631806657
21
1.118617228445059
0
LINE
8
Polygon
10
-0.45072962631806657
20
1.118617228445059
11
-0.44744163331291414
21
1.1206975660165932
0
LINE
8
Polygon
10
-0.44744163331291414
20
1.1206975660165932
11
-0.44436026319803107
21
1.123073247103897
0
LINE
8
Polygon
10
-0.44436026319803107
20
1.123073247103897
11
-0.4415119603867931
21
1.1257238835385976
0
LINE
8
Polygon
10
-0.4509821840488046
20
1.1917489651635673
11
-0.4506152154547466
21
1.191555029763196
0
LINE
8
Polygon
10
-0.4506152154547466
20
1.191555029763196
11
-0.4502391149992366
21
1.1913794583079214
0
LINE
8
Polygon
10
-0.4502391149992366
20
1.1913794583079214
11
-0.4498548009563144
21
1.1912226794670184
0
LINE
8
Polygon
10
-0.4498548009563144
20
1.1912226794670184
11
-0.4494632116540347
21
1.1910850760263556
0
LINE
8
Polygon
10
-0.4494632116540347
20
1.1910850760263556
11
-0.4490653031834772
21
1.1909669839537993
0
LINE
8
Polygon
10
-0.4490653031834772
20
1.1909669839537993
11
-0.4486620470643873
21
1.190868691578924
0
LINE
8
Polygon
10
-0.4486620470643873
20
1.190868691578924
11
-0.44825442787314645
21
1.190790438889039
0
LINE
8
Polygon
10
-0.44825442787314645
20
1.190790438889039
11
-0.44784344083886435
21
1.1907324169432418
0
LINE
8
Polygon
10
-0.44784344083886435
20
1.1907324169432418
11
-0.4474300894134613
21
1.1906947674059356
0
LINE
8
Polygon
10
-0.4474300894134613
20
1.1906947674059356
11
-0.44701538282167436
21
1.190677582200946
0
LINE
8
Polygon
10
-0.44701538282167436
20
1.190677582200946
11
-0.4466003335969685
21
1.1906809032870833
0
LINE
8
Polygon
10
-0.4466003335969685
20
1.1906809032870833
11
-0.44618595510936954
21
1.190704722555697
0
LINE
8
Polygon
10
-0.44618595510936954
20
1.190704722555697
11
-0.44577325909125454
21
1.1907489818504733
0
LINE
8
Polygon
10
-0.44577325909125454
20
1.1907489818504733
11
-0.44536325316714037
21
1.1908135731094285
0
LINE
8
Polygon
10
-0.44536325316714037
20
1.1908135731094285
11
-0.4449569383935023
21
1.1908983386287482
0
LINE
8
Polygon
10
-0.4449569383935023
20
1.1908983386287482
11
-0.44455530681462846
21
1.1910030714478326
0
LINE
8
Polygon
10
-0.44455530681462846
20
1.1910030714478326
11
-0.44415933904047844
21
1.1911275158546042
0
LINE
8
Polygon
10
-0.44415933904047844
20
1.1911275158546042
11
-0.4437700018524594
21
1.1912713680098455
0
LINE
8
Polygon
10
-0.4437700018524594
20
1.1912713680098455
11
-0.44338824584296577
21
1.191434276689042
0
LINE
8
Polygon
10
-0.44338824584296577
20
1.191434276689042
11
-0.443015003094445
21
1.1916158441399212
0
LINE
8
Polygon
10
-0.443015003094445
20
1.1916158441399212
11
-0.44265118490365724
21
1.19181562705359
0
LINE
8
Polygon
10
-0.44265118490365724
20
1.19181562705359
11
-0.44229767955668375
21
1.1920331376469027
0
LINE
8
Polygon
10
-0.44229767955668375
20
1.1920331376469027
11
-0.4419553501601184
21
1.192267844853416
0
LINE
8
Polygon
10
-0.4419553501601184
20
1.192267844853416
11
-0.4416250325337358
21
1.1925191756200226
0
LINE
8
Polygon
10
-0.4416250325337358
20
1.1925191756200226
11
-0.4413075331697823
21
1.1927865163060978
0
LINE
8
Polygon
10
-0.4413075331697823
20
1.1927865163060978
11
-0.4410036272638721
21
1.1930692141817443
0
LINE
8
Polygon
10
-0.4410036272638721
20
1.1930692141817443
11
-0.44071405682229603
21
1.193366579021474
0
LINE
8
Polygon
10
-0.44071405682229603
20
1.193366579021474
11
-0.44043952885036425
21
1.1936778847894405
0
LINE
8
Polygon
10
-0.44043952885036425
20
1.1936778847894405
11
-0.44018071362620637
21
1.1940023714121017
0
LINE
8
Polygon
10
-0.44018071362620637
20
1.1940023714121017
11
-0.43993824306424306
21
1.1943392466339915
0
LINE
8
Polygon
10
-0.43993824306424306
20
1.1943392466339915
11
-0.4397127091723255
21
1.1946876879520618
0
LINE
8
Polygon
10
-0.4397127091723255
20
1.1946876879520618
11
-0.43950466260630916
21
1.1950468446238791
0
LINE
8
Polygon
10
-0.43950466260630916
20
1.1950468446238791
11
-0.4393146113255912
21
1.1954158397447678
0
LINE
8
Polygon
10
-0.4393146113255912
20
1.1954158397447678
11
-0.4391430193528942
21
1.1957937723888301
0
LINE
8
Polygon
10
-0.4391430193528942
20
1.1957937723888301
11
-0.43899030564132413
21
1.1961797198086177
0
LINE
8
Polygon
10
-0.43899030564132413
20
1.1961797198086177
11
-0.4388568430514686
21
1.196572739688078
0
LINE
8
Polygon
10
-0.4388568430514686
20
1.196572739688078
11
-0.4387429574410334
21
1.1969718724432836
0
LINE
8
Polygon
10
-0.4387429574410334
20
1.1969718724432836
11
-0.43864892686923934
21
1.197376143565317
0
LINE
8
Polygon
10
-0.43864892686923934
20
1.197376143565317
11
-0.43857498091792213
21
1.1977845659996003
0
LINE
8
Polygon
10
-0.43857498091792213
20
1.1977845659996003
11
-0.4385213001309936
21
1.198196142555853
0
LINE
8
Polygon
10
-0.4385213001309936
20
1.198196142555853
11
-0.4384880155736316
21
1.198609868342798
0
LINE
8
Polygon
10
-0.4384880155736316
20
1.198609868342798
11
-0.4384752085122756
21
1.1990247332216701
0
LINE
8
Polygon
10
-0.4384752085122756
20
1.1990247332216701
11
-0.4384829102162097
21
1.1994397242725356
0
LINE
8
Polygon
10
-0.4384829102162097
20
1.1994397242725356
11
-0.43851110188121645
21
1.1998538282674045
0
LINE
8
Polygon
10
-0.43851110188121645
20
1.1998538282674045
11
-0.4385597146754884
21
1.2002660341440914
0
LINE
8
Polygon
10
-0.4385597146754884
20
1.2002660341440914
11
-0.4386286299076856
21
1.2006753354747919
0
LINE
8
Polygon
10
-0.4386286299076856
20
1.2006753354747919
11
-0.4387176793167285
21
1.2010807329233424
0
LINE
8
Polygon
10
-0.4387176793167285
20
1.2010807329233424
11
-0.4388266454826183
21
1.201481236685164
0
LINE
8
Polygon
10
-0.4388266454826183
20
1.201481236685164
11
-0.43948212147969595
21
1.2036431321226635
0
LINE
8
Polygon
10
-0.43948212147969595
20
1.2036431321226635
11
-0.44015501847896005
21
1.2057996687659431
0
LINE
8
Polygon
10
-0.44015501847896005
20
1.2057996687659431
11
-0.4408452926782434
21
1.2079507062354515
0
LINE
8
Polygon
10
-0.4408452926782434
20
1.2079507062354515
11
-0.4415528991442116
21
1.2100961045096064
0
LINE
8
Polygon
10
-0.4415528991442116
20
1.2100961045096064
11
-0.44227779181528787
21
1.2122357239339072
0
LINE
8
Polygon
10
-0.44227779181528787
20
1.2122357239339072
11
-0.44301992350465175
21
1.214369425230028
0
LINE
8
Polygon
10
-0.44301992350465175
20
1.214369425230028
11
-0.44377924590331014
21
1.2164970695048827
0
LINE
8
Polygon
10
-0.44377924590331014
20
1.2164970695048827
11
-0.4445557095832427
21
1.218618518259666
0
LINE
8
Polygon
10
-0.4445557095832427
20
1.218618518259666
11
-0.44534926400061875
21
1.2207336333988699
0
LINE
8
Polygon
10
-0.44534926400061875
20
1.2207336333988699
11
-0.4461598574990878
21
1.222842277239272
0
LINE
8
Polygon
10
-0.4461598574990878
20
1.222842277239272
11
-0.44698743731314183
21
1.2249443125188988
0
LINE
8
Polygon
10
-0.44698743731314183
20
1.2249443125188988
11
-0.4478319495715503
21
1.2270396024059607
0
LINE
8
Polygon
10
-0.4478319495715503
20
1.2270396024059607
11
-0.44869333930086674
21
1.2291280105077584
0
LINE
8
Polygon
10
-0.44869333930086674
20
1.2291280105077584
11
-0.4495715504290073
21
1.2312094008795618
0
LINE
8
Polygon
10
-0.4495715504290073
20
1.2312094008795618
11
-0.4504665257889008
21
1.2332836380334595
0
LINE
8
Polygon
10
-0.4504665257889008
20
1.2332836380334595
11
-0.45137820712220983
21
1.235350586947178
0
LINE
8
Polygon
10
-0.45137820712220983
20
1.235350586947178
11
-0.4523065350831234
21
1.237410113072871
0
LINE
8
Polygon
10
-0.4523065350831234
20
1.237410113072871
11
-0.45325144924221966
21
1.2394620823458782
0
LINE
8
Polygon
10
-0.45325144924221966
20
1.2394620823458782
11
-0.4542128880903999
21
1.2415063611934516
0
LINE
8
Polygon
10
-0.4542128880903999
20
1.2415063611934516
11
-0.4551907890428921
21
1.2435428165434508
0
LINE
8
Polygon
10
-0.4551907890428921
20
1.2435428165434508
11
-0.4561850884433254
21
1.2455713158330055
0
LINE
8
Polygon
10
-0.4561850884433254
20
1.2455713158330055
11
-0.45719572156787325
21
1.2475917270171442
0
LINE
8
Polygon
10
-0.45719572156787325
20
1.2475917270171442
11
-0.458222622629467
21
1.2496039185773897
0
LINE
8
Polygon
10
-0.458222622629467
20
1.2496039185773897
11
-0.45926572478207806
21
1.251607759530321
0
LINE
8
Polygon
10
-0.45926572478207806
20
1.251607759530321
11
-0.4603249601250695
21
1.2536031194360984
0
LINE
8
Polygon
10
-0.4603249601250695
20
1.2536031194360984
11
-0.46140025970761567
21
1.2555898684069555
0
LINE
8
Polygon
10
-0.46140025970761567
20
1.2555898684069555
11
-0.4624915535331909
21
1.2575678771156542
0
LINE
8
Polygon
10
-0.4624915535331909
20
1.2575678771156542
11
-0.46359877056412563
21
1.2595370168039024
0
LINE
8
Polygon
10
-0.46359877056412563
20
1.2595370168039024
11
-0.46472183872623085
21
1.2614971592907362
0
LINE
8
Polygon
10
-0.46472183872623085
20
1.2614971592907362
11
-0.46586068491348964
21
1.263448176980864
0
LINE
8
Polygon
10
-0.46586068491348964
20
1.263448176980864
11
-0.46701523499281605
21
1.265389942872972
0
LINE
8
Polygon
10
-0.46701523499281605
20
1.265389942872972
11
-0.46818541380888057
21
1.2673223305679908
0
LINE
8
Polygon
10
-0.46818541380888057
20
1.2673223305679908
11
-0.4693711451890026
21
1.2692452142773243
0
LINE
8
Polygon
10
-0.4693711451890026
20
1.2692452142773243
11
-0.470572351948109
21
1.2711584688310371
0
LINE
8
Polygon
10
-0.470572351948109
20
1.2711584688310371
11
-0.47178895589375813
21
1.2730619696860033
0
LINE
8
Polygon
10
-0.47178895589375813
20
1.2730619696860033
11
-0.4730208778312299
21
1.2749555929340128
0
LINE
8
Polygon
10
-0.4730208778312299
20
1.2749555929340128
11
-0.4742680375686811
21
1.2768392153098371
0
LINE
8
Polygon
10
-0.4742680375686811
20
1.2768392153098371
11
-0.4755303539223653
21
1.2787127141992545
0
LINE
8
Polygon
10
-0.4755303539223653
20
1.2787127141992545
11
-0.47680774472191756
21
1.2805759676470294
0
LINE
8
Polygon
10
-0.47680774472191756
20
1.2805759676470294
11
-0.47810012681570324
21
1.2824288543648532
0
LINE
8
Polygon
10
-0.47810012681570324
20
1.2824288543648532
11
-0.47940741607623083
21
1.2842712537392384
0
LINE
8
Polygon
10
-0.47940741607623083
20
1.2842712537392384
11
-0.48072952740562835
21
1.2861030458393703
0
LINE
8
Polygon
10
-0.48072952740562835
20
1.2861030458393703
11
-0.4820663747411824
21
1.287924111424913
0
LINE
8
Polygon
10
-0.4820663747411824
20
1.287924111424913
11
-0.4834178710609407
21
1.2897343319537729
0
LINE
8
Polygon
10
-0.4834178710609407
20
1.2897343319537729
11
-0.48478392838937684
21
1.291533589589814
0
LINE
8
Polygon
10
-0.48478392838937684
20
1.291533589589814
11
-0.4861644578031168
21
1.2933217672105286
0
LINE
8
Polygon
10
-0.4861644578031168
20
1.2933217672105286
11
-0.4875593694367275
21
1.2950987484146619
0
LINE
8
Polygon
10
-0.4875593694367275
20
1.2950987484146619
11
-0.4889685724885667
21
1.296864417529789
0
LINE
8
Polygon
10
-0.19293779868913002
20
1.3626340744564824
11
-0.19084721075774663
21
1.3617779887326322
0
LINE
8
Polygon
10
-0.19084721075774663
20
1.3617779887326322
11
-0.188749783905165
21
1.3609387978940886
0
LINE
8
Polygon
10
-0.188749783905165
20
1.3609387978940886
11
-0.18664565466319
21
1.3601165565679003
0
LINE
8
Polygon
10
-0.18664565466319
20
1.3601165565679003
11
-0.18453495999991767
21
1.35931131827779
0
LINE
8
Polygon
10
-0.18453495999991776
20
1.35931131827779
11
-0.18241783731081984
21
1.3585231354406686
0
LINE
8
Polygon
10
-0.18241783731081984
20
1.3585231354406686
11
-0.18029442440979968
21
1.357752059363224
0
LINE
8
Polygon
10
-0.18029442440979968
20
1.357752059363224
11
-0.1781648595202214
21
1.3569981402385816
0
LINE
8
Polygon
10
-0.1781648595202214
20
1.3569981402385816
11
-0.17602928126591227
21
1.3562614271430362
0
LINE
8
Polygon
10
-0.17602928126591233
20
1.3562614271430362
11
-0.1738878286621391
21
1.3555419680328578
0
LINE
8
Polygon
10
-0.1738878286621391
20
1.3555419680328578
11
-0.1717406411065585
21
1.3548398097411698
0
LINE
8
Polygon
10
-0.1717406411065585
20
1.3548398097411698
11
-0.16958785837014373
21
1.3541549979749008
0
LINE
8
Polygon
10
-0.16958785837014373
20
1.3541549979749008
11
-0.16742962058808558
21
1.3534875773118082
0
LINE
8
Polygon
10
-0.16742962058808564
20
1.3534875773118082
11
-0.16526606825067064
21
1.352837591197578
0
LINE
8
Polygon
10
-0.16526606825067064
20
1.352837591197578
11
-0.16309734219413574
21
1.3522050819429956
0
LINE
8
Polygon
10
-0.16309734219413574
20
1.3522050819429956
11
-0.1609235835915007
21
1.3515900907211913
0
LINE
8
Polygon
10
-0.1609235835915007
20
1.3515900907211913
11
-0.1587449339433784
21
1.3509926575649613
0
LINE
8
Polygon
10
-0.15874493394337846
20
1.3509926575649613
11
-0.15656153506876402
21
1.3504128213641613
0
LINE
8
Polygon
10
-0.15656153506876402
20
1.3504128213641613
11
-0.1543735290958028
21
1.3498506198631741
0
LINE
8
Polygon
10
-0.1543735290958028
20
1.3498506198631741
11
-0.15218105845253893
21
1.3493060896584543
0
LINE
8
Polygon
10
-0.15218105845253893
20
1.3493060896584543
11
-0.14998426585764385
21
1.3487792661961442
0
LINE
8
Polygon
10
-0.1499842658576439
20
1.3487792661961442
11
-0.14778329431112613
21
1.3482701837697681
0
LINE
8
Polygon
10
-0.14778329431112613
20
1.3482701837697681
11
-0.14557828708502246
21
1.3477788755179987
0
LINE
8
Polygon
10
-0.14557828708502246
20
1.3477788755179987
11
-0.143369387714072
21
1.347305373422501
0
LINE
8
Polygon
10
-0.143369387714072
20
1.347305373422501
11
-0.14115673998637274
21
1.346849708305849
0
LINE
8
Polygon
10
-0.1411567399863728
20
1.346849708305849
11
-0.13894048793402153
21
1.3464119098295215
0
LINE
8
Polygon
10
-0.13894048793402153
20
1.3464119098295215
11
-0.1367207758237382
21
1.345992006491969
0
LINE
8
Polygon
10
-0.1367207758237382
20
1.345992006491969
11
-0.13449774814747503
21
1.3455900256267601
0
LINE
8
Polygon
10
-0.13449774814747503
20
1.3455900256267601
11
-0.13227154961301063
21
1.3452059934008016
0
LINE
8
Polygon
10
-0.13227154961301069
20
1.3452059934008016
11
-0.13004232513453043
21
1.3448399348126352
0
LINE
8
Polygon
10
-0.13004232513453043
20
1.3448399348126352
11
-0.12781021982319307
21
1.3444918736908107
0
LINE
8
Polygon
10
-0.12781021982319307
20
1.3444918736908107
11
-0.12557537897768514
21
1.344161832692334
0
LINE
8
Polygon
10
-0.12557537897768514
20
1.344161832692334
11
-0.12333794807476234
21
1.343849833301193
0
LINE
8
Polygon
10
-0.12333794807476241
20
1.343849833301193
11
-0.12109807275978014
21
1.3435558958269593
0
LINE
8
Polygon
10
-0.12109807275978014
20
1.3435558958269593
11
-0.11885589883721236
21
1.3432800394034647
0
LINE
8
Polygon
10
-0.11885589883721236
20
1.3432800394034647
11
-0.11661157226116084
21
1.343022281987558
0
LINE
8
Polygon
10
-0.11661157226116084
20
1.343022281987558
11
-0.1143652391258541
21
1.3427826403579333
0
LINE
8
Polygon
10
-0.11436523912585417
20
1.3427826403579333
11
-0.11211704565613755
21
1.3425611301140403
0
LINE
8
Polygon
10
-0.11211704565613755
20
1.3425611301140403
11
-0.10986713819795452
21
1.342357765675068
0
LINE
8
Polygon
10
-0.10986713819795452
20
1.342357765675068
11
-0.10761566320882066
21
1.3421725602790051
0
LINE
8
Polygon
10
-0.10761566320882066
20
1.3421725602790051
11
-0.10536276724828972
21
1.3420055259817798
0
LINE
8
Polygon
10
-0.10536276724828977
20
1.3420055259817798
11
-0.10310859696841364
21
1.3418566736564739
0
LINE
8
Polygon
10
-0.10310859696841364
20
1.3418566736564739
11
-0.10085329910419565
21
1.3417260129926154
0
LINE
8
Polygon
10
-0.10085329910419565
20
1.3417260129926154
11
-0.09859702046403934
21
1.3416135524955486
0
LINE
8
Polygon
10
-0.09859702046403934
20
1.3416135524955486
11
-0.09633990792019172
21
1.3415192994858782
0
LINE
8
Polygon
10
-0.09633990792019179
20
1.3415192994858782
11
-0.0940821083991828
21
1.3414432600989958
0
LINE
8
Polygon
10
-0.0940821083991828
20
1.3414432600989958
11
-0.0918237688722609
21
1.3413854392846778
0
LINE
8
Polygon
10
-0.0918237688722609
20
1.3413854392846778
11
-0.08956503634582642
21
1.3413458408067647
0
LINE
8
Polygon
10
-0.08956503634582642
20
1.3413458408067647
11
-0.08730605785186182
21
1.3413244672429157
0
LINE
8
Polygon
10
-0.08730605785186188
20
1.3413244672429157
11
-0.08689107249204787
21
1.341332469722664
0
LINE
8
Polygon
10
-0.08689107249204787
20
1.341332469722664
11
-0.0864769890387426
21
1.3413609615151816
0
LINE
8
Polygon
10
-0.0864769890387426
20
1.3413609615151816
11
-0.08606481850397739
21
1.3414098730558797
0
LINE
8
Polygon
10
-0.08606481850397739
20
1.3414098730558797
11
-0.08565556722926697
21
1.3414790849240092
0
LINE
8
Polygon
10
-0.08565556722926697
20
1.3414790849240092
11
-0.0852502344285603
21
1.3415684281342346
0
LINE
8
Polygon
10
-0.0852502344285603
20
1.3415684281342346
11
-0.08484980974859394
21
1.341677684549222
0
LINE
8
Polygon
10
-0.08484980974859394
20
1.341677684549222
11
-0.08445527085260425
21
1.3418065874122365
0
LINE
8
Polygon
10
-0.08445527085260425
20
1.3418065874122365
11
-0.0840675810332983
21
1.3419548219984456
0
LINE
8
Polygon
10
-0.0840675810332983
20
1.3419548219984456
11
-0.08368768686091119
21
1.3421220263833415
0
LINE
8
Polygon
10
-0.08368768686091119
20
1.3421220263833415
11
-0.08331651587209252
21
1.3423077923264028
0
LINE
8
Polygon
10
-0.08331651587209252
20
1.3423077923264028
11
-0.08295497430526448
21
1.3425116662678411
0
LINE
8
Polygon
10
-0.08295497430526448
20
1.3425116662678411
11
-0.0826039448879811
21
1.3427331504359972
0
LINE
8
Polygon
10
-0.0826039448879811
20
1.3427331504359972
11
-0.08226428468169072
21
1.3429717040626827
0
LINE
8
Polygon
10
-0.08226428468169072
20
1.3429717040626827
11
-0.08193682298916409
21
1.3432267447035025
0
LINE
8
Polygon
10
-0.08193682298916409
20
1.3432267447035025
11
-0.08162235932969687
21
1.3434976496599291
0
LINE
8
Polygon
10
-0.08162235932969687
20
1.3434976496599291
11
-0.08132166148703078
21
1.3437837574996645
0
LINE
8
Polygon
10
-0.08132166148703078
20
1.3437837574996645
11
-0.08103546363475883
21
1.3440843696715687
0
LINE
8
Polygon
10
-0.08103546363475883
20
1.3440843696715687
11
-0.08076446454379228
21
1.3443987522112197
0
LINE
8
Polygon
10
-0.08076446454379228
20
1.3443987522112197
11
-0.08050932587626534
21
1.3447261375329351
0
LINE
8
Polygon
10
-0.08050932587626534
20
1.3447261375329351
11
-0.08027067057004349
21
1.3450657263038834
0
LINE
8
Polygon
10
-0.08027067057004349
20
1.3450657263038834
11
-0.08004908131777963
21
1.3454166893957082
0
LINE
8
Polygon
10
-0.08004908131777963
20
1.3454166893957082
11
-0.07984509914423163
21
1.345778169908899
0
LINE
8
Polygon
10
-0.07984509914423163
20
1.345778169908899
11
-0.0796592220853147
21
1.3461492852649686
0
LINE
8
Polygon
10
-0.0796592220853147
20
1.3461492852649686
11
-0.07949190397211389
21
1.346529129361325
0
LINE
8
Polygon
10
-0.07949190397211389
20
1.346529129361325
11
-0.07934355332282561
21
1.3469167747835835
0
LINE
8
Polygon
10
-0.07934355332282561
20
1.3469167747835835
11
-0.07921453234533354
21
1.3473112750699068
0
LINE
8
Polygon
10
-0.07921453234533354
20
1.3473112750699068
11
-0.07910515605285423
21
1.3477116670218556
0
LINE
8
Polygon
10
-0.07910515605285423
20
1.3477116670218556
11
-0.07901569149481155
21
1.3481169730561018
0
LINE
8
Polygon
10
-0.07901569149481155
20
1.3481169730561018
11
-0.07894635710481795
21
1.3485262035912606
0
LINE
8
Polygon
10
-0.07894635710481795
20
1.3485262035912606
11
-0.0788973221673544
21
1.3489383594640199
0
LINE
8
Polygon
10
-0.0788973221673544
20
1.3489383594640199
11
-0.07886870640445116
21
1.3493524343686634
0
LINE
8
Polygon
10
-0.07886870640445116
20
1.3493524343686634
11
-0.0788605796833786
21
1.349767417314032
0
LINE
8
Polygon
10
-0.0788605796833786
20
1.349767417314032
11
-0.0788729618460616
21
1.3501822950919249
0
LINE
8
Polygon
10
-0.0788729618460616
20
1.3501822950919249
11
-0.07890582266063424
21
1.350596054750915
0
LINE
8
Polygon
10
-0.07890582266063424
20
1.350596054750915
11
-0.07895908189525283
21
1.3510076860695364
0
LINE
8
Polygon
10
-0.07895908189525283
20
1.3510076860695364
11
-0.0790326095139873
21
1.3514161840228058
0
LINE
8
Polygon
10
-0.0790326095139873
20
1.3514161840228058
11
-0.07912622599431246
21
1.3518205512360584
0
LINE
8
Polygon
10
-0.07912622599431246
20
1.3518205512360584
11
-0.0792397027654241
21
1.352219800420103
0
LINE
8
Polygon
10
-0.07923970276542408
20
1.352219800420103
11
-0.07937276276630957
21
1.3526129567817535
0
LINE
8
Polygon
10
-0.07937276276630957
20
1.3526129567817535
11
-0.07952508112221066
21
1.3529990604038522
0
LINE
8
Polygon
10
-0.07952508112221066
20
1.3529990604038522
11
-0.07969628593782659
21
1.3533771685889686
0
LINE
8
Polygon
10
-0.07969628593782659
20
1.3533771685889686
11
-0.07988595920532093
21
1.3537463581610587
0
LINE
8
Polygon
10
-0.07988595920532093
20
1.3537463581610587
11
-0.08009363782491531
21
1.35410572771946
0
LINE
8
Polygon
10
-0.08009363782491531
20
1.35410572771946
11
-0.08031881473557796
21
1.3544543998397198
0
LINE
8
Polygon
10
-0.08031881473557796
20
1.3544543998397198
11
-0.08056094015304668
21
1.354791523215886
0
LINE
8
Polygon
10
-0.08056094015304668
20
1.354791523215886
11
-0.08081942291216335
21
1.3551162747390255
0
LINE
8
Polygon
10
-0.08081942291216335
20
1.3551162747390255
11
-0.08109363191024253
21
1.3554278615069002
0
LINE
8
Polygon
10
-0.08109363191024253
20
1.3554278615069002
11
-0.08138289764795037
21
1.3557255227598881
0
LINE
8
Polygon
10
-0.015357816022980683
20
1.3651957464218996
11
-0.013614659508237419
21
1.3686742673401313
0
LINE
8
Polygon
10
-0.013614659508237419
20
1.3686742673401313
11
-0.012200884599880585
21
1.372299173259182
0
LINE
8
Polygon
10
-0.012200884599880585
20
1.372299173259182
11
-0.011128624357783883
21
1.3760393551246382
0
LINE
8
Polygon
10
-0.011128624357783883
20
1.376039355124638
11
-0.010407080952420614
21
1.3798627145803581
0
LINE
8
Polygon
10
-0.010407080952420614
20
1.3798627145803581
11
-0.010042446691552798
21
1.3837364394375555
0
LINE
8
Polygon
10
-0.010042446691552798
20
1.3837364394375555
11
-0.010037850877654936
21
1.3876272852700144
0
LINE
8
Polygon
10
-0.010037850877654936
20
1.3876272852700144
11
-0.010393332952143682
21
1.3915018607187812
0
LINE
8
Polygon
10
-0.010393332952143682
20
1.3915018607187812
11
-0.011105842156890318
21
1.3953269140578366
0
LINE
8
Polygon
10
-0.011105842156890318
20
1.3953269140578366
11
-0.012169263715921225
21
1.399069618561435
0
LINE
8
Polygon
10
-0.012169263715921225
20
1.399069618561435
11
-0.0135744713126138
21
1.402697854224077
0
LINE
8
Polygon
10
-0.0135744713126138
20
1.402697854224077
11
-0.015309405412027306
21
1.4061804834153862
0
LINE
8
Polygon
10
-0.015309405412027306
20
1.4061804834153862
11
-0.0173591767562037
21
1.409487618104216
0
LINE
8
Polygon
10
-0.017359176756203694
20
1.409487618104216
11
-0.019706194144238694
21
1.4125908763586525
0
LINE
8
Polygon
10
-0.019706194144238694
20
1.4125908763586525
11
-0.02233031540051059
21
1.4154636259206315
0
LINE
8
Polygon
10
-0.022330315400510583
20
1.4154636259206315
11
-0.025209020235452732
21
1.418081212764797
0
LINE
8
Polygon
10
-0.025209020235452736
20
1.418081212764797
11
-0.028317603515373303
21
1.420421172680109
0
LINE
8
Polygon
10
-0.028317603515373303
20
1.4204211726801088
11
-0.03162938728267466
21
1.422463424058394
0
LINE
8
Polygon
10
-0.03162938728267466
20
1.422463424058394
11
-0.035115949706908456
21
1.4241904402353271
0
LINE
8
Polygon
10
-0.03511594970690846
20
1.4241904402353271
11
-0.038747369001801174
21
1.4255873999048054
0
LINE
8
Polygon
10
-0.038747369001801174
20
1.4255873999048054
11
-0.042492480214946976
21
1.4266423143158538
0
LINE
8
Polygon
10
-0.04249248021494698
20
1.4266423143158538
11
-0.04631914268639056
21
1.427346130160456
0
LINE
8
Polygon
10
-0.04631914268639056
20
1.427346130160456
11
-0.050194515880762326
21
1.4276928072693236
0
LINE
8
Polygon
10
-0.05019451588076233
20
1.4276928072693236
11
-0.05408534122576595
21
1.427679370448814
0
LINE
8
Polygon
10
-0.05408534122576595
20
1.427679370448814
11
-0.05795822753827172
21
1.4273059350141357
0
LINE
8
Polygon
10
-0.05795822753827172
20
1.4273059350141357
11
-0.0617799375884802
21
1.4265757057997082
0
LINE
8
Polygon
10
-0.0617799375884802
20
1.4265757057997082
11
-0.0655176733428536
21
1.425494949655175
0
LINE
8
Polygon
10
-0.06551767334285362
20
1.425494949655175
11
-0.06913935743785132
21
1.4240729416631057
0
LINE
8
Polygon
10
-0.06913935743785132
20
1.4240729416631057
11
-0.0726139084688533
21
1.4223218855399529
0
LINE
8
Polygon
10
-0.07261390846885328
20
1.4223218855399529
11
-0.07591150773173325
21
1.4202568089033794
0
LINE
8
Polygon
10
-0.07591150773173326
20
1.4202568089033794
11
-0.07900385512789732
21
1.4178954343047812
0
LINE
8
Polygon
10
-0.07900385512789734
20
1.4178954343047812
11
-0.08186441203660311
21
1.4152580271338036
0
LINE
8
Polygon
10
-0.08186441203660308
20
1.4152580271338036
11
-0.08446862907022148
21
1.4123672217001433
0
LINE
8
Polygon
10
-0.08446862907022151
20
1.4123672217001433
11
-0.08679415675783869
21
1.4092478269852036
0
LINE
8
Polygon
10
-0.08679415675783868
20
1.4092478269852036
11
-0.08882103734910479
21
1.405926613730651
0
LINE
8
Polygon
10
-0.08882103734910482
20
1.405926613730651
11
-0.09053187609226318
21
1.402432084691084
0
LINE
8
Polygon
10
-0.09053187609226318
20
1.402432084691084
11
-0.0919119905164464
21
1.3987942300225151
0
LINE
8
Polygon
10
-0.09191199051644638
20
1.3987942300225151
11
-0.09294953643709422
21
1.3950442699059251
0
LINE
8
Polygon
10
-0.09294953643709422
20
1.3950442699059251
11
-0.09363560960311085
21
1.3912143866147086
0
LINE
8
Polygon
10
-0.09363560960311085
20
1.3912143866147086
11
-0.09396432211342248
21
1.3873374483254097
0
LINE
8
Polygon
10
-0.09396432211342248
20
1.3873374483254095
11
-0.09393285294712594
21
1.3834467270420174
0
LINE
8
Polygon
10
-0.09393285294712594
20
1.3834467270420174
11
-0.09354147217357711
21
1.379575613054602
0
LINE
8
Polygon
10
-0.09354147217357711
20
1.379575613054602
11
-0.09279353863464737
21
1.3757573283828137
0
LINE
8
Polygon
10
-0.09279353863464737
20
1.3757573283828137
11
-0.09169547111903904
21
1.3720246416634876
0
LINE
8
Polygon
10
-0.09169547111903904
20
1.3720246416634878
11
-0.09025669327604277
21
1.3684095869291897
0
LINE
8
Polygon
10
-0.09025669327604277
20
1.3684095869291897
11
-0.0884895527414886
21
1.3649431886911616
0
LINE
8
Polygon
10
-0.08848955274148862
20
1.3649431886911616
11
-0.08640921516995445
21
1.3616551956860092
0
LINE
8
Polygon
10
-0.08640921516995442
20
1.3616551956860092
11
-0.08403353408265057
21
1.3585738255711262
0
LINE
8
Polygon
10
-0.08403353408265057
20
1.3585738255711262
11
-0.08138289764795004
21
1.3557255227598881
0
LINE
8
Polygon
10
-0.015357816022980385
20
1.3651957464218996
11
-0.015551751423351771
21
1.3648287778278416
0
LINE
8
Polygon
10
-0.015551751423351771
20
1.3648287778278416
11
-0.015727322878626375
21
1.3644526773723318
0
LINE
8
Polygon
10
-0.01572732287862638
20
1.3644526773723318
11
-0.015884101719529378
21
1.3640683633294095
0
LINE
8
Polygon
10
-0.015884101719529378
20
1.3640683633294095
11
-0.016021705160192006
21
1.3636767740271298
0
LINE
8
Polygon
10
-0.016021705160192006
20
1.3636767740271298
11
-0.016139797232748478
21
1.3632788655565724
0
LINE
8
Polygon
10
-0.016139797232748478
20
1.3632788655565724
11
-0.016238089607623657
21
1.3628756094374823
0
LINE
8
Polygon
10
-0.016238089607623657
20
1.3628756094374823
11
-0.01631634229750871
21
1.3624679902462415
0
LINE
8
Polygon
10
-0.01631634229750871
20
1.3624679902462415
11
-0.01637436424330595
21
1.3620570032119594
0
LINE
8
Polygon
10
-0.01637436424330595
20
1.3620570032119594
11
-0.016412013780612182
21
1.3616436517865564
0
LINE
8
Polygon
10
-0.016412013780612182
20
1.3616436517865564
11
-0.01642919898560169
21
1.3612289451947694
0
LINE
8
Polygon
10
-0.01642919898560169
20
1.3612289451947694
11
-0.016425877899464328
21
1.3608138959700635
0
LINE
8
Polygon
10
-0.016425877899464328
20
1.3608138959700635
11
-0.016402058630850692
21
1.3603995174824646
0
LINE
8
Polygon
10
-0.016402058630850692
20
1.3603995174824646
11
-0.01635779933607433
21
1.3599868214643496
0
LINE
8
Polygon
10
-0.016357799336074327
20
1.3599868214643496
11
-0.016293208077119273
21
1.3595768155402355
0
LINE
8
Polygon
10
-0.016293208077119273
20
1.3595768155402355
11
-0.01620844255779958
21
1.3591705007665975
0
LINE
8
Polygon
10
-0.01620844255779958
20
1.3591705007665975
11
-0.016103709738715076
21
1.3587688691877235
0
LINE
8
Polygon
10
-0.016103709738715076
20
1.3587688691877235
11
-0.015979265331943434
21
1.3583729014135735
0
LINE
8
Polygon
10
-0.015979265331943434
20
1.3583729014135735
11
-0.015835413176702267
21
1.3579835642255544
0
LINE
8
Polygon
10
-0.015835413176702267
20
1.3579835642255544
11
-0.015672504497505676
21
1.3576018082160608
0
LINE
8
Polygon
10
-0.015672504497505672
20
1.3576018082160608
11
-0.01549093704662646
21
1.3572285654675402
0
LINE
8
Polygon
10
-0.01549093704662646
20
1.3572285654675402
11
-0.01529115413295773
21
1.3568647472767523
0
LINE
8
Polygon
10
-0.01529115413295773
20
1.3568647472767523
11
-0.015073643539645045
21
1.356511241929779
0
LINE
8
Polygon
10
-0.015073643539645042
20
1.356511241929779
11
-0.014838936333131726
21
1.3561689125332135
0
LINE
8
Polygon
10
-0.014838936333131726
20
1.3561689125332135
11
-0.014587605566525155
21
1.3558385949068308
0
LINE
8
Polygon
10
-0.014587605566525155
20
1.3558385949068308
11
-0.014320264880449848
21
1.3555210955428774
0
LINE
8
Polygon
10
-0.014320264880449844
20
1.3555210955428774
11
-0.014037567004803443
21
1.3552171896369671
0
LINE
8
Polygon
10
-0.014037567004803445
20
1.3552171896369671
11
-0.013740202165073672
21
1.3549276191953912
0
LINE
8
Polygon
10
-0.01374020216507367
20
1.3549276191953912
11
-0.013428896397107332
21
1.3546530912234593
0
LINE
8
Polygon
10
-0.013428896397107329
20
1.3546530912234593
11
-0.013104409774445954
21
1.3543942759993015
0
LINE
8
Polygon
10
-0.013104409774445956
20
1.3543942759993015
11
-0.012767534552556182
21
1.354151805437338
0
LINE
8
Polygon
10
-0.012767534552556178
20
1.354151805437338
11
-0.01241909323448582
21
1.3539262715454206
0
LINE
8
Polygon
10
-0.01241909323448582
20
1.3539262715454206
11
-0.012059936562668506
21
1.3537182249794042
0
LINE
8
Polygon
10
-0.012059936562668506
20
1.3537182249794042
11
-0.011690941441779967
21
1.3535281736986864
0
LINE
8
Polygon
10
-0.011690941441779963
20
1.3535281736986864
11
-0.011313008797717506
21
1.3533565817259894
0
LINE
8
Polygon
10
-0.01131300879771751
20
1.3533565817259894
11
-0.010927061377930081
21
1.3532038680144192
0
LINE
8
Polygon
10
-0.010927061377930081
20
1.3532038680144192
11
-0.010534041498469576
21
1.3530704054245637
0
LINE
8
Polygon
10
-0.010534041498469579
20
1.3530704054245637
11
-0.010134908743264127
21
1.3529565198141285
0
LINE
8
Polygon
10
-0.010134908743264127
20
1.3529565198141285
11
-0.009730637621230706
21
1.3528624892423344
0
LINE
8
Polygon
10
-0.009730637621230706
20
1.3528624892423344
11
-0.009322215186947423
21
1.3527885432910172
0
LINE
8
Polygon
10
-0.009322215186947425
20
1.3527885432910172
11
-0.00891063863069474
21
1.3527348625040887
0
LINE
8
Polygon
10
-0.00891063863069474
20
1.3527348625040887
11
-0.008496912843749694
21
1.3527015779467266
0
LINE
8
Polygon
10
-0.008496912843749696
20
1.3527015779467266
11
-0.008082047964877657
21
1.3526887708853708
0
LINE
8
Polygon
10
-0.008082047964877659
20
1.3526887708853708
11
-0.007667056914011985
21
1.352696472589305
0
LINE
8
Polygon
10
-0.0076670569140119835
20
1.352696472589305
11
-0.0072529529191432615
21
1.3527246642543116
0
LINE
8
Polygon
10
-0.007252952919143263
20
1.3527246642543116
11
-0.006840747042456425
21
1.3527732770485834
0
LINE
8
Polygon
10
-0.006840747042456427
20
1.3527732770485834
11
-0.006431445711755815
21
1.3528421922807807
0
LINE
8
Polygon
10
-0.006431445711755813
20
1.3528421922807807
11
-0.0060260482632053915
21
1.3529312416898236
0
LINE
8
Polygon
10
-0.006026048263205393
20
1.3529312416898236
11
-0.0056255445013836634
21
1.3530402078557133
0
LINE
8
Polygon
10
-0.005625544501383667
20
1.3530402078557136
11
-0.0034636490638842166
21
1.353695683852791
0
LINE
8
Polygon
10
-0.0034636490638842166
20
1.353695683852791
11
-0.0013071124206046475
21
1.3543685808520551
0
LINE
8
Polygon
10
-0.0013071124206046475
20
1.3543685808520551
11
0.0008439250489039318
21
1.3550588550513385
0
LINE
8
Polygon
10
0.0008439250489039318
20
1.3550588550513385
11
0.002989323323058679
21
1.3557664615173066
0
LINE
8
Polygon
10
0.0029893233230586236
20
1.3557664615173066
11
0.005128942747359533
21
1.356491354188383
0
LINE
8
Polygon
10
0.005128942747359533
20
1.356491354188383
11
0.007262644043480468
21
1.3572334858777468
0
LINE
8
Polygon
10
0.007262644043480468
20
1.3572334858777468
11
0.009390288318335105
21
1.3579928082764052
0
LINE
8
Polygon
10
0.009390288318335105
20
1.3579928082764052
11
0.011511737073118422
21
1.358769271956338
0
LINE
8
Polygon
10
0.01151173707311838
20
1.3587692719563378
11
0.013626852212322113
21
1.3595628263737138
0
LINE
8
Polygon
10
0.013626852212322113
20
1.3595628263737138
11
0.015735496052724243
21
1.3603734198721829
0
LINE
8
Polygon
10
0.015735496052724243
20
1.3603734198721829
11
0.01783753133235122
21
1.361200999686237
0
LINE
8
Polygon
10
0.01783753133235122
20
1.361200999686237
11
0.019932821219413144
21
1.3620455119446455
0
LINE
8
Polygon
10
0.019932821219413074
20
1.3620455119446455
11
0.022021229321210714
21
1.362906901673962
0
LINE
8
Polygon
10
0.022021229321210714
20
1.362906901673962
11
0.024102619693014193
21
1.3637851128021024
0
LINE
8
Polygon
10
0.024102619693014193
20
1.3637851128021024
11
0.0261768568469119
21
1.364680088161996
0
LINE
8
Polygon
10
0.0261768568469119
20
1.364680088161996
11
0.02824380576063036
21
1.365591769495305
0
LINE
8
Polygon
10
0.02824380576063032
20
1.365591769495305
11
0.03030333188632331
21
1.3665200974562186
0
LINE
8
Polygon
10
0.03030333188632331
20
1.3665200974562186
11
0.03235530115933048
21
1.3674650116153149
0
LINE
8
Polygon
10
0.03235530115933048
20
1.3674650116153149
11
0.03439958000690389
21
1.368426450463495
0
LINE
8
Polygon
10
0.03439958000690389
20
1.368426450463495
11
0.03643603535690321
21
1.3694043514159873
0
LINE
8
Polygon
10
0.036436035356903165
20
1.3694043514159873
11
0.03846453464645787
21
1.3703986508164205
0
LINE
8
Polygon
10
0.03846453464645787
20
1.3703986508164205
11
0.04048494583059656
21
1.3714092839409684
0
LINE
8
Polygon
10
0.04048494583059656
20
1.3714092839409684
11
0.04249713739084221
21
1.3724361850025621
0
LINE
8
Polygon
10
0.04249713739084221
20
1.3724361850025621
11
0.04450097834377342
21
1.3734792871551733
0
LINE
8
Polygon
10
0.04450097834377334
20
1.373479287155173
11
0.046496338249550684
21
1.3745385224981646
0
LINE
8
Polygon
10
0.046496338249550684
20
1.3745385224981646
11
0.048483087220407894
21
1.3756138220807108
0
LINE
8
Polygon
10
0.048483087220407894
20
1.3756138220807108
11
0.0504610959291065
21
1.376705115906286
0
LINE
8
Polygon
10
0.0504610959291065
20
1.376705115906286
11
0.05243023561735469
21
1.3778123329372207
0
LINE
8
Polygon
10
0.05243023561735466
20
1.3778123329372207
11
0.054390378104188564
21
1.378935401099326
0
LINE
8
Polygon
10
0.054390378104188564
20
1.378935401099326
11
0.05634139579431649
21
1.3800742472865848
0
LINE
8
Polygon
10
0.05634139579431649
20
1.3800742472865848
11
0.05828316168642442
21
1.3812287973659112
0
LINE
8
Polygon
10
0.05828316168642442
20
1.3812287973659112
11
0.06021554938144322
21
1.3823989761819757
0
LINE
8
Polygon
10
0.06021554938144316
20
1.3823989761819757
11
0.062138433090776546
21
1.3835847075620977
0
LINE
8
Polygon
10
0.062138433090776546
20
1.3835847075620977
11
0.06405168764448949
21
1.384785914321204
0
LINE
8
Polygon
10
0.06405168764448949
20
1.384785914321204
11
0.06595518849945567
21
1.3860025182668532
0
LINE
8
Polygon
10
0.06595518849945567
20
1.3860025182668532
11
0.06784881174746507
21
1.387234440204325
0
LINE
8
Polygon
10
0.06784881174746507
20
1.387234440204325
11
0.06973243412328956
21
1.3884815999417763
0
LINE
8
Polygon
10
0.06973243412328956
20
1.3884815999417763
11
0.07160593301270674
21
1.3897439162954606
0
LINE
8
Polygon
10
0.07160593301270674
20
1.3897439162954606
11
0.07346918646048173
21
1.3910213070950128
0
LINE
8
Polygon
10
0.07346918646048173
20
1.3910213070950128
11
0.07532207317830561
21
1.3923136891887984
0
LINE
8
Polygon
10
0.07532207317830561
20
1.3923136891887984
11
0.07716447255269085
21
1.393620978449326
0
LINE
8
Polygon
10
0.07716447255269085
20
1.393620978449326
11
0.07899626465282253
21
1.3949430897787236
0
LINE
8
Polygon
10
0.07899626465282253
20
1.3949430897787236
11
0.08081733023836526
21
1.3962799371142776
0
LINE
8
Polygon
10
0.08081733023836526
20
1.3962799371142776
11
0.08262755076722514
21
1.3976314334340358
0
LINE
8
Polygon
10
0.08262755076722514
20
1.3976314334340358
11
0.08442680840326616
21
1.398997490762472
0
LINE
8
Polygon
10
0.08442680840326616
20
1.398997490762472
11
0.08621498602398084
21
1.400378020176212
0
LINE
8
Polygon
10
0.08621498602398084
20
1.400378020176212
11
0.08799196722811428
21
1.4017729318098227
0
LINE
8
Polygon
10
0.08799196722811428
20
1.4017729318098227
11
0.08975763634324121
21
1.4031821348616618
0
LINE
8
Polygon
10
0.1555272932699348
20
1.1071513610622252
11
0.15467120754608465
21
1.1050607731308417
0
LINE
8
Polygon
10
0.15467120754608465
20
1.1050607731308417
11
0.15383201670754093
21
1.1029633462782602
0
LINE
8
Polygon
10
0.15383201670754093
20
1.1029633462782602
11
0.15300977538135274
21
1.1008592170362852
0
LINE
8
Polygon
10
0.15300977538135274
20
1.1008592170362852
11
0.15220453709124232
21
1.098748522373013
0
LINE
8
Polygon
10
0.15220453709124232
20
1.098748522373013
11
0.1514163542541208
21
1.096631399683915
0
LINE
8
Polygon
10
0.1514163542541208
20
1.096631399683915
11
0.15064527817667633
21
1.0945079867828948
0
LINE
8
Polygon
10
0.15064527817667633
20
1.0945079867828948
11
0.14989135905203388
21
1.0923784218933166
0
LINE
8
Polygon
10
0.14989135905203393
20
1.0923784218933166
11
0.14915464595648853
21
1.0902428436390075
0
LINE
8
Polygon
10
0.14915464595648853
20
1.0902428436390075
11
0.14843518684631013
21
1.0881013910352342
0
LINE
8
Polygon
10
0.14843518684631013
20
1.0881013910352342
11
0.14773302855462217
21
1.0859542034796537
0
LINE
8
Polygon
10
0.14773302855462223
20
1.0859542034796537
11
0.14704821678835311
21
1.083801420743239
0
LINE
8
Polygon
10
0.14704821678835311
20
1.083801420743239
11
0.14638079612526061
21
1.0816431829611808
0
LINE
8
Polygon
10
0.14638079612526061
20
1.0816431829611808
11
0.1457308100110304
21
1.0794796306237657
0
LINE
8
Polygon
10
0.1457308100110304
20
1.0794796306237657
11
0.1450983007564478
21
1.0773109045672309
0
LINE
8
Polygon
10
0.1450983007564478
20
1.0773109045672309
11
0.14448330953464356
21
1.0751371459645958
0
LINE
8
Polygon
10
0.14448330953464356
20
1.075137145964596
11
0.14388587637841366
21
1.0729584963164736
0
LINE
8
Polygon
10
0.14388587637841366
20
1.0729584963164736
11
0.14330604017761356
21
1.070775097441859
0
LINE
8
Polygon
10
0.14330604017761356
20
1.070775097441859
11
0.1427438386766265
21
1.068587091468898
0
LINE
8
Polygon
10
0.1427438386766265
20
1.068587091468898
11
0.1421993084719066
21
1.066394620825634
0
LINE
8
Polygon
10
0.1421993084719066
20
1.066394620825634
11
0.1416724850095965
21
1.0641978282307392
0
LINE
8
Polygon
10
0.1416724850095965
20
1.0641978282307392
11
0.14116340258322035
21
1.0619968566842213
0
LINE
8
Polygon
10
0.14116340258322035
20
1.0619968566842213
11
0.140672094331451
21
1.0597918494581176
0
LINE
8
Polygon
10
0.140672094331451
20
1.0597918494581176
11
0.1401985922359531
21
1.0575829500871672
0
LINE
8
Polygon
10
0.14019859223595316
20
1.0575829500871672
11
0.13974292711930136
21
1.055370302359468
0
LINE
8
Polygon
10
0.13974292711930136
20
1.055370302359468
11
0.13930512864297379
21
1.0531540503071166
0
LINE
8
Polygon
10
0.13930512864297379
20
1.0531540503071166
11
0.1388852253054213
21
1.0509343381968332
0
LINE
8
Polygon
10
0.1388852253054213
20
1.0509343381968335
11
0.13848324444021237
21
1.0487113105205703
0
LINE
8
Polygon
10
0.13848324444021237
20
1.0487113105205703
11
0.13809921221425386
21
1.0464851119861058
0
LINE
8
Polygon
10
0.13809921221425386
20
1.0464851119861058
11
0.1377331536260875
21
1.0442558875076255
0
LINE
8
Polygon
10
0.1377331536260875
20
1.0442558875076255
11
0.13738509250426295
21
1.042023782196288
0
LINE
8
Polygon
10
0.13738509250426295
20
1.042023782196288
11
0.13705505150578623
21
1.0397889413507801
0
LINE
8
Polygon
10
0.13705505150578623
20
1.0397889413507804
11
0.13674305211464544
21
1.0375515104478577
0
LINE
8
Polygon
10
0.13674305211464544
20
1.0375515104478577
11
0.13644911464041154
21
1.0353116351328753
0
LINE
8
Polygon
10
0.13644911464041154
20
1.0353116351328753
11
0.13617325821691711
21
1.0330694612103075
0
LINE
8
Polygon
10
0.13617325821691717
20
1.0330694612103075
11
0.13591550080101017
21
1.030825134634256
0
LINE
8
Polygon
10
0.13591550080101017
20
1.030825134634256
11
0.13567585917138553
21
1.0285788014989494
0
LINE
8
Polygon
10
0.13567585917138553
20
1.0285788014989494
11
0.1354543489274927
21
1.0263306080292327
0
LINE
8
Polygon
10
0.1354543489274927
20
1.0263306080292327
11
0.13525098448852035
21
1.0240807005710497
0
LINE
8
Polygon
10
0.13525098448852035
20
1.0240807005710497
11
0.13506577909245748
21
1.0218292255819157
0
LINE
8
Polygon
10
0.13506577909245748
20
1.021829225581916
11
0.13489874479523212
21
1.019576329621385
0
LINE
8
Polygon
10
0.13489874479523212
20
1.019576329621385
11
0.1347498924699262
21
1.0173221593415087
0
LINE
8
Polygon
10
0.1347498924699262
20
1.0173221593415087
11
0.13461923180606783
21
1.0150668614772906
0
LINE
8
Polygon
10
0.13461923180606783
20
1.0150668614772909
11
0.1345067713090008
21
1.0128105828371345
0
LINE
8
Polygon
10
0.1345067713090008
20
1.0128105828371345
11
0.1344125182993306
21
1.010553470293287
0
LINE
8
Polygon
10
0.1344125182993306
20
1.010553470293287
11
0.1343364789124481
21
1.0082956707722779
0
LINE
8
Polygon
10
0.1343364789124481
20
1.0082956707722779
11
0.13427865809813005
21
1.006037331245356
0
LINE
8
Polygon
10
0.13427865809813005
20
1.006037331245356
11
0.13423905962021698
21
1.0037785987189216
0
LINE
8
Polygon
10
0.13423905962021698
20
1.0037785987189216
11
0.13421768605636808
21
1.001519620224957
0
LINE
8
Polygon
10
0.1342176860563681
20
1.001519620224957
11
0.13422568853611652
21
1.001104634865143
0
LINE
8
Polygon
10
0.13422568853611652
20
1.001104634865143
11
0.13425418032863398
21
1.0006905514118376
0
LINE
8
Polygon
10
0.13425418032863398
20
1.0006905514118376
11
0.13430309186933195
21
1.0002783808770725
0
LINE
8
Polygon
10
0.13430309186933195
20
1.0002783808770725
11
0.1343723037374615
21
0.9998691296023621
0
LINE
8
Polygon
10
0.1343723037374615
20
0.9998691296023621
11
0.13446164694768692
21
0.9994637968016554
0
LINE
8
Polygon
10
0.13446164694768692
20
0.9994637968016554
11
0.13457090336267435
21
0.999063372121689
0
LINE
8
Polygon
10
0.13457090336267435
20
0.999063372121689
11
0.1346998062256888
21
0.9986688332256993
0
LINE
8
Polygon
10
0.1346998062256888
20
0.9986688332256993
11
0.134848040811898
21
0.9982811434063934
0
LINE
8
Polygon
10
0.134848040811898
20
0.9982811434063934
11
0.13501524519679386
21
0.9979012492340062
0
LINE
8
Polygon
10
0.13501524519679386
20
0.9979012492340062
11
0.13520101113985517
21
0.9975300782451876
0
LINE
8
Polygon
10
0.13520101113985517
20
0.9975300782451876
11
0.1354048850812935
21
0.9971685366783596
0
LINE
8
Polygon
10
0.1354048850812935
20
0.9971685366783596
11
0.13562636924944954
21
0.9968175072610762
0
LINE
8
Polygon
10
0.13562636924944957
20
0.9968175072610762
11
0.1358649228761352
21
0.9964778470547858
0
LINE
8
Polygon
10
0.1358649228761352
20
0.9964778470547858
11
0.1361199635169548
21
0.9961503853622592
0
LINE
8
Polygon
10
0.1361199635169548
20
0.9961503853622592
11
0.13639086847338153
21
0.995835921702792
0
LINE
8
Polygon
10
0.13639086847338153
20
0.995835921702792
11
0.1366769763131169
21
0.9955352238601258
0
LINE
8
Polygon
10
0.1366769763131169
20
0.9955352238601258
11
0.13697758848502117
21
0.9952490260078539
0
LINE
8
Polygon
10
0.13697758848502117
20
0.9952490260078539
11
0.13729197102467214
21
0.9949780269168874
0
LINE
8
Polygon
10
0.13729197102467214
20
0.9949780269168874
11
0.1376193563463875
21
0.9947228882493604
0
LINE
8
Polygon
10
0.1376193563463875
20
0.9947228882493604
11
0.1379589451173359
21
0.9944842329431386
0
LINE
8
Polygon
10
0.1379589451173359
20
0.9944842329431386
11
0.1383099082091607
21
0.9942626436908747
0
LINE
8
Polygon
10
0.1383099082091607
20
0.9942626436908747
11
0.13867138872235155
21
0.9940586615173267
0
LINE
8
Polygon
10
0.13867138872235155
20
0.9940586615173267
11
0.1390425040784209
21
0.9938727844584098
0
LINE
8
Polygon
10
0.1390425040784209
20
0.9938727844584098
11
0.13942234817477756
21
0.993705466345209
0
LINE
8
Polygon
10
0.13942234817477753
20
0.993705466345209
11
0.13980999359703586
21
0.9935571156959206
0
LINE
8
Polygon
10
0.13980999359703586
20
0.9935571156959206
11
0.14020449388335907
21
0.9934280947184286
0
LINE
8
Polygon
10
0.14020449388335904
20
0.9934280947184286
11
0.14060488583530809
21
0.9933187184259493
0
LINE
8
Polygon
10
0.14060488583530809
20
0.9933187184259493
11
0.1410101918695542
21
0.9932292538679066
0
LINE
8
Polygon
10
0.1410101918695542
20
0.9932292538679066
11
0.14141942240471295
21
0.993159919477913
0
LINE
8
Polygon
10
0.14141942240471295
20
0.993159919477913
11
0.1418315782774723
21
0.9931108845404495
0
LINE
8
Polygon
10
0.1418315782774723
20
0.9931108845404495
11
0.14224565318211582
21
0.9930822687775462
0
LINE
8
Polygon
10
0.14224565318211582
20
0.9930822687775462
11
0.1426606361274843
21
0.9930741420564737
0
LINE
8
Polygon
10
0.1426606361274843
20
0.9930741420564737
11
0.14307551390537723
21
0.9930865242191567
0
LINE
8
Polygon
10
0.14307551390537723
20
0.9930865242191567
11
0.14348927356436747
21
0.9931193850337293
0
LINE
8
Polygon
10
0.14348927356436747
20
0.9931193850337293
11
0.1439009048829888
21
0.993172644268348
0
LINE
8
Polygon
10
0.1439009048829888
20
0.993172644268348
11
0.14430940283625823
21
0.9932461718870824
0
LINE
8
Polygon
10
0.14430940283625823
20
0.9932461718870824
11
0.14471377004951075
21
0.9933397883674076
0
LINE
8
Polygon
10
0.14471377004951075
20
0.9933397883674076
11
0.1451130192335552
21
0.9934532651385192
0
LINE
8
Polygon
10
0.1451130192335552
20
0.9934532651385192
11
0.14550617559520596
21
0.9935863251394046
0
LINE
8
Polygon
10
0.14550617559520596
20
0.9935863251394046
11
0.14589227921730458
21
0.9937386434953057
0
LINE
8
Polygon
10
0.14589227921730455
20
0.9937386434953057
11
0.14627038740242093
21
0.9939098483109217
0
LINE
8
Polygon
10
0.14627038740242093
20
0.9939098483109217
11
0.14663957697451108
21
0.994099521578416
0
LINE
8
Polygon
10
0.14663957697451108
20
0.994099521578416
11
0.14699894653291226
21
0.9943072001980103
0
LINE
8
Polygon
10
0.14699894653291226
20
0.9943072001980103
11
0.14734761865317214
21
0.994532377108673
0
LINE
8
Polygon
10
0.14734761865317214
20
0.994532377108673
11
0.14768474202933832
21
0.9947745025261417
0
LINE
8
Polygon
10
0.14768474202933832
20
0.9947745025261417
11
0.14800949355247797
21
0.9950329852852584
0
LINE
8
Polygon
10
0.14800949355247794
20
0.9950329852852584
11
0.1483210803203525
21
0.9953071942833376
0
LINE
8
Polygon
10
0.14832108032035246
20
0.9953071942833376
11
0.14861874157334054
21
0.9955964600210454
0
LINE
8
Polygon
10
0.15808896523535187
20
0.9295713783960758
11
0.16156748615358368
21
0.9278282218813325
0
LINE
8
Polygon
10
0.16156748615358368
20
0.9278282218813325
11
0.16519239207263436
21
0.9264144469729757
0
LINE
8
Polygon
10
0.16519239207263434
20
0.9264144469729757
11
0.16893257393809044
21
0.925342186730879
0
LINE
8
Polygon
10
0.16893257393809044
20
0.925342186730879
11
0.1727559333938106
21
0.9246206433255157
0
LINE
8
Polygon
10
0.17275593339381057
20
0.9246206433255157
11
0.17662965825100801
21
0.9242560090646479
0
LINE
8
Polygon
10
0.17662965825100801
20
0.9242560090646479
11
0.1805205040834669
21
0.9242514132507501
0
LINE
8
Polygon
10
0.1805205040834669
20
0.9242514132507501
11
0.18439507953223355
21
0.9246068953252388
0
LINE
8
Polygon
10
0.18439507953223352
20
0.9246068953252388
11
0.18822013287128897
21
0.9253194045299854
0
LINE
8
Polygon
10
0.18822013287128897
20
0.9253194045299854
11
0.19196283737488745
21
0.9263828260890163
0
LINE
8
Polygon
10
0.19196283737488742
20
0.9263828260890163
11
0.19559107303752918
21
0.927788033685709
0
LINE
8
Polygon
10
0.19559107303752918
20
0.927788033685709
11
0.19907370222883855
21
0.9295229677851224
0
LINE
8
Polygon
10
0.19907370222883852
20
0.9295229677851224
11
0.2023808369176683
21
0.9315727391292988
0
LINE
8
Polygon
10
0.2023808369176683
20
0.9315727391292988
11
0.205484095172105
21
0.9339197565173338
0
LINE
8
Polygon
10
0.20548409517210497
20
0.9339197565173338
11
0.2083568447340839
21
0.9365438777736057
0
LINE
8
Polygon
10
0.2083568447340839
20
0.9365438777736057
11
0.21097443157824947
21
0.9394225826085478
0
LINE
8
Polygon
10
0.21097443157824947
20
0.9394225826085478
11
0.2133143914935613
21
0.9425311658884684
0
LINE
8
Polygon
10
0.2133143914935613
20
0.9425311658884684
11
0.21535664287184633
21
0.9458429496557698
0
LINE
8
Polygon
10
0.21535664287184633
20
0.9458429496557698
11
0.21708365904877952
21
0.9493295120800036
0
LINE
8
Polygon
10
0.2170836590487795
20
0.9493295120800036
11
0.21848061871825775
21
0.9529609313748963
0
LINE
8
Polygon
10
0.21848061871825775
20
0.9529609313748963
11
0.21953553312930613
21
0.9567060425880421
0
LINE
8
Polygon
10
0.21953553312930613
20
0.9567060425880421
11
0.2202393489739084
21
0.9605327050594857
0
LINE
8
Polygon
10
0.2202393489739084
20
0.9605327050594856
11
0.22058602608277586
21
0.9644080782538574
0
LINE
8
Polygon
10
0.22058602608277586
20
0.9644080782538574
11
0.22057258926226642
21
0.9682989035988611
0
LINE
8
Polygon
10
0.22057258926226642
20
0.9682989035988611
11
0.22019915382758812
21
0.9721717899113669
0
LINE
8
Polygon
10
0.22019915382758812
20
0.9721717899113669
11
0.21946892461316062
21
0.9759934999615754
0
LINE
8
Polygon
10
0.21946892461316062
20
0.9759934999615754
11
0.21838816846862724
21
0.9797312357159488
0
LINE
8
Polygon
10
0.21838816846862724
20
0.9797312357159487
11
0.2169661604765581
21
0.9833529198109464
0
LINE
8
Polygon
10
0.21696616047655812
20
0.9833529198109464
11
0.21521510435340527
21
0.9868274708419484
0
LINE
8
Polygon
10
0.21521510435340527
20
0.9868274708419484
11
0.21315002771683184
21
0.9901250701048284
0
LINE
8
Polygon
10
0.21315002771683184
20
0.9901250701048284
11
0.21078865311823353
21
0.9932174175009925
0
LINE
8
Polygon
10
0.21078865311823353
20
0.9932174175009925
11
0.20815124594725598
21
0.9960779744096983
0
LINE
8
Polygon
10
0.208151245947256
20
0.9960779744096983
11
0.20526044051359574
21
0.9986821914433166
0
LINE
8
Polygon
10
0.20526044051359577
20
0.9986821914433166
11
0.20214104579865605
21
1.001007719130934
0
LINE
8
Polygon
10
0.20214104579865605
20
1.001007719130934
11
0.19881983254410335
21
1.0030345997221999
0
LINE
8
Polygon
10
0.19881983254410335
20
1.0030345997221999
11
0.19532530350453645
21
1.0047454384653582
0
LINE
8
Polygon
10
0.19532530350453647
20
1.0047454384653582
11
0.19168744883596744
21
1.0061255528895414
0
LINE
8
Polygon
10
0.19168744883596744
20
1.0061255528895414
11
0.18793748871937752
21
1.0071630988101894
0
LINE
8
Polygon
10
0.18793748871937757
20
1.0071630988101894
11
0.184107605428161
21
1.007849171976206
0
LINE
8
Polygon
10
0.184107605428161
20
1.007849171976206
11
0.180230667138862
21
1.0081778844865177
0
LINE
8
Polygon
10
0.180230667138862
20
1.0081778844865177
11
0.17633994585546983
21
1.008146415320221
0
LINE
8
Polygon
10
0.17633994585546986
20
1.008146415320221
11
0.17246883186805434
21
1.0077550345466721
0
LINE
8
Polygon
10
0.17246883186805434
20
1.0077550345466721
11
0.16865054719626624
21
1.0070071010077426
0
LINE
8
Polygon
10
0.16865054719626624
20
1.0070071010077426
11
0.1649178604769401
21
1.0059090334921341
0
LINE
8
Polygon
10
0.1649178604769401
20
1.0059090334921341
11
0.161302805742642
21
1.0044702556491378
0
LINE
8
Polygon
10
0.16130280574264205
20
1.0044702556491378
11
0.15783640750461406
21
1.0027031151145838
0
LINE
8
Polygon
10
0.15783640750461406
20
1.0027031151145838
11
0.15454841449946163
21
1.0006227775430496
0
LINE
8
Polygon
10
0.15454841449946163
20
1.0006227775430496
11
0.1514670443845785
21
0.9982470964557457
0
LINE
8
Polygon
10
0.1514670443845785
20
0.9982470964557457
11
0.14861874157334054
21
0.9955964600210452
0
LINE
8
Polygon
10
0.158088965235352
20
0.9295713783960755
11
0.15772199664129405
21
0.9297653137964469
0
LINE
8
Polygon
10
0.15772199664129405
20
0.9297653137964469
11
0.15734589618578404
21
0.9299408852517215
0
LINE
8
Polygon
10
0.15734589618578404
20
0.9299408852517215
11
0.15696158214286185
21
0.9300976640926245
0
LINE
8
Polygon
10
0.15696158214286185
20
0.9300976640926245
11
0.15656999284058218
21
0.9302352675332871
0
LINE
8
Polygon
10
0.15656999284058218
20
0.9302352675332871
11
0.15617208437002467
21
0.9303533596058436
0
LINE
8
Polygon
10
0.15617208437002467
20
0.9303533596058436
11
0.15576882825093474
21
0.9304516519807188
0
LINE
8
Polygon
10
0.15576882825093474
20
0.9304516519807188
11
0.1553612090596939
21
0.9305299046706038
0
LINE
8
Polygon
10
0.1553612090596939
20
0.9305299046706038
11
0.1549502220254118
21
0.9305879266164011
0
LINE
8
Polygon
10
0.1549502220254118
20
0.9305879266164011
11
0.15453687060000879
21
0.9306255761537073
0
LINE
8
Polygon
10
0.15453687060000879
20
0.9306255761537073
11
0.15412216400822182
21
0.9306427613586968
0
LINE
8
Polygon
10
0.15412216400822182
20
0.9306427613586968
11
0.15370711478351595
21
0.9306394402725594
0
LINE
8
Polygon
10
0.15370711478351595
20
0.9306394402725594
11
0.153292736295917
21
0.9306156210039458
0
LINE
8
Polygon
10
0.153292736295917
20
0.9306156210039458
11
0.15288004027780197
21
0.9305713617091694
0
LINE
8
Polygon
10
0.15288004027780197
20
0.9305713617091694
11
0.15247003435368783
21
0.9305067704502143
0
LINE
8
Polygon
10
0.15247003435368783
20
0.9305067704502143
11
0.15206371958004977
21
0.9304220049308947
0
LINE
8
Polygon
10
0.15206371958004977
20
0.9304220049308947
11
0.15166208800117595
21
0.9303172721118101
0
LINE
8
Polygon
10
0.15166208800117595
20
0.9303172721118101
11
0.1512661202270259
21
0.9301928277050385
0
LINE
8
Polygon
10
0.1512661202270259
20
0.9301928277050385
11
0.15087678303900687
21
0.9300489755497974
0
LINE
8
Polygon
10
0.15087678303900687
20
0.9300489755497974
11
0.15049502702951323
21
0.9298860668706008
0
LINE
8
Polygon
10
0.15049502702951323
20
0.9298860668706008
11
0.15012178428099252
21
0.9297044994197216
0
LINE
8
Polygon
10
0.15012178428099252
20
0.9297044994197216
11
0.1497579660902047
21
0.9295047165060528
0
LINE
8
Polygon
10
0.1497579660902047
20
0.9295047165060528
11
0.14940446074323122
21
0.9292872059127402
0
LINE
8
Polygon
10
0.14940446074323122
20
0.9292872059127402
11
0.14906213134666585
21
0.9290524987062269
0
LINE
8
Polygon
10
0.14906213134666585
20
0.9290524987062269
11
0.14873181372028324
21
0.9288011679396203
0
LINE
8
Polygon
10
0.14873181372028324
20
0.9288011679396203
11
0.14841431435632976
21
0.9285338272535449
0
LINE
8
Polygon
10
0.14841431435632976
20
0.9285338272535449
11
0.14811040845041956
21
0.9282511293778986
0
LINE
8
Polygon
10
0.14811040845041956
20
0.9282511293778986
11
0.14782083800884346
21
0.9279537645381688
0
LINE
8
Polygon
10
0.14782083800884346
20
0.9279537645381688
11
0.1475463100369117
21
0.9276424587702025
0
LINE
8
Polygon
10
0.1475463100369117
20
0.9276424587702025
11
0.1472874948127538
21
0.9273179721475411
0
LINE
8
Polygon
10
0.1472874948127538
20
0.9273179721475411
11
0.1470450242507905
21
0.9269810969256513
0
LINE
8
Polygon
10
0.1470450242507905
20
0.9269810969256513
11
0.14681949035887296
21
0.9266326556075809
0
LINE
8
Polygon
10
0.14681949035887296
20
0.9266326556075809
11
0.14661144379285662
21
0.9262734989357636
0
LINE
8
Polygon
10
0.14661144379285662
20
0.9262734989357636
11
0.14642139251213865
21
0.9259045038148751
0
LINE
8
Polygon
10
0.14642139251213865
20
0.9259045038148751
11
0.14624980053944164
21
0.9255265711708126
0
LINE
8
Polygon
10
0.14624980053944164
20
0.9255265711708126
11
0.14609708682787156
21
0.9251406237510252
0
LINE
8
Polygon
10
0.14609708682787156
20
0.9251406237510252
11
0.14596362423801607
21
0.9247476038715647
0
LINE
8
Polygon
10
0.14596362423801607
20
0.9247476038715647
11
0.1458497386275809
21
0.9243484711163592
0
LINE
8
Polygon
10
0.1458497386275809
20
0.9243484711163592
11
0.1457557080557868
21
0.9239441999943259
0
LINE
8
Polygon
10
0.1457557080557868
20
0.9239441999943259
11
0.14568176210446962
21
0.9235357775600426
0
LINE
8
Polygon
10
0.14568176210446962
20
0.9235357775600426
11
0.1456280813175411
21
0.9231242010037899
0
LINE
8
Polygon
10
0.1456280813175411
20
0.9231242010037899
11
0.14559479676017903
21
0.9227104752168448
0
LINE
8
Polygon
10
0.14559479676017903
20
0.9227104752168448
11
0.14558198969882305
21
0.9222956103379728
0
LINE
8
Polygon
10
0.14558198969882305
20
0.9222956103379728
11
0.1455896914027572
21
0.9218806192871071
0
LINE
8
Polygon
10
0.1455896914027572
20
0.9218806192871071
11
0.14561788306776394
21
0.9214665152922383
0
LINE
8
Polygon
10
0.14561788306776394
20
0.9214665152922383
11
0.1456664958620358
21
0.9210543094155516
0
LINE
8
Polygon
10
0.1456664958620358
20
0.9210543094155516
11
0.14573541109423302
21
0.920645008084851
0
LINE
8
Polygon
10
0.14573541109423302
20
0.920645008084851
11
0.14582446050327594
21
0.9202396106363006
0
LINE
8
Polygon
10
0.14582446050327594
20
0.9202396106363006
11
0.14593342666916576
21
0.9198391068744788
0
LINE
8
Polygon
10
0.14593342666916576
20
0.9198391068744788
11
0.14658890266624341
21
0.9176772114369793
0
LINE
8
Polygon
10
0.14658890266624341
20
0.9176772114369793
11
0.1472617996655075
21
0.9155206747936997
0
LINE
8
Polygon
10
0.14726179966550745
20
0.9155206747936999
11
0.14795207386479087
21
0.9133696373241913
0
LINE
8
Polygon
10
0.14795207386479087
20
0.9133696373241913
11
0.14865968033075905
21
0.9112242390500366
0
LINE
8
Polygon
10
0.14865968033075905
20
0.9112242390500366
11
0.14938457300183533
21
0.9090846196257356
0
LINE
8
Polygon
10
0.14938457300183533
20
0.9090846196257356
11
0.1501267046911992
21
0.9069509183296146
0
LINE
8
Polygon
10
0.15012670469119915
20
0.9069509183296147
11
0.1508860270898576
21
0.9048232740547602
0
LINE
8
Polygon
10
0.1508860270898576
20
0.9048232740547602
11
0.15166249076979016
21
0.9027018252999768
0
LINE
8
Polygon
10
0.15166249076979016
20
0.9027018252999768
11
0.1524560451871662
21
0.900586710160773
0
LINE
8
Polygon
10
0.1524560451871662
20
0.900586710160773
11
0.15326663868563528
21
0.8984780663203709
0
LINE
8
Polygon
10
0.15326663868563523
20
0.898478066320371
11
0.1540942184996893
21
0.896376031040744
0
LINE
8
Polygon
10
0.1540942184996893
20
0.896376031040744
11
0.15493873075809778
21
0.8942807411536821
0
LINE
8
Polygon
10
0.15493873075809778
20
0.8942807411536821
11
0.1558001204874142
21
0.8921923330518844
0
LINE
8
Polygon
10
0.1558001204874142
20
0.8921923330518844
11
0.15667833161555483
21
0.890110942680081
0
LINE
8
Polygon
10
0.15667833161555472
20
0.8901109426800811
11
0.15757330697544825
21
0.8880367055261833
0
LINE
8
Polygon
10
0.15757330697544825
20
0.8880367055261833
11
0.1584849883087573
21
0.8859697566124649
0
LINE
8
Polygon
10
0.1584849883087573
20
0.8859697566124649
11
0.15941331626967087
21
0.8839102304867718
0
LINE
8
Polygon
10
0.1594133162696708
20
0.8839102304867719
11
0.16035823042876712
21
0.8818582612137648
0
LINE
8
Polygon
10
0.16035823042876712
20
0.8818582612137648
11
0.16131966927694735
21
0.8798139823661913
0
LINE
8
Polygon
10
0.16131966927694735
20
0.8798139823661913
11
0.16229757022943958
21
0.877777527016192
0
LINE
8
Polygon
10
0.16229757022943958
20
0.877777527016192
11
0.16329186962987285
21
0.8757490277266372
0
LINE
8
Polygon
10
0.1632918696298728
20
0.8757490277266373
11
0.16430250275442065
21
0.8737286165424987
0
LINE
8
Polygon
10
0.16430250275442065
20
0.8737286165424987
11
0.16532940381601444
21
0.871716424982253
0
LINE
8
Polygon
10
0.16532940381601444
20
0.871716424982253
11
0.16637250596862552
21
0.8697125840293218
0
LINE
8
Polygon
10
0.16637250596862546
20
0.869712584029322
11
0.1674317413116169
21
0.8677172241235445
0
LINE
8
Polygon
10
0.1674317413116169
20
0.8677172241235445
11
0.1685070408941631
21
0.8657304751526873
0
LINE
8
Polygon
10
0.1685070408941631
20
0.8657304751526873
11
0.16959833471973831
21
0.8637524664439887
0
LINE
8
Polygon
10
0.16959833471973831
20
0.8637524664439887
11
0.1707055517506731
21
0.8617833267557405
0
LINE
8
Polygon
10
0.17070555175067303
20
0.8617833267557407
11
0.17182861991277829
21
0.8598231842689067
0
LINE
8
Polygon
10
0.17182861991277829
20
0.8598231842689067
11
0.1729674661000371
21
0.8578721665787787
0
LINE
8
Polygon
10
0.1729674661000371
20
0.8578721665787787
11
0.17412201617936346
21
0.8559304006866708
0
LINE
8
Polygon
10
0.17412201617936346
20
0.8559304006866708
11
0.175292194995428
21
0.853998012991652
0
LINE
8
Polygon
10
0.17529219499542792
20
0.8539980129916521
11
0.17647792637555001
21
0.8520751292823187
0
LINE
8
Polygon
10
0.17647792637555001
20
0.8520751292823187
11
0.17767913313465641
21
0.8501618747286057
0
LINE
8
Polygon
10
0.17767913313465641
20
0.8501618747286057
11
0.17889573708030554
21
0.8482583738736396
0
LINE
8
Polygon
10
0.17889573708030554
20
0.8482583738736396
11
0.18012765901777733
21
0.8463647506256301
0
LINE
8
Polygon
10
0.18012765901777728
20
0.8463647506256302
11
0.1813748187552285
21
0.8444811282498057
0
LINE
8
Polygon
10
0.1813748187552285
20
0.8444811282498057
11
0.18263713510891275
21
0.8426076293603885
0
LINE
8
Polygon
10
0.18263713510891275
20
0.8426076293603885
11
0.183914525908465
21
0.8407443759126134
0
LINE
8
Polygon
10
0.18391452590846494
20
0.8407443759126136
11
0.18520690800225062
21
0.8388914891947896
0
LINE
8
Polygon
10
0.18520690800225062
20
0.8388914891947896
11
0.1865141972627783
21
0.8370490898204044
0
LINE
8
Polygon
10
0.1865141972627783
20
0.8370490898204044
11
0.1878363085921758
21
0.8352172977202728
0
LINE
8
Polygon
10
0.1878363085921758
20
0.8352172977202728
11
0.18917315592772982
21
0.8333962321347299
0
LINE
8
Polygon
10
0.18917315592772976
20
0.83339623213473
11
0.1905246522474881
21
0.8315860116058702
0
LINE
8
Polygon
10
0.1905246522474881
20
0.8315860116058702
11
0.19189070957592425
21
0.8297867539698291
0
LINE
8
Polygon
10
0.19189070957592425
20
0.8297867539698291
11
0.1932712389896642
21
0.8279985763491143
0
LINE
8
Polygon
10
0.1932712389896642
20
0.8279985763491143
11
0.19466615062327494
21
0.826221595144981
0
LINE
8
Polygon
10
0.19466615062327486
20
0.826221595144981
11
0.19607535367511408
21
0.8244559260298541
0
LINE
8
Polygon
10
-0.3826508551566936
20
0.7181382086979808
11
-0.45710678118654763
21
0.8106601717798214
0
LINE
8
Polygon
10
-0.45710678118654763
20
0.8106601717798214
11
-0.20710678118654768
21
0.9142135623730953
0
LINE
8
Polygon
10
-0.20710678118654768
20
0.9142135623730953
11
-0.44842051208338735
21
1.0141689824974176
0
LINE
8
Polygon
10
-0.4889685724885667
20
1.296864417529789
11
-0.39644660940672627
21
1.3713203435596428
0
LINE
8
Polygon
10
-0.39644660940672627
20
1.3713203435596428
11
-0.2928932188134524
21
1.1213203435596428
0
LINE
8
Polygon
10
-0.2928932188134524
20
1.1213203435596428
11
-0.19293779868913002
21
1.3626340744564824
0
LINE
8
Polygon
10
0.08975763634324121
20
1.4031821348616618
11
0.16421356237309517
21
1.3106601717798214
0
LINE
8
Polygon
10
0.16421356237309517
20
1.3106601717798214
11
-0.08578643762690483
21
1.2071067811865477
0
LINE
8
Polygon
10
-0.08578643762690483
20
1.2071067811865477
11
0.1555272932699348
21
1.1071513610622252
0
LINE
8
Polygon
10
0.19607535367511408
20
0.8244559260298541
11
0.10355339059327376
21
0.75
0
LINE
8
Polygon
10
0.10355339059327376
20
0.75
11
2.7755575615628914e-17
21
1.0
0
LINE
8
Polygon
10
2.7755575615628914e-17
20
1.0
11
-0.09995542012432237
21
0.7586862691031603
0
ENDSEC
0
EOF
