0
SECTION
2
ENTITIES
0
LINE
8
Polygon
10
-0.5315627072164016
20
0.9031821348616619
11
-0.5309866837011902
21
0.9036469385195502
0
LINE
8
Polygon
10
-0.5309866837011902
20
0.9036469385195502
11
-0.5304118908825124
21
0.9041132632412403
0
LINE
8
Polygon
10
-0.5304118908825124
20
0.9041132632412403
11
-0.52983833277692
21
0.9045811057681363
0
LINE
8
Polygon
10
-0.52983833277692
20
0.9045811057681363
11
-0.5292660133923375
21
0.9050504628310361
0
LINE
8
Polygon
10
-0.5292660133923375
20
0.9050504628310361
11
-0.5286949367280325
21
0.9055213311501542
0
LINE
8
Polygon
10
-0.5286949367280325
20
0.9055213311501542
11
-0.5281251067745893
21
0.9059937074351453
0
LINE
8
Polygon
10
-0.5281251067745893
20
0.9059937074351453
11
-0.5275565275138804
21
0.9064675883851261
0
LINE
8
Polygon
10
-0.5275565275138805
20
0.9064675883851261
11
-0.5269892029190385
21
0.906942970688699
0
LINE
8
Polygon
10
-0.5269892029190385
20
0.906942970688699
11
-0.5264231369544288
21
0.9074198510239755
0
LINE
8
Polygon
10
-0.5264231369544288
20
0.9074198510239755
11
-0.5258583335756216
21
0.9078982260585989
0
LINE
8
Polygon
10
-0.5258583335756216
20
0.9078982260585989
11
-0.5252947967293645
21
0.908378092449768
0
LINE
8
Polygon
10
-0.5252947967293645
20
0.908378092449768
11
-0.5247325303535548
21
0.9088594468442599
0
LINE
8
Polygon
10
-0.5247325303535548
20
0.9088594468442599
11
-0.5241715383772118
21
0.9093422858784542
0
LINE
8
Polygon
10
-0.5241715383772118
20
0.9093422858784542
11
-0.5236118247204496
21
0.9098266061783559
0
LINE
8
Polygon
10
-0.5236118247204496
20
0.9098266061783559
11
-0.5230533932944497
21
0.9103124043596191
0
LINE
8
Polygon
10
-0.5230533932944497
20
0.910312404359619
11
-0.5224962480014335
21
0.9107996770275708
0
LINE
8
Polygon
10
-0.5224962480014335
20
0.9107996770275708
11
-0.5219403927346351
21
0.9112884207772347
0
LINE
8
Polygon
10
-0.5219403927346351
20
0.9112884207772347
11
-0.5213858313782744
21
0.9117786321933545
0
LINE
8
Polygon
10
-0.5213858313782744
20
0.9117786321933545
11
-0.5208325678075293
21
0.9122703078504186
0
LINE
8
Polygon
10
-0.5208325678075293
20
0.9122703078504186
11
-0.5202806058885091
21
0.9127634443126829
0
LINE
8
Polygon
10
-0.5202806058885091
20
0.9127634443126829
11
-0.5197299494782277
21
0.9132580381341959
0
LINE
8
Polygon
10
-0.5197299494782277
20
0.9132580381341959
11
-0.5191806024245759
21
0.9137540858588223
0
LINE
8
Polygon
10
-0.5191806024245759
20
0.9137540858588223
11
-0.5186325685662951
21
0.914251584020267
0
LINE
8
Polygon
10
-0.5186325685662951
20
0.914251584020267
11
-0.5180858517329505
21
0.9147505291420996
0
LINE
8
Polygon
10
-0.5180858517329505
20
0.9147505291420996
11
-0.5175404557449039
21
0.9152509177377786
0
LINE
8
Polygon
10
-0.5175404557449039
20
0.9152509177377786
11
-0.5169963844132873
21
0.9157527463106757
0
LINE
8
Polygon
10
-0.5169963844132874
20
0.9157527463106757
11
-0.5164536415399765
21
0.9162560113541004
0
LINE
8
Polygon
10
-0.5164536415399765
20
0.9162560113541004
11
-0.515912230917564
21
0.9167607093513244
0
LINE
8
Polygon
10
-0.515912230917564
20
0.9167607093513244
11
-0.5153721563293328
21
0.9172668367756057
0
LINE
8
Polygon
10
-0.5153721563293328
20
0.9172668367756057
11
-0.5148334215492298
21
0.9177743900902146
0
LINE
8
Polygon
10
-0.5148334215492298
20
0.9177743900902146
11
-0.51429603034184
21
0.9182833657484568
0
LINE
8
Polygon
10
-0.51429603034184
20
0.9182833657484567
11
-0.5137599864623593
21
0.9187937601936991
0
LINE
8
Polygon
10
-0.5137599864623593
20
0.9187937601936991
11
-0.5132252936565689
21
0.9193055698593942
0
LINE
8
Polygon
10
-0.5132252936565689
20
0.9193055698593942
11
-0.5126919556608088
21
0.9198187911691054
0
LINE
8
Polygon
10
-0.5126919556608088
20
0.9198187911691053
11
-0.5121599762019522
21
0.9203334205365314
0
LINE
8
Polygon
10
-0.5121599762019522
20
0.9203334205365314
11
-0.5116293589973785
21
0.9208494543655323
0
LINE
8
Polygon
10
-0.5116293589973785
20
0.9208494543655323
11
-0.5111001077549483
21
0.9213668890501536
0
LINE
8
Polygon
10
-0.5111001077549483
20
0.9213668890501536
11
-0.510572226172977
21
0.9218857209746518
0
LINE
8
Polygon
10
-0.510572226172977
20
0.9218857209746518
11
-0.5100457179402093
21
0.9224059465135199
0
LINE
8
Polygon
10
-0.5100457179402093
20
0.9224059465135199
11
-0.5095205867357926
21
0.9229275620315126
0
LINE
8
Polygon
10
-0.5095205867357926
20
0.9229275620315126
11
-0.5089968362292523
21
0.9234505638836716
0
LINE
8
Polygon
10
-0.5089968362292523
20
0.9234505638836716
11
-0.5084744700804655
21
0.9239749484153512
0
LINE
8
Polygon
10
-0.5084744700804655
20
0.9239749484153511
11
-0.5079534919396361
21
0.9245007119622435
0
LINE
8
Polygon
10
-0.5079534919396361
20
0.9245007119622435
11
-0.5074339054472683
21
0.9250278508504047
0
LINE
8
Polygon
10
-0.5074339054472683
20
0.9250278508504046
11
-0.5069157142341418
21
0.9255563613962801
0
LINE
8
Polygon
10
-0.5069157142341418
20
0.9255563613962801
11
-0.5063989219212868
21
0.9260862399067302
0
LINE
8
Polygon
10
-0.5063989219212868
20
0.9260862399067302
11
-0.5058835321199575
21
0.9266174826790563
0
LINE
8
Polygon
10
-0.5058835321199575
20
0.9266174826790563
11
-0.5053695484316082
21
0.9271500860010266
0
LINE
8
Polygon
10
-0.5053695484316082
20
0.9271500860010266
11
-0.5050915822151062
21
0.9274257309269998
0
LINE
8
Polygon
10
-0.5050915822151062
20
0.9274257309269998
11
-0.5048010754414453
21
0.927688125967327
0
LINE
8
Polygon
10
-0.5048010754414453
20
0.927688125967327
11
-0.5044986590461424
21
0.9279367012408022
0
LINE
8
Polygon
10
-0.5044986590461424
20
0.9279367012408022
11
-0.5041849898305605
21
0.9281709168806033
0
LINE
8
Polygon
10
-0.5041849898305605
20
0.9281709168806033
11
-0.503860749035437
21
0.9283902642067983
0
LINE
8
Polygon
10
-0.503860749035437
20
0.9283902642067983
11
-0.5035266408613356
21
0.9285942668311193
0
LINE
8
Polygon
10
-0.5035266408613356
20
0.9285942668311193
11
-0.5031833909392321
21
0.9287824816916038
0
LINE
8
Polygon
10
-0.5031833909392321
20
0.9287824816916038
11
-0.5028317447545568
21
0.9289545000148561
0
LINE
8
Polygon
10
-0.5028317447545568
20
0.9289545000148561
11
-0.5024724660281159
21
0.9291099482038394
0
LINE
8
Polygon
10
-0.5024724660281159
20
0.9291099482038394
11
-0.5021063350574089
21
0.9292484886492711
0
LINE
8
Polygon
10
-0.5021063350574089
20
0.9292484886492711
11
-0.501734147021944
21
0.9293698204628568
0
LINE
8
Polygon
10
-0.501734147021944
20
0.9293698204628568
11
-0.5013567102562315
21
0.9294736801307734
0
LINE
8
Polygon
10
-0.5013567102562315
20
0.9294736801307734
11
-0.5009748444942075
21
0.9295598420859801
0
LINE
8
Polygon
10
-0.5009748444942075
20
0.9295598420859801
11
-0.5005893790888989
21
0.9296281191981145
0
LINE
8
Polygon
10
-0.5005893790888989
20
0.9296281191981145
11
-0.5002011512111976
21
0.9296783631799115
0
LINE
8
Polygon
10
-0.5002011512111976
20
0.9296783631799115
11
-0.4998110040316562
21
0.9297104649092589
0
LINE
8
Polygon
10
-0.4998110040316562
20
0.9297104649092589
11
-0.499419784889252
21
0.9297243546661951
0
LINE
8
Polygon
10
-0.499419784889252
20
0.9297243546661951
11
-0.4990283434510989
21
0.9297200022843286
0
LINE
8
Polygon
10
-0.4990283434510989
20
0.9297200022843286
11
-0.4986375298671028
21
0.9296974172163559
0
LINE
8
Polygon
10
-0.4986375298671028
20
0.9296974172163559
11
-0.4982481929235678
21
0.9296566485135308
0
LINE
8
Polygon
10
-0.4982481929235678
20
0.9296566485135308
11
-0.4978611781997647
21
0.9295977847191336
0
LINE
8
Polygon
10
-0.4978611781997647
20
0.9295977847191336
11
-0.4974773262314644
21
0.9295209536761678
0
LINE
8
Polygon
10
-0.4974773262314644
20
0.9295209536761678
11
-0.4970974706854248
21
0.929426322249706
0
LINE
8
Polygon
10
-0.4970974706854248
20
0.929426322249706
11
-0.4967224365487965
21
0.9293140959644842
0
LINE
8
Polygon
10
-0.4967224365487965
20
0.9293140959644842
11
-0.4963530383373788
21
0.9291845185585347
0
LINE
8
Polygon
10
-0.4963530383373788
20
0.9291845185585347
11
-0.49599007832661834
21
0.9290378714538242
0
LINE
8
Polygon
10
-0.49599007832661834
20
0.9290378714538242
11
-0.4956343448091915
21
0.9288744731450497
0
LINE
8
Polygon
10
-0.4956343448091915
20
0.9288744731450497
11
-0.4952866103829554
21
0.9286946785079175
0
LINE
8
Polygon
10
-0.4952866103829554
20
0.9286946785079175
11
-0.49494763027298555
21
0.9284988780284082
0
LINE
8
Polygon
10
-0.49494763027298555
20
0.9284988780284082
11
-0.4946181406913446
21
0.9282874969547019
0
LINE
8
Polygon
10
-0.4946181406913446
20
0.9282874969547019
11
-0.4942988572381438
21
0.9280609943736053
0
LINE
8
Polygon
10
-0.4942988572381438
20
0.9280609943736053
11
-0.49399047334737156
21
0.9278198622134868
0
LINE
8
Polygon
10
-0.49399047334737156
20
0.9278198622134868
11
-0.4936936587808623
21
0.9275646241758844
0
LINE
8
Polygon
10
-0.4936936587808623
20
0.9275646241758844
11
-0.4934090581736779
21
0.9272958345981074
0
LINE
8
Polygon
10
-0.4934090581736779
20
0.9272958345981074
11
-0.49313728963406095
21
0.9270140772493023
0
LINE
8
Polygon
10
-0.49313728963406095
20
0.9270140772493023
11
-0.49287894340099936
21
0.9267199640625967
0
LINE
8
Polygon
10
-0.49287894340099936
20
0.9267199640625967
11
-0.4926345805623196
21
0.9264141338060758
0
LINE
8
Polygon
10
-0.4926345805623196
20
0.9264141338060758
11
-0.49240473183609096
21
0.9260972506954779
0
LINE
8
Polygon
10
-0.49240473183609096
20
0.9260972506954779
11
-0.49218989641798827
21
0.9257700029516203
0
LINE
8
Polygon
10
-0.49218989641798827
20
0.9257700029516203
11
-0.491990540897117
21
0.9254331013056918
0
LINE
8
Polygon
10
-0.491990540897117
20
0.9254331013056918
11
-0.49180709824265406
21
0.9250872774556541
0
LINE
8
Polygon
10
-0.49180709824265406
20
0.9250872774556541
11
-0.49163996686350614
21
0.9247332824771088
0
LINE
8
Polygon
10
-0.49163996686350614
20
0.9247332824771088
11
-0.4914895097430275
21
0.9243718851920768
0
LINE
8
Polygon
10
-0.4914895097430275
20
0.9243718851920768
11
-0.4913560536506767
21
0.9240038704992374
0
LINE
8
Polygon
10
-0.4913560536506767
20
0.9240038704992374
11
-0.491239888432324
21
0.9236300376692501
0
LINE
8
Polygon
10
-0.491239888432324
20
0.9236300376692501
11
-0.49114126638075156
21
0.9232511986088632
0
LINE
8
Polygon
10
-0.49114126638075156
20
0.9232511986088632
11
-0.4910604016877123
21
0.9228681760975784
0
LINE
8
Polygon
10
-0.4910604016877123
20
0.9228681760975784
11
-0.49099746997873916
21
0.9224818020007022
0
LINE
8
Polygon
10
-0.49099746997873916
20
0.9224818020007021
11
-0.49022844782331054
21
0.9184248342952468
0
LINE
8
Polygon
10
-0.49022844782331054
20
0.9184248342952468
11
-0.489064765528129
21
0.9144629880646962
0
LINE
8
Polygon
10
-0.489064765528129
20
0.9144629880646962
11
-0.48751767095470494
21
0.910634557522094
0
LINE
8
Polygon
10
-0.48751767095470494
20
0.910634557522094
11
-0.48560211793156827
21
0.906976547317871
0
LINE
8
Polygon
10
-0.48560211793156827
20
0.906976547317871
11
-0.4833366217143085
21
0.9035243148621651
0
LINE
8
Polygon
10
-0.4833366217143085
20
0.9035243148621651
11
-0.480743080021753
21
0.9003112285689536
0
LINE
8
Polygon
10
-0.480743080021753
20
0.9003112285689536
11
-0.47784656137810294
21
0.8973683453253241
0
LINE
8
Polygon
10
-0.47784656137810294
20
0.8973683453253241
11
-0.47467506280685984
21
0.8947241103033848
0
LINE
8
Polygon
10
-0.47467506280685984
20
0.8947241103033848
11
-0.4712592392186102
21
0.892404082016358
0
LINE
8
Polygon
10
-0.4712592392186102
20
0.892404082016358
11
-0.46763210710834047
21
0.8904306852763947
0
LINE
8
Polygon
10
-0.46763210710834047
20
0.8904306852763947
11
-0.4638287254262689
21
0.8888229944419586
0
LINE
8
Polygon
10
-0.4638287254262689
20
0.8888229944419586
11
-0.45988585670681614
21
0.8875965490498565
0
LINE
8
Polygon
10
-0.45988585670681614
20
0.8875965490498565
11
-0.45584161173115845
21
0.8867632036139688
0
LINE
8
Polygon
10
-0.45584161173115845
20
0.8867632036139688
11
-0.45173508115796523
21
0.8863310130424882
0
LINE
8
Polygon
10
-0.45173508115796523
20
0.8863310130424882
11
-0.4476059576828863
21
0.8863041547811955
0
LINE
8
Polygon
10
-0.4476059576828863
20
0.8863041547811955
11
-0.44349415237890066
21
0.8866828884353152
0
LINE
8
Polygon
10
-0.44349415237890066
20
0.8866828884353152
11
-0.4394394089258844
21
0.8874635532602363
0
LINE
8
Polygon
10
-0.4394394089258844
20
0.8874635532602363
11
-0.4354809194581587
21
0.8886386035453527
0
LINE
8
Polygon
10
-0.4354809194581587
20
0.8886386035453527
11
-0.43165694574313895
21
0.8901966815490117
0
LINE
8
Polygon
10
-0.43165694574313895
20
0.8901966815490117
11
-0.4280044493526772
21
0.8921227272795983
0
LINE
8
Polygon
10
-0.4280044493526772
20
0.8921227272795983
11
-0.42455873440176883
21
0.8943981240616418
0
LINE
8
Polygon
10
-0.42455873440176883
20
0.8943981240616418
11
-0.4213531063078228
21
0.8970008784799363
0
LINE
8
Polygon
10
-0.4213531063078228
20
0.8970008784799363
11
-0.41841854986884114
21
0.8999058329623816
0
LINE
8
Polygon
10
-0.41841854986884114
20
0.8999058329623816
11
-0.4157834297721247
21
0.9030849089467721
0
LINE
8
Polygon
10
-0.4157834297721247
20
0.9030849089467721
11
-0.41347321642831214
21
0.9065073782811441
0
LINE
8
Polygon
10
-0.41347321642831214
20
0.9065073782811441
11
-0.4115102397807724
21
0.9101401602343945
0
LINE
8
Polygon
10
-0.4115102397807724
20
0.9101401602343945
11
-0.4099134734699667
21
0.9139481412463382
0
LINE
8
Polygon
10
-0.4099134734699667
20
0.9139481412463382
11
-0.40869835143899347
21
0.9178945143265842
0
LINE
8
Polygon
10
-0.40869835143899347
20
0.9178945143265842
11
-0.40787661875296133
21
0.921941134821683
0
LINE
8
Polygon
10
-0.40787661875296133
20
0.921941134821683
11
-0.4074562180741325
21
0.9260488891117895
0
LINE
8
Polygon
10
-0.4074562180741325
20
0.9260488891117895
11
-0.4074412128901393
21
0.9301780726731126
0
LINE
8
Polygon
10
-0.4074412128901393
20
0.9301780726731126
11
-0.40783174823733065
21
0.9342887738518948
0
LINE
8
Polygon
10
-0.40783174823733065
20
0.9342887738518948
11
-0.4086240492988873
21
0.9383412596404576
0
LINE
8
Polygon
10
-0.4086240492988873
20
0.9383412596404576
11
-0.4098104578912553
21
0.9422963597264987
0
LINE
8
Polygon
10
-0.4098104578912553
20
0.9422963597264987
11
-0.41137950648622956
21
0.9461158451035171
0
LINE
8
Polygon
10
-0.41137950648622956
20
0.9461158451035171
11
-0.41331602905320836
21
0.9497627975828111
0
LINE
8
Polygon
10
-0.41331602905320836
20
0.9497627975828111
11
-0.41560130765024517
21
0.9532019666354419
0
LINE
8
Polygon
10
-0.41560130765024517
20
0.9532019666354419
11
-0.4182132533469862
21
0.956400110115013
0
LINE
8
Polygon
10
-0.4182132533469862
20
0.956400110115013
11
-0.42112661973073673
21
0.9593263155679298
0
LINE
8
Polygon
10
-0.42112661973073673
20
0.9593263155679298
11
-0.4243132469319606
21
0.9619522990254306
0
LINE
8
Polygon
10
-0.4243132469319606
20
0.9619522990254306
11
-0.4277423338105243
21
0.9642526783893419
0
LINE
8
Polygon
10
-0.4277423338105243
20
0.9642526783893419
11
-0.4313807356718002
21
0.9662052187690809
0
LINE
8
Polygon
10
-0.4313807356718002
20
0.9662052187690809
11
-0.4351932846349805
21
0.9677910473985363
0
LINE
8
Polygon
10
-0.4351932846349805
20
0.9677910473985363
11
-0.4391431295570022
21
0.968994836055497
0
LINE
8
Polygon
10
-0.4391431295570022
20
0.968994836055497
11
-0.4431920922264628
21
0.969804949220408
0
LINE
8
Polygon
10
-0.4431920922264628
20
0.969804949220408
11
-0.4473010363846465
21
0.9702135565423873
0
LINE
8
Polygon
10
-0.4473010363846465
20
0.9702135565423873
11
-0.4514302460067958
21
0.9702167085254348
0
LINE
8
Polygon
10
-0.4514302460067958
20
0.9702167085254348
11
-0.4555398091872557
21
0.9698143747032725
0
LINE
8
Polygon
10
-0.4555398091872557
20
0.9698143747032726
11
-0.45592829496943166
21
0.9697661653703757
0
LINE
8
Polygon
10
-0.45592829496943166
20
0.9697661653703757
11
-0.45631860497828125
21
0.9697361080963302
0
LINE
8
Polygon
10
-0.45631860497828125
20
0.9697361080963302
11
-0.45670989152118713
21
0.9697242681608588
0
LINE
8
Polygon
10
-0.45670989152118713
20
0.9697242681608588
11
-0.457101304784652
21
0.9697306712784596
0
LINE
8
Polygon
10
-0.457101304784652
20
0.9697306712784596
11
-0.4574919946799611
21
0.9697553035425571
0
LINE
8
Polygon
10
-0.4574919946799611
20
0.9697553035425571
11
-0.45788111268944287
21
0.9697981114557062
0
LINE
8
Polygon
10
-0.45788111268944287
20
0.9697981114557062
11
-0.4582678137093172
21
0.9698590020457789
0
LINE
8
Polygon
10
-0.4582678137093172
20
0.9698590020457789
11
-0.4586512578851293
21
0.9699378430678867
0
LINE
8
Polygon
10
-0.4586512578851293
20
0.9699378430678867
11
-0.4590306124357831
21
0.9700344632915952
0
LINE
8
Polygon
10
-0.4590306124357831
20
0.9700344632915952
11
-0.4594050534622121
21
0.97014865287281
0
LINE
8
Polygon
10
-0.4594050534622121
20
0.97014865287281
11
-0.45977376773676004
21
0.9702801638095256
0
LINE
8
Polygon
10
-0.45977376773676004
20
0.9702801638095256
11
-0.46013595446938477
21
0.9704287104804471
0
LINE
8
Polygon
10
-0.46013595446938477
20
0.9704287104804471
11
-0.4604908270468497
21
0.9705939702653151
0
LINE
8
Polygon
10
-0.4604908270468497
20
0.9705939702653151
11
-0.46083761474112533
21
0.970775584245587
0
LINE
8
Polygon
10
-0.46083761474112533
20
0.970775584245587
11
-0.4611755643832907
21
0.9709731579839519
0
LINE
8
Polygon
10
-0.4611755643832907
20
0.9709731579839519
11
-0.4615039419992991
21
0.9711862623809874
0
LINE
8
Polygon
10
-0.4615039419992991
20
0.9711862623809874
11
-0.4618220344040554
21
0.9714144346070965
0
LINE
8
Polygon
10
-0.4618220344040554
20
0.9714144346070965
11
-0.4621291507503432
21
0.9716571791077018
0
LINE
8
Polygon
10
-0.4621291507503432
20
0.9716571791077018
11
-0.46242462402923756
21
0.9719139686795123
0
LINE
8
Polygon
10
-0.46242462402923756
20
0.9719139686795123
11
-0.4627078125187445
21
0.9721842456155279
0
LINE
8
Polygon
10
-0.4627078125187445
20
0.9721842456155279
11
-0.46297810117752153
21
0.9724674229162915
0
LINE
8
Polygon
10
-0.46297810117752153
20
0.9724674229162915
11
-0.46323490298065145
21
0.9727628855647606
0
LINE
8
Polygon
10
-0.46323490298065145
20
0.9727628855647606
11
-0.46347766019456954
21
0.9730699918620291
0
LINE
8
Polygon
10
-0.46347766019456954
20
0.9730699918620291
11
-0.4637058455883737
21
0.9733880748209969
0
LINE
8
Polygon
10
-0.4637058455883737
20
0.9733880748209969
11
-0.4639189635788882
21
0.9737164436149623
0
LINE
8
Polygon
10
-0.4639189635788882
20
0.9737164436149623
11
-0.4641165513069931
21
0.9740543850779904
0
LINE
8
Polygon
10
-0.4641165513069931
20
0.9740543850779904
11
-0.4642981796428825
21
0.9744011652537982
0
LINE
8
Polygon
10
-0.4642981796428825
20
0.9744011652537982
11
-0.46446345411806733
21
0.9747560309897936
0
LINE
8
Polygon
10
-0.46446345411806733
20
0.9747560309897936
11
-0.4646120157820999
21
0.9751182115728059
0
LINE
8
Polygon
10
-0.4646120157820999
20
0.9751182115728059
11
-0.4647435419821581
21
0.9754869204029544
0
LINE
8
Polygon
10
-0.4647435419821581
20
0.9754869204029544
11
-0.46485774706379746
21
0.9758613567020213
0
LINE
8
Polygon
10
-0.46485774706379746
20
0.9758613567020213
11
-0.46495438299134795
21
0.9762407072526176
0
LINE
8
Polygon
10
-0.46495438299134795
20
0.9762407072526176
11
-0.4650332398866089
21
0.9766241481643642
0
LINE
8
Polygon
10
-0.4650332398866089
20
0.9766241481643642
11
-0.4650941464846718
21
0.977010846663254
0
LINE
8
Polygon
10
-0.4650941464846718
20
0.977010846663254
11
-0.4651369705058812
21
0.9773999629003075
0
LINE
8
Polygon
10
-0.4651369705058812
20
0.9773999629003075
11
-0.4651616189431253
21
0.977790651775594
0
LINE
8
Polygon
10
-0.4651616189431253
20
0.977790651775594
11
-0.465168038263833
21
0.9781820647736572
0
LINE
8
Polygon
10
-0.465168038263833
20
0.9781820647736572
11
-0.46515621452623845
21
0.978573351806359
0
LINE
8
Polygon
10
-0.46515621452623845
20
0.978573351806359
11
-0.4651261734096602
21
0.9789636630591381
0
LINE
8
Polygon
10
-0.4651261734096602
20
0.9789636630591381
11
-0.46507798015873
21
0.9793521508366755
0
LINE
8
Polygon
10
-0.46507798015873
20
0.9793521508366755
11
-0.46501173944169105
21
0.979737971403957
0
LINE
8
Polygon
10
-0.46501173944169105
20
0.979737971403957
11
-0.4649275951230756
21
0.9801202868187338
0
LINE
8
Polygon
10
-0.4649275951230756
20
0.9801202868187338
11
-0.464825729951253
21
0.9804982667514032
0
LINE
8
Polygon
10
-0.464825729951253
20
0.9804982667514032
11
-0.4647063651615289
21
0.9808710902883552
0
LINE
8
Polygon
10
-0.4647063651615289
20
0.9808710902883552
11
-0.4645697599956567
21
0.9812379477148688
0
LINE
8
Polygon
10
-0.4645697599956567
20
0.9812379477148688
11
-0.46441621113880444
21
0.9815980422736872
0
LINE
8
Polygon
10
-0.46441621113880444
20
0.9815980422736872
11
-0.46424605207520103
21
0.9819505918954496
0
LINE
8
Polygon
10
-0.46424605207520103
20
0.9819505918954496
11
-0.46405965236386043
21
0.982294830897225
0
LINE
8
Polygon
10
-0.4640596523638604
20
0.982294830897225
11
-0.4636929949383011
21
0.9829377989078952
0
LINE
8
Polygon
10
-0.4636929949383011
20
0.9829377989078952
11
-0.46332803844583925
21
0.9835817339116595
0
LINE
8
Polygon
10
-0.46332803844583925
20
0.9835817339116595
11
-0.46296478543672737
21
0.9842266314088124
0
LINE
8
Polygon
10
-0.46296478543672737
20
0.9842266314088124
11
-0.46260323844931406
21
0.9848724868929227
0
LINE
8
Polygon
10
-0.46260323844931406
20
0.9848724868929227
11
-0.4622434000100267
21
0.9855192958508648
0
LINE
8
Polygon
10
-0.46224340001002673
20
0.9855192958508647
11
-0.4618852726333535
21
0.9861670537628505
0
LINE
8
Polygon
10
-0.4618852726333535
20
0.9861670537628505
11
-0.46152885882182615
21
0.9868157561024605
0
LINE
8
Polygon
10
-0.46152885882182615
20
0.9868157561024605
11
-0.4611741610660022
21
0.9874653983366759
0
LINE
8
Polygon
10
-0.4611741610660022
20
0.9874653983366759
11
-0.4608211818444477
21
0.9881159759259102
0
LINE
8
Polygon
10
-0.4608211818444477
20
0.9881159759259102
11
-0.46046992362372
21
0.9887674843240403
0
LINE
8
Polygon
10
-0.46046992362372
20
0.9887674843240403
11
-0.46012038885835027
21
0.9894199189784394
0
LINE
8
Polygon
10
-0.46012038885835027
20
0.9894199189784394
11
-0.45977257999082644
21
0.9900732753300077
0
LINE
8
Polygon
10
-0.45977257999082644
20
0.9900732753300077
11
-0.4594264994515763
21
0.9907275488132051
0
LINE
8
Polygon
10
-0.4594264994515763
20
0.9907275488132051
11
-0.4590821496589502
21
0.9913827348560825
0
LINE
8
Polygon
10
-0.4590821496589502
20
0.9913827348560825
11
-0.45873953301920467
21
0.9920388288803141
0
LINE
8
Polygon
10
-0.45873953301920467
20
0.9920388288803141
11
-0.45839865192648493
21
0.9926958263012293
0
LINE
8
Polygon
10
-0.45839865192648493
20
0.9926958263012293
11
-0.4580595087628086
21
0.9933537225278445
0
LINE
8
Polygon
10
-0.4580595087628086
20
0.9933537225278445
11
-0.45772210589804896
21
0.9940125129628956
0
LINE
8
Polygon
10
-0.45772210589804896
20
0.9940125129628956
11
-0.4573864456899185
21
0.9946721930028701
0
LINE
8
Polygon
10
-0.4573864456899185
20
0.9946721930028701
11
-0.4570525304839521
21
0.9953327580380388
0
LINE
8
Polygon
10
-0.4570525304839521
20
0.9953327580380388
11
-0.4567203626134911
21
0.9959942034524883
0
LINE
8
Polygon
10
-0.4567203626134911
20
0.9959942034524883
11
-0.4563899443996666
21
0.9966565246241536
0
LINE
8
Polygon
10
-0.45638994439966657
20
0.9966565246241536
11
-0.45606127815138353
21
0.9973197169248496
0
LINE
8
Polygon
10
-0.45606127815138353
20
0.9973197169248496
11
-0.45573436616530427
21
0.9979837757203043
0
LINE
8
Polygon
10
-0.45573436616530427
20
0.9979837757203043
11
-0.45540921072583285
21
0.9986486963701904
0
LINE
8
Polygon
10
-0.45540921072583285
20
0.9986486963701904
11
-0.4550858141050987
21
0.9993144742281586
0
LINE
8
Polygon
10
-0.4550858141050987
20
0.9993144742281586
11
-0.45476417856294105
21
0.9999811046418691
0
LINE
8
Polygon
10
-0.45476417856294105
20
0.9999811046418692
11
-0.45444430634689303
21
1.000648582953025
0
LINE
8
Polygon
10
-0.45444430634689303
20
1.000648582953025
11
-0.4541261996921659
21
1.001316904497404
0
LINE
8
Polygon
10
-0.4541261996921659
20
1.001316904497404
11
-0.45380986082163344
21
1.001986064604892
0
LINE
8
Polygon
10
-0.45380986082163344
20
1.001986064604892
11
-0.45349529194581656
21
1.0026560585995146
0
LINE
8
Polygon
10
-0.45349529194581656
20
1.0026560585995146
11
-0.45318249526286775
21
1.0033268817994705
0
LINE
8
Polygon
10
-0.45318249526286775
20
1.0033268817994705
11
-0.4528714729585557
21
1.0039985295171643
0
LINE
8
Polygon
10
-0.4528714729585557
20
1.0039985295171643
11
-0.45256222720624995
21
1.004670997059239
0
LINE
8
Polygon
10
-0.45256222720624995
20
1.004670997059239
11
-0.452254760166906
21
1.0053442797266081
0
LINE
8
Polygon
10
-0.45225476016690597
20
1.0053442797266081
11
-0.4519490739890498
21
1.0060183728144905
0
LINE
8
Polygon
10
-0.4519490739890498
20
1.0060183728144905
11
-0.4516451708087632
21
1.0066932716124406
0
LINE
8
Polygon
10
-0.4516451708087632
20
1.0066932716124406
11
-0.45134305274966857
21
1.0073689714043836
0
LINE
8
Polygon
10
-0.45134305274966857
20
1.0073689714043836
11
-0.4510427219229142
21
1.0080454674686472
0
LINE
8
Polygon
10
-0.4510427219229142
20
1.0080454674686472
11
-0.4507441804271596
21
1.0087227550779945
0
LINE
8
Polygon
10
-0.4507441804271596
20
1.0087227550779945
11
-0.45044743034856066
21
1.0094008294996581
0
LINE
8
Polygon
10
-0.45044743034856066
20
1.0094008294996581
11
-0.4501524737607552
21
1.0100796859953722
0
LINE
8
Polygon
10
-0.4501524737607552
20
1.0100796859953722
11
-0.44985931272484836
21
1.0107593198214058
0
LINE
8
Polygon
10
-0.44985931272484836
20
1.0107593198214058
11
-0.44956794928939847
21
1.0114397262285961
0
LINE
8
Polygon
10
-0.44956794928939847
20
1.0114397262285961
11
-0.4492783854904023
21
1.0121209004623821
0
LINE
8
Polygon
10
-0.4492783854904023
20
1.0121209004623821
11
-0.44899062335128126
21
1.0128028377628366
0
LINE
8
Polygon
10
-0.44899062335128126
20
1.0128028377628366
11
-0.448704664882867
21
1.0134855333647013
0
LINE
8
Polygon
10
-0.448704664882867
20
1.0134855333647013
11
-0.44842051208338735
21
1.0141689824974176
0
LINE
8
Polygon
10
-0.44842051208338735
20
1.0141689824974176
11
-0.20710678118654768
21
0.9142135623730953
0
LINE
8
Polygon
10
-0.20710678118654768
20
0.9142135623730953
11
-0.45710678118654763
21
0.8106601717798214
0
LINE
8
Polygon
10
-0.45710678118654763
20
0.8106601717798214
11
-0.5315627072164016
21
0.9031821348616619
0
ENDSEC
0
EOF
