0
SECTION
2
ENTITIES
0
LINE
8
Polygon
10
-0.44842051208338735
20
1.0141689824974176
11
-0.4475644263595372
21
1.016259570428801
0
LINE
8
Polygon
10
-0.4475644263595372
20
1.016259570428801
11
-0.44672523552099347
21
1.0183569972813826
0
LINE
8
Polygon
10
-0.44672523552099347
20
1.0183569972813826
11
-0.4459029941948053
21
1.0204611265233576
0
LINE
8
Polygon
10
-0.4459029941948053
20
1.0204611265233576
11
-0.44509775590469486
21
1.02257182118663
0
LINE
8
Polygon
10
-0.44509775590469486
20
1.02257182118663
11
-0.4443095730675734
21
1.0246889438757278
0
LINE
8
Polygon
10
-0.4443095730675734
20
1.0246889438757278
11
-0.44353849699012887
21
1.026812356776748
0
LINE
8
Polygon
10
-0.44353849699012887
20
1.026812356776748
11
-0.4427845778654865
21
1.0289419216663263
0
LINE
8
Polygon
10
-0.4427845778654865
20
1.0289419216663263
11
-0.44204786476994107
21
1.0310774999206354
0
LINE
8
Polygon
10
-0.44204786476994107
20
1.0310774999206354
11
-0.44132840565976267
21
1.0332189525244087
0
LINE
8
Polygon
10
-0.44132840565976267
20
1.0332189525244087
11
-0.44062624736807476
21
1.0353661400799892
0
LINE
8
Polygon
10
-0.44062624736807476
20
1.0353661400799892
11
-0.4399414356018056
21
1.037518922816404
0
LINE
8
Polygon
10
-0.4399414356018056
20
1.037518922816404
11
-0.43927401493871315
21
1.039677160598462
0
LINE
8
Polygon
10
-0.43927401493871315
20
1.039677160598462
11
-0.4386240288244829
21
1.041840712935877
0
LINE
8
Polygon
10
-0.4386240288244829
20
1.041840712935877
11
-0.43799151956990034
21
1.044009438992412
0
LINE
8
Polygon
10
-0.43799151956990034
20
1.044009438992412
11
-0.4373765283480961
21
1.0461831975950469
0
LINE
8
Polygon
10
-0.4373765283480961
20
1.0461831975950469
11
-0.4367790951918662
21
1.0483618472431693
0
LINE
8
Polygon
10
-0.4367790951918662
20
1.0483618472431693
11
-0.4361992589910661
21
1.0505452461177835
0
LINE
8
Polygon
10
-0.4361992589910661
20
1.0505452461177835
11
-0.435637057490079
21
1.0527332520907449
0
LINE
8
Polygon
10
-0.435637057490079
20
1.0527332520907449
11
-0.43509252728535913
21
1.0549257227340088
0
LINE
8
Polygon
10
-0.43509252728535913
20
1.0549257227340088
11
-0.43456570382304904
21
1.0571225153289037
0
LINE
8
Polygon
10
-0.43456570382304904
20
1.0571225153289037
11
-0.4340566213966729
21
1.0593234868754215
0
LINE
8
Polygon
10
-0.4340566213966729
20
1.0593234868754215
11
-0.4335653131449036
21
1.0615284941015253
0
LINE
8
Polygon
10
-0.4335653131449036
20
1.0615284941015253
11
-0.4330918110494057
21
1.0637373934724756
0
LINE
8
Polygon
10
-0.4330918110494057
20
1.0637373934724756
11
-0.4326361459327539
21
1.0659500412001748
0
LINE
8
Polygon
10
-0.4326361459327539
20
1.0659500412001748
11
-0.4321983474564263
21
1.0681662932525262
0
LINE
8
Polygon
10
-0.4321983474564263
20
1.0681662932525262
11
-0.43177844411887384
21
1.0703860053628094
0
LINE
8
Polygon
10
-0.43177844411887384
20
1.0703860053628094
11
-0.4313764632536649
21
1.0726090330390725
0
LINE
8
Polygon
10
-0.4313764632536649
20
1.0726090330390725
11
-0.4309924310277064
21
1.074835231573537
0
LINE
8
Polygon
10
-0.4309924310277064
20
1.074835231573537
11
-0.43062637243954005
21
1.0770644560520173
0
LINE
8
Polygon
10
-0.43062637243954005
20
1.0770644560520173
11
-0.4302783113177155
21
1.0792965613633545
0
LINE
8
Polygon
10
-0.4302783113177155
20
1.0792965613633545
11
-0.42994827031923877
21
1.0815314022088625
0
LINE
8
Polygon
10
-0.42994827031923877
20
1.0815314022088625
11
-0.429636270928098
21
1.0837688331117852
0
LINE
8
Polygon
10
-0.429636270928098
20
1.0837688331117852
11
-0.4293423334538641
21
1.0860087084267676
0
LINE
8
Polygon
10
-0.4293423334538641
20
1.0860087084267676
11
-0.4290664770303697
21
1.0882508823493353
0
LINE
8
Polygon
10
-0.4290664770303697
20
1.0882508823493353
11
-0.4288087196144627
21
1.0904952089253868
0
LINE
8
Polygon
10
-0.4288087196144627
20
1.0904952089253868
11
-0.42856907798483806
21
1.0927415420606934
0
LINE
8
Polygon
10
-0.42856907798483806
20
1.0927415420606934
11
-0.4283475677409453
21
1.0949897355304101
0
LINE
8
Polygon
10
-0.4283475677409453
20
1.0949897355304101
11
-0.4281442033019729
21
1.0972396429885931
0
LINE
8
Polygon
10
-0.4281442033019729
20
1.0972396429885931
11
-0.42795899790591
21
1.099491117977727
0
LINE
8
Polygon
10
-0.42795899790591
20
1.099491117977727
11
-0.42779196360868466
21
1.101744013938258
0
LINE
8
Polygon
10
-0.42779196360868466
20
1.101744013938258
11
-0.42764311128337873
21
1.1039981842181341
0
LINE
8
Polygon
10
-0.42764311128337873
20
1.1039981842181341
11
-0.42751245061952037
21
1.106253482082352
0
LINE
8
Polygon
10
-0.42751245061952037
20
1.106253482082352
11
-0.42739999012245333
21
1.1085097607225083
0
LINE
8
Polygon
10
-0.42739999012245333
20
1.1085097607225083
11
-0.42730573711278313
21
1.1107668732663558
0
LINE
8
Polygon
10
-0.42730573711278313
20
1.1107668732663558
11
-0.42722969772590064
21
1.113024672787365
0
LINE
8
Polygon
10
-0.42722969772590064
20
1.113024672787365
11
-0.4271718769115826
21
1.1152830123142867
0
LINE
8
Polygon
10
-0.4271718769115826
20
1.1152830123142867
11
-0.4271322784336695
21
1.1175417448407212
0
LINE
8
Polygon
10
-0.4271322784336695
20
1.1175417448407212
11
-0.4271109048698206
21
1.1198007233346858
0
LINE
8
Polygon
10
-0.4271109048698206
20
1.1198007233346858
11
-0.4271189073495691
21
1.1202157086945
0
LINE
8
Polygon
10
-0.4271189073495691
20
1.1202157086945
11
-0.4271473991420865
21
1.1206297921478052
0
LINE
8
Polygon
10
-0.4271473991420865
20
1.1206297921478052
11
-0.4271963106827845
21
1.1210419626825703
0
LINE
8
Polygon
10
-0.4271963106827845
20
1.1210419626825703
11
-0.42726552255091405
21
1.1214512139572808
0
LINE
8
Polygon
10
-0.42726552255091405
20
1.1214512139572808
11
-0.42735486576113946
21
1.1218565467579875
0
LINE
8
Polygon
10
-0.42735486576113946
20
1.1218565467579875
11
-0.4274641221761269
21
1.1222569714379538
0
LINE
8
Polygon
10
-0.4274641221761269
20
1.1222569714379538
11
-0.4275930250391414
21
1.1226515103339436
0
LINE
8
Polygon
10
-0.4275930250391414
20
1.1226515103339436
11
-0.42774125962535053
21
1.1230392001532494
0
LINE
8
Polygon
10
-0.42774125962535053
20
1.1230392001532494
11
-0.4279084640102464
21
1.1234190943256366
0
LINE
8
Polygon
10
-0.4279084640102464
20
1.1234190943256366
11
-0.4280942299533077
21
1.1237902653144551
0
LINE
8
Polygon
10
-0.4280942299533077
20
1.1237902653144551
11
-0.42829810389474604
21
1.1241518068812832
0
LINE
8
Polygon
10
-0.42829810389474604
20
1.1241518068812832
11
-0.4285195880629021
21
1.1245028362985667
0
LINE
8
Polygon
10
-0.4285195880629021
20
1.1245028362985667
11
-0.4287581416895877
21
1.1248424965048571
0
LINE
8
Polygon
10
-0.4287581416895877
20
1.1248424965048571
11
-0.4290131823304073
21
1.1251699581973837
0
LINE
8
Polygon
10
-0.4290131823304073
20
1.1251699581973837
11
-0.4292840872868341
21
1.125484421856851
0
LINE
8
Polygon
10
-0.4292840872868341
20
1.125484421856851
11
-0.4295701951265694
21
1.125785119699517
0
LINE
8
Polygon
10
-0.4295701951265694
20
1.125785119699517
11
-0.4298708072984737
21
1.126071317551789
0
LINE
8
Polygon
10
-0.4298708072984737
20
1.126071317551789
11
-0.4301851898381247
21
1.1263423166427555
0
LINE
8
Polygon
10
-0.4301851898381247
20
1.1263423166427555
11
-0.43051257515984004
21
1.1265974553102824
0
LINE
8
Polygon
10
-0.43051257515984004
20
1.1265974553102824
11
-0.4308521639307884
21
1.1268361106165043
0
LINE
8
Polygon
10
-0.4308521639307884
20
1.1268361106165043
11
-0.4312031270226132
21
1.127057699868768
0
LINE
8
Polygon
10
-0.4312031270226132
20
1.127057699868768
11
-0.43156460753580406
21
1.127261682042316
0
LINE
8
Polygon
10
-0.43156460753580406
20
1.127261682042316
11
-0.43193572289187343
21
1.127447559101233
0
LINE
8
Polygon
10
-0.43193572289187343
20
1.127447559101233
11
-0.4323155669882301
21
1.1276148772144339
0
LINE
8
Polygon
10
-0.4323155669882301
20
1.1276148772144339
11
-0.4327032124104884
21
1.1277632278637222
0
LINE
8
Polygon
10
-0.4327032124104884
20
1.1277632278637222
11
-0.4330977126968116
21
1.1278922488412142
0
LINE
8
Polygon
10
-0.4330977126968116
20
1.1278922488412142
11
-0.43349810464876065
21
1.1280016251336935
0
LINE
8
Polygon
10
-0.43349810464876065
20
1.1280016251336935
11
-0.43390341068300675
21
1.1280910896917362
0
LINE
8
Polygon
10
-0.43390341068300675
20
1.1280910896917362
11
-0.4343126412181655
21
1.1281604240817298
0
LINE
8
Polygon
10
-0.4343126412181655
20
1.1281604240817298
11
-0.4347247970909248
21
1.1282094590191933
0
LINE
8
Polygon
10
-0.4347247970909248
20
1.1282094590191933
11
-0.4351388719955684
21
1.1282380747820966
0
LINE
8
Polygon
10
-0.4351388719955684
20
1.1282380747820966
11
-0.43555385494093685
21
1.1282462015031691
0
LINE
8
Polygon
10
-0.43555385494093685
20
1.1282462015031691
11
-0.4359687327188298
21
1.1282338193404862
0
LINE
8
Polygon
10
-0.4359687327188298
20
1.1282338193404862
11
-0.43638249237782
21
1.1282009585259136
0
LINE
8
Polygon
10
-0.43638249237782
20
1.1282009585259136
11
-0.4367941236964413
21
1.1281476992912949
0
LINE
8
Polygon
10
-0.4367941236964413
20
1.1281476992912949
11
-0.43720262164971074
21
1.1280741716725604
0
LINE
8
Polygon
10
-0.43720262164971074
20
1.1280741716725604
11
-0.4376069888629633
21
1.1279805551922353
0
LINE
8
Polygon
10
-0.4376069888629633
20
1.1279805551922353
11
-0.4380062380470078
21
1.1278670784211238
0
LINE
8
Polygon
10
-0.4380062380470078
20
1.1278670784211238
11
-0.4383993944086585
21
1.1277340184202382
0
LINE
8
Polygon
10
-0.4383993944086585
20
1.1277340184202382
11
-0.4387854980307571
21
1.1275817000643371
0
LINE
8
Polygon
10
-0.4387854980307571
20
1.1275817000643371
11
-0.43916360621587347
21
1.1274104952487212
0
LINE
8
Polygon
10
-0.43916360621587347
20
1.1274104952487212
11
-0.4395327957879636
21
1.1272208219812268
0
LINE
8
Polygon
10
-0.4395327957879636
20
1.1272208219812268
11
-0.4398921653463648
21
1.1270131433616324
0
LINE
8
Polygon
10
-0.4398921653463648
20
1.1270131433616324
11
-0.4402408374666247
21
1.12678796645097
0
LINE
8
Polygon
10
-0.4402408374666247
20
1.12678796645097
11
-0.44057796084279083
21
1.126545841033501
0
LINE
8
Polygon
10
-0.44057796084279083
20
1.126545841033501
11
-0.4409027123659305
21
1.1262873582743844
0
LINE
8
Polygon
10
-0.4409027123659305
20
1.1262873582743844
11
-0.441214299133805
21
1.1260131492763052
0
LINE
8
Polygon
10
-0.441214299133805
20
1.1260131492763052
11
-0.4415119603867931
21
1.1257238835385974
0
LINE
8
Polygon
10
-0.4509821840488044
20
1.191748965163567
11
-0.45446070496703617
21
1.1934921216783103
0
LINE
8
Polygon
10
-0.45446070496703617
20
1.1934921216783103
11
-0.45808561088608685
21
1.194905896586667
0
LINE
8
Polygon
10
-0.45808561088608685
20
1.194905896586667
11
-0.46182579275154295
21
1.1959781568287637
0
LINE
8
Polygon
10
-0.46182579275154295
20
1.1959781568287637
11
-0.4656491522072631
21
1.196699700234127
0
LINE
8
Polygon
10
-0.4656491522072631
20
1.196699700234127
11
-0.46952287706446055
21
1.197064334494995
0
LINE
8
Polygon
10
-0.46952287706446055
20
1.197064334494995
11
-0.4734137228969194
21
1.1970689303088928
0
LINE
8
Polygon
10
-0.4734137228969194
20
1.1970689303088928
11
-0.47728829834568604
21
1.196713448234404
0
LINE
8
Polygon
10
-0.47728829834568604
20
1.196713448234404
11
-0.48111335168474145
21
1.1960009390296573
0
LINE
8
Polygon
10
-0.48111335168474145
20
1.1960009390296573
11
-0.48485605618833993
21
1.1949375174706265
0
LINE
8
Polygon
10
-0.48485605618833993
20
1.1949375174706265
11
-0.4884842918509817
21
1.1935323098739339
0
LINE
8
Polygon
10
-0.4884842918509817
20
1.1935323098739339
11
-0.49196692104229106
21
1.1917973757745204
0
LINE
8
Polygon
10
-0.49196692104229106
20
1.1917973757745204
11
-0.4952740557311208
21
1.189747604430344
0
LINE
8
Polygon
10
-0.4952740557311208
20
1.189747604430344
11
-0.4983773139855575
21
1.187400587042309
0
LINE
8
Polygon
10
-0.4983773139855575
20
1.187400587042309
11
-0.5012500635475364
21
1.1847764657860371
0
LINE
8
Polygon
10
-0.5012500635475364
20
1.1847764657860371
11
-0.503867650391702
21
1.181897760951095
0
LINE
8
Polygon
10
-0.503867650391702
20
1.181897760951095
11
-0.5062076103070138
21
1.1787891776711745
0
LINE
8
Polygon
10
-0.5062076103070138
20
1.1787891776711743
11
-0.5082498616852988
21
1.175477393903873
0
LINE
8
Polygon
10
-0.5082498616852988
20
1.175477393903873
11
-0.509976877862232
21
1.1719908314796392
0
LINE
8
Polygon
10
-0.509976877862232
20
1.1719908314796392
11
-0.5113738375317103
21
1.1683594121847465
0
LINE
8
Polygon
10
-0.5113738375317103
20
1.1683594121847465
11
-0.5124287519427586
21
1.1646143009716008
0
LINE
8
Polygon
10
-0.5124287519427586
20
1.1646143009716008
11
-0.5131325677873609
21
1.1607876385001572
0
LINE
8
Polygon
10
-0.5131325677873609
20
1.1607876385001572
11
-0.5134792448962284
21
1.1569122653057853
0
LINE
8
Polygon
10
-0.5134792448962284
20
1.1569122653057855
11
-0.513465808075719
21
1.1530214399607819
0
LINE
8
Polygon
10
-0.513465808075719
20
1.1530214399607819
11
-0.5130923726410407
21
1.149148553648276
0
LINE
8
Polygon
10
-0.5130923726410407
20
1.149148553648276
11
-0.5123621434266131
21
1.1453268435980675
0
LINE
8
Polygon
10
-0.5123621434266131
20
1.1453268435980675
11
-0.5112813872820798
21
1.1415891078436942
0
LINE
8
Polygon
10
-0.5112813872820798
20
1.1415891078436942
11
-0.5098593792900107
21
1.1379674237486963
0
LINE
8
Polygon
10
-0.5098593792900107
20
1.1379674237486963
11
-0.5081083231668578
21
1.1344928727176944
0
LINE
8
Polygon
10
-0.5081083231668578
20
1.1344928727176944
11
-0.5060432465302844
21
1.1311952734548145
0
LINE
8
Polygon
10
-0.5060432465302844
20
1.1311952734548145
11
-0.5036818719316861
21
1.1281029260586504
0
LINE
8
Polygon
10
-0.5036818719316861
20
1.1281029260586504
11
-0.5010444647607085
21
1.1252423691499447
0
LINE
8
Polygon
10
-0.5010444647607085
20
1.1252423691499447
11
-0.4981536593270483
21
1.1226381521163262
0
LINE
8
Polygon
10
-0.4981536593270483
20
1.1226381521163262
11
-0.4950342646121086
21
1.120312624428709
0
LINE
8
Polygon
10
-0.4950342646121086
20
1.120312624428709
11
-0.4917130513575559
21
1.118285743837443
0
LINE
8
Polygon
10
-0.4917130513575559
20
1.118285743837443
11
-0.488218522317989
21
1.1165749050942846
0
LINE
8
Polygon
10
-0.48821852231798907
20
1.1165749050942846
11
-0.48458066764942004
21
1.1151947906701014
0
LINE
8
Polygon
10
-0.48458066764942004
20
1.1151947906701014
11
-0.4808307075328301
21
1.1141572447494534
0
LINE
8
Polygon
10
-0.4808307075328301
20
1.1141572447494534
11
-0.4770008242416135
21
1.113471171583437
0
LINE
8
Polygon
10
-0.4770008242416135
20
1.113471171583437
11
-0.4731238859523145
21
1.1131424590731251
0
LINE
8
Polygon
10
-0.4731238859523145
20
1.1131424590731251
11
-0.4692331646689224
21
1.1131739282394217
0
LINE
8
Polygon
10
-0.46923316466892245
20
1.1131739282394217
11
-0.4653620506815069
21
1.1135653090129707
0
LINE
8
Polygon
10
-0.4653620506815069
20
1.1135653090129707
11
-0.46154376600971875
21
1.1143132425519002
0
LINE
8
Polygon
10
-0.46154376600971875
20
1.1143132425519002
11
-0.4578110792903926
21
1.1154113100675087
0
LINE
8
Polygon
10
-0.4578110792903926
20
1.1154113100675087
11
-0.45419602455609454
21
1.116850087910505
0
LINE
8
Polygon
10
-0.4541960245560946
20
1.116850087910505
11
-0.45072962631806657
21
1.118617228445059
0
LINE
8
Polygon
10
-0.45072962631806657
20
1.118617228445059
11
-0.44744163331291414
21
1.1206975660165932
0
LINE
8
Polygon
10
-0.44744163331291414
20
1.1206975660165932
11
-0.44436026319803107
21
1.123073247103897
0
LINE
8
Polygon
10
-0.44436026319803107
20
1.123073247103897
11
-0.4415119603867931
21
1.1257238835385976
0
LINE
8
Polygon
10
-0.4509821840488046
20
1.1917489651635673
11
-0.4506152154547466
21
1.191555029763196
0
LINE
8
Polygon
10
-0.4506152154547466
20
1.191555029763196
11
-0.4502391149992366
21
1.1913794583079214
0
LINE
8
Polygon
10
-0.4502391149992366
20
1.1913794583079214
11
-0.4498548009563144
21
1.1912226794670184
0
LINE
8
Polygon
10
-0.4498548009563144
20
1.1912226794670184
11
-0.4494632116540347
21
1.1910850760263556
0
LINE
8
Polygon
10
-0.4494632116540347
20
1.1910850760263556
11
-0.4490653031834772
21
1.1909669839537993
0
LINE
8
Polygon
10
-0.4490653031834772
20
1.1909669839537993
11
-0.4486620470643873
21
1.190868691578924
0
LINE
8
Polygon
10
-0.4486620470643873
20
1.190868691578924
11
-0.44825442787314645
21
1.190790438889039
0
LINE
8
Polygon
10
-0.44825442787314645
20
1.190790438889039
11
-0.44784344083886435
21
1.1907324169432418
0
LINE
8
Polygon
10
-0.44784344083886435
20
1.1907324169432418
11
-0.4474300894134613
21
1.1906947674059356
0
LINE
8
Polygon
10
-0.4474300894134613
20
1.1906947674059356
11
-0.44701538282167436
21
1.190677582200946
0
LINE
8
Polygon
10
-0.44701538282167436
20
1.190677582200946
11
-0.4466003335969685
21
1.1906809032870833
0
LINE
8
Polygon
10
-0.4466003335969685
20
1.1906809032870833
11
-0.44618595510936954
21
1.190704722555697
0
LINE
8
Polygon
10
-0.44618595510936954
20
1.190704722555697
11
-0.44577325909125454
21
1.1907489818504733
0
LINE
8
Polygon
10
-0.44577325909125454
20
1.1907489818504733
11
-0.44536325316714037
21
1.1908135731094285
0
LINE
8
Polygon
10
-0.44536325316714037
20
1.1908135731094285
11
-0.4449569383935023
21
1.1908983386287482
0
LINE
8
Polygon
10
-0.4449569383935023
20
1.1908983386287482
11
-0.44455530681462846
21
1.1910030714478326
0
LINE
8
Polygon
10
-0.44455530681462846
20
1.1910030714478326
11
-0.44415933904047844
21
1.1911275158546042
0
LINE
8
Polygon
10
-0.44415933904047844
20
1.1911275158546042
11
-0.4437700018524594
21
1.1912713680098455
0
LINE
8
Polygon
10
-0.4437700018524594
20
1.1912713680098455
11
-0.44338824584296577
21
1.191434276689042
0
LINE
8
Polygon
10
-0.44338824584296577
20
1.191434276689042
11
-0.443015003094445
21
1.1916158441399212
0
LINE
8
Polygon
10
-0.443015003094445
20
1.1916158441399212
11
-0.44265118490365724
21
1.19181562705359
0
LINE
8
Polygon
10
-0.44265118490365724
20
1.19181562705359
11
-0.44229767955668375
21
1.1920331376469027
0
LINE
8
Polygon
10
-0.44229767955668375
20
1.1920331376469027
11
-0.4419553501601184
21
1.192267844853416
0
LINE
8
Polygon
10
-0.4419553501601184
20
1.192267844853416
11
-0.4416250325337358
21
1.1925191756200226
0
LINE
8
Polygon
10
-0.4416250325337358
20
1.1925191756200226
11
-0.4413075331697823
21
1.1927865163060978
0
LINE
8
Polygon
10
-0.4413075331697823
20
1.1927865163060978
11
-0.4410036272638721
21
1.1930692141817443
0
LINE
8
Polygon
10
-0.4410036272638721
20
1.1930692141817443
11
-0.44071405682229603
21
1.193366579021474
0
LINE
8
Polygon
10
-0.44071405682229603
20
1.193366579021474
11
-0.44043952885036425
21
1.1936778847894405
0
LINE
8
Polygon
10
-0.44043952885036425
20
1.1936778847894405
11
-0.44018071362620637
21
1.1940023714121017
0
LINE
8
Polygon
10
-0.44018071362620637
20
1.1940023714121017
11
-0.43993824306424306
21
1.1943392466339915
0
LINE
8
Polygon
10
-0.43993824306424306
20
1.1943392466339915
11
-0.4397127091723255
21
1.1946876879520618
0
LINE
8
Polygon
10
-0.4397127091723255
20
1.1946876879520618
11
-0.43950466260630916
21
1.1950468446238791
0
LINE
8
Polygon
10
-0.43950466260630916
20
1.1950468446238791
11
-0.4393146113255912
21
1.1954158397447678
0
LINE
8
Polygon
10
-0.4393146113255912
20
1.1954158397447678
11
-0.4391430193528942
21
1.1957937723888301
0
LINE
8
Polygon
10
-0.4391430193528942
20
1.1957937723888301
11
-0.43899030564132413
21
1.1961797198086177
0
LINE
8
Polygon
10
-0.43899030564132413
20
1.1961797198086177
11
-0.4388568430514686
21
1.196572739688078
0
LINE
8
Polygon
10
-0.4388568430514686
20
1.196572739688078
11
-0.4387429574410334
21
1.1969718724432836
0
LINE
8
Polygon
10
-0.4387429574410334
20
1.1969718724432836
11
-0.43864892686923934
21
1.197376143565317
0
LINE
8
Polygon
10
-0.43864892686923934
20
1.197376143565317
11
-0.43857498091792213
21
1.1977845659996003
0
LINE
8
Polygon
10
-0.43857498091792213
20
1.1977845659996003
11
-0.4385213001309936
21
1.198196142555853
0
LINE
8
Polygon
10
-0.4385213001309936
20
1.198196142555853
11
-0.4384880155736316
21
1.198609868342798
0
LINE
8
Polygon
10
-0.4384880155736316
20
1.198609868342798
11
-0.4384752085122756
21
1.1990247332216701
0
LINE
8
Polygon
10
-0.4384752085122756
20
1.1990247332216701
11
-0.4384829102162097
21
1.1994397242725356
0
LINE
8
Polygon
10
-0.4384829102162097
20
1.1994397242725356
11
-0.43851110188121645
21
1.1998538282674045
0
LINE
8
Polygon
10
-0.43851110188121645
20
1.1998538282674045
11
-0.4385597146754884
21
1.2002660341440914
0
LINE
8
Polygon
10
-0.4385597146754884
20
1.2002660341440914
11
-0.4386286299076856
21
1.2006753354747919
0
LINE
8
Polygon
10
-0.4386286299076856
20
1.2006753354747919
11
-0.4387176793167285
21
1.2010807329233424
0
LINE
8
Polygon
10
-0.4387176793167285
20
1.2010807329233424
11
-0.4388266454826183
21
1.201481236685164
0
LINE
8
Polygon
10
-0.4388266454826183
20
1.201481236685164
11
-0.43948212147969595
21
1.2036431321226635
0
LINE
8
Polygon
10
-0.43948212147969595
20
1.2036431321226635
11
-0.44015501847896005
21
1.2057996687659431
0
LINE
8
Polygon
10
-0.44015501847896005
20
1.2057996687659431
11
-0.4408452926782434
21
1.2079507062354515
0
LINE
8
Polygon
10
-0.4408452926782434
20
1.2079507062354515
11
-0.4415528991442116
21
1.2100961045096064
0
LINE
8
Polygon
10
-0.4415528991442116
20
1.2100961045096064
11
-0.44227779181528787
21
1.2122357239339072
0
LINE
8
Polygon
10
-0.44227779181528787
20
1.2122357239339072
11
-0.44301992350465175
21
1.214369425230028
0
LINE
8
Polygon
10
-0.44301992350465175
20
1.214369425230028
11
-0.44377924590331014
21
1.2164970695048827
0
LINE
8
Polygon
10
-0.44377924590331014
20
1.2164970695048827
11
-0.4445557095832427
21
1.218618518259666
0
LINE
8
Polygon
10
-0.4445557095832427
20
1.218618518259666
11
-0.44534926400061875
21
1.2207336333988699
0
LINE
8
Polygon
10
-0.44534926400061875
20
1.2207336333988699
11
-0.4461598574990878
21
1.222842277239272
0
LINE
8
Polygon
10
-0.4461598574990878
20
1.222842277239272
11
-0.44698743731314183
21
1.2249443125188988
0
LINE
8
Polygon
10
-0.44698743731314183
20
1.2249443125188988
11
-0.4478319495715503
21
1.2270396024059607
0
LINE
8
Polygon
10
-0.4478319495715503
20
1.2270396024059607
11
-0.44869333930086674
21
1.2291280105077584
0
LINE
8
Polygon
10
-0.44869333930086674
20
1.2291280105077584
11
-0.4495715504290073
21
1.2312094008795618
0
LINE
8
Polygon
10
-0.4495715504290073
20
1.2312094008795618
11
-0.4504665257889008
21
1.2332836380334595
0
LINE
8
Polygon
10
-0.4504665257889008
20
1.2332836380334595
11
-0.45137820712220983
21
1.235350586947178
0
LINE
8
Polygon
10
-0.45137820712220983
20
1.235350586947178
11
-0.4523065350831234
21
1.237410113072871
0
LINE
8
Polygon
10
-0.4523065350831234
20
1.237410113072871
11
-0.45325144924221966
21
1.2394620823458782
0
LINE
8
Polygon
10
-0.45325144924221966
20
1.2394620823458782
11
-0.4542128880903999
21
1.2415063611934516
0
LINE
8
Polygon
10
-0.4542128880903999
20
1.2415063611934516
11
-0.4551907890428921
21
1.2435428165434508
0
LINE
8
Polygon
10
-0.4551907890428921
20
1.2435428165434508
11
-0.4561850884433254
21
1.2455713158330055
0
LINE
8
Polygon
10
-0.4561850884433254
20
1.2455713158330055
11
-0.45719572156787325
21
1.2475917270171442
0
LINE
8
Polygon
10
-0.45719572156787325
20
1.2475917270171442
11
-0.458222622629467
21
1.2496039185773897
0
LINE
8
Polygon
10
-0.458222622629467
20
1.2496039185773897
11
-0.45926572478207806
21
1.251607759530321
0
LINE
8
Polygon
10
-0.45926572478207806
20
1.251607759530321
11
-0.4603249601250695
21
1.2536031194360984
0
LINE
8
Polygon
10
-0.4603249601250695
20
1.2536031194360984
11
-0.46140025970761567
21
1.2555898684069555
0
LINE
8
Polygon
10
-0.46140025970761567
20
1.2555898684069555
11
-0.4624915535331909
21
1.2575678771156542
0
LINE
8
Polygon
10
-0.4624915535331909
20
1.2575678771156542
11
-0.46359877056412563
21
1.2595370168039024
0
LINE
8
Polygon
10
-0.46359877056412563
20
1.2595370168039024
11
-0.46472183872623085
21
1.2614971592907362
0
LINE
8
Polygon
10
-0.46472183872623085
20
1.2614971592907362
11
-0.46586068491348964
21
1.263448176980864
0
LINE
8
Polygon
10
-0.46586068491348964
20
1.263448176980864
11
-0.46701523499281605
21
1.265389942872972
0
LINE
8
Polygon
10
-0.46701523499281605
20
1.265389942872972
11
-0.46818541380888057
21
1.2673223305679908
0
LINE
8
Polygon
10
-0.46818541380888057
20
1.2673223305679908
11
-0.4693711451890026
21
1.2692452142773243
0
LINE
8
Polygon
10
-0.4693711451890026
20
1.2692452142773243
11
-0.470572351948109
21
1.2711584688310371
0
LINE
8
Polygon
10
-0.470572351948109
20
1.2711584688310371
11
-0.47178895589375813
21
1.2730619696860033
0
LINE
8
Polygon
10
-0.47178895589375813
20
1.2730619696860033
11
-0.4730208778312299
21
1.2749555929340128
0
LINE
8
Polygon
10
-0.4730208778312299
20
1.2749555929340128
11
-0.4742680375686811
21
1.2768392153098371
0
LINE
8
Polygon
10
-0.4742680375686811
20
1.2768392153098371
11
-0.4755303539223653
21
1.2787127141992545
0
LINE
8
Polygon
10
-0.4755303539223653
20
1.2787127141992545
11
-0.47680774472191756
21
1.2805759676470294
0
LINE
8
Polygon
10
-0.47680774472191756
20
1.2805759676470294
11
-0.47810012681570324
21
1.2824288543648532
0
LINE
8
Polygon
10
-0.47810012681570324
20
1.2824288543648532
11
-0.47940741607623083
21
1.2842712537392384
0
LINE
8
Polygon
10
-0.47940741607623083
20
1.2842712537392384
11
-0.48072952740562835
21
1.2861030458393703
0
LINE
8
Polygon
10
-0.48072952740562835
20
1.2861030458393703
11
-0.4820663747411824
21
1.287924111424913
0
LINE
8
Polygon
10
-0.4820663747411824
20
1.287924111424913
11
-0.4834178710609407
21
1.2897343319537729
0
LINE
8
Polygon
10
-0.4834178710609407
20
1.2897343319537729
11
-0.48478392838937684
21
1.291533589589814
0
LINE
8
Polygon
10
-0.48478392838937684
20
1.291533589589814
11
-0.4861644578031168
21
1.2933217672105286
0
LINE
8
Polygon
10
-0.4861644578031168
20
1.2933217672105286
11
-0.4875593694367275
21
1.2950987484146619
0
LINE
8
Polygon
10
-0.4875593694367275
20
1.2950987484146619
11
-0.4889685724885667
21
1.296864417529789
0
LINE
8
Polygon
10
-0.5315627072164016
20
0.9031821348616619
11
-0.5309866837011902
21
0.9036469385195502
0
LINE
8
Polygon
10
-0.5309866837011902
20
0.9036469385195502
11
-0.5304118908825124
21
0.9041132632412403
0
LINE
8
Polygon
10
-0.5304118908825124
20
0.9041132632412403
11
-0.52983833277692
21
0.9045811057681363
0
LINE
8
Polygon
10
-0.52983833277692
20
0.9045811057681363
11
-0.5292660133923375
21
0.9050504628310361
0
LINE
8
Polygon
10
-0.5292660133923375
20
0.9050504628310361
11
-0.5286949367280325
21
0.9055213311501542
0
LINE
8
Polygon
10
-0.5286949367280325
20
0.9055213311501542
11
-0.5281251067745893
21
0.9059937074351453
0
LINE
8
Polygon
10
-0.5281251067745893
20
0.9059937074351453
11
-0.5275565275138804
21
0.9064675883851261
0
LINE
8
Polygon
10
-0.5275565275138805
20
0.9064675883851261
11
-0.5269892029190385
21
0.906942970688699
0
LINE
8
Polygon
10
-0.5269892029190385
20
0.906942970688699
11
-0.5264231369544288
21
0.9074198510239755
0
LINE
8
Polygon
10
-0.5264231369544288
20
0.9074198510239755
11
-0.5258583335756216
21
0.9078982260585989
0
LINE
8
Polygon
10
-0.5258583335756216
20
0.9078982260585989
11
-0.5252947967293645
21
0.908378092449768
0
LINE
8
Polygon
10
-0.5252947967293645
20
0.908378092449768
11
-0.5247325303535548
21
0.9088594468442599
0
LINE
8
Polygon
10
-0.5247325303535548
20
0.9088594468442599
11
-0.5241715383772118
21
0.9093422858784542
0
LINE
8
Polygon
10
-0.5241715383772118
20
0.9093422858784542
11
-0.5236118247204496
21
0.9098266061783559
0
LINE
8
Polygon
10
-0.5236118247204496
20
0.9098266061783559
11
-0.5230533932944497
21
0.9103124043596191
0
LINE
8
Polygon
10
-0.5230533932944497
20
0.910312404359619
11
-0.5224962480014335
21
0.9107996770275708
0
LINE
8
Polygon
10
-0.5224962480014335
20
0.9107996770275708
11
-0.5219403927346351
21
0.9112884207772347
0
LINE
8
Polygon
10
-0.5219403927346351
20
0.9112884207772347
11
-0.5213858313782744
21
0.9117786321933545
0
LINE
8
Polygon
10
-0.5213858313782744
20
0.9117786321933545
11
-0.5208325678075293
21
0.9122703078504186
0
LINE
8
Polygon
10
-0.5208325678075293
20
0.9122703078504186
11
-0.5202806058885091
21
0.9127634443126829
0
LINE
8
Polygon
10
-0.5202806058885091
20
0.9127634443126829
11
-0.5197299494782277
21
0.9132580381341959
0
LINE
8
Polygon
10
-0.5197299494782277
20
0.9132580381341959
11
-0.5191806024245759
21
0.9137540858588223
0
LINE
8
Polygon
10
-0.5191806024245759
20
0.9137540858588223
11
-0.5186325685662951
21
0.914251584020267
0
LINE
8
Polygon
10
-0.5186325685662951
20
0.914251584020267
11
-0.5180858517329505
21
0.9147505291420996
0
LINE
8
Polygon
10
-0.5180858517329505
20
0.9147505291420996
11
-0.5175404557449039
21
0.9152509177377786
0
LINE
8
Polygon
10
-0.5175404557449039
20
0.9152509177377786
11
-0.5169963844132873
21
0.9157527463106757
0
LINE
8
Polygon
10
-0.5169963844132874
20
0.9157527463106757
11
-0.5164536415399765
21
0.9162560113541004
0
LINE
8
Polygon
10
-0.5164536415399765
20
0.9162560113541004
11
-0.515912230917564
21
0.9167607093513244
0
LINE
8
Polygon
10
-0.515912230917564
20
0.9167607093513244
11
-0.5153721563293328
21
0.9172668367756057
0
LINE
8
Polygon
10
-0.5153721563293328
20
0.9172668367756057
11
-0.5148334215492298
21
0.9177743900902146
0
LINE
8
Polygon
10
-0.5148334215492298
20
0.9177743900902146
11
-0.51429603034184
21
0.9182833657484568
0
LINE
8
Polygon
10
-0.51429603034184
20
0.9182833657484567
11
-0.5137599864623593
21
0.9187937601936991
0
LINE
8
Polygon
10
-0.5137599864623593
20
0.9187937601936991
11
-0.5132252936565689
21
0.9193055698593942
0
LINE
8
Polygon
10
-0.5132252936565689
20
0.9193055698593942
11
-0.5126919556608088
21
0.9198187911691054
0
LINE
8
Polygon
10
-0.5126919556608088
20
0.9198187911691053
11
-0.5121599762019522
21
0.9203334205365314
0
LINE
8
Polygon
10
-0.5121599762019522
20
0.9203334205365314
11
-0.5116293589973785
21
0.9208494543655323
0
LINE
8
Polygon
10
-0.5116293589973785
20
0.9208494543655323
11
-0.5111001077549483
21
0.9213668890501536
0
LINE
8
Polygon
10
-0.5111001077549483
20
0.9213668890501536
11
-0.510572226172977
21
0.9218857209746518
0
LINE
8
Polygon
10
-0.510572226172977
20
0.9218857209746518
11
-0.5100457179402093
21
0.9224059465135199
0
LINE
8
Polygon
10
-0.5100457179402093
20
0.9224059465135199
11
-0.5095205867357926
21
0.9229275620315126
0
LINE
8
Polygon
10
-0.5095205867357926
20
0.9229275620315126
11
-0.5089968362292523
21
0.9234505638836716
0
LINE
8
Polygon
10
-0.5089968362292523
20
0.9234505638836716
11
-0.5084744700804655
21
0.9239749484153512
0
LINE
8
Polygon
10
-0.5084744700804655
20
0.9239749484153511
11
-0.5079534919396361
21
0.9245007119622435
0
LINE
8
Polygon
10
-0.5079534919396361
20
0.9245007119622435
11
-0.5074339054472683
21
0.9250278508504047
0
LINE
8
Polygon
10
-0.5074339054472683
20
0.9250278508504046
11
-0.5069157142341418
21
0.9255563613962801
0
LINE
8
Polygon
10
-0.5069157142341418
20
0.9255563613962801
11
-0.5063989219212868
21
0.9260862399067302
0
LINE
8
Polygon
10
-0.5063989219212868
20
0.9260862399067302
11
-0.5058835321199575
21
0.9266174826790563
0
LINE
8
Polygon
10
-0.5058835321199575
20
0.9266174826790563
11
-0.5053695484316082
21
0.9271500860010266
0
LINE
8
Polygon
10
-0.5053695484316082
20
0.9271500860010266
11
-0.5050915822151062
21
0.9274257309269998
0
LINE
8
Polygon
10
-0.5050915822151062
20
0.9274257309269998
11
-0.5048010754414453
21
0.927688125967327
0
LINE
8
Polygon
10
-0.5048010754414453
20
0.927688125967327
11
-0.5044986590461424
21
0.9279367012408022
0
LINE
8
Polygon
10
-0.5044986590461424
20
0.9279367012408022
11
-0.5041849898305605
21
0.9281709168806033
0
LINE
8
Polygon
10
-0.5041849898305605
20
0.9281709168806033
11
-0.503860749035437
21
0.9283902642067983
0
LINE
8
Polygon
10
-0.503860749035437
20
0.9283902642067983
11
-0.5035266408613356
21
0.9285942668311193
0
LINE
8
Polygon
10
-0.5035266408613356
20
0.9285942668311193
11
-0.5031833909392321
21
0.9287824816916038
0
LINE
8
Polygon
10
-0.5031833909392321
20
0.9287824816916038
11
-0.5028317447545568
21
0.9289545000148561
0
LINE
8
Polygon
10
-0.5028317447545568
20
0.9289545000148561
11
-0.5024724660281159
21
0.9291099482038394
0
LINE
8
Polygon
10
-0.5024724660281159
20
0.9291099482038394
11
-0.5021063350574089
21
0.9292484886492711
0
LINE
8
Polygon
10
-0.5021063350574089
20
0.9292484886492711
11
-0.501734147021944
21
0.9293698204628568
0
LINE
8
Polygon
10
-0.501734147021944
20
0.9293698204628568
11
-0.5013567102562315
21
0.9294736801307734
0
LINE
8
Polygon
10
-0.5013567102562315
20
0.9294736801307734
11
-0.5009748444942075
21
0.9295598420859801
0
LINE
8
Polygon
10
-0.5009748444942075
20
0.9295598420859801
11
-0.5005893790888989
21
0.9296281191981145
0
LINE
8
Polygon
10
-0.5005893790888989
20
0.9296281191981145
11
-0.5002011512111976
21
0.9296783631799115
0
LINE
8
Polygon
10
-0.5002011512111976
20
0.9296783631799115
11
-0.4998110040316562
21
0.9297104649092589
0
LINE
8
Polygon
10
-0.4998110040316562
20
0.9297104649092589
11
-0.499419784889252
21
0.9297243546661951
0
LINE
8
Polygon
10
-0.499419784889252
20
0.9297243546661951
11
-0.4990283434510989
21
0.9297200022843286
0
LINE
8
Polygon
10
-0.4990283434510989
20
0.9297200022843286
11
-0.4986375298671028
21
0.9296974172163559
0
LINE
8
Polygon
10
-0.4986375298671028
20
0.9296974172163559
11
-0.4982481929235678
21
0.9296566485135308
0
LINE
8
Polygon
10
-0.4982481929235678
20
0.9296566485135308
11
-0.4978611781997647
21
0.9295977847191336
0
LINE
8
Polygon
10
-0.4978611781997647
20
0.9295977847191336
11
-0.4974773262314644
21
0.9295209536761678
0
LINE
8
Polygon
10
-0.4974773262314644
20
0.9295209536761678
11
-0.4970974706854248
21
0.929426322249706
0
LINE
8
Polygon
10
-0.4970974706854248
20
0.929426322249706
11
-0.4967224365487965
21
0.9293140959644842
0
LINE
8
Polygon
10
-0.4967224365487965
20
0.9293140959644842
11
-0.4963530383373788
21
0.9291845185585347
0
LINE
8
Polygon
10
-0.4963530383373788
20
0.9291845185585347
11
-0.49599007832661834
21
0.9290378714538242
0
LINE
8
Polygon
10
-0.49599007832661834
20
0.9290378714538242
11
-0.4956343448091915
21
0.9288744731450497
0
LINE
8
Polygon
10
-0.4956343448091915
20
0.9288744731450497
11
-0.4952866103829554
21
0.9286946785079175
0
LINE
8
Polygon
10
-0.4952866103829554
20
0.9286946785079175
11
-0.49494763027298555
21
0.9284988780284082
0
LINE
8
Polygon
10
-0.49494763027298555
20
0.9284988780284082
11
-0.4946181406913446
21
0.9282874969547019
0
LINE
8
Polygon
10
-0.4946181406913446
20
0.9282874969547019
11
-0.4942988572381438
21
0.9280609943736053
0
LINE
8
Polygon
10
-0.4942988572381438
20
0.9280609943736053
11
-0.49399047334737156
21
0.9278198622134868
0
LINE
8
Polygon
10
-0.49399047334737156
20
0.9278198622134868
11
-0.4936936587808623
21
0.9275646241758844
0
LINE
8
Polygon
10
-0.4936936587808623
20
0.9275646241758844
11
-0.4934090581736779
21
0.9272958345981074
0
LINE
8
Polygon
10
-0.4934090581736779
20
0.9272958345981074
11
-0.49313728963406095
21
0.9270140772493023
0
LINE
8
Polygon
10
-0.49313728963406095
20
0.9270140772493023
11
-0.49287894340099936
21
0.9267199640625967
0
LINE
8
Polygon
10
-0.49287894340099936
20
0.9267199640625967
11
-0.4926345805623196
21
0.9264141338060758
0
LINE
8
Polygon
10
-0.4926345805623196
20
0.9264141338060758
11
-0.49240473183609096
21
0.9260972506954779
0
LINE
8
Polygon
10
-0.49240473183609096
20
0.9260972506954779
11
-0.49218989641798827
21
0.9257700029516203
0
LINE
8
Polygon
10
-0.49218989641798827
20
0.9257700029516203
11
-0.491990540897117
21
0.9254331013056918
0
LINE
8
Polygon
10
-0.491990540897117
20
0.9254331013056918
11
-0.49180709824265406
21
0.9250872774556541
0
LINE
8
Polygon
10
-0.49180709824265406
20
0.9250872774556541
11
-0.49163996686350614
21
0.9247332824771088
0
LINE
8
Polygon
10
-0.49163996686350614
20
0.9247332824771088
11
-0.4914895097430275
21
0.9243718851920768
0
LINE
8
Polygon
10
-0.4914895097430275
20
0.9243718851920768
11
-0.4913560536506767
21
0.9240038704992374
0
LINE
8
Polygon
10
-0.4913560536506767
20
0.9240038704992374
11
-0.491239888432324
21
0.9236300376692501
0
LINE
8
Polygon
10
-0.491239888432324
20
0.9236300376692501
11
-0.49114126638075156
21
0.9232511986088632
0
LINE
8
Polygon
10
-0.49114126638075156
20
0.9232511986088632
11
-0.4910604016877123
21
0.9228681760975784
0
LINE
8
Polygon
10
-0.4910604016877123
20
0.9228681760975784
11
-0.49099746997873916
21
0.9224818020007022
0
LINE
8
Polygon
10
-0.49099746997873916
20
0.9224818020007021
11
-0.49022844782331054
21
0.9184248342952468
0
LINE
8
Polygon
10
-0.49022844782331054
20
0.9184248342952468
11
-0.489064765528129
21
0.9144629880646962
0
LINE
8
Polygon
10
-0.489064765528129
20
0.9144629880646962
11
-0.48751767095470494
21
0.910634557522094
0
LINE
8
Polygon
10
-0.48751767095470494
20
0.910634557522094
11
-0.48560211793156827
21
0.906976547317871
0
LINE
8
Polygon
10
-0.48560211793156827
20
0.906976547317871
11
-0.4833366217143085
21
0.9035243148621651
0
LINE
8
Polygon
10
-0.4833366217143085
20
0.9035243148621651
11
-0.480743080021753
21
0.9003112285689536
0
LINE
8
Polygon
10
-0.480743080021753
20
0.9003112285689536
11
-0.47784656137810294
21
0.8973683453253241
0
LINE
8
Polygon
10
-0.47784656137810294
20
0.8973683453253241
11
-0.47467506280685984
21
0.8947241103033848
0
LINE
8
Polygon
10
-0.47467506280685984
20
0.8947241103033848
11
-0.4712592392186102
21
0.892404082016358
0
LINE
8
Polygon
10
-0.4712592392186102
20
0.892404082016358
11
-0.46763210710834047
21
0.8904306852763947
0
LINE
8
Polygon
10
-0.46763210710834047
20
0.8904306852763947
11
-0.4638287254262689
21
0.8888229944419586
0
LINE
8
Polygon
10
-0.4638287254262689
20
0.8888229944419586
11
-0.45988585670681614
21
0.8875965490498565
0
LINE
8
Polygon
10
-0.45988585670681614
20
0.8875965490498565
11
-0.45584161173115845
21
0.8867632036139688
0
LINE
8
Polygon
10
-0.45584161173115845
20
0.8867632036139688
11
-0.45173508115796523
21
0.8863310130424882
0
LINE
8
Polygon
10
-0.45173508115796523
20
0.8863310130424882
11
-0.4476059576828863
21
0.8863041547811955
0
LINE
8
Polygon
10
-0.4476059576828863
20
0.8863041547811955
11
-0.44349415237890066
21
0.8866828884353152
0
LINE
8
Polygon
10
-0.44349415237890066
20
0.8866828884353152
11
-0.4394394089258844
21
0.8874635532602363
0
LINE
8
Polygon
10
-0.4394394089258844
20
0.8874635532602363
11
-0.4354809194581587
21
0.8886386035453527
0
LINE
8
Polygon
10
-0.4354809194581587
20
0.8886386035453527
11
-0.43165694574313895
21
0.8901966815490117
0
LINE
8
Polygon
10
-0.43165694574313895
20
0.8901966815490117
11
-0.4280044493526772
21
0.8921227272795983
0
LINE
8
Polygon
10
-0.4280044493526772
20
0.8921227272795983
11
-0.42455873440176883
21
0.8943981240616418
0
LINE
8
Polygon
10
-0.42455873440176883
20
0.8943981240616418
11
-0.4213531063078228
21
0.8970008784799363
0
LINE
8
Polygon
10
-0.4213531063078228
20
0.8970008784799363
11
-0.41841854986884114
21
0.8999058329623816
0
LINE
8
Polygon
10
-0.41841854986884114
20
0.8999058329623816
11
-0.4157834297721247
21
0.9030849089467721
0
LINE
8
Polygon
10
-0.4157834297721247
20
0.9030849089467721
11
-0.41347321642831214
21
0.9065073782811441
0
LINE
8
Polygon
10
-0.41347321642831214
20
0.9065073782811441
11
-0.4115102397807724
21
0.9101401602343945
0
LINE
8
Polygon
10
-0.4115102397807724
20
0.9101401602343945
11
-0.4099134734699667
21
0.9139481412463382
0
LINE
8
Polygon
10
-0.4099134734699667
20
0.9139481412463382
11
-0.40869835143899347
21
0.9178945143265842
0
LINE
8
Polygon
10
-0.40869835143899347
20
0.9178945143265842
11
-0.40787661875296133
21
0.921941134821683
0
LINE
8
Polygon
10
-0.40787661875296133
20
0.921941134821683
11
-0.4074562180741325
21
0.9260488891117895
0
LINE
8
Polygon
10
-0.4074562180741325
20
0.9260488891117895
11
-0.4074412128901393
21
0.9301780726731126
0
LINE
8
Polygon
10
-0.4074412128901393
20
0.9301780726731126
11
-0.40783174823733065
21
0.9342887738518948
0
LINE
8
Polygon
10
-0.40783174823733065
20
0.9342887738518948
11
-0.4086240492988873
21
0.9383412596404576
0
LINE
8
Polygon
10
-0.4086240492988873
20
0.9383412596404576
11
-0.4098104578912553
21
0.9422963597264987
0
LINE
8
Polygon
10
-0.4098104578912553
20
0.9422963597264987
11
-0.41137950648622956
21
0.9461158451035171
0
LINE
8
Polygon
10
-0.41137950648622956
20
0.9461158451035171
11
-0.41331602905320836
21
0.9497627975828111
0
LINE
8
Polygon
10
-0.41331602905320836
20
0.9497627975828111
11
-0.41560130765024517
21
0.9532019666354419
0
LINE
8
Polygon
10
-0.41560130765024517
20
0.9532019666354419
11
-0.4182132533469862
21
0.956400110115013
0
LINE
8
Polygon
10
-0.4182132533469862
20
0.956400110115013
11
-0.42112661973073673
21
0.9593263155679298
0
LINE
8
Polygon
10
-0.42112661973073673
20
0.9593263155679298
11
-0.4243132469319606
21
0.9619522990254306
0
LINE
8
Polygon
10
-0.4243132469319606
20
0.9619522990254306
11
-0.4277423338105243
21
0.9642526783893419
0
LINE
8
Polygon
10
-0.4277423338105243
20
0.9642526783893419
11
-0.4313807356718002
21
0.9662052187690809
0
LINE
8
Polygon
10
-0.4313807356718002
20
0.9662052187690809
11
-0.4351932846349805
21
0.9677910473985363
0
LINE
8
Polygon
10
-0.4351932846349805
20
0.9677910473985363
11
-0.4391431295570022
21
0.968994836055497
0
LINE
8
Polygon
10
-0.4391431295570022
20
0.968994836055497
11
-0.4431920922264628
21
0.969804949220408
0
LINE
8
Polygon
10
-0.4431920922264628
20
0.969804949220408
11
-0.4473010363846465
21
0.9702135565423873
0
LINE
8
Polygon
10
-0.4473010363846465
20
0.9702135565423873
11
-0.4514302460067958
21
0.9702167085254348
0
LINE
8
Polygon
10
-0.4514302460067958
20
0.9702167085254348
11
-0.4555398091872557
21
0.9698143747032725
0
LINE
8
Polygon
10
-0.4555398091872557
20
0.9698143747032726
11
-0.45592829496943166
21
0.9697661653703757
0
LINE
8
Polygon
10
-0.45592829496943166
20
0.9697661653703757
11
-0.45631860497828125
21
0.9697361080963302
0
LINE
8
Polygon
10
-0.45631860497828125
20
0.9697361080963302
11
-0.45670989152118713
21
0.9697242681608588
0
LINE
8
Polygon
10
-0.45670989152118713
20
0.9697242681608588
11
-0.457101304784652
21
0.9697306712784596
0
LINE
8
Polygon
10
-0.457101304784652
20
0.9697306712784596
11
-0.4574919946799611
21
0.9697553035425571
0
LINE
8
Polygon
10
-0.4574919946799611
20
0.9697553035425571
11
-0.45788111268944287
21
0.9697981114557062
0
LINE
8
Polygon
10
-0.45788111268944287
20
0.9697981114557062
11
-0.4582678137093172
21
0.9698590020457789
0
LINE
8
Polygon
10
-0.4582678137093172
20
0.9698590020457789
11
-0.4586512578851293
21
0.9699378430678867
0
LINE
8
Polygon
10
-0.4586512578851293
20
0.9699378430678867
11
-0.4590306124357831
21
0.9700344632915952
0
LINE
8
Polygon
10
-0.4590306124357831
20
0.9700344632915952
11
-0.4594050534622121
21
0.97014865287281
0
LINE
8
Polygon
10
-0.4594050534622121
20
0.97014865287281
11
-0.45977376773676004
21
0.9702801638095256
0
LINE
8
Polygon
10
-0.45977376773676004
20
0.9702801638095256
11
-0.46013595446938477
21
0.9704287104804471
0
LINE
8
Polygon
10
-0.46013595446938477
20
0.9704287104804471
11
-0.4604908270468497
21
0.9705939702653151
0
LINE
8
Polygon
10
-0.4604908270468497
20
0.9705939702653151
11
-0.46083761474112533
21
0.970775584245587
0
LINE
8
Polygon
10
-0.46083761474112533
20
0.970775584245587
11
-0.4611755643832907
21
0.9709731579839519
0
LINE
8
Polygon
10
-0.4611755643832907
20
0.9709731579839519
11
-0.4615039419992991
21
0.9711862623809874
0
LINE
8
Polygon
10
-0.4615039419992991
20
0.9711862623809874
11
-0.4618220344040554
21
0.9714144346070965
0
LINE
8
Polygon
10
-0.4618220344040554
20
0.9714144346070965
11
-0.4621291507503432
21
0.9716571791077018
0
LINE
8
Polygon
10
-0.4621291507503432
20
0.9716571791077018
11
-0.46242462402923756
21
0.9719139686795123
0
LINE
8
Polygon
10
-0.46242462402923756
20
0.9719139686795123
11
-0.4627078125187445
21
0.9721842456155279
0
LINE
8
Polygon
10
-0.4627078125187445
20
0.9721842456155279
11
-0.46297810117752153
21
0.9724674229162915
0
LINE
8
Polygon
10
-0.46297810117752153
20
0.9724674229162915
11
-0.46323490298065145
21
0.9727628855647606
0
LINE
8
Polygon
10
-0.46323490298065145
20
0.9727628855647606
11
-0.46347766019456954
21
0.9730699918620291
0
LINE
8
Polygon
10
-0.46347766019456954
20
0.9730699918620291
11
-0.4637058455883737
21
0.9733880748209969
0
LINE
8
Polygon
10
-0.4637058455883737
20
0.9733880748209969
11
-0.4639189635788882
21
0.9737164436149623
0
LINE
8
Polygon
10
-0.4639189635788882
20
0.9737164436149623
11
-0.4641165513069931
21
0.9740543850779904
0
LINE
8
Polygon
10
-0.4641165513069931
20
0.9740543850779904
11
-0.4642981796428825
21
0.9744011652537982
0
LINE
8
Polygon
10
-0.4642981796428825
20
0.9744011652537982
11
-0.46446345411806733
21
0.9747560309897936
0
LINE
8
Polygon
10
-0.46446345411806733
20
0.9747560309897936
11
-0.4646120157820999
21
0.9751182115728059
0
LINE
8
Polygon
10
-0.4646120157820999
20
0.9751182115728059
11
-0.4647435419821581
21
0.9754869204029544
0
LINE
8
Polygon
10
-0.4647435419821581
20
0.9754869204029544
11
-0.46485774706379746
21
0.9758613567020213
0
LINE
8
Polygon
10
-0.46485774706379746
20
0.9758613567020213
11
-0.46495438299134795
21
0.9762407072526176
0
LINE
8
Polygon
10
-0.46495438299134795
20
0.9762407072526176
11
-0.4650332398866089
21
0.9766241481643642
0
LINE
8
Polygon
10
-0.4650332398866089
20
0.9766241481643642
11
-0.4650941464846718
21
0.977010846663254
0
LINE
8
Polygon
10
-0.4650941464846718
20
0.977010846663254
11
-0.4651369705058812
21
0.9773999629003075
0
LINE
8
Polygon
10
-0.4651369705058812
20
0.9773999629003075
11
-0.4651616189431253
21
0.977790651775594
0
LINE
8
Polygon
10
-0.4651616189431253
20
0.977790651775594
11
-0.465168038263833
21
0.9781820647736572
0
LINE
8
Polygon
10
-0.465168038263833
20
0.9781820647736572
11
-0.46515621452623845
21
0.978573351806359
0
LINE
8
Polygon
10
-0.46515621452623845
20
0.978573351806359
11
-0.4651261734096602
21
0.9789636630591381
0
LINE
8
Polygon
10
-0.4651261734096602
20
0.9789636630591381
11
-0.46507798015873
21
0.9793521508366755
0
LINE
8
Polygon
10
-0.46507798015873
20
0.9793521508366755
11
-0.46501173944169105
21
0.979737971403957
0
LINE
8
Polygon
10
-0.46501173944169105
20
0.979737971403957
11
-0.4649275951230756
21
0.9801202868187338
0
LINE
8
Polygon
10
-0.4649275951230756
20
0.9801202868187338
11
-0.464825729951253
21
0.9804982667514032
0
LINE
8
Polygon
10
-0.464825729951253
20
0.9804982667514032
11
-0.4647063651615289
21
0.9808710902883552
0
LINE
8
Polygon
10
-0.4647063651615289
20
0.9808710902883552
11
-0.4645697599956567
21
0.9812379477148688
0
LINE
8
Polygon
10
-0.4645697599956567
20
0.9812379477148688
11
-0.46441621113880444
21
0.9815980422736872
0
LINE
8
Polygon
10
-0.46441621113880444
20
0.9815980422736872
11
-0.46424605207520103
21
0.9819505918954496
0
LINE
8
Polygon
10
-0.46424605207520103
20
0.9819505918954496
11
-0.46405965236386043
21
0.982294830897225
0
LINE
8
Polygon
10
-0.4640596523638604
20
0.982294830897225
11
-0.4636929949383011
21
0.9829377989078952
0
LINE
8
Polygon
10
-0.4636929949383011
20
0.9829377989078952
11
-0.46332803844583925
21
0.9835817339116595
0
LINE
8
Polygon
10
-0.46332803844583925
20
0.9835817339116595
11
-0.46296478543672737
21
0.9842266314088124
0
LINE
8
Polygon
10
-0.46296478543672737
20
0.9842266314088124
11
-0.46260323844931406
21
0.9848724868929227
0
LINE
8
Polygon
10
-0.46260323844931406
20
0.9848724868929227
11
-0.4622434000100267
21
0.9855192958508648
0
LINE
8
Polygon
10
-0.46224340001002673
20
0.9855192958508647
11
-0.4618852726333535
21
0.9861670537628505
0
LINE
8
Polygon
10
-0.4618852726333535
20
0.9861670537628505
11
-0.46152885882182615
21
0.9868157561024605
0
LINE
8
Polygon
10
-0.46152885882182615
20
0.9868157561024605
11
-0.4611741610660022
21
0.9874653983366759
0
LINE
8
Polygon
10
-0.4611741610660022
20
0.9874653983366759
11
-0.4608211818444477
21
0.9881159759259102
0
LINE
8
Polygon
10
-0.4608211818444477
20
0.9881159759259102
11
-0.46046992362372
21
0.9887674843240403
0
LINE
8
Polygon
10
-0.46046992362372
20
0.9887674843240403
11
-0.46012038885835027
21
0.9894199189784394
0
LINE
8
Polygon
10
-0.46012038885835027
20
0.9894199189784394
11
-0.45977257999082644
21
0.9900732753300077
0
LINE
8
Polygon
10
-0.45977257999082644
20
0.9900732753300077
11
-0.4594264994515763
21
0.9907275488132051
0
LINE
8
Polygon
10
-0.4594264994515763
20
0.9907275488132051
11
-0.4590821496589502
21
0.9913827348560825
0
LINE
8
Polygon
10
-0.4590821496589502
20
0.9913827348560825
11
-0.45873953301920467
21
0.9920388288803141
0
LINE
8
Polygon
10
-0.45873953301920467
20
0.9920388288803141
11
-0.45839865192648493
21
0.9926958263012293
0
LINE
8
Polygon
10
-0.45839865192648493
20
0.9926958263012293
11
-0.4580595087628086
21
0.9933537225278445
0
LINE
8
Polygon
10
-0.4580595087628086
20
0.9933537225278445
11
-0.45772210589804896
21
0.9940125129628956
0
LINE
8
Polygon
10
-0.45772210589804896
20
0.9940125129628956
11
-0.4573864456899185
21
0.9946721930028701
0
LINE
8
Polygon
10
-0.4573864456899185
20
0.9946721930028701
11
-0.4570525304839521
21
0.9953327580380388
0
LINE
8
Polygon
10
-0.4570525304839521
20
0.9953327580380388
11
-0.4567203626134911
21
0.9959942034524883
0
LINE
8
Polygon
10
-0.4567203626134911
20
0.9959942034524883
11
-0.4563899443996666
21
0.9966565246241536
0
LINE
8
Polygon
10
-0.45638994439966657
20
0.9966565246241536
11
-0.45606127815138353
21
0.9973197169248496
0
LINE
8
Polygon
10
-0.45606127815138353
20
0.9973197169248496
11
-0.45573436616530427
21
0.9979837757203043
0
LINE
8
Polygon
10
-0.45573436616530427
20
0.9979837757203043
11
-0.45540921072583285
21
0.9986486963701904
0
LINE
8
Polygon
10
-0.45540921072583285
20
0.9986486963701904
11
-0.4550858141050987
21
0.9993144742281586
0
LINE
8
Polygon
10
-0.4550858141050987
20
0.9993144742281586
11
-0.45476417856294105
21
0.9999811046418691
0
LINE
8
Polygon
10
-0.45476417856294105
20
0.9999811046418692
11
-0.45444430634689303
21
1.000648582953025
0
LINE
8
Polygon
10
-0.45444430634689303
20
1.000648582953025
11
-0.4541261996921659
21
1.001316904497404
0
LINE
8
Polygon
10
-0.4541261996921659
20
1.001316904497404
11
-0.45380986082163344
21
1.001986064604892
0
LINE
8
Polygon
10
-0.45380986082163344
20
1.001986064604892
11
-0.45349529194581656
21
1.0026560585995146
0
LINE
8
Polygon
10
-0.45349529194581656
20
1.0026560585995146
11
-0.45318249526286775
21
1.0033268817994705
0
LINE
8
Polygon
10
-0.45318249526286775
20
1.0033268817994705
11
-0.4528714729585557
21
1.0039985295171643
0
LINE
8
Polygon
10
-0.4528714729585557
20
1.0039985295171643
11
-0.45256222720624995
21
1.004670997059239
0
LINE
8
Polygon
10
-0.45256222720624995
20
1.004670997059239
11
-0.452254760166906
21
1.0053442797266081
0
LINE
8
Polygon
10
-0.45225476016690597
20
1.0053442797266081
11
-0.4519490739890498
21
1.0060183728144905
0
LINE
8
Polygon
10
-0.4519490739890498
20
1.0060183728144905
11
-0.4516451708087632
21
1.0066932716124406
0
LINE
8
Polygon
10
-0.4516451708087632
20
1.0066932716124406
11
-0.45134305274966857
21
1.0073689714043836
0
LINE
8
Polygon
10
-0.45134305274966857
20
1.0073689714043836
11
-0.4510427219229142
21
1.0080454674686472
0
LINE
8
Polygon
10
-0.4510427219229142
20
1.0080454674686472
11
-0.4507441804271596
21
1.0087227550779945
0
LINE
8
Polygon
10
-0.4507441804271596
20
1.0087227550779945
11
-0.45044743034856066
21
1.0094008294996581
0
LINE
8
Polygon
10
-0.45044743034856066
20
1.0094008294996581
11
-0.4501524737607552
21
1.0100796859953722
0
LINE
8
Polygon
10
-0.4501524737607552
20
1.0100796859953722
11
-0.44985931272484836
21
1.0107593198214058
0
LINE
8
Polygon
10
-0.44985931272484836
20
1.0107593198214058
11
-0.44956794928939847
21
1.0114397262285961
0
LINE
8
Polygon
10
-0.44956794928939847
20
1.0114397262285961
11
-0.4492783854904023
21
1.0121209004623821
0
LINE
8
Polygon
10
-0.4492783854904023
20
1.0121209004623821
11
-0.44899062335128126
21
1.0128028377628366
0
LINE
8
Polygon
10
-0.44899062335128126
20
1.0128028377628366
11
-0.448704664882867
21
1.0134855333647013
0
LINE
8
Polygon
10
-0.448704664882867
20
1.0134855333647013
11
-0.44842051208338735
21
1.0141689824974176
0
LINE
8
Polygon
10
-0.4889685724885667
20
1.296864417529789
11
-0.7071067811865477
21
1.1213203435596428
0
LINE
8
Polygon
10
-0.7071067811865477
20
1.1213203435596428
11
-0.5315627072164016
21
0.9031821348616619
0
ENDSEC
0
EOF
