0
SECTION
2
ENTITIES
0
LINE
8
Polygon
10
-0.8114956076566446
20
-0.8693034229353223
11
-0.35355339059327373
21
-0.8535533905932737
0
LINE
8
Polygon
10
-0.35355339059327373
20
-0.8535533905932737
11
-0.20710678118654746
21
-0.5
0
LINE
8
Polygon
10
-0.20710678118654746
20
-0.5
11
-0.4999999999999999
21
0.20710678118654757
0
LINE
8
Polygon
10
-0.4999999999999999
20
0.20710678118654757
11
-0.8535533905932737
21
0.35355339059327395
0
LINE
8
Polygon
10
-0.8535533905932737
20
0.35355339059327395
11
-0.8114956076566446
21
-0.8693034229353223
0
LINE
8
Polygon
10
0.8693034229353223
20
-0.8114956076566446
11
0.8535533905932737
21
-0.35355339059327373
0
LINE
8
Polygon
10
0.8535533905932737
20
-0.35355339059327373
11
0.5
21
-0.20710678118654746
0
LINE
8
Polygon
10
0.5
20
-0.20710678118654746
11
-0.20710678118654757
21
-0.4999999999999999
0
LINE
8
Polygon
10
-0.20710678118654757
20
-0.4999999999999999
11
-0.35355339059327395
21
-0.8535533905932737
0
LINE
8
Polygon
10
-0.35355339059327395
20
-0.8535533905932737
11
0.8693034229353223
21
-0.8114956076566446
0
LINE
8
Polygon
10
0.8114956076566446
20
0.8693034229353223
11
0.35355339059327373
21
0.8535533905932737
0
LINE
8
Polygon
10
0.35355339059327373
20
0.8535533905932737
11
0.20710678118654746
21
0.5
0
LINE
8
Polygon
10
0.20710678118654746
20
0.5
11
0.4999999999999999
21
-0.20710678118654757
0
LINE
8
Polygon
10
0.4999999999999999
20
-0.20710678118654757
11
0.8535533905932737
21
-0.35355339059327395
0
LINE
8
Polygon
10
0.8535533905932737
20
-0.35355339059327395
11
0.8114956076566446
21
0.8693034229353223
0
LINE
8
Polygon
10
-0.8693034229353223
20
0.8114956076566446
11
-0.8535533905932737
21
0.35355339059327373
0
LINE
8
Polygon
10
-0.8535533905932737
20
0.35355339059327373
11
-0.5
21
0.20710678118654746
0
LINE
8
Polygon
10
-0.5
20
0.20710678118654746
11
0.20710678118654757
21
0.4999999999999999
0
LINE
8
Polygon
10
0.20710678118654757
20
0.4999999999999999
11
0.35355339059327395
21
0.8535533905932737
0
LINE
8
Polygon
10
0.35355339059327395
20
0.8535533905932737
11
-0.8693034229353223
21
0.8114956076566446
0
LINE
8
Polygon
10
-0.8114956076566446
20
-0.8693034229353223
11
-0.8184372948168361
21
-0.6674694495655284
0
LINE
8
Polygon
10
-0.8184372948168361
20
-0.6674694495655284
11
-0.3605552750662
21
-0.2940477328079767
0
LINE
8
Polygon
10
-0.2586867601227395
20
-0.21096974744736785
11
0.8693034229353223
21
-0.8114956076566446
0
LINE
8
Polygon
10
0.8693034229353223
20
-0.8114956076566446
11
-0.8114956076566446
21
-0.8693034229353223
0
LINE
8
Polygon
10
-0.2586867601227395
20
-0.21096974744736785
11
0.8184372948168361
21
0.6674694495655284
0
LINE
8
Polygon
10
0.8184372948168361
20
0.6674694495655284
11
0.8693034229353223
21
-0.8114956076566446
0
LINE
8
Polygon
10
0.8693034229353223
20
-0.8114956076566446
11
-0.8114956076566446
21
-0.8693034229353223
0
LINE
8
Polygon
10
-0.8184372948168361
20
-0.6674694495655284
11
-0.5597505346940966
21
-0.45649970211816054
0
LINE
8
Polygon
10
-0.5597505346940966
20
-0.45649970211816054
11
-0.8253789819770276
21
-0.4656354761957346
0
LINE
8
Polygon
10
-0.8253789819770276
20
-0.4656354761957346
11
-0.8184372948168361
21
-0.6674694495655284
0
LINE
8
Polygon
10
-0.2586867601227395
20
-0.21096974744736785
11
-0.2588863351910992
21
-0.21072622586009843
0
LINE
8
Polygon
10
-0.2588863351910992
20
-0.21072622586009843
11
-0.2590870745484398
21
-0.21048366312225214
0
LINE
8
Polygon
10
-0.2590870745484398
20
-0.21048366312225214
11
-0.2592889735880779
21
-0.21024206480029972
0
LINE
8
Polygon
10
-0.2592889735880779
20
-0.21024206480029972
11
-0.2594920276767169
21
-0.21000143643857988
0
LINE
8
Polygon
10
-0.2594920276767169
20
-0.21000143643857988
11
-0.2596962321545537
21
-0.20976178355917216
0
LINE
8
Polygon
10
-0.2596962321545537
20
-0.20976178355917216
11
-0.2599015823353851
21
-0.20952311166177007
0
LINE
8
Polygon
10
-0.2599015823353851
20
-0.20952311166177007
11
-0.26010807350671583
21
-0.2092854262235551
0
LINE
8
Polygon
10
-0.26010807350671583
20
-0.2092854262235551
11
-0.26031570092986656
21
-0.2090487326990708
0
LINE
8
Polygon
10
-0.26031570092986656
20
-0.2090487326990708
11
-0.26052445984008243
21
-0.20881303652009775
0
LINE
8
Polygon
10
-0.26052445984008243
20
-0.20881303652009775
11
-0.2607343454466426
21
-0.20857834309552886
0
LINE
8
Polygon
10
-0.2607343454466426
20
-0.20857834309552886
11
-0.2609453529329702
21
-0.20834465781124528
0
LINE
8
Polygon
10
-0.2609453529329702
20
-0.20834465781124528
11
-0.26115747745674284
21
-0.20811198602999273
0
LINE
8
Polygon
10
-0.26115747745674284
20
-0.20811198602999273
11
-0.26137071415000357
21
-0.20788033309125847
0
LINE
8
Polygon
10
-0.26137071415000357
20
-0.20788033309125847
11
-0.2615850581192729
21
-0.20764970431114876
0
LINE
8
Polygon
10
-0.2615850581192729
20
-0.20764970431114876
11
-0.2618005044456608
21
-0.20742010498226698
0
LINE
8
Polygon
10
-0.2618005044456607
20
-0.20742010498226698
11
-0.2620170481849796
21
-0.2071915403735919
0
LINE
8
Polygon
10
-0.2620170481849796
20
-0.2071915403735919
11
-0.26223468436785796
21
-0.20696401573035705
0
LINE
8
Polygon
10
-0.26223468436785796
20
-0.20696401573035705
11
-0.2624534079998541
21
-0.20673753627393016
0
LINE
8
Polygon
10
-0.2624534079998541
20
-0.20673753627393016
11
-0.26267321406157107
21
-0.20651210720169347
0
LINE
8
Polygon
10
-0.26267321406157107
20
-0.20651210720169347
11
-0.2628940975087715
21
-0.20628773368692435
0
LINE
8
Polygon
10
-0.2628940975087715
20
-0.20628773368692435
11
-0.2631160532724937
21
-0.2060644208786766
0
LINE
8
Polygon
10
-0.2631160532724937
20
-0.2060644208786766
11
-0.26333907625916786
21
-0.2058421739016624
0
LINE
8
Polygon
10
-0.26333907625916786
20
-0.2058421739016624
11
-0.26356316135073277
21
-0.20562099785613452
0
LINE
8
Polygon
10
-0.26356316135073277
20
-0.20562099785613452
11
-0.2637883034047535
21
-0.20540089781776943
0
LINE
8
Polygon
10
-0.2637883034047535
20
-0.20540089781776943
11
-0.26401449725453935
21
-0.20518187883755068
0
LINE
8
Polygon
10
-0.26401449725453935
20
-0.20518187883755068
11
-0.2642417377092624
21
-0.20496394594165324
0
LINE
8
Polygon
10
-0.2642417377092624
20
-0.20496394594165324
11
-0.2644700195540767
21
-0.2047471041313278
0
LINE
8
Polygon
10
-0.2644700195540767
20
-0.2047471041313278
11
-0.26469933755023756
21
-0.20453135838278624
0
LINE
8
Polygon
10
-0.26469933755023756
20
-0.20453135838278624
11
-0.26492968643522247
21
-0.20431671364708748
0
LINE
8
Polygon
10
-0.26492968643522247
20
-0.20431671364708748
11
-0.26516106092285135
21
-0.2041031748500236
0
LINE
8
Polygon
10
-0.26516106092285135
20
-0.2041031748500236
11
-0.2653934557034079
21
-0.2038907468920071
0
LINE
8
Polygon
10
-0.2653934557034079
20
-0.2038907468920071
11
-0.2656268654437617
21
-0.20367943464795815
0
LINE
8
Polygon
10
-0.2656268654437617
20
-0.20367943464795815
11
-0.2658612847874902
21
-0.20346924296719301
0
LINE
8
Polygon
10
-0.2658612847874902
20
-0.20346924296719301
11
-0.26609670835500226
21
-0.20326017667331253
0
LINE
8
Polygon
10
-0.26609670835500226
20
-0.20326017667331253
11
-0.26633313074366083
21
-0.20305224056409157
0
LINE
8
Polygon
10
-0.26633313074366083
20
-0.20305224056409157
11
-0.2665705465279077
21
-0.20284543941136876
0
LINE
8
Polygon
10
-0.2665705465279076
20
-0.2028454394113688
11
-0.2668089502593872
21
-0.2026397779609372
0
LINE
8
Polygon
10
-0.2668089502593872
20
-0.2026397779609372
11
-0.2670483364670722
21
-0.2024352609324354
0
LINE
8
Polygon
10
-0.2670483364670722
20
-0.2024352609324354
11
-0.2672886996573887
21
-0.20223189301923897
0
LINE
8
Polygon
10
-0.2672886996573887
20
-0.20223189301923897
11
-0.2675300343143426
21
-0.202029678888353
0
LINE
8
Polygon
10
-0.2675300343143426
20
-0.202029678888353
11
-0.2677723348996458
21
-0.20182862318030492
0
LINE
8
Polygon
10
-0.2677723348996458
20
-0.20182862318030492
11
-0.2680155958528437
21
-0.20162873050903796
0
LINE
8
Polygon
10
-0.2680155958528437
20
-0.20162873050903796
11
-0.2682598115914426
21
-0.2014300054618053
0
LINE
8
Polygon
10
-0.2682598115914426
20
-0.2014300054618053
11
-0.26850497651103766
21
-0.2012324525990649
0
LINE
8
Polygon
10
-0.26850497651103766
20
-0.2012324525990649
11
-0.2687510849854419
21
-0.20103607645437463
0
LINE
8
Polygon
10
-0.2687510849854419
20
-0.20103607645437463
11
-0.268998131366815
21
-0.20084088153428842
0
LINE
8
Polygon
10
-0.268998131366815
20
-0.20084088153428842
11
-0.26924610998579296
21
-0.20064687231825273
0
LINE
8
Polygon
10
-0.26924610998579296
20
-0.20064687231825273
11
-0.26949501515161833
21
-0.20045405325850385
0
LINE
8
Polygon
10
-0.26949501515161833
20
-0.20045405325850388
11
-0.2698000560348287
21
-0.20020925712178553
0
LINE
8
Polygon
10
-0.2698000560348287
20
-0.20020925712178553
11
-0.2700952909569125
21
-0.1999527197370554
0
LINE
8
Polygon
10
-0.2700952909569125
20
-0.1999527197370554
11
-0.2703802682819849
21
-0.19968483354260602
0
LINE
8
Polygon
10
-0.2703802682819849
20
-0.19968483354260602
11
-0.27065455206572936
21
-0.19940600833758176
0
LINE
8
Polygon
10
-0.27065455206572936
20
-0.19940600833758176
11
-0.27091772272228365
21
-0.1991166706550881
0
LINE
8
Polygon
10
-0.27091772272228365
20
-0.1991166706550881
11
-0.2711693776661016
21
-0.1988172631097023
0
LINE
8
Polygon
10
-0.2711693776661016
20
-0.1988172631097023
11
-0.27140913192780913
21
-0.1985082437203833
0
LINE
8
Polygon
10
-0.27140913192780913
20
-0.1985082437203833
11
-0.271636618743111
21
-0.19819008520981693
0
LINE
8
Polygon
10
-0.271636618743111
20
-0.19819008520981693
11
-0.27185149011384907
21
-0.1978632742812678
0
LINE
8
Polygon
10
-0.27185149011384907
20
-0.1978632742812678
11
-0.2720534173403527
21
-0.19752831087404465
0
LINE
8
Polygon
10
-0.2720534173403527
20
-0.19752831087404465
11
-0.2722420915242676
21
-0.1971857073987178
0
LINE
8
Polygon
10
-0.2722420915242676
20
-0.1971857073987178
11
-0.2724172240410929
21
-0.1968359879532584
0
LINE
8
Polygon
10
-0.2724172240410929
20
-0.1968359879532584
11
-0.2725785469817053
21
-0.1964796875212994
0
LINE
8
Polygon
10
-0.2725785469817053
20
-0.1964796875212994
11
-0.2727258135621927
21
-0.1961173511537436
0
LINE
8
Polygon
10
-0.2727258135621927
20
-0.1961173511537436
11
-0.2728587985013726
21
-0.19574953313497168
0
LINE
8
Polygon
10
-0.2728587985013726
20
-0.19574953313497168
11
-0.27297729836541607
21
-0.19537679613492515
0
LINE
8
Polygon
10
-0.27297729836541607
20
-0.19537679613492515
11
-0.27308113187905053
21
-0.1949997103483615
0
LINE
8
Polygon
10
-0.27308113187905053
20
-0.1949997103483615
11
-0.2731701402028661
21
-0.19461885262259826
0
LINE
8
Polygon
10
-0.2731701402028661
20
-0.19461885262259826
11
-0.2732441871763003
21
-0.19423480557508035
0
LINE
8
Polygon
10
-0.2732441871763003
20
-0.19423480557508035
11
-0.27330315952592954
21
-0.19384815670212038
0
LINE
8
Polygon
10
-0.27330315952592954
20
-0.19384815670212038
11
-0.27334696703874956
21
-0.19345949748017588
0
LINE
8
Polygon
10
-0.27334696703874956
20
-0.19345949748017588
11
-0.2733755427001786
21
-0.1930694224610374
0
LINE
8
Polygon
10
-0.2733755427001786
20
-0.1930694224610374
11
-0.2733888427965732
21
-0.19267852836231258
0
LINE
8
Polygon
10
-0.2733888427965732
20
-0.19267852836231258
11
-0.2733868469820991
21
-0.19228741315459677
0
LINE
8
Polygon
10
-0.2733868469820991
20
-0.19228741315459677
11
-0.2733695583098552
21
-0.19189667514672698
0
LINE
8
Polygon
10
-0.2733695583098552
20
-0.19189667514672698
11
-0.2733370032272033
21
-0.19150691207051848
0
LINE
8
Polygon
10
-0.2733370032272033
20
-0.19150691207051848
11
-0.27328923153531
21
-0.19111872016638387
0
LINE
8
Polygon
10
-0.27328923153531
20
-0.19111872016638387
11
-0.27322631631296346
21
-0.19073269327123396
0
LINE
8
Polygon
10
-0.27322631631296346
20
-0.19073269327123396
11
-0.27314835380478114
21
-0.19034942191005508
0
LINE
8
Polygon
10
-0.27314835380478114
20
-0.19034942191005508
11
-0.2730554632739793
21
-0.18996949239255304
0
LINE
8
Polygon
10
-0.2730554632739793
20
-0.18996949239255304
11
-0.27294778681993
21
-0.18959348591624528
0
LINE
8
Polygon
10
-0.27294778681993
20
-0.18959348591624528
11
-0.27282548916078464
21
-0.18922197767737356
0
LINE
8
Polygon
10
-0.27282548916078464
20
-0.18922197767737356
11
-0.2726887573814962
21
-0.18885553599099683
0
LINE
8
Polygon
10
-0.2726887573814962
20
-0.18885553599099683
11
-0.2725378006476257
21
-0.18849472142161092
0
LINE
8
Polygon
10
-0.2725378006476257
20
-0.18849472142161092
11
-0.2723728498853711
21
-0.18814008592562437
0
LINE
8
Polygon
10
-0.27237284988537114
20
-0.18814008592562437
11
-0.2721941574283077
21
-0.18779217200700277
0
LINE
8
Polygon
10
-0.2721941574283077
20
-0.18779217200700277
11
-0.2720019966313807
21
-0.1874515118873727
0
LINE
8
Polygon
10
-0.2720019966313807
20
-0.1874515118873727
11
-0.27179666145274023
21
-0.18711862669185528
0
LINE
8
Polygon
10
-0.27179666145274023
20
-0.18711862669185528
11
-0.2715784660040585
21
-0.18679402565187456
0
LINE
8
Polygon
10
-0.2715784660040585
20
-0.18679402565187456
11
-0.2713477440700172
21
-0.18647820532616027
0
LINE
8
Polygon
10
-0.2713477440700172
20
-0.18647820532616027
11
-0.2711048485977004
21
-0.18617164884113674
0
LINE
8
Polygon
10
-0.2711048485977004
20
-0.18617164884113674
11
-0.27085015115667294
21
-0.18587482515185969
0
LINE
8
Polygon
10
-0.27085015115667294
20
-0.18587482515185969
11
-0.2705840413705718
21
-0.18558818832463192
0
LINE
8
Polygon
10
-0.2705840413705718
20
-0.18558818832463192
11
-0.2703069263210791
21
-0.18531217684239493
0
LINE
8
Polygon
10
-0.2703069263210791
20
-0.18531217684239493
11
-0.2700192299251884
21
-0.18504721293395926
0
LINE
8
Polygon
10
-0.2700192299251884
20
-0.18504721293395926
11
-0.2697213922867173
21
-0.1847937019280996
0
LINE
8
Polygon
10
-0.2697213922867173
20
-0.1847937019280996
11
-0.26941386902305836
21
-0.1845520316335028
0
LINE
8
Polygon
10
-0.2694138690230583
20
-0.1845520316335028
11
-0.2690971305681976
21
-0.18432257174551703
0
LINE
8
Polygon
10
-0.2690971305681977
20
-0.184322571745517
11
-0.26683070211126003
21
-0.1825815354398383
0
LINE
8
Polygon
10
-0.26683070211126003
20
-0.1825815354398383
11
-0.2647402299195979
21
-0.1806327328885275
0
LINE
8
Polygon
10
-0.2647402299195979
20
-0.1806327328885275
11
-0.2628446859699181
21
-0.17849385035249601
0
LINE
8
Polygon
10
-0.2628446859699181
20
-0.17849385035249601
11
-0.26116127317733406
21
-0.17618429915413028
0
LINE
8
Polygon
10
-0.26116127317733406
20
-0.17618429915413028
11
-0.2597052692711628
21
-0.17372503951079815
0
LINE
8
Polygon
10
-0.2597052692711628
20
-0.17372503951079815
11
-0.25848988814265
21
-0.17113839031143557
0
LINE
8
Polygon
10
-0.25848988814265
20
-0.17113839031143555
11
-0.25752615992295563
21
-0.1684478265625768
0
LINE
8
Polygon
10
-0.25752615992295563
20
-0.1684478265625768
11
-0.2568228308797453
21
-0.16567776634209697
0
LINE
8
Polygon
10
-0.2568228308797453
20
-0.16567776634209697
11
-0.2563862840408717
21
-0.16285334919415695
0
LINE
8
Polygon
10
-0.2563862840408717
20
-0.16285334919415695
11
-0.25622048126552244
21
-0.16000020797651723
0
LINE
8
Polygon
10
-0.25622048126552244
20
-0.16000020797651723
11
-0.2563269272885628
21
-0.15714423623080842
0
LINE
8
Polygon
10
-0.2563269272885628
20
-0.15714423623080842
11
-0.25670465606438947
21
-0.15431135318697822
0
LINE
8
Polygon
10
-0.25670465606438947
20
-0.15431135318697822
11
-0.2573502395342293
21
-0.15152726853460546
0
LINE
8
Polygon
10
-0.2573502395342293
20
-0.15152726853460546
11
-0.258257818737317
21
-0.1488172490958872
0
LINE
8
Polygon
10
-0.258257818737317
20
-0.1488172490958872
11
-0.2594191569836026
21
-0.14620588951784697
0
LINE
8
Polygon
10
-0.2594191569836026
20
-0.14620588951784697
11
-0.26082371460542386
21
-0.14371688906483537
0
LINE
8
Polygon
10
-0.26082371460542386
20
-0.14371688906483537
11
-0.2624587446097374
21
-0.14137283653703175
0
LINE
8
Polygon
10
-0.2624587446097374
20
-0.14137283653703175
11
-0.2643094083628218
21
-0.13919500526690826
0
LINE
8
Polygon
10
-0.2643094083628218
20
-0.13919500526690826
11
-0.2663589102575622
21
-0.13720316005415611
0
LINE
8
Polygon
10
-0.2663589102575622
20
-0.13720316005415611
11
-0.26858865014114974
21
-0.13541537779122606
0
LINE
8
Polygon
10
-0.2685886501411497
20
-0.13541537779122606
11
-0.2709783921198458
21
-0.13384788340738743
0
LINE
8
Polygon
10
-0.2709783921198458
20
-0.13384788340738743
11
-0.2735064482088326
21
-0.13251490262018714
0
LINE
8
Polygon
10
-0.2735064482088326
20
-0.13251490262018714
11
-0.2761498751604432
21
-0.1314285328306556
0
LINE
8
Polygon
10
-0.2761498751604432
20
-0.1314285328306556
11
-0.2788846826844685
21
-0.13059863333394353
0
LINE
8
Polygon
10
-0.2788846826844685
20
-0.13059863333394353
11
-0.2816860511708459
21
-0.13003273584177782
0
LINE
8
Polygon
10
-0.2816860511708459
20
-0.13003273584177782
11
-0.2845285569388001
21
-0.12973597612878524
0
LINE
8
Polygon
10
-0.2845285569388001
20
-0.12973597612878524
11
-0.2873864029681965
21
-0.12971104742302436
0
LINE
8
Polygon
10
-0.2873864029681965
20
-0.12971104742302436
11
-0.29023365301911896
21
-0.12995817596372813
0
LINE
8
Polygon
10
-0.29023365301911896
20
-0.12995817596372813
11
-0.29304446701492814
21
-0.13047511894808073
0
LINE
8
Polygon
10
-0.29304446701492814
20
-0.13047511894808073
11
-0.2957933355525961
21
-0.13125718488566337
0
LINE
8
Polygon
10
-0.2957933355525961
20
-0.13125718488566337
11
-0.2984553114120285
21
-0.132297276175843
0
LINE
8
Polygon
10
-0.2984553114120285
20
-0.132297276175843
11
-0.30100623596332293
21
-0.13358595352169467
0
LINE
8
Polygon
10
-0.30100623596332293
20
-0.13358595352169467
11
-0.3034229584172171
21
-0.13511152159587295
0
LINE
8
Polygon
10
-0.3034229584172171
20
-0.13511152159587295
11
-0.30568354592892827
21
-0.13686013518097503
0
LINE
8
Polygon
10
-0.30568354592892827
20
-0.13686013518097503
11
-0.3077674826485987
21
-0.13881592482112481
0
LINE
8
Polygon
10
-0.3077674826485987
20
-0.13881592482112481
11
-0.30965585591187356
21
-0.14096114084443268
0
LINE
8
Polygon
10
-0.3096558559118736
20
-0.1409611408444327
11
-0.3113315278808483
21
-0.14327631444926248
0
LINE
8
Polygon
10
-0.3113315278808483
20
-0.14327631444926248
11
-0.3127792910776666
21
-0.14574043439237533
0
LINE
8
Polygon
10
-0.3127792910776666
20
-0.14574043439237533
11
-0.3139860063992319
21
-0.14833113767542566
0
LINE
8
Polygon
10
-0.3139860063992319
20
-0.14833113767542566
11
-0.3149407223604855
21
-0.15102491249924366
0
LINE
8
Polygon
10
-0.3149407223604855
20
-0.15102491249924366
11
-0.31563477448406624
21
-0.1537973116440028
0
LINE
8
Polygon
10
-0.31563477448406624
20
-0.1537973116440028
11
-0.3160618639343455
21
-0.15662317433875078
0
LINE
8
Polygon
10
-0.3160618639343455
20
-0.15662317433875078
11
-0.31621811468219685
21
-0.15947685460673874
0
LINE
8
Polygon
10
-0.31621811468219685
20
-0.15947685460673877
11
-0.31610210868170696
21
-0.16233245401421148
0
LINE
8
Polygon
10
-0.31610210868170696
20
-0.16233245401421145
11
-0.3157148987395803
21
-0.16516405671035836
0
LINE
8
Polygon
10
-0.3157148987395803
20
-0.16516405671035836
11
-0.3150599989604446
21
-0.16794596462533257
0
LINE
8
Polygon
10
-0.3150599989604446
20
-0.1679459646253326
11
-0.31414335285476824
21
-0.1706529306918093
0
LINE
8
Polygon
10
-0.31414335285476824
20
-0.1706529306918093
11
-0.31297327939882597
21
-0.17326038797349338
0
LINE
8
Polygon
10
-0.3129732793988259
20
-0.17326038797349336
11
-0.3128031907872866
21
-0.17361258813420685
0
LINE
8
Polygon
10
-0.3128031907872866
20
-0.17361258813420685
11
-0.31264700490125535
21
-0.17397117014433375
0
LINE
8
Polygon
10
-0.31264700490125535
20
-0.17397117014433375
11
-0.31250496066623046
21
-0.17433558546272498
0
LINE
8
Polygon
10
-0.31250496066623046
20
-0.17433558546272498
11
-0.3123772753745067
21
-0.174705276624723
0
LINE
8
Polygon
10
-0.3123772753745067
20
-0.174705276624723
11
-0.3122641443527729
21
-0.1750796780949437
0
LINE
8
Polygon
10
-0.3122641443527729
20
-0.1750796780949437
11
-0.31216574066331004
21
-0.17545821713240498
0
LINE
8
Polygon
10
-0.31216574066331004
20
-0.17545821713240498
11
-0.3120822148392497
21
-0.17584031466667735
0
LINE
8
Polygon
10
-0.3120822148392497
20
-0.17584031466667735
11
-0.31201369465429557
21
-0.17622538618371783
0
LINE
8
Polygon
10
-0.31201369465429557
20
-0.17622538618371783
11
-0.3119602849272616
21
-0.17661284262003055
0
LINE
8
Polygon
10
-0.3119602849272616
20
-0.17661284262003055
11
-0.3119220673617251
21
-0.17700209126378727
0
LINE
8
Polygon
10
-0.3119220673617251
20
-0.17700209126378727
11
-0.31189910042104113
21
-0.1773925366615289
0
LINE
8
Polygon
10
-0.31189910042104113
20
-0.1773925366615289
11
-0.3118914192389075
21
-0.1777835815290608
0
LINE
8
Polygon
10
-0.3118914192389075
20
-0.1777835815290608
11
-0.31189903556561954
21
-0.17817462766514885
0
LINE
8
Polygon
10
-0.31189903556561954
20
-0.17817462766514885
11
-0.3119219377500946
21
-0.1785650768666185
0
LINE
8
Polygon
10
-0.3119219377500946
20
-0.1785650768666185
11
-0.31196009075769554
21
-0.17895433184345627
0
LINE
8
Polygon
10
-0.31196009075769554
20
-0.17895433184345627
11
-0.31201343622382516
21
-0.17934179713251508
0
LINE
8
Polygon
10
-0.31201343622382516
20
-0.17934179713251508
11
-0.31208189254320917
21
-0.17972688000842413
0
LINE
8
Polygon
10
-0.31208189254320917
20
-0.17972688000842413
11
-0.31216535499473197
21
-0.1801089913903114
0
LINE
8
Polygon
10
-0.31216535499473197
20
-0.1801089913903114
11
-0.3122636959016342
21
-0.1804875467429504
0
LINE
8
Polygon
10
-0.3122636959016342
20
-0.1804875467429504
11
-0.31237676482682597
21
-0.1808619669709536
0
LINE
8
Polygon
10
-0.31237676482682597
20
-0.1808619669709536
11
-0.31250438880301834
21
-0.1812316793046441
0
LINE
8
Polygon
10
-0.31250438880301834
20
-0.1812316793046441
11
-0.31264637259732014
21
-0.18159611817625035
0
LINE
8
Polygon
10
-0.31264637259732014
20
-0.18159611817625035
11
-0.31280249900989576
21
-0.1819547260850843
0
LINE
8
Polygon
10
-0.31280249900989576
20
-0.1819547260850843
11
-0.31297252920622665
21
-0.1823069544503783
0
LINE
8
Polygon
10
-0.31297252920622665
20
-0.1823069544503783
11
-0.3131562030824686
21
-0.18265226445047714
0
LINE
8
Polygon
10
-0.3131562030824686
20
-0.18265226445047714
11
-0.31335323966334605
21
-0.18299012784710084
0
LINE
8
Polygon
10
-0.31335323966334605
20
-0.18299012784710084
11
-0.3135633375319741
21
-0.18332002779341786
0
LINE
8
Polygon
10
-0.3135633375319741
20
-0.18332002779341786
11
-0.31378617529095115
21
-0.18364145962469172
0
LINE
8
Polygon
10
-0.31378617529095115
20
-0.18364145962469172
11
-0.31402141205401723
21
-0.1839539316302925
0
LINE
8
Polygon
10
-0.31402141205401723
20
-0.1839539316302925
11
-0.3142686879675247
21
-0.18425696580589165
0
LINE
8
Polygon
10
-0.3142686879675247
20
-0.18425696580589165
11
-0.31452762476092483
21
-0.18455009858468935
0
LINE
8
Polygon
10
-0.31452762476092483
20
-0.18455009858468935
11
-0.31479782632542747
21
-0.1848328815465564
0
LINE
8
Polygon
10
-0.31479782632542747
20
-0.18483288154655642
11
-0.315078879319949
21
-0.18510488210400527
0
LINE
8
Polygon
10
-0.315078879319949
20
-0.18510488210400527
11
-0.3153703538034208
21
-0.1853656841639412
0
LINE
8
Polygon
10
-0.3153703538034208
20
-0.1853656841639412
11
-0.3156718038924926
21
-0.1856148887641809
0
LINE
8
Polygon
10
-0.3156718038924926
20
-0.1856148887641809
11
-0.3159827684436223
21
-0.1858521146837654
0
LINE
8
Polygon
10
-0.3159827684436223
20
-0.1858521146837654
11
-0.31630277175851107
21
-0.18607699902613314
0
LINE
8
Polygon
10
-0.31630277175851107
20
-0.18607699902613314
11
-0.3166313243118033
21
-0.18628919777426128
0
LINE
8
Polygon
10
-0.3166313243118033
20
-0.18628919777426128
11
-0.3169679234999382
21
-0.18648838631692605
0
LINE
8
Polygon
10
-0.3169679234999382
20
-0.18648838631692605
11
-0.31731205441000826
21
-0.18667425994527706
0
LINE
8
Polygon
10
-0.3173120544100082
20
-0.18667425994527706
11
-0.31766319060744747
21
-0.18684653431896597
0
LINE
8
Polygon
10
-0.31766319060744747
20
-0.18684653431896597
11
-0.31802079494134544
21
-0.1870049459011163
0
LINE
8
Polygon
10
-0.31802079494134544
20
-0.1870049459011163
11
-0.3183843203661542
21
-0.18714925236146934
0
LINE
8
Polygon
10
-0.3183843203661542
20
-0.18714925236146934
11
-0.31875321077853164
21
-0.18727923294708892
0
LINE
8
Polygon
10
-0.31875321077853164
20
-0.1872792329470889
11
-0.31912690186804116
21
-0.18739468882005852
0
LINE
8
Polygon
10
-0.31912690186804116
20
-0.18739468882005852
11
-0.3195048219804061
21
-0.1874954433616538
0
LINE
8
Polygon
10
-0.3195048219804061
20
-0.1874954433616538
11
-0.3198863929919983
21
-0.18758134244252503
0
LINE
8
Polygon
10
-0.3198863929919983
20
-0.18758134244252503
11
-0.3202710311942232
21
-0.18765225465847685
0
LINE
8
Polygon
10
-0.3202710311942232
20
-0.18765225465847685
11
-0.32058160100349725
21
-0.1877040172409517
0
LINE
8
Polygon
10
-0.32058160100349725
20
-0.1877040172409517
11
-0.3208919192829325
21
-0.18775726699987463
0
LINE
8
Polygon
10
-0.3208919192829325
20
-0.18775726699987463
11
-0.3212019789111647
21
-0.18781200271323917
0
LINE
8
Polygon
10
-0.3212019789111647
20
-0.18781200271323917
11
-0.3215117727727652
21
-0.18786822312493837
0
LINE
8
Polygon
10
-0.3215117727727652
20
-0.18786822312493837
11
-0.3218212937584045
21
-0.18792592694479354
0
LINE
8
Polygon
10
-0.3218212937584045
20
-0.18792592694479354
11
-0.3221305347650151
21
-0.18798511284858385
0
LINE
8
Polygon
10
-0.3221305347650151
20
-0.18798511284858385
11
-0.32243948869595457
21
-0.18804577947807682
0
LINE
8
Polygon
10
-0.32243948869595457
20
-0.18804577947807682
11
-0.3227481484611686
21
-0.18810792544105936
0
LINE
8
Polygon
10
-0.3227481484611686
20
-0.18810792544105936
11
-0.32305650697735344
21
-0.1881715493113698
0
LINE
8
Polygon
10
-0.32305650697735344
20
-0.1881715493113698
11
-0.3233645571681187
21
-0.1882366496289306
0
LINE
8
Polygon
10
-0.3233645571681187
20
-0.1882366496289306
11
-0.32367229196414943
21
-0.1883032248997818
0
LINE
8
Polygon
10
-0.32367229196414943
20
-0.1883032248997818
11
-0.32397970430336875
21
-0.18837127359611539
0
LINE
8
Polygon
10
-0.32397970430336875
20
-0.18837127359611539
11
-0.3242867871310996
21
-0.18844079415631032
0
LINE
8
Polygon
10
-0.3242867871310996
20
-0.18844079415631032
11
-0.3245935334002268
21
-0.18851178498496843
0
LINE
8
Polygon
10
-0.3245935334002268
20
-0.18851178498496843
11
-0.3248999360713586
21
-0.18858424445295086
0
LINE
8
Polygon
10
-0.3248999360713586
20
-0.18858424445295086
11
-0.3252059881129884
21
-0.18865817089741566
0
LINE
8
Polygon
10
-0.3252059881129884
20
-0.18865817089741566
11
-0.3255116825016562
21
-0.18873356262185575
0
LINE
8
Polygon
10
-0.3255116825016562
20
-0.18873356262185575
11
-0.3258170122221093
21
-0.1888104178961381
0
LINE
8
Polygon
10
-0.3258170122221093
20
-0.1888104178961381
11
-0.3261219702674639
21
-0.18888873495654313
0
LINE
8
Polygon
10
-0.3261219702674639
20
-0.18888873495654313
11
-0.32642654963936557
21
-0.18896851200580547
0
LINE
8
Polygon
10
-0.32642654963936557
20
-0.18896851200580547
11
-0.3267307433481498
21
-0.189049747213155
0
LINE
8
Polygon
10
-0.3267307433481498
20
-0.189049747213155
11
-0.32703454441300245
21
-0.18913243871435897
0
LINE
8
Polygon
10
-0.32703454441300245
20
-0.18913243871435897
11
-0.3273379458621202
21
-0.18921658461176477
0
LINE
8
Polygon
10
-0.3273379458621202
20
-0.18921658461176477
11
-0.3276409407328703
21
-0.18930218297434342
0
LINE
8
Polygon
10
-0.3276409407328703
20
-0.18930218297434342
11
-0.32794352207195027
21
-0.18938923183773393
0
LINE
8
Polygon
10
-0.32794352207195027
20
-0.18938923183773393
11
-0.3282456829355477
21
-0.18947772920428835
0
LINE
8
Polygon
10
-0.3282456829355477
20
-0.18947772920428835
11
-0.3285474163894994
21
-0.18956767304311778
0
LINE
8
Polygon
10
-0.3285474163894994
20
-0.18956767304311778
11
-0.3288487155094508
21
-0.1896590612901386
0
LINE
8
Polygon
10
-0.3288487155094508
20
-0.1896590612901386
11
-0.3291495733810144
21
-0.1897518918481203
0
LINE
8
Polygon
10
-0.3291495733810144
20
-0.1897518918481203
11
-0.32944998309992907
21
-0.18984616258673323
0
LINE
8
Polygon
10
-0.32944998309992907
20
-0.18984616258673323
11
-0.32974993777221784
21
-0.1899418713425977
0
LINE
8
Polygon
10
-0.32974993777221784
20
-0.1899418713425977
11
-0.3300494305143466
21
-0.19003901591933356
0
LINE
8
Polygon
10
-0.3300494305143466
20
-0.19003901591933356
11
-0.33034845445338185
21
-0.19013759408761058
0
LINE
8
Polygon
10
-0.33034845445338185
20
-0.19013759408761058
11
-0.3306470027271484
21
-0.19023760358519964
0
LINE
8
Polygon
10
-0.3306470027271484
20
-0.19023760358519964
11
-0.33094506848438693
21
-0.1903390421170247
0
LINE
8
Polygon
10
-0.33094506848438693
20
-0.1903390421170247
11
-0.3312426448849112
21
-0.19044190735521538
0
LINE
8
Polygon
10
-0.3312426448849112
20
-0.19044190735521538
11
-0.331539725099765
21
-0.19054619693916036
0
LINE
8
Polygon
10
-0.331539725099765
20
-0.19054619693916036
11
-0.3318363023113789
21
-0.19065190847556165
0
LINE
8
Polygon
10
-0.3318363023113789
20
-0.19065190847556165
11
-0.33213236971372667
21
-0.1907590395384895
0
LINE
8
Polygon
10
-0.33213236971372667
20
-0.1907590395384895
11
-0.33242792051248143
21
-0.190867587669438
0
LINE
8
Polygon
10
-0.33242792051248143
20
-0.190867587669438
11
-0.3327229479251717
21
-0.19097755037738154
0
LINE
8
Polygon
10
-0.3327229479251717
20
-0.19097755037738154
11
-0.33301744518133697
21
-0.19108892513883197
0
LINE
8
Polygon
10
-0.33301744518133697
20
-0.19108892513883197
11
-0.33331140552268296
21
-0.19120170939789657
0
LINE
8
Polygon
10
-0.33331140552268296
20
-0.19120170939789657
11
-0.33360482220323695
21
-0.19131590056633657
0
LINE
8
Polygon
10
-0.33360482220323695
20
-0.19131590056633657
11
-0.3338976884895023
21
-0.1914314960236267
0
LINE
8
Polygon
10
-0.3338976884895023
20
-0.1914314960236267
11
-0.3341899976606134
21
-0.19154849311701516
0
LINE
8
Polygon
10
-0.3341899976606134
20
-0.19154849311701516
11
-0.33448174300848943
21
-0.19166688916158472
0
LINE
8
Polygon
10
-0.33448174300848943
20
-0.19166688916158472
11
-0.3347729178379885
21
-0.19178668144031408
0
LINE
8
Polygon
10
-0.3605552750662
20
-0.2940477328079767
11
-0.3603556999978403
21
-0.2942912543952461
0
LINE
8
Polygon
10
-0.3603556999978403
20
-0.2942912543952461
11
-0.3601549606404997
21
-0.2945338171330924
0
LINE
8
Polygon
10
-0.3601549606404997
20
-0.2945338171330924
11
-0.3599530616008616
21
-0.2947754154550448
0
LINE
8
Polygon
10
-0.3599530616008616
20
-0.2947754154550448
11
-0.3597500075122226
21
-0.29501604381676466
0
LINE
8
Polygon
10
-0.3597500075122226
20
-0.29501604381676466
11
-0.3595458030343858
21
-0.2952556966961724
0
LINE
8
Polygon
10
-0.3595458030343858
20
-0.2952556966961724
11
-0.3593404528535544
21
-0.2954943685935745
0
LINE
8
Polygon
10
-0.3593404528535544
20
-0.2954943685935745
11
-0.3591339616822236
21
-0.2957320540317895
0
LINE
8
Polygon
10
-0.3591339616822236
20
-0.2957320540317895
11
-0.35892633425907294
21
-0.2959687475562738
0
LINE
8
Polygon
10
-0.35892633425907294
20
-0.2959687475562738
11
-0.35871757534885707
21
-0.2962044437352468
0
LINE
8
Polygon
10
-0.35871757534885707
20
-0.2962044437352468
11
-0.3585076897422969
21
-0.2964391371598157
0
LINE
8
Polygon
10
-0.3585076897422969
20
-0.2964391371598157
11
-0.3582966822559693
21
-0.29667282244409926
0
LINE
8
Polygon
10
-0.3582966822559693
20
-0.29667282244409926
11
-0.35808455773219666
21
-0.29690549422535184
0
LINE
8
Polygon
10
-0.35808455773219666
20
-0.29690549422535184
11
-0.35787132103893593
21
-0.29713714716408607
0
LINE
8
Polygon
10
-0.35787132103893593
20
-0.29713714716408607
11
-0.3576569770696666
21
-0.2973677759441958
0
LINE
8
Polygon
10
-0.3576569770696666
20
-0.2973677759441958
11
-0.3574415307432787
21
-0.29759737527307756
0
LINE
8
Polygon
10
-0.3574415307432787
20
-0.29759737527307756
11
-0.3572249870039598
21
-0.29782593988175265
0
LINE
8
Polygon
10
-0.3572249870039598
20
-0.29782593988175265
11
-0.3570073508210815
21
-0.2980534645249875
0
LINE
8
Polygon
10
-0.3570073508210815
20
-0.2980534645249875
11
-0.35678862718908533
21
-0.2982799439814144
0
LINE
8
Polygon
10
-0.35678862718908533
20
-0.2982799439814144
11
-0.35656882112736843
21
-0.2985053730536511
0
LINE
8
Polygon
10
-0.35656882112736843
20
-0.2985053730536511
11
-0.356347937680168
21
-0.2987297465684202
0
LINE
8
Polygon
10
-0.356347937680168
20
-0.2987297465684202
11
-0.3561259819164458
21
-0.29895305937666794
0
LINE
8
Polygon
10
-0.3561259819164458
20
-0.29895305937666794
11
-0.35590295892977164
21
-0.29917530635368217
0
LINE
8
Polygon
10
-0.35590295892977164
20
-0.29917530635368217
11
-0.35567887383820673
21
-0.29939648239921
0
LINE
8
Polygon
10
-0.35567887383820673
20
-0.29939648239921
11
-0.355453731784186
21
-0.29961658243757516
0
LINE
8
Polygon
10
-0.35545373178418604
20
-0.2996165824375751
11
-0.35522753793440015
21
-0.29983560141779386
0
LINE
8
Polygon
10
-0.35522753793440015
20
-0.29983560141779386
11
-0.3550002974796771
21
-0.3000535343136913
0
LINE
8
Polygon
10
-0.3550002974796771
20
-0.3000535343136913
11
-0.3547720156348629
21
-0.30027037612401675
0
LINE
8
Polygon
10
-0.3547720156348629
20
-0.30027037612401675
11
-0.35454269763870194
21
-0.3004861218725583
0
LINE
8
Polygon
10
-0.35454269763870194
20
-0.3004861218725583
11
-0.35431234875371703
21
-0.30070076660825706
0
LINE
8
Polygon
10
-0.35431234875371703
20
-0.30070076660825706
11
-0.35408097426608814
21
-0.30091430540532094
0
LINE
8
Polygon
10
-0.35408097426608814
20
-0.30091430540532094
11
-0.3538485794855316
21
-0.30112673336333745
0
LINE
8
Polygon
10
-0.3538485794855316
20
-0.30112673336333745
11
-0.3536151697451778
21
-0.30133804560738636
0
LINE
8
Polygon
10
-0.3536151697451778
20
-0.30133804560738636
11
-0.3533807504014493
21
-0.3015482372881515
0
LINE
8
Polygon
10
-0.3533807504014493
20
-0.3015482372881515
11
-0.35314532683393723
21
-0.301757303582032
0
LINE
8
Polygon
10
-0.35314532683393723
20
-0.301757303582032
11
-0.35290890444527867
21
-0.301965239691253
0
LINE
8
Polygon
10
-0.35290890444527867
20
-0.301965239691253
11
-0.3526714886610319
21
-0.30217204084397575
0
LINE
8
Polygon
10
-0.3526714886610319
20
-0.30217204084397575
11
-0.3524330849295523
21
-0.3023777022944073
0
LINE
8
Polygon
10
-0.3524330849295523
20
-0.3023777022944073
11
-0.3521936987218673
21
-0.30258221932290913
0
LINE
8
Polygon
10
-0.3521936987218673
20
-0.30258221932290913
11
-0.3519533355315508
21
-0.30278558723610555
0
LINE
8
Polygon
10
-0.3519533355315508
20
-0.30278558723610555
11
-0.3517120008745969
21
-0.30298780136699155
0
LINE
8
Polygon
10
-0.3517120008745969
20
-0.30298780136699155
11
-0.3514697002892937
21
-0.3031888570750396
0
LINE
8
Polygon
10
-0.3514697002892937
20
-0.3031888570750396
11
-0.3512264393360958
21
-0.3033887497463066
0
LINE
8
Polygon
10
-0.3512264393360958
20
-0.3033887497463066
11
-0.3509822235974969
21
-0.3035874747935392
0
LINE
8
Polygon
10
-0.3509822235974969
20
-0.3035874747935392
11
-0.35073705867790184
21
-0.3037850276562796
0
LINE
8
Polygon
10
-0.35073705867790184
20
-0.3037850276562796
11
-0.3504909502034976
21
-0.3039814038009699
0
LINE
8
Polygon
10
-0.3504909502034976
20
-0.3039814038009699
11
-0.3502439038221245
21
-0.3041765987210561
0
LINE
8
Polygon
10
-0.3502439038221245
20
-0.3041765987210561
11
-0.34999592520314654
21
-0.3043706079370918
0
LINE
8
Polygon
10
-0.34999592520314654
20
-0.3043706079370918
11
-0.34974702003732117
21
-0.3045634269968407
0
LINE
8
Polygon
10
-0.34974702003732117
20
-0.3045634269968407
11
-0.3494419791541108
21
-0.30480822313355904
0
LINE
8
Polygon
10
-0.3494419791541108
20
-0.30480822313355904
11
-0.349146744232027
21
-0.3050647605182892
0
LINE
8
Polygon
10
-0.349146744232027
20
-0.3050647605182892
11
-0.3488617669069546
21
-0.3053326467127385
0
LINE
8
Polygon
10
-0.3488617669069546
20
-0.3053326467127385
11
-0.34858748312321014
21
-0.3056114719177628
0
LINE
8
Polygon
10
-0.34858748312321014
20
-0.3056114719177628
11
-0.34832431246665585
21
-0.30590080960025645
0
LINE
8
Polygon
10
-0.34832431246665585
20
-0.30590080960025645
11
-0.3480726575228379
21
-0.3062002171456422
0
LINE
8
Polygon
10
-0.3480726575228379
20
-0.3062002171456422
11
-0.34783290326113037
21
-0.3065092365349612
0
LINE
8
Polygon
10
-0.34783290326113037
20
-0.3065092365349612
11
-0.3476054164458285
21
-0.3068273950455276
0
LINE
8
Polygon
10
-0.3476054164458285
20
-0.3068273950455276
11
-0.34739054507509043
21
-0.3071542059740767
0
LINE
8
Polygon
10
-0.34739054507509043
20
-0.3071542059740767
11
-0.3471886178485868
21
-0.3074891693812999
0
LINE
8
Polygon
10
-0.3471886178485868
20
-0.3074891693812999
11
-0.3469999436646719
21
-0.3078317728566268
0
LINE
8
Polygon
10
-0.3469999436646719
20
-0.3078317728566268
11
-0.3468248111478466
21
-0.30818149230208614
0
LINE
8
Polygon
10
-0.3468248111478466
20
-0.30818149230208614
11
-0.3466634882072342
21
-0.30853779273404514
0
LINE
8
Polygon
10
-0.3466634882072342
20
-0.30853779273404514
11
-0.3465162216267468
21
-0.308900129101601
0
LINE
8
Polygon
10
-0.3465162216267468
20
-0.308900129101601
11
-0.3463832366875669
21
-0.30926794712037287
0
LINE
8
Polygon
10
-0.3463832366875669
20
-0.30926794712037287
11
-0.34626473682352343
21
-0.3096406841204194
0
LINE
8
Polygon
10
-0.34626473682352343
20
-0.3096406841204194
11
-0.34616090330988897
21
-0.31001776990698304
0
LINE
8
Polygon
10
-0.34616090330988897
20
-0.31001776990698304
11
-0.3460718949860734
21
-0.3103986276327463
0
LINE
8
Polygon
10
-0.3460718949860734
20
-0.3103986276327463
11
-0.3459978480126392
21
-0.3107826746802642
0
LINE
8
Polygon
10
-0.3459978480126392
20
-0.3107826746802642
11
-0.34593887566300996
21
-0.31116932355322413
0
LINE
8
Polygon
10
-0.34593887566300996
20
-0.31116932355322413
11
-0.34589506815018994
21
-0.31155798277516866
0
LINE
8
Polygon
10
-0.34589506815018994
20
-0.31155798277516866
11
-0.3458664924887609
21
-0.3119480577943071
0
LINE
8
Polygon
10
-0.3458664924887609
20
-0.3119480577943071
11
-0.3458531923923663
21
-0.31233895189303196
0
LINE
8
Polygon
10
-0.3458531923923663
20
-0.31233895189303196
11
-0.3458551882068404
21
-0.3127300671007478
0
LINE
8
Polygon
10
-0.3458551882068404
20
-0.3127300671007478
11
-0.3458724768790843
21
-0.31312080510861756
0
LINE
8
Polygon
10
-0.3458724768790843
20
-0.31312080510861756
11
-0.3459050319617362
21
-0.31351056818482603
0
LINE
8
Polygon
10
-0.3459050319617362
20
-0.3135105681848261
11
-0.3459528036536295
21
-0.31389876008896067
0
LINE
8
Polygon
10
-0.3459528036536295
20
-0.31389876008896067
11
-0.34601571887597604
21
-0.31428478698411055
0
LINE
8
Polygon
10
-0.34601571887597604
20
-0.31428478698411055
11
-0.34609368138415836
21
-0.31466805834528944
0
LINE
8
Polygon
10
-0.34609368138415836
20
-0.3146680583452895
11
-0.3461865719149602
21
-0.31504798786279153
0
LINE
8
Polygon
10
-0.3461865719149602
20
-0.31504798786279153
11
-0.3462942483690095
21
-0.31542399433909923
0
LINE
8
Polygon
10
-0.3462942483690095
20
-0.3154239943390993
11
-0.34641654602815486
21
-0.315795502577971
0
LINE
8
Polygon
10
-0.34641654602815486
20
-0.315795502577971
11
-0.34655327780744327
21
-0.31616194426434774
0
LINE
8
Polygon
10
-0.34655327780744327
20
-0.31616194426434774
11
-0.34670423454131377
21
-0.31652275883373365
0
LINE
8
Polygon
10
-0.34670423454131377
20
-0.31652275883373365
11
-0.34686918530356836
21
-0.3168773943297202
0
LINE
8
Polygon
10
-0.34686918530356836
20
-0.3168773943297202
11
-0.3470478777606318
21
-0.3172253082483418
0
LINE
8
Polygon
10
-0.3470478777606318
20
-0.3172253082483418
11
-0.3472400385575588
21
-0.31756596836797185
0
LINE
8
Polygon
10
-0.3472400385575588
20
-0.31756596836797185
11
-0.34744537373619927
21
-0.3178988535634893
0
LINE
8
Polygon
10
-0.34744537373619927
20
-0.3178988535634893
11
-0.347663569184881
21
-0.31822345460347
0
LINE
8
Polygon
10
-0.347663569184881
20
-0.31822345460347
11
-0.3478942911189223
21
-0.31853927492918427
0
LINE
8
Polygon
10
-0.3478942911189223
20
-0.31853927492918427
11
-0.3481371865912391
21
-0.3188458314142078
0
LINE
8
Polygon
10
-0.3481371865912391
20
-0.3188458314142078
11
-0.34839188403226656
21
-0.31914265510348483
0
LINE
8
Polygon
10
-0.34839188403226656
20
-0.31914265510348483
11
-0.3486579938183677
21
-0.3194292919307126
0
LINE
8
Polygon
10
-0.3486579938183677
20
-0.3194292919307126
11
-0.3489351088678604
21
-0.3197053034129496
0
LINE
8
Polygon
10
-0.3489351088678604
20
-0.3197053034129496
11
-0.34922280526375105
21
-0.3199702673213853
0
LINE
8
Polygon
10
-0.3492228052637511
20
-0.3199702673213853
11
-0.3495206429022222
21
-0.3202237783272449
0
LINE
8
Polygon
10
-0.3495206429022222
20
-0.3202237783272449
11
-0.34982816616588114
21
-0.32046544862184173
0
LINE
8
Polygon
10
-0.3498281661658812
20
-0.32046544862184173
11
-0.3501449046207419
21
-0.3206949085098275
0
LINE
8
Polygon
10
-0.3501449046207418
20
-0.3206949085098275
11
-0.35241133307767947
21
-0.32243594481550625
0
LINE
8
Polygon
10
-0.35241133307767947
20
-0.32243594481550625
11
-0.3545018052693416
21
-0.32438474736681705
0
LINE
8
Polygon
10
-0.3545018052693416
20
-0.32438474736681705
11
-0.3563973492190214
21
-0.32652362990284856
0
LINE
8
Polygon
10
-0.3563973492190214
20
-0.32652362990284856
11
-0.35808076201160544
21
-0.3288331811012143
0
LINE
8
Polygon
10
-0.35808076201160544
20
-0.3288331811012143
11
-0.3595367659177767
21
-0.3312924407445464
0
LINE
8
Polygon
10
-0.3595367659177767
20
-0.3312924407445464
11
-0.3607521470462895
21
-0.33387908994390897
0
LINE
8
Polygon
10
-0.3607521470462895
20
-0.33387908994390897
11
-0.36171587526598387
21
-0.33656965369276776
0
LINE
8
Polygon
10
-0.36171587526598387
20
-0.33656965369276776
11
-0.3624192043091942
21
-0.3393397139132476
0
LINE
8
Polygon
10
-0.3624192043091942
20
-0.3393397139132476
11
-0.3628557511480678
21
-0.3421641310611876
0
LINE
8
Polygon
10
-0.3628557511480678
20
-0.3421641310611876
11
-0.36302155392341706
21
-0.3450172722788273
0
LINE
8
Polygon
10
-0.36302155392341706
20
-0.34501727227882734
11
-0.3629151079003767
21
-0.3478732440245361
0
LINE
8
Polygon
10
-0.3629151079003767
20
-0.3478732440245361
11
-0.36253737912455003
21
-0.3507061270683663
0
LINE
8
Polygon
10
-0.36253737912455003
20
-0.3507061270683663
11
-0.3618917956547102
21
-0.3534902117207391
0
LINE
8
Polygon
10
-0.3618917956547102
20
-0.3534902117207391
11
-0.3609842164516225
21
-0.35620023115945737
0
LINE
8
Polygon
10
-0.3609842164516225
20
-0.35620023115945737
11
-0.3598228782053369
21
-0.3588115907374976
0
LINE
8
Polygon
10
-0.3598228782053369
20
-0.3588115907374976
11
-0.35841832058351564
21
-0.36130059119050917
0
LINE
8
Polygon
10
-0.35841832058351564
20
-0.36130059119050917
11
-0.3567832905792021
21
-0.3636446437183128
0
LINE
8
Polygon
10
-0.3567832905792021
20
-0.3636446437183128
11
-0.3549326268261177
21
-0.3658224749884363
0
LINE
8
Polygon
10
-0.3549326268261177
20
-0.3658224749884363
11
-0.3528831249313773
21
-0.3678143202011884
0
LINE
8
Polygon
10
-0.3528831249313773
20
-0.3678143202011884
11
-0.35065338504778976
21
-0.36960210246411845
0
LINE
8
Polygon
10
-0.35065338504778976
20
-0.36960210246411845
11
-0.3482636430690937
21
-0.37116959684795714
0
LINE
8
Polygon
10
-0.3482636430690937
20
-0.37116959684795714
11
-0.3457355869801069
21
-0.37250257763515743
0
LINE
8
Polygon
10
-0.3457355869801069
20
-0.37250257763515743
11
-0.3430921600284963
21
-0.37358894742468896
0
LINE
8
Polygon
10
-0.3430921600284963
20
-0.37358894742468896
11
-0.340357352504471
21
-0.374418846921401
0
LINE
8
Polygon
10
-0.340357352504471
20
-0.374418846921401
11
-0.3375559840180936
21
-0.3749847444135667
0
LINE
8
Polygon
10
-0.3375559840180936
20
-0.3749847444135667
11
-0.3347134782501394
21
-0.3752815041265593
0
LINE
8
Polygon
10
-0.3347134782501394
20
-0.3752815041265593
11
-0.33185563222074294
21
-0.3753064328323202
0
LINE
8
Polygon
10
-0.33185563222074294
20
-0.3753064328323202
11
-0.32900838216982053
21
-0.37505930429161644
0
LINE
8
Polygon
10
-0.32900838216982053
20
-0.37505930429161644
11
-0.32619756817401135
21
-0.3745423613072638
0
LINE
8
Polygon
10
-0.32619756817401135
20
-0.3745423613072638
11
-0.3234486996363433
21
-0.37376029536968114
0
LINE
8
Polygon
10
-0.3234486996363433
20
-0.37376029536968114
11
-0.320786723776911
21
-0.37272020407950157
0
LINE
8
Polygon
10
-0.320786723776911
20
-0.37272020407950157
11
-0.3182357992256165
21
-0.3714315267336499
0
LINE
8
Polygon
10
-0.3182357992256165
20
-0.3714315267336499
11
-0.3158190767717224
21
-0.3699059586594716
0
LINE
8
Polygon
10
-0.3158190767717224
20
-0.3699059586594716
11
-0.31355848926001123
21
-0.3681573450743695
0
LINE
8
Polygon
10
-0.31355848926001123
20
-0.3681573450743695
11
-0.3114745525403408
21
-0.3662015554342197
0
LINE
8
Polygon
10
-0.3114745525403408
20
-0.3662015554342197
11
-0.30958617927706594
21
-0.36405633941091187
0
LINE
8
Polygon
10
-0.3095861792770659
20
-0.36405633941091187
11
-0.3079105073080912
21
-0.36174116580608207
0
LINE
8
Polygon
10
-0.3079105073080912
20
-0.36174116580608207
11
-0.3064627441112729
21
-0.3592770458629692
0
LINE
8
Polygon
10
-0.3064627441112729
20
-0.3592770458629692
11
-0.3052560287897076
21
-0.3566863425799189
0
LINE
8
Polygon
10
-0.3052560287897076
20
-0.3566863425799189
11
-0.304301312828454
21
-0.3539925677561009
0
LINE
8
Polygon
10
-0.304301312828454
20
-0.3539925677561009
11
-0.30360726070487326
21
-0.35122016861134175
0
LINE
8
Polygon
10
-0.30360726070487326
20
-0.35122016861134175
11
-0.303180171254594
21
-0.34839430591659376
0
LINE
8
Polygon
10
-0.303180171254594
20
-0.34839430591659376
11
-0.30302392050674265
21
-0.34554062564860577
0
LINE
8
Polygon
10
-0.30302392050674265
20
-0.34554062564860577
11
-0.30313992650723254
21
-0.34268502624113306
0
LINE
8
Polygon
10
-0.30313992650723254
20
-0.34268502624113306
11
-0.3035271364493592
21
-0.33985342354498616
0
LINE
8
Polygon
10
-0.3035271364493592
20
-0.33985342354498616
11
-0.3041820362284949
21
-0.337071515630012
0
LINE
8
Polygon
10
-0.3041820362284949
20
-0.337071515630012
11
-0.30509868233417126
21
-0.33436454956353523
0
LINE
8
Polygon
10
-0.30509868233417126
20
-0.33436454956353523
11
-0.30626875579011353
21
-0.3317570922818512
0
LINE
8
Polygon
10
-0.3062687557901136
20
-0.3317570922818512
11
-0.3064388444016529
21
-0.33140489212113766
0
LINE
8
Polygon
10
-0.3064388444016529
20
-0.33140489212113766
11
-0.30659503028768414
21
-0.33104631011101077
0
LINE
8
Polygon
10
-0.30659503028768414
20
-0.33104631011101077
11
-0.30673707452270904
21
-0.33068189479261956
0
LINE
8
Polygon
10
-0.30673707452270904
20
-0.33068189479261956
11
-0.3068647598144328
21
-0.3303122036306216
0
LINE
8
Polygon
10
-0.3068647598144328
20
-0.3303122036306216
11
-0.3069778908361666
21
-0.3299378021604008
0
LINE
8
Polygon
10
-0.3069778908361666
20
-0.3299378021604008
11
-0.30707629452562946
21
-0.3295592631229396
0
LINE
8
Polygon
10
-0.30707629452562946
20
-0.3295592631229396
11
-0.3071598203496898
21
-0.32917716558866716
0
LINE
8
Polygon
10
-0.3071598203496898
20
-0.32917716558866716
11
-0.30722834053464393
21
-0.32879209407162674
0
LINE
8
Polygon
10
-0.30722834053464393
20
-0.32879209407162674
11
-0.3072817502616779
21
-0.328404637635314
0
LINE
8
Polygon
10
-0.3072817502616779
20
-0.328404637635314
11
-0.3073199678272144
21
-0.32801538899155724
0
LINE
8
Polygon
10
-0.3073199678272144
20
-0.32801538899155724
11
-0.30734293476789837
21
-0.3276249435938156
0
LINE
8
Polygon
10
-0.30734293476789837
20
-0.32762494359381567
11
-0.307350615950032
21
-0.3272338987262838
0
LINE
8
Polygon
10
-0.307350615950032
20
-0.3272338987262838
11
-0.30734299962331996
21
-0.3268428525901957
0
LINE
8
Polygon
10
-0.30734299962331996
20
-0.3268428525901957
11
-0.3073200974388449
21
-0.32645240338872605
0
LINE
8
Polygon
10
-0.3073200974388449
20
-0.32645240338872605
11
-0.30728194443124396
21
-0.32606314841188827
0
LINE
8
Polygon
10
-0.30728194443124396
20
-0.32606314841188827
11
-0.30722859896511434
21
-0.32567568312282946
0
LINE
8
Polygon
10
-0.30722859896511434
20
-0.32567568312282946
11
-0.3071601426457303
21
-0.3252906002469204
0
LINE
8
Polygon
10
-0.3071601426457303
20
-0.3252906002469204
11
-0.30707668019420753
21
-0.32490848886503315
0
LINE
8
Polygon
10
-0.30707668019420753
20
-0.32490848886503315
11
-0.3069783392873053
21
-0.3245299335123941
0
LINE
8
Polygon
10
-0.3069783392873053
20
-0.3245299335123941
11
-0.30686527036211353
21
-0.3241555132843909
0
LINE
8
Polygon
10
-0.30686527036211353
20
-0.3241555132843909
11
-0.30673764638592116
21
-0.3237858009507005
0
LINE
8
Polygon
10
-0.30673764638592116
20
-0.3237858009507005
11
-0.30659566259161936
21
-0.32342136207909417
0
LINE
8
Polygon
10
-0.30659566259161936
20
-0.3234213620790942
11
-0.30643953617904374
21
-0.32306275417026026
0
LINE
8
Polygon
10
-0.30643953617904374
20
-0.32306275417026026
11
-0.30626950598271285
21
-0.32271052580496623
0
LINE
8
Polygon
10
-0.30626950598271285
20
-0.32271052580496623
11
-0.3060858321064709
21
-0.32236521580486743
0
LINE
8
Polygon
10
-0.3060858321064709
20
-0.32236521580486743
11
-0.30588879552559345
21
-0.3220273524082437
0
LINE
8
Polygon
10
-0.30588879552559345
20
-0.3220273524082437
11
-0.3056786976569654
21
-0.3216974524619267
0
LINE
8
Polygon
10
-0.3056786976569654
20
-0.3216974524619267
11
-0.30545585989798835
21
-0.32137602063065285
0
LINE
8
Polygon
10
-0.30545585989798835
20
-0.32137602063065285
11
-0.30522062313492226
21
-0.32106354862505204
0
LINE
8
Polygon
10
-0.30522062313492226
20
-0.32106354862505204
11
-0.3049733472214148
21
-0.3207605144494529
0
LINE
8
Polygon
10
-0.3049733472214148
20
-0.3207605144494529
11
-0.30471441042801467
21
-0.3204673816706552
0
LINE
8
Polygon
10
-0.30471441042801467
20
-0.3204673816706552
11
-0.30444420886351203
21
-0.3201845987087881
0
LINE
8
Polygon
10
-0.30444420886351203
20
-0.3201845987087881
11
-0.3041631558689905
21
-0.31991259815133927
0
LINE
8
Polygon
10
-0.3041631558689905
20
-0.31991259815133927
11
-0.3038716813855187
21
-0.3196517960914034
0
LINE
8
Polygon
10
-0.3038716813855187
20
-0.3196517960914034
11
-0.30357023129644695
21
-0.3194025914911637
0
LINE
8
Polygon
10
-0.30357023129644695
20
-0.3194025914911637
11
-0.3032592667453172
21
-0.31916536557157915
0
LINE
8
Polygon
10
-0.3032592667453172
20
-0.31916536557157915
11
-0.30293926343042843
21
-0.3189404812292114
0
LINE
8
Polygon
10
-0.30293926343042843
20
-0.3189404812292114
11
-0.3026107108771362
21
-0.31872828248108326
0
LINE
8
Polygon
10
-0.3026107108771362
20
-0.31872828248108326
11
-0.3022741116890013
21
-0.3185290939384185
0
LINE
8
Polygon
10
-0.3022741116890013
20
-0.3185290939384185
11
-0.3019299807789313
21
-0.3183432203100675
0
LINE
8
Polygon
10
-0.3019299807789313
20
-0.31834322031006745
11
-0.30157884458149203
21
-0.31817094593637857
0
LINE
8
Polygon
10
-0.30157884458149203
20
-0.31817094593637857
11
-0.30122124024759406
21
-0.3180125343542282
0
LINE
8
Polygon
10
-0.30122124024759406
20
-0.3180125343542282
11
-0.3008577148227853
21
-0.3178682278938752
0
LINE
8
Polygon
10
-0.3008577148227853
20
-0.3178682278938752
11
-0.30048882441040786
21
-0.3177382473082556
0
LINE
8
Polygon
10
-0.30048882441040786
20
-0.3177382473082556
11
-0.30011513332089834
21
-0.317622791435286
0
LINE
8
Polygon
10
-0.30011513332089834
20
-0.317622791435286
11
-0.2997372132085334
21
-0.31752203689369074
0
LINE
8
Polygon
10
-0.2997372132085334
20
-0.31752203689369074
11
-0.2993556421969412
21
-0.31743613781281954
0
LINE
8
Polygon
10
-0.2993556421969412
20
-0.31743613781281954
11
-0.2989710039947163
21
-0.3173652255968677
0
LINE
8
Polygon
10
-0.2989710039947163
20
-0.3173652255968677
11
-0.29866043418544225
21
-0.31731346301439284
0
LINE
8
Polygon
10
-0.29866043418544225
20
-0.31731346301439284
11
-0.298350115906007
21
-0.31726021325546994
0
LINE
8
Polygon
10
-0.298350115906007
20
-0.31726021325546994
11
-0.2980400562777748
21
-0.3172054775421054
0
LINE
8
Polygon
10
-0.2980400562777748
20
-0.3172054775421054
11
-0.2977302624161743
21
-0.3171492571304062
0
LINE
8
Polygon
10
-0.2977302624161743
20
-0.3171492571304062
11
-0.297420741430535
21
-0.317091553310551
0
LINE
8
Polygon
10
-0.297420741430535
20
-0.317091553310551
11
-0.2971115004239244
21
-0.31703236740676066
0
LINE
8
Polygon
10
-0.2971115004239244
20
-0.31703236740676066
11
-0.29680254649298493
21
-0.3169717007772677
0
LINE
8
Polygon
10
-0.29680254649298493
20
-0.3169717007772677
11
-0.2964938867277709
21
-0.3169095548142852
0
LINE
8
Polygon
10
-0.2964938867277709
20
-0.3169095548142852
11
-0.29618552821158606
21
-0.31684593094397473
0
LINE
8
Polygon
10
-0.29618552821158606
20
-0.31684593094397473
11
-0.2958774780208208
21
-0.31678083062641393
0
LINE
8
Polygon
10
-0.2958774780208208
20
-0.31678083062641393
11
-0.29556974322479007
21
-0.31671425535556275
0
LINE
8
Polygon
10
-0.29556974322479007
20
-0.31671425535556275
11
-0.29526233088557075
21
-0.31664620665922916
0
LINE
8
Polygon
10
-0.29526233088557075
20
-0.31664620665922916
11
-0.2949552480578399
21
-0.3165766860990342
0
LINE
8
Polygon
10
-0.2949552480578399
20
-0.3165766860990342
11
-0.2946485017887127
21
-0.3165056952703761
0
LINE
8
Polygon
10
-0.2946485017887127
20
-0.3165056952703761
11
-0.2943420991175809
21
-0.3164332358023937
0
LINE
8
Polygon
10
-0.2943420991175809
20
-0.3164332358023937
11
-0.29403604707595105
21
-0.3163593093579289
0
LINE
8
Polygon
10
-0.29403604707595105
20
-0.3163593093579289
11
-0.2937303526872833
21
-0.3162839176334888
0
LINE
8
Polygon
10
-0.2937303526872833
20
-0.3162839176334888
11
-0.2934250229668302
21
-0.3162070623592065
0
LINE
8
Polygon
10
-0.2934250229668302
20
-0.3162070623592065
11
-0.2931200649214756
21
-0.3161287452988014
0
LINE
8
Polygon
10
-0.2931200649214756
20
-0.3161287452988014
11
-0.29281548554957393
21
-0.3160489682495391
0
LINE
8
Polygon
10
-0.29281548554957393
20
-0.3160489682495391
11
-0.2925112918407897
21
-0.3159677330421895
0
LINE
8
Polygon
10
-0.2925112918407897
20
-0.3159677330421895
11
-0.29220749077593705
21
-0.31588504154098557
0
LINE
8
Polygon
10
-0.29220749077593705
20
-0.31588504154098557
11
-0.29190408932681927
21
-0.31580089564357977
0
LINE
8
Polygon
10
-0.29190408932681927
20
-0.31580089564357977
11
-0.2916010944560692
21
-0.3157152972810011
0
LINE
8
Polygon
10
-0.2916010944560692
20
-0.3157152972810011
11
-0.2912985131169892
21
-0.3156282484176106
0
LINE
8
Polygon
10
-0.2912985131169892
20
-0.3156282484176106
11
-0.2909963522533918
21
-0.3155397510510562
0
LINE
8
Polygon
10
-0.2909963522533918
20
-0.3155397510510562
11
-0.2906946187994401
21
-0.31544980721222676
0
LINE
8
Polygon
10
-0.2906946187994401
20
-0.31544980721222676
11
-0.2903933196794887
21
-0.31535841896520594
0
LINE
8
Polygon
10
-0.2903933196794887
20
-0.31535841896520594
11
-0.2900924618079251
21
-0.31526558840722424
0
LINE
8
Polygon
10
-0.2900924618079251
20
-0.31526558840722424
11
-0.28979205208901043
21
-0.3151713176686113
0
LINE
8
Polygon
10
-0.28979205208901043
20
-0.3151713176686113
11
-0.28949209741672166
21
-0.31507560891274683
0
LINE
8
Polygon
10
-0.28949209741672166
20
-0.31507560891274683
11
-0.2891926046745929
21
-0.31497846433601095
0
LINE
8
Polygon
10
-0.2891926046745929
20
-0.31497846433601095
11
-0.28889358073555765
21
-0.314879886167734
0
LINE
8
Polygon
10
-0.28889358073555765
20
-0.314879886167734
11
-0.2885950324617911
21
-0.3147798766701449
0
LINE
8
Polygon
10
-0.2885950324617911
20
-0.3147798766701449
11
-0.28829696670455257
21
-0.3146784381383198
0
LINE
8
Polygon
10
-0.28829696670455257
20
-0.3146784381383198
11
-0.2879993903040283
21
-0.31457557290012916
0
LINE
8
Polygon
10
-0.2879993903040283
20
-0.31457557290012916
11
-0.28770231008917446
21
-0.3144712833161842
0
LINE
8
Polygon
10
-0.2877023100891745
20
-0.3144712833161842
11
-0.2874057328775606
21
-0.3143655717797829
0
LINE
8
Polygon
10
-0.2874057328775606
20
-0.3143655717797829
11
-0.2871096654752128
21
-0.31425844071685505
0
LINE
8
Polygon
10
-0.2871096654752128
20
-0.31425844071685505
11
-0.28681411467645807
21
-0.31414989258590653
0
LINE
8
Polygon
10
-0.28681411467645807
20
-0.31414989258590653
11
-0.2865190872637678
21
-0.31403992987796303
0
LINE
8
Polygon
10
-0.2865190872637678
20
-0.31403992987796303
11
-0.28622459000760253
21
-0.3139285551165126
0
LINE
8
Polygon
10
-0.28622459000760253
20
-0.3139285551165126
11
-0.28593062966625654
21
-0.31381577085744794
0
LINE
8
Polygon
10
-0.28593062966625654
20
-0.31381577085744794
11
-0.28563721298570255
21
-0.31370157968900797
0
LINE
8
Polygon
10
-0.28563721298570255
20
-0.31370157968900797
11
-0.28534434669943715
21
-0.31358598423171785
0
LINE
8
Polygon
10
-0.28534434669943715
20
-0.31358598423171785
11
-0.2850520375283261
21
-0.3134689871383294
0
LINE
8
Polygon
10
-0.2850520375283261
20
-0.3134689871383294
11
-0.28476029218045007
21
-0.31335059109375984
0
LINE
8
Polygon
10
-0.28476029218045007
20
-0.31335059109375984
11
-0.284469117350951
21
-0.31323079881503046
0
LINE
8
Polygon
10
-0.3347729178379885
20
-0.19178668144031408
11
-0.33494205693497414
21
-0.1918570174496846
0
LINE
8
Polygon
10
-0.33494205693497414
20
-0.1918570174496846
11
-0.33511099934347877
21
-0.19192782458881566
0
LINE
8
Polygon
10
-0.33511099934347877
20
-0.19192782458881566
11
-0.33527974375119357
21
-0.1919991023076923
0
LINE
8
Polygon
10
-0.33527974375119357
20
-0.1919991023076923
11
-0.33544828884734756
21
-0.19207085005264432
0
LINE
8
Polygon
10
-0.33544828884734756
20
-0.19207085005264432
11
-0.3356166333227182
21
-0.1921430672663504
0
LINE
8
Polygon
10
-0.3356166333227182
20
-0.1921430672663504
11
-0.33578477586964106
21
-0.19221575338784244
0
LINE
8
Polygon
10
-0.33578477586964106
20
-0.19221575338784244
11
-0.33595271518202047
21
-0.19228890785251007
0
LINE
8
Polygon
10
-0.33595271518202047
20
-0.19228890785251007
11
-0.3361204499553393
21
-0.19236253009210486
0
LINE
8
Polygon
10
-0.3361204499553393
20
-0.19236253009210486
11
-0.33628797888666934
21
-0.1924366195347448
0
LINE
8
Polygon
10
-0.33628797888666934
20
-0.1924366195347448
11
-0.3364553006746812
21
-0.19251117560491876
0
LINE
8
Polygon
10
-0.3364553006746812
20
-0.19251117560491876
11
-0.33662241401965465
21
-0.19258619772349098
0
LINE
8
Polygon
10
-0.33662241401965465
20
-0.19258619772349098
11
-0.3367893176234885
21
-0.19266168530770547
0
LINE
8
Polygon
10
-0.3367893176234885
20
-0.19266168530770547
11
-0.3369560101897109
21
-0.19273763777119063
0
LINE
8
Polygon
10
-0.3369560101897109
20
-0.19273763777119063
11
-0.3371224904234892
21
-0.19281405452396383
0
LINE
8
Polygon
10
-0.3371224904234892
20
-0.19281405452396383
11
-0.33728875703164013
21
-0.1928909349724358
0
LINE
8
Polygon
10
-0.33728875703164013
20
-0.1928909349724358
11
-0.33745480872263983
21
-0.19296827851941556
0
LINE
8
Polygon
10
-0.33745480872263983
20
-0.19296827851941556
11
-0.3376206442066339
21
-0.19304608456411473
0
LINE
8
Polygon
10
-0.3376206442066339
20
-0.19304608456411473
11
-0.33778626219544733
21
-0.19312435250215243
0
LINE
8
Polygon
10
-0.33778626219544733
20
-0.19312435250215243
11
-0.3379516614025946
21
-0.19320308172555983
0
LINE
8
Polygon
10
-0.3379516614025946
20
-0.19320308172555983
11
-0.3381168405432896
21
-0.193282271622785
0
LINE
8
Polygon
10
-0.3381168405432896
20
-0.193282271622785
11
-0.3382817983344557
21
-0.19336192157869753
0
LINE
8
Polygon
10
-0.3382817983344557
20
-0.19336192157869753
11
-0.3384465334947357
21
-0.19344203097459342
0
LINE
8
Polygon
10
-0.3384465334947357
20
-0.19344203097459342
11
-0.3386110447445016
21
-0.19352259918819983
0
LINE
8
Polygon
10
-0.3386110447445016
20
-0.19352259918819983
11
-0.33877533080586486
21
-0.19360362559367988
0
LINE
8
Polygon
10
-0.33877533080586486
20
-0.19360362559367988
11
-0.3389393904026861
21
-0.19368510956163756
0
LINE
8
Polygon
10
-0.3389393904026861
20
-0.19368510956163756
11
-0.339103222260585
21
-0.19376705045912268
0
LINE
8
Polygon
10
-0.339103222260585
20
-0.19376705045912268
11
-0.33926682510695033
21
-0.1938494476496357
0
LINE
8
Polygon
10
-0.33926682510695033
20
-0.1938494476496357
11
-0.3394301976709498
21
-0.19393230049313254
0
LINE
8
Polygon
10
-0.3394301976709498
20
-0.19393230049313254
11
-0.33959333868353986
21
-0.19401560834602993
0
LINE
8
Polygon
10
-0.33959333868353986
20
-0.19401560834602993
11
-0.3397562468774755
21
-0.19409937056121007
0
LINE
8
Polygon
10
-0.3397562468774755
20
-0.19409937056121007
11
-0.3399189209873205
21
-0.19418358648802572
0
LINE
8
Polygon
10
-0.3399189209873205
20
-0.19418358648802572
11
-0.34008135974945664
21
-0.19426825547230542
0
LINE
8
Polygon
10
-0.34008135974945664
20
-0.19426825547230542
11
-0.3402435619020939
21
-0.1943533768563584
0
LINE
8
Polygon
10
-0.3402435619020939
20
-0.1943533768563584
11
-0.3404055261852804
21
-0.19443894997897967
0
LINE
8
Polygon
10
-0.3404055261852804
20
-0.19443894997897967
11
-0.34056725134091176
21
-0.1945249741754554
0
LINE
8
Polygon
10
-0.34056725134091176
20
-0.1945249741754554
11
-0.3407287361127411
21
-0.19461144877756775
0
LINE
8
Polygon
10
-0.3407287361127411
20
-0.19461144877756775
11
-0.340889979246389
21
-0.19469837311360033
0
LINE
8
Polygon
10
-0.340889979246389
20
-0.19469837311360033
11
-0.3410509794893527
21
-0.19478574650834324
0
LINE
8
Polygon
10
-0.3410509794893527
20
-0.19478574650834324
11
-0.3412117355910164
21
-0.19487356828309846
0
LINE
8
Polygon
10
-0.3412117355910164
20
-0.19487356828309846
11
-0.3413722463026608
21
-0.19496183775568496
0
LINE
8
Polygon
10
-0.3413722463026608
20
-0.19496183775568496
11
-0.34153251037747245
21
-0.19505055424044415
0
LINE
8
Polygon
10
-0.34153251037747245
20
-0.19505055424044415
11
-0.341692526570554
21
-0.19513971704824518
0
LINE
8
Polygon
10
-0.341692526570554
20
-0.19513971704824518
11
-0.34185229363893344
21
-0.19522932548649014
0
LINE
8
Polygon
10
-0.34185229363893344
20
-0.19522932548649014
11
-0.342011810341574
21
-0.19531937885911965
0
LINE
8
Polygon
10
-0.342011810341574
20
-0.19531937885911965
11
-0.3421710754393837
21
-0.19540987646661814
0
LINE
8
Polygon
10
-0.3421710754393837
20
-0.19540987646661814
11
-0.3423300876952248
21
-0.19550081760601934
0
LINE
8
Polygon
10
-0.3423300876952248
20
-0.19550081760601934
11
-0.3424888458739238
21
-0.19559220157091173
0
LINE
8
Polygon
10
-0.3424888458739238
20
-0.19559220157091173
11
-0.34264734874228076
21
-0.19568402765144394
0
LINE
8
Polygon
10
-0.34264734874228076
20
-0.19568402765144394
11
-0.3430816221496055
21
-0.19595146889747794
0
LINE
8
Polygon
10
-0.3430816221496055
20
-0.19595146889747794
11
-0.34350169519948565
21
-0.19624070382820757
0
LINE
8
Polygon
10
-0.34350169519948565
20
-0.19624070382820757
11
-0.34390647520541295
21
-0.19655098009090136
0
LINE
8
Polygon
10
-0.34390647520541295
20
-0.19655098009090136
11
-0.344294909260872
21
-0.19688149060049134
0
LINE
8
Polygon
10
-0.344294909260872
20
-0.19688149060049134
11
-0.34466598697814127
21
-0.19723137563894816
0
LINE
8
Polygon
10
-0.34466598697814127
20
-0.1972313756389482
11
-0.34501874311649616
21
-0.19759972509156443
0
LINE
8
Polygon
10
-0.34501874311649616
20
-0.19759972509156443
11
-0.3453522600929754
21
-0.19798558081432863
0
LINE
8
Polygon
10
-0.3453522600929754
20
-0.19798558081432863
11
-0.34566567036918183
21
-0.1983879391262323
0
LINE
8
Polygon
10
-0.34566567036918183
20
-0.1983879391262323
11
-0.34595815870790747
21
-0.1988057534200271
0
LINE
8
Polygon
10
-0.34595815870790747
20
-0.1988057534200271
11
-0.3462289642937142
21
-0.19923793688464092
0
LINE
8
Polygon
10
-0.3462289642937142
20
-0.19923793688464092
11
-0.3464773827119532
21
-0.19968336533217138
0
LINE
8
Polygon
10
-0.3464773827119532
20
-0.19968336533217138
11
-0.34670276778107567
21
-0.20014088012210327
0
LINE
8
Polygon
10
-0.34670276778107567
20
-0.20014088012210327
11
-0.3469045332334688
21
-0.20060929117514356
0
LINE
8
Polygon
10
-0.3469045332334688
20
-0.20060929117514356
11
-0.34708215424044464
21
-0.20108738006883453
0
LINE
8
Polygon
10
-0.34708215424044464
20
-0.20108738006883453
11
-0.347235168777415
21
-0.2015739032068922
0
LINE
8
Polygon
10
-0.347235168777415
20
-0.2015739032068922
11
-0.34736317882570156
21
-0.20206759505402702
0
LINE
8
Polygon
10
-0.34736317882570156
20
-0.20206759505402705
11
-0.3474658514078552
21
-0.20256717142783154
0
LINE
8
Polygon
10
-0.3474658514078552
20
-0.20256717142783154
11
-0.3475429194537904
21
-0.20307133283917267
0
LINE
8
Polygon
10
-0.3475429194537904
20
-0.20307133283917267
11
-0.3475941824954839
21
-0.20357876787239965
0
LINE
8
Polygon
10
-0.3475941824954839
20
-0.20357876787239965
11
-0.347619507188428
21
-0.20408815659657503
0
LINE
8
Polygon
10
-0.347619507188428
20
-0.20408815659657503
11
-0.34761882765848406
21
-0.20459817399885538
0
LINE
8
Polygon
10
-0.34761882765848406
20
-0.20459817399885538
11
-0.34759214567323327
21
-0.20510749343109103
0
LINE
8
Polygon
10
-0.34759214567323327
20
-0.20510749343109103
11
-0.3475395306373787
21
-0.20561479006067943
0
LINE
8
Polygon
10
-0.3475395306373787
20
-0.20561479006067943
11
-0.34746111941221103
21
-0.20611874431669625
0
LINE
8
Polygon
10
-0.34746111941221103
20
-0.20611874431669625
11
-0.34735711595960755
21
-0.20661804532233943
0
LINE
8
Polygon
10
-0.34735711595960755
20
-0.20661804532233943
11
-0.3472277908114899
21
-0.20711139430475867
0
LINE
8
Polygon
10
-0.3472277908114899
20
-0.20711139430475867
11
-0.3470734803661216
21
-0.20759750797340004
0
LINE
8
Polygon
10
-0.3470734803661216
20
-0.20759750797340004
11
-0.34689458601307466
21
-0.2080751218580785
0
LINE
8
Polygon
10
-0.34689458601307466
20
-0.2080751218580785
11
-0.3466915730891423
21
-0.2085429935980951
0
LINE
8
Polygon
10
-0.3466915730891423
20
-0.2085429935980951
11
-0.3464649696679131
21
-0.20899990617384345
0
LINE
8
Polygon
10
-0.3464649696679131
20
-0.20899990617384345
11
-0.34621536518615564
21
-0.2094446710724993
0
LINE
8
Polygon
10
-0.34621536518615564
20
-0.2094446710724993
11
-0.34594340891058595
21
-0.20987613137955893
0
LINE
8
Polygon
10
-0.34594340891058595
20
-0.20987613137955893
11
-0.3456498082490065
21
-0.21029316478818447
0
LINE
8
Polygon
10
-0.3456498082490065
20
-0.2102931647881845
11
-0.3453353269102097
21
-0.21069468651852832
0
LINE
8
Polygon
10
-0.3453353269102097
20
-0.21069468651852832
11
-0.34500078291743236
21
-0.21107965213944316
0
LINE
8
Polygon
10
-0.34500078291743236
20
-0.21107965213944316
11
-0.34464704648052813
21
-0.21144706028523752
0
LINE
8
Polygon
10
-0.34464704648052813
20
-0.21144706028523752
11
-0.3442750377323933
21
-0.21179595526041042
0
LINE
8
Polygon
10
-0.3442750377323933
20
-0.21179595526041042
11
-0.34388572433553344
21
-0.21212542952558933
0
LINE
8
Polygon
10
-0.34388572433553344
20
-0.21212542952558933
11
-0.343480118964997
21
-0.21243462605820534
0
LINE
8
Polygon
10
-0.343480118964997
20
-0.21243462605820534
11
-0.3430592766742233
21
-0.21272274058176507
0
LINE
8
Polygon
10
-0.3430592766742233
20
-0.21272274058176507
11
-0.34262429215065593
21
-0.21298902365792022
0
LINE
8
Polygon
10
-0.34262429215065593
20
-0.21298902365792022
11
-0.3421762968682619
21
-0.21323278263589315
0
LINE
8
Polygon
10
-0.3421762968682619
20
-0.21323278263589315
11
-0.34171645614436125
21
-0.21345338345418785
0
LINE
8
Polygon
10
-0.34171645614436125
20
-0.21345338345418785
11
-0.3412459661084249
21
-0.21365025228989923
0
LINE
8
Polygon
10
-0.3412459661084249
20
-0.21365025228989923
11
-0.3407660505907238
21
-0.21382287705133113
0
LINE
8
Polygon
10
-0.3407660505907238
20
-0.21382287705133113
11
-0.3402779579389235
21
-0.2139708087100399
0
LINE
8
Polygon
10
-0.3402779579389235
20
-0.2139708087100399
11
-0.3397829577709048
21
-0.21409366246883943
0
LINE
8
Polygon
10
-0.3397829577709048
20
-0.21409366246883943
11
-0.33928233767225596
21
-0.2141911187627284
0
LINE
8
Polygon
10
-0.35390352863717994
20
-0.27218342517156396
11
-0.3519279870932816
21
-0.27277896528520523
0
LINE
8
Polygon
10
-0.3519279870932816
20
-0.27277896528520523
11
-0.3499161820583637
21
-0.2732373024101509
0
LINE
8
Polygon
10
-0.3499161820583638
20
-0.2732373024101509
11
-0.34787763033684377
21
-0.27355626839158476
0
LINE
8
Polygon
10
-0.34787763033684377
20
-0.27355626839158476
11
-0.34582197525781744
21
-0.27373435436716276
0
LINE
8
Polygon
10
-0.3458219752578175
20
-0.27373435436716276
11
-0.3437589410574793
21
-0.27377071790465635
0
LINE
8
Polygon
10
-0.3437589410574793
20
-0.27377071790465635
11
-0.34169828687881276
21
-0.2736651869870616
0
LINE
8
Polygon
10
-0.34169828687881276
20
-0.2736651869870616
11
-0.3396497606061555
21
-0.2734182608263228
0
LINE
8
Polygon
10
-0.33964976060615554
20
-0.2734182608263228
11
-0.3376230527530227
21
-0.27303110750181964
0
LINE
8
Polygon
10
-0.3376230527530227
20
-0.27303110750181964
11
-0.335627750621322
21
-0.27250555843479063
0
LINE
8
Polygon
10
-0.33562775062132205
20
-0.27250555843479063
11
-0.33367329294880965
21
-0.27184409972483087
0
LINE
8
Polygon
10
-0.33367329294880965
20
-0.27184409972483087
11
-0.3317689252593252
21
-0.27104986038944634
0
LINE
8
Polygon
10
-0.3317689252593253
20
-0.27104986038944634
11
-0.32992365612702246
21
-0.2701265975622977
0
LINE
8
Polygon
10
-0.32992365612702246
20
-0.2701265975622977
11
-0.32814621456148446
21
-0.2690786787201529
0
LINE
8
Polygon
10
-0.32814621456148446
20
-0.2690786787201529
11
-0.32644500871531495
21
-0.26791106102262385
0
LINE
8
Polygon
10
-0.326445008715315
20
-0.26791106102262385
11
-0.32482808610953656
21
-0.2666292678624194
0
LINE
8
Polygon
10
-0.32482808610953656
20
-0.2666292678624194
11
-0.3233030955649494
21
-0.2652393627370443
0
LINE
8
Polygon
10
-0.3233030955649494
20
-0.26523936273704435
11
-0.3218772510195343
21
-0.2637479205655425
0
LINE
8
Polygon
10
-0.3218772510195343
20
-0.2637479205655425
11
-0.3205572974030595
21
-0.26216199658597117
0
LINE
8
Polygon
10
-0.32055729740305955
20
-0.26216199658597117
11
-0.31934947873032277
21
-0.26048909298073486
0
LINE
8
Polygon
10
-0.31934947873032277
20
-0.26048909298073486
11
-0.31825950856396085
21
-0.2587371233876582
0
LINE
8
Polygon
10
-0.31825950856396085
20
-0.2587371233876582
11
-0.31729254298655335
21
-0.25691437546467677
0
LINE
8
Polygon
10
-0.31729254298655335
20
-0.2569143754646768
11
-0.3164531562098746
21
-0.2550294716852331
0
LINE
8
Polygon
10
-0.3164531562098746
20
-0.2550294716852331
11
-0.3157453189366744
21
-0.2530913285498345
0
LINE
8
Polygon
10
-0.3157453189366744
20
-0.25309132854983457
11
-0.3151723795773461
21
-0.2511091144067217
0
LINE
8
Polygon
10
-0.3151723795773461
20
-0.2511091144067217
11
-0.31473704841033673
21
-0.24909220608117624
0
LINE
8
Polygon
10
-0.31473704841033673
20
-0.24909220608117627
11
-0.3144413847612277
21
-0.24705014451863225
0
LINE
8
Polygon
10
-0.3144413847612277
20
-0.24705014451863225
11
-0.31428678726113535
21
-0.24499258965141985
0
LINE
8
Polygon
10
-0.31428678726113535
20
-0.24499258965141985
11
-0.31427398723051386
21
-0.2429292747026444
0
LINE
8
Polygon
10
-0.31427398723051386
20
-0.24292927470264442
11
-0.314403045219658
21
-0.24086996014336448
0
LINE
8
Polygon
10
-0.314403045219658
20
-0.24086996014336448
11
-0.3146733507222713
21
-0.23882438752087434
0
LINE
8
Polygon
10
-0.3146733507222713
20
-0.23882438752087434
11
-0.315083625063454
21
-0.2368022333765047
0
LINE
8
Polygon
10
-0.31508362506345394
20
-0.23680223337650472
11
-0.31563192744844976
21
-0.234813063470933
0
LINE
8
Polygon
10
-0.3156319274484497
20
-0.23481306347093303
11
-0.31631566414353735
21
-0.2328662875335394
0
LINE
8
Polygon
10
-0.31631566414353735
20
-0.2328662875335394
11
-0.3171316007456375
21
-0.2309711147498657
0
LINE
8
Polygon
10
-0.3171316007456375
20
-0.2309711147498657
11
-0.31807587748259303
21
-0.22913651019774314
0
LINE
8
Polygon
10
-0.31807587748259303
20
-0.22913651019774317
11
-0.31914402747174614
21
-0.22737115243816686
0
LINE
8
Polygon
10
-0.31914402747174614
20
-0.22737115243816686
11
-0.3203309978504394
21
-0.22568339246153238
0
LINE
8
Polygon
10
-0.3203309978504394
20
-0.22568339246153238
11
-0.32163117367848354
21
-0.22408121418343913
0
LINE
8
Polygon
10
-0.32163117367848354
20
-0.22408121418343915
11
-0.3230384044995228
21
-0.22257219667693326
0
LINE
8
Polygon
10
-0.3230384044995228
20
-0.2225721966769333
11
-0.3245460334356484
21
-0.22116347831985084
0
LINE
8
Polygon
10
-0.3245460334356484
20
-0.22116347831985084
11
-0.32614692867762923
21
-0.21986172302686094
0
LINE
8
Polygon
10
-0.32614692867762923
20
-0.21986172302686094
11
-0.32783351722179643
21
-0.2186730887259474
0
LINE
8
Polygon
10
-0.32783351722179643
20
-0.21867308872594743
11
-0.3295978206939891
21
-0.21760319822845095
0
LINE
8
Polygon
10
-0.3295978206939891
20
-0.21760319822845095
11
-0.3314314930910974
21
-0.21665711263046977
0
LINE
8
Polygon
10
-0.3314314930910974
20
-0.21665711263046977
11
-0.3333258602616673
21
-0.21583930737144352
0
LINE
8
Polygon
10
-0.3333258602616673
20
-0.21583930737144352
11
-0.33527196093880474
21
-0.21515365106317427
0
LINE
8
Polygon
10
-0.3352719609388047
20
-0.21515365106317427
11
-0.3372605891312732
21
-0.21460338718943409
0
LINE
8
Polygon
10
-0.3372605891312732
20
-0.21460338718943409
11
-0.33928233767225596
21
-0.2141911187627284
0
LINE
8
Polygon
10
-0.35390352863717994
20
-0.2721834251715639
11
-0.35439051264950483
21
-0.2720318838104452
0
LINE
8
Polygon
10
-0.35439051264950483
20
-0.2720318838104452
11
-0.3548845896613329
21
-0.27190536851977737
0
LINE
8
Polygon
10
-0.3548845896613329
20
-0.27190536851977737
11
-0.3553844744883733
21
-0.271804208388873
0
LINE
8
Polygon
10
-0.3553844744883733
20
-0.271804208388873
11
-0.3558888668391497
21
-0.2717286665536562
0
LINE
8
Polygon
10
-0.3558888668391497
20
-0.2717286665536562
11
-0.3563964546972961
21
-0.27167893951219835
0
LINE
8
Polygon
10
-0.3563964546972961
20
-0.27167893951219835
11
-0.3569059177343494
21
-0.2716551566135908
0
LINE
8
Polygon
10
-0.3569059177343494
20
-0.2716551566135908
11
-0.35741593074416483
21
-0.2716573797214842
0
LINE
8
Polygon
10
-0.35741593074416483
20
-0.2716573797214842
11
-0.3579251670900184
21
-0.2716856030531701
0
LINE
8
Polygon
10
-0.3579251670900184
20
-0.2716856030531701
11
-0.3584323021554304
21
-0.27173975319462257
0
LINE
8
Polygon
10
-0.3584323021554304
20
-0.27173975319462257
11
-0.35893601678973425
21
-0.2718196892914617
0
LINE
8
Polygon
10
-0.35893601678973425
20
-0.2718196892914617
11
-0.3594350007394277
21
-0.2719252034153414
0
LINE
8
Polygon
10
-0.3594350007394277
20
-0.2719252034153414
11
-0.3599279560563806
21
-0.2720560211048087
0
LINE
8
Polygon
10
-0.3599279560563806
20
-0.2720560211048087
11
-0.36041360047403476
21
-0.27221180207922835
0
LINE
8
Polygon
10
-0.36041360047403476
20
-0.27221180207922835
11
-0.3608906707428123
21
-0.2723921411239144
0
LINE
8
Polygon
10
-0.3608906707428123
20
-0.2723921411239144
11
-0.3613579259160582
21
-0.27259656914416763
0
LINE
8
Polygon
10
-0.3613579259160582
20
-0.27259656914416763
11
-0.3618141505779686
21
-0.2728245543854761
0
LINE
8
Polygon
10
-0.3618141505779686
20
-0.2728245543854761
11
-0.36225815800510847
21
-0.27307550381670553
0
LINE
8
Polygon
10
-0.36225815800510847
20
-0.27307550381670553
11
-0.3626887932532954
21
-0.27334876467268154
0
LINE
8
Polygon
10
-0.3626887932532954
20
-0.27334876467268154
11
-0.36310493616181994
21
-0.2736436261521503
0
LINE
8
Polygon
10
-0.36310493616181994
20
-0.2736436261521503
11
-0.36350550426718736
21
-0.2739593212667024
0
LINE
8
Polygon
10
-0.36350550426718736
20
-0.2739593212667024
11
-0.36388945561880265
21
-0.2742950288358494
0
LINE
8
Polygon
10
-0.36388945561880265
20
-0.2742950288358494
11
-0.3642557914892735
21
-0.27464987562306337
0
LINE
8
Polygon
10
-0.3642557914892735
20
-0.27464987562306337
11
-0.3646035589722823
21
-0.2750229386072248
0
LINE
8
Polygon
10
-0.3646035589722823
20
-0.2750229386072248
11
-0.36493185346126905
21
-0.27541324738356826
0
LINE
8
Polygon
10
-0.36493185346126905
20
-0.27541324738356826
11
-0.36523982100247754
21
-0.2758197866878818
0
LINE
8
Polygon
10
-0.36523982100247754
20
-0.2758197866878818
11
-0.36552666051624483
21
-0.2762414990373944
0
LINE
8
Polygon
10
-0.36552666051624483
20
-0.2762414990373944
11
-0.36579162588075537
21
-0.2766772874814812
0
LINE
8
Polygon
10
-0.36579162588075537
20
-0.2766772874814812
11
-0.36603402787283945
21
-0.2771260184550315
0
LINE
8
Polygon
10
-0.36603402787283945
20
-0.2771260184550315
11
-0.36625323596076853
21
-0.2775865247270585
0
LINE
8
Polygon
10
-0.36625323596076853
20
-0.2775865247270585
11
-0.3664486799443828
21
-0.2780576084368795
0
LINE
8
Polygon
10
-0.3664486799443828
20
-0.27805760843687954
11
-0.36661985143828596
21
-0.27853804420996964
0
LINE
8
Polygon
10
-0.36661985143828596
20
-0.27853804420996964
11
-0.36676630519424785
21
-0.27902658234538424
0
LINE
8
Polygon
10
-0.36676630519424785
20
-0.27902658234538424
11
-0.3668876602593766
21
-0.2795219520664587
0
LINE
8
Polygon
10
-0.3668876602593766
20
-0.2795219520664587
11
-0.366983600967046
21
-0.28002286482632976
0
LINE
8
Polygon
10
-0.366983600967046
20
-0.28002286482632976
11
-0.3670538777580024
21
-0.28052801765968083
0
LINE
8
Polygon
10
-0.3670538777580024
20
-0.28052801765968083
11
-0.36709830782951347
21
-0.28103609657199197
0
LINE
8
Polygon
10
-0.36709830782951347
20
-0.28103609657199197
11
-0.3671167756108714
21
-0.2815457799574789
0
LINE
8
Polygon
10
-0.3671167756108714
20
-0.2815457799574789
11
-0.3671092330640134
21
-0.28205574203683054
0
LINE
8
Polygon
10
-0.3671092330640134
20
-0.28205574203683054
11
-0.3670756998084776
21
-0.2825646563058022
0
LINE
8
Polygon
10
-0.3670756998084776
20
-0.2825646563058022
11
-0.3670162630703688
21
-0.2830711989856947
0
LINE
8
Polygon
10
-0.3670162630703688
20
-0.2830711989856947
11
-0.3669310774554677
21
-0.2835740524667443
0
LINE
8
Polygon
10
-0.3669310774554677
20
-0.2835740524667443
11
-0.366820364547073
21
-0.284071908735465
0
LINE
8
Polygon
10
-0.366820364547073
20
-0.284071908735465
11
-0.3666844123296229
21
-0.2845634727770304
0
LINE
8
Polygon
10
-0.3666844123296229
20
-0.2845634727770304
11
-0.3665235744395951
21
-0.2850474659438429
0
LINE
8
Polygon
10
-0.3665235744395951
20
-0.2850474659438429
11
-0.366338269245634
21
-0.2855226292815288
0
LINE
8
Polygon
10
-0.366338269245634
20
-0.2855226292815288
11
-0.36612897876029765
21
-0.28598772680370815
0
LINE
8
Polygon
10
-0.36612897876029765
20
-0.28598772680370815
11
-0.36589624738625515
21
-0.28644154870702054
0
LINE
8
Polygon
10
-0.36589624738625515
20
-0.28644154870702054
11
-0.3656406805001963
21
-0.2868829145180435
0
LINE
8
Polygon
10
-0.3656406805001963
20
-0.2868829145180435
11
-0.3655446596071041
21
-0.2870389118783835
0
LINE
8
Polygon
10
-0.3655446596071041
20
-0.2870389118783835
11
-0.36544820431098246
21
-0.2871946410156487
0
LINE
8
Polygon
10
-0.36544820431098246
20
-0.2871946410156487
11
-0.3653513153610758
21
-0.2873501007201681
0
LINE
8
Polygon
10
-0.3653513153610758
20
-0.2873501007201681
11
-0.365253993509997
21
-0.28750528978436357
0
LINE
8
Polygon
10
-0.365253993509997
20
-0.28750528978436357
11
-0.3651562395137216
21
-0.2876602070027593
0
LINE
8
Polygon
10
-0.3651562395137216
20
-0.2876602070027593
11
-0.36505805413158204
21
-0.287814851171991
0
LINE
8
Polygon
10
-0.36505805413158204
20
-0.287814851171991
11
-0.3649594381262616
21
-0.28796922109081563
0
LINE
8
Polygon
10
-0.3649594381262616
20
-0.28796922109081563
11
-0.3648603922637885
21
-0.2881233155601201
0
LINE
8
Polygon
10
-0.3648603922637885
20
-0.2881233155601201
11
-0.3647609173135301
21
-0.28827713338293126
0
LINE
8
Polygon
10
-0.3647609173135301
20
-0.28827713338293126
11
-0.36466101404818685
21
-0.28843067336442474
0
LINE
8
Polygon
10
-0.36466101404818685
20
-0.28843067336442474
11
-0.36456068324378604
21
-0.28858393431193446
0
LINE
8
Polygon
10
-0.36456068324378604
20
-0.28858393431193446
11
-0.36445992567967633
21
-0.28873691503496174
0
LINE
8
Polygon
10
-0.36445992567967633
20
-0.28873691503496174
11
-0.36435874213852104
21
-0.2888896143451846
0
LINE
8
Polygon
10
-0.36435874213852104
20
-0.2888896143451846
11
-0.3642571334062926
21
-0.28904203105646725
0
LINE
8
Polygon
10
-0.3642571334062926
20
-0.28904203105646725
11
-0.36415510027226616
21
-0.28919416398486875
0
LINE
8
Polygon
10
-0.36415510027226616
20
-0.28919416398486875
11
-0.3640526435290135
21
-0.28934601194865267
0
LINE
8
Polygon
10
-0.3640526435290135
20
-0.28934601194865267
11
-0.363949763972397
21
-0.2894975737682962
0
LINE
8
Polygon
10
-0.363949763972397
20
-0.2894975737682962
11
-0.3638464624015632
21
-0.28964884826649917
0
LINE
8
Polygon
10
-0.3638464624015632
20
-0.28964884826649917
11
-0.363742739618937
21
-0.28979983426819317
0
LINE
8
Polygon
10
-0.363742739618937
20
-0.28979983426819317
11
-0.3636385964302149
21
-0.2899505306005509
0
LINE
8
Polygon
10
-0.3636385964302149
20
-0.2899505306005509
11
-0.3635340336443593
21
-0.29010093609299514
0
LINE
8
Polygon
10
-0.3635340336443593
20
-0.29010093609299514
11
-0.36342905207359183
21
-0.2902510495772078
0
LINE
8
Polygon
10
-0.36342905207359183
20
-0.2902510495772078
11
-0.36332365253338705
21
-0.29040086988713903
0
LINE
8
Polygon
10
-0.36332365253338705
20
-0.29040086988713903
11
-0.36321783584246636
21
-0.29055039585901643
0
LINE
8
Polygon
10
-0.36321783584246636
20
-0.29055039585901643
11
-0.3631116028227914
21
-0.2906996263313537
0
LINE
8
Polygon
10
-0.3631116028227914
20
-0.2906996263313537
11
-0.36300495429955787
21
-0.29084856014496024
0
LINE
8
Polygon
10
-0.36300495429955787
20
-0.29084856014496024
11
-0.3628978911011889
21
-0.2909971961429496
0
LINE
8
Polygon
10
-0.3628978911011889
20
-0.2909971961429496
11
-0.3627904140593288
21
-0.2911455331707487
0
LINE
8
Polygon
10
-0.3627904140593288
20
-0.2911455331707487
11
-0.3626825240088366
21
-0.29129357007610696
0
LINE
8
Polygon
10
-0.3626825240088366
20
-0.29129357007610696
11
-0.36257422178777926
21
-0.291441305709105
0
LINE
8
Polygon
10
-0.36257422178777926
20
-0.291441305709105
11
-0.3624655082374256
21
-0.2915887389221636
0
LINE
8
Polygon
10
-0.3624655082374256
20
-0.2915887389221636
11
-0.36235638420223953
21
-0.29173586857005274
0
LINE
8
Polygon
10
-0.36235638420223953
20
-0.29173586857005274
11
-0.36224685052987343
21
-0.29188269350990037
0
LINE
8
Polygon
10
-0.36224685052987343
20
-0.29188269350990037
11
-0.3621369080711618
21
-0.2920292126012015
0
LINE
8
Polygon
10
-0.3621369080711618
20
-0.2920292126012015
11
-0.36202655768011427
21
-0.2921754247058267
0
LINE
8
Polygon
10
-0.36202655768011427
20
-0.2921754247058267
11
-0.3619158002139095
21
-0.29232132868803135
0
LINE
8
Polygon
10
-0.3619158002139095
20
-0.29232132868803135
11
-0.36180463653288797
21
-0.2924669234144641
0
LINE
8
Polygon
10
-0.36180463653288797
20
-0.2924669234144641
11
-0.36169306750054575
21
-0.29261220775417585
0
LINE
8
Polygon
10
-0.36169306750054575
20
-0.29261220775417585
11
-0.36158109398352745
21
-0.29275718057862865
0
LINE
8
Polygon
10
-0.36158109398352745
20
-0.29275718057862865
11
-0.36146871685161963
21
-0.2929018407617042
0
LINE
8
Polygon
10
-0.36146871685161963
20
-0.2929018407617042
11
-0.36135593697774415
21
-0.2930461871797128
0
LINE
8
Polygon
10
-0.36135593697774415
20
-0.2930461871797128
11
-0.36124275523795124
21
-0.29319021871140194
0
LINE
8
Polygon
10
-0.36124275523795124
20
-0.29319021871140194
11
-0.36112917251141274
21
-0.29333393423796517
0
LINE
8
Polygon
10
-0.36112917251141274
20
-0.29333393423796517
11
-0.3610151896804152
21
-0.29347733264305065
0
LINE
8
Polygon
10
-0.3610151896804152
20
-0.29347733264305065
11
-0.3609008076303532
21
-0.2936204128127699
0
LINE
8
Polygon
10
-0.3609008076303532
20
-0.2936204128127699
11
-0.3607860272497223
21
-0.29376317363570636
0
LINE
8
Polygon
10
-0.3607860272497223
20
-0.29376317363570636
11
-0.36067084943011224
21
-0.2939056140029242
0
LINE
8
Polygon
10
-0.36067084943011224
20
-0.2939056140029242
11
-0.3605552750662
21
-0.2940477328079767
0
LINE
8
Polygon
10
-0.284469117350951
20
-0.31323079881503046
11
-0.2842999782539654
21
-0.3131604628056599
0
LINE
8
Polygon
10
-0.2842999782539654
20
-0.3131604628056599
11
-0.28413103584546073
21
-0.3130896556665289
0
LINE
8
Polygon
10
-0.28413103584546073
20
-0.3130896556665289
11
-0.283962291437746
21
-0.31301837794765225
0
LINE
8
Polygon
10
-0.283962291437746
20
-0.31301837794765225
11
-0.28379374634159193
21
-0.3129466302027002
0
LINE
8
Polygon
10
-0.28379374634159193
20
-0.3129466302027002
11
-0.2836254018662213
21
-0.31287441298899415
0
LINE
8
Polygon
10
-0.2836254018662213
20
-0.31287441298899415
11
-0.28345725931929844
21
-0.3128017268675021
0
LINE
8
Polygon
10
-0.28345725931929844
20
-0.3128017268675021
11
-0.28328932000691903
21
-0.31272857240283447
0
LINE
8
Polygon
10
-0.28328932000691903
20
-0.31272857240283447
11
-0.2831215852336002
21
-0.3126549501632397
0
LINE
8
Polygon
10
-0.2831215852336002
20
-0.3126549501632397
11
-0.28295405630227016
21
-0.31258086072059976
0
LINE
8
Polygon
10
-0.28295405630227016
20
-0.31258086072059976
11
-0.2827867345142583
21
-0.3125063046504258
0
LINE
8
Polygon
10
-0.2827867345142583
20
-0.3125063046504258
11
-0.28261962116928485
21
-0.31243128253185354
0
LINE
8
Polygon
10
-0.28261962116928485
20
-0.31243128253185354
11
-0.282452717565451
21
-0.3123557949476391
0
LINE
8
Polygon
10
-0.282452717565451
20
-0.3123557949476391
11
-0.2822860249992286
21
-0.3122798424841539
0
LINE
8
Polygon
10
-0.2822860249992286
20
-0.3122798424841539
11
-0.2821195447654503
21
-0.3122034257313807
0
LINE
8
Polygon
10
-0.2821195447654503
20
-0.3122034257313807
11
-0.28195327815729937
21
-0.31212654528290873
0
LINE
8
Polygon
10
-0.28195327815729937
20
-0.31212654528290873
11
-0.28178722646629967
21
-0.312049201735929
0
LINE
8
Polygon
10
-0.28178722646629967
20
-0.312049201735929
11
-0.2816213909823056
21
-0.3119713956912298
0
LINE
8
Polygon
10
-0.2816213909823056
20
-0.3119713956912298
11
-0.28145577299349217
21
-0.3118931277531921
0
LINE
8
Polygon
10
-0.28145577299349217
20
-0.3118931277531921
11
-0.2812903737863449
21
-0.3118143985297847
0
LINE
8
Polygon
10
-0.2812903737863449
20
-0.3118143985297847
11
-0.2811251946456499
21
-0.31173520863255955
0
LINE
8
Polygon
10
-0.2811251946456499
20
-0.31173520863255955
11
-0.2809602368544838
21
-0.311655558676647
0
LINE
8
Polygon
10
-0.2809602368544838
20
-0.311655558676647
11
-0.2807955016942038
21
-0.3115754492807511
0
LINE
8
Polygon
10
-0.2807955016942038
20
-0.3115754492807511
11
-0.2806309904444379
21
-0.31149488106714474
0
LINE
8
Polygon
10
-0.2806309904444379
20
-0.31149488106714474
11
-0.28046670438307464
21
-0.31141385466166466
0
LINE
8
Polygon
10
-0.28046670438307464
20
-0.31141385466166466
11
-0.2803026447862534
21
-0.31133237069370695
0
LINE
8
Polygon
10
-0.2803026447862534
20
-0.31133237069370695
11
-0.2801388129283545
21
-0.31125042979622186
0
LINE
8
Polygon
10
-0.2801388129283545
20
-0.31125042979622186
11
-0.27997521008198917
21
-0.31116803260570886
0
LINE
8
Polygon
10
-0.27997521008198917
20
-0.31116803260570886
11
-0.2798118375179897
21
-0.311085179762212
0
LINE
8
Polygon
10
-0.2798118375179897
20
-0.311085179762212
11
-0.2796486965053997
21
-0.3110018719093146
0
LINE
8
Polygon
10
-0.2796486965053997
20
-0.3110018719093146
11
-0.279485788311464
21
-0.31091810969413447
0
LINE
8
Polygon
10
-0.279485788311464
20
-0.31091810969413447
11
-0.279323114201619
21
-0.31083389376731885
0
LINE
8
Polygon
10
-0.279323114201619
20
-0.31083389376731885
11
-0.27916067543948286
21
-0.3107492247830391
0
LINE
8
Polygon
10
-0.27916067543948286
20
-0.3107492247830391
11
-0.27899847328684557
21
-0.31066410339898615
0
LINE
8
Polygon
10
-0.27899847328684557
20
-0.31066410339898615
11
-0.2788365090036591
21
-0.31057853027636484
0
LINE
8
Polygon
10
-0.2788365090036591
20
-0.31057853027636484
11
-0.27867478384802774
21
-0.31049250607988915
0
LINE
8
Polygon
10
-0.27867478384802774
20
-0.31049250607988915
11
-0.2785132990761984
21
-0.3104060314777768
0
LINE
8
Polygon
10
-0.2785132990761984
20
-0.3104060314777768
11
-0.2783520559425505
21
-0.3103191071417442
0
LINE
8
Polygon
10
-0.2783520559425505
20
-0.3103191071417442
11
-0.2781910556995868
21
-0.3102317337470013
0
LINE
8
Polygon
10
-0.2781910556995868
20
-0.3102317337470013
11
-0.2780302995979231
21
-0.3101439119722461
0
LINE
8
Polygon
10
-0.2780302995979231
20
-0.3101439119722461
11
-0.2778697888862788
21
-0.3100556424996596
0
LINE
8
Polygon
10
-0.2778697888862788
20
-0.3100556424996596
11
-0.27770952481146705
21
-0.3099669260149004
0
LINE
8
Polygon
10
-0.27770952481146705
20
-0.3099669260149004
11
-0.2775495086183855
21
-0.30987776320709937
0
LINE
8
Polygon
10
-0.2775495086183855
20
-0.30987776320709937
11
-0.27738974155000606
21
-0.3097881547688544
0
LINE
8
Polygon
10
-0.27738974155000606
20
-0.3097881547688544
11
-0.2772302248473655
21
-0.3096981013962249
0
LINE
8
Polygon
10
-0.2772302248473655
20
-0.3096981013962249
11
-0.2770709597495558
21
-0.3096076037887264
0
LINE
8
Polygon
10
-0.2770709597495558
20
-0.3096076037887264
11
-0.27691194749371467
21
-0.3095166626493252
0
LINE
8
Polygon
10
-0.27691194749371467
20
-0.3095166626493252
11
-0.2767531893150157
21
-0.3094252786844328
0
LINE
8
Polygon
10
-0.2767531893150157
20
-0.3094252786844328
11
-0.27659468644665874
21
-0.3093334526039006
0
LINE
8
Polygon
10
-0.27659468644665874
20
-0.3093334526039006
11
-0.276160413039334
21
-0.3090660113578666
0
LINE
8
Polygon
10
-0.276160413039334
20
-0.3090660113578666
11
-0.27574033998945385
21
-0.30877677642713697
0
LINE
8
Polygon
10
-0.27574033998945385
20
-0.30877677642713697
11
-0.27533555998352655
21
-0.30846650016444316
0
LINE
8
Polygon
10
-0.27533555998352655
20
-0.30846650016444316
11
-0.2749471259280675
21
-0.3081359896548532
0
LINE
8
Polygon
10
-0.2749471259280675
20
-0.3081359896548532
11
-0.27457604821079823
21
-0.3077861046163964
0
LINE
8
Polygon
10
-0.27457604821079823
20
-0.3077861046163964
11
-0.27422329207244334
21
-0.3074177551637801
0
LINE
8
Polygon
10
-0.27422329207244334
20
-0.3074177551637801
11
-0.27388977509596407
21
-0.3070318994410159
0
LINE
8
Polygon
10
-0.27388977509596407
20
-0.3070318994410159
11
-0.27357636481975767
21
-0.3066295411291122
0
LINE
8
Polygon
10
-0.27357636481975767
20
-0.3066295411291122
11
-0.27328387648103203
21
-0.30621172683531744
0
LINE
8
Polygon
10
-0.27328387648103203
20
-0.30621172683531744
11
-0.2730130708952253
21
-0.3057795433707036
0
LINE
8
Polygon
10
-0.2730130708952253
20
-0.3057795433707036
11
-0.2727646524769863
21
-0.30533411492317314
0
LINE
8
Polygon
10
-0.2727646524769863
20
-0.30533411492317314
11
-0.27253926740786383
21
-0.3048766001332413
0
LINE
8
Polygon
10
-0.27253926740786383
20
-0.3048766001332413
11
-0.2723375019554707
21
-0.30440818908020095
0
LINE
8
Polygon
10
-0.2723375019554707
20
-0.30440818908020095
11
-0.27215988094849486
21
-0.30393010018651
0
LINE
8
Polygon
10
-0.27215988094849486
20
-0.30393010018651
11
-0.2720068664115245
21
-0.3034435770484523
0
LINE
8
Polygon
10
-0.2720068664115245
20
-0.3034435770484523
11
-0.27187885636323794
21
-0.3029498852013175
0
LINE
8
Polygon
10
-0.27187885636323794
20
-0.3029498852013175
11
-0.2717761837810843
21
-0.302450308827513
0
LINE
8
Polygon
10
-0.2717761837810843
20
-0.302450308827513
11
-0.2716991157351491
21
-0.3019461474161719
0
LINE
8
Polygon
10
-0.2716991157351491
20
-0.3019461474161719
11
-0.2716478526934556
21
-0.3014387123829449
0
LINE
8
Polygon
10
-0.2716478526934556
20
-0.3014387123829449
11
-0.2716225280005115
21
-0.3009293236587695
0
LINE
8
Polygon
10
-0.2716225280005115
20
-0.3009293236587695
11
-0.27162320753045543
21
-0.30041930625648916
0
LINE
8
Polygon
10
-0.27162320753045543
20
-0.30041930625648916
11
-0.27164988951570623
21
-0.2999099868242535
0
LINE
8
Polygon
10
-0.27164988951570623
20
-0.2999099868242535
11
-0.2717025045515608
21
-0.2994026901946651
0
LINE
8
Polygon
10
-0.2717025045515608
20
-0.2994026901946651
11
-0.27178091577672847
21
-0.2988987359386483
0
LINE
8
Polygon
10
-0.27178091577672847
20
-0.2988987359386483
11
-0.27188491922933195
21
-0.29839943493300514
0
LINE
8
Polygon
10
-0.27188491922933195
20
-0.29839943493300514
11
-0.2720142443774496
21
-0.2979060859505859
0
LINE
8
Polygon
10
-0.2720142443774496
20
-0.2979060859505859
11
-0.2721685548228179
21
-0.2974199722819445
0
LINE
8
Polygon
10
-0.2721685548228179
20
-0.2974199722819445
11
-0.27234744917586484
21
-0.296942358397266
0
LINE
8
Polygon
10
-0.27234744917586484
20
-0.296942358397266
11
-0.2725504620997972
21
-0.2964744866572494
0
LINE
8
Polygon
10
-0.2725504620997972
20
-0.2964744866572494
11
-0.2727770655210264
21
-0.2960175740815011
0
LINE
8
Polygon
10
-0.2727770655210264
20
-0.2960175740815011
11
-0.2730266700027838
21
-0.29557280918284523
0
LINE
8
Polygon
10
-0.2730266700027838
20
-0.29557280918284523
11
-0.27329862627835355
21
-0.2951413488757856
0
LINE
8
Polygon
10
-0.27329862627835355
20
-0.2951413488757856
11
-0.273592226939933
21
-0.29472431546716005
0
LINE
8
Polygon
10
-0.273592226939933
20
-0.29472431546716005
11
-0.2739067082787298
21
-0.29432279373681625
0
LINE
8
Polygon
10
-0.2739067082787298
20
-0.29432279373681625
11
-0.27424125227150714
21
-0.2939378281159014
0
LINE
8
Polygon
10
-0.27424125227150714
20
-0.2939378281159014
11
-0.27459498870841137
21
-0.293570419970107
0
LINE
8
Polygon
10
-0.27459498870841137
20
-0.293570419970107
11
-0.2749669974565462
21
-0.2932215249949341
0
LINE
8
Polygon
10
-0.2749669974565462
20
-0.2932215249949341
11
-0.27535631085340606
21
-0.2928920507297552
0
LINE
8
Polygon
10
-0.27535631085340606
20
-0.2928920507297552
11
-0.27576191622394247
21
-0.2925828541971392
0
LINE
8
Polygon
10
-0.27576191622394247
20
-0.2925828541971392
11
-0.2761827585147162
21
-0.29229473967357944
0
LINE
8
Polygon
10
-0.2761827585147162
20
-0.29229473967357944
11
-0.27661774303828357
21
-0.2920284565974243
0
LINE
8
Polygon
10
-0.27661774303828357
20
-0.2920284565974243
11
-0.2770657383206776
21
-0.2917846976194514
0
LINE
8
Polygon
10
-0.2770657383206776
20
-0.2917846976194514
11
-0.27752557904457825
21
-0.2915640968011567
0
LINE
8
Polygon
10
-0.27752557904457825
20
-0.2915640968011567
11
-0.2779960690805146
21
-0.2913672279654453
0
LINE
8
Polygon
10
-0.2779960690805146
20
-0.2913672279654453
11
-0.2784759845982157
21
-0.2911946032040134
0
LINE
8
Polygon
10
-0.2784759845982157
20
-0.2911946032040134
11
-0.278964077250016
21
-0.2910466715453046
0
LINE
8
Polygon
10
-0.278964077250016
20
-0.2910466715453046
11
-0.2794590774180347
21
-0.2909238177865051
0
LINE
8
Polygon
10
-0.2794590774180347
20
-0.2909238177865051
11
-0.27995969751668354
21
-0.29082636149261615
0
LINE
8
Polygon
10
-0.26533850655175956
20
-0.23283405508378055
11
-0.2673140480956579
21
-0.23223851497013925
0
LINE
8
Polygon
10
-0.2673140480956579
20
-0.23223851497013925
11
-0.2693258531305758
21
-0.23178017784519367
0
LINE
8
Polygon
10
-0.2693258531305758
20
-0.23178017784519367
11
-0.27136440485209573
21
-0.23146121186375973
0
LINE
8
Polygon
10
-0.27136440485209573
20
-0.23146121186375973
11
-0.273420059931122
21
-0.23128312588818173
0
LINE
8
Polygon
10
-0.273420059931122
20
-0.23128312588818173
11
-0.2754830941314602
21
-0.2312467623506882
0
LINE
8
Polygon
10
-0.27548309413146027
20
-0.2312467623506882
11
-0.2775437483101268
21
-0.2313522932682829
0
LINE
8
Polygon
10
-0.2775437483101268
20
-0.2313522932682829
11
-0.279592274582784
21
-0.2315992194290217
0
LINE
8
Polygon
10
-0.279592274582784
20
-0.2315992194290217
11
-0.2816189824359168
21
-0.23198637275352488
0
LINE
8
Polygon
10
-0.2816189824359168
20
-0.23198637275352488
11
-0.2836142845676175
21
-0.23251192182055386
0
LINE
8
Polygon
10
-0.2836142845676175
20
-0.23251192182055389
11
-0.28556874224012985
21
-0.23317338053051362
0
LINE
8
Polygon
10
-0.28556874224012985
20
-0.23317338053051362
11
-0.2874731099296143
21
-0.23396761986589817
0
LINE
8
Polygon
10
-0.2874731099296143
20
-0.23396761986589817
11
-0.2893183790619171
21
-0.23489088269304684
0
LINE
8
Polygon
10
-0.2893183790619171
20
-0.23489088269304684
11
-0.2910958206274551
21
-0.23593880153519162
0
LINE
8
Polygon
10
-0.2910958206274551
20
-0.23593880153519162
11
-0.2927970264736245
21
-0.23710641923272066
0
LINE
8
Polygon
10
-0.2927970264736245
20
-0.23710641923272066
11
-0.29441394907940294
21
-0.2383882123929251
0
LINE
8
Polygon
10
-0.29441394907940294
20
-0.2383882123929251
11
-0.2959389396239901
21
-0.2397781175183002
0
LINE
8
Polygon
10
-0.2959389396239901
20
-0.23977811751830022
11
-0.29736478416940526
21
-0.24126955968980202
0
LINE
8
Polygon
10
-0.2973647841694052
20
-0.24126955968980202
11
-0.29868473778588
21
-0.24285548366937335
0
LINE
8
Polygon
10
-0.29868473778588
20
-0.24285548366937335
11
-0.29989255645861673
21
-0.24452838727460965
0
LINE
8
Polygon
10
-0.29989255645861673
20
-0.24452838727460965
11
-0.30098252662497865
21
-0.24628035686768632
0
LINE
8
Polygon
10
-0.30098252662497865
20
-0.24628035686768632
11
-0.30194949220238615
21
-0.24810310479066772
0
LINE
8
Polygon
10
-0.30194949220238615
20
-0.24810310479066774
11
-0.3027888789790649
21
-0.24998800857011141
0
LINE
8
Polygon
10
-0.3027888789790649
20
-0.2499880085701114
11
-0.3034967162522651
21
-0.25192615170550997
0
LINE
8
Polygon
10
-0.3034967162522651
20
-0.25192615170550997
11
-0.3040696556115934
21
-0.25390836584862286
0
LINE
8
Polygon
10
-0.3040696556115934
20
-0.25390836584862286
11
-0.30450498677860277
21
-0.25592527417416827
0
LINE
8
Polygon
10
-0.30450498677860277
20
-0.25592527417416827
11
-0.3048006504277118
21
-0.25796733573671227
0
LINE
8
Polygon
10
-0.3048006504277118
20
-0.25796733573671227
11
-0.30495524792780415
21
-0.26002489060392464
0
LINE
8
Polygon
10
-0.30495524792780415
20
-0.26002489060392464
11
-0.30496804795842564
21
-0.2620882055527001
0
LINE
8
Polygon
10
-0.30496804795842564
20
-0.2620882055527001
11
-0.3048389899692815
21
-0.26414752011198006
0
LINE
8
Polygon
10
-0.3048389899692815
20
-0.26414752011198006
11
-0.3045686844666682
21
-0.26619309273447017
0
LINE
8
Polygon
10
-0.3045686844666682
20
-0.26619309273447017
11
-0.3041584101254855
21
-0.2682152468788398
0
LINE
8
Polygon
10
-0.3041584101254855
20
-0.2682152468788398
11
-0.30361010774048974
21
-0.2702044167844115
0
LINE
8
Polygon
10
-0.30361010774048974
20
-0.2702044167844115
11
-0.3029263710454021
21
-0.2721511927218051
0
LINE
8
Polygon
10
-0.3029263710454021
20
-0.2721511927218051
11
-0.302110434443302
21
-0.27404636550547884
0
LINE
8
Polygon
10
-0.302110434443302
20
-0.27404636550547884
11
-0.30116615770634647
21
-0.27588097005760137
0
LINE
8
Polygon
10
-0.30116615770634647
20
-0.27588097005760137
11
-0.3000980077171933
21
-0.2776463278171777
0
LINE
8
Polygon
10
-0.3000980077171933
20
-0.2776463278171777
11
-0.2989110373385001
21
-0.27933408779381214
0
LINE
8
Polygon
10
-0.2989110373385001
20
-0.27933408779381214
11
-0.29761086151045596
21
-0.28093626607190536
0
LINE
8
Polygon
10
-0.29761086151045596
20
-0.28093626607190536
11
-0.2962036306894167
21
-0.28244528357841125
0
LINE
8
Polygon
10
-0.2962036306894167
20
-0.28244528357841125
11
-0.2946960017532911
21
-0.2838540019354937
0
LINE
8
Polygon
10
-0.2946960017532911
20
-0.2838540019354937
11
-0.29309510651131027
21
-0.2851557572284836
0
LINE
8
Polygon
10
-0.29309510651131027
20
-0.2851557572284836
11
-0.29140851796714307
21
-0.2863443915293971
0
LINE
8
Polygon
10
-0.29140851796714307
20
-0.2863443915293971
11
-0.2896442144949504
21
-0.28741428202689356
0
LINE
8
Polygon
10
-0.2896442144949504
20
-0.28741428202689356
11
-0.2878105420978421
21
-0.28836036762487477
0
LINE
8
Polygon
10
-0.2878105420978421
20
-0.2883603676248747
11
-0.2859161749272722
21
-0.289178172883901
0
LINE
8
Polygon
10
-0.2859161749272722
20
-0.28917817288390096
11
-0.28397007425013476
21
-0.28986382919217024
0
LINE
8
Polygon
10
-0.28397007425013476
20
-0.28986382919217024
11
-0.28198144605766623
21
-0.29041409306591043
0
LINE
8
Polygon
10
-0.28198144605766623
20
-0.29041409306591043
11
-0.27995969751668354
21
-0.29082636149261615
0
LINE
8
Polygon
10
-0.26533850655175956
20
-0.23283405508378058
11
-0.26485152253943467
21
-0.23298559644489933
0
LINE
8
Polygon
10
-0.26485152253943467
20
-0.23298559644489933
11
-0.2643574455276066
21
-0.23311211173556715
0
LINE
8
Polygon
10
-0.2643574455276066
20
-0.23311211173556715
11
-0.2638575607005662
21
-0.23321327186647153
0
LINE
8
Polygon
10
-0.2638575607005662
20
-0.23321327186647153
11
-0.2633531683497898
21
-0.23328881370168833
0
LINE
8
Polygon
10
-0.2633531683497898
20
-0.23328881370168833
11
-0.2628455804916434
21
-0.23333854074314617
0
LINE
8
Polygon
10
-0.2628455804916434
20
-0.23333854074314617
11
-0.2623361174545901
21
-0.23336232364175374
0
LINE
8
Polygon
10
-0.2623361174545901
20
-0.23336232364175374
11
-0.26182610444477467
21
-0.23336010053386033
0
LINE
8
Polygon
10
-0.26182610444477467
20
-0.23336010053386033
11
-0.2613168680989211
21
-0.23333187720217444
0
LINE
8
Polygon
10
-0.2613168680989211
20
-0.23333187720217444
11
-0.2608097330335091
21
-0.23327772706072195
0
LINE
8
Polygon
10
-0.2608097330335091
20
-0.23327772706072195
11
-0.26030601839920525
21
-0.2331977909638828
0
LINE
8
Polygon
10
-0.26030601839920525
20
-0.2331977909638828
11
-0.2598070344495118
21
-0.2330922768400031
0
LINE
8
Polygon
10
-0.2598070344495118
20
-0.2330922768400031
11
-0.2593140791325589
21
-0.2329614591505358
0
LINE
8
Polygon
10
-0.2593140791325589
20
-0.2329614591505358
11
-0.25882843471490474
21
-0.23280567817611614
0
LINE
8
Polygon
10
-0.25882843471490474
20
-0.23280567817611614
11
-0.2583513644461272
21
-0.23262533913143008
0
LINE
8
Polygon
10
-0.2583513644461272
20
-0.23262533913143008
11
-0.2578841092728813
21
-0.23242091111117688
0
LINE
8
Polygon
10
-0.2578841092728813
20
-0.23242091111117688
11
-0.2574278846109709
21
-0.23219292586986845
0
LINE
8
Polygon
10
-0.2574278846109709
20
-0.23219292586986845
11
-0.25698387718383103
21
-0.23194197643863898
0
LINE
8
Polygon
10
-0.25698387718383103
20
-0.23194197643863898
11
-0.2565532419356441
21
-0.231668715582663
0
LINE
8
Polygon
10
-0.2565532419356441
20
-0.231668715582663
11
-0.25613709902711956
21
-0.23137385410319422
0
LINE
8
Polygon
10
-0.25613709902711956
20
-0.23137385410319422
11
-0.25573653092175214
21
-0.23105815898864207
0
LINE
8
Polygon
10
-0.25573653092175214
20
-0.23105815898864207
11
-0.25535257957013685
21
-0.23072245141949513
0
LINE
8
Polygon
10
-0.25535257957013685
20
-0.23072245141949513
11
-0.254986243699666
21
-0.23036760463228112
0
LINE
8
Polygon
10
-0.254986243699666
20
-0.23036760463228115
11
-0.2546384762166572
21
-0.2299945416481197
0
LINE
8
Polygon
10
-0.2546384762166572
20
-0.2299945416481197
11
-0.25431018172767045
21
-0.22960423287177628
0
LINE
8
Polygon
10
-0.25431018172767045
20
-0.22960423287177625
11
-0.25400221418646196
21
-0.22919769356746272
0
LINE
8
Polygon
10
-0.25400221418646196
20
-0.22919769356746272
11
-0.25371537467269467
21
-0.2287759812179501
0
LINE
8
Polygon
10
-0.25371537467269467
20
-0.2287759812179501
11
-0.25345040930818413
21
-0.22834019277386333
0
LINE
8
Polygon
10
-0.25345040930818413
20
-0.22834019277386333
11
-0.25320800731610005
21
-0.22789146180031303
0
LINE
8
Polygon
10
-0.25320800731610005
20
-0.22789146180031303
11
-0.25298879922817097
21
-0.227430955528286
0
LINE
8
Polygon
10
-0.25298879922817097
20
-0.227430955528286
11
-0.2527933552445567
21
-0.226959871818465
0
LINE
8
Polygon
10
-0.2527933552445567
20
-0.226959871818465
11
-0.25262218375065354
21
-0.22647943604537485
0
LINE
8
Polygon
10
-0.25262218375065354
20
-0.22647943604537488
11
-0.25247572999469164
21
-0.22599089790996024
0
LINE
8
Polygon
10
-0.25247572999469164
20
-0.22599089790996024
11
-0.2523543749295629
21
-0.22549552818888582
0
LINE
8
Polygon
10
-0.2523543749295629
20
-0.22549552818888582
11
-0.2522584342218935
21
-0.22499461542901478
0
LINE
8
Polygon
10
-0.2522584342218935
20
-0.22499461542901478
11
-0.2521881574309371
21
-0.2244894625956637
0
LINE
8
Polygon
10
-0.2521881574309371
20
-0.2244894625956637
11
-0.25214372735942603
21
-0.22398138368335258
0
LINE
8
Polygon
10
-0.25214372735942603
20
-0.22398138368335258
11
-0.2521252595780681
21
-0.2234717002978656
0
LINE
8
Polygon
10
-0.2521252595780681
20
-0.2234717002978656
11
-0.2521328021249261
21
-0.22296173821851398
0
LINE
8
Polygon
10
-0.2521328021249261
20
-0.22296173821851398
11
-0.2521663353804619
21
-0.22245282394954236
0
LINE
8
Polygon
10
-0.2521663353804619
20
-0.22245282394954236
11
-0.2522257721185707
21
-0.2219462812696498
0
LINE
8
Polygon
10
-0.2522257721185707
20
-0.2219462812696498
11
-0.2523109577334718
21
-0.22144342778860024
0
LINE
8
Polygon
10
-0.2523109577334718
20
-0.22144342778860024
11
-0.2524216706418665
21
-0.2209455715198795
0
LINE
8
Polygon
10
-0.2524216706418665
20
-0.2209455715198795
11
-0.2525576228593166
21
-0.22045400747831406
0
LINE
8
Polygon
10
-0.2525576228593166
20
-0.22045400747831406
11
-0.2527184607493444
21
-0.21997001431150162
0
LINE
8
Polygon
10
-0.2527184607493444
20
-0.21997001431150162
11
-0.2529037659433055
21
-0.2194948509738157
0
LINE
8
Polygon
10
-0.2529037659433055
20
-0.2194948509738157
11
-0.25311305642864185
21
-0.21902975345163633
0
LINE
8
Polygon
10
-0.25311305642864185
20
-0.21902975345163633
11
-0.25334578780268435
21
-0.218575931548324
0
LINE
8
Polygon
10
-0.25334578780268435
20
-0.218575931548324
11
-0.2536013546887432
21
-0.21813456573730103
0
LINE
8
Polygon
10
-0.2536013546887432
20
-0.21813456573730103
11
-0.2536973755818354
21
-0.21797856837696106
0
LINE
8
Polygon
10
-0.2536973755818354
20
-0.21797856837696106
11
-0.2537938308779571
21
-0.21782283923969586
0
LINE
8
Polygon
10
-0.2537938308779571
20
-0.21782283923969586
11
-0.2538907198278637
21
-0.21766737953517648
0
LINE
8
Polygon
10
-0.2538907198278637
20
-0.21766737953517648
11
-0.2539880416789425
21
-0.21751219047098097
0
LINE
8
Polygon
10
-0.2539880416789425
20
-0.21751219047098097
11
-0.2540857956752179
21
-0.21735727325258525
0
LINE
8
Polygon
10
-0.2540857956752179
20
-0.21735727325258525
11
-0.25418398105735746
21
-0.2172026290833535
0
LINE
8
Polygon
10
-0.25418398105735746
20
-0.2172026290833535
11
-0.2542825970626779
21
-0.2170482591645289
0
LINE
8
Polygon
10
-0.2542825970626779
20
-0.2170482591645289
11
-0.254381642925151
21
-0.21689416469522443
0
LINE
8
Polygon
10
-0.254381642925151
20
-0.21689416469522443
11
-0.2544811178754094
21
-0.21674034687241325
0
LINE
8
Polygon
10
-0.2544811178754094
20
-0.21674034687241325
11
-0.25458102114075265
21
-0.21658680689091978
0
LINE
8
Polygon
10
-0.25458102114075265
20
-0.21658680689091978
11
-0.25468135194515346
21
-0.21643354594341008
0
LINE
8
Polygon
10
-0.25468135194515346
20
-0.21643354594341008
11
-0.25478210950926317
21
-0.2162805652203828
0
LINE
8
Polygon
10
-0.25478210950926317
20
-0.2162805652203828
11
-0.25488329305041846
21
-0.2161278659101599
0
LINE
8
Polygon
10
-0.25488329305041846
20
-0.2161278659101599
11
-0.2549849017826469
21
-0.2159754491988773
0
LINE
8
Polygon
10
-0.2549849017826469
20
-0.2159754491988773
11
-0.25508693491667334
21
-0.2158233162704758
0
LINE
8
Polygon
10
-0.25508693491667334
20
-0.2158233162704758
11
-0.255189391659926
21
-0.21567146830669187
0
LINE
8
Polygon
10
-0.255189391659926
20
-0.21567146830669187
11
-0.2552922712165425
21
-0.21551990648704833
0
LINE
8
Polygon
10
-0.2552922712165425
20
-0.21551990648704833
11
-0.2553955727873763
21
-0.2153686319888454
0
LINE
8
Polygon
10
-0.2553955727873763
20
-0.2153686319888454
11
-0.2554992955700025
21
-0.21521764598715137
0
LINE
8
Polygon
10
-0.2554992955700025
20
-0.21521764598715137
11
-0.2556034387587246
21
-0.21506694965479362
0
LINE
8
Polygon
10
-0.2556034387587246
20
-0.21506694965479362
11
-0.2557080015445802
21
-0.2149165441623494
0
LINE
8
Polygon
10
-0.2557080015445802
20
-0.2149165441623494
11
-0.25581298311534767
21
-0.21476643067813672
0
LINE
8
Polygon
10
-0.25581298311534767
20
-0.21476643067813672
11
-0.25591838265555245
21
-0.21461661036820548
0
LINE
8
Polygon
10
-0.25591838265555245
20
-0.21461661036820548
11
-0.25602419934647314
21
-0.21446708439632814
0
LINE
8
Polygon
10
-0.25602419934647314
20
-0.21446708439632814
11
-0.2561304323661481
21
-0.21431785392399083
0
LINE
8
Polygon
10
-0.2561304323661481
20
-0.21431785392399083
11
-0.25623708088938163
21
-0.2141689201103843
0
LINE
8
Polygon
10
-0.25623708088938163
20
-0.2141689201103843
11
-0.2563441440877506
21
-0.214020284112395
0
LINE
8
Polygon
10
-0.2563441440877506
20
-0.214020284112395
11
-0.2564516211296106
21
-0.21387194708459584
0
LINE
8
Polygon
10
-0.2564516211296106
20
-0.21387194708459584
11
-0.2565595111801029
21
-0.2137239101792376
0
LINE
8
Polygon
10
-0.2565595111801029
20
-0.2137239101792376
11
-0.25666781340116024
21
-0.21357617454623956
0
LINE
8
Polygon
10
-0.25666781340116024
20
-0.21357617454623956
11
-0.2567765269515139
21
-0.213428741333181
0
LINE
8
Polygon
10
-0.2567765269515139
20
-0.213428741333181
11
-0.25688565098669996
21
-0.21328161168529186
0
LINE
8
Polygon
10
-0.25688565098669996
20
-0.21328161168529186
11
-0.25699518465906607
21
-0.21313478674544417
0
LINE
8
Polygon
10
-0.25699518465906607
20
-0.21313478674544417
11
-0.2571051271177777
21
-0.21298826765414308
0
LINE
8
Polygon
10
-0.2571051271177777
20
-0.21298826765414308
11
-0.25721547750882523
21
-0.21284205554951785
0
LINE
8
Polygon
10
-0.25721547750882523
20
-0.21284205554951785
11
-0.25732623497503
21
-0.2126961515673132
0
LINE
8
Polygon
10
-0.25732623497503
20
-0.2126961515673132
11
-0.2574373986560515
21
-0.21255055684088048
0
LINE
8
Polygon
10
-0.2574373986560515
20
-0.21255055684088048
11
-0.25754896768839375
21
-0.2124052725011687
0
LINE
8
Polygon
10
-0.25754896768839375
20
-0.2124052725011687
11
-0.25766094120541205
21
-0.2122602996767159
0
LINE
8
Polygon
10
-0.25766094120541205
20
-0.2122602996767159
11
-0.25777331833731987
21
-0.21211563949364035
0
LINE
8
Polygon
10
-0.25777331833731987
20
-0.21211563949364035
11
-0.25788609821119535
21
-0.21197129307563176
0
LINE
8
Polygon
10
-0.25788609821119535
20
-0.21197129307563176
11
-0.25799927995098826
21
-0.2118272615439426
0
LINE
8
Polygon
10
-0.25799927995098826
20
-0.2118272615439426
11
-0.25811286267752676
21
-0.21168354601737938
0
LINE
8
Polygon
10
-0.25811286267752676
20
-0.21168354601737938
11
-0.2582268455085243
21
-0.2115401476122939
0
LINE
8
Polygon
10
-0.2582268455085243
20
-0.2115401476122939
11
-0.2583412275585863
21
-0.21139706744257467
0
LINE
8
Polygon
10
-0.2583412275585863
20
-0.21139706744257467
11
-0.2584560079392172
21
-0.21125430661963818
0
LINE
8
Polygon
10
-0.2584560079392172
20
-0.21125430661963818
11
-0.25857118575882726
21
-0.21111186625242037
0
LINE
8
Polygon
10
-0.25857118575882726
20
-0.21111186625242037
11
-0.2586867601227395
21
-0.21096974744736785
0
ENDSEC
0
EOF
