0
SECTION
2
ENTITIES
0
LINE
8
Polygon
10
1.4696699141100895
20
3.5303300858899105
11
1.4675944521116984
21
3.528246469536482
0
LINE
8
Polygon
10
1.4675944521116984
20
3.528246469536482
11
1.4655271763806472
21
3.526154730865699
0
LINE
8
Polygon
10
1.4655271763806472
20
3.526154730865699
11
1.4634681187033665
21
3.5240549020401346
0
LINE
8
Polygon
10
1.4634681187033665
20
3.5240549020401346
11
1.461417310739925
21
3.521947015346755
0
LINE
8
Polygon
10
1.4614173107399253
20
3.521947015346755
11
1.4593747840235456
21
3.5198311031964247
0
LINE
8
Polygon
10
1.4593747840235456
20
3.5198311031964247
11
1.4573405699601163
21
3.517707198123407
0
LINE
8
Polygon
10
1.4573405699601163
20
3.517707198123407
11
1.4553146998277124
21
3.5155753327848656
0
LINE
8
Polygon
10
1.4553146998277127
20
3.515575332784866
11
1.4532972047761112
21
3.5134355399603603
0
LINE
8
Polygon
10
1.4532972047761112
20
3.5134355399603603
11
1.4512881158263151
21
3.5112878525513436
0
LINE
8
Polygon
10
1.4512881158263151
20
3.5112878525513436
11
1.4492874638700743
21
3.509132303580656
0
LINE
8
Polygon
10
1.4492874638700748
20
3.5091323035806563
11
1.4472952796694127
21
3.5069689261920174
0
LINE
8
Polygon
10
1.4472952796694127
20
3.5069689261920174
11
1.445311593856152
21
3.504797753649516
0
LINE
8
Polygon
10
1.445311593856152
20
3.504797753649516
11
1.443336436931445
21
3.5026188193371004
0
LINE
8
Polygon
10
1.4433364369314452
20
3.502618819337101
11
1.441369839265303
21
3.500432156758063
0
LINE
8
Polygon
10
1.441369839265303
20
3.500432156758063
11
1.4394118310961295
21
3.4982377995345253
0
LINE
8
Polygon
10
1.4394118310961297
20
3.4982377995345253
11
1.4374624425302578
21
3.4960357814069227
0
LINE
8
Polygon
10
1.4374624425302578
20
3.4960357814069227
11
1.4355217035414847
21
3.4938261362334853
0
LINE
8
Polygon
10
1.4355217035414847
20
3.4938261362334853
11
1.4335896439706115
21
3.4916088979897144
0
LINE
8
Polygon
10
1.4335896439706117
20
3.491608897989715
11
1.4316662935249853
21
3.489384100767865
0
LINE
8
Polygon
10
1.4316662935249853
20
3.489384100767865
11
1.4297516817780407
21
3.4871517787764166
0
LINE
8
Polygon
10
1.429751681778041
20
3.487151778776417
11
1.4278458381688468
21
3.484911966339552
0
LINE
8
Polygon
10
1.4278458381688468
20
3.484911966339552
11
1.4259487920016536
21
3.482664697896624
0
LINE
8
Polygon
10
1.4259487920016536
20
3.482664697896624
11
1.4240605724454418
21
3.480410008001632
0
LINE
8
Polygon
10
1.424060572445442
20
3.480410008001632
11
1.422181208533474
21
3.4781479313226855
0
LINE
8
Polygon
10
1.422181208533474
20
3.4781479313226855
11
1.4203107291628483
21
3.475878502641474
0
LINE
8
Polygon
10
1.4203107291628483
20
3.475878502641474
11
1.418449163094054
21
3.4736017568527315
0
LINE
8
Polygon
10
1.4184491630940543
20
3.473601756852732
11
1.4165965389505304
21
3.4713177289637
0
LINE
8
Polygon
10
1.4165965389505304
20
3.4713177289637
11
1.4147528852182243
21
3.4690264540935907
0
LINE
8
Polygon
10
1.4147528852182243
20
3.4690264540935907
11
1.4129182302451546
21
3.466727967473044
0
LINE
8
Polygon
10
1.4129182302451548
20
3.466727967473044
11
1.411092602240975
21
3.464422304443589
0
LINE
8
Polygon
10
1.411092602240975
20
3.464422304443589
11
1.4092760292765405
21
3.4621095004570988
0
LINE
8
Polygon
10
1.4092760292765405
20
3.4621095004570988
11
1.4074685392834754
21
3.4597895910752454
0
LINE
8
Polygon
10
1.4074685392834754
20
3.4597895910752454
11
1.4056701600537445
21
3.4574626119689547
0
LINE
8
Polygon
10
1.4056701600537445
20
3.4574626119689547
11
1.403880919239226
21
3.455128598917855
0
LINE
8
Polygon
10
1.403880919239226
20
3.4551285989178555
11
1.4021008443512857
21
3.4527875878097305
0
LINE
8
Polygon
10
1.4021008443512857
20
3.4527875878097305
11
1.400329962760353
21
3.450439614639965
0
LINE
8
Polygon
10
1.4003299627603532
20
3.4504396146399654
11
1.3985683016955028
21
3.4480847155109937
0
LINE
8
Polygon
10
1.3985683016955028
20
3.4480847155109937
11
1.3968158882440338
21
3.445722926631743
0
LINE
8
Polygon
10
1.3968158882440338
20
3.445722926631743
11
1.3950727493510544
21
3.4433542843170772
0
LINE
8
Polygon
10
1.3950727493510549
20
3.4433542843170777
11
1.3933389118190673
21
3.4409788249872397
0
LINE
8
Polygon
10
1.3933389118190673
20
3.4409788249872397
11
1.3916144023075567
21
3.4385965851672906
0
LINE
8
Polygon
10
1.3916144023075567
20
3.4385965851672906
11
1.3898992473325797
21
3.436207601486548
0
LINE
8
Polygon
10
1.38989924733258
20
3.4362076014865486
11
1.3881934732663583
21
3.433811910678024
0
LINE
8
Polygon
10
1.3881934732663583
20
3.433811910678024
11
1.3864971063368734
21
3.4314095495778583
0
LINE
8
Polygon
10
1.3864971063368734
20
3.4314095495778583
11
1.3848101726274615
21
3.429000555124753
0
LINE
8
Polygon
10
1.3848101726274618
20
3.4290005551247535
11
1.3831326980764143
21
3.426584964359406
0
LINE
8
Polygon
10
1.3831326980764143
20
3.426584964359406
11
1.3814647084765794
21
3.424162814423939
0
LINE
8
Polygon
10
1.3814647084765794
20
3.4241628144239393
11
1.3798062294749633
21
3.421734142561328
0
LINE
8
Polygon
10
1.3798062294749636
20
3.421734142561328
11
1.3789947326610716
21
3.4204742019162566
0
LINE
8
Polygon
10
1.3789947326610716
20
3.4204742019162566
11
1.3782471694626923
21
3.41917530747386
0
LINE
8
Polygon
10
1.3782471694626923
20
3.41917530747386
11
1.3775654054466362
21
3.417840700664919
0
LINE
8
Polygon
10
1.3775654054466362
20
3.417840700664919
11
1.3769511419758431
21
3.416473712041517
0
LINE
8
Polygon
10
1.3769511419758431
20
3.416473712041517
11
1.376405911963579
21
3.415077752965546
0
LINE
8
Polygon
10
1.376405911963579
20
3.415077752965546
11
1.375931076048004
21
3.413656307095546
0
LINE
8
Polygon
10
1.375931076048004
20
3.413656307095546
11
1.375527819196659
21
3.4122129216931314
0
LINE
8
Polygon
10
1.375527819196659
20
3.4122129216931314
11
1.3751971477493414
21
3.410751198770691
0
LINE
8
Polygon
10
1.3751971477493414
20
3.410751198770691
11
1.374939886906755
21
3.4092747861024533
0
LINE
8
Polygon
10
1.374939886906755
20
3.4092747861024533
11
1.3747566786711956
21
3.4077873681213586
0
LINE
8
Polygon
10
1.3747566786711956
20
3.4077873681213586
11
1.3746479802444147
21
3.406292656724441
0
LINE
8
Polygon
10
1.3746479802444147
20
3.406292656724441
11
1.3746140628866585
21
3.4047943820096767
0
LINE
8
Polygon
10
1.3746140628866585
20
3.4047943820096767
11
1.3746550112397302
21
3.4032962829674096
0
LINE
8
Polygon
10
1.3746550112397302
20
3.4032962829674096
11
1.3747707231157629
21
3.4018020981495893
0
LINE
8
Polygon
10
1.3747707231157629
20
3.4018020981495893
11
1.3749609097522333
21
3.400315556340097
0
LINE
8
Polygon
10
1.3749609097522333
20
3.400315556340097
11
1.3752250965325772
21
3.3988403672494543
0
LINE
8
Polygon
10
1.3752250965325772
20
3.3988403672494543
11
1.3755626241706094
21
3.397380212257125
0
LINE
8
Polygon
10
1.3755626241706094
20
3.397380212257125
11
1.3759726503557932
21
3.3959387352245214
0
LINE
8
Polygon
10
1.3759726503557932
20
3.3959387352245214
11
1.3764541518552507
21
3.394519533401636
0
LINE
8
Polygon
10
1.3764541518552507
20
3.394519533401636
11
1.3770059270672734
21
3.393126148449996
0
LINE
8
Polygon
10
1.3770059270672734
20
3.393126148449996
11
1.3776265990199552
21
3.3917620576043355
0
LINE
8
Polygon
10
1.3776265990199552
20
3.3917620576043355
11
1.378314618807467
21
3.390430664995053
0
LINE
8
Polygon
10
1.378314618807467
20
3.390430664995053
11
1.3790682694554008
21
3.3891352931530982
0
LINE
8
Polygon
10
1.3790682694554008
20
3.3891352931530982
11
1.3798856702055293
21
3.3878791747184955
0
LINE
8
Polygon
10
1.3798856702055293
20
3.3878791747184955
11
1.3807647812092974
21
3.3866654443731905
0
LINE
8
Polygon
10
1.3807647812092974
20
3.3866654443731905
11
1.381703408618325
21
3.385497131018357
0
LINE
8
Polygon
10
1.381703408618325
20
3.385497131018357
11
1.3826992100592248
21
3.3843771502156814
0
LINE
8
Polygon
10
1.3826992100592248
20
3.3843771502156814
11
1.3837497004790646
21
3.3833082969114883
0
LINE
8
Polygon
10
1.3837497004790646
20
3.3833082969114883
11
1.384852258346894
21
3.382293238461867
0
LINE
8
Polygon
10
1.384852258346894
20
3.382293238461867
11
1.3860041321958547
21
3.381334507976203
0
LINE
8
Polygon
10
1.3860041321958547
20
3.381334507976203
11
1.3872024474895501
21
3.3804344979957275
0
LINE
8
Polygon
10
1.3872024474895501
20
3.3804344979957275
11
1.3884442137955388
21
3.3795954545228546
0
LINE
8
Polygon
10
1.3884442137955388
20
3.3795954545228546
11
1.3897263322480504
21
3.3788194714162154
0
LINE
8
Polygon
10
1.3897263322480506
20
3.3788194714162154
11
1.3910456032812994
21
3.3781084851653707
0
LINE
8
Polygon
10
1.3910456032812994
20
3.3781084851653707
11
1.3923987346140991
21
3.3774642700582396
0
LINE
8
Polygon
10
1.3923987346140991
20
3.3774642700582396
11
1.393782349465851
21
3.376888433753313
0
LINE
8
Polygon
10
1.393782349465851
20
3.376888433753313
11
1.395192994983403
21
3.3763824132676894
0
LINE
8
Polygon
10
1.395192994983403
20
3.3763824132676894
11
1.3966271508577504
21
3.375947471390957
0
LINE
8
Polygon
10
1.3966271508577504
20
3.375947471390957
11
1.3980812381090741
21
3.3755846935338636
0
LINE
8
Polygon
10
1.3980812381090741
20
3.3755846935338636
11
1.3995516280181954
21
3.3752949850196385
0
LINE
8
Polygon
10
1.3995516280181954
20
3.3752949850196385
11
1.4010346511821543
21
3.375079068824735
0
LINE
8
Polygon
10
1.4010346511821543
20
3.375079068824735
11
1.4025266066713171
21
3.374937483774616
0
LINE
8
Polygon
10
1.4025266066713171
20
3.374937483774616
11
1.4040237712651598
21
3.374870583199102
0
LINE
8
Polygon
10
1.4040237712651598
20
3.374870583199102
11
1.4055224087436782
21
3.374878534050624
0
LINE
8
Polygon
10
1.4055224087436782
20
3.374878534050624
11
1.4070187792112396
21
3.3749613164875885
0
LINE
8
Polygon
10
1.4070187792112396
20
3.3749613164875885
11
1.4085091484296066
21
3.3751187239238942
0
LINE
8
Polygon
10
1.4085091484296066
20
3.3751187239238942
11
1.4099897971368422
21
3.3753503635444733
0
LINE
8
Polygon
10
1.4099897971368422
20
3.3753503635444733
11
1.411457030328842
21
3.3756556572855714
0
LINE
8
Polygon
10
1.3182086124681385
20
3.150534062216427
11
1.3259582286419571
21
3.1392300517328886
0
LINE
8
Polygon
10
1.3259582286419571
20
3.1392300517328886
11
1.3347072560496298
21
3.1286805624905956
0
LINE
8
Polygon
10
1.3347072560496298
20
3.1286805624905956
11
1.3443826550091698
21
3.1189736650033857
0
LINE
8
Polygon
10
1.3443826550091698
20
3.1189736650033857
11
1.3549036521922782
21
3.1101903955593526
0
LINE
8
Polygon
10
1.3549036521922782
20
3.1101903955593526
11
1.3661824149459496
21
3.1024040797039647
0
LINE
8
Polygon
10
1.3661824149459496
20
3.1024040797039647
11
1.3781247845475804
21
3.095679720094938
0
LINE
8
Polygon
10
1.3781247845475804
20
3.095679720094938
11
1.3906310622721327
21
3.0900734538392354
0
LINE
8
Polygon
10
1.3906310622721327
20
3.0900734538392354
11
1.4035968417090112
21
3.0856320838425244
0
LINE
8
Polygon
10
1.4035968417090112
20
3.0856320838425244
11
1.4169138803802068
21
3.0823926880835373
0
LINE
8
Polygon
10
1.4169138803802068
20
3.0823926880835373
11
1.4304710033831594
21
3.0803823100752306
0
LINE
8
Polygon
10
1.4304710033831594
20
3.0803823100752306
11
1.4441550315144387
21
3.0796177330968835
0
LINE
8
Polygon
10
1.4441550315144387
20
3.0796177330968835
11
1.4578517261259727
21
3.080105340081907
0
LINE
8
Polygon
10
1.4578517261259727
20
3.080105340081907
11
1.471446742825856
21
3.081841060331072
0
LINE
8
Polygon
10
1.471446742825856
20
3.081841060331072
11
1.484826586061944
21
3.084810403496011
0
LINE
8
Polygon
10
1.484826586061944
20
3.084810403496011
11
1.4978795566190612
21
3.0889885805492843
0
LINE
8
Polygon
10
1.4978795566190612
20
3.0889885805492843
11
1.51049668411981
21
3.0943407107311196
0
LINE
8
Polygon
10
1.51049668411981
20
3.0943407107311196
11
1.522572636744173
21
3.10082211274516
0
LINE
8
Polygon
10
1.522572636744173
20
3.10082211274516
11
1.5340066005732687
21
3.108378677772234
0
LINE
8
Polygon
10
1.5340066005732687
20
3.108378677772234
11
1.5447031212162252
21
3.1169473211881003
0
LINE
8
Polygon
10
1.544703121216225
20
3.1169473211881003
11
1.5545729006939963
21
3.12645650921409
0
LINE
8
Polygon
10
1.5545729006939966
20
3.12645650921409
11
1.5635335429274826
21
3.136826856103994
0
LINE
8
Polygon
10
1.5635335429274826
20
3.136826856103994
11
1.5715102416063778
21
3.147971786881687
0
LINE
8
Polygon
10
1.5715102416063778
20
3.147971786881687
11
1.5784364046962014
21
3.159798260096751
0
LINE
8
Polygon
10
1.5784364046962014
20
3.159798260096751
11
1.5842542103699209
21
3.1722075445642903
0
LINE
8
Polygon
10
1.5842542103699209
20
3.1722075445642903
11
1.588915089723078
21
3.1850960436044726
0
LINE
8
Polygon
10
1.588915089723078
20
3.1850960436044726
11
1.5923801322425526
21
3.1983561599007837
0
LINE
8
Polygon
10
1.5923801322425526
20
3.1983561599007837
11
1.5946204106439856
21
3.211877193756874
0
LINE
8
Polygon
10
1.5946204106439856
20
3.211877193756874
11
1.5956172223660088
21
3.225546267253066
0
LINE
8
Polygon
10
1.5956172223660088
20
3.225546267253066
11
1.5953622457052161
21
3.239249266587369
0
LINE
8
Polygon
10
1.5953622457052161
20
3.2392492665873696
11
1.5938576092884085
21
3.2528717947340344
0
LINE
8
Polygon
10
1.5938576092884085
20
3.2528717947340344
11
1.5911158743021343
21
3.2663001264665508
0
LINE
8
Polygon
10
1.5911158743021343
20
3.2663001264665508
11
1.587159929627884
21
3.2794221577722493
0
LINE
8
Polygon
10
1.587159929627884
20
3.2794221577722493
11
1.582022800758378
21
3.292128341732493
0
LINE
8
Polygon
10
1.5820228007583779
20
3.292128341732493
11
1.5757473740901797
21
3.3043126030554264
0
LINE
8
Polygon
10
1.57574737409018
20
3.3043126030554264
11
1.5683860388943272
21
3.3158732236264754
0
LINE
8
Polygon
10
1.5683860388943272
20
3.315873223626476
11
1.5600002499539227
21
3.326713691683735
0
LINE
8
Polygon
10
1.5600002499539227
20
3.326713691683735
11
1.5506600145199299
21
3.3367435075290555
0
LINE
8
Polygon
10
1.5506600145199299
20
3.3367435075290555
11
1.5404433078682265
21
3.3458789390485024
0
LINE
8
Polygon
10
1.5404433078682265
20
3.3458789390485024
11
1.5294354223370368
21
3.3540437207348486
0
LINE
8
Polygon
10
1.5294354223370368
20
3.3540437207348486
11
1.517728255279184
21
3.3611696903764474
0
LINE
8
Polygon
10
1.517728255279184
20
3.3611696903764474
11
1.5054195418735654
21
3.3671973580972008
0
LINE
8
Polygon
10
1.5054195418735654
20
3.3671973580972008
11
1.4926120392005875
21
3.3720764029970893
0
LINE
8
Polygon
10
1.4926120392005873
20
3.3720764029970893
11
1.4794126683931583
21
3.375766093247159
0
LINE
8
Polygon
10
1.4794126683931585
20
3.375766093247159
11
1.4659316220248384
21
3.378235626131869
0
LINE
8
Polygon
10
1.4659316220248384
20
3.378235626131869
11
1.4522814441869532
21
3.3794643852000252
0
LINE
8
Polygon
10
1.4522814441869532
20
3.3794643852000252
11
1.4385760909344885
21
3.3794421123775127
0
LINE
8
Polygon
10
1.4385760909344885
20
3.3794421123775127
11
1.4249299789444563
21
3.378168993604985
0
LINE
8
Polygon
10
1.4249299789444563
20
3.378168993604985
11
1.411457030328842
21
3.375655657285571
0
LINE
8
Polygon
10
1.3182086124681387
20
3.1505340622164275
11
1.317386997203078
21
3.1517874280306573
0
LINE
8
Polygon
10
1.317386997203078
20
3.1517874280306573
11
1.3165038144081394
21
3.152998198718601
0
LINE
8
Polygon
10
1.3165038144081394
20
3.152998198718601
11
1.3155612680929814
21
3.1541633527650013
0
LINE
8
Polygon
10
1.3155612680929814
20
3.1541633527650013
11
1.314561710410742
21
3.155279982492322
0
LINE
8
Polygon
10
1.314561710410742
20
3.155279982492322
11
1.3135076357881688
21
3.15634530131695
0
LINE
8
Polygon
10
1.3135076357881688
20
3.15634530131695
11
1.312401674700699
21
3.157356650703197
0
LINE
8
Polygon
10
1.312401674700699
20
3.157356650703197
11
1.3112465871080299
21
3.158311506797759
0
LINE
8
Polygon
10
1.3112465871080299
20
3.158311506797759
11
1.3100452555665534
21
3.1592074867280666
0
LINE
8
Polygon
10
1.3100452555665534
20
3.1592074867280666
11
1.3088006780358497
21
3.160042354548819
0
LINE
8
Polygon
10
1.3088006780358497
20
3.160042354548819
11
1.3075159603971864
21
3.1608140268218516
0
LINE
8
Polygon
10
1.3075159603971864
20
3.1608140268218516
11
1.3061943087026975
21
3.1615205778154216
0
LINE
8
Polygon
10
1.3061943087026975
20
3.1615205778154216
11
1.3048390211745824
21
3.1621602443099293
0
LINE
8
Polygon
10
1.3048390211745824
20
3.1621602443099293
11
1.3034534799742912
21
3.1627314299980864
0
LINE
8
Polygon
10
1.3034534799742912
20
3.1627314299980864
11
1.3020411427622374
21
3.16323270946855
0
LINE
8
Polygon
10
1.3020411427622374
20
3.16323270946855
11
1.3006055340691012
21
3.1636628317630806
0
LINE
8
Polygon
10
1.3006055340691012
20
3.1636628317630806
11
1.2991502365002552
21
3.164020723498345
0
LINE
8
Polygon
10
1.2991502365002552
20
3.164020723498345
11
1.2976788817952627
21
3.16430549154458
0
LINE
8
Polygon
10
1.2976788817952627
20
3.16430549154458
11
1.296195141764761
21
3.164516425254422
0
LINE
8
Polygon
10
1.296195141764761
20
3.164516425254422
11
1.2947027191273466
21
3.1646529982363503
0
LINE
8
Polygon
10
1.2947027191273466
20
3.1646529982363503
11
1.293205338269326
21
3.164714869668315
0
LINE
8
Polygon
10
1.293205338269326
20
3.164714869668315
11
1.291706735950397
21
3.1647018851482667
0
LINE
8
Polygon
10
1.291706735950397
20
3.1647018851482667
11
1.2902106519784506
21
3.1646140770794715
0
LINE
8
Polygon
10
1.2902106519784506
20
3.1646140770794715
11
1.2887208198767661
21
3.164451664589649
0
LINE
8
Polygon
10
1.2887208198767661
20
3.164451664589649
11
1.287240957566889
21
3.1642150529841317
0
LINE
8
Polygon
10
1.287240957566889
20
3.1642150529841317
11
1.285774758090445
21
3.1639048327344135
0
LINE
8
Polygon
10
1.285774758090445
20
3.1639048327344135
11
1.2843258803930413
21
3.163521778004609
0
LINE
8
Polygon
10
1.2843258803930413
20
3.163521778004609
11
1.2828979401932556
21
3.163066844719504
0
LINE
8
Polygon
10
1.2828979401932556
20
3.163066844719504
11
1.2814945009595011
21
3.1625411681790165
0
LINE
8
Polygon
10
1.2814945009595011
20
3.1625411681790165
11
1.2801190650172811
21
3.1619460602250204
0
LINE
8
Polygon
10
1.2801190650172811
20
3.1619460602250204
11
1.2787750648090288
21
3.161283005967604
0
LINE
8
Polygon
10
1.2787750648090288
20
3.161283005967604
11
1.2774658543283428
21
3.1605536600789326
0
LINE
8
Polygon
10
1.2774658543283428
20
3.1605536600789326
11
1.2761947007499927
21
3.1597598426639637
0
LINE
8
Polygon
10
1.2761947007499927
20
3.1597598426639637
11
1.2749647762765857
21
3.1589035347183185
0
LINE
8
Polygon
10
1.2749647762765857
20
3.1589035347183185
11
1.2737791502222373
21
3.1579868731846488
0
LINE
8
Polygon
10
1.2737791502222373
20
3.1579868731846488
11
1.2726407813530038
21
3.1570121456198286
0
LINE
8
Polygon
10
1.2726407813530038
20
3.1570121456198286
11
1.2715525105031926
21
3.155981784486288
0
LINE
8
Polygon
10
1.2715525105031926
20
3.155981784486288
11
1.2705170534859715
21
3.1548983610817283
0
LINE
8
Polygon
10
1.2705170534859715
20
3.1548983610817283
11
1.2695369943159753
21
3.15376457912237
0
LINE
8
Polygon
10
1.2695369943159753
20
3.15376457912237
11
1.268614778760818
21
3.152583267995746
0
LINE
8
Polygon
10
1.268614778760818
20
3.152583267995746
11
1.267752708237604
21
3.1513573756998787
0
LINE
8
Polygon
10
1.267752708237604
20
3.1513573756998787
11
1.2669529340696732
21
3.150089961486462
0
LINE
8
Polygon
10
1.2669529340696732
20
3.150089961486462
11
1.2662174521179064
21
3.148784188226403
0
LINE
8
Polygon
10
1.2662174521179064
20
3.148784188226403
11
1.2655480977999938
21
3.1474433145167824
0
LINE
8
Polygon
10
1.2655480977999938
20
3.1474433145167824
11
1.264946541510094
21
3.146070686548926
0
LINE
8
Polygon
10
1.264946541510094
20
3.146070686548926
11
1.2644142844503148
21
3.1446697297578807
0
LINE
8
Polygon
10
1.2644142844503148
20
3.1446697297578807
11
1.2639526548844173
21
3.1432439402741386
0
LINE
8
Polygon
10
1.2639526548844173
20
3.1432439402741386
11
1.2635628048230925
21
3.141796876198935
0
LINE
8
Polygon
10
1.2635628048230925
20
3.141796876198935
11
1.2632457071490841
21
3.140332148724898
0
LINE
8
Polygon
10
1.2632457071490841
20
3.140332148724898
11
1.2627010985542526
21
3.1374420966330705
0
LINE
8
Polygon
10
1.2627010985542526
20
3.1374420966330705
11
1.2621678266668255
21
3.1345499312316587
0
LINE
8
Polygon
10
1.2621678266668255
20
3.134549931231659
11
1.2616458996863902
21
3.131655696990597
0
LINE
8
Polygon
10
1.2616458996863902
20
3.131655696990597
11
1.2611353256380964
21
3.1287594384116284
0
LINE
8
Polygon
10
1.2611353256380964
20
3.128759438411629
11
1.2606361123725296
21
3.125861200027623
0
LINE
8
Polygon
10
1.2606361123725296
20
3.125861200027623
11
1.260148267565593
21
3.122961026401892
0
LINE
8
Polygon
10
1.260148267565593
20
3.122961026401892
11
1.259671798718388
21
3.1200589621275028
0
LINE
8
Polygon
10
1.2596717987183883
20
3.120058962127503
11
1.2592067131570994
21
3.117155051826595
0
LINE
8
Polygon
10
1.2592067131570994
20
3.117155051826595
11
1.2587530180328823
21
3.1142493401496893
0
LINE
8
Polygon
10
1.2587530180328823
20
3.1142493401496893
11
1.2583107203217525
21
3.1113418717750085
0
LINE
8
Polygon
10
1.2583107203217525
20
3.111341871775009
11
1.2578798268244795
21
3.1084326914077836
0
LINE
8
Polygon
10
1.2578798268244795
20
3.1084326914077836
11
1.2574603441664816
21
3.1055218437795693
0
LINE
8
Polygon
10
1.2574603441664816
20
3.1055218437795693
11
1.2570522787977232
21
3.102609373647557
0
LINE
8
Polygon
10
1.2570522787977232
20
3.1026093736475575
11
1.2566556369926178
21
3.0996953257938866
0
LINE
8
Polygon
10
1.2566556369926178
20
3.0996953257938866
11
1.2562704248499292
21
3.0967797450249543
0
LINE
8
Polygon
10
1.2562704248499292
20
3.096779745024955
11
1.2558966482926792
21
3.0938626761707293
0
LINE
8
Polygon
10
1.2558966482926792
20
3.0938626761707293
11
1.2555343130680559
21
3.0909441640840596
0
LINE
8
Polygon
10
1.2555343130680559
20
3.0909441640840596
11
1.255183424747325
21
3.0880242536399845
0
LINE
8
Polygon
10
1.255183424747325
20
3.088024253639985
11
1.2548439887257459
21
3.085102989735047
0
LINE
8
Polygon
10
1.2548439887257459
20
3.085102989735047
11
1.2545160102224857
21
3.082180417286596
0
LINE
8
Polygon
10
1.2545160102224857
20
3.0821804172865965
11
1.2541994942805426
21
3.0792565812321064
0
LINE
8
Polygon
10
1.2541994942805426
20
3.0792565812321064
11
1.2538944457666648
21
3.0763315265284774
0
LINE
8
Polygon
10
1.2538944457666648
20
3.0763315265284774
11
1.2536008693712781
21
3.0734052981513487
0
LINE
8
Polygon
10
1.2536008693712783
20
3.0734052981513487
11
1.2533187696084136
21
3.070477941094406
0
LINE
8
Polygon
10
1.2533187696084136
20
3.070477941094406
11
1.2530481508156361
21
3.067549500368689
0
LINE
8
Polygon
10
1.2530481508156361
20
3.067549500368689
11
1.2527890171539808
21
3.064620021001901
0
LINE
8
Polygon
10
1.2527890171539808
20
3.064620021001901
11
1.2525413726078862
21
3.0616895480377138
0
LINE
8
Polygon
10
1.2525413726078862
20
3.0616895480377138
11
1.252305220985135
21
3.0587581265350785
0
LINE
8
Polygon
10
1.252305220985135
20
3.0587581265350785
11
1.2520805659167942
21
3.0558258015675297
0
LINE
8
Polygon
10
1.2520805659167942
20
3.05582580156753
11
1.25186741085716
21
3.0528926182224945
0
LINE
8
Polygon
10
1.25186741085716
20
3.0528926182224945
11
1.2516657590837044
21
3.0499586216005974
0
LINE
8
Polygon
10
1.2516657590837044
20
3.0499586216005974
11
1.251475613697025
21
3.047023856814969
0
LINE
8
Polygon
10
1.251475613697025
20
3.047023856814969
11
1.2512969776207972
21
3.04408836899055
0
LINE
8
Polygon
10
1.2512969776207972
20
3.04408836899055
11
1.251129853601729
21
3.0411522032633997
0
LINE
8
Polygon
10
1.251129853601729
20
3.0411522032634
11
1.2509742442095193
21
3.0382154047800003
0
LINE
8
Polygon
10
1.2509742442095193
20
3.0382154047800003
11
1.2508301518368181
21
3.0352780186965633
0
LINE
8
Polygon
10
1.2508301518368181
20
3.0352780186965633
11
1.2506975786991896
21
3.032340090178335
0
LINE
8
Polygon
10
1.2506975786991896
20
3.032340090178335
11
1.2505765268350781
21
3.0294016643989017
0
LINE
8
Polygon
10
1.2505765268350781
20
3.0294016643989017
11
1.2504669981057772
21
3.026462786539497
0
LINE
8
Polygon
10
1.2504669981057772
20
3.0264627865394975
11
1.2503689941954004
21
3.023523501788305
0
LINE
8
Polygon
10
1.2503689941954004
20
3.023523501788305
11
1.2502825166108558
21
3.020583855339765
0
LINE
8
Polygon
10
1.2502825166108558
20
3.020583855339765
11
1.2502075666818229
21
3.0176438923938798
0
LINE
8
Polygon
10
1.2502075666818229
20
3.01764389239388
11
1.2501441455607314
21
3.014703658155517
0
LINE
8
Polygon
10
1.2501441455607314
20
3.014703658155517
11
1.2500922542227446
21
3.0117631978337167
0
LINE
8
Polygon
10
1.2500922542227446
20
3.0117631978337167
11
1.2500518934657436
21
3.008822556640994
0
LINE
8
Polygon
10
1.2500518934657436
20
3.0088225566409945
11
1.2500230639103154
21
3.0058817797926474
0
LINE
8
Polygon
10
1.2500230639103154
20
3.0058817797926474
11
1.2500057659997434
21
3.002940912506058
0
LINE
8
Polygon
10
1.2500057659997434
20
3.002940912506058
11
1.25
21
3.0
0
LINE
8
Polygon
10
1.25
20
3.0
11
1.2501542802168844
21
2.9847882767925134
0
LINE
8
Polygon
10
1.2501542802168844
20
2.9847882767925134
11
1.25061705739451
21
2.969582811899575
0
LINE
8
Polygon
10
1.25061705739451
20
2.9695828118995746
11
1.2513881411399077
21
2.9543898610609753
0
LINE
8
Polygon
10
1.2513881411399077
20
2.9543898610609753
11
1.2524672142184978
21
2.93921567486805
0
LINE
8
Polygon
10
1.2524672142184978
20
2.9392156748680494
11
1.2538538326846038
21
2.924066496192096
0
LINE
8
Polygon
10
1.2538538326846038
20
2.924066496192096
11
1.255547426064099
21
2.9089485576159726
0
LINE
8
Polygon
10
1.255547426064099
20
2.9089485576159726
11
1.257547297589106
21
2.8938680788699256
0
LINE
8
Polygon
10
1.257547297589106
20
2.893868078869925
11
1.2598526244846577
21
2.878831264272706
0
LINE
8
Polygon
10
1.2598526244846577
20
2.878831264272706
11
1.2624624583071986
21
2.8638443001790264
0
LINE
8
Polygon
10
1.2624624583071986
20
2.863844300179026
11
1.2653757253347866
21
2.8489133524344092
0
LINE
8
Polygon
10
1.2653757253347866
20
2.8489133524344092
11
1.2685912270088382
21
2.834044563838472
0
LINE
8
Polygon
10
1.2685912270088382
20
2.8340445638384715
11
1.2721076404272316
21
2.8192440516176918
0
LINE
8
Polygon
10
1.2721076404272316
20
2.8192440516176918
11
1.2759235188885674
21
2.8045179049086975
0
LINE
8
Polygon
10
1.2759235188885674
20
2.8045179049086975
11
1.280037292487361
21
2.7898721822531103
0
LINE
8
Polygon
10
1.280037292487361
20
2.78987218225311
11
1.2844472687599244
21
2.775312909104977
0
LINE
8
Polygon
10
1.2844472687599244
20
2.775312909104977
11
1.289151633380669
21
2.7608460753518163
0
LINE
8
Polygon
10
1.2891516333806692
20
2.760846075351816
11
1.2941484509085441
21
2.746477632850291
0
LINE
8
Polygon
10
1.2941484509085441
20
2.746477632850291
11
1.2994356655833044
21
2.7322134929775364
0
LINE
8
Polygon
10
1.2994356655833044
20
2.732213492977536
11
1.3050111021712785
21
2.7180595241991337
0
LINE
8
Polygon
10
1.3050111021712785
20
2.7180595241991337
11
1.3108724668602907
21
2.7040215496547444
0
LINE
8
Polygon
10
1.3108724668602907
20
2.7040215496547444
11
1.317017348203366
21
2.6901053447623884
0
LINE
8
Polygon
10
1.3170173482033662
20
2.6901053447623884
11
1.3234432181108349
21
2.676316634842356
0
LINE
8
Polygon
10
1.3234432181108349
20
2.676316634842356
11
1.3301474328904221
21
2.6626610927617325
0
LINE
8
Polygon
10
1.3301474328904224
20
2.6626610927617325
11
1.3371272343349005
21
2.6491443366005014
0
LINE
8
Polygon
10
1.3371272343349005
20
2.6491443366005014
11
1.344379750856855
21
2.635771927340189
0
LINE
8
Polygon
10
1.344379750856855
20
2.635771927340189
11
1.3519019986700935
21
2.622549366575998
0
LINE
8
Polygon
10
1.3519019986700938
20
2.6225493665759974
11
1.359690883017219
21
2.6094820942533734
0
LINE
8
Polygon
10
1.359690883017219
20
2.6094820942533734
11
1.3677431994428537
21
2.596575486429938
0
LINE
8
Polygon
10
1.3677431994428542
20
2.5965754864299377
11
1.3760556351119997
21
2.5838348530637028
0
LINE
8
Polygon
10
1.3760556351119997
20
2.5838348530637028
11
1.384624770172982
21
2.571265435828478
0
LINE
8
Polygon
10
1.384624770172982
20
2.571265435828478
11
1.3934470791644253
21
2.558872405957377
0
LINE
8
Polygon
10
1.3934470791644256
20
2.558872405957377
11
1.402518932465678
21
2.5466608621152957
0
LINE
8
Polygon
10
1.402518932465678
20
2.5466608621152957
11
1.4118365977900862
21
2.534635828301255
0
LINE
8
Polygon
10
1.4118365977900864
20
2.5346358283012544
11
1.4213962417205117
21
2.5228022517814535
0
LINE
8
Polygon
10
1.4213962417205117
20
2.5228022517814535
11
1.4311939312864501
21
2.511165001053897
0
LINE
8
Polygon
10
1.4311939312864501
20
2.511165001053897
11
1.441225635582112
21
2.499728863845429
0
LINE
8
Polygon
10
1.4412256355821125
20
2.4997288638454287
11
1.4514872274247925
21
2.4884985451419923
0
LINE
8
Polygon
10
1.4514872274247925
20
2.4884985451419923
11
1.4619744850528504
21
2.477478665252935
0
LINE
8
Polygon
10
1.4619744850528504
20
2.477478665252935
11
1.4726830938626028
21
2.466673757910148
0
LINE
8
Polygon
10
1.4726830938626028
20
2.466673757910148
11
1.48360864818341
21
2.4560882684028273
0
LINE
8
Polygon
10
1.48360864818341
20
2.4560882684028273
11
1.494746653090232
21
2.445726551748618
0
LINE
8
Polygon
10
1.4947466530902322
20
2.4457265517486175
11
1.5060925262529015
21
2.4355928709019
0
LINE
8
Polygon
10
1.506092526252902
20
2.4355928709018997
11
1.517641599821359
21
2.425691394999951
0
LINE
8
Polygon
10
1.517641599821359
20
2.425691394999951
11
1.5293891223460712
21
2.4160261976477035
0
LINE
8
Polygon
10
1.5293891223460712
20
2.4160261976477035
11
1.5413302607328436
21
2.4066012552418075
0
LINE
8
Polygon
10
1.5413302607328438
20
2.406601255241807
11
1.5534601022312227
21
2.3974204453346846
0
LINE
8
Polygon
10
1.5534601022312227
20
2.3974204453346846
11
1.5657736564556688
21
2.3884875450392524
0
LINE
8
Polygon
10
1.565773656455669
20
2.3884875450392524
11
1.5782658574386723
21
2.3798062294749633
0
LINE
8
Polygon
10
1.5782658574386725
20
2.3798062294749633
11
1.579525798083744
21
2.3789947326610714
0
LINE
8
Polygon
10
1.579525798083744
20
2.3789947326610714
11
1.5808246925261407
21
2.3782471694626923
0
LINE
8
Polygon
10
1.5808246925261407
20
2.3782471694626923
11
1.5821592993350815
21
2.377565405446636
0
LINE
8
Polygon
10
1.5821592993350815
20
2.377565405446636
11
1.583526287958483
21
2.3769511419758427
0
LINE
8
Polygon
10
1.583526287958483
20
2.3769511419758427
11
1.5849222470344544
21
2.3764059119635785
0
LINE
8
Polygon
10
1.5849222470344544
20
2.3764059119635785
11
1.5863436929044543
21
2.375931076048004
0
LINE
8
Polygon
10
1.5863436929044543
20
2.375931076048004
11
1.5877870783068688
21
2.3755278191966585
0
LINE
8
Polygon
10
1.5877870783068688
20
2.3755278191966585
11
1.5892488012293098
21
2.375197147749341
0
LINE
8
Polygon
10
1.5892488012293098
20
2.375197147749341
11
1.5907252138975472
21
2.3749398869067546
0
LINE
8
Polygon
10
1.5907252138975472
20
2.3749398869067546
11
1.5922126318786416
21
2.3747566786711953
0
LINE
8
Polygon
10
1.5922126318786416
20
2.3747566786711953
11
1.5937073432755593
21
2.3746479802444145
0
LINE
8
Polygon
10
1.5937073432755593
20
2.3746479802444145
11
1.595205617990324
21
2.3746140628866583
0
LINE
8
Polygon
10
1.595205617990324
20
2.3746140628866583
11
1.5967037170325908
21
2.3746550112397298
0
LINE
8
Polygon
10
1.5967037170325908
20
2.3746550112397298
11
1.598197901850411
21
2.3747707231157626
0
LINE
8
Polygon
10
1.598197901850411
20
2.3747707231157626
11
1.5996844436599034
21
2.374960909752233
0
LINE
8
Polygon
10
1.5996844436599034
20
2.374960909752233
11
1.6011596327505462
21
2.375225096532577
0
LINE
8
Polygon
10
1.6011596327505462
20
2.375225096532577
11
1.6026197877428756
21
2.3755626241706094
0
LINE
8
Polygon
10
1.6026197877428756
20
2.3755626241706094
11
1.6040612647754793
21
2.3759726503557927
0
LINE
8
Polygon
10
1.6040612647754793
20
2.3759726503557927
11
1.6054804665983642
21
2.3764541518552504
0
LINE
8
Polygon
10
1.6054804665983642
20
2.3764541518552504
11
1.6068738515500045
21
2.377005927067273
0
LINE
8
Polygon
10
1.6068738515500045
20
2.377005927067273
11
1.6082379423956648
21
2.3776265990199548
0
LINE
8
Polygon
10
1.6082379423956648
20
2.3776265990199548
11
1.6095693350049474
21
2.378314618807467
0
LINE
8
Polygon
10
1.6095693350049474
20
2.378314618807467
11
1.610864706846902
21
2.379068269455401
0
LINE
8
Polygon
10
1.610864706846902
20
2.379068269455401
11
1.612120825281505
21
2.379885670205529
0
LINE
8
Polygon
10
1.612120825281505
20
2.379885670205529
11
1.61333455562681
21
2.380764781209297
0
LINE
8
Polygon
10
1.61333455562681
20
2.380764781209297
11
1.6145028689816434
21
2.381703408618325
0
LINE
8
Polygon
10
1.6145028689816434
20
2.381703408618325
11
1.615622849784319
21
2.382699210059225
0
LINE
8
Polygon
10
1.615622849784319
20
2.382699210059225
11
1.6166917030885124
21
2.3837497004790644
0
LINE
8
Polygon
10
1.6166917030885122
20
2.3837497004790644
11
1.6177067615381335
21
2.3848522583468936
0
LINE
8
Polygon
10
1.6177067615381335
20
2.3848522583468936
11
1.618665492023797
21
2.3860041321958545
0
LINE
8
Polygon
10
1.618665492023797
20
2.3860041321958545
11
1.6195655020042727
21
2.3872024474895497
0
LINE
8
Polygon
10
1.6195655020042727
20
2.3872024474895497
11
1.6204045454771459
21
2.388444213795539
0
LINE
8
Polygon
10
1.6204045454771459
20
2.388444213795539
11
1.621180528583785
21
2.3897263322480504
0
LINE
8
Polygon
10
1.621180528583785
20
2.3897263322480504
11
1.62189151483463
21
2.3910456032812992
0
LINE
8
Polygon
10
1.62189151483463
20
2.3910456032812992
11
1.6225357299417609
21
2.392398734614099
0
LINE
8
Polygon
10
1.6225357299417609
20
2.392398734614099
11
1.6231115662466875
21
2.393782349465851
0
LINE
8
Polygon
10
1.6231115662466875
20
2.393782349465851
11
1.623617586732311
21
2.395192994983403
0
LINE
8
Polygon
10
1.623617586732311
20
2.395192994983403
11
1.6240525286090433
21
2.39662715085775
0
LINE
8
Polygon
10
1.6240525286090433
20
2.39662715085775
11
1.624415306466137
21
2.398081238109074
0
LINE
8
Polygon
10
1.624415306466137
20
2.398081238109074
11
1.6247050149803617
21
2.3995516280181954
0
LINE
8
Polygon
10
1.6247050149803617
20
2.3995516280181954
11
1.6249209311752655
21
2.401034651182154
0
LINE
8
Polygon
10
1.6249209311752655
20
2.401034651182154
11
1.6250625162253844
21
2.4025266066713167
0
LINE
8
Polygon
10
1.6250625162253844
20
2.4025266066713167
11
1.6251294168008983
21
2.4040237712651593
0
LINE
8
Polygon
10
1.6251294168008983
20
2.4040237712651593
11
1.6251214659493765
21
2.405522408743678
0
LINE
8
Polygon
10
1.6251214659493765
20
2.405522408743678
11
1.625038683512412
21
2.4070187792112394
0
LINE
8
Polygon
10
1.625038683512412
20
2.4070187792112394
11
1.624881276076106
21
2.4085091484296064
0
LINE
8
Polygon
10
1.624881276076106
20
2.4085091484296064
11
1.6246496364555274
21
2.409989797136842
0
LINE
8
Polygon
10
1.6246496364555274
20
2.409989797136842
11
1.624344342714429
21
2.411457030328842
0
LINE
8
Polygon
10
1.849465937783573
20
2.3182086124681387
11
1.8607699482671114
21
2.3259582286419573
0
LINE
8
Polygon
10
1.8607699482671114
20
2.3259582286419573
11
1.8713194375094047
21
2.33470725604963
0
LINE
8
Polygon
10
1.8713194375094047
20
2.33470725604963
11
1.8810263349966143
21
2.34438265500917
0
LINE
8
Polygon
10
1.8810263349966143
20
2.34438265500917
11
1.8898096044406476
21
2.354903652192278
0
LINE
8
Polygon
10
1.8898096044406476
20
2.354903652192278
11
1.8975959202960353
21
2.36618241494595
0
LINE
8
Polygon
10
1.8975959202960353
20
2.36618241494595
11
1.9043202799050618
21
2.3781247845475804
0
LINE
8
Polygon
10
1.9043202799050618
20
2.3781247845475804
11
1.9099265461607646
21
2.3906310622721327
0
LINE
8
Polygon
10
1.9099265461607646
20
2.3906310622721327
11
1.9143679161574754
21
2.4035968417090112
0
LINE
8
Polygon
10
1.9143679161574754
20
2.4035968417090112
11
1.917607311916463
21
2.416913880380207
0
LINE
8
Polygon
10
1.917607311916463
20
2.416913880380207
11
1.9196176899247694
21
2.4304710033831594
0
LINE
8
Polygon
10
1.9196176899247694
20
2.4304710033831594
11
1.9203822669031163
21
2.444155031514439
0
LINE
8
Polygon
10
1.9203822669031163
20
2.444155031514439
11
1.9198946599180928
21
2.457851726125973
0
LINE
8
Polygon
10
1.9198946599180928
20
2.457851726125973
11
1.9181589396689278
21
2.471446742825856
0
LINE
8
Polygon
10
1.9181589396689278
20
2.471446742825856
11
1.9151895965039891
21
2.4848265860619443
0
LINE
8
Polygon
10
1.9151895965039891
20
2.4848265860619443
11
1.9110114194507155
21
2.4978795566190612
0
LINE
8
Polygon
10
1.9110114194507155
20
2.4978795566190612
11
1.9056592892688804
21
2.51049668411981
0
LINE
8
Polygon
10
1.9056592892688804
20
2.51049668411981
11
1.89917788725484
21
2.522572636744173
0
LINE
8
Polygon
10
1.89917788725484
20
2.522572636744173
11
1.891621322227766
21
2.5340066005732687
0
LINE
8
Polygon
10
1.891621322227766
20
2.5340066005732687
11
1.8830526788118995
21
2.544703121216225
0
LINE
8
Polygon
10
1.8830526788118995
20
2.544703121216225
11
1.8735434907859096
21
2.5545729006939966
0
LINE
8
Polygon
10
1.8735434907859096
20
2.5545729006939966
11
1.8631731438960062
21
2.5635335429274826
0
LINE
8
Polygon
10
1.8631731438960062
20
2.5635335429274826
11
1.8520282131183128
21
2.571510241606378
0
LINE
8
Polygon
10
1.8520282131183128
20
2.571510241606378
11
1.8402017399032486
21
2.5784364046962014
0
LINE
8
Polygon
10
1.8402017399032486
20
2.5784364046962014
11
1.8277924554357097
21
2.5842542103699206
0
LINE
8
Polygon
10
1.8277924554357097
20
2.5842542103699206
11
1.8149039563955274
21
2.588915089723078
0
LINE
8
Polygon
10
1.8149039563955274
20
2.588915089723078
11
1.8016438400992163
21
2.592380132242553
0
LINE
8
Polygon
10
1.8016438400992163
20
2.592380132242553
11
1.788122806243126
21
2.5946204106439854
0
LINE
8
Polygon
10
1.788122806243126
20
2.5946204106439854
11
1.7744537327469339
21
2.595617222366009
0
LINE
8
Polygon
10
1.7744537327469339
20
2.595617222366009
11
1.7607507334126307
21
2.5953622457052163
0
LINE
8
Polygon
10
1.7607507334126307
20
2.5953622457052163
11
1.7471282052659656
21
2.5938576092884085
0
LINE
8
Polygon
10
1.7471282052659656
20
2.5938576092884085
11
1.7336998735334492
21
2.591115874302134
0
LINE
8
Polygon
10
1.7336998735334492
20
2.591115874302134
11
1.7205778422277507
21
2.5871599296278838
0
LINE
8
Polygon
10
1.7205778422277507
20
2.5871599296278838
11
1.7078716582675069
21
2.582022800758378
0
LINE
8
Polygon
10
1.7078716582675069
20
2.582022800758378
11
1.6956873969445734
21
2.57574737409018
0
LINE
8
Polygon
10
1.6956873969445734
20
2.57574737409018
11
1.6841267763735244
21
2.568386038894327
0
LINE
8
Polygon
10
1.6841267763735244
20
2.568386038894327
11
1.673286308316265
21
2.5600002499539225
0
LINE
8
Polygon
10
1.673286308316265
20
2.5600002499539225
11
1.6632564924709443
21
2.55066001451993
0
LINE
8
Polygon
10
1.6632564924709443
20
2.55066001451993
11
1.6541210609514974
21
2.5404433078682263
0
LINE
8
Polygon
10
1.6541210609514974
20
2.5404433078682263
11
1.6459562792651514
21
2.5294354223370368
0
LINE
8
Polygon
10
1.6459562792651514
20
2.5294354223370368
11
1.6388303096235524
21
2.517728255279184
0
LINE
8
Polygon
10
1.6388303096235524
20
2.517728255279184
11
1.6328026419027992
21
2.5054195418735654
0
LINE
8
Polygon
10
1.6328026419027992
20
2.5054195418735654
11
1.6279235970029107
21
2.4926120392005875
0
LINE
8
Polygon
10
1.6279235970029107
20
2.4926120392005875
11
1.624233906752841
21
2.4794126683931585
0
LINE
8
Polygon
10
1.624233906752841
20
2.4794126683931585
11
1.6217643738681307
21
2.465931622024838
0
LINE
8
Polygon
10
1.6217643738681309
20
2.465931622024838
11
1.6205356147999748
21
2.452281444186953
0
LINE
8
Polygon
10
1.6205356147999748
20
2.452281444186953
11
1.6205578876224873
21
2.4385760909344882
0
LINE
8
Polygon
10
1.6205578876224873
20
2.4385760909344882
11
1.621831006395015
21
2.4249299789444563
0
LINE
8
Polygon
10
1.621831006395015
20
2.4249299789444563
11
1.6243443427144288
21
2.411457030328842
0
LINE
8
Polygon
10
1.849465937783573
20
2.3182086124681387
11
1.8482125719693434
21
2.317386997203078
0
LINE
8
Polygon
10
1.8482125719693434
20
2.317386997203078
11
1.8470018012813993
21
2.316503814408139
0
LINE
8
Polygon
10
1.8470018012813993
20
2.316503814408139
11
1.8458366472349994
21
2.3155612680929814
0
LINE
8
Polygon
10
1.8458366472349994
20
2.3155612680929814
11
1.8447200175076783
21
2.314561710410742
0
LINE
8
Polygon
10
1.8447200175076783
20
2.314561710410742
11
1.8436546986830504
21
2.3135076357881688
0
LINE
8
Polygon
10
1.8436546986830504
20
2.3135076357881688
11
1.842643349296803
21
2.312401674700699
0
LINE
8
Polygon
10
1.842643349296803
20
2.312401674700699
11
1.8416884932022413
21
2.31124658710803
0
LINE
8
Polygon
10
1.8416884932022413
20
2.31124658710803
11
1.8407925132719338
21
2.3100452555665534
0
LINE
8
Polygon
10
1.8407925132719338
20
2.3100452555665534
11
1.8399576454511815
21
2.30880067803585
0
LINE
8
Polygon
10
1.8399576454511815
20
2.30880067803585
11
1.8391859731781488
21
2.307515960397186
0
LINE
8
Polygon
10
1.8391859731781488
20
2.307515960397186
11
1.8384794221845788
21
2.3061943087026977
0
LINE
8
Polygon
10
1.8384794221845788
20
2.3061943087026977
11
1.8378397556900712
21
2.3048390211745824
0
LINE
8
Polygon
10
1.8378397556900712
20
2.3048390211745824
11
1.837268570001914
21
2.303453479974291
0
LINE
8
Polygon
10
1.837268570001914
20
2.303453479974291
11
1.8367672905314503
21
2.3020411427622376
0
LINE
8
Polygon
10
1.8367672905314503
20
2.3020411427622376
11
1.8363371682369198
21
2.3006055340691014
0
LINE
8
Polygon
10
1.8363371682369198
20
2.3006055340691014
11
1.8359792765016552
21
2.299150236500255
0
LINE
8
Polygon
10
1.8359792765016552
20
2.299150236500255
11
1.8356945084554206
21
2.2976788817952625
0
LINE
8
Polygon
10
1.8356945084554206
20
2.2976788817952625
11
1.8354835747455789
21
2.2961951417647612
0
LINE
8
Polygon
10
1.8354835747455789
20
2.2961951417647612
11
1.8353470017636502
21
2.2947027191273466
0
LINE
8
Polygon
10
1.8353470017636502
20
2.2947027191273466
11
1.8352851303316855
21
2.293205338269326
0
LINE
8
Polygon
10
1.8352851303316855
20
2.293205338269326
11
1.835298114851734
21
2.291706735950397
0
LINE
8
Polygon
10
1.835298114851734
20
2.291706735950397
11
1.8353859229205292
21
2.290210651978451
0
LINE
8
Polygon
10
1.8353859229205292
20
2.290210651978451
11
1.8355483354103515
21
2.288720819876766
0
LINE
8
Polygon
10
1.8355483354103515
20
2.288720819876766
11
1.8357849470158685
21
2.287240957566889
0
LINE
8
Polygon
10
1.8357849470158685
20
2.287240957566889
11
1.836095167265587
21
2.285774758090445
0
LINE
8
Polygon
10
1.836095167265587
20
2.285774758090445
11
1.8364782219953917
21
2.284325880393041
0
LINE
8
Polygon
10
1.8364782219953917
20
2.284325880393041
11
1.8369331552804966
21
2.2828979401932554
0
LINE
8
Polygon
10
1.8369331552804966
20
2.2828979401932554
11
1.8374588318209841
21
2.2814945009595013
0
LINE
8
Polygon
10
1.8374588318209841
20
2.2814945009595013
11
1.8380539397749802
21
2.2801190650172813
0
LINE
8
Polygon
10
1.8380539397749802
20
2.2801190650172813
11
1.8387169940323966
21
2.278775064809029
0
LINE
8
Polygon
10
1.8387169940323966
20
2.278775064809029
11
1.8394463399210679
21
2.2774658543283426
0
LINE
8
Polygon
10
1.8394463399210679
20
2.2774658543283426
11
1.8402401573360367
21
2.2761947007499925
0
LINE
8
Polygon
10
1.8402401573360367
20
2.276194700749993
11
1.8410964652816817
21
2.274964776276586
0
LINE
8
Polygon
10
1.8410964652816817
20
2.274964776276586
11
1.8420131268153517
21
2.273779150222237
0
LINE
8
Polygon
10
1.8420131268153517
20
2.273779150222237
11
1.8429878543801719
21
2.272640781353004
0
LINE
8
Polygon
10
1.8429878543801719
20
2.272640781353004
11
1.8440182155137126
21
2.2715525105031924
0
LINE
8
Polygon
10
1.8440182155137126
20
2.2715525105031924
11
1.8451016389182722
21
2.2705170534859715
0
LINE
8
Polygon
10
1.8451016389182722
20
2.2705170534859715
11
1.8462354208776306
21
2.2695369943159753
0
LINE
8
Polygon
10
1.8462354208776306
20
2.2695369943159753
11
1.8474167320042547
21
2.268614778760818
0
LINE
8
Polygon
10
1.8474167320042547
20
2.268614778760818
11
1.8486426243001215
21
2.267752708237604
0
LINE
8
Polygon
10
1.8486426243001215
20
2.267752708237604
11
1.8499100385135383
21
2.2669529340696735
0
LINE
8
Polygon
10
1.8499100385135383
20
2.2669529340696735
11
1.8512158117735975
21
2.2662174521179064
0
LINE
8
Polygon
10
1.8512158117735975
20
2.2662174521179064
11
1.852556685483218
21
2.2655480977999938
0
LINE
8
Polygon
10
1.852556685483218
20
2.2655480977999938
11
1.8539293134510746
21
2.264946541510094
0
LINE
8
Polygon
10
1.8539293134510746
20
2.264946541510094
11
1.8553302702421197
21
2.264414284450315
0
LINE
8
Polygon
10
1.8553302702421197
20
2.264414284450315
11
1.8567560597258617
21
2.2639526548844175
0
LINE
8
Polygon
10
1.8567560597258617
20
2.2639526548844175
11
1.8582031238010654
21
2.2635628048230925
0
LINE
8
Polygon
10
1.8582031238010654
20
2.2635628048230925
11
1.8596678512751024
21
2.263245707149084
0
LINE
8
Polygon
10
1.8596678512751024
20
2.263245707149084
11
1.8746397884072583
21
2.260551004227186
0
LINE
8
Polygon
10
1.8746397884072583
20
2.260551004227186
11
1.889663300474436
21
2.2581605209091355
0
LINE
8
Polygon
10
1.889663300474436
20
2.2581605209091355
11
1.9047322065947687
21
2.2560752406730247
0
LINE
8
Polygon
10
1.9047322065947687
20
2.2560752406730247
11
1.9198403072106447
21
2.254296021432153
0
LINE
8
Polygon
10
1.9198403072106445
20
2.254296021432153
11
1.9349813866392906
21
2.2528235951820674
0
LINE
8
Polygon
10
1.9349813866392906
20
2.2528235951820674
11
1.9501492156299924
21
2.2516585676994123
0
LINE
8
Polygon
10
1.9501492156299924
20
2.2516585676994123
11
1.9653375539268927
21
2.2508014182927005
0
LINE
8
Polygon
10
1.9653375539268927
20
2.2508014182927005
11
1.980540152836321
21
2.2502524996051227
0
LINE
8
Polygon
10
1.980540152836321
20
2.2502524996051227
11
1.9957507577975913
21
2.250012037469464
0
LINE
8
Polygon
10
1.9957507577975913
20
2.250012037469464
11
2.010963110956218
21
2.2500801308151908
0
LINE
8
Polygon
10
2.010963110956218
20
2.2500801308151908
11
2.026170953738482
21
2.250456751627754
0
LINE
8
Polygon
10
2.026170953738482
20
2.250456751627754
11
2.041368029426296
21
2.2511417449601128
0
LINE
8
Polygon
10
2.041368029426296
20
2.2511417449601128
11
2.056548085731304
21
2.2521348289964793
0
LINE
8
Polygon
10
2.056548085731304
20
2.2521348289964793
11
2.0717048773671634
21
2.2534355951682667
0
LINE
8
Polygon
10
2.0717048773671634
20
2.2534355951682667
11
2.0868321686189373
21
2.2550435083221756
0
LINE
8
Polygon
10
2.0868321686189373
20
2.2550435083221756
11
2.101923735908559
21
2.256957906940366
0
LINE
8
Polygon
10
2.101923735908559
20
2.256957906940366
11
2.116973370355297
21
2.2591780034126128
0
LINE
8
Polygon
10
2.116973370355297
20
2.2591780034126128
11
2.131974880330173
21
2.2617028843603433
0
LINE
8
Polygon
10
2.131974880330173
20
2.2617028843603433
11
2.146922094003287
21
2.2645315110124096
0
LINE
8
Polygon
10
2.146922094003287
20
2.2645315110124096
11
2.1618088618829936
21
2.2676627196324564
0
LINE
8
Polygon
10
2.1618088618829936
20
2.2676627196324564
11
2.1766290593458866
21
2.2710952219976965
0
LINE
8
Polygon
10
2.176629059345886
20
2.2710952219976965
11
2.191376589156555
21
2.2748276059289054
0
LINE
8
Polygon
10
2.191376589156555
20
2.2748276059289054
11
2.2060453839760727
21
2.2788583358714094
0
LINE
8
Polygon
10
2.2060453839760727
20
2.2788583358714094
11
2.2206294088581835
21
2.283185753526837
0
LINE
8
Polygon
10
2.2206294088581835
20
2.283185753526837
11
2.235122663732161
21
2.2878080785353623
0
LINE
8
Polygon
10
2.235122663732161
20
2.2878080785353623
11
2.2495191858713253
21
2.292723409208172
0
LINE
8
Polygon
10
2.2495191858713253
20
2.292723409208172
11
2.263813052346188
21
2.2979297233098475
0
LINE
8
Polygon
10
2.263813052346188
20
2.2979297233098475
11
2.27799838246123
21
2.3034248788903384
0
LINE
8
Polygon
10
2.27799838246123
20
2.3034248788903384
11
2.2920693401742995
21
2.3092066151661923
0
LINE
8
Polygon
10
2.2920693401742995
20
2.3092066151661923
11
2.3060201364976427
21
2.3152725534506713
0
LINE
8
Polygon
10
2.3060201364976427
20
2.3152725534506713
11
2.319845031879573
21
2.3216201981323774
0
LINE
8
Polygon
10
2.3198450318795727
20
2.3216201981323774
11
2.333538338565803
21
2.3282469377019828
0
LINE
8
Polygon
10
2.333538338565803
20
2.3282469377019828
11
2.347094422939464
21
2.335150045826639
0
LINE
8
Polygon
10
2.3470944229394637
20
2.3351500458266385
11
2.360507707838857
21
2.3423266824716293
0
LINE
8
Polygon
10
2.360507707838857
20
2.3423266824716293
11
2.3737726748519736
21
2.3497738950687994
0
LINE
8
Polygon
10
2.3737726748519736
20
2.3497738950687994
11
2.386883866586846
21
2.357488619731283
0
LINE
8
Polygon
10
2.386883866586846
20
2.357488619731283
11
2.399835888916795
21
2.3654676825140295
0
LINE
8
Polygon
10
2.399835888916795
20
2.3654676825140295
11
2.4126234131996505
21
2.3737078007196075
0
LINE
8
Polygon
10
2.4126234131996505
20
2.3737078007196075
11
2.4252411784700256
21
2.3822055842487537
0
LINE
8
Polygon
10
2.4252411784700256
20
2.3822055842487537
11
2.437683993603754
21
2.390957536995105
0
LINE
8
Polygon
10
2.437683993603754
20
2.390957536995105
11
2.4499467394535897
21
2.3999600582835474
0
LINE
8
Polygon
10
2.4499467394535897
20
2.3999600582835474
11
2.4620243709552936
21
2.409209444351583
0
LINE
8
Polygon
10
2.4620243709552936
20
2.409209444351583
11
2.4739119192032457
21
2.418701889873108
0
LINE
8
Polygon
10
2.4739119192032457
20
2.418701889873108
11
2.485604493494721
21
2.428433489523979
0
LINE
8
Polygon
10
2.485604493494721
20
2.428433489523979
11
2.497097283341993
21
2.4384002395887174
0
LINE
8
Polygon
10
2.497097283341993
20
2.4384002395887174
11
2.5083855604514342
21
2.4485980396076914
0
LINE
8
Polygon
10
2.5083855604514342
20
2.448598039607691
11
2.5194646806688024
21
2.459022694064105
0
LINE
8
Polygon
10
2.5194646806688024
20
2.459022694064105
11
2.5303300858899105
21
2.4696699141100895
0
LINE
8
Polygon
10
1.4696699141100895
20
3.5303300858899105
11
2.5303300858899105
21
2.4696699141100895
0
ENDSEC
0
EOF
