0
SECTION
2
ENTITIES
0
LINE
8
Polygon
10
3.199489742783178
20
0.0
11
3.1992958135816036
21
0.0170545065547492
0
LINE
8
Polygon
10
3.1992958135816036
20
0.0170545065547492
11
3.1987141262663084
21
0.03410019346459332
0
LINE
8
Polygon
10
3.1987141262663084
20
0.03410019346459332
11
3.19774498165371
21
0.05112824564565849
0
LINE
8
Polygon
10
3.19774498165371
20
0.05112824564565849
11
3.1963888809316505
21
0.06812985713377445
0
LINE
8
Polygon
10
3.1963888809316505
20
0.06812985713377445
11
3.194646525400211
21
0.0850962356384309
0
LINE
8
Polygon
10
3.194646525400211
20
0.0850962356384309
11
3.192518816109037
21
0.10201860708966251
0
LINE
8
Polygon
10
3.192518816109037
20
0.10201860708966251
11
3.190006853391366
21
0.11888822017551115
0
LINE
8
Polygon
10
3.190006853391366
20
0.11888822017551115
11
3.187111936294995
21
0.13569635086771925
0
LINE
8
Polygon
10
3.187111936294995
20
0.13569635086771925
11
3.183835561910488
21
0.15243430693331317
0
LINE
8
Polygon
10
3.183835561910488
20
0.15243430693331317
11
3.180179424596961
21
0.16909343242974426
0
LINE
8
Polygon
10
3.180179424596961
20
0.16909343242974426
11
3.1761454151058532
21
0.18566511218126192
0
LINE
8
Polygon
10
3.1761454151058532
20
0.18566511218126192
11
3.171735619603138
21
0.20214077623420496
0
LINE
8
Polygon
10
3.171735619603138
20
0.20214077623420496
11
3.166952318590471
21
0.21851190428890616
0
LINE
8
Polygon
10
3.166952318590471
20
0.21851190428890616
11
3.1617979857258423
21
0.2347700301059189
0
LINE
8
Polygon
10
3.1617979857258423
20
0.2347700301059189
11
3.1562752865443375
21
0.2509067458842863
0
LINE
8
Polygon
10
3.1562752865443375
20
0.2509067458842863
11
3.150387077079671
21
0.26691370660959
0
LINE
8
Polygon
10
3.150387077079671
20
0.26691370660959
11
3.1441364023872023
21
0.2827826343695284
0
LINE
8
Polygon
10
3.1441364023872023
20
0.2827826343695284
11
3.137526494969206
21
0.2985053226347939
0
LINE
8
Polygon
10
3.137526494969206
20
0.2985053226347939
11
3.1305607731031957
21
0.314073640503035
0
LINE
8
Polygon
10
3.1305607731031957
20
0.314073640503035
11
3.1232428390741847
21
0.32947953690370735
0
LINE
8
Polygon
10
3.1232428390741847
20
0.32947953690370735
11
3.115576477311782
21
0.3447150447616417
0
LINE
8
Polygon
10
3.115576477311782
20
0.3447150447616417
11
3.107565652433096
21
0.35977228511717285
0
LINE
8
Polygon
10
3.107565652433096
20
0.35977228511717285
11
3.099214507192454
21
0.37464347120070063
0
LINE
8
Polygon
10
3.099214507192454
20
0.37464347120070063
11
3.0905273603389993
21
0.3893209124595753
0
LINE
8
Polygon
10
3.0905273603389993
20
0.3893209124595753
11
3.081508704383274
21
0.40379701853522476
0
LINE
8
Polygon
10
3.081508704383274
20
0.40379701853522476
11
3.0721632032739405
21
0.41806430318846755
0
LINE
8
Polygon
10
3.0721632032739405
20
0.41806430318846755
11
3.0624956899858486
21
0.43211538817097966
0
LINE
8
Polygon
10
3.0624956899858486
20
0.43211538817097966
11
3.052511164020687
21
0.44594300704091605
0
LINE
8
Polygon
10
3.052511164020687
20
0.44594300704091605
11
3.0422147888215183
21
0.459540008920711
0
LINE
8
Polygon
10
3.0422147888215183
20
0.459540008920711
11
3.0316118891025328
21
0.4728993621951158
0
LINE
8
Polygon
10
3.0316118891025328
20
0.4728993621951158
11
3.020707948095403
21
0.4860141581475593
0
LINE
8
Polygon
10
3.020707948095403
20
0.4860141581475593
11
3.009508604713657
21
0.4988776145329542
0
LINE
8
Polygon
10
3.009508604713657
20
0.4988776145329542
11
2.9980196506365497
21
0.5114830790850968
0
LINE
8
Polygon
10
2.9980196506365497
20
0.5114830790850968
11
2.986247027313923
21
0.5238240329568511
0
LINE
8
Polygon
10
2.986247027313923
20
0.5238240329568511
11
2.974196822893622
21
0.5358940940913341
0
LINE
8
Polygon
10
2.974196822893622
20
0.5358940940913341
11
2.961875269073038
21
0.5476870205223627
0
LINE
8
Polygon
10
2.961875269073038
20
0.5476870205223627
11
2.949288737876423
21
0.5591967136024515
0
LINE
8
Polygon
10
2.949288737876423
20
0.5591967136024515
11
2.9364437383596322
21
0.5704172211566956
0
LINE
8
Polygon
10
2.9364437383596322
20
0.5704172211566956
11
2.923346913244
21
0.5813427405609047
0
LINE
8
Polygon
10
2.923346913244
20
0.5813427405609047
11
2.910005035481094
21
0.5919676217423995
0
LINE
8
Polygon
10
2.910005035481094
20
0.5919676217423995
11
2.8964250047501197
21
0.602286370101915
0
LINE
8
Polygon
10
2.8964250047501197
20
0.602286370101915
11
2.8826138438897893
21
0.6122936493551029
0
LINE
8
Polygon
10
2.8826138438897893
20
0.6122936493551029
11
2.868578695266499
21
0.6219842842921619
0
LINE
8
Polygon
10
2.868578695266499
20
0.6219842842921619
11
2.8543268170806915
21
0.631353263454169
0
LINE
8
Polygon
10
2.8543268170806915
20
0.631353263454169
11
2.8398655796133214
21
0.6403957417247285
0
LINE
8
Polygon
10
2.8398655796133214
20
0.6403957417247285
11
2.8252024614143507
21
0.6491070428355967
0
LINE
8
Polygon
10
2.8252024614143507
20
0.6491070428355967
11
2.810345045435259
21
0.6574826617849896
0
LINE
8
Polygon
10
2.810345045435259
20
0.6574826617849896
11
2.7953010151075612
21
0.6655182671673192
0
LINE
8
Polygon
10
2.7953010151075612
20
0.6655182671673192
11
2.79395432414857
21
0.6661758391930556
0
LINE
8
Polygon
10
2.79395432414857
20
0.6661758391930556
11
2.7925764745940422
21
0.6667653373806252
0
LINE
8
Polygon
10
2.7925764745940422
20
0.6667653373806252
11
2.7911709049096545
21
0.667285290619283
0
LINE
8
Polygon
10
2.7911709049096545
20
0.667285290619283
11
2.7897411227375155
21
0.6677344013498301
0
LINE
8
Polygon
10
2.7897411227375155
20
0.6677344013498301
11
2.7882906961427354
21
0.6681115488027113
0
LINE
8
Polygon
10
2.7882906961427354
20
0.6681115488027113
11
2.7868232447092134
21
0.6684157917949307
0
LINE
8
Polygon
10
2.7868232447092134
20
0.6684157917949307
11
2.785342430506854
21
0.6686463710788023
0
LINE
8
Polygon
10
2.785342430506854
20
0.6686463710788023
11
2.7838519489527593
21
0.6688027112366757
0
LINE
8
Polygon
10
2.7838519489527593
20
0.6688027112366757
11
2.7823555195892036
21
0.6688844221169081
0
LINE
8
Polygon
10
2.7823555195892036
20
0.6688844221169081
11
2.7808568768014013
21
0.6688912998075007
0
LINE
8
Polygon
10
2.7808568768014013
20
0.6688912998075007
11
2.7793597604982345
21
0.6688233271449665
0
LINE
8
Polygon
10
2.7793597604982345
20
0.6688233271449665
11
2.7778679067791963
21
0.6686806737571621
0
LINE
8
Polygon
10
2.7778679067791963
20
0.6686806737571621
11
2.77638503861084
21
0.6684636956399772
0
LINE
8
Polygon
10
2.77638503861084
20
0.6684636956399772
11
2.7749148565360042
21
0.6681729342689349
0
LINE
8
Polygon
10
2.7749148565360042
20
0.6681729342689349
11
2.7734610294389905
21
0.6678091152479236
0
LINE
8
Polygon
10
2.7734610294389905
20
0.6678091152479236
11
2.772027185389756
21
0.6673731464984303
0
LINE
8
Polygon
10
2.772027185389756
20
0.6673731464984303
11
2.77061690258995
21
0.6668661159937944
0
LINE
8
Polygon
10
2.77061690258995
20
0.6668661159937944
11
2.769233700443404
21
0.6662892890441375
0
LINE
8
Polygon
10
2.769233700443404
20
0.6662892890441375
11
2.7678810307733515
21
0.6656441051387428
0
LINE
8
Polygon
10
2.7678810307733515
20
0.6656441051387428
11
2.766562269208298
21
0.6649321743537661
0
LINE
8
Polygon
10
2.766562269208298
20
0.6649321743537661
11
2.7652807067580363
21
0.6641552733342408
0
LINE
8
Polygon
10
2.7652807067580363
20
0.6641552733342408
11
2.7640395416008317
21
0.663315340860407
0
LINE
8
Polygon
10
2.7640395416008317
20
0.663315340860407
11
2.762841871102269
21
0.6624144730094252
0
LINE
8
Polygon
10
2.762841871102269
20
0.6624144730094252
11
2.7616906840856834
21
0.6614549179245521
0
LINE
8
Polygon
10
2.7616906840856834
20
0.6614549179245521
11
2.760588853373461
21
0.6604390702048304
0
LINE
8
Polygon
10
2.760588853373461
20
0.6604390702048304
11
2.759539128617821
21
0.6593694649292935
0
LINE
8
Polygon
10
2.759539128617821
20
0.6593694649292935
11
2.758544129438975
21
0.6582487713305983
0
LINE
8
Polygon
10
2.758544129438975
20
0.6582487713305983
11
2.757606338887786
21
0.6570797861338742
0
LINE
8
Polygon
10
2.757606338887786
20
0.6570797861338742
11
2.756728097249237
21
0.6558654265774087
0
LINE
8
Polygon
10
2.756728097249237
20
0.6558654265774087
11
2.7559115962021807
21
0.6546087231325914
0
LINE
8
Polygon
10
2.7559115962021807
20
0.6546087231325914
11
2.7551588733499353
21
0.6533128119412794
0
LINE
8
Polygon
10
2.7551588733499353
20
0.6533128119412794
11
2.7544718071353853
21
0.6519809269894595
0
LINE
8
Polygon
10
2.7544718071353853
20
0.6519809269894595
11
2.753852112153269
21
0.6506163920367375
0
LINE
8
Polygon
10
2.753852112153269
20
0.6506163920367375
11
2.7533013348713555
21
0.649222612321794
0
LINE
8
Polygon
10
2.7533013348713555
20
0.649222612321794
11
2.7528208497711857
21
0.647803066064508
0
LINE
8
Polygon
10
2.7528208497711857
20
0.647803066064508
11
2.7524118559180124
21
0.6463612957859523
0
LINE
8
Polygon
10
2.7524118559180124
20
0.6463612957859523
11
2.7520753739684976
21
0.6449008994679238
0
LINE
8
Polygon
10
2.7520753739684976
20
0.6449008994679238
11
2.7518122436236303
21
0.6434255215740708
0
LINE
8
Polygon
10
2.7518122436236303
20
0.6434255215740708
11
2.7516231215332287
21
0.6419388439550215
0
LINE
8
Polygon
10
2.7516231215332287
20
0.6419388439550215
11
2.7515084796572498
21
0.6404445766602138
0
LINE
8
Polygon
10
2.7515084796572498
20
0.6404445766602138
11
2.7514686040879988
21
0.6389464486793534
0
LINE
8
Polygon
10
2.7514686040879988
20
0.6389464486793534
11
2.751503594336178
21
0.637448198636606
0
LINE
8
Polygon
10
2.751503594336178
20
0.637448198636606
11
2.7516133630825537
21
0.6359535654607467
0
LINE
8
Polygon
10
2.7516133630825537
20
0.6359535654607467
11
2.751797636395864
21
0.6344662790545484
0
LINE
8
Polygon
10
2.751797636395864
20
0.6344662790545486
11
2.7520559544164227
21
0.6329900509866964
0
LINE
8
Polygon
10
2.7520559544164227
20
0.6329900509866964
11
2.752387672503715
21
0.6315285652294537
0
LINE
8
Polygon
10
2.752387672503715
20
0.6315285652294537
11
2.7527919628451154
21
0.6300854689651973
0
LINE
8
Polygon
10
2.7527919628451154
20
0.6300854689651973
11
2.7532678165217193
21
0.6286643634847623
0
LINE
8
Polygon
10
2.5187361873813647
20
0.694769695590208
11
2.508422806410067
21
0.6857435459795299
0
LINE
8
Polygon
10
2.508422806410067
20
0.6857435459795299
11
2.4989763256214728
21
0.6758137320555845
0
LINE
8
Polygon
10
2.4989763256214728
20
0.6758137320555845
11
2.4904756072616965
21
0.6650631510842496
0
LINE
8
Polygon
10
2.4904756072616965
20
0.6650631510842496
11
2.4829916180492915
21
0.6535815523575014
0
LINE
8
Polygon
10
2.4829916180492915
20
0.6535815523575013
11
2.476586836722361
21
0.6414647879375884
0
LINE
8
Polygon
10
2.476586836722361
20
0.6414647879375884
11
2.471314732446049
21
0.6288140124533281
0
LINE
8
Polygon
10
2.471314732446049
20
0.6288140124533281
11
2.467219318434831
21
0.6157348386288779
0
LINE
8
Polygon
10
2.467219318434831
20
0.6157348386288779
11
2.4643347845161063
21
0.6023364555948998
0
LINE
8
Polygon
10
2.4643347845161063
20
0.6023364555948998
11
2.4626852117025733
21
0.5887307173427387
0
LINE
8
Polygon
10
2.4626852117025733
20
0.5887307173427387
11
2.4622843711562252
21
0.5750312089314902
0
LINE
8
Polygon
10
2.4622843711562252
20
0.5750312089314902
11
2.4631356092222805
21
0.5613522982435603
0
LINE
8
Polygon
10
2.4631356092222805
20
0.5613522982435603
11
2.4652318194928213
21
0.5478081812049659
0
LINE
8
Polygon
10
2.4652318194928213
20
0.5478081812049659
11
2.468555502133364
21
0.5345119284411823
0
LINE
8
Polygon
10
2.468555502133364
20
0.5345119284411823
11
2.473078909977077
21
0.5215745413273598
0
LINE
8
Polygon
10
2.473078909977077
20
0.5215745413273598
11
2.4787642801670153
21
0.5091040253133039
0
LINE
8
Polygon
10
2.4787642801670153
20
0.5091040253133039
11
2.4855641494125416
21
0.49720448825940106
0
LINE
8
Polygon
10
2.4855641494125416
20
0.49720448825940106
11
2.4934217502280718
21
0.485975271310867
0
LINE
8
Polygon
10
2.4934217502280718
20
0.485975271310867
11
2.5022714848462195
21
0.47551011956606065
0
LINE
8
Polygon
10
2.5022714848462195
20
0.4755101195660606
11
2.512039472848962
21
0.4658963994623885
0
LINE
8
Polygon
10
2.512039472848962
20
0.4658963994623885
11
2.522644167945023
21
0.45721436941331306
0
LINE
8
Polygon
10
2.5226441679450224
20
0.4572143694133131
11
2.5339970387444213
21
0.44953650978542053
0
LINE
8
Polygon
10
2.5339970387444217
20
0.4495365097854205
11
2.546003307846862
21
0.4429269178091145
0
LINE
8
Polygon
10
2.546003307846862
20
0.44292691780911453
11
2.5585627430738143
21
0.4374407724744147
0
LINE
8
Polygon
10
2.5585627430738147
20
0.43744077247441465
11
2.571570494238834
21
0.43312387387908113
0
LINE
8
Polygon
10
2.571570494238834
20
0.43312387387908113
11
2.5849179684704877
21
0.43001226087473476
0
LINE
8
Polygon
10
2.5849179684704877
20
0.43001226087473476
11
2.598493736780411
21
0.4281319102029848
0
LINE
8
Polygon
10
2.598493736780411
20
0.4281319102029848
11
2.6121844643081817
21
0.42749851963327323
0
LINE
8
Polygon
10
2.6121844643081817
20
0.42749851963327323
11
2.625875856477021
21
0.42811737691286955
0
LINE
8
Polygon
10
2.625875856477021
20
0.42811737691286955
11
2.6394536131615127
21
0.42998331562306336
0
LINE
8
Polygon
10
2.6394536131615127
20
0.42998331562306336
11
2.652804382901648
21
0.433080758310082
0
LINE
8
Polygon
10
2.652804382901648
20
0.4330807583100821
11
2.6658167091971023
21
0.43738384653066215
0
LINE
8
Polygon
10
2.665816709197102
20
0.4373838465306621
11
2.6783819609817883
21
0.442856656726613
0
LINE
8
Polygon
10
2.6783819609817883
20
0.44285665672661306
11
2.6903952395107753
21
0.44945350012618246
0
LINE
8
Polygon
10
2.6903952395107753
20
0.4494535001261824
11
2.701756254088597
21
0.45711930416855096
0
LINE
8
Polygon
10
2.701756254088597
20
0.45711930416855107
11
2.7123701593280867
21
0.4657900722672029
0
LINE
8
Polygon
10
2.7123701593280862
20
0.4657900722672028
11
2.7221483469500374
21
0.47539341807391966
0
LINE
8
Polygon
10
2.722148346950038
20
0.47539341807391977
11
2.7310091855134875
21
0.48584916978319176
0
LINE
8
Polygon
10
2.7310091855134875
20
0.48584916978319176
11
2.7388787019011227
21
0.4970700394321186
0
LINE
8
Polygon
10
2.7388787019011227
20
0.4970700394321186
11
2.745691198870546
21
0.5089623516082711
0
LINE
8
Polygon
10
2.745691198870546
20
0.5089623516082711
11
2.751389803515891
21
0.5214268254820259
0
LINE
8
Polygon
10
2.751389803515891
20
0.5214268254820259
11
2.755926942061049
21
0.5343594036347187
0
LINE
8
Polygon
10
2.755926942061049
20
0.5343594036347187
11
2.759264737020783
21
0.547652120763291
0
LINE
8
Polygon
10
2.759264737020783
20
0.547652120763291
11
2.761375323414104
21
0.5611940050092071
0
LINE
8
Polygon
10
2.761375323414104
20
0.5611940050092072
11
2.762241081390051
21
0.5748720043870603
0
LINE
8
Polygon
10
2.762241081390051
20
0.5748720043870602
11
2.7618547833238503
21
0.5885719305787415
0
LINE
8
Polygon
10
2.7618547833238503
20
0.5885719305787416
11
2.7602196541554394
21
0.6021794122140802
0
LINE
8
Polygon
10
2.7602196541554394
20
0.6021794122140802
11
2.757349344466638
21
0.6155808496796598
0
LINE
8
Polygon
10
2.757349344466638
20
0.6155808496796598
11
2.7532678165217193
21
0.6286643634847623
0
LINE
8
Polygon
10
2.5187361873813647
20
0.694769695590208
11
2.5198841448929943
21
0.6957331119381871
0
LINE
8
Polygon
10
2.5198841448929943
20
0.6957331119381871
11
2.5209825572996034
21
0.6967526548225559
0
LINE
8
Polygon
10
2.5209825572996034
20
0.6967526548225559
11
2.5220286834794594
21
0.6978257799428846
0
LINE
8
Polygon
10
2.5220286834794594
20
0.6978257799428846
11
2.5230199127927055
21
0.6989498092826358
0
LINE
8
Polygon
10
2.5230199127927055
20
0.6989498092826358
11
2.5239537715962945
21
0.7001219377922369
0
LINE
8
Polygon
10
2.5239537715962945
20
0.7001219377922369
11
2.524827929417039
21
0.7013392403891664
0
LINE
8
Polygon
10
2.524827929417039
20
0.7013392403891664
11
2.5256402047673787
21
0.7025986792575876
0
LINE
8
Polygon
10
2.5256402047673787
20
0.7025986792575876
11
2.526388570589351
21
0.7038971114293101
0
LINE
8
Polygon
10
2.526388570589351
20
0.7038971114293101
11
2.5270711593131727
21
0.7052312966271636
0
LINE
8
Polygon
10
2.5270711593131727
20
0.7052312966271636
11
2.5276862675178213
21
0.7065979053512079
0
LINE
8
Polygon
10
2.5276862675178213
20
0.7065979053512079
11
2.5282323601819714
21
0.7079935271876027
0
LINE
8
Polygon
10
2.5282323601819714
20
0.7079935271876027
11
2.528708074514688
21
0.7094146793193985
0
LINE
8
Polygon
10
2.528708074514688
20
0.7094146793193985
11
2.529112223356315
21
0.7108578152180137
0
LINE
8
Polygon
10
2.529112223356315
20
0.7108578152180137
11
2.529443798141064
21
0.7123193334937046
0
LINE
8
Polygon
10
2.529443798141064
20
0.7123193334937046
11
2.5297019714139264
21
0.7137955868829436
0
LINE
8
Polygon
10
2.5297019714139264
20
0.7137955868829436
11
2.5298860988956084
21
0.7152828913502769
0
LINE
8
Polygon
10
2.5298860988956084
20
0.7152828913502769
11
2.529995721090352
21
0.7167775352819475
0
LINE
8
Polygon
10
2.529995721090352
20
0.7167775352819475
11
2.530030564432619
21
0.7182757887483409
0
LINE
8
Polygon
10
2.530030564432619
20
0.7182757887483409
11
2.5299905419697843
21
0.7197739128121382
0
LINE
8
Polygon
10
2.5299905419697843
20
0.7197739128121382
11
2.529875753579127
21
0.721268168858949
0
LINE
8
Polygon
10
2.529875753579127
20
0.721268168858949
11
2.5296864857185852
21
0.7227548279271371
0
LINE
8
Polygon
10
2.5296864857185852
20
0.7227548279271371
11
2.5294232107118884
21
0.7242301800135589
0
LINE
8
Polygon
10
2.5294232107118884
20
0.7242301800135589
11
2.5290865855698637
21
0.7256905433319891
0
LINE
8
Polygon
10
2.5290865855698637
20
0.7256905433319891
11
2.5286774503508416
21
0.7271322735011316
0
LINE
8
Polygon
10
2.5286774503508416
20
0.7271322735011316
11
2.5281968260642658
21
0.7285517726392835
0
LINE
8
Polygon
10
2.5281968260642658
20
0.7285517726392835
11
2.527645912122734
21
0.729945498342959
0
LINE
8
Polygon
10
2.527645912122734
20
0.729945498342959
11
2.527026083348825
21
0.7313099725270662
0
LINE
8
Polygon
10
2.527026083348825
20
0.7313099725270662
11
2.5263388865441896
21
0.7326417901045741
0
LINE
8
Polygon
10
2.5263388865441896
20
0.7326417901045741
11
2.5255860366294574
21
0.7339376274840117
0
LINE
8
Polygon
10
2.5255860366294574
20
0.7339376274840117
11
2.524769412364601
21
0.735194250863592
0
LINE
8
Polygon
10
2.524769412364601
20
0.735194250863592
11
2.523891051660433
21
0.7364085243012632
0
LINE
8
Polygon
10
2.523891051660433
20
0.7364085243012632
11
2.5229531464929376
21
0.7375774175405478
0
LINE
8
Polygon
10
2.5229531464929376
20
0.737577417540548
11
2.521958037433127
21
0.7386980135726408
0
LINE
8
Polygon
10
2.521958037433127
20
0.7386980135726408
11
2.520908207806074
21
0.7397675159158933
0
LINE
8
Polygon
10
2.520908207806074
20
0.7397675159158933
11
2.519806277493702
21
0.7407832555945191
0
LINE
8
Polygon
10
2.519806277493702
20
0.7407832555945191
11
2.518654996396784
21
0.7417426977991044
0
LINE
8
Polygon
10
2.518654996396784
20
0.7417426977991044
11
2.5174572375724864
21
0.742643448212303
0
LINE
8
Polygon
10
2.5174572375724864
20
0.742643448212303
11
2.516215990064564
21
0.7434832589839278
0
LINE
8
Polygon
10
2.516215990064564
20
0.7434832589839278
11
2.514934351444111
21
0.7442600343405296
0
LINE
8
Polygon
10
2.514934351444111
20
0.7442600343405296
11
2.513615520079478
21
0.7449718358154642
0
LINE
8
Polygon
10
2.513615520079478
20
0.7449718358154642
11
2.5122627871546435
21
0.7456168870863953
0
LINE
8
Polygon
10
2.5122627871546435
20
0.7456168870863953
11
2.5108795284559684
21
0.7461935784081605
0
LINE
8
Polygon
10
2.5108795284559684
20
0.7461935784081605
11
2.509469195947813
21
0.7467004706299399
0
LINE
8
Polygon
10
2.509469195947813
20
0.7467004706299399
11
2.508035309158058
21
0.7471362987867014
0
LINE
8
Polygon
10
2.508035309158058
20
0.7471362987867014
11
2.506581446395013
21
0.7474999752559587
0
LINE
8
Polygon
10
2.506581446395013
20
0.7474999752559587
11
2.50511123581764
21
0.7477905924719673
0
LINE
8
Polygon
10
2.50511123581764
20
0.7477905924719673
11
2.503628346381371
21
0.748007425190582
0
LINE
8
Polygon
10
2.503628346381371
20
0.748007425190582
11
2.502136478682118
21
0.7481499322991263
0
LINE
8
Polygon
10
2.502136478682118
20
0.7481499322991263
11
2.4851104284637326
21
0.7491536336103878
0
LINE
8
Polygon
10
2.4851104284637326
20
0.7491536336103878
11
2.4680659572023247
21
0.749769914212256
0
LINE
8
Polygon
10
2.4680659572023247
20
0.749769914212256
11
2.4510118793531017
21
0.7499984553985845
0
LINE
8
Polygon
10
2.4510118793531017
20
0.7499984553985845
11
2.433957014339266
21
0.7498391389805468
0
LINE
8
Polygon
10
2.433957014339266
20
0.7498391389805468
11
2.4169101819910983
21
0.7492920473477582
0
LINE
8
Polygon
10
2.4169101819910983
20
0.7492920473477582
11
2.3998801979848294
21
0.7483574634256684
0
LINE
8
Polygon
10
2.3998801979848294
20
0.7483574634256684
11
2.3828758692836622
21
0.7470358705292475
0
LINE
8
Polygon
10
2.3828758692836622
20
0.7470358705292475
11
2.365905989583299
21
0.7453279521130425
0
LINE
8
Polygon
10
2.365905989583299
20
0.7453279521130425
11
2.3489793347643295
21
0.7432345914177332
0
LINE
8
Polygon
10
2.3489793347643295
20
0.7432345914177332
11
2.332104658353832
21
0.7407568710133678
0
LINE
8
Polygon
10
2.332104658353832
20
0.7407568710133678
11
2.315290686998535
21
0.7378960722395196
0
LINE
8
Polygon
10
2.315290686998535
20
0.7378960722395196
11
2.2985461159518787
21
0.7346536745426471
0
LINE
8
Polygon
10
2.2985461159518787
20
0.7346536745426471
11
2.281879604577313
21
0.7310313547110076
0
LINE
8
Polygon
10
2.281879604577313
20
0.7310313547110076
11
2.265299771870156
21
0.7270309860075155
0
LINE
8
Polygon
10
2.265299771870156
20
0.7270309860075155
11
2.248815192000324
21
0.7226546372009937
0
LINE
8
Polygon
10
2.248815192000324
20
0.7226546372009937
11
2.232434389878251
21
0.717904571496322
0
LINE
8
Polygon
10
2.232434389878251
20
0.717904571496322
11
2.216165836746275
21
0.7127832453640325
0
LINE
8
Polygon
10
2.216165836746275
20
0.7127832453640325
11
2.200017945797781
21
0.7072933072699592
0
LINE
8
Polygon
10
2.200017945797781
20
0.7072933072699592
11
2.1839990678263663
21
0.7014375963055991
0
LINE
8
Polygon
10
2.1839990678263663
20
0.7014375963055991
11
2.1681174869072706
21
0.6952191407198907
0
LINE
8
Polygon
10
2.1681174869072706
20
0.6952191407198907
11
2.152381416113314
21
0.6886411563531718
0
LINE
8
Polygon
10
2.152381416113314
20
0.6886411563531718
11
2.1367989932675497
21
0.6817070449741258
0
LINE
8
Polygon
10
2.1367989932675497
20
0.6817070449741258
11
2.121378276734834
21
0.6744203925205752
0
LINE
8
Polygon
10
2.121378276734834
20
0.6744203925205752
11
2.106127241254487
21
0.6667849672450329
0
LINE
8
Polygon
10
2.106127241254487
20
0.6667849672450329
11
2.091053773816198
21
0.6588047177659722
0
LINE
8
Polygon
10
2.091053773816198
20
0.6588047177659722
11
2.076165669581315
21
0.6504837710258189
0
LINE
8
Polygon
10
2.076165669581315
20
0.6504837710258189
11
2.0614706278516173
21
0.6418264301567272
0
LINE
8
Polygon
10
2.0614706278516173
20
0.6418264301567272
11
2.0469762480876637
21
0.632837172255237
0
LINE
8
Polygon
10
2.0469762480876637
20
0.632837172255237
11
2.032690025978775
21
0.6235206460669682
0
LINE
8
Polygon
10
2.032690025978775
20
0.6235206460669682
11
2.0186193495666758
21
0.6138816695825481
0
LINE
8
Polygon
10
2.0186193495666758
20
0.6138816695825481
11
2.004771495424812
21
0.603925227546013
0
LINE
8
Polygon
10
2.004771495424812
20
0.603925227546013
11
1.9911536248953108
21
0.5936564688769752
0
LINE
8
Polygon
10
1.9911536248953108
20
0.5936564688769752
11
1.9777727803855278
21
0.5830807040078878
0
LINE
8
Polygon
10
1.9777727803855278
20
0.5830807040078878
11
1.9646358817261098
21
0.5722034021377829
0
LINE
8
Polygon
10
1.9646358817261098
20
0.5722034021377829
11
1.9517497225924383
21
0.5610301884039058
0
LINE
8
Polygon
10
1.9517497225924383
20
0.5610301884039058
11
1.939120966991319
21
0.5495668409727057
0
LINE
8
Polygon
10
1.939120966991319
20
0.5495668409727057
11
1.9267561458147267
21
0.5378192880516883
0
LINE
8
Polygon
10
1.9267561458147267
20
0.5378192880516883
11
1.9146616534623906
21
0.5257936048236761
0
LINE
8
Polygon
10
1.9146616534623906
20
0.5257936048236761
11
1.902843744534965
21
0.5134960103050606
0
LINE
8
Polygon
10
1.902843744534965
20
0.5134960103050606
11
1.8913085305994968
21
0.500932864129672
0
LINE
8
Polygon
10
1.8913085305994968
20
0.500932864129672
11
1.8800619770288618
21
0.4881106632599288
0
LINE
8
Polygon
10
1.8800619770288618
20
0.4881106632599288
11
1.869109899916805
21
0.4750360386269702
0
LINE
8
Polygon
10
1.869109899916805
20
0.4750360386269702
11
1.8584579630701796
21
0.46171575170150525
0
LINE
8
Polygon
10
1.8584579630701796
20
0.46171575170150525
11
1.8481116750799402
21
0.44815669099715577
0
LINE
8
Polygon
10
1.8481116750799402
20
0.44815669099715577
11
1.8380763864724043
21
0.43436586850809916
0
LINE
8
Polygon
10
1.8380763864724043
20
0.43436586850809916
11
1.8283572869422584
21
0.4203504160828537
0
LINE
8
Polygon
10
1.8283572869422584
20
0.4203504160828537
11
1.8189594026687337
21
0.40611758173608203
0
LINE
8
Polygon
10
1.8189594026687337
20
0.40611758173608203
11
1.8098875937163466
21
0.3916747259003202
0
LINE
8
Polygon
10
1.8098875937163466
20
0.3916747259003202
11
1.808955644217047
21
0.3901487774863252
0
LINE
8
Polygon
10
1.808955644217047
20
0.3901487774863252
11
1.808027335284032
21
0.3886206116064864
0
LINE
8
Polygon
10
1.8080273352840317
20
0.3886206116064861
11
1.8071026721934766
21
0.3870902369463509
0
LINE
8
Polygon
10
1.8071026721934766
20
0.3870902369463509
11
1.806181660200835
21
0.38555766220402043
0
LINE
8
Polygon
10
1.806181660200835
20
0.3855576622040201
11
1.805264304540809
21
0.3840228960901
0
LINE
8
Polygon
10
1.805264304540809
20
0.3840228960901
11
1.8043506104273197
21
0.38248594732765084
0
LINE
8
Polygon
10
1.8043506104273195
20
0.38248594732765057
11
1.8034405830534768
21
0.38094682465213836
0
LINE
8
Polygon
10
1.8034405830534768
20
0.38094682465213836
11
1.80253422759155
21
0.3794055368113849
0
LINE
8
Polygon
10
1.8025342275915497
20
0.37940553681138467
11
1.8016315491929384
21
0.3778620925655177
0
LINE
8
Polygon
10
1.8016315491929384
20
0.3778620925655177
11
1.8007325529881435
21
0.37631650068692135
0
LINE
8
Polygon
10
1.8007325529881433
20
0.376316500686921
11
1.7998372440867367
21
0.3747687699601856
0
LINE
8
Polygon
10
1.7998372440867367
20
0.3747687699601856
11
1.7989456275773335
21
0.3732189091820578
0
LINE
8
Polygon
10
1.7989456275773335
20
0.3732189091820575
11
1.7980577085275624
21
0.3716669271613908
0
LINE
8
Polygon
10
1.7980577085275624
20
0.3716669271613908
11
1.7971734919840372
21
0.3701128327190948
0
LINE
8
Polygon
10
1.797173491984037
20
0.37011283271909445
11
1.7962929829723278
21
0.368556634688085
0
LINE
8
Polygon
10
1.7962929829723278
20
0.368556634688085
11
1.795416186496932
21
0.3669983419132341
0
LINE
8
Polygon
10
1.7954161864969318
20
0.3669983419132338
11
1.7945431075412466
21
0.36543796325131916
0
LINE
8
Polygon
10
1.7945431075412466
20
0.36543796325131916
11
1.7936737510675398
21
0.36387550757097403
0
LINE
8
Polygon
10
1.7936737510675396
20
0.36387550757097376
11
1.7928081220169219
21
0.36231098375263615
0
LINE
8
Polygon
10
1.7928081220169219
20
0.36231098375263615
11
1.7919462253093184
21
0.36074440068849895
0
LINE
8
Polygon
10
1.7919462253093181
20
0.3607444006884986
11
1.7910880658434414
21
0.3591757672824586
0
LINE
8
Polygon
10
1.7910880658434414
20
0.3591757672824586
11
1.7902336484967618
21
0.3576050924500658
0
LINE
8
Polygon
10
1.7902336484967618
20
0.35760509245006544
11
1.7893829781254815
21
0.3560323851184729
0
LINE
8
Polygon
10
1.7893829781254815
20
0.3560323851184729
11
1.7885360595645061
21
0.3544576542263854
0
LINE
8
Polygon
10
1.7885360595645061
20
0.35445765422638514
11
1.7876928976274173
21
0.3528809087240089
0
LINE
8
Polygon
10
1.7876928976274173
20
0.3528809087240089
11
1.7868534971064454
21
0.35130215757300026
0
LINE
8
Polygon
10
1.7868534971064454
20
0.35130215757300026
11
1.7860178627724421
21
0.349721409746415
0
LINE
8
Polygon
10
1.7860178627724421
20
0.34972140974641475
11
1.7851859993748533
21
0.34813867422865713
0
LINE
8
Polygon
10
1.7851859993748533
20
0.34813867422865713
11
1.784357911641693
21
0.34655396001542865
0
LINE
8
Polygon
10
1.7843579116416928
20
0.3465539600154284
11
1.7835336042795147
21
0.3449672761136768
0
LINE
8
Polygon
10
1.7835336042795147
20
0.3449672761136768
11
1.782713081973386
21
0.3433786315415447
0
LINE
8
Polygon
10
1.782713081973386
20
0.3433786315415444
11
1.781896349386862
21
0.3417880353283185
0
LINE
8
Polygon
10
1.781896349386862
20
0.3417880353283185
11
1.781083411161958
21
0.34019549651437736
0
LINE
8
Polygon
10
1.7810834111619578
20
0.3401954965143771
11
1.7802742719191231
21
0.3386010241511409
0
LINE
8
Polygon
10
1.7802742719191231
20
0.3386010241511409
11
1.7794689362572154
21
0.3370046273010191
0
LINE
8
Polygon
10
1.7794689362572154
20
0.3370046273010188
11
1.7786674087534737
21
0.3354063150373592
0
LINE
8
Polygon
10
1.7786674087534737
20
0.3354063150373592
11
1.7778696939634937
21
0.33380609644439563
0
LINE
8
Polygon
10
1.7778696939634937
20
0.33380609644439535
11
1.7770757964212
21
0.33220398061719714
0
LINE
8
Polygon
10
1.7770757964212
20
0.33220398061719714
11
1.7762857206388218
21
0.33059997666161645
0
LINE
8
Polygon
10
1.7762857206388216
20
0.3305999766616161
11
1.7754994711068666
21
0.32899409369423666
0
LINE
8
Polygon
10
1.7754994711068666
20
0.32899409369423666
11
1.7747170522940954
21
0.32738634084232177
0
LINE
8
Polygon
10
1.7747170522940952
20
0.32738634084232143
11
1.773938468647496
21
0.3257767272437621
0
LINE
8
Polygon
10
1.773938468647496
20
0.3257767272437621
11
1.773163724592259
21
0.32416526204702534
0
LINE
8
Polygon
10
1.7731637245922587
20
0.32416526204702506
11
1.7723928245317517
21
0.3225519544111015
0
LINE
8
Polygon
10
1.7723928245317517
20
0.3225519544111015
11
1.7716257728474942
21
0.3209368135054538
0
LINE
8
Polygon
10
1.7716257728474938
20
0.32093681350545344
11
1.770862573899133
21
0.31931984850996353
0
LINE
8
Polygon
10
1.770862573899133
20
0.31931984850996353
11
1.7701032320244179
21
0.31770106861488107
0
LINE
8
Polygon
10
1.7701032320244177
20
0.31770106861488073
11
1.7693477515391758
21
0.31608048302077063
0
LINE
8
Polygon
10
1.7693477515391758
20
0.31608048302077063
11
1.7687348403656824
21
0.3148375702391163
0
LINE
8
Polygon
10
1.7687348403656824
20
0.3148375702391163
11
1.7680651834068422
21
0.31362428880149784
0
LINE
8
Polygon
10
1.7680651834068422
20
0.31362428880149784
11
1.7673402096304616
21
0.31244322770529953
0
LINE
8
Polygon
10
1.7673402096304616
20
0.31244322770529953
11
1.7665614660438158
21
0.3112969071935531
0
LINE
8
Polygon
10
1.7665614660438158
20
0.3112969071935531
11
1.7657306143925198
21
0.3101877733770406
0
LINE
8
Polygon
10
1.7657306143925198
20
0.3101877733770406
11
1.7648494276145625
21
0.3091181930145873
0
LINE
8
Polygon
10
1.7648494276145625
20
0.3091181930145873
11
1.7639197860570688
21
0.3080904484626808
0
LINE
8
Polygon
10
1.7639197860570688
20
0.3080904484626808
11
1.7629436734638646
21
0.307106732805196
0
LINE
8
Polygon
10
1.7629436734638646
20
0.307106732805196
11
1.7619231727424038
21
0.3061691451736165
0
LINE
8
Polygon
10
1.7619231727424038
20
0.3061691451736165
11
1.7608604615190946
21
0.3052796862677389
0
LINE
8
Polygon
10
1.7608604615190946
20
0.3052796862677389
11
1.7597578074925033
21
0.3044402540864194
0
LINE
8
Polygon
10
1.7597578074925033
20
0.3044402540864194
11
1.758617563594359
21
0.3036526398774709
0
LINE
8
Polygon
10
1.758617563594359
20
0.3036526398774709
11
1.7574421629686778
21
0.30291852431535493
0
LINE
8
Polygon
10
1.7574421629686778
20
0.30291852431535493
11
1.7562341137797248
21
0.3022394739148232
0
LINE
8
Polygon
10
1.7562341137797248
20
0.3022394739148232
11
1.7549959938598916
21
0.3016169376881627
0
LINE
8
Polygon
10
1.7549959938598916
20
0.3016169376881627
11
1.7537304452089106
21
0.301052244053177
0
LINE
8
Polygon
10
1.7537304452089106
20
0.301052244053177
11
1.7524401683561446
21
0.30054659799850153
0
LINE
8
Polygon
10
1.7524401683561446
20
0.30054659799850153
11
1.751127916597979
21
0.30010107851230194
0
LINE
8
Polygon
10
1.751127916597979
20
0.30010107851230194
11
1.749796490122617
21
0.2997166362798428
0
LINE
8
Polygon
10
1.749796490122617
20
0.2997166362798428
11
1.7484487300348144
21
0.2993940916548386
0
LINE
8
Polygon
10
1.7484487300348144
20
0.2993940916548386
11
1.7470875122933007
21
0.2991341329089176
0
LINE
8
Polygon
10
1.7470875122933007
20
0.2991341329089176
11
1.7457157415738278
21
0.298937314762932
0
LINE
8
Polygon
10
1.7457157415738278
20
0.298937314762932
11
1.7443363450709395
21
0.29880405720325054
0
LINE
8
Polygon
10
1.7443363450709395
20
0.29880405720325054
11
1.742952266251689
21
0.29873464458555754
0
LINE
8
Polygon
10
1.742952266251689
20
0.29873464458555754
11
1.7415664585746322
21
0.29872922502807187
0
LINE
8
Polygon
10
1.7415664585746322
20
0.29872922502807187
11
1.7401818791875008
21
0.2987878100954806
0
LINE
8
Polygon
10
1.7401818791875008
20
0.2987878100954806
11
1.7388014826170024
21
0.29891027477426135
0
LINE
8
Polygon
10
1.7388014826170024
20
0.29891027477426135
11
1.7374282144642148
21
0.2990963577394459
0
LINE
8
Polygon
10
1.7374282144642148
20
0.2990963577394459
11
1.7360650051190254
21
0.29934566191225664
0
LINE
8
Polygon
10
1.7360650051190254
20
0.29934566191225664
11
1.73471476350703
21
0.2996576553074253
0
LINE
8
Polygon
10
1.73471476350703
20
0.2996576553074253
11
1.7333803708822337
21
0.3000316721683853
0
LINE
8
Polygon
10
1.7333803708822337
20
0.3000316721683853
11
1.7320646746788002
21
0.3004669143879171
0
LINE
8
Polygon
10
1.7320646746788002
20
0.3004669143879171
11
1.7307704824349668
21
0.3009624532112135
0
LINE
8
Polygon
10
1.7307704824349668
20
0.3009624532112135
11
1.7295005558020948
21
0.3015172312177308
0
LINE
8
Polygon
10
1.7295005558020948
20
0.3015172312177308
11
1.7282576046516362
21
0.30213006457759806
0
LINE
8
Polygon
10
1.7282576046516362
20
0.30213006457759806
11
1.7270442812925915
21
0.3027996455777683
0
LINE
8
Polygon
10
1.7270442812925915
20
0.3027996455777683
11
1.7258631748118
21
0.3035245454125215
0
LINE
8
Polygon
10
1.7258631748118
20
0.3035245454125215
11
1.724716805549139
21
0.3043032172323653
0
LINE
8
Polygon
10
1.724716805549139
20
0.3043032172323653
11
1.7236076197194194
21
0.30513399944482633
0
LINE
8
Polygon
10
1.7236076197194194
20
0.30513399944482633
11
1.722537984192456
21
0.30601511926008995
0
LINE
8
Polygon
10
1.722537984192456
20
0.30601511926008995
11
1.7215101814424507
21
0.3069446964739214
0
LINE
8
Polygon
10
1.7215101814424507
20
0.3069446964739214
11
1.7205264046774669
21
0.3079207474797968
0
LINE
8
Polygon
10
1.7205264046774669
20
0.3079207474797968
11
1.7195887531593836
21
0.30894118950168187
0
LINE
8
Polygon
10
1.7195887531593836
20
0.3089411895016818
11
1.7186992277243238
21
0.3100038450384267
0
LINE
8
Polygon
10
1.7186992277243238
20
0.3100038450384267
11
1.7178597265131093
21
0.31110644651029307
0
LINE
8
Polygon
10
1.7178597265131093
20
0.31110644651029307
11
1.717072040920854
21
0.31224664109769745
0
LINE
8
Polygon
10
1.717072040920854
20
0.31224664109769745
11
1.7163378517743433
21
0.31342199576184715
0
LINE
8
Polygon
10
1.7163378517743433
20
0.31342199576184715
11
1.715658725745349
21
0.3146300024365535
0
LINE
8
Polygon
10
1.7156587257453488
20
0.31463000243655315
11
1.7080390937129346
21
0.32738219840875415
0
LINE
8
Polygon
10
1.7080390937129346
20
0.32738219840875415
11
1.6991954667431752
21
0.33931817580662804
0
LINE
8
Polygon
10
1.6991954667431752
20
0.339318175806628
11
1.6892145820659628
21
0.3503208679991323
0
LINE
8
Polygon
10
1.6892145820659628
20
0.3503208679991323
11
1.678194330998031
21
0.3602823619042934
0
LINE
8
Polygon
10
1.678194330998031
20
0.3602823619042934
11
1.6662427988366926
21
0.3691049563877379
0
LINE
8
Polygon
10
1.6662427988366926
20
0.3691049563877379
11
1.6534772047722395
21
0.37670212050367036
0
LINE
8
Polygon
10
1.6534772047722395
20
0.37670212050367036
11
1.6400227522162203
21
0.38299934217998455
0
LINE
8
Polygon
10
1.6400227522162205
20
0.38299934217998455
11
1.6260114008214352
21
0.38793485902370684
0
LINE
8
Polygon
10
1.6260114008214352
20
0.38793485902370684
11
1.6115805722375292
21
0.3914602640791193
0
LINE
8
Polygon
10
1.6115805722375292
20
0.3914602640791193
11
1.5968718022959763
21
0.393540980597361
0
LINE
8
Polygon
10
1.5968718022959763
20
0.393540980597361
11
1.5820293528436653
21
0.3941566011610227
0
LINE
8
Polygon
10
1.5820293528436653
20
0.3941566011610227
11
1.5671987968400514
21
0.393301087837643
0
LINE
8
Polygon
10
1.5671987968400514
20
0.393301087837643
11
1.552525590595075
21
0.39098283139902407
0
LINE
8
Polygon
10
1.552525590595075
20
0.39098283139902407
11
1.538153647151165
21
0.38722456902555047
0
LINE
8
Polygon
10
1.5381536471511652
20
0.38722456902555047
11
1.524223924801424
21
0.38206316130265805
0
LINE
8
Polygon
10
1.524223924801424
20
0.38206316130265805
11
1.5108730445876382
21
0.3755492306966448
0
LINE
8
Polygon
10
1.5108730445876382
20
0.3755492306966448
11
1.4982319503375299
21
0.36774666505560805
0
LINE
8
Polygon
10
1.4982319503375299
20
0.36774666505560805
11
1.4864246243834391
21
0.3587319910051132
0
LINE
8
Polygon
10
1.4864246243834391
20
0.3587319910051132
11
1.4755668715585177
21
0.3485936233842521
0
LINE
8
Polygon
10
1.4755668715585177
20
0.3485936233842521
11
1.465765183396851
21
0.33743099808353294
0
LINE
8
Polygon
10
1.465765183396851
20
0.33743099808353294
11
1.4571156936772964
21
0.3253535967896233
0
LINE
8
Polygon
10
1.4571156936772964
20
0.3253535967896233
11
1.4497032355549406
21
0.31247987320213194
0
LINE
8
Polygon
10
1.4497032355549406
20
0.31247987320213194
11
1.4436005095277151
21
0.2989360912539671
0
LINE
8
Polygon
10
1.4436005095277151
20
0.2989360912539671
11
1.4388673703986552
21
0.2848550867298653
0
LINE
8
Polygon
10
1.4388673703986552
20
0.2848550867298653
11
1.435550240227189
21
0.2703749644289882
0
LINE
8
Polygon
10
1.435550240227189
20
0.2703749644289882
11
1.4336816530271599
21
0.25563774364965874
0
LINE
8
Polygon
10
1.4336816530271599
20
0.25563774364965874
11
1.4332799356771326
21
0.24078796528116117
0
LINE
8
Polygon
10
1.4332799356771326
20
0.24078796528116123
11
1.4343490281725706
21
0.22597127416407944
0
LINE
8
Polygon
10
1.4343490281725706
20
0.22597127416407944
11
1.4368784449828342
21
0.2113329906232142
0
LINE
8
Polygon
10
1.4368784449828342
20
0.2113329906232142
11
1.4408433778920058
21
0.19701668518331175
0
LINE
8
Polygon
10
1.4408433778920058
20
0.19701668518331175
11
1.4462049393148868
21
0.1831627704466214
0
LINE
8
Polygon
10
1.4462049393148868
20
0.1831627704466214
11
1.452910543701758
21
0.1699071239429768
0
LINE
8
Polygon
10
1.452910543701758
20
0.1699071239429768
11
1.4608944232911276
21
0.15737975545932237
0
LINE
8
Polygon
10
1.4608944232911276
20
0.15737975545932237
11
1.4700782731520277
21
0.1457035319193563
0
LINE
8
Polygon
10
1.4700782731520277
20
0.1457035319193563
11
1.4803720191893608
21
0.13499297231951757
0
LINE
8
Polygon
10
1.4803720191893608
20
0.13499297231951757
11
1.4916747015797942
21
0.1253531245404394
0
LINE
8
Polygon
10
1.4916747015797942
20
0.1253531245404394
11
1.5038754649735657
21
0.11687853504996765
0
LINE
8
Polygon
10
1.503875464973566
20
0.11687853504996756
11
1.5168546457504255
21
0.10965232160277352
0
LINE
8
Polygon
10
1.5168546457504255
20
0.10965232160277358
11
1.5304849456660325
21
0.10374535803141044
0
LINE
8
Polygon
10
1.5304849456660325
20
0.10374535803141044
11
1.5446326803778296
21
0.09921557912428633
0
LINE
8
Polygon
10
1.5446326803778296
20
0.09921557912428633
11
1.5591590906049981
21
0.09610741240822607
0
LINE
8
Polygon
10
1.5591590906049981
20
0.09610741240822607
11
1.5739217030628
21
0.09445134240863029
0
LINE
8
Polygon
10
1.5739217030628
20
0.09445134240863029
11
1.5887757278234222
21
0.09426361166091618
0
LINE
8
Polygon
10
1.5887757278234222
20
0.09426361166091618
11
1.603575478398177
21
0.09554606140568303
0
LINE
8
Polygon
10
1.603575478398177
20
0.09554606140568303
11
1.6181758006130662
21
0.09828611353004607
0
LINE
8
Polygon
10
1.6181758006130662
20
0.09828611353004607
11
1.6324334962634637
21
0.10245689393225502
0
LINE
8
Polygon
10
1.6324334962634637
20
0.10245689393225502
11
1.6462087275848878
21
0.10801749609965242
0
LINE
8
Polygon
10
1.6462087275848878
20
0.10801749609965242
11
1.6593663887649805
21
0.11491338231483106
0
LINE
8
Polygon
10
1.6593663887649805
20
0.11491338231483071
11
1.660576410299425
21
0.11558891186679221
0
LINE
8
Polygon
10
1.660576410299425
20
0.11558891186679221
11
1.6618163378618866
21
0.11620783991530859
0
LINE
8
Polygon
10
1.6618163378618866
20
0.11620783991530859
11
1.66308352559534
21
0.11676884574199665
0
LINE
8
Polygon
10
1.66308352559534
20
0.11676884574199665
11
1.6643752694728169
21
0.1172707322275626
0
LINE
8
Polygon
10
1.6643752694728169
20
0.1172707322275626
11
1.6656888130674767
21
0.11771242840631117
0
LINE
8
Polygon
10
1.6656888130674767
20
0.11771242840631117
11
1.667021353434491
21
0.11809299175145849
0
LINE
8
Polygon
10
1.667021353434491
20
0.11809299175145849
11
1.6683700470921934
21
0.1184116101863712
0
LINE
8
Polygon
10
1.6683700470921934
20
0.1184116101863712
11
1.6697320160897275
21
0.11866760381744099
0
LINE
8
Polygon
10
1.6697320160897275
20
0.11866760381744099
11
1.6711043541482513
21
0.11886042638489606
0
LINE
8
Polygon
10
1.6711043541482513
20
0.11886042638489606
11
1.672484132862587
21
0.11898966642845418
0
LINE
8
Polygon
10
1.672484132862587
20
0.11898966642845418
11
1.673868407950088
21
0.11905504816532964
0
LINE
8
Polygon
10
1.673868407950088
20
0.11905504816532964
11
1.6752542255333853
21
0.11905643207872071
0
LINE
8
Polygon
10
1.6752542255333853
20
0.11905643207872071
11
1.676638628443609
21
0.11899381521552188
0
LINE
8
Polygon
10
1.676638628443609
20
0.11899381521552188
11
1.6780186625306317
21
0.1188673311926253
0
LINE
8
Polygon
10
1.6780186625306317
20
0.1188673311926253
11
1.679391382966872
21
0.11867724991179843
0
LINE
8
Polygon
10
1.679391382966872
20
0.11867724991179843
11
1.6807538605312042
21
0.11842397698374592
0
LINE
8
Polygon
10
1.6807538605312042
20
0.11842397698374592
11
1.6821031878595651
21
0.11810805286258491
0
LINE
8
Polygon
10
1.6821031878595651
20
0.11810805286258491
11
1.6834364856489212
21
0.11773015169258066
0
LINE
8
Polygon
10
1.6834364856489212
20
0.11773015169258066
11
1.6847509088013572
21
0.11729107986960333
0
LINE
8
Polygon
10
1.6847509088013572
20
0.11729107986960333
11
1.686043652495174
21
0.11679177432037571
0
LINE
8
Polygon
10
1.686043652495174
20
0.11679177432037571
11
1.6873119581700426
21
0.11623330050318374
0
LINE
8
Polygon
10
1.6873119581700426
20
0.11623330050318374
11
1.6885531194134416
21
0.11561685013431604
0
LINE
8
Polygon
10
1.6885531194134416
20
0.11561685013431604
11
1.6897644877358178
21
0.11494373864508392
0
LINE
8
Polygon
10
1.6897644877358178
20
0.11494373864508392
11
1.690943478222146
21
0.11421540237484848
0
LINE
8
Polygon
10
1.690943478222146
20
0.11421540237484848
11
1.692087575047828
21
0.11343339550604425
0
LINE
8
Polygon
10
1.692087575047828
20
0.11343339550604425
11
1.6931943368471616
21
0.11259938674773987
0
LINE
8
Polygon
10
1.6931943368471616
20
0.11259938674773987
11
1.6942614019229225
21
0.11171515577481267
0
LINE
8
Polygon
10
1.6942614019229225
20
0.11171515577481268
11
1.695286493285944
21
0.11078258943033553
0
LINE
8
Polygon
10
1.695286493285944
20
0.11078258943033553
11
1.6962674235139386
21
0.10980367769927943
0
LINE
8
Polygon
10
1.6962674235139386
20
0.10980367769927941
11
1.6972020994191959
21
0.1087805094621238
0
LINE
8
Polygon
10
1.6972020994191959
20
0.1087805094621238
11
1.6980885265151946
21
0.10771526803743556
0
LINE
8
Polygon
10
1.6980885265151946
20
0.10771526803743556
11
1.6989248132725983
21
0.10661022652292852
0
LINE
8
Polygon
10
1.6989248132725983
20
0.10661022652292854
11
1.699709175155552
21
0.10546774294494501
0
LINE
8
Polygon
10
1.699709175155552
20
0.10546774294494503
11
1.7004399384296687
21
0.10429025522670979
0
LINE
8
Polygon
10
1.7004399384296687
20
0.10429025522670979
11
1.701115543733578
21
0.10308027598609362
0
LINE
8
Polygon
10
1.701115543733578
20
0.10308027598609362
11
1.701734549406417
21
0.10184038717398756
0
LINE
8
Polygon
10
1.701734549406417
20
0.10184038717398756
11
1.7022956345641616
21
0.10057323456472868
0
LINE
8
Polygon
10
1.7022956345641616
20
0.10057323456472868
11
1.7027976019182345
21
0.09928152211033425
0
LINE
8
Polygon
10
1.7027976019182345
20
0.09928152211033425
11
1.7032393803303771
21
0.09796800617059181
0
LINE
8
Polygon
10
1.7032393803303771
20
0.09796800617059181
11
1.703620027098329
21
0.09663548963131721
0
LINE
8
Polygon
10
1.703620027098329
20
0.09663548963131723
11
1.703938729967443
21
0.09528681592333177
0
LINE
8
Polygon
10
1.703938729967443
20
0.09528681592333177
11
1.704194808863938
21
0.09392486295492113
0
LINE
8
Polygon
10
1.704194808863938
20
0.09392486295492111
11
1.704387717346096
21
0.09255253697072344
0
LINE
8
Polygon
10
1.704387717346096
20
0.09255253697072344
11
1.7045170437703032
21
0.09117276635015113
0
LINE
8
Polygon
10
1.7045170437703032
20
0.09117276635015115
11
1.7045825121694478
21
0.08978849535857973
0
LINE
8
Polygon
10
1.7045825121694478
20
0.08978849535857972
11
1.7045839828418012
21
0.08840267786463779
0
LINE
8
Polygon
10
1.7045839828418012
20
0.08840267786463779
11
1.7045214526491248
21
0.08701827103700492
0
LINE
8
Polygon
10
1.7045214526491248
20
0.08701827103700492
11
1.704395055023366
21
0.08563822903416762
0
LINE
8
Polygon
10
1.7043950550233662
20
0.08563822903416761
11
1.7041930077214564
21
0.08386165217987449
0
LINE
8
Polygon
10
1.7041930077214564
20
0.08386165217987449
11
1.7039951964191162
21
0.08208459868600171
0
LINE
8
Polygon
10
1.7039951964191162
20
0.08208459868600138
11
1.703801622240634
21
0.0803070786526842
0
LINE
8
Polygon
10
1.703801622240634
20
0.0803070786526842
11
1.7036122862862157
21
0.07852910218270953
0
LINE
8
Polygon
10
1.7036122862862157
20
0.0785291021827092
11
1.7034271896319795
21
0.07675067938145817
0
LINE
8
Polygon
10
1.7034271896319795
20
0.07675067938145817
11
1.7032463333299483
21
0.07497182035684868
0
LINE
8
Polygon
10
1.7032463333299483
20
0.07497182035684835
11
1.7030697184080443
21
0.07319253521927768
0
LINE
8
Polygon
10
1.7030697184080443
20
0.07319253521927768
11
1.7028973458700838
21
0.07141283408156493
0
LINE
8
Polygon
10
1.7028973458700838
20
0.07141283408156461
11
1.7027292166957704
21
0.06963272705889331
0
LINE
8
Polygon
10
1.7027292166957704
20
0.06963272705889331
11
1.70256533184069
21
0.0678522242687539
0
LINE
8
Polygon
10
1.70256533184069
20
0.06785222426875356
11
1.7024056922363051
21
0.06607133583088587
0
LINE
8
Polygon
10
1.7024056922363051
20
0.06607133583088587
11
1.7022502987899506
21
0.06429007186722156
0
LINE
8
Polygon
10
1.7022502987899504
20
0.06429007186722123
11
1.7020991523848268
21
0.06250844250182641
0
LINE
8
Polygon
10
1.7020991523848268
20
0.06250844250182641
11
1.7019522538799956
21
0.06072645786084395
0
LINE
8
Polygon
10
1.7019522538799956
20
0.060726457860843616
11
1.7018096041103759
21
0.05894412807243563
0
LINE
8
Polygon
10
1.7018096041103759
20
0.05894412807243563
11
1.7016712038867376
21
0.05716146326672597
0
LINE
8
Polygon
10
1.7016712038867374
20
0.05716146326672564
11
1.7015370539956978
21
0.05537847357574225
0
LINE
8
Polygon
10
1.7015370539956978
20
0.05537847357574225
11
1.7014071551997167
21
0.053595169133359606
0
LINE
8
Polygon
10
1.7014071551997167
20
0.05359516913335927
11
1.7012815082370927
21
0.05181156007524079
0
LINE
8
Polygon
10
1.7012815082370927
20
0.05181156007524079
11
1.7011601138219574
21
0.05002765653878121
0
LINE
8
Polygon
10
1.7011601138219574
20
0.05002765653878088
11
1.7010429726442737
21
0.048243468663048655
0
LINE
8
Polygon
10
1.7010429726442737
20
0.048243468663048655
11
1.7009300853698301
21
0.046459006588728306
0
LINE
8
Polygon
10
1.7009300853698301
20
0.04645900658872797
11
1.7008214526402372
21
0.04467428045806249
0
LINE
8
Polygon
10
1.7008214526402372
20
0.04467428045806249
11
1.7007170750729246
21
0.04288930041479565
0
LINE
8
Polygon
10
1.7007170750729246
20
0.04288930041479565
11
1.7006169532611368
21
0.04110407660411439
0
LINE
8
Polygon
10
1.7006169532611368
20
0.041104076604114054
11
1.7005210877739305
21
0.03931861917259077
0
LINE
8
Polygon
10
1.7005210877739305
20
0.03931861917259077
11
1.700429479156171
21
0.03753293826812571
0
LINE
8
Polygon
10
1.700429479156171
20
0.03753293826812538
11
1.7003421279285285
21
0.0357470440398889
0
LINE
8
Polygon
10
1.7003421279285285
20
0.0357470440398889
11
1.700259034587476
21
0.033960946638263864
0
LINE
8
Polygon
10
1.700259034587476
20
0.03396094663826353
11
1.7001801996052865
21
0.032174656214787496
0
LINE
8
Polygon
10
1.7001801996052865
20
0.032174656214787496
11
1.7001056234300298
21
0.030388182922095136
0
LINE
8
Polygon
10
1.7001056234300298
20
0.030388182922094803
11
1.70003530648557
21
0.02860153691386014
0
LINE
8
Polygon
10
1.70003530648557
20
0.02860153691386014
11
1.6999692491715637
21
0.02681472834473886
0
LINE
8
Polygon
10
1.6999692491715637
20
0.026814728344738525
11
1.6999074518634565
21
0.025027767370310226
0
LINE
8
Polygon
10
1.6999074518634565
20
0.025027767370310226
11
1.6998499149124828
21
0.023240664147020754
0
LINE
8
Polygon
10
1.6998499149124828
20
0.02324066414702042
11
1.6997966386456613
21
0.02145342883212409
0
LINE
8
Polygon
10
1.6997966386456613
20
0.02145342883212409
11
1.699747623365796
21
0.019666071583625988
0
LINE
8
Polygon
10
1.699747623365796
20
0.019666071583625655
11
1.6997028693514715
21
0.017878602560223895
0
LINE
8
Polygon
10
1.6997028693514715
20
0.017878602560223895
11
1.699662376857054
21
0.016091031921251872
0
LINE
8
Polygon
10
1.699662376857054
20
0.01609103192125154
11
1.699626146112688
21
0.014303369826620208
0
LINE
8
Polygon
10
1.699626146112688
20
0.014303369826620208
11
1.6995941773242964
21
0.012515626436760307
0
LINE
8
Polygon
10
1.6995941773242964
20
0.012515626436759974
11
1.6995664706735782
21
0.010727811912564309
0
LINE
8
Polygon
10
1.6995664706735782
20
0.010727811912564309
11
1.699543026318008
21
0.008939936415329981
0
LINE
8
Polygon
10
1.699543026318008
20
0.008939936415329648
11
1.6995238443908351
21
0.0071520101067003095
0
LINE
8
Polygon
10
1.6995238443908351
20
0.0071520101067003095
11
1.699508925001083
21
0.005364043148608406
0
LINE
8
Polygon
10
1.699508925001083
20
0.005364043148608073
11
1.6994982682335478
21
0.003576045703217085
0
LINE
8
Polygon
10
1.6994982682335478
20
0.003576045703217085
11
1.6994918741487988
21
0.0017880279328637756
0
LINE
8
Polygon
10
1.6994918741487988
20
0.0017880279328634425
11
1.6994897427831779
21
9.184850993605148e-17
0
LINE
8
Polygon
10
3.199489742783178
20
0.0
11
1.6994897427831779
21
9.184850993605148e-17
0
ENDSEC
0
EOF
