0
SECTION
2
ENTITIES
0
LINE
8
Polygon
10
0.0
20
0.6158359213500126
11
-3.4449203092205144e-05
21
0.617273198441578
0
LINE
8
Polygon
10
-3.4449203092205144e-05
20
0.617273198441578
11
-0.00013771769586258184
21
0.618707174663115
0
LINE
8
Polygon
10
-0.00013771769586258184
20
0.618707174663115
11
-0.0003095683104924231
21
0.6201345567254177
0
LINE
8
Polygon
10
-0.0003095683104924231
20
0.6201345567254177
11
-0.000549606372533408
21
0.6215520664835161
0
LINE
8
Polygon
10
-0.000549606372533408
20
0.6215520664835161
11
-0.0008572806073222604
21
0.6229564484653072
0
LINE
8
Polygon
10
-0.0008572806073222604
20
0.6229564484653072
11
-0.0012318844060456163
21
0.624344477348117
0
LINE
8
Polygon
10
-0.0012318844060456163
20
0.624344477348117
11
-0.0016725574485473849
21
0.6257129653660203
0
LINE
8
Polygon
10
-0.0016725574485473883
20
0.6257129653660203
11
-0.002178287679151677
21
0.6270587696309062
0
LINE
8
Polygon
10
-0.002178287679151677
20
0.6270587696309062
11
-0.002747913630963557
21
0.6283787993504788
0
LINE
8
Polygon
10
-0.002747913630963557
20
0.6283787993504788
11
-0.0033801270933096553
21
0.6296700229266115
0
LINE
8
Polygon
10
-0.0033801270933096587
20
0.6296700229266115
11
-0.00407347611619251
21
0.6309294749177567
0
LINE
8
Polygon
10
-0.00407347611619251
20
0.6309294749177567
11
-0.00482636834485858
21
0.6321542628494194
0
LINE
8
Polygon
10
-0.004826368344858577
20
0.6321542628494194
11
-0.005637074676821736
21
0.6333415738570527
0
LINE
8
Polygon
10
-0.005637074676821736
20
0.6333415738570527
11
-0.006503733232943457
21
0.6344886811461209
0
LINE
8
Polygon
10
-0.006503733232943457
20
0.6344886811461209
11
-0.007424353633449645
21
0.6355929502544927
0
LINE
8
Polygon
10
-0.0074243536334496416
20
0.6355929502544927
11
-0.008396821569063774
21
0.6366518451027826
0
LINE
8
Polygon
10
-0.008396821569063774
20
0.6366518451027826
11
-0.009418903656758203
21
0.6376629338187451
0
LINE
8
Polygon
10
-0.009418903656758203
20
0.6376629338187451
11
-0.010488252568971873
21
0.6386238943223453
0
LINE
8
Polygon
10
-0.01048825256897187
20
0.6386238943223453
11
-0.011602412424514565
21
0.6395325196586802
0
LINE
8
Polygon
10
-0.011602412424514565
20
0.6395325196586802
11
-0.012758824428776894
21
0.6403867230664996
0
LINE
8
Polygon
10
-0.012758824428776894
20
0.6403867230664996
11
-0.013954832750292651
21
0.6411845427706919
0
LINE
8
Polygon
10
-0.013954832750292651
20
0.6411845427706919
11
-0.015187690620157318
21
0.6419241464877222
0
LINE
8
Polygon
10
-0.015187690620157318
20
0.6419241464877222
11
-0.016454566640294703
21
0.6426038356336804
0
LINE
8
Polygon
10
-0.016454566640294696
20
0.6426038356336804
11
-0.017752551286084113
21
0.6432220492252709
0
LINE
8
Polygon
10
-0.017752551286084113
20
0.6432220492252709
11
-0.019078663588413997
21
0.6437773674647893
0
LINE
8
Polygon
10
-0.019078663588413997
20
0.6437773674647893
11
-0.020429857979815953
21
0.6442685150008477
0
LINE
8
Polygon
10
-0.020429857979815953
20
0.6442685150008477
11
-0.021803031288956214
21
0.6446943638573651
0
LINE
8
Polygon
10
-0.021803031288956214
20
0.6446943638573651
11
-0.023195029867420953
21
0.6450539360240918
0
LINE
8
Polygon
10
-0.023195029867420953
20
0.6450539360240918
11
-0.024602656832427936
21
0.6453464057027213
0
LINE
8
Polygon
10
-0.02460265683242793
20
0.6453464057027213
11
-0.026022679408830778
21
0.6455711012034298
0
LINE
8
Polygon
10
-0.026022679408830778
20
0.6455711012034298
11
-0.027451836353554162
21
0.6457275064874879
0
LINE
8
Polygon
10
-0.027451836353554162
20
0.6457275064874879
11
-0.028886845445408788
21
0.6458152623524028
0
LINE
8
Polygon
10
-0.028886845445408788
20
0.6458152623524028
11
-0.03032441102308502
21
0.6458341672568669
0
LINE
8
Polygon
10
-0.03032441102308502
20
0.6458341672568669
11
-0.031761231554013274
21
0.6457841777836207
0
LINE
8
Polygon
10
-0.031761231554013274
20
0.6457841777836207
11
-0.03319400721670843
21
0.6456654087391652
0
LINE
8
Polygon
10
-0.03319400721670843
20
0.6456654087391652
11
-0.03461944747918449
21
0.645478132890096
0
LINE
8
Polygon
10
-0.03461944747918448
20
0.645478132890096
11
-0.036034278656034924
21
0.6452227803366638
0
LINE
8
Polygon
10
-0.036034278656034924
20
0.6452227803366638
11
-0.03743525142682293
21
0.644899937525
0
LINE
8
Polygon
10
-0.03743525142682293
20
0.644899937525
11
-0.03881914829851464
21
0.644510345900277
0
LINE
8
Polygon
10
-0.03881914829851464
20
0.644510345900277
11
-0.0401827909948173
21
0.6440549002038951
0
LINE
8
Polygon
10
-0.0401827909948173
20
0.6440549002038951
11
-0.04152304775545157
21
0.6435346464186071
0
LINE
8
Polygon
10
-0.04152304775545157
20
0.6435346464186071
11
-0.04283684052859458
21
0.6429507793663002
0
LINE
8
Polygon
10
-0.04283684052859458
20
0.6429507793663002
11
-0.044121152039975464
21
0.6423046399639519
0
LINE
8
Polygon
10
-0.044121152039975464
20
0.6423046399639519
11
-0.04537303272238829
21
0.6415977121440622
0
LINE
8
Polygon
10
-0.045373032722388296
20
0.6415977121440622
11
-0.046589607489708
21
0.6408316194466337
0
LINE
8
Polygon
10
-0.046589607489708
20
0.6408316194466337
11
-0.04776808233985218
21
0.6400081212905276
0
LINE
8
Polygon
10
-0.04776808233985218
20
0.6400081212905276
11
-0.04890575077152405
21
0.6391291089327592
0
LINE
8
Polygon
10
-0.04890575077152406
20
0.6391291089327592
11
-0.05
21
0.6381966011250105
0
LINE
8
Polygon
10
-0.05
20
0.6381966011250105
11
-0.06115958830073906
21
0.6291390002974251
0
LINE
8
Polygon
10
-0.06115958830073906
20
0.6291390002974251
11
-0.07313483638805846
21
0.6211910460297521
0
LINE
8
Polygon
10
-0.07313483638805858
20
0.621191046029752
11
-0.0858157973570271
21
0.6144257099185624
0
LINE
8
Polygon
10
-0.0858157973570271
20
0.6144257099185624
11
-0.09908604502591342
21
0.6089051057305875
0
LINE
8
Polygon
10
-0.09908604502591356
20
0.6089051057305874
11
-0.11282374286588538
21
0.6046799191250631
0
LINE
8
Polygon
10
-0.11282374286588538
20
0.6046799191250631
11
-0.12690276260407754
21
0.6017889422995828
0
LINE
8
Polygon
10
-0.12690276260407754
20
0.6017889422995828
11
-0.14119384222993353
21
0.6002587178319596
0
LINE
8
Polygon
10
-0.14119384222993367
20
0.6002587178319596
11
-0.15556577277295605
21
0.6001032949880492
0
LINE
8
Polygon
10
-0.15556577277295605
20
0.6001032949880492
11
-0.169886602955846
21
0.6013241007329145
0
LINE
8
Polygon
10
-0.16988660295584615
20
0.6013241007329146
11
-0.18402485066289526
21
0.603909926629604
0
LINE
8
Polygon
10
-0.18402485066289526
20
0.603909926629604
11
-0.19785071010092017
21
0.6078370317458246
0
LINE
8
Polygon
10
-0.1978507101009203
20
0.6078370317458246
11
-0.21123724356957946
21
0.6130693606237085
0
LINE
8
Polygon
10
-0.21123724356957946
20
0.6130693606237085
11
-0.2240615468992134
21
0.6195588743114518
0
LINE
8
Polygon
10
-0.2240615468992134
20
0.6195588743114518
11
-0.23620587785611546
21
0.6272459914175651
0
LINE
8
Polygon
10
-0.23620587785611558
20
0.6272459914175652
11
-0.24755873715514062
21
0.6360601351383364
0
LINE
8
Polygon
10
-0.24755873715514062
20
0.6360601351383364
11
-0.2580158921546811
21
0.6459203812361503
0
LINE
8
Polygon
10
-0.2580158921546812
20
0.6459203812361504
11
-0.2674813338352827
21
0.6567362010194585
0
LINE
8
Polygon
10
-0.2674813338352827
20
0.6567362010194585
11
-0.2758681582757071
21
0.6684082925029661
0
LINE
8
Polygon
10
-0.2758681582757071
20
0.6684082925029661
11
-0.28309936453345175
21
0.680829492117006
0
LINE
8
Polygon
10
-0.28309936453345175
20
0.680829492117006
11
-0.2891085616042416
21
0.693885758595532
0
LINE
8
Polygon
10
-0.2891085616042416
20
0.693885758595532
11
-0.2938405779697719
21
0.707457220009478
0
LINE
8
Polygon
10
-0.2938405779697719
20
0.707457220009478
11
-0.29725196813733296
21
0.7214192743324829
0
LINE
8
Polygon
10
-0.29725196813733296
20
0.7214192743324829
11
-0.2993114115206871
21
0.7356437334344884
0
LINE
8
Polygon
10
-0.2993114115206871
20
0.7356437334344883
11
-0.3
21
0.75
0
LINE
8
Polygon
10
-0.3
20
0.75
11
-0.2993114115206871
21
0.7643562665655117
0
LINE
8
Polygon
10
-0.2993114115206871
20
0.7643562665655117
11
-0.2972519681373329
21
0.7785807256675172
0
LINE
8
Polygon
10
-0.2972519681373329
20
0.7785807256675172
11
-0.2938405779697719
21
0.7925427799905221
0
LINE
8
Polygon
10
-0.2938405779697719
20
0.7925427799905221
11
-0.2891085616042416
21
0.8061142414044681
0
LINE
8
Polygon
10
-0.2891085616042416
20
0.8061142414044681
11
-0.28309936453345164
21
0.8191705078829941
0
LINE
8
Polygon
10
-0.2830993645334517
20
0.819170507882994
11
-0.2758681582757071
21
0.8315917074970339
0
LINE
8
Polygon
10
-0.2758681582757071
20
0.8315917074970339
11
-0.26748133383528266
21
0.8432637989805415
0
LINE
8
Polygon
10
-0.26748133383528266
20
0.8432637989805415
11
-0.2580158921546811
21
0.8540796187638497
0
LINE
8
Polygon
10
-0.2580158921546811
20
0.8540796187638497
11
-0.2475587371551406
21
0.8639398648616637
0
LINE
8
Polygon
10
-0.2475587371551406
20
0.8639398648616637
11
-0.2362058778561155
21
0.8727540085824349
0
LINE
8
Polygon
10
-0.2362058778561155
20
0.8727540085824349
11
-0.22406154689921337
21
0.8804411256885482
0
LINE
8
Polygon
10
-0.22406154689921337
20
0.8804411256885482
11
-0.21123724356957935
21
0.8869306393762916
0
LINE
8
Polygon
10
-0.2112372435695794
20
0.8869306393762915
11
-0.1978507101009202
21
0.8921629682541754
0
LINE
8
Polygon
10
-0.1978507101009202
20
0.8921629682541754
11
-0.1840248506628952
21
0.896090073370396
0
LINE
8
Polygon
10
-0.1840248506628952
20
0.896090073370396
11
-0.16988660295584604
21
0.8986758992670854
0
LINE
8
Polygon
10
-0.16988660295584604
20
0.8986758992670854
11
-0.155565772772956
21
0.8998967050119508
0
LINE
8
Polygon
10
-0.155565772772956
20
0.8998967050119508
11
-0.14119384222993356
21
0.8997412821680404
0
LINE
8
Polygon
10
-0.14119384222993356
20
0.8997412821680404
11
-0.1269027626040775
21
0.8982110577004172
0
LINE
8
Polygon
10
-0.1269027626040775
20
0.8982110577004172
11
-0.11282374286588528
21
0.8953200808749369
0
LINE
8
Polygon
10
-0.11282374286588534
20
0.8953200808749369
11
-0.09908604502591346
21
0.8910948942694125
0
LINE
8
Polygon
10
-0.0990860450259134
20
0.8910948942694125
11
-0.085815797357027
21
0.8855742900814375
0
LINE
8
Polygon
10
-0.08581579735702707
20
0.8855742900814376
11
-0.0731348363880585
21
0.8788089539702479
0
LINE
8
Polygon
10
-0.07313483638805854
20
0.878808953970248
11
-0.06115958830073909
21
0.8708609997025749
0
LINE
8
Polygon
10
-0.06115958830073902
20
0.8708609997025749
11
-0.04999999999999993
21
0.8618033988749895
0
LINE
8
Polygon
10
-0.05
20
0.8618033988749895
11
-0.04890575077152406
21
0.8608708910672408
0
LINE
8
Polygon
10
-0.04890575077152406
20
0.8608708910672408
11
-0.04776808233985219
21
0.8599918787094724
0
LINE
8
Polygon
10
-0.04776808233985218
20
0.8599918787094724
11
-0.046589607489708
21
0.8591683805533663
0
LINE
8
Polygon
10
-0.046589607489708
20
0.8591683805533663
11
-0.045373032722388296
21
0.8584022878559378
0
LINE
8
Polygon
10
-0.04537303272238829
20
0.8584022878559378
11
-0.044121152039975464
21
0.8576953600360481
0
LINE
8
Polygon
10
-0.044121152039975464
20
0.8576953600360481
11
-0.04283684052859458
21
0.8570492206336998
0
LINE
8
Polygon
10
-0.04283684052859458
20
0.8570492206336998
11
-0.04152304775545157
21
0.8564653535813929
0
LINE
8
Polygon
10
-0.041523047755451556
20
0.8564653535813929
11
-0.040182790994817294
21
0.8559450997961049
0
LINE
8
Polygon
10
-0.040182790994817294
20
0.8559450997961049
11
-0.038819148298514634
21
0.855489654099723
0
LINE
8
Polygon
10
-0.038819148298514634
20
0.855489654099723
11
-0.03743525142682292
21
0.855100062475
0
LINE
8
Polygon
10
-0.03743525142682293
20
0.855100062475
11
-0.036034278656034924
21
0.8547772196633362
0
LINE
8
Polygon
10
-0.036034278656034924
20
0.8547772196633362
11
-0.034619447479184474
21
0.854521867109904
0
LINE
8
Polygon
10
-0.03461944747918448
20
0.854521867109904
11
-0.03319400721670842
21
0.8543345912608348
0
LINE
8
Polygon
10
-0.03319400721670842
20
0.8543345912608348
11
-0.03176123155401327
21
0.8542158222163793
0
LINE
8
Polygon
10
-0.03176123155401327
20
0.8542158222163793
11
-0.030324411023085012
21
0.8541658327431331
0
LINE
8
Polygon
10
-0.03032441102308502
20
0.8541658327431331
11
-0.028886845445408788
21
0.8541847376475972
0
LINE
8
Polygon
10
-0.02888684544540878
20
0.8541847376475972
11
-0.027451836353554155
21
0.8542724935125121
0
LINE
8
Polygon
10
-0.027451836353554162
20
0.8542724935125121
11
-0.026022679408830778
21
0.8544288987965702
0
LINE
8
Polygon
10
-0.026022679408830778
20
0.8544288987965702
11
-0.02460265683242793
21
0.8546535942972787
0
LINE
8
Polygon
10
-0.02460265683242793
20
0.8546535942972787
11
-0.023195029867420947
21
0.8549460639759082
0
LINE
8
Polygon
10
-0.023195029867420947
20
0.8549460639759082
11
-0.021803031288956207
21
0.8553056361426349
0
LINE
8
Polygon
10
-0.021803031288956207
20
0.8553056361426349
11
-0.020429857979815946
21
0.8557314849991523
0
LINE
8
Polygon
10
-0.020429857979815946
20
0.8557314849991523
11
-0.01907866358841399
21
0.8562226325352107
0
LINE
8
Polygon
10
-0.019078663588413997
20
0.8562226325352107
11
-0.017752551286084113
21
0.8567779507747291
0
LINE
8
Polygon
10
-0.017752551286084113
20
0.8567779507747291
11
-0.016454566640294696
21
0.8573961643663196
0
LINE
8
Polygon
10
-0.016454566640294696
20
0.8573961643663196
11
-0.015187690620157311
21
0.8580758535122778
0
LINE
8
Polygon
10
-0.015187690620157311
20
0.8580758535122778
11
-0.013954832750292644
21
0.8588154572293081
0
LINE
8
Polygon
10
-0.013954832750292644
20
0.8588154572293081
11
-0.012758824428776887
21
0.8596132769335004
0
LINE
8
Polygon
10
-0.012758824428776887
20
0.8596132769335004
11
-0.011602412424514558
21
0.8604674803413198
0
LINE
8
Polygon
10
-0.011602412424514565
20
0.8604674803413198
11
-0.01048825256897187
21
0.8613761056776547
0
LINE
8
Polygon
10
-0.01048825256897187
20
0.8613761056776547
11
-0.0094189036567582
21
0.8623370661812549
0
LINE
8
Polygon
10
-0.0094189036567582
20
0.8623370661812549
11
-0.00839682156906377
21
0.8633481548972174
0
LINE
8
Polygon
10
-0.00839682156906377
20
0.8633481548972174
11
-0.0074243536334496416
21
0.8644070497455073
0
LINE
8
Polygon
10
-0.0074243536334496416
20
0.8644070497455073
11
-0.006503733232943454
21
0.8655113188538791
0
LINE
8
Polygon
10
-0.006503733232943454
20
0.8655113188538791
11
-0.005637074676821733
21
0.8666584261429473
0
LINE
8
Polygon
10
-0.005637074676821733
20
0.8666584261429473
11
-0.004826368344858573
21
0.8678457371505806
0
LINE
8
Polygon
10
-0.004826368344858577
20
0.8678457371505806
11
-0.00407347611619251
21
0.8690705250822433
0
LINE
8
Polygon
10
-0.00407347611619251
20
0.8690705250822433
11
-0.0033801270933096553
21
0.8703299770733885
0
LINE
8
Polygon
10
-0.0033801270933096553
20
0.8703299770733885
11
-0.0027479136309635534
21
0.8716212006495212
0
LINE
8
Polygon
10
-0.0027479136309635534
20
0.8716212006495212
11
-0.002178287679151677
21
0.8729412303690938
0
LINE
8
Polygon
10
-0.0021782876791516734
20
0.8729412303690938
11
-0.0016725574485473849
21
0.8742870346339797
0
LINE
8
Polygon
10
-0.0016725574485473849
20
0.8742870346339797
11
-0.0012318844060456163
21
0.875655522651883
0
LINE
8
Polygon
10
-0.0012318844060456163
20
0.875655522651883
11
-0.0008572806073222604
21
0.8770435515346928
0
LINE
8
Polygon
10
-0.0008572806073222604
20
0.8770435515346928
11
-0.000549606372533408
21
0.8784479335164839
0
LINE
8
Polygon
10
-0.000549606372533408
20
0.8784479335164839
11
-0.0003095683104924231
21
0.8798654432745823
0
LINE
8
Polygon
10
-0.0003095683104924231
20
0.8798654432745823
11
-0.00013771769586258184
21
0.881292825336885
0
LINE
8
Polygon
10
-0.00013771769586258184
20
0.881292825336885
11
-3.4449203092205144e-05
21
0.882726801558422
0
LINE
8
Polygon
10
-3.4449203092205144e-05
20
0.882726801558422
11
0.0
21
0.8841640786499874
0
LINE
8
Polygon
10
0
20
0
11
0.0
21
0.6158359213500126
0
LINE
8
Polygon
10
0.0
20
1.5
11
0.0
21
0.8841640786499874
0
LINE
8
Polygon
10
-0.05
20
0.6381966011250105
11
-0.05
21
0.6381966011250105
0
LINE
8
Polygon
10
-0.049999999999999975
20
0.8618033988749895
11
-0.05
21
0.8618033988749895
0
LINE
8
Polygon
10
0.4725780528551349
20
1.210606226716725
11
0.46866796559789187
21
1.2041110219065665
0
LINE
8
Polygon
10
0.46866796559789187
20
1.2041110219065665
11
0.4648568094856812
21
1.1975572781693182
0
LINE
8
Polygon
10
0.4648568094856812
20
1.1975572781693182
11
0.4611454607256704
21
1.1909465022491459
0
LINE
8
Polygon
10
0.4611454607256704
20
1.1909465022491459
11
0.4575347725787308
21
1.1842802140022495
0
LINE
8
Polygon
10
0.45753477257873093
20
1.1842802140022495
11
0.4540255751632677
21
1.177559946047438
0
LINE
8
Polygon
10
0.4540255751632677
20
1.177559946047438
11
0.45061867526437116
21
1.1707872434137725
0
LINE
8
Polygon
10
0.45061867526437116
20
1.1707872434137725
11
0.4473148561483317
21
1.1639636631853545
0
LINE
8
Polygon
10
0.4473148561483317
20
1.1639636631853545
11
0.4441148773825628
21
1.157090774143344
0
LINE
8
Polygon
10
0.4441148773825628
20
1.157090774143344
11
0.4410194746609713
21
1.1501701564052857
0
LINE
8
Polygon
10
0.4410194746609713
20
1.1501701564052857
11
0.43802935963481776
21
1.1432034010618326
0
LINE
8
Polygon
10
0.43802935963481776
20
1.1432034010618326
11
0.4351452197491033
21
1.1361921098109435
0
LINE
8
Polygon
10
0.43514521974910336
20
1.1361921098109438
11
0.43236771808452207
21
1.1291378945896446
0
LINE
8
Polygon
10
0.43236771808452207
20
1.1291378945896446
11
0.42969749320501477
21
1.1220423772034336
0
LINE
8
Polygon
10
0.42969749320501477
20
1.1220423772034336
11
0.4271351590109596
21
1.1149071889534197
0
LINE
8
Polygon
10
0.4271351590109596
20
1.1149071889534197
11
0.4246813045980327
21
1.1077339702612758
0
LINE
8
Polygon
10
0.4246813045980327
20
1.1077339702612758
11
0.4223364941217715
21
1.1005243702920975
0
LINE
8
Polygon
10
0.4223364941217715
20
1.1005243702920975
11
0.42010126666787206
21
1.0932800465752488
0
LINE
8
Polygon
10
0.4201012666678721
20
1.093280046575249
11
0.41797613612825035
21
1.0860026646232879
0
LINE
8
Polygon
10
0.41797613612825035
20
1.0860026646232879
11
0.41596159108289515
21
1.0786938975490545
0
LINE
8
Polygon
10
0.41596159108289515
20
1.0786938975490545
11
0.4140580946875409
21
1.0713554256810132
0
LINE
8
Polygon
10
0.4140580946875409
20
1.0713554256810132
11
0.41226608456718533
21
1.0639889361769344
0
LINE
8
Polygon
10
0.41226608456718533
20
1.0639889361769344
11
0.410585972715477
21
1.0565961226360074
0
LINE
8
Polygon
10
0.410585972715477
20
1.0565961226360074
11
0.4090181453999954
21
1.049178684709473
0
LINE
8
Polygon
10
0.4090181453999954
20
1.049178684709473
11
0.4075629630734461
21
1.041738327709862
0
LINE
8
Polygon
10
0.4075629630734461
20
1.0417383277098622
11
0.4062207602907899
21
1.0342767622189353
0
LINE
8
Polygon
10
0.4062207602907899
20
1.0342767622189353
11
0.4049918456323275
21
1.0267957036944095
0
LINE
8
Polygon
10
0.4049918456323275
20
1.0267957036944095
11
0.40387650163275435
21
1.0192968720755653
0
LINE
8
Polygon
10
0.40387650163275435
20
1.0192968720755653
11
0.4028749847162049
21
1.0117819913878214
0
LINE
8
Polygon
10
0.4028749847162049
20
1.0117819913878214
11
0.40198752513729863
21
1.0042527893463717
0
LINE
8
Polygon
10
0.40198752513729863
20
1.0042527893463717
11
0.40121432692820347
21
0.9967109969589738
0
LINE
8
Polygon
10
0.40121432692820347
20
0.9967109969589738
11
0.4005555678517276
21
0.9891583481279793
0
LINE
8
Polygon
10
0.40055556785172763
20
0.9891583481279795
11
0.4000113993604506
21
0.9815965792517005
0
LINE
8
Polygon
10
0.4000113993604506
20
0.9815965792517005
11
0.39958194656190377
21
0.9740274288252007
0
LINE
8
Polygon
10
0.39958194656190377
20
0.9740274288252007
11
0.399267308189807
21
0.9664526370406058
0
LINE
8
Polygon
10
0.399267308189807
20
0.9664526370406058
11
0.39906755658136944
21
0.9588739453870228
0
LINE
8
Polygon
10
0.39906755658136944
20
0.9588739453870228
11
0.3989827376606588
21
0.9512930962501615
0
LINE
8
Polygon
10
0.3989827376606588
20
0.9512930962501615
11
0.39901287092804283
21
0.9437118325117496
0
LINE
8
Polygon
10
0.39901287092804283
20
0.9437118325117496
11
0.39915794945570654
21
0.9361318971488344
0
LINE
8
Polygon
10
0.39915794945570654
20
0.9361318971488346
11
0.3994179398892445
21
0.9285550328330618
0
LINE
8
Polygon
10
0.3994179398892445
20
0.9285550328330618
11
0.3997927824553296
21
0.9209829815300257
0
LINE
8
Polygon
10
0.3997927824553296
20
0.9209829815300257
11
0.400282390975455
21
0.9134174840987801
0
LINE
8
Polygon
10
0.400282390975455
20
0.9134174840987801
11
0.40088665288574704
21
0.9058602798916059
0
LINE
8
Polygon
10
0.40088665288574704
20
0.9058602798916059
11
0.40160542926284465
21
0.8983131063541225
0
LINE
8
Polygon
10
0.40160542926284465
20
0.8983131063541225
11
0.40243855485583846
21
0.89077769862584
0
LINE
8
Polygon
10
0.40243855485583846
20
0.89077769862584
11
0.4033858381242629
21
0.8832557891412394
0
LINE
8
Polygon
10
0.4033858381242628
20
0.8832557891412396
11
0.4044470612821324
21
0.8757491072314766
0
LINE
8
Polygon
10
0.4044470612821324
20
0.8757491072314766
11
0.40562198034801217
21
0.868259378726798
0
LINE
8
Polygon
10
0.40562198034801217
20
0.868259378726798
11
0.40691032520111026
21
0.8607883255597635
0
LINE
8
Polygon
10
0.40691032520111026
20
0.8607883255597635
11
0.40722093576349394
21
0.8592862523580999
0
LINE
8
Polygon
10
0.40722093576349394
20
0.8592862523580999
11
0.40760791385461376
21
0.8578020182857199
0
LINE
8
Polygon
10
0.40760791385461376
20
0.8578020182857199
11
0.4080702478695274
21
0.8563395033000619
0
LINE
8
Polygon
10
0.4080702478695274
20
0.8563395033000619
11
0.40860672921429847
21
0.8549025305823902
0
LINE
8
Polygon
10
0.40860672921429847
20
0.8549025305823902
11
0.4092159554653989
21
0.8534948565435622
0
LINE
8
Polygon
10
0.40921595546539896
20
0.8534948565435622
11
0.4098963340358046
21
0.8521201610043416
0
LINE
8
Polygon
10
0.4098963340358046
20
0.8521201610043416
11
0.41064608633819943
21
0.8507820375759263
0
LINE
8
Polygon
10
0.41064608633819943
20
0.8507820375759263
11
0.4114632524344061
21
0.8494839842658382
0
LINE
8
Polygon
10
0.4114632524344061
20
0.8494839842658382
11
0.4123456961588883
21
0.8482293943337319
0
LINE
8
Polygon
10
0.4123456961588883
20
0.8482293943337319
11
0.4132911107029313
21
0.8470215474210264
0
LINE
8
Polygon
10
0.4132911107029313
20
0.8470215474210264
11
0.4142970246449038
21
0.8458636009775474
0
LINE
8
Polygon
10
0.4142970246449038
20
0.8458636009775474
11
0.4153608084108363
21
0.8447585820075931
0
LINE
8
Polygon
10
0.4153608084108363
20
0.8447585820075931
11
0.4164796811484277
21
0.843709379156999
0
LINE
8
Polygon
10
0.4164796811484277
20
0.843709379156999
11
0.4176507179965113
21
0.8427187351618873
0
LINE
8
Polygon
10
0.4176507179965113
20
0.8427187351618873
11
0.41887085773097565
21
0.8417892396788421
0
LINE
8
Polygon
10
0.41887085773097565
20
0.8417892396788421
11
0.42013691076715454
21
0.8409233225152504
0
LINE
8
Polygon
10
0.42013691076715454
20
0.8409233225152504
11
0.42144556749776524
21
0.8401232472775086
0
LINE
8
Polygon
10
0.42144556749776524
20
0.8401232472775086
11
0.4227934069446005
21
0.8393911054536964
0
LINE
8
Polygon
10
0.4227934069446005
20
0.8393911054536964
11
0.42417690570135624
21
0.8387288109461881
0
LINE
8
Polygon
10
0.42417690570135624
20
0.8387288109461881
11
0.4255924471442181
21
0.8381380950684932
0
LINE
8
Polygon
10
0.4255924471442181
20
0.8381380950684932
11
0.42703633088612947
21
0.8376205020194051
0
LINE
8
Polygon
10
0.42703633088612947
20
0.8376205020194051
11
0.4285047824500259
21
0.8371773848462888
0
LINE
8
Polygon
10
0.4285047824500259
20
0.8371773848462888
11
0.4299939631357493
21
0.8368099019080608
0
LINE
8
Polygon
10
0.4299939631357493
20
0.8368099019080608
11
0.43149998005484896
21
0.8365190138471065
0
LINE
8
Polygon
10
0.43149998005484896
20
0.8365190138471065
11
0.4330188963070366
21
0.8363054810780509
0
LINE
8
Polygon
10
0.4330188963070366
20
0.8363054810780509
11
0.43454674127169346
21
0.8361698617999486
0
LINE
8
Polygon
10
0.43454674127169346
20
0.8361698617999486
11
0.4360795209875263
21
0.8361125105370867
0
LINE
8
Polygon
10
0.4360795209875263
20
0.8361125105370867
11
0.43761322859323837
21
0.8361335772122189
0
LINE
8
Polygon
10
0.43761322859323837
20
0.8361335772122189
11
0.43914385480192303
21
0.8362330067546495
0
LINE
8
Polygon
10
0.43914385480192303
20
0.8362330067546495
11
0.44066739838179736
21
0.8364105392441947
0
LINE
8
Polygon
10
0.44066739838179736
20
0.8364105392441947
11
0.44217987661587926
21
0.8366657105906439
0
LINE
8
Polygon
10
0.44217987661587926
20
0.8366657105906439
11
0.44367733571326495
21
0.8369978537469442
0
LINE
8
Polygon
10
0.44367733571326495
20
0.8369978537469442
11
0.4451558611447897
21
0.837406100452938
0
LINE
8
Polygon
10
0.4451558611447897
20
0.837406100452938
11
0.44661158787605476
21
0.8378893835050936
0
LINE
8
Polygon
10
0.4466115878760547
20
0.8378893835050936
11
0.44804071047106825
21
0.8384464395462978
0
LINE
8
Polygon
10
0.44804071047106825
20
0.8384464395462978
11
0.44943949304009023
21
0.8390758123684157
0
LINE
8
Polygon
10
0.44943949304009023
20
0.8390758123684157
11
0.450804279005675
21
0.8397758567189845
0
LINE
8
Polygon
10
0.450804279005675
20
0.8397758567189845
11
0.4521315006613822
21
0.840544742602092
0
LINE
8
Polygon
10
0.4521315006613822
20
0.840544742602092
11
0.4534176884981694
21
0.841380460062195
0
LINE
8
Polygon
10
0.4534176884981694
20
0.841380460062195
11
0.4546594802740847
21
0.8422808244383724
0
LINE
8
Polygon
10
0.4546594802740847
20
0.8422808244383724
11
0.4558536298035518
21
0.8432434820752787
0
LINE
8
Polygon
10
0.4558536298035518
20
0.8432434820752787
11
0.45699701544326954
21
0.8442659164758676
0
LINE
8
Polygon
10
0.45699701544326954
20
0.8442659164758676
11
0.45808664825254436
21
0.8453454548798033
0
LINE
8
Polygon
10
0.45808664825254436
20
0.8453454548798033
11
0.45911967980672275
21
0.8464792752503612
0
LINE
8
Polygon
10
0.45911967980672275
20
0.8464792752503612
11
0.46009340964329865
21
0.8476644136515541
0
LINE
8
Polygon
10
0.46009340964329865
20
0.8476644136515541
11
0.46100529232123105
21
0.8488977719961999
0
LINE
8
Polygon
10
0.46100529232123105
20
0.8488977719961999
11
0.4618529440750176
21
0.8501761261446747
0
LINE
8
Polygon
10
0.4618529440750176
20
0.8501761261446747
11
0.46263414904613004
21
0.8514961343331833
0
LINE
8
Polygon
10
0.5875363353811921
20
0.628548682457857
11
0.6007951392870945
21
0.628595861002168
0
LINE
8
Polygon
10
0.6007951392870945
20
0.628595861002168
11
0.6139979798648992
21
0.6298136900161472
0
LINE
8
Polygon
10
0.6139979798648992
20
0.6298136900161472
11
0.6270417000311237
21
0.6321926542982346
0
LINE
8
Polygon
10
0.6270417000311237
20
0.6321926542982346
11
0.6398243859497124
21
0.6357141664076743
0
LINE
8
Polygon
10
0.6398243859497124
20
0.6357141664076743
11
0.6522461633102347
21
0.6403507118928209
0
LINE
8
Polygon
10
0.6522461633102347
20
0.6403507118928209
11
0.6642099776707594
21
0.646066064268407
0
LINE
8
Polygon
10
0.6642099776707595
20
0.6460660642684071
11
0.6756223527683958
21
0.6528155680620993
0
LINE
8
Polygon
10
0.6756223527683958
20
0.6528155680620993
11
0.6863941208726281
21
0.6605464877188323
0
LINE
8
Polygon
10
0.6863941208726281
20
0.6605464877188323
11
0.6964411194750146
21
0.6691984196368411
0
LINE
8
Polygon
10
0.6964411194750146
20
0.6691984196368411
11
0.7056848488718387
21
0.6787037641160543
0
LINE
8
Polygon
10
0.7056848488718387
20
0.6787037641160543
11
0.7140530855018553
21
0.6889882535313955
0
LINE
8
Polygon
10
0.7140530855018553
20
0.6889882535313955
11
0.7214804462469728
21
0.6999715326042455
0
LINE
8
Polygon
10
0.7214804462469728
20
0.6999715326042455
11
0.7279088992868472
21
0.7115677862382579
0
LINE
8
Polygon
10
0.7279088992868472
20
0.7115677862382579
11
0.7332882175159561
21
0.7236864100140913
0
LINE
8
Polygon
10
0.7332882175159561
20
0.7236864100140913
11
0.7375763709804898
21
0.7362327181043155
0
LINE
8
Polygon
10
0.7375763709804898
20
0.7362327181043155
11
0.7407398552688546
21
0.7491086830773761
0
LINE
8
Polygon
10
0.7407398552688546
20
0.7491086830773761
11
0.7427539532899889
21
0.7622137018103455
0
LINE
8
Polygon
10
0.7427539532899889
20
0.7622137018103455
11
0.7436029283941556
21
0.7754453815261912
0
LINE
8
Polygon
10
0.7436029283941556
20
0.7754453815261912
11
0.743280147327308
21
0.7887003398140585
0
LINE
8
Polygon
10
0.743280147327308
20
0.7887003398140585
11
0.7417881320583555
21
0.8018750123818087
0
LINE
8
Polygon
10
0.7417881320583555
20
0.8018750123818087
11
0.7391385400743935
21
0.814866462229641
0
LINE
8
Polygon
10
0.7391385400743935
20
0.814866462229641
11
0.7353520732978511
21
0.827573183922523
0
LINE
8
Polygon
10
0.7353520732978511
20
0.827573183922523
11
0.7304583163372125
21
0.839895896677449
0
LINE
8
Polygon
10
0.7304583163372125
20
0.839895896677449
11
0.7244955053350983
21
0.8517383200689379
0
LINE
8
Polygon
10
0.7244955053350983
20
0.8517383200689379
11
0.7175102292197555
21
0.8630079262919893
0
LINE
8
Polygon
10
0.7175102292197555
20
0.8630079262919893
11
0.7095570656941514
21
0.8736166631048816
0
LINE
8
Polygon
10
0.7095570656941514
20
0.8736166631048816
11
0.7006981548067801
21
0.8834816418032788
0
LINE
8
Polygon
10
0.7006981548067801
20
0.8834816418032788
11
0.691002713435978
21
0.8925257848503318
0
LINE
8
Polygon
10
0.6910027134359781
20
0.8925257848503318
11
0.6805464944812063
21
0.9006784281026818
0
LINE
8
Polygon
10
0.6805464944812063
20
0.9006784281026818
11
0.6694111949867694
21
0.9078758729270212
0
LINE
8
Polygon
10
0.6694111949867694
20
0.9078758729270213
11
0.6576838178224499
21
0.9140618838933884
0
LINE
8
Polygon
10
0.6576838178224499
20
0.9140618838933884
11
0.6454559919084065
21
0.9191881281565958
0
LINE
8
Polygon
10
0.6454559919084065
20
0.9191881281565958
11
0.6328232562955878
21
0.9232145530927938
0
LINE
8
Polygon
10
0.6328232562955878
20
0.9232145530927938
11
0.6198843136953188
21
0.9261096992406008
0
LINE
8
Polygon
10
0.6198843136953188
20
0.9261096992406008
11
0.6067402592904225
21
0.9278509461017158
0
LINE
8
Polygon
10
0.6067402592904225
20
0.9278509461017158
11
0.5934937908533634
21
0.9284246888805072
0
LINE
8
Polygon
10
0.5934937908533634
20
0.9284246888805072
11
0.5802484063429604
21
0.9278264447816719
0
LINE
8
Polygon
10
0.5802484063429604
20
0.9278264447816719
11
0.567107595249043
21
0.926060888035432
0
LINE
8
Polygon
10
0.5671075952490429
20
0.926060888035432
11
0.5541740300032788
21
0.9231418133766094
0
LINE
8
Polygon
10
0.5541740300032788
20
0.9231418133766094
11
0.5415487637738802
21
0.9190920282629247
0
LINE
8
Polygon
10
0.5415487637738802
20
0.9190920282629247
11
0.5293304409120183
21
0.913943174674647
0
LINE
8
Polygon
10
0.5293304409120183
20
0.913943174674647
11
0.5176145262189267
21
0.9077354818879172
0
LINE
8
Polygon
10
0.5176145262189267
20
0.9077354818879172
11
0.5064925590556202
21
0.9005174521533881
0
LINE
8
Polygon
10
0.5064925590556201
20
0.900517452153388
11
0.49605143812305574
21
0.8923454817360539
0
LINE
8
Polygon
10
0.49605143812305574
20
0.8923454817360539
11
0.4863727425009283
21
0.883283420277179
0
LINE
8
Polygon
10
0.4863727425009283
20
0.883283420277179
11
0.4775320942499913
21
0.8734020719211386
0
LINE
8
Polygon
10
0.47753209424999127
20
0.8734020719211386
11
0.4695985675580522
21
0.8627786421049961
0
LINE
8
Polygon
10
0.4695985675580522
20
0.8627786421049961
11
0.4626341490461301
21
0.8514961343331835
0
LINE
8
Polygon
10
0.587536335381192
20
0.628548682457857
11
0.5860026576250742
21
0.6285718204139037
0
LINE
8
Polygon
10
0.5860026576250742
20
0.6285718204139037
11
0.5844698018531325
21
0.6285165392503375
0
LINE
8
Polygon
10
0.5844698018531325
20
0.6285165392503375
11
0.5829417751254827
21
0.6283829834784356
0
LINE
8
Polygon
10
0.5829417751254827
20
0.6283829834784356
11
0.5814225718785675
21
0.6281715022282446
0
LINE
8
Polygon
10
0.5814225718785675
20
0.6281715022282446
11
0.5799161634832424
21
0.6278826483359141
0
LINE
8
Polygon
10
0.5799161634832424
20
0.6278826483359141
11
0.5784264878631594
21
0.6275171768985202
0
LINE
8
Polygon
10
0.5784264878631594
20
0.6275171768985202
11
0.5769574392005844
21
0.6270760433001549
0
LINE
8
Polygon
10
0.5769574392005844
20
0.6270760433001549
11
0.5755128577565592
21
0.626560400714444
0
LINE
8
Polygon
10
0.5755128577565592
20
0.626560400714444
11
0.5740965198320217
21
0.6259715970900183
0
LINE
8
Polygon
10
0.5740965198320217
20
0.6259715970900183
11
0.5727121278961224
21
0.6253111716268226
0
LINE
8
Polygon
10
0.5727121278961224
20
0.6253111716268226
11
0.5713633009075479
21
0.6245808507524712
0
LINE
8
Polygon
10
0.5713633009075479
20
0.6245808507524712
11
0.5700535648541494
21
0.6237825436091682
0
LINE
8
Polygon
10
0.5700535648541494
20
0.6237825436091682
11
0.5687863435356072
21
0.6229183370629928
0
LINE
8
Polygon
10
0.5687863435356072
20
0.6229183370629928
11
0.5675649496132275
21
0.6219904902485918
0
LINE
8
Polygon
10
0.5675649496132275
20
0.6219904902485918
11
0.566392575950267
21
0.621001428663544
0
LINE
8
Polygon
10
0.566392575950267
20
0.621001428663544
11
0.5652722872654242
21
0.6199537378278328
0
LINE
8
Polygon
10
0.5652722872654242
20
0.6199537378278328
11
0.5642070121213135
21
0.6188501565250009
0
LINE
8
Polygon
10
0.5642070121213135
20
0.6188501565250009
11
0.5631995352688689
21
0.6176935696426575
0
LINE
8
Polygon
10
0.5631995352688689
20
0.6176935696426575
11
0.5622524903676865
21
0.6164870006310528
0
LINE
8
Polygon
10
0.5622524903676865
20
0.6164870006310528
11
0.5613683531013376
21
0.615233603599433
0
LINE
8
Polygon
10
0.5613683531013376
20
0.615233603599433
11
0.5605494347056486
21
0.6139366550708388
0
LINE
8
Polygon
10
0.5605494347056486
20
0.6139366550708388
11
0.5597978759268669
21
0.6125995454169
0
LINE
8
Polygon
10
0.5597978759268669
20
0.6125995454169
11
0.5591156414255056
21
0.611225769995016
0
LINE
8
Polygon
10
0.5591156414255056
20
0.611225769995016
11
0.5585045146404962
21
0.609818920011093
0
LINE
8
Polygon
10
0.5585045146404962
20
0.6098189200110928
11
0.5579660931270758
21
0.6083826731317207
0
LINE
8
Polygon
10
0.5579660931270758
20
0.6083826731317207
11
0.5575017843805947
21
0.6069207838703328
0
LINE
8
Polygon
10
0.5575017843805947
20
0.6069207838703328
11
0.5571128021571635
21
0.6054370737724785
0
LINE
8
Polygon
10
0.5571128021571635
20
0.6054370737724785
11
0.5568001633007552
21
0.6039354214258669
0
LINE
8
Polygon
10
0.5568001633007552
20
0.6039354214258669
11
0.5565646850850593
21
0.6024197523212952
0
LINE
8
Polygon
10
0.5565646850850593
20
0.6024197523212952
11
0.556406983077035
21
0.6008940285909674
0
LINE
8
Polygon
10
0.556406983077035
20
0.6008940285909674
11
0.5563274695277485
21
0.5993622386510278
0
LINE
8
Polygon
10
0.5563274695277485
20
0.5993622386510278
11
0.5563263522947022
21
0.5978283867753857
0
LINE
8
Polygon
10
0.5563263522947022
20
0.5978283867753857
11
0.5564036342984708
21
0.5962964826280861
0
LINE
8
Polygon
10
0.5564036342984708
20
0.5962964826280861
11
0.5565591135150671
21
0.5947705307815894
0
LINE
8
Polygon
10
0.5565591135150671
20
0.5947705307815894
11
0.5567923835040555
21
0.5932545202483616
0
LINE
8
Polygon
10
0.5567923835040555
20
0.5932545202483616
11
0.5571028344710336
21
0.5917524140531402
0
LINE
8
Polygon
10
0.5571028344710336
20
0.5917524140531402
11
0.557489654861705
21
0.5902681388731343
0
LINE
8
Polygon
10
0.557489654861705
20
0.5902681388731343
11
0.5579518334833744
21
0.5888055747732426
0
LINE
8
Polygon
10
0.5579518334833744
20
0.5888055747732426
11
0.5584881621483211
21
0.5873685450631194
0
LINE
8
Polygon
10
0.5584881621483211
20
0.5873685450631194
11
0.5590972388321394
21
0.5859608063026069
0
LINE
8
Polygon
10
0.5590972388321394
20
0.5859608063026069
11
0.5597774713387912
21
0.5845860384816588
0
LINE
8
Polygon
10
0.5597774713387912
20
0.5845860384816588
11
0.5605270814627878
21
0.5832478354004256
0
LINE
8
Polygon
10
0.5605270814627878
20
0.5832478354004256
11
0.5613441096376225
21
0.5819496952746508
0
LINE
8
Polygon
10
0.5613441096376225
20
0.5819496952746508
11
0.5622264200583011
21
0.5806950115909352
0
LINE
8
Polygon
10
0.5622264200583011
20
0.5806950115909351
11
0.5631717062645804
21
0.5794870642357749
0
LINE
8
Polygon
10
0.5631717062645804
20
0.5794870642357749
11
0.5641774971703184
21
0.5783290109215641
0
LINE
8
Polygon
10
0.5641774971703184
20
0.5783290109215641
11
0.5652411635231767
21
0.5772238789319729
0
LINE
8
Polygon
10
0.5652411635231767
20
0.5772238789319729
11
0.5663599247777852
21
0.5761745572082833
0
LINE
8
Polygon
10
0.5663599247777852
20
0.5761745572082833
11
0.572058444170086
21
0.5711742227573955
0
LINE
8
Polygon
10
0.572058444170086
20
0.5711742227573955
11
0.5778321246293339
21
0.5662608652658568
0
LINE
8
Polygon
10
0.5778321246293339
20
0.5662608652658568
11
0.5836796387524911
21
0.5614356143434032
0
LINE
8
Polygon
10
0.5836796387524911
20
0.5614356143434032
11
0.5895996421617267
21
0.5566995793435535
0
LINE
8
Polygon
10
0.5895996421617264
20
0.5566995793435536
11
0.5955907738134971
21
0.5520538491085621
0
LINE
8
Polygon
10
0.5955907738134971
20
0.5520538491085621
11
0.6016516563114588
21
0.5474994917190874
0
LINE
8
Polygon
10
0.6016516563114588
20
0.5474994917190874
11
0.6077808962231387
21
0.5430375542486344
0
LINE
8
Polygon
10
0.6077808962231387
20
0.5430375542486344
11
0.6139770844002929
21
0.5386690625228261
0
LINE
8
Polygon
10
0.6139770844002929
20
0.5386690625228261
11
0.6202387963028784
21
0.53439502088356
0
LINE
8
Polygon
10
0.6202387963028784
20
0.53439502088356
11
0.6265645923265628
21
0.530216411958104
0
LINE
8
Polygon
10
0.6265645923265628
20
0.530216411958104
11
0.6329530181336982
21
0.5261341964331852
0
LINE
8
Polygon
10
0.632953018133698
20
0.5261341964331854
11
0.6394026049876814
21
0.5221493128341217
0
LINE
8
Polygon
10
0.6394026049876814
20
0.5221493128341217
11
0.6459118700906261
21
0.51826267730905
0
LINE
8
Polygon
10
0.6459118700906261
20
0.51826267730905
11
0.6524793169242653
21
0.514475183418298
0
LINE
8
Polygon
10
0.6524793169242653
20
0.514475183418298
11
0.6591034355940112
21
0.5107877019289497
0
LINE
8
Polygon
10
0.6591034355940112
20
0.5107877019289497
11
0.6657827031760877
21
0.5072010806146507
0
LINE
8
Polygon
10
0.6657827031760877
20
0.5072010806146507
11
0.67251558406766
21
0.5037161440607001
0
LINE
8
Polygon
10
0.67251558406766
20
0.5037161440607001
11
0.6793005303398789
21
0.5003336934744735
0
LINE
8
Polygon
10
0.6793005303398788
20
0.5003336934744737
11
0.6861359820937583
21
0.49705450650122124
0
LINE
8
Polygon
10
0.6861359820937583
20
0.49705450650122124
11
0.6930203678188053
21
0.49387933704528186
0
LINE
8
Polygon
10
0.6930203678188053
20
0.49387933704528186
11
0.6999521047543198
21
0.49080891509675667
0
LINE
8
Polygon
10
0.6999521047543198
20
0.49080891509675667
11
0.7069295992532804
21
0.48784394656367974
0
LINE
8
Polygon
10
0.7069295992532804
20
0.48784394656367974
11
0.713951247148733
21
0.4849851131097257
0
LINE
8
Polygon
10
0.713951247148733
20
0.48498511310972575
11
0.7210154341225987
21
0.48223307199749144
0
LINE
8
Polygon
10
0.7210154341225987
20
0.48223307199749144
11
0.7281205360768145
21
0.4795884559373873
0
LINE
8
Polygon
10
0.7281205360768145
20
0.4795884559373873
11
0.7352649195067231
21
0.4770518729421735
0
LINE
8
Polygon
10
0.7352649195067231
20
0.47705187294217355
11
0.7424469418766256
21
0.47462390618717437
0
LINE
8
Polygon
10
0.7424469418766256
20
0.47462390618717437
11
0.7496649519974097
21
0.47230511387620266
0
LINE
8
Polygon
10
0.7496649519974097
20
0.47230511387620266
11
0.7569172904061675
21
0.4700960291132256
0
LINE
8
Polygon
10
0.7569172904061675
20
0.4700960291132256
11
0.7642022897477166
21
0.467997159779801
0
LINE
8
Polygon
10
0.7642022897477165
20
0.46799715977980105
11
0.7715182751579341
21
0.4660089884183121
0
LINE
8
Polygon
10
0.7715182751579341
20
0.4660089884183121
11
0.7788635646488183
21
0.46413197212102864
0
LINE
8
Polygon
10
0.7788635646488183
20
0.46413197212102864
11
0.786236469495187
21
0.46236654242501823
0
LINE
8
Polygon
10
0.7862364694951869
20
0.46236654242501823
11
0.7936352946229256
21
0.46071310521293385
0
LINE
8
Polygon
10
0.7936352946229256
20
0.46071310521293385
11
0.8010583389986947
21
0.45917204061969874
0
LINE
8
Polygon
10
0.8010583389986947
20
0.45917204061969874
11
0.8085038960210079
21
0.45774370294511135
0
LINE
8
Polygon
10
0.8085038960210079
20
0.45774370294511135
11
0.8159702539125886
21
0.4564284205723896
0
LINE
8
Polygon
10
0.8159702539125886
20
0.4564284205723896
11
0.8234556961139186
21
0.4552264958926737
0
LINE
8
Polygon
10
0.8234556961139184
20
0.4552264958926737
11
0.8309585016778845
21
0.4541382052355047
0
LINE
8
Polygon
10
0.8309585016778844
20
0.4541382052355047
11
0.8384769456654344
21
0.45316379880529456
0
LINE
8
Polygon
10
0.8384769456654344
20
0.45316379880529456
11
0.8460092995421508
21
0.45230350062380287
0
LINE
8
Polygon
10
0.8460092995421508
20
0.45230350062380287
11
0.8535538315756507
21
0.4515575084786329
0
LINE
8
Polygon
10
0.8535538315756507
20
0.4515575084786329
11
0.8611088072337216
21
0.45092599387775884
0
LINE
8
Polygon
10
0.8611088072337216
20
0.45092599387775884
11
0.8686724895831005
21
0.4504091020100955
0
LINE
8
Polygon
10
0.8686724895831005
20
0.4504091020100955
11
0.8762431396888047
21
0.45000695171211813
0
LINE
8
Polygon
10
0.8762431396888046
20
0.45000695171211813
11
0.8838190170139234
21
0.4497196354405415
0
LINE
8
Polygon
10
0.8838190170139233
20
0.44971963544054155
11
0.8913983798197775
21
0.4495472192510635
0
LINE
8
Polygon
10
0.8913983798197775
20
0.4495472192510635
11
0.8989794855663558
21
0.4494897427831783
0
LINE
8
Polygon
10
0
20
0
11
0.8989794855663558
21
0.0
0
LINE
8
Polygon
10
0.8989794855663558
20
0.0
11
0.8989794855663558
21
0.4494897427831783
0
LINE
8
Polygon
10
0.4725780528551349
20
1.210606226716725
11
0.0
21
1.5
0
ENDSEC
0
EOF
