0
SECTION
2
ENTITIES
0
LINE
8
Polygon
10
0.4725780528551349
20
1.210606226716725
11
0.46866796559789187
21
1.2041110219065665
0
LINE
8
Polygon
10
0.46866796559789187
20
1.2041110219065665
11
0.4648568094856812
21
1.1975572781693182
0
LINE
8
Polygon
10
0.4648568094856812
20
1.1975572781693182
11
0.4611454607256704
21
1.1909465022491459
0
LINE
8
Polygon
10
0.4611454607256704
20
1.1909465022491459
11
0.4575347725787308
21
1.1842802140022495
0
LINE
8
Polygon
10
0.45753477257873093
20
1.1842802140022495
11
0.4540255751632677
21
1.177559946047438
0
LINE
8
Polygon
10
0.4540255751632677
20
1.177559946047438
11
0.45061867526437116
21
1.1707872434137725
0
LINE
8
Polygon
10
0.45061867526437116
20
1.1707872434137725
11
0.4473148561483317
21
1.1639636631853545
0
LINE
8
Polygon
10
0.4473148561483317
20
1.1639636631853545
11
0.4441148773825628
21
1.157090774143344
0
LINE
8
Polygon
10
0.4441148773825628
20
1.157090774143344
11
0.4410194746609713
21
1.1501701564052857
0
LINE
8
Polygon
10
0.4410194746609713
20
1.1501701564052857
11
0.43802935963481776
21
1.1432034010618326
0
LINE
8
Polygon
10
0.43802935963481776
20
1.1432034010618326
11
0.4351452197491033
21
1.1361921098109435
0
LINE
8
Polygon
10
0.43514521974910336
20
1.1361921098109438
11
0.43236771808452207
21
1.1291378945896446
0
LINE
8
Polygon
10
0.43236771808452207
20
1.1291378945896446
11
0.42969749320501477
21
1.1220423772034336
0
LINE
8
Polygon
10
0.42969749320501477
20
1.1220423772034336
11
0.4271351590109596
21
1.1149071889534197
0
LINE
8
Polygon
10
0.4271351590109596
20
1.1149071889534197
11
0.4246813045980327
21
1.1077339702612758
0
LINE
8
Polygon
10
0.4246813045980327
20
1.1077339702612758
11
0.4223364941217715
21
1.1005243702920975
0
LINE
8
Polygon
10
0.4223364941217715
20
1.1005243702920975
11
0.42010126666787206
21
1.0932800465752488
0
LINE
8
Polygon
10
0.4201012666678721
20
1.093280046575249
11
0.41797613612825035
21
1.0860026646232879
0
LINE
8
Polygon
10
0.41797613612825035
20
1.0860026646232879
11
0.41596159108289515
21
1.0786938975490545
0
LINE
8
Polygon
10
0.41596159108289515
20
1.0786938975490545
11
0.4140580946875409
21
1.0713554256810132
0
LINE
8
Polygon
10
0.4140580946875409
20
1.0713554256810132
11
0.41226608456718533
21
1.0639889361769344
0
LINE
8
Polygon
10
0.41226608456718533
20
1.0639889361769344
11
0.410585972715477
21
1.0565961226360074
0
LINE
8
Polygon
10
0.410585972715477
20
1.0565961226360074
11
0.4090181453999954
21
1.049178684709473
0
LINE
8
Polygon
10
0.4090181453999954
20
1.049178684709473
11
0.4075629630734461
21
1.041738327709862
0
LINE
8
Polygon
10
0.4075629630734461
20
1.0417383277098622
11
0.4062207602907899
21
1.0342767622189353
0
LINE
8
Polygon
10
0.4062207602907899
20
1.0342767622189353
11
0.4049918456323275
21
1.0267957036944095
0
LINE
8
Polygon
10
0.4049918456323275
20
1.0267957036944095
11
0.40387650163275435
21
1.0192968720755653
0
LINE
8
Polygon
10
0.40387650163275435
20
1.0192968720755653
11
0.4028749847162049
21
1.0117819913878214
0
LINE
8
Polygon
10
0.4028749847162049
20
1.0117819913878214
11
0.40198752513729863
21
1.0042527893463717
0
LINE
8
Polygon
10
0.40198752513729863
20
1.0042527893463717
11
0.40121432692820347
21
0.9967109969589738
0
LINE
8
Polygon
10
0.40121432692820347
20
0.9967109969589738
11
0.4005555678517276
21
0.9891583481279793
0
LINE
8
Polygon
10
0.40055556785172763
20
0.9891583481279795
11
0.4000113993604506
21
0.9815965792517005
0
LINE
8
Polygon
10
0.4000113993604506
20
0.9815965792517005
11
0.39958194656190377
21
0.9740274288252007
0
LINE
8
Polygon
10
0.39958194656190377
20
0.9740274288252007
11
0.399267308189807
21
0.9664526370406058
0
LINE
8
Polygon
10
0.399267308189807
20
0.9664526370406058
11
0.39906755658136944
21
0.9588739453870228
0
LINE
8
Polygon
10
0.39906755658136944
20
0.9588739453870228
11
0.3989827376606588
21
0.9512930962501615
0
LINE
8
Polygon
10
0.3989827376606588
20
0.9512930962501615
11
0.39901287092804283
21
0.9437118325117496
0
LINE
8
Polygon
10
0.39901287092804283
20
0.9437118325117496
11
0.39915794945570654
21
0.9361318971488344
0
LINE
8
Polygon
10
0.39915794945570654
20
0.9361318971488346
11
0.3994179398892445
21
0.9285550328330618
0
LINE
8
Polygon
10
0.3994179398892445
20
0.9285550328330618
11
0.3997927824553296
21
0.9209829815300257
0
LINE
8
Polygon
10
0.3997927824553296
20
0.9209829815300257
11
0.400282390975455
21
0.9134174840987801
0
LINE
8
Polygon
10
0.400282390975455
20
0.9134174840987801
11
0.40088665288574704
21
0.9058602798916059
0
LINE
8
Polygon
10
0.40088665288574704
20
0.9058602798916059
11
0.40160542926284465
21
0.8983131063541225
0
LINE
8
Polygon
10
0.40160542926284465
20
0.8983131063541225
11
0.40243855485583846
21
0.89077769862584
0
LINE
8
Polygon
10
0.40243855485583846
20
0.89077769862584
11
0.4033858381242629
21
0.8832557891412394
0
LINE
8
Polygon
10
0.4033858381242628
20
0.8832557891412396
11
0.4044470612821324
21
0.8757491072314766
0
LINE
8
Polygon
10
0.4044470612821324
20
0.8757491072314766
11
0.40562198034801217
21
0.868259378726798
0
LINE
8
Polygon
10
0.40562198034801217
20
0.868259378726798
11
0.40691032520111026
21
0.8607883255597635
0
LINE
8
Polygon
10
0.40691032520111026
20
0.8607883255597635
11
0.40722093576349394
21
0.8592862523580999
0
LINE
8
Polygon
10
0.40722093576349394
20
0.8592862523580999
11
0.40760791385461376
21
0.8578020182857199
0
LINE
8
Polygon
10
0.40760791385461376
20
0.8578020182857199
11
0.4080702478695274
21
0.8563395033000619
0
LINE
8
Polygon
10
0.4080702478695274
20
0.8563395033000619
11
0.40860672921429847
21
0.8549025305823902
0
LINE
8
Polygon
10
0.40860672921429847
20
0.8549025305823902
11
0.4092159554653989
21
0.8534948565435622
0
LINE
8
Polygon
10
0.40921595546539896
20
0.8534948565435622
11
0.4098963340358046
21
0.8521201610043416
0
LINE
8
Polygon
10
0.4098963340358046
20
0.8521201610043416
11
0.41064608633819943
21
0.8507820375759263
0
LINE
8
Polygon
10
0.41064608633819943
20
0.8507820375759263
11
0.4114632524344061
21
0.8494839842658382
0
LINE
8
Polygon
10
0.4114632524344061
20
0.8494839842658382
11
0.4123456961588883
21
0.8482293943337319
0
LINE
8
Polygon
10
0.4123456961588883
20
0.8482293943337319
11
0.4132911107029313
21
0.8470215474210264
0
LINE
8
Polygon
10
0.4132911107029313
20
0.8470215474210264
11
0.4142970246449038
21
0.8458636009775474
0
LINE
8
Polygon
10
0.4142970246449038
20
0.8458636009775474
11
0.4153608084108363
21
0.8447585820075931
0
LINE
8
Polygon
10
0.4153608084108363
20
0.8447585820075931
11
0.4164796811484277
21
0.843709379156999
0
LINE
8
Polygon
10
0.4164796811484277
20
0.843709379156999
11
0.4176507179965113
21
0.8427187351618873
0
LINE
8
Polygon
10
0.4176507179965113
20
0.8427187351618873
11
0.41887085773097565
21
0.8417892396788421
0
LINE
8
Polygon
10
0.41887085773097565
20
0.8417892396788421
11
0.42013691076715454
21
0.8409233225152504
0
LINE
8
Polygon
10
0.42013691076715454
20
0.8409233225152504
11
0.42144556749776524
21
0.8401232472775086
0
LINE
8
Polygon
10
0.42144556749776524
20
0.8401232472775086
11
0.4227934069446005
21
0.8393911054536964
0
LINE
8
Polygon
10
0.4227934069446005
20
0.8393911054536964
11
0.42417690570135624
21
0.8387288109461881
0
LINE
8
Polygon
10
0.42417690570135624
20
0.8387288109461881
11
0.4255924471442181
21
0.8381380950684932
0
LINE
8
Polygon
10
0.4255924471442181
20
0.8381380950684932
11
0.42703633088612947
21
0.8376205020194051
0
LINE
8
Polygon
10
0.42703633088612947
20
0.8376205020194051
11
0.4285047824500259
21
0.8371773848462888
0
LINE
8
Polygon
10
0.4285047824500259
20
0.8371773848462888
11
0.4299939631357493
21
0.8368099019080608
0
LINE
8
Polygon
10
0.4299939631357493
20
0.8368099019080608
11
0.43149998005484896
21
0.8365190138471065
0
LINE
8
Polygon
10
0.43149998005484896
20
0.8365190138471065
11
0.4330188963070366
21
0.8363054810780509
0
LINE
8
Polygon
10
0.4330188963070366
20
0.8363054810780509
11
0.43454674127169346
21
0.8361698617999486
0
LINE
8
Polygon
10
0.43454674127169346
20
0.8361698617999486
11
0.4360795209875263
21
0.8361125105370867
0
LINE
8
Polygon
10
0.4360795209875263
20
0.8361125105370867
11
0.43761322859323837
21
0.8361335772122189
0
LINE
8
Polygon
10
0.43761322859323837
20
0.8361335772122189
11
0.43914385480192303
21
0.8362330067546495
0
LINE
8
Polygon
10
0.43914385480192303
20
0.8362330067546495
11
0.44066739838179736
21
0.8364105392441947
0
LINE
8
Polygon
10
0.44066739838179736
20
0.8364105392441947
11
0.44217987661587926
21
0.8366657105906439
0
LINE
8
Polygon
10
0.44217987661587926
20
0.8366657105906439
11
0.44367733571326495
21
0.8369978537469442
0
LINE
8
Polygon
10
0.44367733571326495
20
0.8369978537469442
11
0.4451558611447897
21
0.837406100452938
0
LINE
8
Polygon
10
0.4451558611447897
20
0.837406100452938
11
0.44661158787605476
21
0.8378893835050936
0
LINE
8
Polygon
10
0.4466115878760547
20
0.8378893835050936
11
0.44804071047106825
21
0.8384464395462978
0
LINE
8
Polygon
10
0.44804071047106825
20
0.8384464395462978
11
0.44943949304009023
21
0.8390758123684157
0
LINE
8
Polygon
10
0.44943949304009023
20
0.8390758123684157
11
0.450804279005675
21
0.8397758567189845
0
LINE
8
Polygon
10
0.450804279005675
20
0.8397758567189845
11
0.4521315006613822
21
0.840544742602092
0
LINE
8
Polygon
10
0.4521315006613822
20
0.840544742602092
11
0.4534176884981694
21
0.841380460062195
0
LINE
8
Polygon
10
0.4534176884981694
20
0.841380460062195
11
0.4546594802740847
21
0.8422808244383724
0
LINE
8
Polygon
10
0.4546594802740847
20
0.8422808244383724
11
0.4558536298035518
21
0.8432434820752787
0
LINE
8
Polygon
10
0.4558536298035518
20
0.8432434820752787
11
0.45699701544326954
21
0.8442659164758676
0
LINE
8
Polygon
10
0.45699701544326954
20
0.8442659164758676
11
0.45808664825254436
21
0.8453454548798033
0
LINE
8
Polygon
10
0.45808664825254436
20
0.8453454548798033
11
0.45911967980672275
21
0.8464792752503612
0
LINE
8
Polygon
10
0.45911967980672275
20
0.8464792752503612
11
0.46009340964329865
21
0.8476644136515541
0
LINE
8
Polygon
10
0.46009340964329865
20
0.8476644136515541
11
0.46100529232123105
21
0.8488977719961999
0
LINE
8
Polygon
10
0.46100529232123105
20
0.8488977719961999
11
0.4618529440750176
21
0.8501761261446747
0
LINE
8
Polygon
10
0.4618529440750176
20
0.8501761261446747
11
0.46263414904613004
21
0.8514961343331833
0
LINE
8
Polygon
10
0.5875363353811921
20
0.628548682457857
11
0.6007951392870945
21
0.628595861002168
0
LINE
8
Polygon
10
0.6007951392870945
20
0.628595861002168
11
0.6139979798648992
21
0.6298136900161472
0
LINE
8
Polygon
10
0.6139979798648992
20
0.6298136900161472
11
0.6270417000311237
21
0.6321926542982346
0
LINE
8
Polygon
10
0.6270417000311237
20
0.6321926542982346
11
0.6398243859497124
21
0.6357141664076743
0
LINE
8
Polygon
10
0.6398243859497124
20
0.6357141664076743
11
0.6522461633102347
21
0.6403507118928209
0
LINE
8
Polygon
10
0.6522461633102347
20
0.6403507118928209
11
0.6642099776707594
21
0.646066064268407
0
LINE
8
Polygon
10
0.6642099776707595
20
0.6460660642684071
11
0.6756223527683958
21
0.6528155680620993
0
LINE
8
Polygon
10
0.6756223527683958
20
0.6528155680620993
11
0.6863941208726281
21
0.6605464877188323
0
LINE
8
Polygon
10
0.6863941208726281
20
0.6605464877188323
11
0.6964411194750146
21
0.6691984196368411
0
LINE
8
Polygon
10
0.6964411194750146
20
0.6691984196368411
11
0.7056848488718387
21
0.6787037641160543
0
LINE
8
Polygon
10
0.7056848488718387
20
0.6787037641160543
11
0.7140530855018553
21
0.6889882535313955
0
LINE
8
Polygon
10
0.7140530855018553
20
0.6889882535313955
11
0.7214804462469728
21
0.6999715326042455
0
LINE
8
Polygon
10
0.7214804462469728
20
0.6999715326042455
11
0.7279088992868472
21
0.7115677862382579
0
LINE
8
Polygon
10
0.7279088992868472
20
0.7115677862382579
11
0.7332882175159561
21
0.7236864100140913
0
LINE
8
Polygon
10
0.7332882175159561
20
0.7236864100140913
11
0.7375763709804898
21
0.7362327181043155
0
LINE
8
Polygon
10
0.7375763709804898
20
0.7362327181043155
11
0.7407398552688546
21
0.7491086830773761
0
LINE
8
Polygon
10
0.7407398552688546
20
0.7491086830773761
11
0.7427539532899889
21
0.7622137018103455
0
LINE
8
Polygon
10
0.7427539532899889
20
0.7622137018103455
11
0.7436029283941556
21
0.7754453815261912
0
LINE
8
Polygon
10
0.7436029283941556
20
0.7754453815261912
11
0.743280147327308
21
0.7887003398140585
0
LINE
8
Polygon
10
0.743280147327308
20
0.7887003398140585
11
0.7417881320583555
21
0.8018750123818087
0
LINE
8
Polygon
10
0.7417881320583555
20
0.8018750123818087
11
0.7391385400743935
21
0.814866462229641
0
LINE
8
Polygon
10
0.7391385400743935
20
0.814866462229641
11
0.7353520732978511
21
0.827573183922523
0
LINE
8
Polygon
10
0.7353520732978511
20
0.827573183922523
11
0.7304583163372125
21
0.839895896677449
0
LINE
8
Polygon
10
0.7304583163372125
20
0.839895896677449
11
0.7244955053350983
21
0.8517383200689379
0
LINE
8
Polygon
10
0.7244955053350983
20
0.8517383200689379
11
0.7175102292197555
21
0.8630079262919893
0
LINE
8
Polygon
10
0.7175102292197555
20
0.8630079262919893
11
0.7095570656941514
21
0.8736166631048816
0
LINE
8
Polygon
10
0.7095570656941514
20
0.8736166631048816
11
0.7006981548067801
21
0.8834816418032788
0
LINE
8
Polygon
10
0.7006981548067801
20
0.8834816418032788
11
0.691002713435978
21
0.8925257848503318
0
LINE
8
Polygon
10
0.6910027134359781
20
0.8925257848503318
11
0.6805464944812063
21
0.9006784281026818
0
LINE
8
Polygon
10
0.6805464944812063
20
0.9006784281026818
11
0.6694111949867694
21
0.9078758729270212
0
LINE
8
Polygon
10
0.6694111949867694
20
0.9078758729270213
11
0.6576838178224499
21
0.9140618838933884
0
LINE
8
Polygon
10
0.6576838178224499
20
0.9140618838933884
11
0.6454559919084065
21
0.9191881281565958
0
LINE
8
Polygon
10
0.6454559919084065
20
0.9191881281565958
11
0.6328232562955878
21
0.9232145530927938
0
LINE
8
Polygon
10
0.6328232562955878
20
0.9232145530927938
11
0.6198843136953188
21
0.9261096992406008
0
LINE
8
Polygon
10
0.6198843136953188
20
0.9261096992406008
11
0.6067402592904225
21
0.9278509461017158
0
LINE
8
Polygon
10
0.6067402592904225
20
0.9278509461017158
11
0.5934937908533634
21
0.9284246888805072
0
LINE
8
Polygon
10
0.5934937908533634
20
0.9284246888805072
11
0.5802484063429604
21
0.9278264447816719
0
LINE
8
Polygon
10
0.5802484063429604
20
0.9278264447816719
11
0.567107595249043
21
0.926060888035432
0
LINE
8
Polygon
10
0.5671075952490429
20
0.926060888035432
11
0.5541740300032788
21
0.9231418133766094
0
LINE
8
Polygon
10
0.5541740300032788
20
0.9231418133766094
11
0.5415487637738802
21
0.9190920282629247
0
LINE
8
Polygon
10
0.5415487637738802
20
0.9190920282629247
11
0.5293304409120183
21
0.913943174674647
0
LINE
8
Polygon
10
0.5293304409120183
20
0.913943174674647
11
0.5176145262189267
21
0.9077354818879172
0
LINE
8
Polygon
10
0.5176145262189267
20
0.9077354818879172
11
0.5064925590556202
21
0.9005174521533881
0
LINE
8
Polygon
10
0.5064925590556201
20
0.900517452153388
11
0.49605143812305574
21
0.8923454817360539
0
LINE
8
Polygon
10
0.49605143812305574
20
0.8923454817360539
11
0.4863727425009283
21
0.883283420277179
0
LINE
8
Polygon
10
0.4863727425009283
20
0.883283420277179
11
0.4775320942499913
21
0.8734020719211386
0
LINE
8
Polygon
10
0.47753209424999127
20
0.8734020719211386
11
0.4695985675580522
21
0.8627786421049961
0
LINE
8
Polygon
10
0.4695985675580522
20
0.8627786421049961
11
0.4626341490461301
21
0.8514961343331835
0
LINE
8
Polygon
10
0.587536335381192
20
0.628548682457857
11
0.5860026576250742
21
0.6285718204139037
0
LINE
8
Polygon
10
0.5860026576250742
20
0.6285718204139037
11
0.5844698018531325
21
0.6285165392503375
0
LINE
8
Polygon
10
0.5844698018531325
20
0.6285165392503375
11
0.5829417751254827
21
0.6283829834784356
0
LINE
8
Polygon
10
0.5829417751254827
20
0.6283829834784356
11
0.5814225718785675
21
0.6281715022282446
0
LINE
8
Polygon
10
0.5814225718785675
20
0.6281715022282446
11
0.5799161634832424
21
0.6278826483359141
0
LINE
8
Polygon
10
0.5799161634832424
20
0.6278826483359141
11
0.5784264878631594
21
0.6275171768985202
0
LINE
8
Polygon
10
0.5784264878631594
20
0.6275171768985202
11
0.5769574392005844
21
0.6270760433001549
0
LINE
8
Polygon
10
0.5769574392005844
20
0.6270760433001549
11
0.5755128577565592
21
0.626560400714444
0
LINE
8
Polygon
10
0.5755128577565592
20
0.626560400714444
11
0.5740965198320217
21
0.6259715970900183
0
LINE
8
Polygon
10
0.5740965198320217
20
0.6259715970900183
11
0.5727121278961224
21
0.6253111716268226
0
LINE
8
Polygon
10
0.5727121278961224
20
0.6253111716268226
11
0.5713633009075479
21
0.6245808507524712
0
LINE
8
Polygon
10
0.5713633009075479
20
0.6245808507524712
11
0.5700535648541494
21
0.6237825436091682
0
LINE
8
Polygon
10
0.5700535648541494
20
0.6237825436091682
11
0.5687863435356072
21
0.6229183370629928
0
LINE
8
Polygon
10
0.5687863435356072
20
0.6229183370629928
11
0.5675649496132275
21
0.6219904902485918
0
LINE
8
Polygon
10
0.5675649496132275
20
0.6219904902485918
11
0.566392575950267
21
0.621001428663544
0
LINE
8
Polygon
10
0.566392575950267
20
0.621001428663544
11
0.5652722872654242
21
0.6199537378278328
0
LINE
8
Polygon
10
0.5652722872654242
20
0.6199537378278328
11
0.5642070121213135
21
0.6188501565250009
0
LINE
8
Polygon
10
0.5642070121213135
20
0.6188501565250009
11
0.5631995352688689
21
0.6176935696426575
0
LINE
8
Polygon
10
0.5631995352688689
20
0.6176935696426575
11
0.5622524903676865
21
0.6164870006310528
0
LINE
8
Polygon
10
0.5622524903676865
20
0.6164870006310528
11
0.5613683531013376
21
0.615233603599433
0
LINE
8
Polygon
10
0.5613683531013376
20
0.615233603599433
11
0.5605494347056486
21
0.6139366550708388
0
LINE
8
Polygon
10
0.5605494347056486
20
0.6139366550708388
11
0.5597978759268669
21
0.6125995454169
0
LINE
8
Polygon
10
0.5597978759268669
20
0.6125995454169
11
0.5591156414255056
21
0.611225769995016
0
LINE
8
Polygon
10
0.5591156414255056
20
0.611225769995016
11
0.5585045146404962
21
0.609818920011093
0
LINE
8
Polygon
10
0.5585045146404962
20
0.6098189200110928
11
0.5579660931270758
21
0.6083826731317207
0
LINE
8
Polygon
10
0.5579660931270758
20
0.6083826731317207
11
0.5575017843805947
21
0.6069207838703328
0
LINE
8
Polygon
10
0.5575017843805947
20
0.6069207838703328
11
0.5571128021571635
21
0.6054370737724785
0
LINE
8
Polygon
10
0.5571128021571635
20
0.6054370737724785
11
0.5568001633007552
21
0.6039354214258669
0
LINE
8
Polygon
10
0.5568001633007552
20
0.6039354214258669
11
0.5565646850850593
21
0.6024197523212952
0
LINE
8
Polygon
10
0.5565646850850593
20
0.6024197523212952
11
0.556406983077035
21
0.6008940285909674
0
LINE
8
Polygon
10
0.556406983077035
20
0.6008940285909674
11
0.5563274695277485
21
0.5993622386510278
0
LINE
8
Polygon
10
0.5563274695277485
20
0.5993622386510278
11
0.5563263522947022
21
0.5978283867753857
0
LINE
8
Polygon
10
0.5563263522947022
20
0.5978283867753857
11
0.5564036342984708
21
0.5962964826280861
0
LINE
8
Polygon
10
0.5564036342984708
20
0.5962964826280861
11
0.5565591135150671
21
0.5947705307815894
0
LINE
8
Polygon
10
0.5565591135150671
20
0.5947705307815894
11
0.5567923835040555
21
0.5932545202483616
0
LINE
8
Polygon
10
0.5567923835040555
20
0.5932545202483616
11
0.5571028344710336
21
0.5917524140531402
0
LINE
8
Polygon
10
0.5571028344710336
20
0.5917524140531402
11
0.557489654861705
21
0.5902681388731343
0
LINE
8
Polygon
10
0.557489654861705
20
0.5902681388731343
11
0.5579518334833744
21
0.5888055747732426
0
LINE
8
Polygon
10
0.5579518334833744
20
0.5888055747732426
11
0.5584881621483211
21
0.5873685450631194
0
LINE
8
Polygon
10
0.5584881621483211
20
0.5873685450631194
11
0.5590972388321394
21
0.5859608063026069
0
LINE
8
Polygon
10
0.5590972388321394
20
0.5859608063026069
11
0.5597774713387912
21
0.5845860384816588
0
LINE
8
Polygon
10
0.5597774713387912
20
0.5845860384816588
11
0.5605270814627878
21
0.5832478354004256
0
LINE
8
Polygon
10
0.5605270814627878
20
0.5832478354004256
11
0.5613441096376225
21
0.5819496952746508
0
LINE
8
Polygon
10
0.5613441096376225
20
0.5819496952746508
11
0.5622264200583011
21
0.5806950115909352
0
LINE
8
Polygon
10
0.5622264200583011
20
0.5806950115909351
11
0.5631717062645804
21
0.5794870642357749
0
LINE
8
Polygon
10
0.5631717062645804
20
0.5794870642357749
11
0.5641774971703184
21
0.5783290109215641
0
LINE
8
Polygon
10
0.5641774971703184
20
0.5783290109215641
11
0.5652411635231767
21
0.5772238789319729
0
LINE
8
Polygon
10
0.5652411635231767
20
0.5772238789319729
11
0.5663599247777852
21
0.5761745572082833
0
LINE
8
Polygon
10
0.5663599247777852
20
0.5761745572082833
11
0.572058444170086
21
0.5711742227573955
0
LINE
8
Polygon
10
0.572058444170086
20
0.5711742227573955
11
0.5778321246293339
21
0.5662608652658568
0
LINE
8
Polygon
10
0.5778321246293339
20
0.5662608652658568
11
0.5836796387524911
21
0.5614356143434032
0
LINE
8
Polygon
10
0.5836796387524911
20
0.5614356143434032
11
0.5895996421617267
21
0.5566995793435535
0
LINE
8
Polygon
10
0.5895996421617264
20
0.5566995793435536
11
0.5955907738134971
21
0.5520538491085621
0
LINE
8
Polygon
10
0.5955907738134971
20
0.5520538491085621
11
0.6016516563114588
21
0.5474994917190874
0
LINE
8
Polygon
10
0.6016516563114588
20
0.5474994917190874
11
0.6077808962231387
21
0.5430375542486344
0
LINE
8
Polygon
10
0.6077808962231387
20
0.5430375542486344
11
0.6139770844002929
21
0.5386690625228261
0
LINE
8
Polygon
10
0.6139770844002929
20
0.5386690625228261
11
0.6202387963028784
21
0.53439502088356
0
LINE
8
Polygon
10
0.6202387963028784
20
0.53439502088356
11
0.6265645923265628
21
0.530216411958104
0
LINE
8
Polygon
10
0.6265645923265628
20
0.530216411958104
11
0.6329530181336982
21
0.5261341964331852
0
LINE
8
Polygon
10
0.632953018133698
20
0.5261341964331854
11
0.6394026049876814
21
0.5221493128341217
0
LINE
8
Polygon
10
0.6394026049876814
20
0.5221493128341217
11
0.6459118700906261
21
0.51826267730905
0
LINE
8
Polygon
10
0.6459118700906261
20
0.51826267730905
11
0.6524793169242653
21
0.514475183418298
0
LINE
8
Polygon
10
0.6524793169242653
20
0.514475183418298
11
0.6591034355940112
21
0.5107877019289497
0
LINE
8
Polygon
10
0.6591034355940112
20
0.5107877019289497
11
0.6657827031760877
21
0.5072010806146507
0
LINE
8
Polygon
10
0.6657827031760877
20
0.5072010806146507
11
0.67251558406766
21
0.5037161440607001
0
LINE
8
Polygon
10
0.67251558406766
20
0.5037161440607001
11
0.6793005303398789
21
0.5003336934744735
0
LINE
8
Polygon
10
0.6793005303398788
20
0.5003336934744737
11
0.6861359820937583
21
0.49705450650122124
0
LINE
8
Polygon
10
0.6861359820937583
20
0.49705450650122124
11
0.6930203678188053
21
0.49387933704528186
0
LINE
8
Polygon
10
0.6930203678188053
20
0.49387933704528186
11
0.6999521047543198
21
0.49080891509675667
0
LINE
8
Polygon
10
0.6999521047543198
20
0.49080891509675667
11
0.7069295992532804
21
0.48784394656367974
0
LINE
8
Polygon
10
0.7069295992532804
20
0.48784394656367974
11
0.713951247148733
21
0.4849851131097257
0
LINE
8
Polygon
10
0.713951247148733
20
0.48498511310972575
11
0.7210154341225987
21
0.48223307199749144
0
LINE
8
Polygon
10
0.7210154341225987
20
0.48223307199749144
11
0.7281205360768145
21
0.4795884559373873
0
LINE
8
Polygon
10
0.7281205360768145
20
0.4795884559373873
11
0.7352649195067231
21
0.4770518729421735
0
LINE
8
Polygon
10
0.7352649195067231
20
0.47705187294217355
11
0.7424469418766256
21
0.47462390618717437
0
LINE
8
Polygon
10
0.7424469418766256
20
0.47462390618717437
11
0.7496649519974097
21
0.47230511387620266
0
LINE
8
Polygon
10
0.7496649519974097
20
0.47230511387620266
11
0.7569172904061675
21
0.4700960291132256
0
LINE
8
Polygon
10
0.7569172904061675
20
0.4700960291132256
11
0.7642022897477166
21
0.467997159779801
0
LINE
8
Polygon
10
0.7642022897477165
20
0.46799715977980105
11
0.7715182751579341
21
0.4660089884183121
0
LINE
8
Polygon
10
0.7715182751579341
20
0.4660089884183121
11
0.7788635646488183
21
0.46413197212102864
0
LINE
8
Polygon
10
0.7788635646488183
20
0.46413197212102864
11
0.786236469495187
21
0.46236654242501823
0
LINE
8
Polygon
10
0.7862364694951869
20
0.46236654242501823
11
0.7936352946229256
21
0.46071310521293385
0
LINE
8
Polygon
10
0.7936352946229256
20
0.46071310521293385
11
0.8010583389986947
21
0.45917204061969874
0
LINE
8
Polygon
10
0.8010583389986947
20
0.45917204061969874
11
0.8085038960210079
21
0.45774370294511135
0
LINE
8
Polygon
10
0.8085038960210079
20
0.45774370294511135
11
0.8159702539125886
21
0.4564284205723896
0
LINE
8
Polygon
10
0.8159702539125886
20
0.4564284205723896
11
0.8234556961139186
21
0.4552264958926737
0
LINE
8
Polygon
10
0.8234556961139184
20
0.4552264958926737
11
0.8309585016778845
21
0.4541382052355047
0
LINE
8
Polygon
10
0.8309585016778844
20
0.4541382052355047
11
0.8384769456654344
21
0.45316379880529456
0
LINE
8
Polygon
10
0.8384769456654344
20
0.45316379880529456
11
0.8460092995421508
21
0.45230350062380287
0
LINE
8
Polygon
10
0.8460092995421508
20
0.45230350062380287
11
0.8535538315756507
21
0.4515575084786329
0
LINE
8
Polygon
10
0.8535538315756507
20
0.4515575084786329
11
0.8611088072337216
21
0.45092599387775884
0
LINE
8
Polygon
10
0.8611088072337216
20
0.45092599387775884
11
0.8686724895831005
21
0.4504091020100955
0
LINE
8
Polygon
10
0.8686724895831005
20
0.4504091020100955
11
0.8762431396888047
21
0.45000695171211813
0
LINE
8
Polygon
10
0.8762431396888046
20
0.45000695171211813
11
0.8838190170139234
21
0.4497196354405415
0
LINE
8
Polygon
10
0.8838190170139233
20
0.44971963544054155
11
0.8913983798197775
21
0.4495472192510635
0
LINE
8
Polygon
10
0.8913983798197775
20
0.4495472192510635
11
0.8989794855663558
21
0.4494897427831783
0
LINE
8
Polygon
10
0.8989794855663558
20
0.4494897427831783
11
0.9019126162371003
21
0.44949834611272727
0
LINE
8
Polygon
10
0.9019126162371003
20
0.44949834611272727
11
0.9048456459690857
21
0.44952415580530497
0
LINE
8
Polygon
10
0.9048456459690857
20
0.44952415580530497
11
0.9077784738270265
21
0.44956717097271426
0
LINE
8
Polygon
10
0.9077784738270265
20
0.44956717097271426
11
0.9107109988825846
21
0.4496273901346605
0
LINE
8
Polygon
10
0.9107109988825846
20
0.4496273901346605
11
0.9136431202178419
21
0.44970481121880257
0
LINE
8
Polygon
10
0.9136431202178419
20
0.44970481121880257
11
0.9165747369287741
21
0.449799431560824
0
LINE
8
Polygon
10
0.9165747369287741
20
0.449799431560824
11
0.9195057481287224
21
0.44991124790452486
0
LINE
8
Polygon
10
0.9195057481287224
20
0.44991124790452486
11
0.9224360529518658
21
0.45004025640193374
0
LINE
8
Polygon
10
0.9224360529518658
20
0.45004025640193374
11
0.925365550556692
21
0.45018645261344015
0
LINE
8
Polygon
10
0.925365550556692
20
0.45018645261344015
11
0.9282941401294678
21
0.4503498315079474
0
LINE
8
Polygon
10
0.9282941401294678
20
0.4503498315079474
11
0.9312217208877083
21
0.4505303874630455
0
LINE
8
Polygon
10
0.9312217208877083
20
0.4505303874630455
11
0.9341481920836452
21
0.45072811426520504
0
LINE
8
Polygon
10
0.9341481920836452
20
0.45072811426520504
11
0.9370734530076943
21
0.45094300510999064
0
LINE
8
Polygon
10
0.9370734530076943
20
0.45094300510999064
11
0.9399974029919205
21
0.4511750526022952
0
LINE
8
Polygon
10
0.9399974029919205
20
0.4511750526022952
11
0.9429199414135025
21
0.4514242487565946
0
LINE
8
Polygon
10
0.9429199414135025
20
0.4514242487565946
11
0.9458409676981959
21
0.4516905849972222
0
LINE
8
Polygon
10
0.9458409676981959
20
0.4516905849972222
11
0.9487603813237936
21
0.4519740521586643
0
LINE
8
Polygon
10
0.9487603813237936
20
0.4519740521586643
11
0.9516780818235855
21
0.4522746404858753
0
LINE
8
Polygon
10
0.9516780818235855
20
0.4522746404858753
11
0.9545939687898158
21
0.45259233963461337
0
LINE
8
Polygon
10
0.9545939687898158
20
0.45259233963461337
11
0.9575079418771388
21
0.4529271386717967
0
LINE
8
Polygon
10
0.9575079418771388
20
0.4529271386717967
11
0.9604199008060712
21
0.45327902607587933
0
LINE
8
Polygon
10
0.9604199008060712
20
0.45327902607587933
11
0.9633297453664439
21
0.4536479897372482
0
LINE
8
Polygon
10
0.9633297453664439
20
0.4536479897372482
11
0.9662373754208501
21
0.4540340169586394
0
LINE
8
Polygon
10
0.96623737542085
20
0.4540340169586394
11
0.9691426909080915
21
0.4544370944555753
0
LINE
8
Polygon
10
0.9691426909080916
20
0.4544370944555753
11
0.972045591846622
21
0.45485720835682175
0
LINE
8
Polygon
10
0.9720455918466219
20
0.4548572083568217
11
0.9749459783379875
21
0.45529434420486536
0
LINE
8
Polygon
10
0.9749459783379876
20
0.45529434420486536
11
0.9778437505702653
21
0.4557484869564112
0
LINE
8
Polygon
10
0.9778437505702652
20
0.4557484869564111
11
0.980738808821497
21
0.4562196209829001
0
LINE
8
Polygon
10
0.9807388088214971
20
0.4562196209829001
11
0.9836310534631223
21
0.45670773007104704
0
LINE
8
Polygon
10
0.9836310534631222
20
0.45670773007104704
11
0.9865203849634055
21
0.45721279742339854
0
LINE
8
Polygon
10
0.9865203849634055
20
0.45721279742339854
11
0.9894067038908628
21
0.45773480565891117
0
LINE
8
Polygon
10
0.9894067038908628
20
0.45773480565891117
11
0.9922899109176824
21
0.45827373681354944
0
LINE
8
Polygon
10
0.9922899109176824
20
0.45827373681354944
11
0.9951699068231433
21
0.45882957234090394
0
LINE
8
Polygon
10
0.9951699068231433
20
0.45882957234090394
11
0.9980465924970301
21
0.4594022931128299
0
LINE
8
Polygon
10
0.9980465924970301
20
0.4594022931128299
11
1.0009198689430434
21
0.45999187942010505
0
LINE
8
Polygon
10
1.0009198689430434
20
0.45999187942010505
11
1.0037896372822066
21
0.4605983109731083
0
LINE
8
Polygon
10
1.0037896372822066
20
0.4605983109731083
11
1.0066557987562685
21
0.46122156690251764
0
LINE
8
Polygon
10
1.0066557987562685
20
0.46122156690251764
11
1.0095182547311026
21
0.46186162576002837
0
LINE
8
Polygon
10
1.0095182547311026
20
0.46186162576002837
11
1.0123769067001005
21
0.4625184655190915
0
LINE
8
Polygon
10
1.0123769067001005
20
0.4625184655190915
11
1.0152316562875623
21
0.4631920635756712
0
LINE
8
Polygon
10
1.0152316562875623
20
0.4631920635756712
11
1.018082405252082
21
0.46388239674902343
0
LINE
8
Polygon
10
1.018082405252082
20
0.46388239674902343
11
1.0209290554899286
21
0.4645894412824929
0
LINE
8
Polygon
10
1.0209290554899286
20
0.4645894412824929
11
1.0237715090384216
21
0.46531317284433116
0
LINE
8
Polygon
10
1.0237715090384216
20
0.46531317284433116
11
1.0266096680793027
21
0.46605356652853364
0
LINE
8
Polygon
10
1.0266096680793027
20
0.46605356652853364
11
1.0294434349421013
21
0.4668105968556969
0
LINE
8
Polygon
10
1.0294434349421013
20
0.4668105968556969
11
1.032272712107497
21
0.46758423777389546
0
LINE
8
Polygon
10
1.032272712107497
20
0.46758423777389546
11
1.0350974022106747
21
0.46837446265957816
0
LINE
8
Polygon
10
1.0350974022106747
20
0.46837446265957816
11
1.0379174080446745
21
0.4691812443184846
0
LINE
8
Polygon
10
1.0379174080446745
20
0.4691812443184846
11
1.0392344781678005
21
0.4695300235887438
0
LINE
8
Polygon
10
1.0392344781678005
20
0.4695300235887438
11
1.040566025953013
21
0.4698186430341901
0
LINE
8
Polygon
10
1.040566025953013
20
0.4698186430341901
11
1.0419093049784212
21
0.4700465073545483
0
LINE
8
Polygon
10
1.0419093049784212
20
0.4700465073545483
11
1.0432615446255302
21
0.4702131465617605
0
LINE
8
Polygon
10
1.0432615446255302
20
0.4702131465617605
11
1.0446199557938591
21
0.47031821694937354
0
LINE
8
Polygon
10
1.0446199557938591
20
0.47031821694937354
11
1.0459817366536797
21
0.4703615018014604
0
LINE
8
Polygon
10
1.0459817366536797
20
0.4703615018014604
11
1.0473440784250103
21
0.4703429118396141
0
LINE
8
Polygon
10
1.0473440784250103
20
0.4703429118396141
11
1.0487041711709455
21
0.47026248540709076
0
LINE
8
Polygon
10
1.0487041711709455
20
0.47026248540709076
11
1.050059209593371
21
0.47012038838972464
0
LINE
8
Polygon
10
1.050059209593371
20
0.47012038838972464
11
1.051406398819112
21
0.46991691387377466
0
LINE
8
Polygon
10
1.051406398819112
20
0.46991691387377466
11
1.0527429601645786
21
0.4696524815414114
0
LINE
8
Polygon
10
1.0527429601645786
20
0.4696524815414114
11
1.0540661368670177
21
0.46932763680508977
0
LINE
8
Polygon
10
1.0540661368670177
20
0.46932763680508977
11
1.0553731997705549
21
0.4689430496825926
0
LINE
8
Polygon
10
1.0553731997705549
20
0.4689430496825926
11
1.0566614529552911
21
0.46849951341506657
0
LINE
8
Polygon
10
1.0566614529552911
20
0.46849951341506657
11
1.0579282392978497
21
0.4679979428309001
0
LINE
8
Polygon
10
1.0579282392978497
20
0.4679979428309001
11
1.059170945951902
21
0.46743937245881795
0
LINE
8
Polygon
10
1.059170945951902
20
0.46743937245881795
11
1.0603870097373682
21
0.4668249543940841
0
LINE
8
Polygon
10
1.0603870097373682
20
0.4668249543940841
11
1.0615739224271779
21
0.4661559559222153
0
LINE
8
Polygon
10
1.0615739224271779
20
0.4661559559222153
11
1.0627292359206846
21
0.46543375690510486
0
LINE
8
Polygon
10
1.0627292359206846
20
0.46543375690510486
11
1.0638505672930663
21
0.4646598469349491
0
LINE
8
Polygon
10
1.0638505672930663
20
0.4646598469349491
11
1.0649356037102948
21
0.46383582226184666
0
LINE
8
Polygon
10
1.0649356037102948
20
0.46383582226184666
11
1.065982107199538
21
0.46296338250140706
0
LINE
8
Polygon
10
1.065982107199538
20
0.4629633825014071
11
1.0669879192651535
21
0.46204432712916016
0
LINE
8
Polygon
10
1.0669879192651535
20
0.46204432712916016
11
1.067950965340757
21
0.4610805517689964
0
LINE
8
Polygon
10
1.067950965340757
20
0.4610805517689964
11
1.068869259068177
21
0.46007404428329396
0
LINE
8
Polygon
10
1.068869259068177
20
0.46007404428329396
11
1.069740906394475
21
0.45902688067279596
0
LINE
8
Polygon
10
1.069740906394475
20
0.45902688067279596
11
1.0705641094785792
21
0.45794122079469635
0
LINE
8
Polygon
10
1.0705641094785792
20
0.45794122079469635
11
1.0713371703994716
21
0.45681930390776454
0
LINE
8
Polygon
10
1.0713371703994716
20
0.45681930390776454
11
1.0720584946582847
21
0.45566344405369846
0
LINE
8
Polygon
10
1.0720584946582847
20
0.45566344405369846
11
1.0727265944670796
21
0.45447602528423164
0
LINE
8
Polygon
10
1.0727265944670796
20
0.45447602528423164
11
1.0733400918175264
21
0.4532594967438394
0
LINE
8
Polygon
10
1.0733400918175262
20
0.4532594967438395
11
1.0738977213231535
21
0.4520163676181861
0
LINE
8
Polygon
10
1.0738977213231535
20
0.4520163676181861
11
1.0743983328293083
21
0.4507492019587321
0
LINE
8
Polygon
10
1.0743983328293083
20
0.4507492019587321
11
1.0748408937854395
21
0.44946061339417703
0
LINE
8
Polygon
10
1.0748408937854395
20
0.44946061339417703
11
1.0752244913748152
21
0.44815325973964465
0
LINE
8
Polygon
10
1.0752244913748152
20
0.44815325973964465
11
1.0755483343972783
21
0.4468298375147309
0
LINE
8
Polygon
10
1.0755483343972783
20
0.4468298375147309
11
1.0758117549011597
21
0.4454930763817199
0
LINE
8
Polygon
10
1.0758117549011597
20
0.4454930763817199
11
1.07601420956098
21
0.4441457335154417
0
LINE
8
Polygon
10
1.07601420956098
20
0.4441457335154417
11
1.0761552807981023
21
0.44279058791638204
0
LINE
8
Polygon
10
1.0761552807981023
20
0.44279058791638204
11
1.0762346776420195
21
0.4414304346787761
0
LINE
8
Polygon
10
1.0762346776420195
20
0.4414304346787761
11
1.0762522363305054
21
0.44006807922550684
0
LINE
8
Polygon
10
1.0762522363305054
20
0.44006807922550684
11
1.0762079206473854
21
0.4387063315216999
0
LINE
8
Polygon
10
1.0762079206473854
20
0.4387063315216999
11
1.0761018219972371
21
0.43734800027894993
0
LINE
8
Polygon
10
1.0761018219972371
20
0.43734800027894993
11
1.0759341592168594
21
0.43599588716213244
0
LINE
8
Polygon
10
1.0759341592168594
20
0.43599588716213244
11
1.0757052781239056
21
0.4346527810107497
0
LINE
8
Polygon
10
1.0757052781239056
20
0.4346527810107497
11
1.075415650803607
21
0.43332145208673034
0
LINE
8
Polygon
10
1.075415650803607
20
0.4333214520867304
11
1.0750658746350599
21
0.4320046463605466
0
LINE
8
Polygon
10
1.0750658746350599
20
0.4320046463605466
11
1.0746566710590841
21
0.4307050798474344
0
LINE
8
Polygon
10
1.0746566710590844
20
0.43070507984743434
11
1.0705323709846482
21
0.4162298666239187
0
LINE
8
Polygon
10
1.0705323709846482
20
0.4162298666239187
11
1.067879476423415
21
0.40141420601032424
0
LINE
8
Polygon
10
1.067879476423415
20
0.40141420601032424
11
1.0667246980913156
21
0.3864072697482503
0
LINE
8
Polygon
10
1.0667246980913156
20
0.3864072697482503
11
1.0670796628944637
21
0.3713601554415547
0
LINE
8
Polygon
10
1.0670796628944637
20
0.37136015544155465
11
1.0689407968634441
21
0.35642436522745
0
LINE
8
Polygon
10
1.0689407968634441
20
0.35642436522745
11
1.0722893611378888
21
0.3417502803745487
0
LINE
8
Polygon
10
1.0722893611378888
20
0.3417502803745487
11
1.0770916406390234
21
0.327485647166393
0
LINE
8
Polygon
10
1.0770916406390234
20
0.327485647166393
11
1.083299283530537
21
0.31377408931538003
0
LINE
8
Polygon
10
1.083299283530537
20
0.31377408931538003
11
1.0908497880499024
21
0.3007536618848661
0
LINE
8
Polygon
10
1.0908497880499024
20
0.3007536618848661
11
1.0996671318084805
21
0.2885554612793137
0
LINE
8
Polygon
10
1.0996671318084805
20
0.2885554612793137
11
1.109662537224289
21
0.27730230529781846
0
LINE
8
Polygon
10
1.109662537224289
20
0.27730230529781846
11
1.1207353653806602
21
0.2671074965409212
0
LINE
8
Polygon
10
1.1207353653806602
20
0.2671074965409212
11
1.1327741293109581
21
0.2580736816213651
0
LINE
8
Polygon
10
1.1327741293109581
20
0.2580736816213651
11
1.145657616507079
21
0.25029181766485553
0
LINE
8
Polygon
10
1.1456576165070793
20
0.25029181766485553
11
1.1592561093497389
21
0.2438402565066266
0
LINE
8
Polygon
10
1.1592561093497389
20
0.2438402565066266
11
1.1734326911726225
21
0.23878395580459916
0
LINE
8
Polygon
10
1.1734326911726225
20
0.23878395580459916
11
1.188044624810267
21
0.2351738250120499
0
LINE
8
Polygon
10
1.188044624810267
20
0.2351738250120499
11
1.2029447897497425
21
0.2330462127948785
0
LINE
8
Polygon
10
1.2029447897497425
20
0.2330462127948785
11
1.2179831634161464
21
0.23242254105442037
0
LINE
8
Polygon
10
1.2179831634161464
20
0.23242254105442037
11
1.2330083316775577
21
0.2333090892406533
0
LINE
8
Polygon
10
1.2330083316775577
20
0.2333090892406533
11
1.24786901336091
21
0.2356969311274439
0
LINE
8
Polygon
10
1.2478690133609103
20
0.23569693112744391
11
1.262415583429165
21
0.2395620246864138
0
LINE
8
Polygon
10
1.262415583429165
20
0.2395620246864138
11
1.27650157948365
21
0.24486545415452862
0
LINE
8
Polygon
10
1.27650157948365
20
0.24486545415452862
11
1.2899851764233177
21
0.2515538218581482
0
LINE
8
Polygon
10
1.2899851764233177
20
0.2515538218581482
11
1.3027306144132895
21
0.25955978584845035
0
LINE
8
Polygon
10
1.3027306144132895
20
0.25955978584845035
11
1.3146095657851617
21
0.26880273793503695
0
LINE
8
Polygon
10
1.3146095657851617
20
0.26880273793503695
11
1.3255024271064082
21
0.2791896152909281
0
LINE
8
Polygon
10
1.3255024271064082
20
0.2791896152909281
11
1.3352995234096643
21
0.2906158374572858
0
LINE
8
Polygon
10
1.3352995234096643
20
0.29061583745728586
11
1.343902212457078
21
0.30296635931361815
0
LINE
8
Polygon
10
1.343902212457078
20
0.30296635931361815
11
1.351223877921433
21
0.3161168294116151
0
LINE
8
Polygon
10
1.351223877921433
20
0.3161168294116151
11
1.357190801484173
21
0.32993484200991063
0
LINE
8
Polygon
10
1.357190801484173
20
0.32993484200991063
11
1.3617429050696013
21
0.34428127020363775
0
LINE
8
Polygon
10
1.361742905069601
20
0.3442812702036377
11
1.36483435574205
21
0.35901166672613677
0
LINE
8
Polygon
10
1.36483435574205
20
0.35901166672613677
11
1.3664340271756057
21
0.37397771831882154
0
LINE
8
Polygon
10
1.3664340271756057
20
0.37397771831882154
11
1.3665258130500746
21
0.3890287390258528
0
LINE
8
Polygon
10
1.3665258130500746
20
0.3890287390258528
11
1.365108789217752
21
0.404013187378357
0
LINE
8
Polygon
10
1.365108789217752
20
0.40401318737835695
11
1.3621972230082204
21
0.41878019219239254
0
LINE
8
Polygon
10
1.3621972230082204
20
0.4187801921923926
11
1.357820429577488
21
0.4331810716181407
0
LINE
8
Polygon
10
1.357820429577488
20
0.4331810716181407
11
1.352022476747822
21
0.4470708301457466
0
LINE
8
Polygon
10
1.352022476747822
20
0.4470708301457466
11
1.3448617413100967
21
0.46030961849518187
0
LINE
8
Polygon
10
1.3448617413100967
20
0.4603096184951818
11
1.3364103212560414
21
0.4727641416911998
0
LINE
8
Polygon
10
1.3364103212560414
20
0.47276414169119985
11
1.326753309858331
21
0.48430900114615766
0
LINE
8
Polygon
10
1.326753309858331
20
0.48430900114615766
11
1.3159879389074616
21
0.4948279572379195
0
LINE
8
Polygon
10
1.3159879389074616
20
0.4948279572379195
11
1.3042225997317436
21
0.5042150996705532
0
LINE
8
Polygon
10
1.3042225997317436
20
0.5042150996705532
11
1.291575751857291
21
0.5123759138340229
0
LINE
8
Polygon
10
1.291575751857291
20
0.5123759138340229
11
1.2781747302961814
21
0.5192282324262161
0
LINE
8
Polygon
10
1.2781747302961814
20
0.5192282324262161
11
1.2641544634716304
21
0.5247030627558819
0
LINE
8
Polygon
10
1.2641544634716304
20
0.5247030627558819
11
1.2496561146887681
21
0.5287452813967662
0
LINE
8
Polygon
10
1.2496561146887684
20
0.5287452813967664
11
1.2483341410446358
21
0.5290749878917165
0
LINE
8
Polygon
10
1.2483341410446358
20
0.5290749878917165
11
1.247028500701552
21
0.5294643771354123
0
LINE
8
Polygon
10
1.247028500701552
20
0.5294643771354123
11
1.2457418866452736
21
0.5299126459819549
0
LINE
8
Polygon
10
1.2457418866452736
20
0.5299126459819549
11
1.244476952618346
21
0.5304188698416401
0
LINE
8
Polygon
10
1.244476952618346
20
0.5304188698416401
11
1.2432363076465511
21
0.5309820045879969
0
LINE
8
Polygon
10
1.2432363076465511
20
0.5309820045879969
11
1.2420225106575875
21
0.5316008887113808
0
LINE
8
Polygon
10
1.2420225106575875
20
0.5316008887113808
11
1.2408380652030797
21
0.5322742457146784
0
LINE
8
Polygon
10
1.24083806520308
20
0.5322742457146783
11
1.2396854142948077
21
0.5330006867461828
0
LINE
8
Polygon
10
1.2396854142948077
20
0.5330006867461828
11
1.238566935365802
21
0.53377871346421
0
LINE
8
Polygon
10
1.238566935365802
20
0.53377871346421
11
1.2374849353667023
21
0.5346067211275454
0
LINE
8
Polygon
10
1.2374849353667023
20
0.5346067211275454
11
1.2364416460074903
21
0.5354830019053494
0
LINE
8
Polygon
10
1.2364416460074903
20
0.5354830019053494
11
1.2354392191544121
21
0.5364057483996921
0
LINE
8
Polygon
10
1.2354392191544121
20
0.5364057483996921
11
1.2344797223915858
21
0.5373730573734538
0
LINE
8
Polygon
10
1.2344797223915858
20
0.5373730573734538
11
1.2335651347564465
21
0.5383829336759008
0
LINE
8
Polygon
10
1.2335651347564465
20
0.5383829336759008
11
1.2326973426578258
21
0.5394332943578408
0
LINE
8
Polygon
10
1.2326973426578258
20
0.5394332943578408
11
1.231878135985086
21
0.5405219729678689
0
LINE
8
Polygon
10
1.231878135985086
20
0.5405219729678689
11
1.2311092044163328
21
0.5416467240208439
0
LINE
8
Polygon
10
1.2311092044163328
20
0.5416467240208439
11
1.2303921339333206
21
0.5428052276293779
0
LINE
8
Polygon
10
1.2303921339333206
20
0.5428052276293779
11
1.2297284035502414
21
0.5439950942887861
0
LINE
8
Polygon
10
1.2297284035502414
20
0.5439950942887861
11
1.2291193822631414
21
0.545213869805628
0
LINE
8
Polygon
10
1.2291193822631414
20
0.545213869805628
11
1.2285663262262598
21
0.5464590403596739
0
LINE
8
Polygon
10
1.2285663262262598
20
0.5464590403596739
11
1.2280703761611114
21
0.5477280376888567
0
LINE
8
Polygon
10
1.2280703761611114
20
0.5477280376888567
11
1.2276325550036586
21
0.5490182443865143
0
LINE
8
Polygon
10
1.2276325550036586
20
0.5490182443865143
11
1.2272537657944267
21
0.5503269992999963
0
LINE
8
Polygon
10
1.2272537657944267
20
0.5503269992999963
11
1.2269347898159106
21
0.5516516030195002
0
LINE
8
Polygon
10
1.2269347898159106
20
0.5516516030195002
11
1.2266762849811197
21
0.5529893234458164
0
LINE
8
Polygon
10
1.2266762849811197
20
0.5529893234458164
11
1.226478784476579
21
0.5543374014254971
0
LINE
8
Polygon
10
1.226478784476579
20
0.5543374014254971
11
1.2263426956625916
21
0.5556930564418273
0
LINE
8
Polygon
10
1.2263426956625916
20
0.5556930564418273
11
1.2262682992330252
21
0.5570534923498589
0
LINE
8
Polygon
10
1.2262682992330252
20
0.5570534923498589
11
1.226255748636359
21
0.558415903143679
0
LINE
8
Polygon
10
1.226255748636359
20
0.5584159031436788
11
1.2263050697591844
21
0.5597774787440174
0
LINE
8
Polygon
10
1.2263050697591844
20
0.5597774787440174
11
1.226416160872812
21
0.5611354107942566
0
LINE
8
Polygon
10
1.226416160872812
20
0.5611354107942566
11
1.2265887928430939
21
0.562486898452887
0
LINE
8
Polygon
10
1.2265887928430939
20
0.562486898452887
11
1.226822609603033
21
0.5638291541704631
0
LINE
8
Polygon
10
1.226822609603033
20
0.5638291541704631
11
1.2271171288871972
21
0.5651594094391424
0
LINE
8
Polygon
10
1.2271171288871972
20
0.5651594094391424
11
1.2274717432264302
21
0.5664749205029516
0
LINE
8
Polygon
10
1.2274717432264302
20
0.5664749205029516
11
1.2278857212008052
21
0.5677729740169972
0
LINE
8
Polygon
10
1.2278857212008052
20
0.5677729740169972
11
1.2283582089482348
21
0.5690508926439539
0
LINE
8
Polygon
10
1.2283582089482348
20
0.5690508926439539
11
1.2288882319256296
21
0.570306040576282
0
LINE
8
Polygon
10
1.2288882319256296
20
0.570306040576282
11
1.229474696918969
21
0.5715358289727882
0
LINE
8
Polygon
10
1.229474696918969
20
0.5715358289727882
11
1.2301163942981417
21
0.5727377212983136
0
LINE
8
Polygon
10
1.2301163942981417
20
0.5727377212983136
11
1.2308120005119023
21
0.5739092385555367
0
LINE
8
Polygon
10
1.2308120005119023
20
0.5739092385555367
11
1.2315600808178
21
0.5750479643981
0
LINE
8
Polygon
10
1.2315600808178
20
0.5750479643981
11
1.2323590922414478
21
0.5761515501145147
0
LINE
8
Polygon
10
1.2323590922414478
20
0.5761515501145147
11
1.2332073867590272
21
0.5772177194725616
0
LINE
8
Polygon
10
1.2332073867590272
20
0.5772177194725616
11
1.2341032146964688
21
0.5782442734141999
0
LINE
8
Polygon
10
1.2341032146964688
20
0.5782442734141999
11
1.2350447283382904
21
0.5792290945912965
0
LINE
8
Polygon
10
1.2350447283382904
20
0.5792290945912965
11
1.2360299857386565
21
0.5801701517328227
0
LINE
8
Polygon
10
1.2360299857386565
20
0.5801701517328226
11
1.2381907114652344
21
0.5821537328084143
0
LINE
8
Polygon
10
1.2381907114652344
20
0.5821537328084143
11
1.24033976380796
21
0.584149955135002
0
LINE
8
Polygon
10
1.24033976380796
20
0.584149955135002
11
1.2424770688108109
21
0.5861587500159515
0
LINE
8
Polygon
10
1.2424770688108109
20
0.5861587500159515
11
1.2446025529220304
21
0.5881800483219657
0
LINE
8
Polygon
10
1.2446025529220304
20
0.5881800483219657
11
1.246716142996657
21
0.5902137804934624
0
LINE
8
Polygon
10
1.246716142996657
20
0.5902137804934624
11
1.2488177662990432
21
0.5922598765429696
0
LINE
8
Polygon
10
1.2488177662990432
20
0.5922598765429696
11
1.2509073505053574
21
0.5943182660575326
0
LINE
8
Polygon
10
1.2509073505053574
20
0.5943182660575326
11
1.2529848237060734
21
0.5963888782011384
0
LINE
8
Polygon
10
1.2529848237060734
20
0.5963888782011384
11
1.2550501144084452
21
0.5984716417171521
0
LINE
8
Polygon
10
1.2550501144084452
20
0.5984716417171521
11
1.2571031515389663
21
0.6005664849307704
0
LINE
8
Polygon
10
1.2571031515389663
20
0.6005664849307704
11
1.259143864445817
21
0.602673335751487
0
LINE
8
Polygon
10
1.259143864445817
20
0.602673335751487
11
1.2611721829012947
21
0.6047921216755743
0
LINE
8
Polygon
10
1.2611721829012947
20
0.6047921216755743
11
1.2631880371042306
21
0.6069227697885781
0
LINE
8
Polygon
10
1.2631880371042306
20
0.6069227697885781
11
1.2651913576823928
21
0.6090652067678268
0
LINE
8
Polygon
10
1.2651913576823928
20
0.6090652067678268
11
1.2671820756948728
21
0.6112193588849553
0
LINE
8
Polygon
10
1.2671820756948728
20
0.6112193588849553
11
1.2691601226344584
21
0.6133851520084409
0
LINE
8
Polygon
10
1.2691601226344584
20
0.6133851520084409
11
1.2711254304299904
21
0.6155625116061559
0
LINE
8
Polygon
10
1.2711254304299904
20
0.6155625116061559
11
1.2730779314487068
21
0.6177513627479316
0
LINE
8
Polygon
10
1.2730779314487068
20
0.6177513627479316
11
1.2750175584985683
21
0.6199516301081374
0
LINE
8
Polygon
10
1.2750175584985683
20
0.6199516301081374
11
1.2769442448305723
21
0.6221632379682722
0
LINE
8
Polygon
10
1.2769442448305723
20
0.6221632379682722
11
1.278857924141049
21
0.6243861102195711
0
LINE
8
Polygon
10
1.278857924141049
20
0.6243861102195711
11
1.2807585305739435
21
0.626620170365624
0
LINE
8
Polygon
10
1.2807585305739435
20
0.626620170365624
11
1.2826459987230814
21
0.6288653415250082
0
LINE
8
Polygon
10
1.2826459987230814
20
0.6288653415250082
11
1.284520263634421
21
0.6311215464339343
0
LINE
8
Polygon
10
1.284520263634421
20
0.6311215464339343
11
1.2863812608082876
21
0.6333887074489046
0
LINE
8
Polygon
10
1.2863812608082876
20
0.6333887074489046
11
1.2882289262015931
21
0.6356667465493862
0
LINE
8
Polygon
10
1.2882289262015931
20
0.6356667465493862
11
1.2900631962300406
21
0.6379555853404941
0
LINE
8
Polygon
10
1.2900631962300406
20
0.6379555853404941
11
1.291884007770312
21
0.6402551450556909
0
LINE
8
Polygon
10
1.291884007770312
20
0.6402551450556909
11
1.29369129816224
21
0.6425653465594965
0
LINE
8
Polygon
10
1.29369129816224
20
0.6425653465594965
11
1.2954850052109657
21
0.6448861103502115
0
LINE
8
Polygon
10
1.2954850052109657
20
0.6448861103502115
11
1.2972650671890773
21
0.6472173565626529
0
LINE
8
Polygon
10
1.2972650671890773
20
0.6472173565626529
11
1.2990314228387356
21
0.649559004970903
0
LINE
8
Polygon
10
1.2990314228387356
20
0.649559004970903
11
1.300784011373782
21
0.6519109749910703
0
LINE
8
Polygon
10
1.300784011373782
20
0.6519109749910703
11
1.3025227724818291
21
0.6542731856840618
0
LINE
8
Polygon
10
1.3025227724818291
20
0.6542731856840618
11
1.304247646326338
21
0.6566455557583695
0
LINE
8
Polygon
10
1.304247646326338
20
0.6566455557583695
11
1.305958573548676
21
0.6590280035728671
0
LINE
8
Polygon
10
1.305958573548676
20
0.6590280035728671
11
1.30765549527016
21
0.6614204471396197
0
LINE
8
Polygon
10
1.30765549527016
20
0.6614204471396197
11
1.3093383530940834
21
0.6638228041267058
0
LINE
8
Polygon
10
1.3093383530940834
20
0.6638228041267058
11
1.311007089107724
21
0.6662349918610498
0
LINE
8
Polygon
10
1.311007089107724
20
0.6662349918610498
11
1.3126616458843385
21
0.6686569273312679
0
LINE
8
Polygon
10
1.3126616458843385
20
0.6686569273312679
11
1.314301966485138
21
0.6710885271905238
0
LINE
8
Polygon
10
1.314301966485138
20
0.6710885271905238
11
1.3159279944612479
21
0.6735297077593981
0
LINE
8
Polygon
10
1.3159279944612479
20
0.6735297077593981
11
1.31753967385565
21
0.675980385028767
0
LINE
8
Polygon
10
1.31753967385565
20
0.675980385028767
11
1.3191369492051084
21
0.6784404746626937
0
LINE
8
Polygon
10
1.3191369492051084
20
0.6784404746626937
11
1.3207197655420782
21
0.680909892001331
0
LINE
8
Polygon
10
1.3207197655420782
20
0.680909892001331
11
1.3222880683965972
21
0.6833885520638343
0
LINE
8
Polygon
10
1.3222880683965972
20
0.6833885520638343
11
1.3238418037981603
21
0.6858763695512862
0
LINE
8
Polygon
10
1.3238418037981603
20
0.6858763695512862
11
1.3253809182775766
21
0.6883732588496315
0
LINE
8
Polygon
10
0.4725780528551349
20
1.210606226716725
11
1.3253809182775766
21
0.6883732588496315
0
ENDSEC
0
EOF
