0
SECTION
2
ENTITIES
0
LWPOLYLINE
90
146
70
1
10
47.33025807436334
20
-26.93765880987289
11
47.33025807436334
21
-26.93765880987289
10
46.879790712910825
20
-26.731504576064566
10
46.384910345285554
20
-26.708836678275762
10
45.917483091984344
20
-26.872946930004186
10
45.545388354791555
20
-27.200003375292344
10
45.322661425807496
20
-27.642511145796338
10
45.28164652671357
20
-28.136209626554994
10
45.31445085944103
20
-28.619715000319236
10
45.307463649859
20
-29.104281558809248
10
45.26073203876379
20
-29.586640063688183
10
45.17457131158288
20
-30.06353617375436
10
45.04956277123017
20
-30.53175240109327
10
44.886549816213865
20
-30.988129818590508
10
44.686632250456874
20
-31.42958937235098
10
44.45115886321989
20
-31.853152655235288
10
44.1817183291883
20
-32.25596200135995
10
43.88012849011764
20
-32.63529976598921
10
43.54842409035131
20
-32.988606660742555
10
43.188843048955775
20
-33.313499020414945
10
42.803811361091306
20
-33.607784884915496
10
42.3959267304847
20
-33.86947878782405
10
41.96794104343109
20
-34.09681515179128
10
41.52274180256808
20
-34.288260200407294
10
41.0633326456834
20
-34.442522306172485
10
40.59281308099048
20
-34.55856070475581
10
40.114357575592294
20
-34.63559251674774
10
39.631194138218106
20
-34.67309802953395
10
39.14658254072949
20
-34.67082420365456
10
38.663792325329126
20
-34.62878637999226
10
38.18608074585177
20
-34.54726817627163
10
37.716670791961505
20
-34.42681957356765
10
37.25872944452004
20
-34.268253205733586
10
36.81534630883101
20
-34.07263887678205
10
36.38951276991616
20
-33.84129634320932
10
35.98410181045689
20
-33.57578640995838
10
35.60184862756416
20
-33.27790040009393
10
35.24533217914991
20
-32.94964806923444
10
34.9169577844019
20
-32.59324404627949
10
34.61894089575144
20
-32.21109289191293
10
34.35329215182048
20
-31.805772875688096
10
34.12180381219148
20
-31.380018581146743
10
33.92603766552109
20
-30.93670245633012
10
33.767314492578315
20
-30.478815434155905
10
33.646705155297056
20
-30.00944675340998
10
33.56502337196288
20
-29.531763116495398
10
33.52282022727782
20
-29.0489873245554
10
33.52038045434225
20
-28.56437653411361
10
33.55772051363838
20
-28.081200281927767
10
33.63458848197587
20
-27.60271842631748
10
33.75046575214882
20
-27.132159153789715
10
33.904570531837116
20
-26.67269719934537
10
34.09586311814582
20
-26.22743242740858
10
34.32305291219692
20
-25.799368917887367
10
34.584607126447736
20
-25.391394698466296
10
34.8787611259902
20
-25.006262259871768
10
35.20353033406105
20
-24.646569985568263
10
35.55672362143965
20
-24.314744621174132
10
35.935958089398895
20
-24.01302490187117
10
36.338675146472724
20
-23.743446448269264
10
36.76215777057444
20
-23.507828032629654
10
37.203548840003336
20
-23.30775930810478
10
37.65987040966512
20
-23.144590083782298
10
38.1280438024548
20
-23.019421217891477
10
38.582013670304754
20
-22.821098826479446
10
38.92882956884253
20
-22.46734871075858
10
39.11812717815356
20
-22.009542171967116
10
39.12241685490082
20
-21.51416149963069
10
38.941075655750595
20
-21.053145468085315
10
38.60043780069163
20
-20.693442446758105
10
25.93069587505497
20
-11.631101256631002
11
25.93069587505497
21
-11.631101256631002
10
39.84323975597009
20
7.819539234848643
11
39.84323975597009
21
7.819539234848643
10
40.04939398977842
20
8.270006596301156
10
40.07206188756723
20
8.76488696392643
10
39.9079516358388
20
9.23231421722765
10
39.58089519055064
20
9.604408954420428
10
39.13838742004665
20
9.827135883404491
10
38.644688939287995
20
9.868150782498418
10
38.16118356552375
20
9.835346449770961
10
37.67661700703374
20
9.842333659352992
10
37.1942585021548
20
9.889065270448203
10
36.71736239208863
20
9.975225997629112
10
36.249146164749725
20
10.10023453798182
10
35.79276874725248
20
10.263247492998126
10
35.351309193492014
20
10.463165058755116
10
34.927745910607705
20
10.698638445992101
10
34.52493656448305
20
10.968078980023687
10
34.145598799853786
20
11.269668819094349
10
33.79229190510044
20
11.60137321886068
10
33.467399545428044
20
11.960954260256218
10
33.17311368092749
20
12.34598594812068
10
32.911419778018946
20
12.753870578727282
10
32.68408341405171
20
13.181856265780896
10
32.492638365435695
20
13.627055506643913
10
32.33837625967051
20
14.086464663528583
10
32.22233786108718
20
14.5569842282215
10
32.145306049095254
20
15.035439733619686
10
32.107800536309036
20
15.51860317099387
10
32.11007436218843
20
16.003214768482483
10
32.152112185850726
20
16.486004983882854
10
32.23363038957137
20
16.96371656336021
10
32.35407899227534
20
17.43312651725047
10
32.51264536010941
20
17.891067864691937
10
32.708259689060945
20
18.334451000380966
10
32.93960222263367
20
18.760284539295817
10
33.2051121558846
20
19.16569549875508
10
33.502998165749055
20
19.547948681647817
10
33.831250496608554
20
19.904465130062057
10
34.1876545195635
20
20.232839524810075
10
34.56980567393006
20
20.530856413460533
10
34.97512569015489
20
20.796505157391493
10
35.400879984696246
20
21.027993497020493
10
35.84419610951286
20
21.22375964369088
10
36.30208313168708
20
21.382482816633658
10
36.771451812433
20
21.50309215391492
10
37.249135449347584
20
21.584773937249096
10
37.731911241287584
20
21.626977081934157
10
38.21652203172937
20
21.629416854869724
10
38.69969828391521
20
21.592076795573593
10
39.178180139525494
20
21.51520882723611
10
39.64873941205326
20
21.399331557063157
10
40.10820136649761
20
21.245226777374864
10
40.553466138434395
20
21.053934191066155
10
40.981529647955604
20
20.826744397015055
10
41.38950386737668
20
20.565190182764244
10
41.7746363059712
20
20.271036183221774
10
42.13432858027471
20
19.946266975150927
10
42.46615394466885
20
19.59307368777234
10
42.767873663971805
20
19.213839219813085
10
43.03745211757371
20
18.81112216273926
10
43.27307053321332
20
18.387639538637547
10
43.4731392577382
20
17.94624846920865
10
43.63630848206068
20
17.48992689954687
10
43.7614773479515
20
17.021753506757186
10
43.95979973936354
20
16.567783638907237
10
44.3135498550844
20
16.22096774036946
10
44.77135639387587
20
16.031670131058434
10
45.2667370662123
20
16.027380454311164
10
45.72775309775768
20
16.208721653461396
10
46.087456119084884
20
16.549359508520354
10
60.0
20
36.0
11
60.0
21
36.0
10
60.0
20
-36.0
11
60.0
21
-36.0
0
ENDSEC
0
EOF
