0
SECTION
2
ENTITIES
0
LWPOLYLINE
90
152
70
1
10
27.342561391131014
20
60.0
11
27.342561391131014
21
60.0
10
10.007096739619389
20
45.74790162745532
11
10.007096739619389
21
45.74790162745532
10
9.6913775086441
20
45.36614021106616
10
9.541397536553456
20
44.89398936671366
10
9.578936791702429
20
44.40001445219477
10
9.798543854292648
20
43.95595009884991
10
10.16832756707778
20
43.62628296732186
10
10.634588243023776
20
43.45888704766588
10
11.110108956763952
20
43.36543320072191
10
11.576355887253511
20
43.23326902057593
10
12.03018339368649
20
43.06328618288513
10
12.468529625721905
20
42.8566315154688
10
12.888437180952442
20
42.614699260974064
10
13.28707305769147
20
42.339121670301125
10
13.66174776846231
20
42.03175799025193
10
14.009933485236319
20
41.694681919699356
10
14.329281093998762
20
41.33016761890678
10
14.617636043580042
20
40.94067436638939
10
14.873052881824467
20
40.52882996683318
10
15.093808381025065
20
40.0974130220138
10
15.278413164070662
20
39.64933418432864
10
15.425621752866817
20
39.18761651941941
10
15.534440971236661
20
38.71537511037317
10
15.604136645609497
20
38.235796041106894
10
15.634238558289585
20
37.75211490072865
10
15.62454361988657
20
37.26759495390091
10
15.575117239504214
20
36.78550512448434
10
15.486292883442998
20
36.30909794100061
10
15.358669825393997
20
35.841587592709985
10
15.193109103302842
20
35.38612824435357
10
14.990727710181632
20
34.945792755864495
10
14.752891058061934
20
34.52355195062051
10
14.481203765932394
20
34.12225457210937
10
14.177498833812308
20
33.744608064233915
10
13.843825276000693
20
33.39316030492688
10
13.482434296935988
20
33.07028241631378
10
13.095764102934012
20
32.778152767399014
10
12.686423452275326
20
32.518742277204574
10
12.257174054625022
20
32.29380111751732
10
11.810911938531245
20
32.10484690495751
10
11.35064791271088
20
31.953154462033595
10
10.87948725294476
20
31.839747216262655
10
10.40060875162937
20
31.765390295384222
10
9.917243271332005
20
31.73058536525222
10
9.432651947042705
20
31.73556724523233
10
8.950104184186396
20
31.780302323939832
10
8.472855600836688
20
31.864488786006437
10
8.004126062949151
20
31.98755864834621
10
7.547077960804383
20
32.14868159218246
10
7.104794873223769
20
32.34677056498195
10
6.6802607635046565
20
32.58048911450166
10
6.276339847434269
20
32.848260405467386
10
5.895757269207424
20
33.148277858051074
10
5.541080715622295
20
33.47851733637184
10
5.214703092598293
20
33.83675080478845
10
4.918826380892821
20
34.22056135984778
10
4.6554467799380115
20
34.62735953647285
10
4.4263412400278845
20
35.05440077837706
10
4.23305547371964
20
35.49880395483648
10
4.076893527332838
20
35.957570798892675
10
3.9589089829047412
20
36.4276061358416
10
3.8798978499598222
20
36.90573876553273
10
3.8403931950507246
20
37.38874285759108
10
3.8406615453037016
20
37.873359715214434
10
3.7665928732096434
20
38.36319054689545
10
3.5146590600680354
20
38.78974624741652
10
3.121445727287422
20
39.09108274831651
10
2.644054992072748
20
39.22344021044949
10
2.1518131448679663
20
39.167597791881576
10
1.7162031424016797
20
38.931664882768814
10
-15.619261509109945
20
24.679566510224138
11
-15.619261509109945
21
24.679566510224138
10
-26.290243531500813
20
-29.45908599405106
11
-26.290243531500813
21
-29.45908599405106
10
25.93069587505497
20
-11.631101256631002
11
25.93069587505497
21
-11.631101256631002
10
39.84323975597009
20
7.819539234848643
11
39.84323975597009
21
7.819539234848643
10
40.04939398977842
20
8.270006596301156
10
40.07206188756723
20
8.76488696392643
10
39.9079516358388
20
9.23231421722765
10
39.58089519055064
20
9.604408954420428
10
39.13838742004665
20
9.827135883404491
10
38.644688939287995
20
9.868150782498418
10
38.16118356552375
20
9.835346449770961
10
37.67661700703374
20
9.842333659352992
10
37.1942585021548
20
9.889065270448203
10
36.71736239208863
20
9.975225997629112
10
36.249146164749725
20
10.10023453798182
10
35.79276874725248
20
10.263247492998126
10
35.351309193492014
20
10.463165058755116
10
34.927745910607705
20
10.698638445992101
10
34.52493656448305
20
10.968078980023687
10
34.145598799853786
20
11.269668819094349
10
33.79229190510044
20
11.60137321886068
10
33.467399545428044
20
11.960954260256218
10
33.17311368092749
20
12.34598594812068
10
32.911419778018946
20
12.753870578727282
10
32.68408341405171
20
13.181856265780896
10
32.492638365435695
20
13.627055506643913
10
32.33837625967051
20
14.086464663528583
10
32.22233786108718
20
14.5569842282215
10
32.145306049095254
20
15.035439733619686
10
32.107800536309036
20
15.51860317099387
10
32.11007436218843
20
16.003214768482483
10
32.152112185850726
20
16.486004983882854
10
32.23363038957137
20
16.96371656336021
10
32.35407899227534
20
17.43312651725047
10
32.51264536010941
20
17.891067864691937
10
32.708259689060945
20
18.334451000380966
10
32.93960222263367
20
18.760284539295817
10
33.2051121558846
20
19.16569549875508
10
33.502998165749055
20
19.547948681647817
10
33.831250496608554
20
19.904465130062057
10
34.1876545195635
20
20.232839524810075
10
34.56980567393006
20
20.530856413460533
10
34.97512569015489
20
20.796505157391493
10
35.400879984696246
20
21.027993497020493
10
35.84419610951286
20
21.22375964369088
10
36.30208313168708
20
21.382482816633658
10
36.771451812433
20
21.50309215391492
10
37.249135449347584
20
21.584773937249096
10
37.731911241287584
20
21.626977081934157
10
38.21652203172937
20
21.629416854869724
10
38.69969828391521
20
21.592076795573593
10
39.178180139525494
20
21.51520882723611
10
39.64873941205326
20
21.399331557063157
10
40.10820136649761
20
21.245226777374864
10
40.553466138434395
20
21.053934191066155
10
40.981529647955604
20
20.826744397015055
10
41.38950386737668
20
20.565190182764244
10
41.7746363059712
20
20.271036183221774
10
42.13432858027471
20
19.946266975150927
10
42.46615394466885
20
19.59307368777234
10
42.767873663971805
20
19.213839219813085
10
43.03745211757371
20
18.81112216273926
10
43.27307053321332
20
18.387639538637547
10
43.4731392577382
20
17.94624846920865
10
43.63630848206068
20
17.48992689954687
10
43.7614773479515
20
17.021753506757186
10
43.95979973936354
20
16.567783638907237
10
44.3135498550844
20
16.22096774036946
10
44.77135639387587
20
16.031670131058434
10
45.2667370662123
20
16.027380454311164
10
45.72775309775768
20
16.208721653461396
10
46.087456119084884
20
16.549359508520354
10
60.0
20
36.0
11
60.0
21
36.0
10
60.0
20
60.0
11
60.0
21
60.0
0
ENDSEC
0
EOF
