0
SECTION
2
ENTITIES
0
LWPOLYLINE
90
152
70
1
10
-60.0
20
36.0
11
-60.0
21
36.0
10
-48.665328360605336
20
11.041613950437432
11
-48.665328360605336
21
11.041613950437432
10
-48.378289298915874
20
10.637845466135445
10
-47.9610442776126
20
10.370774306987315
10
-47.47418527596835
20
10.279184327354981
10
-46.988413558300834
20
10.376376148849571
10
-46.57427249444174
20
10.648235654986017
10
-46.29190330951342
20
11.055283631585834
10
-46.07856000812747
20
11.490413734495688
10
-45.83022562788287
20
11.906567079181418
10
-45.54857561307517
20
12.300935992590448
10
-45.235510179494874
20
12.670859775283281
10
-44.89314149418996
20
13.013842652446533
10
-44.523779425251256
20
13.327570612204523
10
-44.12991595776271
20
13.609927017625937
10
-43.714208381058164
20
13.859006887095592
10
-43.27946136071523
20
14.073129746705545
10
-42.82860801624216
20
14.25085096795396
10
-42.36469013212077
20
14.390971514259387
10
-41.89083763571677
20
14.492546030533383
10
-41.41024748051387
20
14.554889221233294
10
-40.92616207714104
20
14.577580473864295
10
-40.44184741771286
20
14.560466696737098
10
-39.96057104107194
20
14.503663351835803
10
-39.485579987596026
20
14.407553675827401
10
-39.0200788923027
20
14.27278609446857
10
-38.56720836405138
20
14.100269847854031
10
-38.130023796712415
20
13.891168856021764
10
-37.711474755258415
20
13.646893866302122
10
-37.31438507585428
20
13.369092935390581
10
-36.94143381420522
20
13.059640310358951
10
-36.59513717069897
20
12.720623783621837
10
-36.277831514288415
20
12.354330607170974
10
-35.991657619647874
20
11.963232061110187
10
-35.73854622395055
20
11.549966780602924
10
-35.52020500071167
20
11.117322953720874
10
-35.33810703858133
20
10.668219510299904
10
-35.19348090281734
20
10.205686428717007
10
-35.087302346490695
20
9.732844293453045
10
-35.02028772734588
20
9.252883241360825
10
-34.99288917473066
20
8.769041438682319
10
-35.00529153920274
20
8.284583234024685
10
-35.0574111453935
20
7.802777134691029
10
-35.1488963565429
20
7.326873754953559
10
-35.27912994689668
20
6.86008388504617
10
-35.44723326596016
20
6.40555682883891
10
-35.6520721665133
20
5.966359156344195
10
-35.89226465639253
20
5.545454014405763
10
-36.16619022241472
20
5.1456811351555345
10
-36.47200076353742
20
4.769737677115851
10
-36.80763305949227
20
4.420160028206959
10
-37.170822690769114
20
4.099306693429854
10
-37.55911931603648
20
3.8093423826766637
10
-37.96990320392589
20
3.5522234060237223
10
-38.400402907644505
20
3.329684475041354
10
-38.84771396317034
20
3.143226999168279
10
-39.3088184848784
20
2.994108956111866
10
-39.78060552639146
20
2.8833364046158128
10
-40.25989206928634
20
2.811656696856363
10
-40.74344449805052
20
2.7795534362611023
10
-41.22800041640372
20
2.787243214768617
10
-41.710290657795156
20
2.8346741515417757
10
-42.18706134157829
20
2.921526242993593
10
-42.655095826055515
20
3.0472135217640948
10
-43.14740645987226
20
3.1024462265869626
10
-43.62463289630272
20
2.969497589049899
10
-44.01747270423747
20
2.6676743010933777
10
-44.26887800944284
20
2.2408068926798492
10
-44.342339939998695
20
1.750884698234553
10
-44.2271904146906
20
1.2690538164176974
10
-32.89251877529593
20
-23.68933223314487
11
-32.89251877529593
21
-23.68933223314487
10
-26.290243531500813
20
-29.45908599405106
11
-26.290243531500813
21
-29.45908599405106
10
-15.619261509109945
20
24.679566510224138
11
-15.619261509109945
21
24.679566510224138
10
-26.73023168664621
20
38.194336456503216
11
-26.73023168664621
21
38.194336456503216
10
-27.111993103035374
20
38.510055687478506
10
-27.58414394738787
20
38.66003565956915
10
-28.078118861906766
20
38.622496404420176
10
-28.52218321525162
20
38.40288934182996
10
-28.851850346779667
20
38.03310562904483
10
-29.01924626643565
20
37.56684495309884
10
-29.11270011337962
20
37.091324239358656
10
-29.2448642935256
20
36.625077308869095
10
-29.4148471312164
20
36.171249802436115
10
-29.621501798632725
20
35.7329035704007
10
-29.863434053127467
20
35.31299601517017
10
-30.1390116438004
20
34.914360138431135
10
-30.44637532384959
20
34.539685427660295
10
-30.78345139440217
20
34.19149971088629
10
-31.14796569519475
20
33.87215210212384
10
-31.53745894771214
20
33.583797152542566
10
-31.949303347268348
20
33.328380314298144
10
-32.38072029208772
20
33.107624815097545
10
-32.82879912977289
20
32.923020032051944
10
-33.29051679468213
20
32.77581144325579
10
-33.76275820372836
20
32.666992224885945
10
-34.24233727299464
20
32.59729655051311
10
-34.72601841337288
20
32.56719463783302
10
-35.210538360200616
20
32.576889576236034
10
-35.69262818961718
20
32.62631595661839
10
-36.169035373100925
20
32.71514031267961
10
-36.636545721391535
20
32.84276337072861
10
-37.092005069747955
20
33.00832409281976
10
-37.532340558237024
20
33.21070548594097
10
-37.95458136348101
20
33.448542138060674
10
-38.35587874199215
20
33.72022943019021
10
-38.73352524986761
20
34.0239343623103
10
-39.084973009174654
20
34.35760792012191
10
-39.40785089778774
20
34.718998899186616
10
-39.69998054670251
20
35.105669093188595
10
-39.95939103689695
20
35.51500974384727
10
-40.18433219658421
20
35.94425914149758
10
-40.373286409144015
20
36.39052125759136
10
-40.52497885206793
20
36.850785283411724
10
-40.638386097838875
20
37.32194594317784
10
-40.712743018717305
20
37.80082444449324
10
-40.74754794884931
20
38.284189924790596
10
-40.7425660688692
20
38.76878124907989
10
-40.6978309901617
20
39.25132901193621
10
-40.613644528095094
20
39.72857759528591
10
-40.49057466575532
20
40.19730713317345
10
-40.329451721919064
20
40.65435523531822
10
-40.13136274911958
20
41.09663832289883
10
-39.897644199599874
20
41.521172432617945
10
-39.62987290863414
20
41.92509334868833
10
-39.32985545605046
20
42.305675926915185
10
-38.9996159777297
20
42.660352480500315
10
-38.641382509313075
20
42.986730103524316
10
-38.25757195425375
20
43.282606815229784
10
-37.85077377762868
20
43.5459864161846
10
-37.42373253572448
20
43.77509195609472
10
-36.97932935926505
20
43.96837772240296
10
-36.52056251520885
20
44.124539668789765
10
-36.050527178259934
20
44.24252421321786
10
-35.5723945485688
20
44.32153534616278
10
-35.08939045651045
20
44.36104000107188
10
-34.60477359888709
20
44.360771650818904
10
-34.114942767206074
20
44.43484032291296
10
-33.68838706668501
20
44.686774136054574
10
-33.38705056578502
20
45.079987468835185
10
-33.25469310365204
20
45.557378204049854
10
-33.31053552221995
20
46.049620051254635
10
-33.54646843133271
20
46.485230053720926
10
-44.65743860886898
20
60.0
11
-44.65743860886898
21
60.0
10
-60.0
20
60.0
11
-60.0
21
60.0
0
ENDSEC
0
EOF
