0
SECTION
2
ENTITIES
0
LWPOLYLINE
90
146
70
1
10
10.007096739619389
20
45.74790162745532
11
10.007096739619389
21
45.74790162745532
10
9.6913775086441
20
45.36614021106616
10
9.541397536553456
20
44.89398936671366
10
9.578936791702429
20
44.40001445219477
10
9.798543854292648
20
43.95595009884991
10
10.16832756707778
20
43.62628296732186
10
10.634588243023776
20
43.45888704766588
10
11.110108956763952
20
43.36543320072191
10
11.576355887253511
20
43.23326902057593
10
12.03018339368649
20
43.06328618288513
10
12.468529625721905
20
42.8566315154688
10
12.888437180952442
20
42.614699260974064
10
13.28707305769147
20
42.339121670301125
10
13.66174776846231
20
42.03175799025193
10
14.009933485236319
20
41.694681919699356
10
14.329281093998762
20
41.33016761890678
10
14.617636043580042
20
40.94067436638939
10
14.873052881824467
20
40.52882996683318
10
15.093808381025065
20
40.0974130220138
10
15.278413164070662
20
39.64933418432864
10
15.425621752866817
20
39.18761651941941
10
15.534440971236661
20
38.71537511037317
10
15.604136645609497
20
38.235796041106894
10
15.634238558289585
20
37.75211490072865
10
15.62454361988657
20
37.26759495390091
10
15.575117239504214
20
36.78550512448434
10
15.486292883442998
20
36.30909794100061
10
15.358669825393997
20
35.841587592709985
10
15.193109103302842
20
35.38612824435357
10
14.990727710181632
20
34.945792755864495
10
14.752891058061934
20
34.52355195062051
10
14.481203765932394
20
34.12225457210937
10
14.177498833812308
20
33.744608064233915
10
13.843825276000693
20
33.39316030492688
10
13.482434296935988
20
33.07028241631378
10
13.095764102934012
20
32.778152767399014
10
12.686423452275326
20
32.518742277204574
10
12.257174054625022
20
32.29380111751732
10
11.810911938531245
20
32.10484690495751
10
11.35064791271088
20
31.953154462033595
10
10.87948725294476
20
31.839747216262655
10
10.40060875162937
20
31.765390295384222
10
9.917243271332005
20
31.73058536525222
10
9.432651947042705
20
31.73556724523233
10
8.950104184186396
20
31.780302323939832
10
8.472855600836688
20
31.864488786006437
10
8.004126062949151
20
31.98755864834621
10
7.547077960804383
20
32.14868159218246
10
7.104794873223769
20
32.34677056498195
10
6.6802607635046565
20
32.58048911450166
10
6.276339847434269
20
32.848260405467386
10
5.895757269207424
20
33.148277858051074
10
5.541080715622295
20
33.47851733637184
10
5.214703092598293
20
33.83675080478845
10
4.918826380892821
20
34.22056135984778
10
4.6554467799380115
20
34.62735953647285
10
4.4263412400278845
20
35.05440077837706
10
4.23305547371964
20
35.49880395483648
10
4.076893527332838
20
35.957570798892675
10
3.9589089829047412
20
36.4276061358416
10
3.8798978499598222
20
36.90573876553273
10
3.8403931950507246
20
37.38874285759108
10
3.8406615453037016
20
37.873359715214434
10
3.7665928732096434
20
38.36319054689545
10
3.5146590600680354
20
38.78974624741652
10
3.121445727287422
20
39.09108274831651
10
2.644054992072748
20
39.22344021044949
10
2.1518131448679663
20
39.167597791881576
10
1.7162031424016797
20
38.931664882768814
10
-15.619261509109945
20
24.679566510224138
11
-15.619261509109945
21
24.679566510224138
10
-26.73023168664621
20
38.194336456503216
11
-26.73023168664621
21
38.194336456503216
10
-27.111993103035374
20
38.510055687478506
10
-27.58414394738787
20
38.66003565956915
10
-28.078118861906766
20
38.622496404420176
10
-28.52218321525162
20
38.40288934182996
10
-28.851850346779667
20
38.03310562904483
10
-29.01924626643565
20
37.56684495309884
10
-29.11270011337962
20
37.091324239358656
10
-29.2448642935256
20
36.625077308869095
10
-29.4148471312164
20
36.171249802436115
10
-29.621501798632725
20
35.7329035704007
10
-29.863434053127467
20
35.31299601517017
10
-30.1390116438004
20
34.914360138431135
10
-30.44637532384959
20
34.539685427660295
10
-30.78345139440217
20
34.19149971088629
10
-31.14796569519475
20
33.87215210212384
10
-31.53745894771214
20
33.583797152542566
10
-31.949303347268348
20
33.328380314298144
10
-32.38072029208772
20
33.107624815097545
10
-32.82879912977289
20
32.923020032051944
10
-33.29051679468213
20
32.77581144325579
10
-33.76275820372836
20
32.666992224885945
10
-34.24233727299464
20
32.59729655051311
10
-34.72601841337288
20
32.56719463783302
10
-35.210538360200616
20
32.576889576236034
10
-35.69262818961718
20
32.62631595661839
10
-36.169035373100925
20
32.71514031267961
10
-36.636545721391535
20
32.84276337072861
10
-37.092005069747955
20
33.00832409281976
10
-37.532340558237024
20
33.21070548594097
10
-37.95458136348101
20
33.448542138060674
10
-38.35587874199215
20
33.72022943019021
10
-38.73352524986761
20
34.0239343623103
10
-39.084973009174654
20
34.35760792012191
10
-39.40785089778774
20
34.718998899186616
10
-39.69998054670251
20
35.105669093188595
10
-39.95939103689695
20
35.51500974384727
10
-40.18433219658421
20
35.94425914149758
10
-40.373286409144015
20
36.39052125759136
10
-40.52497885206793
20
36.850785283411724
10
-40.638386097838875
20
37.32194594317784
10
-40.712743018717305
20
37.80082444449324
10
-40.74754794884931
20
38.284189924790596
10
-40.7425660688692
20
38.76878124907989
10
-40.6978309901617
20
39.25132901193621
10
-40.613644528095094
20
39.72857759528591
10
-40.49057466575532
20
40.19730713317345
10
-40.329451721919064
20
40.65435523531822
10
-40.13136274911958
20
41.09663832289883
10
-39.897644199599874
20
41.521172432617945
10
-39.62987290863414
20
41.92509334868833
10
-39.32985545605046
20
42.305675926915185
10
-38.9996159777297
20
42.660352480500315
10
-38.641382509313075
20
42.986730103524316
10
-38.25757195425375
20
43.282606815229784
10
-37.85077377762868
20
43.5459864161846
10
-37.42373253572448
20
43.77509195609472
10
-36.97932935926505
20
43.96837772240296
10
-36.52056251520885
20
44.124539668789765
10
-36.050527178259934
20
44.24252421321786
10
-35.5723945485688
20
44.32153534616278
10
-35.08939045651045
20
44.36104000107188
10
-34.60477359888709
20
44.360771650818904
10
-34.114942767206074
20
44.43484032291296
10
-33.68838706668501
20
44.686774136054574
10
-33.38705056578502
20
45.079987468835185
10
-33.25469310365204
20
45.557378204049854
10
-33.31053552221995
20
46.049620051254635
10
-33.54646843133271
20
46.485230053720926
10
-44.65743860886898
20
60.0
11
-44.65743860886898
21
60.0
10
27.342561391131014
20
60.0
11
27.342561391131014
21
60.0
0
ENDSEC
0
EOF
