0
SECTION
2
ENTITIES
0
LWPOLYLINE
90
152
70
1
10
60.0
20
-36.0
11
60.0
21
-36.0
10
47.33025807436334
20
-26.93765880987289
11
47.33025807436334
21
-26.93765880987289
10
46.879790712910825
20
-26.731504576064566
10
46.384910345285554
20
-26.708836678275762
10
45.917483091984344
20
-26.872946930004186
10
45.545388354791555
20
-27.200003375292344
10
45.322661425807496
20
-27.642511145796338
10
45.28164652671357
20
-28.136209626554994
10
45.31445085944103
20
-28.619715000319236
10
45.307463649859
20
-29.104281558809248
10
45.26073203876379
20
-29.586640063688183
10
45.17457131158288
20
-30.06353617375436
10
45.04956277123017
20
-30.53175240109327
10
44.886549816213865
20
-30.988129818590508
10
44.686632250456874
20
-31.42958937235098
10
44.45115886321989
20
-31.853152655235288
10
44.1817183291883
20
-32.25596200135995
10
43.88012849011764
20
-32.63529976598921
10
43.54842409035131
20
-32.988606660742555
10
43.188843048955775
20
-33.313499020414945
10
42.803811361091306
20
-33.607784884915496
10
42.3959267304847
20
-33.86947878782405
10
41.96794104343109
20
-34.09681515179128
10
41.52274180256808
20
-34.288260200407294
10
41.0633326456834
20
-34.442522306172485
10
40.59281308099048
20
-34.55856070475581
10
40.114357575592294
20
-34.63559251674774
10
39.631194138218106
20
-34.67309802953395
10
39.14658254072949
20
-34.67082420365456
10
38.663792325329126
20
-34.62878637999226
10
38.18608074585177
20
-34.54726817627163
10
37.716670791961505
20
-34.42681957356765
10
37.25872944452004
20
-34.268253205733586
10
36.81534630883101
20
-34.07263887678205
10
36.38951276991616
20
-33.84129634320932
10
35.98410181045689
20
-33.57578640995838
10
35.60184862756416
20
-33.27790040009393
10
35.24533217914991
20
-32.94964806923444
10
34.9169577844019
20
-32.59324404627949
10
34.61894089575144
20
-32.21109289191293
10
34.35329215182048
20
-31.805772875688096
10
34.12180381219148
20
-31.380018581146743
10
33.92603766552109
20
-30.93670245633012
10
33.767314492578315
20
-30.478815434155905
10
33.646705155297056
20
-30.00944675340998
10
33.56502337196288
20
-29.531763116495398
10
33.52282022727782
20
-29.0489873245554
10
33.52038045434225
20
-28.56437653411361
10
33.55772051363838
20
-28.081200281927767
10
33.63458848197587
20
-27.60271842631748
10
33.75046575214882
20
-27.132159153789715
10
33.904570531837116
20
-26.67269719934537
10
34.09586311814582
20
-26.22743242740858
10
34.32305291219692
20
-25.799368917887367
10
34.584607126447736
20
-25.391394698466296
10
34.8787611259902
20
-25.006262259871768
10
35.20353033406105
20
-24.646569985568263
10
35.55672362143965
20
-24.314744621174132
10
35.935958089398895
20
-24.01302490187117
10
36.338675146472724
20
-23.743446448269264
10
36.76215777057444
20
-23.507828032629654
10
37.203548840003336
20
-23.30775930810478
10
37.65987040966512
20
-23.144590083782298
10
38.1280438024548
20
-23.019421217891477
10
38.582013670304754
20
-22.821098826479446
10
38.92882956884253
20
-22.46734871075858
10
39.11812717815356
20
-22.009542171967116
10
39.12241685490082
20
-21.51416149963069
10
38.941075655750595
20
-21.053145468085315
10
38.60043780069163
20
-20.693442446758105
10
25.93069587505497
20
-11.631101256631002
11
25.93069587505497
21
-11.631101256631002
10
-26.290243531500813
20
-29.45908599405106
11
-26.290243531500813
21
-29.45908599405106
10
-18.45004261583514
20
-36.31066776685513
11
-18.45004261583514
21
-36.31066776685513
10
8.07945750765874
20
-46.269330831967046
11
8.07945750765874
21
-46.269330831967046
10
8.567932207924128
20
-46.35187099826035
10
9.051816819596986
20
-46.24568204197348
10
9.46084201682811
20
-45.966184636115884
10
9.735609496444756
20
-45.553967164389846
10
9.83621775074822
20
-45.06889150944817
10
9.748056531687162
20
-44.58139995946524
10
9.591229580351936
20
-44.122860017868554
10
9.472563652583917
20
-43.65299624155509
10
9.39285935501503
20
-43.17497867320258
10
9.352654430790485
20
-42.69203236689856
10
9.352220131562504
20
-42.20741562958053
10
9.391559387429462
20
-41.72439803812818
10
9.470406787167313
20
-41.24623838042045
10
9.588230368886677
20
-40.77616266918297
10
9.744235209034551
20
-40.317342376960596
10
9.937368785526598
20
-39.87287303905754
10
10.166328078826412
20
-39.445753368805455
10
10.429568363062767
20
-39.038865026062936
10
10.725313627873522
20
-38.654953175442756
10
11.051568560662872
20
-38.296607965435406
10
11.40613200843095
20
-37.96624705338404
10
11.786611828352424
20
-37.666099294210134
10
12.190441026911365
20
-37.398189702937565
10
12.61489507870598
20
-37.16432579246883
10
13.05711030807801
20
-36.966085378788776
10
13.514103209550928
20
-36.80480593587072
10
13.982790576727215
20
-36.68157557210449
10
14.460010303840555
20
-36.59722568912613
10
14.94254271962053
20
-36.55232537257784
10
15.427132309536066
20
-36.547177552642545
10
15.910509679863583
20
-36.58181696025657
10
16.389413615394254
20
-36.65600989278946
10
16.860613081963074
20
-36.769255790771936
10
17.320929025354644
20
-36.92079061503396
10
17.767255819514453
20
-37.109592001468535
10
18.196582219360355
20
-37.33438615864338
10
18.606011676831397
20
-37.593656461724095
10
18.99278188310717
20
-37.885653684728005
10
19.354283405151588
20
-38.208407802074575
10
19.688077290845502
20
-38.5597412798104
10
19.991911523931112
20
-38.937283766836536
10
20.26373621775105
20
-39.338488087020515
10
20.50171744527432
20
-39.76064742429865
10
20.704249612101478
20
-40.200913584825315
10
20.869966288971916
20
-40.656316212959595
10
20.99774943068919
20
-41.12378283144424
10
21.08673691926684
20
-41.60015957057119
10
21.136328380403235
20
-42.08223244647996
10
21.14618923404307
20
-42.566749045029574
10
21.11625295169779
20
-43.05044046494928
10
21.046721505295046
20
-43.530043372223346
10
20.93806400452931
20
-44.002322016915166
10
20.79101353190671
20
-44.46409006388904
10
20.60656219683746
20
-44.912232090143846
10
20.385954442144364
20
-45.34372460372185
10
20.130678648146734
20
-45.75565644238388
10
19.842457090964494
20
-46.145248414426476
10
19.523234322791215
20
-46.50987204912997
10
19.175164052531116
20
-46.84706733033309
10
18.8005946153128
20
-47.15455929349075
10
18.402053128912986
20
-47.430273374238936
10
17.982228443982482
20
-47.67234940491443
10
17.595056836236893
20
-47.981410172412964
10
17.351615670027385
20
-48.41286910492641
10
17.287257271550782
20
-48.90407009067116
10
17.411327714570525
20
-49.383681325964886
10
17.705809591261485
20
-49.78205406116606
10
18.127938485375047
20
-50.04133693488808
10
44.65743860886893
20
-60.0
11
44.65743860886893
21
-60.0
10
60.0
20
-60.0
11
60.0
21
-60.0
0
ENDSEC
0
EOF
