0
SECTION
2
ENTITIES
0
LWPOLYLINE
90
146
70
1
10
-24.782305054943617
20
-53.17957437228572
11
-24.782305054943617
21
-53.17957437228572
10
-24.69976488865031
20
-52.69109967202033
10
-24.805953844937182
20
-52.20721506034747
10
-25.085451250794783
20
-51.79818986311634
10
-25.49766872252082
20
-51.5234223834997
10
-25.9827443774625
20
-51.42281412919623
10
-26.47023592744543
20
-51.51097534825729
10
-26.928775869042116
20
-51.66780229959252
10
-27.39863964535558
20
-51.78646822736054
10
-27.87665721370809
20
-51.866172524929425
10
-28.359603520012104
20
-51.90637744915397
10
-28.844220257330136
20
-51.906811748381955
10
-29.327237848782488
20
-51.86747249251499
10
-29.80539750649022
20
-51.788625092777146
10
-30.275473217727686
20
-51.670801511057775
10
-30.73429350995007
20
-51.5147966709099
10
-31.17876284785313
20
-51.32166309441786
10
-31.60588251810521
20
-51.09270380111805
10
-32.01277086084773
20
-50.82946351688169
10
-32.39668271146792
20
-50.53371825207093
10
-32.75502792147526
20
-50.20746331928159
10
-33.08538883352662
20
-49.85289987151351
10
-33.38553659270053
20
-49.47242005159204
10
-33.6534461839731
20
-49.06859085303309
10
-33.887310094441844
20
-48.64413680123848
10
-34.08555050812189
20
-48.20192157186645
10
-34.24682995103995
20
-47.744928670393534
10
-34.370060314806175
20
-47.27624130321724
10
-34.45441019778454
20
-46.799021576103904
10
-34.49931051433283
20
-46.316489160323925
10
-34.50445833426812
20
-45.83189957040839
10
-34.469818926654106
20
-45.34852220008088
10
-34.39562599412121
20
-44.86961826455021
10
-34.28238009613873
20
-44.39841879798139
10
-34.130845271876716
20
-43.938102854589815
10
-33.94204388544213
20
-43.491776060430006
10
-33.717249728267284
20
-43.06244966058411
10
-33.45797942518657
20
-42.65302020311306
10
-33.16598220218267
20
-42.266249996837296
10
-32.8432280848361
20
-41.90474847479288
10
-32.491894607100264
20
-41.57095458909896
10
-32.11435212007414
20
-41.26712035601335
10
-31.71314779989016
20
-40.995295662193406
10
-31.290988462612027
20
-40.75731443467014
10
-30.850722302085362
20
-40.55478226784298
10
-30.39531967395107
20
-40.38906559097254
10
-29.92785305546644
20
-40.261282449255276
10
-29.451476316339477
20
-40.17229496067762
10
-28.969403440430707
20
-40.12270349954123
10
-28.484886841881096
20
-40.11284264590139
10
-28.00119542196139
20
-40.14277892824668
10
-27.521592514687324
20
-40.21231037464942
10
-27.049313869995505
20
-40.32096787541515
10
-26.58754582302163
20
-40.468018348037745
10
-26.139403796766825
20
-40.652469683107
10
-25.707911283188814
20
-40.87307743780009
10
-25.295979444526793
20
-41.128353231797725
10
-24.906387472484198
20
-41.416574788979965
10
-24.541763837780707
20
-41.73579755715325
10
-24.20456855657758
20
-42.08386782741334
10
-23.897076593419925
20
-42.45843726463166
10
-23.621362512671737
20
-42.85697875103148
10
-23.37928648199625
20
-43.27680343596198
10
-23.07022571449771
20
-43.663975043707566
10
-22.638766781984263
20
-43.90741620991707
10
-22.14756579623951
20
-43.97177460839367
10
-21.667954560945784
20
-43.84770416537393
10
-21.26958182574462
20
-43.553222288682974
10
-21.01029895202259
20
-43.13109339456941
10
-18.45004261583514
20
-36.31066776685513
11
-18.45004261583514
21
-36.31066776685513
10
8.07945750765874
20
-46.269330831967046
11
8.07945750765874
21
-46.269330831967046
10
8.567932207924128
20
-46.35187099826035
10
9.051816819596986
20
-46.24568204197348
10
9.46084201682811
20
-45.966184636115884
10
9.735609496444756
20
-45.553967164389846
10
9.83621775074822
20
-45.06889150944817
10
9.748056531687162
20
-44.58139995946524
10
9.591229580351936
20
-44.122860017868554
10
9.472563652583917
20
-43.65299624155509
10
9.39285935501503
20
-43.17497867320258
10
9.352654430790485
20
-42.69203236689856
10
9.352220131562504
20
-42.20741562958053
10
9.391559387429462
20
-41.72439803812818
10
9.470406787167313
20
-41.24623838042045
10
9.588230368886677
20
-40.77616266918297
10
9.744235209034551
20
-40.317342376960596
10
9.937368785526598
20
-39.87287303905754
10
10.166328078826412
20
-39.445753368805455
10
10.429568363062767
20
-39.038865026062936
10
10.725313627873522
20
-38.654953175442756
10
11.051568560662872
20
-38.296607965435406
10
11.40613200843095
20
-37.96624705338404
10
11.786611828352424
20
-37.666099294210134
10
12.190441026911365
20
-37.398189702937565
10
12.61489507870598
20
-37.16432579246883
10
13.05711030807801
20
-36.966085378788776
10
13.514103209550928
20
-36.80480593587072
10
13.982790576727215
20
-36.68157557210449
10
14.460010303840555
20
-36.59722568912613
10
14.94254271962053
20
-36.55232537257784
10
15.427132309536066
20
-36.547177552642545
10
15.910509679863583
20
-36.58181696025657
10
16.389413615394254
20
-36.65600989278946
10
16.860613081963074
20
-36.769255790771936
10
17.320929025354644
20
-36.92079061503396
10
17.767255819514453
20
-37.109592001468535
10
18.196582219360355
20
-37.33438615864338
10
18.606011676831397
20
-37.593656461724095
10
18.99278188310717
20
-37.885653684728005
10
19.354283405151588
20
-38.208407802074575
10
19.688077290845502
20
-38.5597412798104
10
19.991911523931112
20
-38.937283766836536
10
20.26373621775105
20
-39.338488087020515
10
20.50171744527432
20
-39.76064742429865
10
20.704249612101478
20
-40.200913584825315
10
20.869966288971916
20
-40.656316212959595
10
20.99774943068919
20
-41.12378283144424
10
21.08673691926684
20
-41.60015957057119
10
21.136328380403235
20
-42.08223244647996
10
21.14618923404307
20
-42.566749045029574
10
21.11625295169779
20
-43.05044046494928
10
21.046721505295046
20
-43.530043372223346
10
20.93806400452931
20
-44.002322016915166
10
20.79101353190671
20
-44.46409006388904
10
20.60656219683746
20
-44.912232090143846
10
20.385954442144364
20
-45.34372460372185
10
20.130678648146734
20
-45.75565644238388
10
19.842457090964494
20
-46.145248414426476
10
19.523234322791215
20
-46.50987204912997
10
19.175164052531116
20
-46.84706733033309
10
18.8005946153128
20
-47.15455929349075
10
18.402053128912986
20
-47.430273374238936
10
17.982228443982482
20
-47.67234940491443
10
17.595056836236893
20
-47.981410172412964
10
17.351615670027385
20
-48.41286910492641
10
17.287257271550782
20
-48.90407009067116
10
17.411327714570525
20
-49.383681325964886
10
17.705809591261485
20
-49.78205406116606
10
18.127938485375047
20
-50.04133693488808
10
44.65743860886893
20
-60.0
11
44.65743860886893
21
-60.0
10
-27.342561391131067
20
-60.0
11
-27.342561391131067
21
-60.0
0
ENDSEC
0
EOF
