0
SECTION
2
ENTITIES
0
LWPOLYLINE
90
150
70
1
10
-27.342561391131067
20
-60.0
11
-27.342561391131067
21
-60.0
10
-24.782305054943617
20
-53.17957437228572
11
-24.782305054943617
21
-53.17957437228572
10
-24.69976488865031
20
-52.69109967202033
10
-24.805953844937182
20
-52.20721506034747
10
-25.085451250794783
20
-51.79818986311634
10
-25.49766872252082
20
-51.5234223834997
10
-25.9827443774625
20
-51.42281412919623
10
-26.47023592744543
20
-51.51097534825729
10
-26.928775869042116
20
-51.66780229959252
10
-27.39863964535558
20
-51.78646822736054
10
-27.87665721370809
20
-51.866172524929425
10
-28.359603520012104
20
-51.90637744915397
10
-28.844220257330136
20
-51.906811748381955
10
-29.327237848782488
20
-51.86747249251499
10
-29.80539750649022
20
-51.788625092777146
10
-30.275473217727686
20
-51.670801511057775
10
-30.73429350995007
20
-51.5147966709099
10
-31.17876284785313
20
-51.32166309441786
10
-31.60588251810521
20
-51.09270380111805
10
-32.01277086084773
20
-50.82946351688169
10
-32.39668271146792
20
-50.53371825207093
10
-32.75502792147526
20
-50.20746331928159
10
-33.08538883352662
20
-49.85289987151351
10
-33.38553659270053
20
-49.47242005159204
10
-33.6534461839731
20
-49.06859085303309
10
-33.887310094441844
20
-48.64413680123848
10
-34.08555050812189
20
-48.20192157186645
10
-34.24682995103995
20
-47.744928670393534
10
-34.370060314806175
20
-47.27624130321724
10
-34.45441019778454
20
-46.799021576103904
10
-34.49931051433283
20
-46.316489160323925
10
-34.50445833426812
20
-45.83189957040839
10
-34.469818926654106
20
-45.34852220008088
10
-34.39562599412121
20
-44.86961826455021
10
-34.28238009613873
20
-44.39841879798139
10
-34.130845271876716
20
-43.938102854589815
10
-33.94204388544213
20
-43.491776060430006
10
-33.717249728267284
20
-43.06244966058411
10
-33.45797942518657
20
-42.65302020311306
10
-33.16598220218267
20
-42.266249996837296
10
-32.8432280848361
20
-41.90474847479288
10
-32.491894607100264
20
-41.57095458909896
10
-32.11435212007414
20
-41.26712035601335
10
-31.71314779989016
20
-40.995295662193406
10
-31.290988462612027
20
-40.75731443467014
10
-30.850722302085362
20
-40.55478226784298
10
-30.39531967395107
20
-40.38906559097254
10
-29.92785305546644
20
-40.261282449255276
10
-29.451476316339477
20
-40.17229496067762
10
-28.969403440430707
20
-40.12270349954123
10
-28.484886841881096
20
-40.11284264590139
10
-28.00119542196139
20
-40.14277892824668
10
-27.521592514687324
20
-40.21231037464942
10
-27.049313869995505
20
-40.32096787541515
10
-26.58754582302163
20
-40.468018348037745
10
-26.139403796766825
20
-40.652469683107
10
-25.707911283188814
20
-40.87307743780009
10
-25.295979444526793
20
-41.128353231797725
10
-24.906387472484198
20
-41.416574788979965
10
-24.541763837780707
20
-41.73579755715325
10
-24.20456855657758
20
-42.08386782741334
10
-23.897076593419925
20
-42.45843726463166
10
-23.621362512671737
20
-42.85697875103148
10
-23.37928648199625
20
-43.27680343596198
10
-23.07022571449771
20
-43.663975043707566
10
-22.638766781984263
20
-43.90741620991707
10
-22.14756579623951
20
-43.97177460839367
10
-21.667954560945784
20
-43.84770416537393
10
-21.26958182574462
20
-43.553222288682974
10
-21.01029895202259
20
-43.13109339456941
10
-18.45004261583514
20
-36.31066776685513
11
-18.45004261583514
21
-36.31066776685513
10
-32.89251877529593
20
-23.68933223314487
11
-32.89251877529593
21
-23.68933223314487
10
-41.55997932063811
20
-27.62559714361507
11
-41.55997932063811
21
-27.62559714361507
10
-41.963747804940084
20
-27.912636205304533
10
-42.230818964088215
20
-28.3298812266078
10
-42.322408943720546
20
-28.81674022825205
10
-42.22521712222596
20
-29.30251194591957
10
-41.95335761608952
20
-29.716653009778657
10
-41.5463096394897
20
-29.999022194706978
10
-41.111179536579854
20
-30.21236549609293
10
-40.69502619189412
20
-30.460699876337532
10
-40.30065727848508
20
-30.742349891145228
10
-39.93073349579225
20
-31.05541532472553
10
-39.587750618629
20
-31.397784010030435
10
-39.27402265887101
20
-31.767146078969148
10
-38.9916662534496
20
-32.16100954645768
10
-38.74258638397994
20
-32.57671712316223
10
-38.52846352436999
20
-33.01146414350516
10
-38.35074230312157
20
-33.46231748797825
10
-38.210621756816145
20
-33.92623537209963
10
-38.109047240542154
20
-34.400087868503626
10
-38.04670404984224
20
-34.88067802370653
10
-38.02401279721124
20
-35.36476342707935
10
-38.041126574338435
20
-35.84907808650753
10
-38.09792991923973
20
-36.33035446314846
10
-38.19403959524813
20
-36.80534551662438
10
-38.328807176606965
20
-37.2708466119177
10
-38.5013234232215
20
-37.723717140169015
10
-38.710424415053765
20
-38.160901707507975
10
-38.95469940477341
20
-38.579450748961975
10
-39.23250033568495
20
-38.97654042836611
10
-39.54195296071658
20
-39.34949169001517
10
-39.8809694874537
20
-39.695788333521435
10
-40.24726266390456
20
-40.01309398993198
10
-40.638361209965346
20
-40.299267884572515
10
-41.05162649047261
20
-40.55237928026985
10
-41.48427031735466
20
-40.77072050350872
10
-41.93337376077563
20
-40.95281846563906
10
-42.39590684235852
20
-41.097444601403055
10
-42.86874897762248
20
-41.2036231577297
10
-43.3487100297147
20
-41.270637776874516
10
-43.83255183239321
20
-41.29803632948975
10
-44.31701003705084
20
-41.28563396501766
10
-44.7988161363845
20
-41.2335143588269
10
-45.27471951612197
20
-41.142029147677505
10
-45.741509386029364
20
-41.011795557323715
10
-46.19603644223662
20
-40.84369223826024
10
-46.63523411473133
20
-40.6388533377071
10
-47.056139256669766
20
-40.39866084782788
10
-47.455912135919995
20
-40.12473528180568
10
-47.83185559395967
20
-39.81892474068298
10
-48.18143324286857
20
-39.48329244472813
10
-48.50228657764568
20
-39.12010281345129
10
-48.79225088839887
20
-38.73180618818393
10
-49.04936986505181
20
-38.321022300294516
10
-49.271908796034175
20
-37.8905225965759
10
-49.45836627190725
20
-37.44321154105006
10
-49.60748431496366
20
-36.982107019341996
10
-49.71825686645972
20
-36.510319977828935
10
-49.78993657421916
20
-36.03103343493407
10
-49.822039834814426
20
-35.547481006169875
10
-49.814350056306914
20
-35.062925087816694
10
-49.76691911953375
20
-34.58063484642524
10
-49.680067028081936
20
-34.10386416264211
10
-49.55437974931144
20
-33.63582967816488
10
-49.499147044488566
20
-33.14351904434814
10
-49.632095682025636
20
-32.666292607917676
10
-49.93391896998215
20
-32.273452799982934
10
-50.36078637839568
20
-32.02204749477756
10
-50.85070857284098
20
-31.94858556422171
10
-51.332539454657834
20
-32.0637350895298
10
-60.0
20
-36.0
11
-60.0
21
-36.0
10
-60.0
20
-60.0
11
-60.0
21
-60.0
0
ENDSEC
0
EOF
