0
SECTION
2
ENTITIES
0
LWPOLYLINE
90
146
70
1
10
-48.665328360605336
20
11.041613950437432
11
-48.665328360605336
21
11.041613950437432
10
-48.378289298915874
20
10.637845466135445
10
-47.9610442776126
20
10.370774306987315
10
-47.47418527596835
20
10.279184327354981
10
-46.988413558300834
20
10.376376148849571
10
-46.57427249444174
20
10.648235654986017
10
-46.29190330951342
20
11.055283631585834
10
-46.07856000812747
20
11.490413734495688
10
-45.83022562788287
20
11.906567079181418
10
-45.54857561307517
20
12.300935992590448
10
-45.235510179494874
20
12.670859775283281
10
-44.89314149418996
20
13.013842652446533
10
-44.523779425251256
20
13.327570612204523
10
-44.12991595776271
20
13.609927017625937
10
-43.714208381058164
20
13.859006887095592
10
-43.27946136071523
20
14.073129746705545
10
-42.82860801624216
20
14.25085096795396
10
-42.36469013212077
20
14.390971514259387
10
-41.89083763571677
20
14.492546030533383
10
-41.41024748051387
20
14.554889221233294
10
-40.92616207714104
20
14.577580473864295
10
-40.44184741771286
20
14.560466696737098
10
-39.96057104107194
20
14.503663351835803
10
-39.485579987596026
20
14.407553675827401
10
-39.0200788923027
20
14.27278609446857
10
-38.56720836405138
20
14.100269847854031
10
-38.130023796712415
20
13.891168856021764
10
-37.711474755258415
20
13.646893866302122
10
-37.31438507585428
20
13.369092935390581
10
-36.94143381420522
20
13.059640310358951
10
-36.59513717069897
20
12.720623783621837
10
-36.277831514288415
20
12.354330607170974
10
-35.991657619647874
20
11.963232061110187
10
-35.73854622395055
20
11.549966780602924
10
-35.52020500071167
20
11.117322953720874
10
-35.33810703858133
20
10.668219510299904
10
-35.19348090281734
20
10.205686428717007
10
-35.087302346490695
20
9.732844293453045
10
-35.02028772734588
20
9.252883241360825
10
-34.99288917473066
20
8.769041438682319
10
-35.00529153920274
20
8.284583234024685
10
-35.0574111453935
20
7.802777134691029
10
-35.1488963565429
20
7.326873754953559
10
-35.27912994689668
20
6.86008388504617
10
-35.44723326596016
20
6.40555682883891
10
-35.6520721665133
20
5.966359156344195
10
-35.89226465639253
20
5.545454014405763
10
-36.16619022241472
20
5.1456811351555345
10
-36.47200076353742
20
4.769737677115851
10
-36.80763305949227
20
4.420160028206959
10
-37.170822690769114
20
4.099306693429854
10
-37.55911931603648
20
3.8093423826766637
10
-37.96990320392589
20
3.5522234060237223
10
-38.400402907644505
20
3.329684475041354
10
-38.84771396317034
20
3.143226999168279
10
-39.3088184848784
20
2.994108956111866
10
-39.78060552639146
20
2.8833364046158128
10
-40.25989206928634
20
2.811656696856363
10
-40.74344449805052
20
2.7795534362611023
10
-41.22800041640372
20
2.787243214768617
10
-41.710290657795156
20
2.8346741515417757
10
-42.18706134157829
20
2.921526242993593
10
-42.655095826055515
20
3.0472135217640948
10
-43.14740645987226
20
3.1024462265869626
10
-43.62463289630272
20
2.969497589049899
10
-44.01747270423747
20
2.6676743010933777
10
-44.26887800944284
20
2.2408068926798492
10
-44.342339939998695
20
1.750884698234553
10
-44.2271904146906
20
1.2690538164176974
10
-32.89251877529593
20
-23.68933223314487
11
-32.89251877529593
21
-23.68933223314487
10
-41.55997932063811
20
-27.62559714361507
11
-41.55997932063811
21
-27.62559714361507
10
-41.963747804940084
20
-27.912636205304533
10
-42.230818964088215
20
-28.3298812266078
10
-42.322408943720546
20
-28.81674022825205
10
-42.22521712222596
20
-29.30251194591957
10
-41.95335761608952
20
-29.716653009778657
10
-41.5463096394897
20
-29.999022194706978
10
-41.111179536579854
20
-30.21236549609293
10
-40.69502619189412
20
-30.460699876337532
10
-40.30065727848508
20
-30.742349891145228
10
-39.93073349579225
20
-31.05541532472553
10
-39.587750618629
20
-31.397784010030435
10
-39.27402265887101
20
-31.767146078969148
10
-38.9916662534496
20
-32.16100954645768
10
-38.74258638397994
20
-32.57671712316223
10
-38.52846352436999
20
-33.01146414350516
10
-38.35074230312157
20
-33.46231748797825
10
-38.210621756816145
20
-33.92623537209963
10
-38.109047240542154
20
-34.400087868503626
10
-38.04670404984224
20
-34.88067802370653
10
-38.02401279721124
20
-35.36476342707935
10
-38.041126574338435
20
-35.84907808650753
10
-38.09792991923973
20
-36.33035446314846
10
-38.19403959524813
20
-36.80534551662438
10
-38.328807176606965
20
-37.2708466119177
10
-38.5013234232215
20
-37.723717140169015
10
-38.710424415053765
20
-38.160901707507975
10
-38.95469940477341
20
-38.579450748961975
10
-39.23250033568495
20
-38.97654042836611
10
-39.54195296071658
20
-39.34949169001517
10
-39.8809694874537
20
-39.695788333521435
10
-40.24726266390456
20
-40.01309398993198
10
-40.638361209965346
20
-40.299267884572515
10
-41.05162649047261
20
-40.55237928026985
10
-41.48427031735466
20
-40.77072050350872
10
-41.93337376077563
20
-40.95281846563906
10
-42.39590684235852
20
-41.097444601403055
10
-42.86874897762248
20
-41.2036231577297
10
-43.3487100297147
20
-41.270637776874516
10
-43.83255183239321
20
-41.29803632948975
10
-44.31701003705084
20
-41.28563396501766
10
-44.7988161363845
20
-41.2335143588269
10
-45.27471951612197
20
-41.142029147677505
10
-45.741509386029364
20
-41.011795557323715
10
-46.19603644223662
20
-40.84369223826024
10
-46.63523411473133
20
-40.6388533377071
10
-47.056139256669766
20
-40.39866084782788
10
-47.455912135919995
20
-40.12473528180568
10
-47.83185559395967
20
-39.81892474068298
10
-48.18143324286857
20
-39.48329244472813
10
-48.50228657764568
20
-39.12010281345129
10
-48.79225088839887
20
-38.73180618818393
10
-49.04936986505181
20
-38.321022300294516
10
-49.271908796034175
20
-37.8905225965759
10
-49.45836627190725
20
-37.44321154105006
10
-49.60748431496366
20
-36.982107019341996
10
-49.71825686645972
20
-36.510319977828935
10
-49.78993657421916
20
-36.03103343493407
10
-49.822039834814426
20
-35.547481006169875
10
-49.814350056306914
20
-35.062925087816694
10
-49.76691911953375
20
-34.58063484642524
10
-49.680067028081936
20
-34.10386416264211
10
-49.55437974931144
20
-33.63582967816488
10
-49.499147044488566
20
-33.14351904434814
10
-49.632095682025636
20
-32.666292607917676
10
-49.93391896998215
20
-32.273452799982934
10
-50.36078637839568
20
-32.02204749477756
10
-50.85070857284098
20
-31.94858556422171
10
-51.332539454657834
20
-32.0637350895298
10
-60.0
20
-36.0
11
-60.0
21
-36.0
10
-60.0
20
36.0
11
-60.0
21
36.0
0
ENDSEC
0
EOF
