0
SECTION
2
ENTITIES
0
LINE
8
Polygon
10
2.75
20
-1.0
11
2.749835072151982
21
-0.9842721720879295
0
LINE
8
Polygon
10
2.749835072151982
20
-0.9842721720879295
11
2.7493403611444487
21
-0.9685512613940231
0
LINE
8
Polygon
10
2.7493403611444487
20
-0.9685512613940231
11
2.7485160845550585
21
-0.9528441820941999
0
LINE
8
Polygon
10
2.7485160845550585
20
-0.9528441820941999
11
2.7473626049069146
21
-0.9371578422812264
0
LINE
8
Polygon
10
2.7473626049069146
20
-0.9371578422812264
11
2.7458804295091275
21
-0.9214991409264861
0
LINE
8
Polygon
10
2.7458804295091275
20
-0.9214991409264861
11
2.7440702102336934
21
-0.9058749648457577
0
LINE
8
Polygon
10
2.7440702102336934
20
-0.9058749648457577
11
2.741932743228798
21
-0.890292185670343
0
LINE
8
Polygon
10
2.741932743228798
20
-0.890292185670343
11
2.7394689685686635
21
-0.8747576568248701
0
LINE
8
Polygon
10
2.7394689685686635
20
-0.8747576568248701
11
2.7366799698400968
21
-0.8592782105131052
0
LINE
8
Polygon
10
2.7366799698400968
20
-0.8592782105131052
11
2.733566973665921
21
-0.8438606547130985
0
LINE
8
Polygon
10
2.733566973665921
20
-0.8438606547130985
11
2.730131349165495
21
-0.8285117701829827
0
LINE
8
Polygon
10
2.730131349165495
20
-0.8285117701829827
11
2.726374607352567
21
-0.8132383074787445
0
LINE
8
Polygon
10
2.726374607352567
20
-0.8132383074787445
11
2.7222984004707182
21
-0.7980469839852788
0
LINE
8
Polygon
10
2.7222984004707182
20
-0.7980469839852788
11
2.717904521266692
21
-0.7829444809620318
0
LINE
8
Polygon
10
2.717904521266692
20
-0.7829444809620318
11
2.7131949022019333
21
-0.7679374406045325
0
LINE
8
Polygon
10
2.7131949022019333
20
-0.7679374406045325
11
2.7081716146026746
21
-0.753032463123104
0
LINE
8
Polygon
10
2.7081716146026746
20
-0.753032463123104
11
2.7028368677489527
21
-0.7382361038400419
0
LINE
8
Polygon
10
2.7028368677489527
20
-0.7382361038400419
11
2.6971930079029494
21
-0.7235548703065329
0
LINE
8
Polygon
10
2.6971930079029494
20
-0.723554870306533
11
2.691242517277089
21
-0.7089952194405849
0
LINE
8
Polygon
10
2.691242517277089
20
-0.7089952194405849
11
2.6849880129423407
21
-0.6945635546872251
0
LINE
8
Polygon
10
2.6849880129423407
20
-0.6945635546872251
11
2.678432245677212
21
-0.6802662232022163
0
LINE
8
Polygon
10
2.678432245677212
20
-0.6802662232022163
11
2.6715780987579354
21
-0.6661095130605298
0
LINE
8
Polygon
10
2.6715780987579354
20
-0.6661095130605299
11
2.6644285866903816
21
-0.6520996504908022
0
LINE
8
Polygon
10
2.6644285866903816
20
-0.6520996504908022
11
2.656986853884256
21
-0.6382427971369924
0
LINE
8
Polygon
10
2.656986853884256
20
-0.6382427971369924
11
2.6492561732701647
21
-0.6245450473484444
0
LINE
8
Polygon
10
2.6492561732701647
20
-0.6245450473484444
11
2.6412399448601542
21
-0.6110124254995456
0
LINE
8
Polygon
10
2.6412399448601542
20
-0.6110124254995456
11
2.63294169425236
21
-0.5976508833401616
0
LINE
8
Polygon
10
2.63294169425236
20
-0.5976508833401615
11
2.624365071080422
21
-0.584466297378011
0
LINE
8
Polygon
10
2.624365071080422
20
-0.584466297378011
11
2.615513847408349
21
-0.5714644662941335
0
LINE
8
Polygon
10
2.615513847408349
20
-0.5714644662941335
11
2.6063919160715336
21
-0.5586511083925846
0
LINE
8
Polygon
10
2.6063919160715336
20
-0.5586511083925846
11
2.597003288964657
21
-0.5460318590854835
0
LINE
8
Polygon
10
2.597003288964657
20
-0.5460318590854834
11
2.587352095277224
21
-0.5336122684145147
0
LINE
8
Polygon
10
2.587352095277224
20
-0.5336122684145147
11
2.577442579677517
21
-0.5213977986099789
0
LINE
8
Polygon
10
2.577442579677517
20
-0.5213977986099789
11
2.5672791004457567
21
-0.5093938216884614
0
LINE
8
Polygon
10
2.5672791004457567
20
-0.5093938216884613
11
2.5568661275572975
21
-0.4976056170901788
0
LINE
8
Polygon
10
2.5568661275572975
20
-0.4976056170901788
11
2.546208240716699
21
-0.48603836935704203
0
LINE
8
Polygon
10
2.546208240716699
20
-0.48603836935704203
11
2.5353101273435383
21
-0.4746971658524535
0
LINE
8
Polygon
10
2.5353101273435383
20
-0.4746971658524535
11
2.5241765805108445
21
-0.4635869945238481
0
LINE
8
Polygon
10
2.5241765805108445
20
-0.463586994523848
11
2.5128124968370704
21
-0.4527127417089545
0
LINE
8
Polygon
10
2.5128124968370704
20
-0.4527127417089545
11
2.501222874332523
21
-0.4420791899867478
0
LINE
8
Polygon
10
2.501222874332523
20
-0.4420791899867478
11
2.4894128102012
21
-0.43169101607403393
0
LINE
8
Polygon
10
2.4894128102012
20
-0.4316910160740338
11
2.477387498599
21
-0.42155278876859503
0
LINE
8
Polygon
10
2.477387498599
20
-0.42155278876859503
11
2.4651522283492944
21
-0.41166896693979693
0
LINE
8
Polygon
10
2.4651522283492944
20
-0.41166896693979693
11
2.4527123806168625
21
-0.4020438975675448
0
LINE
8
Polygon
10
2.4527123806168625
20
-0.4020438975675448
11
2.4400734265412143
21
-0.3926818138304482
0
LINE
8
Polygon
10
2.4400734265412143
20
-0.3926818138304482
11
2.4272409248303415
21
-0.383586833244037
0
LINE
8
Polygon
10
2.4272409248303415
20
-0.383586833244037
11
2.4142205193159554
21
-0.374762955849847
0
LINE
8
Polygon
10
2.4142205193159554
20
-0.374762955849847
11
2.4010179364712876
21
-0.36621406245617083
0
LINE
8
Polygon
10
2.401017936471287
20
-0.36621406245617083
11
2.3990428546775258
21
-0.36503396361990886
0
LINE
8
Polygon
10
2.3990428546775258
20
-0.36503396361990886
11
2.397010037571101
21
-0.3639563570278616
0
LINE
8
Polygon
10
2.397010037571101
20
-0.3639563570278616
11
2.3949247991681784
21
-0.36298405966677677
0
LINE
8
Polygon
10
2.3949247991681784
20
-0.36298405966677677
11
2.392792590520181
21
-0.36211961323304076
0
LINE
8
Polygon
10
2.392792590520181
20
-0.36211961323304076
11
2.3906189854641173
21
-0.3613652774883941
0
LINE
8
Polygon
10
2.3906189854641173
20
-0.3613652774883941
11
2.3884096660519387
21
-0.36072302435265574
0
LINE
8
Polygon
10
2.3884096660519387
20
-0.36072302435265574
11
2.3861704076970014
21
-0.3601945327488997
0
LINE
8
Polygon
10
2.3861704076970014
20
-0.36019453274889973
11
2.3839070640764803
21
-0.3597811842145581
0
LINE
8
Polygon
10
2.3839070640764803
20
-0.3597811842145581
11
2.3816255518291856
21
-0.3594840592899247
0
LINE
8
Polygon
10
2.3816255518291856
20
-0.3594840592899247
11
2.379331835088793
21
-0.3593039346934988
0
LINE
8
Polygon
10
2.379331835088793
20
-0.3593039346934988
11
2.3770319098929176
21
-0.35924128129155464
0
LINE
8
Polygon
10
2.3770319098929176
20
-0.35924128129155464
11
2.374731788508788
21
-0.35929626286724303
0
LINE
8
Polygon
10
2.374731788508788
20
-0.35929626286724303
11
2.3724374837164897
21
-0.3594687356924435
0
LINE
8
Polygon
10
2.3724374837164897
20
-0.3594687356924435
11
2.370154993090873
21
-0.35975824890348596
0
LINE
8
Polygon
10
2.370154993090873
20
-0.35975824890348596
11
2.367890283323207
21
-0.3601640456797601
0
LINE
8
Polygon
10
2.367890283323207
20
-0.3601640456797601
11
2.365649274623567
21
-0.36068506522213056
0
LINE
8
Polygon
10
2.365649274623567
20
-0.36068506522213056
11
2.3634378252447275
21
-0.36131994552598734
0
LINE
8
Polygon
10
2.3634378252447275
20
-0.36131994552598734
11
2.3612617161680216
21
-0.36206702694168136
0
LINE
8
Polygon
10
2.3612617161680216
20
-0.36206702694168136
11
2.3591266359911964
21
-0.3629243565130382
0
LINE
8
Polygon
10
2.3591266359911964
20
-0.3629243565130382
11
2.3570381660577655
21
-0.3638896930826089
0
LINE
8
Polygon
10
2.3570381660577655
20
-0.3638896930826089
11
2.3550017658667417
21
-0.3649605131503112
0
LINE
8
Polygon
10
2.3550017658667417
20
-0.36496051315031125
11
2.3530227588008823
21
-0.3661340174701475
0
LINE
8
Polygon
10
2.3530227588008823
20
-0.3661340174701475
11
2.351106318210758
21
-0.36740713836775324
0
LINE
8
Polygon
10
2.351106318210758
20
-0.36740713836775324
11
2.3492574538910245
21
-0.36877654775964863
0
LINE
8
Polygon
10
2.3492574538910245
20
-0.36877654775964863
11
2.3474809989842447
21
-0.3702386658532288
0
LINE
8
Polygon
10
2.3474809989842447
20
-0.3702386658532288
11
2.345781597346505
21
-0.37178967050475076
0
LINE
8
Polygon
10
2.345781597346505
20
-0.37178967050475076
11
2.3441636914078416
21
-0.37342550721085377
0
LINE
8
Polygon
10
2.3441636914078416
20
-0.37342550721085377
11
2.3426315105592237
21
-0.37514189970749445
0
LINE
8
Polygon
10
2.3426315105592237
20
-0.37514189970749445
11
2.3411890600964407
21
-0.3769343611485895
0
LINE
8
Polygon
10
2.3411890600964407
20
-0.3769343611485895
11
2.3398401107498015
21
-0.3787982058351439
0
LINE
8
Polygon
10
2.3398401107498015
20
-0.3787982058351439
11
2.338588188827015
21
-0.3807285614642035
0
LINE
8
Polygon
10
2.338588188827015
20
-0.3807285614642035
11
2.337436566995019
21
-0.38272038186561164
0
LINE
8
Polygon
10
2.337436566995019
20
-0.38272038186561164
11
2.3363882557248545
21
-0.38476846019327443
0
LINE
8
Polygon
10
2.3363882557248545
20
-0.38476846019327443
11
2.335445995421951
21
-0.3868674425364512
0
LINE
8
Polygon
10
2.335445995421951
20
-0.3868674425364512
11
2.3346122492623933
21
-0.38901184191548915
0
LINE
8
Polygon
10
2.3346122492623933
20
-0.38901184191548915
11
2.3338891967538973
21
-0.3911960526254147
0
LINE
8
Polygon
10
2.3338891967538973
20
-0.3911960526254147
11
2.3332787280383287
21
-0.3934143648898869
0
LINE
8
Polygon
10
2.3332787280383287
20
-0.3934143648898869
11
2.3327824389506557
21
-0.39566097978720527
0
LINE
8
Polygon
10
2.3327824389506557
20
-0.39566097978720527
11
2.332401626847255
21
-0.3979300244093533
0
LINE
8
Polygon
10
2.332401626847255
20
-0.3979300244093533
11
2.3321372872144717
21
-0.4002155672144514
0
LINE
8
Polygon
10
2.3321372872144717
20
-0.4002155672144514
11
2.331990111066307
21
-0.4025116335324847
0
LINE
8
Polygon
10
2.331990111066307
20
-0.4025116335324847
11
2.3319604831380265
21
-0.4048122211837733
0
LINE
8
Polygon
10
2.3319604831380265
20
-0.4048122211837733
11
2.3320484808804207
21
-0.40711131616935553
0
LINE
8
Polygon
10
2.3320484808804207
20
-0.40711131616935553
11
2.3322538742573364
21
-0.4094029083922684
0
LINE
8
Polygon
10
2.3322538742573364
20
-0.4094029083922684
11
2.3325761263470204
21
-0.41168100736862784
0
LINE
8
Polygon
10
2.3325761263470204
20
-0.41168100736862784
11
2.3330143947456934
21
-0.4139396578874378
0
LINE
8
Polygon
10
2.3330143947456934
20
-0.4139396578874378
11
2.333567533769689
21
-0.41617295557819217
0
LINE
8
Polygon
10
2.333567533769689
20
-0.4161729555781922
11
2.3342340974504023
21
-0.41837506234557414
0
LINE
8
Polygon
10
1.9611625146819192
20
-0.33030480833877285
11
1.947767774480217
21
-0.34500605574492504
0
LINE
8
Polygon
10
1.947767774480217
20
-0.34500605574492504
11
1.9357235740033663
21
-0.3608327096945574
0
LINE
8
Polygon
10
1.9357235740033663
20
-0.3608327096945574
11
1.925124017591016
21
-0.37766111259647867
0
LINE
8
Polygon
10
1.925124017591016
20
-0.37766111259647867
11
1.9160519222187458
21
-0.39535977994530513
0
LINE
8
Polygon
10
1.9160519222187458
20
-0.39535977994530525
11
1.9085781704283964
21
-0.41379042764266616
0
LINE
8
Polygon
10
1.9085781704283964
20
-0.41379042764266616
11
1.9027611565051086
21
-0.43280905244532375
0
LINE
8
Polygon
10
1.9027611565051086
20
-0.43280905244532375
11
1.898646330228221
21
-0.4522670570983971
0
LINE
8
Polygon
10
1.898646330228221
20
-0.4522670570983971
11
1.8962658417608185
21
-0.4720124113627437
0
LINE
8
Polygon
10
1.8962658417608185
20
-0.4720124113627437
11
1.8956382904524969
21
-0.491890839865103
0
LINE
8
Polygon
10
1.8956382904524969
20
-0.4918908398651031
11
1.8967685795180091
21
-0.5117470274900318
0
LINE
8
Polygon
10
1.8967685795180091
20
-0.5117470274900316
11
1.8996478777272265
21
-0.5314258328956041
0
LINE
8
Polygon
10
1.8996478777272265
20
-0.5314258328956041
11
1.9042536884057415
21
-0.5507735006713766
0
LINE
8
Polygon
10
1.9042536884057415
20
-0.5507735006713766
11
1.9105500252069894
21
-0.5696388626677243
0
LINE
8
Polygon
10
1.9105500252069894
20
-0.5696388626677243
11
1.918487693282542
21
-0.5878745191102639
0
LINE
8
Polygon
10
1.918487693282542
20
-0.5878745191102639
11
1.9280046736537189
21
-0.6053379902710219
0
LINE
8
Polygon
10
1.9280046736537189
20
-0.6053379902710219
11
1.9390266077813196
21
-0.6218928296980538
0
LINE
8
Polygon
10
1.9390266077813199
20
-0.6218928296980539
11
1.951467378547423
21
-0.6374096903055756
0
LINE
8
Polygon
10
1.951467378547423
20
-0.6374096903055755
11
1.9652297831098868
21
-0.6517673349949757
0
LINE
8
Polygon
10
1.9652297831098868
20
-0.6517673349949757
11
1.9802062923723776
21
-0.6648535839104796
0
LINE
8
Polygon
10
1.9802062923723773
20
-0.6648535839104794
11
1.9962798911359938
21
-0.6765661909283154
0
LINE
8
Polygon
10
1.9962798911359938
20
-0.6765661909283154
11
2.0133249923681764
21
-0.6868136425311598
0
LINE
8
Polygon
10
2.0133249923681764
20
-0.6868136425311598
11
2.0312084184454875
21
-0.6955158728260522
0
LINE
8
Polygon
10
2.031208418445487
20
-0.6955158728260522
11
2.04979044170357
21
-0.7026048891191684
0
LINE
8
Polygon
10
2.04979044170357
20
-0.7026048891191684
11
2.068925876164209
21
-0.7080253031596808
0
LINE
8
Polygon
10
2.068925876164209
20
-0.7080253031596808
11
2.088465211909557
21
-0.7117347639019649
0
LINE
8
Polygon
10
2.088465211909557
20
-0.7117347639019649
11
2.1082557832403808
21
-0.7137042884048713
0
LINE
8
Polygon
10
2.1082557832403808
20
-0.7137042884048712
11
2.128142961491212
21
-0.7139184882826682
0
LINE
8
Polygon
10
2.128142961491212
20
-0.7139184882826682
11
2.1479713631826423
21
-0.7123756899383336
0
LINE
8
Polygon
10
2.1479713631826423
20
-0.7123756899383336
11
2.167586064071168
21
-0.7090879476397853
0
LINE
8
Polygon
10
2.1675860640711675
20
-0.7090879476397853
11
2.1868338096109112
21
-0.7040809493368825
0
LINE
8
Polygon
10
2.1868338096109112
20
-0.7040809493368825
11
2.205564212369578
21
-0.6973938159550719
0
LINE
8
Polygon
10
2.205564212369578
20
-0.6973938159550719
11
2.223630927042939
21
-0.6890787957338487
0
LINE
8
Polygon
10
2.223630927042939
20
-0.6890787957338489
11
2.2408927938871623
21
-0.679200855998242
0
LINE
8
Polygon
10
2.2408927938871623
20
-0.6792008559982421
11
2.2572149416350675
21
-0.6678371755529138
0
LINE
8
Polygon
10
2.2572149416350675
20
-0.6678371755529138
11
2.2724698412789444
21
-0.6550765416649267
0
LINE
8
Polygon
10
2.2724698412789444
20
-0.6550765416649267
11
2.286538302486469
21
-0.6410186563467015
0
LINE
8
Polygon
10
2.2865383024864685
20
-0.6410186563467016
11
2.299310404864472
21
-0.6257733573593486
0
LINE
8
Polygon
10
2.299310404864472
20
-0.6257733573593486
11
2.310686356794364
21
-0.6094597600228693
0
LINE
8
Polygon
10
2.310686356794364
20
-0.6094597600228693
11
2.320577275128914
21
-0.5922053265384788
0
LINE
8
Polygon
10
2.3205772751289135
20
-0.592205326538479
11
2.328905879658432
21
-0.5741448700946659
0
LINE
8
Polygon
10
2.328905879658432
20
-0.5741448700946661
11
2.3356070969203047
21
-0.555419501538155
0
LINE
8
Polygon
10
2.3356070969203047
20
-0.555419501538155
11
2.3406285686341715
21
-0.5361755268396986
0
LINE
8
Polygon
10
2.3406285686341715
20
-0.5361755268396986
11
2.343931060790219
21
-0.5165633039690694
0
LINE
8
Polygon
10
2.343931060790219
20
-0.5165633039690696
11
2.345488770194276
21
-0.4967360681107734
0
LINE
8
Polygon
10
2.345488770194276
20
-0.4967360681107734
11
2.345289526074599
21
-0.4768487343993689
0
LINE
8
Polygon
10
2.345289526074599
20
-0.4768487343993689
11
2.3433348851751457
21
-0.45705668752891676
0
LINE
8
Polygon
10
2.3433348851751457
20
-0.457056687528917
11
2.339640119592345
21
-0.4375145676936447
0
LINE
8
Polygon
10
2.339640119592345
20
-0.43751456769364494
11
2.334234097450403
21
-0.41837506234557437
0
LINE
8
Polygon
10
1.9611625146819192
20
-0.33030480833877285
11
1.9627435194475982
21
-0.32863328050882323
0
LINE
8
Polygon
10
1.9627435194475982
20
-0.32863328050882323
11
1.964237023121167
21
-0.32688312962034755
0
LINE
8
Polygon
10
1.964237023121167
20
-0.32688312962034755
11
1.9656391215133908
21
-0.32505893076772235
0
LINE
8
Polygon
10
1.9656391215133908
20
-0.32505893076772235
11
1.9669461493788831
21
-0.3231654526151624
0
LINE
8
Polygon
10
1.9669461493788833
20
-0.3231654526151624
11
1.9681546899974764
21
-0.3212076449308875
0
LINE
8
Polygon
10
1.9681546899974764
20
-0.3212076449308875
11
1.9692615841059185
21
-0.31919062564786305
0
LINE
8
Polygon
10
1.9692615841059185
20
-0.31919062564786305
11
1.9702639381565472
21
-0.3171196674849385
0
LINE
8
Polygon
10
1.9702639381565472
20
-0.3171196674849385
11
1.971159131881356
21
-0.31500018416335784
0
LINE
8
Polygon
10
1.971159131881356
20
-0.31500018416335784
11
1.9719448251416727
21
-0.3128377162546737
0
LINE
8
Polygon
10
1.9719448251416727
20
-0.3128377162546737
11
1.9726189640455496
21
-0.31063791669706053
0
LINE
8
Polygon
10
1.9726189640455496
20
-0.31063791669706053
11
1.973179786316872
21
-0.30840653601788803
0
LINE
8
Polygon
10
1.973179786316872
20
-0.30840653601788803
11
1.973625825902149
21
-0.30614940730118584
0
LINE
8
Polygon
10
1.973625825902149
20
-0.30614940730118584
11
1.9739559168029448
21
-0.30387243093929545
0
LINE
8
Polygon
10
1.9739559168029448
20
-0.30387243093929545
11
1.974169196123932
21
-0.30158155920857044
0
LINE
8
Polygon
10
1.974169196123932
20
-0.3015815592085705
11
1.9742651063285985
21
-0.2992827807094461
0
LINE
8
Polygon
10
1.9742651063285985
20
-0.2992827807094461
11
1.9742433966967115
21
-0.2969821047115535
0
LINE
8
Polygon
10
1.9742433966967115
20
-0.2969821047115535
11
1.9741041239797288
21
-0.29468554544480247
0
LINE
8
Polygon
10
1.9741041239797288
20
-0.29468554544480247
11
1.973847652252445
21
-0.2923991063774972
0
LINE
8
Polygon
10
1.973847652252445
20
-0.2923991063774972
11
1.9734746519612567
21
-0.29012876452258435
0
LINE
8
Polygon
10
1.9734746519612567
20
-0.29012876452258435
11
1.9729860981715401
21
-0.28788045481305824
0
LINE
8
Polygon
10
1.9729860981715401
20
-0.28788045481305824
11
1.972383268018719
21
-0.28566005458736804
0
LINE
8
Polygon
10
1.972383268018719
20
-0.28566005458736804
11
1.9716677373696854
21
-0.28347336822538344
0
LINE
8
Polygon
10
1.9716677373696854
20
-0.28347336822538344
11
1.9708413767033055
21
-0.28132611197508267
0
LINE
8
Polygon
10
1.9708413767033055
20
-0.28132611197508267
11
1.969906346220772
21
-0.2792238990096272
0
LINE
8
Polygon
10
1.969906346220772
20
-0.2792238990096272
11
1.9688650901985936
21
-0.2771722247538856
0
LINE
8
Polygon
10
1.9688650901985936
20
-0.2771722247538856
11
1.9677203305989752
21
-0.2751764525187653
0
LINE
8
Polygon
10
1.967720330598975
20
-0.2751764525187653
11
1.9664750599542982
21
-0.27324179948090516
0
LINE
8
Polygon
10
1.9664750599542982
20
-0.27324179948090516
11
1.9651325335442997
21
-0.2713733230443793
0
LINE
8
Polygon
10
1.9651325335442997
20
-0.2713733230443793
11
1.9636962608863986
21
-0.26957590762006545
0
LINE
8
Polygon
10
1.9636962608863986
20
-0.26957590762006545
11
1.962169996561416
21
-0.26785425185723677
0
LINE
8
Polygon
10
1.962169996561416
20
-0.26785425185723677
11
1.9605577303986725
21
-0.26621285636075576
0
LINE
8
Polygon
10
1.9605577303986725
20
-0.26621285636075576
11
1.9588636770461183
21
-0.26465601192597893
0
LINE
8
Polygon
10
1.9588636770461183
20
-0.26465601192597893
11
1.957092264952762
21
-0.26318778832212764
0
LINE
8
Polygon
10
1.957092264952762
20
-0.2631877883221276
11
1.9552481247921982
21
-0.2618120236534462
0
LINE
8
Polygon
10
1.9552481247921982
20
-0.2618120236534462
11
1.9533360773574995
21
-0.26053231432595914
0
LINE
8
Polygon
10
1.9533360773574995
20
-0.26053231432595914
11
1.9513611209591104
21
-0.25935200564605476
0
LINE
8
Polygon
10
1.9513611209591104
20
-0.25935200564605476
11
1.9493284183586943
21
-0.25827418307547206
0
LINE
8
Polygon
10
1.9493284183586943
20
-0.25827418307547206
11
1.9472432832730842
21
-0.2573016641655514
0
LINE
8
Polygon
10
1.9472432832730842
20
-0.2573016641655514
11
1.9451111664836196
21
-0.2564369911918331
0
LINE
8
Polygon
10
1.9451111664836196
20
-0.2564369911918331
11
1.9429376415871815
21
-0.25568242450825907
0
LINE
8
Polygon
10
1.9429376415871815
20
-0.25568242450825907
11
1.9407283904261738
21
-0.255039936638349
0
LINE
8
Polygon
10
1.9407283904261738
20
-0.255039936638349
11
1.938489188235537
21
-0.2545112071187989
0
LINE
8
Polygon
10
1.938489188235537
20
-0.2545112071187989
11
1.9362258885456258
21
-0.2540976181089799
0
LINE
8
Polygon
10
1.9362258885456258
20
-0.2540976181089799
11
1.9339444078804104
21
-0.2538002507778161
0
LINE
8
Polygon
10
1.9339444078804104
20
-0.2538002507778161
11
1.9316507102910077
21
-0.25361988247748524
0
LINE
8
Polygon
10
1.9316507102910077
20
-0.25361988247748524
11
1.9293507917649706
21
-0.25355698471133137
0
LINE
8
Polygon
10
1.9293507917649706
20
-0.25355698471133137
11
1.9270506645520908
21
-0.25361172190130127
0
LINE
8
Polygon
10
1.9270506645520908
20
-0.25361172190130127
11
1.9247563414476916
21
-0.25378395095812667
0
LINE
8
Polygon
10
1.9247563414476914
20
-0.25378395095812656
11
1.9091244110078598
21
-0.25552593911854016
0
LINE
8
Polygon
10
1.9091244110078598
20
-0.25552593911854016
11
1.893532448342241
21
-0.2575953526249971
0
LINE
8
Polygon
10
1.893532448342241
20
-0.2575953526249971
11
1.877987310914432
21
-0.25999128133372074
0
LINE
8
Polygon
10
1.877987310914432
20
-0.25999128133372074
11
1.8624958355939345
21
-0.26271267149706845
0
LINE
8
Polygon
10
1.8624958355939343
20
-0.26271267149706845
11
1.8470648356492472
21
-0.26575832622697837
0
LINE
8
Polygon
10
1.8470648356492472
20
-0.26575832622697837
11
1.8317010977513406
21
-0.26912690602136935
0
LINE
8
Polygon
10
1.8317010977513406
20
-0.26912690602136935
11
1.8164113789888248
21
-0.2728169293532645
0
LINE
8
Polygon
10
1.8164113789888248
20
-0.2728169293532645
11
1.801202403896133
21
-0.2768267733223777
0
LINE
8
Polygon
10
1.801202403896133
20
-0.2768267733223777
11
1.7860808614960186
21
-0.28115467436887764
0
LINE
8
Polygon
10
1.7860808614960186
20
-0.28115467436887764
11
1.771053402357673
21
-0.28579872904901493
0
LINE
8
Polygon
10
1.771053402357673
20
-0.28579872904901493
11
1.7561266356717544
21
-0.2907568948722711
0
LINE
8
Polygon
10
1.7561266356717544
20
-0.2907568948722711
11
1.7413071263436157
21
-0.29602699119966114
0
LINE
8
Polygon
10
1.7413071263436155
20
-0.29602699119966114
11
1.7266013921060097
21
-0.30160670020279534
0
LINE
8
Polygon
10
1.7266013921060097
20
-0.30160670020279534
11
1.7120159006525397
21
-0.307493567883278
0
LINE
8
Polygon
10
1.7120159006525397
20
-0.307493567883278
11
1.6975570667931197
21
-0.31368500515199393
0
LINE
8
Polygon
10
1.6975570667931197
20
-0.31368500515199393
11
1.6832312496326916
21
-0.3201782889678104
0
LINE
8
Polygon
10
1.6832312496326916
20
-0.3201782889678104
11
1.6690447497744434
21
-0.3269705635351903
0
LINE
8
Polygon
10
1.6690447497744434
20
-0.3269705635351903
11
1.655003806548755
21
-0.33405884156019383
0
LINE
8
Polygon
10
1.655003806548755
20
-0.33405884156019383
11
1.6411145952690938
21
-0.34144000556431187
0
LINE
8
Polygon
10
1.6411145952690938
20
-0.34144000556431187
11
1.6273832245160653
21
-0.3491108092555576
0
LINE
8
Polygon
10
1.6273832245160653
20
-0.3491108092555576
11
1.6138157334508128
21
-0.3570678789562103
0
LINE
8
Polygon
10
1.6138157334508128
20
-0.3570678789562103
11
1.6004180891589477
21
-0.3653077150865838
0
LINE
8
Polygon
10
1.6004180891589477
20
-0.3653077150865838
11
1.5871961840261808
21
-0.37382669370416854
0
LINE
8
Polygon
10
1.5871961840261808
20
-0.37382669370416854
11
1.5741558331468062
21
-0.38262106809746965
0
LINE
8
Polygon
10
1.5741558331468062
20
-0.38262106809746965
11
1.5613027717661785
21
-0.39168697043383804
0
LINE
8
Polygon
10
1.5613027717661785
20
-0.39168697043383804
11
1.548642652758308
21
-0.40102041346057316
0
LINE
8
Polygon
10
1.548642652758308
20
-0.40102041346057316
11
1.5361810441396846
21
-0.41061729225854715
0
LINE
8
Polygon
10
1.5361810441396846
20
-0.41061729225854715
11
1.523923426620421
21
-0.4204733860475791
0
LINE
8
Polygon
10
1.523923426620421
20
-0.4204733860475791
11
1.5118751911937949
21
-0.43058436004276646
0
LINE
8
Polygon
10
1.5118751911937949
20
-0.43058436004276646
11
1.5000416367652507
21
-0.4409457673609559
0
LINE
8
Polygon
10
1.5000416367652507
20
-0.4409457673609559
11
1.4884279678218977
21
-0.4515530509765173
0
LINE
8
Polygon
10
1.4884279678218975
20
-0.45155305097651743
11
1.47703929214354
21
-0.46240154572555714
0
LINE
8
Polygon
10
1.47703929214354
20
-0.46240154572555714
11
1.4658806185562347
21
-0.47348648035769336
0
LINE
8
Polygon
10
1.4658806185562347
20
-0.47348648035769336
11
1.4549568547293728
21
-0.48480297963448804
0
LINE
8
Polygon
10
1.4549568547293728
20
-0.48480297963448804
11
1.4442728050172473
21
-0.49634606647361346
0
LINE
8
Polygon
10
1.4442728050172473
20
-0.49634606647361346
11
1.433833168346065
21
-0.5081106641378116
0
LINE
8
Polygon
10
1.433833168346065
20
-0.5081106641378116
11
1.423642536147319
21
-0.5200915984676808
0
LINE
8
Polygon
10
1.423642536147319
20
-0.5200915984676808
11
1.413705390338446
21
-0.5322836001573111
0
LINE
8
Polygon
10
1.413705390338446
20
-0.5322836001573111
11
1.404026101351642
21
-0.5446813070717647
0
LINE
8
Polygon
10
1.404026101351642
20
-0.5446813070717647
11
1.394608926211715
21
-0.5572792666053834
0
LINE
8
Polygon
10
1.394608926211715
20
-0.5572792666053834
11
1.3854580066638122
21
-0.5700719380798865
0
LINE
8
Polygon
10
1.385458006663812
20
-0.5700719380798868
11
1.3765773673518493
21
-0.5830536951812031
0
LINE
8
Polygon
10
1.3765773673518493
20
-0.5830536951812031
11
1.3679709140484422
21
-0.5962188284339669
0
LINE
8
Polygon
10
1.3679709140484422
20
-0.5962188284339669
11
1.3596424319371168
21
-0.609561547712588
0
LINE
8
Polygon
10
1.3596424319371168
20
-0.609561547712588
11
1.351595583947558
21
-0.6230759847877935
0
LINE
8
Polygon
10
1.351595583947558
20
-0.6230759847877935
11
1.3438339091446254
21
-0.6367561959075195
0
LINE
8
Polygon
10
1.3438339091446254
20
-0.6367561959075195
11
1.336360821171845
21
-0.6505961644110183
0
LINE
8
Polygon
10
1.336360821171845
20
-0.6505961644110183
11
1.329179606750063
21
-0.6645898033750315
0
LINE
8
Polygon
10
0.32917960675006275
20
0.6583592135001264
11
0.332213212892178
21
0.6568466926801646
0
LINE
8
Polygon
10
0.332213212892178
20
0.6568466926801646
11
0.33525022934289994
21
0.655341031186222
0
LINE
8
Polygon
10
0.3352502293428987
20
0.6553410311862224
11
0.33829064059254155
21
0.6538422367075354
0
LINE
8
Polygon
10
0.33829064059254155
20
0.6538422367075354
11
0.34133443111408224
21
0.6523503168982709
0
LINE
8
Polygon
10
0.34133443111408224
20
0.6523503168982709
11
0.3443815853632408
21
0.6508652793774885
0
LINE
8
Polygon
10
0.3443815853632408
20
0.6508652793774885
11
0.3474320877785586
21
0.6493871317290993
0
LINE
8
Polygon
10
0.3474320877785573
20
0.6493871317291
11
0.35048592278147717
21
0.6479158815018309
0
LINE
8
Polygon
10
0.35048592278147717
20
0.6479158815018309
11
0.35354307477642266
21
0.6464515362091838
0
LINE
8
Polygon
10
0.35354307477642266
20
0.6464515362091838
11
0.35660352815087815
21
0.644994103329398
0
LINE
8
Polygon
10
0.3566035281508769
20
0.6449941033293984
11
0.35966726727546683
21
0.6435435903054121
0
LINE
8
Polygon
10
0.35966726727546683
20
0.6435435903054121
11
0.36273427650403567
21
0.6421000045448246
0
LINE
8
Polygon
10
0.36273427650403567
20
0.6421000045448246
11
0.3658045401737279
21
0.6406633534198591
0
LINE
8
Polygon
10
0.3658045401737279
20
0.6406633534198591
11
0.36887804260506785
21
0.6392336442673234
0
LINE
8
Polygon
10
0.36887804260506674
20
0.6392336442673239
11
0.371954768102039
21
0.6378108843885748
0
LINE
8
Polygon
10
0.371954768102039
20
0.6378108843885748
11
0.3750347009521682
21
0.6363950810494801
0
LINE
8
Polygon
10
0.3750347009521682
20
0.6363950810494801
11
0.3781178254265992
21
0.6349862414803804
0
LINE
8
Polygon
10
0.3781178254265981
20
0.6349862414803811
11
0.38120412578017693
21
0.6335843728760546
0
LINE
8
Polygon
10
0.38120412578017693
20
0.6335843728760546
11
0.38429358625153065
21
0.6321894823956797
0
LINE
8
Polygon
10
0.38429358625153065
20
0.6321894823956797
11
0.38738619106314753
21
0.6308015771627979
0
LINE
8
Polygon
10
0.3873861910631464
20
0.6308015771627984
11
0.39048192442145746
21
0.6294206642652787
0
LINE
8
Polygon
10
0.39048192442145746
20
0.6294206642652787
11
0.39358077051691653
21
0.6280467507552805
0
LINE
8
Polygon
10
0.39358077051691653
20
0.6280467507552805
11
0.3966827135240809
21
0.6266798436492189
0
LINE
8
Polygon
10
0.3966827135240809
20
0.6266798436492189
11
0.3997877376016922
21
0.6253199499277278
0
LINE
8
Polygon
10
0.39978773760169095
20
0.6253199499277282
11
0.4028958268927564
21
0.6239670765356249
0
LINE
8
Polygon
10
0.4028958268927564
20
0.6239670765356249
11
0.40600696552462945
21
0.6226212303818746
0
LINE
8
Polygon
10
0.40600696552462945
20
0.6226212303818746
11
0.40912113760909063
21
0.6212824183395553
0
LINE
8
Polygon
10
0.4091211376090895
20
0.621282418339556
11
0.4122383272424285
21
0.6199506472458236
0
LINE
8
Polygon
10
0.4122383272424285
20
0.6199506472458236
11
0.4153585185055242
21
0.6186259239018765
0
LINE
8
Polygon
10
0.4153585185055242
20
0.6186259239018765
11
0.41848169546392666
21
0.617308255072921
0
LINE
8
Polygon
10
0.41848169546392666
20
0.617308255072921
11
0.42160784216793834
21
0.615997647488137
0
LINE
8
Polygon
10
0.42160784216793723
20
0.6159976474881375
11
0.42473694265269457
21
0.6146941078406434
0
LINE
8
Polygon
10
0.42473694265269457
20
0.6146941078406434
11
0.4278689809382492
21
0.6133976427874634
0
LINE
8
Polygon
10
0.4278689809382492
20
0.6133976427874634
11
0.4310039410296499
21
0.6121082589494922
0
LINE
8
Polygon
10
0.4310039410296487
20
0.6121082589494926
11
0.43414180691702287
21
0.6108259629114614
0
LINE
8
Polygon
10
0.43414180691702287
20
0.6108259629114614
11
0.43728256257565845
21
0.6095507612219055
0
LINE
8
Polygon
10
0.43728256257565845
20
0.6095507612219055
11
0.44042619196608535
21
0.60828266039313
0
LINE
8
Polygon
10
0.4404261919660841
20
0.6082826603931306
11
0.44357267903415676
21
0.6070216669011774
0
LINE
8
Polygon
10
0.44357267903415676
20
0.6070216669011774
11
0.4467220077111357
21
0.6057677871857918
0
LINE
8
Polygon
10
0.4467220077111357
20
0.6057677871857918
11
0.4498741619137696
21
0.6045210276503905
0
LINE
8
Polygon
10
0.4498741619137696
20
0.6045210276503905
11
0.4530291255443776
21
0.6032813946620272
0
LINE
8
Polygon
10
0.45302912554437635
20
0.6032813946620277
11
0.4561868824909301
21
0.6020488945513629
0
LINE
8
Polygon
10
0.4561868824909301
20
0.6020488945513629
11
0.4593474166271361
21
0.6008235336126295
0
LINE
8
Polygon
10
0.4593474166271361
20
0.6008235336126295
11
0.46251071181251824
21
0.5996053181036018
0
LINE
8
Polygon
10
0.462510711812517
20
0.5996053181036023
11
0.4656767518924986
21
0.5983942542455638
0
LINE
8
Polygon
10
0.4656767518924986
20
0.5983942542455638
11
0.4688455206984852
21
0.597190348223275
0
LINE
8
Polygon
10
0.4688455206984852
20
0.597190348223275
11
0.47201700204794717
21
0.5959936061849425
0
LINE
8
Polygon
10
0.47201700204794717
20
0.5959936061849425
11
0.475191179744502
21
0.5948040342421872
0
LINE
8
Polygon
10
0.47519117974450076
20
0.5948040342421876
11
0.4783680375779963
21
0.5936216384700135
0
LINE
8
Polygon
10
0.47836803757799634
20
0.5936216384700136
11
0.48031675586017375
21
0.592846730720475
0
LINE
8
Polygon
10
0.48031675586017375
20
0.592846730720475
11
0.48222725472530376
21
0.5919818728998336
0
LINE
8
Polygon
10
0.48222725472530376
20
0.5919818728998336
11
0.4840953848670743
21
0.591028943344727
0
LINE
8
Polygon
10
0.4840953848670743
20
0.591028943344727
11
0.4859170889974491
21
0.5899900116698981
0
LINE
8
Polygon
10
0.4859170889974491
20
0.5899900116698981
11
0.48768841065846597
21
0.5888673342733144
0
LINE
8
Polygon
10
0.48768841065846597
20
0.5888673342733144
11
0.48940550281504797
21
0.5876633494356225
0
LINE
8
Polygon
10
0.48940550281504797
20
0.5876633494356225
11
0.491064636210165
21
0.5863806720245816
0
LINE
8
Polygon
10
0.491064636210165
20
0.5863806720245816
11
0.4926622074642002
21
0.5850220878159776
0
LINE
8
Polygon
10
0.4926622074642002
20
0.5850220878159776
11
0.4941947469009296
21
0.5835905474433523
0
LINE
8
Polygon
10
0.4941947469009296
20
0.5835905474433523
11
0.49565892608311923
21
0.5820891599896848
0
LINE
8
Polygon
10
0.49565892608311923
20
0.5820891599896848
11
0.4970515650413729
21
0.5805211862349485
0
LINE
8
Polygon
10
0.4970515650413729
20
0.5805211862349485
11
0.49836963918053095
21
0.5788900315742036
0
LINE
8
Polygon
10
0.49836963918053095
20
0.5788900315742036
11
0.4996102858486207
21
0.5771992386216085
0
LINE
8
Polygon
10
0.4996102858486207
20
0.5771992386216085
11
0.5007708105540909
21
0.5754524795164137
0
LINE
8
Polygon
10
0.5007708105540909
20
0.5754524795164137
11
0.5018486928178281
21
0.5736535479476462
0
LINE
8
Polygon
10
0.5018486928178281
20
0.5736535479476462
11
0.5028415916472453
21
0.5718063509148072
0
LINE
8
Polygon
10
0.5028415916472453
20
0.5718063509148072
11
0.5037473506205541
21
0.569914900242477
0
LINE
8
Polygon
10
0.5037473506205541
20
0.569914900242477
11
0.5045640025701763
21
0.5679833038672564
0
LINE
8
Polygon
10
0.5045640025701763
20
0.5679833038672564
11
0.505289773855127
21
0.566015756915967
0
LINE
8
Polygon
10
0.505289773855127
20
0.566015756915967
11
0.5059230882130858
21
0.5640165325944886
0
LINE
8
Polygon
10
0.5059230882130858
20
0.5640165325944886
11
0.5064625701837945
21
0.5619899729070212
0
LINE
8
Polygon
10
0.5064625701837945
20
0.5619899729070212
11
0.5069070480963417
21
0.559940479225927
0
LINE
8
Polygon
10
0.5069070480963417
20
0.559940479225927
11
0.5072555566138502
21
0.5578725027326342
0
LINE
8
Polygon
10
0.5072555566138502
20
0.5578725027326342
11
0.5075073388300388
21
0.555790534750364
0
LINE
8
Polygon
10
0.5075073388300388
20
0.555790534750364
11
0.5076618479131048
21
0.5536990969896746
0
LINE
8
Polygon
10
0.5076618479131048
20
0.5536990969896746
11
0.507718748293357
21
0.5516027317280099
0
LINE
8
Polygon
10
0.507718748293357
20
0.5516027317280099
11
0.5076779163920216
21
0.5495059919445792
0
LINE
8
Polygon
10
0.5076779163920216
20
0.5495059919445792
11
0.5075394408896363
21
0.5474134314319951
0
LINE
8
Polygon
10
0.5075394408896363
20
0.5474134314319951
11
0.507303622533449
21
0.5453295949061436
0
LINE
8
Polygon
10
0.507303622533449
20
0.5453295949061436
11
0.5069709734842421
21
0.5432590081357693
0
LINE
8
Polygon
10
0.5069709734842421
20
0.5432590081357692
11
0.5065422162039993
21
0.5412061681132088
0
LINE
8
Polygon
10
0.5065422162039993
20
0.5412061681132088
11
0.5060182818868298
21
0.5391755332876235
0
LINE
8
Polygon
10
0.5060182818868298
20
0.5391755332876235
11
0.5054003084365605
21
0.5371715138819416
0
LINE
8
Polygon
10
0.5054003084365605
20
0.5371715138819416
11
0.5046896379953847
21
0.5351984623145399
0
LINE
8
Polygon
10
0.5046896379953847
20
0.5351984623145399
11
0.5038878140289393
21
0.5332606637464681
0
LINE
8
Polygon
10
0.5038878140289392
20
0.5332606637464681
11
0.5029965779741368
21
0.5313623267747458
0
LINE
8
Polygon
10
0.5029965779741368
20
0.5313623267747458
11
0.5020178654570355
21
0.5295075742919448
0
LINE
8
Polygon
10
0.5020178654570355
20
0.5295075742919448
11
0.5009538020889608
21
0.5277004345319072
0
LINE
8
Polygon
10
0.5009538020889608
20
0.5277004345319072
11
0.49980669885000795
21
0.5259448323210486
0
LINE
8
Polygon
10
0.49980669885000795
20
0.5259448323210486
11
0.49857904706995315
21
0.5242445805542459
0
LINE
8
Polygon
10
0.49857904706995315
20
0.5242445805542459
11
0.4972735130174726
21
0.5226033719138223
0
LINE
8
Polygon
10
0.4972735130174726
20
0.5226033719138223
11
0.49589293210942154
21
0.5210247708496163
0
LINE
8
Polygon
10
0.49589293210942154
20
0.5210247708496163
11
0.4944403027527506
21
0.5195122058375506
0
LINE
8
Polygon
10
0.4944403027527506
20
0.5195122058375506
11
0.49291877983243165
21
0.5180689619335166
0
LINE
8
Polygon
10
0.49291877983243165
20
0.5180689619335166
11
0.49133166785953897
21
0.516698173638743
0
LINE
8
Polygon
10
0.49133166785953897
20
0.516698173638743
11
0.4896824137943651
21
0.5154028180921478
0
LINE
8
Polygon
10
0.4896824137943651
20
0.5154028180921478
11
0.48797459956015926
21
0.5141857086044552
0
LINE
8
Polygon
10
0.48797459956015926
20
0.5141857086044552
11
0.4862119342637474
21
0.5130494885481225
0
LINE
8
Polygon
10
0.4862119342637467
20
0.5130494885481229
11
0.4679354799035608
21
0.5005875552237866
0
LINE
8
Polygon
10
0.4679354799035608
20
0.5005875552237866
11
0.4509710614511989
21
0.48639117988592934
0
LINE
8
Polygon
10
0.45097106145119886
20
0.4863911798859293
11
0.4354826527250715
21
0.47059758114173605
0
LINE
8
Polygon
10
0.4354826527250715
20
0.47059758114173605
11
0.42161996080338215
21
0.4533594159596614
0
LINE
8
Polygon
10
0.42161996080338215
20
0.4533594159596613
11
0.4095169789930181
21
0.43484330412541927
0
LINE
8
Polygon
10
0.4095169789930181
20
0.43484330412541927
11
0.3992906916838169
21
0.4152282177368806
0
LINE
8
Polygon
10
0.3992906916838169
20
0.4152282177368806
11
0.39103994360676436
21
0.3947037513046156
0
LINE
8
Polygon
10
0.3910399436067643
20
0.39470375130461555
11
0.38484448442558955
21
0.3734682891788562
0
LINE
8
Polygon
10
0.38484448442558955
20
0.3734682891788562
11
0.3807641978964966
21
0.35172708801607167
0
LINE
8
Polygon
10
0.3807641978964966
20
0.35172708801607155
11
0.37883852304678045
21
0.32969029281955237
0
LINE
8
Polygon
10
0.37883852304678045
20
0.32969029281955237
11
0.37908607296707014
21
0.3075709057304596
0
LINE
8
Polygon
10
0.37908607296707014
20
0.3075709057304596
11
0.3815044549018587
21
0.28558272720249483
0
LINE
8
Polygon
10
0.3815044549018587
20
0.2855827272024947
11
0.3860702933772777
21
0.2639382894602815
0
LINE
8
Polygon
10
0.3860702933772778
20
0.2639382894602814
11
0.39273945614257194
21
0.2428468022161307
0
LINE
8
Polygon
10
0.39273945614257194
20
0.2428468022161307
11
0.40144748074137715
21
0.22251213050137797
0
LINE
8
Polygon
10
0.40144748074137715
20
0.22251213050137797
11
0.4121101975896733
21
0.2031308241580681
0
LINE
8
Polygon
10
0.4121101975896733
20
0.2031308241580681
11
0.4246245435378949
21
0.18489021803742645
0
LINE
8
Polygon
10
0.4246245435378949
20
0.18489021803742636
11
0.43886955805351313
21
0.16796662126812262
0
LINE
8
Polygon
10
0.43886955805351324
20
0.16796662126812256
11
0.45470755239523697
21
0.15252361309640655
0
LINE
8
Polygon
10
0.45470755239523697
20
0.15252361309640655
11
0.47198544047788926
21
0.13871046177009785
0
LINE
8
Polygon
10
0.47198544047788926
20
0.13871046177009785
11
0.4905362185641513
21
0.12666068174910075
0
LINE
8
Polygon
10
0.49053621856415147
20
0.12666068174910067
11
0.5101805794808459
21
0.11649074318808622
0
LINE
8
Polygon
10
0.5101805794808459
20
0.11649074318808622
11
0.5307286457571481
21
0.10829894616515806
0
LINE
8
Polygon
10
0.5307286457571481
20
0.10829894616515806
11
0.5519818049326461
21
0.10216447053792616
0
LINE
8
Polygon
10
0.5519818049326461
20
0.10216447053792616
11
0.5737346292956222
21
0.09814661061084123
0
LINE
8
Polygon
10
0.5737346292956222
20
0.09814661061084123
11
0.5957768614958449
21
0.0962842020113038
0
LINE
8
Polygon
10
0.5957768614958449
20
0.0962842020113038
11
0.6178954468394373
21
0.09659524631421995
0
LINE
8
Polygon
10
0.6178954468394373
20
0.09659524631421995
11
0.6398765926221691
21
0.09907673704328818
0
LINE
8
Polygon
10
0.6398765926221691
20
0.09907673704328818
11
0.6615078345961702
21
0.10370468873084643
0
LINE
8
Polygon
10
0.6615078345961705
20
0.10370468873084648
11
0.6825800905961193
21
0.11043436875539292
0
LINE
8
Polygon
10
0.6825800905961193
20
0.11043436875539292
11
0.7028896814750685
21
0.11920072971589782
0
LINE
8
Polygon
10
0.7028896814750687
20
0.11920072971589787
11
0.7222402998160484
21
0.1299190381636848
0
LINE
8
Polygon
10
0.7222402998160484
20
0.1299190381636848
11
0.7404449073903752
21
0.1424856936147158
0
LINE
8
Polygon
10
0.7404449073903752
20
0.1424856936147158
11
0.7573275430223085
21
0.15677922992591375
0
LINE
8
Polygon
10
0.7573275430223085
20
0.15677922992591375
11
0.7727250233856899
21
0.17266148935646844
0
LINE
8
Polygon
10
0.7727250233856899
20
0.17266148935646844
11
0.7864885202930886
21
0.18997895796594455
0
LINE
8
Polygon
10
0.7864885202930886
20
0.18997895796594455
11
0.7984849992317724
21
0.20856424944156782
0
LINE
8
Polygon
10
0.7984849992317724
20
0.20856424944156782
11
0.808598505241978
21
0.22823772301238637
0
LINE
8
Polygon
10
0.808598505241978
20
0.22823772301238637
11
0.8167312837084987
21
0.2488092198119549
0
LINE
8
Polygon
10
0.8167312837084988
20
0.24880921981195508
11
0.8228047252323041
21
0.27007990090629425
0
LINE
8
Polygon
10
0.8228047252323041
20
0.27007990090629425
11
0.8267601254492953
21
0.29184416922120865
0
LINE
8
Polygon
10
0.8267601254492953
20
0.29184416922120865
11
0.8285592524519807
21
0.3138916567920946
0
LINE
8
Polygon
10
0.8285592524519807
20
0.31389165679209474
11
0.8281847163295144
21
0.3360092581279795
0
LINE
8
Polygon
10
0.8281847163295144
20
0.3360092581279795
11
0.8256401372542181
21
0.35798319003580437
0
LINE
8
Polygon
10
0.8256401372542181
20
0.35798319003580437
11
0.8209501104899022
21
0.3796010579952069
0
LINE
8
Polygon
10
0.8209501104899022
20
0.3796010579952069
11
0.8141599686602078
21
0.4006539091107397
0
LINE
8
Polygon
10
0.8141599686602078
20
0.4006539091107397
11
0.8053353435748247
21
0.42093825179820654
0
LINE
8
Polygon
10
0.8053353435748246
20
0.42093825179820676
11
0.7945615318488626
21
0.4402580226833307
0
LINE
8
Polygon
10
0.7945615318488618
20
0.4402580226833306
11
0.793493089135791
21
0.4420625766815454
0
LINE
8
Polygon
10
0.793493089135791
20
0.4420625766815454
11
0.7925098815576487
21
0.44391495024588684
0
LINE
8
Polygon
10
0.7925098815576487
20
0.44391495024588684
11
0.7916140444883336
21
0.4458111203091535
0
LINE
8
Polygon
10
0.7916140444883336
20
0.44581112030915343
11
0.7908075235465918
21
0.44774696868496167
0
LINE
8
Polygon
10
0.7908075235465918
20
0.44774696868496167
11
0.7900920703704355
21
0.4497182910118061
0
LINE
8
Polygon
10
0.7900920703704355
20
0.4497182910118061
11
0.7894692388128575
21
0.4517208058842783
0
LINE
8
Polygon
10
0.7894692388128575
20
0.4517208058842783
11
0.788940381567105
21
0.45375016415161373
0
LINE
8
Polygon
10
0.788940381567105
20
0.45375016415161373
11
0.7885066472288395
21
0.45580195836337006
0
LINE
8
Polygon
10
0.7885066472288395
20
0.45580195836337
11
0.7881689778015659
21
0.45787173234172424
0
LINE
8
Polygon
10
0.7881689778015659
20
0.45787173234172424
11
0.7879281066507482
21
0.4599549908595974
0
LINE
8
Polygon
10
0.7879281066507482
20
0.4599549908595974
11
0.7877845569110526
21
0.4620472094035887
0
LINE
8
Polygon
10
0.7877845569110526
20
0.4620472094035887
11
0.7877386403501812
21
0.4641438440005142
0
LINE
8
Polygon
10
0.7877386403501812
20
0.4641438440005142
11
0.7877904566917607
21
0.46624034108621043
0
LINE
8
Polygon
10
0.7877904566917607
20
0.46624034108621043
11
0.7879398933987586
21
0.46833214739516665
0
LINE
8
Polygon
10
0.7879398933987586
20
0.46833214739516665
11
0.7881866259178957
21
0.4704147198495095
0
LINE
8
Polygon
10
0.7881866259178957
20
0.4704147198495095
11
0.7885301183845254
21
0.4724835354258614
0
LINE
8
Polygon
10
0.7885301183845254
20
0.4724835354258614
11
0.7889696247864484
21
0.47453410097864335
0
LINE
8
Polygon
10
0.7889696247864484
20
0.47453410097864335
11
0.7895041905841356
21
0.4765619629984885
0
LINE
8
Polygon
10
0.7895041905841356
20
0.4765619629984885
11
0.7901326547838384
21
0.47856271728457145
0
LINE
8
Polygon
10
0.7901326547838384
20
0.47856271728457145
11
0.7908536524590878
21
0.4805320185098472
0
LINE
8
Polygon
10
0.7908536524590878
20
0.4805320185098472
11
0.7916656177151009
21
0.4824655896584256
0
LINE
8
Polygon
10
0.7916656177151009
20
0.4824655896584256
11
0.7925667870896622
21
0.4843592313145845
0
LINE
8
Polygon
10
0.7925667870896622
20
0.4843592313145845
11
0.7935552033830884
21
0.4862088307832472
0
LINE
8
Polygon
10
0.7935552033830884
20
0.4862088307832472
11
0.7946287199089612
21
0.48801037102211653
0
LINE
8
Polygon
10
0.7946287199089612
20
0.48801037102211653
11
0.7957850051563974
21
0.4897599393660656
0
LINE
8
Polygon
10
0.7957850051563974
20
0.4897599393660656
11
0.797021547853727
21
0.49145373602483794
0
LINE
8
Polygon
10
0.797021547853727
20
0.49145373602483794
11
0.7983356624225846
21
0.4930880823356006
0
LINE
8
Polygon
10
0.7983356624225846
20
0.4930880823356006
11
0.7997244948105682
21
0.49465942875242763
0
LINE
8
Polygon
10
0.7997244948105682
20
0.49465942875242763
11
0.8011850286897966
21
0.49616436255536167
0
LINE
8
Polygon
10
0.8011850286897966
20
0.49616436255536167
11
0.8027140920079046
21
0.4975996152623106
0
LINE
8
Polygon
10
0.8027140920079046
20
0.4975996152623106
11
0.8043083638772469
21
0.4989620697276822
0
LINE
8
Polygon
10
0.8043083638772469
20
0.4989620697276822
11
0.80596438178735
21
0.5002487669123397
0
LINE
8
Polygon
10
0.80596438178735
20
0.5002487669123397
11
0.8076785491249456
21
0.5014569123101738
0
LINE
8
Polygon
10
0.8076785491249456
20
0.5014569123101738
11
0.8094471429852556
21
0.5025838820173361
0
LINE
8
Polygon
10
0.8094471429852556
20
0.5025838820173361
11
0.8112663222575617
21
0.5036272284309491
0
LINE
8
Polygon
10
0.8112663222575617
20
0.5036272284309491
11
0.8131321359675006
21
0.5045846855649198
0
LINE
8
Polygon
10
0.8131321359675006
20
0.5045846855649198
11
0.8150405318579657
21
0.5054541739713079
0
LINE
8
Polygon
10
0.8150405318579657
20
0.5054541739713079
11
0.8169873651899787
21
0.5062338052565643
0
LINE
8
Polygon
10
0.8169873651899787
20
0.5062338052565643
11
0.8189684077444183
21
0.5069218861828273
0
LINE
8
Polygon
10
0.8189684077444183
20
0.5069218861828273
11
0.8209793570050539
21
0.5075169223453724
0
LINE
8
Polygon
10
0.8209793570050539
20
0.5075169223453724
11
0.823015845502942
21
0.5080176214182264
0
LINE
8
Polygon
10
0.823015845502942
20
0.5080176214182264
11
0.8250734503018889
21
0.5084228959608984
0
LINE
8
Polygon
10
0.8250734503018889
20
0.5084228959608984
11
0.8271477026043802
21
0.508731865780132
0
LINE
8
Polygon
10
0.8271477026043802
20
0.508731865780132
11
0.8292340974571135
21
0.5089438598415471
0
LINE
8
Polygon
10
0.8292340974571135
20
0.5089438598415471
11
0.8313281035350566
21
0.5090584177270231
0
LINE
8
Polygon
10
0.8313281035350566
20
0.5090584177270231
11
0.8334251729827802
21
0.5090752906346548
0
LINE
8
Polygon
10
0.8334251729827802
20
0.5090752906346548
11
0.8355207512916922
21
0.508994441919112
0
LINE
8
Polygon
10
0.8355207512916921
20
0.508994441919112
11
0.8376102871917223
21
0.5088160471712269
0
LINE
8
Polygon
10
0.8376102871917223
20
0.5088160471712266
11
0.8409805386845196
21
0.5084528800862729
0
LINE
8
Polygon
10
0.8409805386845196
20
0.5084528800862729
11
0.8443516022710092
21
0.5080973301570917
0
LINE
8
Polygon
10
0.8443516022710079
20
0.5080973301570919
11
0.8477234607355644
21
0.5077493991994353
0
LINE
8
Polygon
10
0.8477234607355644
20
0.5077493991994353
11
0.8510960968585031
21
0.5074090889901455
0
LINE
8
Polygon
10
0.8510960968585031
20
0.5074090889901455
11
0.8544694934161676
21
0.5070764012671469
0
LINE
8
Polygon
10
0.8544694934161663
20
0.5070764012671471
11
0.8578436331810172
21
0.5067513377294366
0
LINE
8
Polygon
10
0.8578436331810172
20
0.5067513377294366
11
0.8612184989217195
21
0.5064339000370759
0
LINE
8
Polygon
10
0.8612184989217195
20
0.5064339000370759
11
0.8645940734032305
21
0.5061240898111816
0
LINE
8
Polygon
10
0.8645940734032291
20
0.5061240898111818
11
0.867970339386887
21
0.5058219086339186
0
LINE
8
Polygon
10
0.867970339386887
20
0.5058219086339186
11
0.8713472796304982
21
0.5055273580484898
0
LINE
8
Polygon
10
0.8713472796304982
20
0.5055273580484898
11
0.8747248768884259
21
0.505240439559131
0
LINE
8
Polygon
10
0.8747248768884259
20
0.505240439559131
11
0.8781031139116782
21
0.504961154631101
0
LINE
8
Polygon
10
0.8781031139116768
20
0.504961154631101
11
0.8814819734479944
21
0.5046895046906752
0
LINE
8
Polygon
10
0.8814819734479944
20
0.5046895046906752
11
0.8848614382419387
21
0.5044254911251378
0
LINE
8
Polygon
10
0.8848614382419387
20
0.5044254911251378
11
0.8882414910349805
21
0.5041691152827752
0
LINE
8
Polygon
10
0.8882414910349792
20
0.5041691152827752
11
0.8916221145655864
21
0.5039203784728685
0
LINE
8
Polygon
10
0.8916221145655864
20
0.5039203784728685
11
0.8950032915693118
21
0.5036792819656872
0
LINE
8
Polygon
10
0.8950032915693118
20
0.5036792819656872
11
0.8983850047788824
21
0.5034458269924833
0
LINE
8
Polygon
10
0.8983850047788811
20
0.5034458269924835
11
0.9017672369242847
21
0.5032200147454837
0
LINE
8
Polygon
10
0.9017672369242847
20
0.5032200147454837
11
0.9051499707328596
21
0.5030018463778845
0
LINE
8
Polygon
10
0.9051499707328596
20
0.5030018463778845
11
0.9085331889293822
21
0.5027913230038465
0
LINE
8
Polygon
10
0.9085331889293808
20
0.5027913230038468
11
0.9119168742361532
21
0.5025884456984877
0
LINE
8
Polygon
10
0.9119168742361532
20
0.5025884456984877
11
0.9153010093730926
21
0.5023932154978787
0
LINE
8
Polygon
10
0.9153010093730926
20
0.5023932154978787
11
0.9186855770578185
21
0.502205633399037
0
LINE
8
Polygon
10
0.9186855770578185
20
0.502205633399037
11
0.922070560005742
21
0.5020257003599222
0
LINE
8
Polygon
10
0.9220705600057406
20
0.5020257003599222
11
0.9254559409301515
21
0.5018534172994316
0
LINE
8
Polygon
10
0.9254559409301515
20
0.5018534172994316
11
0.9288417025423075
21
0.5016887850973943
0
LINE
8
Polygon
10
0.9288417025423075
20
0.5016887850973943
11
0.9322278275515222
21
0.5015318045945674
0
LINE
8
Polygon
10
0.9322278275515209
20
0.5015318045945674
11
0.9356142986652519
21
0.5013824765926322
0
LINE
8
Polygon
10
0.9356142986652519
20
0.5013824765926322
11
0.9390010985891896
21
0.501240801854189
0
LINE
8
Polygon
10
0.9390010985891896
20
0.501240801854189
11
0.9423882100273449
21
0.5011067811027541
0
LINE
8
Polygon
10
0.9423882100273435
20
0.5011067811027543
11
0.9457756156821364
21
0.5009804150227561
0
LINE
8
Polygon
10
0.9457756156821364
20
0.5009804150227561
11
0.9491632982544846
21
0.5008617042595311
0
LINE
8
Polygon
10
0.9491632982544846
20
0.5008617042595311
11
0.9525512404438915
21
0.5007506494193215
0
LINE
8
Polygon
10
0.9525512404438902
20
0.5007506494193215
11
0.9559394249485333
21
0.500647251069271
0
LINE
8
Polygon
10
0.9559394249485333
20
0.500647251069271
11
0.9593278344653529
21
0.5005515097374227
0
LINE
8
Polygon
10
0.9593278344653529
20
0.5005515097374227
11
0.9627164516901398
21
0.5004634259127168
0
LINE
8
Polygon
10
0.9627164516901384
20
0.500463425912717
11
0.9661052593176228
21
0.5003830000449867
0
LINE
8
Polygon
10
0.9661052593176228
20
0.5003830000449867
11
0.9694942400415628
21
0.500310232544958
0
LINE
8
Polygon
10
0.9694942400415628
20
0.500310232544958
11
0.9728833765548321
21
0.5002451237842456
0
LINE
8
Polygon
10
0.9728833765548308
20
0.5002451237842456
11
0.9762726515495079
21
0.5001876740953524
0
LINE
8
Polygon
10
0.9762726515495079
20
0.5001876740953524
11
0.9796620477169637
21
0.5001378837716672
0
LINE
8
Polygon
10
0.9796620477169637
20
0.5001378837716672
11
0.9830515477479507
21
0.5000957530674635
0
LINE
8
Polygon
10
0.9830515477479507
20
0.5000957530674635
11
0.9864411343326905
21
0.5000612821978971
0
LINE
8
Polygon
10
0.9864411343326892
20
0.5000612821978971
11
0.9898307901609619
21
0.5000344713390079
0
LINE
8
Polygon
10
0.9898307901609619
20
0.5000344713390079
11
0.9932204979221936
21
0.5000153206277149
0
LINE
8
Polygon
10
0.9932204979221936
20
0.5000153206277149
11
0.9966102403055452
21
0.5000038301618188
0
LINE
8
Polygon
10
0.9966102403055439
20
0.5000038301618188
11
0.9999999999999998
21
0.5
0
LINE
8
Polygon
10
2.75
20
-1.0
11
3
21
-1
0
LINE
8
Polygon
10
3
20
-1
11
3
21
1
0
LINE
8
Polygon
10
3
20
1
11
1
21
1
0
LINE
8
Polygon
10
1
20
2
11
0.9999999999999998
21
0.5
0
LINE
8
Polygon
10
0
20
0
11
0.32917960675006275
21
0.6583592135001264
0
LINE
8
Polygon
10
0
20
0
11
1.329179606750063
21
-0.6645898033750315
0
ENDSEC
0
EOF
