0
SECTION
2
ENTITIES
0
LINE
8
Polygon
10
0.5
20
-1
11
2.75
21
-1
0
LINE
8
Polygon
10
2.75
20
-1.0
11
2.749835072151982
21
-0.9842721720879295
0
LINE
8
Polygon
10
2.749835072151982
20
-0.9842721720879295
11
2.7493403611444487
21
-0.9685512613940231
0
LINE
8
Polygon
10
2.7493403611444487
20
-0.9685512613940231
11
2.7485160845550585
21
-0.9528441820941999
0
LINE
8
Polygon
10
2.7485160845550585
20
-0.9528441820941999
11
2.7473626049069146
21
-0.9371578422812264
0
LINE
8
Polygon
10
2.7473626049069146
20
-0.9371578422812264
11
2.7458804295091275
21
-0.9214991409264861
0
LINE
8
Polygon
10
2.7458804295091275
20
-0.9214991409264861
11
2.7440702102336934
21
-0.9058749648457577
0
LINE
8
Polygon
10
2.7440702102336934
20
-0.9058749648457577
11
2.741932743228798
21
-0.890292185670343
0
LINE
8
Polygon
10
2.741932743228798
20
-0.890292185670343
11
2.7394689685686635
21
-0.8747576568248701
0
LINE
8
Polygon
10
2.7394689685686635
20
-0.8747576568248701
11
2.7366799698400968
21
-0.8592782105131052
0
LINE
8
Polygon
10
2.7366799698400968
20
-0.8592782105131052
11
2.733566973665921
21
-0.8438606547130985
0
LINE
8
Polygon
10
2.733566973665921
20
-0.8438606547130985
11
2.730131349165495
21
-0.8285117701829827
0
LINE
8
Polygon
10
2.730131349165495
20
-0.8285117701829827
11
2.726374607352567
21
-0.8132383074787445
0
LINE
8
Polygon
10
2.726374607352567
20
-0.8132383074787445
11
2.7222984004707182
21
-0.7980469839852788
0
LINE
8
Polygon
10
2.7222984004707182
20
-0.7980469839852788
11
2.717904521266692
21
-0.7829444809620318
0
LINE
8
Polygon
10
2.717904521266692
20
-0.7829444809620318
11
2.7131949022019333
21
-0.7679374406045325
0
LINE
8
Polygon
10
2.7131949022019333
20
-0.7679374406045325
11
2.7081716146026746
21
-0.753032463123104
0
LINE
8
Polygon
10
2.7081716146026746
20
-0.753032463123104
11
2.7028368677489527
21
-0.7382361038400419
0
LINE
8
Polygon
10
2.7028368677489527
20
-0.7382361038400419
11
2.6971930079029494
21
-0.7235548703065329
0
LINE
8
Polygon
10
2.6971930079029494
20
-0.723554870306533
11
2.691242517277089
21
-0.7089952194405849
0
LINE
8
Polygon
10
2.691242517277089
20
-0.7089952194405849
11
2.6849880129423407
21
-0.6945635546872251
0
LINE
8
Polygon
10
2.6849880129423407
20
-0.6945635546872251
11
2.678432245677212
21
-0.6802662232022163
0
LINE
8
Polygon
10
2.678432245677212
20
-0.6802662232022163
11
2.6715780987579354
21
-0.6661095130605298
0
LINE
8
Polygon
10
2.6715780987579354
20
-0.6661095130605299
11
2.6644285866903816
21
-0.6520996504908022
0
LINE
8
Polygon
10
2.6644285866903816
20
-0.6520996504908022
11
2.656986853884256
21
-0.6382427971369924
0
LINE
8
Polygon
10
2.656986853884256
20
-0.6382427971369924
11
2.6492561732701647
21
-0.6245450473484444
0
LINE
8
Polygon
10
2.6492561732701647
20
-0.6245450473484444
11
2.6412399448601542
21
-0.6110124254995456
0
LINE
8
Polygon
10
2.6412399448601542
20
-0.6110124254995456
11
2.63294169425236
21
-0.5976508833401616
0
LINE
8
Polygon
10
2.63294169425236
20
-0.5976508833401615
11
2.624365071080422
21
-0.584466297378011
0
LINE
8
Polygon
10
2.624365071080422
20
-0.584466297378011
11
2.615513847408349
21
-0.5714644662941335
0
LINE
8
Polygon
10
2.615513847408349
20
-0.5714644662941335
11
2.6063919160715336
21
-0.5586511083925846
0
LINE
8
Polygon
10
2.6063919160715336
20
-0.5586511083925846
11
2.597003288964657
21
-0.5460318590854835
0
LINE
8
Polygon
10
2.597003288964657
20
-0.5460318590854834
11
2.587352095277224
21
-0.5336122684145147
0
LINE
8
Polygon
10
2.587352095277224
20
-0.5336122684145147
11
2.577442579677517
21
-0.5213977986099789
0
LINE
8
Polygon
10
2.577442579677517
20
-0.5213977986099789
11
2.5672791004457567
21
-0.5093938216884614
0
LINE
8
Polygon
10
2.5672791004457567
20
-0.5093938216884613
11
2.5568661275572975
21
-0.4976056170901788
0
LINE
8
Polygon
10
2.5568661275572975
20
-0.4976056170901788
11
2.546208240716699
21
-0.48603836935704203
0
LINE
8
Polygon
10
2.546208240716699
20
-0.48603836935704203
11
2.5353101273435383
21
-0.4746971658524535
0
LINE
8
Polygon
10
2.5353101273435383
20
-0.4746971658524535
11
2.5241765805108445
21
-0.4635869945238481
0
LINE
8
Polygon
10
2.5241765805108445
20
-0.463586994523848
11
2.5128124968370704
21
-0.4527127417089545
0
LINE
8
Polygon
10
2.5128124968370704
20
-0.4527127417089545
11
2.501222874332523
21
-0.4420791899867478
0
LINE
8
Polygon
10
2.501222874332523
20
-0.4420791899867478
11
2.4894128102012
21
-0.43169101607403393
0
LINE
8
Polygon
10
2.4894128102012
20
-0.4316910160740338
11
2.477387498599
21
-0.42155278876859503
0
LINE
8
Polygon
10
2.477387498599
20
-0.42155278876859503
11
2.4651522283492944
21
-0.41166896693979693
0
LINE
8
Polygon
10
2.4651522283492944
20
-0.41166896693979693
11
2.4527123806168625
21
-0.4020438975675448
0
LINE
8
Polygon
10
2.4527123806168625
20
-0.4020438975675448
11
2.4400734265412143
21
-0.3926818138304482
0
LINE
8
Polygon
10
2.4400734265412143
20
-0.3926818138304482
11
2.4272409248303415
21
-0.383586833244037
0
LINE
8
Polygon
10
2.4272409248303415
20
-0.383586833244037
11
2.4142205193159554
21
-0.374762955849847
0
LINE
8
Polygon
10
2.4142205193159554
20
-0.374762955849847
11
2.4010179364712876
21
-0.36621406245617083
0
LINE
8
Polygon
10
2.401017936471287
20
-0.36621406245617083
11
2.3990428546775258
21
-0.36503396361990886
0
LINE
8
Polygon
10
2.3990428546775258
20
-0.36503396361990886
11
2.397010037571101
21
-0.3639563570278616
0
LINE
8
Polygon
10
2.397010037571101
20
-0.3639563570278616
11
2.3949247991681784
21
-0.36298405966677677
0
LINE
8
Polygon
10
2.3949247991681784
20
-0.36298405966677677
11
2.392792590520181
21
-0.36211961323304076
0
LINE
8
Polygon
10
2.392792590520181
20
-0.36211961323304076
11
2.3906189854641173
21
-0.3613652774883941
0
LINE
8
Polygon
10
2.3906189854641173
20
-0.3613652774883941
11
2.3884096660519387
21
-0.36072302435265574
0
LINE
8
Polygon
10
2.3884096660519387
20
-0.36072302435265574
11
2.3861704076970014
21
-0.3601945327488997
0
LINE
8
Polygon
10
2.3861704076970014
20
-0.36019453274889973
11
2.3839070640764803
21
-0.3597811842145581
0
LINE
8
Polygon
10
2.3839070640764803
20
-0.3597811842145581
11
2.3816255518291856
21
-0.3594840592899247
0
LINE
8
Polygon
10
2.3816255518291856
20
-0.3594840592899247
11
2.379331835088793
21
-0.3593039346934988
0
LINE
8
Polygon
10
2.379331835088793
20
-0.3593039346934988
11
2.3770319098929176
21
-0.35924128129155464
0
LINE
8
Polygon
10
2.3770319098929176
20
-0.35924128129155464
11
2.374731788508788
21
-0.35929626286724303
0
LINE
8
Polygon
10
2.374731788508788
20
-0.35929626286724303
11
2.3724374837164897
21
-0.3594687356924435
0
LINE
8
Polygon
10
2.3724374837164897
20
-0.3594687356924435
11
2.370154993090873
21
-0.35975824890348596
0
LINE
8
Polygon
10
2.370154993090873
20
-0.35975824890348596
11
2.367890283323207
21
-0.3601640456797601
0
LINE
8
Polygon
10
2.367890283323207
20
-0.3601640456797601
11
2.365649274623567
21
-0.36068506522213056
0
LINE
8
Polygon
10
2.365649274623567
20
-0.36068506522213056
11
2.3634378252447275
21
-0.36131994552598734
0
LINE
8
Polygon
10
2.3634378252447275
20
-0.36131994552598734
11
2.3612617161680216
21
-0.36206702694168136
0
LINE
8
Polygon
10
2.3612617161680216
20
-0.36206702694168136
11
2.3591266359911964
21
-0.3629243565130382
0
LINE
8
Polygon
10
2.3591266359911964
20
-0.3629243565130382
11
2.3570381660577655
21
-0.3638896930826089
0
LINE
8
Polygon
10
2.3570381660577655
20
-0.3638896930826089
11
2.3550017658667417
21
-0.3649605131503112
0
LINE
8
Polygon
10
2.3550017658667417
20
-0.36496051315031125
11
2.3530227588008823
21
-0.3661340174701475
0
LINE
8
Polygon
10
2.3530227588008823
20
-0.3661340174701475
11
2.351106318210758
21
-0.36740713836775324
0
LINE
8
Polygon
10
2.351106318210758
20
-0.36740713836775324
11
2.3492574538910245
21
-0.36877654775964863
0
LINE
8
Polygon
10
2.3492574538910245
20
-0.36877654775964863
11
2.3474809989842447
21
-0.3702386658532288
0
LINE
8
Polygon
10
2.3474809989842447
20
-0.3702386658532288
11
2.345781597346505
21
-0.37178967050475076
0
LINE
8
Polygon
10
2.345781597346505
20
-0.37178967050475076
11
2.3441636914078416
21
-0.37342550721085377
0
LINE
8
Polygon
10
2.3441636914078416
20
-0.37342550721085377
11
2.3426315105592237
21
-0.37514189970749445
0
LINE
8
Polygon
10
2.3426315105592237
20
-0.37514189970749445
11
2.3411890600964407
21
-0.3769343611485895
0
LINE
8
Polygon
10
2.3411890600964407
20
-0.3769343611485895
11
2.3398401107498015
21
-0.3787982058351439
0
LINE
8
Polygon
10
2.3398401107498015
20
-0.3787982058351439
11
2.338588188827015
21
-0.3807285614642035
0
LINE
8
Polygon
10
2.338588188827015
20
-0.3807285614642035
11
2.337436566995019
21
-0.38272038186561164
0
LINE
8
Polygon
10
2.337436566995019
20
-0.38272038186561164
11
2.3363882557248545
21
-0.38476846019327443
0
LINE
8
Polygon
10
2.3363882557248545
20
-0.38476846019327443
11
2.335445995421951
21
-0.3868674425364512
0
LINE
8
Polygon
10
2.335445995421951
20
-0.3868674425364512
11
2.3346122492623933
21
-0.38901184191548915
0
LINE
8
Polygon
10
2.3346122492623933
20
-0.38901184191548915
11
2.3338891967538973
21
-0.3911960526254147
0
LINE
8
Polygon
10
2.3338891967538973
20
-0.3911960526254147
11
2.3332787280383287
21
-0.3934143648898869
0
LINE
8
Polygon
10
2.3332787280383287
20
-0.3934143648898869
11
2.3327824389506557
21
-0.39566097978720527
0
LINE
8
Polygon
10
2.3327824389506557
20
-0.39566097978720527
11
2.332401626847255
21
-0.3979300244093533
0
LINE
8
Polygon
10
2.332401626847255
20
-0.3979300244093533
11
2.3321372872144717
21
-0.4002155672144514
0
LINE
8
Polygon
10
2.3321372872144717
20
-0.4002155672144514
11
2.331990111066307
21
-0.4025116335324847
0
LINE
8
Polygon
10
2.331990111066307
20
-0.4025116335324847
11
2.3319604831380265
21
-0.4048122211837733
0
LINE
8
Polygon
10
2.3319604831380265
20
-0.4048122211837733
11
2.3320484808804207
21
-0.40711131616935553
0
LINE
8
Polygon
10
2.3320484808804207
20
-0.40711131616935553
11
2.3322538742573364
21
-0.4094029083922684
0
LINE
8
Polygon
10
2.3322538742573364
20
-0.4094029083922684
11
2.3325761263470204
21
-0.41168100736862784
0
LINE
8
Polygon
10
2.3325761263470204
20
-0.41168100736862784
11
2.3330143947456934
21
-0.4139396578874378
0
LINE
8
Polygon
10
2.3330143947456934
20
-0.4139396578874378
11
2.333567533769689
21
-0.41617295557819217
0
LINE
8
Polygon
10
2.333567533769689
20
-0.4161729555781922
11
2.3342340974504023
21
-0.41837506234557414
0
LINE
8
Polygon
10
1.9611625146819192
20
-0.33030480833877285
11
1.947767774480217
21
-0.34500605574492504
0
LINE
8
Polygon
10
1.947767774480217
20
-0.34500605574492504
11
1.9357235740033663
21
-0.3608327096945574
0
LINE
8
Polygon
10
1.9357235740033663
20
-0.3608327096945574
11
1.925124017591016
21
-0.37766111259647867
0
LINE
8
Polygon
10
1.925124017591016
20
-0.37766111259647867
11
1.9160519222187458
21
-0.39535977994530513
0
LINE
8
Polygon
10
1.9160519222187458
20
-0.39535977994530525
11
1.9085781704283964
21
-0.41379042764266616
0
LINE
8
Polygon
10
1.9085781704283964
20
-0.41379042764266616
11
1.9027611565051086
21
-0.43280905244532375
0
LINE
8
Polygon
10
1.9027611565051086
20
-0.43280905244532375
11
1.898646330228221
21
-0.4522670570983971
0
LINE
8
Polygon
10
1.898646330228221
20
-0.4522670570983971
11
1.8962658417608185
21
-0.4720124113627437
0
LINE
8
Polygon
10
1.8962658417608185
20
-0.4720124113627437
11
1.8956382904524969
21
-0.491890839865103
0
LINE
8
Polygon
10
1.8956382904524969
20
-0.4918908398651031
11
1.8967685795180091
21
-0.5117470274900318
0
LINE
8
Polygon
10
1.8967685795180091
20
-0.5117470274900316
11
1.8996478777272265
21
-0.5314258328956041
0
LINE
8
Polygon
10
1.8996478777272265
20
-0.5314258328956041
11
1.9042536884057415
21
-0.5507735006713766
0
LINE
8
Polygon
10
1.9042536884057415
20
-0.5507735006713766
11
1.9105500252069894
21
-0.5696388626677243
0
LINE
8
Polygon
10
1.9105500252069894
20
-0.5696388626677243
11
1.918487693282542
21
-0.5878745191102639
0
LINE
8
Polygon
10
1.918487693282542
20
-0.5878745191102639
11
1.9280046736537189
21
-0.6053379902710219
0
LINE
8
Polygon
10
1.9280046736537189
20
-0.6053379902710219
11
1.9390266077813196
21
-0.6218928296980538
0
LINE
8
Polygon
10
1.9390266077813199
20
-0.6218928296980539
11
1.951467378547423
21
-0.6374096903055756
0
LINE
8
Polygon
10
1.951467378547423
20
-0.6374096903055755
11
1.9652297831098868
21
-0.6517673349949757
0
LINE
8
Polygon
10
1.9652297831098868
20
-0.6517673349949757
11
1.9802062923723776
21
-0.6648535839104796
0
LINE
8
Polygon
10
1.9802062923723773
20
-0.6648535839104794
11
1.9962798911359938
21
-0.6765661909283154
0
LINE
8
Polygon
10
1.9962798911359938
20
-0.6765661909283154
11
2.0133249923681764
21
-0.6868136425311598
0
LINE
8
Polygon
10
2.0133249923681764
20
-0.6868136425311598
11
2.0312084184454875
21
-0.6955158728260522
0
LINE
8
Polygon
10
2.031208418445487
20
-0.6955158728260522
11
2.04979044170357
21
-0.7026048891191684
0
LINE
8
Polygon
10
2.04979044170357
20
-0.7026048891191684
11
2.068925876164209
21
-0.7080253031596808
0
LINE
8
Polygon
10
2.068925876164209
20
-0.7080253031596808
11
2.088465211909557
21
-0.7117347639019649
0
LINE
8
Polygon
10
2.088465211909557
20
-0.7117347639019649
11
2.1082557832403808
21
-0.7137042884048713
0
LINE
8
Polygon
10
2.1082557832403808
20
-0.7137042884048712
11
2.128142961491212
21
-0.7139184882826682
0
LINE
8
Polygon
10
2.128142961491212
20
-0.7139184882826682
11
2.1479713631826423
21
-0.7123756899383336
0
LINE
8
Polygon
10
2.1479713631826423
20
-0.7123756899383336
11
2.167586064071168
21
-0.7090879476397853
0
LINE
8
Polygon
10
2.1675860640711675
20
-0.7090879476397853
11
2.1868338096109112
21
-0.7040809493368825
0
LINE
8
Polygon
10
2.1868338096109112
20
-0.7040809493368825
11
2.205564212369578
21
-0.6973938159550719
0
LINE
8
Polygon
10
2.205564212369578
20
-0.6973938159550719
11
2.223630927042939
21
-0.6890787957338487
0
LINE
8
Polygon
10
2.223630927042939
20
-0.6890787957338489
11
2.2408927938871623
21
-0.679200855998242
0
LINE
8
Polygon
10
2.2408927938871623
20
-0.6792008559982421
11
2.2572149416350675
21
-0.6678371755529138
0
LINE
8
Polygon
10
2.2572149416350675
20
-0.6678371755529138
11
2.2724698412789444
21
-0.6550765416649267
0
LINE
8
Polygon
10
2.2724698412789444
20
-0.6550765416649267
11
2.286538302486469
21
-0.6410186563467015
0
LINE
8
Polygon
10
2.2865383024864685
20
-0.6410186563467016
11
2.299310404864472
21
-0.6257733573593486
0
LINE
8
Polygon
10
2.299310404864472
20
-0.6257733573593486
11
2.310686356794364
21
-0.6094597600228693
0
LINE
8
Polygon
10
2.310686356794364
20
-0.6094597600228693
11
2.320577275128914
21
-0.5922053265384788
0
LINE
8
Polygon
10
2.3205772751289135
20
-0.592205326538479
11
2.328905879658432
21
-0.5741448700946659
0
LINE
8
Polygon
10
2.328905879658432
20
-0.5741448700946661
11
2.3356070969203047
21
-0.555419501538155
0
LINE
8
Polygon
10
2.3356070969203047
20
-0.555419501538155
11
2.3406285686341715
21
-0.5361755268396986
0
LINE
8
Polygon
10
2.3406285686341715
20
-0.5361755268396986
11
2.343931060790219
21
-0.5165633039690694
0
LINE
8
Polygon
10
2.343931060790219
20
-0.5165633039690696
11
2.345488770194276
21
-0.4967360681107734
0
LINE
8
Polygon
10
2.345488770194276
20
-0.4967360681107734
11
2.345289526074599
21
-0.4768487343993689
0
LINE
8
Polygon
10
2.345289526074599
20
-0.4768487343993689
11
2.3433348851751457
21
-0.45705668752891676
0
LINE
8
Polygon
10
2.3433348851751457
20
-0.457056687528917
11
2.339640119592345
21
-0.4375145676936447
0
LINE
8
Polygon
10
2.339640119592345
20
-0.43751456769364494
11
2.334234097450403
21
-0.41837506234557437
0
LINE
8
Polygon
10
1.9611625146819192
20
-0.33030480833877285
11
1.9627435194475982
21
-0.32863328050882323
0
LINE
8
Polygon
10
1.9627435194475982
20
-0.32863328050882323
11
1.964237023121167
21
-0.32688312962034755
0
LINE
8
Polygon
10
1.964237023121167
20
-0.32688312962034755
11
1.9656391215133908
21
-0.32505893076772235
0
LINE
8
Polygon
10
1.9656391215133908
20
-0.32505893076772235
11
1.9669461493788831
21
-0.3231654526151624
0
LINE
8
Polygon
10
1.9669461493788833
20
-0.3231654526151624
11
1.9681546899974764
21
-0.3212076449308875
0
LINE
8
Polygon
10
1.9681546899974764
20
-0.3212076449308875
11
1.9692615841059185
21
-0.31919062564786305
0
LINE
8
Polygon
10
1.9692615841059185
20
-0.31919062564786305
11
1.9702639381565472
21
-0.3171196674849385
0
LINE
8
Polygon
10
1.9702639381565472
20
-0.3171196674849385
11
1.971159131881356
21
-0.31500018416335784
0
LINE
8
Polygon
10
1.971159131881356
20
-0.31500018416335784
11
1.9719448251416727
21
-0.3128377162546737
0
LINE
8
Polygon
10
1.9719448251416727
20
-0.3128377162546737
11
1.9726189640455496
21
-0.31063791669706053
0
LINE
8
Polygon
10
1.9726189640455496
20
-0.31063791669706053
11
1.973179786316872
21
-0.30840653601788803
0
LINE
8
Polygon
10
1.973179786316872
20
-0.30840653601788803
11
1.973625825902149
21
-0.30614940730118584
0
LINE
8
Polygon
10
1.973625825902149
20
-0.30614940730118584
11
1.9739559168029448
21
-0.30387243093929545
0
LINE
8
Polygon
10
1.9739559168029448
20
-0.30387243093929545
11
1.974169196123932
21
-0.30158155920857044
0
LINE
8
Polygon
10
1.974169196123932
20
-0.3015815592085705
11
1.9742651063285985
21
-0.2992827807094461
0
LINE
8
Polygon
10
1.9742651063285985
20
-0.2992827807094461
11
1.9742433966967115
21
-0.2969821047115535
0
LINE
8
Polygon
10
1.9742433966967115
20
-0.2969821047115535
11
1.9741041239797288
21
-0.29468554544480247
0
LINE
8
Polygon
10
1.9741041239797288
20
-0.29468554544480247
11
1.973847652252445
21
-0.2923991063774972
0
LINE
8
Polygon
10
1.973847652252445
20
-0.2923991063774972
11
1.9734746519612567
21
-0.29012876452258435
0
LINE
8
Polygon
10
1.9734746519612567
20
-0.29012876452258435
11
1.9729860981715401
21
-0.28788045481305824
0
LINE
8
Polygon
10
1.9729860981715401
20
-0.28788045481305824
11
1.972383268018719
21
-0.28566005458736804
0
LINE
8
Polygon
10
1.972383268018719
20
-0.28566005458736804
11
1.9716677373696854
21
-0.28347336822538344
0
LINE
8
Polygon
10
1.9716677373696854
20
-0.28347336822538344
11
1.9708413767033055
21
-0.28132611197508267
0
LINE
8
Polygon
10
1.9708413767033055
20
-0.28132611197508267
11
1.969906346220772
21
-0.2792238990096272
0
LINE
8
Polygon
10
1.969906346220772
20
-0.2792238990096272
11
1.9688650901985936
21
-0.2771722247538856
0
LINE
8
Polygon
10
1.9688650901985936
20
-0.2771722247538856
11
1.9677203305989752
21
-0.2751764525187653
0
LINE
8
Polygon
10
1.967720330598975
20
-0.2751764525187653
11
1.9664750599542982
21
-0.27324179948090516
0
LINE
8
Polygon
10
1.9664750599542982
20
-0.27324179948090516
11
1.9651325335442997
21
-0.2713733230443793
0
LINE
8
Polygon
10
1.9651325335442997
20
-0.2713733230443793
11
1.9636962608863986
21
-0.26957590762006545
0
LINE
8
Polygon
10
1.9636962608863986
20
-0.26957590762006545
11
1.962169996561416
21
-0.26785425185723677
0
LINE
8
Polygon
10
1.962169996561416
20
-0.26785425185723677
11
1.9605577303986725
21
-0.26621285636075576
0
LINE
8
Polygon
10
1.9605577303986725
20
-0.26621285636075576
11
1.9588636770461183
21
-0.26465601192597893
0
LINE
8
Polygon
10
1.9588636770461183
20
-0.26465601192597893
11
1.957092264952762
21
-0.26318778832212764
0
LINE
8
Polygon
10
1.957092264952762
20
-0.2631877883221276
11
1.9552481247921982
21
-0.2618120236534462
0
LINE
8
Polygon
10
1.9552481247921982
20
-0.2618120236534462
11
1.9533360773574995
21
-0.26053231432595914
0
LINE
8
Polygon
10
1.9533360773574995
20
-0.26053231432595914
11
1.9513611209591104
21
-0.25935200564605476
0
LINE
8
Polygon
10
1.9513611209591104
20
-0.25935200564605476
11
1.9493284183586943
21
-0.25827418307547206
0
LINE
8
Polygon
10
1.9493284183586943
20
-0.25827418307547206
11
1.9472432832730842
21
-0.2573016641655514
0
LINE
8
Polygon
10
1.9472432832730842
20
-0.2573016641655514
11
1.9451111664836196
21
-0.2564369911918331
0
LINE
8
Polygon
10
1.9451111664836196
20
-0.2564369911918331
11
1.9429376415871815
21
-0.25568242450825907
0
LINE
8
Polygon
10
1.9429376415871815
20
-0.25568242450825907
11
1.9407283904261738
21
-0.255039936638349
0
LINE
8
Polygon
10
1.9407283904261738
20
-0.255039936638349
11
1.938489188235537
21
-0.2545112071187989
0
LINE
8
Polygon
10
1.938489188235537
20
-0.2545112071187989
11
1.9362258885456258
21
-0.2540976181089799
0
LINE
8
Polygon
10
1.9362258885456258
20
-0.2540976181089799
11
1.9339444078804104
21
-0.2538002507778161
0
LINE
8
Polygon
10
1.9339444078804104
20
-0.2538002507778161
11
1.9316507102910077
21
-0.25361988247748524
0
LINE
8
Polygon
10
1.9316507102910077
20
-0.25361988247748524
11
1.9293507917649706
21
-0.25355698471133137
0
LINE
8
Polygon
10
1.9293507917649706
20
-0.25355698471133137
11
1.9270506645520908
21
-0.25361172190130127
0
LINE
8
Polygon
10
1.9270506645520908
20
-0.25361172190130127
11
1.9247563414476916
21
-0.25378395095812667
0
LINE
8
Polygon
10
1.9247563414476914
20
-0.25378395095812656
11
1.9091244110078598
21
-0.25552593911854016
0
LINE
8
Polygon
10
1.9091244110078598
20
-0.25552593911854016
11
1.893532448342241
21
-0.2575953526249971
0
LINE
8
Polygon
10
1.893532448342241
20
-0.2575953526249971
11
1.877987310914432
21
-0.25999128133372074
0
LINE
8
Polygon
10
1.877987310914432
20
-0.25999128133372074
11
1.8624958355939345
21
-0.26271267149706845
0
LINE
8
Polygon
10
1.8624958355939343
20
-0.26271267149706845
11
1.8470648356492472
21
-0.26575832622697837
0
LINE
8
Polygon
10
1.8470648356492472
20
-0.26575832622697837
11
1.8317010977513406
21
-0.26912690602136935
0
LINE
8
Polygon
10
1.8317010977513406
20
-0.26912690602136935
11
1.8164113789888248
21
-0.2728169293532645
0
LINE
8
Polygon
10
1.8164113789888248
20
-0.2728169293532645
11
1.801202403896133
21
-0.2768267733223777
0
LINE
8
Polygon
10
1.801202403896133
20
-0.2768267733223777
11
1.7860808614960186
21
-0.28115467436887764
0
LINE
8
Polygon
10
1.7860808614960186
20
-0.28115467436887764
11
1.771053402357673
21
-0.28579872904901493
0
LINE
8
Polygon
10
1.771053402357673
20
-0.28579872904901493
11
1.7561266356717544
21
-0.2907568948722711
0
LINE
8
Polygon
10
1.7561266356717544
20
-0.2907568948722711
11
1.7413071263436157
21
-0.29602699119966114
0
LINE
8
Polygon
10
1.7413071263436155
20
-0.29602699119966114
11
1.7266013921060097
21
-0.30160670020279534
0
LINE
8
Polygon
10
1.7266013921060097
20
-0.30160670020279534
11
1.7120159006525397
21
-0.307493567883278
0
LINE
8
Polygon
10
1.7120159006525397
20
-0.307493567883278
11
1.6975570667931197
21
-0.31368500515199393
0
LINE
8
Polygon
10
1.6975570667931197
20
-0.31368500515199393
11
1.6832312496326916
21
-0.3201782889678104
0
LINE
8
Polygon
10
1.6832312496326916
20
-0.3201782889678104
11
1.6690447497744434
21
-0.3269705635351903
0
LINE
8
Polygon
10
1.6690447497744434
20
-0.3269705635351903
11
1.655003806548755
21
-0.33405884156019383
0
LINE
8
Polygon
10
1.655003806548755
20
-0.33405884156019383
11
1.6411145952690938
21
-0.34144000556431187
0
LINE
8
Polygon
10
1.6411145952690938
20
-0.34144000556431187
11
1.6273832245160653
21
-0.3491108092555576
0
LINE
8
Polygon
10
1.6273832245160653
20
-0.3491108092555576
11
1.6138157334508128
21
-0.3570678789562103
0
LINE
8
Polygon
10
1.6138157334508128
20
-0.3570678789562103
11
1.6004180891589477
21
-0.3653077150865838
0
LINE
8
Polygon
10
1.6004180891589477
20
-0.3653077150865838
11
1.5871961840261808
21
-0.37382669370416854
0
LINE
8
Polygon
10
1.5871961840261808
20
-0.37382669370416854
11
1.5741558331468062
21
-0.38262106809746965
0
LINE
8
Polygon
10
1.5741558331468062
20
-0.38262106809746965
11
1.5613027717661785
21
-0.39168697043383804
0
LINE
8
Polygon
10
1.5613027717661785
20
-0.39168697043383804
11
1.548642652758308
21
-0.40102041346057316
0
LINE
8
Polygon
10
1.548642652758308
20
-0.40102041346057316
11
1.5361810441396846
21
-0.41061729225854715
0
LINE
8
Polygon
10
1.5361810441396846
20
-0.41061729225854715
11
1.523923426620421
21
-0.4204733860475791
0
LINE
8
Polygon
10
1.523923426620421
20
-0.4204733860475791
11
1.5118751911937949
21
-0.43058436004276646
0
LINE
8
Polygon
10
1.5118751911937949
20
-0.43058436004276646
11
1.5000416367652507
21
-0.4409457673609559
0
LINE
8
Polygon
10
1.5000416367652507
20
-0.4409457673609559
11
1.4884279678218977
21
-0.4515530509765173
0
LINE
8
Polygon
10
1.4884279678218975
20
-0.45155305097651743
11
1.47703929214354
21
-0.46240154572555714
0
LINE
8
Polygon
10
1.47703929214354
20
-0.46240154572555714
11
1.4658806185562347
21
-0.47348648035769336
0
LINE
8
Polygon
10
1.4658806185562347
20
-0.47348648035769336
11
1.4549568547293728
21
-0.48480297963448804
0
LINE
8
Polygon
10
1.4549568547293728
20
-0.48480297963448804
11
1.4442728050172473
21
-0.49634606647361346
0
LINE
8
Polygon
10
1.4442728050172473
20
-0.49634606647361346
11
1.433833168346065
21
-0.5081106641378116
0
LINE
8
Polygon
10
1.433833168346065
20
-0.5081106641378116
11
1.423642536147319
21
-0.5200915984676808
0
LINE
8
Polygon
10
1.423642536147319
20
-0.5200915984676808
11
1.413705390338446
21
-0.5322836001573111
0
LINE
8
Polygon
10
1.413705390338446
20
-0.5322836001573111
11
1.404026101351642
21
-0.5446813070717647
0
LINE
8
Polygon
10
1.404026101351642
20
-0.5446813070717647
11
1.394608926211715
21
-0.5572792666053834
0
LINE
8
Polygon
10
1.394608926211715
20
-0.5572792666053834
11
1.3854580066638122
21
-0.5700719380798865
0
LINE
8
Polygon
10
1.385458006663812
20
-0.5700719380798868
11
1.3765773673518493
21
-0.5830536951812031
0
LINE
8
Polygon
10
1.3765773673518493
20
-0.5830536951812031
11
1.3679709140484422
21
-0.5962188284339669
0
LINE
8
Polygon
10
1.3679709140484422
20
-0.5962188284339669
11
1.3596424319371168
21
-0.609561547712588
0
LINE
8
Polygon
10
1.3596424319371168
20
-0.609561547712588
11
1.351595583947558
21
-0.6230759847877935
0
LINE
8
Polygon
10
1.351595583947558
20
-0.6230759847877935
11
1.3438339091446254
21
-0.6367561959075195
0
LINE
8
Polygon
10
1.3438339091446254
20
-0.6367561959075195
11
1.336360821171845
21
-0.6505961644110183
0
LINE
8
Polygon
10
1.336360821171845
20
-0.6505961644110183
11
1.329179606750063
21
-0.6645898033750315
0
LINE
8
Polygon
10
0.6583592135001262
20
-0.32917960675006286
11
0.6568466926801646
21
-0.33221321289217753
0
LINE
8
Polygon
10
0.6568466926801646
20
-0.33221321289217753
11
0.6553410311862224
21
-0.33525022934289883
0
LINE
8
Polygon
10
0.6553410311862222
20
-0.3352502293428994
11
0.6538422367075354
21
-0.33829064059254166
0
LINE
8
Polygon
10
0.6538422367075354
20
-0.33829064059254166
11
0.6523503168982714
21
-0.3413344311140818
0
LINE
8
Polygon
10
0.6523503168982709
20
-0.34133443111408235
11
0.6508652793774887
21
-0.3443815853632404
0
LINE
8
Polygon
10
0.6508652793774887
20
-0.3443815853632404
11
0.6493871317291
21
-0.3474320877785574
0
LINE
8
Polygon
10
0.6493871317291
20
-0.3474320877785574
11
0.6479158815018311
21
-0.3504859227814766
0
LINE
8
Polygon
10
0.6479158815018309
20
-0.35048592278147717
11
0.6464515362091843
21
-0.3535430747764221
0
LINE
8
Polygon
10
0.6464515362091843
20
-0.3535430747764221
11
0.6449941033293984
21
-0.35660352815087704
0
LINE
8
Polygon
10
0.6449941033293982
20
-0.3566035281508776
11
0.6435435903054121
21
-0.35966726727546694
0
LINE
8
Polygon
10
0.6435435903054121
20
-0.35966726727546694
11
0.6421000045448249
21
-0.3627342765040351
0
LINE
8
Polygon
10
0.6421000045448249
20
-0.3627342765040351
11
0.6406633534198596
21
-0.36580454017372666
0
LINE
8
Polygon
10
0.6406633534198591
20
-0.3658045401737273
11
0.6392336442673239
21
-0.36887804260506685
0
LINE
8
Polygon
10
0.6392336442673239
20
-0.36887804260506685
11
0.6378108843885752
21
-0.3719547681020384
0
LINE
8
Polygon
10
0.6378108843885748
20
-0.3719547681020391
11
0.6363950810494803
21
-0.3750347009521676
0
LINE
8
Polygon
10
0.6363950810494803
20
-0.3750347009521676
11
0.6349862414803809
21
-0.3781178254265982
0
LINE
8
Polygon
10
0.6349862414803809
20
-0.3781178254265982
11
0.6335843728760548
21
-0.3812041257801765
0
LINE
8
Polygon
10
0.6335843728760546
20
-0.38120412578017704
11
0.63218948239568
21
-0.38429358625153
0
LINE
8
Polygon
10
0.63218948239568
20
-0.38429358625153
11
0.6308015771627984
21
-0.3873861910631464
0
LINE
8
Polygon
10
0.6308015771627982
20
-0.3873861910631471
11
0.6294206642652784
21
-0.39048192442145757
0
LINE
8
Polygon
10
0.6294206642652784
20
-0.39048192442145757
11
0.6280467507552807
21
-0.3935807705169161
0
LINE
8
Polygon
10
0.6280467507552807
20
-0.3935807705169161
11
0.6266798436492194
21
-0.3966827135240797
0
LINE
8
Polygon
10
0.6266798436492191
20
-0.39668271352408024
11
0.6253199499277282
21
-0.39978773760169106
0
LINE
8
Polygon
10
0.6253199499277282
20
-0.39978773760169106
11
0.6239670765356251
21
-0.4028958268927558
0
LINE
8
Polygon
10
0.6239670765356249
20
-0.4028958268927565
11
0.6226212303818748
21
-0.4060069655246289
0
LINE
8
Polygon
10
0.6226212303818748
20
-0.4060069655246289
11
0.6212824183395558
21
-0.40912113760908964
0
LINE
8
Polygon
10
0.6212824183395558
20
-0.40912113760908964
11
0.6199506472458238
21
-0.4122383272424279
0
LINE
8
Polygon
10
0.6199506472458236
20
-0.4122383272424286
11
0.6186259239018765
21
-0.41535851850552363
0
LINE
8
Polygon
10
0.6186259239018765
20
-0.41535851850552363
11
0.6173082550729214
21
-0.41848169546392555
0
LINE
8
Polygon
10
0.6173082550729214
20
-0.41848169546392555
11
0.6159976474881375
21
-0.42160784216793656
0
LINE
8
Polygon
10
0.6159976474881372
20
-0.42160784216793723
11
0.6146941078406438
21
-0.424736942652694
0
LINE
8
Polygon
10
0.6146941078406438
20
-0.424736942652694
11
0.6133976427874641
21
-0.4278689809382481
0
LINE
8
Polygon
10
0.6133976427874639
20
-0.42786898093824877
11
0.6121082589494926
21
-0.4310039410296488
0
LINE
8
Polygon
10
0.6121082589494926
20
-0.4310039410296488
11
0.6108259629114616
21
-0.4341418069170224
0
LINE
8
Polygon
10
0.6108259629114616
20
-0.4341418069170224
11
0.609550761221906
21
-0.43728256257565723
0
LINE
8
Polygon
10
0.6095507612219058
20
-0.4372825625756579
11
0.6082826603931306
21
-0.4404261919660841
0
LINE
8
Polygon
10
0.6082826603931306
20
-0.4404261919660841
11
0.6070216669011776
21
-0.4435726790341562
0
LINE
8
Polygon
10
0.6070216669011772
20
-0.44357267903415687
11
0.605767787185792
21
-0.44672200771113524
0
LINE
8
Polygon
10
0.605767787185792
20
-0.44672200771113524
11
0.6045210276503907
21
-0.4498741619137685
0
LINE
8
Polygon
10
0.6045210276503907
20
-0.4498741619137685
11
0.6032813946620279
21
-0.4530291255443758
0
LINE
8
Polygon
10
0.6032813946620277
20
-0.45302912554437635
11
0.6020488945513631
21
-0.45618688249092954
0
LINE
8
Polygon
10
0.6020488945513631
20
-0.45618688249092954
11
0.60082353361263
21
-0.45934741662713496
0
LINE
8
Polygon
10
0.6008235336126297
20
-0.4593474166271355
11
0.5996053181036023
21
-0.46251071181251713
0
LINE
8
Polygon
10
0.5996053181036023
20
-0.46251071181251713
11
0.598394254245564
21
-0.465676751892498
0
LINE
8
Polygon
10
0.598394254245564
20
-0.465676751892498
11
0.5971903482232754
21
-0.46884552069848406
0
LINE
8
Polygon
10
0.597190348223275
20
-0.4688455206984846
11
0.5959936061849429
21
-0.47201700204794594
0
LINE
8
Polygon
10
0.5959936061849429
20
-0.47201700204794594
11
0.5948040342421879
21
-0.4751911797445002
0
LINE
8
Polygon
10
0.5948040342421876
20
-0.47519117974450076
11
0.5936216384700139
21
-0.47836803757799573
0
LINE
8
Polygon
10
0.5936216384700139
20
-0.4783680375779957
11
0.5928467307204754
21
-0.4803167558601731
0
LINE
8
Polygon
10
0.5928467307204754
20
-0.4803167558601731
11
0.5919818728998341
21
-0.4822272547253031
0
LINE
8
Polygon
10
0.5919818728998341
20
-0.4822272547253031
11
0.5910289433447274
21
-0.48409538486707365
0
LINE
8
Polygon
10
0.5910289433447274
20
-0.48409538486707365
11
0.5899900116698985
21
-0.48591708899744845
0
LINE
8
Polygon
10
0.5899900116698985
20
-0.48591708899744845
11
0.5888673342733148
21
-0.48768841065846535
0
LINE
8
Polygon
10
0.5888673342733148
20
-0.48768841065846535
11
0.5876633494356229
21
-0.4894055028150473
0
LINE
8
Polygon
10
0.5876633494356229
20
-0.4894055028150473
11
0.5863806720245819
21
-0.49106463621016433
0
LINE
8
Polygon
10
0.5863806720245819
20
-0.49106463621016433
11
0.5850220878159781
21
-0.49266220746419953
0
LINE
8
Polygon
10
0.5850220878159781
20
-0.49266220746419953
11
0.5835905474433526
21
-0.49419474690092896
0
LINE
8
Polygon
10
0.5835905474433526
20
-0.49419474690092896
11
0.5820891599896852
21
-0.49565892608311857
0
LINE
8
Polygon
10
0.5820891599896852
20
-0.49565892608311857
11
0.580521186234949
21
-0.4970515650413722
0
LINE
8
Polygon
10
0.580521186234949
20
-0.4970515650413722
11
0.578890031574204
21
-0.49836963918053034
0
LINE
8
Polygon
10
0.578890031574204
20
-0.49836963918053034
11
0.5771992386216089
21
-0.4996102858486201
0
LINE
8
Polygon
10
0.5771992386216089
20
-0.4996102858486201
11
0.5754524795164141
21
-0.5007708105540902
0
LINE
8
Polygon
10
0.5754524795164141
20
-0.5007708105540902
11
0.5736535479476467
21
-0.5018486928178274
0
LINE
8
Polygon
10
0.5736535479476467
20
-0.5018486928178274
11
0.5718063509148076
21
-0.5028415916472446
0
LINE
8
Polygon
10
0.5718063509148077
20
-0.5028415916472446
11
0.5699149002424775
21
-0.5037473506205534
0
LINE
8
Polygon
10
0.5699149002424775
20
-0.5037473506205534
11
0.5679833038672568
21
-0.5045640025701756
0
LINE
8
Polygon
10
0.5679833038672568
20
-0.5045640025701756
11
0.5660157569159674
21
-0.5052897738551263
0
LINE
8
Polygon
10
0.5660157569159674
20
-0.5052897738551263
11
0.564016532594489
21
-0.5059230882130852
0
LINE
8
Polygon
10
0.564016532594489
20
-0.5059230882130852
11
0.5619899729070217
21
-0.5064625701837938
0
LINE
8
Polygon
10
0.5619899729070217
20
-0.5064625701837938
11
0.5599404792259275
21
-0.506907048096341
0
LINE
8
Polygon
10
0.5599404792259275
20
-0.506907048096341
11
0.5578725027326347
21
-0.5072555566138496
0
LINE
8
Polygon
10
0.5578725027326347
20
-0.5072555566138496
11
0.5557905347503644
21
-0.5075073388300382
0
LINE
8
Polygon
10
0.5557905347503644
20
-0.5075073388300382
11
0.553699096989675
21
-0.5076618479131041
0
LINE
8
Polygon
10
0.553699096989675
20
-0.5076618479131041
11
0.5516027317280102
21
-0.5077187482933563
0
LINE
8
Polygon
10
0.5516027317280102
20
-0.5077187482933563
11
0.5495059919445796
21
-0.507677916392021
0
LINE
8
Polygon
10
0.5495059919445796
20
-0.507677916392021
11
0.5474134314319955
21
-0.5075394408896357
0
LINE
8
Polygon
10
0.5474134314319955
20
-0.5075394408896357
11
0.5453295949061441
21
-0.5073036225334483
0
LINE
8
Polygon
10
0.5453295949061441
20
-0.5073036225334483
11
0.5432590081357697
21
-0.5069709734842415
0
LINE
8
Polygon
10
0.5432590081357697
20
-0.5069709734842415
11
0.5412061681132092
21
-0.5065422162039986
0
LINE
8
Polygon
10
0.5412061681132092
20
-0.5065422162039986
11
0.5391755332876239
21
-0.5060182818868292
0
LINE
8
Polygon
10
0.5391755332876239
20
-0.5060182818868292
11
0.5371715138819421
21
-0.5054003084365598
0
LINE
8
Polygon
10
0.5371715138819421
20
-0.5054003084365598
11
0.5351984623145403
21
-0.504689637995384
0
LINE
8
Polygon
10
0.5351984623145404
20
-0.504689637995384
11
0.5332606637464685
21
-0.5038878140289386
0
LINE
8
Polygon
10
0.5332606637464685
20
-0.5038878140289386
11
0.5313623267747463
21
-0.5029965779741361
0
LINE
8
Polygon
10
0.5313623267747463
20
-0.5029965779741361
11
0.5295075742919453
21
-0.5020178654570349
0
LINE
8
Polygon
10
0.5295075742919453
20
-0.5020178654570349
11
0.5277004345319076
21
-0.5009538020889601
0
LINE
8
Polygon
10
0.5277004345319076
20
-0.5009538020889601
11
0.525944832321049
21
-0.4998066988500073
0
LINE
8
Polygon
10
0.525944832321049
20
-0.4998066988500073
11
0.5242445805542464
21
-0.4985790470699525
0
LINE
8
Polygon
10
0.5242445805542464
20
-0.4985790470699525
11
0.5226033719138228
21
-0.49727351301747186
0
LINE
8
Polygon
10
0.5226033719138228
20
-0.49727351301747186
11
0.5210247708496167
21
-0.49589293210942087
0
LINE
8
Polygon
10
0.5210247708496167
20
-0.49589293210942087
11
0.5195122058375511
21
-0.49444030275274986
0
LINE
8
Polygon
10
0.5195122058375511
20
-0.49444030275274986
11
0.518068961933517
21
-0.49291877983243093
0
LINE
8
Polygon
10
0.518068961933517
20
-0.49291877983243093
11
0.5166981736387435
21
-0.4913316678595383
0
LINE
8
Polygon
10
0.5166981736387435
20
-0.4913316678595383
11
0.5154028180921483
21
-0.4896824137943644
0
LINE
8
Polygon
10
0.5154028180921483
20
-0.4896824137943644
11
0.5141857086044557
21
-0.48797459956015854
0
LINE
8
Polygon
10
0.5141857086044557
20
-0.48797459956015854
11
0.5130494885481229
21
-0.48621193426374676
0
LINE
8
Polygon
10
0.513049488548123
20
-0.4862119342637461
11
0.5005875552237866
21
-0.4679354799035602
0
LINE
8
Polygon
10
0.5005875552237866
20
-0.4679354799035602
11
0.48639117988592934
21
-0.45097106145119825
0
LINE
8
Polygon
10
0.48639117988592934
20
-0.45097106145119825
11
0.4705975811417361
21
-0.4354826527250708
0
LINE
8
Polygon
10
0.4705975811417361
20
-0.4354826527250708
11
0.4533594159596614
21
-0.4216199608033815
0
LINE
8
Polygon
10
0.4533594159596614
20
-0.42161996080338154
11
0.4348433041254193
21
-0.4095169789930175
0
LINE
8
Polygon
10
0.4348433041254193
20
-0.4095169789930175
11
0.4152282177368807
21
-0.39929069168381626
0
LINE
8
Polygon
10
0.4152282177368807
20
-0.39929069168381626
11
0.3947037513046156
21
-0.3910399436067637
0
LINE
8
Polygon
10
0.3947037513046156
20
-0.3910399436067637
11
0.3734682891788562
21
-0.38484448442558894
0
LINE
8
Polygon
10
0.37346828917885627
20
-0.38484448442558894
11
0.3517270880160717
21
-0.38076419789649596
0
LINE
8
Polygon
10
0.35172708801607167
20
-0.38076419789649596
11
0.3296902928195524
21
-0.3788385230467798
0
LINE
8
Polygon
10
0.3296902928195525
20
-0.3788385230467798
11
0.30757090573045964
21
-0.3790860729670695
0
LINE
8
Polygon
10
0.30757090573045964
20
-0.3790860729670695
11
0.28558272720249483
21
-0.381504454901858
0
LINE
8
Polygon
10
0.28558272720249483
20
-0.381504454901858
11
0.2639382894602816
21
-0.38607029337727705
0
LINE
8
Polygon
10
0.2639382894602816
20
-0.38607029337727705
11
0.24284680221613075
21
-0.3927394561425712
0
LINE
8
Polygon
10
0.2428468022161308
20
-0.3927394561425712
11
0.22251213050137802
21
-0.4014474807413765
0
LINE
8
Polygon
10
0.22251213050137802
20
-0.4014474807413765
11
0.2031308241580682
21
-0.4121101975896726
0
LINE
8
Polygon
10
0.2031308241580681
20
-0.41211019758967266
11
0.18489021803742642
21
-0.42462454353789425
0
LINE
8
Polygon
10
0.18489021803742642
20
-0.42462454353789425
11
0.1679666212681227
21
-0.4388695580535124
0
LINE
8
Polygon
10
0.1679666212681227
20
-0.4388695580535124
11
0.15252361309640666
21
-0.4547075523952362
0
LINE
8
Polygon
10
0.15252361309640666
20
-0.4547075523952362
11
0.13871046177009796
21
-0.47198544047788843
0
LINE
8
Polygon
10
0.1387104617700979
20
-0.4719854404778885
11
0.1266606817491008
21
-0.49053621856415053
0
LINE
8
Polygon
10
0.12666068174910075
20
-0.49053621856415064
11
0.1164907431880863
21
-0.510180579480845
0
LINE
8
Polygon
10
0.1164907431880863
20
-0.510180579480845
11
0.10829894616515812
21
-0.5307286457571472
0
LINE
8
Polygon
10
0.10829894616515812
20
-0.5307286457571472
11
0.10216447053792621
21
-0.5519818049326453
0
LINE
8
Polygon
10
0.10216447053792618
20
-0.5519818049326454
11
0.09814661061084123
21
-0.5737346292956215
0
LINE
8
Polygon
10
0.09814661061084123
20
-0.5737346292956215
11
0.0962842020113038
21
-0.5957768614958441
0
LINE
8
Polygon
10
0.0962842020113038
20
-0.5957768614958442
11
0.09659524631421995
21
-0.6178954468394366
0
LINE
8
Polygon
10
0.09659524631421995
20
-0.6178954468394366
11
0.09907673704328818
21
-0.6398765926221684
0
LINE
8
Polygon
10
0.09907673704328818
20
-0.6398765926221684
11
0.10370468873084643
21
-0.6615078345961696
0
LINE
8
Polygon
10
0.10370468873084646
20
-0.6615078345961697
11
0.11043436875539286
21
-0.6825800905961186
0
LINE
8
Polygon
10
0.11043436875539286
20
-0.6825800905961186
11
0.11920072971589776
21
-0.7028896814750678
0
LINE
8
Polygon
10
0.11920072971589782
20
-0.7028896814750678
11
0.1299190381636847
21
-0.7222402998160476
0
LINE
8
Polygon
10
0.1299190381636847
20
-0.7222402998160476
11
0.1424856936147157
21
-0.7404449073903743
0
LINE
8
Polygon
10
0.1424856936147157
20
-0.7404449073903743
11
0.15677922992591362
21
-0.7573275430223076
0
LINE
8
Polygon
10
0.1567792299259137
20
-0.7573275430223078
11
0.17266148935646836
21
-0.7727250233856893
0
LINE
8
Polygon
10
0.17266148935646836
20
-0.7727250233856893
11
0.18997895796594455
21
-0.7864885202930879
0
LINE
8
Polygon
10
0.18997895796594455
20
-0.7864885202930879
11
0.20856424944156782
21
-0.7984849992317717
0
LINE
8
Polygon
10
0.20856424944156782
20
-0.7984849992317717
11
0.2282377230123864
21
-0.8085985052419773
0
LINE
8
Polygon
10
0.2282377230123864
20
-0.8085985052419773
11
0.24880921981195492
21
-0.816731283708498
0
LINE
8
Polygon
10
0.24880921981195492
20
-0.816731283708498
11
0.2700799009062941
21
-0.8228047252323034
0
LINE
8
Polygon
10
0.2700799009062941
20
-0.8228047252323034
11
0.2918441692212085
21
-0.8267601254492947
0
LINE
8
Polygon
10
0.2918441692212085
20
-0.8267601254492947
11
0.31389165679209435
21
-0.82855925245198
0
LINE
8
Polygon
10
0.3138916567920948
20
-0.82855925245198
11
0.3360092581279795
21
-0.8281847163295137
0
LINE
8
Polygon
10
0.3360092581279795
20
-0.8281847163295137
11
0.35798319003580437
21
-0.8256401372542175
0
LINE
8
Polygon
10
0.35798319003580437
20
-0.8256401372542175
11
0.3796010579952069
21
-0.8209501104899015
0
LINE
8
Polygon
10
0.3796010579952069
20
-0.8209501104899015
11
0.4006539091107397
21
-0.8141599686602071
0
LINE
8
Polygon
10
0.4006539091107397
20
-0.8141599686602071
11
0.42093825179820654
21
-0.8053353435748241
0
LINE
8
Polygon
10
0.42093825179820654
20
-0.8053353435748241
11
0.4402580226833306
21
-0.794561531848862
0
LINE
8
Polygon
10
0.44025802268333086
20
-0.7945615318488612
11
0.4420625766815457
21
-0.7934930891357903
0
LINE
8
Polygon
10
0.4420625766815457
20
-0.7934930891357903
11
0.4439149502458871
21
-0.792509881557648
0
LINE
8
Polygon
10
0.4439149502458871
20
-0.792509881557648
11
0.4458111203091537
21
-0.7916140444883331
0
LINE
8
Polygon
10
0.4458111203091537
20
-0.7916140444883331
11
0.44774696868496194
21
-0.7908075235465912
0
LINE
8
Polygon
10
0.44774696868496194
20
-0.7908075235465912
11
0.4497182910118063
21
-0.7900920703704348
0
LINE
8
Polygon
10
0.4497182910118063
20
-0.7900920703704348
11
0.4517208058842786
21
-0.7894692388128569
0
LINE
8
Polygon
10
0.45172080588427854
20
-0.7894692388128569
11
0.45375016415161395
21
-0.7889403815671044
0
LINE
8
Polygon
10
0.45375016415161395
20
-0.7889403815671044
11
0.4558019583633703
21
-0.7885066472288389
0
LINE
8
Polygon
10
0.4558019583633703
20
-0.7885066472288389
11
0.4578717323417245
21
-0.7881689778015654
0
LINE
8
Polygon
10
0.4578717323417245
20
-0.7881689778015654
11
0.4599549908595977
21
-0.7879281066507476
0
LINE
8
Polygon
10
0.4599549908595977
20
-0.7879281066507476
11
0.4620472094035889
21
-0.787784556911052
0
LINE
8
Polygon
10
0.4620472094035889
20
-0.787784556911052
11
0.46414384400051445
21
-0.7877386403501806
0
LINE
8
Polygon
10
0.46414384400051445
20
-0.7877386403501806
11
0.46624034108621065
21
-0.7877904566917602
0
LINE
8
Polygon
10
0.46624034108621065
20
-0.7877904566917602
11
0.4683321473951669
21
-0.787939893398758
0
LINE
8
Polygon
10
0.4683321473951669
20
-0.787939893398758
11
0.4704147198495098
21
-0.7881866259178951
0
LINE
8
Polygon
10
0.4704147198495098
20
-0.7881866259178951
11
0.47248353542586163
21
-0.7885301183845248
0
LINE
8
Polygon
10
0.47248353542586163
20
-0.7885301183845248
11
0.4745341009786436
21
-0.7889696247864478
0
LINE
8
Polygon
10
0.4745341009786436
20
-0.7889696247864478
11
0.4765619629984888
21
-0.789504190584135
0
LINE
8
Polygon
10
0.4765619629984888
20
-0.789504190584135
11
0.4785627172845717
21
-0.7901326547838379
0
LINE
8
Polygon
10
0.4785627172845717
20
-0.7901326547838379
11
0.48053201850984745
21
-0.7908536524590872
0
LINE
8
Polygon
10
0.48053201850984745
20
-0.7908536524590872
11
0.4824655896584259
21
-0.7916656177151004
0
LINE
8
Polygon
10
0.4824655896584259
20
-0.7916656177151004
11
0.48435923131458475
21
-0.7925667870896618
0
LINE
8
Polygon
10
0.48435923131458475
20
-0.7925667870896618
11
0.48620883078324745
21
-0.7935552033830878
0
LINE
8
Polygon
10
0.48620883078324745
20
-0.7935552033830878
11
0.48801037102211675
21
-0.7946287199089607
0
LINE
8
Polygon
10
0.48801037102211675
20
-0.7946287199089607
11
0.4897599393660658
21
-0.7957850051563969
0
LINE
8
Polygon
10
0.4897599393660658
20
-0.7957850051563969
11
0.49145373602483816
21
-0.7970215478537265
0
LINE
8
Polygon
10
0.49145373602483816
20
-0.7970215478537265
11
0.49308808233560086
21
-0.7983356624225841
0
LINE
8
Polygon
10
0.49308808233560086
20
-0.7983356624225841
11
0.4946594287524279
21
-0.7997244948105677
0
LINE
8
Polygon
10
0.4946594287524279
20
-0.7997244948105677
11
0.49616436255536195
21
-0.8011850286897961
0
LINE
8
Polygon
10
0.49616436255536195
20
-0.8011850286897961
11
0.49759961526231083
21
-0.802714092007904
0
LINE
8
Polygon
10
0.49759961526231083
20
-0.802714092007904
11
0.4989620697276824
21
-0.8043083638772464
0
LINE
8
Polygon
10
0.4989620697276824
20
-0.8043083638772464
11
0.5002487669123399
21
-0.8059643817873494
0
LINE
8
Polygon
10
0.5002487669123399
20
-0.8059643817873494
11
0.501456912310174
21
-0.8076785491249451
0
LINE
8
Polygon
10
0.501456912310174
20
-0.8076785491249451
11
0.5025838820173363
21
-0.809447142985255
0
LINE
8
Polygon
10
0.5025838820173363
20
-0.809447142985255
11
0.5036272284309493
21
-0.8112663222575611
0
LINE
8
Polygon
10
0.5036272284309493
20
-0.8112663222575611
11
0.50458468556492
21
-0.8131321359675001
0
LINE
8
Polygon
10
0.50458468556492
20
-0.8131321359675001
11
0.5054541739713081
21
-0.8150405318579651
0
LINE
8
Polygon
10
0.5054541739713081
20
-0.8150405318579652
11
0.5062338052565645
21
-0.8169873651899782
0
LINE
8
Polygon
10
0.5062338052565645
20
-0.8169873651899782
11
0.5069218861828275
21
-0.8189684077444177
0
LINE
8
Polygon
10
0.5069218861828275
20
-0.8189684077444177
11
0.5075169223453726
21
-0.8209793570050533
0
LINE
8
Polygon
10
0.5075169223453726
20
-0.8209793570050533
11
0.5080176214182266
21
-0.8230158455029415
0
LINE
8
Polygon
10
0.5080176214182266
20
-0.8230158455029415
11
0.5084228959608986
21
-0.8250734503018884
0
LINE
8
Polygon
10
0.5084228959608986
20
-0.8250734503018884
11
0.5087318657801322
21
-0.8271477026043796
0
LINE
8
Polygon
10
0.5087318657801322
20
-0.8271477026043796
11
0.5089438598415473
21
-0.829234097457113
0
LINE
8
Polygon
10
0.5089438598415473
20
-0.829234097457113
11
0.5090584177270233
21
-0.831328103535056
0
LINE
8
Polygon
10
0.5090584177270233
20
-0.831328103535056
11
0.5090752906346551
21
-0.8334251729827796
0
LINE
8
Polygon
10
0.5090752906346551
20
-0.8334251729827796
11
0.5089944419191123
21
-0.8355207512916916
0
LINE
8
Polygon
10
0.5089944419191123
20
-0.8355207512916917
11
0.5088160471712271
21
-0.8376102871917217
0
LINE
8
Polygon
10
0.5088160471712269
20
-0.8376102871917217
11
0.5084528800862729
21
-0.8409805386845184
0
LINE
8
Polygon
10
0.5084528800862729
20
-0.8409805386845184
11
0.5080973301570919
21
-0.8443516022710074
0
LINE
8
Polygon
10
0.5080973301570919
20
-0.844351602271008
11
0.5077493991994353
21
-0.8477234607355638
0
LINE
8
Polygon
10
0.5077493991994353
20
-0.8477234607355638
11
0.5074090889901455
21
-0.8510960968585017
0
LINE
8
Polygon
10
0.5074090889901455
20
-0.8510960968585024
11
0.5070764012671471
21
-0.8544694934161663
0
LINE
8
Polygon
10
0.5070764012671471
20
-0.8544694934161663
11
0.5067513377294368
21
-0.8578436331810166
0
LINE
8
Polygon
10
0.5067513377294368
20
-0.8578436331810166
11
0.5064339000370761
21
-0.8612184989217182
0
LINE
8
Polygon
10
0.5064339000370759
20
-0.8612184989217189
11
0.5061240898111818
21
-0.8645940734032292
0
LINE
8
Polygon
10
0.5061240898111818
20
-0.8645940734032292
11
0.5058219086339186
21
-0.8679703393868864
0
LINE
8
Polygon
10
0.5058219086339186
20
-0.8679703393868871
11
0.5055273580484898
21
-0.8713472796304976
0
LINE
8
Polygon
10
0.5055273580484898
20
-0.8713472796304976
11
0.505240439559131
21
-0.8747248768884247
0
LINE
8
Polygon
10
0.505240439559131
20
-0.8747248768884247
11
0.504961154631101
21
-0.8781031139116763
0
LINE
8
Polygon
10
0.504961154631101
20
-0.878103113911677
11
0.5046895046906754
21
-0.8814819734479938
0
LINE
8
Polygon
10
0.5046895046906754
20
-0.8814819734479938
11
0.5044254911251378
21
-0.8848614382419375
0
LINE
8
Polygon
10
0.5044254911251378
20
-0.8848614382419382
11
0.5041691152827752
21
-0.8882414910349794
0
LINE
8
Polygon
10
0.5041691152827752
20
-0.8882414910349794
11
0.5039203784728685
21
-0.8916221145655858
0
LINE
8
Polygon
10
0.5039203784728685
20
-0.8916221145655858
11
0.5036792819656875
21
-0.8950032915693107
0
LINE
8
Polygon
10
0.5036792819656872
20
-0.8950032915693114
11
0.5034458269924835
21
-0.8983850047788811
0
LINE
8
Polygon
10
0.5034458269924835
20
-0.8983850047788811
11
0.5032200147454837
21
-0.9017672369242842
0
LINE
8
Polygon
10
0.5032200147454837
20
-0.9017672369242847
11
0.5030018463778845
21
-0.9051499707328591
0
LINE
8
Polygon
10
0.5030018463778845
20
-0.9051499707328591
11
0.5027913230038468
21
-0.908533188929381
0
LINE
8
Polygon
10
0.5027913230038468
20
-0.908533188929381
11
0.5025884456984879
21
-0.9119168742361526
0
LINE
8
Polygon
10
0.5025884456984877
20
-0.9119168742361533
11
0.5023932154978787
21
-0.915301009373092
0
LINE
8
Polygon
10
0.5023932154978787
20
-0.915301009373092
11
0.502205633399037
21
-0.9186855770578173
0
LINE
8
Polygon
10
0.502205633399037
20
-0.9186855770578173
11
0.5020257003599222
21
-0.92207056000574
0
LINE
8
Polygon
10
0.5020257003599222
20
-0.9220705600057406
11
0.5018534172994318
21
-0.9254559409301508
0
LINE
8
Polygon
10
0.5018534172994318
20
-0.9254559409301508
11
0.5016887850973943
21
-0.9288417025423062
0
LINE
8
Polygon
10
0.5016887850973943
20
-0.9288417025423069
11
0.5015318045945674
21
-0.932227827551521
0
LINE
8
Polygon
10
0.5015318045945674
20
-0.932227827551521
11
0.5013824765926322
21
-0.9356142986652514
0
LINE
8
Polygon
10
0.5013824765926322
20
-0.9356142986652514
11
0.501240801854189
21
-0.9390010985891883
0
LINE
8
Polygon
10
0.501240801854189
20
-0.939001098589189
11
0.5011067811027543
21
-0.9423882100273436
0
LINE
8
Polygon
10
0.5011067811027543
20
-0.9423882100273436
11
0.5009804150227561
21
-0.9457756156821359
0
LINE
8
Polygon
10
0.5009804150227561
20
-0.9457756156821365
11
0.5008617042595311
21
-0.9491632982544841
0
LINE
8
Polygon
10
0.5008617042595311
20
-0.9491632982544841
11
0.5007506494193215
21
-0.9525512404438903
0
LINE
8
Polygon
10
0.5007506494193215
20
-0.9525512404438903
11
0.500647251069271
21
-0.9559394249485328
0
LINE
8
Polygon
10
0.500647251069271
20
-0.9559394249485335
11
0.5005515097374227
21
-0.9593278344653523
0
LINE
8
Polygon
10
0.5005515097374227
20
-0.9593278344653523
11
0.500463425912717
21
-0.9627164516901384
0
LINE
8
Polygon
10
0.5004634259127168
20
-0.9627164516901391
11
0.5003830000449867
21
-0.9661052593176229
0
LINE
8
Polygon
10
0.5003830000449867
20
-0.9661052593176229
11
0.500310232544958
21
-0.9694942400415623
0
LINE
8
Polygon
10
0.500310232544958
20
-0.9694942400415623
11
0.5002451237842456
21
-0.9728833765548309
0
LINE
8
Polygon
10
0.5002451237842456
20
-0.9728833765548316
11
0.5001876740953524
21
-0.976272651549508
0
LINE
8
Polygon
10
0.5001876740953524
20
-0.976272651549508
11
0.5001378837716672
21
-0.9796620477169632
0
LINE
8
Polygon
10
0.5001378837716672
20
-0.9796620477169639
11
0.5000957530674635
21
-0.9830515477479501
0
LINE
8
Polygon
10
0.5000957530674635
20
-0.9830515477479501
11
0.5000612821978971
21
-0.9864411343326893
0
LINE
8
Polygon
10
0.5000612821978971
20
-0.9864411343326893
11
0.5000344713390079
21
-0.9898307901609613
0
LINE
8
Polygon
10
0.5000344713390079
20
-0.989830790160962
11
0.5000153206277149
21
-0.9932204979221929
0
LINE
8
Polygon
10
0.5000153206277149
20
-0.9932204979221929
11
0.5000038301618188
21
-0.9966102403055439
0
LINE
8
Polygon
10
0.5000038301618188
20
-0.9966102403055446
11
0.5
21
-0.9999999999999998
0
ENDSEC
0
EOF
