0
SECTION
2
ENTITIES
0
LINE
10
40
20
0
11
20.201010126776673
21
19.798989873223327
0
LINE
10
20.201010126776673
20
19.798989873223327
11
18.15419986810342
21
14.857552787129977
0
ARC
10
17.045544429089876
20
15.316772905968087
40
1.2
50
333.3809276595069
51
337.49999999999994
0
ARC
10
17.045544429089876
20
15.316772905968087
40
1.2
50
329.26185531901376
51
333.3809276595069
0
ARC
10
17.045544429089876
20
15.316772905968087
40
1.2
50
325.1427829785207
51
329.26185531901376
0
ARC
10
17.045544429089876
20
15.316772905968087
40
1.2
50
321.02371063802764
51
325.1427829785207
0
ARC
10
17.045544429089876
20
15.316772905968087
40
1.2
50
316.9046382975345
51
321.02371063802764
0
ARC
10
17.045544429089876
20
15.316772905968087
40
1.2
50
312.78556595704146
51
316.9046382975345
0
ARC
10
17.045544429089876
20
15.316772905968087
40
1.2
50
308.6664936165484
51
312.78556595704146
0
ARC
10
17.045544429089876
20
15.316772905968087
40
1.2
50
304.5474212760553
51
308.6664936165484
0
ARC
10
17.045544429089876
20
15.316772905968087
40
1.2
50
300.4283489355622
51
304.5474212760553
0
ARC
10
17.045544429089876
20
15.316772905968087
40
1.2
50
296.30927659506915
51
300.4283489355622
0
ARC
10
17.045544429089876
20
15.316772905968087
40
1.2
50
292.1902042545761
51
296.30927659506915
0
ARC
10
17.045544429089876
20
15.316772905968087
40
1.2
50
288.07113191408297
51
292.1902042545761
0
ARC
10
17.045544429089876
20
15.316772905968087
40
1.2
50
283.9520595735899
51
288.07113191408297
0
ARC
10
17.045544429089876
20
15.316772905968087
40
1.2
50
279.83298723309684
51
283.9520595735899
0
ARC
10
17.045544429089876
20
15.316772905968087
40
1.2
50
275.7139148926037
51
279.83298723309684
0
ARC
10
17.045544429089876
20
15.316772905968087
40
1.2
50
271.59484255211066
51
275.7139148926037
0
ARC
10
17.045544429089876
20
15.316772905968087
40
1.2
50
267.4757702116176
51
271.59484255211066
0
ARC
10
17.045544429089876
20
15.316772905968087
40
1.2
50
263.35669787112454
51
267.4757702116176
0
ARC
10
17.045544429089876
20
15.316772905968087
40
1.2
50
259.2376255306314
51
263.35669787112454
0
ARC
10
17.045544429089876
20
15.316772905968087
40
1.2
50
255.11855319013836
51
259.2376255306314
0
ARC
10
17.045544429089876
20
15.316772905968087
40
1.2
50
250.99948084964527
51
255.11855319013836
0
ARC
10
17.045544429089876
20
15.316772905968087
40
1.2
50
246.88040850915218
51
250.99948084964527
0
ARC
10
17.045544429089876
20
15.316772905968087
40
1.2
50
242.7613361686591
51
246.88040850915218
0
ARC
10
17.045544429089876
20
15.316772905968087
40
1.2
50
238.64226382816602
51
242.7613361686591
0
ARC
10
17.045544429089876
20
15.316772905968087
40
1.2
50
234.52319148767293
51
238.64226382816602
0
ARC
10
17.045544429089876
20
15.316772905968087
40
1.2
50
230.40411914717987
51
234.52319148767293
0
ARC
10
17.045544429089876
20
15.316772905968087
40
1.2
50
226.28504680668678
51
230.40411914717987
0
ARC
10
17.045544429089876
20
15.316772905968087
40
1.2
50
222.1659744661937
51
226.28504680668678
0
ARC
10
17.045544429089876
20
15.316772905968087
40
1.2
50
218.04690212570063
51
222.1659744661937
0
ARC
10
17.045544429089876
20
15.316772905968087
40
1.2
50
213.92782978520754
51
218.04690212570063
0
ARC
10
17.045544429089876
20
15.316772905968087
40
1.2
50
209.80875744471444
51
213.92782978520754
0
ARC
10
17.045544429089876
20
15.316772905968087
40
1.2
50
205.68968510422138
51
209.80875744471444
0
ARC
10
12.938154819659712
20
5.400657204931457
40
1.2
50
465.19124255528556
51
469.3103148957786
0
ARC
10
12.938154819659712
20
5.400657204931457
40
1.2
50
461.07217021479244
51
465.19124255528556
0
ARC
10
12.938154819659712
20
5.400657204931457
40
1.2
50
456.9530978742994
51
461.07217021479244
0
ARC
10
12.938154819659712
20
5.400657204931457
40
1.2
50
452.8340255338063
51
456.9530978742994
0
ARC
10
12.938154819659712
20
5.400657204931457
40
1.2
50
448.7149531933132
51
452.8340255338063
0
ARC
10
12.938154819659712
20
5.400657204931457
40
1.2
50
444.59588085282013
51
448.7149531933132
0
ARC
10
12.938154819659712
20
5.400657204931457
40
1.2
50
440.47680851232707
51
444.59588085282013
0
ARC
10
12.938154819659712
20
5.400657204931457
40
1.2
50
436.35773617183395
51
440.47680851232707
0
ARC
10
12.938154819659712
20
5.400657204931457
40
1.2
50
432.2386638313409
51
436.35773617183395
0
ARC
10
12.938154819659712
20
5.400657204931457
40
1.2
50
428.1195914908478
51
432.2386638313409
0
ARC
10
12.938154819659712
20
5.400657204931457
40
1.2
50
424.0005191503547
51
428.1195914908478
0
ARC
10
12.938154819659712
20
5.400657204931457
40
1.2
50
419.88144680986164
51
424.0005191503547
0
ARC
10
12.938154819659712
20
5.400657204931457
40
1.2
50
415.7623744693685
51
419.88144680986164
0
ARC
10
12.938154819659712
20
5.400657204931457
40
1.2
50
411.64330212887546
51
415.7623744693685
0
ARC
10
12.938154819659712
20
5.400657204931457
40
1.2
50
407.5242297883824
51
411.64330212887546
0
ARC
10
12.938154819659712
20
5.400657204931457
40
1.2
50
403.40515744788934
51
407.5242297883824
0
ARC
10
12.938154819659712
20
5.400657204931457
40
1.2
50
399.2860851073962
51
403.40515744788934
0
ARC
10
12.938154819659712
20
5.400657204931457
40
1.2
50
395.16701276690316
51
399.2860851073962
0
ARC
10
12.938154819659712
20
5.400657204931457
40
1.2
50
391.04794042641004
51
395.16701276690316
0
ARC
10
12.938154819659712
20
5.400657204931457
40
1.2
50
386.928868085917
51
391.04794042641004
0
ARC
10
12.938154819659712
20
5.400657204931457
40
1.2
50
382.8097957454239
51
386.928868085917
0
ARC
10
12.938154819659712
20
5.400657204931457
40
1.2
50
378.69072340493085
51
382.8097957454239
0
ARC
10
12.938154819659712
20
5.400657204931457
40
1.2
50
374.57165106443773
51
378.69072340493085
0
ARC
10
12.938154819659712
20
5.400657204931457
40
1.2
50
370.45257872394467
51
374.57165106443773
0
ARC
10
12.938154819659712
20
5.400657204931457
40
1.2
50
366.33350638345155
51
370.45257872394467
0
ARC
10
12.938154819659712
20
5.400657204931457
40
1.2
50
362.2144340429585
51
366.33350638345155
0
ARC
10
12.938154819659712
20
5.400657204931457
40
1.2
50
358.0953617024654
51
362.2144340429585
0
ARC
10
12.938154819659712
20
5.400657204931457
40
1.2
50
353.97628936197236
51
358.0953617024654
0
ARC
10
12.938154819659712
20
5.400657204931457
40
1.2
50
349.85721702147924
51
353.97628936197236
0
ARC
10
12.938154819659712
20
5.400657204931457
40
1.2
50
345.7381446809862
51
349.85721702147924
0
ARC
10
12.938154819659712
20
5.400657204931457
40
1.2
50
341.61907234049306
51
345.7381446809862
0
ARC
10
12.938154819659712
20
5.400657204931457
40
1.2
50
337.5
51
341.61907234049306
0
ARC
10
10.557227868320616
20
12.195595530802203
40
6.0
50
281.07217021479244
51
289.3103148957786
0
ARC
10
10.557227868320616
20
12.195595530802203
40
6.0
50
272.8340255338063
51
281.07217021479244
0
ARC
10
10.557227868320616
20
12.195595530802203
40
6.0
50
264.59588085282013
51
272.8340255338063
0
ARC
10
10.557227868320616
20
12.195595530802203
40
6.0
50
256.35773617183395
51
264.59588085282013
0
ARC
10
10.557227868320616
20
12.195595530802203
40
6.0
50
248.1195914908478
51
256.35773617183395
0
ARC
10
10.557227868320616
20
12.195595530802203
40
6.0
50
239.88144680986164
51
248.1195914908478
0
ARC
10
10.557227868320616
20
12.195595530802203
40
6.0
50
231.64330212887546
51
239.88144680986164
0
ARC
10
10.557227868320616
20
12.195595530802203
40
6.0
50
223.4051574478893
51
231.64330212887546
0
ARC
10
10.557227868320616
20
12.195595530802203
40
6.0
50
215.16701276690316
51
223.4051574478893
0
ARC
10
10.557227868320616
20
12.195595530802203
40
6.0
50
206.92886808591697
51
215.16701276690316
0
ARC
10
10.557227868320616
20
12.195595530802203
40
6.0
50
198.69072340493082
51
206.92886808591697
0
ARC
10
10.557227868320616
20
12.195595530802203
40
6.0
50
190.45257872394467
51
198.69072340493082
0
ARC
10
10.557227868320616
20
12.195595530802203
40
6.0
50
182.2144340429585
51
190.45257872394467
0
ARC
10
10.557227868320616
20
12.195595530802203
40
6.0
50
173.97628936197233
51
182.2144340429585
0
ARC
10
10.557227868320616
20
12.195595530802203
40
6.0
50
165.73814468098618
51
173.97628936197233
0
ARC
10
10.557227868320616
20
12.195595530802203
40
6.0
50
157.5
51
165.73814468098618
0
ARC
10
10.557227868320616
20
12.195595530802203
40
6.0
50
149.26185531901385
51
157.5
0
ARC
10
10.557227868320616
20
12.195595530802203
40
6.0
50
141.02371063802767
51
149.26185531901385
0
ARC
10
10.557227868320616
20
12.195595530802203
40
6.0
50
132.7855659570415
51
141.02371063802767
0
ARC
10
10.557227868320616
20
12.195595530802203
40
6.0
50
124.54742127605533
51
132.7855659570415
0
ARC
10
10.557227868320616
20
12.195595530802203
40
6.0
50
116.30927659506918
51
124.54742127605533
0
ARC
10
10.557227868320616
20
12.195595530802203
40
6.0
50
108.07113191408303
51
116.30927659506918
0
ARC
10
10.557227868320616
20
12.195595530802203
40
6.0
50
99.83298723309684
51
108.07113191408303
0
ARC
10
10.557227868320616
20
12.195595530802203
40
6.0
50
91.59484255211069
51
99.83298723309684
0
ARC
10
10.557227868320616
20
12.195595530802203
40
6.0
50
83.35669787112454
51
91.59484255211069
0
ARC
10
10.557227868320616
20
12.195595530802203
40
6.0
50
75.11855319013836
51
83.35669787112454
0
ARC
10
10.557227868320616
20
12.195595530802203
40
6.0
50
66.8804085091522
51
75.11855319013836
0
ARC
10
10.557227868320616
20
12.195595530802203
40
6.0
50
58.64226382816605
51
66.8804085091522
0
ARC
10
10.557227868320616
20
12.195595530802203
40
6.0
50
50.40411914717987
51
58.64226382816605
0
ARC
10
10.557227868320616
20
12.195595530802203
40
6.0
50
42.16597446619372
51
50.40411914717987
0
ARC
10
10.557227868320616
20
12.195595530802203
40
6.0
50
33.927829785207535
51
42.16597446619372
0
ARC
10
10.557227868320616
20
12.195595530802203
40
6.0
50
25.689685104221383
51
33.927829785207535
0
LINE
10
14.046810258673254
20
4.941437086093349
11
12.000000000000002
21
0.0
0
LINE
10
12.000000000000002
20
0.0
11
14.046810258673254
21
-4.941437086093349
0
ARC
10
12.938154819659712
20
-5.400657204931457
40
1.2
50
378.38092765950694
51
382.5
0
ARC
10
12.938154819659712
20
-5.400657204931457
40
1.2
50
374.2618553190138
51
378.38092765950694
0
ARC
10
12.938154819659712
20
-5.400657204931457
40
1.2
50
370.14278297852076
51
374.2618553190138
0
ARC
10
12.938154819659712
20
-5.400657204931457
40
1.2
50
366.0237106380277
51
370.14278297852076
0
ARC
10
12.938154819659712
20
-5.400657204931457
40
1.2
50
361.9046382975346
51
366.0237106380277
0
ARC
10
12.938154819659712
20
-5.400657204931457
40
1.2
50
357.7855659570415
51
361.9046382975346
0
ARC
10
12.938154819659712
20
-5.400657204931457
40
1.2
50
353.66649361654845
51
357.7855659570415
0
ARC
10
12.938154819659712
20
-5.400657204931457
40
1.2
50
349.54742127605533
51
353.66649361654845
0
ARC
10
12.938154819659712
20
-5.400657204931457
40
1.2
50
345.42834893556227
51
349.54742127605533
0
ARC
10
12.938154819659712
20
-5.400657204931457
40
1.2
50
341.30927659506915
51
345.42834893556227
0
ARC
10
12.938154819659712
20
-5.400657204931457
40
1.2
50
337.1902042545761
51
341.30927659506915
0
ARC
10
12.938154819659712
20
-5.400657204931457
40
1.2
50
333.071131914083
51
337.1902042545761
0
ARC
10
12.938154819659712
20
-5.400657204931457
40
1.2
50
328.95205957358996
51
333.071131914083
0
ARC
10
12.938154819659712
20
-5.400657204931457
40
1.2
50
324.83298723309684
51
328.95205957358996
0
ARC
10
12.938154819659712
20
-5.400657204931457
40
1.2
50
320.7139148926038
51
324.83298723309684
0
ARC
10
12.938154819659712
20
-5.400657204931457
40
1.2
50
316.59484255211066
51
320.7139148926038
0
ARC
10
12.938154819659712
20
-5.400657204931457
40
1.2
50
312.4757702116176
51
316.59484255211066
0
ARC
10
12.938154819659712
20
-5.400657204931457
40
1.2
50
308.35669787112454
51
312.4757702116176
0
ARC
10
12.938154819659712
20
-5.400657204931457
40
1.2
50
304.2376255306315
51
308.35669787112454
0
ARC
10
12.938154819659712
20
-5.400657204931457
40
1.2
50
300.11855319013836
51
304.2376255306315
0
ARC
10
12.938154819659712
20
-5.400657204931457
40
1.2
50
295.9994808496453
51
300.11855319013836
0
ARC
10
12.938154819659712
20
-5.400657204931457
40
1.2
50
291.8804085091522
51
295.9994808496453
0
ARC
10
12.938154819659712
20
-5.400657204931457
40
1.2
50
287.7613361686591
51
291.8804085091522
0
ARC
10
12.938154819659712
20
-5.400657204931457
40
1.2
50
283.64226382816605
51
287.7613361686591
0
ARC
10
12.938154819659712
20
-5.400657204931457
40
1.2
50
279.523191487673
51
283.64226382816605
0
ARC
10
12.938154819659712
20
-5.400657204931457
40
1.2
50
275.40411914717987
51
279.523191487673
0
ARC
10
12.938154819659712
20
-5.400657204931457
40
1.2
50
271.2850468066868
51
275.40411914717987
0
ARC
10
12.938154819659712
20
-5.400657204931457
40
1.2
50
267.1659744661937
51
271.2850468066868
0
ARC
10
12.938154819659712
20
-5.400657204931457
40
1.2
50
263.0469021257006
51
267.1659744661937
0
ARC
10
12.938154819659712
20
-5.400657204931457
40
1.2
50
258.92782978520756
51
263.0469021257006
0
ARC
10
12.938154819659712
20
-5.400657204931457
40
1.2
50
254.80875744471444
51
258.92782978520756
0
ARC
10
12.938154819659712
20
-5.400657204931457
40
1.2
50
250.68968510422138
51
254.80875744471444
0
ARC
10
17.045544429089876
20
-15.316772905968087
40
1.2
50
150.19124255528553
51
154.31031489577862
0
ARC
10
17.045544429089876
20
-15.316772905968087
40
1.2
50
146.07217021479246
51
150.19124255528553
0
ARC
10
17.045544429089876
20
-15.316772905968087
40
1.2
50
141.95309787429937
51
146.07217021479246
0
ARC
10
17.045544429089876
20
-15.316772905968087
40
1.2
50
137.83402553380628
51
141.95309787429937
0
ARC
10
17.045544429089876
20
-15.316772905968087
40
1.2
50
133.71495319331322
51
137.83402553380628
0
ARC
10
17.045544429089876
20
-15.316772905968087
40
1.2
50
129.59588085282013
51
133.71495319331322
0
ARC
10
17.045544429089876
20
-15.316772905968087
40
1.2
50
125.47680851232705
51
129.59588085282013
0
ARC
10
17.045544429089876
20
-15.316772905968087
40
1.2
50
121.35773617183398
51
125.47680851232705
0
ARC
10
17.045544429089876
20
-15.316772905968087
40
1.2
50
117.23866383134089
51
121.35773617183398
0
ARC
10
17.045544429089876
20
-15.316772905968087
40
1.2
50
113.11959149084781
51
117.23866383134089
0
ARC
10
17.045544429089876
20
-15.316772905968087
40
1.2
50
109.00051915035473
51
113.11959149084781
0
ARC
10
17.045544429089876
20
-15.316772905968087
40
1.2
50
104.88144680986164
51
109.00051915035473
0
ARC
10
17.045544429089876
20
-15.316772905968087
40
1.2
50
100.76237446936857
51
104.88144680986164
0
ARC
10
17.045544429089876
20
-15.316772905968087
40
1.2
50
96.64330212887549
51
100.76237446936857
0
ARC
10
17.045544429089876
20
-15.316772905968087
40
1.2
50
92.5242297883824
51
96.64330212887549
0
ARC
10
17.045544429089876
20
-15.316772905968087
40
1.2
50
88.40515744788932
51
92.5242297883824
0
ARC
10
17.045544429089876
20
-15.316772905968087
40
1.2
50
84.28608510739625
51
88.40515744788932
0
ARC
10
17.045544429089876
20
-15.316772905968087
40
1.2
50
80.16701276690316
51
84.28608510739625
0
ARC
10
17.045544429089876
20
-15.316772905968087
40
1.2
50
76.04794042641008
51
80.16701276690316
0
ARC
10
17.045544429089876
20
-15.316772905968087
40
1.2
50
71.928868085917
51
76.04794042641008
0
ARC
10
17.045544429089876
20
-15.316772905968087
40
1.2
50
67.80979574542391
51
71.928868085917
0
ARC
10
17.045544429089876
20
-15.316772905968087
40
1.2
50
63.690723404930836
51
67.80979574542391
0
ARC
10
17.045544429089876
20
-15.316772905968087
40
1.2
50
59.57165106443776
51
63.690723404930836
0
ARC
10
17.045544429089876
20
-15.316772905968087
40
1.2
50
55.45257872394467
51
59.57165106443776
0
ARC
10
17.045544429089876
20
-15.316772905968087
40
1.2
50
51.33350638345159
51
55.45257872394467
0
ARC
10
17.045544429089876
20
-15.316772905968087
40
1.2
50
47.214434042958516
51
51.33350638345159
0
ARC
10
17.045544429089876
20
-15.316772905968087
40
1.2
50
43.09536170246544
51
47.214434042958516
0
ARC
10
17.045544429089876
20
-15.316772905968087
40
1.2
50
38.97628936197235
51
43.09536170246544
0
ARC
10
17.045544429089876
20
-15.316772905968087
40
1.2
50
34.85721702147927
51
38.97628936197235
0
ARC
10
17.045544429089876
20
-15.316772905968087
40
1.2
50
30.738144680986196
51
34.85721702147927
0
ARC
10
17.045544429089876
20
-15.316772905968087
40
1.2
50
26.619072340493105
51
30.738144680986196
0
ARC
10
17.045544429089876
20
-15.316772905968087
40
1.2
50
22.50000000000003
51
26.619072340493105
0
ARC
10
10.557227868320616
20
-12.195595530802203
40
6.0
50
326.07217021479244
51
334.3103148957786
0
ARC
10
10.557227868320616
20
-12.195595530802203
40
6.0
50
317.8340255338063
51
326.07217021479244
0
ARC
10
10.557227868320616
20
-12.195595530802203
40
6.0
50
309.59588085282013
51
317.8340255338063
0
ARC
10
10.557227868320616
20
-12.195595530802203
40
6.0
50
301.35773617183395
51
309.59588085282013
0
ARC
10
10.557227868320616
20
-12.195595530802203
40
6.0
50
293.1195914908478
51
301.35773617183395
0
ARC
10
10.557227868320616
20
-12.195595530802203
40
6.0
50
284.88144680986164
51
293.1195914908478
0
ARC
10
10.557227868320616
20
-12.195595530802203
40
6.0
50
276.64330212887546
51
284.88144680986164
0
ARC
10
10.557227868320616
20
-12.195595530802203
40
6.0
50
268.40515744788934
51
276.64330212887546
0
ARC
10
10.557227868320616
20
-12.195595530802203
40
6.0
50
260.16701276690316
51
268.40515744788934
0
ARC
10
10.557227868320616
20
-12.195595530802203
40
6.0
50
251.92886808591697
51
260.16701276690316
0
ARC
10
10.557227868320616
20
-12.195595530802203
40
6.0
50
243.69072340493082
51
251.92886808591697
0
ARC
10
10.557227868320616
20
-12.195595530802203
40
6.0
50
235.45257872394467
51
243.69072340493082
0
ARC
10
10.557227868320616
20
-12.195595530802203
40
6.0
50
227.2144340429585
51
235.45257872394467
0
ARC
10
10.557227868320616
20
-12.195595530802203
40
6.0
50
218.97628936197233
51
227.2144340429585
0
ARC
10
10.557227868320616
20
-12.195595530802203
40
6.0
50
210.73814468098618
51
218.97628936197233
0
ARC
10
10.557227868320616
20
-12.195595530802203
40
6.0
50
202.5
51
210.73814468098618
0
ARC
10
10.557227868320616
20
-12.195595530802203
40
6.0
50
194.26185531901385
51
202.5
0
ARC
10
10.557227868320616
20
-12.195595530802203
40
6.0
50
186.02371063802767
51
194.26185531901385
0
ARC
10
10.557227868320616
20
-12.195595530802203
40
6.0
50
177.7855659570415
51
186.02371063802767
0
ARC
10
10.557227868320616
20
-12.195595530802203
40
6.0
50
169.54742127605533
51
177.7855659570415
0
ARC
10
10.557227868320616
20
-12.195595530802203
40
6.0
50
161.30927659506918
51
169.54742127605533
0
ARC
10
10.557227868320616
20
-12.195595530802203
40
6.0
50
153.07113191408303
51
161.30927659506918
0
ARC
10
10.557227868320616
20
-12.195595530802203
40
6.0
50
144.83298723309684
51
153.07113191408303
0
ARC
10
10.557227868320616
20
-12.195595530802203
40
6.0
50
136.5948425521107
51
144.83298723309684
0
ARC
10
10.557227868320616
20
-12.195595530802203
40
6.0
50
128.35669787112454
51
136.5948425521107
0
ARC
10
10.557227868320616
20
-12.195595530802203
40
6.0
50
120.11855319013836
51
128.35669787112454
0
ARC
10
10.557227868320616
20
-12.195595530802203
40
6.0
50
111.8804085091522
51
120.11855319013836
0
ARC
10
10.557227868320616
20
-12.195595530802203
40
6.0
50
103.64226382816605
51
111.8804085091522
0
ARC
10
10.557227868320616
20
-12.195595530802203
40
6.0
50
95.40411914717987
51
103.64226382816605
0
ARC
10
10.557227868320616
20
-12.195595530802203
40
6.0
50
87.16597446619372
51
95.40411914717987
0
ARC
10
10.557227868320616
20
-12.195595530802203
40
6.0
50
78.92782978520754
51
87.16597446619372
0
ARC
10
10.557227868320616
20
-12.195595530802203
40
6.0
50
70.68968510422138
51
78.92782978520754
0
LINE
10
18.15419986810342
20
-14.857552787129977
11
20.201010126776673
21
-19.798989873223327
0
LINE
10
20.201010126776673
20
-19.798989873223327
11
40
21
0
0
ENDSEC
0
EOF
