0
SECTION
2
ENTITIES
0
LWPOLYLINE
90
150
70
1
10
0.0
20
40.0
11
0.0
21
40.0
10
-20.201010126776673
20
19.798989873223327
11
-20.201010126776673
21
19.798989873223327
10
-18.15419986810342
20
14.857552787129977
11
-18.15419986810342
21
14.857552787129977
10
-17.90190892795403
20
14.476154178431548
10
-17.525257438688726
20
14.216829530870251
10
-17.078942420200892
20
14.117237756758296
10
-16.62777737287669
20
14.191841491728546
10
-16.23728011430613
20
14.429806842667372
10
-15.964158335628333
20
14.796576676773771
10
-15.732458447610998
20
15.23154488004665
10
-15.465842691143044
20
15.646030361539916
10
-15.16610984997663
20
16.03723670081881
10
-14.835282139797062
20
16.40252453546845
10
-14.475591564885397
20
16.739429368151807
10
-14.089464859394658
20
17.04567819390066
10
-13.67950711483674
20
17.31920483545988
10
-13.248484204240867
20
17.55816388322151
10
-12.799304121563058
20
17.760943145699798
10
-12.334997362244454
20
17.926174526547207
10
-11.858696477285587
20
18.05274325472712
10
-11.373614938779593
20
18.139795405569828
10
-10.883025459492952
20
18.186743661969246
10
-10.390237912765524
20
18.193271276851146
10
-9.898577001698364
20
18.159334210179242
10
-9.411359828289175
20
18.085161426081292
10
-8.931873513850327
20
17.971253348090595
10
-8.4633530216984
20
17.81837848292501
10
-8.008959331739455
20
17.627568235581798
10
-7.571758114200222
20
17.400109950729615
10
-7.154699046387671
20
17.137538227345303
10
-6.760595912021149
20
16.84162456519337
10
-6.392107617401484
20
16.514365413000537
10
-6.0517202524957625
20
16.15796869896094
10
-5.7417303179667485
20
15.774838934447164
10
-5.464229231309607
20
15.367560991428167
10
-5.2210892166287834
20
14.938882663043476
10
-5.01395067325289
20
14.491696124992746
10
-4.84421110840808
20
14.029018422815543
10
-4.71301570861816
20
13.553971116708407
10
-4.6212496134436165
20
13.069759221210063
10
-4.56953194368656
20
12.579649581842926
10
-4.558211624351612
20
12.08694883459787
10
-4.587365030544129
20
11.594981096963524
10
-4.656795472188195
20
11.107065541012709
10
-4.766034521040904
20
10.626493999854226
10
-4.9143451710498685
20
10.156508758533182
10
-5.100726810731951
20
9.700280679218567
10
-5.323921974025873
20
9.260887808261513
10
-5.582424824072579
20
8.841294609456511
10
-5.87449131268561
20
8.444331963613184
10
-6.198150946968273
20
8.072678069375954
10
-6.551220083691486
20
7.728840374148675
10
-6.931316661738759
20
7.415138657031225
10
-7.335876273222503
20
7.133689377902988
10
-7.762169464844247
20
6.886391398245591
10
-8.2073201527712
20
6.674913170042673
10
-8.668325026789017
20
6.500681479189664
10
-9.14207381281625
20
6.364871819358688
10
-9.625370257074806
20
6.268400461263548
10
-10.11495369034196
20
6.211918270831259
10
-10.607521026795805
20
6.195806317987249
10
-11.099749049033909
20
6.220173305680571
10
-11.588316828914262
20
6.2848548364947625
10
-12.069928132951194
20
6.389414521792349
10
-12.541333661103199
20
6.533146925909907
10
-12.9938053597273
20
6.599366100948412
10
-13.438195532633578
20
6.491509754714693
10
-13.809970203930177
20
6.225240697216705
10
-14.055140561223363
20
5.839226302273598
10
-14.138103166607465
20
5.389523263250686
10
-14.046810258673254
20
4.941437086093349
10
-12.000000000000002
20
0.0
11
-12.000000000000002
21
0.0
10
12.000000000000002
20
0.0
11
12.000000000000002
21
0.0
10
14.046810258673254
20
4.941437086093349
11
14.046810258673254
21
4.941437086093349
10
14.138103166607465
20
5.389523263250686
10
14.055140561223363
20
5.839226302273598
10
13.809970203930177
20
6.225240697216705
10
13.438195532633578
20
6.491509754714693
10
12.9938053597273
20
6.599366100948412
10
12.541333661103195
20
6.533146925909915
10
12.069928132951194
20
6.389414521792357
10
11.588316828914262
20
6.284854836494769
10
11.09974904903391
20
6.220173305680579
10
10.607521026795805
20
6.195806317987255
10
10.114953690341961
20
6.211918270831265
10
9.625370257074808
20
6.268400461263553
10
9.142073812816253
20
6.364871819358694
10
8.66832502678902
20
6.500681479189669
10
8.207320152771203
20
6.674913170042679
10
7.76216946484425
20
6.8863913982455935
10
7.3358762732225085
20
7.133689377902992
10
6.931316661738763
20
7.415138657031228
10
6.55122008369149
20
7.728840374148678
10
6.198150946968277
20
8.072678069375957
10
5.874491312685615
20
8.444331963613186
10
5.582424824072582
20
8.841294609456513
10
5.323921974025875
20
9.260887808261513
10
5.100726810731953
20
9.700280679218569
10
4.914345171049872
20
10.15650875853318
10
4.766034521040908
20
10.626493999854226
10
4.6567954721882
20
11.107065541012709
10
4.587365030544133
20
11.594981096963524
10
4.558211624351616
20
12.08694883459787
10
4.569531943686562
20
12.579649581842926
10
4.621249613443618
20
13.06975922121006
10
4.713015708618161
20
13.553971116708405
10
4.844211108408082
20
14.02901842281554
10
5.013950673252891
20
14.491696124992743
10
5.2210892166287834
20
14.938882663043474
10
5.4642292313096075
20
15.367560991428162
10
5.7417303179667485
20
15.774838934447164
10
6.051720252495762
20
16.15796869896094
10
6.392107617401482
20
16.514365413000537
10
6.760595912021148
20
16.84162456519337
10
7.15469904638767
20
17.137538227345303
10
7.57175811420022
20
17.400109950729615
10
8.008959331739451
20
17.627568235581798
10
8.463353021698396
20
17.81837848292501
10
8.931873513850327
20
17.9712533480906
10
9.411359828289173
20
18.085161426081292
10
9.898577001698364
20
18.159334210179246
10
10.390237912765524
20
18.19327127685115
10
10.88302545949295
20
18.186743661969246
10
11.373614938779593
20
18.13979540556983
10
11.858696477285584
20
18.052743254727122
10
12.334997362244454
20
17.92617452654721
10
12.799304121563058
20
17.760943145699805
10
13.248484204240867
20
17.558163883221518
10
13.679507114836742
20
17.319204835459885
10
14.08946485939466
20
17.045678193900663
10
14.475591564885399
20
16.73942936815181
10
14.835282139797064
20
16.40252453546846
10
15.166109849976635
20
16.037236700818813
10
15.465842691143045
20
15.646030361539918
10
15.732458447611
20
15.231544880046656
10
15.964158335628337
20
14.796576676773777
10
16.23728011430613
20
14.429806842667372
10
16.627777372876693
20
14.191841491728546
10
17.078942420200892
20
14.117237756758298
10
17.525257438688726
20
14.216829530870251
10
17.90190892795403
20
14.476154178431548
10
18.15419986810342
20
14.857552787129977
10
20.201010126776673
20
19.798989873223327
11
20.201010126776673
21
19.798989873223327
0
ENDSEC
0
EOF
