0
SECTION
2
ENTITIES
0
LWPOLYLINE
90
148
70
1
10
20.201010126776673
20
19.798989873223327
11
20.201010126776673
21
19.798989873223327
10
18.15419986810342
20
14.857552787129977
11
18.15419986810342
21
14.857552787129977
10
17.88088468294158
20
14.444370961040011
10
17.472845569570833
20
14.163435926181942
10
16.98933763287568
20
14.055544837560657
10
16.500575498274465
20
14.136365550445094
10
16.07753680148969
20
14.394161347295489
10
15.781654874588739
20
14.79149533424409
10
15.553816651371694
20
15.219214067462419
10
15.29164449084487
20
15.626791457597463
10
14.996907197031234
20
16.01147769122171
10
14.671593282021325
20
16.370677395293857
10
14.317897550024854
20
16.701967147432487
10
13.938206289625628
20
17.00311182608553
10
13.535081174143675
20
17.27207969028543
10
13.1112419787244
20
17.50705608725103
10
12.669548230757888
20
17.70645569535468
10
12.21297991742793
20
17.868933219854632
10
11.744617380551707
20
17.993392469231544
10
11.267620534354148
20
18.07899375089354
10
10.785207546388953
20
18.125159536352967
10
10.300633125440315
20
18.131578357653506
10
9.817166562890943
20
18.09820690875947
10
9.338069675705238
20
18.025270337729815
10
8.866574799840373
20
17.91326072770563
10
8.405862982557643
20
17.762933776959468
10
7.9590425207646796
20
17.575303700405314
10
7.529127990184437
20
17.351636386967336
10
7.119019906835428
20
17.093440858972755
10
6.731485158041681
20
16.802459091190027
10
6.36913833499901
20
16.48065425820041
10
6.034424092841718
20
16.130197489394803
10
5.729600657221521
20
15.753453220956256
10
5.456724588675331
20
15.35296324365424
10
5.217636907572523
20
14.931429554075963
10
5.013950673252894
20
14.491696124992748
10
4.847040101155499
20
14.03672971785183
10
4.718031291362075
20
13.569599866846481
10
4.6277946311071085
20
13.093458169606443
10
4.576938922512667
20
12.61151702422876
10
4.5658072751666365
20
12.127027956104452
10
4.594474791255944
20
11.643259680764013
10
4.662748058872611
20
11.163476050745713
10
4.770166456911106
20
10.690914035273204
10
4.916005262753255
20
10.228761881307511
10
5.099280541773968
20
9.780137603314806
10
5.318755785679656
20
9.348067946873703
10
5.572950254892253
20
8.935467968048785
10
5.860148968695067
20
8.545121366302846
10
6.178414275739684
20
8.179661703636238
10
6.525598926850842
20
7.841554636662746
10
6.899360561930661
20
7.533081281497253
10
7.29717751322301
20
7.256322823687821
10
7.716365818317724
20
7.013146477024712
10
8.15409732811256
20
6.805192885958511
10
8.607418787563413
20
6.633865056619719
10
9.073271760490194
20
6.500318891119258
10
9.548513264011104
20
6.405455388992371
10
10.029936973390472
20
6.349914568400619
10
10.514294854236754
20
6.334071148104009
10
10.998319076104224
20
6.358032019335776
10
11.478744059653236
20
6.421635524636398
10
11.952328508622884
20
6.5244525485123575
10
12.415877277972353
20
6.665789412561288
10
12.906054951481803
20
6.737526852186334
10
13.387477638796938
20
6.620682477099805
10
13.790233532701588
20
6.3322243314769855
10
14.055834753102536
20
5.914042070288619
10
14.145710908935316
20
5.426863778013797
10
14.046810258673254
20
4.941437086093349
10
12.000000000000002
20
0.0
11
12.000000000000002
21
0.0
10
14.046810258673254
20
-4.941437086093349
11
14.046810258673254
21
-4.941437086093349
10
14.145710908935316
20
-5.426863778013798
10
14.055834753102536
20
-5.91404207028862
10
13.790233532701588
20
-6.332224331476986
10
13.387477638796938
20
-6.620682477099805
10
12.906054951481803
20
-6.737526852186335
10
12.415877277972356
20
-6.6657894125612955
10
11.952328508622884
20
-6.524452548512364
10
11.478744059653238
20
-6.421635524636403
10
10.998319076104226
20
-6.358032019335782
10
10.514294854236756
20
-6.334071148104016
10
10.029936973390477
20
-6.349914568400623
10
9.548513264011108
20
-6.405455388992375
10
9.073271760490197
20
-6.500318891119264
10
8.607418787563418
20
-6.633865056619722
10
8.154097328112563
20
-6.805192885958515
10
7.716365818317729
20
-7.013146477024714
10
7.297177513223014
20
-7.256322823687822
10
6.899360561930666
20
-7.533081281497256
10
6.525598926850847
20
-7.841554636662746
10
6.178414275739687
20
-8.179661703636238
10
5.860148968695071
20
-8.545121366302846
10
5.572950254892257
20
-8.935467968048785
10
5.318755785679661
20
-9.348067946873702
10
5.099280541773973
20
-9.780137603314806
10
4.9160052627532576
20
-10.22876188130751
10
4.7701664569111095
20
-10.690914035273202
10
4.662748058872613
20
-11.16347605074571
10
4.594474791255948
20
-11.643259680764011
10
4.565807275166639
20
-12.12702795610445
10
4.57693892251267
20
-12.611517024228757
10
4.627794631107109
20
-13.09345816960644
10
4.718031291362075
20
-13.569599866846477
10
4.847040101155499
20
-14.036729717851825
10
5.013950673252894
20
-14.491696124992743
10
5.217636907572522
20
-14.931429554075958
10
5.45672458867533
20
-15.352963243654239
10
5.7296006572215195
20
-15.753453220956256
10
6.034424092841714
20
-16.130197489394803
10
6.369138334999008
20
-16.480654258200403
10
6.731485158041678
20
-16.802459091190027
10
7.119019906835424
20
-17.093440858972755
10
7.529127990184432
20
-17.351636386967332
10
7.959042520764676
20
-17.575303700405314
10
8.40586298255764
20
-17.76293377695947
10
8.86657479984037
20
-17.91326072770563
10
9.338069675705235
20
-18.025270337729815
10
9.81716656289094
20
-18.09820690875947
10
10.300633125440314
20
-18.13157835765351
10
10.785207546388948
20
-18.125159536352974
10
11.267620534354146
20
-18.078993750893545
10
11.744617380551706
20
-17.99339246923155
10
12.212979917427928
20
-17.868933219854636
10
12.669548230757886
20
-17.706455695354684
10
13.111241978724399
20
-17.507056087251037
10
13.535081174143675
20
-17.272079690285434
10
13.93820628962563
20
-17.003111826085533
10
14.317897550024854
20
-16.70196714743249
10
14.671593282021327
20
-16.370677395293864
10
14.996907197031234
20
-16.011477691221714
10
15.291644490844876
20
-15.626791457597466
10
15.553816651371697
20
-15.219214067462426
10
15.781654874588744
20
-14.791495334244097
10
16.077536801489693
20
-14.394161347295489
10
16.500575498274465
20
-14.136365550445095
10
16.98933763287568
20
-14.055544837560658
10
17.472845569570833
20
-14.163435926181942
10
17.880884682941577
20
-14.444370961040015
10
18.15419986810342
20
-14.857552787129977
10
20.201010126776673
20
-19.798989873223327
11
20.201010126776673
21
-19.798989873223327
10
40
20
0
11
40
21
0
0
ENDSEC
0
EOF
