0
SECTION
2
ENTITIES
0
LWPOLYLINE
90
154
70
1
10
0.0
20
40.0
11
0.0
21
40.0
10
-20.201010126776673
20
19.798989873223327
11
-20.201010126776673
21
19.798989873223327
10
-18.15419986810342
20
14.857552787129977
11
-18.15419986810342
21
14.857552787129977
10
-17.922933172966477
20
14.507937395823083
10
-17.57766930780662
20
14.270223135558561
10
-17.168547207526103
20
14.178930675955936
10
-16.754979247478918
20
14.247317433011997
10
-16.39702342712257
20
14.465452338039256
10
-16.14666179666792
20
14.801658019303456
10
-15.919823794171243
20
15.228956710400226
10
-15.659837776799632
20
15.636935780403753
10
-15.3683389780042
20
16.023029164302667
10
-15.04716083710437
20
16.384808451434786
10
-14.698323467508828
20
16.719998159456022
10
-14.324020950812923
20
17.02649004643642
10
-13.926607536688707
20
17.30235637106454
10
-13.508582835366244
20
17.545862017557518
10
-13.07257609584094
20
17.755475409014764
10
-12.621329668692221
20
17.92987814057368
10
-12.157681757527449
20
18.067973271777646
10
-11.684548567539274
20
18.168892225999876
10
-11.204905963456579
20
18.232000253527808
10
-10.721770752255
20
18.25690042394692
10
-10.238181708353073
20
18.24343612271301
10
-9.757180460639827
20
18.191692036210362
10
-9.281792361548584
20
18.101993619099957
10
-8.815007458504798
20
17.974905047308088
10
-8.359761687431664
20
17.811225669530298
10
-7.918918406600763
20
17.61198497956978
10
-7.495250386974166
20
17.37843614113256
10
-7.09142237231334
20
17.112048105806664
10
-6.709974318746483
20
16.814496373800697
10
-6.353305419212354
20
16.487652455554066
10
-6.0236590132620025
20
16.13357210050212
10
-5.723108477131188
20
15.754482367033678
10
-5.453544182830682
20
15.352767614967032
10
-5.216661608277802
20
14.930954508647545
10
-5.01395067325289
20
14.49169612499275
10
-4.846686368254323
20
14.037755266440623
10
-4.71592073519372
20
13.571987083757481
10
-4.622476250370373
20
13.097321118002831
10
-4.566940651343985
20
12.616742874601742
10
-4.549663240243079
20
12.133275045418303
10
-4.5707526867602315
20
11.649958496937604
10
-4.63007634465254
20
11.169833144134847
10
-4.727261086046408
20
10.695918830329171
10
-4.86169564829905
20
10.231196333282131
10
-5.0325344786557356
20
9.778588617006706
10
-5.238703052520974
20
9.340942447207324
10
-5.478904631893395
20
8.921010485984208
10
-5.751628421455727
20
8.521433978420944
10
-6.055159071020628
20
8.144726139951386
10
-6.387587464564763
20
7.793256348994378
10
-6.746822727991448
20
7.469235244279799
10
-7.130605380096606
20
7.1747008205992575
10
-7.536521544022461
20
6.911505610434987
10
-7.9620181298132175
20
6.681305032090568
10
-8.404418892579047
20
6.485546977610271
10
-8.860941265267355
20
6.325462705975822
10
-9.328713860168348
20
6.202059098859621
10
-9.804794529075634
20
6.1161123276434415
10
-10.286188868509004
20
6.068162971535076
10
-10.769869053607044
20
6.058512617488545
10
-11.25279288223016
20
6.08722196331334
10
-11.73192290949233
20
6.154110435903538
10
-12.204245552371155
20
6.2587573269880625
10
-12.666790044234034
20
6.40050443925851
10
-13.081555767972795
20
6.4612053497104895
10
-13.488913426470218
20
6.36233703232958
10
-13.829706875158767
20
6.118257062956426
10
-14.054446369344184
20
5.764410534258577
10
-14.130495424279612
20
5.352182748487575
10
-14.046810258673254
20
4.94143708609335
10
-12.000000000000002
20
0.0
11
-12.000000000000002
21
0.0
10
12.000000000000002
20
0.0
11
12.000000000000002
21
0.0
10
14.046810258673254
20
4.941437086093349
11
14.046810258673254
21
4.941437086093349
10
14.130495424279614
20
5.352182748487575
10
14.054446369344188
20
5.764410534258577
10
13.829706875158767
20
6.1182570629564275
10
13.488913426470218
20
6.362337032329581
10
13.081555767972795
20
6.46120534971049
10
12.666790044234034
20
6.400504439258535
10
12.204245552371159
20
6.258757326988085
10
11.731922909492333
20
6.1541104359035605
10
11.252792882230164
20
6.087221963313361
10
10.769869053607051
20
6.0585126174885655
10
10.286188868509011
20
6.068162971535095
10
9.804794529075645
20
6.11611232764346
10
9.328713860168358
20
6.202059098859638
10
8.860941265267368
20
6.325462705975838
10
8.40441889257906
20
6.485546977610285
10
7.962018129813232
20
6.681305032090581
10
7.5365215440224755
20
6.911505610434999
10
7.130605380096621
20
7.174700820599268
10
6.7468227279914625
20
7.469235244279807
10
6.387587464564778
20
7.793256348994385
10
6.055159071020643
20
8.144726139951393
10
5.751628421455743
20
8.521433978420948
10
5.47890463189341
20
8.921010485984212
10
5.2387030525209894
20
9.340942447207325
10
5.032534478655749
20
9.778588617006704
10
4.861695648299065
20
10.231196333282131
10
4.72726108604642
20
10.69591883032917
10
4.630076344652552
20
11.169833144134845
10
4.570752686760243
20
11.6499584969376
10
4.54966324024309
20
12.1332750454183
10
4.566940651343994
20
12.616742874601737
10
4.622476250370382
20
13.097321118002828
10
4.715920735193725
20
13.571987083757476
10
4.846686368254328
20
14.037755266440616
10
5.0139506732528965
20
14.491696124992743
10
5.216661608277806
20
14.930954508647538
10
5.453544182830685
20
15.352767614967025
10
5.72310847713119
20
15.75448236703367
10
6.023659013262003
20
16.133572100502114
10
6.353305419212355
20
16.48765245555406
10
6.709974318746483
20
16.81449637380069
10
7.09142237231334
20
17.112048105806657
10
7.495250386974166
20
17.378436141132557
10
7.9189184066007625
20
17.611984979569776
10
8.359761687431662
20
17.811225669530295
10
8.815007458504795
20
17.974905047308084
10
9.281792361548582
20
18.101993619099957
10
9.757180460639823
20
18.191692036210362
10
10.238181708353071
20
18.24343612271301
10
10.721770752254997
20
18.25690042394692
10
11.204905963456577
20
18.23200025352781
10
11.684548567539272
20
18.168892225999876
10
12.157681757527447
20
18.067973271777646
10
12.62132966869222
20
17.929878140573685
10
13.072576095840937
20
17.75547540901477
10
13.508582835366242
20
17.54586201755752
10
13.926607536688705
20
17.302356371064548
10
14.324020950812923
20
17.026490046436425
10
14.698323467508832
20
16.719998159456026
10
15.04716083710437
20
16.38480845143479
10
15.368338978004203
20
16.02302916430267
10
15.659837776799638
20
15.636935780403757
10
15.91982379417125
20
15.22895671040023
10
16.146661796667928
20
14.801658019303458
10
16.397023427122573
20
14.465452338039256
10
16.754979247478918
20
14.247317433011998
10
17.168547207526103
20
14.17893067595594
10
17.577669307806616
20
14.270223135558563
10
17.922933172966477
20
14.507937395823085
10
18.15419986810342
20
14.857552787129977
10
20.201010126776673
20
19.798989873223327
11
20.201010126776673
21
19.798989873223327
0
ENDSEC
0
EOF
