0
SECTION
2
ENTITIES
0
LWPOLYLINE
90
148
70
1
10
20.201010126776673
20
19.798989873223327
11
20.201010126776673
21
19.798989873223327
10
18.15419986810342
20
14.857552787129977
11
18.15419986810342
21
14.857552787129977
10
17.891396805447805
20
14.46026256973578
10
17.49905150412978
20
14.190132728526097
10
17.034140026538292
20
14.086391297159476
10
16.56417643557558
20
14.164103521086819
10
16.157408457897912
20
14.41198409498143
10
15.87290660510854
20
14.794036005508929
10
15.643137549491346
20
15.225379473754533
10
15.37874359099396
20
15.636410909568689
10
15.081508523503935
20
16.024357196020254
10
14.753437710909196
20
16.386600965381152
10
14.396744557455127
20
16.720698257792144
10
14.013835574510146
20
17.024395009993093
10
13.60729414449021
20
17.295642262872654
10
13.179863091482638
20
17.53260998523627
10
12.734426176160476
20
17.733699420527238
10
12.273988639836196
20
17.897553873200916
10
11.80165692891865
20
18.023067861979328
10
11.320617736566874
20
18.109394578231683
10
10.834116502940956
20
18.155951599161106
10
10.345435519102924
20
18.162424817252326
10
9.857871782294657
20
18.128770559469352
10
9.37471475199721
20
18.05521588190555
10
8.899224156845355
20
17.942257037898113
10
8.434608002128027
20
17.790656129942235
10
7.984000926252071
20
17.601435967993556
10
7.550443052192333
20
17.37587316884847
10
7.136859476611555
20
17.11548954315903
10
6.746040535031419
20
16.822041828191697
10
6.380622976200252
20
16.49750983560047
10
6.043072172668744
20
16.14408309417787
10
5.735665487594139
20
15.76414607770171
10
5.460476909992473
20
15.3602621175412
10
5.219363062100658
20
14.93515610855972
10
5.013950673252897
20
14.491696124992748
10
4.8456256047817945
20
14.032874070333685
10
4.715523499990121
20
13.561785491777446
10
4.6245221222753665
20
13.081608695408253
10
4.573235433099619
20
12.595583303035845
10
4.562009449759129
20
12.106988395351163
10
4.590919910900041
20
11.61912038886377
10
4.659771765530407
20
11.135270795879213
10
4.768100488976009
20
10.658704017563716
10
4.915175216901565
20
10.192635319920347
10
5.100003676252961
20
9.74020914126669
10
5.321338879852766
20
9.30447787756761
10
5.577687539482417
20
8.888381288752651
10
5.867320140690342
20
8.494726664958016
10
6.188282611353979
20
8.126169886506098
10
6.538409505271165
20
7.785197505405712
10
6.91533861183471
20
7.4741099692642425
10
7.316526893222758
20
7.195006100795407
10
7.739267641580986
20
6.949768937635152
10
8.18070874044188
20
6.740053028000594
10
8.637871907176216
20
6.567273267904693
10
9.107672786653222
20
6.432595355238975
10
9.586941760542954
20
6.336927925127959
10
10.072445331866216
20
6.28091641961594
10
10.560907940516277
20
6.264938733045629
10
11.049034062569065
20
6.289102662508174
10
11.533530444283748
20
6.35324518056558
10
12.011128320787037
20
6.456933535152353
10
12.478605469537774
20
6.599468169235597
10
12.94993015560455
20
6.668446476567373
10
13.41283658571526
20
6.556096115907248
10
13.800101868315885
20
6.278732514346847
10
14.055487657162951
20
5.876634186281109
10
14.141907037771393
20
5.408193520632243
10
14.046810258673254
20
4.941437086093349
10
12.000000000000002
20
0.0
11
12.000000000000002
21
0.0
10
14.046810258673254
20
-4.941437086093349
11
14.046810258673254
21
-4.941437086093349
10
14.141907037771391
20
-5.408193520632242
10
14.055487657162951
20
-5.876634186281109
10
13.800101868315885
20
-6.278732514346846
10
13.41283658571526
20
-6.556096115907248
10
12.94993015560455
20
-6.6684464765673725
10
12.478605469537776
20
-6.599468169235605
10
12.011128320787039
20
-6.456933535152361
10
11.53353044428375
20
-6.353245180565587
10
11.04903406256907
20
-6.2891026625081805
10
10.560907940516282
20
-6.2649387330456365
10
10.07244533186622
20
-6.280916419615945
10
9.586941760542958
20
-6.3369279251279655
10
9.107672786653225
20
-6.432595355238979
10
8.637871907176219
20
-6.567273267904696
10
8.180708740441885
20
-6.740053028000598
10
7.739267641580991
20
-6.949768937635154
10
7.316526893222763
20
-7.195006100795407
10
6.915338611834717
20
-7.4741099692642425
10
6.53840950527117
20
-7.785197505405712
10
6.188282611353985
20
-8.126169886506098
10
5.867320140690345
20
-8.494726664958016
10
5.577687539482423
20
-8.888381288752651
10
5.321338879852772
20
-9.304477877567606
10
5.100003676252967
20
-9.740209141266687
10
4.9151752169015674
20
-10.192635319920345
10
4.76810048897601
20
-10.658704017563714
10
4.659771765530411
20
-11.135270795879208
10
4.590919910900045
20
-11.619120388863767
10
4.562009449759131
20
-12.10698839535116
10
4.573235433099619
20
-12.59558330303584
10
4.624522122275367
20
-13.08160869540825
10
4.715523499990121
20
-13.56178549177744
10
4.845625604781794
20
-14.03287407033368
10
5.0139506732528965
20
-14.49169612499274
10
5.219363062100656
20
-14.935156108559715
10
5.460476909992472
20
-15.360262117541199
10
5.735665487594137
20
-15.764146077701708
10
6.043072172668742
20
-16.14408309417787
10
6.380622976200248
20
-16.497509835600468
10
6.746040535031415
20
-16.822041828191697
10
7.13685947661155
20
-17.11548954315903
10
7.550443052192329
20
-17.37587316884847
10
7.984000926252066
20
-17.601435967993556
10
8.434608002128021
20
-17.79065612994224
10
8.89922415684535
20
-17.942257037898113
10
9.374714751997207
20
-18.05521588190555
10
9.857871782294653
20
-18.128770559469352
10
10.345435519102919
20
-18.162424817252326
10
10.834116502940951
20
-18.15595159916111
10
11.32061773656687
20
-18.109394578231687
10
11.801656928918646
20
-18.02306786197933
10
12.273988639836194
20
-17.89755387320092
10
12.734426176160474
20
-17.733699420527245
10
13.179863091482636
20
-17.532609985236274
10
13.607294144490208
20
-17.295642262872658
10
14.013835574510145
20
-17.024395009993096
10
14.396744557455126
20
-16.72069825779215
10
14.753437710909196
20
-16.38660096538116
10
15.081508523503935
20
-16.02435719602026
10
15.37874359099396
20
-15.636410909568692
10
15.643137549491348
20
-15.22537947375454
10
15.872906605108543
20
-14.794036005508936
10
16.157408457897912
20
-14.41198409498143
10
16.56417643557558
20
-14.164103521086819
10
17.034140026538292
20
-14.086391297159476
10
17.499051504129785
20
-14.190132728526097
10
17.891396805447805
20
-14.46026256973578
10
18.154199868103422
20
-14.857552787129977
10
20.201010126776673
20
-19.798989873223327
11
20.201010126776673
21
-19.798989873223327
10
40
20
0
11
40
21
0
0
ENDSEC
0
EOF
