0
SECTION
2
ENTITIES
0
LINE
10
20.201010126776673
20
19.798989873223327
11
0.0
21
40.0
0
LINE
10
0.0
20
40.0
11
-20.201010126776673
21
19.798989873223327
0
LINE
10
-20.201010126776673
20
19.798989873223327
11
-18.15419986810342
21
14.857552787129977
0
ARC
10
-17.045544429089876
20
15.316772905968087
40
1.2
50
330.19124255528556
51
334.3103148957786
0
ARC
10
-17.045544429089876
20
15.316772905968087
40
1.2
50
326.07217021479244
51
330.19124255528556
0
ARC
10
-17.045544429089876
20
15.316772905968087
40
1.2
50
321.9530978742994
51
326.07217021479244
0
ARC
10
-17.045544429089876
20
15.316772905968087
40
1.2
50
317.8340255338063
51
321.9530978742994
0
ARC
10
-17.045544429089876
20
15.316772905968087
40
1.2
50
313.7149531933132
51
317.8340255338063
0
ARC
10
-17.045544429089876
20
15.316772905968087
40
1.2
50
309.59588085282013
51
313.7149531933132
0
ARC
10
-17.045544429089876
20
15.316772905968087
40
1.2
50
305.47680851232707
51
309.59588085282013
0
ARC
10
-17.045544429089876
20
15.316772905968087
40
1.2
50
301.35773617183395
51
305.47680851232707
0
ARC
10
-17.045544429089876
20
15.316772905968087
40
1.2
50
297.2386638313409
51
301.35773617183395
0
ARC
10
-17.045544429089876
20
15.316772905968087
40
1.2
50
293.1195914908478
51
297.2386638313409
0
ARC
10
-17.045544429089876
20
15.316772905968087
40
1.2
50
289.0005191503547
51
293.1195914908478
0
ARC
10
-17.045544429089876
20
15.316772905968087
40
1.2
50
284.88144680986164
51
289.0005191503547
0
ARC
10
-17.045544429089876
20
15.316772905968087
40
1.2
50
280.7623744693686
51
284.88144680986164
0
ARC
10
-17.045544429089876
20
15.316772905968087
40
1.2
50
276.64330212887546
51
280.7623744693686
0
ARC
10
-17.045544429089876
20
15.316772905968087
40
1.2
50
272.5242297883824
51
276.64330212887546
0
ARC
10
-17.045544429089876
20
15.316772905968087
40
1.2
50
268.40515744788934
51
272.5242297883824
0
ARC
10
-17.045544429089876
20
15.316772905968087
40
1.2
50
264.2860851073963
51
268.40515744788934
0
ARC
10
-17.045544429089876
20
15.316772905968087
40
1.2
50
260.16701276690316
51
264.2860851073963
0
ARC
10
-17.045544429089876
20
15.316772905968087
40
1.2
50
256.0479404264101
51
260.16701276690316
0
ARC
10
-17.045544429089876
20
15.316772905968087
40
1.2
50
251.928868085917
51
256.0479404264101
0
ARC
10
-17.045544429089876
20
15.316772905968087
40
1.2
50
247.8097957454239
51
251.928868085917
0
ARC
10
-17.045544429089876
20
15.316772905968087
40
1.2
50
243.69072340493085
51
247.8097957454239
0
ARC
10
-17.045544429089876
20
15.316772905968087
40
1.2
50
239.57165106443776
51
243.69072340493085
0
ARC
10
-17.045544429089876
20
15.316772905968087
40
1.2
50
235.45257872394467
51
239.57165106443776
0
ARC
10
-17.045544429089876
20
15.316772905968087
40
1.2
50
231.3335063834516
51
235.45257872394467
0
ARC
10
-17.045544429089876
20
15.316772905968087
40
1.2
50
227.21443404295852
51
231.3335063834516
0
ARC
10
-17.045544429089876
20
15.316772905968087
40
1.2
50
223.09536170246542
51
227.21443404295852
0
ARC
10
-17.045544429089876
20
15.316772905968087
40
1.2
50
218.97628936197236
51
223.09536170246542
0
ARC
10
-17.045544429089876
20
15.316772905968087
40
1.2
50
214.85721702147927
51
218.97628936197236
0
ARC
10
-17.045544429089876
20
15.316772905968087
40
1.2
50
210.73814468098618
51
214.85721702147927
0
ARC
10
-17.045544429089876
20
15.316772905968087
40
1.2
50
206.61907234049312
51
210.73814468098618
0
ARC
10
-17.045544429089876
20
15.316772905968087
40
1.2
50
202.50000000000003
51
206.61907234049312
0
ARC
10
-12.938154819659712
20
5.400657204931457
40
1.2
50
198.3809276595069
51
202.5
0
ARC
10
-12.938154819659712
20
5.400657204931457
40
1.2
50
194.26185531901385
51
198.3809276595069
0
ARC
10
-12.938154819659712
20
5.400657204931457
40
1.2
50
190.14278297852076
51
194.26185531901385
0
ARC
10
-12.938154819659712
20
5.400657204931457
40
1.2
50
186.02371063802767
51
190.14278297852076
0
ARC
10
-12.938154819659712
20
5.400657204931457
40
1.2
50
181.9046382975346
51
186.02371063802767
0
ARC
10
-12.938154819659712
20
5.400657204931457
40
1.2
50
177.7855659570415
51
181.9046382975346
0
ARC
10
-12.938154819659712
20
5.400657204931457
40
1.2
50
173.66649361654842
51
177.7855659570415
0
ARC
10
-12.938154819659712
20
5.400657204931457
40
1.2
50
169.54742127605536
51
173.66649361654842
0
ARC
10
-12.938154819659712
20
5.400657204931457
40
1.2
50
165.42834893556227
51
169.54742127605536
0
ARC
10
-12.938154819659712
20
5.400657204931457
40
1.2
50
161.3092765950692
51
165.42834893556227
0
ARC
10
-12.938154819659712
20
5.400657204931457
40
1.2
50
157.19020425457612
51
161.3092765950692
0
ARC
10
-12.938154819659712
20
5.400657204931457
40
1.2
50
153.07113191408303
51
157.19020425457612
0
ARC
10
-12.938154819659712
20
5.400657204931457
40
1.2
50
148.95205957358996
51
153.07113191408303
0
ARC
10
-12.938154819659712
20
5.400657204931457
40
1.2
50
144.83298723309687
51
148.95205957358996
0
ARC
10
-12.938154819659712
20
5.400657204931457
40
1.2
50
140.71391489260378
51
144.83298723309687
0
ARC
10
-12.938154819659712
20
5.400657204931457
40
1.2
50
136.59484255211072
51
140.71391489260378
0
ARC
10
-12.938154819659712
20
5.400657204931457
40
1.2
50
132.47577021161763
51
136.59484255211072
0
ARC
10
-12.938154819659712
20
5.400657204931457
40
1.2
50
128.35669787112454
51
132.47577021161763
0
ARC
10
-12.938154819659712
20
5.400657204931457
40
1.2
50
124.23762553063146
51
128.35669787112454
0
ARC
10
-12.938154819659712
20
5.400657204931457
40
1.2
50
120.11855319013839
51
124.23762553063146
0
ARC
10
-12.938154819659712
20
5.400657204931457
40
1.2
50
115.9994808496453
51
120.11855319013839
0
ARC
10
-12.938154819659712
20
5.400657204931457
40
1.2
50
111.88040850915222
51
115.9994808496453
0
ARC
10
-12.938154819659712
20
5.400657204931457
40
1.2
50
107.76133616865914
51
111.88040850915222
0
ARC
10
-12.938154819659712
20
5.400657204931457
40
1.2
50
103.64226382816605
51
107.76133616865914
0
ARC
10
-12.938154819659712
20
5.400657204931457
40
1.2
50
99.52319148767297
51
103.64226382816605
0
ARC
10
-12.938154819659712
20
5.400657204931457
40
1.2
50
95.4041191471799
51
99.52319148767297
0
ARC
10
-12.938154819659712
20
5.400657204931457
40
1.2
50
91.28504680668682
51
95.4041191471799
0
ARC
10
-12.938154819659712
20
5.400657204931457
40
1.2
50
87.16597446619373
51
91.28504680668682
0
ARC
10
-12.938154819659712
20
5.400657204931457
40
1.2
50
83.04690212570065
51
87.16597446619373
0
ARC
10
-12.938154819659712
20
5.400657204931457
40
1.2
50
78.92782978520758
51
83.04690212570065
0
ARC
10
-12.938154819659712
20
5.400657204931457
40
1.2
50
74.80875744471449
51
78.92782978520758
0
ARC
10
-12.938154819659712
20
5.400657204931457
40
1.2
50
70.68968510422141
51
74.80875744471449
0
ARC
10
-10.557227868320616
20
12.195595530802203
40
6.0
50
506.0721702147925
51
514.3103148957787
0
ARC
10
-10.557227868320616
20
12.195595530802203
40
6.0
50
497.83402553380637
51
506.0721702147925
0
ARC
10
-10.557227868320616
20
12.195595530802203
40
6.0
50
489.5958808528202
51
497.83402553380637
0
ARC
10
-10.557227868320616
20
12.195595530802203
40
6.0
50
481.357736171834
51
489.5958808528202
0
ARC
10
-10.557227868320616
20
12.195595530802203
40
6.0
50
473.1195914908478
51
481.357736171834
0
ARC
10
-10.557227868320616
20
12.195595530802203
40
6.0
50
464.8814468098617
51
473.1195914908478
0
ARC
10
-10.557227868320616
20
12.195595530802203
40
6.0
50
456.6433021288755
51
464.8814468098617
0
ARC
10
-10.557227868320616
20
12.195595530802203
40
6.0
50
448.40515744788934
51
456.6433021288755
0
ARC
10
-10.557227868320616
20
12.195595530802203
40
6.0
50
440.1670127669032
51
448.40515744788934
0
ARC
10
-10.557227868320616
20
12.195595530802203
40
6.0
50
431.92886808591703
51
440.1670127669032
0
ARC
10
-10.557227868320616
20
12.195595530802203
40
6.0
50
423.69072340493085
51
431.92886808591703
0
ARC
10
-10.557227868320616
20
12.195595530802203
40
6.0
50
415.4525787239447
51
423.69072340493085
0
ARC
10
-10.557227868320616
20
12.195595530802203
40
6.0
50
407.21443404295854
51
415.4525787239447
0
ARC
10
-10.557227868320616
20
12.195595530802203
40
6.0
50
398.97628936197236
51
407.21443404295854
0
ARC
10
-10.557227868320616
20
12.195595530802203
40
6.0
50
390.73814468098624
51
398.97628936197236
0
ARC
10
-10.557227868320616
20
12.195595530802203
40
6.0
50
382.50000000000006
51
390.73814468098624
0
ARC
10
-10.557227868320616
20
12.195595530802203
40
6.0
50
374.2618553190139
51
382.50000000000006
0
ARC
10
-10.557227868320616
20
12.195595530802203
40
6.0
50
366.02371063802775
51
374.2618553190139
0
ARC
10
-10.557227868320616
20
12.195595530802203
40
6.0
50
357.78556595704157
51
366.02371063802775
0
ARC
10
-10.557227868320616
20
12.195595530802203
40
6.0
50
349.5474212760554
51
357.78556595704157
0
ARC
10
-10.557227868320616
20
12.195595530802203
40
6.0
50
341.30927659506926
51
349.5474212760554
0
ARC
10
-10.557227868320616
20
12.195595530802203
40
6.0
50
333.0711319140831
51
341.30927659506926
0
ARC
10
-10.557227868320616
20
12.195595530802203
40
6.0
50
324.8329872330969
51
333.0711319140831
0
ARC
10
-10.557227868320616
20
12.195595530802203
40
6.0
50
316.5948425521108
51
324.8329872330969
0
ARC
10
-10.557227868320616
20
12.195595530802203
40
6.0
50
308.3566978711246
51
316.5948425521108
0
ARC
10
-10.557227868320616
20
12.195595530802203
40
6.0
50
300.1185531901384
51
308.3566978711246
0
ARC
10
-10.557227868320616
20
12.195595530802203
40
6.0
50
291.8804085091523
51
300.1185531901384
0
ARC
10
-10.557227868320616
20
12.195595530802203
40
6.0
50
283.6422638281661
51
291.8804085091523
0
ARC
10
-10.557227868320616
20
12.195595530802203
40
6.0
50
275.4041191471799
51
283.6422638281661
0
ARC
10
-10.557227868320616
20
12.195595530802203
40
6.0
50
267.1659744661938
51
275.4041191471799
0
ARC
10
-10.557227868320616
20
12.195595530802203
40
6.0
50
258.92782978520756
51
267.1659744661938
0
ARC
10
-10.557227868320616
20
12.195595530802203
40
6.0
50
250.68968510422144
51
258.92782978520756
0
LINE
10
-14.046810258673254
20
4.941437086093349
11
-12.000000000000002
21
0.0
0
LINE
10
-12.000000000000002
20
0.0
11
12.000000000000002
21
0.0
0
LINE
10
12.000000000000002
20
0.0
11
14.046810258673254
21
4.941437086093349
0
ARC
10
12.938154819659712
20
5.400657204931457
40
1.2
50
465.19124255528556
51
469.3103148957786
0
ARC
10
12.938154819659712
20
5.400657204931457
40
1.2
50
461.07217021479244
51
465.19124255528556
0
ARC
10
12.938154819659712
20
5.400657204931457
40
1.2
50
456.9530978742994
51
461.07217021479244
0
ARC
10
12.938154819659712
20
5.400657204931457
40
1.2
50
452.8340255338063
51
456.9530978742994
0
ARC
10
12.938154819659712
20
5.400657204931457
40
1.2
50
448.7149531933132
51
452.8340255338063
0
ARC
10
12.938154819659712
20
5.400657204931457
40
1.2
50
444.59588085282013
51
448.7149531933132
0
ARC
10
12.938154819659712
20
5.400657204931457
40
1.2
50
440.47680851232707
51
444.59588085282013
0
ARC
10
12.938154819659712
20
5.400657204931457
40
1.2
50
436.35773617183395
51
440.47680851232707
0
ARC
10
12.938154819659712
20
5.400657204931457
40
1.2
50
432.2386638313409
51
436.35773617183395
0
ARC
10
12.938154819659712
20
5.400657204931457
40
1.2
50
428.1195914908478
51
432.2386638313409
0
ARC
10
12.938154819659712
20
5.400657204931457
40
1.2
50
424.0005191503547
51
428.1195914908478
0
ARC
10
12.938154819659712
20
5.400657204931457
40
1.2
50
419.88144680986164
51
424.0005191503547
0
ARC
10
12.938154819659712
20
5.400657204931457
40
1.2
50
415.7623744693685
51
419.88144680986164
0
ARC
10
12.938154819659712
20
5.400657204931457
40
1.2
50
411.64330212887546
51
415.7623744693685
0
ARC
10
12.938154819659712
20
5.400657204931457
40
1.2
50
407.5242297883824
51
411.64330212887546
0
ARC
10
12.938154819659712
20
5.400657204931457
40
1.2
50
403.40515744788934
51
407.5242297883824
0
ARC
10
12.938154819659712
20
5.400657204931457
40
1.2
50
399.2860851073962
51
403.40515744788934
0
ARC
10
12.938154819659712
20
5.400657204931457
40
1.2
50
395.16701276690316
51
399.2860851073962
0
ARC
10
12.938154819659712
20
5.400657204931457
40
1.2
50
391.04794042641004
51
395.16701276690316
0
ARC
10
12.938154819659712
20
5.400657204931457
40
1.2
50
386.928868085917
51
391.04794042641004
0
ARC
10
12.938154819659712
20
5.400657204931457
40
1.2
50
382.8097957454239
51
386.928868085917
0
ARC
10
12.938154819659712
20
5.400657204931457
40
1.2
50
378.69072340493085
51
382.8097957454239
0
ARC
10
12.938154819659712
20
5.400657204931457
40
1.2
50
374.57165106443773
51
378.69072340493085
0
ARC
10
12.938154819659712
20
5.400657204931457
40
1.2
50
370.45257872394467
51
374.57165106443773
0
ARC
10
12.938154819659712
20
5.400657204931457
40
1.2
50
366.33350638345155
51
370.45257872394467
0
ARC
10
12.938154819659712
20
5.400657204931457
40
1.2
50
362.2144340429585
51
366.33350638345155
0
ARC
10
12.938154819659712
20
5.400657204931457
40
1.2
50
358.0953617024654
51
362.2144340429585
0
ARC
10
12.938154819659712
20
5.400657204931457
40
1.2
50
353.97628936197236
51
358.0953617024654
0
ARC
10
12.938154819659712
20
5.400657204931457
40
1.2
50
349.85721702147924
51
353.97628936197236
0
ARC
10
12.938154819659712
20
5.400657204931457
40
1.2
50
345.7381446809862
51
349.85721702147924
0
ARC
10
12.938154819659712
20
5.400657204931457
40
1.2
50
341.61907234049306
51
345.7381446809862
0
ARC
10
12.938154819659712
20
5.400657204931457
40
1.2
50
337.5
51
341.61907234049306
0
ARC
10
17.045544429089876
20
15.316772905968087
40
1.2
50
333.3809276595069
51
337.49999999999994
0
ARC
10
17.045544429089876
20
15.316772905968087
40
1.2
50
329.26185531901376
51
333.3809276595069
0
ARC
10
17.045544429089876
20
15.316772905968087
40
1.2
50
325.1427829785207
51
329.26185531901376
0
ARC
10
17.045544429089876
20
15.316772905968087
40
1.2
50
321.02371063802764
51
325.1427829785207
0
ARC
10
17.045544429089876
20
15.316772905968087
40
1.2
50
316.9046382975345
51
321.02371063802764
0
ARC
10
17.045544429089876
20
15.316772905968087
40
1.2
50
312.78556595704146
51
316.9046382975345
0
ARC
10
17.045544429089876
20
15.316772905968087
40
1.2
50
308.6664936165484
51
312.78556595704146
0
ARC
10
17.045544429089876
20
15.316772905968087
40
1.2
50
304.5474212760553
51
308.6664936165484
0
ARC
10
17.045544429089876
20
15.316772905968087
40
1.2
50
300.4283489355622
51
304.5474212760553
0
ARC
10
17.045544429089876
20
15.316772905968087
40
1.2
50
296.30927659506915
51
300.4283489355622
0
ARC
10
17.045544429089876
20
15.316772905968087
40
1.2
50
292.1902042545761
51
296.30927659506915
0
ARC
10
17.045544429089876
20
15.316772905968087
40
1.2
50
288.07113191408297
51
292.1902042545761
0
ARC
10
17.045544429089876
20
15.316772905968087
40
1.2
50
283.9520595735899
51
288.07113191408297
0
ARC
10
17.045544429089876
20
15.316772905968087
40
1.2
50
279.83298723309684
51
283.9520595735899
0
ARC
10
17.045544429089876
20
15.316772905968087
40
1.2
50
275.7139148926037
51
279.83298723309684
0
ARC
10
17.045544429089876
20
15.316772905968087
40
1.2
50
271.59484255211066
51
275.7139148926037
0
ARC
10
17.045544429089876
20
15.316772905968087
40
1.2
50
267.4757702116176
51
271.59484255211066
0
ARC
10
17.045544429089876
20
15.316772905968087
40
1.2
50
263.35669787112454
51
267.4757702116176
0
ARC
10
17.045544429089876
20
15.316772905968087
40
1.2
50
259.2376255306314
51
263.35669787112454
0
ARC
10
17.045544429089876
20
15.316772905968087
40
1.2
50
255.11855319013836
51
259.2376255306314
0
ARC
10
17.045544429089876
20
15.316772905968087
40
1.2
50
250.99948084964527
51
255.11855319013836
0
ARC
10
17.045544429089876
20
15.316772905968087
40
1.2
50
246.88040850915218
51
250.99948084964527
0
ARC
10
17.045544429089876
20
15.316772905968087
40
1.2
50
242.7613361686591
51
246.88040850915218
0
ARC
10
17.045544429089876
20
15.316772905968087
40
1.2
50
238.64226382816602
51
242.7613361686591
0
ARC
10
17.045544429089876
20
15.316772905968087
40
1.2
50
234.52319148767293
51
238.64226382816602
0
ARC
10
17.045544429089876
20
15.316772905968087
40
1.2
50
230.40411914717987
51
234.52319148767293
0
ARC
10
17.045544429089876
20
15.316772905968087
40
1.2
50
226.28504680668678
51
230.40411914717987
0
ARC
10
17.045544429089876
20
15.316772905968087
40
1.2
50
222.1659744661937
51
226.28504680668678
0
ARC
10
17.045544429089876
20
15.316772905968087
40
1.2
50
218.04690212570063
51
222.1659744661937
0
ARC
10
17.045544429089876
20
15.316772905968087
40
1.2
50
213.92782978520754
51
218.04690212570063
0
ARC
10
17.045544429089876
20
15.316772905968087
40
1.2
50
209.80875744471444
51
213.92782978520754
0
ARC
10
17.045544429089876
20
15.316772905968087
40
1.2
50
205.68968510422138
51
209.80875744471444
0
ARC
10
10.557227868320616
20
12.195595530802203
40
6.0
50
281.07217021479244
51
289.3103148957786
0
ARC
10
10.557227868320616
20
12.195595530802203
40
6.0
50
272.8340255338063
51
281.07217021479244
0
ARC
10
10.557227868320616
20
12.195595530802203
40
6.0
50
264.59588085282013
51
272.8340255338063
0
ARC
10
10.557227868320616
20
12.195595530802203
40
6.0
50
256.35773617183395
51
264.59588085282013
0
ARC
10
10.557227868320616
20
12.195595530802203
40
6.0
50
248.1195914908478
51
256.35773617183395
0
ARC
10
10.557227868320616
20
12.195595530802203
40
6.0
50
239.88144680986164
51
248.1195914908478
0
ARC
10
10.557227868320616
20
12.195595530802203
40
6.0
50
231.64330212887546
51
239.88144680986164
0
ARC
10
10.557227868320616
20
12.195595530802203
40
6.0
50
223.4051574478893
51
231.64330212887546
0
ARC
10
10.557227868320616
20
12.195595530802203
40
6.0
50
215.16701276690316
51
223.4051574478893
0
ARC
10
10.557227868320616
20
12.195595530802203
40
6.0
50
206.92886808591697
51
215.16701276690316
0
ARC
10
10.557227868320616
20
12.195595530802203
40
6.0
50
198.69072340493082
51
206.92886808591697
0
ARC
10
10.557227868320616
20
12.195595530802203
40
6.0
50
190.45257872394467
51
198.69072340493082
0
ARC
10
10.557227868320616
20
12.195595530802203
40
6.0
50
182.2144340429585
51
190.45257872394467
0
ARC
10
10.557227868320616
20
12.195595530802203
40
6.0
50
173.97628936197233
51
182.2144340429585
0
ARC
10
10.557227868320616
20
12.195595530802203
40
6.0
50
165.73814468098618
51
173.97628936197233
0
ARC
10
10.557227868320616
20
12.195595530802203
40
6.0
50
157.5
51
165.73814468098618
0
ARC
10
10.557227868320616
20
12.195595530802203
40
6.0
50
149.26185531901385
51
157.5
0
ARC
10
10.557227868320616
20
12.195595530802203
40
6.0
50
141.02371063802767
51
149.26185531901385
0
ARC
10
10.557227868320616
20
12.195595530802203
40
6.0
50
132.7855659570415
51
141.02371063802767
0
ARC
10
10.557227868320616
20
12.195595530802203
40
6.0
50
124.54742127605533
51
132.7855659570415
0
ARC
10
10.557227868320616
20
12.195595530802203
40
6.0
50
116.30927659506918
51
124.54742127605533
0
ARC
10
10.557227868320616
20
12.195595530802203
40
6.0
50
108.07113191408303
51
116.30927659506918
0
ARC
10
10.557227868320616
20
12.195595530802203
40
6.0
50
99.83298723309684
51
108.07113191408303
0
ARC
10
10.557227868320616
20
12.195595530802203
40
6.0
50
91.59484255211069
51
99.83298723309684
0
ARC
10
10.557227868320616
20
12.195595530802203
40
6.0
50
83.35669787112454
51
91.59484255211069
0
ARC
10
10.557227868320616
20
12.195595530802203
40
6.0
50
75.11855319013836
51
83.35669787112454
0
ARC
10
10.557227868320616
20
12.195595530802203
40
6.0
50
66.8804085091522
51
75.11855319013836
0
ARC
10
10.557227868320616
20
12.195595530802203
40
6.0
50
58.64226382816605
51
66.8804085091522
0
ARC
10
10.557227868320616
20
12.195595530802203
40
6.0
50
50.40411914717987
51
58.64226382816605
0
ARC
10
10.557227868320616
20
12.195595530802203
40
6.0
50
42.16597446619372
51
50.40411914717987
0
ARC
10
10.557227868320616
20
12.195595530802203
40
6.0
50
33.927829785207535
51
42.16597446619372
0
ARC
10
10.557227868320616
20
12.195595530802203
40
6.0
50
25.689685104221383
51
33.927829785207535
0
LINE
10
18.15419986810342
20
14.857552787129977
11
20.201010126776673
21
19.798989873223327
0
ENDSEC
0
EOF
