0
SECTION
2
ENTITIES
0
LWPOLYLINE
90
150
70
1
10
0.0
20
40.0
11
0.0
21
40.0
10
-20.201010126776673
20
19.798989873223327
11
-20.201010126776673
21
19.798989873223327
10
-18.15419986810342
20
14.857552787129977
11
-18.15419986810342
21
14.857552787129977
10
-17.912421050460253
20
14.492045787127314
10
-17.551463373247675
20
14.243526333214406
10
-17.1237448138635
20
14.148084216357116
10
-16.691378310177804
20
14.219579462370271
10
-16.31715177071435
20
14.447629590353312
10
-16.055410066148127
20
14.799117348038614
10
-15.821779345730647
20
15.237710286338766
10
-15.552941791292128
20
15.655649813511141
10
-15.250711176449327
20
16.05011620561736
10
-14.917126568684932
20
16.41844810555575
10
-14.554438572315666
20
16.758160478511464
10
-14.165094144279173
20
17.066961377808227
10
-13.751720085183273
20
17.342767408047106
10
-13.3171053169991
20
17.58371778120675
10
-12.864182066965643
20
17.78818687087236
10
-12.39600608465272
20
17.95479517989349
10
-11.915736025652526
20
18.082418647474903
10
-11.426612140992319
20
18.17019623290797
10
-10.931934416044955
20
18.217535724777385
10
-10.435040306428132
20
18.224117736449966
10
-9.93928222110208
20
18.18989786088913
10
-9.448004904581147
20
18.115106970257028
10
-8.964522870855308
20
18.000249658283074
10
-8.49209804126878
20
17.846100835907777
10
-8.033917737226844
20
17.65370050317004
10
-7.5930731762081205
20
17.424346732610758
10
-7.172538616163797
20
17.15958691153157
10
-6.775151289010887
20
16.861207302195044
10
-6.4035922586027265
20
16.5312209904006
10
-6.06036833232279
20
16.17185430374401
10
-5.747795148339368
20
15.78553179119262
10
-5.467981552626751
20
15.374859865315127
10
-5.22281537115692
20
14.942609217527231
10
-5.013950673252895
20
14.491696124992746
10
-4.842796612034379
20
14.0251627752974
10
-4.7105079172462085
20
13.546156741639372
10
-4.617977104611876
20
13.057909747011873
10
-4.565828454273511
20
12.563715860650014
10
-4.554413798944106
20
12.066909273844582
10
-4.583810150188228
20
11.570841805063283
10
-4.653819178845994
20
11.07886028614621
10
-4.763968553105808
20
10.594283982144741
10
-4.91351512519818
20
10.120382197146021
10
-5.101449945210947
20
9.660352217170452
10
-5.326505068198983
20
9.217297738955422
10
-5.5871621086627465
20
8.794207930160379
10
-5.881662484680888
20
8.393937262268356
10
-6.208019282582571
20
8.019186252245818
10
-6.5640306621118105
20
7.672483242891643
10
-6.947294711642811
20
7.356167344798216
10
-7.355225653222252
20
7.072372655010577
10
-7.7850712881075115
20
6.823013858856033
10
-8.233931565100521
20
6.609773312084759
10
-8.69877814640182
20
6.434089690474643
10
-9.176474838979281
20
6.297148283478409
10
-9.663798753606656
20
6.199872997399142
10
-10.157462048817703
20
6.142920122046583
10
-10.654134113075331
20
6.126673902928873
10
-11.150464035498754
20
6.151243948852974
10
-11.643103213544775
20
6.216464492423949
10
-12.128727945115346
20
6.32189550843235
10
-12.604061852668615
20
6.46682568258422
10
-13.037680563850047
20
6.53028572532945
10
-13.463554479551899
20
6.426923393522136
10
-13.81983853954447
20
6.171748880086566
10
-14.054793465283772
20
5.8018184182660875
10
-14.13429929544354
20
5.37085300586913
10
-14.046810258673254
20
4.941437086093349
10
-12.000000000000002
20
0.0
11
-12.000000000000002
21
0.0
10
12.000000000000002
20
0.0
11
12.000000000000002
21
0.0
10
14.046810258673254
20
4.941437086093349
11
14.046810258673254
21
4.941437086093349
10
14.13429929544354
20
5.37085300586913
10
14.054793465283772
20
5.801818418266088
10
13.81983853954447
20
6.171748880086567
10
13.463554479551899
20
6.426923393522137
10
13.037680563850046
20
6.530285725329451
10
12.604061852668613
20
6.466825682584224
10
12.128727945115344
20
6.321895508432353
10
11.643103213544773
20
6.216464492423953
10
11.15046403549875
20
6.1512439488529775
10
10.65413411307533
20
6.126673902928877
10
10.157462048817703
20
6.142920122046586
10
9.663798753606654
20
6.1998729973991455
10
9.176474838979281
20
6.2971482834784105
10
8.69877814640182
20
6.434089690474645
10
8.233931565100521
20
6.609773312084764
10
7.7850712881075115
20
6.823013858856035
10
7.355225653222254
20
7.072372655010578
10
6.947294711642812
20
7.356167344798218
10
6.5640306621118105
20
7.672483242891644
10
6.208019282582571
20
8.019186252245818
10
5.881662484680888
20
8.393937262268357
10
5.587162108662747
20
8.79420793016038
10
5.326505068198984
20
9.217297738955422
10
5.101449945210947
20
9.660352217170452
10
4.913515125198181
20
10.120382197146021
10
4.7639685531058085
20
10.594283982144741
10
4.653819178845994
20
11.07886028614621
10
4.583810150188227
20
11.570841805063282
10
4.554413798944106
20
12.066909273844582
10
4.565828454273511
20
12.563715860650014
10
4.617977104611875
20
13.057909747011873
10
4.710507917246205
20
13.54615674163937
10
4.842796612034377
20
14.025162775297398
10
5.013950673252891
20
14.491696124992746
10
5.222815371156918
20
14.942609217527231
10
5.467981552626747
20
15.374859865315127
10
5.747795148339366
20
15.78553179119262
10
6.060368332322787
20
16.17185430374401
10
6.403592258602723
20
16.531220990400605
10
6.775151289010885
20
16.861207302195044
10
7.172538616163795
20
17.159586911531576
10
7.593073176208116
20
17.424346732610758
10
8.03391773722684
20
17.653700503170043
10
8.492098041268777
20
17.84610083590778
10
8.964522870855305
20
18.00024965828308
10
9.448004904581142
20
18.11510697025703
10
9.939282221102077
20
18.189897860889133
10
10.43504030642813
20
18.224117736449973
10
10.93193441604495
20
18.217535724777388
10
11.426612140992313
20
18.170196232907976
10
11.915736025652524
20
18.08241864747491
10
12.396006084652718
20
17.954795179893498
10
12.864182066965641
20
17.788186870872366
10
13.3171053169991
20
17.583717781206758
10
13.751720085183273
20
17.342767408047113
10
14.165094144279173
20
17.066961377808234
10
14.554438572315668
20
16.75816047851147
10
14.917126568684933
20
16.418448105555758
10
15.250711176449332
20
16.050116205617368
10
15.55294179129213
20
15.655649813511147
10
15.82177934573065
20
15.237710286338773
10
16.055410066148134
20
14.799117348038621
10
16.317151770714354
20
14.447629590353312
10
16.691378310177804
20
14.219579462370271
10
17.1237448138635
20
14.148084216357118
10
17.55146337324767
20
14.243526333214406
10
17.912421050460253
20
14.492045787127317
10
18.15419986810342
20
14.857552787129977
10
20.201010126776673
20
19.798989873223327
11
20.201010126776673
21
19.798989873223327
0
ENDSEC
0
EOF
