0
SECTION
2
ENTITIES
0
LINE
8
Polygon
10
0.4
20
-1.0
11
0.3999629835309107
21
-0.9945583269987557
0
LINE
8
Polygon
10
0.3999629835309107
20
-0.9945583269987557
11
0.39985194097473764
21
-0.9891176611551137
0
LINE
8
Polygon
10
0.39985194097473764
20
-0.9891176611551137
11
0.39966689288349766
21
-0.983679009440269
0
LINE
8
Polygon
10
0.39966689288349766
20
-0.983679009440269
11
0.3994078735063254
21
-0.978243378452637
0
LINE
8
Polygon
10
0.3994078735063254
20
-0.978243378452637
11
0.3990749307831348
21
-0.9728117742315501
0
LINE
8
Polygon
10
0.3990749307831348
20
-0.9728117742315501
11
0.3986681263357459
21
-0.9673852020710569
0
LINE
8
Polygon
10
0.3986681263357459
20
-0.9673852020710569
11
0.39818753545647995
21
-0.9619646663338608
0
LINE
8
Polygon
10
0.39818753545647995
20
-0.9619646663338608
11
0.3976332470942241
21
-0.9565511702654292
0
LINE
8
Polygon
10
0.3976332470942241
20
-0.9565511702654292
11
0.3970053638379686
21
-0.9511457158083121
0
LINE
8
Polygon
10
0.3970053638379686
20
-0.9511457158083121
11
0.396304001897819
21
-0.9457493034166982
0
LINE
8
Polygon
10
0.396304001897819
20
-0.9457493034166982
11
0.39552929108348833
21
-0.9403629318712499
0
LINE
8
Polygon
10
0.39552929108348833
20
-0.9403629318712499
11
0.3946813747802711
21
-0.9349875980942466
0
LINE
8
Polygon
10
0.3946813747802711
20
-0.9349875980942466
11
0.3937604099225054
21
-0.929624296965071
0
LINE
8
Polygon
10
0.3937604099225054
20
-0.929624296965071
11
0.3927665669645273
21
-0.9242740211360756
0
LINE
8
Polygon
10
0.3927665669645273
20
-0.9242740211360756
11
0.3917000298491224
21
-0.9189377608488596
0
LINE
8
Polygon
10
0.3917000298491224
20
-0.9189377608488596
11
0.3905609959734815
21
-0.9136165037509929
0
LINE
8
Polygon
10
0.3905609959734815
20
-0.9136165037509929
11
0.3893496761526658
21
-0.9083112347132197
0
LINE
8
Polygon
10
0.3893496761526658
20
-0.9083112347132197
11
0.38806629458058894
21
-0.9030229356471771
0
LINE
8
Polygon
10
0.388066294580589
20
-0.9030229356471771
11
0.38671108878852234
21
-0.8977525853236592
0
LINE
8
Polygon
10
0.38671108878852234
20
-0.8977525853236592
11
0.38528430960113264
21
-0.8925011591914656
0
LINE
8
Polygon
10
0.38528430960113264
20
-0.8925011591914656
11
0.38378622109005806
21
-0.8872696291968616
0
LINE
8
Polygon
10
0.38378622109005806
20
-0.8872696291968616
11
0.3822171005250341
21
-0.8820589636036889
0
LINE
8
Polygon
10
0.3822171005250341
20
-0.8820589636036889
11
0.3805772383225752
21
-0.8768701268141569
0
LINE
8
Polygon
10
0.3805772383225752
20
-0.8768701268141569
11
0.37886693799222393
21
-0.8717040791903485
0
LINE
8
Polygon
10
0.37886693799222393
20
-0.8717040791903485
11
0.3770865160803769
21
-0.866561776876475
0
LINE
8
Polygon
10
0.3770865160803769
20
-0.866561776876475
11
0.37523630211169745
21
-0.8614441716219092
0
LINE
8
Polygon
10
0.37523630211169745
20
-0.8614441716219092
11
0.37331663852812647
21
-0.8563522106050351
0
LINE
8
Polygon
10
0.37331663852812647
20
-0.8563522106050351
11
0.3713278806255024
21
-0.8512868362579404
0
LINE
8
Polygon
10
0.3713278806255024
20
-0.8512868362579404
11
0.3692703964878025
21
-0.8462489860919898
0
LINE
8
Polygon
10
0.3692703964878025
20
-0.8462489860919898
11
0.36714456691901665
21
-0.8412395925243081
0
LINE
8
Polygon
10
0.36714456691901665
20
-0.8412395925243081
11
0.36495078537266745
21
-0.8362595827052062
0
LINE
8
Polygon
10
0.36495078537266745
20
-0.8362595827052062
11
0.36268945787898893
21
-0.8313098783465814
0
LINE
8
Polygon
10
0.36268945787898893
20
-0.8313098783465814
11
0.36036100296977736
21
-0.826391395551326
0
LINE
8
Polygon
10
0.36036100296977736
20
-0.826391395551326
11
0.35796585160092864
21
-0.8215050446437717
0
LINE
8
Polygon
10
0.35796585160092864
20
-0.8215050446437717
11
0.35550444707267587
21
-0.8166517300012051
0
LINE
8
Polygon
10
0.35550444707267587
20
-0.8166517300012051
11
0.3529772449475422
21
-0.8118323498864833
0
LINE
8
Polygon
10
0.3529772449475422
20
-0.8118323498864835
11
0.35038471296602436
21
-0.8070477962817819
0
LINE
8
Polygon
10
0.35038471296602436
20
-0.8070477962817819
11
0.3477273309600221
21
-0.8022989547235037
0
LINE
8
Polygon
10
0.3477273309600221
20
-0.8022989547235037
11
0.3450055907640299
21
-0.7975867041383825
0
LINE
8
Polygon
10
0.3450055907640299
20
-0.7975867041383825
11
0.342219996124107
21
-0.792911916680809
0
LINE
8
Polygon
10
0.342219996124107
20
-0.7929119166808088
11
0.3393710626046426
21
-0.78827545757141
0
LINE
8
Polygon
10
0.3393710626046426
20
-0.78827545757141
11
0.3364593174929347
21
-0.7836781849369125
0
LINE
8
Polygon
10
0.3364593174929347
20
-0.7836781849369125
11
0.3334852997015978
21
-0.7791209496513182
0
LINE
8
Polygon
10
0.3334852997015978
20
-0.7791209496513182
11
0.33044955966882017
21
-0.7746045951784224
0
LINE
8
Polygon
10
0.33044955966882017
20
-0.7746045951784223
11
0.32735265925648727
21
-0.7701299574157038
0
LINE
8
Polygon
10
0.32735265925648727
20
-0.7701299574157038
11
0.324195171646191
21
-0.7656978645396146
0
LINE
8
Polygon
10
0.324195171646191
20
-0.7656978645396146
11
0.32097768123314396
21
-0.7613091368522996
0
LINE
8
Polygon
10
0.32097768123314396
20
-0.7613091368522995
11
0.3177007835180183
21
-0.7569645866297726
0
LINE
8
Polygon
10
0.3177007835180183
20
-0.7569645866297726
11
0.3168654985165156
21
-0.7559267773413278
0
LINE
8
Polygon
10
0.3168654985165156
20
-0.7559267773413278
11
0.31598003968180277
21
-0.7549314322730492
0
LINE
8
Polygon
10
0.31598003968180277
20
-0.7549314322730492
11
0.3150465626617768
21
-0.7539809745906659
0
LINE
8
Polygon
10
0.3150465626617768
20
-0.7539809745906659
11
0.31406734000451797
21
-0.7530777181816498
0
LINE
8
Polygon
10
0.31406734000451797
20
-0.7530777181816498
11
0.31304475562577594
21
-0.7522238620220595
0
LINE
8
Polygon
10
0.31304475562577594
20
-0.7522238620220595
11
0.3119812990053311
21
-0.7514214848231374
0
LINE
8
Polygon
10
0.3119812990053311
20
-0.7514214848231374
11
0.31087955912636095
21
-0.750672539970692
0
LINE
8
Polygon
10
0.31087955912636095
20
-0.750672539970692
11
0.3097422181725649
21
-0.7499788507695825
0
LINE
8
Polygon
10
0.3097422181725649
20
-0.7499788507695825
11
0.3085720449983934
21
-0.749342106004887
0
LINE
8
Polygon
10
0.3085720449983934
20
-0.749342106004887
11
0.3073718883882766
21
-0.7487638558305587
0
LINE
8
Polygon
10
0.3073718883882766
20
-0.7487638558305587
11
0.3061446701212642
21
-0.7482455079955785
0
LINE
8
Polygon
10
0.3061446701212642
20
-0.7482455079955785
11
0.3048933778579594
21
-0.7477883244167929
0
LINE
8
Polygon
10
0.3048933778579594
20
-0.7477883244167929
11
0.30362105786706506
21
-0.7473934181067794
0
LINE
8
Polygon
10
0.30362105786706506
20
-0.7473934181067794
11
0.302330807609248
21
-0.7470617504642202
0
LINE
8
Polygon
10
0.302330807609248
20
-0.7470617504642202
11
0.3010257681963767
21
-0.7467941289333782
0
LINE
8
Polygon
10
0.3010257681963767
20
-0.7467941289333782
11
0.2997091167444903
21
-0.7465912050383756
0
LINE
8
Polygon
10
0.2997091167444903
20
-0.7465912050383756
11
0.2983840586391153
21
-0.74645347279706
0
LINE
8
Polygon
10
0.2983840586391153
20
-0.74645347279706
11
0.29705381973176087
21
-0.7463812675183181
0
LINE
8
Polygon
10
0.29705381973176087
20
-0.7463812675183181
11
0.29572163848658883
21
-0.7463747649857679
0
LINE
8
Polygon
10
0.29572163848658883
20
-0.7463747649857679
11
0.2943907580963789
21
-0.7464339810298127
0
LINE
8
Polygon
10
0.2943907580963789
20
-0.7464339810298127
11
0.2930644185869817
21
-0.7465587714891028
0
LINE
8
Polygon
10
0.2930644185869817
20
-0.7465587714891028
11
0.2917458489294821
21
-0.7467488325614955
0
LINE
8
Polygon
10
0.2917458489294821
20
-0.7467488325614955
11
0.2904382591792747
21
-0.7470037015436614
0
LINE
8
Polygon
10
0.2904382591792747
20
-0.7470037015436614
11
0.2891448326611901
21
-0.7473227579575342
0
LINE
8
Polygon
10
0.2891448326611901
20
-0.7473227579575342
11
0.2878687182196967
21
-0.7477052250608641
0
LINE
8
Polygon
10
0.2878687182196967
20
-0.7477052250608641
11
0.28661302255304405
21
-0.7481501717381946
0
LINE
8
Polygon
10
0.28661302255304405
20
-0.7481501717381946
11
0.28538080265001237
21
-0.7486565147676622
0
LINE
8
Polygon
10
0.28538080265001237
20
-0.7486565147676622
11
0.28417505834767864
21
-0.7492230214580969
0
LINE
8
Polygon
10
0.28417505834767864
20
-0.7492230214580969
11
0.2829987250283188
21
-0.7498483126500081
0
LINE
8
Polygon
10
0.2829987250283188
20
-0.7498483126500081
11
0.2818546664732252
21
-0.7505308660731442
0
LINE
8
Polygon
10
0.2818546664732252
20
-0.7505308660731442
11
0.28074566789083616
21
-0.7512690200524581
0
LINE
8
Polygon
10
0.28074566789083616
20
-0.7512690200524581
11
0.27967442913615126
21
-0.7520609775534509
0
LINE
8
Polygon
10
0.27967442913615126
20
-0.7520609775534509
11
0.27864355813793923
21
-0.7529048105570499
0
LINE
8
Polygon
10
0.27864355813793923
20
-0.7529048105570499
11
0.2776555645497404
21
-0.7537984647533674
0
LINE
8
Polygon
10
0.2776555645497404
20
-0.7537984647533674
11
0.2767128536401195
21
-0.7547397645429135
0
LINE
8
Polygon
10
0.2767128536401195
20
-0.7547397645429135
11
0.27581772043704406
21
-0.75572641833309
0
LINE
8
Polygon
10
0.27581772043704406
20
-0.75572641833309
11
0.27497234414064287
21
-0.7567560241170678
0
LINE
8
Polygon
10
0.27497234414064287
20
-0.7567560241170678
11
0.2741787828179474
21
-0.7578260753214686
0
LINE
8
Polygon
10
0.2741787828179474
20
-0.7578260753214686
11
0.2734389683925314
21
-0.7589339669086125
0
LINE
8
Polygon
10
0.2734389683925314
20
-0.7589339669086125
11
0.27275470194124646
21
-0.7600770017184777
0
LINE
8
Polygon
10
0.27275470194124646
20
-0.7600770017184777
11
0.27212764930950384
21
-0.7612523970349319
0
LINE
8
Polygon
10
0.2721276493095038
20
-0.7612523970349319
11
0.27155933705577673
21
-0.7624572913602489
0
LINE
8
Polygon
10
0.27155933705577673
20
-0.7624572913602489
11
0.27105114873519676
21
-0.7636887513814204
0
LINE
8
Polygon
10
0.27105114873519676
20
-0.7636887513814204
11
0.27060432153129127
21
-0.7649437791113004
0
LINE
8
Polygon
10
0.27060432153129127
20
-0.7649437791113004
11
0.2702199432440625
21
-0.7662193191871997
0
LINE
8
Polygon
10
0.2702199432440625
20
-0.7662193191871997
11
0.26989894964174055
21
-0.7675122663091601
0
LINE
8
Polygon
10
0.26989894964174055
20
-0.7675122663091601
11
0.269642122182657
21
-0.7688194727998029
0
LINE
8
Polygon
10
0.269642122182657
20
-0.7688194727998029
11
0.2694500861127864
21
-0.7701377562673417
0
LINE
8
Polygon
10
0.10925093847701377
20
-0.6630961080042385
11
0.10145257820497036
21
-0.6679330514813324
0
LINE
8
Polygon
10
0.10145257820497036
20
-0.6679330514813324
11
0.09409298676729307
21
-0.6734145530095318
0
LINE
8
Polygon
10
0.0940929867672931
20
-0.6734145530095318
11
0.08722529812068328
21
-0.6795010378560103
0
LINE
8
Polygon
10
0.08722529812068328
20
-0.6795010378560103
11
0.08089909483698311
21
-0.6861485634969152
0
LINE
8
Polygon
10
0.08089909483698311
20
-0.6861485634969152
11
0.07516005013245837
21
-0.6933091368686958
0
LINE
8
Polygon
10
0.07516005013245838
20
-0.6933091368686957
11
0.07004959812141005
21
-0.700931060863066
0
LINE
8
Polygon
10
0.07004959812141005
20
-0.700931060863066
11
0.0656046346747814
21
-0.7089593075640165
0
LINE
8
Polygon
10
0.06560463467478143
20
-0.7089593075640164
11
0.06185725104346765
21
-0.7173359155322185
0
LINE
8
Polygon
10
0.06185725104346765
20
-0.7173359155322185
11
0.05883450216948499
21
-0.7260004082685547
0
LINE
8
Polygon
10
0.05883450216948499
20
-0.7260004082685547
11
0.05655821135772063
21
-0.7348902308355952
0
LINE
8
Polygon
10
0.05655821135772064
20
-0.7348902308355952
11
0.05504481271847218
21
-0.7439412014847525
0
LINE
8
Polygon
10
0.05504481271847218
20
-0.7439412014847525
11
0.05430523251829271
21
-0.7530879750285049
0
LINE
8
Polygon
10
0.05430523251829271
20
-0.7530879750285049
11
0.054344810295751195
21
-0.762264514612287
0
LINE
8
Polygon
10
0.054344810295751195
20
-0.7622645146122868
11
0.05516326031162809
21
-0.7714045684799999
0
LINE
8
Polygon
10
0.05516326031162809
20
-0.7714045684799999
11
0.05675467361186334
21
-0.7804421482910456
0
LINE
8
Polygon
10
0.05675467361186334
20
-0.7804421482910456
11
0.05910756068836337
21
-0.7893120055355803
0
LINE
8
Polygon
10
0.05910756068836334
20
-0.7893120055355803
11
0.06220493442966893
21
-0.7979501026084233
0
LINE
8
Polygon
10
0.06220493442966893
20
-0.7979501026084233
11
0.06602443276260628
21
-0.8062940751406092
0
LINE
8
Polygon
10
0.06602443276260628
20
-0.8062940751406092
11
0.07053848009948659
21
-0.8142836822506986
0
LINE
8
Polygon
10
0.07053848009948656
20
-0.8142836822506986
11
0.07571448642525574
21
-0.8218612414651675
0
LINE
8
Polygon
10
0.07571448642525574
20
-0.8218612414651675
11
0.08151508258724703
21
-0.8289720451678919
0
LINE
8
Polygon
10
0.08151508258724703
20
-0.8289720451678919
11
0.08789839008881783
21
-0.8355647555720864
0
LINE
8
Polygon
10
0.0878983900888178
20
-0.8355647555720864
11
0.09481832343904478
21
-0.8415917753631276
0
LINE
8
Polygon
10
0.09481832343904485
20
-0.8415917753631277
11
0.10222492287560686
21
-0.8470095913363317
0
LINE
8
Polygon
10
0.10222492287560686
20
-0.8470095913363317
11
0.11006471505869966
21
-0.8517790885487329
0
LINE
8
Polygon
10
0.11006471505869966
20
-0.8517790885487329
11
0.11828109913188554
21
-0.8558658327167818
0
LINE
8
Polygon
10
0.11828109913188554
20
-0.8558658327167818
11
0.12681475536263806
21
-0.8592403188211426
0
LINE
8
Polygon
10
0.12681475536263814
20
-0.8592403188211426
11
0.1356040734123252
21
-0.861878184123737
0
LINE
8
Polygon
10
0.1356040734123252
20
-0.861878184123737
11
0.1445855971436541
21
-0.8637603840591214
0
LINE
8
Polygon
10
0.14458559714365418
20
-0.8637603840591214
11
0.15369448275420816
21
-0.8648733297303146
0
LINE
8
Polygon
10
0.15369448275420816
20
-0.8648733297303146
11
0.16286496692849237
21
-0.8652089860163995
0
LINE
8
Polygon
10
0.16286496692849237
20
-0.8652089860163995
11
0.17203084162857785
21
-0.8647649295835913
0
LINE
8
Polygon
10
0.17203084162857785
20
-0.8647649295835913
11
0.18112593209550287
21
-0.863544366380953
0
LINE
8
Polygon
10
0.18112593209550298
20
-0.863544366380953
11
0.19008457461041076
21
-0.8615561084944422
0
LINE
8
Polygon
10
0.19008457461041076
20
-0.8615561084944422
11
0.1988420905661365
21
-0.8588145105263962
0
LINE
8
Polygon
10
0.19884209056613658
20
-0.8588145105263961
11
0.20733525342659553
21
-0.8553393659597766
0
LINE
8
Polygon
10
0.20733525342659553
20
-0.8553393659597766
11
0.21550274520267013
21
-0.8511557642553909
0
LINE
8
Polygon
10
0.21550274520267013
20
-0.8511557642553909
11
0.22328559914898266
21
-0.8462939097138036
0
LINE
8
Polygon
10
0.22328559914898266
20
-0.8462939097138036
11
0.23062762548542123
21
-0.8407889034096993
0
LINE
8
Polygon
10
0.23062762548542132
20
-0.8407889034096993
11
0.2374758170698416
21
-0.8346804897730616
0
LINE
8
Polygon
10
0.2374758170698416
20
-0.8346804897730616
11
0.24378073209311457
21
-0.8280127696467746
0
LINE
8
Polygon
10
0.24378073209311463
20
-0.8280127696467746
11
0.24949685103358077
21
-0.8208338818922801
0
LINE
8
Polygon
10
0.24949685103358077
20
-0.8208338818922801
11
0.2545829052938111
21
-0.813195655842
0
LINE
8
Polygon
10
0.2545829052938111
20
-0.813195655842
11
0.25900217514702023
21
-0.8051532371077074
0
LINE
8
Polygon
10
0.25900217514702023
20
-0.8051532371077074
11
0.2627227548420505
21
-0.7967646894463947
0
LINE
8
Polygon
10
0.26272275484205054
20
-0.7967646894463947
11
0.26571778295295273
21
-0.7880905755580432
0
LINE
8
Polygon
10
0.26571778295295273
20
-0.7880905755580432
11
0.26796563631011044
21
-0.779193519841802
0
LINE
8
Polygon
10
0.2679656363101105
20
-0.779193519841802
11
0.2694500861127864
21
-0.7701377562673417
0
LINE
8
Polygon
10
0.1092509384770137
20
-0.6630961080042383
11
0.11039538456836492
21
-0.6624142045675931
0
LINE
8
Polygon
10
0.11039538456836492
20
-0.6624142045675931
11
0.11150480227626793
21
-0.6616766806681098
0
LINE
8
Polygon
10
0.11150480227626793
20
-0.6616766806681098
11
0.11257649072536283
21
-0.6608853318063591
0
LINE
8
Polygon
10
0.11257649072536283
20
-0.6608853318063591
11
0.11360784089210064
21
-0.6600420845196824
0
LINE
8
Polygon
10
0.11360784089210064
20
-0.6600420845196824
11
0.11459634195640624
21
-0.659148991692041
0
LINE
8
Polygon
10
0.11459634195640624
20
-0.659148991692041
11
0.11553958741426515
21
-0.6582082275562736
0
LINE
8
Polygon
10
0.11553958741426515
20
-0.6582082275562736
11
0.11643528093635319
21
-0.6572220824009302
0
LINE
8
Polygon
10
0.11643528093635319
20
-0.6572220824009302
11
0.11728124195844596
21
-0.6561929569945693
0
LINE
8
Polygon
10
0.11728124195844596
20
-0.6561929569945693
11
0.11807541098999835
21
-0.655123356741091
0
LINE
8
Polygon
10
0.11807541098999835
20
-0.655123356741091
11
0.1188158546279706
21
-0.654015885580336
0
LINE
8
Polygon
10
0.1188158546279706
20
-0.654015885580336
11
0.11950077026369427
21
-0.6528732396487985
0
LINE
8
Polygon
10
0.11950077026369427
20
-0.6528732396487985
11
0.1201284904713198
21
-0.6516982007158877
0
LINE
8
Polygon
10
0.1201284904713198
20
-0.6516982007158877
11
0.12069748706716166
21
-0.6504936294117143
0
LINE
8
Polygon
10
0.12069748706716166
20
-0.6504936294117143
11
0.12120637483005872
21
-0.6492624582628924
0
LINE
8
Polygon
10
0.12120637483005872
20
-0.6492624582628924
11
0.12165391487369252
21
-0.6480076845533089
0
LINE
8
Polygon
10
0.12165391487369252
20
-0.6480076845533089
11
0.12203901766265385
21
-0.6467323630272411
0
LINE
8
Polygon
10
0.12203901766265385
20
-0.6467323630272411
11
0.12236074566491457
21
-0.6454395984525876
0
LINE
8
Polygon
10
0.12236074566491457
20
-0.6454395984525876
11
0.12261831563424772
21
-0.6441325380623165
0
LINE
8
Polygon
10
0.12261831563424772
20
-0.6441325380623165
11
0.12281110051703886
21
-0.6428143638925329
0
LINE
8
Polygon
10
0.12281110051703886
20
-0.6428143638925329
11
0.12293863097884711
21
-0.641488285035817
0
LINE
8
Polygon
10
0.12293863097884711
20
-0.641488285035817
11
0.12300059654699882
21
-0.6401575298286954
0
LINE
8
Polygon
10
0.12300059654699882
20
-0.6401575298286954
11
0.12299684636643286
21
-0.6388253379922606
0
LINE
8
Polygon
10
0.12299684636643286
20
-0.6388253379922607
11
0.12292738956695688
21
-0.6374949527450768
0
LINE
8
Polygon
10
0.12292738956695688
20
-0.6374949527450768
11
0.12279239524102084
21
-0.63616961290757
0
LINE
8
Polygon
10
0.12279239524102084
20
-0.63616961290757
11
0.12259219203206181
21
-0.6348525450171254
0
LINE
8
Polygon
10
0.12259219203206181
20
-0.6348525450171254
11
0.12232726733442205
21
-0.6335469554730886
0
LINE
8
Polygon
10
0.12232726733442205
20
-0.6335469554730886
11
0.1219982661067884
21
-0.6322560227307921
0
LINE
8
Polygon
10
0.1219982661067884
20
-0.6322560227307921
11
0.12160598930204161
21
-0.6309828895636114
0
LINE
8
Polygon
10
0.12160598930204161
20
-0.6309828895636114
11
0.12115139191733797
21
-0.6297306554118897
0
LINE
8
Polygon
10
0.12115139191733797
20
-0.6297306554118897
11
0.12063558066917049
21
-0.6285023688373552
0
LINE
8
Polygon
10
0.12063558066917049
20
-0.6285023688373552
11
0.12005981129906973
21
-0.627301020101404
0
LINE
8
Polygon
10
0.12005981129906972
20
-0.627301020101404
11
0.11942548551650321
21
-0.6261295338853139
0
LINE
8
Polygon
10
0.11942548551650321
20
-0.6261295338853139
11
0.11873414758641651
21
-0.6249907621701132
0
LINE
8
Polygon
10
0.11873414758641651
20
-0.6249907621701132
11
0.1179874805697229
21
-0.6238874772934383
0
LINE
8
Polygon
10
0.1179874805697229
20
-0.6238874772934383
11
0.11718730222589481
21
-0.6228223652002827
0
LINE
8
Polygon
10
0.11718730222589481
20
-0.6228223652002827
11
0.11633556058763167
21
-0.621798018904069
0
LINE
8
Polygon
10
0.11633556058763167
20
-0.621798018904069
11
0.11543432921837793
21
-0.6208169321739627
0
LINE
8
Polygon
10
0.11543432921837793
20
-0.6208169321739627
11
0.11448580216423673
21
-0.6198814934637952
0
LINE
8
Polygon
10
0.11448580216423673
20
-0.6198814934637952
11
0.11349228861256862
21
-0.6189939800973778
0
LINE
8
Polygon
10
0.11349228861256862
20
-0.6189939800973778
11
0.11245620727027927
21
-0.6181565527243611
0
LINE
8
Polygon
10
0.11245620727027927
20
-0.6181565527243611
11
0.11138008047548197
21
-0.6173712500601374
0
LINE
8
Polygon
10
0.11138008047548197
20
-0.6173712500601374
11
0.11026652805687014
21
-0.6166399839225913
0
LINE
8
Polygon
10
0.11026652805687014
20
-0.6166399839225913
11
0.1091182609557492
21
-0.6159645345777838
0
LINE
8
Polygon
10
0.1091182609557492
20
-0.6159645345777838
11
0.107938074626255
21
-0.6153465464058964
0
LINE
8
Polygon
10
0.107938074626255
20
-0.6153465464058964
11
0.1067288422298259
21
-0.6147875238979916
0
LINE
8
Polygon
10
0.1067288422298259
20
-0.6147875238979916
11
0.10549350764049653
21
-0.6142888279933322
0
LINE
8
Polygon
10
0.10549350764049652
20
-0.6142888279933322
11
0.10423507827804188
21
-0.6138516727661762
0
LINE
8
Polygon
10
0.10423507827804188
20
-0.6138516727661762
11
0.10295661778641947
21
-0.6134771224701167
0
LINE
8
Polygon
10
0.10295661778641947
20
-0.6134771224701168
11
0.09768876229272587
21
-0.6121122511322183
0
LINE
8
Polygon
10
0.09768876229272587
20
-0.6121122511322183
11
0.09240282633378334
21
-0.6108191709686502
0
LINE
8
Polygon
10
0.09240282633378334
20
-0.6108191709686502
11
0.08709978824301708
21
-0.6095981213057222
0
LINE
8
Polygon
10
0.08709978824301699
20
-0.6095981213057222
11
0.08178062951915481
21
-0.6084493281381695
0
LINE
8
Polygon
10
0.08178062951915481
20
-0.6084493281381695
11
0.07644633464456911
21
-0.6073730040873264
0
LINE
8
Polygon
10
0.07644633464456911
20
-0.6073730040873264
11
0.0710978909030666
21
-0.6063693483617725
0
LINE
8
Polygon
10
0.0710978909030666
20
-0.6063693483617725
11
0.06573628819715946
21
-0.6054385467204633
0
LINE
8
Polygon
10
0.06573628819715946
20
-0.6054385467204633
11
0.06036251886485181
21
-0.60458077143835
0
LINE
8
Polygon
10
0.060362518864851736
20
-0.60458077143835
11
0.05497757749597553
21
-0.6037961812744934
0
LINE
8
Polygon
10
0.05497757749597553
20
-0.6037961812744934
11
0.049582460748109396
21
-0.6030849214426817
0
LINE
8
Polygon
10
0.049582460748109396
20
-0.6030849214426817
11
0.044178167162114985
21
-0.6024471235845523
0
LINE
8
Polygon
10
0.044178167162114985
20
-0.6024471235845523
11
0.03876569697732468
21
-0.601882905745229
0
LINE
8
Polygon
10
0.03876569697732468
20
-0.601882905745229
11
0.033346051946414955
21
-0.6013923723514727
0
LINE
8
Polygon
10
0.033346051946414865
20
-0.6013923723514727
11
0.027920235149999497
21
-0.6009756141923545
0
LINE
8
Polygon
10
0.027920235149999497
20
-0.6009756141923545
11
0.022489250810977152
21
-0.6006327084024519
0
LINE
8
Polygon
10
0.022489250810977152
20
-0.6006327084024519
11
0.017054104108667374
21
-0.600363718447573
0
LINE
8
Polygon
10
0.017054104108667374
20
-0.600363718447573
11
0.011615800992769675
21
-0.6001686941130092
0
LINE
8
Polygon
10
0.011615800992769586
20
-0.6001686941130092
11
0.006175347997179903
21
-0.600047671494322
0
LINE
8
Polygon
10
0.006175347997179903
20
-0.600047671494322
11
0.0007337520536989531
21
-0.6000006729906615
0
LINE
8
Polygon
10
0.0007337520536989531
20
-0.6000006729906615
11
-0.004707979694333071
21
-0.6000277073006209
0
LINE
8
Polygon
10
-0.004707979694333071
20
-0.6000277073006209
11
-0.010148840078440954
21
-0.6001287694206268
0
LINE
8
Polygon
10
-0.010148840078441045
20
-0.6001287694206268
11
-0.015587822091423646
21
-0.600303840645865
0
LINE
8
Polygon
10
-0.015587822091423646
20
-0.600303840645865
11
-0.02102391907373316
21
-0.6005528885737423
0
LINE
8
Polygon
10
-0.02102391907373316
20
-0.6005528885737423
11
-0.026456124899790035
21
-0.6008758671098844
0
LINE
8
Polygon
10
-0.026456124899790035
20
-0.6008758671098844
11
-0.031883434164199025
21
-0.601272716476666
0
LINE
8
Polygon
10
-0.031883434164199025
20
-0.601272716476666
11
-0.03730484236783201
21
-0.6017433632242757
0
LINE
8
Polygon
10
-0.0373048423678321
20
-0.6017433632242757
11
-0.04271934610374314
21
-0.6022877202443095
0
LINE
8
Polygon
10
-0.04271934610374314
20
-0.6022877202443095
11
-0.048125943242881344
21
-0.6029056867858934
0
LINE
8
Polygon
10
-0.048125943242881344
20
-0.6029056867858934
11
-0.05352363311956733
21
-0.6035971484743305
0
LINE
8
Polygon
10
-0.05352363311956733
20
-0.6035971484743305
11
-0.05891141671669873
21
-0.6043619773322697
0
LINE
8
Polygon
10
-0.05891141671669873
20
-0.6043619773322697
11
-0.06428829685065061
21
-0.6052000318033921
0
LINE
8
Polygon
10
-0.0642882968506507
20
-0.6052000318033921
11
-0.0696532783558367
21
-0.6061111567786105
0
LINE
8
Polygon
10
-0.0696532783558367
20
-0.6061111567786105
11
-0.07500536826889656
21
-0.6070951836247775
0
LINE
8
Polygon
10
-0.07500536826889656
20
-0.6070951836247775
11
-0.08034357601247613
21
-0.6081519302158966
0
LINE
8
Polygon
10
-0.08034357601247613
20
-0.6081519302158966
11
-0.08566691357856575
21
-0.6092812009668301
0
LINE
8
Polygon
10
-0.08566691357856575
20
-0.6092812009668301
11
-0.09097439571136307
21
-0.6104827868694988
0
LINE
8
Polygon
10
-0.09097439571136315
20
-0.6104827868694988
11
-0.09626504008962661
21
-0.6117564655315654
0
LINE
8
Polygon
10
-0.09626504008962661
20
-0.6117564655315654
11
-0.1015378675084858
21
-0.6131020012175958
0
LINE
8
Polygon
10
-0.1015378675084858
20
-0.6131020012175958
11
-0.10679190206067485
21
-0.6145191448926897
0
LINE
8
Polygon
10
-0.10679190206067485
20
-0.6145191448926897
11
-0.11202617131715582
21
-0.6160076342685714
0
LINE
8
Polygon
10
-0.11202617131715582
20
-0.6160076342685714
11
-0.11723970650709802
21
-0.6175671938521363
0
LINE
8
Polygon
10
-0.11723970650709808
20
-0.6175671938521363
11
-0.12243154269718047
21
-0.6191975349964387
0
LINE
8
Polygon
10
-0.12243154269718047
20
-0.6191975349964387
11
-0.12760071897018382
21
-0.6208983559541159
0
LINE
8
Polygon
10
-0.12760071897018382
20
-0.6208983559541159
11
-0.13274627860283947
21
-0.6226693419332359
0
LINE
8
Polygon
10
-0.13274627860283958
20
-0.6226693419332359
11
-0.13786726924290213
21
-0.6245101651555596
0
LINE
8
Polygon
10
-0.13786726924290202
20
-0.6245101651555596
11
-0.1429627430854128
21
-0.6264204849172077
0
LINE
8
Polygon
10
-0.14296274308541287
20
-0.6264204849172077
11
-0.1480317570481219
21
-0.6283999476517181
0
LINE
8
Polygon
10
-0.1480317570481219
20
-0.6283999476517181
11
-0.1530733729460359
21
-0.6304481869954852
0
LINE
8
Polygon
10
-0.1530733729460359
20
-0.6304481869954852
11
-0.15507532865248155
21
-0.6312837914556442
0
LINE
8
Polygon
10
-0.15507532865248155
20
-0.6312837914556442
11
-0.15707272314625065
21
-0.6321302409229304
0
LINE
8
Polygon
10
-0.15707272314625073
20
-0.6321302409229304
11
-0.15906549767821038
21
-0.6329875105008234
0
LINE
8
Polygon
10
-0.15906549767821038
20
-0.6329875105008234
11
-0.16105359363511415
21
-0.6338555749745525
0
LINE
8
Polygon
10
-0.16105359363511423
20
-0.6338555749745525
11
-0.16303695254132608
21
-0.6347344088118381
0
LINE
8
Polygon
10
-0.16303695254132608
20
-0.6347344088118381
11
-0.1650155160605402
21
-0.6356239861636421
0
LINE
8
Polygon
10
-0.16501551606054032
20
-0.6356239861636422
11
-0.1669892259974973
21
-0.6365242808649293
0
LINE
8
Polygon
10
-0.1669892259974973
20
-0.6365242808649293
11
-0.1689580242996952
21
-0.6374352664354355
0
LINE
8
Polygon
10
-0.1689580242996952
20
-0.6374352664354355
11
-0.1709218530590977
21
-0.6383569160804479
0
LINE
8
Polygon
10
-0.1709218530590977
20
-0.6383569160804479
11
-0.17288065451383708
21
-0.6392892026915922
0
LINE
8
Polygon
10
-0.17288065451383708
20
-0.6392892026915922
11
-0.17483437104991303
21
-0.6402320988476302
0
LINE
8
Polygon
10
-0.17483437104991317
20
-0.6402320988476302
11
-0.17678294520288754
21
-0.6411855768152668
0
LINE
8
Polygon
10
-0.17678294520288754
20
-0.6411855768152668
11
-0.17872631965957453
21
-0.6421496085499645
0
LINE
8
Polygon
10
-0.17872631965957453
20
-0.6421496085499645
11
-0.1806644372597263
21
-0.6431241656967701
0
LINE
8
Polygon
10
-0.1806644372597263
20
-0.6431241656967701
11
-0.18259724099771452
21
-0.6441092195911469
0
LINE
8
Polygon
10
-0.18259724099771452
20
-0.6441092195911469
11
-0.1845246740242067
21
-0.6451047412598185
0
LINE
8
Polygon
10
-0.18452467402420683
20
-0.6451047412598188
11
-0.18644667964783862
21
-0.6461107014216221
0
LINE
8
Polygon
10
-0.18644667964783862
20
-0.6461107014216221
11
-0.1883632013368813
21
-0.6471270704883676
0
LINE
8
Polygon
10
-0.1883632013368813
20
-0.6471270704883676
11
-0.19027418272090446
21
-0.6481538185657092
0
LINE
8
Polygon
10
-0.19027418272090446
20
-0.6481538185657092
11
-0.19217956759243404
21
-0.649190915454025
0
LINE
8
Polygon
10
-0.19217956759243418
20
-0.649190915454025
11
-0.19407929990860567
21
-0.6502383306493041
0
LINE
8
Polygon
10
-0.19407929990860567
20
-0.6502383306493041
11
-0.19597332379281254
21
-0.6512960333440448
0
LINE
8
Polygon
10
-0.19597332379281254
20
-0.6512960333440448
11
-0.19786158353634972
21
-0.6523639924281603
0
LINE
8
Polygon
10
-0.19786158353634972
20
-0.6523639924281603
11
-0.19974402360005206
21
-0.6534421764898939
0
LINE
8
Polygon
10
-0.19974402360005206
20
-0.6534421764898939
11
-0.20162058861592813
21
-0.6545305538167425
0
LINE
8
Polygon
10
-0.20162058861592827
20
-0.6545305538167425
11
-0.20349122338878858
21
-0.6556290923963899
0
LINE
8
Polygon
10
-0.20349122338878858
20
-0.6556290923963899
11
-0.20535587289786933
21
-0.6567377599176482
0
LINE
8
Polygon
10
-0.20535587289786933
20
-0.6567377599176482
11
-0.20721448229845044
21
-0.6578565237714078
0
LINE
8
Polygon
10
-0.20721448229845044
20
-0.6578565237714078
11
-0.209066996923469
21
-0.6589853510515975
0
LINE
8
Polygon
10
-0.2090669969234692
20
-0.6589853510515975
11
-0.2109133622851271
21
-0.660124208556151
0
LINE
8
Polygon
10
-0.2109133622851271
20
-0.660124208556151
11
-0.21275352407649392
21
-0.6612730627879844
0
LINE
8
Polygon
10
-0.21275352407649392
20
-0.6612730627879844
11
-0.21458742817310406
21
-0.6624318799559814
0
LINE
8
Polygon
10
-0.21458742817310406
20
-0.6624318799559814
11
-0.21641502063454868
21
-0.6636006259759868
0
LINE
8
Polygon
10
-0.21641502063454882
20
-0.663600625975987
11
-0.2182362477060627
21
-0.6647792664718095
0
LINE
8
Polygon
10
-0.2182362477060627
20
-0.6647792664718095
11
-0.22005105582010487
21
-0.6659677667762329
0
LINE
8
Polygon
10
-0.22005105582010487
20
-0.6659677667762329
11
-0.2218593915979346
21
-0.6671660919320354
0
LINE
8
Polygon
10
-0.2218593915979346
20
-0.6671660919320354
11
-0.2236612018511811
21
-0.6683742066930178
0
LINE
8
Polygon
10
-0.2236612018511811
20
-0.6683742066930178
11
-0.22545643358340808
21
-0.6695920755250409
0
LINE
8
Polygon
10
-0.22545643358340822
20
-0.6695920755250409
11
-0.22724503399167284
21
-0.6708196626070696
0
LINE
8
Polygon
10
-0.22724503399167284
20
-0.6708196626070696
11
-0.22902695046807833
21
-0.6720569318322274
0
LINE
8
Polygon
10
-0.22902695046807833
20
-0.6720569318322274
11
-0.230802130601322
21
-0.6733038468088577
0
LINE
8
Polygon
10
-0.230802130601322
20
-0.6733038468088577
11
-0.23257052217823604
21
-0.6745603708615949
0
LINE
8
Polygon
10
-0.2325705221782362
20
-0.674560370861595
11
-0.23433207318532415
21
-0.6758264670324428
0
LINE
8
Polygon
10
-0.23433207318532415
20
-0.6758264670324428
11
-0.23608673181029027
21
-0.677102098081861
0
LINE
8
Polygon
10
-0.23608673181029027
20
-0.677102098081861
11
-0.2378344464435637
21
-0.6783872264898615
0
LINE
8
Polygon
10
-0.2378344464435637
20
-0.6783872264898615
11
-0.23957516567981638
21
-0.6796818144571112
0
LINE
8
Polygon
10
-0.23957516567981654
20
-0.6796818144571113
11
-0.24130883831947525
21
-0.6809858239060442
0
LINE
8
Polygon
10
-0.24130883831947525
20
-0.6809858239060442
11
-0.2430354133702275
21
-0.6822992164819819
0
LINE
8
Polygon
10
-0.2430354133702275
20
-0.6822992164819819
11
-0.24407322265867232
21
-0.6831345014834845
0
LINE
8
Polygon
10
-0.24407322265867232
20
-0.6831345014834845
11
-0.24506856772695101
21
-0.6840199603181973
0
LINE
8
Polygon
10
-0.24506856772695101
20
-0.6840199603181973
11
-0.24601902540933418
21
-0.6849534373382233
0
LINE
8
Polygon
10
-0.24601902540933418
20
-0.6849534373382233
11
-0.2469222818183503
21
-0.6859326599954821
0
LINE
8
Polygon
10
-0.2469222818183503
20
-0.6859326599954821
11
-0.24777613797794068
21
-0.6869552443742242
0
LINE
8
Polygon
10
-0.24777613797794068
20
-0.6869552443742242
11
-0.24857851517686266
21
-0.688018700994669
0
LINE
8
Polygon
10
-0.24857851517686266
20
-0.688018700994669
11
-0.2493274600293081
21
-0.6891204408736391
0
LINE
8
Polygon
10
-0.2493274600293081
20
-0.6891204408736391
11
-0.2500211492304177
21
-0.6902577818274351
0
LINE
8
Polygon
10
-0.25002114923041774
20
-0.6902577818274351
11
-0.2506578939951132
21
-0.6914279550016067
0
LINE
8
Polygon
10
-0.2506578939951132
20
-0.6914279550016067
11
-0.2512361441694414
21
-0.6926281116117236
0
LINE
8
Polygon
10
-0.2512361441694414
20
-0.6926281116117236
11
-0.2517544920044216
21
-0.693855329878736
0
LINE
8
Polygon
10
-0.2517544920044216
20
-0.693855329878736
11
-0.2522116755832073
21
-0.6951066221420408
0
LINE
8
Polygon
10
-0.2522116755832073
20
-0.6951066221420408
11
-0.25260658189322077
21
-0.696378942132935
0
LINE
8
Polygon
10
-0.25260658189322077
20
-0.696378942132935
11
-0.25293824953578
21
-0.6976691923907521
0
LINE
8
Polygon
10
-0.25293824953578
20
-0.6976691923907521
11
-0.253205871066622
21
-0.6989742318036234
0
LINE
8
Polygon
10
-0.253205871066622
20
-0.6989742318036234
11
-0.25340879496162455
21
-0.7002908832555098
0
LINE
8
Polygon
10
-0.25340879496162455
20
-0.7002908832555098
11
-0.2535465272029402
21
-0.7016159413608848
0
LINE
8
Polygon
10
-0.2535465272029402
20
-0.7016159413608848
11
-0.253618732481682
21
-0.7029461802682393
0
LINE
8
Polygon
10
-0.253618732481682
20
-0.7029461802682393
11
-0.2536252350142322
21
-0.7042783615134113
0
LINE
8
Polygon
10
-0.2536252350142322
20
-0.7042783615134113
11
-0.2535660189701874
21
-0.7056092419036213
0
LINE
8
Polygon
10
-0.2535660189701874
20
-0.7056092419036213
11
-0.25344122851089734
21
-0.7069355814130184
0
LINE
8
Polygon
10
-0.25344122851089734
20
-0.7069355814130184
11
-0.2532511674385046
21
-0.708254151070518
0
LINE
8
Polygon
10
-0.2532511674385046
20
-0.708254151070518
11
-0.2529962984563388
21
-0.7095617408207254
0
LINE
8
Polygon
10
-0.2529962984563388
20
-0.7095617408207254
11
-0.25267724204246594
21
-0.7108551673388099
0
LINE
8
Polygon
10
-0.25267724204246594
20
-0.7108551673388099
11
-0.25229477493913605
21
-0.7121312817803035
0
LINE
8
Polygon
10
-0.25229477493913605
20
-0.7121312817803035
11
-0.25184982826180546
21
-0.7133869774469561
0
LINE
8
Polygon
10
-0.25184982826180546
20
-0.7133869774469561
11
-0.25134348523233796
21
-0.7146191973499878
0
LINE
8
Polygon
10
-0.25134348523233796
20
-0.7146191973499878
11
-0.2507769785419032
21
-0.7158249416523215
0
LINE
8
Polygon
10
-0.2507769785419032
20
-0.7158249416523215
11
-0.25015168734999205
21
-0.7170012749716813
0
LINE
8
Polygon
10
-0.25015168734999205
20
-0.7170012749716813
11
-0.24946913392685588
21
-0.7181453335267749
0
LINE
8
Polygon
10
-0.24946913392685588
20
-0.7181453335267749
11
-0.24873097994754206
21
-0.7192543321091639
0
LINE
8
Polygon
10
-0.24873097994754206
20
-0.719254332109164
11
-0.24793902244654922
21
-0.7203255708638489
0
LINE
8
Polygon
10
-0.24793902244654922
20
-0.7203255708638489
11
-0.24709518944295014
21
-0.7213564418620609
0
LINE
8
Polygon
10
-0.24709518944295011
20
-0.7213564418620609
11
-0.24620153524663274
21
-0.7223444354502597
0
LINE
8
Polygon
10
-0.24620153524663274
20
-0.7223444354502597
11
-0.2452602354570867
21
-0.7232871463598807
0
LINE
8
Polygon
10
-0.2452602354570867
20
-0.7232871463598807
11
-0.2442735816669102
21
-0.7241822795629561
0
LINE
8
Polygon
10
-0.2442735816669102
20
-0.7241822795629561
11
-0.24324397588293228
21
-0.7250276558593572
0
LINE
8
Polygon
10
-0.2432439758829323
20
-0.7250276558593572
11
-0.24217392467853152
21
-0.7258212171820527
0
LINE
8
Polygon
10
-0.24217392467853152
20
-0.7258212171820527
11
-0.24106603309138766
21
-0.7265610316074688
0
LINE
8
Polygon
10
-0.2410660330913877
20
-0.7265610316074687
11
-0.23992299828152244
21
-0.7272452980587537
0
LINE
8
Polygon
10
-0.23992299828152244
20
-0.7272452980587537
11
-0.2387476029650683
21
-0.7278723506904963
0
LINE
8
Polygon
10
-0.2387476029650683
20
-0.7278723506904963
11
-0.2375427086397512
21
-0.7284406629442234
0
LINE
8
Polygon
10
-0.23754270863975122
20
-0.7284406629442234
11
-0.23631124861857966
21
-0.7289488512648034
0
LINE
8
Polygon
10
-0.23631124861857966
20
-0.7289488512648034
11
-0.23505622088869965
21
-0.7293956784687089
0
LINE
8
Polygon
10
-0.23505622088869965
20
-0.7293956784687089
11
-0.23378068081280048
21
-0.7297800567559376
0
LINE
8
Polygon
10
-0.2337806808128005
20
-0.7297800567559376
11
-0.23248773369083994
21
-0.7301010503582596
0
LINE
8
Polygon
10
-0.23248773369083997
20
-0.7301010503582596
11
-0.23118052720019727
21
-0.7303578778173432
0
LINE
8
Polygon
10
-0.23118052720019724
20
-0.7303578778173432
11
-0.22986224373265834
21
-0.7305499138872137
0
LINE
8
Polygon
10
-0.3369038919957616
20
-0.8907490615229863
11
-0.3320669485186677
21
-0.8985474217950297
0
LINE
8
Polygon
10
-0.3320669485186677
20
-0.8985474217950297
11
-0.3265854469904682
21
-0.905907013232707
0
LINE
8
Polygon
10
-0.32658544699046826
20
-0.905907013232707
11
-0.32049896214398976
21
-0.9127747018793168
0
LINE
8
Polygon
10
-0.32049896214398976
20
-0.9127747018793168
11
-0.3138514365030849
21
-0.9191009051630169
0
LINE
8
Polygon
10
-0.3138514365030849
20
-0.9191009051630169
11
-0.30669086313130434
21
-0.9248399498675416
0
LINE
8
Polygon
10
-0.30669086313130434
20
-0.9248399498675416
11
-0.29906893913693405
21
-0.9299504018785899
0
LINE
8
Polygon
10
-0.29906893913693405
20
-0.9299504018785899
11
-0.2910406924359837
21
-0.9343953653252186
0
LINE
8
Polygon
10
-0.2910406924359837
20
-0.9343953653252186
11
-0.2826640844677816
21
-0.9381427489565324
0
LINE
8
Polygon
10
-0.28266408446778146
20
-0.9381427489565324
11
-0.27399959173144534
21
-0.9411654978305151
0
LINE
8
Polygon
10
-0.27399959173144534
20
-0.9411654978305151
11
-0.2651097691644048
21
-0.9434417886422793
0
LINE
8
Polygon
10
-0.2651097691644048
20
-0.9434417886422793
11
-0.25605879851524754
21
-0.9449551872815278
0
LINE
8
Polygon
10
-0.2560587985152475
20
-0.9449551872815278
11
-0.24691202497149511
21
-0.9456947674817073
0
LINE
8
Polygon
10
-0.24691202497149511
20
-0.9456947674817073
11
-0.2377354853877132
21
-0.9456551897042488
0
LINE
8
Polygon
10
-0.2377354853877132
20
-0.9456551897042488
11
-0.22859543152000014
21
-0.9448367396883719
0
LINE
8
Polygon
10
-0.22859543152000014
20
-0.9448367396883719
11
-0.2195578517089545
21
-0.9432453263881366
0
LINE
8
Polygon
10
-0.2195578517089544
20
-0.9432453263881366
11
-0.21068799446441971
21
-0.9408924393116367
0
LINE
8
Polygon
10
-0.21068799446441971
20
-0.9408924393116367
11
-0.2020498973915769
21
-0.9377950655703311
0
LINE
8
Polygon
10
-0.2020498973915768
20
-0.9377950655703311
11
-0.1937059248593908
21
-0.9339755672373937
0
LINE
8
Polygon
10
-0.1937059248593908
20
-0.9339755672373937
11
-0.18571631774930153
21
-0.9294615199005134
0
LINE
8
Polygon
10
-0.18571631774930153
20
-0.9294615199005134
11
-0.17813875853483258
21
-0.9242855135747443
0
LINE
8
Polygon
10
-0.17813875853483258
20
-0.9242855135747443
11
-0.17102795483210828
21
-0.9184849174127531
0
LINE
8
Polygon
10
-0.1710279548321082
20
-0.918484917412753
11
-0.16443524442791363
21
-0.9121016099111822
0
LINE
8
Polygon
10
-0.16443524442791363
20
-0.9121016099111822
11
-0.15840822463687249
21
-0.9051816765609553
0
LINE
8
Polygon
10
-0.1584082246368724
20
-0.9051816765609552
11
-0.15299040866366836
21
-0.8977750771243932
0
LINE
8
Polygon
10
-0.15299040866366836
20
-0.8977750771243932
11
-0.14822091145126726
21
-0.8899352849413004
0
LINE
8
Polygon
10
-0.14822091145126726
20
-0.8899352849413004
11
-0.1441341672832182
21
-0.8817189008681144
0
LINE
8
Polygon
10
-0.1441341672832182
20
-0.8817189008681144
11
-0.14075968117885745
21
-0.8731852446373619
0
LINE
8
Polygon
10
-0.14075968117885743
20
-0.8731852446373618
11
-0.1381218158762631
21
-0.8643959265876748
0
LINE
8
Polygon
10
-0.1381218158762631
20
-0.8643959265876748
11
-0.1362396159408787
21
-0.855414402856346
0
LINE
8
Polygon
10
-0.1362396159408787
20
-0.8554144028563458
11
-0.1351266702696854
21
-0.8463055172457918
0
LINE
8
Polygon
10
-0.1351266702696854
20
-0.8463055172457918
11
-0.1347910139836006
21
-0.8371350330715076
0
LINE
8
Polygon
10
-0.1347910139836006
20
-0.8371350330715076
11
-0.1352350704164088
21
-0.8279691583714222
0
LINE
8
Polygon
10
-0.1352350704164088
20
-0.8279691583714222
11
-0.136455633619047
21
-0.8188740679044971
0
LINE
8
Polygon
10
-0.136455633619047
20
-0.818874067904497
11
-0.1384438915055578
21
-0.8099154253895893
0
LINE
8
Polygon
10
-0.1384438915055578
20
-0.8099154253895893
11
-0.14118548947360388
21
-0.8011579094338636
0
LINE
8
Polygon
10
-0.14118548947360388
20
-0.8011579094338634
11
-0.1446606340402235
21
-0.7926647465734045
0
LINE
8
Polygon
10
-0.1446606340402235
20
-0.7926647465734045
11
-0.14884423574460925
21
-0.7844972547973299
0
LINE
8
Polygon
10
-0.14884423574460925
20
-0.7844972547973299
11
-0.1537060902861965
21
-0.7767144008510174
0
LINE
8
Polygon
10
-0.1537060902861965
20
-0.7767144008510174
11
-0.15921109659030078
21
-0.7693723745145787
0
LINE
8
Polygon
10
-0.15921109659030083
20
-0.7693723745145787
11
-0.16531951022693844
21
-0.7625241829301583
0
LINE
8
Polygon
10
-0.16531951022693844
20
-0.7625241829301583
11
-0.17198723035322538
21
-0.7562192679068854
0
LINE
8
Polygon
10
-0.17198723035322544
20
-0.7562192679068853
11
-0.17916611810771987
21
-0.7505031489664192
0
LINE
8
Polygon
10
-0.17916611810771987
20
-0.7505031489664192
11
-0.186804344158
21
-0.7454170947061889
0
LINE
8
Polygon
10
-0.186804344158
20
-0.7454170947061889
11
-0.19484676289229272
21
-0.7409978248529798
0
LINE
8
Polygon
10
-0.19484676289229272
20
-0.7409978248529798
11
-0.20323531055360536
21
-0.7372772451579495
0
LINE
8
Polygon
10
-0.20323531055360544
20
-0.7372772451579495
11
-0.21190942444195685
21
-0.7342822170470473
0
LINE
8
Polygon
10
-0.21190942444195685
20
-0.7342822170470473
11
-0.22080648015819804
21
-0.7320343636898895
0
LINE
8
Polygon
10
-0.22080648015819815
20
-0.7320343636898895
11
-0.22986224373265837
21
-0.7305499138872136
0
LINE
8
Polygon
10
-0.33690389199576154
20
-0.8907490615229863
11
-0.3375857954324068
21
-0.889604615431635
0
LINE
8
Polygon
10
-0.3375857954324068
20
-0.889604615431635
11
-0.33832331933189
21
-0.888495197723732
0
LINE
8
Polygon
10
-0.33832331933189
20
-0.888495197723732
11
-0.33911466819364083
21
-0.8874235092746371
0
LINE
8
Polygon
10
-0.33911466819364083
20
-0.8874235092746371
11
-0.3399579154803175
21
-0.8863921591078993
0
LINE
8
Polygon
10
-0.3399579154803175
20
-0.8863921591078993
11
-0.3408510083079589
21
-0.8854036580435937
0
LINE
8
Polygon
10
-0.3408510083079589
20
-0.8854036580435937
11
-0.3417917724437263
21
-0.8844604125857348
0
LINE
8
Polygon
10
-0.3417917724437263
20
-0.8844604125857348
11
-0.34277791759906967
21
-0.8835647190636468
0
LINE
8
Polygon
10
-0.34277791759906967
20
-0.8835647190636468
11
-0.3438070430054306
21
-0.882718758041554
0
LINE
8
Polygon
10
-0.3438070430054306
20
-0.882718758041554
11
-0.3448766432589089
21
-0.8819245890100016
0
LINE
8
Polygon
10
-0.3448766432589089
20
-0.8819245890100016
11
-0.3459841144196639
21
-0.8811841453720294
0
LINE
8
Polygon
10
-0.3459841144196639
20
-0.8811841453720294
11
-0.3471267603512013
21
-0.8804992297363057
0
LINE
8
Polygon
10
-0.3471267603512013
20
-0.8804992297363057
11
-0.3483017992841122
21
-0.8798715095286802
0
LINE
8
Polygon
10
-0.3483017992841122
20
-0.8798715095286802
11
-0.3495063705882856
21
-0.8793025129328382
0
LINE
8
Polygon
10
-0.3495063705882856
20
-0.8793025129328382
11
-0.35073754173710747
21
-0.8787936251699412
0
LINE
8
Polygon
10
-0.35073754173710747
20
-0.8787936251699412
11
-0.35199231544669096
21
-0.8783460851263074
0
LINE
8
Polygon
10
-0.351992315446691
20
-0.8783460851263074
11
-0.3532676369727588
21
-0.8779609823373461
0
LINE
8
Polygon
10
-0.3532676369727588
20
-0.8779609823373461
11
-0.3545604015474123
21
-0.8776392543350854
0
LINE
8
Polygon
10
-0.3545604015474123
20
-0.8776392543350854
11
-0.3558674619376833
21
-0.8773816843657523
0
LINE
8
Polygon
10
-0.3558674619376833
20
-0.8773816843657523
11
-0.357185636107467
21
-0.8771888994829611
0
LINE
8
Polygon
10
-0.357185636107467
20
-0.8771888994829611
11
-0.3585117149641828
21
-0.8770613690211528
0
LINE
8
Polygon
10
-0.3585117149641828
20
-0.8770613690211528
11
-0.35984247017130444
21
-0.8769994034530011
0
LINE
8
Polygon
10
-0.35984247017130444
20
-0.8769994034530011
11
-0.36117466200773923
21
-0.8770031536335671
0
LINE
8
Polygon
10
-0.36117466200773923
20
-0.8770031536335671
11
-0.362505047254923
21
-0.8770726104330431
0
LINE
8
Polygon
10
-0.362505047254923
20
-0.8770726104330431
11
-0.36383038709242993
21
-0.8772076047589791
0
LINE
8
Polygon
10
-0.36383038709242993
20
-0.8772076047589791
11
-0.36514745498287454
21
-0.8774078079679382
0
LINE
8
Polygon
10
-0.36514745498287454
20
-0.8774078079679382
11
-0.3664530445269113
21
-0.8776727326655779
0
LINE
8
Polygon
10
-0.3664530445269113
20
-0.8776727326655779
11
-0.3677439772692079
21
-0.8780017338932116
0
LINE
8
Polygon
10
-0.3677439772692079
20
-0.8780017338932116
11
-0.36901711043638846
21
-0.8783940106979583
0
LINE
8
Polygon
10
-0.36901711043638846
20
-0.8783940106979583
11
-0.3702693445881102
21
-0.878848608082662
0
LINE
8
Polygon
10
-0.3702693445881102
20
-0.878848608082662
11
-0.3714976311626447
21
-0.8793644193308294
0
LINE
8
Polygon
10
-0.3714976311626447
20
-0.8793644193308294
11
-0.3726989798985959
21
-0.8799401887009303
0
LINE
8
Polygon
10
-0.3726989798985959
20
-0.8799401887009303
11
-0.373870466114686
21
-0.8805745144834968
0
LINE
8
Polygon
10
-0.373870466114686
20
-0.8805745144834968
11
-0.3750092378298867
21
-0.8812658524135835
0
LINE
8
Polygon
10
-0.3750092378298867
20
-0.8812658524135835
11
-0.3761125227065616
21
-0.882012519430277
0
LINE
8
Polygon
10
-0.3761125227065616
20
-0.882012519430277
11
-0.37717763479971717
21
-0.8828126977741051
0
LINE
8
Polygon
10
-0.37717763479971717
20
-0.8828126977741051
11
-0.3782019810959308
21
-0.8836644394123683
0
LINE
8
Polygon
10
-0.3782019810959308
20
-0.8836644394123683
11
-0.3791830678260371
21
-0.884565670781622
0
LINE
8
Polygon
10
-0.3791830678260371
20
-0.884565670781622
11
-0.38011850653620466
21
-0.8855141978357632
0
LINE
8
Polygon
10
-0.38011850653620466
20
-0.8855141978357632
11
-0.38100601990262206
21
-0.8865077113874313
0
LINE
8
Polygon
10
-0.38100601990262206
20
-0.8865077113874313
11
-0.38184344727563874
21
-0.8875437927297206
0
LINE
8
Polygon
10
-0.38184344727563874
20
-0.8875437927297206
11
-0.38262874993986257
21
-0.888619919524518
0
LINE
8
Polygon
10
-0.38262874993986257
20
-0.888619919524518
11
-0.38336001607740855
21
-0.8897334719431298
0
LINE
8
Polygon
10
-0.38336001607740855
20
-0.8897334719431298
11
-0.38403546542221617
21
-0.8908817390442507
0
LINE
8
Polygon
10
-0.38403546542221617
20
-0.8908817390442507
11
-0.3846534535941036
21
-0.892061925373745
0
LINE
8
Polygon
10
-0.3846534535941036
20
-0.892061925373745
11
-0.38521247610200826
21
-0.8932711577701741
0
LINE
8
Polygon
10
-0.38521247610200826
20
-0.8932711577701741
11
-0.38571117200666777
21
-0.8945064923595034
0
LINE
8
Polygon
10
-0.38571117200666777
20
-0.8945064923595034
11
-0.38614832723382364
21
-0.8957649217219581
0
LINE
8
Polygon
10
-0.38614832723382364
20
-0.8957649217219581
11
-0.38652287752988324
21
-0.8970433822135805
0
LINE
8
Polygon
10
-0.38652287752988324
20
-0.8970433822135805
11
-0.3870755623822864
21
-0.8991411431433177
0
LINE
8
Polygon
10
-0.3870755623822864
20
-0.8991411431433177
11
-0.3876168622260149
21
-0.9012418706229275
0
LINE
8
Polygon
10
-0.3876168622260149
20
-0.9012418706229275
11
-0.38814676113987917
21
-0.9033455028639557
0
LINE
8
Polygon
10
-0.3881467611398792
20
-0.9033455028639559
11
-0.3886652435380239
21
-0.9054519779925111
0
LINE
8
Polygon
10
-0.3886652435380239
20
-0.9054519779925111
11
-0.38917229417038623
21
-0.9075612340510846
0
LINE
8
Polygon
10
-0.38917229417038623
20
-0.9075612340510846
11
-0.3896678981231448
21
-0.9096732090003721
0
LINE
8
Polygon
10
-0.3896678981231448
20
-0.9096732090003721
11
-0.3901520408191579
21
-0.9117878407210991
0
LINE
8
Polygon
10
-0.3901520408191579
20
-0.9117878407210991
11
-0.39062470801839244
21
-0.913905067015848
0
LINE
8
Polygon
10
-0.3906247080183925
20
-0.9139050670158481
11
-0.391085885818343
21
-0.9160248256108868
0
LINE
8
Polygon
10
-0.391085885818343
20
-0.9160248256108868
11
-0.3915355606544403
21
-0.9181470541580016
0
LINE
8
Polygon
10
-0.3915355606544403
20
-0.9181470541580016
11
-0.39197371930045044
21
-0.9202716902363299
0
LINE
8
Polygon
10
-0.39197371930045044
20
-0.9202716902363299
11
-0.3924003488688639
21
-0.9223986713541971
0
LINE
8
Polygon
10
-0.3924003488688639
20
-0.9223986713541971
11
-0.3928154368112747
21
-0.9245279349509536
0
LINE
8
Polygon
10
-0.39281543681127473
20
-0.9245279349509539
11
-0.39321897091874924
21
-0.9266594183988166
0
LINE
8
Polygon
10
-0.39321897091874924
20
-0.9266594183988166
11
-0.3936109393221856
21
-0.9287930590047095
0
LINE
8
Polygon
10
-0.3936109393221856
20
-0.9287930590047095
11
-0.3939913304926624
21
-0.9309287940121089
0
LINE
8
Polygon
10
-0.3939913304926624
20
-0.9309287940121089
11
-0.3943601332417784
21
-0.9330665606028883
0
LINE
8
Polygon
10
-0.3943601332417784
20
-0.9330665606028885
11
-0.39471733672198095
21
-0.9352062958991667
0
LINE
8
Polygon
10
-0.39471733672198095
20
-0.9352062958991667
11
-0.39506293042688545
21
-0.9373479369651576
0
LINE
8
Polygon
10
-0.39506293042688545
20
-0.9373479369651576
11
-0.39539690419158435
21
-0.9394914208090204
0
LINE
8
Polygon
10
-0.39539690419158435
20
-0.9394914208090204
11
-0.395719248192946
21
-0.941636684384713
0
LINE
8
Polygon
10
-0.395719248192946
20
-0.941636684384713
11
-0.3960299529499036
21
-0.9437836645938468
0
LINE
8
Polygon
10
-0.3960299529499037
20
-0.943783664593847
11
-0.3963290093237342
21
-0.9459322982875414
0
LINE
8
Polygon
10
-0.3963290093237342
20
-0.9459322982875414
11
-0.39661640851832725
21
-0.9480825222682828
0
LINE
8
Polygon
10
-0.39661640851832725
20
-0.9480825222682828
11
-0.39689214208044354
21
-0.9502342732917821
0
LINE
8
Polygon
10
-0.39689214208044354
20
-0.9502342732917821
11
-0.39715620189996376
21
-0.952387488068836
0
LINE
8
Polygon
10
-0.39715620189996376
20
-0.952387488068836
11
-0.39740858021012704
21
-0.9545421032671874
0
LINE
8
Polygon
10
-0.39740858021012704
20
-0.9545421032671876
11
-0.39764926958775937
21
-0.9566980555133895
0
LINE
8
Polygon
10
-0.39764926958775937
20
-0.9566980555133895
11
-0.39787826295349193
21
-0.958855281394668
0
LINE
8
Polygon
10
-0.39787826295349193
20
-0.958855281394668
11
-0.39809555357196946
21
-0.9610137174607886
0
LINE
8
Polygon
10
-0.39809555357196946
20
-0.9610137174607886
11
-0.3983011350520481
21
-0.9631733002259208
0
LINE
8
Polygon
10
-0.3983011350520481
20
-0.9631733002259208
11
-0.3984950013469836
21
-0.9653339661705074
0
LINE
8
Polygon
10
-0.3984950013469837
20
-0.9653339661705075
11
-0.3986771467546092
21
-0.967495651743131
0
LINE
8
Polygon
10
-0.3986771467546092
20
-0.967495651743131
11
-0.398847565917503
21
-0.9696582933623844
0
LINE
8
Polygon
10
-0.398847565917503
20
-0.9696582933623844
11
-0.3990062538231459
21
-0.97182182741874
0
LINE
8
Polygon
10
-0.3990062538231459
20
-0.97182182741874
11
-0.399153205804069
21
-0.9739861902764213
0
LINE
8
Polygon
10
-0.399153205804069
20
-0.9739861902764215
11
-0.39928841753799066
21
-0.9761513182752747
0
LINE
8
Polygon
10
-0.39928841753799066
20
-0.9761513182752747
11
-0.3994118850479438
21
-0.9783171477326406
0
LINE
8
Polygon
10
-0.3994118850479438
20
-0.9783171477326406
11
-0.3995236047023929
21
-0.9804836149452283
0
LINE
8
Polygon
10
-0.3995236047023929
20
-0.9804836149452283
11
-0.39962357321534064
21
-0.9826506561909887
0
LINE
8
Polygon
10
-0.39962357321534064
20
-0.9826506561909887
11
-0.39971178764642484
21
-0.9848182077309887
0
LINE
8
Polygon
10
-0.39971178764642484
20
-0.9848182077309889
11
-0.3997882454010045
21
-0.9869862058112862
0
LINE
8
Polygon
10
-0.3997882454010045
20
-0.9869862058112862
11
-0.3998529442302367
21
-0.9891545866648043
0
LINE
8
Polygon
10
-0.3998529442302367
20
-0.9891545866648043
11
-0.39990588223114215
21
-0.9913232865132083
0
LINE
8
Polygon
10
-0.39990588223114215
20
-0.9913232865132083
11
-0.3999470578466616
21
-0.993492241568781
0
LINE
8
Polygon
10
-0.3999470578466616
20
-0.993492241568781
11
-0.39997646986570157
21
-0.9956613880362987
0
LINE
8
Polygon
10
-0.39997646986570157
20
-0.9956613880362988
11
-0.39999411742316954
21
-0.9978306621149075
0
LINE
8
Polygon
10
-0.39999411742316954
20
-0.9978306621149075
11
-0.4
21
-1.0
0
LINE
8
Polygon
10
0.4
20
-1.0
11
-0.4
21
-1.0
0
ENDSEC
0
EOF
