0
SECTION
2
ENTITIES
0
LINE
8
Polygon
10
-0.2928932188134524
20
-0.2928932188134524
11
-0.29815609840063906
21
-0.290822469420584
0
LINE
8
Polygon
10
-0.29815609840063906
20
-0.290822469420584
11
-0.3034894991115695
21
-0.28894078361951697
0
LINE
8
Polygon
10
-0.3034894991115695
20
-0.28894078361951697
11
-0.3088866314914415
21
-0.28725055680887046
0
LINE
8
Polygon
10
-0.30888663149144147
20
-0.28725055680887046
11
-0.31434062495461157
21
-0.2857539406586874
0
LINE
8
Polygon
10
-0.31434062495461157
20
-0.2857539406586874
11
-0.31984453653089673
21
-0.284452840371344
0
LINE
8
Polygon
10
-0.31984453653089673
20
-0.284452840371344
11
-0.32539135970402183
21
-0.2833489122562146
0
LINE
8
Polygon
10
-0.32539135970402183
20
-0.2833489122562146
11
-0.33097403333096176
21
-0.28244356162117845
0
LINE
8
Polygon
10
-0.3309740333309617
20
-0.28244356162117845
11
-0.3365854506308237
21
-0.28173794098365357
0
LINE
8
Polygon
10
-0.3365854506308237
20
-0.28173794098365357
11
-0.34221846823182683
21
-0.28123294860343445
0
LINE
8
Polygon
10
-0.34221846823182683
20
-0.28123294860343445
11
-0.3478659152648625
21
-0.280929227339201
0
LINE
8
Polygon
10
-0.3478659152648625
20
-0.280929227339201
11
-0.35352060249205836
21
-0.2808271638301556
0
LINE
8
Polygon
10
-0.35352060249205836
20
-0.2808271638301556
11
-0.35917533145872654
21
-0.2809268880038282
0
LINE
8
Polygon
10
-0.35917533145872654
20
-0.2809268880038282
11
-0.3648229036570445
21
-0.2812282729106783
0
LINE
8
Polygon
10
-0.36482290365704445
20
-0.2812282729106783
11
-0.3704561296898037
21
-0.2817309348857024
0
LINE
8
Polygon
10
-0.3704561296898037
20
-0.2817309348857024
11
-0.3760678384225603
21
-0.28243423403684176
0
LINE
8
Polygon
10
-0.3760678384225603
20
-0.28243423403684176
11
-0.3816508861125376
21
-0.28333727505956974
0
LINE
8
Polygon
10
-0.3816508861125376
20
-0.28333727505956974
11
-0.3871981655026581
21
-0.28443890837662017
0
LINE
8
Polygon
10
-0.3871981655026581
20
-0.28443890837662017
11
-0.3927026148691293
21
-0.2857377316014071
0
LINE
8
Polygon
10
-0.3927026148691293
20
-0.2857377316014071
11
-0.39815722701106554
21
-0.2872320913232721
0
LINE
8
Polygon
10
-0.39815722701106554
20
-0.2872320913232721
11
-0.4035550581707016
21
-0.2889200852122873
0
LINE
8
Polygon
10
-0.4035550581707016
20
-0.2889200852122873
11
-0.4088892368728428
21
-0.290799564440934
0
LINE
8
Polygon
10
-0.4088892368728428
20
-0.290799564440934
11
-0.4141529726722988
21
-0.29286813641957443
0
LINE
8
Polygon
10
-0.4141529726722987
20
-0.29286813641957443
11
-0.4193395647981658
21
-0.2951231678422346
0
LINE
8
Polygon
10
-0.4193395647981658
20
-0.2951231678422346
11
-0.42444241068395305
21
-0.29756178803882005
0
LINE
8
Polygon
10
-0.42444241068395305
20
-0.29756178803882005
11
-0.42945501437269384
21
-0.30018089262949854
0
LINE
8
Polygon
10
-0.42945501437269384
20
-0.30018089262949854
11
-0.43437099478634217
21
-0.30297714747659615
0
LINE
8
Polygon
10
-0.43437099478634217
20
-0.30297714747659615
11
-0.4391840938489281
21
-0.30594699292897665
0
LINE
8
Polygon
10
-0.4391840938489281
20
-0.30594699292897665
11
-0.44388818445313016
21
-0.30908664835350164
0
LINE
8
Polygon
10
-0.44388818445313016
20
-0.30908664835350164
11
-0.44847727826012396
21
-0.31239211694780133
0
LINE
8
Polygon
10
-0.44847727826012396
20
-0.31239211694780133
11
-0.45294553332277776
21
-0.31585919082823133
0
LINE
8
Polygon
10
-0.45294553332277776
20
-0.31585919082823133
11
-0.45728726152249
21
-0.31948345638653614
0
LINE
8
Polygon
10
-0.45728726152249
20
-0.31948345638653614
11
-0.4614969358102026
21
-0.3232602999084022
0
LINE
8
Polygon
10
-0.4614969358102026
20
-0.3232602999084022
11
-0.4655691972423714
21
-0.3271849134467473
0
LINE
8
Polygon
10
-0.4655691972423714
20
-0.3271849134467473
11
-0.4694988618029369
21
-0.33125230094226904
0
LINE
8
Polygon
10
-0.4694988618029369
20
-0.33125230094226904
11
-0.47328092700261165
21
-0.33545728458346197
0
LINE
8
Polygon
10
-0.4732809270026116
20
-0.3354572845834619
11
-0.4769105782470825
21
-0.3397945113980062
0
LINE
8
Polygon
10
-0.4769105782470825
20
-0.3397945113980062
11
-0.4803831949660215
21
-0.3442584600671371
0
LINE
8
Polygon
10
-0.4803831949660215
20
-0.3442584600671371
11
-0.4836943564951026
21
-0.34884344795432115
0
LINE
8
Polygon
10
-0.4836943564951026
20
-0.34884344795432115
11
-0.4868398477035373
21
-0.3535436383392897
0
LINE
8
Polygon
10
-0.4868398477035373
20
-0.35354363833928965
11
-0.4898156643599638
21
-0.3583530478482237
0
LINE
8
Polygon
10
-0.4898156643599638
20
-0.3583530478482237
11
-0.4926180182298612
21
-0.3632655540706281
0
LINE
8
Polygon
10
-0.4926180182298612
20
-0.3632655540706281
11
-0.4952433418979961
21
-0.3682749033532018
0
LINE
8
Polygon
10
-0.4952433418979961
20
-0.3682749033532018
11
-0.49768829330976766
21
-0.37337471876077954
0
LINE
8
Polygon
10
-0.49768829330976766
20
-0.37337471876077954
11
-0.49994976002566405
21
-0.37855850819421366
0
LINE
8
Polygon
10
-0.49994976002566405
20
-0.37855850819421366
11
-0.5020248631834197
21
-0.3838196726548596
0
LINE
8
Polygon
10
-0.5020248631834197
20
-0.3838196726548596
11
-0.5039109611628256
21
-0.3891515146451451
0
LINE
8
Polygon
10
-0.5039109611628256
20
-0.3891515146451451
11
-0.5056056529485303
21
-0.3945472466945297
0
LINE
8
Polygon
10
-0.5056056529485303
20
-0.3945472466945297
11
-0.5071067811865475
21
-0.4
0
LINE
8
Polygon
10
-0.5071067811865476
20
-0.4
11
-0.5075153331269179
21
-0.4014755130247202
0
LINE
8
Polygon
10
-0.5075153331269179
20
-0.4014755130247202
11
-0.5079805758107954
21
-0.40293414341628536
0
LINE
8
Polygon
10
-0.5079805758107954
20
-0.40293414341628536
11
-0.5085018147912203
21
-0.4043737139423051
0
LINE
8
Polygon
10
-0.5085018147912203
20
-0.4043737139423051
11
-0.5090782720380638
21
-0.40579207582019833
0
LINE
8
Polygon
10
-0.5090782720380638
20
-0.40579207582019833
11
-0.5097090870993589
21
-0.407187111924585
0
LINE
8
Polygon
10
-0.5097090870993589
20
-0.407187111924585
11
-0.5103933183856586
21
-0.4085567399474247
0
LINE
8
Polygon
10
-0.5103933183856586
20
-0.4085567399474247
11
-0.5111299445755042
21
-0.4098989155061847
0
LINE
8
Polygon
10
-0.5111299445755042
20
-0.4098989155061847
11
-0.5119178661399064
21
-0.4112116351953983
0
LINE
8
Polygon
10
-0.5119178661399064
20
-0.4112116351953983
11
-0.5127559069835631
21
-0.4124929395770588
0
LINE
8
Polygon
10
-0.5127559069835631
20
-0.4124929395770588
11
-0.5136428162003639
21
-0.4137409161053849
0
LINE
8
Polygon
10
-0.5136428162003639
20
-0.4137409161053849
11
-0.5145772699405622
21
-0.4149537019815924
0
LINE
8
Polygon
10
-0.5145772699405622
20
-0.4149537019815924
11
-0.5155578733868266
21
-0.4161294869344106
0
LINE
8
Polygon
10
-0.5155578733868266
20
-0.4161294869344106
11
-0.5165831628362216
21
-0.4172665159221933
0
LINE
8
Polygon
10
-0.5165831628362216
20
-0.4172665159221933
11
-0.5176516078850129
21
-0.41836309175259123
0
LINE
8
Polygon
10
-0.5176516078850129
20
-0.41836309175259123
11
-0.518761613713031
21
-0.4194175776158748
0
LINE
8
Polygon
10
-0.518761613713031
20
-0.4194175776158748
11
-0.5199115234641895
21
-0.4204283995281273
0
LINE
8
Polygon
10
-0.5199115234641895
20
-0.4204283995281273
11
-0.5210996207195991
21
-0.42139404868066
0
LINE
8
Polygon
10
-0.5210996207195991
20
-0.42139404868066
11
-0.52232413205959
21
-0.42231308369214365
0
LINE
8
Polygon
10
-0.52232413205959
20
-0.42231308369214365
11
-0.5235832297108158
21
-0.42318413276009376
0
LINE
8
Polygon
10
-0.5235832297108158
20
-0.42318413276009376
11
-0.5248750342744892
21
-0.4240058957084991
0
LINE
8
Polygon
10
-0.5248750342744892
20
-0.4240058957084991
11
-0.5261976175316765
21
-0.4247771459285361
0
LINE
8
Polygon
10
-0.5261976175316765
20
-0.4247771459285361
11
-0.5275490053214638
21
-0.42549673220947315
0
LINE
8
Polygon
10
-0.5275490053214638
20
-0.42549673220947315
11
-0.5289271804876992
21
-0.4261635804570313
0
LINE
8
Polygon
10
-0.5289271804876992
20
-0.4261635804570313
11
-0.5303300858899107
21
-0.4267766952966369
0
LINE
8
Polygon
10
-0.5303300858899107
20
-0.4267766952966369
11
-0.531755627473909
21
-0.4273351615591727
0
LINE
8
Polygon
10
-0.531755627473909
20
-0.4273351615591727
11
-0.5332016773974877
21
-0.4278381456470099
0
LINE
8
Polygon
10
-0.5332016773974877
20
-0.4278381456470099
11
-0.5346660772065583
21
-0.42828489677828185
0
LINE
8
Polygon
10
-0.5346660772065583
20
-0.42828489677828185
11
-0.5361466410569791
21
-0.42867474810754297
0
LINE
8
Polygon
10
-0.5361466410569791
20
-0.42867474810754297
11
-0.5376411589772655
21
-0.42900711772113886
0
LINE
8
Polygon
10
-0.5376411589772655
20
-0.42900711772113886
11
-0.539147400167317
21
-0.4292815095058029
0
LINE
8
Polygon
10
-0.539147400167317
20
-0.4292815095058029
11
-0.5406631163282324
21
-0.42949751388918245
0
LINE
8
Polygon
10
-0.5406631163282324
20
-0.42949751388918245
11
-0.5421860450182446
21
-0.4296548084511888
0
LINE
8
Polygon
10
-0.5421860450182446
20
-0.4296548084511888
11
-0.543713913029767
21
-0.4297531584052598
0
LINE
8
Polygon
10
-0.543713913029767
20
-0.4297531584052598
11
-0.5452444397825084
21
-0.42979241694881487
0
LINE
8
Polygon
10
-0.5452444397825084
20
-0.42979241694881487
11
-0.5467753407275934
21
-0.42977252548238065
0
LINE
8
Polygon
10
-0.5467753407275934
20
-0.42977252548238065
11
-0.5483043307576065
21
-0.4296935136970601
0
LINE
8
Polygon
10
-0.5483043307576065
20
-0.4296935136970601
11
-0.5498291276174698
21
-0.42955549953021366
0
LINE
8
Polygon
10
-0.5498291276174698
20
-0.42955549953021366
11
-0.5513474553110628
21
-0.4293586889894195
0
LINE
8
Polygon
10
-0.5513474553110628
20
-0.4293586889894195
11
-0.5528570474985005
21
-0.4291033758449751
0
LINE
8
Polygon
10
-0.5528570474985005
20
-0.4291033758449751
11
-0.5543556508789976
21
-0.4287899411913998
0
LINE
8
Polygon
10
-0.5543556508789976
20
-0.4287899411913998
11
-0.5558410285542696
21
-0.4284188528785917
0
LINE
8
Polygon
10
-0.5558410285542696
20
-0.4284188528785917
11
-0.5573109633674511
21
-0.42799066481348913
0
LINE
8
Polygon
10
-0.5573109633674511
20
-0.42799066481348913
11
-0.5587632612125467
21
-0.4275060161332786
0
LINE
8
Polygon
10
-0.5587632612125467
20
-0.4275060161332786
11
-0.560195754309475
21
-0.4269656302513831
0
LINE
8
Polygon
10
-0.560195754309475
20
-0.4269656302513831
11
-0.5616063044398169
21
-0.4263703137776555
0
LINE
8
Polygon
10
-0.5616063044398169
20
-0.4263703137776555
11
-0.5629928061384389
21
-0.4257209553143878
0
LINE
8
Polygon
10
-0.5629928061384389
20
-0.4257209553143878
11
-0.5643531898362266
21
-0.42501852412993446
0
LINE
8
Polygon
10
-0.5643531898362266
20
-0.42501852412993446
11
-0.5656854249492381
21
-0.42426406871192857
0
LINE
8
Polygon
10
-0.565685424949238
20
-0.42426406871192857
11
-0.5802939785622302
21
-0.416611238151573
0
LINE
8
Polygon
10
-0.5802939785622302
20
-0.416611238151573
11
-0.5956185918222758
21
-0.41051764457477374
0
LINE
8
Polygon
10
-0.5956185918222758
20
-0.41051764457477374
11
-0.6114933856551471
21
-0.40604924720960955
0
LINE
8
Polygon
10
-0.6114933856551471
20
-0.40604924720960955
11
-0.6277465256360617
21
-0.4032544135812923
0
LINE
8
Polygon
10
-0.6277465256360617
20
-0.4032544135812923
11
-0.6442020819867224
21
-0.40216339596483985
0
LINE
8
Polygon
10
-0.6442020819867224
20
-0.40216339596483985
11
-0.6606819339019229
21
-0.4027880039236722
0
LINE
8
Polygon
10
-0.6606819339019229
20
-0.4027880039236722
11
-0.6770076975926099
21
-0.40512147647868957
0
LINE
8
Polygon
10
-0.6770076975926099
20
-0.40512147647868957
11
-0.6930026571755754
21
-0.40913855529151855
0
LINE
8
Polygon
10
-0.6930026571755754
20
-0.40913855529151855
11
-0.7084936775091414
21
-0.4147957580697669
0
LINE
8
Polygon
10
-0.7084936775091414
20
-0.4147957580697669
11
-0.723313078269624
21
-0.42203184923484915
0
LINE
8
Polygon
10
-0.723313078269624
20
-0.4220318492348492
11
-0.7373004489829026
21
-0.4307685027577086
0
LINE
8
Polygon
10
-0.7373004489829026
20
-0.4307685027577086
11
-0.7503043853645474
21
-0.44091114998766345
0
LINE
8
Polygon
10
-0.7503043853645474
20
-0.44091114998766345
11
-0.7621841281737409
21
-0.45235000329717795
0
LINE
8
Polygon
10
-0.7621841281737409
20
-0.452350003297178
11
-0.7728110868414546
21
-0.46496124446226095
0
LINE
8
Polygon
10
-0.7728110868414546
20
-0.46496124446226095
11
-0.7820702313805855
21
-0.4786083649150399
0
LINE
8
Polygon
10
-0.7820702313805855
20
-0.4786083649150399
11
-0.7898613375115235
21
-0.49314364336113903
0
LINE
8
Polygon
10
-0.7898613375115235
20
-0.4931436433611391
11
-0.7961000715254646
21
-0.508409744767604
0
LINE
8
Polygon
10
-0.7961000715254646
20
-0.508409744767604
11
-0.800718903142523
21
-0.5242414234133584
0
LINE
8
Polygon
10
-0.800718903142523
20
-0.5242414234133584
11
-0.8036678364835436
21
-0.5404673115677675
0
LINE
8
Polygon
10
-0.8036678364835436
20
-0.5404673115677676
11
-0.8049149512433109
21
-0.5569117744360144
0
LINE
8
Polygon
10
-0.8049149512433109
20
-0.5569117744360144
11
-0.8044467482073068
21
-0.573396811292699
0
LINE
8
Polygon
10
-0.8044467482073068
20
-0.573396811292699
11
-0.8022682953720179
21
-0.5897439822251141
0
LINE
8
Polygon
10
-0.8022682953720179
20
-0.5897439822251141
11
-0.7984031730871364
21
-0.6057763396304394
0
LINE
8
Polygon
10
-0.7984031730871364
20
-0.6057763396304394
11
-0.7928932188134525
21
-0.6213203435596428
0
LINE
8
Polygon
10
-0.7928932188134525
20
-0.6213203435596428
11
-0.7857980742592722
21
-0.6362077401757225
0
LINE
8
Polygon
10
-0.7857980742592722
20
-0.6362077401757225
11
-0.7771945397973152
21
-0.6502773829931893
0
LINE
8
Polygon
10
-0.7771945397973152
20
-0.6502773829931893
11
-0.7671757431501167
21
-0.6633769771850434
0
LINE
8
Polygon
10
-0.7671757431501167
20
-0.6633769771850434
11
-0.7558501313423754
21
-0.6753647280762459
0
LINE
8
Polygon
10
-0.7558501313423753
20
-0.675364728076246
11
-0.7433402968317183
21
-0.6861108759798044
0
LINE
8
Polygon
10
-0.7433402968317183
20
-0.6861108759798044
11
-0.7297816505242584
21
-0.6954991007618587
0
LINE
8
Polygon
10
-0.7297816505242585
20
-0.6954991007618587
11
-0.7153209560386984
21
-0.7034277809322571
0
LINE
8
Polygon
10
-0.7153209560386984
20
-0.7034277809322571
11
-0.7001147410846287
21
-0.7098110936317732
0
LINE
8
Polygon
10
-0.7001147410846287
20
-0.7098110936317732
11
-0.6843276031508267
21
-0.7145799436093141
0
LINE
8
Polygon
10
-0.684327603150827
20
-0.7145799436093141
11
-0.6681304278433914
21
-0.7176827111335379
0
LINE
8
Polygon
10
-0.6681304278433914
20
-0.7176827111335379
11
-0.6516985391590527
21
-0.7190858107432174
0
LINE
8
Polygon
10
-0.6516985391590527
20
-0.7190858107432174
11
-0.635209801715764
21
-0.7187740547882404
0
LINE
8
Polygon
10
-0.6352098017157641
20
-0.7187740547882404
11
-0.6188426954827005
21
-0.716750817826145
0
LINE
8
Polygon
10
-0.6188426954827005
20
-0.716750817826145
11
-0.6027743838494799
21
-0.7130380000947067
0
LINE
8
Polygon
10
-0.6027743838494799
20
-0.7130380000947067
11
-0.5871787959465077
21
-0.7076757904559622
0
LINE
8
Polygon
10
-0.5871787959465078
20
-0.7076757904559622
11
-0.5722247439740978
21
-0.7007222313776457
0
LINE
8
Polygon
10
-0.5722247439740978
20
-0.7007222313776457
11
-0.558074095919066
21
-0.6922525906608382
0
LINE
8
Polygon
10
-0.558074095919066
20
-0.6922525906608382
11
-0.5448800234379666
21
-0.6823585467144697
0
LINE
8
Polygon
10
-0.5448800234379667
20
-0.6823585467144698
11
-0.5327853438725048
21
-0.6711471961955549
0
LINE
8
Polygon
10
-0.5327853438725048
20
-0.6711471961955549
11
-0.5219209743437427
21
-0.6587398947568178
0
LINE
8
Polygon
10
-0.5219209743437427
20
-0.6587398947568178
11
-0.5124045146585352
21
-0.6452709434498675
0
LINE
8
Polygon
10
-0.5124045146585353
20
-0.6452709434498676
11
-0.5043389743673172
21
-0.6308861350027621
0
LINE
8
Polygon
10
-0.5043389743673172
20
-0.6308861350027621
11
-0.4978116577520273
21
-0.615741175707573
0
LINE
8
Polygon
10
-0.4978116577520273
20
-0.615741175707573
11
-0.4928932188134524
21
-0.6
0
LINE
8
Polygon
10
-0.49289321881345244
20
-0.6000000000000001
11
-0.4924846668730821
21
-0.5985244869752799
0
LINE
8
Polygon
10
-0.4924846668730821
20
-0.5985244869752799
11
-0.4920194241892047
21
-0.5970658565837148
0
LINE
8
Polygon
10
-0.4920194241892047
20
-0.5970658565837148
11
-0.4914981852087798
21
-0.595626286057695
0
LINE
8
Polygon
10
-0.4914981852087798
20
-0.595626286057695
11
-0.4909217279619363
21
-0.5942079241798018
0
LINE
8
Polygon
10
-0.4909217279619363
20
-0.5942079241798018
11
-0.49029091290064114
21
-0.5928128880754151
0
LINE
8
Polygon
10
-0.49029091290064114
20
-0.5928128880754151
11
-0.48960668161434145
21
-0.5914432600525754
0
LINE
8
Polygon
10
-0.48960668161434145
20
-0.5914432600525754
11
-0.48887005542449585
21
-0.5901010844938155
0
LINE
8
Polygon
10
-0.48887005542449585
20
-0.5901010844938155
11
-0.48808213386009364
21
-0.5887883648046018
0
LINE
8
Polygon
10
-0.48808213386009364
20
-0.5887883648046018
11
-0.487244093016437
21
-0.5875070604229413
0
LINE
8
Polygon
10
-0.48724409301643695
20
-0.5875070604229413
11
-0.48635718379963616
21
-0.5862590838946152
0
LINE
8
Polygon
10
-0.48635718379963616
20
-0.5862590838946152
11
-0.4854227300594378
21
-0.5850462980184077
0
LINE
8
Polygon
10
-0.4854227300594378
20
-0.5850462980184077
11
-0.4844421266131735
21
-0.5838705130655895
0
LINE
8
Polygon
10
-0.4844421266131735
20
-0.5838705130655895
11
-0.48341683716377837
21
-0.5827334840778068
0
LINE
8
Polygon
10
-0.48341683716377837
20
-0.5827334840778068
11
-0.48234839211498726
21
-0.5816369082474089
0
LINE
8
Polygon
10
-0.48234839211498726
20
-0.5816369082474089
11
-0.48123838628696913
21
-0.5805824223841253
0
LINE
8
Polygon
10
-0.48123838628696913
20
-0.5805824223841253
11
-0.48008847653581066
21
-0.5795716004718728
0
LINE
8
Polygon
10
-0.4800884765358106
20
-0.5795716004718728
11
-0.47890037928040097
21
-0.5786059513193401
0
LINE
8
Polygon
10
-0.47890037928040097
20
-0.5786059513193401
11
-0.47767586794041
21
-0.5776869163078565
0
LINE
8
Polygon
10
-0.47767586794041
20
-0.5776869163078565
11
-0.4764167702891842
21
-0.5768158672399063
0
LINE
8
Polygon
10
-0.4764167702891842
20
-0.5768158672399063
11
-0.4751249657255109
21
-0.575994104291501
0
LINE
8
Polygon
10
-0.47512496572551083
20
-0.575994104291501
11
-0.4738023824683236
21
-0.575222854071464
0
LINE
8
Polygon
10
-0.4738023824683236
20
-0.575222854071464
11
-0.47245099467853624
21
-0.574503267790527
0
LINE
8
Polygon
10
-0.47245099467853624
20
-0.574503267790527
11
-0.47107281951230096
21
-0.5738364195429688
0
LINE
8
Polygon
10
-0.47107281951230096
20
-0.5738364195429688
11
-0.46966991411008935
21
-0.5732233047033631
0
LINE
8
Polygon
10
-0.46966991411008935
20
-0.5732233047033631
11
-0.468244372526091
21
-0.5726648384408274
0
LINE
8
Polygon
10
-0.468244372526091
20
-0.5726648384408274
11
-0.4667983226025124
21
-0.5721618543529903
0
LINE
8
Polygon
10
-0.4667983226025124
20
-0.5721618543529903
11
-0.46533392279344166
21
-0.5717151032217183
0
LINE
8
Polygon
10
-0.46533392279344166
20
-0.5717151032217183
11
-0.463853358943021
21
-0.5713252518924571
0
LINE
8
Polygon
10
-0.463853358943021
20
-0.5713252518924571
11
-0.4623588410227346
21
-0.5709928822788612
0
LINE
8
Polygon
10
-0.4623588410227346
20
-0.5709928822788612
11
-0.460852599832683
21
-0.5707184904941972
0
LINE
8
Polygon
10
-0.460852599832683
20
-0.5707184904941972
11
-0.45933688367176767
21
-0.5705024861108177
0
LINE
8
Polygon
10
-0.45933688367176767
20
-0.5705024861108177
11
-0.4578139549817554
21
-0.5703451915488114
0
LINE
8
Polygon
10
-0.4578139549817554
20
-0.5703451915488114
11
-0.45628608697023304
21
-0.5702468415947403
0
LINE
8
Polygon
10
-0.45628608697023304
20
-0.5702468415947403
11
-0.45475556021749164
21
-0.5702075830511852
0
LINE
8
Polygon
10
-0.45475556021749164
20
-0.5702075830511852
11
-0.4532246592724066
21
-0.5702274745176195
0
LINE
8
Polygon
10
-0.4532246592724066
20
-0.5702274745176195
11
-0.45169566924239346
21
-0.57030648630294
0
LINE
8
Polygon
10
-0.45169566924239346
20
-0.57030648630294
11
-0.45017087238253023
21
-0.5704445004697865
0
LINE
8
Polygon
10
-0.45017087238253023
20
-0.5704445004697865
11
-0.4486525446889372
21
-0.5706413110105807
0
LINE
8
Polygon
10
-0.4486525446889372
20
-0.5706413110105807
11
-0.4471429525014995
21
-0.570896624155025
0
LINE
8
Polygon
10
-0.4471429525014995
20
-0.570896624155025
11
-0.4456443491210024
21
-0.5712100588086003
0
LINE
8
Polygon
10
-0.4456443491210024
20
-0.5712100588086003
11
-0.44415897144573047
21
-0.5715811471214084
0
LINE
8
Polygon
10
-0.44415897144573047
20
-0.5715811471214084
11
-0.442689036632549
21
-0.572009335186511
0
LINE
8
Polygon
10
-0.442689036632549
20
-0.572009335186511
11
-0.4412367387874534
21
-0.5724939838667216
0
LINE
8
Polygon
10
-0.4412367387874534
20
-0.5724939838667216
11
-0.4398042456905251
21
-0.573034369748617
0
LINE
8
Polygon
10
-0.4398042456905251
20
-0.573034369748617
11
-0.43839369556018315
21
-0.5736296862223447
0
LINE
8
Polygon
10
-0.43839369556018315
20
-0.5736296862223447
11
-0.4370071938615611
21
-0.5742790446856123
0
LINE
8
Polygon
10
-0.4370071938615611
20
-0.5742790446856123
11
-0.4356468101637734
21
-0.5749814758700657
0
LINE
8
Polygon
10
-0.4356468101637734
20
-0.5749814758700657
11
-0.43431457505076193
21
-0.5757359312880715
0
LINE
8
Polygon
10
-0.434314575050762
20
-0.5757359312880715
11
-0.42939743825579385
21
-0.5785301521699744
0
LINE
8
Polygon
10
-0.42939743825579385
20
-0.5785301521699744
11
-0.42438375148051555
21
-0.5811471828378669
0
LINE
8
Polygon
10
-0.42438375148051555
20
-0.5811471828378669
11
-0.4192798971817493
21
-0.5835836917941928
0
LINE
8
Polygon
10
-0.4192798971817493
20
-0.5835836917941928
11
-0.4140923726001783
21
-0.5858365773467425
0
LINE
8
Polygon
10
-0.4140923726001783
20
-0.5858365773467425
11
-0.4088277814893158
21
-0.587902971557129
0
LINE
8
Polygon
10
-0.4088277814893158
20
-0.587902971557129
11
-0.4034928257088827
21
-0.5897802438916916
0
LINE
8
Polygon
10
-0.4034928257088827
20
-0.5897802438916916
11
-0.3980942966932951
21
-0.5914660045701835
0
LINE
8
Polygon
10
-0.3980942966932951
20
-0.5914660045701835
11
-0.39263906680612304
21
-0.5929581076079781
0
LINE
8
Polygon
10
-0.39263906680612304
20
-0.5929581076079781
11
-0.3871340805915256
21
-0.5942546535479213
0
LINE
8
Polygon
10
-0.38713408059152576
20
-0.5942546535479213
11
-0.3815863459337998
21
-0.5953539918783535
0
LINE
8
Polygon
10
-0.3815863459337998
20
-0.5953539918783535
11
-0.3760029251362966
21
-0.5962547231342222
0
LINE
8
Polygon
10
-0.3760029251362966
20
-0.5962547231342222
11
-0.3703909259310618
21
-0.5969557006786098
0
LINE
8
Polygon
10
-0.3703909259310618
20
-0.5969557006786098
11
-0.3647574924306459
21
-0.5974560321624106
0
LINE
8
Polygon
10
-0.3647574924306459
20
-0.5974560321624106
11
-0.3591097960336002
21
-0.5977550806602969
0
LINE
8
Polygon
10
-0.3591097960336002
20
-0.5977550806602969
11
-0.3534550262952391
21
-0.5978524654815294
0
LINE
8
Polygon
10
-0.3534550262952391
20
-0.5978524654815294
11
-0.34780038177528777
21
-0.5977480626545788
0
LINE
8
Polygon
10
-0.34780038177528777
20
-0.5977480626545788
11
-0.34215306087406755
21
-0.5974420050849425
0
LINE
8
Polygon
10
-0.34215306087406755
20
-0.5974420050849425
11
-0.33652025266888397
21
-0.5969346823859554
0
LINE
8
Polygon
10
-0.33652025266888397
20
-0.5969346823859554
11
-0.3309091277622836
21
-0.5962267403828085
0
LINE
8
Polygon
10
-0.3309091277622836
20
-0.5962267403828085
11
-0.32532682915382855
21
-0.5953190802904105
0
LINE
8
Polygon
10
-0.32532682915382855
20
-0.5953190802904105
11
-0.31978046314701064
21
-0.5942128575661341
0
LINE
8
Polygon
10
-0.31978046314701064
20
-0.5942128575661341
11
-0.3142770903028792
21
-0.5929094804389112
0
LINE
8
Polygon
10
-0.3142770903028792
20
-0.5929094804389112
11
-0.30882371645189977
21
-0.5914106081165487
0
LINE
8
Polygon
10
-0.30882371645189977
20
-0.5914106081165487
11
-0.3034272837754849
21
-0.589718148673545
0
LINE
8
Polygon
10
-0.303427283775485
20
-0.589718148673545
11
-0.2980946619685509
21
-0.587834256622099
0
LINE
8
Polygon
10
-0.2980946619685507
20
-0.587834256622099
11
-0.2928326394943497
21
-0.5857613301694014
0
LINE
8
Polygon
10
-0.2928326394943498
20
-0.5857613301694014
11
-0.2876479149427109
21
-0.5835020081647008
0
LINE
8
Polygon
10
-0.2876479149427109
20
-0.5835020081647008
11
-0.2825470885026907
21
-0.5810591667400312
0
LINE
8
Polygon
10
-0.2825470885026907
20
-0.5810591667400312
11
-0.2775366535604879
21
-0.5784359156488766
0
LINE
8
Polygon
10
-0.2775366535604879
20
-0.5784359156488766
11
-0.2726229884333195
21
-0.5756355943074338
0
LINE
8
Polygon
10
-0.2726229884333195
20
-0.5756355943074338
11
-0.2678123482497803
21
-0.5726617675435135
0
LINE
8
Polygon
10
-0.2678123482497803
20
-0.5726617675435135
11
-0.26311085698702236
21
-0.5695182210584904
0
LINE
8
Polygon
10
-0.26311085698702236
20
-0.5695182210584904
11
-0.2585244996748909
21
-0.56620895660808
0
LINE
8
Polygon
10
-0.2585244996748909
20
-0.56620895660808
11
-0.25405911477694154
21
-0.5627381869080774
0
LINE
8
Polygon
10
-0.25405911477694154
20
-0.5627381869080774
11
-0.2497203867580368
21
-0.5591103302715409
0
LINE
8
Polygon
10
-0.2497203867580368
20
-0.5591103302715409
11
-0.24551383884798453
21
-0.5553300049842507
0
LINE
8
Polygon
10
-0.24551383884798453
20
-0.5553300049842507
11
-0.24144482601042933
21
-0.5514020234255997
0
LINE
8
Polygon
10
-0.24144482601042933
20
-0.5514020234255997
11
-0.23751852812594793
21
-0.5473313859424028
0
LINE
8
Polygon
10
-0.23751852812594793
20
-0.5473313859424028
11
-0.23373994339802656
21
-0.5431232744834215
0
LINE
8
Polygon
10
-0.23373994339802664
20
-0.5431232744834216
11
-0.2301138819903146
21
-0.5387830460027085
0
LINE
8
Polygon
10
-0.23011388199031452
20
-0.5387830460027084
11
-0.22664495990325362
21
-0.5343162256401696
0
LINE
8
Polygon
10
-0.22664495990325373
20
-0.5343162256401697
11
-0.22333759309787882
21
-0.5297284996880236
0
LINE
8
Polygon
10
-0.22333759309787873
20
-0.5297284996880235
11
-0.2201959918742698
21
-0.5250257083521135
0
LINE
8
Polygon
10
-0.2201959918742699
20
-0.5250257083521136
11
-0.21722415551181176
21
-0.520213838317287
0
LINE
8
Polygon
10
-0.21722415551181176
20
-0.520213838317287
11
-0.21442586717808487
21
-0.5152990151263045
0
LINE
8
Polygon
10
-0.21442586717808487
20
-0.5152990151263045
11
-0.21180468911286734
21
-0.5102874953819841
0
LINE
8
Polygon
10
-0.21180468911286734
20
-0.5102874953819841
11
-0.20936395809338018
21
-0.5051856587825031
0
LINE
8
Polygon
10
-0.20936395809338018
20
-0.5051856587825031
11
-0.2071067811865474
21
-0.5
0
LINE
8
Polygon
10
0
20
0
11
-0.2071067811865474
21
-0.5
0
LINE
8
Polygon
10
-0.2928932188134524
20
-0.2928932188134524
11
-0.5
21
0.20710678118654754
0
LINE
8
Polygon
10
-0.5
20
0.20710678118654754
11
0
21
0
0
ENDSEC
0
EOF
