0
SECTION
2
ENTITIES
0
LINE
8
Polygon
10
-8.784049541554436
20
-45.05982868997852
11
-8.67264671179118
21
-45.32252139450761
0
LINE
8
Polygon
10
-8.67264671179118
20
-45.32252139450761
11
-8.5568505334146
21
-45.58330730778793
0
LINE
8
Polygon
10
-8.556850533414604
20
-45.583307307787926
11
-8.436693628911732
21
-45.84211296033895
0
LINE
8
Polygon
10
-8.436693628911732
20
-45.84211296033895
11
-8.31220984928795
21
-46.09886544056582
0
LINE
8
Polygon
10
-8.31220984928795
20
-46.09886544056582
11
-8.183434264530396
21
-46.35349241530028
0
LINE
8
Polygon
10
-8.183434264530401
20
-46.353492415300266
11
-8.050403153727913
21
-46.60592215017857
0
LINE
8
Polygon
10
-8.050403153727913
20
-46.60592215017857
11
-7.913153994850386
21
-46.85608352985074
0
LINE
8
Polygon
10
-7.913153994850386
20
-46.85608352985074
11
-7.771725454190323
21
-47.10390607801542
0
LINE
8
Polygon
10
-7.771725454190329
20
-47.10390607801542
11
-7.62615737546967
21
-47.3493199772747
0
LINE
8
Polygon
10
-7.62615737546967
20
-47.3493199772747
11
-7.476490768614877
21
-47.59225608880332
0
LINE
8
Polygon
10
-7.476490768614877
20
-47.59225608880332
11
-7.322767798203472
21
-47.83264597182665
0
LINE
8
Polygon
10
-7.322767798203477
20
-47.832645971826636
11
-7.165031771585309
21
-48.07042190290206
0
LINE
8
Polygon
10
-7.165031771585309
20
-48.07042190290206
11
-7.003327126681852
21
-48.30551689499828
0
LINE
8
Polygon
10
-7.003327126681852
20
-48.30551689499828
11
-6.837699419467014
21
-48.537864716367075
0
LINE
8
Polygon
10
-6.837699419467016
20
-48.537864716367075
11
-6.668195311132943
21
-48.76739990920238
0
LINE
8
Polygon
10
-6.668195311132943
20
-48.76739990920238
11
-6.494862554944494
21
-48.99405780808126
0
LINE
8
Polygon
10
-6.494862554944494
20
-48.99405780808126
11
-6.317749982786008
21
-49.21777455818164
0
LINE
8
Polygon
10
-6.3177499827860135
20
-49.21777455818164
11
-6.136907491404245
21
-49.43848713327174
0
LINE
8
Polygon
10
-6.136907491404245
20
-49.43848713327174
11
-5.952386028351276
21
-49.65613335346604
0
LINE
8
Polygon
10
-5.952386028351276
20
-49.65613335346604
11
-5.764237577631404
21
-49.87065190274274
0
LINE
8
Polygon
10
-5.764237577631409
20
-49.87065190274274
11
-5.572515145056041
21
-50.08198234621801
0
LINE
8
Polygon
10
-5.572515145056041
20
-50.08198234621801
11
-5.377272743310714
21
-50.29006514717184
0
LINE
8
Polygon
10
-5.377272743310714
20
-50.29006514717184
11
-5.178565376738469
21
-50.49484168382092
0
LINE
8
Polygon
10
-5.178565376738476
20
-50.49484168382092
11
-4.976449025843836
21
-50.69625426583383
0
LINE
8
Polygon
10
-4.976449025843836
20
-50.69625426583383
11
-4.77098063152181
21
-50.89424615058369
0
LINE
8
Polygon
10
-4.77098063152181
20
-50.89424615058369
11
-4.5622180790162945
21
-51.0887615591339
0
LINE
8
Polygon
10
-4.562218079016301
20
-51.088761559133886
11
-4.350220181612466
21
-51.27974569195237
0
LINE
8
Polygon
10
-4.350220181612466
20
-51.27974569195237
11
-4.135046664067682
21
-51.46714474434986
0
LINE
8
Polygon
10
-4.135046664067682
20
-51.46714474434986
11
-3.916758145785651
21
-51.65090592163796
0
LINE
8
Polygon
10
-3.9167581457856566
20
-51.65090592163794
11
-3.6954161237385206
21
-51.8309774540026
0
LINE
8
Polygon
10
-3.6954161237385206
20
-51.8309774540026
11
-3.4710829551417204
21
-52.00730861108891
0
LINE
8
Polygon
10
-3.4710829551417204
20
-52.00730861108891
11
-3.243821839886517
21
-52.17984971629295
0
LINE
8
Polygon
10
-3.2438218398865253
20
-52.17984971629295
11
-3.013696802735119
21
-52.34855216075697
0
LINE
8
Polygon
10
-3.013696802735119
20
-52.34855216075697
11
-2.780772675283369
21
-52.51336841706353
0
LINE
8
Polygon
10
-2.780772675283369
20
-52.51336841706353
11
-2.545115077696231
21
-52.67425205262517
0
LINE
8
Polygon
10
-2.545115077696236
20
-52.67425205262517
11
-2.3067904002210122
21
-52.83115774276547
0
LINE
8
Polygon
10
-2.3067904002210122
20
-52.83115774276547
11
-2.0658657844836905
21
-52.984041283488125
0
LINE
8
Polygon
10
-2.0658657844836905
20
-52.984041283488125
11
-1.8224091045735635
21
-53.13285960393023
0
LINE
8
Polygon
10
-1.822409104573569
20
-53.13285960393023
11
-1.576488947921527
21
-53.277570778496354
0
LINE
8
Polygon
10
-1.576488947921527
20
-53.277570778496354
11
-1.3281745959773743
21
-53.41813403866994
0
LINE
8
Polygon
10
-1.3281745959773743
20
-53.41813403866994
11
-1.0775360046916287
21
-53.55450978449876
0
LINE
8
Polygon
10
-1.0775360046916358
20
-53.55450978449876
11
-0.8246437848073024
21
-53.686659595751166
0
LINE
8
Polygon
10
-0.8246437848073024
20
-53.686659595751166
11
-0.5695691819671833
21
-53.81454624273992
0
LINE
8
Polygon
10
-0.5695691819671833
20
-53.81454624273992
11
-0.312384056642305
21
-53.93813369681071
0
LINE
8
Polygon
10
-0.31238405664231195
20
-53.93813369681071
11
-0.05316086388717223
21
-54.05738714049223
0
LINE
8
Polygon
10
-0.05316086388716945
20
-54.05738714049223
11
0.2080273670725663
21
-54.172272977305106
0
LINE
8
Polygon
10
0.2080273670725663
20
-54.172272977305106
11
0.47110705341408265
21
-54.28275884122677
0
LINE
8
Polygon
10
0.47110705341408265
20
-54.28275884122677
11
0.736004079447429
21
-54.388813605809794
0
LINE
8
Polygon
10
0.7360040794474334
20
-54.388813605809794
11
0.7840186220453546
21
-54.40617155127132
0
LINE
8
Polygon
10
0.7840186220453546
20
-54.40617155127132
11
0.8328565199758451
21
-54.42105625137794
0
LINE
8
Polygon
10
0.8328565199758452
20
-54.42105625137794
11
0.8823904677554849
21
-54.43342890626267
0
LINE
8
Polygon
10
0.8823904677554849
20
-54.43342890626267
11
0.9324913455114898
21
-54.443257264193214
0
LINE
8
Polygon
10
0.9324913455114899
20
-54.443257264193214
11
0.9830285555577843
21
-54.450515705642275
0
LINE
8
Polygon
10
0.9830285555577843
20
-54.450515705642275
11
1.0338703628232804
21
-54.45518531006995
0
LINE
8
Polygon
10
1.0338703628232804
20
-54.45518531006995
11
1.084884238244972
21
-54.45725390524374
0
LINE
8
Polygon
10
1.084884238244972
20
-54.45725390524374
11
1.1359372042307248
21
-54.4567160989678
0
LINE
8
Polygon
10
1.1359372042307248
20
-54.4567160989678
11
1.1868961812912426
21
-54.45357329313886
0
LINE
8
Polygon
10
1.1868961812912429
20
-54.45357329313886
11
1.2376283349376518
21
-54.4478336800918
0
LINE
8
Polygon
10
1.2376283349376518
20
-54.4478336800918
11
1.288001421940439
21
-54.43951222124479
0
LINE
8
Polygon
10
1.2880014219404392
20
-54.43951222124479
11
1.3378841350471637
21
-54.42863060809944
0
LINE
8
Polygon
10
1.3378841350471637
20
-54.42863060809944
11
1.3871464452603564
21
-54.41521720569765
0
LINE
8
Polygon
10
1.3871464452603564
20
-54.41521720569765
11
1.4356599407834036
21
-54.39930697868268
0
LINE
8
Polygon
10
1.4356599407834039
20
-54.39930697868268
11
1.4832981617508796
21
-54.38094140015689
0
LINE
8
Polygon
10
1.4832981617508796
20
-54.38094140015689
11
1.5299369298707906
21
-54.360168343574145
0
LINE
8
Polygon
10
1.5299369298707906
20
-54.360168343574145
11
1.5754546721194553
21
-54.33704195794826
0
LINE
8
Polygon
10
1.5754546721194558
20
-54.33704195794826
11
1.6197327376452464
21
-54.31162252670312
0
LINE
8
Polygon
10
1.6197327376452464
20
-54.31162252670312
11
1.662655707055119
21
-54.28397631053215
0
LINE
8
Polygon
10
1.662655707055119
20
-54.28397631053215
11
1.7041116932777187
21
-54.25417537467697
0
LINE
8
Polygon
10
1.7041116932777187
20
-54.25417537467697
11
1.7439926332188014
21
-54.2222974010753
0
LINE
8
Polygon
10
1.7439926332188014
20
-54.2222974010753
11
1.7821945694487153
21
-54.18842548586789
0
LINE
8
Polygon
10
1.7821945694487153
20
-54.18842548586789
11
1.8186179211876676
21
-54.15264792279222
0
LINE
8
Polygon
10
1.8186179211876676
20
-54.15264792279222
11
1.8531677438824037
21
-54.115057973027746
0
LINE
8
Polygon
10
1.8531677438824037
20
-54.115057973027746
11
1.8857539766976572
21
-54.075753622092485
0
LINE
8
Polygon
10
1.8857539766976572
20
-54.075753622092485
11
1.9162916772772425
21
-54.03483732442462
0
LINE
8
Polygon
10
1.9162916772772425
20
-54.03483732442462
11
1.944701243162831
21
-53.9924157363152
0
LINE
8
Polygon
10
1.944701243162831
20
-53.9924157363152
11
1.9709086192932497
21
-53.94859943788766
0
LINE
8
Polygon
10
1.9709086192932497
20
-53.94859943788766
11
1.9948454910434053
21
-53.90350264484924
0
LINE
8
Polygon
10
1.9948454910434053
20
-53.90350264484924
11
2.0164494622996463
21
-53.85724291076557
0
LINE
8
Polygon
10
2.0164494622996463
20
-53.85724291076557
11
2.0356642181073767
21
-53.80994082063435
0
LINE
8
Polygon
10
2.035664218107377
20
-53.80994082063435
11
2.0524396714669395
21
-53.76171967655715
0
LINE
8
Polygon
10
2.0524396714669395
20
-53.76171967655715
11
2.0667320938951255
21
-53.71270517632848
0
LINE
8
Polygon
10
2.0667320938951255
20
-53.71270517632848
11
2.078504229411979
21
-53.66302508577999
0
LINE
8
Polygon
10
2.078504229411979
20
-53.66302508577999
11
2.0877253916557508
21
-53.61280890573404
0
LINE
8
Polygon
10
2.0877253916557508
20
-53.61280890573404
11
2.094371543872879
21
-53.56218753443457
0
LINE
8
Polygon
10
2.094371543872879
20
-53.56218753443457
11
2.098425361574456
21
-53.51129292633533
0
LINE
8
Polygon
10
2.098425361574456
20
-53.51129292633533
11
2.0998762776958864
21
-53.46025774813498
0
LINE
8
Polygon
10
2.0998762776958864
20
-53.46025774813498
11
2.0987205101419915
21
-53.409215032955494
0
LINE
8
Polygon
10
2.0987205101419915
20
-53.409215032955494
11
2.094961071645781
21
-53.35829783356544
0
LINE
8
Polygon
10
2.094961071645781
20
-53.35829783356544
11
2.0886077619151746
21
-53.30763887555208
0
LINE
8
Polygon
10
2.088607761915174
20
-53.30763887555208
11
2.079677142088158
21
-53.25737021134624
0
LINE
8
Polygon
10
2.079677142088158
20
-53.25737021134624
11
2.068192491562955
21
-53.207622876002056
0
LINE
8
Polygon
10
2.068192491562955
20
-53.207622876002056
11
2.054183747315746
21
-53.158526545628504
0
LINE
8
Polygon
10
2.054183747315746
20
-53.158526545628504
11
2.0376874258641133
21
-53.11020919936345
0
LINE
8
Polygon
10
2.0376874258641133
20
-53.11020919936345
11
2.018746528079636
21
-53.06279678577111
0
LINE
8
Polygon
10
2.018746528079636
20
-53.06279678577111
11
1.9974104270977482
21
-53.01641289453263
0
LINE
8
Polygon
10
1.9974104270977482
20
-53.01641289453263
11
1.9737347396170577
21
-52.97117843428549
0
LINE
8
Polygon
10
10.457670361564144
20
-53.3809321298786
11
10.692926097318207
21
-53.00563868564615
0
LINE
8
Polygon
10
10.692926097318207
20
-53.00563868564615
11
10.894045326380493
21
-52.61099772706426
0
LINE
8
Polygon
10
10.894045326380493
20
-52.61099772706426
11
11.059449742025834
21
-52.20010624531505
0
LINE
8
Polygon
10
11.059449742025834
20
-52.20010624531505
11
11.187841313713822
21
-51.77618875946606
0
LINE
8
Polygon
10
11.187841313713822
20
-51.77618875946606
11
11.278212473535627
21
-51.34257201167891
0
LINE
8
Polygon
10
11.278212473535627
20
-51.34257201167891
11
11.32985402322128
21
-50.902658860210224
0
LINE
8
Polygon
10
11.32985402322128
20
-50.902658860210224
11
11.342360699656227
21
-50.4599015750826
0
LINE
8
Polygon
10
11.342360699656227
20
-50.4599015750826
11
11.315634355231115
21
-50.01777474599086
0
LINE
8
Polygon
10
11.315634355231117
20
-50.01777474599086
11
11.24988472806667
21
-49.57974801505224
0
LINE
8
Polygon
10
11.24988472806667
20
-49.57974801505224
11
11.145627796069208
21
-49.14925884838306
0
LINE
8
Polygon
10
11.145627796069208
20
-49.14925884838306
11
11.003681727733532
21
-48.729685560180535
0
LINE
8
Polygon
10
11.003681727733532
20
-48.729685560180535
11
10.82516046146976
21
-48.32432080100601
0
LINE
8
Polygon
10
10.825160461469762
20
-48.32432080100601
11
10.611464963841085
21
-47.93634571832379
0
LINE
8
Polygon
10
10.611464963841085
20
-47.93634571832379
11
10.364272235314436
21
-47.5688049920735
0
LINE
8
Polygon
10
10.364272235314436
20
-47.568804992073495
11
10.085522149802753
21
-47.22458294118735
0
LINE
8
Polygon
10
10.085522149802753
20
-47.22458294118735
11
9.777402231277051
21
-46.90638088855922
0
LINE
8
Polygon
10
9.777402231277051
20
-46.90638088855922
11
9.44233048691564
21
-46.61669596209662
0
LINE
8
Polygon
10
9.44233048691564
20
-46.61669596209662
11
9.08293643150936
21
-46.3578014982167
0
LINE
8
Polygon
10
9.082936431509362
20
-46.3578014982167
11
8.702040452036028
21
-46.13172920157226
0
LINE
8
Polygon
10
8.702040452036028
20
-46.13172920157226
11
8.302631674343017
21
-45.940253201011316
0
LINE
8
Polygon
10
8.302631674343017
20
-45.940253201011316
11
7.887844505631797
21
-45.784876126892996
0
LINE
8
Polygon
10
7.887844505631798
20
-45.784876126892996
11
7.4609340368299994
21
-45.66681731901967
0
LINE
8
Polygon
10
7.4609340368299994
20
-45.66681731901967
11
7.025250497883803
21
-45.58700325772493
0
LINE
8
Polygon
10
7.025250497883804
20
-45.58700325772493
11
6.584212966435725
21
-45.54606029321057
0
LINE
8
Polygon
10
6.584212966435725
20
-45.54606029321057
11
6.1412825362120245
21
-45.544309730189916
0
LINE
8
Polygon
10
6.1412825362120245
20
-45.544309730189916
11
5.699935155683996
21
-45.581765306411484
0
LINE
8
Polygon
10
5.699935155683996
20
-45.581765306411484
11
5.263634350154881
21
-45.658133084850334
0
LINE
8
Polygon
10
5.263634350154881
20
-45.658133084850334
11
4.835804041339056
21
-45.772813760413385
0
LINE
8
Polygon
10
4.835804041339056
20
-45.772813760413385
11
4.419801677735036
21
-45.92490736305633
0
LINE
8
Polygon
10
4.419801677735038
20
-45.92490736305633
11
4.0188918866548216
21
-46.11322032040408
0
LINE
8
Polygon
10
4.0188918866548216
20
-46.11322032040408
11
3.636220854678376
21
-46.336274824449895
0
LINE
8
Polygon
10
3.636220854678376
20
-46.336274824449895
11
3.274791637585671
21
-46.592320428826916
0
LINE
8
Polygon
10
3.274791637585671
20
-46.592320428826916
11
2.9374405935244146
21
-46.879347785641244
0
LINE
8
Polygon
10
2.9374405935244146
20
-46.879347785641244
11
2.626815124357019
21
-47.195104414065064
0
LINE
8
Polygon
10
2.626815124357019
20
-47.195104414065064
11
2.3453528998641575
21
-47.53711237694396
0
LINE
8
Polygon
10
2.3453528998641575
20
-47.53711237694396
11
2.095262727845415
21
-47.90268772669922
0
LINE
8
Polygon
10
2.095262727845415
20
-47.90268772669922
11
1.8785072202411712
21
-48.28896156792105
0
LINE
8
Polygon
10
1.8785072202411712
20
-48.28896156792105
11
1.6967873913053328
21
-48.69290257136161
0
LINE
8
Polygon
10
1.6967873913053328
20
-48.69290257136161
11
1.5515293086965956
21
-49.11134076264663
0
LINE
8
Polygon
10
1.5515293086965956
20
-49.11134076264663
11
1.443872902245319
21
-49.54099239902084
0
LINE
8
Polygon
10
1.443872902245319
20
-49.54099239902084
11
1.3746630182205657
21
-49.978485738904226
0
LINE
8
Polygon
10
1.3746630182205657
20
-49.978485738904226
11
1.344442789299973
21
-50.42038750202927
0
LINE
8
Polygon
10
1.3444427892999737
20
-50.42038750202927
11
1.3534493722723973
21
-50.863229812510326
0
LINE
8
Polygon
10
1.3534493722723973
20
-50.863229812510326
11
1.401612086922213
21
-51.30353741340611
0
LINE
8
Polygon
10
1.401612086922213
20
-51.30353741340611
11
1.4885529707005962
21
-51.73785493920593
0
LINE
8
Polygon
10
1.4885529707005962
20
-51.73785493920593
11
1.613589744830922
21
-52.16277403221555
0
LINE
8
Polygon
10
1.613589744830922
20
-52.16277403221555
11
1.7757411685714473
21
-52.57496009004377
0
LINE
8
Polygon
10
1.7757411685714473
20
-52.57496009004377
11
1.9737347396170495
21
-52.97117843428549
0
LINE
8
Polygon
10
10.457670361564137
20
-53.3809321298786
11
10.429745608874667
21
-53.42367441291034
0
LINE
8
Polygon
10
10.429745608874667
20
-53.42367441291034
11
10.404038782059862
21
-53.46778624382503
0
LINE
8
Polygon
10
10.404038782059862
20
-53.46778624382503
11
10.380616890965639
21
-53.5131526365525
0
LINE
8
Polygon
10
10.380616890965639
20
-53.5131526365525
11
10.359540989308366
21
-53.5596553347631
0
LINE
8
Polygon
10
10.359540989308366
20
-53.5596553347631
11
10.340866015526483
21
-53.60717312012583
0
LINE
8
Polygon
10
10.340866015526483
20
-53.60717312012583
11
10.32464064957277
21
-53.65558212828755
0
LINE
8
Polygon
10
10.32464064957277
20
-53.65558212828755
11
10.31090718602058
21
-53.704756171749445
0
LINE
8
Polygon
10
10.31090718602058
20
-53.704756171749445
11
10.299701423814804
21
-53.754567068799396
0
LINE
8
Polygon
10
10.299701423814804
20
-53.754567068799396
11
10.291052572954953
21
-53.804884977642445
0
LINE
8
Polygon
10
10.291052572954953
20
-53.804884977642445
11
10.284983178353613
21
-53.85557873485875
0
LINE
8
Polygon
10
10.284983178353613
20
-53.85557873485875
11
10.281509061068745
21
-53.90651619730657
0
LINE
8
Polygon
10
10.281509061068745
20
-53.90651619730657
11
10.280639277063013
21
-53.957564586579075
0
LINE
8
Polygon
10
10.280639277063013
20
-53.957564586579075
11
10.28237609359767
21
-54.00859083511703
0
LINE
8
Polygon
10
10.28237609359767
20
-54.00859083511703
11
10.286714983322474
21
-54.05946193307539
0
LINE
8
Polygon
10
10.286714983322474
20
-54.05946193307539
11
10.29364463607714
21
-54.110045275039255
0
LINE
8
Polygon
10
10.29364463607714
20
-54.110045275039255
11
10.303146988373447
21
-54.1602090056857
0
LINE
8
Polygon
10
10.303146988373447
20
-54.1602090056857
11
10.31519727048125
21
-54.20982236349038
0
LINE
8
Polygon
10
10.31519727048125
20
-54.20982236349038
11
10.329764070995589
21
-54.25875602158283
0
LINE
8
Polygon
10
10.329764070995589
20
-54.25875602158283
11
10.346809418716642
21
-54.306882424862124
0
LINE
8
Polygon
10
10.346809418716642
20
-54.306882424862124
11
10.366288881629034
21
-54.354076122494085
0
LINE
8
Polygon
10
10.366288881629034
20
-54.354076122494085
11
10.388151682722532
21
-54.40021409492331
0
LINE
8
Polygon
10
10.388151682722532
20
-54.40021409492331
11
10.41234083235221
21
-54.4451760745475
0
LINE
8
Polygon
10
10.41234083235221
20
-54.4451760745475
11
10.43879327679304
21
-54.488844859218446
0
LINE
8
Polygon
10
10.43879327679304
20
-54.488844859218446
11
10.46744006260169
21
-54.5311066177522
0
LINE
8
Polygon
10
10.46744006260169
20
-54.5311066177522
11
10.498206516357106
21
-54.57185118665223
0
LINE
8
Polygon
10
10.498206516357104
20
-54.57185118665223
11
10.531012439311292
21
-54.61097235727195
0
LINE
8
Polygon
10
10.531012439311292
20
-54.61097235727195
11
10.565772316442972
21
-54.64836815266826
0
LINE
8
Polygon
10
10.565772316442972
20
-54.64836815266826
11
10.602395539369123
21
-54.68394109342432
0
LINE
8
Polygon
10
10.602395539369123
20
-54.68394109342432
11
10.640786642533348
21
-54.71759845174857
0
LINE
8
Polygon
10
10.640786642533348
20
-54.71759845174857
11
10.680845552055434
21
-54.749252493187775
0
LINE
8
Polygon
10
10.680845552055434
20
-54.749252493187775
11
10.722467846593386
21
-54.77882070532393
0
LINE
8
Polygon
10
10.722467846593386
20
-54.77882070532393
11
10.765545029537982
21
-54.80622601285897
0
LINE
8
Polygon
10
10.765545029537982
20
-54.80622601285897
11
10.80996481183028
21
-54.831396978526534
0
LINE
8
Polygon
10
10.80996481183028
20
-54.831396978526534
11
10.855611404664913
21
-54.85426798930705
0
LINE
8
Polygon
10
10.855611404664913
20
-54.85426798930705
11
10.902365821316126
21
-54.874779427460865
0
LINE
8
Polygon
10
10.902365821316126
20
-54.874779427460865
11
10.950106187299841
21
-54.892877825933475
0
LINE
8
Polygon
10
10.950106187299841
20
-54.892877825933475
11
10.998708058063206
21
-54.90851600772786
0
LINE
8
Polygon
10
10.998708058063206
20
-54.90851600772786
11
11.048044743373534
21
-54.92165320888041
0
LINE
8
Polygon
10
11.048044743373534
20
-54.92165320888041
11
11.097987637561053
21
-54.93225518472018
0
LINE
8
Polygon
10
11.097987637561053
20
-54.93225518472018
11
11.148406554754594
21
-54.94029429913433
0
LINE
8
Polygon
10
11.148406554754594
20
-54.94029429913433
11
11.199170068236405
21
-54.945749596606944
0
LINE
8
Polygon
10
11.199170068236405
20
-54.945749596606944
11
11.250145853031466
21
-54.94860685684371
0
LINE
8
Polygon
10
11.250145853031466
20
-54.94860685684371
11
11.301201030838268
21
-54.94885863183988
0
LINE
8
Polygon
10
11.301201030838268
20
-54.94885863183988
11
11.352202516401974
21
-54.94650426529495
0
LINE
8
Polygon
10
11.352202516401974
20
-54.94650426529495
11
11.403017364427026
21
-54.9415498943234
0
LINE
8
Polygon
10
11.403017364427026
20
-54.9415498943234
11
11.453513116124924
21
-54.93400843345716
0
LINE
8
Polygon
10
11.453513116124924
20
-54.93400843345716
11
11.503558144493828
21
-54.92389954098131
0
LINE
8
Polygon
10
11.503558144493828
20
-54.92389954098131
11
11.553021997429964
21
-54.91124956769101
0
LINE
8
Polygon
10
11.553021997429964
20
-54.91124956769101
11
11.826906610636756
21
-54.83121666107982
0
LINE
8
Polygon
10
11.826906610636756
20
-54.83121666107982
11
12.099409369668038
21
-54.74659814175686
0
LINE
8
Polygon
10
12.099409369668043
20
-54.74659814175686
11
12.370453504134279
21
-54.6574178487347
0
LINE
8
Polygon
10
12.370453504134279
20
-54.6574178487347
11
12.639962654574527
21
-54.56370090618403
0
LINE
8
Polygon
10
12.639962654574527
20
-54.56370090618403
11
12.907860893968682
21
-54.46547371635565
0
LINE
8
Polygon
10
12.907860893968687
20
-54.46547371635565
11
13.174072749127896
21
-54.3627639521423
0
LINE
8
Polygon
10
13.174072749127896
20
-54.3627639521423
11
13.438523221957121
21
-54.25560054928261
0
LINE
8
Polygon
10
13.438523221957121
20
-54.25560054928261
11
13.701137810583855
21
-54.14401369820918
0
LINE
8
Polygon
10
13.701137810583857
20
-54.14401369820918
11
13.961842530347024
21
-54.028034835543274
0
LINE
8
Polygon
10
13.961842530347024
20
-54.028034835543274
11
14.220563934640207
21
-53.907696635238324
0
LINE
8
Polygon
10
14.220563934640207
20
-53.907696635238324
11
14.477229135603261
21
-53.78303299937499
0
LINE
8
Polygon
10
14.477229135603265
20
-53.78303299937499
11
14.731765824656529
21
-53.6540790486101
0
LINE
8
Polygon
10
14.731765824656529
20
-53.6540790486101
11
14.984102292871848
21
-53.520871112282386
0
LINE
8
Polygon
10
14.984102292871848
20
-53.520871112282386
11
15.23416745117464
21
-53.38344671817761
0
LINE
8
Polygon
10
15.234167451174644
20
-53.383446718177595
11
15.481890850371366
21
-53.2418445819561
0
LINE
8
Polygon
10
15.481890850371366
20
-53.2418445819561
11
15.727202700996685
21
-53.096104596245766
0
LINE
8
Polygon
10
15.727202700996685
20
-53.096104596245766
11
15.970033892974806
21
-52.94626781940324
0
LINE
8
Polygon
10
15.970033892974806
20
-52.94626781940324
11
16.210316015089397
21
-52.79237646394693
0
LINE
8
Polygon
10
16.210316015089397
20
-52.79237646394693
11
16.447981374256617
21
-52.63447388466468
0
LINE
8
Polygon
10
16.447981374256614
20
-52.63447388466468
11
16.68296301459584
21
-52.472604566399724
0
LINE
8
Polygon
10
16.68296301459584
20
-52.472604566399724
11
16.915194736292698
21
-52.30681411151832
0
LINE
8
Polygon
10
16.915194736292698
20
-52.30681411151832
11
17.144611114249106
21
-52.13714922706243
0
LINE
8
Polygon
10
17.144611114249102
20
-52.13714922706243
11
17.37114751651504
21
-51.96365771159128
0
LINE
8
Polygon
10
17.37114751651504
20
-51.96365771159128
11
17.594740122496884
21
-51.78638844171542
0
LINE
8
Polygon
10
17.594740122496884
20
-51.78638844171542
11
17.815325940937143
21
-51.60539135832701
0
LINE
8
Polygon
10
17.815325940937143
20
-51.60539135832701
11
18.03284282766059
21
-51.420717452530305
0
LINE
8
Polygon
10
18.03284282766059
20
-51.420717452530305
11
18.247229503081712
21
-51.232418751276285
0
LINE
8
Polygon
10
18.247229503081712
20
-51.232418751276285
11
18.458425569468606
21
-51.04054830270546
0
LINE
8
Polygon
10
18.458425569468602
20
-51.04054830270546
11
18.666371527958407
21
-50.845160161202884
0
LINE
8
Polygon
10
18.666371527958407
20
-50.845160161202884
11
18.871008795319565
21
-50.64630937216993
0
LINE
8
Polygon
10
18.871008795319565
20
-50.64630937216993
11
19.072279720456038
21
-50.44405195651655
0
LINE
8
Polygon
10
19.072279720456038
20
-50.44405195651657
11
19.270127600649
21
-50.23844489487902
0
LINE
8
Polygon
10
19.270127600649
20
-50.23844489487902
11
19.4644966975313
21
-50.029546111567036
0
LINE
8
Polygon
10
19.4644966975313
20
-50.029546111567036
11
19.655332252790274
21
-49.81741445824516
0
LINE
8
Polygon
10
19.65533225279027
20
-49.81741445824517
11
19.842580503594423
21
-49.602109697352944
0
LINE
8
Polygon
10
19.842580503594423
20
-49.602109697352944
11
20.026188697739688
21
-49.3836924852684
0
LINE
8
Polygon
10
20.026188697739688
20
-49.3836924852684
11
20.206105108510936
21
-49.162224355219706
0
LINE
8
Polygon
10
20.206105108510936
20
-49.16222435521971
11
20.382279049254613
21
-48.937767699949895
0
LINE
8
Polygon
10
20.382279049254613
20
-48.937767699949895
11
20.554660887658358
21
-48.71038575413929
0
LINE
8
Polygon
10
20.554660887658358
20
-48.71038575413929
11
20.723202059733563
21
-48.480142576590886
0
LINE
8
Polygon
10
20.72320205973356
20
-48.480142576590886
11
20.887855083497
21
-48.247103032183446
0
LINE
8
Polygon
10
20.887855083497
20
-48.247103032183446
11
21.04857357234761
21
-48.01133277359757
0
LINE
8
Polygon
10
21.04857357234761
20
-48.01133277359757
11
21.205312248134668
21
-47.77289822281981
0
LINE
8
Polygon
10
21.205312248134664
20
-47.77289822281982
11
21.358026953913708
21
-47.53186655243004
0
LINE
8
Polygon
10
21.358026953913708
20
-47.53186655243004
11
21.506674666386584
21
-47.28830566667731
0
LINE
8
Polygon
10
21.506674666386584
20
-47.28830566667731
11
21.651213508022096
21
-47.042284182349746
0
LINE
8
Polygon
10
21.651213508022096
20
-47.042284182349746
11
21.791602758853905
21
-46.79387140944354
0
LINE
8
Polygon
10
21.791602758853905
20
-46.79387140944354
11
21.927802867952288
21
-46.54313733163667
0
LINE
8
Polygon
10
-23.362430062909535
20
-84.94286626793436
11
-23.364938785398746
21
-84.87544191308481
0
LINE
8
Polygon
10
-23.364938785398746
20
-84.87544191308481
11
-23.367826565850415
21
-84.80803272944141
0
LINE
8
Polygon
10
-23.367826565850415
20
-84.80803272944141
11
-23.371093312971823
21
-84.74064084804127
0
LINE
8
Polygon
10
-23.371093312971823
20
-84.74064084804127
11
-23.37473892348982
21
-84.67326839937448
0
LINE
8
Polygon
10
-23.37473892348982
20
-84.67326839937448
11
-23.378763282154058
21
-84.60591751331684
0
LINE
8
Polygon
10
-23.378763282154058
20
-84.60591751331684
11
-23.383166261740666
21
-84.53859031906246
0
LINE
8
Polygon
10
-23.383166261740666
20
-84.53859031906246
11
-23.38794772305625
21
-84.47128894505647
0
LINE
8
Polygon
10
-23.38794772305625
20
-84.47128894505647
11
-23.39310751494231
21
-84.40401551892772
0
LINE
8
Polygon
10
-23.39310751494231
20
-84.40401551892772
11
-23.39864547428001
21
-84.33677216742157
0
LINE
8
Polygon
10
-23.39864547428001
20
-84.33677216742157
11
-23.40456142599531
21
-84.26956101633256
0
LINE
8
Polygon
10
-23.40456142599531
20
-84.26956101633256
11
-23.410855183064566
21
-84.2023841904373
0
LINE
8
Polygon
10
-23.410855183064566
20
-84.2023841904373
11
-23.417526546520367
21
-84.13524381342728
0
LINE
8
Polygon
10
-23.417526546520367
20
-84.13524381342728
11
-23.424575305457886
21
-84.06814200784169
0
LINE
8
Polygon
10
-23.424575305457886
20
-84.06814200784169
11
-23.432001237041494
21
-84.00108089500033
0
LINE
8
Polygon
10
-23.432001237041494
20
-84.00108089500033
11
-23.439804106511858
21
-83.93406259493656
0
LINE
8
Polygon
10
-23.439804106511858
20
-83.93406259493656
11
-23.447983667193327
21
-83.86708922633034
0
LINE
8
Polygon
10
-23.447983667193327
20
-83.86708922633034
11
-23.456539660501736
21
-83.80016290644112
0
LINE
8
Polygon
10
-23.456539660501736
20
-83.80016290644112
11
-23.465471815952586
21
-83.73328575104102
0
LINE
8
Polygon
10
-23.465471815952586
20
-83.73328575104102
11
-23.474779851169597
21
-83.6664598743479
0
LINE
8
Polygon
10
-23.474779851169597
20
-83.6664598743479
11
-23.484463471893633
21
-83.59968738895847
0
LINE
8
Polygon
10
-23.484463471893633
20
-83.59968738895847
11
-23.494522371991994
21
-83.53297040578164
0
LINE
8
Polygon
10
-23.494522371991994
20
-83.53297040578164
11
-23.504956233468118
21
-83.46631103397164
0
LINE
8
Polygon
10
-23.504956233468118
20
-83.46631103397164
11
-23.515764726471595
21
-83.39971138086142
0
LINE
8
Polygon
10
-23.515764726471595
20
-83.39971138086142
11
-23.526947509308645
21
-83.33317355189604
0
LINE
8
Polygon
10
-23.526947509308645
20
-83.33317355189604
11
-23.53850422845288
21
-83.26669965056605
0
LINE
8
Polygon
10
-23.53850422845288
20
-83.26669965056605
11
-23.55043451855649
21
-83.20029177834107
0
LINE
8
Polygon
10
-23.55043451855649
20
-83.20029177834107
11
-23.56273800246181
21
-83.13395203460325
0
LINE
8
Polygon
10
-23.56273800246181
20
-83.13395203460325
11
-23.57541429121322
21
-83.06768251658102
0
LINE
8
Polygon
10
-23.57541429121322
20
-83.06768251658102
11
-23.58846298406945
21
-83.00148531928272
0
LINE
8
Polygon
10
-23.58846298406945
20
-83.00148531928272
11
-23.601883668516262
21
-82.93536253543036
0
LINE
8
Polygon
10
-23.601883668516262
20
-82.93536253543036
11
-23.615675920279465
21
-82.8693162553935
0
LINE
8
Polygon
10
-23.615675920279465
20
-82.86931625539349
11
-23.629839303338347
21
-82.80334856712314
0
LINE
8
Polygon
10
-23.629839303338347
20
-82.80334856712314
11
-23.644373369939462
21
-82.73746155608575
0
LINE
8
Polygon
10
-23.644373369939462
20
-82.73746155608575
11
-23.659277660610766
21
-82.67165730519727
0
LINE
8
Polygon
10
-23.659277660610766
20
-82.67165730519727
11
-23.674551704176157
21
-82.60593789475736
0
LINE
8
Polygon
10
-23.674551704176157
20
-82.60593789475736
11
-23.690195017770364
21
-82.54030540238354
0
LINE
8
Polygon
10
-23.690195017770364
20
-82.54030540238354
11
-23.706207106854233
21
-82.47476190294556
0
LINE
8
Polygon
10
-23.706207106854233
20
-82.47476190294556
11
-23.722587465230312
21
-82.40930946849979
0
LINE
8
Polygon
10
-23.722587465230312
20
-82.40930946849979
11
-23.739335575058913
21
-82.34395016822373
0
LINE
8
Polygon
10
-23.739335575058913
20
-82.34395016822373
11
-23.756450906874438
21
-82.27868606835058
0
LINE
8
Polygon
10
-23.756450906874438
20
-82.27868606835058
11
-23.773932919602142
21
-82.21351923210395
0
LINE
8
Polygon
10
-23.773932919602142
20
-82.21351923210395
11
-23.79178106057523
21
-82.14845171963258
0
LINE
8
Polygon
10
-23.79178106057523
20
-82.14845171963258
11
-23.809994765552318
21
-82.08348558794525
0
LINE
8
Polygon
10
-23.809994765552318
20
-82.08348558794525
11
-23.828573458735296
21
-82.01862289084576
0
LINE
8
Polygon
10
-23.828573458735296
20
-82.01862289084576
11
-23.8475165527875
21
-81.95386567886797
0
LINE
8
Polygon
10
-23.8475165527875
20
-81.95386567886797
11
-23.86682344885232
21
-81.88921599921099
0
LINE
8
Polygon
10
-23.86682344885232
20
-81.88921599921099
11
-23.886493536572083
21
-81.82467589567449
0
LINE
8
Polygon
10
-23.886493536572083
20
-81.82467589567449
11
-23.906526194107386
21
-81.760247408594
0
LINE
8
Polygon
10
-23.906526194107386
20
-81.760247408594
11
-23.918927328993643
21
-81.71744023052307
0
LINE
8
Polygon
10
-23.918927328993643
20
-81.71744023052307
11
-23.929408822191977
21
-81.67412301753333
0
LINE
8
Polygon
10
-23.929408822191977
20
-81.67412301753333
11
-23.93794985491366
21
-81.63038180812035
0
LINE
8
Polygon
10
-23.93794985491366
20
-81.63038180812035
11
-23.94453346259531
21
-81.5863034829394
0
LINE
8
Polygon
10
-23.94453346259531
20
-81.5863034829394
11
-23.949146568594603
21
-81.54197559223948
0
LINE
8
Polygon
10
-23.949146568594603
20
-81.54197559223948
11
-23.951780010163713
21
-81.4974861819673
0
LINE
8
Polygon
10
-23.951780010163713
20
-81.4974861819673
11
-23.95242855664869
21
-81.45292361888662
0
LINE
8
Polygon
10
-23.95242855664869
20
-81.45292361888662
11
-23.951090919878858
21
-81.40837641506037
0
LINE
8
Polygon
10
-23.951090919878858
20
-81.40837641506037
11
-23.94776975672541
21
-81.36393305204437
0
LINE
8
Polygon
10
-23.94776975672541
20
-81.36393305204437
11
-23.94247166382421
21
-81.31968180514134
0
LINE
8
Polygon
10
-23.94247166382421
20
-81.31968180514134
11
-23.9352071644733
21
-81.27571056806477
0
LINE
8
Polygon
10
-23.9352071644733
20
-81.27571056806477
11
-23.925990687731055
21
-81.23210667836071
0
LINE
8
Polygon
10
-23.925990687731055
20
-81.23210667836071
11
-23.914840539756575
21
-81.1889567439342
0
LINE
8
Polygon
10
-23.914840539756575
20
-81.1889567439342
11
-23.901778867449224
21
-81.14634647102498
0
LINE
8
Polygon
10
-23.901778867449224
20
-81.14634647102498
11
-23.886831614459496
21
-81.104360493974
0
LINE
8
Polygon
10
-23.886831614459496
20
-81.104360493974
11
-23.870028469658642
21
-81.06308220711922
0
LINE
8
Polygon
10
-23.870028469658642
20
-81.06308220711922
11
-23.85140280816937
21
-81.02259359915412
0
LINE
8
Polygon
10
-23.85140280816937
20
-81.02259359915412
11
-23.830991625074745
21
-80.98297509027833
0
LINE
8
Polygon
10
-23.830991625074745
20
-80.98297509027833
11
-23.80883546193698
21
-80.94430537246352
0
LINE
8
Polygon
10
-23.80883546193698
20
-80.94430537246352
11
-23.784978326272046
21
-80.90666125315215
0
LINE
8
Polygon
10
-23.78497832627205
20
-80.90666125315215
11
-23.759467604140106
21
-80.87011750269916
0
LINE
8
Polygon
10
-23.759467604140106
20
-80.87011750269916
11
-23.732353966025247
21
-80.83474670585996
0
LINE
8
Polygon
10
-23.732353966025247
20
-80.83474670585996
11
-23.703691266191644
21
-80.80061911761945
0
LINE
8
Polygon
10
-23.703691266191644
20
-80.80061911761945
11
-23.67353643571591
21
-80.76780252364867
0
LINE
8
Polygon
10
-23.67353643571591
20
-80.76780252364867
11
-23.641949369408163
21
-80.73636210566585
0
LINE
8
Polygon
10
-23.641949369408163
20
-80.73636210566585
11
-23.608992806846405
21
-80.70636031196986
0
LINE
8
Polygon
10
-23.60899280684641
20
-80.70636031196986
11
-23.57473220776049
21
-80.67785673340263
0
LINE
8
Polygon
10
-23.57473220776049
20
-80.67785673340263
11
-23.539235622013226
21
-80.65090798498734
0
LINE
8
Polygon
10
-23.539235622013226
20
-80.65090798498734
11
-23.50257355443683
21
-80.62556759347719
0
LINE
8
Polygon
10
-23.50257355443683
20
-80.62556759347719
11
-23.46481882479322
21
-80.60188589103835
0
LINE
8
Polygon
10
-23.46481882479322
20
-80.60188589103835
11
-23.426046423136313
21
-80.57990991527801
0
LINE
8
Polygon
10
-23.426046423136313
20
-80.57990991527801
11
-23.386333360863567
21
-80.55968331581627
0
LINE
8
Polygon
10
-23.386333360863567
20
-80.55968331581627
11
-23.345758517752664
21
-80.54124626758752
0
LINE
8
Polygon
10
-23.345758517752667
20
-80.54124626758752
11
-23.304402485287145
21
-80.52463539104308
0
LINE
8
Polygon
10
-23.304402485287145
20
-80.52463539104308
11
-23.262347406582144
21
-80.50988367941424
0
LINE
8
Polygon
10
-23.262347406582144
20
-80.50988367941424
11
-23.219676813228254
21
-80.49702043317969
0
LINE
8
Polygon
10
-23.219676813228254
20
-80.49702043317969
11
-23.1764754593775
21
-80.48607120186759
0
LINE
8
Polygon
10
-23.1764754593775
20
-80.48607120186759
11
-23.132829153401048
21
-80.47705773330806
0
LINE
8
Polygon
10
-23.132829153401048
20
-80.47705773330806
11
-23.08882458745294
21
-80.46999793043669
0
LINE
8
Polygon
10
-23.08882458745294
20
-80.46999793043669
11
-23.04454916527846
21
-80.46490581573497
0
LINE
8
Polygon
10
-23.04454916527846
20
-80.46490581573497
11
-23.000090828609068
21
-80.46179150337827
0
LINE
8
Polygon
10
-23.00009082860907
20
-80.46179150337827
11
-22.955537882488805
21
-80.46066117914657
0
LINE
8
Polygon
10
-22.955537882488805
20
-80.46066117914657
11
-22.910978819879027
21
-80.4615170881381
0
LINE
8
Polygon
10
-22.910978819879027
20
-80.4615170881381
11
-22.86650214588993
21
-80.46435753030985
0
LINE
8
Polygon
10
-22.86650214588993
20
-80.46435753030985
11
-22.822196201987904
21
-80.46917686385454
0
LINE
8
Polygon
10
-22.822196201987904
20
-80.46917686385454
11
-22.778148990527985
21
-80.47596551640633
0
LINE
8
Polygon
10
-22.778148990527985
20
-80.47596551640633
11
-22.734447999959777
21
-80.48471000405408
0
LINE
8
Polygon
10
-22.734447999959777
20
-80.48471000405407
11
-22.691180031054202
21
-80.49539295812352
0
LINE
8
Polygon
10
-22.6911800310542
20
-80.49539295812352
11
-22.19431964692106
21
-80.60310620124251
0
LINE
8
Polygon
10
-22.19431964692106
20
-80.60310620124251
11
-21.68908959886339
21
-80.65980701784852
0
LINE
8
Polygon
10
-21.68908959886339
20
-80.65980701784852
11
-21.180713407482084
21
-80.66490918413169
0
LINE
8
Polygon
10
-21.180713407482084
20
-80.66490918413169
11
-20.674447121024652
21
-80.61835994932869
0
LINE
8
Polygon
10
-20.674447121024652
20
-80.61835994932869
11
-20.175524973652376
21
-80.52064058110734
0
LINE
8
Polygon
10
-20.175524973652376
20
-80.52064058110734
11
-19.689105269240997
21
-80.37276138979061
0
LINE
8
Polygon
10
-19.689105269240997
20
-80.37276138979061
11
-19.22021705021672
21
-80.17625128286382
0
LINE
8
Polygon
10
-19.22021705021672
20
-80.17625128286382
11
-18.773708102812776
21
-79.93314195776014
0
LINE
8
Polygon
10
-18.773708102812776
20
-79.93314195776014
11
-18.354194836314825
21
-79.64594689635351
0
LINE
8
Polygon
10
-18.354194836314825
20
-79.64594689635351
11
-17.966014554488392
21
-79.31763537833245
0
LINE
8
Polygon
10
-17.966014554488392
20
-79.31763537833245
11
-17.613180612649092
21
-78.9516017821281
0
LINE
8
Polygon
10
-17.613180612649092
20
-78.9516017821281
11
-17.29934092400197
21
-78.55163049079081
0
LINE
8
Polygon
10
-17.29934092400197
20
-78.55163049079081
11
-17.02774024424857
21
-78.12185676564974
0
LINE
8
Polygon
10
-17.02774024424857
20
-78.12185676564974
11
-16.801186624397253
21
-77.6667239922787
0
LINE
8
Polygon
10
-16.801186624397253
20
-77.6667239922787
11
-16.62202237861768
21
-77.19093774079766
0
LINE
8
Polygon
10
-16.62202237861768
20
-77.19093774079766
11
-16.492099867299675
21
-76.69941711547563
0
LINE
8
Polygon
10
-16.492099867299675
20
-76.69941711547563
11
-16.412762345693
21
-76.19724389662635
0
LINE
8
Polygon
10
-16.412762345693
20
-76.19724389662635
11
-16.384830076131873
21
-75.68961000061337
0
LINE
8
Polygon
10
-16.384830076131873
20
-75.68961000061337
11
-16.40859184742852
21
-75.18176380117009
0
LINE
8
Polygon
10
-16.40859184742852
20
-75.18176380117009
11
-16.483801989115882
21
-74.6789558670128
0
LINE
8
Polygon
10
-16.483801989115882
20
-74.6789558670128
11
-16.609682911408846
21
-74.18638467676027
0
LINE
8
Polygon
10
-16.609682911408846
20
-74.18638467676027
11
-16.784933144623682
21
-73.70914287240707
0
LINE
8
Polygon
10
-16.784933144623682
20
-73.70914287240707
11
-17.007740794936915
21
-73.25216460703109
0
LINE
8
Polygon
10
-17.007740794936915
20
-73.25216460703109
11
-17.275802277365983
21
-72.82017453110102
0
LINE
8
Polygon
10
-17.275802277365983
20
-72.82017453110102
11
-17.58634613229331
21
-72.41763894480955
0
LINE
8
Polygon
10
-17.58634613229331
20
-72.41763894480955
11
-17.93616167929732
21
-72.04871962146306
0
LINE
8
Polygon
10
-17.93616167929732
20
-72.04871962146306
11
-18.32163221204134
21
-71.71723077934288
0
LINE
8
Polygon
10
-18.32163221204134
20
-71.71723077934288
11
-18.738772391021975
21
-71.42659964690151
0
LINE
8
Polygon
10
-18.738772391021975
20
-71.42659964690151
11
-19.183269447577224
21
-71.17983102900641
0
LINE
8
Polygon
10
-19.183269447577224
20
-71.17983102900641
11
-19.65052777315039
21
-70.97947624057672
0
LINE
8
Polygon
10
-19.65052777315039
20
-70.97947624057672
11
-20.135716432806085
21
-70.82760672880542
0
LINE
8
Polygon
10
-20.135716432806085
20
-70.82760672880542
11
-20.63381911176103
21
-70.7257926566835
0
LINE
8
Polygon
10
-20.63381911176103
20
-70.7257926566835
11
-21.139685978537695
21
-70.67508666924903
0
LINE
8
Polygon
10
-21.139685978537695
20
-70.67508666924903
11
-21.648086928533083
21
-70.67601301040037
0
LINE
8
Polygon
10
-21.648086928533083
20
-70.67601301040037
11
-22.153765657522968
21
-70.72856210279329
0
LINE
8
Polygon
10
-22.153765657522968
20
-70.72856210279329
11
-22.651494006041244
21
-70.83219064686013
0
LINE
8
Polygon
10
-22.651494006041244
20
-70.83219064686013
11
-23.136126012773598
21
-70.9858272379272
0
LINE
8
Polygon
10
-23.136126012773598
20
-70.9858272379272
11
-23.602651118113073
21
-71.18788344335563
0
LINE
8
Polygon
10
-23.602651118113073
20
-71.18788344335563
11
-24.04624596781156
21
-71.4362702251801
0
LINE
8
Polygon
10
-24.04624596781156
20
-71.4362702251801
11
-24.462324281134652
21
-71.7284195384539
0
LINE
8
Polygon
10
-24.462324281134652
20
-71.7284195384539
11
-24.846584267938265
21
-72.06131088199686
0
LINE
8
Polygon
10
-24.846584267938265
20
-72.06131088199686
11
-25.19505310442682
21
-72.43150252704095
0
LINE
8
Polygon
10
-25.19505310442682
20
-72.43150252704095
11
-25.504128007762738
21
-72.835167100904
0
LINE
8
Polygon
10
-25.504128007762738
20
-72.835167100904
11
-25.770613484861244
21
-73.26813115779524
0
LINE
8
Polygon
10
-25.770613484861244
20
-73.26813115779524
11
-25.991754370258967
21
-73.72591832763473
0
LINE
8
Polygon
10
-25.991754370258967
20
-73.72591832763473
11
-26.165264311481394
21
-74.20379559677518
0
LINE
8
Polygon
10
-26.165264311481394
20
-74.20379559677518
11
-26.289349407401875
21
-74.69682224213479
0
LINE
8
Polygon
10
-26.289349407401875
20
-74.69682224213479
11
-26.362726755197613
21
-75.19990091281623
0
LINE
8
Polygon
10
-26.362726755197613
20
-75.19990091281623
11
-26.367896423988885
21
-75.24416734666235
0
LINE
8
Polygon
10
-26.367896423988885
20
-75.24416734666235
11
-26.375033303443296
21
-75.28815947769185
0
LINE
8
Polygon
10
-26.375033303443296
20
-75.28815947769185
11
-26.384123217986556
21
-75.33178992685824
0
LINE
8
Polygon
10
-26.384123217986556
20
-75.33178992685824
11
-26.395148112842794
21
-75.37497203350291
0
LINE
8
Polygon
10
-26.395148112842794
20
-75.37497203350291
11
-26.40808608989574
21
-75.41762002748436
0
LINE
8
Polygon
10
-26.40808608989574
20
-75.41762002748436
11
-26.422911451183683
21
-75.45964919953838
0
LINE
8
Polygon
10
-26.422911451183683
20
-75.45964919953838
11
-26.439594749941868
21
-75.50097606953126
0
LINE
8
Polygon
10
-26.439594749941868
20
-75.50097606953126
11
-26.45810284909091
21
-75.54151855227164
0
LINE
8
Polygon
10
-26.45810284909091
20
-75.54151855227164
11
-26.478398987055073
21
-75.5811961205515
0
LINE
8
Polygon
10
-26.478398987055073
20
-75.5811961205515
11
-26.5004428507797
21
-75.61992996509287
0
LINE
8
Polygon
10
-26.5004428507797
20
-75.61992996509287
11
-26.52419065580268
21
-75.65764315108203
0
LINE
8
Polygon
10
-26.52419065580268
20
-75.65764315108203
11
-26.54959523322106
21
-75.6942607709809
0
LINE
8
Polygon
10
-26.54959523322106
20
-75.6942607709809
11
-26.576606123379886
21
-75.7297100933114
0
LINE
8
Polygon
10
-26.576606123379886
20
-75.7297100933114
11
-26.60516967609737
21
-75.76392070711793
0
LINE
8
Polygon
10
-26.60516967609737
20
-75.76392070711793
11
-26.635229157227116
21
-75.79682466182058
0
LINE
8
Polygon
10
-26.635229157227116
20
-75.79682466182058
11
-26.666724861345948
21
-75.82835660218147
0
LINE
8
Polygon
10
-26.666724861345948
20
-75.82835660218147
11
-26.699594230343347
21
-75.85845389811611
0
LINE
8
Polygon
10
-26.699594230343347
20
-75.85845389811611
11
-26.733771977677023
21
-75.88705676909193
0
LINE
8
Polygon
10
-26.733771977677023
20
-75.88705676909193
11
-26.76919021804786
21
-75.91410840286693
0
LINE
8
Polygon
10
-26.76919021804786
20
-75.91410840286693
11
-26.80577860223657
21
-75.93955506833264
0
LINE
8
Polygon
10
-26.80577860223657
20
-75.93955506833264
11
-26.843464456834308
21
-75.96334622223702
0
LINE
8
Polygon
10
-26.843464456834308
20
-75.96334622223702
11
-26.882172928589725
21
-75.9854346095757
0
LINE
8
Polygon
10
-26.882172928589725
20
-75.9854346095757
11
-26.921827133085653
21
-76.00577635745192
0
LINE
8
Polygon
10
-26.921827133085653
20
-76.00577635745192
11
-26.962348307450227
21
-76.02433106221862
0
LINE
8
Polygon
10
-26.962348307450227
20
-76.02433106221862
11
-27.003655966799073
21
-76.04106186973002
0
LINE
8
Polygon
10
-27.003655966799073
20
-76.04106186973002
11
-27.0456680640978
21
-76.05593554854282
0
LINE
8
Polygon
10
-27.0456680640978
20
-76.05593554854282
11
-27.088301153127315
21
-76.06892255592193
0
LINE
8
Polygon
10
-27.088301153127315
20
-76.06892255592193
11
-27.131470554228283
21
-76.07999709651953
0
LINE
8
Polygon
10
-27.131470554228283
20
-76.07999709651953
11
-27.17509052249545
21
-76.08913717361085
0
LINE
8
Polygon
10
-27.17509052249545
20
-76.08913717361085
11
-27.219074418087853
21
-76.09632463278504
0
LINE
8
Polygon
10
-27.219074418087853
20
-76.09632463278504
11
-27.263334878316552
21
-76.10154519800419
0
LINE
8
Polygon
10
-27.263334878316552
20
-76.10154519800419
11
-27.307783991168144
21
-76.10478849995907
0
LINE
8
Polygon
10
-27.307783991168144
20
-76.10478849995907
11
-27.352333469919326
21
-76.10604809666502
0
LINE
8
Polygon
10
-27.352333469919326
20
-76.10604809666502
11
-27.396894828495782
21
-76.10532148625737
0
LINE
8
Polygon
10
-27.396894828495782
20
-76.10532148625737
11
-27.44137955722697
21
-76.10261011196069
0
LINE
8
Polygon
10
-27.44137955722697
20
-76.10261011196069
11
-27.485699298647816
21
-76.09791935922222
0
LINE
8
Polygon
10
-27.485699298647816
20
-76.09791935922222
11
-27.529766022998075
21
-76.09125854501507
0
LINE
8
Polygon
10
-27.529766022998075
20
-76.09125854501507
11
-27.5734922030708
21
-76.08264089933245
0
LINE
8
Polygon
10
-27.5734922030708
20
-76.08264089933245
11
-27.61679098806261
21
-76.07208353890965
0
LINE
8
Polygon
10
-27.61679098806261
20
-76.07208353890965
11
-27.659576376080462
21
-76.05960743322615
0
LINE
8
Polygon
10
-27.659576376080462
20
-76.05960743322615
11
-27.701763384962263
21
-76.04523736285503
0
LINE
8
Polygon
10
-27.701763384962263
20
-76.04523736285503
11
-27.743268221072082
21
-76.02900187024282
0
LINE
8
Polygon
10
-27.743268221072082
20
-76.02900187024282
11
-27.78400844573464
21
-76.01093320301726
0
LINE
8
Polygon
10
-27.78400844573464
20
-76.01093320301726
11
-27.823903138978505
21
-75.99106724993563
0
LINE
8
Polygon
10
-27.823903138978505
20
-75.99106724993563
11
-27.862873060262817
21
-75.96944346960103
0
LINE
8
Polygon
10
-27.862873060262817
20
-75.96944346960103
11
-27.90084080586821
21
-75.94610481208807
0
LINE
8
Polygon
10
-27.90084080586821
20
-75.94610481208807
11
-27.93773096263939
21
-75.92109763363342
0
LINE
8
Polygon
10
-27.937730962639385
20
-75.92109763363342
11
-27.973470257773936
21
-75.8944716045613
0
LINE
8
Polygon
10
-27.973470257773936
20
-75.8944716045613
11
-28.026781255033377
21
-75.85311613471013
0
LINE
8
Polygon
10
-28.026781255033377
20
-75.85311613471013
11
-28.080323933314773
21
-75.8120610629423
0
LINE
8
Polygon
10
-28.080323933314773
20
-75.8120610629423
11
-28.13409659994913
21
-75.7713076871504
0
LINE
8
Polygon
10
-28.13409659994913
20
-75.7713076871504
11
-28.188097554996773
21
-75.73085729568938
0
LINE
8
Polygon
10
-28.188097554996773
20
-75.73085729568938
11
-28.242325091301
21
-75.6907111673358
0
LINE
8
Polygon
10
-28.242325091301
20
-75.6907111673358
11
-28.296777494542113
21
-75.65087057124747
0
LINE
8
Polygon
10
-28.296777494542113
20
-75.65087057124747
11
-28.351453043291595
21
-75.61133676692317
0
LINE
8
Polygon
10
-28.351453043291595
20
-75.61133676692317
11
-28.40635000906651
21
-75.57211100416305
0
LINE
8
Polygon
10
-28.40635000906651
20
-75.57211100416305
11
-28.461466656384193
21
-75.5331945230289
0
LINE
8
Polygon
10
-28.461466656384193
20
-75.5331945230289
11
-28.51680124281707
21
-75.49458855380507
0
LINE
8
Polygon
10
-28.51680124281707
20
-75.49458855380507
11
-28.57235201904776
21
-75.45629431695963
0
LINE
8
Polygon
10
-28.57235201904776
20
-75.45629431695963
11
-28.628117228924367
21
-75.41831302310563
0
LINE
8
Polygon
10
-28.628117228924367
20
-75.41831302310563
11
-28.684095109516033
21
-75.38064587296293
0
LINE
8
Polygon
10
-28.684095109516033
20
-75.38064587296293
11
-28.740283891168623
21
-75.34329405732024
0
LINE
8
Polygon
10
-28.740283891168623
20
-75.34329405732024
11
-28.796681797560698
21
-75.30625875699747
0
LINE
8
Polygon
10
-28.796681797560698
20
-75.30625875699747
11
-28.85328704575965
21
-75.26954114280834
0
LINE
8
Polygon
10
-28.85328704575965
20
-75.26954114280834
11
-28.91009784627811
21
-75.23314237552346
0
LINE
8
Polygon
10
-28.91009784627811
20
-75.23314237552346
11
-28.967112403130468
21
-75.19706360583356
0
LINE
8
Polygon
10
-28.967112403130464
20
-75.19706360583356
11
-29.02432891388967
21
-75.16130597431315
0
LINE
8
Polygon
10
-29.02432891388967
20
-75.16130597431315
11
-29.08174556974421
21
-75.12587061138446
0
LINE
8
Polygon
10
-29.08174556974421
20
-75.12587061138446
11
-29.139360555555317
21
-75.0907586372817
0
LINE
8
Polygon
10
-29.139360555555317
20
-75.0907586372817
11
-29.1971720499143
21
-75.05597116201561
0
LINE
8
Polygon
10
-29.1971720499143
20
-75.05597116201561
11
-29.25517822520017
21
-75.02150928533844
0
LINE
8
Polygon
10
-29.25517822520016
20
-75.02150928533844
11
-29.313377247637384
21
-74.98737409670912
0
LINE
8
Polygon
10
-29.313377247637384
20
-74.98737409670912
11
-29.37176727735387
21
-74.95356667525887
0
LINE
8
Polygon
10
-29.371767277353868
20
-74.95356667525887
11
-29.43034646843912
21
-74.92008808975702
0
LINE
8
Polygon
10
-29.43034646843912
20
-74.92008808975702
11
-29.4891129690026
21
-74.88693939857728
0
LINE
8
Polygon
10
-29.4891129690026
20
-74.88693939857728
11
-29.54806492123227
21
-74.85412164966426
0
LINE
8
Polygon
10
-29.54806492123227
20
-74.85412164966426
11
-29.60720046145333
21
-74.82163588050035
0
LINE
8
Polygon
10
-29.60720046145333
20
-74.82163588050035
11
-29.66651772018712
21
-74.78948311807291
0
LINE
8
Polygon
10
-29.66651772018712
20
-74.78948311807291
11
-29.726014822210235
21
-74.7576643788418
0
LINE
8
Polygon
10
-29.726014822210235
20
-74.7576643788418
11
-29.785689886613802
21
-74.72618066870722
0
LINE
8
Polygon
10
-29.7856898866138
20
-74.72618066870722
11
-29.845541026862943
21
-74.69503298297802
0
LINE
8
Polygon
10
-29.845541026862943
20
-74.69503298297802
11
-29.90556635085641
21
-74.66422230634011
0
LINE
8
Polygon
10
-29.90556635085641
20
-74.66422230634011
11
-29.96576396098642
21
-74.63374961282538
0
LINE
8
Polygon
10
-29.96576396098642
20
-74.63374961282538
11
-30.02613195419861
21
-74.60361586578091
0
LINE
8
Polygon
10
-30.02613195419861
20
-74.60361586578091
11
-30.08666842205223
21
-74.57382201783852
0
LINE
8
Polygon
10
-30.08666842205223
20
-74.57382201783852
11
-30.14737145078047
21
-74.54436901088464
0
LINE
8
Polygon
10
-30.14737145078047
20
-74.54436901088464
11
-30.208239121350942
21
-74.51525777603052
0
LINE
8
Polygon
10
-30.208239121350942
20
-74.51525777603052
11
-30.269269509526374
21
-74.48648923358284
0
LINE
8
Polygon
10
-30.26926950952637
20
-74.48648923358286
11
-30.330460685925413
21
-74.4580642930146
0
LINE
8
Polygon
10
-30.330460685925413
20
-74.4580642930146
11
-30.39181071608366
21
-74.42998385293632
0
LINE
8
Polygon
10
-30.39181071608366
20
-74.42998385293632
11
-30.453317660514774
21
-74.4022488010677
0
LINE
8
Polygon
10
-30.453317660514767
20
-74.4022488010677
11
-30.514979574771818
21
-74.3748600142095
0
LINE
8
Polygon
10
-30.514979574771818
20
-74.3748600142095
11
-30.57679450950873
21
-74.34781835821586
0
LINE
8
Polygon
10
-30.57679450950873
20
-74.34781835821586
11
-30.63876051054195
21
-74.32112468796694
0
LINE
8
Polygon
10
-30.63876051054195
20
-74.32112468796694
11
-30.70087561891218
21
-74.29477984734183
0
LINE
8
Polygon
10
-30.70087561891218
20
-74.29477984734183
11
-30.76313787094631
21
-74.26878466919193
0
LINE
8
Polygon
10
-23.362430062909535
20
-84.94286626793436
11
86.93034229353222
21
-81.14956076566446
0
LINE
8
Polygon
10
86.93034229353222
20
-81.14956076566446
11
21.927802867952288
21
-46.54313733163667
0
LINE
8
Polygon
10
-8.784049541554436
20
-45.05982868997852
11
-20.710678118654748
21
-50.0
0
LINE
8
Polygon
10
-20.710678118654748
20
-50.0
11
-30.76313787094631
21
-74.26878466919193
0
ENDSEC
0
EOF
