0
SECTION
2
ENTITIES
0
LINE
8
Polygon
10
74.26878466919193
20
-30.76313787094631
11
74.20327664612032
21
-30.924593757243958
0
LINE
8
Polygon
10
74.20327664612032
20
-30.924593757243958
11
74.14011979566295
21
-31.08698377093696
0
LINE
8
Polygon
10
74.14011979566295
20
-31.08698377093696
11
74.07932743308403
21
-31.250273675581987
0
LINE
8
Polygon
10
74.07932743308403
20
-31.25027367558198
11
74.02091237514628
21
-31.41442904501301
0
LINE
8
Polygon
10
74.02091237514628
20
-31.41442904501301
11
73.96488693740886
21
-31.57941527059939
0
LINE
8
Polygon
10
73.96488693740886
20
-31.57941527059939
11
73.9112629316309
21
-31.745197568542316
0
LINE
8
Polygon
10
73.9112629316309
20
-31.745197568542316
11
73.86005166328124
21
-31.91174098720822
0
LINE
8
Polygon
10
73.86005166328124
20
-31.91174098720822
11
73.81126392915485
21
-32.07901041449761
0
LINE
8
Polygon
10
73.81126392915485
20
-32.07901041449761
11
73.76491001509665
21
-32.24697058524769
0
LINE
8
Polygon
10
73.76491001509665
20
-32.24697058524768
11
73.7209996938329
21
-32.41558608866721
0
LINE
8
Polygon
10
73.7209996938329
20
-32.41558608866721
11
73.67954222291084
21
-32.584821375802186
0
LINE
8
Polygon
10
73.67954222291084
20
-32.584821375802186
11
73.64054634274702
21
-32.75464076703051
0
LINE
8
Polygon
10
73.64054634274702
20
-32.75464076703051
11
73.6040202747844
21
-32.92500845958429
0
LINE
8
Polygon
10
73.6040202747844
20
-32.92500845958429
11
73.56997171975921
21
-33.0958885350981
0
LINE
8
Polygon
10
73.56997171975921
20
-33.0958885350981
11
73.53840785607728
21
-33.26724496718156
0
LINE
8
Polygon
10
73.53840785607728
20
-33.26724496718156
11
73.50933533830072
21
-33.439041629014795
0
LINE
8
Polygon
10
73.50933533830072
20
-33.439041629014795
11
73.48276029574491
21
-33.611242300964896
0
LINE
8
Polygon
10
73.48276029574491
20
-33.611242300964896
11
73.45868833118625
21
-33.78381067822213
0
LINE
8
Polygon
10
73.45868833118625
20
-33.78381067822213
11
73.43712451968099
21
-33.95671037845401
0
LINE
8
Polygon
10
73.43712451968099
20
-33.95671037845401
11
73.41807340749521
21
-34.12990494947572
0
LINE
8
Polygon
10
73.41807340749521
20
-34.129904949475716
11
73.40153901114634
21
-34.303357876935266
0
LINE
8
Polygon
10
73.40153901114634
20
-34.303357876935266
11
73.38752481655642
21
-34.47703259201177
0
LINE
8
Polygon
10
73.38752481655642
20
-34.47703259201177
11
73.37603377831707
21
-34.65089247912519
0
LINE
8
Polygon
10
73.37603377831707
20
-34.65089247912519
11
73.3670683190667
21
-34.82490088365594
0
LINE
8
Polygon
10
73.3670683190667
20
-34.82490088365594
11
73.36063032897964
21
-34.99902111967275
0
LINE
8
Polygon
10
73.36063032897964
20
-34.99902111967275
11
73.3567211653677
21
-35.173216477667054
0
LINE
8
Polygon
10
73.3567211653677
20
-35.173216477667054
11
73.35534165239399
21
-35.34745023229245
0
LINE
8
Polygon
10
73.35534165239399
20
-35.34745023229245
11
73.35649208089916
21
-35.521685650107436
0
LINE
8
Polygon
10
73.35649208089916
20
-35.521685650107436
11
73.3601722083401
21
-35.69588599731986
0
LINE
8
Polygon
10
73.3601722083401
20
-35.69588599731986
11
73.36638125884105
21
-35.87001454753144
0
LINE
8
Polygon
10
73.36638125884105
20
-35.87001454753143
11
73.37511792335718
21
-36.044034589480745
0
LINE
8
Polygon
10
73.37511792335718
20
-36.044034589480745
11
73.38638035995062
21
-36.21790943478301
0
LINE
8
Polygon
10
73.38638035995062
20
-36.21790943478301
11
73.40016619417872
21
-36.39160242566504
0
LINE
8
Polygon
10
73.40016619417872
20
-36.39160242566504
11
73.4164725195947
21
-36.565076942693736
0
LINE
8
Polygon
10
73.4164725195947
20
-36.565076942693736
11
73.4352958983604
21
-36.7382964124965
0
LINE
8
Polygon
10
73.4352958983604
20
-36.738296412496496
11
73.45663236197106
21
-36.91122431547198
0
LINE
8
Polygon
10
73.45663236197106
20
-36.91122431547198
11
73.48047741209203
21
-37.083824193489434
0
LINE
8
Polygon
10
73.48047741209203
20
-37.083824193489434
11
73.5068260215071
21
-37.256059657575086
0
LINE
8
Polygon
10
73.5068260215071
20
-37.256059657575086
11
73.53567263517841
21
-37.42789439558404
0
LINE
8
Polygon
10
73.53567263517841
20
-37.42789439558404
11
73.56701117141765
21
-37.59929217985587
0
LINE
8
Polygon
10
73.56701117141765
20
-37.59929217985587
11
73.60083502316809
21
-37.77021687485245
0
LINE
8
Polygon
10
73.60083502316809
20
-37.770216874852444
11
73.63713705939779
21
-37.94063244477635
0
LINE
8
Polygon
10
73.63713705939779
20
-37.94063244477635
11
73.67590962660279
21
-38.110502961168216
0
LINE
8
Polygon
10
73.67590962660279
20
-38.110502961168216
11
73.71714455042085
21
-38.279792610481536
0
LINE
8
Polygon
10
73.71714455042085
20
-38.279792610481536
11
73.76083313735474
21
-38.448465701633125
0
LINE
8
Polygon
10
73.76083313735474
20
-38.44846570163312
11
73.8069661766051
21
-38.616486673527795
0
LINE
8
Polygon
10
73.8069661766051
20
-38.616486673527795
11
73.85553394201239
21
-38.783820102555744
0
LINE
8
Polygon
10
73.85553394201239
20
-38.783820102555744
11
73.90652619410736
21
-38.95043071006077
0
LINE
8
Polygon
10
73.90652619410737
20
-38.95043071006077
11
73.91892732899362
21
-38.9932378881317
0
LINE
8
Polygon
10
73.91892732899362
20
-38.9932378881317
11
73.92940882219196
21
-39.03655510112143
0
LINE
8
Polygon
10
73.92940882219196
20
-39.03655510112143
11
73.93794985491364
21
-39.080296310534415
0
LINE
8
Polygon
10
73.93794985491364
20
-39.080296310534415
11
73.94453346259529
21
-39.12437463571538
0
LINE
8
Polygon
10
73.94453346259529
20
-39.12437463571538
11
73.94914656859459
21
-39.16870252641528
0
LINE
8
Polygon
10
73.94914656859459
20
-39.16870252641528
11
73.95178001016369
21
-39.21319193668746
0
LINE
8
Polygon
10
73.95178001016369
20
-39.21319193668746
11
73.95242855664867
21
-39.257754499768154
0
LINE
8
Polygon
10
73.95242855664867
20
-39.257754499768154
11
73.95109091987884
21
-39.30230170359438
0
LINE
8
Polygon
10
73.95109091987884
20
-39.30230170359438
11
73.94776975672539
21
-39.34674506661039
0
LINE
8
Polygon
10
73.94776975672539
20
-39.34674506661039
11
73.9424716638242
21
-39.39099631351343
0
LINE
8
Polygon
10
73.9424716638242
20
-39.39099631351343
11
73.93520716447328
21
-39.43496755059001
0
LINE
8
Polygon
10
73.93520716447328
20
-39.43496755059
11
73.92599068773103
21
-39.47857144029406
0
LINE
8
Polygon
10
73.92599068773103
20
-39.47857144029406
11
73.91484053975655
21
-39.52172137472056
0
LINE
8
Polygon
10
73.91484053975655
20
-39.52172137472056
11
73.9017788674492
21
-39.5643316476298
0
LINE
8
Polygon
10
73.9017788674492
20
-39.5643316476298
11
73.88683161445947
21
-39.60631762468077
0
LINE
8
Polygon
10
73.88683161445947
20
-39.60631762468077
11
73.87002846965862
21
-39.64759591153555
0
LINE
8
Polygon
10
73.87002846965862
20
-39.64759591153555
11
73.85140280816935
21
-39.68808451950064
0
LINE
8
Polygon
10
73.85140280816935
20
-39.68808451950064
11
73.83099162507473
21
-39.72770302837644
0
LINE
8
Polygon
10
73.83099162507473
20
-39.72770302837644
11
73.80883546193695
21
-39.766372746191244
0
LINE
8
Polygon
10
73.80883546193695
20
-39.766372746191244
11
73.78497832627203
21
-39.80401686550262
0
LINE
8
Polygon
10
73.78497832627203
20
-39.80401686550262
11
73.75946760414008
21
-39.84056061595561
0
LINE
8
Polygon
10
73.75946760414008
20
-39.84056061595561
11
73.73235396602522
21
-39.87593141279482
0
LINE
8
Polygon
10
73.73235396602522
20
-39.87593141279482
11
73.70369126619161
21
-39.910059001035314
0
LINE
8
Polygon
10
73.70369126619161
20
-39.910059001035314
11
73.67353643571589
21
-39.94287559500611
0
LINE
8
Polygon
10
73.67353643571589
20
-39.94287559500611
11
73.64194936940814
21
-39.974316012988915
0
LINE
8
Polygon
10
73.64194936940814
20
-39.974316012988915
11
73.60899280684639
21
-40.00431780668491
0
LINE
8
Polygon
10
73.60899280684639
20
-40.00431780668491
11
73.57473220776048
21
-40.032821385252134
0
LINE
8
Polygon
10
73.57473220776048
20
-40.032821385252134
11
73.5392356220132
21
-40.059770133667435
0
LINE
8
Polygon
10
73.5392356220132
20
-40.059770133667435
11
73.50257355443681
21
-40.08511052517758
0
LINE
8
Polygon
10
73.50257355443681
20
-40.08511052517758
11
73.4648188247932
21
-40.108792227616426
0
LINE
8
Polygon
10
73.4648188247932
20
-40.108792227616426
11
73.4260464231363
21
-40.13076820337677
0
LINE
8
Polygon
10
73.4260464231363
20
-40.13076820337677
11
73.38633336086355
21
-40.15099480283849
0
LINE
8
Polygon
10
73.38633336086355
20
-40.15099480283849
11
73.34575851775264
21
-40.16943185106726
0
LINE
8
Polygon
10
73.34575851775264
20
-40.16943185106726
11
73.30440248528713
21
-40.1860427276117
0
LINE
8
Polygon
10
73.30440248528713
20
-40.1860427276117
11
73.26234740658212
21
-40.200794439240525
0
LINE
8
Polygon
10
73.26234740658212
20
-40.200794439240525
11
73.21967681322823
21
-40.21365768547508
0
LINE
8
Polygon
10
73.21967681322823
20
-40.21365768547508
11
73.17647545937747
21
-40.224606916787174
0
LINE
8
Polygon
10
73.17647545937747
20
-40.224606916787174
11
73.13282915340102
21
-40.23362038534671
0
LINE
8
Polygon
10
73.13282915340102
20
-40.23362038534671
11
73.08882458745292
21
-40.240680188218086
0
LINE
8
Polygon
10
73.08882458745292
20
-40.240680188218086
11
73.04454916527844
21
-40.245772302919804
0
LINE
8
Polygon
10
73.04454916527844
20
-40.245772302919804
11
73.00009082860905
21
-40.248886615276504
0
LINE
8
Polygon
10
73.00009082860905
20
-40.248886615276504
11
72.95553788248878
21
-40.250016939508185
0
LINE
8
Polygon
10
72.95553788248878
20
-40.250016939508185
11
72.910978819879
21
-40.249161030516674
0
LINE
8
Polygon
10
72.910978819879
20
-40.249161030516674
11
72.8665021458899
21
-40.2463205883449
0
LINE
8
Polygon
10
72.8665021458899
20
-40.2463205883449
11
72.8221962019879
21
-40.24150125480023
0
LINE
8
Polygon
10
72.8221962019879
20
-40.24150125480023
11
72.77814899052795
21
-40.23471260224843
0
LINE
8
Polygon
10
72.77814899052795
20
-40.23471260224843
11
72.73444799995976
21
-40.22596811460069
0
LINE
8
Polygon
10
72.73444799995976
20
-40.22596811460069
11
72.69118003105419
21
-40.215285160531245
0
LINE
8
Polygon
10
72.69118003105419
20
-40.215285160531245
11
72.19431964692103
21
-40.10757191741226
0
LINE
8
Polygon
10
72.19431964692103
20
-40.10757191741226
11
71.68908959886338
21
-40.05087110080624
0
LINE
8
Polygon
10
71.68908959886338
20
-40.05087110080624
11
71.18071340748206
21
-40.04576893452308
0
LINE
8
Polygon
10
71.18071340748206
20
-40.04576893452308
11
70.67444712102463
21
-40.09231816932608
0
LINE
8
Polygon
10
70.67444712102463
20
-40.09231816932608
11
70.17552497365236
21
-40.19003753754742
0
LINE
8
Polygon
10
70.17552497365236
20
-40.19003753754742
11
69.68910526924098
21
-40.33791672886415
0
LINE
8
Polygon
10
69.68910526924098
20
-40.33791672886415
11
69.2202170502167
21
-40.53442683579095
0
LINE
8
Polygon
10
69.2202170502167
20
-40.53442683579095
11
68.77370810281276
21
-40.77753616089463
0
LINE
8
Polygon
10
68.77370810281276
20
-40.77753616089463
11
68.3541948363148
21
-41.06473122230126
0
LINE
8
Polygon
10
68.3541948363148
20
-41.06473122230126
11
67.96601455448837
21
-41.39304274032232
0
LINE
8
Polygon
10
67.96601455448837
20
-41.39304274032232
11
67.61318061264907
21
-41.75907633652667
0
LINE
8
Polygon
10
67.61318061264907
20
-41.75907633652667
11
67.29934092400195
21
-42.15904762786396
0
LINE
8
Polygon
10
67.29934092400195
20
-42.15904762786396
11
67.02774024424855
21
-42.588821353005024
0
LINE
8
Polygon
10
67.02774024424855
20
-42.588821353005024
11
66.80118662439723
21
-43.04395412637606
0
LINE
8
Polygon
10
66.80118662439723
20
-43.04395412637606
11
66.62202237861766
21
-43.5197403778571
0
LINE
8
Polygon
10
66.62202237861766
20
-43.5197403778571
11
66.49209986729966
21
-44.011261003179136
0
LINE
8
Polygon
10
66.49209986729966
20
-44.011261003179136
11
66.41276234569298
21
-44.51343422202842
0
LINE
8
Polygon
10
66.41276234569298
20
-44.51343422202842
11
66.38483007613185
21
-45.02106811804139
0
LINE
8
Polygon
10
66.38483007613185
20
-45.02106811804139
11
66.4085918474285
21
-45.52891431748468
0
LINE
8
Polygon
10
66.4085918474285
20
-45.52891431748468
11
66.48380198911586
21
-46.03172225164195
0
LINE
8
Polygon
10
66.48380198911586
20
-46.03172225164195
11
66.60968291140883
21
-46.52429344189451
0
LINE
8
Polygon
10
66.60968291140883
20
-46.52429344189451
11
66.78493314462366
21
-47.00153524624769
0
LINE
8
Polygon
10
66.78493314462366
20
-47.00153524624769
11
67.0077407949369
21
-47.45851351162367
0
LINE
8
Polygon
10
67.0077407949369
20
-47.45851351162367
11
67.27580227736595
21
-47.89050358755375
0
LINE
8
Polygon
10
67.27580227736595
20
-47.89050358755375
11
67.5863461322933
21
-48.29303917384522
0
LINE
8
Polygon
10
67.5863461322933
20
-48.29303917384522
11
67.9361616792973
21
-48.661958497191705
0
LINE
8
Polygon
10
67.9361616792973
20
-48.661958497191705
11
68.32163221204132
21
-48.9934473393119
0
LINE
8
Polygon
10
68.32163221204132
20
-48.9934473393119
11
68.73877239102195
21
-49.284078471753254
0
LINE
8
Polygon
10
68.73877239102195
20
-49.284078471753254
11
69.1832694475772
21
-49.53084708964837
0
LINE
8
Polygon
10
69.1832694475772
20
-49.53084708964837
11
69.65052777315037
21
-49.73120187807805
0
LINE
8
Polygon
10
69.65052777315037
20
-49.73120187807805
11
70.13571643280606
21
-49.88307138984934
0
LINE
8
Polygon
10
70.13571643280606
20
-49.88307138984934
11
70.63381911176101
21
-49.984885461971274
0
LINE
8
Polygon
10
70.63381911176101
20
-49.984885461971274
11
71.13968597853767
21
-50.035591449405736
0
LINE
8
Polygon
10
71.13968597853767
20
-50.035591449405736
11
71.64808692853306
21
-50.034665108254394
0
LINE
8
Polygon
10
71.64808692853306
20
-50.034665108254394
11
72.15376565752295
21
-49.98211601586148
0
LINE
8
Polygon
10
72.15376565752295
20
-49.98211601586148
11
72.65149400604122
21
-49.87848747179464
0
LINE
8
Polygon
10
72.65149400604122
20
-49.87848747179464
11
73.13612601277357
21
-49.724850880727566
0
LINE
8
Polygon
10
73.13612601277357
20
-49.724850880727566
11
73.60265111811306
21
-49.522794675299146
0
LINE
8
Polygon
10
73.60265111811306
20
-49.522794675299146
11
74.04624596781154
21
-49.27440789347467
0
LINE
8
Polygon
10
74.04624596781154
20
-49.27440789347467
11
74.46232428113463
21
-48.98225858020086
0
LINE
8
Polygon
10
74.46232428113463
20
-48.98225858020086
11
74.84658426793824
21
-48.64936723665792
0
LINE
8
Polygon
10
74.84658426793824
20
-48.64936723665792
11
75.1950531044268
21
-48.27917559161382
0
LINE
8
Polygon
10
75.1950531044268
20
-48.27917559161382
11
75.50412800776272
21
-47.875511017750775
0
LINE
8
Polygon
10
75.50412800776272
20
-47.875511017750775
11
75.77061348486123
21
-47.44254696085953
0
LINE
8
Polygon
10
75.77061348486123
20
-47.44254696085953
11
75.99175437025895
21
-46.98475979102004
0
LINE
8
Polygon
10
75.99175437025895
20
-46.98475979102004
11
76.16526431148138
21
-46.50688252187959
0
LINE
8
Polygon
10
76.16526431148138
20
-46.50688252187959
11
76.28934940740186
21
-46.01385587651998
0
LINE
8
Polygon
10
76.28934940740186
20
-46.01385587651998
11
76.3627267551976
21
-45.51077720583854
0
LINE
8
Polygon
10
76.36272675519758
20
-45.51077720583854
11
76.36789642398885
21
-45.46651077199242
0
LINE
8
Polygon
10
76.36789642398885
20
-45.46651077199242
11
76.37503330344326
21
-45.42251864096292
0
LINE
8
Polygon
10
76.37503330344326
20
-45.42251864096292
11
76.38412321798653
21
-45.378888191796534
0
LINE
8
Polygon
10
76.38412321798653
20
-45.378888191796534
11
76.39514811284278
21
-45.33570608515185
0
LINE
8
Polygon
10
76.39514811284278
20
-45.33570608515185
11
76.4080860898957
21
-45.29305809117041
0
LINE
8
Polygon
10
76.4080860898957
20
-45.29305809117041
11
76.42291145118365
21
-45.25102891911639
0
LINE
8
Polygon
10
76.42291145118365
20
-45.25102891911639
11
76.43959474994185
21
-45.20970204912351
0
LINE
8
Polygon
10
76.43959474994185
20
-45.20970204912351
11
76.45810284909088
21
-45.16915956638313
0
LINE
8
Polygon
10
76.45810284909088
20
-45.16915956638314
11
76.47839898705506
21
-45.12948199810327
0
LINE
8
Polygon
10
76.47839898705506
20
-45.12948199810327
11
76.50044285077968
21
-45.09074815356191
0
LINE
8
Polygon
10
76.50044285077968
20
-45.09074815356191
11
76.52419065580266
21
-45.053034967572735
0
LINE
8
Polygon
10
76.52419065580266
20
-45.053034967572735
11
76.54959523322104
21
-45.01641734767387
0
LINE
8
Polygon
10
76.54959523322104
20
-45.01641734767387
11
76.57660612337985
21
-44.98096802534337
0
LINE
8
Polygon
10
76.57660612337985
20
-44.98096802534337
11
76.60516967609735
21
-44.94675741153684
0
LINE
8
Polygon
10
76.60516967609735
20
-44.94675741153684
11
76.63522915722709
21
-44.91385345683418
0
LINE
8
Polygon
10
76.63522915722709
20
-44.91385345683418
11
76.66672486134593
21
-44.8823215164733
0
LINE
8
Polygon
10
76.66672486134593
20
-44.8823215164733
11
76.69959423034331
21
-44.852224220538666
0
LINE
8
Polygon
10
76.69959423034331
20
-44.852224220538666
11
76.733771977677
21
-44.82362134956285
0
LINE
8
Polygon
10
76.733771977677
20
-44.82362134956285
11
76.76919021804784
21
-44.79656971578784
0
LINE
8
Polygon
10
76.76919021804784
20
-44.79656971578784
11
76.80577860223654
21
-44.77112305032213
0
LINE
8
Polygon
10
76.80577860223654
20
-44.77112305032213
11
76.84346445683428
21
-44.747331896417755
0
LINE
8
Polygon
10
76.84346445683428
20
-44.747331896417755
11
76.8821729285897
21
-44.72524350907906
0
LINE
8
Polygon
10
76.8821729285897
20
-44.72524350907906
11
76.92182713308561
21
-44.70490176120285
0
LINE
8
Polygon
10
76.92182713308561
20
-44.70490176120285
11
76.9623483074502
21
-44.68634705643615
0
LINE
8
Polygon
10
76.9623483074502
20
-44.68634705643615
11
77.00365596679904
21
-44.66961624892475
0
LINE
8
Polygon
10
77.00365596679904
20
-44.66961624892475
11
77.04566806409777
21
-44.65474257011195
0
LINE
8
Polygon
10
77.04566806409777
20
-44.65474257011195
11
77.08830115312729
21
-44.64175556273283
0
LINE
8
Polygon
10
77.08830115312729
20
-44.64175556273283
11
77.13147055422826
21
-44.630681022135235
0
LINE
8
Polygon
10
77.13147055422826
20
-44.630681022135235
11
77.17509052249542
21
-44.62154094504391
0
LINE
8
Polygon
10
77.17509052249542
20
-44.62154094504391
11
77.21907441808783
21
-44.61435348586973
0
LINE
8
Polygon
10
77.21907441808781
20
-44.61435348586973
11
77.26333487831653
21
-44.60913292065058
0
LINE
8
Polygon
10
77.26333487831653
20
-44.60913292065058
11
77.30778399116811
21
-44.605889618695706
0
LINE
8
Polygon
10
77.30778399116811
20
-44.605889618695706
11
77.3523334699193
21
-44.60463002198975
0
LINE
8
Polygon
10
77.3523334699193
20
-44.60463002198975
11
77.39689482849576
21
-44.605356632397395
0
LINE
8
Polygon
10
77.39689482849576
20
-44.605356632397395
11
77.44137955722694
21
-44.60806800669408
0
LINE
8
Polygon
10
77.44137955722694
20
-44.60806800669408
11
77.48569929864779
21
-44.612758759432545
0
LINE
8
Polygon
10
77.48569929864779
20
-44.612758759432545
11
77.52976602299805
21
-44.619419573639696
0
LINE
8
Polygon
10
77.52976602299805
20
-44.619419573639696
11
77.57349220307077
21
-44.62803721932232
0
LINE
8
Polygon
10
77.57349220307077
20
-44.62803721932232
11
77.61679098806259
21
-44.63859457974511
0
LINE
8
Polygon
10
77.61679098806259
20
-44.63859457974511
11
77.65957637608044
21
-44.651070685428614
0
LINE
8
Polygon
10
77.65957637608044
20
-44.651070685428614
11
77.70176338496225
21
-44.66544075579973
0
LINE
8
Polygon
10
77.70176338496223
20
-44.66544075579973
11
77.74326822107206
21
-44.68167624841193
0
LINE
8
Polygon
10
77.74326822107206
20
-44.68167624841193
11
77.78400844573461
21
-44.69974491563751
0
LINE
8
Polygon
10
77.78400844573461
20
-44.69974491563751
11
77.82390313897848
21
-44.719610868719144
0
LINE
8
Polygon
10
77.82390313897848
20
-44.719610868719144
11
77.8628730602628
21
-44.74123464905373
0
LINE
8
Polygon
10
77.8628730602628
20
-44.74123464905373
11
77.90084080586819
21
-44.7645733065667
0
LINE
8
Polygon
10
77.90084080586819
20
-44.7645733065667
11
77.93773096263936
21
-44.78958048502134
0
LINE
8
Polygon
10
77.93773096263936
20
-44.78958048502133
11
77.97347025777391
21
-44.81620651409346
0
LINE
8
Polygon
10
77.97347025777391
20
-44.81620651409346
11
78.11161596881747
21
-44.922390631677864
0
LINE
8
Polygon
10
78.11161596881747
20
-44.922390631677864
11
78.25128886315005
21
-45.02655774210946
0
LINE
8
Polygon
10
78.25128886315005
20
-45.02655774210946
11
78.39245949374455
21
-45.12868588399239
0
LINE
8
Polygon
10
78.39245949374455
20
-45.12868588399238
11
78.5350980978084
21
-45.228753525803455
0
LINE
8
Polygon
10
78.5350980978084
20
-45.228753525803455
11
78.67917460305833
21
-45.32673957043163
0
LINE
8
Polygon
10
78.67917460305833
20
-45.32673957043163
11
78.82465863406055
21
-45.4226233596259
0
LINE
8
Polygon
10
78.82465863406055
20
-45.4226233596259
11
78.97151951863475
21
-45.51638467835061
0
LINE
8
Polygon
10
78.97151951863475
20
-45.51638467835061
11
79.11972629432057
21
-45.60800375904738
0
LINE
8
Polygon
10
79.11972629432057
20
-45.60800375904737
11
79.2692477149055
21
-45.697461285802646
0
LINE
8
Polygon
10
79.2692477149055
20
-45.697461285802646
11
79.42005225701243
21
-45.78473839842004
0
LINE
8
Polygon
10
79.42005225701243
20
-45.78473839842004
11
79.5721081267456
21
-45.86981669639665
0
LINE
8
Polygon
10
79.5721081267456
20
-45.86981669639665
11
79.72538326639378
21
-45.95267824280234
0
LINE
8
Polygon
10
79.72538326639378
20
-45.95267824280234
11
79.87984536118884
21
-46.03330556806141
0
LINE
8
Polygon
10
79.87984536118884
20
-46.03330556806141
11
80.03546184611871
21
-46.11168167363562
0
LINE
8
Polygon
10
80.03546184611871
20
-46.11168167363562
11
80.19219991279296
21
-46.18779003560805
0
LINE
8
Polygon
10
80.19219991279296
20
-46.18779003560805
11
80.35002651635976
21
-46.26161460816675
0
LINE
8
Polygon
10
80.35002651635976
20
-46.26161460816675
11
80.50890838247271
21
-46.33313982698765
0
LINE
8
Polygon
10
80.50890838247271
20
-46.33313982698765
11
80.66881201430593
21
-46.40235061251601
0
LINE
8
Polygon
10
80.66881201430593
20
-46.40235061251601
11
80.82970369961626
21
-46.46923237314557
0
LINE
8
Polygon
10
80.82970369961626
20
-46.46923237314557
11
80.99154951785067
21
-46.53377100829495
0
LINE
8
Polygon
10
80.99154951785067
20
-46.53377100829495
11
81.15431534729773
21
-46.595952911380344
0
LINE
8
Polygon
10
81.15431534729773
20
-46.595952911380344
11
81.31796687228142
21
-46.655764972684274
0
LINE
8
Polygon
10
81.31796687228142
20
-46.655764972684274
11
81.48246959039582
21
-46.71319458211944
0
LINE
8
Polygon
10
81.48246959039582
20
-46.71319458211944
11
81.64778881977934
21
-46.76822963188732
0
LINE
8
Polygon
10
81.64778881977934
20
-46.76822963188732
11
81.81388970642641
21
-46.82085851903079
0
LINE
8
Polygon
10
81.81388970642641
20
-46.82085851903079
11
81.98073723153595
21
-46.87107014788043
0
LINE
8
Polygon
10
81.98073723153595
20
-46.87107014788043
11
82.14829621889412
21
-46.91885393239371
0
LINE
8
Polygon
10
82.14829621889412
20
-46.91885393239371
11
82.31653134229062
21
-46.96419979838693
0
LINE
8
Polygon
10
82.31653134229062
20
-46.96419979838693
11
82.48540713296636
21
-47.00709818565908
0
LINE
8
Polygon
10
82.48540713296636
20
-47.00709818565908
11
82.65488798709136
21
-47.047540050007434
0
LINE
8
Polygon
10
82.65488798709136
20
-47.047540050007434
11
82.824938173271
21
-47.08551686513431
0
LINE
8
Polygon
10
82.824938173271
20
-47.08551686513431
11
82.99552184007922
21
-47.12102062444465
0
LINE
8
Polygon
10
82.99552184007922
20
-47.12102062444465
11
83.16660302361709
21
-47.154043842734055
0
LINE
8
Polygon
10
83.16660302361709
20
-47.154043842734055
11
83.33814565509495
21
-47.184579557766895
0
LINE
8
Polygon
10
83.33814565509493
20
-47.184579557766895
11
83.5101135684367
21
-47.212621331744096
0
LINE
8
Polygon
10
83.5101135684367
20
-47.212621331744096
11
83.68247050790481
21
-47.23816325266045
0
LINE
8
Polygon
10
83.68247050790481
20
-47.23816325266045
11
83.85518013574386
21
-47.26119993555103
0
LINE
8
Polygon
10
83.85518013574386
20
-47.26119993555103
11
84.02820603984175
21
-47.2817265236265
0
LINE
8
Polygon
10
84.02820603984175
20
-47.2817265236265
11
84.20151174140625
21
-47.29973868929704
0
LINE
8
Polygon
10
84.20151174140625
20
-47.29973868929704
11
84.37506070265592
21
-47.315232635084726
0
LINE
8
Polygon
10
84.37506070265592
20
-47.315232635084726
11
84.54881633452318
21
-47.32820509442419
0
LINE
8
Polygon
10
84.54881633452318
20
-47.32820509442419
11
84.72274200436846
21
-47.33865333235126
0
LINE
8
Polygon
10
84.72274200436846
20
-47.33865333235126
11
84.89680104370329
21
-47.346575146079566
0
LINE
8
Polygon
10
84.89680104370329
20
-47.346575146079566
11
85.07095675592112
21
-47.351968865465004
0
LINE
8
Polygon
10
85.07095675592112
20
-47.351968865465004
11
85.24517242403401
21
-47.3548333533578
0
LINE
8
Polygon
10
85.24517242403401
20
-47.3548333533578
11
85.41941131841361
21
-47.35516800584224
0
LINE
8
Polygon
10
85.41941131841361
20
-47.35516800584224
11
85.59363670453479
21
-47.35297275236406
0
LINE
8
Polygon
10
85.59363670453479
20
-47.35297275236406
11
85.76781185072036
21
-47.34824805574526
0
LINE
8
Polygon
10
21.92780286795229
20
-46.543137331636665
11
21.96355976906475
21
-46.47560838147161
0
LINE
8
Polygon
10
21.96355976906475
20
-46.47560838147161
11
21.99901278107281
21
-46.40791939398385
0
LINE
8
Polygon
10
21.99901278107281
20
-46.40791939398385
11
22.03416118771336
21
-46.340071736705276
0
LINE
8
Polygon
10
22.03416118771336
20
-46.340071736705276
11
22.06900427887729
21
-46.27206678037338
0
LINE
8
Polygon
10
22.06900427887729
20
-46.27206678037338
11
22.103541350623836
21
-46.20390589890362
0
LINE
8
Polygon
10
22.103541350623836
20
-46.20390589890362
11
22.13777170519479
21
-46.13559046936162
0
LINE
8
Polygon
10
22.13777170519479
20
-46.13559046936162
11
22.17169465102861
21
-46.06712187193537
0
LINE
8
Polygon
10
22.17169465102861
20
-46.06712187193537
11
22.205309502774362
21
-45.99850148990735
0
LINE
8
Polygon
10
22.205309502774362
20
-45.99850148990735
11
22.238615581305613
21
-45.92973070962654
0
LINE
8
Polygon
10
22.238615581305613
20
-45.92973070962654
11
22.271612213734116
21
-45.86081092048047
0
LINE
8
Polygon
10
22.271612213734116
20
-45.86081092048047
11
22.304298733423416
21
-45.79174351486709
0
LINE
8
Polygon
10
22.304298733423416
20
-45.79174351486709
11
22.33667448000231
21
-45.722529888166704
0
LINE
8
Polygon
10
22.33667448000231
20
-45.722529888166704
11
22.36873879937821
21
-45.653171438713734
0
LINE
8
Polygon
10
22.36873879937821
20
-45.653171438713734
11
22.400491043750336
21
-45.58366956776846
0
LINE
8
Polygon
10
22.400491043750336
20
-45.58366956776846
11
22.431930571622804
21
-45.514025679488746
0
LINE
8
Polygon
10
22.431930571622804
20
-45.514025679488746
11
22.46305674781761
21
-45.444241180901656
0
LINE
8
Polygon
10
22.46305674781761
20
-45.444241180901656
11
22.49386894348743
21
-45.37431748187504
0
LINE
8
Polygon
10
22.49386894348743
20
-45.37431748187504
11
22.524366536128362
21
-45.30425599508901
0
LINE
8
Polygon
10
22.524366536128362
20
-45.30425599508901
11
22.55454890959245
21
-45.23405813600744
0
LINE
8
Polygon
10
22.55454890959245
20
-45.23405813600744
11
22.58441545410019
21
-45.163725322849366
0
LINE
8
Polygon
10
22.58441545410019
20
-45.163725322849366
11
22.613965566252812
21
-45.09325897656032
0
LINE
8
Polygon
10
22.613965566252812
20
-45.09325897656032
11
22.64319864904448
21
-45.0226605207836
0
LINE
8
Polygon
10
22.64319864904448
20
-45.0226605207836
11
22.672114111874365
21
-44.951931381831585
0
LINE
8
Polygon
10
22.672114111874365
20
-44.95193138183158
11
22.70071137055855
21
-44.88107298865681
0
LINE
8
Polygon
10
22.70071137055855
20
-44.88107298865681
11
22.72898984734187
21
-44.8100867728232
0
LINE
8
Polygon
10
22.72898984734187
20
-44.8100867728232
11
22.756948970909548
21
-44.73897416847707
0
LINE
8
Polygon
10
22.756948970909548
20
-44.73897416847707
11
22.784588176398763
21
-44.667736612318215
0
LINE
8
Polygon
10
22.784588176398763
20
-44.667736612318215
11
22.81190690541004
21
-44.59637554357083
0
LINE
8
Polygon
10
22.81190690541004
20
-44.59637554357083
11
22.838904606018556
21
-44.52489240395445
0
LINE
8
Polygon
10
22.838904606018556
20
-44.52489240395445
11
22.865580732785272
21
-44.45328863765486
0
LINE
8
Polygon
10
22.865580732785272
20
-44.45328863765486
11
22.891934746767962
21
-44.381565691294846
0
LINE
8
Polygon
10
22.891934746767962
20
-44.381565691294846
11
22.91796611553209
21
-44.30972501390504
0
LINE
8
Polygon
10
22.91796611553209
20
-44.30972501390503
11
22.94367431316159
21
-44.23776805689459
0
LINE
8
Polygon
10
22.94367431316159
20
-44.23776805689459
11
22.969058820269463
21
-44.165696274021876
0
LINE
8
Polygon
10
22.969058820269463
20
-44.16569627402187
11
22.994119124008293
21
-44.09351112136512
0
LINE
8
Polygon
10
22.994119124008293
20
-44.09351112136512
11
23.018854718080583
21
-44.02121405729298
0
LINE
8
Polygon
10
23.018854718080583
20
-44.02121405729298
11
23.043265102749018
21
-43.94880654243505
0
LINE
8
Polygon
10
23.043265102749018
20
-43.94880654243505
11
23.067349784846538
21
-43.87629003965243
0
LINE
8
Polygon
10
23.067349784846538
20
-43.87629003965243
11
23.091108277786297
21
-43.80366601400807
0
LINE
8
Polygon
10
23.091108277786297
20
-43.80366601400807
11
23.11454010157151
21
-43.73093593273725
0
LINE
8
Polygon
10
23.11454010157151
20
-43.73093593273725
11
23.137644782805143
21
-43.658101265217915
0
LINE
8
Polygon
10
23.137644782805143
20
-43.65810126521791
11
23.160421854699475
21
-43.58516348294095
0
LINE
8
Polygon
10
23.160421854699475
20
-43.58516348294095
11
23.182870857085536
21
-43.51212405948052
0
LINE
8
Polygon
10
23.182870857085536
20
-43.51212405948052
11
23.204991336422392
21
-43.438984470464256
0
LINE
8
Polygon
10
23.204991336422392
20
-43.438984470464256
11
23.22678284580632
21
-43.36574619354343
0
LINE
8
Polygon
10
23.22678284580632
20
-43.36574619354343
11
23.24824494497983
21
-43.29241070836315
0
LINE
8
Polygon
10
23.24824494497983
20
-43.29241070836315
11
23.26937720034056
21
-43.21897949653241
0
LINE
8
Polygon
10
23.26937720034056
20
-43.21897949653241
11
23.29017918495004
21
-43.14545404159422
0
LINE
8
Polygon
10
23.29017918495004
20
-43.14545404159423
11
23.303448454906036
21
-43.101973695958286
0
LINE
8
Polygon
10
23.303448454906036
20
-43.101973695958286
11
23.318680120605084
21
-43.05914134437892
0
LINE
8
Polygon
10
23.318680120605084
20
-43.05914134437892
11
23.33584270407389
21
-43.017045504792776
0
LINE
8
Polygon
10
23.33584270407389
20
-43.017045504792776
11
23.354900736877486
21
-42.97577317305053
0
LINE
8
Polygon
10
23.354900736877486
20
-42.97577317305053
11
23.375814833418822
21
-42.935409643129994
0
LINE
8
Polygon
10
23.375814833418822
20
-42.935409643129994
11
23.398541772333562
21
-42.896038330866475
0
LINE
8
Polygon
10
23.398541772333562
20
-42.896038330866475
11
23.423034585811987
21
-42.85774060156437
0
LINE
8
Polygon
10
23.423034585811987
20
-42.85774060156437
11
23.44924265666331
21
-42.82059560184655
0
LINE
8
Polygon
10
23.44924265666331
20
-42.82059560184655
11
23.47711182292187
21
-42.78468009608874
0
LINE
8
Polygon
10
23.47711182292187
20
-42.78468009608874
11
23.506584489779016
21
-42.75006830777734
0
LINE
8
Polygon
10
23.506584489779016
20
-42.75006830777734
11
23.53759974860935
21
-42.716831766118
0
LINE
8
Polygon
10
23.53759974860935
20
-42.716831766118
11
23.57009350284531
21
-42.685039158212405
0
LINE
8
Polygon
10
23.57009350284531
20
-42.685039158212405
11
23.603998600440082
21
-42.65475618710858
0
LINE
8
Polygon
10
23.603998600440082
20
-42.65475618710858
11
23.639244972644917
21
-42.626045436018025
0
LINE
8
Polygon
10
23.639244972644917
20
-42.626045436018025
11
23.675759778814214
21
-42.59896623898036
0
LINE
8
Polygon
10
23.675759778814214
20
-42.59896623898036
11
23.713467556939
21
-42.57357455824281
0
LINE
8
Polygon
10
23.713467556939
20
-42.57357455824281
11
23.752290379597778
21
-42.5499228686078
0
LINE
8
Polygon
10
23.752290379597778
20
-42.5499228686078
11
23.79214801500243
21
-42.52806004898782
0
LINE
8
Polygon
10
23.79214801500243
20
-42.52806004898782
11
23.832958092806347
21
-42.50803128139158
0
LINE
8
Polygon
10
23.832958092806347
20
-42.50803128139158
11
23.874636274332143
21
-42.48987795755024
0
LINE
8
Polygon
10
23.874636274332143
20
-42.48987795755024
11
23.91709642686714
21
-42.473637593376665
0
LINE
8
Polygon
10
23.91709642686714
20
-42.473637593376665
11
23.960250801666444
21
-42.45934375143452
0
LINE
8
Polygon
10
23.960250801666444
20
-42.45934375143452
11
24.004010215295715
21
-42.4470259715774
0
LINE
8
Polygon
10
24.004010215295715
20
-42.4470259715774
11
24.048284233938915
21
-42.43670970990142
0
LINE
8
Polygon
10
24.048284233938915
20
-42.43670970990142
11
24.092981360290086
21
-42.42841628613718
0
LINE
8
Polygon
10
24.092981360290086
20
-42.42841628613718
11
24.13800922264296
21
-42.42216283959018
0
LINE
8
Polygon
10
24.13800922264296
20
-42.42216283959018
11
24.183274765787637
21
-42.41796229372049
0
LINE
8
Polygon
10
24.183274765787637
20
-42.41796229372049
11
24.228684443319757
21
-42.41582332943495
0
LINE
8
Polygon
10
24.228684443319757
20
-42.41582332943495
11
24.27414441096482
21
-42.41575036714704
0
LINE
8
Polygon
10
24.27414441096482
20
-42.41575036714704
11
24.319560720518087
21
-42.417743557641664
0
LINE
8
Polygon
10
24.319560720518087
20
-42.417743557641664
11
24.36483951399923
21
-42.421798781763464
0
LINE
8
Polygon
10
24.364839513999225
20
-42.421798781763464
11
24.409887217620557
21
-42.42790765892958
0
LINE
8
Polygon
10
24.409887217620557
20
-42.42790765892958
11
24.454610735167925
21
-42.43605756444903
0
LINE
8
Polygon
10
24.454610735167925
20
-42.43605756444903
11
24.498917640394655
21
-42.44623165561314
0
LINE
8
Polygon
10
24.498917640394655
20
-42.44623165561314
11
24.542716368030913
21
-42.45840890650284
0
LINE
8
Polygon
10
24.542716368030913
20
-42.45840890650284
11
24.58591640301378
21
-42.4725641514412
0
LINE
8
Polygon
10
24.58591640301378
20
-42.4725641514412
11
24.62842846754695
21
-42.48866813700109
0
LINE
8
Polygon
10
24.62842846754695
20
-42.48866813700109
11
24.670164705603465
21
-42.50668758246081
0
LINE
8
Polygon
10
24.670164705603465
20
-42.50668758246081
11
24.711038864490206
21
-42.52658524858242
0
LINE
8
Polygon
10
24.711038864490206
20
-42.52658524858242
11
24.750966473098927
21
-42.54832001457092
0
LINE
8
Polygon
10
24.750966473098927
20
-42.54832001457092
11
24.78986501647542
21
-42.571846963055
0
LINE
8
Polygon
10
24.78986501647542
20
-42.571846963055
11
24.827654106346067
21
-42.59711747291401
0
LINE
8
Polygon
10
24.827654106346067
20
-42.59711747291401
11
24.864255647249387
21
-42.62407931975892
0
LINE
8
Polygon
10
24.864255647249387
20
-42.62407931975892
11
24.89959399792919
21
-42.65267678386008
0
LINE
8
Polygon
10
24.89959399792919
20
-42.65267678386008
11
24.93359612765587
21
-42.682850765298326
0
LINE
8
Polygon
10
24.93359612765587
20
-42.682850765298326
11
24.966191767152726
21
-42.71453890610174
0
LINE
8
Polygon
10
24.966191767152726
20
-42.71453890610174
11
24.997313553815424
21
-42.74767571911548
0
LINE
8
Polygon
10
24.997313553815424
20
-42.74767571911548
11
25.02689717092451
21
-42.78219272333845
0
LINE
8
Polygon
10
25.02689717092452
20
-42.78219272333843
11
25.363470036703774
21
-43.15376802226487
0
LINE
8
Polygon
10
25.363470036703774
20
-43.15376802226487
11
25.73556178396568
21
-43.4897698501925
0
LINE
8
Polygon
10
25.73556178396567
20
-43.4897698501925
11
26.139431409773454
21
-43.78682005150705
0
LINE
8
Polygon
10
26.139431409773454
20
-43.78682005150705
11
26.571018417039117
21
-44.04193208946409
0
LINE
8
Polygon
10
26.571018417039117
20
-44.04193208946409
11
27.025983638679435
21
-44.25254107276941
0
LINE
8
Polygon
10
27.025983638679435
20
-44.25254107276941
11
27.49975286351447
21
-44.4165295429444
0
LINE
8
Polygon
10
27.49975286351447
20
-44.4165295429444
11
27.98756282529468
21
-44.532248763211015
0
LINE
8
Polygon
10
27.98756282529468
20
-44.532248763211015
11
28.48450909248393
21
-44.59853529485811
0
LINE
8
Polygon
10
28.48450909248393
20
-44.59853529485811
11
28.98559537731539
21
-44.61472269443084
0
LINE
8
Polygon
10
28.98559537731539
20
-44.61472269443084
11
29.485783768368222
21
-44.580648214139764
0
LINE
8
Polygon
10
29.485783768368222
20
-44.580648214139764
11
29.980045381627544
21
-44.4966544381238
0
LINE
8
Polygon
10
29.980045381627544
20
-44.4966544381238
11
30.46341092078311
21
-44.36358583811624
0
LINE
8
Polygon
10
30.46341092078311
20
-44.36358583811624
11
30.931020638434383
21
-44.182780283142876
0
LINE
8
Polygon
10
30.931020638434383
20
-44.182780283142876
11
31.37817319589305
21
-43.95605558861381
0
LINE
8
Polygon
10
31.37817319589305
20
-43.95605558861381
11
31.800372930347585
21
-43.68569124004388
0
LINE
8
Polygon
10
31.800372930347585
20
-43.68569124004388
11
32.19337505416666
21
-43.37440547515118
0
LINE
8
Polygon
10
32.19337505416666
20
-43.37440547515118
11
32.553228331908485
21
-43.025327954749784
0
LINE
8
Polygon
10
32.553228331908485
20
-43.025327954749784
11
32.876314805962494
21
-42.64196829720289
0
LINE
8
Polygon
10
32.876314805962494
20
-42.64196829720289
11
33.159386171422256
21
-42.22818079279045
0
LINE
8
Polygon
10
33.159386171422256
20
-42.22818079279045
11
33.39959643447766
21
-41.78812565275231
0
LINE
8
Polygon
10
33.39959643447765
20
-41.78812565275231
11
33.59453052597935
21
-41.326227182608136
0
LINE
8
Polygon
10
33.59453052597935
20
-41.326227182608136
11
33.74222858249541
21
-40.847129300278745
0
LINE
8
Polygon
10
33.74222858249541
20
-40.847129300278745
11
33.841205650738765
21
-40.35564884622887
0
LINE
8
Polygon
10
33.841205650738765
20
-40.35564884622887
11
33.8904666172577
21
-39.85672715505004
0
LINE
8
Polygon
10
33.8904666172577
20
-39.85672715505003
11
33.88951621328646
21
-39.35538037538209
0
LINE
8
Polygon
10
33.88951621328646
20
-39.35538037538209
11
33.838363994167445
21
-38.85664903765573
0
LINE
8
Polygon
10
33.838363994167445
20
-38.85664903765573
11
33.737524243281975
21
-38.36554737670101
0
LINE
8
Polygon
10
33.737524243281975
20
-38.36554737670101
11
33.58801080145556
21
-37.88701291873132
0
LINE
8
Polygon
10
33.58801080145556
20
-37.88701291873132
11
33.39132687382262
21
-37.42585683955421
0
LINE
8
Polygon
10
33.39132687382262
20
-37.425856839554214
11
33.149449916632335
21
-36.98671559310667
0
LINE
8
Polygon
10
33.149449916632335
20
-36.98671559310667
11
32.864811755943336
21
-36.5740042966406
0
LINE
8
Polygon
10
32.864811755943336
20
-36.5740042966406
11
32.54027413809342
21
-36.1918723412228
0
LINE
8
Polygon
10
32.54027413809342
20
-36.1918723412228
11
32.17909995775954
21
-35.844161673840745
0
LINE
8
Polygon
10
32.17909995775954
20
-35.844161673840745
11
31.78492045288034
21
-35.534368170544894
0
LINE
8
Polygon
10
31.78492045288034
20
-35.534368170544894
11
31.361698696263062
21
-35.265606488981255
0
LINE
8
Polygon
10
31.361698696263062
20
-35.265606488981255
11
30.913689750929308
21
-35.04057875368611
0
LINE
8
Polygon
10
30.913689750929308
20
-35.04057875368611
11
30.44539788979706
21
-34.86154738898032
0
LINE
8
Polygon
10
30.44539788979706
20
-34.86154738898032
11
29.961531309811445
21
-34.73031237260073
0
LINE
8
Polygon
10
29.96153130981144
20
-34.73031237260073
11
29.466954795827423
21
-34.64819313876028
0
LINE
8
Polygon
10
29.466954795827426
20
-34.64819313876028
11
28.966640810160797
21
-34.616015312582945
0
LINE
8
Polygon
10
28.966640810160797
20
-34.616015312582945
11
28.465619499552155
21
-34.63410240928537
0
LINE
8
Polygon
10
28.465619499552155
20
-34.63410240928537
11
27.968928122172816
21
-34.702272581561395
0
LINE
8
Polygon
10
27.968928122172816
20
-34.702272581561395
11
27.481560403132583
21
-34.81984044787122
0
LINE
8
Polygon
10
27.481560403132583
20
-34.81984044787122
11
27.008416327667994
21
-34.985623983253625
0
LINE
8
Polygon
10
27.008416327667994
20
-34.985623983253625
11
26.5542528767894
21
-35.197956403381056
0
LINE
8
Polygon
10
26.5542528767894
20
-35.197956403381056
11
26.12363620068965
21
-35.454702922375816
0
LINE
8
Polygon
10
26.12363620068965
20
-35.454702922375816
11
25.720895710761948
21
-35.75328221590422
0
LINE
8
Polygon
10
25.720895710761948
20
-35.75328221590422
11
25.35008055178488
21
-36.09069237375952
0
LINE
8
Polygon
10
25.350080551784878
20
-36.09069237375951
11
25.317308213127692
21
-36.122197735219494
0
LINE
8
Polygon
10
25.317308213127692
20
-36.122197735219494
11
25.283137873832146
21
-36.15218109550838
0
LINE
8
Polygon
10
25.283137873832146
20
-36.15218109550838
11
25.24764015079918
21
-36.18058049059456
0
LINE
8
Polygon
10
25.24764015079918
20
-36.18058049059456
11
25.210888404119547
21
-36.20733722989108
0
LINE
8
Polygon
10
25.210888404119547
20
-36.20733722989108
11
25.17295858546679
21
-36.23239601754641
0
LINE
8
Polygon
10
25.17295858546679
20
-36.23239601754641
11
25.13392908113446
21
-36.25570506671959
0
LINE
8
Polygon
10
25.13392908113446
20
-36.25570506671959
11
25.09388055004191
21
-36.27721620660373
0
LINE
8
Polygon
10
25.09388055004191
20
-36.27721620660373
11
25.052895757043448
21
-36.29688498197636
0
LINE
8
Polygon
10
25.052895757043448
20
-36.29688498197636
11
25.011059401885323
21
-36.3146707450713
0
LINE
8
Polygon
10
25.011059401885323
20
-36.3146707450713
11
24.968457944164054
21
-36.33053673958185
0
LINE
8
Polygon
10
24.968457944164054
20
-36.33053673958185
11
24.925179424647816
21
-36.34445017662193
0
LINE
8
Polygon
10
24.925179424647816
20
-36.34445017662193
11
24.881313283330147
21
-36.35638230248802
0
LINE
8
Polygon
10
24.881313283330147
20
-36.35638230248802
11
24.836950174592022
21
-36.36630845808197
0
LINE
8
Polygon
10
24.836950174592022
20
-36.36630845808197
11
24.792181779854236
21
-36.374208129871825
0
LINE
8
Polygon
10
24.792181779854236
20
-36.374208129871825
11
24.747100618107297
21
-36.38006499228544
0
LINE
8
Polygon
10
24.747100618107297
20
-36.38006499228544
11
24.701799854710384
21
-36.38386694144906
0
LINE
8
Polygon
10
24.701799854710384
20
-36.38386694144906
11
24.656373108854517
21
-36.385606120201366
0
LINE
8
Polygon
10
24.656373108854517
20
-36.385606120201366
11
24.610914260087835
21
-36.38527893433124
0
LINE
8
Polygon
10
24.610914260087835
20
-36.38527893433124
11
24.565517254302787
21
-36.38288606000558
0
LINE
8
Polygon
10
24.565517254302787
20
-36.38288606000558
11
24.520275909586267
21
-36.378432442371924
0
LINE
8
Polygon
10
24.520275909586267
20
-36.378432442371924
11
24.475283722333817
21
-36.37192728533874
0
LINE
8
Polygon
10
24.475283722333817
20
-36.37192728533874
11
24.430633674028687
21
-36.363384032554514
0
LINE
8
Polygon
10
24.430633674028687
20
-36.363384032554514
11
24.38641803908499
21
-36.352820339624884
0
LINE
8
Polygon
10
24.38641803908499
20
-36.352820339624884
11
24.342728194152112
21
-36.340258037625375
0
LINE
8
Polygon
10
24.342728194152112
20
-36.340258037625375
11
24.299654429274455
21
-36.325723087984926
0
LINE
8
Polygon
10
24.299654429274455
20
-36.325723087984926
11
24.257285761296764
21
-36.309245528833706
0
LINE
8
Polygon
10
24.257285761296764
20
-36.309245528833706
11
24.215709749900675
21
-36.29085941292583
0
LINE
8
Polygon
10
24.215709749900675
20
-36.29085941292583
11
24.175012316652637
21
-36.27060273726551
0
LINE
8
Polygon
10
24.175012316652637
20
-36.27060273726551
11
24.135277567437228
21
-36.248517364581886
0
LINE
8
Polygon
10
24.135277567437228
20
-36.248517364581886
11
24.096587618642744
21
-36.224648936814944
0
LINE
8
Polygon
10
24.096587618642744
20
-36.224648936814944
11
24.05902242745831
21
-36.19904678079123
0
LINE
8
Polygon
10
24.05902242745831
20
-36.19904678079123
11
24.02265962663326
21
-36.17176380628433
0
LINE
8
Polygon
10
24.02265962663326
20
-36.17176380628433
11
23.9875743640402
21
-36.14285639667085
0
LINE
8
Polygon
10
23.9875743640402
20
-36.14285639667085
11
23.95383914737335
21
-36.11238429240766
0
LINE
8
Polygon
10
23.95383914737335
20
-36.11238429240766
11
23.92152369430316
21
-36.08041046757149
0
LINE
8
Polygon
10
23.92152369430316
20
-36.08041046757149
11
23.89069478839677
21
-36.04700099971579
0
LINE
8
Polygon
10
23.89069478839677
20
-36.04700099971579
11
23.861416141102172
21
-36.012224933313966
0
LINE
8
Polygon
10
23.861416141102172
20
-36.012224933313966
11
23.83374826008123
21
-35.97615413707107
0
LINE
8
Polygon
10
23.83374826008123
20
-35.97615413707107
11
23.807748324163704
21
-35.93886315539895
0
LINE
8
Polygon
10
23.807748324163704
20
-35.93886315539895
11
23.783470065180694
21
-35.90042905436172
0
LINE
8
Polygon
10
23.783470065180694
20
-35.90042905436172
11
23.760963656921668
21
-35.86093126240997
0
LINE
8
Polygon
10
23.760963656921668
20
-35.86093126240997
11
23.74027561144461
21
-35.82045140623279
0
LINE
8
Polygon
10
23.74027561144461
20
-35.82045140623279
11
23.721448682953554
21
-35.77907314206695
0
LINE
8
Polygon
10
23.721448682953554
20
-35.77907314206695
11
23.704521779442164
21
-35.736881982811695
0
LINE
8
Polygon
10
23.704521779442164
20
-35.736881982811695
11
23.6895298822859
21
-35.69396512130667
0
LINE
8
Polygon
10
23.6895298822859
20
-35.69396512130667
11
23.67650397394904
21
-35.65041125013791
0
LINE
8
Polygon
10
23.67650397394904
20
-35.65041125013791
11
23.665470973955877
21
-35.60631037834451
0
LINE
8
Polygon
10
23.665470973955877
20
-35.60631037834451
11
23.656453683258455
21
-35.561753645404764
0
LINE
8
Polygon
10
23.656453683258455
20
-35.56175364540477
11
23.642834197603705
21
-35.48656571620027
0
LINE
8
Polygon
10
23.642834197603705
20
-35.48656571620027
11
23.628876896183847
21
-35.41143976313053
0
LINE
8
Polygon
10
23.628876896183847
20
-35.41143976313053
11
23.614582060980567
21
-35.33637730397769
0
LINE
8
Polygon
10
23.614582060980567
20
-35.33637730397769
11
23.599949980794797
21
-35.261379855241096
0
LINE
8
Polygon
10
23.599949980794797
20
-35.261379855241096
11
23.584980951240887
21
-35.186448932106686
0
LINE
8
Polygon
10
23.584980951240887
20
-35.186448932106686
11
23.569675274740632
21
-35.11158604841636
0
LINE
8
Polygon
10
23.569675274740632
20
-35.11158604841636
11
23.55403326051716
21
-35.03679271663743
0
LINE
8
Polygon
10
23.55403326051716
20
-35.03679271663743
11
23.538055224588696
21
-34.962070447832005
0
LINE
8
Polygon
10
23.538055224588696
20
-34.962070447832005
11
23.521741489762146
21
-34.88742075162653
0
LINE
8
Polygon
10
23.521741489762146
20
-34.88742075162653
11
23.505092385626615
21
-34.812845136181224
0
LINE
8
Polygon
10
23.505092385626615
20
-34.812845136181224
11
23.488108248546723
21
-34.73834510815968
0
LINE
8
Polygon
10
23.488108248546723
20
-34.73834510815968
11
23.470789421655823
21
-34.66392217269833
0
LINE
8
Polygon
10
23.470789421655823
20
-34.66392217269833
11
23.45313625484905
21
-34.58957783337613
0
LINE
8
Polygon
10
23.45313625484905
20
-34.58957783337613
11
23.435149104776272
21
-34.51531359218416
0
LINE
8
Polygon
10
23.435149104776272
20
-34.51531359218416
11
23.416828334834875
21
-34.44113094949521
0
LINE
8
Polygon
10
23.416828334834875
20
-34.44113094949521
11
23.39817431516242
21
-34.367031404033575
0
LINE
8
Polygon
10
23.39817431516242
20
-34.367031404033575
11
23.379187422629176
21
-34.2930164528447
0
LINE
8
Polygon
10
23.379187422629176
20
-34.2930164528447
11
23.359868040830488
21
-34.21908759126495
0
LINE
8
Polygon
10
23.359868040830488
20
-34.21908759126495
11
23.340216560079043
21
-34.14524631289142
0
LINE
8
Polygon
10
23.340216560079043
20
-34.14524631289142
11
23.320233377396974
21
-34.07149410955175
0
LINE
8
Polygon
10
23.320233377396974
20
-34.07149410955175
11
23.299918896507847
21
-33.99783247127397
0
LINE
8
Polygon
10
23.299918896507847
20
-33.99783247127397
11
23.2792735278285
21
-33.924262886256415
0
LINE
8
Polygon
10
23.2792735278285
20
-33.924262886256415
11
23.258297688460754
21
-33.85078684083766
0
LINE
8
Polygon
10
23.258297688460754
20
-33.850786840837664
11
23.23699180218298
21
-33.77740581946647
0
LINE
8
Polygon
10
23.23699180218298
20
-33.777405819466466
11
23.215356299441538
21
-33.70412130467182
0
LINE
8
Polygon
10
23.215356299441538
20
-33.70412130467182
11
23.1933916173421
21
-33.63093477703298
0
LINE
8
Polygon
10
23.1933916173421
20
-33.63093477703298
11
23.171098199640788
21
-33.55784771514953
0
LINE
8
Polygon
10
23.171098199640788
20
-33.55784771514953
11
23.148476496735228
21
-33.484861595611534
0
LINE
8
Polygon
10
23.148476496735228
20
-33.484861595611534
11
23.125526965655453
21
-33.41197789296973
0
LINE
8
Polygon
10
23.125526965655453
20
-33.41197789296973
11
23.10225007005465
21
-33.33919807970568
0
LINE
8
Polygon
10
23.10225007005465
20
-33.33919807970568
11
23.07864628019982
21
-33.26652362620205
0
LINE
8
Polygon
10
23.07864628019982
20
-33.26652362620205
11
23.054716072962258
21
-33.193956000712944
0
LINE
8
Polygon
10
23.054716072962258
20
-33.193956000712944
11
23.030459931807915
21
-33.12149666933415
0
LINE
8
Polygon
10
23.030459931807915
20
-33.12149666933415
11
23.005878346787657
21
-33.0491470959736
0
LINE
8
Polygon
10
23.005878346787657
20
-33.0491470959736
11
22.98097181452733
21
-32.976908742321775
0
LINE
8
Polygon
10
22.98097181452733
20
-32.976908742321775
11
22.955740838217746
21
-32.90478306782215
0
LINE
8
Polygon
10
22.955740838217746
20
-32.90478306782215
11
22.930185927604526
21
-32.83277152964172
0
LINE
8
Polygon
10
22.930185927604526
20
-32.83277152964172
11
22.90430759897778
21
-32.76087558264158
0
LINE
8
Polygon
10
22.90430759897778
20
-32.76087558264158
11
22.878106375161682
21
-32.68909667934751
0
LINE
8
Polygon
10
22.878106375161682
20
-32.68909667934751
11
22.851582785503922
21
-32.61743626992063
0
LINE
8
Polygon
10
22.851582785503922
20
-32.61743626992063
11
22.82473736586499
21
-32.54589580212812
0
LINE
8
Polygon
10
22.82473736586499
20
-32.54589580212812
11
22.79757065860737
21
-32.47447672131396
0
LINE
8
Polygon
10
22.79757065860737
20
-32.47447672131396
11
22.770083212584566
21
-32.40318047036972
0
LINE
8
Polygon
10
22.770083212584566
20
-32.40318047036972
11
22.742275583130027
21
-32.332008489705416
0
LINE
8
Polygon
10
22.742275583130027
20
-32.332008489705416
11
22.714148332045912
21
-32.26096221722042
0
LINE
8
Polygon
10
22.714148332045912
20
-32.26096221722042
11
22.685702027591763
21
-32.19004308827439
0
LINE
8
Polygon
10
22.685702027591763
20
-32.19004308827439
11
22.656937244472996
21
-32.119252535658305
0
LINE
8
Polygon
10
22.656937244472996
20
-32.119252535658305
11
22.627854563829317
21
-32.04859198956546
0
LINE
8
Polygon
10
22.627854563829317
20
-32.04859198956546
11
50.0
21
-20.710678118654748
0
LINE
8
Polygon
10
50.0
20
-20.710678118654748
11
74.26878466919193
21
-30.76313787094631
0
LINE
8
Polygon
10
85.76781185072036
20
-47.34824805574526
11
86.93034229353222
21
-81.14956076566446
0
LINE
8
Polygon
10
86.93034229353222
20
-81.14956076566446
11
21.92780286795229
21
-46.543137331636665
0
ENDSEC
0
EOF
