0
SECTION
2
ENTITIES
0
LINE
8
Polygon
10
-72.5442190897696
20
-59.162809773772715
11
-72.59572569200297
21
-59.10008769974122
0
LINE
8
Polygon
10
-72.59572569200297
20
-59.10008769974122
11
-72.6476553254582
21
-59.037715415723035
0
LINE
8
Polygon
10
-72.6476553254582
20
-59.037715415723035
11
-72.70000561471926
21
-58.97569577481209
0
LINE
8
Polygon
10
-72.70000561471926
20
-58.97569577481209
11
-72.7527741651281
21
-58.91403161397136
0
LINE
8
Polygon
10
-72.7527741651281
20
-58.91403161397136
11
-72.80595856289413
21
-58.85272575390316
0
LINE
8
Polygon
10
-72.80595856289413
20
-58.85272575390316
11
-72.8595563752047
21
-58.791780998919975
0
LINE
8
Polygon
10
-72.8595563752047
20
-58.791780998919975
11
-72.91356515033634
21
-58.731200136816334
0
LINE
8
Polygon
10
-72.91356515033634
20
-58.731200136816334
11
-72.96798241776688
21
-58.67098593874118
0
LINE
8
Polygon
10
-72.96798241776688
20
-58.67098593874118
11
-73.02280568828854
21
-58.61114115907121
0
LINE
8
Polygon
10
-73.02280568828854
20
-58.61114115907121
11
-73.07803245412174
21
-58.55166853528475
0
LINE
8
Polygon
10
-73.07803245412174
20
-58.55166853528475
11
-73.1336601890298
21
-58.49257078783666
0
LINE
8
Polygon
10
-73.1336601890298
20
-58.49257078783666
11
-73.18968634843455
21
-58.43385062003384
0
LINE
8
Polygon
10
-73.18968634843453
20
-58.43385062003384
11
-73.24610836953266
21
-58.37551071791152
0
LINE
8
Polygon
10
-73.24610836953266
20
-58.37551071791152
11
-73.30292367141298
21
-58.3175537501105
0
LINE
8
Polygon
10
-73.30292367141298
20
-58.3175537501105
11
-73.36012965517446
21
-58.259982367755015
0
LINE
8
Polygon
10
-73.36012965517446
20
-58.259982367755015
11
-73.41772370404513
21
-58.20279920433147
0
LINE
8
Polygon
10
-73.41772370404512
20
-58.20279920433147
11
-73.47570318350171
21
-58.146006875567956
0
LINE
8
Polygon
10
-73.47570318350171
20
-58.146006875567956
11
-73.53406544139027
21
-58.089607979314664
0
LINE
8
Polygon
10
-73.53406544139027
20
-58.089607979314664
11
-73.59280780804738
21
-58.03360509542498
0
LINE
8
Polygon
10
-73.59280780804738
20
-58.03360509542498
11
-73.65192759642234
21
-57.978000785637526
0
LINE
8
Polygon
10
-73.65192759642234
20
-57.978000785637526
11
-73.71142210220005
21
-57.92279759345894
0
LINE
8
Polygon
10
-73.71142210220005
20
-57.92279759345894
11
-73.77128860392472
21
-57.86799804404757
0
LINE
8
Polygon
10
-73.77128860392472
20
-57.86799804404757
11
-73.83152436312433
21
-57.81360464409791
0
LINE
8
Polygon
10
-73.83152436312433
20
-57.81360464409791
11
-73.892126624436
21
-57.75961988172599
0
LINE
8
Polygon
10
-73.892126624436
20
-57.75961988172599
11
-73.95309261573188
21
-57.70604622635553
0
LINE
8
Polygon
10
-73.95309261573188
20
-57.70604622635553
11
-74.01441954824602
21
-57.65288612860503
0
LINE
8
Polygon
10
-74.01441954824602
20
-57.65288612860503
11
-74.07610461670203
21
-57.60014202017558
0
LINE
8
Polygon
10
-74.07610461670203
20
-57.60014202017558
11
-74.13814499944122
21
-57.547816313739695
0
LINE
8
Polygon
10
-74.13814499944122
20
-57.547816313739695
11
-74.20053785855183
21
-57.49591140283097
0
LINE
8
Polygon
10
-74.20053785855183
20
-57.49591140283097
11
-74.26328033999874
21
-57.44442966173451
0
LINE
8
Polygon
10
-74.26328033999874
20
-57.44442966173451
11
-74.3263695737541
21
-57.3933734453784
0
LINE
8
Polygon
10
-74.3263695737541
20
-57.3933734453784
11
-74.38980267392856
21
-57.34274508922598
0
LINE
8
Polygon
10
-74.38980267392856
20
-57.34274508922598
11
-74.4535767389033
21
-57.29254690916894
0
LINE
8
Polygon
10
-74.4535767389033
20
-57.29254690916894
11
-74.51768885146272
21
-57.24278120142148
0
LINE
8
Polygon
10
-74.51768885146272
20
-57.24278120142148
11
-74.582136078928
21
-57.1934502424152
0
LINE
8
Polygon
10
-74.582136078928
20
-57.1934502424152
11
-74.64691547329106
21
-57.14455628869499
0
LINE
8
Polygon
10
-74.64691547329106
20
-57.14455628869499
11
-74.71202407134963
21
-57.09610157681587
0
LINE
8
Polygon
10
-74.71202407134963
20
-57.09610157681587
11
-74.77745889484257
21
-57.048088323240584
0
LINE
8
Polygon
10
-74.77745889484257
20
-57.048088323240584
11
-74.84321695058632
21
-57.00051872423826
0
LINE
8
Polygon
10
-74.84321695058632
20
-57.00051872423826
11
-74.90929523061165
21
-56.95339495578396
0
LINE
8
Polygon
10
-74.90929523061165
20
-56.95339495578396
11
-74.97569071230133
21
-56.906719173459145
0
LINE
8
Polygon
10
-74.97569071230133
20
-56.906719173459145
11
-75.04240035852841
21
-56.86049351235302
0
LINE
8
Polygon
10
-75.04240035852841
20
-56.86049351235302
11
-75.10942111779507
21
-56.81472008696492
0
LINE
8
Polygon
10
-75.10942111779507
20
-56.81472008696492
11
-75.1767499243723
21
-56.76940099110759
0
LINE
8
Polygon
10
-75.1767499243723
20
-56.76940099110759
11
-75.24438369844006
21
-56.724538297811364
0
LINE
8
Polygon
10
-75.24438369844006
20
-56.724538297811364
11
-75.3123193462282
21
-56.680134059229395
0
LINE
8
Polygon
10
-75.3123193462282
20
-56.680134059229395
11
-75.38055376015797
21
-56.63619030654371
0
LINE
8
Polygon
10
-75.38055376015797
20
-56.63619030654371
11
-75.44908381898415
21
-56.59270904987237
0
LINE
8
Polygon
10
-75.44908381898415
20
-56.59270904987238
11
-75.46457672875255
21
-56.58244207512768
0
LINE
8
Polygon
10
-75.46457672875255
20
-56.58244207512768
11
-75.47957598653326
21
-56.571466498171205
0
LINE
8
Polygon
10
-75.47957598653326
20
-56.571466498171205
11
-75.4940492088328
21
-56.5598060153438
0
LINE
8
Polygon
10
-75.4940492088328
20
-56.5598060153438
11
-75.50796514787163
21
-56.547485801702514
0
LINE
8
Polygon
10
-75.50796514787163
20
-56.547485801702514
11
-75.52129375904838
21
-56.534532456667364
0
LINE
8
Polygon
10
-75.52129375904838
20
-56.534532456667364
11
-75.53400626580618
21
-56.520973946593166
0
LINE
8
Polygon
10
-75.53400626580618
20
-56.520973946593166
11
-75.54607522176171
21
-56.5068395443899
0
LINE
8
Polygon
10
-75.54607522176171
20
-56.5068395443899
11
-75.5574745699618
21
-56.49215976632234
0
LINE
8
Polygon
10
-75.5574745699618
20
-56.49215976632234
11
-75.56817969914079
21
-56.476966306125234
0
LINE
8
Polygon
10
-75.56817969914079
20
-56.476966306125234
11
-75.57816749685628
21
-56.46129196657633
0
LINE
8
Polygon
10
-75.57816749685628
20
-56.46129196657633
11
-75.58741639938916
21
-56.44517058867501
0
LINE
8
Polygon
10
-75.58741639938916
20
-56.44517058867501
11
-75.59590643829964
21
-56.42863697857926
0
LINE
8
Polygon
10
-75.59590643829964
20
-56.42863697857926
11
-75.60361928353943
21
-56.41172683245904
0
LINE
8
Polygon
10
-75.60361928353943
20
-56.41172683245904
11
-75.61053828302633
21
-56.39447665942803
0
LINE
8
Polygon
10
-75.61053828302633
20
-56.39447665942803
11
-75.61664849859616
21
-56.376923702720106
0
LINE
8
Polygon
10
-75.61664849859616
20
-56.376923702720106
11
-75.62193673825445
21
-56.35910585928111
0
LINE
8
Polygon
10
-75.62193673825445
20
-56.35910585928111
11
-75.62639158465792
21
-56.34106159794901
0
LINE
8
Polygon
10
-75.62639158465792
20
-56.34106159794901
11
-75.63000341976472
21
-56.32282987639944
0
LINE
8
Polygon
10
-75.63000341976472
20
-56.32282987639944
11
-75.6327644455997
21
-56.30445005703584
0
LINE
8
Polygon
10
-75.6327644455997
20
-56.30445005703584
11
-75.63466870109048
21
-56.2859618220058
0
LINE
8
Polygon
10
-75.63466870109048
20
-56.2859618220058
11
-75.63571207493723
21
-56.26740508752703
0
LINE
8
Polygon
10
-75.63571207493723
20
-56.26740508752703
11
-75.63589231448915
21
-56.24881991770796
0
LINE
8
Polygon
10
-75.63589231448915
20
-56.24881991770796
11
-75.63520903060792
21
-56.230246438049114
0
LINE
8
Polygon
10
-75.63520903060792
20
-56.230246438049114
11
-75.63366369850777
21
-56.211724748811896
0
LINE
8
Polygon
10
-75.63366369850777
20
-56.211724748811896
11
-75.63125965457064
21
-56.193294838441844
0
LINE
8
Polygon
10
-75.63125965457064
20
-56.193294838441844
11
-75.62800208914273
21
-56.174996497233344
0
LINE
8
Polygon
10
-75.62800208914273
20
-56.174996497233344
11
-75.62389803532864
21
-56.156869231422114
0
LINE
8
Polygon
10
-75.62389803532864
20
-56.156869231422114
11
-75.6189563538068
21
-56.138952177891014
0
LINE
8
Polygon
10
-75.6189563538068
20
-56.138952177891014
11
-75.61318771369926
21
-56.1212840196732
0
LINE
8
Polygon
10
-75.61318771369926
20
-56.1212840196732
11
-75.60660456953688
21
-56.10390290243531
0
LINE
8
Polygon
10
-75.60660456953688
20
-56.10390290243531
11
-75.59922113437004
21
-56.08684635212063
0
LINE
8
Polygon
10
-75.59922113437004
20
-56.08684635212063
11
-75.5910533490825
21
-56.070151193930414
0
LINE
8
Polygon
10
-75.5910533490825
20
-56.070151193930414
11
-75.58211884797491
21
-56.05385347281799
0
LINE
8
Polygon
10
-75.58211884797491
20
-56.05385347281799
11
-75.57243692069235
21
-56.03798837566748
0
LINE
8
Polygon
10
-75.57243692069235
20
-56.03798837566748
11
-75.56202847057774
21
-56.02259015532513
0
LINE
8
Polygon
10
-75.56202847057774
20
-56.02259015532513
11
-75.55091596954146
21
-56.00769205664715
0
LINE
8
Polygon
10
-75.55091596954146
20
-56.00769205664715
11
-75.53912340954435
21
-55.9933262447239
0
LINE
8
Polygon
10
-75.53912340954435
20
-55.9933262447239
11
-75.52667625079886
21
-55.97952373543522
0
LINE
8
Polygon
10
-75.52667625079886
20
-55.97952373543522
11
-75.51360136680034
21
-55.96631432848693
0
LINE
8
Polygon
10
-75.51360136680034
20
-55.96631432848693
11
-75.499926986307
21
-55.95372654307317
0
LINE
8
Polygon
10
-75.499926986307
20
-55.95372654307317
11
-75.48568263239378
21
-55.94178755630313
0
LINE
8
Polygon
10
-75.48568263239378
20
-55.94178755630313
11
-75.47089905871192
21
-55.93052314452566
0
LINE
8
Polygon
10
-75.47089905871192
20
-55.93052314452566
11
-75.45560818309154
21
-55.91995762767781
0
LINE
8
Polygon
10
-75.45560818309154
20
-55.91995762767781
11
-75.43984301863094
21
-55.910113816778065
0
LINE
8
Polygon
10
-75.43984301863094
20
-55.910113816778065
11
-75.42363760242104
21
-55.9010129646771
0
LINE
8
Polygon
10
-75.42363760242104
20
-55.9010129646771
11
-75.40702692205907
21
-55.89267472017285
0
LINE
8
Polygon
10
-75.40702692205907
20
-55.89267472017285
11
-75.39004684011023
21
-55.88511708558852
0
LINE
8
Polygon
10
-75.39004684011023
20
-55.88511708558852
11
-75.37273401668004
21
-55.878356377905526
0
LINE
8
Polygon
10
-75.37273401668004
20
-55.87835637790551
11
-75.19104860050435
21
-55.801892460672974
0
LINE
8
Polygon
10
-75.19104860050435
20
-55.801892460672974
11
-75.01777276738402
21
-55.7079147678627
0
LINE
8
Polygon
10
-75.01777276738402
20
-55.7079147678627
11
-74.85458973267126
21
-55.59733620632647
0
LINE
8
Polygon
10
-74.85458973267126
20
-55.59733620632647
11
-74.70308466946436
21
-55.47123094508745
0
LINE
8
Polygon
10
-74.70308466946436
20
-55.471230945087456
11
-74.56472931010899
21
-55.33082398077609
0
LINE
8
Polygon
10
-74.56472931010899
20
-55.33082398077609
11
-74.44086764967204
21
-55.177479237914504
0
LINE
8
Polygon
10
-74.44086764967204
20
-55.177479237914504
11
-74.33270289026565
21
-55.0126863196442
0
LINE
8
Polygon
10
-74.33270289026565
20
-55.0126863196442
11
-74.24128575304535
21
-54.838046037601565
0
LINE
8
Polygon
10
-74.24128575304535
20
-54.838046037601565
11
-74.16750427142036
21
-54.655254861505156
0
LINE
8
Polygon
10
-74.16750427142036
20
-54.655254861505156
11
-74.11207516462581
21
-54.46608843951266
0
LINE
8
Polygon
10
-74.11207516462581
20
-54.46608843951266
11
-74.0755368754545
21
-54.272384349432144
0
LINE
8
Polygon
10
-74.0755368754545
20
-54.272384349432144
11
-74.0582443397805
21
-54.07602424834374
0
LINE
8
Polygon
10
-74.0582443397805
20
-54.07602424834374
11
-74.06036553868341
21
-53.87891559403171
0
LINE
8
Polygon
10
-74.06036553868341
20
-53.87891559403171
11
-74.08187986666685
21
-53.68297311578642
0
LINE
8
Polygon
10
-74.08187986666685
20
-53.68297311578642
11
-74.12257833182179
21
-53.49010021457031
0
LINE
8
Polygon
10
-74.12257833182179
20
-53.49010021457031
11
-74.18206558599071
21
-53.30217047322816
0
LINE
8
Polygon
10
-74.18206558599071
20
-53.30217047322816
11
-74.25976376521146
21
-53.12100945635293
0
LINE
8
Polygon
10
-74.25976376521146
20
-53.12100945635293
11
-74.35491810313407
21
-52.948376976604784
0
LINE
8
Polygon
10
-74.35491810313407
20
-52.948376976604784
11
-74.4666042628817
21
-52.785949999749604
0
LINE
8
Polygon
10
-74.4666042628817
20
-52.785949999749604
11
-74.59373731613323
21
-52.63530635447895
0
LINE
8
Polygon
10
-74.59373731613323
20
-52.63530635447895
11
-74.73508228220412
21
-52.49790940525553
0
LINE
8
Polygon
10
-74.73508228220412
20
-52.49790940525553
11
-74.88926612474785
21
-52.37509383707325
0
LINE
8
Polygon
10
-74.88926612474785
20
-52.37509383707325
11
-75.05479108954125
21
-52.268052690220145
0
LINE
8
Polygon
10
-75.05479108954125
20
-52.268052690220145
11
-75.23004925378925
21
-52.177825770989195
0
LINE
8
Polygon
10
-75.23004925378925
20
-52.177825770989195
11
-75.41333814561594
21
-52.10528955091653
0
LINE
8
Polygon
10
-75.41333814561594
20
-52.10528955091653
11
-75.60287728201308
21
-52.0511486526666
0
LINE
8
Polygon
10
-75.60287728201308
20
-52.0511486526666
11
-75.79682546459496
21
-52.01592900527101
0
LINE
8
Polygon
10
-75.79682546459496
20
-52.01592900527101
11
-75.99329866514731
21
-51.99997273521174
0
LINE
8
Polygon
10
-75.99329866514731
20
-51.99997273521174
11
-76.19038832722858
21
-52.00343484297698
0
LINE
8
Polygon
10
-76.19038832722858
20
-52.00343484297698
11
-76.38617990604045
21
-52.026281697374
0
LINE
8
Polygon
10
-76.38617990604045
20
-52.026281697374
11
-76.5787714664697
21
-52.068291362225196
0
LINE
8
Polygon
10
-76.5787714664697
20
-52.068291362225196
11
-76.76629215863855
21
-52.12905575227401
0
LINE
8
Polygon
10
-76.76629215863855
20
-52.12905575227401
11
-76.94692039149051
21
-52.20798459735781
0
LINE
8
Polygon
10
-76.94692039149051
20
-52.20798459735781
11
-77.11890152787223
21
-52.30431117633961
0
LINE
8
Polygon
10
-77.11890152787223
20
-52.30431117633961
11
-77.28056492921955
21
-52.417099765098854
0
LINE
8
Polygon
10
-77.28056492921955
20
-52.417099765098854
11
-77.43034018427468
21
-52.54525472623052
0
LINE
8
Polygon
10
-77.43034018427468
20
-52.54525472623052
11
-77.5667723641872
21
-52.687531152154854
0
LINE
8
Polygon
10
-77.5667723641872
20
-52.687531152154854
11
-77.6885361558097
21
-52.84254695824958
0
LINE
8
Polygon
10
-77.6885361558097
20
-52.84254695824958
11
-77.7944487358961
21
-53.008796308530805
0
LINE
8
Polygon
10
-77.7944487358961
20
-53.008796308530805
11
-77.88348126114157
21
-53.18466424346467
0
LINE
8
Polygon
10
-77.88348126114157
20
-53.18466424346465
11
-77.95476886244904
21
-53.36844236781386
0
LINE
8
Polygon
10
-77.95476886244904
20
-53.36844236781386
11
-78.00761904633698
21
-53.55834544612619
0
LINE
8
Polygon
10
-78.00761904633698
20
-53.55834544612619
11
-78.0415184218767
21
-53.75252874465494
0
LINE
8
Polygon
10
-78.0415184218767
20
-53.752528744654924
11
-78.056137687813
21
-53.94910595125063
0
LINE
8
Polygon
10
-78.056137687813
20
-53.94910595125063
11
-78.05133483142309
21
-54.1461674991487
0
LINE
8
Polygon
10
-78.05133483142309
20
-54.1461674991487
11
-78.02715650803944
21
-54.341799116654265
0
LINE
8
Polygon
10
-78.02715650803944
20
-54.341799116654265
11
-77.98383758783626
21
-54.534100422531054
0
LINE
8
Polygon
10
-77.98383758783626
20
-54.534100422531054
11
-77.92179887428175
21
-54.7212033864573
0
LINE
8
Polygon
10
-77.92179887428176
20
-54.72120338645728
11
-77.91549157819429
21
-54.73868649372016
0
LINE
8
Polygon
10
-77.91549157819429
20
-54.73868649372016
11
-77.91000322608134
21
-54.75644371801294
0
LINE
8
Polygon
10
-77.91000322608134
20
-54.75644371801294
11
-77.90534566733022
21
-54.774436721374784
0
LINE
8
Polygon
10
-77.90534566733022
20
-54.774436721374784
11
-77.90152895764008
21
-54.79262665679636
0
LINE
8
Polygon
10
-77.90152895764008
20
-54.79262665679636
11
-77.89856133731155
21
-54.810974252090716
0
LINE
8
Polygon
10
-77.89856133731155
20
-54.810974252090716
11
-77.89644921345588
21
-54.82943989468225
0
LINE
8
Polygon
10
-77.89644921345588
20
-54.82943989468225
11
-77.89519714616202
21
-54.84798371713049
0
LINE
8
Polygon
10
-77.89519714616202
20
-54.84798371713049
11
-77.89480783865123
21
-54.86656568320413
0
LINE
8
Polygon
10
-77.89480783865123
20
-54.86656568320413
11
-77.89528213144096
21
-54.88514567431956
0
LINE
8
Polygon
10
-77.89528213144096
20
-54.88514567431956
11
-77.89661900053002
21
-54.9036835761571
0
LINE
8
Polygon
10
-77.89661900053002
20
-54.9036835761571
11
-77.89881555960949
21
-54.922139365268116
0
LINE
8
Polygon
10
-77.89881555960949
20
-54.922139365268116
11
-77.90186706629426
21
-54.94047319548585
0
LINE
8
Polygon
10
-77.90186706629426
20
-54.94047319548585
11
-77.90576693236191
21
-54.95864548395358
0
LINE
8
Polygon
10
-77.90576693236191
20
-54.95864548395358
11
-77.91050673797662
21
-54.97661699658426
0
LINE
8
Polygon
10
-77.91050673797662
20
-54.97661699658426
11
-77.91607624986776
21
-54.99434893276715
0
LINE
8
Polygon
10
-77.91607624986776
20
-54.99434893276715
11
-77.92246344342352
21
-55.01180300913862
0
LINE
8
Polygon
10
-77.92246344342352
20
-55.01180300913862
11
-77.92965452865218
21
-55.02894154223612
0
LINE
8
Polygon
10
-77.92965452865218
20
-55.02894154223612
11
-77.93763397995471
21
-55.04572752985706
0
LINE
8
Polygon
10
-77.93763397995471
20
-55.04572752985706
11
-77.9463845696447
21
-55.06212473094679
0
LINE
8
Polygon
10
-77.9463845696447
20
-55.06212473094679
11
-77.95588740514306
21
-55.07809774384328
0
LINE
8
Polygon
10
-77.95588740514306
20
-55.07809774384328
11
-77.96612196976714
21
-55.09361208270948
0
LINE
8
Polygon
10
-77.96612196976714
20
-55.09361208270948
11
-77.97706616702644
21
-55.108634251988555
0
LINE
8
Polygon
10
-77.97706616702644
20
-55.108634251988555
11
-77.98869636832909
21
-55.123131818720935
0
LINE
8
Polygon
10
-77.98869636832909
20
-55.123131818720935
11
-78.00098746399607
21
-55.13707348256731
0
LINE
8
Polygon
10
-78.00098746399607
20
-55.13707348256731
11
-78.0139129174732
21
-55.15042914338623
0
LINE
8
Polygon
10
-78.0139129174732
20
-55.15042914338623
11
-78.02744482262376
21
-55.16316996622058
0
LINE
8
Polygon
10
-78.02744482262376
20
-55.16316996622058
11
-78.04155396397795
21
-55.17526844355235
0
LINE
8
Polygon
10
-78.04155396397795
20
-55.17526844355235
11
-78.05620987980934
21
-55.18669845469157
0
LINE
8
Polygon
10
-78.05620987980934
20
-55.18669845469157
11
-78.07138092790191
21
-55.19743532217111
0
LINE
8
Polygon
10
-78.07138092790191
20
-55.19743532217111
11
-78.08703435386576
21
-55.207455865025366
0
LINE
8
Polygon
10
-78.08703435386576
20
-55.207455865025366
11
-78.10313636185413
21
-55.21673844883823
0
LINE
8
Polygon
10
-78.10313636185413
20
-55.21673844883823
11
-78.11965218752871
21
-55.22526303245188
0
LINE
8
Polygon
10
-78.11965218752871
20
-55.22526303245188
11
-78.1365461731163
21
-55.23301121123574
0
LINE
8
Polygon
10
-78.1365461731163
20
-55.23301121123574
11
-78.15378184439388
21
-55.23996625682227
0
LINE
8
Polygon
10
-78.15378184439388
20
-55.23996625682227
11
-78.17132198943695
21
-55.246113153223554
0
LINE
8
Polygon
10
-78.17132198943695
20
-55.246113153223554
11
-78.18912873896014
21
-55.251438629250934
0
LINE
8
Polygon
10
-78.18912873896014
20
-55.251438629250934
11
-78.20716364807733
21
-55.255931187167604
0
LINE
8
Polygon
10
-78.20716364807733
20
-55.255931187167604
11
-78.22538777930436
21
-55.25958112751229
0
LINE
8
Polygon
10
-78.22538777930436
20
-55.25958112751229
11
-78.24376178662534
21
-55.262380570040435
0
LINE
8
Polygon
10
-78.24376178662534
20
-55.262380570040435
11
-78.26224600044092
21
-55.26432347073771
0
LINE
8
Polygon
10
-78.26224600044092
20
-55.26432347073771
11
-78.28080051321525
21
-55.26540563486908
0
LINE
8
Polygon
10
-78.28080051321525
20
-55.26540563486908
11
-78.29938526563654
21
-55.26562472603528
0
LINE
8
Polygon
10
-78.29938526563654
20
-55.26562472603528
11
-78.31796013310544
21
-55.264980271217055
0
LINE
8
Polygon
10
-78.31796013310544
20
-55.264980271217055
11
-78.33648501236426
21
-55.26347366179649
0
LINE
8
Polygon
10
-78.33648501236426
20
-55.26347366179649
11
-78.35491990808018
21
-55.26110815055297
0
LINE
8
Polygon
10
-78.35491990808018
20
-55.26110815055297
11
-78.37322501919542
21
-55.257888844640405
0
LINE
8
Polygon
10
-78.37322501919542
20
-55.257888844640405
11
-78.39136082485798
21
-55.253822694560824
0
LINE
8
Polygon
10
-78.39136082485798
20
-55.253822694560824
11
-78.40928816974743
21
-55.24891847915829
0
LINE
8
Polygon
10
-78.40928816974744
20
-55.24891847915829
11
-78.48713151571033
21
-55.22595324165156
0
LINE
8
Polygon
10
-78.48713151571033
20
-55.22595324165156
11
-78.56512840245577
21
-55.20351500860038
0
LINE
8
Polygon
10
-78.56512840245577
20
-55.20351500860038
11
-78.64327526217396
21
-55.18160480639631
0
LINE
8
Polygon
10
-78.64327526217396
20
-55.18160480639631
11
-78.72156852019495
21
-55.16022363727723
0
LINE
8
Polygon
10
-78.72156852019495
20
-55.16022363727723
11
-78.80000459515205
21
-55.13937247928145
0
LINE
8
Polygon
10
-78.80000459515205
20
-55.13937247928145
11
-78.87857989914569
21
-55.119052286203015
0
LINE
8
Polygon
10
-78.87857989914569
20
-55.119052286203015
11
-78.9572908379076
21
-55.099263987548056
0
LINE
8
Polygon
10
-78.9572908379076
20
-55.099263987548056
11
-79.03613381096514
21
-55.080008488492226
0
LINE
8
Polygon
10
-79.03613381096514
20
-55.080008488492226
11
-79.11510521180601
21
-55.06128666983938
0
LINE
8
Polygon
10
-79.11510521180601
20
-55.06128666983938
11
-79.19420142804327
21
-55.04309938798125
0
LINE
8
Polygon
10
-79.19420142804327
20
-55.04309938798125
11
-79.27341884158055
21
-55.02544747485823
0
LINE
8
Polygon
10
-79.27341884158055
20
-55.02544747485823
11
-79.35275382877755
21
-55.00833173792139
0
LINE
8
Polygon
10
-79.35275382877755
20
-55.00833173792139
11
-79.4322027606158
21
-54.991752960095454
0
LINE
8
Polygon
10
-79.4322027606158
20
-54.991752960095454
11
-79.51176200286466
21
-54.97571189974308
0
LINE
8
Polygon
10
-79.51176200286466
20
-54.97571189974308
11
-79.59142791624755
21
-54.96020929063015
0
LINE
8
Polygon
10
-79.59142791624755
20
-54.96020929063015
11
-79.67119685660846
21
-54.94524584189211
0
LINE
8
Polygon
10
-79.67119685660846
20
-54.94524584189211
11
-79.75106517507862
21
-54.93082223800167
0
LINE
8
Polygon
10
-79.75106517507862
20
-54.93082223800167
11
-79.8310292182434
21
-54.91693913873738
0
LINE
8
Polygon
10
-79.8310292182434
20
-54.91693913873738
11
-79.91108532830941
21
-54.903597179153564
0
LINE
8
Polygon
10
-79.91108532830941
20
-54.903597179153564
11
-79.99122984327191
21
-54.89079696955115
0
LINE
8
Polygon
10
-79.99122984327191
20
-54.89079696955115
11
-80.0714590970822
21
-54.87853909544982
0
LINE
8
Polygon
10
-80.07145909708221
20
-54.87853909544982
11
-80.1517694198154
21
-54.86682411756123
0
LINE
8
Polygon
10
-80.1517694198154
20
-54.86682411756123
11
-80.23215713783827
21
-54.85565257176334
0
LINE
8
Polygon
10
-80.23215713783827
20
-54.85565257176334
11
-80.31261857397732
21
-54.845024969075915
0
LINE
8
Polygon
10
-80.31261857397732
20
-54.845024969075915
11
-80.39315004768693
21
-54.834941795637135
0
LINE
8
Polygon
10
-80.39315004768693
20
-54.834941795637135
11
-80.47374787521781
21
-54.82540351268136
0
LINE
8
Polygon
10
-80.47374787521781
20
-54.82540351268136
11
-80.55440836978536
21
-54.81641055651806
0
LINE
8
Polygon
10
-80.55440836978536
20
-54.81641055651806
11
-80.63512784173851
21
-54.8079633385118
0
LINE
8
Polygon
10
-80.63512784173851
20
-54.8079633385118
11
-80.7159025987283
21
-54.800062245063486
0
LINE
8
Polygon
10
-80.7159025987283
20
-54.800062245063486
11
-80.79672894587692
21
-54.792707637592656
0
LINE
8
Polygon
10
-80.79672894587692
20
-54.792707637592656
11
-80.87760318594665
21
-54.785899852520934
0
LINE
8
Polygon
10
-80.87760318594665
20
-54.785899852520934
11
-80.95852161950903
21
-54.7796392012567
0
LINE
8
Polygon
10
-80.95852161950903
20
-54.7796392012567
11
-81.039480545114
21
-54.77392597018075
0
LINE
8
Polygon
10
-81.039480545114
20
-54.77392597018075
11
-81.12047625945935
21
-54.7687604206333
0
LINE
8
Polygon
10
-81.12047625945935
20
-54.7687604206333
11
-81.20150505755997
21
-54.76414278890195
0
LINE
8
Polygon
10
-81.20150505755997
20
-54.76414278890195
11
-81.28256323291748
21
-54.76007328621092
0
LINE
8
Polygon
10
-81.28256323291748
20
-54.76007328621092
11
-81.36364707768962
21
-54.756552098711396
0
LINE
8
Polygon
10
-81.36364707768962
20
-54.756552098711396
11
-81.44475288285999
21
-54.75357938747295
0
LINE
8
Polygon
10
-81.44475288285999
20
-54.75357938747295
11
-81.5258769384076
21
-54.75115528847626
0
LINE
8
Polygon
10
-81.5258769384076
20
-54.75115528847626
11
-81.6070155334767
21
-54.74927991260683
0
LINE
8
Polygon
10
-81.6070155334767
20
-54.74927991260683
11
-81.68816495654643
21
-54.74795334564991
0
LINE
8
Polygon
10
-81.68816495654643
20
-54.74795334564991
11
-81.7693214956006
21
-54.747175648286664
0
LINE
8
Polygon
10
-81.7693214956006
20
-54.747175648286664
11
-81.85048143829754
21
-54.74694685609125
0
LINE
8
Polygon
10
-81.85048143829754
20
-54.74694685609125
11
-81.93164107213988
21
-54.74726697952932
0
LINE
8
Polygon
10
-81.93164107213988
20
-54.74726697952932
11
-82.0127966846444
21
-54.74813600395747
0
LINE
8
Polygon
10
-82.0127966846444
20
-54.74813600395747
11
-82.09394456351178
21
-54.749553889623925
0
LINE
8
Polygon
10
-82.09394456351178
20
-54.749553889623925
11
-82.17508099679651
21
-54.7515205716704
0
LINE
8
Polygon
10
-82.17508099679651
20
-54.7515205716704
11
-82.25620227307661
21
-54.754035960134985
0
LINE
8
Polygon
10
-67.96796246582753
20
-46.06244300320906
11
-67.96624529618079
21
-46.109664211752225
0
LINE
8
Polygon
10
-67.96624529618079
20
-46.109664211752225
11
-67.96434219717516
21
-46.15687829251261
0
LINE
8
Polygon
10
-67.96434219717516
20
-46.15687829251261
11
-67.96225319831909
21
-46.20408451341254
0
LINE
8
Polygon
10
-67.96225319831909
20
-46.20408451341254
11
-67.95997833200357
21
-46.25128214249621
0
LINE
8
Polygon
10
-67.95997833200357
20
-46.2512821424962
11
-67.95751763350152
21
-46.29847044794104
0
LINE
8
Polygon
10
-67.95751763350152
20
-46.29847044794104
11
-67.9548711409673
21
-46.345648698069034
0
LINE
8
Polygon
10
-67.9548711409673
20
-46.345648698069034
11
-67.95203889543608
21
-46.39281616135809
0
LINE
8
Polygon
10
-67.95203889543608
20
-46.392816161358084
11
-67.9490209408232
21
-46.439972106453354
0
LINE
8
Polygon
10
-67.9490209408232
20
-46.439972106453354
11
-67.94581732392356
21
-46.48711580217859
0
LINE
8
Polygon
10
-67.94581732392356
20
-46.48711580217859
11
-67.94242809441083
21
-46.53424651754749
0
LINE
8
Polygon
10
-67.94242809441083
20
-46.53424651754748
11
-67.93885330483668
21
-46.581363521774975
0
LINE
8
Polygon
10
-67.93885330483668
20
-46.581363521774975
11
-67.93509301063001
21
-46.628466084288625
0
LINE
8
Polygon
10
-67.93509301063001
20
-46.628466084288625
11
-67.93114727009602
21
-46.675553474739914
0
LINE
8
Polygon
10
-67.93114727009602
20
-46.67555347473991
11
-67.92701614441535
21
-46.722624963015555
0
LINE
8
Polygon
10
-67.92701614441535
20
-46.722624963015555
11
-67.92269969764318
21
-46.76967981924885
0
LINE
8
Polygon
10
-67.92269969764318
20
-46.76967981924884
11
-67.91819799670816
21
-46.816717313830985
0
LINE
8
Polygon
10
-67.91819799670816
20
-46.816717313830985
11
-67.91351111141134
21
-46.86373671742235
0
LINE
8
Polygon
10
-67.91351111141134
20
-46.86373671742235
11
-67.90863911442524
21
-46.910737300963845
0
LINE
8
Polygon
10
-67.90863911442524
20
-46.91073730096384
11
-67.90358208129257
21
-46.95771833568816
0
LINE
8
Polygon
10
-67.90358208129257
20
-46.95771833568816
11
-67.89834009042511
21
-47.00467909313115
0
LINE
8
Polygon
10
-67.89834009042511
20
-47.004679093131145
11
-67.89291322310255
21
-47.051618845143025
0
LINE
8
Polygon
10
-67.89291322310255
20
-47.051618845143025
11
-67.88730156347114
21
-47.09853686389973
0
LINE
8
Polygon
10
-67.88730156347114
20
-47.09853686389973
11
-67.88150519854243
21
-47.14543242191418
0
LINE
8
Polygon
10
-67.88150519854243
20
-47.14543242191417
11
-67.87552421819191
21
-47.19230479204755
0
LINE
8
Polygon
10
-67.87552421819191
20
-47.19230479204755
11
-67.86935871515769
21
-47.239153247520576
0
LINE
8
Polygon
10
-67.86935871515769
20
-47.239153247520576
11
-67.86300878503889
21
-47.28597706192479
0
LINE
8
Polygon
10
-67.86300878503889
20
-47.28597706192478
11
-67.85647452629435
21
-47.33277550923378
0
LINE
8
Polygon
10
-67.85647452629435
20
-47.33277550923378
11
-67.84975604024098
21
-47.379547863814494
0
LINE
8
Polygon
10
-67.84975604024098
20
-47.379547863814494
11
-67.84285343105219
21
-47.42629340043843
0
LINE
8
Polygon
10
-67.84285343105219
20
-47.42629340043843
11
-67.83576680575639
21
-47.47301139429294
0
LINE
8
Polygon
10
-67.83576680575639
20
-47.47301139429294
11
-67.8284962742352
21
-47.51970112099243
0
LINE
8
Polygon
10
-67.8284962742352
20
-47.51970112099242
11
-67.82104194922182
21
-47.56636185658959
0
LINE
8
Polygon
10
-67.82104194922182
20
-47.56636185658959
11
-67.81340394629922
21
-47.612992877586635
0
LINE
8
Polygon
10
-67.81340394629922
20
-47.612992877586635
11
-67.80558238389841
21
-47.659593460946546
0
LINE
8
Polygon
10
-67.80558238389841
20
-47.65959346094654
11
-67.7975773832966
21
-47.70616288410422
0
LINE
8
Polygon
10
-67.7975773832966
20
-47.70616288410422
11
-67.78938906861528
21
-47.75270042497772
0
LINE
8
Polygon
10
-67.78938906861528
20
-47.75270042497771
11
-67.78101756681832
21
-47.79920536197946
0
LINE
8
Polygon
10
-67.78101756681832
20
-47.79920536197946
11
-67.77246300770999
21
-47.84567697402742
0
LINE
8
Polygon
10
-67.77246300770999
20
-47.84567697402742
11
-67.76372552393295
21
-47.89211454055625
0
LINE
8
Polygon
10
-67.76372552393295
20
-47.89211454055624
11
-67.75480525096623
21
-47.93851734152852
0
LINE
8
Polygon
10
-67.75480525096623
20
-47.93851734152852
11
-67.74570232712304
21
-47.98488465744586
0
LINE
8
Polygon
10
-67.74570232712304
20
-47.98488465744586
11
-67.73641689354875
21
-48.03121576936011
0
LINE
8
Polygon
10
-67.73641689354875
20
-48.0312157693601
11
-67.72694909421858
21
-48.077509958884455
0
LINE
8
Polygon
10
-67.72694909421858
20
-48.077509958884455
11
-67.71729907593546
21
-48.123766508204625
0
LINE
8
Polygon
10
-67.71729907593546
20
-48.123766508204625
11
-67.70746698832765
21
-48.16998470008992
0
LINE
8
Polygon
10
-67.70746698832765
20
-48.16998470008991
11
-67.6974529838466
21
-48.21616381790442
0
LINE
8
Polygon
10
-67.6974529838466
20
-48.21616381790442
11
-67.68725721776434
21
-48.26230314561809
0
LINE
8
Polygon
10
-67.68725721776434
20
-48.26230314561809
11
-67.6768798481713
21
-48.30840196781782
0
LINE
8
Polygon
10
-67.6768798481713
20
-48.30840196781782
11
-67.67318455407799
21
-48.326616956839615
0
LINE
8
Polygon
10
-67.67318455407799
20
-48.326616956839615
11
-67.67033938208183
21
-48.34498393862248
0
LINE
8
Polygon
10
-67.67033938208183
20
-48.34498393862248
11
-67.66835047492738
21
-48.363463258735266
0
LINE
8
Polygon
10
-67.66835047492738
20
-48.363463258735266
11
-67.66722212667787
21
-48.38201502020763
0
LINE
8
Polygon
10
-67.66722212667787
20
-48.38201502020763
11
-67.66695677344441
21
-48.4005991696679
0
LINE
8
Polygon
10
-67.66695677344441
20
-48.4005991696679
11
-67.66755498812633
21
-48.419175583818486
0
LINE
8
Polygon
10
-67.66755498812633
20
-48.419175583818486
11
-67.66901547917428
21
-48.437704156062416
0
LINE
8
Polygon
10
-67.66901547917428
20
-48.437704156062416
11
-67.67133509337877
21
-48.4561448830937
0
LINE
8
Polygon
10
-67.67133509337877
20
-48.4561448830937
11
-67.6745088226779
21
-48.4744579512647
0
LINE
8
Polygon
10
-67.6745088226779
20
-48.4744579512647
11
-67.67852981496979
21
-48.4926038225441
0
LINE
8
Polygon
10
-67.67852981496979
20
-48.4926038225441
11
-67.68338938890636
21
-48.510543319879716
0
LINE
8
Polygon
10
-67.68338938890636
20
-48.510543319879716
11
-67.68907705263642
21
-48.528237711782054
0
LINE
8
Polygon
10
-67.68907705263642
20
-48.528237711782054
11
-67.69558052645758
21
-48.545648795945816
0
LINE
8
Polygon
10
-67.69558052645758
20
-48.545648795945816
11
-67.70288576932825
21
-48.562738981728906
0
LINE
8
Polygon
10
-67.70288576932825
20
-48.562738981728906
11
-67.71097700918234
21
-48.57947137131089
0
LINE
8
Polygon
10
-67.71097700918234
20
-48.57947137131089
11
-67.71983677698127
21
-48.59580983935563
0
LINE
8
Polygon
10
-67.71983677698127
20
-48.59580983935563
11
-67.72944594442966
21
-48.61171911100611
0
LINE
8
Polygon
10
-67.72944594442966
20
-48.61171911100611
11
-67.73978376527353
21
-48.62716483804305
0
LINE
8
Polygon
10
-67.73978376527353
20
-48.62716483804305
11
-67.75082792009157
21
-48.64211367304299
0
LINE
8
Polygon
10
-67.75082792009157
20
-48.64211367304299
11
-67.76255456448283
21
-48.65653334137553
0
LINE
8
Polygon
10
-67.76255456448283
20
-48.65653334137553
11
-67.77493838054708
21
-48.67039271088451
0
LINE
8
Polygon
10
-67.77493838054708
20
-48.67039271088451
11
-67.78795263154626
21
-48.683661859102486
0
LINE
8
Polygon
10
-67.78795263154626
20
-48.683661859102486
11
-67.80156921962916
21
-48.69631213785359
0
LINE
8
Polygon
10
-67.80156921962916
20
-48.69631213785359
11
-67.81575874649502
21
-48.70831623510506
0
LINE
8
Polygon
10
-67.81575874649502
20
-48.70831623510506
11
-67.83049057686456
21
-48.71964823393415
0
LINE
8
Polygon
10
-67.83049057686456
20
-48.71964823393415
11
-67.8457329046218
21
-48.73028366848291
0
LINE
8
Polygon
10
-67.8457329046218
20
-48.73028366848291
11
-67.8614528214836
21
-48.7401995767801
0
LINE
8
Polygon
10
-67.8614528214836
20
-48.7401995767801
11
-67.87761638804886
21
-48.74937455031629
0
LINE
8
Polygon
10
-67.87761638804886
20
-48.74937455031629
11
-67.89418870707404
21
-48.7577887802649
0
LINE
8
Polygon
10
-67.89418870707404
20
-48.7577887802649
11
-67.91113399881628
21
-48.765424100249675
0
LINE
8
Polygon
10
-67.91113399881628
20
-48.765424100249675
11
-67.92841567828236
21
-48.7722640255659
0
LINE
8
Polygon
10
-67.92841567828236
20
-48.7722640255659
11
-67.94599643421574
21
-48.77829378877108
0
LINE
8
Polygon
10
-67.94599643421574
20
-48.77829378877108
11
-67.96383830965192
21
-48.78350037156788
0
LINE
8
Polygon
10
-67.96383830965192
20
-48.78350037156788
11
-67.98190278386768
21
-48.78787253291074
0
LINE
8
Polygon
10
-67.98190278386768
20
-48.78787253291074
11
-68.00015085554764
21
-48.79140083327534
0
LINE
8
Polygon
10
-68.00015085554764
20
-48.79140083327534
11
-68.01854312698832
21
-48.79407765503863
0
LINE
8
Polygon
10
-68.01854312698832
20
-48.79407765503863
11
-68.03703988915801
21
-48.79589721892529
0
LINE
8
Polygon
10
-68.03703988915801
20
-48.79589721892529
11
-68.05560120742888
21
-48.79685559648527
0
LINE
8
Polygon
10
-68.05560120742888
20
-48.79685559648527
11
-68.07418700779604
21
-48.796950718575275
0
LINE
8
Polygon
10
-68.07418700779604
20
-48.796950718575275
11
-68.0927571633976
21
-48.79618237982611
0
LINE
8
Polygon
10
-68.0927571633976
20
-48.79618237982611
11
-68.11127158114884
21
-48.79455223908604
0
LINE
8
Polygon
10
-68.11127158114884
20
-48.79455223908604
11
-68.1296902883034
21
-48.79206381583935
0
LINE
8
Polygon
10
-68.1296902883034
20
-48.79206381583935
11
-68.1479735187547
21
-48.78872248260775
0
LINE
8
Polygon
10
-68.1479735187547
20
-48.78872248260775
11
-68.16608179889124
21
-48.784535453351076
0
LINE
8
Polygon
10
-68.16608179889124
20
-48.784535453351076
11
-68.18397603282038
21
-48.77951176789226
0
LINE
8
Polygon
10
-68.18397603282038
20
-48.77951176789226
11
-68.20161758677659
21
-48.77366227240035
0
LINE
8
Polygon
10
-68.20161758677659
20
-48.77366227240035
11
-68.21896837253205
21
-48.76699959597352
0
LINE
8
Polygon
10
-68.21896837253205
20
-48.76699959597352
11
-68.23599092962928
21
-48.75953812337282
0
LINE
8
Polygon
10
-68.23599092962927
20
-48.75953812337283
11
-68.41853007384103
21
-48.6851352879435
0
LINE
8
Polygon
10
-68.41853007384103
20
-48.6851352879435
11
-68.60750685432258
21
-48.62906303519478
0
LINE
8
Polygon
10
-68.60750685432258
20
-48.62906303519478
11
-68.80108553545868
21
-48.59186605549091
0
LINE
8
Polygon
10
-68.80108553545868
20
-48.59186605549091
11
-68.99738567840178
21
-48.57390568327863
0
LINE
8
Polygon
10
-68.99738567840178
20
-48.57390568327863
11
-69.19450040780585
21
-48.575356387055336
0
LINE
8
Polygon
10
-69.19450040780585
20
-48.575356387055336
11
-69.39051493536658
21
-48.59620407456807
0
LINE
8
Polygon
10
-69.39051493536658
20
-48.59620407456807
11
-69.5835251602287
21
-48.636246229706856
0
LINE
8
Polygon
10
-69.5835251602287
20
-48.636246229706856
11
-69.77165616557451
21
-48.6950938797624
0
LINE
8
Polygon
10
-69.77165616557451
20
-48.6950938797624
11
-69.95308043171637
21
-48.77217537393821
0
LINE
8
Polygon
10
-69.95308043171637
20
-48.77217537393821
11
-70.12603558876961
21
-48.86674193641235
0
LINE
8
Polygon
10
-70.12603558876961
20
-48.86674193641235
11
-70.28884153645508
21
-48.977874940005876
0
LINE
8
Polygon
10
-70.2888415364551
20
-48.977874940005876
11
-70.43991676472818
21
-49.10449482980096
0
LINE
8
Polygon
10
-70.43991676472818
20
-49.10449482980096
11
-70.57779371669427
21
-49.24537161002406
0
LINE
8
Polygon
10
-70.57779371669427
20
-49.24537161002406
11
-70.70113304457425
21
-49.39913679232357
0
LINE
8
Polygon
10
-70.70113304457425
20
-49.39913679232357
11
-70.80873662023636
21
-49.56429668937553
0
LINE
8
Polygon
10
-70.80873662023636
20
-49.56429668937553
11
-70.899559173909
21
-49.73924692468221
0
LINE
8
Polygon
10
-70.899559173909
20
-49.73924692468221
11
-70.97271844801529
21
-49.92228801761417
0
LINE
8
Polygon
10
-70.97271844801529
20
-49.92228801761417
11
-71.02750376749385
21
-50.11164189230154
0
LINE
8
Polygon
10
-71.02750376749385
20
-50.11164189230154
11
-71.06338294335356
21
-50.3054691500057
0
LINE
8
Polygon
10
-71.06338294335356
20
-50.3054691500057
11
-71.08000744239999
21
-50.501886937186335
0
LINE
8
Polygon
10
-71.08000744239999
20
-50.501886937186335
11
-71.07721577291491
21
-50.698987235691874
0
LINE
8
Polygon
10
-71.07721577291491
20
-50.698987235691874
11
-71.0550350533998
21
-50.89485539740092
0
LINE
8
Polygon
10
-71.0550350533998
20
-50.89485539740092
11
-71.01368074914454
21
-51.08758874326781
0
LINE
8
Polygon
10
-71.01368074914454
20
-51.08758874326781
11
-70.95355457918025
21
-51.27531504609964
0
LINE
8
Polygon
10
-70.95355457918025
20
-51.27531504609964
11
-70.87524061394845
21
-51.456210717521486
0
LINE
8
Polygon
10
-70.87524061394845
20
-51.456210717521486
11
-70.77949960159384
21
-51.62851852246021
0
LINE
8
Polygon
10
-70.77949960159384
20
-51.62851852246021
11
-70.66726157799582
21
-51.790564649067086
0
LINE
8
Polygon
10
-70.66726157799582
20
-51.790564649067086
11
-70.53961683232518
21
-51.94077496826043
0
LINE
8
Polygon
10
-70.53961683232518
20
-51.94077496826043
11
-70.39780531588775
21
-52.07769032494186
0
LINE
8
Polygon
10
-70.39780531588775
20
-52.07769032494186
11
-70.24320459713773
21
-52.19998071234604
0
LINE
8
Polygon
10
-70.24320459713773
20
-52.19998071234604
11
-70.07731647986725
21
-52.30645819183321
0
LINE
8
Polygon
10
-70.07731647986725
20
-52.30645819183321
11
-69.90175241456369
21
-52.39608843262042
0
LINE
8
Polygon
10
-69.90175241456369
20
-52.39608843262042
11
-69.71821784465035
21
-52.468000759353814
0
LINE
8
Polygon
10
-69.71821784465035
20
-52.468000759353814
11
-69.52849563967213
21
-52.52149660991895
0
LINE
8
Polygon
10
-69.52849563967213
20
-52.52149660991895
11
-69.33442877635764
21
-52.5560563213292
0
LINE
8
Polygon
10
-69.33442877635764
20
-52.5560563213292
11
-69.13790243579531
21
-52.57134417777374
0
LINE
8
Polygon
10
-69.13790243579531
20
-52.57134417777374
11
-68.94082569063302
21
-52.56721167178785
0
LINE
8
Polygon
10
-68.94082569063302
20
-52.56721167178785
11
-68.74511296019308
21
-52.54369894686642
0
LINE
8
Polygon
10
-68.74511296019308
20
-52.54369894686642
11
-68.55266541364932
21
-52.501034407506765
0
LINE
8
Polygon
10
-68.55266541364932
20
-52.501034407506765
11
-68.36535250191709
21
-52.439632500469
0
LINE
8
Polygon
10
-68.36535250191709
20
-52.439632500469
11
-68.18499379765697
21
-52.36008968880698
0
LINE
8
Polygon
10
-68.18499379765697
20
-52.36008968880698
11
-68.01334131980002
21
-52.263178657778255
0
LINE
8
Polygon
10
-68.01334131980002
20
-52.263178657778255
11
-67.85206251429504
21
-52.149840808917524
0
LINE
8
Polygon
10
-67.85206251429506
20
-52.149840808917524
11
-67.70272405640499
21
-52.021177115186525
0
LINE
8
Polygon
10
-67.70272405640499
20
-52.021177115186525
11
-67.56677663189751
21
-51.87843742603431
0
LINE
8
Polygon
10
-67.56677663189751
20
-51.87843742603431
11
-67.44554084496714
21
-51.72300832625933
0
LINE
8
Polygon
10
-67.44554084496714
20
-51.72300832625933
11
-67.34019438977997
21
-51.556399666613494
0
LINE
8
Polygon
10
-67.34019438977997
20
-51.556399666613494
11
-67.25176061025813
21
-51.38022989699065
0
LINE
8
Polygon
10
-67.25176061025812
20
-51.380229896990656
11
-67.24385811839073
21
-51.36340754145448
0
LINE
8
Polygon
10
-67.24385811839073
20
-51.36340754145448
11
-67.23518271567485
21
-51.34697043674539
0
LINE
8
Polygon
10
-67.23518271567485
20
-51.34697043674539
11
-67.22575313236047
21
-51.33095407067763
0
LINE
8
Polygon
10
-67.22575313236047
20
-51.33095407067763
11
-67.21558972697825
21
-51.315393022687964
0
LINE
8
Polygon
10
-67.21558972697825
20
-51.315393022687964
11
-67.20471444238544
21
-51.30032088917855
0
LINE
8
Polygon
10
-67.20471444238544
20
-51.30032088917855
11
-67.19315075839104
21
-51.28577021098207
0
LINE
8
Polygon
10
-67.19315075839104
20
-51.28577021098207
11
-67.18092364106278
21
-51.27177240310582
0
LINE
8
Polygon
10
-67.18092364106278
20
-51.27177240310582
11
-67.16805948882516
21
-51.25835768690653
0
LINE
8
Polygon
10
-67.16805948882516
20
-51.25835768690653
11
-67.15458607546518
21
-51.245555024842304
0
LINE
8
Polygon
10
-67.15458607546518
20
-51.245555024842304
11
-67.14053249016845
21
-51.23339205794243
0
LINE
8
Polygon
10
-67.14053249016845
20
-51.23339205794243
11
-67.12592907471553
21
-51.22189504613025
0
LINE
8
Polygon
10
-67.12592907471553
20
-51.22189504613025
11
-67.1108073579738
21
-51.211088811527816
0
LINE
8
Polygon
10
-67.1108073579738
20
-51.211088811527816
11
-67.09519998782645
21
-51.200996684864755
0
LINE
8
Polygon
10
-67.09519998782645
20
-51.200996684864755
11
-67.07914066068544
21
-51.19164045510709
0
LINE
8
Polygon
10
-67.07914066068544
20
-51.19164045510709
11
-67.06266404874083
21
-51.18304032241472
0
LINE
8
Polygon
10
-67.06266404874083
20
-51.18304032241472
11
-67.04580572510318
21
-51.17521485452915
0
LINE
8
Polygon
10
-67.04580572510318
20
-51.17521485452915
11
-67.02860208700108
21
-51.168180946685595
0
LINE
8
Polygon
10
-67.02860208700108
20
-51.168180946685595
11
-67.01109027719923
21
-51.16195378513607
0
LINE
8
Polygon
10
-67.01109027719923
20
-51.16195378513607
11
-66.99330810380701
21
-51.15654681436222
0
LINE
8
Polygon
10
-66.99330810380701
20
-51.15654681436222
11
-66.97529395865055
21
-51.15197170804853
0
LINE
8
Polygon
10
-66.97529395865055
20
-51.15197170804853
11
-66.95708673438445
21
-51.14823834387878
0
LINE
8
Polygon
10
-66.95708673438445
20
-51.14823834387878
11
-66.93872574052239
21
-51.14535478221012
0
LINE
8
Polygon
10
-66.93872574052239
20
-51.14535478221012
11
-66.92025061856755
21
-51.14332724867061
0
LINE
8
Polygon
10
-66.92025061856755
20
-51.14332724867061
11
-66.90170125642642
21
-51.14216012071815
0
LINE
8
Polygon
10
-66.90170125642642
20
-51.14216012071815
11
-66.88311770229055
21
-51.14185591818945
0
LINE
8
Polygon
10
-66.88311770229053
20
-51.14185591818945
11
-66.86454007817215
21
-51.14241529785972
0
LINE
8
Polygon
10
-66.86454007817215
20
-51.14241529785972
11
-66.84600849328056
21
-51.143837052024665
0
LINE
8
Polygon
10
-66.84600849328056
20
-51.143837052024665
11
-66.8275629574261
21
-51.14611811110795
0
LINE
8
Polygon
10
-66.8275629574261
20
-51.14611811110795
11
-66.80924329463865
21
-51.14925355028844
0
LINE
8
Polygon
10
-66.80924329463865
20
-51.14925355028844
11
-66.79108905718739
21
-51.15323660013286
0
LINE
8
Polygon
10
-66.79108905718739
20
-51.15323660013286
11
-66.7731394401871
21
-51.158058661211136
0
LINE
8
Polygon
10
-66.7731394401871
20
-51.158058661211136
11
-66.7554331969757
21
-51.16370932266254
0
LINE
8
Polygon
10
-66.7554331969757
20
-51.16370932266254
11
-66.73800855544553
21
-51.17017638467287
0
LINE
8
Polygon
10
-66.73800855544553
20
-51.17017638467287
11
-66.72090313550916
21
-51.17744588481386
0
LINE
8
Polygon
10
-66.72090313550916
20
-51.17744588481386
11
-66.70415386787761
21
-51.18550212818821
0
LINE
8
Polygon
10
-66.70415386787761
20
-51.18550212818821
11
-66.68779691432687
21
-51.194327721314934
0
LINE
8
Polygon
10
-66.68779691432687
20
-51.194327721314934
11
-66.67186758962427
21
-51.20390360968203
0
LINE
8
Polygon
10
-66.67186758962427
20
-51.20390360968203
11
-66.65640028528375
21
-51.21420911888524
0
LINE
8
Polygon
10
-66.65640028528375
20
-51.21420911888524
11
-66.64142839531432
21
-51.22522199926429
0
LINE
8
Polygon
10
-66.64142839531432
20
-51.22522199926429
11
-66.6269842441222
21
-51.23691847393999
0
LINE
8
Polygon
10
-66.6269842441222
20
-51.23691847393999
11
-66.61309901672222
21
-51.249273290148665
0
LINE
8
Polygon
10
-66.61309901672222
20
-51.249273290148665
11
-66.59980269140912
21
-51.262259773763134
0
LINE
8
Polygon
10
-66.59980269140912
20
-51.262259773763134
11
-66.58712397503436
21
-51.27584988688216
0
LINE
8
Polygon
10
-66.58712397503436
20
-51.27584988688216
11
-66.57509024102767
21
-51.2900142883646
0
LINE
8
Polygon
10
-66.57509024102767
20
-51.2900142883646
11
-66.56372747029774
21
-51.30472239717706
0
LINE
8
Polygon
10
-66.56372747029774
20
-51.30472239717706
11
-66.55306019513928
21
-51.31994245841851
0
LINE
8
Polygon
10
-66.55306019513928
20
-51.31994245841851
11
-66.54311144626759
21
-51.33564161187938
0
LINE
8
Polygon
10
-66.54311144626759
20
-51.33564161187938
11
-66.53390270309512
21
-51.351785962986916
0
LINE
8
Polygon
10
-66.53390270309512
20
-51.351785962986916
11
-66.51136883707524
21
-51.39331927600276
0
LINE
8
Polygon
10
-66.51136883707524
20
-51.39331927600276
11
-66.48867160027538
21
-51.43476353555128
0
LINE
8
Polygon
10
-66.48867160027538
20
-51.43476353555126
11
-66.46581134462744
21
-51.476118099018734
0
LINE
8
Polygon
10
-66.46581134462744
20
-51.476118099018734
11
-66.44278842459097
21
-51.51738232518217
0
LINE
8
Polygon
10
-66.44278842459097
20
-51.51738232518216
11
-66.41960319714774
21
-51.558555574219355
0
LINE
8
Polygon
10
-66.41960319714774
20
-51.558555574219355
11
-66.39625602179615
21
-51.599637207718715
0
LINE
8
Polygon
10
-66.39625602179615
20
-51.599637207718715
11
-66.37274726054572
21
-51.6406265886892
0
LINE
8
Polygon
10
-66.37274726054572
20
-51.6406265886892
11
-66.34907727791139
21
-51.68152308157018
0
LINE
8
Polygon
10
-66.34907727791139
20
-51.68152308157018
11
-66.32524644090797
21
-51.72232605224132
0
LINE
8
Polygon
10
-66.32524644090797
20
-51.72232605224132
11
-66.30125511904438
21
-51.76303486803238
0
LINE
8
Polygon
10
-66.30125511904438
20
-51.76303486803238
11
-66.27710368431791
21
-51.803648897733034
0
LINE
8
Polygon
10
-66.27710368431791
20
-51.803648897733034
11
-66.2527925112085
21
-51.84416751160269
0
LINE
8
Polygon
10
-66.2527925112085
20
-51.84416751160268
11
-66.22832197667292
21
-51.88459008138017
0
LINE
8
Polygon
10
-66.22832197667292
20
-51.88459008138017
11
-66.20369246013888
21
-51.92491598029356
0
LINE
8
Polygon
10
-66.20369246013888
20
-51.92491598029356
11
-66.17890434349925
21
-51.965144583069865
0
LINE
8
Polygon
10
-66.17890434349925
20
-51.965144583069865
11
-66.15395801110603
21
-52.0052752659447
0
LINE
8
Polygon
10
-66.15395801110603
20
-52.0052752659447
11
-66.12885384976443
21
-52.04530740667197
0
LINE
8
Polygon
10
-66.12885384976444
20
-52.04530740667196
11
-66.10359224872688
21
-52.085240384533535
0
LINE
8
Polygon
10
-66.10359224872688
20
-52.085240384533535
11
-66.078173599687
21
-52.12507358034885
0
LINE
8
Polygon
10
-66.078173599687
20
-52.12507358034885
11
-66.05259829677352
21
-52.1648063764845
0
LINE
8
Polygon
10
-66.05259829677352
20
-52.1648063764845
11
-66.02686673654416
21
-52.20443815686383
0
LINE
8
Polygon
10
-66.02686673654416
20
-52.20443815686383
11
-66.00097931797949
21
-52.243968306976505
0
LINE
8
Polygon
10
-66.00097931797949
20
-52.2439683069765
11
-65.9749364424767
21
-52.283396213887976
0
LINE
8
Polygon
10
-65.9749364424767
20
-52.283396213887976
11
-65.9487385138435
21
-52.322721266249076
0
LINE
8
Polygon
10
-65.9487385138435
20
-52.32272126624906
11
-65.9223859382917
21
-52.36194285430539
0
LINE
8
Polygon
10
-65.9223859382917
20
-52.36194285430539
11
-65.89587912443102
21
-52.40106036990683
0
LINE
8
Polygon
10
-65.89587912443102
20
-52.40106036990683
11
-65.86921848326273
21
-52.440073206516956
0
LINE
8
Polygon
10
-65.86921848326273
20
-52.44007320651695
11
-65.84240442817323
21
-52.47898075922245
0
LINE
8
Polygon
10
-65.84240442817323
20
-52.47898075922245
11
-65.81543737492773
21
-52.517782424742464
0
LINE
8
Polygon
10
-65.81543737492773
20
-52.517782424742464
11
-65.78831774166369
21
-52.55647760143799
0
LINE
8
Polygon
10
-65.7883177416637
20
-52.55647760143799
11
-65.76104594888449
21
-52.59506568932119
0
LINE
8
Polygon
10
-65.76104594888449
20
-52.59506568932119
11
-65.73362241945271
21
-52.633546090064655
0
LINE
8
Polygon
10
-65.73362241945271
20
-52.633546090064655
11
-65.70604757858376
21
-52.67191820701076
0
LINE
8
Polygon
10
-65.70604757858376
20
-52.67191820701076
11
-65.6783218538392
21
-52.71018144518085
0
LINE
8
Polygon
10
-65.6783218538392
20
-52.71018144518085
11
-65.65044567512007
21
-52.74833521128449
0
LINE
8
Polygon
10
-65.65044567512007
20
-52.74833521128449
11
-65.6224194746603
21
-52.78637891372869
0
LINE
8
Polygon
10
-65.6224194746603
20
-52.78637891372869
11
-65.59424368702001
21
-52.82431196262702
0
LINE
8
Polygon
10
-65.59424368702001
20
-52.824311962627014
11
-65.56591874907872
21
-52.86213376980879
0
LINE
8
Polygon
10
-65.56591874907872
20
-52.86213376980879
11
-65.5374451000286
21
-52.89984374882819
0
LINE
8
Polygon
10
-65.5374451000286
20
-52.89984374882819
11
-65.50882318136765
21
-52.93744131497334
0
LINE
8
Polygon
10
-65.50882318136765
20
-52.93744131497334
11
-65.48005343689287
21
-52.97492588527539
0
LINE
8
Polygon
10
-65.48005343689287
20
-52.97492588527539
11
-65.45113631269338
21
-53.01229687851754
0
LINE
8
Polygon
10
-65.4511363126934
20
-53.01229687851754
11
-65.4220722571435
21
-53.04955371524406
0
LINE
8
Polygon
10
-65.4220722571435
20
-53.04955371524406
11
-65.39286172089577
21
-53.08669581776927
0
LINE
8
Polygon
10
-65.39286172089577
20
-53.08669581776927
11
-65.363505156874
21
-53.123722610186505
0
LINE
8
Polygon
10
-65.363505156874
20
-53.1237226101865
11
-65.33400302026624
21
-53.16063351837703
0
LINE
8
Polygon
10
-65.33400302026624
20
-53.16063351837703
11
-65.3043557685177
21
-53.197427970018985
0
LINE
8
Polygon
10
-65.3043557685177
20
-53.197427970018985
11
-65.27456386132367
21
-53.234105394596185
0
LINE
8
Polygon
10
-65.27456386132367
20
-53.234105394596185
11
-72.5442190897696
21
-59.162809773772715
0
LINE
8
Polygon
10
-82.25620227307661
20
-54.754035960134985
11
-82.53789819770276
21
-46.563547619573455
0
LINE
8
Polygon
10
-77.04072764936242
20
-46.37448312475285
11
-77.02159106713707
21
-46.37336536491768
0
LINE
8
Polygon
10
-77.02159106713707
20
-46.37336536491768
11
-77.00253001059879
21
-46.371332069572254
0
LINE
8
Polygon
10
-77.00253001059879
20
-46.371332069572254
11
-76.98358825562813
21
-46.3683879084102
0
LINE
8
Polygon
10
-76.98358825562813
20
-46.3683879084102
11
-76.964809304116
21
-46.36453964303188
0
LINE
8
Polygon
10
-76.964809304116
20
-46.36453964303188
11
-76.9462362840567
21
-46.35979611141568
0
LINE
8
Polygon
10
-76.9462362840567
20
-46.35979611141568
11
-76.92791185049957
21
-46.354168207620546
0
LINE
8
Polygon
10
-76.92791185049957
20
-46.354168207620546
11
-76.90987808758683
21
-46.34766885676651
0
LINE
8
Polygon
10
-76.90987808758683
20
-46.34766885676651
11
-76.89217641190254
21
-46.34031298535075
0
LINE
8
Polygon
10
-76.89217641190254
20
-46.34031298535075
11
-76.87484747735476
21
-46.332117486967164
0
LINE
8
Polygon
10
-76.87484747735476
20
-46.332117486967164
11
-76.85793108180918
21
-46.323101183508285
0
LINE
8
Polygon
10
-76.85793108180918
20
-46.323101183508285
11
-76.84146607568887
21
-46.31328478193873
0
LINE
8
Polygon
10
-76.84146607568887
20
-46.31328478193873
11
-76.8254902727498
21
-46.30269082673924
0
LINE
8
Polygon
10
-76.8254902727498
20
-46.30269082673924
11
-76.81004036323729
21
-46.29134364813077
0
LINE
8
Polygon
10
-76.81004036323729
20
-46.29134364813077
11
-76.79515182962275
21
-46.27926930619734
0
LINE
8
Polygon
10
-76.79515182962275
20
-46.27926930619734
11
-76.78085886511403
21
-46.26649553103613
0
LINE
8
Polygon
10
-76.78085886511403
20
-46.26649553103613
11
-76.76719429512696
21
-46.253051659072106
0
LINE
8
Polygon
10
-76.76719429512696
20
-46.253051659072106
11
-76.75418950189795
21
-46.23896856568365
0
LINE
8
Polygon
10
-76.75418950189795
20
-46.23896856568365
11
-76.74187435241124
21
-46.22427859429372
0
LINE
8
Polygon
10
-76.74187435241124
20
-46.22427859429372
11
-76.73027712980588
21
-46.209015482089505
0
LINE
8
Polygon
10
-76.73027712980588
20
-46.209015482089505
11
-76.7194244684203
21
-46.19321428254114
0
LINE
8
Polygon
10
-76.7194244684203
20
-46.19321428254114
11
-76.70934129262362
21
-46.176911284897464
0
LINE
8
Polygon
10
-76.70934129262362
20
-46.176911284897464
11
-76.70005075957386
21
-46.16014393084358
0
LINE
8
Polygon
10
-76.70005075957386
20
-46.16014393084358
11
-76.69157420603501
21
-46.14295072851184
0
LINE
8
Polygon
10
-76.69157420603501
20
-46.14295072851184
11
-76.68393109937473
21
-46.12537116404351
0
LINE
8
Polygon
10
-76.68393109937473
20
-46.12537116404351
11
-76.67713899285523
21
-46.10744561090436
0
LINE
8
Polygon
10
-76.67713899285523
20
-46.10744561090436
11
-76.67121348532031
21
-46.08921523716243
0
LINE
8
Polygon
10
-76.67121348532031
20
-46.08921523716243
11
-76.66616818537081
21
-46.07072191094089
0
LINE
8
Polygon
10
-76.66616818537081
20
-46.07072191094089
11
-76.66201468011089
21
-46.05200810426312
0
LINE
8
Polygon
10
-76.66201468011089
20
-46.05200810426312
11
-76.65876250853698
21
-46.03311679551093
0
LINE
8
Polygon
10
-76.65876250853698
20
-46.03311679551093
11
-76.65641913963034
21
-46.01409137071976
0
LINE
8
Polygon
10
-76.65641913963034
20
-46.01409137071976
11
-76.65498995520375
21
-45.99497552393779
0
LINE
8
Polygon
10
-76.65498995520375
20
-45.99497552393779
11
-76.6544782375415
21
-45.975813156877564
0
LINE
8
Polygon
10
-76.6544782375415
20
-45.975813156877564
11
-76.65488516186127
21
-45.95664827809071
0
LINE
8
Polygon
10
-76.65488516186127
20
-45.95664827809071
11
-76.65620979361522
21
-45.93752490189733
0
LINE
8
Polygon
10
-76.65620979361522
20
-45.93752490189733
11
-76.65844909063607
21
-45.91848694730213
0
LINE
8
Polygon
10
-76.65844909063607
20
-45.91848694730213
11
-76.66159791012402
21
-45.89957813712937
0
LINE
8
Polygon
10
-76.66159791012402
20
-45.89957813712937
11
-76.66564902045755
21
-45.880841897608526
0
LINE
8
Polygon
10
-76.66564902045755
20
-45.880841897608526
11
-76.67059311780184
21
-45.86232125864096
0
LINE
8
Polygon
10
-76.67059311780184
20
-45.86232125864096
11
-76.67641884747599
21
-45.84405875497688
0
LINE
8
Polygon
10
-76.67641884747599
20
-45.84405875497688
11
-76.68311283003035
21
-45.82609632852947
0
LINE
8
Polygon
10
-76.68311283003035
20
-45.82609632852947
11
-76.69065969197395
21
-45.8084752320505
0
LINE
8
Polygon
10
-76.69065969197395
20
-45.8084752320505
11
-76.69904210108149
21
-45.79123593438874
0
LINE
8
Polygon
10
-76.69904210108149
20
-45.79123593438874
11
-76.70824080619867
21
-45.77441802754859
0
LINE
8
Polygon
10
-76.70824080619867
20
-45.77441802754859
11
-76.71823468145483
21
-45.758060135762626
0
LINE
8
Polygon
10
-76.71823468145483
20
-45.758060135762626
11
-76.72900077478072
21
-45.742199826786596
0
LINE
8
Polygon
10
-76.72900077478072
20
-45.742199826786596
11
-76.74051436062064
21
-45.726873525620825
0
LINE
8
Polygon
10
-76.74051436062064
20
-45.726873525620825
11
-76.75274899671746
21
-45.71211643085609
0
LINE
8
Polygon
10
-76.75274899671746
20
-45.71211643085609
11
-76.76567658484026
21
-45.69796243383603
0
LINE
8
Polygon
10
-76.76567658484026
20
-45.69796243383604
11
-76.89148770593839
21
-45.553406974912065
0
LINE
8
Polygon
10
-76.89148770593839
20
-45.553406974912065
11
-77.00288610176739
21
-45.39747392420306
0
LINE
8
Polygon
10
-77.00288610176739
20
-45.39747392420306
11
-77.09884900363416
21
-45.231594931072536
0
LINE
8
Polygon
10
-77.09884900363416
20
-45.231594931072536
11
-77.1784953588898
21
-45.05729296036888
0
LINE
8
Polygon
10
-77.1784953588898
20
-45.05729296036888
11
-77.24109392003237
21
-44.876168309811405
0
LINE
8
Polygon
10
-77.24109392003237
20
-44.876168309811405
11
-77.2860699584215
21
-44.68988391736934
0
LINE
8
Polygon
10
-77.2860699584215
20
-44.68988391736934
11
-77.3130105409655
21
-44.50015009352953
0
LINE
8
Polygon
10
-77.3130105409655
20
-44.50015009352953
11
-77.32166832133413
21
-44.30870881862838
0
LINE
8
Polygon
10
-77.32166832133413
20
-44.30870881862838
11
-77.31196381088982
21
-44.117317749417396
0
LINE
8
Polygon
10
-77.31196381088982
20
-44.117317749417396
11
-77.28398610848711
21
-43.9277340817006
0
LINE
8
Polygon
10
-77.28398610848711
20
-43.9277340817006
11
-77.23799208244002
21
-43.74169841720407
0
LINE
8
Polygon
10
-77.23799208244002
20
-43.74169841720407
11
-77.17440401216791
21
-43.560918782798645
0
LINE
8
Polygon
10
-77.17440401216791
20
-43.56091878279864
11
-77.09380571117227
21
-43.38705494879828
0
LINE
8
Polygon
10
-77.09380571117227
20
-43.38705494879828
11
-76.99693716694001
21
-43.22170319031047
0
LINE
8
Polygon
10
-76.99693716694001
20
-43.22170319031047
11
-76.88468774698536
21
-43.06638163154759
0
LINE
8
Polygon
10
-76.88468774698536
20
-43.06638163154759
11
-76.75808803340682
21
-42.92251630765569
0
LINE
8
Polygon
10
-76.75808803340682
20
-42.92251630765569
11
-76.61830036092782
21
-42.79142807202949
0
LINE
8
Polygon
10
-76.61830036092782
20
-42.79142807202949
11
-76.4666081452926
21
-42.67432046932
0
LINE
8
Polygon
10
-76.4666081452926
20
-42.67432046932
11
-76.30440409999565
21
-42.57226868547477
0
LINE
8
Polygon
10
-76.30440409999565
20
-42.57226868547477
11
-76.13317744952884
21
-42.48620967626244
0
LINE
8
Polygon
10
-76.13317744952884
20
-42.48620967626244
11
-75.95450025654368
21
-42.41693356491349
0
LINE
8
Polygon
10
-75.95450025654368
20
-42.41693356491349
11
-75.77001298846157
21
-42.365076387856796
0
LINE
8
Polygon
10
-75.77001298846157
20
-42.365076387856796
11
-75.58140945604761
21
-42.33111425515491
0
LINE
8
Polygon
10
-75.58140945604761
20
-42.33111425515491
11
-75.39042126222948
21
-42.31535897925197
0
LINE
8
Polygon
10
-75.39042126222948
20
-42.31535897925197
11
-75.19880190393982
21
-42.31795521216766
0
LINE
8
Polygon
10
-75.19880190393982
20
-42.31795521216766
11
-75.00831067294575
21
-42.33887911742097
0
LINE
8
Polygon
10
-75.00831067294575
20
-42.33887911742097
11
-74.82069650347488
21
-42.37793858887724
0
LINE
8
Polygon
10
-74.82069650347488
20
-42.37793858887724
11
-74.63768191493592
21
-42.43477501450911
0
LINE
8
Polygon
10
-74.63768191493592
20
-42.43477501450911
11
-74.46094719715842
21
-42.50886656887795
0
LINE
8
Polygon
10
-74.46094719715842
20
-42.50886656887795
11
-74.29211498334976
21
-42.59953300410706
0
LINE
8
Polygon
10
-74.29211498334976
20
-42.59953300410706
11
-74.13273535240816
21
-42.705941895359665
0
LINE
8
Polygon
10
-74.13273535240816
20
-42.705941895359665
11
-73.98427159736968
21
-42.827116283480926
0
LINE
8
Polygon
10
-73.98427159736968
20
-42.827116283480926
11
-73.84808679065183
21
-42.961943644635525
0
LINE
8
Polygon
10
-73.84808679065183
20
-42.961943644635525
11
-73.72543126944082
21
-43.109186104588964
0
LINE
8
Polygon
10
-73.72543126944082
20
-43.109186104588964
11
-73.61743115612103
21
-43.26749180385339
0
LINE
8
Polygon
10
-73.61743115612103
20
-43.26749180385339
11
-73.52507801914307
21
-43.4354073093525
0
LINE
8
Polygon
10
-73.52507801914307
20
-43.4354073093525
11
-73.44921976925563
21
-43.61139095865181
0
LINE
8
Polygon
10
-73.44921976925563
20
-43.61139095865181
11
-73.39055287468452
21
-43.79382701423861
0
LINE
8
Polygon
10
-73.39055287468452
20
-43.79382701423861
11
-73.34961596673261
21
-43.98104049789838
0
LINE
8
Polygon
10
-73.34961596673261
20
-43.98104049789838
11
-73.3267848945092
21
-44.17131256899084
0
LINE
8
Polygon
10
-73.3267848945092
20
-44.17131256899084
11
-73.32226927419164
21
-44.36289630543482
0
LINE
8
Polygon
10
-73.32226927419164
20
-44.36289630543482
11
-73.33611056450164
21
-44.55403274251379
0
LINE
8
Polygon
10
-73.33611056450164
20
-44.55403274251379
11
-73.36818168606524
21
-44.742967022247086
0
LINE
8
Polygon
10
-73.36818168606524
20
-44.742967022247086
11
-73.41818818815145
21
-44.92796450505643
0
LINE
8
Polygon
10
-73.41818818815145
20
-44.92796450505643
11
-73.48567095207717
21
-45.10732669580362
0
LINE
8
Polygon
10
-73.48567095207717
20
-45.10732669580362
11
-73.57001040645858
21
-45.279406837979685
0
LINE
8
Polygon
10
-73.57001040645858
20
-45.279406837979685
11
-73.67043221560714
21
-45.44262503287235
0
LINE
8
Polygon
10
-73.67043221560714
20
-45.44262503287235
11
-73.7860143888448
21
-45.59548274490005
0
LINE
8
Polygon
10
-73.7860143888448
20
-45.59548274490005
11
-73.79793898133707
21
-45.610491484361134
0
LINE
8
Polygon
10
-73.79793898133707
20
-45.610491484361134
11
-73.80913082349234
21
-45.62605428730559
0
LINE
8
Polygon
10
-73.80913082349234
20
-45.62605428730559
11
-73.81956421197442
21
-45.642135411989486
0
LINE
8
Polygon
10
-73.81956421197442
20
-45.642135411989486
11
-73.82921518532206
21
-45.65869792628413
0
LINE
8
Polygon
10
-73.82921518532206
20
-45.65869792628413
11
-73.83806157897918
21
-45.67570379249494
0
LINE
8
Polygon
10
-73.83806157897918
20
-45.67570379249494
11
-73.84608307619833
21
-45.69311395471934
0
LINE
8
Polygon
10
-73.84608307619833
20
-45.69311395471934
11
-73.85326125470041
21
-45.710888428543036
0
LINE
8
Polygon
10
-73.85326125470041
20
-45.710888428543036
11
-73.85957962898347
21
-45.728986392868784
0
LINE
8
Polygon
10
-73.85957962898347
20
-45.728986392868784
11
-73.86502368818361
21
-45.747366283666665
0
LINE
8
Polygon
10
-73.86502368818361
20
-45.747366283666665
11
-73.86958092940071
21
-45.76598588943065
0
LINE
8
Polygon
10
-73.86958092940071
20
-45.76598588943065
11
-73.87324088641294
21
-45.78480244812201
0
LINE
8
Polygon
10
-73.87324088641294
20
-45.784802448122015
11
-73.87599515371343
21
-45.80377274537731
0
LINE
8
Polygon
10
-73.87599515371343
20
-45.80377274537731
11
-73.87783740581465
21
-45.82285321375501
0
LINE
8
Polygon
10
-73.87783740581465
20
-45.82285321375501
11
-73.87876341177544
21
-45.8420000327931
0
LINE
8
Polygon
10
-73.87876341177544
20
-45.8420000327931
11
-73.878771044918
21
-45.86116922964774
0
LINE
8
Polygon
10
-73.878771044918
20
-45.86116922964774
11
-73.87786028771193
21
-45.8803167800819
0
LINE
8
Polygon
10
-73.87786028771193
20
-45.8803167800819
11
-73.87603323181457
21
-45.89939870957199
0
LINE
8
Polygon
10
-73.87603323181457
20
-45.89939870957199
11
-73.87329407326725
21
-45.91837119430039
0
LINE
8
Polygon
10
-73.87329407326725
20
-45.91837119430039
11
-73.86964910285855
21
-45.93719066180179
0
LINE
8
Polygon
10
-73.86964910285855
20
-45.93719066180179
11
-73.86510669167686
21
-45.95581389103234
0
LINE
8
Polygon
10
-73.86510669167686
20
-45.95581389103234
11
-73.85967727188523
21
-45.97419811163162
0
LINE
8
Polygon
10
-73.85967727188523
20
-45.97419811163162
11
-73.85337331276264
21
-45.9923011021497
0
LINE
8
Polygon
10
-73.85337331276264
20
-45.9923011021497
11
-73.84620929206697
21
-46.01008128701345
0
LINE
8
Polygon
10
-73.84620929206697
20
-46.01008128701345
11
-73.83820166278515
21
-46.027497832009566
0
LINE
8
Polygon
10
-73.83820166278515
20
-46.027497832009566
11
-73.82936881534701
21
-46.04451073806501
0
LINE
8
Polygon
10
-73.82936881534701
20
-46.04451073806501
11
-73.81973103538955
21
-46.06108093310939
0
LINE
8
Polygon
10
-73.81973103538955
20
-46.06108093310939
11
-73.80931045716875
21
-46.077170361808406
0
LINE
8
Polygon
10
-73.80931045716875
20
-46.077170361808406
11
-73.7981310127256
21
-46.092742072962274
0
LINE
8
Polygon
10
-73.7981310127256
20
-46.092742072962274
11
-73.7862183769236
21
-46.10776030436832
0
LINE
8
Polygon
10
-73.7862183769236
20
-46.10776030436832
11
-73.7735999084834
21
-46.12219056495296
0
LINE
8
Polygon
10
-73.7735999084834
20
-46.12219056495296
11
-73.76030458715049
21
-46.13599971398436
0
LINE
8
Polygon
10
-73.76030458715049
20
-46.13599971398436
11
-73.74636294713983
21
-46.14915603718388
0
LINE
8
Polygon
10
-73.74636294713983
20
-46.14915603718388
11
-73.73180700701066
21
-46.161629319561534
0
LINE
8
Polygon
10
-73.73180700701066
20
-46.161629319561534
11
-73.71667019613214
21
-46.17339091480813
0
LINE
8
Polygon
10
-73.71667019613214
20
-46.17339091480813
11
-73.70098727790908
21
-46.18441381108478
0
LINE
8
Polygon
10
-73.70098727790908
20
-46.18441381108478
11
-73.68479426994382
21
-46.19467269305865
0
LINE
8
Polygon
10
-73.68479426994382
20
-46.19467269305865
11
-73.66812836131768
21
-46.204144000042504
0
LINE
8
Polygon
10
-73.66812836131768
20
-46.204144000042504
11
-73.65102782718208
21
-46.21280598010448
0
LINE
8
Polygon
10
-73.65102782718208
20
-46.21280598010448
11
-73.63353194085525
21
-46.22063874002389
0
LINE
8
Polygon
10
-73.63353194085525
20
-46.22063874002389
11
-73.61568088362658
21
-46.22762429097824
0
LINE
8
Polygon
10
-73.61568088362658
20
-46.22762429097824
11
-73.59751565247583
21
-46.23374658985666
0
LINE
8
Polygon
10
-73.59751565247583
20
-46.23374658985666
11
-73.5790779659188
21
-46.23899157610462
0
LINE
8
Polygon
10
-73.5790779659188
20
-46.23899157610462
11
-73.56041016819606
21
-46.2433472040157
0
LINE
8
Polygon
10
-73.56041016819606
20
-46.2433472040157
11
-73.54155513202461
21
-46.24680347039587
0
LINE
8
Polygon
10
-73.54155513202461
20
-46.24680347039587
11
-73.52255616013585
21
-46.24935243753696
0
LINE
8
Polygon
10
-73.52255616013585
20
-46.24935243753696
11
-73.5034568858258
21
-46.250988251446536
0
LINE
8
Polygon
10
-73.5034568858258
20
-46.250988251446536
11
-73.48430117274647
21
-46.2517071552922
0
LINE
8
Polygon
10
-73.48430117274647
20
-46.2517071552922
11
-73.46513301416788
21
-46.25150749802967
0
LINE
8
Polygon
10
-82.53789819770276
20
-46.563547619573455
11
-77.04072764936242
21
-46.37448312475285
0
LINE
8
Polygon
10
-67.96796246582753
20
-46.06244300320906
11
-73.46513301416788
21
-46.25150749802967
0
LINE
8
Polygon
10
-76.76567658484026
20
-45.69796243383603
11
-76.76567658484026
21
-45.69796243383604
0
LINE
8
Polygon
10
-73.7860143888448
20
-45.59548274490005
11
-73.7860143888448
21
-45.59548274490005
0
ENDSEC
0
EOF
