0
SECTION
2
ENTITIES
0
LINE
8
Polygon
10
-23.362430062909535
20
-84.94286626793436
11
-23.367826565850407
21
-84.80803272944141
0
LINE
8
Polygon
10
-23.367826565850407
20
-84.80803272944141
11
-23.37473892348981
21
-84.67326839937448
0
LINE
8
Polygon
10
-23.37473892348981
20
-84.67326839937448
11
-23.383166261740662
21
-84.53859031906246
0
LINE
8
Polygon
10
-23.383166261740662
20
-84.53859031906246
11
-23.39310751494231
21
-84.40401551892772
0
LINE
8
Polygon
10
-23.39310751494231
20
-84.40401551892772
11
-23.404561425995308
21
-84.26956101633256
0
LINE
8
Polygon
10
-23.404561425995308
20
-84.26956101633256
11
-23.417526546520364
21
-84.13524381342728
0
LINE
8
Polygon
10
-23.417526546520364
20
-84.13524381342728
11
-23.432001237041487
21
-84.00108089500031
0
LINE
8
Polygon
10
-23.432001237041487
20
-84.00108089500031
11
-23.447983667193316
21
-83.86708922633034
0
LINE
8
Polygon
10
-23.447983667193316
20
-83.86708922633034
11
-23.465471815952572
21
-83.73328575104102
0
LINE
8
Polygon
10
-23.465471815952572
20
-83.73328575104102
11
-23.484463471893623
21
-83.59968738895847
0
LINE
8
Polygon
10
-23.484463471893623
20
-83.59968738895847
11
-23.504956233468103
21
-83.46631103397164
0
LINE
8
Polygon
10
-23.504956233468103
20
-83.46631103397164
11
-23.526947509308634
21
-83.33317355189604
0
LINE
8
Polygon
10
-23.526947509308634
20
-83.33317355189604
11
-23.55043451855648
21
-83.20029177834107
0
LINE
8
Polygon
10
-23.55043451855648
20
-83.20029177834107
11
-23.575414291213207
21
-83.06768251658102
0
LINE
8
Polygon
10
-23.575414291213207
20
-83.06768251658102
11
-23.601883668516248
21
-82.93536253543034
0
LINE
8
Polygon
10
-23.601883668516248
20
-82.93536253543034
11
-23.629839303338336
21
-82.80334856712314
0
LINE
8
Polygon
10
-23.629839303338336
20
-82.80334856712314
11
-23.65927766061075
21
-82.67165730519727
0
LINE
8
Polygon
10
-23.65927766061075
20
-82.67165730519727
11
-23.69019501777035
21
-82.54030540238354
0
LINE
8
Polygon
10
-23.69019501777035
20
-82.54030540238354
11
-23.722587465230298
21
-82.40930946849979
0
LINE
8
Polygon
10
-23.722587465230298
20
-82.40930946849979
11
-23.75645090687442
21
-82.27868606835057
0
LINE
8
Polygon
10
-23.75645090687442
20
-82.27868606835057
11
-23.79178106057521
21
-82.14845171963256
0
LINE
8
Polygon
10
-23.79178106057521
20
-82.14845171963256
11
-23.828573458735274
21
-82.01862289084576
0
LINE
8
Polygon
10
-23.828573458735274
20
-82.01862289084576
11
-23.8668234488523
21
-81.88921599921099
0
LINE
8
Polygon
10
-23.8668234488523
20
-81.88921599921099
11
-23.906526194107364
21
-81.76024740859398
0
LINE
8
Polygon
10
-23.906526194107364
20
-81.76024740859398
11
-23.92940882219198
21
-81.67412301753333
0
LINE
8
Polygon
10
-23.92940882219198
20
-81.67412301753333
11
-23.94453346259531
21
-81.5863034829394
0
LINE
8
Polygon
10
-23.94453346259531
20
-81.5863034829394
11
-23.951780010163713
21
-81.4974861819673
0
LINE
8
Polygon
10
-23.951780010163713
20
-81.4974861819673
11
-23.95109091987886
21
-81.40837641506037
0
LINE
8
Polygon
10
-23.95109091987886
20
-81.40837641506037
11
-23.94247166382421
21
-81.31968180514134
0
LINE
8
Polygon
10
-23.94247166382421
20
-81.31968180514134
11
-23.925990687731055
21
-81.23210667836071
0
LINE
8
Polygon
10
-23.925990687731055
20
-81.23210667836071
11
-23.901778867449224
21
-81.14634647102498
0
LINE
8
Polygon
10
-23.901778867449224
20
-81.14634647102498
11
-23.870028469658642
21
-81.06308220711922
0
LINE
8
Polygon
10
-23.870028469658642
20
-81.06308220711922
11
-23.830991625074745
21
-80.98297509027833
0
LINE
8
Polygon
10
-23.830991625074745
20
-80.98297509027833
11
-23.78497832627205
21
-80.90666125315215
0
LINE
8
Polygon
10
-23.78497832627205
20
-80.90666125315215
11
-23.732353966025247
21
-80.83474670585996
0
LINE
8
Polygon
10
-23.732353966025247
20
-80.83474670585996
11
-23.67353643571591
21
-80.76780252364867
0
LINE
8
Polygon
10
-23.67353643571591
20
-80.76780252364867
11
-23.60899280684641
21
-80.70636031196986
0
LINE
8
Polygon
10
-23.60899280684641
20
-80.70636031196986
11
-23.539235622013226
21
-80.65090798498733
0
LINE
8
Polygon
10
-23.539235622013226
20
-80.65090798498733
11
-23.46481882479322
21
-80.60188589103834
0
LINE
8
Polygon
10
-23.46481882479322
20
-80.60188589103834
11
-23.386333360863567
21
-80.55968331581627
0
LINE
8
Polygon
10
-23.386333360863567
20
-80.55968331581627
11
-23.30440248528715
21
-80.52463539104306
0
LINE
8
Polygon
10
-23.30440248528715
20
-80.52463539104306
11
-23.219676813228254
21
-80.49702043317969
0
LINE
8
Polygon
10
-23.219676813228254
20
-80.49702043317969
11
-23.132829153401048
21
-80.47705773330806
0
LINE
8
Polygon
10
-23.132829153401048
20
-80.47705773330806
11
-23.04454916527846
21
-80.46490581573497
0
LINE
8
Polygon
10
-23.04454916527846
20
-80.46490581573497
11
-22.955537882488805
21
-80.46066117914657
0
LINE
8
Polygon
10
-22.955537882488805
20
-80.46066117914657
11
-22.86650214588993
21
-80.46435753030985
0
LINE
8
Polygon
10
-22.86650214588993
20
-80.46435753030985
11
-22.778148990527985
21
-80.47596551640633
0
LINE
8
Polygon
10
-22.778148990527985
20
-80.47596551640633
11
-22.691180031054202
21
-80.49539295812352
0
LINE
8
Polygon
10
-22.691180031054202
20
-80.49539295812352
11
-21.689089598863394
21
-80.65980701784852
0
LINE
8
Polygon
10
-21.689089598863394
20
-80.65980701784852
11
-20.674447121024656
21
-80.61835994932869
0
LINE
8
Polygon
10
-20.674447121024656
20
-80.61835994932869
11
-19.689105269241
21
-80.37276138979063
0
LINE
8
Polygon
10
-19.689105269241
20
-80.37276138979063
11
-18.773708102812776
21
-79.93314195776014
0
LINE
8
Polygon
10
-18.773708102812776
20
-79.93314195776014
11
-17.966014554488392
21
-79.31763537833245
0
LINE
8
Polygon
10
-17.966014554488392
20
-79.31763537833245
11
-17.29934092400197
21
-78.55163049079081
0
LINE
8
Polygon
10
-17.29934092400197
20
-78.55163049079081
11
-16.80118662439725
21
-77.6667239922787
0
LINE
8
Polygon
10
-16.80118662439725
20
-77.6667239922787
11
-16.49209986729967
21
-76.69941711547563
0
LINE
8
Polygon
10
-16.49209986729967
20
-76.69941711547563
11
-16.384830076131866
21
-75.68961000061337
0
LINE
8
Polygon
10
-16.384830076131866
20
-75.68961000061337
11
-16.48380198911588
21
-74.67895586701282
0
LINE
8
Polygon
10
-16.48380198911588
20
-74.67895586701282
11
-16.784933144623675
21
-73.70914287240707
0
LINE
8
Polygon
10
-16.784933144623675
20
-73.70914287240707
11
-17.275802277365976
21
-72.82017453110102
0
LINE
8
Polygon
10
-17.275802277365976
20
-72.82017453110102
11
-17.936161679297317
21
-72.04871962146306
0
LINE
8
Polygon
10
-17.936161679297317
20
-72.04871962146306
11
-18.73877239102197
21
-71.42659964690151
0
LINE
8
Polygon
10
-18.73877239102197
20
-71.42659964690151
11
-19.650527773150383
21
-70.97947624057672
0
LINE
8
Polygon
10
-19.650527773150383
20
-70.97947624057672
11
-20.633819111761028
21
-70.7257926566835
0
LINE
8
Polygon
10
-20.633819111761028
20
-70.7257926566835
11
-21.64808692853308
21
-70.67601301040037
0
LINE
8
Polygon
10
-21.64808692853308
20
-70.67601301040037
11
-22.651494006041244
21
-70.83219064686011
0
LINE
8
Polygon
10
-22.651494006041244
20
-70.83219064686011
11
-23.602651118113076
21
-71.18788344335562
0
LINE
8
Polygon
10
-23.602651118113076
20
-71.18788344335562
11
-24.462324281134656
21
-71.72841953845389
0
LINE
8
Polygon
10
-24.462324281134656
20
-71.72841953845389
11
-25.195053104426822
21
-72.43150252704095
0
LINE
8
Polygon
10
-25.195053104426822
20
-72.43150252704095
11
-25.77061348486125
21
-73.26813115779524
0
LINE
8
Polygon
10
-25.77061348486125
20
-73.26813115779524
11
-26.16526431148141
21
-74.20379559677518
0
LINE
8
Polygon
10
-26.16526431148141
20
-74.20379559677518
11
-26.362726755197624
21
-75.19990091281623
0
LINE
8
Polygon
10
-26.362726755197624
20
-75.19990091281623
11
-26.375033303443296
21
-75.28815947769185
0
LINE
8
Polygon
10
-26.375033303443296
20
-75.28815947769185
11
-26.395148112842794
21
-75.37497203350291
0
LINE
8
Polygon
10
-26.395148112842794
20
-75.37497203350291
11
-26.422911451183683
21
-75.45964919953838
0
LINE
8
Polygon
10
-26.422911451183683
20
-75.45964919953838
11
-26.45810284909091
21
-75.54151855227164
0
LINE
8
Polygon
10
-26.45810284909091
20
-75.54151855227164
11
-26.5004428507797
21
-75.61992996509287
0
LINE
8
Polygon
10
-26.5004428507797
20
-75.61992996509287
11
-26.54959523322106
21
-75.6942607709809
0
LINE
8
Polygon
10
-26.54959523322106
20
-75.6942607709809
11
-26.60516967609737
21
-75.76392070711793
0
LINE
8
Polygon
10
-26.60516967609737
20
-75.76392070711793
11
-26.666724861345948
21
-75.82835660218147
0
LINE
8
Polygon
10
-26.666724861345948
20
-75.82835660218147
11
-26.733771977677023
21
-75.88705676909193
0
LINE
8
Polygon
10
-26.733771977677023
20
-75.88705676909193
11
-26.80577860223657
21
-75.93955506833264
0
LINE
8
Polygon
10
-26.80577860223657
20
-75.93955506833264
11
-26.882172928589725
21
-75.9854346095757
0
LINE
8
Polygon
10
-26.882172928589725
20
-75.9854346095757
11
-26.962348307450227
21
-76.02433106221862
0
LINE
8
Polygon
10
-26.962348307450227
20
-76.02433106221862
11
-27.0456680640978
21
-76.05593554854282
0
LINE
8
Polygon
10
-27.0456680640978
20
-76.05593554854282
11
-27.131470554228283
21
-76.07999709651953
0
LINE
8
Polygon
10
-27.131470554228283
20
-76.07999709651953
11
-27.219074418087853
21
-76.09632463278504
0
LINE
8
Polygon
10
-27.219074418087853
20
-76.09632463278504
11
-27.307783991168144
21
-76.10478849995907
0
LINE
8
Polygon
10
-27.307783991168144
20
-76.10478849995907
11
-27.396894828495782
21
-76.10532148625737
0
LINE
8
Polygon
10
-27.396894828495782
20
-76.10532148625737
11
-27.485699298647816
21
-76.09791935922222
0
LINE
8
Polygon
10
-27.485699298647816
20
-76.09791935922222
11
-27.5734922030708
21
-76.08264089933245
0
LINE
8
Polygon
10
-27.5734922030708
20
-76.08264089933245
11
-27.659576376080462
21
-76.05960743322615
0
LINE
8
Polygon
10
-27.659576376080462
20
-76.05960743322615
11
-27.743268221072082
21
-76.02900187024282
0
LINE
8
Polygon
10
-27.743268221072082
20
-76.02900187024282
11
-27.8239031389785
21
-75.99106724993563
0
LINE
8
Polygon
10
-27.8239031389785
20
-75.99106724993563
11
-27.90084080586821
21
-75.94610481208807
0
LINE
8
Polygon
10
-27.90084080586821
20
-75.94610481208807
11
-27.973470257773936
21
-75.8944716045613
0
LINE
8
Polygon
10
-27.973470257773936
20
-75.8944716045613
11
-28.080323933314773
21
-75.81206106294229
0
LINE
8
Polygon
10
-28.080323933314773
20
-75.81206106294229
11
-28.188097554996773
21
-75.73085729568938
0
LINE
8
Polygon
10
-28.188097554996773
20
-75.73085729568938
11
-28.296777494542113
21
-75.65087057124747
0
LINE
8
Polygon
10
-28.296777494542113
20
-75.65087057124747
11
-28.40635000906651
21
-75.57211100416305
0
LINE
8
Polygon
10
-28.40635000906651
20
-75.57211100416305
11
-28.51680124281707
21
-75.49458855380507
0
LINE
8
Polygon
10
-28.51680124281707
20
-75.49458855380507
11
-28.628117228924367
21
-75.41831302310563
0
LINE
8
Polygon
10
-28.628117228924367
20
-75.41831302310563
11
-28.740283891168623
21
-75.34329405732024
0
LINE
8
Polygon
10
-28.740283891168623
20
-75.34329405732024
11
-28.853287045759647
21
-75.26954114280834
0
LINE
8
Polygon
10
-28.853287045759647
20
-75.26954114280834
11
-28.967112403130457
21
-75.19706360583355
0
LINE
8
Polygon
10
-28.967112403130457
20
-75.19706360583355
11
-29.08174556974421
21
-75.12587061138446
0
LINE
8
Polygon
10
-29.08174556974421
20
-75.12587061138446
11
-29.197172049914293
21
-75.0559711620156
0
LINE
8
Polygon
10
-29.197172049914293
20
-75.0559711620156
11
-29.31337724763738
21
-74.98737409670912
0
LINE
8
Polygon
10
-29.31337724763738
20
-74.98737409670912
11
-29.43034646843912
21
-74.920088089757
0
LINE
8
Polygon
10
-29.43034646843912
20
-74.920088089757
11
-29.548064921232264
21
-74.85412164966425
0
LINE
8
Polygon
10
-29.548064921232264
20
-74.85412164966425
11
-29.666517720187112
21
-74.7894831180729
0
LINE
8
Polygon
10
-29.666517720187112
20
-74.7894831180729
11
-29.785689886613792
21
-74.72618066870722
0
LINE
8
Polygon
10
-29.785689886613792
20
-74.72618066870722
11
-29.905566350856404
21
-74.6642223063401
0
LINE
8
Polygon
10
-29.905566350856404
20
-74.6642223063401
11
-30.026131954198604
21
-74.60361586578091
0
LINE
8
Polygon
10
-30.026131954198604
20
-74.60361586578091
11
-30.147371450780465
21
-74.54436901088461
0
LINE
8
Polygon
10
-30.147371450780465
20
-74.54436901088461
11
-30.269269509526364
21
-74.48648923358283
0
LINE
8
Polygon
10
-30.269269509526364
20
-74.48648923358283
11
-30.39181071608365
21
-74.4299838529363
0
LINE
8
Polygon
10
-30.39181071608365
20
-74.4299838529363
11
-30.514979574771807
21
-74.37486001420947
0
LINE
8
Polygon
10
-30.514979574771807
20
-74.37486001420947
11
-30.638760510541946
21
-74.32112468796691
0
LINE
8
Polygon
10
-30.638760510541946
20
-74.32112468796691
11
-30.7631378709463
21
-74.26878466919192
0
LINE
8
Polygon
10
-30.7631378709463
20
-74.26878466919192
11
-31.08698377093696
21
-74.14011979566295
0
LINE
8
Polygon
10
-31.08698377093696
20
-74.14011979566295
11
-31.414429045013016
21
-74.02091237514628
0
LINE
8
Polygon
10
-31.414429045013016
20
-74.02091237514628
11
-31.745197568542316
21
-73.9112629316309
0
LINE
8
Polygon
10
-31.745197568542316
20
-73.9112629316309
11
-32.07901041449761
21
-73.81126392915485
0
LINE
8
Polygon
10
-32.07901041449761
20
-73.81126392915485
11
-32.41558608866721
21
-73.7209996938329
0
LINE
8
Polygon
10
-32.41558608866721
20
-73.7209996938329
11
-32.75464076703051
21
-73.64054634274702
0
LINE
8
Polygon
10
-32.75464076703051
20
-73.64054634274702
11
-33.0958885350981
21
-73.56997171975921
0
LINE
8
Polygon
10
-33.0958885350981
20
-73.56997171975921
11
-33.439041629014795
21
-73.50933533830072
0
LINE
8
Polygon
10
-33.439041629014795
20
-73.50933533830072
11
-33.78381067822213
21
-73.45868833118625
0
LINE
8
Polygon
10
-33.78381067822213
20
-73.45868833118625
11
-34.12990494947572
21
-73.4180734074952
0
LINE
8
Polygon
10
-34.12990494947572
20
-73.4180734074952
11
-34.47703259201177
21
-73.38752481655641
0
LINE
8
Polygon
10
-34.47703259201177
20
-73.38752481655641
11
-34.82490088365594
21
-73.36706831906669
0
LINE
8
Polygon
10
-34.82490088365594
20
-73.36706831906669
11
-35.173216477667054
21
-73.35672116536769
0
LINE
8
Polygon
10
-35.173216477667054
20
-73.35672116536769
11
-35.52168565010744
21
-73.35649208089914
0
LINE
8
Polygon
10
-35.52168565010744
20
-73.35649208089914
11
-35.87001454753144
21
-73.36638125884105
0
LINE
8
Polygon
10
-35.87001454753144
20
-73.36638125884105
11
-36.21790943478302
21
-73.38638035995062
0
LINE
8
Polygon
10
-36.21790943478302
20
-73.38638035995062
11
-36.565076942693736
21
-73.41647251959469
0
LINE
8
Polygon
10
-36.565076942693736
20
-73.41647251959469
11
-36.91122431547199
21
-73.45663236197105
0
LINE
8
Polygon
10
-36.91122431547199
20
-73.45663236197105
11
-37.25605965757509
21
-73.5068260215071
0
LINE
8
Polygon
10
-37.25605965757509
20
-73.5068260215071
11
-37.59929217985587
21
-73.56701117141762
0
LINE
8
Polygon
10
-37.59929217985587
20
-73.56701117141762
11
-37.94063244477635
21
-73.63713705939777
0
LINE
8
Polygon
10
-37.94063244477635
20
-73.63713705939777
11
-38.27979261048154
21
-73.71714455042084
0
LINE
8
Polygon
10
-38.27979261048154
20
-73.71714455042084
11
-38.6164866735278
21
-73.80696617660509
0
LINE
8
Polygon
10
-38.6164866735278
20
-73.80696617660509
11
-38.95043071006077
21
-73.90652619410736
0
LINE
8
Polygon
10
-38.95043071006077
20
-73.90652619410736
11
-39.03655510112143
21
-73.92940882219196
0
LINE
8
Polygon
10
-39.03655510112143
20
-73.92940882219196
11
-39.12437463571538
21
-73.94453346259529
0
LINE
8
Polygon
10
-39.12437463571538
20
-73.94453346259529
11
-39.21319193668746
21
-73.95178001016369
0
LINE
8
Polygon
10
-39.21319193668746
20
-73.95178001016369
11
-39.30230170359438
21
-73.95109091987884
0
LINE
8
Polygon
10
-39.30230170359438
20
-73.95109091987884
11
-39.39099631351343
21
-73.9424716638242
0
LINE
8
Polygon
10
-39.39099631351343
20
-73.9424716638242
11
-39.47857144029406
21
-73.92599068773103
0
LINE
8
Polygon
10
-39.47857144029406
20
-73.92599068773103
11
-39.5643316476298
21
-73.90177886744921
0
LINE
8
Polygon
10
-39.5643316476298
20
-73.90177886744921
11
-39.64759591153555
21
-73.87002846965862
0
LINE
8
Polygon
10
-39.64759591153555
20
-73.87002846965862
11
-39.727703028376446
21
-73.83099162507473
0
LINE
8
Polygon
10
-39.727703028376446
20
-73.83099162507473
11
-39.80401686550262
21
-73.78497832627203
0
LINE
8
Polygon
10
-39.80401686550262
20
-73.78497832627203
11
-39.87593141279482
21
-73.73235396602522
0
LINE
8
Polygon
10
-39.87593141279482
20
-73.73235396602522
11
-39.94287559500611
21
-73.67353643571589
0
LINE
8
Polygon
10
-39.94287559500611
20
-73.67353643571589
11
-40.00431780668491
21
-73.60899280684639
0
LINE
8
Polygon
10
-40.00431780668491
20
-73.60899280684639
11
-40.059770133667435
21
-73.53923562201321
0
LINE
8
Polygon
10
-40.059770133667435
20
-73.53923562201321
11
-40.108792227616426
21
-73.4648188247932
0
LINE
8
Polygon
10
-40.108792227616426
20
-73.4648188247932
11
-40.15099480283849
21
-73.38633336086355
0
LINE
8
Polygon
10
-40.15099480283849
20
-73.38633336086355
11
-40.1860427276117
21
-73.30440248528713
0
LINE
8
Polygon
10
-40.1860427276117
20
-73.30440248528713
11
-40.21365768547508
21
-73.21967681322823
0
LINE
8
Polygon
10
-40.21365768547508
20
-73.21967681322823
11
-40.23362038534671
21
-73.13282915340102
0
LINE
8
Polygon
10
-40.23362038534671
20
-73.13282915340102
11
-40.245772302919804
21
-73.04454916527844
0
LINE
8
Polygon
10
-40.245772302919804
20
-73.04454916527844
11
-40.25001693950819
21
-72.95553788248878
0
LINE
8
Polygon
10
-40.25001693950819
20
-72.95553788248878
11
-40.2463205883449
21
-72.8665021458899
0
LINE
8
Polygon
10
-40.2463205883449
20
-72.8665021458899
11
-40.23471260224843
21
-72.77814899052797
0
LINE
8
Polygon
10
-40.23471260224843
20
-72.77814899052797
11
-40.21528516053125
21
-72.69118003105419
0
LINE
8
Polygon
10
-40.21528516053125
20
-72.69118003105419
11
-40.05087110080624
21
-71.68908959886338
0
LINE
8
Polygon
10
-40.05087110080624
20
-71.68908959886338
11
-40.09231816932608
21
-70.67444712102464
0
LINE
8
Polygon
10
-40.09231816932608
20
-70.67444712102464
11
-40.33791672886415
21
-69.68910526924098
0
LINE
8
Polygon
10
-40.33791672886415
20
-69.68910526924098
11
-40.77753616089462
21
-68.77370810281276
0
LINE
8
Polygon
10
-40.77753616089462
20
-68.77370810281276
11
-41.393042740322315
21
-67.96601455448837
0
LINE
8
Polygon
10
-41.393042740322315
20
-67.96601455448837
11
-42.159047627863956
21
-67.29934092400195
0
LINE
8
Polygon
10
-42.159047627863956
20
-67.29934092400195
11
-43.04395412637606
21
-66.80118662439722
0
LINE
8
Polygon
10
-43.04395412637606
20
-66.80118662439722
11
-44.011261003179136
21
-66.49209986729964
0
LINE
8
Polygon
10
-44.011261003179136
20
-66.49209986729964
11
-45.02106811804139
21
-66.38483007613185
0
LINE
8
Polygon
10
-45.02106811804139
20
-66.38483007613185
11
-46.03172225164195
21
-66.48380198911585
0
LINE
8
Polygon
10
-46.03172225164195
20
-66.48380198911585
11
-47.00153524624769
21
-66.78493314462366
0
LINE
8
Polygon
10
-47.00153524624769
20
-66.78493314462366
11
-47.89050358755375
21
-67.27580227736595
0
LINE
8
Polygon
10
-47.89050358755375
20
-67.27580227736595
11
-48.661958497191705
21
-67.9361616792973
0
LINE
8
Polygon
10
-48.661958497191705
20
-67.9361616792973
11
-49.284078471753254
21
-68.73877239102195
0
LINE
8
Polygon
10
-49.284078471753254
20
-68.73877239102195
11
-49.73120187807806
21
-69.65052777315036
0
LINE
8
Polygon
10
-49.73120187807806
20
-69.65052777315036
11
-49.98488546197128
21
-70.63381911176101
0
LINE
8
Polygon
10
-49.98488546197128
20
-70.63381911176101
11
-50.03466510825441
21
-71.64808692853306
0
LINE
8
Polygon
10
-50.03466510825441
20
-71.64808692853306
11
-49.87848747179465
21
-72.65149400604122
0
LINE
8
Polygon
10
-49.87848747179465
20
-72.65149400604122
11
-49.52279467529915
21
-73.60265111811306
0
LINE
8
Polygon
10
-49.52279467529915
20
-73.60265111811306
11
-48.98225858020088
21
-74.46232428113464
0
LINE
8
Polygon
10
-48.98225858020088
20
-74.46232428113464
11
-48.27917559161383
21
-75.1950531044268
0
LINE
8
Polygon
10
-48.27917559161383
20
-75.1950531044268
11
-47.44254696085953
21
-75.77061348486123
0
LINE
8
Polygon
10
-47.44254696085953
20
-75.77061348486123
11
-46.5068825218796
21
-76.16526431148138
0
LINE
8
Polygon
10
-46.5068825218796
20
-76.16526431148138
11
-45.510777205838544
21
-76.36272675519761
0
LINE
8
Polygon
10
-45.510777205838544
20
-76.36272675519761
11
-45.42251864096292
21
-76.37503330344326
0
LINE
8
Polygon
10
-45.42251864096292
20
-76.37503330344326
11
-45.33570608515185
21
-76.39514811284278
0
LINE
8
Polygon
10
-45.33570608515185
20
-76.39514811284278
11
-45.25102891911639
21
-76.42291145118365
0
LINE
8
Polygon
10
-45.25102891911639
20
-76.42291145118365
11
-45.16915956638313
21
-76.45810284909088
0
LINE
8
Polygon
10
-45.16915956638313
20
-76.45810284909088
11
-45.09074815356191
21
-76.50044285077968
0
LINE
8
Polygon
10
-45.09074815356191
20
-76.50044285077968
11
-45.01641734767387
21
-76.54959523322104
0
LINE
8
Polygon
10
-45.01641734767387
20
-76.54959523322104
11
-44.94675741153684
21
-76.60516967609735
0
LINE
8
Polygon
10
-44.94675741153684
20
-76.60516967609735
11
-44.8823215164733
21
-76.66672486134593
0
LINE
8
Polygon
10
-44.8823215164733
20
-76.66672486134593
11
-44.82362134956285
21
-76.733771977677
0
LINE
8
Polygon
10
-44.82362134956285
20
-76.733771977677
11
-44.77112305032213
21
-76.80577860223654
0
LINE
8
Polygon
10
-44.77112305032213
20
-76.80577860223654
11
-44.72524350907906
21
-76.8821729285897
0
LINE
8
Polygon
10
-44.72524350907906
20
-76.8821729285897
11
-44.68634705643615
21
-76.9623483074502
0
LINE
8
Polygon
10
-44.68634705643615
20
-76.9623483074502
11
-44.65474257011195
21
-77.04566806409777
0
LINE
8
Polygon
10
-44.65474257011195
20
-77.04566806409777
11
-44.630681022135235
21
-77.13147055422826
0
LINE
8
Polygon
10
-44.630681022135235
20
-77.13147055422826
11
-44.61435348586973
21
-77.21907441808781
0
LINE
8
Polygon
10
-44.61435348586973
20
-77.21907441808781
11
-44.605889618695706
21
-77.30778399116811
0
LINE
8
Polygon
10
-44.605889618695706
20
-77.30778399116811
11
-44.605356632397395
21
-77.39689482849576
0
LINE
8
Polygon
10
-44.605356632397395
20
-77.39689482849576
11
-44.612758759432545
21
-77.48569929864779
0
LINE
8
Polygon
10
-44.612758759432545
20
-77.48569929864779
11
-44.62803721932232
21
-77.57349220307077
0
LINE
8
Polygon
10
-44.62803721932232
20
-77.57349220307077
11
-44.651070685428614
21
-77.65957637608042
0
LINE
8
Polygon
10
-44.651070685428614
20
-77.65957637608042
11
-44.68167624841193
21
-77.74326822107206
0
LINE
8
Polygon
10
-44.68167624841193
20
-77.74326822107206
11
-44.719610868719144
21
-77.82390313897848
0
LINE
8
Polygon
10
-44.719610868719144
20
-77.82390313897848
11
-44.7645733065667
21
-77.90084080586819
0
LINE
8
Polygon
10
-44.7645733065667
20
-77.90084080586819
11
-44.81620651409346
21
-77.97347025777391
0
LINE
8
Polygon
10
-44.81620651409346
20
-77.97347025777391
11
-45.02655774210946
21
-78.25128886315005
0
LINE
8
Polygon
10
-45.02655774210946
20
-78.25128886315005
11
-45.228753525803455
21
-78.5350980978084
0
LINE
8
Polygon
10
-45.228753525803455
20
-78.5350980978084
11
-45.4226233596259
21
-78.82465863406055
0
LINE
8
Polygon
10
-45.4226233596259
20
-78.82465863406055
11
-45.60800375904738
21
-79.11972629432057
0
LINE
8
Polygon
10
-45.60800375904738
20
-79.11972629432057
11
-45.784738398420046
21
-79.42005225701243
0
LINE
8
Polygon
10
-45.784738398420046
20
-79.42005225701243
11
-45.95267824280235
21
-79.72538326639378
0
LINE
8
Polygon
10
-45.95267824280235
20
-79.72538326639378
11
-46.11168167363563
21
-80.03546184611871
0
LINE
8
Polygon
10
-46.11168167363563
20
-80.03546184611871
11
-46.26161460816675
21
-80.35002651635976
0
LINE
8
Polygon
10
-46.26161460816675
20
-80.35002651635976
11
-46.40235061251601
21
-80.66881201430593
0
LINE
8
Polygon
10
-46.40235061251601
20
-80.66881201430593
11
-46.533771008294956
21
-80.99154951785067
0
LINE
8
Polygon
10
-46.533771008294956
20
-80.99154951785067
11
-46.655764972684274
21
-81.3179668722814
0
LINE
8
Polygon
10
-46.655764972684274
20
-81.3179668722814
11
-46.76822963188732
21
-81.64778881977934
0
LINE
8
Polygon
10
-46.76822963188732
20
-81.64778881977934
11
-46.87107014788043
21
-81.98073723153595
0
LINE
8
Polygon
10
-46.87107014788043
20
-81.98073723153595
11
-46.964199798386936
21
-82.31653134229062
0
LINE
8
Polygon
10
-46.964199798386936
20
-82.31653134229062
11
-47.04754005000744
21
-82.65488798709136
0
LINE
8
Polygon
10
-47.04754005000744
20
-82.65488798709136
11
-47.121020624444654
21
-82.99552184007922
0
LINE
8
Polygon
10
-47.121020624444654
20
-82.99552184007922
11
-47.1845795577669
21
-83.33814565509493
0
LINE
8
Polygon
10
-47.1845795577669
20
-83.33814565509493
11
-47.238163252660456
21
-83.6824705079048
0
LINE
8
Polygon
10
-47.238163252660456
20
-83.6824705079048
11
-47.28172652362652
21
-84.02820603984173
0
LINE
8
Polygon
10
-47.28172652362652
20
-84.02820603984173
11
-47.31523263508473
21
-84.37506070265592
0
LINE
8
Polygon
10
-47.31523263508473
20
-84.37506070265592
11
-47.338653332351264
21
-84.72274200436846
0
LINE
8
Polygon
10
-47.338653332351264
20
-84.72274200436846
11
-47.351968865465025
21
-85.07095675592112
0
LINE
8
Polygon
10
-47.351968865465025
20
-85.07095675592112
11
-47.35516800584225
21
-85.4194113184136
0
LINE
8
Polygon
10
-47.35516800584225
20
-85.4194113184136
11
-47.348248055745266
21
-85.76781185072036
0
LINE
8
Polygon
10
-47.348248055745266
20
-85.76781185072036
11
-23.362430062909535
21
-84.94286626793436
0
ENDSEC
0
EOF
