0
SECTION
2
ENTITIES
0
LINE
8
Polygon
10
-8.083997845677407
20
-30.565283347907307
11
-8.11975474678987
21
-30.63281229807236
0
LINE
8
Polygon
10
-8.11975474678987
20
-30.63281229807236
11
-8.155207758797928
21
-30.700501285560115
0
LINE
8
Polygon
10
-8.155207758797928
20
-30.700501285560115
11
-8.190356165438475
21
-30.768348942838696
0
LINE
8
Polygon
10
-8.190356165438475
20
-30.768348942838696
11
-8.225199256602409
21
-30.8363538991706
0
LINE
8
Polygon
10
-8.225199256602409
20
-30.8363538991706
11
-8.259736328348957
21
-30.90451478064036
0
LINE
8
Polygon
10
-8.259736328348952
20
-30.90451478064035
11
-8.29396668291991
21
-30.97283021018235
0
LINE
8
Polygon
10
-8.29396668291991
20
-30.97283021018235
11
-8.327889628753724
21
-31.041298807608598
0
LINE
8
Polygon
10
-8.327889628753724
20
-31.041298807608598
11
-8.361504480499478
21
-31.10991918963662
0
LINE
8
Polygon
10
-8.361504480499478
20
-31.10991918963662
11
-8.394810559030732
21
-31.17868996991743
0
LINE
8
Polygon
10
-8.394810559030732
20
-31.17868996991743
11
-8.427807191459236
21
-31.247609759063504
0
LINE
8
Polygon
10
-8.427807191459236
20
-31.247609759063504
11
-8.460493711148533
21
-31.316677164676875
0
LINE
8
Polygon
10
-8.460493711148533
20
-31.316677164676875
11
-8.492869457727428
21
-31.385890791377264
0
LINE
8
Polygon
10
-8.492869457727426
20
-31.385890791377257
11
-8.524933777103325
21
-31.455249240830234
0
LINE
8
Polygon
10
-8.524933777103325
20
-31.455249240830234
11
-8.556686021475448
21
-31.52475111177551
0
LINE
8
Polygon
10
-8.556686021475448
20
-31.52475111177551
11
-8.588125549347922
21
-31.594395000055226
0
LINE
8
Polygon
10
-8.588125549347922
20
-31.594395000055226
11
-8.619251725542728
21
-31.664179498642316
0
LINE
8
Polygon
10
-8.619251725542728
20
-31.664179498642316
11
-8.650063921212553
21
-31.734103197668933
0
LINE
8
Polygon
10
-8.650063921212553
20
-31.734103197668933
11
-8.68056151385348
21
-31.804164684454967
0
LINE
8
Polygon
10
-8.68056151385348
20
-31.804164684454967
11
-8.710743887317571
21
-31.874362543536535
0
LINE
8
Polygon
10
-8.710743887317571
20
-31.874362543536535
11
-8.740610431825308
21
-31.94469535669461
0
LINE
8
Polygon
10
-8.740610431825308
20
-31.94469535669461
11
-8.770160543977932
21
-32.015161702983654
0
LINE
8
Polygon
10
-8.770160543977928
20
-32.015161702983654
11
-8.799393626769596
21
-32.085760158760365
0
LINE
8
Polygon
10
-8.799393626769596
20
-32.085760158760365
11
-8.82830908959948
21
-32.15648929771239
0
LINE
8
Polygon
10
-8.82830908959948
20
-32.15648929771239
11
-8.856906348283669
21
-32.227347690887164
0
LINE
8
Polygon
10
-8.856906348283669
20
-32.227347690887164
11
-8.885184825066991
21
-32.29833390672078
0
LINE
8
Polygon
10
-8.885184825066991
20
-32.29833390672078
11
-8.91314394863467
21
-32.369446511066904
0
LINE
8
Polygon
10
-8.91314394863467
20
-32.369446511066904
11
-8.940783154123883
21
-32.44068406722576
0
LINE
8
Polygon
10
-8.940783154123883
20
-32.44068406722576
11
-8.96810188313516
21
-32.512045135973146
0
LINE
8
Polygon
10
-8.968101883135157
20
-32.51204513597314
11
-8.995099583743674
21
-32.583528275589515
0
LINE
8
Polygon
10
-8.995099583743674
20
-32.583528275589515
11
-9.02177571051039
21
-32.65513204188911
0
LINE
8
Polygon
10
-9.02177571051039
20
-32.65513204188911
11
-9.048129724493078
21
-32.72685498824913
0
LINE
8
Polygon
10
-9.048129724493078
20
-32.72685498824913
11
-9.07416109325721
21
-32.79869566563894
0
LINE
8
Polygon
10
-9.07416109325721
20
-32.79869566563894
11
-9.099869290886708
21
-32.87065262264939
0
LINE
8
Polygon
10
-9.099869290886708
20
-32.87065262264939
11
-9.125253797994585
21
-32.9427244055221
0
LINE
8
Polygon
10
-9.125253797994585
20
-32.9427244055221
11
-9.15031410173341
21
-33.01490955817886
0
LINE
8
Polygon
10
-9.15031410173341
20
-33.01490955817886
11
-9.175049695805704
21
-33.087206622250996
0
LINE
8
Polygon
10
-9.175049695805704
20
-33.087206622250996
11
-9.19946008047414
21
-33.159614137108925
0
LINE
8
Polygon
10
-9.19946008047414
20
-33.15961413710892
11
-9.223544762571656
21
-33.232130639891544
0
LINE
8
Polygon
10
-9.223544762571656
20
-33.232130639891544
11
-9.247303255511415
21
-33.3047546655359
0
LINE
8
Polygon
10
-9.247303255511415
20
-33.3047546655359
11
-9.27073507929663
21
-33.377484746806715
0
LINE
8
Polygon
10
-9.27073507929663
20
-33.377484746806715
11
-9.293839760530261
21
-33.45031941432606
0
LINE
8
Polygon
10
-9.293839760530261
20
-33.45031941432606
11
-9.316616832424597
21
-33.523257196603026
0
LINE
8
Polygon
10
-9.316616832424597
20
-33.523257196603026
11
-9.339065834810656
21
-33.596296620063455
0
LINE
8
Polygon
10
-9.339065834810656
20
-33.596296620063455
11
-9.361186314147513
21
-33.66943620907973
0
LINE
8
Polygon
10
-9.36118631414751
20
-33.66943620907972
11
-9.382977823531439
21
-33.74267448600054
0
LINE
8
Polygon
10
-9.382977823531439
20
-33.74267448600054
11
-9.404439922704949
21
-33.816009971180826
0
LINE
8
Polygon
10
-9.404439922704949
20
-33.816009971180826
11
-9.42557217806568
21
-33.889441183011556
0
LINE
8
Polygon
10
-9.42557217806568
20
-33.889441183011556
11
-9.446374162675161
21
-33.962966637949755
0
LINE
8
Polygon
10
-9.44637416267516
20
-33.96296663794975
11
-9.459643432631156
21
-34.00644698358569
0
LINE
8
Polygon
10
-9.459643432631156
20
-34.00644698358569
11
-9.474875098330205
21
-34.04927933516505
0
LINE
8
Polygon
10
-9.474875098330205
20
-34.04927933516505
11
-9.492037681799008
21
-34.0913751747512
0
LINE
8
Polygon
10
-9.492037681799008
20
-34.0913751747512
11
-9.511095714602606
21
-34.132647506493456
0
LINE
8
Polygon
10
-9.511095714602606
20
-34.132647506493456
11
-9.53200981114394
21
-34.17301103641398
0
LINE
8
Polygon
10
-9.53200981114394
20
-34.17301103641398
11
-9.554736750058682
21
-34.2123823486775
0
LINE
8
Polygon
10
-9.554736750058682
20
-34.2123823486775
11
-9.579229563537108
21
-34.2506800779796
0
LINE
8
Polygon
10
-9.579229563537108
20
-34.2506800779796
11
-9.60543763438843
21
-34.287825077697434
0
LINE
8
Polygon
10
-9.60543763438843
20
-34.287825077697434
11
-9.63330680064699
21
-34.32374058345523
0
LINE
8
Polygon
10
-9.63330680064699
20
-34.32374058345523
11
-9.662779467504139
21
-34.358352371766635
0
LINE
8
Polygon
10
-9.662779467504139
20
-34.358352371766635
11
-9.693794726334467
21
-34.39158891342598
0
LINE
8
Polygon
10
-9.693794726334467
20
-34.39158891342598
11
-9.72628848057043
21
-34.42338152133158
0
LINE
8
Polygon
10
-9.726288480570432
20
-34.42338152133158
11
-9.760193578165202
21
-34.453664492435394
0
LINE
8
Polygon
10
-9.760193578165202
20
-34.453664492435394
11
-9.795439950370039
21
-34.48237524352595
0
LINE
8
Polygon
10
-9.795439950370039
20
-34.48237524352595
11
-9.831954756539336
21
-34.509454440563616
0
LINE
8
Polygon
10
-9.831954756539336
20
-34.509454440563616
11
-9.86966253466412
21
-34.534846121301165
0
LINE
8
Polygon
10
-9.86966253466412
20
-34.534846121301165
11
-9.908485357322897
21
-34.55849781093618
0
LINE
8
Polygon
10
-9.908485357322897
20
-34.55849781093618
11
-9.948342992727548
21
-34.58036063055616
0
LINE
8
Polygon
10
-9.948342992727548
20
-34.58036063055616
11
-9.989153070531467
21
-34.600389398152394
0
LINE
8
Polygon
10
-9.989153070531467
20
-34.600389398152394
11
-10.030831252057263
21
-34.618542721993734
0
LINE
8
Polygon
10
-10.030831252057263
20
-34.618542721993734
11
-10.073291404592261
21
-34.63478308616732
0
LINE
8
Polygon
10
-10.073291404592261
20
-34.63478308616732
11
-10.116445779391563
21
-34.649076928109466
0
LINE
8
Polygon
10
-10.116445779391563
20
-34.649076928109466
11
-10.160205193020836
21
-34.66139470796657
0
LINE
8
Polygon
10
-10.160205193020836
20
-34.66139470796657
11
-10.204479211664037
21
-34.671710969642554
0
LINE
8
Polygon
10
-10.204479211664037
20
-34.671710969642554
11
-10.249176338015205
21
-34.6800043934068
0
LINE
8
Polygon
10
-10.249176338015205
20
-34.6800043934068
11
-10.294204200368084
21
-34.6862578399538
0
LINE
8
Polygon
10
-10.294204200368084
20
-34.6862578399538
11
-10.339469743512758
21
-34.69045838582348
0
LINE
8
Polygon
10
-10.339469743512758
20
-34.69045838582348
11
-10.384879421044877
21
-34.692597350109025
0
LINE
8
Polygon
10
-10.384879421044877
20
-34.692597350109025
11
-10.430339388689942
21
-34.692670312396935
0
LINE
8
Polygon
10
-10.430339388689942
20
-34.692670312396935
11
-10.475755698243207
21
-34.69067712190231
0
LINE
8
Polygon
10
-10.475755698243207
20
-34.69067712190231
11
-10.521034491724347
21
-34.68662189778051
0
LINE
8
Polygon
10
-10.521034491724347
20
-34.68662189778051
11
-10.566082195345677
21
-34.6805130206144
0
LINE
8
Polygon
10
-10.566082195345677
20
-34.6805130206144
11
-10.610805712893045
21
-34.672363115094946
0
LINE
8
Polygon
10
-10.610805712893045
20
-34.672363115094946
11
-10.655112618119773
21
-34.66218902393084
0
LINE
8
Polygon
10
-10.655112618119773
20
-34.66218902393084
11
-10.69891134575603
21
-34.650011773041136
0
LINE
8
Polygon
10
-10.69891134575603
20
-34.650011773041136
11
-10.7421113807389
21
-34.635856528102785
0
LINE
8
Polygon
10
-10.7421113807389
20
-34.635856528102785
11
-10.784623445272072
21
-34.619752542542884
0
LINE
8
Polygon
10
-10.784623445272072
20
-34.619752542542884
11
-10.826359683328585
21
-34.60173309708316
0
LINE
8
Polygon
10
-10.826359683328585
20
-34.60173309708316
11
-10.867233842215326
21
-34.581835430961554
0
LINE
8
Polygon
10
-10.867233842215326
20
-34.581835430961554
11
-10.907161450824049
21
-34.560100664973056
0
LINE
8
Polygon
10
-10.907161450824049
20
-34.560100664973056
11
-10.94605999420054
21
-34.536573716488974
0
LINE
8
Polygon
10
-10.946059994200539
20
-34.536573716488974
11
-10.983849084071188
21
-34.51130320662997
0
LINE
8
Polygon
10
-10.983849084071188
20
-34.51130320662997
11
-11.020450624974508
21
-34.484341359785056
0
LINE
8
Polygon
10
-11.020450624974508
20
-34.484341359785056
11
-11.05578897565431
21
-34.4557438956839
0
LINE
8
Polygon
10
-11.05578897565431
20
-34.4557438956839
11
-11.089791105380991
21
-34.42556991424565
0
LINE
8
Polygon
10
-11.089791105380991
20
-34.42556991424565
11
-11.122386744877847
21
-34.39388177344224
0
LINE
8
Polygon
10
-11.122386744877847
20
-34.39388177344224
11
-11.153508531540545
21
-34.360744960428505
0
LINE
8
Polygon
10
-11.153508531540544
20
-34.360744960428505
11
-11.183092148649632
21
-34.32622795620553
0
LINE
8
Polygon
10
-11.183092148649637
20
-34.32622795620554
11
-11.519665014428886
21
-33.954652657279105
0
LINE
8
Polygon
10
-11.519665014428886
20
-33.954652657279105
11
-11.891756761690791
21
-33.61865082935147
0
LINE
8
Polygon
10
-11.891756761690791
20
-33.61865082935147
11
-12.29562638749857
21
-33.32160062803693
0
LINE
8
Polygon
10
-12.29562638749857
20
-33.32160062803693
11
-12.727213394764231
21
-33.06648859007989
0
LINE
8
Polygon
10
-12.727213394764231
20
-33.06648859007989
11
-13.18217861640455
21
-32.855879606774565
0
LINE
8
Polygon
10
-13.18217861640455
20
-32.855879606774565
11
-13.655947841239586
21
-32.69189113659957
0
LINE
8
Polygon
10
-13.655947841239588
20
-32.69189113659957
11
-14.143757803019799
21
-32.57617191633296
0
LINE
8
Polygon
10
-14.143757803019799
20
-32.57617191633296
11
-14.640704070209045
21
-32.509885384685866
0
LINE
8
Polygon
10
-14.640704070209045
20
-32.509885384685866
11
-15.141790355040511
21
-32.49369798511314
0
LINE
8
Polygon
10
-15.141790355040511
20
-32.49369798511314
11
-15.64197874609334
21
-32.52777246540421
0
LINE
8
Polygon
10
-15.64197874609334
20
-32.52777246540421
11
-16.136240359352662
21
-32.61176624142018
0
LINE
8
Polygon
10
-16.136240359352662
20
-32.61176624142018
11
-16.619605898508226
21
-32.74483484142774
0
LINE
8
Polygon
10
-16.61960589850823
20
-32.74483484142774
11
-17.087215616159497
21
-32.92564039640111
0
LINE
8
Polygon
10
-17.087215616159497
20
-32.92564039640111
11
-17.534368173618166
21
-33.15236509093017
0
LINE
8
Polygon
10
-17.534368173618166
20
-33.15236509093017
11
-17.956567908072707
21
-33.422729439500095
0
LINE
8
Polygon
10
-17.956567908072707
20
-33.422729439500095
11
-18.349570031891773
21
-33.7340152043928
0
LINE
8
Polygon
10
-18.349570031891773
20
-33.7340152043928
11
-18.709423309633603
21
-34.0830927247942
0
LINE
8
Polygon
10
-18.709423309633603
20
-34.0830927247942
11
-19.03250978368761
21
-34.466452382341096
0
LINE
8
Polygon
10
-19.03250978368761
20
-34.466452382341096
11
-19.315581149147373
21
-34.88023988675353
0
LINE
8
Polygon
10
-19.315581149147373
20
-34.88023988675353
11
-19.555791412202773
21
-35.32029502679166
0
LINE
8
Polygon
10
-19.555791412202773
20
-35.32029502679166
11
-19.750725503704473
21
-35.78219349693585
0
LINE
8
Polygon
10
-19.750725503704473
20
-35.78219349693585
11
-19.89842356022053
21
-36.26129137926523
0
LINE
8
Polygon
10
-19.89842356022053
20
-36.26129137926523
11
-19.997400628463883
21
-36.75277183331511
0
LINE
8
Polygon
10
-19.997400628463883
20
-36.75277183331511
11
-20.04666159498282
21
-37.251693524493945
0
LINE
8
Polygon
10
-20.04666159498282
20
-37.251693524493945
11
-20.04571119101158
21
-37.753040304161885
0
LINE
8
Polygon
10
-20.04571119101158
20
-37.753040304161885
11
-19.994558971892562
21
-38.25177164188825
0
LINE
8
Polygon
10
-19.994558971892562
20
-38.25177164188825
11
-19.893719221007093
21
-38.742873302842966
0
LINE
8
Polygon
10
-19.893719221007093
20
-38.742873302842966
11
-19.744205779180675
21
-39.22140776081266
0
LINE
8
Polygon
10
-19.744205779180675
20
-39.22140776081265
11
-19.547521851547735
21
-39.68256383998977
0
LINE
8
Polygon
10
-19.547521851547735
20
-39.68256383998977
11
-19.305644894357453
21
-40.12170508643731
0
LINE
8
Polygon
10
-19.305644894357453
20
-40.12170508643731
11
-19.02100673366845
21
-40.53441638290338
0
LINE
8
Polygon
10
-19.02100673366845
20
-40.53441638290337
11
-18.696469115818537
21
-40.91654833832118
0
LINE
8
Polygon
10
-18.696469115818537
20
-40.91654833832118
11
-18.335294935484654
21
-41.26425900570324
0
LINE
8
Polygon
10
-18.335294935484654
20
-41.26425900570324
11
-17.941115430605453
21
-41.57405250899908
0
LINE
8
Polygon
10
-17.941115430605457
20
-41.57405250899908
11
-17.517893673988183
21
-41.84281419056272
0
LINE
8
Polygon
10
-17.517893673988176
20
-41.84281419056272
11
-17.069884728654422
21
-42.06784192585787
0
LINE
8
Polygon
10
-17.06988472865443
20
-42.06784192585786
11
-16.601592867522175
21
-42.246873290563656
0
LINE
8
Polygon
10
-16.601592867522175
20
-42.246873290563656
11
-16.117726287536556
21
-42.37810830694325
0
LINE
8
Polygon
10
-16.117726287536556
20
-42.37810830694325
11
-15.623149773552539
21
-42.4602275407837
0
LINE
8
Polygon
10
-15.623149773552539
20
-42.4602275407837
11
-15.12283578788591
21
-42.49240536696103
0
LINE
8
Polygon
10
-15.12283578788591
20
-42.49240536696103
11
-14.621814477277265
21
-42.47431827025861
0
LINE
8
Polygon
10
-14.62181447727727
20
-42.47431827025861
11
-14.125123099897932
21
-42.40614809798258
0
LINE
8
Polygon
10
-14.125123099897927
20
-42.40614809798258
11
-13.637755380857694
21
-42.28858023167275
0
LINE
8
Polygon
10
-13.637755380857698
20
-42.28858023167275
11
-13.164611305393109
21
-42.12279669629035
0
LINE
8
Polygon
10
-13.164611305393112
20
-42.12279669629036
11
-12.710447854514516
21
-41.91046427616292
0
LINE
8
Polygon
10
-12.710447854514515
20
-41.91046427616292
11
-12.279831178414762
21
-41.65371775716816
0
LINE
8
Polygon
10
-12.279831178414765
20
-41.65371775716816
11
-11.877090688487064
21
-41.355138463639754
0
LINE
8
Polygon
10
-11.87709068848706
20
-41.355138463639754
11
-11.506275529509997
21
-41.017728305784445
0
LINE
8
Polygon
10
-11.506275529509999
20
-41.017728305784466
11
-11.473503190852812
21
-40.98622294432448
0
LINE
8
Polygon
10
-11.473503190852812
20
-40.98622294432448
11
-11.439332851557262
21
-40.9562395840356
0
LINE
8
Polygon
10
-11.439332851557262
20
-40.9562395840356
11
-11.403835128524301
21
-40.92784018894942
0
LINE
8
Polygon
10
-11.403835128524301
20
-40.92784018894942
11
-11.36708338184467
21
-40.901083449652894
0
LINE
8
Polygon
10
-11.36708338184467
20
-40.901083449652894
11
-11.32915356319191
21
-40.876024661997576
0
LINE
8
Polygon
10
-11.32915356319191
20
-40.876024661997576
11
-11.290124058859577
21
-40.85271561282438
0
LINE
8
Polygon
10
-11.290124058859577
20
-40.85271561282438
11
-11.250075527767027
21
-40.83120447294025
0
LINE
8
Polygon
10
-11.250075527767027
20
-40.83120447294025
11
-11.209090734768564
21
-40.811535697567614
0
LINE
8
Polygon
10
-11.209090734768564
20
-40.811535697567614
11
-11.167254379610442
21
-40.79374993447268
0
LINE
8
Polygon
10
-11.167254379610442
20
-40.79374993447268
11
-11.124652921889174
21
-40.77788393996212
0
LINE
8
Polygon
10
-11.124652921889174
20
-40.77788393996212
11
-11.081374402372935
21
-40.76397050292204
0
LINE
8
Polygon
10
-11.081374402372935
20
-40.76397050292204
11
-11.037508261055267
21
-40.75203837705595
0
LINE
8
Polygon
10
-11.037508261055267
20
-40.75203837705595
11
-10.993145152317142
21
-40.742112221462015
0
LINE
8
Polygon
10
-10.993145152317142
20
-40.742112221462015
11
-10.948376757579355
21
-40.73421254967215
0
LINE
8
Polygon
10
-10.948376757579355
20
-40.73421254967215
11
-10.903295595832416
21
-40.728355687258535
0
LINE
8
Polygon
10
-10.903295595832416
20
-40.728355687258535
11
-10.857994832435502
21
-40.72455373809492
0
LINE
8
Polygon
10
-10.857994832435502
20
-40.72455373809492
11
-10.812568086579638
21
-40.72281455934261
0
LINE
8
Polygon
10
-10.812568086579637
20
-40.72281455934261
11
-10.767109237812953
21
-40.723141745212736
0
LINE
8
Polygon
10
-10.767109237812953
20
-40.723141745212736
11
-10.721712232027908
21
-40.725534619538394
0
LINE
8
Polygon
10
-10.721712232027908
20
-40.725534619538394
11
-10.676470887311389
21
-40.72998823717205
0
LINE
8
Polygon
10
-10.676470887311389
20
-40.72998823717205
11
-10.63147870005894
21
-40.73649339420523
0
LINE
8
Polygon
10
-10.63147870005894
20
-40.73649339420523
11
-10.586828651753807
21
-40.74503664698946
0
LINE
8
Polygon
10
-10.586828651753807
20
-40.74503664698946
11
-10.54261301681011
21
-40.75560033991909
0
LINE
8
Polygon
10
-10.54261301681011
20
-40.75560033991909
11
-10.498923171877232
21
-40.76816264191861
0
LINE
8
Polygon
10
-10.498923171877232
20
-40.76816264191861
11
-10.455849406999576
21
-40.78269759155905
0
LINE
8
Polygon
10
-10.455849406999576
20
-40.78269759155905
11
-10.413480739021885
21
-40.79917515071027
0
LINE
8
Polygon
10
-10.413480739021885
20
-40.79917515071027
11
-10.371904727625793
21
-40.81756126661815
0
LINE
8
Polygon
10
-10.371904727625793
20
-40.81756126661815
11
-10.331207294377757
21
-40.83781794227846
0
LINE
8
Polygon
10
-10.331207294377757
20
-40.83781794227846
11
-10.29147254516235
21
-40.85990331496209
0
LINE
8
Polygon
10
-10.29147254516235
20
-40.85990331496209
11
-10.252782596367863
21
-40.88377174272903
0
LINE
8
Polygon
10
-10.252782596367863
20
-40.88377174272903
11
-10.21521740518343
21
-40.90937389875275
0
LINE
8
Polygon
10
-10.21521740518343
20
-40.90937389875275
11
-10.178854604358381
21
-40.93665687325964
0
LINE
8
Polygon
10
-10.178854604358381
20
-40.93665687325964
11
-10.143769341765319
21
-40.965564282873125
0
LINE
8
Polygon
10
-10.143769341765319
20
-40.965564282873125
11
-10.11003412509847
21
-40.996036387136314
0
LINE
8
Polygon
10
-10.11003412509847
20
-40.996036387136314
11
-10.077718672028281
21
-41.028010211972486
0
LINE
8
Polygon
10
-10.077718672028281
20
-41.028010211972486
11
-10.046889766121891
21
-41.061419679828184
0
LINE
8
Polygon
10
-10.046889766121891
20
-41.061419679828184
11
-10.017611118827292
21
-41.09619574623001
0
LINE
8
Polygon
10
-10.017611118827292
20
-41.09619574623001
11
-9.989943237806347
21
-41.132266542472905
0
LINE
8
Polygon
10
-9.989943237806347
20
-41.132266542472905
11
-9.963943301888825
21
-41.16955752414503
0
LINE
8
Polygon
10
-9.963943301888825
20
-41.16955752414503
11
-9.939665042905816
21
-41.20799162518225
0
LINE
8
Polygon
10
-9.939665042905816
20
-41.20799162518225
11
-9.917158634646787
21
-41.247489417134005
0
LINE
8
Polygon
10
-9.917158634646787
20
-41.247489417134005
11
-9.896470589169729
21
-41.287969273311184
0
LINE
8
Polygon
10
-9.896470589169727
20
-41.287969273311184
11
-9.877643660678675
21
-41.32934753747703
0
LINE
8
Polygon
10
-9.877643660678675
20
-41.32934753747703
11
-9.860716757167285
21
-41.37153869673228
0
LINE
8
Polygon
10
-9.860716757167285
20
-41.37153869673228
11
-9.845724860011021
21
-41.41445555823731
0
LINE
8
Polygon
10
-9.845724860011021
20
-41.41445555823731
11
-9.83269895167416
21
-41.458009429406076
0
LINE
8
Polygon
10
-9.83269895167416
20
-41.458009429406076
11
-9.821665951680995
21
-41.502110301199465
0
LINE
8
Polygon
10
-9.821665951680995
20
-41.502110301199465
11
-9.812648660983575
21
-41.54666703413921
0
LINE
8
Polygon
10
-9.812648660983575
20
-41.546667034139205
11
-9.799029175328824
21
-41.62185496334371
0
LINE
8
Polygon
10
-9.799029175328824
20
-41.62185496334371
11
-9.785071873908969
21
-41.696980916413445
0
LINE
8
Polygon
10
-9.785071873908969
20
-41.696980916413445
11
-9.770777038705686
21
-41.772043375566284
0
LINE
8
Polygon
10
-9.770777038705686
20
-41.772043375566284
11
-9.756144958519913
21
-41.84704082430288
0
LINE
8
Polygon
10
-9.756144958519913
20
-41.84704082430288
11
-9.741175928966003
21
-41.9219717474373
0
LINE
8
Polygon
10
-9.741175928966006
20
-41.92197174743729
11
-9.725870252465752
21
-41.99683463112761
0
LINE
8
Polygon
10
-9.725870252465752
20
-41.99683463112761
11
-9.71022823824228
21
-42.07162796290655
0
LINE
8
Polygon
10
-9.71022823824228
20
-42.07162796290655
11
-9.694250202313812
21
-42.14635023171197
0
LINE
8
Polygon
10
-9.694250202313812
20
-42.14635023171197
11
-9.677936467487266
21
-42.220999927917454
0
LINE
8
Polygon
10
-9.677936467487266
20
-42.220999927917454
11
-9.661287363351734
21
-42.29557554336275
0
LINE
8
Polygon
10
-9.661287363351734
20
-42.29557554336275
11
-9.644303226271845
21
-42.370075571384305
0
LINE
8
Polygon
10
-9.644303226271845
20
-42.370075571384305
11
-9.626984399380941
21
-42.444498506845655
0
LINE
8
Polygon
10
-9.626984399380945
20
-42.444498506845655
11
-9.60933123257417
21
-42.51884284616784
0
LINE
8
Polygon
10
-9.60933123257417
20
-42.51884284616784
11
-9.59134408250139
21
-42.59310708735982
0
LINE
8
Polygon
10
-9.59134408250139
20
-42.59310708735982
11
-9.573023312559995
21
-42.66728973004877
0
LINE
8
Polygon
10
-9.573023312559995
20
-42.66728973004877
11
-9.554369292887541
21
-42.7413892755104
0
LINE
8
Polygon
10
-9.554369292887541
20
-42.7413892755104
11
-9.535382400354294
21
-42.815404226699286
0
LINE
8
Polygon
10
-9.535382400354294
20
-42.815404226699286
11
-9.516063018555606
21
-42.88933308827903
0
LINE
8
Polygon
10
-9.516063018555606
20
-42.88933308827903
11
-9.49641153780416
21
-42.96317436665256
0
LINE
8
Polygon
10
-9.49641153780416
20
-42.96317436665256
11
-9.47642835512209
21
-43.03692656999223
0
LINE
8
Polygon
10
-9.47642835512209
20
-43.03692656999223
11
-9.456113874232965
21
-43.11058820827001
0
LINE
8
Polygon
10
-9.456113874232969
20
-43.11058820827
11
-9.43546850555362
21
-43.184157793287554
0
LINE
8
Polygon
10
-9.43546850555362
20
-43.184157793287554
11
-9.414492666185872
21
-43.25763383870632
0
LINE
8
Polygon
10
-9.414492666185872
20
-43.25763383870632
11
-9.393186779908097
21
-43.33101486007751
0
LINE
8
Polygon
10
-9.393186779908097
20
-43.33101486007751
11
-9.37155127716666
21
-43.40429937487215
0
LINE
8
Polygon
10
-9.37155127716666
20
-43.40429937487215
11
-9.349586595067219
21
-43.477485902511
0
LINE
8
Polygon
10
-9.349586595067219
20
-43.477485902511
11
-9.327293177365906
21
-43.550572964394455
0
LINE
8
Polygon
10
-9.327293177365906
20
-43.550572964394455
11
-9.304671474460346
21
-43.62355908393244
0
LINE
8
Polygon
10
-9.30467147446035
20
-43.62355908393244
11
-9.281721943380571
21
-43.696442786574245
0
LINE
8
Polygon
10
-9.281721943380571
20
-43.696442786574245
11
-9.258445047779768
21
-43.7692225998383
0
LINE
8
Polygon
10
-9.258445047779768
20
-43.7692225998383
11
-9.23484125792494
21
-43.841897053341924
0
LINE
8
Polygon
10
-9.23484125792494
20
-43.841897053341924
11
-9.210911050687375
21
-43.91446467883104
0
LINE
8
Polygon
10
-9.210911050687375
20
-43.91446467883104
11
-9.186654909533035
21
-43.98692401020983
0
LINE
8
Polygon
10
-9.186654909533035
20
-43.98692401020983
11
-9.162073324512773
21
-44.05927358357038
0
LINE
8
Polygon
10
-9.162073324512773
20
-44.05927358357038
11
-9.137166792252446
21
-44.1315119372222
0
LINE
8
Polygon
10
-9.137166792252446
20
-44.1315119372222
11
-9.111935815942864
21
-44.20363761172184
0
LINE
8
Polygon
10
-9.111935815942864
20
-44.20363761172184
11
-9.086380905329646
21
-44.275649149902264
0
LINE
8
Polygon
10
-9.086380905329646
20
-44.27564914990226
11
-9.0605025767029
21
-44.347545096902394
0
LINE
8
Polygon
10
-9.0605025767029
20
-44.347545096902394
11
-9.034301352886803
21
-44.41932400019647
0
LINE
8
Polygon
10
-9.034301352886803
20
-44.41932400019647
11
-9.007777763229038
21
-44.49098440962335
0
LINE
8
Polygon
10
-9.007777763229038
20
-44.49098440962335
11
-8.980932343590109
21
-44.56252487741586
0
LINE
8
Polygon
10
-8.980932343590109
20
-44.56252487741586
11
-8.953765636332486
21
-44.63394395823002
0
LINE
8
Polygon
10
-8.953765636332486
20
-44.63394395823002
11
-8.926278190309683
21
-44.70524020917427
0
LINE
8
Polygon
10
-8.926278190309683
20
-44.70524020917427
11
-8.898470560855143
21
-44.776412189838574
0
LINE
8
Polygon
10
-8.898470560855145
20
-44.77641218983857
11
-8.870343309771034
21
-44.84745846232356
0
LINE
8
Polygon
10
-8.870343309771034
20
-44.84745846232356
11
-8.841897005316884
21
-44.91837759126959
0
LINE
8
Polygon
10
-8.841897005316884
20
-44.91837759126959
11
-8.813132222198117
21
-44.98916814388568
0
LINE
8
Polygon
10
-8.813132222198117
20
-44.98916814388568
11
-8.784049541554435
21
-45.059828689978524
0
LINE
8
Polygon
10
-8.784049541554436
20
-45.05982868997852
11
-8.67264671179118
21
-45.32252139450761
0
LINE
8
Polygon
10
-8.67264671179118
20
-45.32252139450761
11
-8.5568505334146
21
-45.58330730778793
0
LINE
8
Polygon
10
-8.556850533414604
20
-45.583307307787926
11
-8.436693628911732
21
-45.84211296033895
0
LINE
8
Polygon
10
-8.436693628911732
20
-45.84211296033895
11
-8.31220984928795
21
-46.09886544056582
0
LINE
8
Polygon
10
-8.31220984928795
20
-46.09886544056582
11
-8.183434264530396
21
-46.35349241530028
0
LINE
8
Polygon
10
-8.183434264530401
20
-46.353492415300266
11
-8.050403153727913
21
-46.60592215017857
0
LINE
8
Polygon
10
-8.050403153727913
20
-46.60592215017857
11
-7.913153994850386
21
-46.85608352985074
0
LINE
8
Polygon
10
-7.913153994850386
20
-46.85608352985074
11
-7.771725454190323
21
-47.10390607801542
0
LINE
8
Polygon
10
-7.771725454190329
20
-47.10390607801542
11
-7.62615737546967
21
-47.3493199772747
0
LINE
8
Polygon
10
-7.62615737546967
20
-47.3493199772747
11
-7.476490768614877
21
-47.59225608880332
0
LINE
8
Polygon
10
-7.476490768614877
20
-47.59225608880332
11
-7.322767798203472
21
-47.83264597182665
0
LINE
8
Polygon
10
-7.322767798203477
20
-47.832645971826636
11
-7.165031771585309
21
-48.07042190290206
0
LINE
8
Polygon
10
-7.165031771585309
20
-48.07042190290206
11
-7.003327126681852
21
-48.30551689499828
0
LINE
8
Polygon
10
-7.003327126681852
20
-48.30551689499828
11
-6.837699419467014
21
-48.537864716367075
0
LINE
8
Polygon
10
-6.837699419467016
20
-48.537864716367075
11
-6.668195311132943
21
-48.76739990920238
0
LINE
8
Polygon
10
-6.668195311132943
20
-48.76739990920238
11
-6.494862554944494
21
-48.99405780808126
0
LINE
8
Polygon
10
-6.494862554944494
20
-48.99405780808126
11
-6.317749982786008
21
-49.21777455818164
0
LINE
8
Polygon
10
-6.3177499827860135
20
-49.21777455818164
11
-6.136907491404245
21
-49.43848713327174
0
LINE
8
Polygon
10
-6.136907491404245
20
-49.43848713327174
11
-5.952386028351276
21
-49.65613335346604
0
LINE
8
Polygon
10
-5.952386028351276
20
-49.65613335346604
11
-5.764237577631404
21
-49.87065190274274
0
LINE
8
Polygon
10
-5.764237577631409
20
-49.87065190274274
11
-5.572515145056041
21
-50.08198234621801
0
LINE
8
Polygon
10
-5.572515145056041
20
-50.08198234621801
11
-5.377272743310714
21
-50.29006514717184
0
LINE
8
Polygon
10
-5.377272743310714
20
-50.29006514717184
11
-5.178565376738469
21
-50.49484168382092
0
LINE
8
Polygon
10
-5.178565376738476
20
-50.49484168382092
11
-4.976449025843836
21
-50.69625426583383
0
LINE
8
Polygon
10
-4.976449025843836
20
-50.69625426583383
11
-4.77098063152181
21
-50.89424615058369
0
LINE
8
Polygon
10
-4.77098063152181
20
-50.89424615058369
11
-4.5622180790162945
21
-51.0887615591339
0
LINE
8
Polygon
10
-4.562218079016301
20
-51.088761559133886
11
-4.350220181612466
21
-51.27974569195237
0
LINE
8
Polygon
10
-4.350220181612466
20
-51.27974569195237
11
-4.135046664067682
21
-51.46714474434986
0
LINE
8
Polygon
10
-4.135046664067682
20
-51.46714474434986
11
-3.916758145785651
21
-51.65090592163796
0
LINE
8
Polygon
10
-3.9167581457856566
20
-51.65090592163794
11
-3.6954161237385206
21
-51.8309774540026
0
LINE
8
Polygon
10
-3.6954161237385206
20
-51.8309774540026
11
-3.4710829551417204
21
-52.00730861108891
0
LINE
8
Polygon
10
-3.4710829551417204
20
-52.00730861108891
11
-3.243821839886517
21
-52.17984971629295
0
LINE
8
Polygon
10
-3.2438218398865253
20
-52.17984971629295
11
-3.013696802735119
21
-52.34855216075697
0
LINE
8
Polygon
10
-3.013696802735119
20
-52.34855216075697
11
-2.780772675283369
21
-52.51336841706353
0
LINE
8
Polygon
10
-2.780772675283369
20
-52.51336841706353
11
-2.545115077696231
21
-52.67425205262517
0
LINE
8
Polygon
10
-2.545115077696236
20
-52.67425205262517
11
-2.3067904002210122
21
-52.83115774276547
0
LINE
8
Polygon
10
-2.3067904002210122
20
-52.83115774276547
11
-2.0658657844836905
21
-52.984041283488125
0
LINE
8
Polygon
10
-2.0658657844836905
20
-52.984041283488125
11
-1.8224091045735635
21
-53.13285960393023
0
LINE
8
Polygon
10
-1.822409104573569
20
-53.13285960393023
11
-1.576488947921527
21
-53.277570778496354
0
LINE
8
Polygon
10
-1.576488947921527
20
-53.277570778496354
11
-1.3281745959773743
21
-53.41813403866994
0
LINE
8
Polygon
10
-1.3281745959773743
20
-53.41813403866994
11
-1.0775360046916287
21
-53.55450978449876
0
LINE
8
Polygon
10
-1.0775360046916358
20
-53.55450978449876
11
-0.8246437848073024
21
-53.686659595751166
0
LINE
8
Polygon
10
-0.8246437848073024
20
-53.686659595751166
11
-0.5695691819671833
21
-53.81454624273992
0
LINE
8
Polygon
10
-0.5695691819671833
20
-53.81454624273992
11
-0.312384056642305
21
-53.93813369681071
0
LINE
8
Polygon
10
-0.31238405664231195
20
-53.93813369681071
11
-0.05316086388717223
21
-54.05738714049223
0
LINE
8
Polygon
10
-0.05316086388716945
20
-54.05738714049223
11
0.2080273670725663
21
-54.172272977305106
0
LINE
8
Polygon
10
0.2080273670725663
20
-54.172272977305106
11
0.47110705341408265
21
-54.28275884122677
0
LINE
8
Polygon
10
0.47110705341408265
20
-54.28275884122677
11
0.736004079447429
21
-54.388813605809794
0
LINE
8
Polygon
10
0.7360040794474334
20
-54.388813605809794
11
0.7840186220453546
21
-54.40617155127132
0
LINE
8
Polygon
10
0.7840186220453546
20
-54.40617155127132
11
0.8328565199758451
21
-54.42105625137794
0
LINE
8
Polygon
10
0.8328565199758452
20
-54.42105625137794
11
0.8823904677554849
21
-54.43342890626267
0
LINE
8
Polygon
10
0.8823904677554849
20
-54.43342890626267
11
0.9324913455114898
21
-54.443257264193214
0
LINE
8
Polygon
10
0.9324913455114899
20
-54.443257264193214
11
0.9830285555577843
21
-54.450515705642275
0
LINE
8
Polygon
10
0.9830285555577843
20
-54.450515705642275
11
1.0338703628232804
21
-54.45518531006995
0
LINE
8
Polygon
10
1.0338703628232804
20
-54.45518531006995
11
1.084884238244972
21
-54.45725390524374
0
LINE
8
Polygon
10
1.084884238244972
20
-54.45725390524374
11
1.1359372042307248
21
-54.4567160989678
0
LINE
8
Polygon
10
1.1359372042307248
20
-54.4567160989678
11
1.1868961812912426
21
-54.45357329313886
0
LINE
8
Polygon
10
1.1868961812912429
20
-54.45357329313886
11
1.2376283349376518
21
-54.4478336800918
0
LINE
8
Polygon
10
1.2376283349376518
20
-54.4478336800918
11
1.288001421940439
21
-54.43951222124479
0
LINE
8
Polygon
10
1.2880014219404392
20
-54.43951222124479
11
1.3378841350471637
21
-54.42863060809944
0
LINE
8
Polygon
10
1.3378841350471637
20
-54.42863060809944
11
1.3871464452603564
21
-54.41521720569765
0
LINE
8
Polygon
10
1.3871464452603564
20
-54.41521720569765
11
1.4356599407834036
21
-54.39930697868268
0
LINE
8
Polygon
10
1.4356599407834039
20
-54.39930697868268
11
1.4832981617508796
21
-54.38094140015689
0
LINE
8
Polygon
10
1.4832981617508796
20
-54.38094140015689
11
1.5299369298707906
21
-54.360168343574145
0
LINE
8
Polygon
10
1.5299369298707906
20
-54.360168343574145
11
1.5754546721194553
21
-54.33704195794826
0
LINE
8
Polygon
10
1.5754546721194558
20
-54.33704195794826
11
1.6197327376452464
21
-54.31162252670312
0
LINE
8
Polygon
10
1.6197327376452464
20
-54.31162252670312
11
1.662655707055119
21
-54.28397631053215
0
LINE
8
Polygon
10
1.662655707055119
20
-54.28397631053215
11
1.7041116932777187
21
-54.25417537467697
0
LINE
8
Polygon
10
1.7041116932777187
20
-54.25417537467697
11
1.7439926332188014
21
-54.2222974010753
0
LINE
8
Polygon
10
1.7439926332188014
20
-54.2222974010753
11
1.7821945694487153
21
-54.18842548586789
0
LINE
8
Polygon
10
1.7821945694487153
20
-54.18842548586789
11
1.8186179211876676
21
-54.15264792279222
0
LINE
8
Polygon
10
1.8186179211876676
20
-54.15264792279222
11
1.8531677438824037
21
-54.115057973027746
0
LINE
8
Polygon
10
1.8531677438824037
20
-54.115057973027746
11
1.8857539766976572
21
-54.075753622092485
0
LINE
8
Polygon
10
1.8857539766976572
20
-54.075753622092485
11
1.9162916772772425
21
-54.03483732442462
0
LINE
8
Polygon
10
1.9162916772772425
20
-54.03483732442462
11
1.944701243162831
21
-53.9924157363152
0
LINE
8
Polygon
10
1.944701243162831
20
-53.9924157363152
11
1.9709086192932497
21
-53.94859943788766
0
LINE
8
Polygon
10
1.9709086192932497
20
-53.94859943788766
11
1.9948454910434053
21
-53.90350264484924
0
LINE
8
Polygon
10
1.9948454910434053
20
-53.90350264484924
11
2.0164494622996463
21
-53.85724291076557
0
LINE
8
Polygon
10
2.0164494622996463
20
-53.85724291076557
11
2.0356642181073767
21
-53.80994082063435
0
LINE
8
Polygon
10
2.035664218107377
20
-53.80994082063435
11
2.0524396714669395
21
-53.76171967655715
0
LINE
8
Polygon
10
2.0524396714669395
20
-53.76171967655715
11
2.0667320938951255
21
-53.71270517632848
0
LINE
8
Polygon
10
2.0667320938951255
20
-53.71270517632848
11
2.078504229411979
21
-53.66302508577999
0
LINE
8
Polygon
10
2.078504229411979
20
-53.66302508577999
11
2.0877253916557508
21
-53.61280890573404
0
LINE
8
Polygon
10
2.0877253916557508
20
-53.61280890573404
11
2.094371543872879
21
-53.56218753443457
0
LINE
8
Polygon
10
2.094371543872879
20
-53.56218753443457
11
2.098425361574456
21
-53.51129292633533
0
LINE
8
Polygon
10
2.098425361574456
20
-53.51129292633533
11
2.0998762776958864
21
-53.46025774813498
0
LINE
8
Polygon
10
2.0998762776958864
20
-53.46025774813498
11
2.0987205101419915
21
-53.409215032955494
0
LINE
8
Polygon
10
2.0987205101419915
20
-53.409215032955494
11
2.094961071645781
21
-53.35829783356544
0
LINE
8
Polygon
10
2.094961071645781
20
-53.35829783356544
11
2.0886077619151746
21
-53.30763887555208
0
LINE
8
Polygon
10
2.088607761915174
20
-53.30763887555208
11
2.079677142088158
21
-53.25737021134624
0
LINE
8
Polygon
10
2.079677142088158
20
-53.25737021134624
11
2.068192491562955
21
-53.207622876002056
0
LINE
8
Polygon
10
2.068192491562955
20
-53.207622876002056
11
2.054183747315746
21
-53.158526545628504
0
LINE
8
Polygon
10
2.054183747315746
20
-53.158526545628504
11
2.0376874258641133
21
-53.11020919936345
0
LINE
8
Polygon
10
2.0376874258641133
20
-53.11020919936345
11
2.018746528079636
21
-53.06279678577111
0
LINE
8
Polygon
10
2.018746528079636
20
-53.06279678577111
11
1.9974104270977482
21
-53.01641289453263
0
LINE
8
Polygon
10
1.9974104270977482
20
-53.01641289453263
11
1.9737347396170577
21
-52.97117843428549
0
LINE
8
Polygon
10
10.457670361564144
20
-53.3809321298786
11
10.692926097318207
21
-53.00563868564615
0
LINE
8
Polygon
10
10.692926097318207
20
-53.00563868564615
11
10.894045326380493
21
-52.61099772706426
0
LINE
8
Polygon
10
10.894045326380493
20
-52.61099772706426
11
11.059449742025834
21
-52.20010624531505
0
LINE
8
Polygon
10
11.059449742025834
20
-52.20010624531505
11
11.187841313713822
21
-51.77618875946606
0
LINE
8
Polygon
10
11.187841313713822
20
-51.77618875946606
11
11.278212473535627
21
-51.34257201167891
0
LINE
8
Polygon
10
11.278212473535627
20
-51.34257201167891
11
11.32985402322128
21
-50.902658860210224
0
LINE
8
Polygon
10
11.32985402322128
20
-50.902658860210224
11
11.342360699656227
21
-50.4599015750826
0
LINE
8
Polygon
10
11.342360699656227
20
-50.4599015750826
11
11.315634355231115
21
-50.01777474599086
0
LINE
8
Polygon
10
11.315634355231117
20
-50.01777474599086
11
11.24988472806667
21
-49.57974801505224
0
LINE
8
Polygon
10
11.24988472806667
20
-49.57974801505224
11
11.145627796069208
21
-49.14925884838306
0
LINE
8
Polygon
10
11.145627796069208
20
-49.14925884838306
11
11.003681727733532
21
-48.729685560180535
0
LINE
8
Polygon
10
11.003681727733532
20
-48.729685560180535
11
10.82516046146976
21
-48.32432080100601
0
LINE
8
Polygon
10
10.825160461469762
20
-48.32432080100601
11
10.611464963841085
21
-47.93634571832379
0
LINE
8
Polygon
10
10.611464963841085
20
-47.93634571832379
11
10.364272235314436
21
-47.5688049920735
0
LINE
8
Polygon
10
10.364272235314436
20
-47.568804992073495
11
10.085522149802753
21
-47.22458294118735
0
LINE
8
Polygon
10
10.085522149802753
20
-47.22458294118735
11
9.777402231277051
21
-46.90638088855922
0
LINE
8
Polygon
10
9.777402231277051
20
-46.90638088855922
11
9.44233048691564
21
-46.61669596209662
0
LINE
8
Polygon
10
9.44233048691564
20
-46.61669596209662
11
9.08293643150936
21
-46.3578014982167
0
LINE
8
Polygon
10
9.082936431509362
20
-46.3578014982167
11
8.702040452036028
21
-46.13172920157226
0
LINE
8
Polygon
10
8.702040452036028
20
-46.13172920157226
11
8.302631674343017
21
-45.940253201011316
0
LINE
8
Polygon
10
8.302631674343017
20
-45.940253201011316
11
7.887844505631797
21
-45.784876126892996
0
LINE
8
Polygon
10
7.887844505631798
20
-45.784876126892996
11
7.4609340368299994
21
-45.66681731901967
0
LINE
8
Polygon
10
7.4609340368299994
20
-45.66681731901967
11
7.025250497883803
21
-45.58700325772493
0
LINE
8
Polygon
10
7.025250497883804
20
-45.58700325772493
11
6.584212966435725
21
-45.54606029321057
0
LINE
8
Polygon
10
6.584212966435725
20
-45.54606029321057
11
6.1412825362120245
21
-45.544309730189916
0
LINE
8
Polygon
10
6.1412825362120245
20
-45.544309730189916
11
5.699935155683996
21
-45.581765306411484
0
LINE
8
Polygon
10
5.699935155683996
20
-45.581765306411484
11
5.263634350154881
21
-45.658133084850334
0
LINE
8
Polygon
10
5.263634350154881
20
-45.658133084850334
11
4.835804041339056
21
-45.772813760413385
0
LINE
8
Polygon
10
4.835804041339056
20
-45.772813760413385
11
4.419801677735036
21
-45.92490736305633
0
LINE
8
Polygon
10
4.419801677735038
20
-45.92490736305633
11
4.0188918866548216
21
-46.11322032040408
0
LINE
8
Polygon
10
4.0188918866548216
20
-46.11322032040408
11
3.636220854678376
21
-46.336274824449895
0
LINE
8
Polygon
10
3.636220854678376
20
-46.336274824449895
11
3.274791637585671
21
-46.592320428826916
0
LINE
8
Polygon
10
3.274791637585671
20
-46.592320428826916
11
2.9374405935244146
21
-46.879347785641244
0
LINE
8
Polygon
10
2.9374405935244146
20
-46.879347785641244
11
2.626815124357019
21
-47.195104414065064
0
LINE
8
Polygon
10
2.626815124357019
20
-47.195104414065064
11
2.3453528998641575
21
-47.53711237694396
0
LINE
8
Polygon
10
2.3453528998641575
20
-47.53711237694396
11
2.095262727845415
21
-47.90268772669922
0
LINE
8
Polygon
10
2.095262727845415
20
-47.90268772669922
11
1.8785072202411712
21
-48.28896156792105
0
LINE
8
Polygon
10
1.8785072202411712
20
-48.28896156792105
11
1.6967873913053328
21
-48.69290257136161
0
LINE
8
Polygon
10
1.6967873913053328
20
-48.69290257136161
11
1.5515293086965956
21
-49.11134076264663
0
LINE
8
Polygon
10
1.5515293086965956
20
-49.11134076264663
11
1.443872902245319
21
-49.54099239902084
0
LINE
8
Polygon
10
1.443872902245319
20
-49.54099239902084
11
1.3746630182205657
21
-49.978485738904226
0
LINE
8
Polygon
10
1.3746630182205657
20
-49.978485738904226
11
1.344442789299973
21
-50.42038750202927
0
LINE
8
Polygon
10
1.3444427892999737
20
-50.42038750202927
11
1.3534493722723973
21
-50.863229812510326
0
LINE
8
Polygon
10
1.3534493722723973
20
-50.863229812510326
11
1.401612086922213
21
-51.30353741340611
0
LINE
8
Polygon
10
1.401612086922213
20
-51.30353741340611
11
1.4885529707005962
21
-51.73785493920593
0
LINE
8
Polygon
10
1.4885529707005962
20
-51.73785493920593
11
1.613589744830922
21
-52.16277403221555
0
LINE
8
Polygon
10
1.613589744830922
20
-52.16277403221555
11
1.7757411685714473
21
-52.57496009004377
0
LINE
8
Polygon
10
1.7757411685714473
20
-52.57496009004377
11
1.9737347396170495
21
-52.97117843428549
0
LINE
8
Polygon
10
10.457670361564137
20
-53.3809321298786
11
10.429745608874667
21
-53.42367441291034
0
LINE
8
Polygon
10
10.429745608874667
20
-53.42367441291034
11
10.404038782059862
21
-53.46778624382503
0
LINE
8
Polygon
10
10.404038782059862
20
-53.46778624382503
11
10.380616890965639
21
-53.5131526365525
0
LINE
8
Polygon
10
10.380616890965639
20
-53.5131526365525
11
10.359540989308366
21
-53.5596553347631
0
LINE
8
Polygon
10
10.359540989308366
20
-53.5596553347631
11
10.340866015526483
21
-53.60717312012583
0
LINE
8
Polygon
10
10.340866015526483
20
-53.60717312012583
11
10.32464064957277
21
-53.65558212828755
0
LINE
8
Polygon
10
10.32464064957277
20
-53.65558212828755
11
10.31090718602058
21
-53.704756171749445
0
LINE
8
Polygon
10
10.31090718602058
20
-53.704756171749445
11
10.299701423814804
21
-53.754567068799396
0
LINE
8
Polygon
10
10.299701423814804
20
-53.754567068799396
11
10.291052572954953
21
-53.804884977642445
0
LINE
8
Polygon
10
10.291052572954953
20
-53.804884977642445
11
10.284983178353613
21
-53.85557873485875
0
LINE
8
Polygon
10
10.284983178353613
20
-53.85557873485875
11
10.281509061068745
21
-53.90651619730657
0
LINE
8
Polygon
10
10.281509061068745
20
-53.90651619730657
11
10.280639277063013
21
-53.957564586579075
0
LINE
8
Polygon
10
10.280639277063013
20
-53.957564586579075
11
10.28237609359767
21
-54.00859083511703
0
LINE
8
Polygon
10
10.28237609359767
20
-54.00859083511703
11
10.286714983322474
21
-54.05946193307539
0
LINE
8
Polygon
10
10.286714983322474
20
-54.05946193307539
11
10.29364463607714
21
-54.110045275039255
0
LINE
8
Polygon
10
10.29364463607714
20
-54.110045275039255
11
10.303146988373447
21
-54.1602090056857
0
LINE
8
Polygon
10
10.303146988373447
20
-54.1602090056857
11
10.31519727048125
21
-54.20982236349038
0
LINE
8
Polygon
10
10.31519727048125
20
-54.20982236349038
11
10.329764070995589
21
-54.25875602158283
0
LINE
8
Polygon
10
10.329764070995589
20
-54.25875602158283
11
10.346809418716642
21
-54.306882424862124
0
LINE
8
Polygon
10
10.346809418716642
20
-54.306882424862124
11
10.366288881629034
21
-54.354076122494085
0
LINE
8
Polygon
10
10.366288881629034
20
-54.354076122494085
11
10.388151682722532
21
-54.40021409492331
0
LINE
8
Polygon
10
10.388151682722532
20
-54.40021409492331
11
10.41234083235221
21
-54.4451760745475
0
LINE
8
Polygon
10
10.41234083235221
20
-54.4451760745475
11
10.43879327679304
21
-54.488844859218446
0
LINE
8
Polygon
10
10.43879327679304
20
-54.488844859218446
11
10.46744006260169
21
-54.5311066177522
0
LINE
8
Polygon
10
10.46744006260169
20
-54.5311066177522
11
10.498206516357106
21
-54.57185118665223
0
LINE
8
Polygon
10
10.498206516357104
20
-54.57185118665223
11
10.531012439311292
21
-54.61097235727195
0
LINE
8
Polygon
10
10.531012439311292
20
-54.61097235727195
11
10.565772316442972
21
-54.64836815266826
0
LINE
8
Polygon
10
10.565772316442972
20
-54.64836815266826
11
10.602395539369123
21
-54.68394109342432
0
LINE
8
Polygon
10
10.602395539369123
20
-54.68394109342432
11
10.640786642533348
21
-54.71759845174857
0
LINE
8
Polygon
10
10.640786642533348
20
-54.71759845174857
11
10.680845552055434
21
-54.749252493187775
0
LINE
8
Polygon
10
10.680845552055434
20
-54.749252493187775
11
10.722467846593386
21
-54.77882070532393
0
LINE
8
Polygon
10
10.722467846593386
20
-54.77882070532393
11
10.765545029537982
21
-54.80622601285897
0
LINE
8
Polygon
10
10.765545029537982
20
-54.80622601285897
11
10.80996481183028
21
-54.831396978526534
0
LINE
8
Polygon
10
10.80996481183028
20
-54.831396978526534
11
10.855611404664913
21
-54.85426798930705
0
LINE
8
Polygon
10
10.855611404664913
20
-54.85426798930705
11
10.902365821316126
21
-54.874779427460865
0
LINE
8
Polygon
10
10.902365821316126
20
-54.874779427460865
11
10.950106187299841
21
-54.892877825933475
0
LINE
8
Polygon
10
10.950106187299841
20
-54.892877825933475
11
10.998708058063206
21
-54.90851600772786
0
LINE
8
Polygon
10
10.998708058063206
20
-54.90851600772786
11
11.048044743373534
21
-54.92165320888041
0
LINE
8
Polygon
10
11.048044743373534
20
-54.92165320888041
11
11.097987637561053
21
-54.93225518472018
0
LINE
8
Polygon
10
11.097987637561053
20
-54.93225518472018
11
11.148406554754594
21
-54.94029429913433
0
LINE
8
Polygon
10
11.148406554754594
20
-54.94029429913433
11
11.199170068236405
21
-54.945749596606944
0
LINE
8
Polygon
10
11.199170068236405
20
-54.945749596606944
11
11.250145853031466
21
-54.94860685684371
0
LINE
8
Polygon
10
11.250145853031466
20
-54.94860685684371
11
11.301201030838268
21
-54.94885863183988
0
LINE
8
Polygon
10
11.301201030838268
20
-54.94885863183988
11
11.352202516401974
21
-54.94650426529495
0
LINE
8
Polygon
10
11.352202516401974
20
-54.94650426529495
11
11.403017364427026
21
-54.9415498943234
0
LINE
8
Polygon
10
11.403017364427026
20
-54.9415498943234
11
11.453513116124924
21
-54.93400843345716
0
LINE
8
Polygon
10
11.453513116124924
20
-54.93400843345716
11
11.503558144493828
21
-54.92389954098131
0
LINE
8
Polygon
10
11.503558144493828
20
-54.92389954098131
11
11.553021997429964
21
-54.91124956769101
0
LINE
8
Polygon
10
11.553021997429964
20
-54.91124956769101
11
11.826906610636756
21
-54.83121666107982
0
LINE
8
Polygon
10
11.826906610636756
20
-54.83121666107982
11
12.099409369668038
21
-54.74659814175686
0
LINE
8
Polygon
10
12.099409369668043
20
-54.74659814175686
11
12.370453504134279
21
-54.6574178487347
0
LINE
8
Polygon
10
12.370453504134279
20
-54.6574178487347
11
12.639962654574527
21
-54.56370090618403
0
LINE
8
Polygon
10
12.639962654574527
20
-54.56370090618403
11
12.907860893968682
21
-54.46547371635565
0
LINE
8
Polygon
10
12.907860893968687
20
-54.46547371635565
11
13.174072749127896
21
-54.3627639521423
0
LINE
8
Polygon
10
13.174072749127896
20
-54.3627639521423
11
13.438523221957121
21
-54.25560054928261
0
LINE
8
Polygon
10
13.438523221957121
20
-54.25560054928261
11
13.701137810583855
21
-54.14401369820918
0
LINE
8
Polygon
10
13.701137810583857
20
-54.14401369820918
11
13.961842530347024
21
-54.028034835543274
0
LINE
8
Polygon
10
13.961842530347024
20
-54.028034835543274
11
14.220563934640207
21
-53.907696635238324
0
LINE
8
Polygon
10
14.220563934640207
20
-53.907696635238324
11
14.477229135603261
21
-53.78303299937499
0
LINE
8
Polygon
10
14.477229135603265
20
-53.78303299937499
11
14.731765824656529
21
-53.6540790486101
0
LINE
8
Polygon
10
14.731765824656529
20
-53.6540790486101
11
14.984102292871848
21
-53.520871112282386
0
LINE
8
Polygon
10
14.984102292871848
20
-53.520871112282386
11
15.23416745117464
21
-53.38344671817761
0
LINE
8
Polygon
10
15.234167451174644
20
-53.383446718177595
11
15.481890850371366
21
-53.2418445819561
0
LINE
8
Polygon
10
15.481890850371366
20
-53.2418445819561
11
15.727202700996685
21
-53.096104596245766
0
LINE
8
Polygon
10
15.727202700996685
20
-53.096104596245766
11
15.970033892974806
21
-52.94626781940324
0
LINE
8
Polygon
10
15.970033892974806
20
-52.94626781940324
11
16.210316015089397
21
-52.79237646394693
0
LINE
8
Polygon
10
16.210316015089397
20
-52.79237646394693
11
16.447981374256617
21
-52.63447388466468
0
LINE
8
Polygon
10
16.447981374256614
20
-52.63447388466468
11
16.68296301459584
21
-52.472604566399724
0
LINE
8
Polygon
10
16.68296301459584
20
-52.472604566399724
11
16.915194736292698
21
-52.30681411151832
0
LINE
8
Polygon
10
16.915194736292698
20
-52.30681411151832
11
17.144611114249106
21
-52.13714922706243
0
LINE
8
Polygon
10
17.144611114249102
20
-52.13714922706243
11
17.37114751651504
21
-51.96365771159128
0
LINE
8
Polygon
10
17.37114751651504
20
-51.96365771159128
11
17.594740122496884
21
-51.78638844171542
0
LINE
8
Polygon
10
17.594740122496884
20
-51.78638844171542
11
17.815325940937143
21
-51.60539135832701
0
LINE
8
Polygon
10
17.815325940937143
20
-51.60539135832701
11
18.03284282766059
21
-51.420717452530305
0
LINE
8
Polygon
10
18.03284282766059
20
-51.420717452530305
11
18.247229503081712
21
-51.232418751276285
0
LINE
8
Polygon
10
18.247229503081712
20
-51.232418751276285
11
18.458425569468606
21
-51.04054830270546
0
LINE
8
Polygon
10
18.458425569468602
20
-51.04054830270546
11
18.666371527958407
21
-50.845160161202884
0
LINE
8
Polygon
10
18.666371527958407
20
-50.845160161202884
11
18.871008795319565
21
-50.64630937216993
0
LINE
8
Polygon
10
18.871008795319565
20
-50.64630937216993
11
19.072279720456038
21
-50.44405195651655
0
LINE
8
Polygon
10
19.072279720456038
20
-50.44405195651657
11
19.270127600649
21
-50.23844489487902
0
LINE
8
Polygon
10
19.270127600649
20
-50.23844489487902
11
19.4644966975313
21
-50.029546111567036
0
LINE
8
Polygon
10
19.4644966975313
20
-50.029546111567036
11
19.655332252790274
21
-49.81741445824516
0
LINE
8
Polygon
10
19.65533225279027
20
-49.81741445824517
11
19.842580503594423
21
-49.602109697352944
0
LINE
8
Polygon
10
19.842580503594423
20
-49.602109697352944
11
20.026188697739688
21
-49.3836924852684
0
LINE
8
Polygon
10
20.026188697739688
20
-49.3836924852684
11
20.206105108510936
21
-49.162224355219706
0
LINE
8
Polygon
10
20.206105108510936
20
-49.16222435521971
11
20.382279049254613
21
-48.937767699949895
0
LINE
8
Polygon
10
20.382279049254613
20
-48.937767699949895
11
20.554660887658358
21
-48.71038575413929
0
LINE
8
Polygon
10
20.554660887658358
20
-48.71038575413929
11
20.723202059733563
21
-48.480142576590886
0
LINE
8
Polygon
10
20.72320205973356
20
-48.480142576590886
11
20.887855083497
21
-48.247103032183446
0
LINE
8
Polygon
10
20.887855083497
20
-48.247103032183446
11
21.04857357234761
21
-48.01133277359757
0
LINE
8
Polygon
10
21.04857357234761
20
-48.01133277359757
11
21.205312248134668
21
-47.77289822281981
0
LINE
8
Polygon
10
21.205312248134664
20
-47.77289822281982
11
21.358026953913708
21
-47.53186655243004
0
LINE
8
Polygon
10
21.358026953913708
20
-47.53186655243004
11
21.506674666386584
21
-47.28830566667731
0
LINE
8
Polygon
10
21.506674666386584
20
-47.28830566667731
11
21.651213508022096
21
-47.042284182349746
0
LINE
8
Polygon
10
21.651213508022096
20
-47.042284182349746
11
21.791602758853905
21
-46.79387140944354
0
LINE
8
Polygon
10
21.791602758853905
20
-46.79387140944354
11
21.927802867952288
21
-46.54313733163667
0
LINE
8
Polygon
10
21.927802867952288
20
-46.54313733163667
11
-8.083997845677407
21
-30.565283347907307
0
ENDSEC
0
EOF
