0
SECTION
2
ENTITIES
0
LINE
8
Polygon
10
84.94286626793436
20
-23.362430062909535
11
84.87544191308481
21
-23.364938785398746
0
LINE
8
Polygon
10
84.87544191308481
20
-23.364938785398746
11
84.80803272944141
21
-23.367826565850415
0
LINE
8
Polygon
10
84.80803272944141
20
-23.367826565850415
11
84.74064084804127
21
-23.371093312971823
0
LINE
8
Polygon
10
84.74064084804127
20
-23.371093312971823
11
84.67326839937448
21
-23.37473892348982
0
LINE
8
Polygon
10
84.67326839937448
20
-23.37473892348982
11
84.60591751331684
21
-23.378763282154058
0
LINE
8
Polygon
10
84.60591751331684
20
-23.378763282154058
11
84.53859031906245
21
-23.383166261740666
0
LINE
8
Polygon
10
84.53859031906246
20
-23.383166261740666
11
84.47128894505647
21
-23.38794772305625
0
LINE
8
Polygon
10
84.47128894505647
20
-23.38794772305625
11
84.40401551892772
21
-23.393107514942315
0
LINE
8
Polygon
10
84.40401551892772
20
-23.39310751494231
11
84.33677216742156
21
-23.39864547428001
0
LINE
8
Polygon
10
84.33677216742156
20
-23.39864547428001
11
84.26956101633255
21
-23.40456142599531
0
LINE
8
Polygon
10
84.26956101633256
20
-23.40456142599531
11
84.2023841904373
21
-23.410855183064566
0
LINE
8
Polygon
10
84.2023841904373
20
-23.410855183064566
11
84.13524381342728
21
-23.417526546520367
0
LINE
8
Polygon
10
84.1352438134273
20
-23.417526546520367
11
84.06814200784169
21
-23.424575305457886
0
LINE
8
Polygon
10
84.06814200784169
20
-23.424575305457886
11
84.00108089500033
21
-23.432001237041494
0
LINE
8
Polygon
10
84.00108089500033
20
-23.432001237041494
11
83.93406259493656
21
-23.439804106511858
0
LINE
8
Polygon
10
83.93406259493656
20
-23.439804106511858
11
83.86708922633034
21
-23.447983667193327
0
LINE
8
Polygon
10
83.86708922633034
20
-23.447983667193327
11
83.80016290644112
21
-23.456539660501736
0
LINE
8
Polygon
10
83.80016290644112
20
-23.456539660501736
11
83.73328575104102
21
-23.465471815952586
0
LINE
8
Polygon
10
83.73328575104102
20
-23.465471815952586
11
83.6664598743479
21
-23.474779851169597
0
LINE
8
Polygon
10
83.6664598743479
20
-23.474779851169597
11
83.59968738895847
21
-23.484463471893633
0
LINE
8
Polygon
10
83.59968738895847
20
-23.484463471893633
11
83.53297040578164
21
-23.494522371991998
0
LINE
8
Polygon
10
83.53297040578164
20
-23.494522371991994
11
83.46631103397164
21
-23.504956233468118
0
LINE
8
Polygon
10
83.46631103397164
20
-23.504956233468118
11
83.39971138086142
21
-23.515764726471595
0
LINE
8
Polygon
10
83.39971138086142
20
-23.515764726471595
11
83.33317355189604
21
-23.526947509308645
0
LINE
8
Polygon
10
83.33317355189604
20
-23.526947509308645
11
83.26669965056605
21
-23.53850422845288
0
LINE
8
Polygon
10
83.26669965056605
20
-23.53850422845288
11
83.20029177834107
21
-23.550434518556493
0
LINE
8
Polygon
10
83.20029177834107
20
-23.55043451855649
11
83.13395203460325
21
-23.56273800246181
0
LINE
8
Polygon
10
83.13395203460325
20
-23.56273800246181
11
83.06768251658102
21
-23.57541429121322
0
LINE
8
Polygon
10
83.06768251658102
20
-23.57541429121322
11
83.00148531928272
21
-23.58846298406945
0
LINE
8
Polygon
10
83.00148531928272
20
-23.58846298406945
11
82.93536253543036
21
-23.601883668516262
0
LINE
8
Polygon
10
82.93536253543036
20
-23.601883668516262
11
82.86931625539349
21
-23.615675920279465
0
LINE
8
Polygon
10
82.86931625539349
20
-23.615675920279465
11
82.80334856712314
21
-23.62983930333835
0
LINE
8
Polygon
10
82.80334856712315
20
-23.629839303338347
11
82.73746155608575
21
-23.644373369939462
0
LINE
8
Polygon
10
82.73746155608575
20
-23.644373369939462
11
82.67165730519727
21
-23.659277660610766
0
LINE
8
Polygon
10
82.67165730519727
20
-23.659277660610766
11
82.60593789475736
21
-23.674551704176157
0
LINE
8
Polygon
10
82.60593789475736
20
-23.674551704176157
11
82.54030540238354
21
-23.690195017770364
0
LINE
8
Polygon
10
82.54030540238354
20
-23.690195017770364
11
82.47476190294554
21
-23.706207106854233
0
LINE
8
Polygon
10
82.47476190294556
20
-23.706207106854233
11
82.40930946849979
21
-23.722587465230312
0
LINE
8
Polygon
10
82.40930946849979
20
-23.722587465230312
11
82.34395016822373
21
-23.739335575058913
0
LINE
8
Polygon
10
82.34395016822373
20
-23.739335575058913
11
82.27868606835058
21
-23.756450906874438
0
LINE
8
Polygon
10
82.27868606835058
20
-23.756450906874438
11
82.21351923210393
21
-23.773932919602146
0
LINE
8
Polygon
10
82.21351923210395
20
-23.773932919602142
11
82.14845171963258
21
-23.79178106057523
0
LINE
8
Polygon
10
82.14845171963258
20
-23.79178106057523
11
82.08348558794525
21
-23.809994765552318
0
LINE
8
Polygon
10
82.08348558794525
20
-23.809994765552318
11
82.01862289084576
21
-23.828573458735296
0
LINE
8
Polygon
10
82.01862289084576
20
-23.828573458735296
11
81.95386567886797
21
-23.8475165527875
0
LINE
8
Polygon
10
81.95386567886797
20
-23.8475165527875
11
81.88921599921099
21
-23.86682344885232
0
LINE
8
Polygon
10
81.88921599921099
20
-23.86682344885232
11
81.82467589567449
21
-23.886493536572083
0
LINE
8
Polygon
10
81.82467589567449
20
-23.886493536572083
11
81.760247408594
21
-23.906526194107386
0
LINE
8
Polygon
10
81.760247408594
20
-23.906526194107386
11
81.71744023052307
21
-23.918927328993643
0
LINE
8
Polygon
10
81.71744023052307
20
-23.918927328993643
11
81.67412301753333
21
-23.929408822191977
0
LINE
8
Polygon
10
81.67412301753333
20
-23.929408822191977
11
81.63038180812036
21
-23.93794985491366
0
LINE
8
Polygon
10
81.63038180812036
20
-23.93794985491366
11
81.5863034829394
21
-23.94453346259531
0
LINE
8
Polygon
10
81.5863034829394
20
-23.94453346259531
11
81.54197559223948
21
-23.949146568594603
0
LINE
8
Polygon
10
81.54197559223948
20
-23.949146568594603
11
81.4974861819673
21
-23.951780010163713
0
LINE
8
Polygon
10
81.4974861819673
20
-23.951780010163713
11
81.45292361888662
21
-23.95242855664869
0
LINE
8
Polygon
10
81.45292361888662
20
-23.95242855664869
11
81.40837641506037
21
-23.951090919878858
0
LINE
8
Polygon
10
81.40837641506037
20
-23.951090919878858
11
81.36393305204437
21
-23.94776975672541
0
LINE
8
Polygon
10
81.36393305204437
20
-23.94776975672541
11
81.31968180514134
21
-23.94247166382421
0
LINE
8
Polygon
10
81.31968180514134
20
-23.94247166382421
11
81.27571056806477
21
-23.9352071644733
0
LINE
8
Polygon
10
81.27571056806477
20
-23.9352071644733
11
81.23210667836071
21
-23.925990687731055
0
LINE
8
Polygon
10
81.23210667836071
20
-23.925990687731055
11
81.1889567439342
21
-23.914840539756575
0
LINE
8
Polygon
10
81.1889567439342
20
-23.914840539756575
11
81.14634647102498
21
-23.901778867449224
0
LINE
8
Polygon
10
81.14634647102498
20
-23.901778867449224
11
81.104360493974
21
-23.886831614459496
0
LINE
8
Polygon
10
81.104360493974
20
-23.886831614459496
11
81.06308220711922
21
-23.870028469658642
0
LINE
8
Polygon
10
81.06308220711922
20
-23.870028469658642
11
81.02259359915412
21
-23.85140280816937
0
LINE
8
Polygon
10
81.02259359915412
20
-23.85140280816937
11
80.98297509027833
21
-23.830991625074745
0
LINE
8
Polygon
10
80.98297509027833
20
-23.830991625074745
11
80.94430537246352
21
-23.80883546193698
0
LINE
8
Polygon
10
80.94430537246352
20
-23.80883546193698
11
80.90666125315215
21
-23.784978326272046
0
LINE
8
Polygon
10
80.90666125315215
20
-23.78497832627205
11
80.87011750269916
21
-23.759467604140106
0
LINE
8
Polygon
10
80.87011750269916
20
-23.759467604140106
11
80.83474670585996
21
-23.732353966025247
0
LINE
8
Polygon
10
80.83474670585996
20
-23.732353966025247
11
80.80061911761945
21
-23.703691266191644
0
LINE
8
Polygon
10
80.80061911761945
20
-23.703691266191644
11
80.76780252364867
21
-23.67353643571591
0
LINE
8
Polygon
10
80.76780252364867
20
-23.67353643571591
11
80.73636210566585
21
-23.641949369408163
0
LINE
8
Polygon
10
80.73636210566585
20
-23.641949369408163
11
80.70636031196986
21
-23.608992806846405
0
LINE
8
Polygon
10
80.70636031196986
20
-23.60899280684641
11
80.67785673340263
21
-23.57473220776049
0
LINE
8
Polygon
10
80.67785673340263
20
-23.57473220776049
11
80.65090798498734
21
-23.539235622013226
0
LINE
8
Polygon
10
80.65090798498734
20
-23.539235622013226
11
80.62556759347719
21
-23.50257355443683
0
LINE
8
Polygon
10
80.62556759347719
20
-23.50257355443683
11
80.60188589103835
21
-23.46481882479322
0
LINE
8
Polygon
10
80.60188589103835
20
-23.46481882479322
11
80.57990991527801
21
-23.426046423136313
0
LINE
8
Polygon
10
80.57990991527801
20
-23.426046423136313
11
80.55968331581627
21
-23.386333360863567
0
LINE
8
Polygon
10
80.55968331581627
20
-23.386333360863567
11
80.54124626758752
21
-23.345758517752664
0
LINE
8
Polygon
10
80.54124626758752
20
-23.345758517752667
11
80.52463539104308
21
-23.304402485287145
0
LINE
8
Polygon
10
80.52463539104308
20
-23.304402485287145
11
80.50988367941424
21
-23.262347406582144
0
LINE
8
Polygon
10
80.50988367941424
20
-23.262347406582144
11
80.49702043317969
21
-23.219676813228254
0
LINE
8
Polygon
10
80.49702043317969
20
-23.219676813228254
11
80.48607120186759
21
-23.1764754593775
0
LINE
8
Polygon
10
80.48607120186759
20
-23.1764754593775
11
80.47705773330806
21
-23.132829153401048
0
LINE
8
Polygon
10
80.47705773330806
20
-23.132829153401048
11
80.46999793043669
21
-23.08882458745294
0
LINE
8
Polygon
10
80.46999793043669
20
-23.08882458745294
11
80.46490581573497
21
-23.04454916527846
0
LINE
8
Polygon
10
80.46490581573497
20
-23.04454916527846
11
80.46179150337827
21
-23.000090828609068
0
LINE
8
Polygon
10
80.46179150337827
20
-23.00009082860907
11
80.46066117914657
21
-22.955537882488805
0
LINE
8
Polygon
10
80.46066117914657
20
-22.955537882488805
11
80.4615170881381
21
-22.910978819879027
0
LINE
8
Polygon
10
80.4615170881381
20
-22.910978819879027
11
80.46435753030985
21
-22.86650214588993
0
LINE
8
Polygon
10
80.46435753030985
20
-22.86650214588993
11
80.46917686385454
21
-22.822196201987904
0
LINE
8
Polygon
10
80.46917686385454
20
-22.822196201987904
11
80.47596551640633
21
-22.778148990527985
0
LINE
8
Polygon
10
80.47596551640633
20
-22.778148990527985
11
80.48471000405407
21
-22.734447999959777
0
LINE
8
Polygon
10
80.48471000405407
20
-22.734447999959777
11
80.49539295812352
21
-22.691180031054202
0
LINE
8
Polygon
10
80.49539295812352
20
-22.691180031054202
11
80.60310620124251
21
-22.19431964692106
0
LINE
8
Polygon
10
80.60310620124251
20
-22.19431964692106
11
80.65980701784852
21
-21.689089598863394
0
LINE
8
Polygon
10
80.65980701784852
20
-21.689089598863394
11
80.66490918413169
21
-21.180713407482088
0
LINE
8
Polygon
10
80.66490918413169
20
-21.180713407482088
11
80.61835994932869
21
-20.674447121024656
0
LINE
8
Polygon
10
80.61835994932869
20
-20.674447121024656
11
80.52064058110734
21
-20.17552497365238
0
LINE
8
Polygon
10
80.52064058110734
20
-20.17552497365238
11
80.37276138979061
21
-19.689105269241
0
LINE
8
Polygon
10
80.37276138979061
20
-19.689105269241
11
80.1762512828638
21
-19.22021705021672
0
LINE
8
Polygon
10
80.1762512828638
20
-19.22021705021672
11
79.93314195776014
21
-18.773708102812776
0
LINE
8
Polygon
10
79.93314195776014
20
-18.773708102812776
11
79.64594689635351
21
-18.354194836314825
0
LINE
8
Polygon
10
79.64594689635351
20
-18.354194836314825
11
79.31763537833245
21
-17.966014554488392
0
LINE
8
Polygon
10
79.31763537833245
20
-17.966014554488392
11
78.9516017821281
21
-17.613180612649096
0
LINE
8
Polygon
10
78.9516017821281
20
-17.613180612649096
11
78.55163049079081
21
-17.299340924001974
0
LINE
8
Polygon
10
78.55163049079081
20
-17.299340924001974
11
78.12185676564974
21
-17.02774024424857
0
LINE
8
Polygon
10
78.12185676564974
20
-17.02774024424857
11
77.6667239922787
21
-16.801186624397253
0
LINE
8
Polygon
10
77.6667239922787
20
-16.801186624397253
11
77.19093774079766
21
-16.62202237861768
0
LINE
8
Polygon
10
77.19093774079766
20
-16.62202237861768
11
76.69941711547563
21
-16.49209986729968
0
LINE
8
Polygon
10
76.69941711547563
20
-16.49209986729968
11
76.19724389662635
21
-16.412762345693004
0
LINE
8
Polygon
10
76.19724389662635
20
-16.412762345693004
11
75.68961000061337
21
-16.384830076131877
0
LINE
8
Polygon
10
75.68961000061337
20
-16.384830076131877
11
75.18176380117009
21
-16.408591847428525
0
LINE
8
Polygon
10
75.18176380117009
20
-16.408591847428525
11
74.6789558670128
21
-16.483801989115886
0
LINE
8
Polygon
10
74.6789558670128
20
-16.483801989115886
11
74.18638467676027
21
-16.60968291140885
0
LINE
8
Polygon
10
74.18638467676027
20
-16.60968291140885
11
73.70914287240707
21
-16.784933144623686
0
LINE
8
Polygon
10
73.70914287240707
20
-16.784933144623686
11
73.25216460703109
21
-17.00774079493692
0
LINE
8
Polygon
10
73.25216460703109
20
-17.00774079493692
11
72.82017453110102
21
-17.275802277365987
0
LINE
8
Polygon
10
72.82017453110102
20
-17.275802277365987
11
72.41763894480955
21
-17.586346132293315
0
LINE
8
Polygon
10
72.41763894480955
20
-17.586346132293315
11
72.04871962146306
21
-17.936161679297324
0
LINE
8
Polygon
10
72.04871962146306
20
-17.936161679297324
11
71.71723077934288
21
-18.321632212041344
0
LINE
8
Polygon
10
71.71723077934288
20
-18.321632212041344
11
71.42659964690151
21
-18.73877239102198
0
LINE
8
Polygon
10
71.42659964690151
20
-18.73877239102198
11
71.17983102900641
21
-19.183269447577224
0
LINE
8
Polygon
10
71.17983102900641
20
-19.183269447577224
11
70.97947624057672
21
-19.65052777315039
0
LINE
8
Polygon
10
70.97947624057672
20
-19.65052777315039
11
70.82760672880542
21
-20.13571643280609
0
LINE
8
Polygon
10
70.82760672880542
20
-20.13571643280609
11
70.7257926566835
21
-20.633819111761035
0
LINE
8
Polygon
10
70.7257926566835
20
-20.633819111761035
11
70.67508666924903
21
-21.1396859785377
0
LINE
8
Polygon
10
70.67508666924903
20
-21.1396859785377
11
70.67601301040037
21
-21.648086928533086
0
LINE
8
Polygon
10
70.67601301040037
20
-21.648086928533086
11
70.72856210279329
21
-22.15376565752297
0
LINE
8
Polygon
10
70.72856210279329
20
-22.15376565752297
11
70.83219064686013
21
-22.651494006041244
0
LINE
8
Polygon
10
70.83219064686013
20
-22.651494006041244
11
70.9858272379272
21
-23.1361260127736
0
LINE
8
Polygon
10
70.9858272379272
20
-23.1361260127736
11
71.18788344335563
21
-23.602651118113076
0
LINE
8
Polygon
10
71.18788344335563
20
-23.602651118113076
11
71.4362702251801
21
-24.046245967811565
0
LINE
8
Polygon
10
71.4362702251801
20
-24.046245967811565
11
71.7284195384539
21
-24.462324281134656
0
LINE
8
Polygon
10
71.7284195384539
20
-24.462324281134656
11
72.06131088199686
21
-24.84658426793827
0
LINE
8
Polygon
10
72.06131088199686
20
-24.84658426793827
11
72.43150252704096
21
-25.195053104426822
0
LINE
8
Polygon
10
72.43150252704096
20
-25.195053104426822
11
72.835167100904
21
-25.504128007762745
0
LINE
8
Polygon
10
72.835167100904
20
-25.504128007762745
11
73.26813115779525
21
-25.77061348486125
0
LINE
8
Polygon
10
73.26813115779525
20
-25.77061348486125
11
73.72591832763473
21
-25.991754370258967
0
LINE
8
Polygon
10
73.72591832763473
20
-25.991754370258967
11
74.20379559677518
21
-26.1652643114814
0
LINE
8
Polygon
10
74.20379559677518
20
-26.1652643114814
11
74.69682224213479
21
-26.289349407401875
0
LINE
8
Polygon
10
74.69682224213479
20
-26.289349407401875
11
75.19990091281623
21
-26.36272675519762
0
LINE
8
Polygon
10
75.19990091281623
20
-26.362726755197613
11
75.24416734666235
21
-26.367896423988885
0
LINE
8
Polygon
10
75.24416734666235
20
-26.367896423988885
11
75.28815947769185
21
-26.375033303443296
0
LINE
8
Polygon
10
75.28815947769185
20
-26.375033303443296
11
75.33178992685824
21
-26.384123217986556
0
LINE
8
Polygon
10
75.33178992685824
20
-26.384123217986556
11
75.37497203350291
21
-26.395148112842794
0
LINE
8
Polygon
10
75.37497203350291
20
-26.395148112842794
11
75.41762002748436
21
-26.40808608989574
0
LINE
8
Polygon
10
75.41762002748436
20
-26.40808608989574
11
75.45964919953838
21
-26.422911451183683
0
LINE
8
Polygon
10
75.45964919953838
20
-26.422911451183683
11
75.50097606953126
21
-26.439594749941868
0
LINE
8
Polygon
10
75.50097606953126
20
-26.439594749941868
11
75.54151855227164
21
-26.45810284909091
0
LINE
8
Polygon
10
75.54151855227164
20
-26.45810284909091
11
75.5811961205515
21
-26.478398987055073
0
LINE
8
Polygon
10
75.5811961205515
20
-26.478398987055073
11
75.61992996509287
21
-26.5004428507797
0
LINE
8
Polygon
10
75.61992996509287
20
-26.5004428507797
11
75.65764315108203
21
-26.52419065580268
0
LINE
8
Polygon
10
75.65764315108203
20
-26.52419065580268
11
75.6942607709809
21
-26.54959523322106
0
LINE
8
Polygon
10
75.6942607709809
20
-26.54959523322106
11
75.7297100933114
21
-26.576606123379886
0
LINE
8
Polygon
10
75.7297100933114
20
-26.576606123379886
11
75.76392070711793
21
-26.60516967609736
0
LINE
8
Polygon
10
75.76392070711793
20
-26.60516967609736
11
75.79682466182058
21
-26.635229157227116
0
LINE
8
Polygon
10
75.79682466182058
20
-26.635229157227116
11
75.82835660218147
21
-26.666724861345948
0
LINE
8
Polygon
10
75.82835660218147
20
-26.666724861345948
11
75.85845389811611
21
-26.699594230343347
0
LINE
8
Polygon
10
75.85845389811611
20
-26.699594230343347
11
75.88705676909193
21
-26.733771977677023
0
LINE
8
Polygon
10
75.88705676909193
20
-26.733771977677023
11
75.91410840286693
21
-26.76919021804786
0
LINE
8
Polygon
10
75.91410840286693
20
-26.76919021804786
11
75.93955506833264
21
-26.80577860223657
0
LINE
8
Polygon
10
75.93955506833264
20
-26.80577860223657
11
75.96334622223702
21
-26.843464456834308
0
LINE
8
Polygon
10
75.96334622223702
20
-26.843464456834308
11
75.9854346095757
21
-26.882172928589725
0
LINE
8
Polygon
10
75.9854346095757
20
-26.882172928589725
11
76.00577635745192
21
-26.921827133085653
0
LINE
8
Polygon
10
76.00577635745192
20
-26.921827133085653
11
76.02433106221862
21
-26.962348307450227
0
LINE
8
Polygon
10
76.02433106221862
20
-26.962348307450227
11
76.04106186973002
21
-27.003655966799073
0
LINE
8
Polygon
10
76.04106186973002
20
-27.003655966799073
11
76.05593554854282
21
-27.0456680640978
0
LINE
8
Polygon
10
76.05593554854282
20
-27.0456680640978
11
76.06892255592193
21
-27.088301153127315
0
LINE
8
Polygon
10
76.06892255592193
20
-27.088301153127315
11
76.07999709651953
21
-27.131470554228283
0
LINE
8
Polygon
10
76.07999709651953
20
-27.131470554228283
11
76.08913717361085
21
-27.17509052249545
0
LINE
8
Polygon
10
76.08913717361085
20
-27.17509052249545
11
76.09632463278504
21
-27.219074418087853
0
LINE
8
Polygon
10
76.09632463278504
20
-27.219074418087853
11
76.10154519800419
21
-27.263334878316552
0
LINE
8
Polygon
10
76.10154519800419
20
-27.263334878316552
11
76.10478849995907
21
-27.307783991168144
0
LINE
8
Polygon
10
76.10478849995907
20
-27.307783991168144
11
76.10604809666502
21
-27.352333469919326
0
LINE
8
Polygon
10
76.10604809666502
20
-27.352333469919326
11
76.10532148625737
21
-27.396894828495782
0
LINE
8
Polygon
10
76.10532148625737
20
-27.396894828495782
11
76.10261011196069
21
-27.44137955722697
0
LINE
8
Polygon
10
76.10261011196069
20
-27.44137955722697
11
76.09791935922222
21
-27.485699298647816
0
LINE
8
Polygon
10
76.09791935922222
20
-27.485699298647816
11
76.09125854501507
21
-27.52976602299807
0
LINE
8
Polygon
10
76.09125854501507
20
-27.52976602299807
11
76.08264089933245
21
-27.5734922030708
0
LINE
8
Polygon
10
76.08264089933245
20
-27.5734922030708
11
76.07208353890965
21
-27.61679098806261
0
LINE
8
Polygon
10
76.07208353890965
20
-27.61679098806261
11
76.05960743322615
21
-27.659576376080462
0
LINE
8
Polygon
10
76.05960743322615
20
-27.659576376080462
11
76.04523736285503
21
-27.701763384962263
0
LINE
8
Polygon
10
76.04523736285503
20
-27.701763384962263
11
76.02900187024282
21
-27.743268221072082
0
LINE
8
Polygon
10
76.02900187024282
20
-27.743268221072082
11
76.01093320301726
21
-27.78400844573464
0
LINE
8
Polygon
10
76.01093320301726
20
-27.78400844573464
11
75.99106724993563
21
-27.8239031389785
0
LINE
8
Polygon
10
75.99106724993563
20
-27.8239031389785
11
75.96944346960103
21
-27.862873060262817
0
LINE
8
Polygon
10
75.96944346960103
20
-27.862873060262817
11
75.94610481208807
21
-27.90084080586821
0
LINE
8
Polygon
10
75.94610481208807
20
-27.90084080586821
11
75.92109763363342
21
-27.937730962639385
0
LINE
8
Polygon
10
75.92109763363342
20
-27.937730962639385
11
75.8944716045613
21
-27.973470257773936
0
LINE
8
Polygon
10
75.8944716045613
20
-27.97347025777394
11
75.85311613471013
21
-28.026781255033384
0
LINE
8
Polygon
10
75.85311613471013
20
-28.026781255033384
11
75.81206106294229
21
-28.080323933314776
0
LINE
8
Polygon
10
75.81206106294229
20
-28.080323933314776
11
75.7713076871504
21
-28.134096599949142
0
LINE
8
Polygon
10
75.7713076871504
20
-28.13409659994914
11
75.73085729568938
21
-28.188097554996776
0
LINE
8
Polygon
10
75.73085729568938
20
-28.188097554996776
11
75.6907111673358
21
-28.24232509130101
0
LINE
8
Polygon
10
75.6907111673358
20
-28.24232509130101
11
75.65087057124747
21
-28.29677749454212
0
LINE
8
Polygon
10
75.65087057124747
20
-28.29677749454212
11
75.61133676692317
21
-28.351453043291595
0
LINE
8
Polygon
10
75.61133676692317
20
-28.351453043291595
11
75.57211100416305
21
-28.406350009066518
0
LINE
8
Polygon
10
75.57211100416305
20
-28.406350009066518
11
75.5331945230289
21
-28.4614666563842
0
LINE
8
Polygon
10
75.5331945230289
20
-28.4614666563842
11
75.49458855380507
21
-28.516801242817074
0
LINE
8
Polygon
10
75.49458855380507
20
-28.516801242817074
11
75.45629431695963
21
-28.572352019047763
0
LINE
8
Polygon
10
75.45629431695963
20
-28.57235201904776
11
75.41831302310563
21
-28.62811722892437
0
LINE
8
Polygon
10
75.41831302310563
20
-28.62811722892437
11
75.38064587296293
21
-28.68409510951604
0
LINE
8
Polygon
10
75.38064587296293
20
-28.68409510951604
11
75.34329405732024
21
-28.740283891168627
0
LINE
8
Polygon
10
75.34329405732024
20
-28.740283891168627
11
75.30625875699747
21
-28.796681797560698
0
LINE
8
Polygon
10
75.30625875699747
20
-28.796681797560698
11
75.26954114280834
21
-28.853287045759657
0
LINE
8
Polygon
10
75.26954114280834
20
-28.85328704575965
11
75.23314237552346
21
-28.910097846278116
0
LINE
8
Polygon
10
75.23314237552346
20
-28.910097846278116
11
75.19706360583356
21
-28.967112403130468
0
LINE
8
Polygon
10
75.19706360583356
20
-28.967112403130468
11
75.16130597431315
21
-29.024328913889676
0
LINE
8
Polygon
10
75.16130597431315
20
-29.024328913889676
11
75.12587061138446
21
-29.081745569744218
0
LINE
8
Polygon
10
75.12587061138446
20
-29.08174556974421
11
75.0907586372817
21
-29.139360555555317
0
LINE
8
Polygon
10
75.0907586372817
20
-29.139360555555317
11
75.05597116201561
21
-29.1971720499143
0
LINE
8
Polygon
10
75.05597116201561
20
-29.1971720499143
11
75.02150928533844
21
-29.25517822520017
0
LINE
8
Polygon
10
75.02150928533844
20
-29.25517822520017
11
74.98737409670912
21
-29.31337724763739
0
LINE
8
Polygon
10
74.98737409670912
20
-29.31337724763739
11
74.95356667525887
21
-29.37176727735388
0
LINE
8
Polygon
10
74.95356667525887
20
-29.37176727735387
11
74.92008808975702
21
-29.430346468439122
0
LINE
8
Polygon
10
74.92008808975702
20
-29.430346468439122
11
74.88693939857728
21
-29.4891129690026
0
LINE
8
Polygon
10
74.88693939857728
20
-29.4891129690026
11
74.85412164966426
21
-29.548064921232275
0
LINE
8
Polygon
10
74.85412164966426
20
-29.548064921232275
11
74.82163588050035
21
-29.60720046145334
0
LINE
8
Polygon
10
74.82163588050035
20
-29.60720046145333
11
74.78948311807291
21
-29.66651772018712
0
LINE
8
Polygon
10
74.78948311807291
20
-29.66651772018712
11
74.75766437884178
21
-29.726014822210235
0
LINE
8
Polygon
10
74.75766437884178
20
-29.726014822210235
11
74.72618066870722
21
-29.785689886613802
0
LINE
8
Polygon
10
74.72618066870722
20
-29.785689886613802
11
74.69503298297802
21
-29.845541026862943
0
LINE
8
Polygon
10
74.69503298297802
20
-29.845541026862943
11
74.66422230634011
21
-29.90556635085641
0
LINE
8
Polygon
10
74.66422230634011
20
-29.90556635085641
11
74.63374961282538
21
-29.96576396098642
0
LINE
8
Polygon
10
74.63374961282538
20
-29.96576396098642
11
74.60361586578091
21
-30.02613195419861
0
LINE
8
Polygon
10
74.60361586578091
20
-30.02613195419861
11
74.57382201783852
21
-30.086668422052238
0
LINE
8
Polygon
10
74.57382201783852
20
-30.086668422052238
11
74.54436901088464
21
-30.147371450780476
0
LINE
8
Polygon
10
74.54436901088464
20
-30.14737145078047
11
74.51525777603052
21
-30.208239121350942
0
LINE
8
Polygon
10
74.51525777603052
20
-30.208239121350942
11
74.48648923358284
21
-30.269269509526374
0
LINE
8
Polygon
10
74.48648923358284
20
-30.269269509526374
11
74.4580642930146
21
-30.33046068592542
0
LINE
8
Polygon
10
74.4580642930146
20
-30.33046068592542
11
74.42998385293632
21
-30.39181071608366
0
LINE
8
Polygon
10
74.42998385293632
20
-30.391810716083654
11
74.4022488010677
21
-30.453317660514767
0
LINE
8
Polygon
10
74.4022488010677
20
-30.453317660514767
11
74.3748600142095
21
-30.514979574771818
0
LINE
8
Polygon
10
74.3748600142095
20
-30.514979574771818
11
74.34781835821586
21
-30.576794509508737
0
LINE
8
Polygon
10
74.34781835821586
20
-30.576794509508737
11
74.32112468796694
21
-30.638760510541957
0
LINE
8
Polygon
10
74.32112468796694
20
-30.63876051054195
11
74.29477984734183
21
-30.70087561891218
0
LINE
8
Polygon
10
74.29477984734183
20
-30.70087561891218
11
74.26878466919193
21
-30.76313787094631
0
LINE
8
Polygon
10
74.26878466919193
20
-30.76313787094631
11
74.20327664612032
21
-30.924593757243958
0
LINE
8
Polygon
10
74.20327664612032
20
-30.924593757243958
11
74.14011979566295
21
-31.08698377093696
0
LINE
8
Polygon
10
74.14011979566295
20
-31.08698377093696
11
74.07932743308403
21
-31.250273675581987
0
LINE
8
Polygon
10
74.07932743308403
20
-31.25027367558198
11
74.02091237514628
21
-31.41442904501301
0
LINE
8
Polygon
10
74.02091237514628
20
-31.41442904501301
11
73.96488693740886
21
-31.57941527059939
0
LINE
8
Polygon
10
73.96488693740886
20
-31.57941527059939
11
73.9112629316309
21
-31.745197568542316
0
LINE
8
Polygon
10
73.9112629316309
20
-31.745197568542316
11
73.86005166328124
21
-31.91174098720822
0
LINE
8
Polygon
10
73.86005166328124
20
-31.91174098720822
11
73.81126392915485
21
-32.07901041449761
0
LINE
8
Polygon
10
73.81126392915485
20
-32.07901041449761
11
73.76491001509665
21
-32.24697058524769
0
LINE
8
Polygon
10
73.76491001509665
20
-32.24697058524768
11
73.7209996938329
21
-32.41558608866721
0
LINE
8
Polygon
10
73.7209996938329
20
-32.41558608866721
11
73.67954222291084
21
-32.584821375802186
0
LINE
8
Polygon
10
73.67954222291084
20
-32.584821375802186
11
73.64054634274702
21
-32.75464076703051
0
LINE
8
Polygon
10
73.64054634274702
20
-32.75464076703051
11
73.6040202747844
21
-32.92500845958429
0
LINE
8
Polygon
10
73.6040202747844
20
-32.92500845958429
11
73.56997171975921
21
-33.0958885350981
0
LINE
8
Polygon
10
73.56997171975921
20
-33.0958885350981
11
73.53840785607728
21
-33.26724496718156
0
LINE
8
Polygon
10
73.53840785607728
20
-33.26724496718156
11
73.50933533830072
21
-33.439041629014795
0
LINE
8
Polygon
10
73.50933533830072
20
-33.439041629014795
11
73.48276029574491
21
-33.611242300964896
0
LINE
8
Polygon
10
73.48276029574491
20
-33.611242300964896
11
73.45868833118625
21
-33.78381067822213
0
LINE
8
Polygon
10
73.45868833118625
20
-33.78381067822213
11
73.43712451968099
21
-33.95671037845401
0
LINE
8
Polygon
10
73.43712451968099
20
-33.95671037845401
11
73.41807340749521
21
-34.12990494947572
0
LINE
8
Polygon
10
73.41807340749521
20
-34.129904949475716
11
73.40153901114634
21
-34.303357876935266
0
LINE
8
Polygon
10
73.40153901114634
20
-34.303357876935266
11
73.38752481655642
21
-34.47703259201177
0
LINE
8
Polygon
10
73.38752481655642
20
-34.47703259201177
11
73.37603377831707
21
-34.65089247912519
0
LINE
8
Polygon
10
73.37603377831707
20
-34.65089247912519
11
73.3670683190667
21
-34.82490088365594
0
LINE
8
Polygon
10
73.3670683190667
20
-34.82490088365594
11
73.36063032897964
21
-34.99902111967275
0
LINE
8
Polygon
10
73.36063032897964
20
-34.99902111967275
11
73.3567211653677
21
-35.173216477667054
0
LINE
8
Polygon
10
73.3567211653677
20
-35.173216477667054
11
73.35534165239399
21
-35.34745023229245
0
LINE
8
Polygon
10
73.35534165239399
20
-35.34745023229245
11
73.35649208089916
21
-35.521685650107436
0
LINE
8
Polygon
10
73.35649208089916
20
-35.521685650107436
11
73.3601722083401
21
-35.69588599731986
0
LINE
8
Polygon
10
73.3601722083401
20
-35.69588599731986
11
73.36638125884105
21
-35.87001454753144
0
LINE
8
Polygon
10
73.36638125884105
20
-35.87001454753143
11
73.37511792335718
21
-36.044034589480745
0
LINE
8
Polygon
10
73.37511792335718
20
-36.044034589480745
11
73.38638035995062
21
-36.21790943478301
0
LINE
8
Polygon
10
73.38638035995062
20
-36.21790943478301
11
73.40016619417872
21
-36.39160242566504
0
LINE
8
Polygon
10
73.40016619417872
20
-36.39160242566504
11
73.4164725195947
21
-36.565076942693736
0
LINE
8
Polygon
10
73.4164725195947
20
-36.565076942693736
11
73.4352958983604
21
-36.7382964124965
0
LINE
8
Polygon
10
73.4352958983604
20
-36.738296412496496
11
73.45663236197106
21
-36.91122431547198
0
LINE
8
Polygon
10
73.45663236197106
20
-36.91122431547198
11
73.48047741209203
21
-37.083824193489434
0
LINE
8
Polygon
10
73.48047741209203
20
-37.083824193489434
11
73.5068260215071
21
-37.256059657575086
0
LINE
8
Polygon
10
73.5068260215071
20
-37.256059657575086
11
73.53567263517841
21
-37.42789439558404
0
LINE
8
Polygon
10
73.53567263517841
20
-37.42789439558404
11
73.56701117141765
21
-37.59929217985587
0
LINE
8
Polygon
10
73.56701117141765
20
-37.59929217985587
11
73.60083502316809
21
-37.77021687485245
0
LINE
8
Polygon
10
73.60083502316809
20
-37.770216874852444
11
73.63713705939779
21
-37.94063244477635
0
LINE
8
Polygon
10
73.63713705939779
20
-37.94063244477635
11
73.67590962660279
21
-38.110502961168216
0
LINE
8
Polygon
10
73.67590962660279
20
-38.110502961168216
11
73.71714455042085
21
-38.279792610481536
0
LINE
8
Polygon
10
73.71714455042085
20
-38.279792610481536
11
73.76083313735474
21
-38.448465701633125
0
LINE
8
Polygon
10
73.76083313735474
20
-38.44846570163312
11
73.8069661766051
21
-38.616486673527795
0
LINE
8
Polygon
10
73.8069661766051
20
-38.616486673527795
11
73.85553394201239
21
-38.783820102555744
0
LINE
8
Polygon
10
73.85553394201239
20
-38.783820102555744
11
73.90652619410736
21
-38.95043071006077
0
LINE
8
Polygon
10
73.90652619410737
20
-38.95043071006077
11
73.91892732899362
21
-38.9932378881317
0
LINE
8
Polygon
10
73.91892732899362
20
-38.9932378881317
11
73.92940882219196
21
-39.03655510112143
0
LINE
8
Polygon
10
73.92940882219196
20
-39.03655510112143
11
73.93794985491364
21
-39.080296310534415
0
LINE
8
Polygon
10
73.93794985491364
20
-39.080296310534415
11
73.94453346259529
21
-39.12437463571538
0
LINE
8
Polygon
10
73.94453346259529
20
-39.12437463571538
11
73.94914656859459
21
-39.16870252641528
0
LINE
8
Polygon
10
73.94914656859459
20
-39.16870252641528
11
73.95178001016369
21
-39.21319193668746
0
LINE
8
Polygon
10
73.95178001016369
20
-39.21319193668746
11
73.95242855664867
21
-39.257754499768154
0
LINE
8
Polygon
10
73.95242855664867
20
-39.257754499768154
11
73.95109091987884
21
-39.30230170359438
0
LINE
8
Polygon
10
73.95109091987884
20
-39.30230170359438
11
73.94776975672539
21
-39.34674506661039
0
LINE
8
Polygon
10
73.94776975672539
20
-39.34674506661039
11
73.9424716638242
21
-39.39099631351343
0
LINE
8
Polygon
10
73.9424716638242
20
-39.39099631351343
11
73.93520716447328
21
-39.43496755059001
0
LINE
8
Polygon
10
73.93520716447328
20
-39.43496755059
11
73.92599068773103
21
-39.47857144029406
0
LINE
8
Polygon
10
73.92599068773103
20
-39.47857144029406
11
73.91484053975655
21
-39.52172137472056
0
LINE
8
Polygon
10
73.91484053975655
20
-39.52172137472056
11
73.9017788674492
21
-39.5643316476298
0
LINE
8
Polygon
10
73.9017788674492
20
-39.5643316476298
11
73.88683161445947
21
-39.60631762468077
0
LINE
8
Polygon
10
73.88683161445947
20
-39.60631762468077
11
73.87002846965862
21
-39.64759591153555
0
LINE
8
Polygon
10
73.87002846965862
20
-39.64759591153555
11
73.85140280816935
21
-39.68808451950064
0
LINE
8
Polygon
10
73.85140280816935
20
-39.68808451950064
11
73.83099162507473
21
-39.72770302837644
0
LINE
8
Polygon
10
73.83099162507473
20
-39.72770302837644
11
73.80883546193695
21
-39.766372746191244
0
LINE
8
Polygon
10
73.80883546193695
20
-39.766372746191244
11
73.78497832627203
21
-39.80401686550262
0
LINE
8
Polygon
10
73.78497832627203
20
-39.80401686550262
11
73.75946760414008
21
-39.84056061595561
0
LINE
8
Polygon
10
73.75946760414008
20
-39.84056061595561
11
73.73235396602522
21
-39.87593141279482
0
LINE
8
Polygon
10
73.73235396602522
20
-39.87593141279482
11
73.70369126619161
21
-39.910059001035314
0
LINE
8
Polygon
10
73.70369126619161
20
-39.910059001035314
11
73.67353643571589
21
-39.94287559500611
0
LINE
8
Polygon
10
73.67353643571589
20
-39.94287559500611
11
73.64194936940814
21
-39.974316012988915
0
LINE
8
Polygon
10
73.64194936940814
20
-39.974316012988915
11
73.60899280684639
21
-40.00431780668491
0
LINE
8
Polygon
10
73.60899280684639
20
-40.00431780668491
11
73.57473220776048
21
-40.032821385252134
0
LINE
8
Polygon
10
73.57473220776048
20
-40.032821385252134
11
73.5392356220132
21
-40.059770133667435
0
LINE
8
Polygon
10
73.5392356220132
20
-40.059770133667435
11
73.50257355443681
21
-40.08511052517758
0
LINE
8
Polygon
10
73.50257355443681
20
-40.08511052517758
11
73.4648188247932
21
-40.108792227616426
0
LINE
8
Polygon
10
73.4648188247932
20
-40.108792227616426
11
73.4260464231363
21
-40.13076820337677
0
LINE
8
Polygon
10
73.4260464231363
20
-40.13076820337677
11
73.38633336086355
21
-40.15099480283849
0
LINE
8
Polygon
10
73.38633336086355
20
-40.15099480283849
11
73.34575851775264
21
-40.16943185106726
0
LINE
8
Polygon
10
73.34575851775264
20
-40.16943185106726
11
73.30440248528713
21
-40.1860427276117
0
LINE
8
Polygon
10
73.30440248528713
20
-40.1860427276117
11
73.26234740658212
21
-40.200794439240525
0
LINE
8
Polygon
10
73.26234740658212
20
-40.200794439240525
11
73.21967681322823
21
-40.21365768547508
0
LINE
8
Polygon
10
73.21967681322823
20
-40.21365768547508
11
73.17647545937747
21
-40.224606916787174
0
LINE
8
Polygon
10
73.17647545937747
20
-40.224606916787174
11
73.13282915340102
21
-40.23362038534671
0
LINE
8
Polygon
10
73.13282915340102
20
-40.23362038534671
11
73.08882458745292
21
-40.240680188218086
0
LINE
8
Polygon
10
73.08882458745292
20
-40.240680188218086
11
73.04454916527844
21
-40.245772302919804
0
LINE
8
Polygon
10
73.04454916527844
20
-40.245772302919804
11
73.00009082860905
21
-40.248886615276504
0
LINE
8
Polygon
10
73.00009082860905
20
-40.248886615276504
11
72.95553788248878
21
-40.250016939508185
0
LINE
8
Polygon
10
72.95553788248878
20
-40.250016939508185
11
72.910978819879
21
-40.249161030516674
0
LINE
8
Polygon
10
72.910978819879
20
-40.249161030516674
11
72.8665021458899
21
-40.2463205883449
0
LINE
8
Polygon
10
72.8665021458899
20
-40.2463205883449
11
72.8221962019879
21
-40.24150125480023
0
LINE
8
Polygon
10
72.8221962019879
20
-40.24150125480023
11
72.77814899052795
21
-40.23471260224843
0
LINE
8
Polygon
10
72.77814899052795
20
-40.23471260224843
11
72.73444799995976
21
-40.22596811460069
0
LINE
8
Polygon
10
72.73444799995976
20
-40.22596811460069
11
72.69118003105419
21
-40.215285160531245
0
LINE
8
Polygon
10
72.69118003105419
20
-40.215285160531245
11
72.19431964692103
21
-40.10757191741226
0
LINE
8
Polygon
10
72.19431964692103
20
-40.10757191741226
11
71.68908959886338
21
-40.05087110080624
0
LINE
8
Polygon
10
71.68908959886338
20
-40.05087110080624
11
71.18071340748206
21
-40.04576893452308
0
LINE
8
Polygon
10
71.18071340748206
20
-40.04576893452308
11
70.67444712102463
21
-40.09231816932608
0
LINE
8
Polygon
10
70.67444712102463
20
-40.09231816932608
11
70.17552497365236
21
-40.19003753754742
0
LINE
8
Polygon
10
70.17552497365236
20
-40.19003753754742
11
69.68910526924098
21
-40.33791672886415
0
LINE
8
Polygon
10
69.68910526924098
20
-40.33791672886415
11
69.2202170502167
21
-40.53442683579095
0
LINE
8
Polygon
10
69.2202170502167
20
-40.53442683579095
11
68.77370810281276
21
-40.77753616089463
0
LINE
8
Polygon
10
68.77370810281276
20
-40.77753616089463
11
68.3541948363148
21
-41.06473122230126
0
LINE
8
Polygon
10
68.3541948363148
20
-41.06473122230126
11
67.96601455448837
21
-41.39304274032232
0
LINE
8
Polygon
10
67.96601455448837
20
-41.39304274032232
11
67.61318061264907
21
-41.75907633652667
0
LINE
8
Polygon
10
67.61318061264907
20
-41.75907633652667
11
67.29934092400195
21
-42.15904762786396
0
LINE
8
Polygon
10
67.29934092400195
20
-42.15904762786396
11
67.02774024424855
21
-42.588821353005024
0
LINE
8
Polygon
10
67.02774024424855
20
-42.588821353005024
11
66.80118662439723
21
-43.04395412637606
0
LINE
8
Polygon
10
66.80118662439723
20
-43.04395412637606
11
66.62202237861766
21
-43.5197403778571
0
LINE
8
Polygon
10
66.62202237861766
20
-43.5197403778571
11
66.49209986729966
21
-44.011261003179136
0
LINE
8
Polygon
10
66.49209986729966
20
-44.011261003179136
11
66.41276234569298
21
-44.51343422202842
0
LINE
8
Polygon
10
66.41276234569298
20
-44.51343422202842
11
66.38483007613185
21
-45.02106811804139
0
LINE
8
Polygon
10
66.38483007613185
20
-45.02106811804139
11
66.4085918474285
21
-45.52891431748468
0
LINE
8
Polygon
10
66.4085918474285
20
-45.52891431748468
11
66.48380198911586
21
-46.03172225164195
0
LINE
8
Polygon
10
66.48380198911586
20
-46.03172225164195
11
66.60968291140883
21
-46.52429344189451
0
LINE
8
Polygon
10
66.60968291140883
20
-46.52429344189451
11
66.78493314462366
21
-47.00153524624769
0
LINE
8
Polygon
10
66.78493314462366
20
-47.00153524624769
11
67.0077407949369
21
-47.45851351162367
0
LINE
8
Polygon
10
67.0077407949369
20
-47.45851351162367
11
67.27580227736595
21
-47.89050358755375
0
LINE
8
Polygon
10
67.27580227736595
20
-47.89050358755375
11
67.5863461322933
21
-48.29303917384522
0
LINE
8
Polygon
10
67.5863461322933
20
-48.29303917384522
11
67.9361616792973
21
-48.661958497191705
0
LINE
8
Polygon
10
67.9361616792973
20
-48.661958497191705
11
68.32163221204132
21
-48.9934473393119
0
LINE
8
Polygon
10
68.32163221204132
20
-48.9934473393119
11
68.73877239102195
21
-49.284078471753254
0
LINE
8
Polygon
10
68.73877239102195
20
-49.284078471753254
11
69.1832694475772
21
-49.53084708964837
0
LINE
8
Polygon
10
69.1832694475772
20
-49.53084708964837
11
69.65052777315037
21
-49.73120187807805
0
LINE
8
Polygon
10
69.65052777315037
20
-49.73120187807805
11
70.13571643280606
21
-49.88307138984934
0
LINE
8
Polygon
10
70.13571643280606
20
-49.88307138984934
11
70.63381911176101
21
-49.984885461971274
0
LINE
8
Polygon
10
70.63381911176101
20
-49.984885461971274
11
71.13968597853767
21
-50.035591449405736
0
LINE
8
Polygon
10
71.13968597853767
20
-50.035591449405736
11
71.64808692853306
21
-50.034665108254394
0
LINE
8
Polygon
10
71.64808692853306
20
-50.034665108254394
11
72.15376565752295
21
-49.98211601586148
0
LINE
8
Polygon
10
72.15376565752295
20
-49.98211601586148
11
72.65149400604122
21
-49.87848747179464
0
LINE
8
Polygon
10
72.65149400604122
20
-49.87848747179464
11
73.13612601277357
21
-49.724850880727566
0
LINE
8
Polygon
10
73.13612601277357
20
-49.724850880727566
11
73.60265111811306
21
-49.522794675299146
0
LINE
8
Polygon
10
73.60265111811306
20
-49.522794675299146
11
74.04624596781154
21
-49.27440789347467
0
LINE
8
Polygon
10
74.04624596781154
20
-49.27440789347467
11
74.46232428113463
21
-48.98225858020086
0
LINE
8
Polygon
10
74.46232428113463
20
-48.98225858020086
11
74.84658426793824
21
-48.64936723665792
0
LINE
8
Polygon
10
74.84658426793824
20
-48.64936723665792
11
75.1950531044268
21
-48.27917559161382
0
LINE
8
Polygon
10
75.1950531044268
20
-48.27917559161382
11
75.50412800776272
21
-47.875511017750775
0
LINE
8
Polygon
10
75.50412800776272
20
-47.875511017750775
11
75.77061348486123
21
-47.44254696085953
0
LINE
8
Polygon
10
75.77061348486123
20
-47.44254696085953
11
75.99175437025895
21
-46.98475979102004
0
LINE
8
Polygon
10
75.99175437025895
20
-46.98475979102004
11
76.16526431148138
21
-46.50688252187959
0
LINE
8
Polygon
10
76.16526431148138
20
-46.50688252187959
11
76.28934940740186
21
-46.01385587651998
0
LINE
8
Polygon
10
76.28934940740186
20
-46.01385587651998
11
76.3627267551976
21
-45.51077720583854
0
LINE
8
Polygon
10
76.36272675519758
20
-45.51077720583854
11
76.36789642398885
21
-45.46651077199242
0
LINE
8
Polygon
10
76.36789642398885
20
-45.46651077199242
11
76.37503330344326
21
-45.42251864096292
0
LINE
8
Polygon
10
76.37503330344326
20
-45.42251864096292
11
76.38412321798653
21
-45.378888191796534
0
LINE
8
Polygon
10
76.38412321798653
20
-45.378888191796534
11
76.39514811284278
21
-45.33570608515185
0
LINE
8
Polygon
10
76.39514811284278
20
-45.33570608515185
11
76.4080860898957
21
-45.29305809117041
0
LINE
8
Polygon
10
76.4080860898957
20
-45.29305809117041
11
76.42291145118365
21
-45.25102891911639
0
LINE
8
Polygon
10
76.42291145118365
20
-45.25102891911639
11
76.43959474994185
21
-45.20970204912351
0
LINE
8
Polygon
10
76.43959474994185
20
-45.20970204912351
11
76.45810284909088
21
-45.16915956638313
0
LINE
8
Polygon
10
76.45810284909088
20
-45.16915956638314
11
76.47839898705506
21
-45.12948199810327
0
LINE
8
Polygon
10
76.47839898705506
20
-45.12948199810327
11
76.50044285077968
21
-45.09074815356191
0
LINE
8
Polygon
10
76.50044285077968
20
-45.09074815356191
11
76.52419065580266
21
-45.053034967572735
0
LINE
8
Polygon
10
76.52419065580266
20
-45.053034967572735
11
76.54959523322104
21
-45.01641734767387
0
LINE
8
Polygon
10
76.54959523322104
20
-45.01641734767387
11
76.57660612337985
21
-44.98096802534337
0
LINE
8
Polygon
10
76.57660612337985
20
-44.98096802534337
11
76.60516967609735
21
-44.94675741153684
0
LINE
8
Polygon
10
76.60516967609735
20
-44.94675741153684
11
76.63522915722709
21
-44.91385345683418
0
LINE
8
Polygon
10
76.63522915722709
20
-44.91385345683418
11
76.66672486134593
21
-44.8823215164733
0
LINE
8
Polygon
10
76.66672486134593
20
-44.8823215164733
11
76.69959423034331
21
-44.852224220538666
0
LINE
8
Polygon
10
76.69959423034331
20
-44.852224220538666
11
76.733771977677
21
-44.82362134956285
0
LINE
8
Polygon
10
76.733771977677
20
-44.82362134956285
11
76.76919021804784
21
-44.79656971578784
0
LINE
8
Polygon
10
76.76919021804784
20
-44.79656971578784
11
76.80577860223654
21
-44.77112305032213
0
LINE
8
Polygon
10
76.80577860223654
20
-44.77112305032213
11
76.84346445683428
21
-44.747331896417755
0
LINE
8
Polygon
10
76.84346445683428
20
-44.747331896417755
11
76.8821729285897
21
-44.72524350907906
0
LINE
8
Polygon
10
76.8821729285897
20
-44.72524350907906
11
76.92182713308561
21
-44.70490176120285
0
LINE
8
Polygon
10
76.92182713308561
20
-44.70490176120285
11
76.9623483074502
21
-44.68634705643615
0
LINE
8
Polygon
10
76.9623483074502
20
-44.68634705643615
11
77.00365596679904
21
-44.66961624892475
0
LINE
8
Polygon
10
77.00365596679904
20
-44.66961624892475
11
77.04566806409777
21
-44.65474257011195
0
LINE
8
Polygon
10
77.04566806409777
20
-44.65474257011195
11
77.08830115312729
21
-44.64175556273283
0
LINE
8
Polygon
10
77.08830115312729
20
-44.64175556273283
11
77.13147055422826
21
-44.630681022135235
0
LINE
8
Polygon
10
77.13147055422826
20
-44.630681022135235
11
77.17509052249542
21
-44.62154094504391
0
LINE
8
Polygon
10
77.17509052249542
20
-44.62154094504391
11
77.21907441808783
21
-44.61435348586973
0
LINE
8
Polygon
10
77.21907441808781
20
-44.61435348586973
11
77.26333487831653
21
-44.60913292065058
0
LINE
8
Polygon
10
77.26333487831653
20
-44.60913292065058
11
77.30778399116811
21
-44.605889618695706
0
LINE
8
Polygon
10
77.30778399116811
20
-44.605889618695706
11
77.3523334699193
21
-44.60463002198975
0
LINE
8
Polygon
10
77.3523334699193
20
-44.60463002198975
11
77.39689482849576
21
-44.605356632397395
0
LINE
8
Polygon
10
77.39689482849576
20
-44.605356632397395
11
77.44137955722694
21
-44.60806800669408
0
LINE
8
Polygon
10
77.44137955722694
20
-44.60806800669408
11
77.48569929864779
21
-44.612758759432545
0
LINE
8
Polygon
10
77.48569929864779
20
-44.612758759432545
11
77.52976602299805
21
-44.619419573639696
0
LINE
8
Polygon
10
77.52976602299805
20
-44.619419573639696
11
77.57349220307077
21
-44.62803721932232
0
LINE
8
Polygon
10
77.57349220307077
20
-44.62803721932232
11
77.61679098806259
21
-44.63859457974511
0
LINE
8
Polygon
10
77.61679098806259
20
-44.63859457974511
11
77.65957637608044
21
-44.651070685428614
0
LINE
8
Polygon
10
77.65957637608044
20
-44.651070685428614
11
77.70176338496225
21
-44.66544075579973
0
LINE
8
Polygon
10
77.70176338496223
20
-44.66544075579973
11
77.74326822107206
21
-44.68167624841193
0
LINE
8
Polygon
10
77.74326822107206
20
-44.68167624841193
11
77.78400844573461
21
-44.69974491563751
0
LINE
8
Polygon
10
77.78400844573461
20
-44.69974491563751
11
77.82390313897848
21
-44.719610868719144
0
LINE
8
Polygon
10
77.82390313897848
20
-44.719610868719144
11
77.8628730602628
21
-44.74123464905373
0
LINE
8
Polygon
10
77.8628730602628
20
-44.74123464905373
11
77.90084080586819
21
-44.7645733065667
0
LINE
8
Polygon
10
77.90084080586819
20
-44.7645733065667
11
77.93773096263936
21
-44.78958048502134
0
LINE
8
Polygon
10
77.93773096263936
20
-44.78958048502133
11
77.97347025777391
21
-44.81620651409346
0
LINE
8
Polygon
10
77.97347025777391
20
-44.81620651409346
11
78.11161596881747
21
-44.922390631677864
0
LINE
8
Polygon
10
78.11161596881747
20
-44.922390631677864
11
78.25128886315005
21
-45.02655774210946
0
LINE
8
Polygon
10
78.25128886315005
20
-45.02655774210946
11
78.39245949374455
21
-45.12868588399239
0
LINE
8
Polygon
10
78.39245949374455
20
-45.12868588399238
11
78.5350980978084
21
-45.228753525803455
0
LINE
8
Polygon
10
78.5350980978084
20
-45.228753525803455
11
78.67917460305833
21
-45.32673957043163
0
LINE
8
Polygon
10
78.67917460305833
20
-45.32673957043163
11
78.82465863406055
21
-45.4226233596259
0
LINE
8
Polygon
10
78.82465863406055
20
-45.4226233596259
11
78.97151951863475
21
-45.51638467835061
0
LINE
8
Polygon
10
78.97151951863475
20
-45.51638467835061
11
79.11972629432057
21
-45.60800375904738
0
LINE
8
Polygon
10
79.11972629432057
20
-45.60800375904737
11
79.2692477149055
21
-45.697461285802646
0
LINE
8
Polygon
10
79.2692477149055
20
-45.697461285802646
11
79.42005225701243
21
-45.78473839842004
0
LINE
8
Polygon
10
79.42005225701243
20
-45.78473839842004
11
79.5721081267456
21
-45.86981669639665
0
LINE
8
Polygon
10
79.5721081267456
20
-45.86981669639665
11
79.72538326639378
21
-45.95267824280234
0
LINE
8
Polygon
10
79.72538326639378
20
-45.95267824280234
11
79.87984536118884
21
-46.03330556806141
0
LINE
8
Polygon
10
79.87984536118884
20
-46.03330556806141
11
80.03546184611871
21
-46.11168167363562
0
LINE
8
Polygon
10
80.03546184611871
20
-46.11168167363562
11
80.19219991279296
21
-46.18779003560805
0
LINE
8
Polygon
10
80.19219991279296
20
-46.18779003560805
11
80.35002651635976
21
-46.26161460816675
0
LINE
8
Polygon
10
80.35002651635976
20
-46.26161460816675
11
80.50890838247271
21
-46.33313982698765
0
LINE
8
Polygon
10
80.50890838247271
20
-46.33313982698765
11
80.66881201430593
21
-46.40235061251601
0
LINE
8
Polygon
10
80.66881201430593
20
-46.40235061251601
11
80.82970369961626
21
-46.46923237314557
0
LINE
8
Polygon
10
80.82970369961626
20
-46.46923237314557
11
80.99154951785067
21
-46.53377100829495
0
LINE
8
Polygon
10
80.99154951785067
20
-46.53377100829495
11
81.15431534729773
21
-46.595952911380344
0
LINE
8
Polygon
10
81.15431534729773
20
-46.595952911380344
11
81.31796687228142
21
-46.655764972684274
0
LINE
8
Polygon
10
81.31796687228142
20
-46.655764972684274
11
81.48246959039582
21
-46.71319458211944
0
LINE
8
Polygon
10
81.48246959039582
20
-46.71319458211944
11
81.64778881977934
21
-46.76822963188732
0
LINE
8
Polygon
10
81.64778881977934
20
-46.76822963188732
11
81.81388970642641
21
-46.82085851903079
0
LINE
8
Polygon
10
81.81388970642641
20
-46.82085851903079
11
81.98073723153595
21
-46.87107014788043
0
LINE
8
Polygon
10
81.98073723153595
20
-46.87107014788043
11
82.14829621889412
21
-46.91885393239371
0
LINE
8
Polygon
10
82.14829621889412
20
-46.91885393239371
11
82.31653134229062
21
-46.96419979838693
0
LINE
8
Polygon
10
82.31653134229062
20
-46.96419979838693
11
82.48540713296636
21
-47.00709818565908
0
LINE
8
Polygon
10
82.48540713296636
20
-47.00709818565908
11
82.65488798709136
21
-47.047540050007434
0
LINE
8
Polygon
10
82.65488798709136
20
-47.047540050007434
11
82.824938173271
21
-47.08551686513431
0
LINE
8
Polygon
10
82.824938173271
20
-47.08551686513431
11
82.99552184007922
21
-47.12102062444465
0
LINE
8
Polygon
10
82.99552184007922
20
-47.12102062444465
11
83.16660302361709
21
-47.154043842734055
0
LINE
8
Polygon
10
83.16660302361709
20
-47.154043842734055
11
83.33814565509495
21
-47.184579557766895
0
LINE
8
Polygon
10
83.33814565509493
20
-47.184579557766895
11
83.5101135684367
21
-47.212621331744096
0
LINE
8
Polygon
10
83.5101135684367
20
-47.212621331744096
11
83.68247050790481
21
-47.23816325266045
0
LINE
8
Polygon
10
83.68247050790481
20
-47.23816325266045
11
83.85518013574386
21
-47.26119993555103
0
LINE
8
Polygon
10
83.85518013574386
20
-47.26119993555103
11
84.02820603984175
21
-47.2817265236265
0
LINE
8
Polygon
10
84.02820603984175
20
-47.2817265236265
11
84.20151174140625
21
-47.29973868929704
0
LINE
8
Polygon
10
84.20151174140625
20
-47.29973868929704
11
84.37506070265592
21
-47.315232635084726
0
LINE
8
Polygon
10
84.37506070265592
20
-47.315232635084726
11
84.54881633452318
21
-47.32820509442419
0
LINE
8
Polygon
10
84.54881633452318
20
-47.32820509442419
11
84.72274200436846
21
-47.33865333235126
0
LINE
8
Polygon
10
84.72274200436846
20
-47.33865333235126
11
84.89680104370329
21
-47.346575146079566
0
LINE
8
Polygon
10
84.89680104370329
20
-47.346575146079566
11
85.07095675592112
21
-47.351968865465004
0
LINE
8
Polygon
10
85.07095675592112
20
-47.351968865465004
11
85.24517242403401
21
-47.3548333533578
0
LINE
8
Polygon
10
85.24517242403401
20
-47.3548333533578
11
85.41941131841361
21
-47.35516800584224
0
LINE
8
Polygon
10
85.41941131841361
20
-47.35516800584224
11
85.59363670453479
21
-47.35297275236406
0
LINE
8
Polygon
10
85.59363670453479
20
-47.35297275236406
11
85.76781185072036
21
-47.34824805574526
0
LINE
8
Polygon
10
85.76781185072036
20
-47.34824805574526
11
84.94286626793436
21
-23.362430062909535
0
ENDSEC
0
EOF
