0
SECTION
2
ENTITIES
0
LINE
8
Polygon
10
-81.14956076566446
20
-86.93034229353222
11
-35.35533905932739
21
-85.35533905932738
0
LINE
8
Polygon
10
-35.35533905932739
20
-85.35533905932738
11
-20.710678118654748
21
-50.0
0
LINE
8
Polygon
10
-20.710678118654748
20
-50.0
11
-30.96210175944698
21
-25.250874012767227
0
LINE
8
Polygon
10
-30.96210175944698
20
-25.250874012767227
11
-81.84372948168361
21
-66.74694495655285
0
LINE
8
Polygon
10
-81.84372948168361
20
-66.74694495655285
11
-81.14956076566446
21
-86.93034229353222
0
LINE
8
Polygon
10
86.93034229353222
20
-81.14956076566446
11
6.92190251113744
21
-38.55421033977199
0
LINE
8
Polygon
10
6.92190251113744
20
-38.55421033977199
11
-20.710678118654748
21
-50.0
0
LINE
8
Polygon
10
-20.710678118654748
20
-50.0
11
-35.35533905932739
21
-85.35533905932738
0
LINE
8
Polygon
10
-35.35533905932739
20
-85.35533905932738
11
86.93034229353222
21
-81.14956076566446
0
LINE
8
Polygon
10
85.35533905932738
20
-35.35533905932739
11
50.0
21
-20.710678118654748
0
LINE
8
Polygon
10
50.0
20
-20.710678118654748
11
6.92190251113744
21
-38.55421033977199
0
LINE
8
Polygon
10
6.92190251113744
20
-38.55421033977199
11
86.93034229353222
21
-81.14956076566446
0
LINE
8
Polygon
10
86.93034229353222
20
-81.14956076566446
11
85.35533905932738
21
-35.35533905932739
0
LINE
8
Polygon
10
82.53789819770276
20
46.563547619573455
11
55.975053469409666
21
45.649970211816054
0
LINE
8
Polygon
10
55.975053469409666
20
45.649970211816054
11
30.962101759446973
21
25.25087401276722
0
LINE
8
Polygon
10
30.962101759446973
20
25.25087401276722
11
50.0
21
-20.710678118654748
0
LINE
8
Polygon
10
50.0
20
-20.710678118654748
11
85.35533905932738
21
-35.35533905932739
0
LINE
8
Polygon
10
85.35533905932738
20
-35.35533905932739
11
82.53789819770276
21
46.563547619573455
0
LINE
8
Polygon
10
81.84372948168361
20
66.74694495655285
11
55.975053469409666
21
45.649970211816054
0
LINE
8
Polygon
10
55.975053469409666
20
45.649970211816054
11
82.53789819770276
21
46.563547619573455
0
LINE
8
Polygon
10
82.53789819770276
20
46.563547619573455
11
81.84372948168361
21
66.74694495655285
0
LINE
8
Polygon
10
81.14956076566446
20
86.93034229353222
11
35.35533905932739
21
85.35533905932738
0
LINE
8
Polygon
10
35.35533905932739
20
85.35533905932738
11
20.710678118654748
21
50.0
0
LINE
8
Polygon
10
20.710678118654748
20
50.0
11
30.962101759446973
21
25.25087401276722
0
LINE
8
Polygon
10
30.962101759446973
20
25.25087401276722
11
81.84372948168361
21
66.74694495655285
0
LINE
8
Polygon
10
81.84372948168361
20
66.74694495655285
11
81.14956076566446
21
86.93034229353222
0
LINE
8
Polygon
10
-86.93034229353222
20
81.14956076566446
11
-6.921902511137448
21
38.55421033977199
0
LINE
8
Polygon
10
-6.921902511137448
20
38.55421033977199
11
20.710678118654748
21
50.0
0
LINE
8
Polygon
10
20.710678118654748
20
50.0
11
35.35533905932739
21
85.35533905932738
0
LINE
8
Polygon
10
35.35533905932739
20
85.35533905932738
11
-86.93034229353222
21
81.14956076566446
0
LINE
8
Polygon
10
-86.93034229353222
20
81.14956076566446
11
-85.35533905932738
21
35.35533905932739
0
LINE
8
Polygon
10
-85.35533905932738
20
35.35533905932739
11
-49.999999999999986
21
20.71067811865476
0
LINE
8
Polygon
10
-49.999999999999986
20
20.71067811865476
11
-6.921902511137448
21
38.55421033977199
0
LINE
8
Polygon
10
-6.921902511137448
20
38.55421033977199
11
-86.93034229353222
21
81.14956076566446
0
LINE
8
Polygon
10
-82.53789819770276
20
-46.563547619573455
11
-55.975053469409666
21
-45.649970211816054
0
LINE
8
Polygon
10
-55.975053469409666
20
-45.649970211816054
11
-30.96210175944698
21
-25.250874012767227
0
LINE
8
Polygon
10
-30.96210175944698
20
-25.250874012767227
11
-49.999999999999986
21
20.71067811865476
0
LINE
8
Polygon
10
-49.999999999999986
20
20.71067811865476
11
-85.35533905932738
21
35.35533905932739
0
LINE
8
Polygon
10
-85.35533905932738
20
35.35533905932739
11
-82.53789819770276
21
-46.563547619573455
0
LINE
8
Polygon
10
-81.84372948168361
20
-66.74694495655285
11
-55.975053469409666
21
-45.649970211816054
0
LINE
8
Polygon
10
-55.975053469409666
20
-45.649970211816054
11
-82.53789819770276
21
-46.563547619573455
0
LINE
8
Polygon
10
-82.53789819770276
20
-46.563547619573455
11
-81.84372948168361
21
-66.74694495655285
0
LINE
8
Polygon
10
-20.710678118654748
20
-50.0
11
6.92190251113744
21
-38.55421033977199
0
LINE
8
Polygon
10
6.92190251113744
20
-38.55421033977199
11
-25.86867601227395
21
-21.096974744736784
0
LINE
8
Polygon
10
-25.86867601227395
20
-21.096974744736784
11
-30.96210175944698
21
-25.250874012767227
0
LINE
8
Polygon
10
-30.96210175944698
20
-25.250874012767227
11
-20.710678118654748
21
-50.0
0
LINE
8
Polygon
10
50.0
20
-20.710678118654748
11
30.962101759446973
21
25.25087401276722
0
LINE
8
Polygon
10
30.962101759446973
20
25.25087401276722
11
-25.86867601227395
21
-21.096974744736784
0
LINE
8
Polygon
10
-25.86867601227395
20
-21.096974744736784
11
6.92190251113744
21
-38.55421033977199
0
LINE
8
Polygon
10
6.92190251113744
20
-38.55421033977199
11
50.0
21
-20.710678118654748
0
LINE
8
Polygon
10
20.710678118654748
20
50.0
11
-6.921902511137448
21
38.55421033977199
0
LINE
8
Polygon
10
-6.921902511137448
20
38.55421033977199
11
25.86867601227395
21
21.096974744736784
0
LINE
8
Polygon
10
25.86867601227395
20
21.096974744736784
11
30.962101759446973
21
25.25087401276722
0
LINE
8
Polygon
10
30.962101759446973
20
25.25087401276722
11
20.710678118654748
21
50.0
0
LINE
8
Polygon
10
-49.999999999999986
20
20.71067811865476
11
-30.96210175944698
21
-25.250874012767227
0
LINE
8
Polygon
10
-30.96210175944698
20
-25.250874012767227
11
25.86867601227395
21
21.096974744736784
0
LINE
8
Polygon
10
25.86867601227395
20
21.096974744736784
11
-6.921902511137448
21
38.55421033977199
0
LINE
8
Polygon
10
-6.921902511137448
20
38.55421033977199
11
-49.999999999999986
21
20.71067811865476
0
ENDSEC
0
EOF
