0
SECTION
2
ENTITIES
0
LINE
8
Polygon
10
-0.4641648994542361
20
0.4440358769338789
11
-0.46398998954699433
21
0.44605883620137576
0
LINE
8
Polygon
10
-0.46398998954699433
20
0.44605883620137576
11
-0.4638444374966555
21
0.448084119459156
0
LINE
8
Polygon
10
-0.4638444374966555
20
0.448084119459156
11
-0.4637282739208188
21
0.4501113006787936
0
LINE
8
Polygon
10
-0.4637282739208188
20
0.4501113006787936
11
-0.4636415232550712
21
0.452139953432617
0
LINE
8
Polygon
10
-0.4636415232550712
20
0.452139953432617
11
-0.4635842037478476
21
0.4541696509834098
0
LINE
8
Polygon
10
-0.4635842037478476
20
0.4541696509834098
11
-0.4635563274565919
21
0.45619996637417753
0
LINE
8
Polygon
10
-0.4635563274565919
20
0.45619996637417753
11
-0.46355790024522103
21
0.4582304725179601
0
LINE
8
Polygon
10
-0.46355790024522103
20
0.4582304725179601
11
-0.463588921782891
21
0.46026074228767133
0
LINE
8
Polygon
10
-0.463588921782891
20
0.46026074228767133
11
-0.46364938554406676
21
0.46229034860594764
0
LINE
8
Polygon
10
-0.46364938554406676
20
0.46229034860594764
11
-0.46373927880989474
21
0.4643188645349858
0
LINE
8
Polygon
10
-0.46373927880989474
20
0.4643188645349858
11
-0.46385858267087876
21
0.4663458633663513
0
LINE
8
Polygon
10
-0.46385858267087876
20
0.4663458633663513
11
-0.46400727203085684
21
0.4683709187107387
0
LINE
8
Polygon
10
-0.46400727203085684
20
0.4683709187107387
11
-0.46418531561228127
21
0.47039360458766477
0
LINE
8
Polygon
10
-0.46418531561228127
20
0.47039360458766477
11
-0.46439267596279754
21
0.4724134955150756
0
LINE
8
Polygon
10
-0.46439267596279754
20
0.4724134955150756
11
-0.46462930946312236
21
0.47443016659884873
0
LINE
8
Polygon
10
-0.46462930946312236
20
0.47443016659884873
11
-0.46489516633621986
21
0.47644319362217197
0
LINE
8
Polygon
10
-0.46489516633621986
20
0.47644319362217197
11
-0.46519019065777195
21
0.4784521531347793
0
LINE
8
Polygon
10
-0.46519019065777195
20
0.4784521531347793
11
-0.46551432036794227
21
0.4804566225420259
0
LINE
8
Polygon
10
-0.46551432036794227
20
0.48045662254202587
11
-0.46586748728443106
21
0.482456180193783
0
LINE
8
Polygon
10
-0.46586748728443106
20
0.482456180193783
11
-0.46624961711681756
21
0.4844504054731341
0
LINE
8
Polygon
10
-0.46624961711681756
20
0.4844504054731341
11
-0.4666606294821871
21
0.48643887888485376
0
LINE
8
Polygon
10
-0.4666606294821871
20
0.48643887888485376
11
-0.4671004379220406
21
0.4884211821436506
0
LINE
8
Polygon
10
-0.4671004379220406
20
0.4884211821436506
11
-0.4675689499204809
21
0.4903968982621555
0
LINE
8
Polygon
10
-0.4675689499204809
20
0.4903968982621555
11
-0.46806606692367436
21
0.4923656116386374
0
LINE
8
Polygon
10
-0.46806606692367436
20
0.4923656116386374
11
-0.4685916843605821
21
0.4943269081444267
0
LINE
8
Polygon
10
-0.4685916843605821
20
0.49432690814442665
11
-0.4691456916649569
21
0.4962803752110296
0
LINE
8
Polygon
10
-0.4691456916649569
20
0.4962803752110296
11
-0.46972797229860147
21
0.4982256019169138
0
LINE
8
Polygon
10
-0.4697279722986014
20
0.4982256019169138
11
-0.4703384037758828
21
0.500162179073948
0
LINE
8
Polygon
10
-0.4703384037758828
20
0.500162179073948
11
-0.4709768576894977
21
0.5020896993134767
0
LINE
8
Polygon
10
-0.4709768576894977
20
0.5020896993134767
11
-0.47164319973748386
21
0.5040077571720117
0
LINE
8
Polygon
10
-0.47164319973748386
20
0.5040077571720117
11
-0.47233728975147077
21
0.5059159491765245
0
LINE
8
Polygon
10
-0.47233728975147077
20
0.5059159491765245
11
-0.4730589817261651
21
0.5078138739293175
0
LINE
8
Polygon
10
-0.4730589817261651
20
0.5078138739293175
11
-0.47380812385006355
21
0.5097011321924612
0
LINE
8
Polygon
10
-0.47380812385006355
20
0.5097011321924612
11
-0.4745845585373871
21
0.5115773269717746
0
LINE
8
Polygon
10
-0.4745845585373871
20
0.5115773269717747
11
-0.4753881224612302
21
0.5134420636003366
0
LINE
8
Polygon
10
-0.4753881224612302
20
0.5134420636003366
11
-0.47621864658791674
21
0.5152949498215046
0
LINE
8
Polygon
10
-0.47621864658791674
20
0.5152949498215046
11
-0.47707595621255805
21
0.5171355958714284
0
LINE
8
Polygon
10
-0.4770759562125581
20
0.5171355958714284
11
-0.4779598709958024
21
0.5189636145610388
0
LINE
8
Polygon
10
-0.4779598709958024
20
0.5189636145610388
11
-0.4788702050017701
21
0.5207786213574949
0
LINE
8
Polygon
10
-0.4788702050017701
20
0.5207786213574949
11
-0.47980676673716655
21
0.522580234465072
0
LINE
8
Polygon
10
-0.47980676673716655
20
0.522580234465072
11
-0.4807693591915635
21
0.5243680749054751
0
LINE
8
Polygon
10
-0.4807693591915635
20
0.5243680749054751
11
-0.4817577798788413
21
0.5261417665975581
0
LINE
8
Polygon
10
-0.4817577798788413
20
0.5261417665975581
11
-0.48277182087978265
21
0.5279009364364344
0
LINE
8
Polygon
10
-0.48277182087978265
20
0.5279009364364344
11
-0.4838112688858097
21
0.5296452143719622
0
LINE
8
Polygon
10
-0.4838112688858097
20
0.5296452143719622
11
-0.4848759052438545
21
0.5313742334865853
0
LINE
8
Polygon
10
-0.4848759052438545
20
0.5313742334865853
11
-0.48596550600235366
21
0.5330876300725166
0
LINE
8
Polygon
10
-0.48596550600235366
20
0.5330876300725166
11
-0.4870798419583577
21
0.5347850437082456
0
LINE
8
Polygon
10
-0.48707984195835774
20
0.5347850437082456
11
-0.48821867870574526
21
0.5364661173343557
0
LINE
8
Polygon
10
-0.4882186787057452
20
0.5364661173343557
11
-0.4884710950828486
21
0.536813590893091
0
LINE
8
Polygon
10
-0.4884710950828486
20
0.536813590893091
11
-0.4887409415015327
21
0.5371477088539576
0
LINE
8
Polygon
10
-0.4887409415015327
20
0.5371477088539576
11
-0.4890275125524293
21
0.5374675977944325
0
LINE
8
Polygon
10
-0.4890275125524293
20
0.5374675977944325
11
-0.4893300591060707
21
0.5377724214882786
0
LINE
8
Polygon
10
-0.4893300591060707
20
0.5377724214882786
11
-0.4896477902711999
21
0.538061383091534
0
LINE
8
Polygon
10
-0.4896477902711999
20
0.538061383091534
11
-0.4899798754622506
21
0.5383337272255538
0
LINE
8
Polygon
10
-0.4899798754622506
20
0.5383337272255538
11
-0.49032544657059274
21
0.538588741951657
0
LINE
8
Polygon
10
-0.49032544657059274
20
0.538588741951657
11
-0.49068360023386776
21
0.5388257606322138
0
LINE
8
Polygon
10
-0.49068360023386776
20
0.5388257606322138
11
-0.49105340019748106
21
0.539044163673314
0
LINE
8
Polygon
10
-0.49105340019748106
20
0.539044163673314
11
-0.4914338797620782
21
0.5392433801444558
0
LINE
8
Polygon
10
-0.4914338797620782
20
0.5392433801444558
11
-0.49182404431060767
21
0.5394228892710233
0
LINE
8
Polygon
10
-0.49182404431060767
20
0.5394228892710233
11
-0.49222287390836345
21
0.5395822217956509
0
LINE
8
Polygon
10
-0.49222287390836345
20
0.5395822217956509
11
-0.492629325969211
21
0.5397209612049152
0
LINE
8
Polygon
10
-0.492629325969211
20
0.5397209612049152
11
-0.49304233798102626
21
0.5398387448181496
0
LINE
8
Polygon
10
-0.49304233798102626
20
0.5398387448181496
11
-0.4934608302832238
21
0.5399352647355325
0
LINE
8
Polygon
10
-0.4934608302832238
20
0.5399352647355325
11
-0.4938837088891132
21
0.5400102686429725
0
LINE
8
Polygon
10
-0.4938837088891132
20
0.5400102686429725
11
-0.49430986834570495
21
0.5400635604716864
0
LINE
8
Polygon
10
-0.49430986834570495
20
0.5400635604716864
11
-0.494738194623491
21
0.5400950009107451
0
LINE
8
Polygon
10
-0.494738194623491
20
0.5400950009107451
11
-0.49516756802864503
21
0.5401045077712491
0
LINE
8
Polygon
10
-0.49516756802864503
20
0.5401045077712491
11
-0.49559686613003034
21
0.5400920562011788
0
LINE
8
Polygon
10
-0.49559686613003034
20
0.5400920562011788
11
-0.4960249666933627
21
0.540057678750361
0
LINE
8
Polygon
10
-0.4960249666933627
20
0.540057678750361
11
-0.4964507506148593
21
0.5400014652853797
0
LINE
8
Polygon
10
-0.4964507506148593
20
0.5400014652853797
11
-0.4968731048467038
21
0.5399235627546549
0
LINE
8
Polygon
10
-0.4968731048467038
20
0.5399235627546549
11
-0.4972909253066801
21
0.5398241748043019
0
LINE
8
Polygon
10
-0.4972909253066801
20
0.5398241748043019
11
-0.4977031197643703
21
0.5397035612457782
0
LINE
8
Polygon
10
-0.4977031197643703
20
0.5397035612457782
11
-0.4981086106963688
21
0.5395620373767058
0
LINE
8
Polygon
10
-0.4981086106963688
20
0.5395620373767058
11
-0.4985063381030522
21
0.5393999731566476
0
LINE
8
Polygon
10
-0.4985063381030522
20
0.5393999731566476
11
-0.4988952622795393
21
0.5392177922399903
0
LINE
8
Polygon
10
-0.4988952622795393
20
0.5392177922399903
11
-0.4992743665335983
21
0.5390159708684644
0
LINE
8
Polygon
10
-0.4992743665335983
20
0.5390159708684644
11
-0.49964265984339656
21
0.5387950366261929
0
LINE
8
Polygon
10
-0.49964265984339656
20
0.5387950366261929
11
-0.499999179448145
21
0.5385555670605269
0
LINE
8
Polygon
10
-0.499999179448145
20
0.5385555670605269
11
-0.5003429933648644
21
0.5382981881722703
0
LINE
8
Polygon
10
-0.5003429933648644
20
0.5382981881722703
11
-0.5006732028246962
21
0.5380235727792423
0
LINE
8
Polygon
10
-0.5006732028246962
20
0.5380235727792423
11
-0.5009889446223857
21
0.5377324387574551
0
LINE
8
Polygon
10
-0.5009889446223857
20
0.5377324387574551
11
-0.5012893933728008
21
0.5374255471645036
0
LINE
8
Polygon
10
-0.5012893933728008
20
0.5374255471645036
11
-0.5015737636685814
21
0.537103700250074
0
LINE
8
Polygon
10
-0.5015737636685814
20
0.537103700250074
11
-0.5018413121332853
21
0.5367677393587715
0
LINE
8
Polygon
10
-0.5018413121332853
20
0.5367677393587715
11
-0.5020913393646586
21
0.5364185427307493
0
LINE
8
Polygon
10
-0.5020913393646586
20
0.5364185427307493
11
-0.5023231917629527
21
0.5360570232058887
0
LINE
8
Polygon
10
-0.5023231917629527
20
0.5360570232058885
11
-0.5025362632395096
21
0.5356841258375309
0
LINE
8
Polygon
10
-0.5025362632395096
20
0.5356841258375309
11
-0.5027299968011462
21
0.5353008254220004
0
LINE
8
Polygon
10
-0.5027299968011462
20
0.5353008254220004
11
-0.5029038860061984
21
0.5349081239503753
0
LINE
8
Polygon
10
-0.5029038860061984
20
0.5349081239503753
11
-0.5030574762884175
21
0.5345070479891684
0
LINE
8
Polygon
10
-0.5030574762884175
20
0.5345070479891684
11
-0.5031903661452581
21
0.5340986459967649
0
LINE
8
Polygon
10
-0.5031903661452581
20
0.5340986459967649
11
-0.5033022081874517
21
0.5336839855826329
0
LINE
8
Polygon
10
-0.5033022081874517
20
0.5336839855826329
11
-0.5033927100471224
21
0.5332641507164695
0
LINE
8
Polygon
10
-0.5033927100471224
20
0.5332641507164695
11
-0.503461635142069
21
0.532840238894581
0
LINE
8
Polygon
10
-0.503461635142069
20
0.532840238894581
11
-0.5035088032942185
21
0.5324133582709014
0
LINE
8
Polygon
10
-0.5610811339993973
20
0.5749036717220108
11
-0.564458914585637
21
0.5733631621028551
0
LINE
8
Polygon
10
-0.564458914585637
20
0.5733631621028551
11
-0.5676874628786609
21
0.5715303916603005
0
LINE
8
Polygon
10
-0.5676874628786609
20
0.5715303916603005
11
-0.5707415534261258
21
0.5694196802865276
0
LINE
8
Polygon
10
-0.5707415534261258
20
0.5694196802865276
11
-0.573597323857528
21
0.5670475194954727
0
LINE
8
Polygon
10
-0.573597323857528
20
0.5670475194954727
11
-0.5762324613268506
21
0.5644324435705211
0
LINE
8
Polygon
10
-0.5762324613268506
20
0.5644324435705211
11
-0.5786263768483892
21
0.5615948847515316
0
LINE
8
Polygon
10
-0.5786263768483892
20
0.5615948847515316
11
-0.5807603661636286
21
0.5585570135926552
0
LINE
8
Polygon
10
-0.5807603661636286
20
0.5585570135926552
11
-0.5826177558822746
21
0.5553425657382707
0
LINE
8
Polygon
10
-0.5826177558822746
20
0.5553425657382707
11
-0.584184033755608
21
0.5519766564704807
0
LINE
8
Polygon
10
-0.584184033755608
20
0.5519766564704807
11
-0.5854469620642999
21
0.5484855844771535
0
LINE
8
Polygon
10
-0.5854469620642999
20
0.5484855844771535
11
-0.5863966732347621
21
0.5448966263737217
0
LINE
8
Polygon
10
-0.5863966732347621
20
0.5448966263737217
11
-0.5870257469369591
21
0.5412378235841888
0
LINE
8
Polygon
10
-0.5870257469369591
20
0.5412378235841888
11
-0.587329268061295
21
0.5375377632464956
0
LINE
8
Polygon
10
-0.587329268061295
20
0.5375377632464956
11
-0.5873048651215905
21
0.5338253548540874
0
LINE
8
Polygon
10
-0.5873048651215905
20
0.5338253548540874
11
-0.5869527287840943
21
0.5301296043788384
0
LINE
8
Polygon
10
-0.5869527287840943
20
0.5301296043788384
11
-0.586275610377761
21
0.5264793876401647
0
LINE
8
Polygon
10
-0.586275610377761
20
0.5264793876401647
11
-0.5852788003974322
21
0.522903224691052
0
LINE
8
Polygon
10
-0.5852788003974322
20
0.522903224691052
11
-0.5839700871678816
21
0.5194290569837747
0
LINE
8
Polygon
10
-0.5839700871678816
20
0.5194290569837747
11
-0.5823596959916932
21
0.5160840290563661
0
LINE
8
Polygon
10
-0.5823596959916932
20
0.5160840290563661
11
-0.5804602092564238
21
0.5128942764455787
0
LINE
8
Polygon
10
-0.5804602092564238
20
0.5128942764455787
11
-0.5782864681252741
21
0.509884721483423
0
LINE
8
Polygon
10
-0.5782864681252741
20
0.509884721483423
11
-0.5758554565793813
21
0.5070788785727764
0
LINE
8
Polygon
10
-0.5758554565793813
20
0.5070788785727764
11
-0.5731861687177434
21
0.5044986704634951
0
LINE
8
Polygon
10
-0.5731861687177434
20
0.5044986704634951
11
-0.5702994603515897
21
0.5021642569645048
0
LINE
8
Polygon
10
-0.5702994603515897
20
0.5021642569645048
11
-0.567217886052731
21
0.5000938774301918
0
LINE
8
Polygon
10
-0.567217886052731
20
0.5000938774301918
11
-0.5639655229290692
21
0.49830370825178044
0
LINE
8
Polygon
10
-0.5639655229290692
20
0.49830370825178044
11
-0.560567782504154
21
0.49680773646715826
0
LINE
8
Polygon
10
-0.5605677825041541
20
0.49680773646715826
11
-0.5570512121706164
21
0.4956176504766635
0
LINE
8
Polygon
10
-0.5570512121706164
20
0.4956176504766635
11
-0.553443287768775
21
0.4947427487187002
0
LINE
8
Polygon
10
-0.553443287768775
20
0.4947427487187002
11
-0.5497721989110492
21
0.4941898670187224
0
LINE
8
Polygon
10
-0.5497721989110492
20
0.4941898670187224
11
-0.546066628729492
21
0.4939633251792259
0
LINE
8
Polygon
10
-0.546066628729492
20
0.4939633251792259
11
-0.5423555297673318
21
0.4940648932280552
0
LINE
8
Polygon
10
-0.5423555297673318
20
0.4940648932280552
11
-0.538667897765538
21
0.4944937775887348
0
LINE
8
Polygon
10
-0.538667897765538
20
0.4944937775887348
11
-0.5350325451118708
21
0.49524662728088004
0
LINE
8
Polygon
10
-0.5350325451118708
20
0.49524662728088004
11
-0.5314778757225155
21
0.4963175601022416
0
LINE
8
Polygon
10
-0.5314778757225155
20
0.4963175601022416
11
-0.528031663115208
21
0.49769820858781794
0
LINE
8
Polygon
10
-0.528031663115208
20
0.4976982085878179
11
-0.5247208334078195
21
0.49937778538694394
0
LINE
8
Polygon
10
-0.5247208334078195
20
0.4993777853869439
11
-0.5215712549378875
21
0.5013431675475502
0
LINE
8
Polygon
10
-0.5215712549378874
20
0.5013431675475503
11
-0.5186075361468486
21
0.5035789990490576
0
LINE
8
Polygon
10
-0.5186075361468486
20
0.5035789990490576
11
-0.5158528333081539
21
0.5060678107827924
0
LINE
8
Polygon
10
-0.5158528333081539
20
0.5060678107827924
11
-0.513328669601533
21
0.5087901570424859
0
LINE
8
Polygon
10
-0.513328669601533
20
0.5087901570424859
11
-0.5110547669470284
21
0.5117247674584229
0
LINE
8
Polygon
10
-0.5110547669470284
20
0.5117247674584229
11
-0.5090488919127192
21
0.514848713188141
0
LINE
8
Polygon
10
-0.5090488919127192
20
0.514848713188141
11
-0.5073267169000972
21
0.5181375860651901
0
LINE
8
Polygon
10
-0.5073267169000972
20
0.5181375860651901
11
-0.5059016976916891
21
0.5215656893062196
0
LINE
8
Polygon
10
-0.5059016976916891
20
0.5215656893062196
11
-0.5047849683176743
21
0.52510623828635
0
LINE
8
Polygon
10
-0.5047849683176743
20
0.5251062382863498
11
-0.5039852540629325
21
0.5287315698141211
0
LINE
8
Polygon
10
-0.5039852540629325
20
0.5287315698141211
11
-0.5035088032942187
21
0.5324133582709014
0
LINE
8
Polygon
10
-0.5610811339993973
20
0.5749036717220108
11
-0.5606871215421468
21
0.5750745696008205
0
LINE
8
Polygon
10
-0.5606871215421468
20
0.5750745696008205
11
-0.5603023589627553
21
0.5752653827527524
0
LINE
8
Polygon
10
-0.5603023589627553
20
0.5752653827527524
11
-0.5599278520745642
21
0.5754756123704272
0
LINE
8
Polygon
10
-0.5599278520745642
20
0.5754756123704272
11
-0.5595645798813667
21
0.5757047088896056
0
LINE
8
Polygon
10
-0.5595645798813667
20
0.5757047088896056
11
-0.5592134920181792
21
0.5759520734258122
0
LINE
8
Polygon
10
-0.5592134920181792
20
0.5759520734258122
11
-0.558875506268788
21
0.5762170593398882
0
LINE
8
Polygon
10
-0.558875506268788
20
0.5762170593398882
11
-0.5585515061665566
21
0.5764989739283797
0
LINE
8
Polygon
10
-0.5585515061665566
20
0.5764989739283797
11
-0.5582423386847691
21
0.5767970802343435
0
LINE
8
Polygon
10
-0.5582423386847691
20
0.5767970802343435
11
-0.5579488120225453
21
0.5771105989738377
0
LINE
8
Polygon
10
-0.5579488120225453
20
0.5771105989738377
11
-0.5576716934921154
21
0.5774387105730575
0
LINE
8
Polygon
10
-0.5576716934921154
20
0.5774387105730575
11
-0.5574117075129787
21
0.5777805573107961
0
LINE
8
Polygon
10
-0.5574117075129787
20
0.5777805573107961
11
-0.5571695337181879
21
0.5781352455606252
0
LINE
8
Polygon
10
-0.5571695337181879
20
0.5781352455606252
11
-0.5569458051777108
21
0.5785018481269368
0
LINE
8
Polygon
10
-0.5569458051777108
20
0.5785018481269368
11
-0.5567411067435132
21
0.5788794066687383
0
LINE
8
Polygon
10
-0.5567411067435132
20
0.5788794066687383
11
-0.5565559735206886
21
0.5792669342048655
0
LINE
8
Polygon
10
-0.5565559735206886
20
0.5792669342048655
11
-0.5563908894686331
21
0.5796634176940643
0
LINE
8
Polygon
10
-0.5563908894686331
20
0.5796634176940643
11
-0.5562462861359195
21
0.5800678206831955
0
LINE
8
Polygon
10
-0.5562462861359195
20
0.5800678206831955
11
-0.5561225415321803
21
0.580479086016643
0
LINE
8
Polygon
10
-0.5561225415321803
20
0.580479086016643
11
-0.5560199791399475
21
0.5808961385998381
0
LINE
8
Polygon
10
-0.5560199791399475
20
0.5808961385998381
11
-0.5559388670690322
21
0.5813178882096803
0
LINE
8
Polygon
10
-0.5559388670690322
20
0.5813178882096803
11
-0.5558794173556545
21
0.5817432323445048
0
LINE
8
Polygon
10
-0.5558794173556545
20
0.5817432323445048
11
-0.5558417854081575
21
0.5821710591061476
0
LINE
8
Polygon
10
-0.5558417854081575
20
0.5821710591061476
11
-0.5558260696007514
21
0.5826002501065749
0
LINE
8
Polygon
10
-0.5558260696007514
20
0.5826002501065749
11
-0.5558323110163522
21
0.5830296833914768
0
LINE
8
Polygon
10
-0.5558323110163522
20
0.5830296833914768
11
-0.5558604933391865
21
0.5834582363731836
0
LINE
8
Polygon
10
-0.5558604933391865
20
0.5834582363731836
11
-0.5559105428974427
21
0.5838847887652395
0
LINE
8
Polygon
10
-0.5559105428974427
20
0.5838847887652395
11
-0.5559823288558571
21
0.5843082255109582
0
LINE
8
Polygon
10
-0.5559823288558571
20
0.5843082255109582
11
-0.556075663557733
21
0.5847274396983086
0
LINE
8
Polygon
10
-0.556075663557733
20
0.5847274396983086
11
-0.5561903030154963
21
0.5851413354535103
0
LINE
8
Polygon
10
-0.5561903030154963
20
0.5851413354535103
11
-0.556325947548507
21
0.5855488308057717
0
LINE
8
Polygon
10
-0.556325947548507
20
0.5855488308057717
11
-0.5564822425664582
21
0.5859488605156856
0
LINE
8
Polygon
10
-0.5564822425664582
20
0.5859488605156856
11
-0.5566587794963166
21
0.5863403788598873
0
LINE
8
Polygon
10
-0.5566587794963166
20
0.5863403788598873
11
-0.5568550968503782
21
0.5867223623646941
0
LINE
8
Polygon
10
-0.5568550968503782
20
0.5867223623646941
11
-0.5570706814326501
21
0.5870938124815831
0
LINE
8
Polygon
10
-0.5570706814326501
20
0.5870938124815831
11
-0.5573049696804041
21
0.5874537581975107
0
LINE
8
Polygon
10
-0.5573049696804041
20
0.5874537581975107
11
-0.5575573491373931
21
0.5878012585732517
0
LINE
8
Polygon
10
-0.5575573491373931
20
0.5878012585732517
11
-0.5578271600548823
21
0.5881354052031222
0
LINE
8
Polygon
10
-0.5578271600548823
20
0.5881354052031222
11
-0.5581136971163076
21
0.5884553245896558
0
LINE
8
Polygon
10
-0.5581136971163076
20
0.5884553245896558
11
-0.5584162112810537
21
0.5887601804270252
0
LINE
8
Polygon
10
-0.5584162112810537
20
0.5887601804270252
11
-0.5587339117425318
21
0.589049175787242
0
LINE
8
Polygon
10
-0.5587339117425318
20
0.589049175787242
11
-0.5590659679954385
21
0.5893215552034169
0
LINE
8
Polygon
10
-0.5590659679954385
20
0.5893215552034169
11
-0.5594115120067914
21
0.5895766066446368
0
LINE
8
Polygon
10
-0.5594115120067914
20
0.5895766066446368
11
-0.5597696404850666
21
0.589813663377295
0
LINE
8
Polygon
10
-0.5597696404850666
20
0.589813663377295
11
-0.5601394172415057
21
0.5900321057080085
0
LINE
8
Polygon
10
-0.5601394172415057
20
0.5900321057080085
11
-0.5605198756374208
21
0.5902313626035679
0
LINE
8
Polygon
10
-0.5605198756374208
20
0.5902313626035679
11
-0.5609100211110976
21
0.5904109131836833
0
LINE
8
Polygon
10
-0.5609100211110976
20
0.5904109131836833
11
-0.5613088337776939
21
0.5905702880826246
0
LINE
8
Polygon
10
-0.5613088337776939
20
0.5905702880826246
11
-0.5617152710953351
21
0.5907090706761975
0
LINE
8
Polygon
10
-0.5617152710953351
20
0.5907090706761974
11
-0.5636573373650298
21
0.5913018069394015
0
LINE
8
Polygon
10
-0.5636573373650298
20
0.5913018069394015
11
-0.5656077959683369
21
0.591866314610198
0
LINE
8
Polygon
10
-0.5656077959683369
20
0.591866314610198
11
-0.5675662366165694
21
0.5924024749415853
0
LINE
8
Polygon
10
-0.5675662366165694
20
0.5924024749415853
11
-0.5695322473419773
21
0.5929101751495659
0
LINE
8
Polygon
10
-0.5695322473419773
20
0.5929101751495659
11
-0.5715054145844074
21
0.5933893084368709
0
LINE
8
Polygon
10
-0.5715054145844074
20
0.5933893084368709
11
-0.5734853232782972
21
0.5938397740154256
0
LINE
8
Polygon
10
-0.573485323278297
20
0.5938397740154256
11
-0.5754715569399861
21
0.594261477127551
0
LINE
8
Polygon
10
-0.5754715569399861
20
0.594261477127551
11
-0.5774636977553256
21
0.5946543290658954
0
LINE
8
Polygon
10
-0.5774636977553256
20
0.5946543290658954
11
-0.5794613266675677
21
0.5950182471920965
0
LINE
8
Polygon
10
-0.5794613266675676
20
0.5950182471920965
11
-0.5814640234655155
21
0.5953531549541625
0
LINE
8
Polygon
10
-0.5814640234655155
20
0.5953531549541625
11
-0.5834713668719176
21
0.5956589819025769
0
LINE
8
Polygon
10
-0.5834713668719176
20
0.5956589819025769
11
-0.5854829346320853
21
0.595935663705117
0
LINE
8
Polygon
10
-0.5854829346320853
20
0.595935663705117
11
-0.5874983036027157
21
0.5961831421603867
0
LINE
8
Polygon
10
-0.5874983036027157
20
0.5961831421603867
11
-0.5895170498409027
21
0.5964013652100598
0
LINE
8
Polygon
10
-0.5895170498409027
20
0.5964013652100598
11
-0.5915387486933149
21
0.5965902869498303
0
LINE
8
Polygon
10
-0.5915387486933149
20
0.5965902869498303
11
-0.5935629748855239
21
0.5967498676390688
0
LINE
8
Polygon
10
-0.5935629748855239
20
0.5967498676390688
11
-0.5955893026114627
21
0.5968800737091822
0
LINE
8
Polygon
10
-0.5955893026114627
20
0.5968800737091822
11
-0.5976173056229963
21
0.5969808777706744
0
LINE
8
Polygon
10
-0.5976173056229963
20
0.5969808777706744
11
-0.5996465573195849
21
0.5970522586189091
0
LINE
8
Polygon
10
-0.5996465573195849
20
0.5970522586189091
11
-0.6016766308380219
21
0.5970942012385689
0
LINE
8
Polygon
10
-0.6016766308380219
20
0.5970942012385689
11
-0.6037070991422259
21
0.5971066968068148
0
LINE
8
Polygon
10
-0.6037070991422259
20
0.5971066968068148
11
-0.6057375351130706
21
0.597089742695142
0
LINE
8
Polygon
10
-0.6057375351130706
20
0.597089742695142
11
-0.6077675116382312
21
0.5970433424699322
0
LINE
8
Polygon
10
-0.6077675116382312
20
0.5970433424699322
11
-0.6097966017020295
21
0.5969675058917038
0
LINE
8
Polygon
10
-0.6097966017020295
20
0.5969675058917038
11
-0.6118243784752592
21
0.5968622489130593
0
LINE
8
Polygon
10
-0.6118243784752592
20
0.5968622489130593
11
-0.6138504154049705
21
0.5967275936753283
0
LINE
8
Polygon
10
-0.6138504154049705
20
0.5967275936753283
11
-0.6158742863041992
21
0.5965635685039116
0
LINE
8
Polygon
10
-0.6158742863041992
20
0.5965635685039116
11
-0.6178955654416156
21
0.596370207902321
0
LINE
8
Polygon
10
-0.6178955654416156
20
0.596370207902321
11
-0.6199138276310807
21
0.5961475525449227
0
LINE
8
Polygon
10
-0.6199138276310807
20
0.5961475525449227
11
-0.6219286483210853
21
0.5958956492683808
0
LINE
8
Polygon
10
-0.6219286483210853
20
0.5958956492683808
11
-0.6239396036840564
21
0.5956145510618047
0
LINE
8
Polygon
10
-0.6239396036840564
20
0.5956145510618047
11
-0.6259462707055123
21
0.5953043170556032
0
LINE
8
Polygon
10
-0.6259462707055123
20
0.5953043170556032
11
-0.6279482272730451
21
0.5949650125090452
0
LINE
8
Polygon
10
-0.6279482272730451
20
0.5949650125090452
11
-0.6299450522651144
21
0.5945967087965331
0
LINE
8
Polygon
10
-0.6299450522651144
20
0.5945967087965331
11
-0.6319363256396323
21
0.5941994833925883
0
LINE
8
Polygon
10
-0.6319363256396323
20
0.5941994833925883
11
-0.6339216285223211
21
0.593773419855554
0
LINE
8
Polygon
10
-0.633921628522321
20
0.593773419855554
11
-0.635900543294826
21
0.5933186078100183
0
LINE
8
Polygon
10
-0.635900543294826
20
0.5933186078100183
11
-0.6378726536825632
21
0.5928351429279616
0
LINE
8
Polygon
10
-0.6378726536825632
20
0.5928351429279616
11
-0.6398375448422846
21
0.592323126908631
0
LINE
8
Polygon
10
-0.6398375448422846
20
0.592323126908631
11
-0.6417948034493433
21
0.5917826674571478
0
LINE
8
Polygon
10
-0.6417948034493433
20
0.5917826674571478
11
-0.6437440177846374
21
0.5912138782618508
0
LINE
8
Polygon
10
-0.6437440177846374
20
0.5912138782618508
11
-0.645684777821218
21
0.5906168789703818
0
LINE
8
Polygon
10
-0.645684777821218
20
0.5906168789703818
11
-0.6476166753105399
21
0.589991795164517
0
LINE
8
Polygon
10
-0.6476166753105399
20
0.589991795164517
11
-0.6495393038683388
21
0.5893387583337497
0
LINE
8
Polygon
10
-0.6495393038683388
20
0.5893387583337497
11
-0.6514522590601166
21
0.5886579058476316
0
LINE
8
Polygon
10
-0.6514522590601166
20
0.5886579058476317
11
-0.6533551384862157
21
0.5879493809268762
0
LINE
8
Polygon
10
-0.6533551384862157
20
0.5879493809268762
11
-0.6552475418664662
21
0.5872133326132313
0
LINE
8
Polygon
10
-0.655247541866466
20
0.5872133326132313
11
-0.6571290711243863
21
0.5864499157381277
0
LINE
8
Polygon
10
0.32776364663496727
20
0.5499777100621611
11
0.32811599743286224
21
0.5491348486557134
0
LINE
8
Polygon
10
0.32811599743286224
20
0.5491348486557134
11
0.3284738406480315
21
0.548294304386437
0
LINE
8
Polygon
10
0.3284738406480315
20
0.548294304386437
11
0.32883716104353966
21
0.5474561130446396
0
LINE
8
Polygon
10
0.32883716104353966
20
0.5474561130446396
11
0.32920594314923324
21
0.5466203103204419
0
LINE
8
Polygon
10
0.32920594314923324
20
0.5466203103204419
11
0.3295801712623996
21
0.5457869318022569
0
LINE
8
Polygon
10
0.3295801712623996
20
0.5457869318022569
11
0.3299598294484356
21
0.5449560129752756
0
LINE
8
Polygon
10
0.3299598294484356
20
0.5449560129752756
11
0.330344901541526
21
0.5441275892199552
0
LINE
8
Polygon
10
0.330344901541526
20
0.5441275892199552
11
0.3307353711453318
21
0.5433016958105131
0
LINE
8
Polygon
10
0.3307353711453318
20
0.5433016958105131
11
0.33113122163368847
21
0.5424783679134246
0
LINE
8
Polygon
10
0.33113122163368847
20
0.5424783679134246
11
0.3315324361513137
21
0.5416576405859261
0
LINE
8
Polygon
10
0.3315324361513137
20
0.5416576405859261
11
0.3319389976145255
21
0.5408395487745216
0
LINE
8
Polygon
10
0.3319389976145255
20
0.5408395487745216
11
0.33235088871196916
21
0.5400241273134949
0
LINE
8
Polygon
10
0.33235088871196916
20
0.5400241273134949
11
0.3327680919053546
21
0.5392114109234268
0
LINE
8
Polygon
10
0.3327680919053546
20
0.5392114109234268
11
0.33319058943020324
21
0.5384014342097165
0
LINE
8
Polygon
10
0.33319058943020324
20
0.5384014342097165
11
0.33361836329660416
21
0.5375942316611078
0
LINE
8
Polygon
10
0.33361836329660416
20
0.5375942316611078
11
0.3340513952899803
21
0.5367898376482204
0
LINE
8
Polygon
10
0.3340513952899803
20
0.5367898376482204
11
0.3344896669718639
21
0.5359882864220875
0
LINE
8
Polygon
10
0.3344896669718639
20
0.5359882864220875
11
0.3349331596806817
21
0.5351896121126963
0
LINE
8
Polygon
10
0.3349331596806817
20
0.5351896121126963
11
0.3353818545325497
21
0.534393848727535
0
LINE
8
Polygon
10
0.3353818545325497
20
0.534393848727535
11
0.3358357324220768
21
0.533601030150145
0
LINE
8
Polygon
10
0.3358357324220768
20
0.533601030150145
11
0.3362947740231788
21
0.5328111901386783
0
LINE
8
Polygon
10
0.3362947740231788
20
0.5328111901386783
11
0.33675895978990095
21
0.5320243623244592
0
LINE
8
Polygon
10
0.336758959789901
20
0.5320243623244592
11
0.3372282699572503
21
0.5312405802105533
0
LINE
8
Polygon
10
0.3372282699572503
20
0.5312405802105533
11
0.33770268454203745
21
0.5304598771703405
0
LINE
8
Polygon
10
0.33770268454203745
20
0.5304598771703405
11
0.33818218334372724
21
0.5296822864460939
0
LINE
8
Polygon
10
0.33818218334372724
20
0.5296822864460939
11
0.33866674594529894
21
0.5289078411475646
0
LINE
8
Polygon
10
0.33866674594529894
20
0.5289078411475646
11
0.3391563517141157
21
0.5281365742505714
0
LINE
8
Polygon
10
0.3391563517141157
20
0.5281365742505714
11
0.3396509798028029
21
0.5273685185955972
0
LINE
8
Polygon
10
0.3396509798028029
20
0.5273685185955972
11
0.3401506091501362
21
0.5266037068863906
0
LINE
8
Polygon
10
0.3401506091501362
20
0.5266037068863906
11
0.3406552184819376
21
0.525842171688573
0
LINE
8
Polygon
10
0.3406552184819376
20
0.525842171688573
11
0.3411647863119822
21
0.5250839454282523
0
LINE
8
Polygon
10
0.3411647863119822
20
0.5250839454282523
11
0.34167929094291255
21
0.5243290603906423
0
LINE
8
Polygon
10
0.34167929094291255
20
0.5243290603906423
11
0.3421987104671624
21
0.5235775487186876
0
LINE
8
Polygon
10
0.3421987104671624
20
0.5235775487186876
11
0.3427230227678899
21
0.522829442411695
0
LINE
8
Polygon
10
0.3427230227678899
20
0.522829442411695
11
0.34325220551991925
21
0.5220847733239716
0
LINE
8
Polygon
10
0.34325220551991925
20
0.5220847733239716
11
0.343786236190691
21
0.5213435731634675
0
LINE
8
Polygon
10
0.343786236190691
20
0.5213435731634675
11
0.3443250920412218
21
0.5206058734904264
0
LINE
8
Polygon
10
0.3443250920412218
20
0.5206058734904264
11
0.3448687501270727
21
0.5198717057160416
0
LINE
8
Polygon
10
0.3448687501270727
20
0.5198717057160416
11
0.34541718729932563
21
0.5191411011011182
0
LINE
8
Polygon
10
0.34541718729932563
20
0.5191411011011182
11
0.3459703802055697
21
0.5184140907547424
0
LINE
8
Polygon
10
0.3459703802055697
20
0.5184140907547424
11
0.34652830529089507
21
0.5176907056329568
0
LINE
8
Polygon
10
0.34652830529089507
20
0.5176907056329568
11
0.34709093879889624
21
0.5169709765374421
0
LINE
8
Polygon
10
0.34709093879889624
20
0.5169709765374421
11
0.34765825677268325
21
0.5162549341142055
0
LINE
8
Polygon
10
0.34765825677268325
20
0.5162549341142055
11
0.34823023505590206
21
0.5155426088522765
0
LINE
8
Polygon
10
0.34823023505590206
20
0.5155426088522765
11
0.3488068492937631
21
0.5148340310824078
0
LINE
8
Polygon
10
0.3488068492937631
20
0.5148340310824078
11
0.34938807493407814
21
0.5141292309757842
0
LINE
8
Polygon
10
0.34938807493407814
20
0.5141292309757842
11
0.3499738872283058
21
0.5134282385427382
0
LINE
8
Polygon
10
0.3499738872283058
20
0.5134282385427382
11
0.3505642612326054
21
0.5127310836314714
0
LINE
8
Polygon
10
0.3505642612326054
20
0.5127310836314714
11
0.3508050899307371
21
0.5124352169720757
0
LINE
8
Polygon
10
0.3508050899307371
20
0.5124352169720757
11
0.3510322367618299
21
0.51212872087241
0
LINE
8
Polygon
10
0.3510322367618299
20
0.51212872087241
11
0.35124523321770373
21
0.511812227504753
0
LINE
8
Polygon
10
0.35124523321770373
20
0.511812227504753
11
0.3514436399764392
21
0.5114863896615336
0
LINE
8
Polygon
10
0.3514436399764392
20
0.5114863896615336
11
0.3516270478085128
21
0.5111518794088957
0
LINE
8
Polygon
10
0.3516270478085128
20
0.5111518794088957
11
0.3517950784208656
21
0.5108093867005089
0
LINE
8
Polygon
10
0.3517950784208656
20
0.5108093867005089
11
0.35194738523716196
21
0.5104596179544847
0
LINE
8
Polygon
10
0.35194738523716196
20
0.5104596179544847
11
0.3520836541126307
21
0.5101032945963333
0
LINE
8
Polygon
10
0.3520836541126307
20
0.5101032945963333
11
0.3522036039820132
21
0.5097411515709678
0
LINE
8
Polygon
10
0.3522036039820132
20
0.5097411515709678
11
0.3523069874392827
21
0.5093739358268217
0
LINE
8
Polygon
10
0.3523069874392827
20
0.5093739358268217
11
0.3523935912479384
21
0.5090024047752095
0
LINE
8
Polygon
10
0.3523935912479384
20
0.5090024047752095
11
0.352463236780823
21
0.5086273247281062
0
LINE
8
Polygon
10
0.352463236780823
20
0.5086273247281062
11
0.35251578038855463
21
0.508249469317569
0
LINE
8
Polygon
10
0.35251578038855463
20
0.508249469317569
11
0.35255111369581554
21
0.5078696179000597
0
LINE
8
Polygon
10
0.35255111369581554
20
0.5078696179000597
11
0.35256916382488424
21
0.5074885539489618
0
LINE
8
Polygon
10
0.35256916382488424
20
0.5074885539489618
11
0.35256989354595186
21
0.5071070634386041
0
LINE
8
Polygon
10
0.35256989354595186
20
0.5071070634386041
11
0.35255330135391133
21
0.5067259332231278
0
LINE
8
Polygon
10
0.35255330135391133
20
0.5067259332231279
11
0.352519421471462
21
0.5063459494135373
0
LINE
8
Polygon
10
0.352519421471462
20
0.5063459494135373
11
0.3524683237785224
21
0.5059678957562846
0
LINE
8
Polygon
10
0.3524683237785224
20
0.5059678957562846
11
0.3524001136680976
21
0.5055925520167317
0
LINE
8
Polygon
10
0.3524001136680976
20
0.5055925520167317
11
0.3523149318288977
21
0.5052206923708218
0
LINE
8
Polygon
10
0.3523149318288977
20
0.5052206923708218
11
0.3522129539551566
21
0.5048530838082814
0
LINE
8
Polygon
10
0.3522129539551566
20
0.5048530838082814
11
0.35209439038424845
21
0.5044904845506439
0
LINE
8
Polygon
10
0.35209439038424845
20
0.5044904845506439
11
0.3519594856628506
21
0.5041336424873577
0
LINE
8
Polygon
10
0.3519594856628506
20
0.5041336424873577
11
0.3518085180425467
21
0.5037832936332058
0
LINE
8
Polygon
10
0.3518085180425467
20
0.5037832936332058
11
0.35164179890591113
21
0.5034401606102173
0
LINE
8
Polygon
10
0.35164179890591113
20
0.5034401606102173
11
0.3514596721242577
21
0.5031049511572028
0
LINE
8
Polygon
10
0.3514596721242577
20
0.5031049511572028
11
0.35126251334837844
21
0.5027783566699873
0
LINE
8
Polygon
10
0.35126251334837844
20
0.5027783566699873
11
0.3510507292337339
21
0.5024610507753524
0
LINE
8
Polygon
10
0.3510507292337339
20
0.5024610507753524
11
0.3508247566016948
21
0.5021536879416281
0
LINE
8
Polygon
10
0.3508247566016948
20
0.5021536879416281
11
0.3505850615385632
21
0.5018569021287999
0
LINE
8
Polygon
10
0.3505850615385632
20
0.5018569021287999
11
0.35033213843423316
21
0.5015713054809172
0
LINE
8
Polygon
10
0.35033213843423316
20
0.5015713054809172
11
0.35006650896247266
21
0.501297487063498
0
LINE
8
Polygon
10
0.35006650896247266
20
0.501297487063498
11
0.34978872100493047
21
0.5010360116485345
0
LINE
8
Polygon
10
0.34978872100493047
20
0.5010360116485345
11
0.34949934752108736
21
0.5007874185496073
0
LINE
8
Polygon
10
0.34949934752108736
20
0.5007874185496073
11
0.3491989853664819
21
0.500552220509508
0
LINE
8
Polygon
10
0.3491989853664819
20
0.500552220509508
11
0.3488882540616494
21
0.5003309026426674
0
LINE
8
Polygon
10
0.3488882540616494
20
0.5003309026426674
11
0.3485677945143117
21
0.5001239214345691
0
LINE
8
Polygon
10
0.3485677945143117
20
0.5001239214345691
11
0.34823826769745503
21
0.4999317038002113
0
LINE
8
Polygon
10
0.34823826769745503
20
0.4999317038002113
11
0.3479003532860212
21
0.49975464620356247
0
LINE
8
Polygon
10
0.3479003532860212
20
0.49975464620356247
11
0.34755474825502447
21
0.49959311383982224
0
LINE
8
Polygon
10
0.34755474825502447
20
0.49959311383982224
11
0.3472021654419861
21
0.49944743988217805
0
LINE
8
Polygon
10
0.3472021654419861
20
0.49944743988217805
11
0.3468433320766509
21
0.4993179247946091
0
LINE
8
Polygon
10
0.3468433320766509
20
0.4993179247946091
11
0.3464789882810187
21
0.4992048357121561
0
LINE
8
Polygon
10
0.3464789882810187
20
0.4992048357121561
11
0.34610988554278455
21
0.49910840588993394
0
LINE
8
Polygon
10
0.34610988554278455
20
0.49910840588993394
11
0.3457367851653364
21
0.4990288342220248
0
LINE
8
Polygon
10
0.3457367851653364
20
0.4990288342220248
11
0.34536045669750726
21
0.4989662848312435
0
LINE
8
Polygon
10
0.34536045669750726
20
0.4989662848312435
11
0.3449816763463198
21
0.4989208867306214
0
LINE
8
Polygon
10
0.3449816763463197
20
0.4989208867306214
11
0.3408126204382794
21
0.49830457665046635
0
LINE
8
Polygon
10
0.3408126204382794
20
0.49830457665046635
11
0.33672631654439567
21
0.49727356463982003
0
LINE
8
Polygon
10
0.33672631654439567
20
0.49727356463982003
11
0.33276390768788244
21
0.49583823146139355
0
LINE
8
Polygon
10
0.33276390768788244
20
0.49583823146139355
11
0.328965289452573
21
0.4940130287927453
0
LINE
8
Polygon
10
0.328965289452573
20
0.4940130287927453
11
0.3253687082935266
21
0.49181633371930894
0
LINE
8
Polygon
10
0.3253687082935266
20
0.49181633371930894
11
0.3220103764519179
21
0.4892702637043833
0
LINE
8
Polygon
10
0.3220103764519179
20
0.4892702637043833
11
0.31892410735144394
21
0.48640045389906056
0
LINE
8
Polygon
10
0.31892410735144394
20
0.48640045389906056
11
0.31614097514726874
21
0.4832357990342531
0
LINE
8
Polygon
10
0.31614097514726874
20
0.4832357990342531
11
0.3136890018553405
21
0.47980816249358305
0
LINE
8
Polygon
10
0.3136890018553405
20
0.479808162493583
11
0.3115928752122274
21
0.4761520554963388
0
LINE
8
Polygon
10
0.3115928752122274
20
0.4761520554963388
11
0.3098737001062042
21
0.4723042896206524
0
LINE
8
Polygon
10
0.3098737001062042
20
0.4723042896206524
11
0.3085487860823103
21
0.46830360616547184
0
LINE
8
Polygon
10
0.3085487860823103
20
0.46830360616547184
11
0.30763147306088867
21
0.46419028608310564
0
LINE
8
Polygon
10
0.30763147306088867
20
0.46419028608310564
11
0.3071309970243613
21
0.4600057444097407
0
LINE
8
Polygon
10
0.3071309970243613
20
0.4600057444097407
11
0.30705239702457643
21
0.4557921132774154
0
LINE
8
Polygon
10
0.30705239702457643
20
0.4557921132774154
11
0.3073964644470256
21
0.45159181770590195
0
LINE
8
Polygon
10
0.3073964644470256
20
0.45159181770590195
11
0.3081597350427649
21
0.4474471484456417
0
LINE
8
Polygon
10
0.3081597350427649
20
0.4474471484456417
11
0.30933452380826676
21
0.44339983617257495
0
LINE
8
Polygon
10
0.30933452380826676
20
0.4433998361725749
11
0.31090900236201446
21
0.43949063132208993
0
LINE
8
Polygon
10
0.31090900236201446
20
0.43949063132208993
11
0.3128673180387708
21
0.43575889379254196
0
LINE
8
Polygon
10
0.3128673180387708
20
0.43575889379254196
11
0.31518975350241957
21
0.43224219664941843
0
LINE
8
Polygon
10
0.31518975350241957
20
0.43224219664941843
11
0.3178529252703135
21
0.42897594782026305
0
LINE
8
Polygon
10
0.3178529252703135
20
0.42897594782026305
11
0.32083001915028425
21
0.4259930335893293
0
LINE
8
Polygon
10
0.32083001915028425
20
0.4259930335893292
11
0.32409106021981143
21
0.42332348748144427
0
LINE
8
Polygon
10
0.32409106021981143
20
0.42332348748144427
11
0.3276032146290616
21
0.42099418786893184
0
LINE
8
Polygon
10
0.3276032146290616
20
0.42099418786893184
11
0.33133112018908784
21
0.4190285873462436
0
LINE
8
Polygon
10
0.33133112018908784
20
0.4190285873462436
11
0.33523724241665565
21
0.4174464765970964
0
LINE
8
Polygon
10
0.33523724241665565
20
0.4174464765970964
11
0.3392822524508534
21
0.41626378513162193
0
LINE
8
Polygon
10
0.3392822524508534
20
0.41626378513162193
11
0.3434254230364256
21
0.41549242089981187
0
LINE
8
Polygon
10
0.3434254230364256
20
0.41549242089981187
11
0.34762503858686467
21
0.415140150396112
0
LINE
8
Polygon
10
0.34762503858686467
20
0.415140150396112
11
0.3518388151985334
21
0.41521052046233536
0
LINE
8
Polygon
10
0.3518388151985334
20
0.41521052046233536
11
0.3560243263868984
21
0.4157028225762223
0
LINE
8
Polygon
10
0.3560243263868984
20
0.4157028225762223
11
0.3601394302583422
21
0.4166120999852097
0
LINE
8
Polygon
10
0.3601394302583422
20
0.4166120999852097
11
0.36414269381656605
21
0.4179291976135818
0
LINE
8
Polygon
10
0.36414269381656605
20
0.4179291976135818
11
0.36799381013144805
21
0.4196408542405126
0
LINE
8
Polygon
10
0.36799381013144805
20
0.4196408542405126
11
0.3716540041700838
21
0.42172983602090275
0
LINE
8
Polygon
10
0.3716540041700838
20
0.42172983602090275
11
0.37508642320389274
21
0.42417511000465447
0
LINE
8
Polygon
10
0.3750864232038927
20
0.42417511000465447
11
0.37825650786096915
21
0.42695205590730273
0
LINE
8
Polygon
10
0.37825650786096915
20
0.42695205590730273
11
0.38113234008773134
21
0.43003271399978593
0
LINE
8
Polygon
10
0.38113234008773134
20
0.43003271399978593
11
0.38368496451640993
21
0.43338606662147366
0
LINE
8
Polygon
10
0.38368496451640993
20
0.43338606662147366
11
0.38588868000268156
21
0.43697835048203276
0
LINE
8
Polygon
10
0.38588868000268156
20
0.43697835048203276
11
0.3877212983980964
21
0.4407733966077147
0
LINE
8
Polygon
10
0.3877212983980964
20
0.4407733966077147
11
0.38916436795184417
21
0.44473299450930937
0
LINE
8
Polygon
10
0.38916436795184417
20
0.44473299450930937
11
0.39020335909253445
21
0.44881727690513284
0
LINE
8
Polygon
10
0.39020335909253445
20
0.44881727690513284
11
0.39082781071944384
21
0.45298512112546024
0
LINE
8
Polygon
10
0.3908278107194439
20
0.4529851211254603
11
0.391031435530294
21
0.457194563156855
0
LINE
8
Polygon
10
0.391031435530294
20
0.457194563156855
11
0.39081218332506623
21
0.4614032201575821
0
LINE
8
Polygon
10
0.39081218332506623
20
0.4614032201575821
11
0.3901722616484766
21
0.4655687171900018
0
LINE
8
Polygon
10
0.39017226164847657
20
0.4655687171900018
11
0.39010399536788154
21
0.4659440507175736
0
LINE
8
Polygon
10
0.39010399536788154
20
0.4659440507175736
11
0.3900528410990355
21
0.46632209672372177
0
LINE
8
Polygon
10
0.3900528410990355
20
0.46632209672372177
11
0.3900189043516358
21
0.46670207545886583
0
LINE
8
Polygon
10
0.3900189043516358
20
0.46670207545886583
11
0.3900022551228894
21
0.46708320318701996
0
LINE
8
Polygon
10
0.3900022551228894
20
0.46708320318701996
11
0.39000292775313833
21
0.46746469380230987
0
LINE
8
Polygon
10
0.39000292775313833
20
0.46746469380230987
11
0.3900209208550299
21
0.4678457604503783
0
LINE
8
Polygon
10
0.3900209208550299
20
0.4678457604503783
11
0.3900561973163781
21
0.46822561715133343
0
LINE
8
Polygon
10
0.3900561973163781
20
0.46822561715133343
11
0.39010868437671076
21
0.4686034804208945
0
LINE
8
Polygon
10
0.39010868437671076
20
0.4686034804208945
11
0.3901782737773435
21
0.4689785708863896
0
LINE
8
Polygon
10
0.3901782737773435
20
0.4689785708863896
11
0.39026482198467166
21
0.469350114894273
0
LINE
8
Polygon
10
0.39026482198467166
20
0.469350114894273
11
0.39036815048622
21
0.4697173461058462
0
LINE
8
Polygon
10
0.39036815048622
20
0.4697173461058462
11
0.39048804615883825
21
0.47007950707789203
0
LINE
8
Polygon
10
0.39048804615883825
20
0.47007950707789203
11
0.39062426170828474
21
0.4704358508249604
0
LINE
8
Polygon
10
0.39062426170828474
20
0.4704358508249604
11
0.39077651617929
21
0.4707856423600848
0
LINE
8
Polygon
10
0.39077651617929
20
0.4707856423600848
11
0.390944495535049
21
0.4711281602107503
0
LINE
8
Polygon
10
0.390944495535049
20
0.4711281602107503
11
0.391127853304947
21
0.4714626979069877
0
LINE
8
Polygon
10
0.391127853304947
20
0.4714626979069877
11
0.39132621129918205
21
0.4717885654385229
0
LINE
8
Polygon
10
0.39132621129918205
20
0.4717885654385229
11
0.3915391603888115
21
0.4721050906779774
0
LINE
8
Polygon
10
0.3915391603888115
20
0.4721050906779774
11
0.39176626134961223
21
0.4724116207671842
0
LINE
8
Polygon
10
0.39176626134961223
20
0.4724116207671842
11
0.3920070457680156
21
0.47270752346375844
0
LINE
8
Polygon
10
0.3920070457680156
20
0.47270752346375844
11
0.39226101700724664
21
0.47299218844514745
0
LINE
8
Polygon
10
0.39226101700724664
20
0.47299218844514745
11
0.3925276512316768
21
0.4732650285674687
0
LINE
8
Polygon
10
0.3925276512316768
20
0.4732650285674687
11
0.39280639848727605
21
0.47352548107654024
0
LINE
8
Polygon
10
0.39280639848727605
20
0.47352548107654024
11
0.39309668383593604
21
0.4737730087686054
0
LINE
8
Polygon
10
0.39309668383593604
20
0.4737730087686054
11
0.39339790854132534
21
0.4740071010983578
0
LINE
8
Polygon
10
0.39339790854132534
20
0.4740071010983578
11
0.39370945130383
21
0.474227275231981
0
LINE
8
Polygon
10
0.39370945130383
20
0.474227275231981
11
0.39403066954203286
21
0.47443307704303134
0
LINE
8
Polygon
10
0.39403066954203286
20
0.47443307704303134
11
0.3943609007180883
21
0.47462408204910916
0
LINE
8
Polygon
10
0.3943609007180883
20
0.47462408204910916
11
0.39469946370425835
21
0.4747998962873875
0
LINE
8
Polygon
10
0.39469946370425835
20
0.4747998962873875
11
0.39504566018779236
21
0.4749601571271908
0
LINE
8
Polygon
10
0.39504566018779236
20
0.4749601571271908
11
0.3953987761112517
21
0.47510453401794966
0
LINE
8
Polygon
10
0.3953987761112517
20
0.47510453401794966
11
0.3957580831453096
21
0.4752327291709872
0
LINE
8
Polygon
10
0.3957580831453096
20
0.4752327291709872
11
0.39612284019098715
21
0.4753444781737314
0
LINE
8
Polygon
10
0.39612284019098715
20
0.4753444781737314
11
0.3964922949082287
21
0.4754395505350869
0
LINE
8
Polygon
10
0.3964922949082287
20
0.4754395505350869
11
0.39686568526766186
21
0.47551775016084136
0
LINE
8
Polygon
10
0.39686568526766186
20
0.47551775016084136
11
0.39724224112234313
21
0.4755789157581245
0
LINE
8
Polygon
10
0.39724224112234313
20
0.4755789157581245
11
0.3976211857962465
21
0.47562292116808785
0
LINE
8
Polygon
10
0.3976211857962465
20
0.47562292116808785
11
0.3980017376862186
21
0.475649675626117
0
LINE
8
Polygon
10
0.3980017376862186
20
0.475649675626117
11
0.3983831118740967
21
0.4756591239490409
0
LINE
8
Polygon
10
0.3983831118740967
20
0.4756591239490409
11
0.3987645217456641
21
0.47565124664895153
0
LINE
8
Polygon
10
0.39876452174566407
20
0.47565124664895153
11
0.39914518061310367
21
0.4756260599733989
0
LINE
8
Polygon
10
0.39914518061310367
20
0.4756260599733989
11
0.39952430333760325
21
0.47558361587187964
0
LINE
8
Polygon
10
0.39952430333760325
20
0.47558361587187964
11
0.39990110794876615
21
0.47552400188868676
0
LINE
8
Polygon
10
0.39990110794876615
20
0.47552400188868676
11
0.4002748172574866
21
0.47544734098234287
0
LINE
8
Polygon
10
0.4002748172574866
20
0.47544734098234287
11
0.4006446604589631
21
0.4753537912719885
0
LINE
8
Polygon
10
0.4006446604589631
20
0.4753537912719885
11
0.401009874722544
21
0.47524354571124894
0
LINE
8
Polygon
10
0.401009874722544
20
0.47524354571124894
11
0.4013697067651258
21
0.47511683169025215
0
LINE
8
Polygon
10
0.4013697067651258
20
0.47511683169025215
11
0.40172341440485837
21
0.474973910566619
0
LINE
8
Polygon
10
0.40172341440485837
20
0.474973910566619
11
0.4025636124744851
21
0.4746152552459394
0
LINE
8
Polygon
10
0.4025636124744851
20
0.4746152552459394
11
0.40340613298788114
21
0.4742620901007693
0
LINE
8
Polygon
10
0.40340613298788114
20
0.4742620901007693
11
0.40425094007059037
21
0.4739144301688523
0
LINE
8
Polygon
10
0.40425094007059037
20
0.4739144301688523
11
0.40509799775079464
21
0.47357229025352066
0
LINE
8
Polygon
10
0.40509799775079464
20
0.47357229025352066
11
0.4059472699608455
21
0.4732356849230645
0
LINE
8
Polygon
10
0.4059472699608455
20
0.4732356849230645
11
0.4067987205388001
21
0.47290462851011206
0
LINE
8
Polygon
10
0.4067987205388001
20
0.47290462851011206
11
0.40765231322996087
21
0.4725791351110189
0
LINE
8
Polygon
10
0.40765231322996087
20
0.4725791351110189
11
0.408508011688419
21
0.47225921858526804
0
LINE
8
Polygon
10
0.408508011688419
20
0.47225921858526804
11
0.4093657794786026
21
0.4719448925548796
0
LINE
8
Polygon
10
0.4093657794786026
20
0.4719448925548796
11
0.4102255800768275
21
0.4716361704038307
0
LINE
8
Polygon
10
0.4102255800768275
20
0.4716361704038307
11
0.411087376872853
21
0.4713330652774861
0
LINE
8
Polygon
10
0.411087376872853
20
0.4713330652774861
11
0.4119511331714403
21
0.4710355900820377
0
LINE
8
Polygon
10
0.4119511331714403
20
0.4710355900820377
11
0.41281681219391503
21
0.4707437574839557
0
LINE
8
Polygon
10
0.41281681219391503
20
0.4707437574839557
11
0.4136843770797337
21
0.4704575799094488
0
LINE
8
Polygon
10
0.4136843770797337
20
0.4704575799094488
11
0.4145537908880526
21
0.47017706954393523
0
LINE
8
Polygon
10
0.4145537908880526
20
0.47017706954393523
11
0.4154250165993013
21
0.469902238331524
0
LINE
8
Polygon
10
0.4154250165993013
20
0.469902238331524
11
0.4162980171167585
21
0.46963309797450625
0
LINE
8
Polygon
10
0.4162980171167585
20
0.46963309797450625
11
0.41717275526813186
21
0.4693696599328568
0
LINE
8
Polygon
10
0.41717275526813186
20
0.4693696599328568
11
0.41804919380714073
21
0.4691119354237464
0
LINE
8
Polygon
10
0.41804919380714073
20
0.4691119354237464
11
0.41892729541510215
21
0.46885993542106424
0
LINE
8
Polygon
10
0.41892729541510215
20
0.46885993542106424
11
0.4198070227025196
21
0.4686136706549502
0
LINE
8
Polygon
10
0.4198070227025196
20
0.4686136706549502
11
0.42068833821067564
21
0.4683731516113383
0
LINE
8
Polygon
10
0.42068833821067564
20
0.4683731516113383
11
0.4215712044132261
21
0.46813838853151035
0
LINE
8
Polygon
10
0.4215712044132261
20
0.46813838853151035
11
0.4224555837177986
21
0.46790939141165944
0
LINE
8
Polygon
10
0.4224555837177986
20
0.46790939141165944
11
0.42334143846759303
21
0.4676861700024647
0
LINE
8
Polygon
10
0.42334143846759303
20
0.4676861700024647
11
0.4242287309429848
21
0.46746873380867593
0
LINE
8
Polygon
10
0.4242287309429848
20
0.46746873380867593
11
0.42511742336313113
21
0.4672570920887089
0
LINE
8
Polygon
10
0.42511742336313113
20
0.4672570920887089
11
0.42600747788757976
21
0.46705125385425117
0
LINE
8
Polygon
10
0.42600747788757976
20
0.46705125385425117
11
0.42689885661788013
21
0.4668512278698782
0
LINE
8
Polygon
10
0.42689885661788013
20
0.4668512278698782
11
0.427791521599197
21
0.4666570226526806
0
LINE
8
Polygon
10
0.427791521599197
20
0.4666570226526806
11
0.42868543482192667
21
0.4664686464719009
0
LINE
8
Polygon
10
0.42868543482192667
20
0.4664686464719009
11
0.42958055822331564
21
0.4662861073485819
0
LINE
8
Polygon
10
0.42958055822331564
20
0.4662861073485819
11
0.43047685368908084
21
0.4661094130552249
0
LINE
8
Polygon
10
0.43047685368908084
20
0.4661094130552249
11
0.4313742830550329
21
0.4659385711154588
0
LINE
8
Polygon
10
0.4313742830550329
20
0.4659385711154588
11
0.4322728081087011
21
0.46577358880371966
0
LINE
8
Polygon
10
0.4322728081087011
20
0.46577358880371966
11
0.43317239059096035
21
0.4656144731449413
0
LINE
8
Polygon
10
0.43317239059096035
20
0.4656144731449413
11
0.4340729921976604
21
0.4654612309142556
0
LINE
8
Polygon
10
0.4340729921976604
20
0.4654612309142556
11
0.43497457458125666
21
0.4653138686367047
0
LINE
8
Polygon
10
0.43497457458125666
20
0.4653138686367047
11
0.43587709935244334
21
0.4651723925869625
0
LINE
8
Polygon
10
0.43587709935244334
20
0.4651723925869625
11
0.43678052808178763
21
0.4650368087890679
0
LINE
8
Polygon
10
0.43678052808178763
20
0.4650368087890679
11
0.4376848223013664
21
0.4649071230161682
0
LINE
8
Polygon
10
0.4376848223013664
20
0.4649071230161682
11
0.438589943506404
21
0.4647833407902733
0
LINE
8
Polygon
10
0.438589943506404
20
0.4647833407902733
11
0.43949585315691175
21
0.4646654673820204
0
LINE
8
Polygon
10
0.43949585315691175
20
0.4646654673820204
11
0.440402512679329
21
0.4645535078104499
0
LINE
8
Polygon
10
0.440402512679329
20
0.4645535078104499
11
0.4413098834681658
21
0.4644474668427915
0
LINE
8
Polygon
10
0.4413098834681658
20
0.4644474668427915
11
0.4422179268876463
21
0.4643473489942609
0
LINE
8
Polygon
10
0.4422179268876463
20
0.4643473489942609
11
0.44312660427335415
21
0.46425315852786825
0
LINE
8
Polygon
10
0.44312660427335415
20
0.46425315852786825
11
0.4440358769338789
21
0.4641648994542361
0
LINE
8
Polygon
10
-0.4641648994542361
20
0.4440358769338789
11
0.4342481974573358
21
0.3597888098115213
0
LINE
8
Polygon
10
0.4342481974573358
20
0.3597888098115213
11
0.4440358769338789
21
0.4641648994542361
0
LINE
8
Polygon
10
0.32776364663496727
20
0.5499777100621611
11
0.2071067811865475
21
0.49999999999999994
0
LINE
8
Polygon
10
0.2071067811865475
20
0.49999999999999994
11
0.0
21
1.0
0
LINE
8
Polygon
10
0.0
20
1.0
11
-0.20710678118654754
21
0.49999999999999994
0
LINE
8
Polygon
10
-0.20710678118654754
20
0.49999999999999994
11
-0.7071067811865476
21
0.7071067811865476
0
LINE
8
Polygon
10
-0.7071067811865476
20
0.7071067811865476
11
-0.6571290711243863
21
0.5864499157381277
0
ENDSEC
0
EOF
