0
SECTION
2
ENTITIES
0
LINE
8
Polygon
10
-0.4641648994542361
20
0.4440358769338789
11
-0.46398998954699433
21
0.44605883620137576
0
LINE
8
Polygon
10
-0.46398998954699433
20
0.44605883620137576
11
-0.4638444374966555
21
0.448084119459156
0
LINE
8
Polygon
10
-0.4638444374966555
20
0.448084119459156
11
-0.4637282739208188
21
0.4501113006787936
0
LINE
8
Polygon
10
-0.4637282739208188
20
0.4501113006787936
11
-0.4636415232550712
21
0.452139953432617
0
LINE
8
Polygon
10
-0.4636415232550712
20
0.452139953432617
11
-0.4635842037478476
21
0.4541696509834098
0
LINE
8
Polygon
10
-0.4635842037478476
20
0.4541696509834098
11
-0.4635563274565919
21
0.45619996637417753
0
LINE
8
Polygon
10
-0.4635563274565919
20
0.45619996637417753
11
-0.46355790024522103
21
0.4582304725179601
0
LINE
8
Polygon
10
-0.46355790024522103
20
0.4582304725179601
11
-0.463588921782891
21
0.46026074228767133
0
LINE
8
Polygon
10
-0.463588921782891
20
0.46026074228767133
11
-0.46364938554406676
21
0.46229034860594764
0
LINE
8
Polygon
10
-0.46364938554406676
20
0.46229034860594764
11
-0.46373927880989474
21
0.4643188645349858
0
LINE
8
Polygon
10
-0.46373927880989474
20
0.4643188645349858
11
-0.46385858267087876
21
0.4663458633663513
0
LINE
8
Polygon
10
-0.46385858267087876
20
0.4663458633663513
11
-0.46400727203085684
21
0.4683709187107387
0
LINE
8
Polygon
10
-0.46400727203085684
20
0.4683709187107387
11
-0.46418531561228127
21
0.47039360458766477
0
LINE
8
Polygon
10
-0.46418531561228127
20
0.47039360458766477
11
-0.46439267596279754
21
0.4724134955150756
0
LINE
8
Polygon
10
-0.46439267596279754
20
0.4724134955150756
11
-0.46462930946312236
21
0.47443016659884873
0
LINE
8
Polygon
10
-0.46462930946312236
20
0.47443016659884873
11
-0.46489516633621986
21
0.47644319362217197
0
LINE
8
Polygon
10
-0.46489516633621986
20
0.47644319362217197
11
-0.46519019065777195
21
0.4784521531347793
0
LINE
8
Polygon
10
-0.46519019065777195
20
0.4784521531347793
11
-0.46551432036794227
21
0.4804566225420259
0
LINE
8
Polygon
10
-0.46551432036794227
20
0.48045662254202587
11
-0.46586748728443106
21
0.482456180193783
0
LINE
8
Polygon
10
-0.46586748728443106
20
0.482456180193783
11
-0.46624961711681756
21
0.4844504054731341
0
LINE
8
Polygon
10
-0.46624961711681756
20
0.4844504054731341
11
-0.4666606294821871
21
0.48643887888485376
0
LINE
8
Polygon
10
-0.4666606294821871
20
0.48643887888485376
11
-0.4671004379220406
21
0.4884211821436506
0
LINE
8
Polygon
10
-0.4671004379220406
20
0.4884211821436506
11
-0.4675689499204809
21
0.4903968982621555
0
LINE
8
Polygon
10
-0.4675689499204809
20
0.4903968982621555
11
-0.46806606692367436
21
0.4923656116386374
0
LINE
8
Polygon
10
-0.46806606692367436
20
0.4923656116386374
11
-0.4685916843605821
21
0.4943269081444267
0
LINE
8
Polygon
10
-0.4685916843605821
20
0.49432690814442665
11
-0.4691456916649569
21
0.4962803752110296
0
LINE
8
Polygon
10
-0.4691456916649569
20
0.4962803752110296
11
-0.46972797229860147
21
0.4982256019169138
0
LINE
8
Polygon
10
-0.4697279722986014
20
0.4982256019169138
11
-0.4703384037758828
21
0.500162179073948
0
LINE
8
Polygon
10
-0.4703384037758828
20
0.500162179073948
11
-0.4709768576894977
21
0.5020896993134767
0
LINE
8
Polygon
10
-0.4709768576894977
20
0.5020896993134767
11
-0.47164319973748386
21
0.5040077571720117
0
LINE
8
Polygon
10
-0.47164319973748386
20
0.5040077571720117
11
-0.47233728975147077
21
0.5059159491765245
0
LINE
8
Polygon
10
-0.47233728975147077
20
0.5059159491765245
11
-0.4730589817261651
21
0.5078138739293175
0
LINE
8
Polygon
10
-0.4730589817261651
20
0.5078138739293175
11
-0.47380812385006355
21
0.5097011321924612
0
LINE
8
Polygon
10
-0.47380812385006355
20
0.5097011321924612
11
-0.4745845585373871
21
0.5115773269717746
0
LINE
8
Polygon
10
-0.4745845585373871
20
0.5115773269717747
11
-0.4753881224612302
21
0.5134420636003366
0
LINE
8
Polygon
10
-0.4753881224612302
20
0.5134420636003366
11
-0.47621864658791674
21
0.5152949498215046
0
LINE
8
Polygon
10
-0.47621864658791674
20
0.5152949498215046
11
-0.47707595621255805
21
0.5171355958714284
0
LINE
8
Polygon
10
-0.4770759562125581
20
0.5171355958714284
11
-0.4779598709958024
21
0.5189636145610388
0
LINE
8
Polygon
10
-0.4779598709958024
20
0.5189636145610388
11
-0.4788702050017701
21
0.5207786213574949
0
LINE
8
Polygon
10
-0.4788702050017701
20
0.5207786213574949
11
-0.47980676673716655
21
0.522580234465072
0
LINE
8
Polygon
10
-0.47980676673716655
20
0.522580234465072
11
-0.4807693591915635
21
0.5243680749054751
0
LINE
8
Polygon
10
-0.4807693591915635
20
0.5243680749054751
11
-0.4817577798788413
21
0.5261417665975581
0
LINE
8
Polygon
10
-0.4817577798788413
20
0.5261417665975581
11
-0.48277182087978265
21
0.5279009364364344
0
LINE
8
Polygon
10
-0.48277182087978265
20
0.5279009364364344
11
-0.4838112688858097
21
0.5296452143719622
0
LINE
8
Polygon
10
-0.4838112688858097
20
0.5296452143719622
11
-0.4848759052438545
21
0.5313742334865853
0
LINE
8
Polygon
10
-0.4848759052438545
20
0.5313742334865853
11
-0.48596550600235366
21
0.5330876300725166
0
LINE
8
Polygon
10
-0.48596550600235366
20
0.5330876300725166
11
-0.4870798419583577
21
0.5347850437082456
0
LINE
8
Polygon
10
-0.48707984195835774
20
0.5347850437082456
11
-0.48821867870574526
21
0.5364661173343557
0
LINE
8
Polygon
10
-0.4882186787057452
20
0.5364661173343557
11
-0.4884710950828486
21
0.536813590893091
0
LINE
8
Polygon
10
-0.4884710950828486
20
0.536813590893091
11
-0.4887409415015327
21
0.5371477088539576
0
LINE
8
Polygon
10
-0.4887409415015327
20
0.5371477088539576
11
-0.4890275125524293
21
0.5374675977944325
0
LINE
8
Polygon
10
-0.4890275125524293
20
0.5374675977944325
11
-0.4893300591060707
21
0.5377724214882786
0
LINE
8
Polygon
10
-0.4893300591060707
20
0.5377724214882786
11
-0.4896477902711999
21
0.538061383091534
0
LINE
8
Polygon
10
-0.4896477902711999
20
0.538061383091534
11
-0.4899798754622506
21
0.5383337272255538
0
LINE
8
Polygon
10
-0.4899798754622506
20
0.5383337272255538
11
-0.49032544657059274
21
0.538588741951657
0
LINE
8
Polygon
10
-0.49032544657059274
20
0.538588741951657
11
-0.49068360023386776
21
0.5388257606322138
0
LINE
8
Polygon
10
-0.49068360023386776
20
0.5388257606322138
11
-0.49105340019748106
21
0.539044163673314
0
LINE
8
Polygon
10
-0.49105340019748106
20
0.539044163673314
11
-0.4914338797620782
21
0.5392433801444558
0
LINE
8
Polygon
10
-0.4914338797620782
20
0.5392433801444558
11
-0.49182404431060767
21
0.5394228892710233
0
LINE
8
Polygon
10
-0.49182404431060767
20
0.5394228892710233
11
-0.49222287390836345
21
0.5395822217956509
0
LINE
8
Polygon
10
-0.49222287390836345
20
0.5395822217956509
11
-0.492629325969211
21
0.5397209612049152
0
LINE
8
Polygon
10
-0.492629325969211
20
0.5397209612049152
11
-0.49304233798102626
21
0.5398387448181496
0
LINE
8
Polygon
10
-0.49304233798102626
20
0.5398387448181496
11
-0.4934608302832238
21
0.5399352647355325
0
LINE
8
Polygon
10
-0.4934608302832238
20
0.5399352647355325
11
-0.4938837088891132
21
0.5400102686429725
0
LINE
8
Polygon
10
-0.4938837088891132
20
0.5400102686429725
11
-0.49430986834570495
21
0.5400635604716864
0
LINE
8
Polygon
10
-0.49430986834570495
20
0.5400635604716864
11
-0.494738194623491
21
0.5400950009107451
0
LINE
8
Polygon
10
-0.494738194623491
20
0.5400950009107451
11
-0.49516756802864503
21
0.5401045077712491
0
LINE
8
Polygon
10
-0.49516756802864503
20
0.5401045077712491
11
-0.49559686613003034
21
0.5400920562011788
0
LINE
8
Polygon
10
-0.49559686613003034
20
0.5400920562011788
11
-0.4960249666933627
21
0.540057678750361
0
LINE
8
Polygon
10
-0.4960249666933627
20
0.540057678750361
11
-0.4964507506148593
21
0.5400014652853797
0
LINE
8
Polygon
10
-0.4964507506148593
20
0.5400014652853797
11
-0.4968731048467038
21
0.5399235627546549
0
LINE
8
Polygon
10
-0.4968731048467038
20
0.5399235627546549
11
-0.4972909253066801
21
0.5398241748043019
0
LINE
8
Polygon
10
-0.4972909253066801
20
0.5398241748043019
11
-0.4977031197643703
21
0.5397035612457782
0
LINE
8
Polygon
10
-0.4977031197643703
20
0.5397035612457782
11
-0.4981086106963688
21
0.5395620373767058
0
LINE
8
Polygon
10
-0.4981086106963688
20
0.5395620373767058
11
-0.4985063381030522
21
0.5393999731566476
0
LINE
8
Polygon
10
-0.4985063381030522
20
0.5393999731566476
11
-0.4988952622795393
21
0.5392177922399903
0
LINE
8
Polygon
10
-0.4988952622795393
20
0.5392177922399903
11
-0.4992743665335983
21
0.5390159708684644
0
LINE
8
Polygon
10
-0.4992743665335983
20
0.5390159708684644
11
-0.49964265984339656
21
0.5387950366261929
0
LINE
8
Polygon
10
-0.49964265984339656
20
0.5387950366261929
11
-0.499999179448145
21
0.5385555670605269
0
LINE
8
Polygon
10
-0.499999179448145
20
0.5385555670605269
11
-0.5003429933648644
21
0.5382981881722703
0
LINE
8
Polygon
10
-0.5003429933648644
20
0.5382981881722703
11
-0.5006732028246962
21
0.5380235727792423
0
LINE
8
Polygon
10
-0.5006732028246962
20
0.5380235727792423
11
-0.5009889446223857
21
0.5377324387574551
0
LINE
8
Polygon
10
-0.5009889446223857
20
0.5377324387574551
11
-0.5012893933728008
21
0.5374255471645036
0
LINE
8
Polygon
10
-0.5012893933728008
20
0.5374255471645036
11
-0.5015737636685814
21
0.537103700250074
0
LINE
8
Polygon
10
-0.5015737636685814
20
0.537103700250074
11
-0.5018413121332853
21
0.5367677393587715
0
LINE
8
Polygon
10
-0.5018413121332853
20
0.5367677393587715
11
-0.5020913393646586
21
0.5364185427307493
0
LINE
8
Polygon
10
-0.5020913393646586
20
0.5364185427307493
11
-0.5023231917629527
21
0.5360570232058887
0
LINE
8
Polygon
10
-0.5023231917629527
20
0.5360570232058885
11
-0.5025362632395096
21
0.5356841258375309
0
LINE
8
Polygon
10
-0.5025362632395096
20
0.5356841258375309
11
-0.5027299968011462
21
0.5353008254220004
0
LINE
8
Polygon
10
-0.5027299968011462
20
0.5353008254220004
11
-0.5029038860061984
21
0.5349081239503753
0
LINE
8
Polygon
10
-0.5029038860061984
20
0.5349081239503753
11
-0.5030574762884175
21
0.5345070479891684
0
LINE
8
Polygon
10
-0.5030574762884175
20
0.5345070479891684
11
-0.5031903661452581
21
0.5340986459967649
0
LINE
8
Polygon
10
-0.5031903661452581
20
0.5340986459967649
11
-0.5033022081874517
21
0.5336839855826329
0
LINE
8
Polygon
10
-0.5033022081874517
20
0.5336839855826329
11
-0.5033927100471224
21
0.5332641507164695
0
LINE
8
Polygon
10
-0.5033927100471224
20
0.5332641507164695
11
-0.503461635142069
21
0.532840238894581
0
LINE
8
Polygon
10
-0.503461635142069
20
0.532840238894581
11
-0.5035088032942185
21
0.5324133582709014
0
LINE
8
Polygon
10
-0.5610811339993973
20
0.5749036717220108
11
-0.564458914585637
21
0.5733631621028551
0
LINE
8
Polygon
10
-0.564458914585637
20
0.5733631621028551
11
-0.5676874628786609
21
0.5715303916603005
0
LINE
8
Polygon
10
-0.5676874628786609
20
0.5715303916603005
11
-0.5707415534261258
21
0.5694196802865276
0
LINE
8
Polygon
10
-0.5707415534261258
20
0.5694196802865276
11
-0.573597323857528
21
0.5670475194954727
0
LINE
8
Polygon
10
-0.573597323857528
20
0.5670475194954727
11
-0.5762324613268506
21
0.5644324435705211
0
LINE
8
Polygon
10
-0.5762324613268506
20
0.5644324435705211
11
-0.5786263768483892
21
0.5615948847515316
0
LINE
8
Polygon
10
-0.5786263768483892
20
0.5615948847515316
11
-0.5807603661636286
21
0.5585570135926552
0
LINE
8
Polygon
10
-0.5807603661636286
20
0.5585570135926552
11
-0.5826177558822746
21
0.5553425657382707
0
LINE
8
Polygon
10
-0.5826177558822746
20
0.5553425657382707
11
-0.584184033755608
21
0.5519766564704807
0
LINE
8
Polygon
10
-0.584184033755608
20
0.5519766564704807
11
-0.5854469620642999
21
0.5484855844771535
0
LINE
8
Polygon
10
-0.5854469620642999
20
0.5484855844771535
11
-0.5863966732347621
21
0.5448966263737217
0
LINE
8
Polygon
10
-0.5863966732347621
20
0.5448966263737217
11
-0.5870257469369591
21
0.5412378235841888
0
LINE
8
Polygon
10
-0.5870257469369591
20
0.5412378235841888
11
-0.587329268061295
21
0.5375377632464956
0
LINE
8
Polygon
10
-0.587329268061295
20
0.5375377632464956
11
-0.5873048651215905
21
0.5338253548540874
0
LINE
8
Polygon
10
-0.5873048651215905
20
0.5338253548540874
11
-0.5869527287840943
21
0.5301296043788384
0
LINE
8
Polygon
10
-0.5869527287840943
20
0.5301296043788384
11
-0.586275610377761
21
0.5264793876401647
0
LINE
8
Polygon
10
-0.586275610377761
20
0.5264793876401647
11
-0.5852788003974322
21
0.522903224691052
0
LINE
8
Polygon
10
-0.5852788003974322
20
0.522903224691052
11
-0.5839700871678816
21
0.5194290569837747
0
LINE
8
Polygon
10
-0.5839700871678816
20
0.5194290569837747
11
-0.5823596959916932
21
0.5160840290563661
0
LINE
8
Polygon
10
-0.5823596959916932
20
0.5160840290563661
11
-0.5804602092564238
21
0.5128942764455787
0
LINE
8
Polygon
10
-0.5804602092564238
20
0.5128942764455787
11
-0.5782864681252741
21
0.509884721483423
0
LINE
8
Polygon
10
-0.5782864681252741
20
0.509884721483423
11
-0.5758554565793813
21
0.5070788785727764
0
LINE
8
Polygon
10
-0.5758554565793813
20
0.5070788785727764
11
-0.5731861687177434
21
0.5044986704634951
0
LINE
8
Polygon
10
-0.5731861687177434
20
0.5044986704634951
11
-0.5702994603515897
21
0.5021642569645048
0
LINE
8
Polygon
10
-0.5702994603515897
20
0.5021642569645048
11
-0.567217886052731
21
0.5000938774301918
0
LINE
8
Polygon
10
-0.567217886052731
20
0.5000938774301918
11
-0.5639655229290692
21
0.49830370825178044
0
LINE
8
Polygon
10
-0.5639655229290692
20
0.49830370825178044
11
-0.560567782504154
21
0.49680773646715826
0
LINE
8
Polygon
10
-0.5605677825041541
20
0.49680773646715826
11
-0.5570512121706164
21
0.4956176504766635
0
LINE
8
Polygon
10
-0.5570512121706164
20
0.4956176504766635
11
-0.553443287768775
21
0.4947427487187002
0
LINE
8
Polygon
10
-0.553443287768775
20
0.4947427487187002
11
-0.5497721989110492
21
0.4941898670187224
0
LINE
8
Polygon
10
-0.5497721989110492
20
0.4941898670187224
11
-0.546066628729492
21
0.4939633251792259
0
LINE
8
Polygon
10
-0.546066628729492
20
0.4939633251792259
11
-0.5423555297673318
21
0.4940648932280552
0
LINE
8
Polygon
10
-0.5423555297673318
20
0.4940648932280552
11
-0.538667897765538
21
0.4944937775887348
0
LINE
8
Polygon
10
-0.538667897765538
20
0.4944937775887348
11
-0.5350325451118708
21
0.49524662728088004
0
LINE
8
Polygon
10
-0.5350325451118708
20
0.49524662728088004
11
-0.5314778757225155
21
0.4963175601022416
0
LINE
8
Polygon
10
-0.5314778757225155
20
0.4963175601022416
11
-0.528031663115208
21
0.49769820858781794
0
LINE
8
Polygon
10
-0.528031663115208
20
0.4976982085878179
11
-0.5247208334078195
21
0.49937778538694394
0
LINE
8
Polygon
10
-0.5247208334078195
20
0.4993777853869439
11
-0.5215712549378875
21
0.5013431675475502
0
LINE
8
Polygon
10
-0.5215712549378874
20
0.5013431675475503
11
-0.5186075361468486
21
0.5035789990490576
0
LINE
8
Polygon
10
-0.5186075361468486
20
0.5035789990490576
11
-0.5158528333081539
21
0.5060678107827924
0
LINE
8
Polygon
10
-0.5158528333081539
20
0.5060678107827924
11
-0.513328669601533
21
0.5087901570424859
0
LINE
8
Polygon
10
-0.513328669601533
20
0.5087901570424859
11
-0.5110547669470284
21
0.5117247674584229
0
LINE
8
Polygon
10
-0.5110547669470284
20
0.5117247674584229
11
-0.5090488919127192
21
0.514848713188141
0
LINE
8
Polygon
10
-0.5090488919127192
20
0.514848713188141
11
-0.5073267169000972
21
0.5181375860651901
0
LINE
8
Polygon
10
-0.5073267169000972
20
0.5181375860651901
11
-0.5059016976916891
21
0.5215656893062196
0
LINE
8
Polygon
10
-0.5059016976916891
20
0.5215656893062196
11
-0.5047849683176743
21
0.52510623828635
0
LINE
8
Polygon
10
-0.5047849683176743
20
0.5251062382863498
11
-0.5039852540629325
21
0.5287315698141211
0
LINE
8
Polygon
10
-0.5039852540629325
20
0.5287315698141211
11
-0.5035088032942187
21
0.5324133582709014
0
LINE
8
Polygon
10
-0.5610811339993973
20
0.5749036717220108
11
-0.5606871215421468
21
0.5750745696008205
0
LINE
8
Polygon
10
-0.5606871215421468
20
0.5750745696008205
11
-0.5603023589627553
21
0.5752653827527524
0
LINE
8
Polygon
10
-0.5603023589627553
20
0.5752653827527524
11
-0.5599278520745642
21
0.5754756123704272
0
LINE
8
Polygon
10
-0.5599278520745642
20
0.5754756123704272
11
-0.5595645798813667
21
0.5757047088896056
0
LINE
8
Polygon
10
-0.5595645798813667
20
0.5757047088896056
11
-0.5592134920181792
21
0.5759520734258122
0
LINE
8
Polygon
10
-0.5592134920181792
20
0.5759520734258122
11
-0.558875506268788
21
0.5762170593398882
0
LINE
8
Polygon
10
-0.558875506268788
20
0.5762170593398882
11
-0.5585515061665566
21
0.5764989739283797
0
LINE
8
Polygon
10
-0.5585515061665566
20
0.5764989739283797
11
-0.5582423386847691
21
0.5767970802343435
0
LINE
8
Polygon
10
-0.5582423386847691
20
0.5767970802343435
11
-0.5579488120225453
21
0.5771105989738377
0
LINE
8
Polygon
10
-0.5579488120225453
20
0.5771105989738377
11
-0.5576716934921154
21
0.5774387105730575
0
LINE
8
Polygon
10
-0.5576716934921154
20
0.5774387105730575
11
-0.5574117075129787
21
0.5777805573107961
0
LINE
8
Polygon
10
-0.5574117075129787
20
0.5777805573107961
11
-0.5571695337181879
21
0.5781352455606252
0
LINE
8
Polygon
10
-0.5571695337181879
20
0.5781352455606252
11
-0.5569458051777108
21
0.5785018481269368
0
LINE
8
Polygon
10
-0.5569458051777108
20
0.5785018481269368
11
-0.5567411067435132
21
0.5788794066687383
0
LINE
8
Polygon
10
-0.5567411067435132
20
0.5788794066687383
11
-0.5565559735206886
21
0.5792669342048655
0
LINE
8
Polygon
10
-0.5565559735206886
20
0.5792669342048655
11
-0.5563908894686331
21
0.5796634176940643
0
LINE
8
Polygon
10
-0.5563908894686331
20
0.5796634176940643
11
-0.5562462861359195
21
0.5800678206831955
0
LINE
8
Polygon
10
-0.5562462861359195
20
0.5800678206831955
11
-0.5561225415321803
21
0.580479086016643
0
LINE
8
Polygon
10
-0.5561225415321803
20
0.580479086016643
11
-0.5560199791399475
21
0.5808961385998381
0
LINE
8
Polygon
10
-0.5560199791399475
20
0.5808961385998381
11
-0.5559388670690322
21
0.5813178882096803
0
LINE
8
Polygon
10
-0.5559388670690322
20
0.5813178882096803
11
-0.5558794173556545
21
0.5817432323445048
0
LINE
8
Polygon
10
-0.5558794173556545
20
0.5817432323445048
11
-0.5558417854081575
21
0.5821710591061476
0
LINE
8
Polygon
10
-0.5558417854081575
20
0.5821710591061476
11
-0.5558260696007514
21
0.5826002501065749
0
LINE
8
Polygon
10
-0.5558260696007514
20
0.5826002501065749
11
-0.5558323110163522
21
0.5830296833914768
0
LINE
8
Polygon
10
-0.5558323110163522
20
0.5830296833914768
11
-0.5558604933391865
21
0.5834582363731836
0
LINE
8
Polygon
10
-0.5558604933391865
20
0.5834582363731836
11
-0.5559105428974427
21
0.5838847887652395
0
LINE
8
Polygon
10
-0.5559105428974427
20
0.5838847887652395
11
-0.5559823288558571
21
0.5843082255109582
0
LINE
8
Polygon
10
-0.5559823288558571
20
0.5843082255109582
11
-0.556075663557733
21
0.5847274396983086
0
LINE
8
Polygon
10
-0.556075663557733
20
0.5847274396983086
11
-0.5561903030154963
21
0.5851413354535103
0
LINE
8
Polygon
10
-0.5561903030154963
20
0.5851413354535103
11
-0.556325947548507
21
0.5855488308057717
0
LINE
8
Polygon
10
-0.556325947548507
20
0.5855488308057717
11
-0.5564822425664582
21
0.5859488605156856
0
LINE
8
Polygon
10
-0.5564822425664582
20
0.5859488605156856
11
-0.5566587794963166
21
0.5863403788598873
0
LINE
8
Polygon
10
-0.5566587794963166
20
0.5863403788598873
11
-0.5568550968503782
21
0.5867223623646941
0
LINE
8
Polygon
10
-0.5568550968503782
20
0.5867223623646941
11
-0.5570706814326501
21
0.5870938124815831
0
LINE
8
Polygon
10
-0.5570706814326501
20
0.5870938124815831
11
-0.5573049696804041
21
0.5874537581975107
0
LINE
8
Polygon
10
-0.5573049696804041
20
0.5874537581975107
11
-0.5575573491373931
21
0.5878012585732517
0
LINE
8
Polygon
10
-0.5575573491373931
20
0.5878012585732517
11
-0.5578271600548823
21
0.5881354052031222
0
LINE
8
Polygon
10
-0.5578271600548823
20
0.5881354052031222
11
-0.5581136971163076
21
0.5884553245896558
0
LINE
8
Polygon
10
-0.5581136971163076
20
0.5884553245896558
11
-0.5584162112810537
21
0.5887601804270252
0
LINE
8
Polygon
10
-0.5584162112810537
20
0.5887601804270252
11
-0.5587339117425318
21
0.589049175787242
0
LINE
8
Polygon
10
-0.5587339117425318
20
0.589049175787242
11
-0.5590659679954385
21
0.5893215552034169
0
LINE
8
Polygon
10
-0.5590659679954385
20
0.5893215552034169
11
-0.5594115120067914
21
0.5895766066446368
0
LINE
8
Polygon
10
-0.5594115120067914
20
0.5895766066446368
11
-0.5597696404850666
21
0.589813663377295
0
LINE
8
Polygon
10
-0.5597696404850666
20
0.589813663377295
11
-0.5601394172415057
21
0.5900321057080085
0
LINE
8
Polygon
10
-0.5601394172415057
20
0.5900321057080085
11
-0.5605198756374208
21
0.5902313626035679
0
LINE
8
Polygon
10
-0.5605198756374208
20
0.5902313626035679
11
-0.5609100211110976
21
0.5904109131836833
0
LINE
8
Polygon
10
-0.5609100211110976
20
0.5904109131836833
11
-0.5613088337776939
21
0.5905702880826246
0
LINE
8
Polygon
10
-0.5613088337776939
20
0.5905702880826246
11
-0.5617152710953351
21
0.5907090706761975
0
LINE
8
Polygon
10
-0.5617152710953351
20
0.5907090706761974
11
-0.5636573373650298
21
0.5913018069394015
0
LINE
8
Polygon
10
-0.5636573373650298
20
0.5913018069394015
11
-0.5656077959683369
21
0.591866314610198
0
LINE
8
Polygon
10
-0.5656077959683369
20
0.591866314610198
11
-0.5675662366165694
21
0.5924024749415853
0
LINE
8
Polygon
10
-0.5675662366165694
20
0.5924024749415853
11
-0.5695322473419773
21
0.5929101751495659
0
LINE
8
Polygon
10
-0.5695322473419773
20
0.5929101751495659
11
-0.5715054145844074
21
0.5933893084368709
0
LINE
8
Polygon
10
-0.5715054145844074
20
0.5933893084368709
11
-0.5734853232782972
21
0.5938397740154256
0
LINE
8
Polygon
10
-0.573485323278297
20
0.5938397740154256
11
-0.5754715569399861
21
0.594261477127551
0
LINE
8
Polygon
10
-0.5754715569399861
20
0.594261477127551
11
-0.5774636977553256
21
0.5946543290658954
0
LINE
8
Polygon
10
-0.5774636977553256
20
0.5946543290658954
11
-0.5794613266675677
21
0.5950182471920965
0
LINE
8
Polygon
10
-0.5794613266675676
20
0.5950182471920965
11
-0.5814640234655155
21
0.5953531549541625
0
LINE
8
Polygon
10
-0.5814640234655155
20
0.5953531549541625
11
-0.5834713668719176
21
0.5956589819025769
0
LINE
8
Polygon
10
-0.5834713668719176
20
0.5956589819025769
11
-0.5854829346320853
21
0.595935663705117
0
LINE
8
Polygon
10
-0.5854829346320853
20
0.595935663705117
11
-0.5874983036027157
21
0.5961831421603867
0
LINE
8
Polygon
10
-0.5874983036027157
20
0.5961831421603867
11
-0.5895170498409027
21
0.5964013652100598
0
LINE
8
Polygon
10
-0.5895170498409027
20
0.5964013652100598
11
-0.5915387486933149
21
0.5965902869498303
0
LINE
8
Polygon
10
-0.5915387486933149
20
0.5965902869498303
11
-0.5935629748855239
21
0.5967498676390688
0
LINE
8
Polygon
10
-0.5935629748855239
20
0.5967498676390688
11
-0.5955893026114627
21
0.5968800737091822
0
LINE
8
Polygon
10
-0.5955893026114627
20
0.5968800737091822
11
-0.5976173056229963
21
0.5969808777706744
0
LINE
8
Polygon
10
-0.5976173056229963
20
0.5969808777706744
11
-0.5996465573195849
21
0.5970522586189091
0
LINE
8
Polygon
10
-0.5996465573195849
20
0.5970522586189091
11
-0.6016766308380219
21
0.5970942012385689
0
LINE
8
Polygon
10
-0.6016766308380219
20
0.5970942012385689
11
-0.6037070991422259
21
0.5971066968068148
0
LINE
8
Polygon
10
-0.6037070991422259
20
0.5971066968068148
11
-0.6057375351130706
21
0.597089742695142
0
LINE
8
Polygon
10
-0.6057375351130706
20
0.597089742695142
11
-0.6077675116382312
21
0.5970433424699322
0
LINE
8
Polygon
10
-0.6077675116382312
20
0.5970433424699322
11
-0.6097966017020295
21
0.5969675058917038
0
LINE
8
Polygon
10
-0.6097966017020295
20
0.5969675058917038
11
-0.6118243784752592
21
0.5968622489130593
0
LINE
8
Polygon
10
-0.6118243784752592
20
0.5968622489130593
11
-0.6138504154049705
21
0.5967275936753283
0
LINE
8
Polygon
10
-0.6138504154049705
20
0.5967275936753283
11
-0.6158742863041992
21
0.5965635685039116
0
LINE
8
Polygon
10
-0.6158742863041992
20
0.5965635685039116
11
-0.6178955654416156
21
0.596370207902321
0
LINE
8
Polygon
10
-0.6178955654416156
20
0.596370207902321
11
-0.6199138276310807
21
0.5961475525449227
0
LINE
8
Polygon
10
-0.6199138276310807
20
0.5961475525449227
11
-0.6219286483210853
21
0.5958956492683808
0
LINE
8
Polygon
10
-0.6219286483210853
20
0.5958956492683808
11
-0.6239396036840564
21
0.5956145510618047
0
LINE
8
Polygon
10
-0.6239396036840564
20
0.5956145510618047
11
-0.6259462707055123
21
0.5953043170556032
0
LINE
8
Polygon
10
-0.6259462707055123
20
0.5953043170556032
11
-0.6279482272730451
21
0.5949650125090452
0
LINE
8
Polygon
10
-0.6279482272730451
20
0.5949650125090452
11
-0.6299450522651144
21
0.5945967087965331
0
LINE
8
Polygon
10
-0.6299450522651144
20
0.5945967087965331
11
-0.6319363256396323
21
0.5941994833925883
0
LINE
8
Polygon
10
-0.6319363256396323
20
0.5941994833925883
11
-0.6339216285223211
21
0.593773419855554
0
LINE
8
Polygon
10
-0.633921628522321
20
0.593773419855554
11
-0.635900543294826
21
0.5933186078100183
0
LINE
8
Polygon
10
-0.635900543294826
20
0.5933186078100183
11
-0.6378726536825632
21
0.5928351429279616
0
LINE
8
Polygon
10
-0.6378726536825632
20
0.5928351429279616
11
-0.6398375448422846
21
0.592323126908631
0
LINE
8
Polygon
10
-0.6398375448422846
20
0.592323126908631
11
-0.6417948034493433
21
0.5917826674571478
0
LINE
8
Polygon
10
-0.6417948034493433
20
0.5917826674571478
11
-0.6437440177846374
21
0.5912138782618508
0
LINE
8
Polygon
10
-0.6437440177846374
20
0.5912138782618508
11
-0.645684777821218
21
0.5906168789703818
0
LINE
8
Polygon
10
-0.645684777821218
20
0.5906168789703818
11
-0.6476166753105399
21
0.589991795164517
0
LINE
8
Polygon
10
-0.6476166753105399
20
0.589991795164517
11
-0.6495393038683388
21
0.5893387583337497
0
LINE
8
Polygon
10
-0.6495393038683388
20
0.5893387583337497
11
-0.6514522590601166
21
0.5886579058476316
0
LINE
8
Polygon
10
-0.6514522590601166
20
0.5886579058476317
11
-0.6533551384862157
21
0.5879493809268762
0
LINE
8
Polygon
10
-0.6533551384862157
20
0.5879493809268762
11
-0.6552475418664662
21
0.5872133326132313
0
LINE
8
Polygon
10
-0.655247541866466
20
0.5872133326132313
11
-0.6571290711243863
21
0.5864499157381277
0
LINE
8
Polygon
10
-0.5499777100621612
20
0.3277636466349674
11
-0.5491348486557135
21
0.32811599743286224
0
LINE
8
Polygon
10
-0.5491348486557135
20
0.32811599743286224
11
-0.548294304386437
21
0.32847384064803153
0
LINE
8
Polygon
10
-0.548294304386437
20
0.32847384064803153
11
-0.5474561130446397
21
0.32883716104353966
0
LINE
8
Polygon
10
-0.5474561130446397
20
0.32883716104353966
11
-0.5466203103204419
21
0.32920594314923324
0
LINE
8
Polygon
10
-0.5466203103204419
20
0.32920594314923324
11
-0.545786931802257
21
0.3295801712623997
0
LINE
8
Polygon
10
-0.545786931802257
20
0.3295801712623997
11
-0.5449560129752756
21
0.3299598294484357
0
LINE
8
Polygon
10
-0.5449560129752756
20
0.3299598294484357
11
-0.5441275892199553
21
0.33034490154152607
0
LINE
8
Polygon
10
-0.5441275892199553
20
0.33034490154152607
11
-0.5433016958105131
21
0.33073537114533186
0
LINE
8
Polygon
10
-0.5433016958105131
20
0.33073537114533186
11
-0.5424783679134247
21
0.33113122163368847
0
LINE
8
Polygon
10
-0.5424783679134247
20
0.33113122163368847
11
-0.5416576405859261
21
0.3315324361513138
0
LINE
8
Polygon
10
-0.5416576405859261
20
0.3315324361513138
11
-0.5408395487745216
21
0.3319389976145255
0
LINE
8
Polygon
10
-0.5408395487745216
20
0.3319389976145255
11
-0.5400241273134949
21
0.3323508887119692
0
LINE
8
Polygon
10
-0.5400241273134949
20
0.3323508887119692
11
-0.539211410923427
21
0.33276809190535467
0
LINE
8
Polygon
10
-0.539211410923427
20
0.33276809190535467
11
-0.5384014342097165
21
0.3331905894302033
0
LINE
8
Polygon
10
-0.5384014342097165
20
0.3331905894302033
11
-0.5375942316611078
21
0.3336183632966042
0
LINE
8
Polygon
10
-0.5375942316611078
20
0.3336183632966042
11
-0.5367898376482204
21
0.3340513952899803
0
LINE
8
Polygon
10
-0.5367898376482204
20
0.3340513952899803
11
-0.5359882864220875
21
0.3344896669718639
0
LINE
8
Polygon
10
-0.5359882864220875
20
0.3344896669718639
11
-0.5351896121126963
21
0.33493315968068177
0
LINE
8
Polygon
10
-0.5351896121126963
20
0.33493315968068177
11
-0.534393848727535
21
0.33538185453254976
0
LINE
8
Polygon
10
-0.534393848727535
20
0.33538185453254976
11
-0.5336010301501452
21
0.33583573242207687
0
LINE
8
Polygon
10
-0.5336010301501452
20
0.33583573242207687
11
-0.5328111901386783
21
0.33629477402317887
0
LINE
8
Polygon
10
-0.5328111901386783
20
0.33629477402317887
11
-0.5320243623244592
21
0.336758959789901
0
LINE
8
Polygon
10
-0.5320243623244592
20
0.336758959789901
11
-0.5312405802105533
21
0.3372282699572503
0
LINE
8
Polygon
10
-0.5312405802105533
20
0.3372282699572503
11
-0.5304598771703406
21
0.33770268454203745
0
LINE
8
Polygon
10
-0.5304598771703406
20
0.33770268454203745
11
-0.529682286446094
21
0.33818218334372724
0
LINE
8
Polygon
10
-0.529682286446094
20
0.33818218334372724
11
-0.5289078411475647
21
0.33866674594529894
0
LINE
8
Polygon
10
-0.5289078411475647
20
0.33866674594529894
11
-0.5281365742505715
21
0.3391563517141157
0
LINE
8
Polygon
10
-0.5281365742505715
20
0.3391563517141157
11
-0.5273685185955973
21
0.3396509798028029
0
LINE
8
Polygon
10
-0.5273685185955973
20
0.3396509798028029
11
-0.5266037068863907
21
0.3401506091501361
0
LINE
8
Polygon
10
-0.5266037068863907
20
0.3401506091501361
11
-0.5258421716885731
21
0.3406552184819376
0
LINE
8
Polygon
10
-0.5258421716885731
20
0.3406552184819376
11
-0.5250839454282524
21
0.3411647863119822
0
LINE
8
Polygon
10
-0.5250839454282524
20
0.3411647863119822
11
-0.5243290603906424
21
0.34167929094291255
0
LINE
8
Polygon
10
-0.5243290603906424
20
0.34167929094291255
11
-0.5235775487186877
21
0.34219871046716244
0
LINE
8
Polygon
10
-0.5235775487186877
20
0.34219871046716244
11
-0.5228294424116952
21
0.3427230227678899
0
LINE
8
Polygon
10
-0.5228294424116952
20
0.3427230227678899
11
-0.5220847733239717
21
0.3432522055199192
0
LINE
8
Polygon
10
-0.5220847733239717
20
0.3432522055199192
11
-0.5213435731634676
21
0.343786236190691
0
LINE
8
Polygon
10
-0.5213435731634676
20
0.343786236190691
11
-0.5206058734904265
21
0.3443250920412218
0
LINE
8
Polygon
10
-0.5206058734904265
20
0.3443250920412218
11
-0.5198717057160417
21
0.34486875012707263
0
LINE
8
Polygon
10
-0.5198717057160417
20
0.34486875012707263
11
-0.5191411011011183
21
0.34541718729932563
0
LINE
8
Polygon
10
-0.5191411011011183
20
0.34541718729932563
11
-0.5184140907547425
21
0.3459703802055697
0
LINE
8
Polygon
10
-0.5184140907547425
20
0.3459703802055697
11
-0.5176907056329569
21
0.34652830529089507
0
LINE
8
Polygon
10
-0.5176907056329569
20
0.34652830529089507
11
-0.5169709765374421
21
0.3470909387988962
0
LINE
8
Polygon
10
-0.5169709765374421
20
0.3470909387988962
11
-0.5162549341142055
21
0.3476582567726832
0
LINE
8
Polygon
10
-0.5162549341142055
20
0.3476582567726832
11
-0.5155426088522767
21
0.34823023505590206
0
LINE
8
Polygon
10
-0.5155426088522767
20
0.34823023505590206
11
-0.5148340310824079
21
0.3488068492937631
0
LINE
8
Polygon
10
-0.5148340310824079
20
0.3488068492937631
11
-0.5141292309757843
21
0.34938807493407814
0
LINE
8
Polygon
10
-0.5141292309757843
20
0.34938807493407814
11
-0.5134282385427382
21
0.3499738872283058
0
LINE
8
Polygon
10
-0.5134282385427382
20
0.3499738872283058
11
-0.5127310836314714
21
0.3505642612326054
0
LINE
8
Polygon
10
-0.5127310836314714
20
0.35056426123260537
11
-0.5124352169720757
21
0.35080508993073706
0
LINE
8
Polygon
10
-0.5124352169720757
20
0.35080508993073706
11
-0.51212872087241
21
0.3510322367618298
0
LINE
8
Polygon
10
-0.51212872087241
20
0.3510322367618298
11
-0.511812227504753
21
0.35124523321770373
0
LINE
8
Polygon
10
-0.511812227504753
20
0.3512452332177037
11
-0.5114863896615336
21
0.3514436399764391
0
LINE
8
Polygon
10
-0.5114863896615336
20
0.3514436399764391
11
-0.5111518794088957
21
0.3516270478085127
0
LINE
8
Polygon
10
-0.5111518794088957
20
0.3516270478085127
11
-0.5108093867005089
21
0.35179507842086555
0
LINE
8
Polygon
10
-0.5108093867005089
20
0.35179507842086555
11
-0.5104596179544847
21
0.3519473852371619
0
LINE
8
Polygon
10
-0.5104596179544847
20
0.3519473852371619
11
-0.5101032945963333
21
0.35208365411263065
0
LINE
8
Polygon
10
-0.5101032945963333
20
0.35208365411263065
11
-0.5097411515709678
21
0.35220360398201317
0
LINE
8
Polygon
10
-0.5097411515709678
20
0.35220360398201317
11
-0.5093739358268217
21
0.3523069874392826
0
LINE
8
Polygon
10
-0.5093739358268217
20
0.3523069874392826
11
-0.5090024047752095
21
0.35239359124793834
0
LINE
8
Polygon
10
-0.5090024047752095
20
0.35239359124793834
11
-0.5086273247281062
21
0.3524632367808229
0
LINE
8
Polygon
10
-0.5086273247281062
20
0.3524632367808229
11
-0.508249469317569
21
0.3525157803885546
0
LINE
8
Polygon
10
-0.508249469317569
20
0.3525157803885546
11
-0.5078696179000597
21
0.3525511136958155
0
LINE
8
Polygon
10
-0.5078696179000597
20
0.3525511136958155
11
-0.5074885539489618
21
0.3525691638248842
0
LINE
8
Polygon
10
-0.5074885539489618
20
0.3525691638248842
11
-0.5071070634386041
21
0.3525698935459518
0
LINE
8
Polygon
10
-0.5071070634386041
20
0.3525698935459518
11
-0.5067259332231278
21
0.3525533013539113
0
LINE
8
Polygon
10
-0.5067259332231278
20
0.3525533013539113
11
-0.5063459494135372
21
0.3525194214714619
0
LINE
8
Polygon
10
-0.5063459494135372
20
0.3525194214714619
11
-0.5059678957562846
21
0.35246832377852233
0
LINE
8
Polygon
10
-0.5059678957562846
20
0.35246832377852233
11
-0.5055925520167317
21
0.35240011366809754
0
LINE
8
Polygon
10
-0.5055925520167317
20
0.35240011366809754
11
-0.5052206923708218
21
0.35231493182889767
0
LINE
8
Polygon
10
-0.5052206923708218
20
0.35231493182889767
11
-0.5048530838082814
21
0.35221295395515656
0
LINE
8
Polygon
10
-0.5048530838082814
20
0.35221295395515656
11
-0.5044904845506439
21
0.3520943903842484
0
LINE
8
Polygon
10
-0.5044904845506439
20
0.3520943903842484
11
-0.5041336424873577
21
0.35195948566285057
0
LINE
8
Polygon
10
-0.5041336424873577
20
0.35195948566285057
11
-0.5037832936332058
21
0.35180851804254665
0
LINE
8
Polygon
10
-0.5037832936332058
20
0.35180851804254665
11
-0.5034401606102173
21
0.3516417989059111
0
LINE
8
Polygon
10
-0.5034401606102173
20
0.3516417989059111
11
-0.5031049511572028
21
0.35145967212425766
0
LINE
8
Polygon
10
-0.5031049511572028
20
0.35145967212425766
11
-0.5027783566699873
21
0.3512625133483784
0
LINE
8
Polygon
10
-0.5027783566699873
20
0.3512625133483784
11
-0.5024610507753524
21
0.35105072923373387
0
LINE
8
Polygon
10
-0.5024610507753524
20
0.35105072923373387
11
-0.5021536879416281
21
0.35082475660169476
0
LINE
8
Polygon
10
-0.5021536879416281
20
0.35082475660169476
11
-0.5018569021287999
21
0.35058506153856317
0
LINE
8
Polygon
10
-0.5018569021287999
20
0.35058506153856317
11
-0.5015713054809172
21
0.3503321384342331
0
LINE
8
Polygon
10
-0.5015713054809172
20
0.3503321384342331
11
-0.501297487063498
21
0.3500665089624726
0
LINE
8
Polygon
10
-0.501297487063498
20
0.3500665089624726
11
-0.5010360116485345
21
0.3497887210049304
0
LINE
8
Polygon
10
-0.5010360116485345
20
0.3497887210049304
11
-0.5007874185496073
21
0.3494993475210873
0
LINE
8
Polygon
10
-0.5007874185496073
20
0.3494993475210873
11
-0.500552220509508
21
0.34919898536648186
0
LINE
8
Polygon
10
-0.500552220509508
20
0.34919898536648186
11
-0.5003309026426674
21
0.34888825406164936
0
LINE
8
Polygon
10
-0.5003309026426674
20
0.34888825406164936
11
-0.5001239214345691
21
0.34856779451431164
0
LINE
8
Polygon
10
-0.5001239214345691
20
0.34856779451431164
11
-0.4999317038002113
21
0.348238267697455
0
LINE
8
Polygon
10
-0.4999317038002113
20
0.348238267697455
11
-0.49975464620356247
21
0.3479003532860211
0
LINE
8
Polygon
10
-0.49975464620356247
20
0.34790035328602115
11
-0.49959311383982224
21
0.3475547482550244
0
LINE
8
Polygon
10
-0.49959311383982224
20
0.3475547482550244
11
-0.499447439882178
21
0.34720216544198607
0
LINE
8
Polygon
10
-0.499447439882178
20
0.34720216544198607
11
-0.4993179247946091
21
0.34684333207665086
0
LINE
8
Polygon
10
-0.4993179247946091
20
0.34684333207665086
11
-0.4992048357121561
21
0.34647898828101864
0
LINE
8
Polygon
10
-0.4992048357121561
20
0.34647898828101864
11
-0.49910840588993394
21
0.34610988554278443
0
LINE
8
Polygon
10
-0.49910840588993394
20
0.34610988554278443
11
-0.4990288342220248
21
0.34573678516533635
0
LINE
8
Polygon
10
-0.4990288342220248
20
0.34573678516533635
11
-0.4989662848312435
21
0.3453604566975072
0
LINE
8
Polygon
10
-0.4989662848312435
20
0.3453604566975072
11
-0.4989208867306214
21
0.34498167634631977
0
LINE
8
Polygon
10
-0.49892088673062146
20
0.34498167634631977
11
-0.4983045766504664
21
0.3408126204382795
0
LINE
8
Polygon
10
-0.4983045766504664
20
0.3408126204382795
11
-0.4972735646398201
21
0.3367263165443957
0
LINE
8
Polygon
10
-0.4972735646398201
20
0.3367263165443957
11
-0.4958382314613936
21
0.33276390768788244
0
LINE
8
Polygon
10
-0.4958382314613936
20
0.33276390768788244
11
-0.49401302879274533
21
0.328965289452573
0
LINE
8
Polygon
10
-0.49401302879274533
20
0.328965289452573
11
-0.491816333719309
21
0.3253687082935266
0
LINE
8
Polygon
10
-0.491816333719309
20
0.3253687082935266
11
-0.48927026370438337
21
0.3220103764519179
0
LINE
8
Polygon
10
-0.48927026370438337
20
0.3220103764519179
11
-0.48640045389906067
21
0.318924107351444
0
LINE
8
Polygon
10
-0.48640045389906067
20
0.318924107351444
11
-0.48323579903425323
21
0.31614097514726874
0
LINE
8
Polygon
10
-0.48323579903425323
20
0.31614097514726874
11
-0.4798081624935831
21
0.3136890018553405
0
LINE
8
Polygon
10
-0.4798081624935831
20
0.3136890018553405
11
-0.4761520554963389
21
0.3115928752122274
0
LINE
8
Polygon
10
-0.4761520554963389
20
0.3115928752122274
11
-0.4723042896206525
21
0.3098737001062042
0
LINE
8
Polygon
10
-0.4723042896206525
20
0.3098737001062042
11
-0.46830360616547195
21
0.3085487860823103
0
LINE
8
Polygon
10
-0.4683036061654719
20
0.3085487860823103
11
-0.46419028608310575
21
0.30763147306088867
0
LINE
8
Polygon
10
-0.46419028608310575
20
0.30763147306088867
11
-0.46000574440974074
21
0.3071309970243613
0
LINE
8
Polygon
10
-0.46000574440974074
20
0.3071309970243613
11
-0.45579211327741553
21
0.30705239702457643
0
LINE
8
Polygon
10
-0.45579211327741553
20
0.30705239702457643
11
-0.45159181770590207
21
0.3073964644470256
0
LINE
8
Polygon
10
-0.45159181770590207
20
0.3073964644470256
11
-0.4474471484456418
21
0.3081597350427649
0
LINE
8
Polygon
10
-0.4474471484456418
20
0.3081597350427649
11
-0.443399836172575
21
0.30933452380826676
0
LINE
8
Polygon
10
-0.443399836172575
20
0.30933452380826676
11
-0.43949063132209004
21
0.3109090023620144
0
LINE
8
Polygon
10
-0.43949063132209004
20
0.3109090023620144
11
-0.43575889379254207
21
0.31286731803877077
0
LINE
8
Polygon
10
-0.43575889379254207
20
0.31286731803877077
11
-0.43224219664941854
21
0.31518975350241957
0
LINE
8
Polygon
10
-0.43224219664941854
20
0.3151897535024195
11
-0.4289759478202631
21
0.3178529252703135
0
LINE
8
Polygon
10
-0.4289759478202631
20
0.3178529252703135
11
-0.42599303358932933
21
0.3208300191502842
0
LINE
8
Polygon
10
-0.42599303358932933
20
0.32083001915028425
11
-0.4233234874814443
21
0.3240910602198114
0
LINE
8
Polygon
10
-0.4233234874814443
20
0.3240910602198114
11
-0.4209941878689319
21
0.3276032146290616
0
LINE
8
Polygon
10
-0.4209941878689319
20
0.3276032146290616
11
-0.41902858734624365
21
0.33133112018908784
0
LINE
8
Polygon
10
-0.41902858734624365
20
0.33133112018908784
11
-0.41744647659709644
21
0.33523724241665565
0
LINE
8
Polygon
10
-0.41744647659709644
20
0.3352372424166556
11
-0.416263785131622
21
0.33928225245085336
0
LINE
8
Polygon
10
-0.416263785131622
20
0.33928225245085336
11
-0.4154924208998119
21
0.34342542303642554
0
LINE
8
Polygon
10
-0.4154924208998119
20
0.34342542303642554
11
-0.4151401503961121
21
0.3476250385868646
0
LINE
8
Polygon
10
-0.4151401503961121
20
0.3476250385868646
11
-0.4152105204623354
21
0.35183881519853333
0
LINE
8
Polygon
10
-0.4152105204623354
20
0.35183881519853333
11
-0.4157028225762224
21
0.35602432638689835
0
LINE
8
Polygon
10
-0.4157028225762224
20
0.35602432638689835
11
-0.41661209998520976
21
0.36013943025834216
0
LINE
8
Polygon
10
-0.41661209998520976
20
0.36013943025834216
11
-0.4179291976135819
21
0.364142693816566
0
LINE
8
Polygon
10
-0.4179291976135819
20
0.364142693816566
11
-0.4196408542405127
21
0.367993810131448
0
LINE
8
Polygon
10
-0.4196408542405127
20
0.367993810131448
11
-0.42172983602090275
21
0.37165400417008376
0
LINE
8
Polygon
10
-0.42172983602090275
20
0.37165400417008376
11
-0.42417511000465447
21
0.3750864232038927
0
LINE
8
Polygon
10
-0.42417511000465447
20
0.3750864232038927
11
-0.4269520559073028
21
0.3782565078609691
0
LINE
8
Polygon
10
-0.4269520559073028
20
0.3782565078609691
11
-0.430032713999786
21
0.38113234008773134
0
LINE
8
Polygon
10
-0.430032713999786
20
0.38113234008773134
11
-0.4333860666214737
21
0.38368496451640993
0
LINE
8
Polygon
10
-0.4333860666214737
20
0.38368496451640993
11
-0.43697835048203276
21
0.3858886800026815
0
LINE
8
Polygon
10
-0.43697835048203276
20
0.3858886800026815
11
-0.44077339660771475
21
0.3877212983980963
0
LINE
8
Polygon
10
-0.44077339660771475
20
0.3877212983980963
11
-0.44473299450930937
21
0.38916436795184417
0
LINE
8
Polygon
10
-0.44473299450930937
20
0.38916436795184417
11
-0.44881727690513284
21
0.39020335909253445
0
LINE
8
Polygon
10
-0.44881727690513284
20
0.39020335909253445
11
-0.45298512112546024
21
0.39082781071944384
0
LINE
8
Polygon
10
-0.4529851211254603
20
0.39082781071944384
11
-0.457194563156855
21
0.391031435530294
0
LINE
8
Polygon
10
-0.457194563156855
20
0.391031435530294
11
-0.4614032201575822
21
0.39081218332506623
0
LINE
8
Polygon
10
-0.4614032201575822
20
0.39081218332506623
11
-0.46556871719000187
21
0.3901722616484766
0
LINE
8
Polygon
10
-0.46556871719000187
20
0.39017226164847657
11
-0.46594405071757367
21
0.39010399536788154
0
LINE
8
Polygon
10
-0.46594405071757367
20
0.39010399536788154
11
-0.4663220967237218
21
0.3900528410990355
0
LINE
8
Polygon
10
-0.4663220967237218
20
0.3900528410990355
11
-0.4667020754588659
21
0.3900189043516358
0
LINE
8
Polygon
10
-0.4667020754588659
20
0.3900189043516358
11
-0.46708320318702
21
0.3900022551228894
0
LINE
8
Polygon
10
-0.46708320318702
20
0.3900022551228894
11
-0.4674646938023099
21
0.39000292775313833
0
LINE
8
Polygon
10
-0.4674646938023099
20
0.39000292775313833
11
-0.46784576045037835
21
0.3900209208550299
0
LINE
8
Polygon
10
-0.46784576045037835
20
0.3900209208550299
11
-0.4682256171513335
21
0.3900561973163781
0
LINE
8
Polygon
10
-0.4682256171513335
20
0.3900561973163781
11
-0.46860348042089456
21
0.39010868437671076
0
LINE
8
Polygon
10
-0.46860348042089456
20
0.39010868437671076
11
-0.46897857088638967
21
0.3901782737773435
0
LINE
8
Polygon
10
-0.46897857088638967
20
0.3901782737773435
11
-0.46935011489427303
21
0.39026482198467166
0
LINE
8
Polygon
10
-0.46935011489427303
20
0.39026482198467166
11
-0.46971734610584626
21
0.39036815048622
0
LINE
8
Polygon
10
-0.46971734610584626
20
0.39036815048622
11
-0.4700795070778921
21
0.39048804615883825
0
LINE
8
Polygon
10
-0.4700795070778921
20
0.39048804615883825
11
-0.4704358508249605
21
0.39062426170828474
0
LINE
8
Polygon
10
-0.4704358508249605
20
0.39062426170828474
11
-0.47078564236008485
21
0.39077651617929
0
LINE
8
Polygon
10
-0.47078564236008485
20
0.39077651617929
11
-0.4711281602107504
21
0.390944495535049
0
LINE
8
Polygon
10
-0.4711281602107504
20
0.390944495535049
11
-0.47146269790698775
21
0.391127853304947
0
LINE
8
Polygon
10
-0.47146269790698775
20
0.391127853304947
11
-0.47178856543852293
21
0.39132621129918205
0
LINE
8
Polygon
10
-0.4717885654385229
20
0.39132621129918205
11
-0.47210509067797746
21
0.3915391603888115
0
LINE
8
Polygon
10
-0.47210509067797746
20
0.3915391603888115
11
-0.47241162076718424
21
0.39176626134961223
0
LINE
8
Polygon
10
-0.47241162076718424
20
0.39176626134961223
11
-0.4727075234637585
21
0.3920070457680156
0
LINE
8
Polygon
10
-0.4727075234637585
20
0.3920070457680156
11
-0.4729921884451475
21
0.39226101700724664
0
LINE
8
Polygon
10
-0.4729921884451475
20
0.39226101700724664
11
-0.47326502856746877
21
0.3925276512316768
0
LINE
8
Polygon
10
-0.47326502856746877
20
0.3925276512316768
11
-0.4735254810765403
21
0.39280639848727605
0
LINE
8
Polygon
10
-0.4735254810765403
20
0.39280639848727605
11
-0.47377300876860545
21
0.39309668383593604
0
LINE
8
Polygon
10
-0.47377300876860545
20
0.39309668383593604
11
-0.47400710109835786
21
0.39339790854132534
0
LINE
8
Polygon
10
-0.47400710109835786
20
0.39339790854132534
11
-0.47422727523198105
21
0.39370945130383
0
LINE
8
Polygon
10
-0.47422727523198105
20
0.39370945130383
11
-0.4744330770430314
21
0.39403066954203286
0
LINE
8
Polygon
10
-0.4744330770430314
20
0.39403066954203286
11
-0.4746240820491092
21
0.3943609007180883
0
LINE
8
Polygon
10
-0.4746240820491092
20
0.3943609007180883
11
-0.47479989628738756
21
0.39469946370425835
0
LINE
8
Polygon
10
-0.47479989628738756
20
0.39469946370425835
11
-0.47496015712719086
21
0.39504566018779236
0
LINE
8
Polygon
10
-0.47496015712719086
20
0.39504566018779236
11
-0.4751045340179497
21
0.3953987761112517
0
LINE
8
Polygon
10
-0.4751045340179497
20
0.3953987761112517
11
-0.47523272917098724
21
0.3957580831453096
0
LINE
8
Polygon
10
-0.47523272917098724
20
0.3957580831453096
11
-0.47534447817373143
21
0.39612284019098715
0
LINE
8
Polygon
10
-0.47534447817373143
20
0.39612284019098715
11
-0.47543955053508696
21
0.3964922949082287
0
LINE
8
Polygon
10
-0.47543955053508696
20
0.3964922949082287
11
-0.4755177501608414
21
0.39686568526766186
0
LINE
8
Polygon
10
-0.4755177501608414
20
0.39686568526766186
11
-0.47557891575812455
21
0.39724224112234313
0
LINE
8
Polygon
10
-0.47557891575812455
20
0.39724224112234313
11
-0.4756229211680879
21
0.3976211857962465
0
LINE
8
Polygon
10
-0.4756229211680879
20
0.3976211857962465
11
-0.47564967562611704
21
0.3980017376862186
0
LINE
8
Polygon
10
-0.47564967562611704
20
0.3980017376862186
11
-0.475659123949041
21
0.3983831118740967
0
LINE
8
Polygon
10
-0.475659123949041
20
0.3983831118740967
11
-0.4756512466489516
21
0.3987645217456641
0
LINE
8
Polygon
10
-0.4756512466489516
20
0.3987645217456641
11
-0.47562605997339896
21
0.39914518061310367
0
LINE
8
Polygon
10
-0.47562605997339896
20
0.39914518061310367
11
-0.4755836158718797
21
0.39952430333760325
0
LINE
8
Polygon
10
-0.4755836158718797
20
0.39952430333760325
11
-0.4755240018886868
21
0.39990110794876615
0
LINE
8
Polygon
10
-0.4755240018886868
20
0.39990110794876615
11
-0.4754473409823429
21
0.4002748172574866
0
LINE
8
Polygon
10
-0.4754473409823429
20
0.4002748172574866
11
-0.47535379127198857
21
0.4006446604589631
0
LINE
8
Polygon
10
-0.47535379127198857
20
0.4006446604589631
11
-0.475243545711249
21
0.401009874722544
0
LINE
8
Polygon
10
-0.475243545711249
20
0.401009874722544
11
-0.4751168316902522
21
0.4013697067651258
0
LINE
8
Polygon
10
-0.4751168316902522
20
0.4013697067651258
11
-0.47497391056661903
21
0.40172341440485837
0
LINE
8
Polygon
10
-0.47497391056661903
20
0.40172341440485837
11
-0.47461525524593945
21
0.4025636124744851
0
LINE
8
Polygon
10
-0.47461525524593945
20
0.4025636124744851
11
-0.4742620901007693
21
0.40340613298788114
0
LINE
8
Polygon
10
-0.4742620901007693
20
0.40340613298788114
11
-0.4739144301688524
21
0.40425094007059037
0
LINE
8
Polygon
10
-0.4739144301688524
20
0.40425094007059037
11
-0.47357229025352066
21
0.40509799775079464
0
LINE
8
Polygon
10
-0.47357229025352066
20
0.40509799775079464
11
-0.47323568492306456
21
0.4059472699608455
0
LINE
8
Polygon
10
-0.47323568492306456
20
0.4059472699608455
11
-0.4729046285101121
21
0.4067987205388001
0
LINE
8
Polygon
10
-0.4729046285101121
20
0.4067987205388001
11
-0.47257913511101896
21
0.4076523132299608
0
LINE
8
Polygon
10
-0.47257913511101896
20
0.4076523132299608
11
-0.4722592185852681
21
0.408508011688419
0
LINE
8
Polygon
10
-0.4722592185852681
20
0.408508011688419
11
-0.4719448925548796
21
0.40936577947860253
0
LINE
8
Polygon
10
-0.4719448925548796
20
0.40936577947860253
11
-0.4716361704038307
21
0.4102255800768275
0
LINE
8
Polygon
10
-0.4716361704038307
20
0.4102255800768275
11
-0.4713330652774861
21
0.41108737687285296
0
LINE
8
Polygon
10
-0.4713330652774861
20
0.41108737687285296
11
-0.47103559008203777
21
0.4119511331714402
0
LINE
8
Polygon
10
-0.47103559008203777
20
0.4119511331714402
11
-0.4707437574839557
21
0.41281681219391503
0
LINE
8
Polygon
10
-0.4707437574839557
20
0.41281681219391503
11
-0.4704575799094488
21
0.41368437707973366
0
LINE
8
Polygon
10
-0.4704575799094488
20
0.41368437707973366
11
-0.4701770695439353
21
0.4145537908880526
0
LINE
8
Polygon
10
-0.4701770695439353
20
0.4145537908880526
11
-0.4699022383315241
21
0.4154250165993013
0
LINE
8
Polygon
10
-0.4699022383315241
20
0.4154250165993013
11
-0.46963309797450625
21
0.4162980171167585
0
LINE
8
Polygon
10
-0.46963309797450625
20
0.4162980171167585
11
-0.46936965993285684
21
0.41717275526813186
0
LINE
8
Polygon
10
-0.46936965993285684
20
0.41717275526813186
11
-0.4691119354237465
21
0.41804919380714073
0
LINE
8
Polygon
10
-0.4691119354237465
20
0.41804919380714073
11
-0.4688599354210643
21
0.4189272954151021
0
LINE
8
Polygon
10
-0.4688599354210643
20
0.4189272954151021
11
-0.4686136706549502
21
0.4198070227025196
0
LINE
8
Polygon
10
-0.4686136706549502
20
0.4198070227025196
11
-0.4683731516113383
21
0.4206883382106756
0
LINE
8
Polygon
10
-0.4683731516113383
20
0.4206883382106756
11
-0.46813838853151035
21
0.42157120441322604
0
LINE
8
Polygon
10
-0.46813838853151035
20
0.42157120441322604
11
-0.46790939141165944
21
0.42245558371779857
0
LINE
8
Polygon
10
-0.46790939141165944
20
0.42245558371779857
11
-0.4676861700024647
21
0.423341438467593
0
LINE
8
Polygon
10
-0.4676861700024647
20
0.423341438467593
11
-0.467468733808676
21
0.42422873094298474
0
LINE
8
Polygon
10
-0.467468733808676
20
0.42422873094298474
11
-0.4672570920887089
21
0.42511742336313113
0
LINE
8
Polygon
10
-0.4672570920887089
20
0.42511742336313113
11
-0.46705125385425117
21
0.42600747788757976
0
LINE
8
Polygon
10
-0.46705125385425117
20
0.42600747788757976
11
-0.4668512278698782
21
0.4268988566178801
0
LINE
8
Polygon
10
-0.4668512278698782
20
0.4268988566178801
11
-0.4666570226526806
21
0.4277915215991969
0
LINE
8
Polygon
10
-0.4666570226526806
20
0.4277915215991969
11
-0.4664686464719009
21
0.42868543482192667
0
LINE
8
Polygon
10
-0.4664686464719009
20
0.42868543482192667
11
-0.4662861073485819
21
0.4295805582233156
0
LINE
8
Polygon
10
-0.4662861073485819
20
0.4295805582233156
11
-0.4661094130552249
21
0.4304768536890808
0
LINE
8
Polygon
10
-0.4661094130552249
20
0.4304768536890808
11
-0.4659385711154588
21
0.4313742830550329
0
LINE
8
Polygon
10
-0.4659385711154588
20
0.4313742830550329
11
-0.46577358880371966
21
0.43227280810870106
0
LINE
8
Polygon
10
-0.46577358880371966
20
0.43227280810870106
11
-0.4656144731449413
21
0.4331723905909603
0
LINE
8
Polygon
10
-0.4656144731449413
20
0.4331723905909603
11
-0.4654612309142557
21
0.4340729921976603
0
LINE
8
Polygon
10
-0.4654612309142557
20
0.4340729921976603
11
-0.46531386863670476
21
0.43497457458125666
0
LINE
8
Polygon
10
-0.46531386863670476
20
0.43497457458125666
11
-0.4651723925869625
21
0.4358770993524433
0
LINE
8
Polygon
10
-0.4651723925869625
20
0.4358770993524433
11
-0.46503680878906795
21
0.4367805280817876
0
LINE
8
Polygon
10
-0.46503680878906795
20
0.4367805280817876
11
-0.4649071230161682
21
0.4376848223013664
0
LINE
8
Polygon
10
-0.4649071230161682
20
0.4376848223013664
11
-0.4647833407902733
21
0.43858994350640396
0
LINE
8
Polygon
10
-0.4647833407902733
20
0.43858994350640396
11
-0.4646654673820204
21
0.4394958531569117
0
LINE
8
Polygon
10
-0.4646654673820204
20
0.4394958531569117
11
-0.46455350781044996
21
0.440402512679329
0
LINE
8
Polygon
10
-0.46455350781044996
20
0.440402512679329
11
-0.4644474668427915
21
0.44130988346816574
0
LINE
8
Polygon
10
-0.4644474668427915
20
0.44130988346816574
11
-0.4643473489942609
21
0.4422179268876462
0
LINE
8
Polygon
10
-0.4643473489942609
20
0.4422179268876462
11
-0.46425315852786825
21
0.44312660427335415
0
LINE
8
Polygon
10
-0.46425315852786825
20
0.44312660427335415
11
-0.4641648994542361
21
0.4440358769338789
0
LINE
8
Polygon
10
-0.6571290711243863
20
0.5864499157381277
11
-0.5499777100621612
21
0.3277636466349674
0
ENDSEC
0
EOF
