0
SECTION
2
ENTITIES
0
LINE
8
Polygon
10
0.8989794855663558
20
0.4494897427831783
11
0.9019126162371003
21
0.44949834611272727
0
LINE
8
Polygon
10
0.9019126162371003
20
0.44949834611272727
11
0.9048456459690857
21
0.44952415580530497
0
LINE
8
Polygon
10
0.9048456459690857
20
0.44952415580530497
11
0.9077784738270265
21
0.44956717097271426
0
LINE
8
Polygon
10
0.9077784738270265
20
0.44956717097271426
11
0.9107109988825846
21
0.4496273901346605
0
LINE
8
Polygon
10
0.9107109988825846
20
0.4496273901346605
11
0.9136431202178419
21
0.44970481121880257
0
LINE
8
Polygon
10
0.9136431202178419
20
0.44970481121880257
11
0.9165747369287741
21
0.449799431560824
0
LINE
8
Polygon
10
0.9165747369287741
20
0.449799431560824
11
0.9195057481287224
21
0.44991124790452486
0
LINE
8
Polygon
10
0.9195057481287224
20
0.44991124790452486
11
0.9224360529518658
21
0.45004025640193374
0
LINE
8
Polygon
10
0.9224360529518658
20
0.45004025640193374
11
0.925365550556692
21
0.45018645261344015
0
LINE
8
Polygon
10
0.925365550556692
20
0.45018645261344015
11
0.9282941401294678
21
0.4503498315079474
0
LINE
8
Polygon
10
0.9282941401294678
20
0.4503498315079474
11
0.9312217208877083
21
0.4505303874630455
0
LINE
8
Polygon
10
0.9312217208877083
20
0.4505303874630455
11
0.9341481920836452
21
0.45072811426520504
0
LINE
8
Polygon
10
0.9341481920836452
20
0.45072811426520504
11
0.9370734530076943
21
0.45094300510999064
0
LINE
8
Polygon
10
0.9370734530076943
20
0.45094300510999064
11
0.9399974029919205
21
0.4511750526022952
0
LINE
8
Polygon
10
0.9399974029919205
20
0.4511750526022952
11
0.9429199414135025
21
0.4514242487565946
0
LINE
8
Polygon
10
0.9429199414135025
20
0.4514242487565946
11
0.9458409676981959
21
0.4516905849972222
0
LINE
8
Polygon
10
0.9458409676981959
20
0.4516905849972222
11
0.9487603813237936
21
0.4519740521586643
0
LINE
8
Polygon
10
0.9487603813237936
20
0.4519740521586643
11
0.9516780818235855
21
0.4522746404858753
0
LINE
8
Polygon
10
0.9516780818235855
20
0.4522746404858753
11
0.9545939687898158
21
0.45259233963461337
0
LINE
8
Polygon
10
0.9545939687898158
20
0.45259233963461337
11
0.9575079418771388
21
0.4529271386717967
0
LINE
8
Polygon
10
0.9575079418771388
20
0.4529271386717967
11
0.9604199008060712
21
0.45327902607587933
0
LINE
8
Polygon
10
0.9604199008060712
20
0.45327902607587933
11
0.9633297453664439
21
0.4536479897372482
0
LINE
8
Polygon
10
0.9633297453664439
20
0.4536479897372482
11
0.9662373754208501
21
0.4540340169586394
0
LINE
8
Polygon
10
0.96623737542085
20
0.4540340169586394
11
0.9691426909080915
21
0.4544370944555753
0
LINE
8
Polygon
10
0.9691426909080916
20
0.4544370944555753
11
0.972045591846622
21
0.45485720835682175
0
LINE
8
Polygon
10
0.9720455918466219
20
0.4548572083568217
11
0.9749459783379875
21
0.45529434420486536
0
LINE
8
Polygon
10
0.9749459783379876
20
0.45529434420486536
11
0.9778437505702653
21
0.4557484869564112
0
LINE
8
Polygon
10
0.9778437505702652
20
0.4557484869564111
11
0.980738808821497
21
0.4562196209829001
0
LINE
8
Polygon
10
0.9807388088214971
20
0.4562196209829001
11
0.9836310534631223
21
0.45670773007104704
0
LINE
8
Polygon
10
0.9836310534631222
20
0.45670773007104704
11
0.9865203849634055
21
0.45721279742339854
0
LINE
8
Polygon
10
0.9865203849634055
20
0.45721279742339854
11
0.9894067038908628
21
0.45773480565891117
0
LINE
8
Polygon
10
0.9894067038908628
20
0.45773480565891117
11
0.9922899109176824
21
0.45827373681354944
0
LINE
8
Polygon
10
0.9922899109176824
20
0.45827373681354944
11
0.9951699068231433
21
0.45882957234090394
0
LINE
8
Polygon
10
0.9951699068231433
20
0.45882957234090394
11
0.9980465924970301
21
0.4594022931128299
0
LINE
8
Polygon
10
0.9980465924970301
20
0.4594022931128299
11
1.0009198689430434
21
0.45999187942010505
0
LINE
8
Polygon
10
1.0009198689430434
20
0.45999187942010505
11
1.0037896372822066
21
0.4605983109731083
0
LINE
8
Polygon
10
1.0037896372822066
20
0.4605983109731083
11
1.0066557987562685
21
0.46122156690251764
0
LINE
8
Polygon
10
1.0066557987562685
20
0.46122156690251764
11
1.0095182547311026
21
0.46186162576002837
0
LINE
8
Polygon
10
1.0095182547311026
20
0.46186162576002837
11
1.0123769067001005
21
0.4625184655190915
0
LINE
8
Polygon
10
1.0123769067001005
20
0.4625184655190915
11
1.0152316562875623
21
0.4631920635756712
0
LINE
8
Polygon
10
1.0152316562875623
20
0.4631920635756712
11
1.018082405252082
21
0.46388239674902343
0
LINE
8
Polygon
10
1.018082405252082
20
0.46388239674902343
11
1.0209290554899286
21
0.4645894412824929
0
LINE
8
Polygon
10
1.0209290554899286
20
0.4645894412824929
11
1.0237715090384216
21
0.46531317284433116
0
LINE
8
Polygon
10
1.0237715090384216
20
0.46531317284433116
11
1.0266096680793027
21
0.46605356652853364
0
LINE
8
Polygon
10
1.0266096680793027
20
0.46605356652853364
11
1.0294434349421013
21
0.4668105968556969
0
LINE
8
Polygon
10
1.0294434349421013
20
0.4668105968556969
11
1.032272712107497
21
0.46758423777389546
0
LINE
8
Polygon
10
1.032272712107497
20
0.46758423777389546
11
1.0350974022106747
21
0.46837446265957816
0
LINE
8
Polygon
10
1.0350974022106747
20
0.46837446265957816
11
1.0379174080446745
21
0.4691812443184846
0
LINE
8
Polygon
10
1.0379174080446745
20
0.4691812443184846
11
1.0392344781678005
21
0.4695300235887438
0
LINE
8
Polygon
10
1.0392344781678005
20
0.4695300235887438
11
1.040566025953013
21
0.4698186430341901
0
LINE
8
Polygon
10
1.040566025953013
20
0.4698186430341901
11
1.0419093049784212
21
0.4700465073545483
0
LINE
8
Polygon
10
1.0419093049784212
20
0.4700465073545483
11
1.0432615446255302
21
0.4702131465617605
0
LINE
8
Polygon
10
1.0432615446255302
20
0.4702131465617605
11
1.0446199557938591
21
0.47031821694937354
0
LINE
8
Polygon
10
1.0446199557938591
20
0.47031821694937354
11
1.0459817366536797
21
0.4703615018014604
0
LINE
8
Polygon
10
1.0459817366536797
20
0.4703615018014604
11
1.0473440784250103
21
0.4703429118396141
0
LINE
8
Polygon
10
1.0473440784250103
20
0.4703429118396141
11
1.0487041711709455
21
0.47026248540709076
0
LINE
8
Polygon
10
1.0487041711709455
20
0.47026248540709076
11
1.050059209593371
21
0.47012038838972464
0
LINE
8
Polygon
10
1.050059209593371
20
0.47012038838972464
11
1.051406398819112
21
0.46991691387377466
0
LINE
8
Polygon
10
1.051406398819112
20
0.46991691387377466
11
1.0527429601645786
21
0.4696524815414114
0
LINE
8
Polygon
10
1.0527429601645786
20
0.4696524815414114
11
1.0540661368670177
21
0.46932763680508977
0
LINE
8
Polygon
10
1.0540661368670177
20
0.46932763680508977
11
1.0553731997705549
21
0.4689430496825926
0
LINE
8
Polygon
10
1.0553731997705549
20
0.4689430496825926
11
1.0566614529552911
21
0.46849951341506657
0
LINE
8
Polygon
10
1.0566614529552911
20
0.46849951341506657
11
1.0579282392978497
21
0.4679979428309001
0
LINE
8
Polygon
10
1.0579282392978497
20
0.4679979428309001
11
1.059170945951902
21
0.46743937245881795
0
LINE
8
Polygon
10
1.059170945951902
20
0.46743937245881795
11
1.0603870097373682
21
0.4668249543940841
0
LINE
8
Polygon
10
1.0603870097373682
20
0.4668249543940841
11
1.0615739224271779
21
0.4661559559222153
0
LINE
8
Polygon
10
1.0615739224271779
20
0.4661559559222153
11
1.0627292359206846
21
0.46543375690510486
0
LINE
8
Polygon
10
1.0627292359206846
20
0.46543375690510486
11
1.0638505672930663
21
0.4646598469349491
0
LINE
8
Polygon
10
1.0638505672930663
20
0.4646598469349491
11
1.0649356037102948
21
0.46383582226184666
0
LINE
8
Polygon
10
1.0649356037102948
20
0.46383582226184666
11
1.065982107199538
21
0.46296338250140706
0
LINE
8
Polygon
10
1.065982107199538
20
0.4629633825014071
11
1.0669879192651535
21
0.46204432712916016
0
LINE
8
Polygon
10
1.0669879192651535
20
0.46204432712916016
11
1.067950965340757
21
0.4610805517689964
0
LINE
8
Polygon
10
1.067950965340757
20
0.4610805517689964
11
1.068869259068177
21
0.46007404428329396
0
LINE
8
Polygon
10
1.068869259068177
20
0.46007404428329396
11
1.069740906394475
21
0.45902688067279596
0
LINE
8
Polygon
10
1.069740906394475
20
0.45902688067279596
11
1.0705641094785792
21
0.45794122079469635
0
LINE
8
Polygon
10
1.0705641094785792
20
0.45794122079469635
11
1.0713371703994716
21
0.45681930390776454
0
LINE
8
Polygon
10
1.0713371703994716
20
0.45681930390776454
11
1.0720584946582847
21
0.45566344405369846
0
LINE
8
Polygon
10
1.0720584946582847
20
0.45566344405369846
11
1.0727265944670796
21
0.45447602528423164
0
LINE
8
Polygon
10
1.0727265944670796
20
0.45447602528423164
11
1.0733400918175264
21
0.4532594967438394
0
LINE
8
Polygon
10
1.0733400918175262
20
0.4532594967438395
11
1.0738977213231535
21
0.4520163676181861
0
LINE
8
Polygon
10
1.0738977213231535
20
0.4520163676181861
11
1.0743983328293083
21
0.4507492019587321
0
LINE
8
Polygon
10
1.0743983328293083
20
0.4507492019587321
11
1.0748408937854395
21
0.44946061339417703
0
LINE
8
Polygon
10
1.0748408937854395
20
0.44946061339417703
11
1.0752244913748152
21
0.44815325973964465
0
LINE
8
Polygon
10
1.0752244913748152
20
0.44815325973964465
11
1.0755483343972783
21
0.4468298375147309
0
LINE
8
Polygon
10
1.0755483343972783
20
0.4468298375147309
11
1.0758117549011597
21
0.4454930763817199
0
LINE
8
Polygon
10
1.0758117549011597
20
0.4454930763817199
11
1.07601420956098
21
0.4441457335154417
0
LINE
8
Polygon
10
1.07601420956098
20
0.4441457335154417
11
1.0761552807981023
21
0.44279058791638204
0
LINE
8
Polygon
10
1.0761552807981023
20
0.44279058791638204
11
1.0762346776420195
21
0.4414304346787761
0
LINE
8
Polygon
10
1.0762346776420195
20
0.4414304346787761
11
1.0762522363305054
21
0.44006807922550684
0
LINE
8
Polygon
10
1.0762522363305054
20
0.44006807922550684
11
1.0762079206473854
21
0.4387063315216999
0
LINE
8
Polygon
10
1.0762079206473854
20
0.4387063315216999
11
1.0761018219972371
21
0.43734800027894993
0
LINE
8
Polygon
10
1.0761018219972371
20
0.43734800027894993
11
1.0759341592168594
21
0.43599588716213244
0
LINE
8
Polygon
10
1.0759341592168594
20
0.43599588716213244
11
1.0757052781239056
21
0.4346527810107497
0
LINE
8
Polygon
10
1.0757052781239056
20
0.4346527810107497
11
1.075415650803607
21
0.43332145208673034
0
LINE
8
Polygon
10
1.075415650803607
20
0.4333214520867304
11
1.0750658746350599
21
0.4320046463605466
0
LINE
8
Polygon
10
1.0750658746350599
20
0.4320046463605466
11
1.0746566710590841
21
0.4307050798474344
0
LINE
8
Polygon
10
1.0746566710590844
20
0.43070507984743434
11
1.0705323709846482
21
0.4162298666239187
0
LINE
8
Polygon
10
1.0705323709846482
20
0.4162298666239187
11
1.067879476423415
21
0.40141420601032424
0
LINE
8
Polygon
10
1.067879476423415
20
0.40141420601032424
11
1.0667246980913156
21
0.3864072697482503
0
LINE
8
Polygon
10
1.0667246980913156
20
0.3864072697482503
11
1.0670796628944637
21
0.3713601554415547
0
LINE
8
Polygon
10
1.0670796628944637
20
0.37136015544155465
11
1.0689407968634441
21
0.35642436522745
0
LINE
8
Polygon
10
1.0689407968634441
20
0.35642436522745
11
1.0722893611378888
21
0.3417502803745487
0
LINE
8
Polygon
10
1.0722893611378888
20
0.3417502803745487
11
1.0770916406390234
21
0.327485647166393
0
LINE
8
Polygon
10
1.0770916406390234
20
0.327485647166393
11
1.083299283530537
21
0.31377408931538003
0
LINE
8
Polygon
10
1.083299283530537
20
0.31377408931538003
11
1.0908497880499024
21
0.3007536618848661
0
LINE
8
Polygon
10
1.0908497880499024
20
0.3007536618848661
11
1.0996671318084805
21
0.2885554612793137
0
LINE
8
Polygon
10
1.0996671318084805
20
0.2885554612793137
11
1.109662537224289
21
0.27730230529781846
0
LINE
8
Polygon
10
1.109662537224289
20
0.27730230529781846
11
1.1207353653806602
21
0.2671074965409212
0
LINE
8
Polygon
10
1.1207353653806602
20
0.2671074965409212
11
1.1327741293109581
21
0.2580736816213651
0
LINE
8
Polygon
10
1.1327741293109581
20
0.2580736816213651
11
1.145657616507079
21
0.25029181766485553
0
LINE
8
Polygon
10
1.1456576165070793
20
0.25029181766485553
11
1.1592561093497389
21
0.2438402565066266
0
LINE
8
Polygon
10
1.1592561093497389
20
0.2438402565066266
11
1.1734326911726225
21
0.23878395580459916
0
LINE
8
Polygon
10
1.1734326911726225
20
0.23878395580459916
11
1.188044624810267
21
0.2351738250120499
0
LINE
8
Polygon
10
1.188044624810267
20
0.2351738250120499
11
1.2029447897497425
21
0.2330462127948785
0
LINE
8
Polygon
10
1.2029447897497425
20
0.2330462127948785
11
1.2179831634161464
21
0.23242254105442037
0
LINE
8
Polygon
10
1.2179831634161464
20
0.23242254105442037
11
1.2330083316775577
21
0.2333090892406533
0
LINE
8
Polygon
10
1.2330083316775577
20
0.2333090892406533
11
1.24786901336091
21
0.2356969311274439
0
LINE
8
Polygon
10
1.2478690133609103
20
0.23569693112744391
11
1.262415583429165
21
0.2395620246864138
0
LINE
8
Polygon
10
1.262415583429165
20
0.2395620246864138
11
1.27650157948365
21
0.24486545415452862
0
LINE
8
Polygon
10
1.27650157948365
20
0.24486545415452862
11
1.2899851764233177
21
0.2515538218581482
0
LINE
8
Polygon
10
1.2899851764233177
20
0.2515538218581482
11
1.3027306144132895
21
0.25955978584845035
0
LINE
8
Polygon
10
1.3027306144132895
20
0.25955978584845035
11
1.3146095657851617
21
0.26880273793503695
0
LINE
8
Polygon
10
1.3146095657851617
20
0.26880273793503695
11
1.3255024271064082
21
0.2791896152909281
0
LINE
8
Polygon
10
1.3255024271064082
20
0.2791896152909281
11
1.3352995234096643
21
0.2906158374572858
0
LINE
8
Polygon
10
1.3352995234096643
20
0.29061583745728586
11
1.343902212457078
21
0.30296635931361815
0
LINE
8
Polygon
10
1.343902212457078
20
0.30296635931361815
11
1.351223877921433
21
0.3161168294116151
0
LINE
8
Polygon
10
1.351223877921433
20
0.3161168294116151
11
1.357190801484173
21
0.32993484200991063
0
LINE
8
Polygon
10
1.357190801484173
20
0.32993484200991063
11
1.3617429050696013
21
0.34428127020363775
0
LINE
8
Polygon
10
1.361742905069601
20
0.3442812702036377
11
1.36483435574205
21
0.35901166672613677
0
LINE
8
Polygon
10
1.36483435574205
20
0.35901166672613677
11
1.3664340271756057
21
0.37397771831882154
0
LINE
8
Polygon
10
1.3664340271756057
20
0.37397771831882154
11
1.3665258130500746
21
0.3890287390258528
0
LINE
8
Polygon
10
1.3665258130500746
20
0.3890287390258528
11
1.365108789217752
21
0.404013187378357
0
LINE
8
Polygon
10
1.365108789217752
20
0.40401318737835695
11
1.3621972230082204
21
0.41878019219239254
0
LINE
8
Polygon
10
1.3621972230082204
20
0.4187801921923926
11
1.357820429577488
21
0.4331810716181407
0
LINE
8
Polygon
10
1.357820429577488
20
0.4331810716181407
11
1.352022476747822
21
0.4470708301457466
0
LINE
8
Polygon
10
1.352022476747822
20
0.4470708301457466
11
1.3448617413100967
21
0.46030961849518187
0
LINE
8
Polygon
10
1.3448617413100967
20
0.4603096184951818
11
1.3364103212560414
21
0.4727641416911998
0
LINE
8
Polygon
10
1.3364103212560414
20
0.47276414169119985
11
1.326753309858331
21
0.48430900114615766
0
LINE
8
Polygon
10
1.326753309858331
20
0.48430900114615766
11
1.3159879389074616
21
0.4948279572379195
0
LINE
8
Polygon
10
1.3159879389074616
20
0.4948279572379195
11
1.3042225997317436
21
0.5042150996705532
0
LINE
8
Polygon
10
1.3042225997317436
20
0.5042150996705532
11
1.291575751857291
21
0.5123759138340229
0
LINE
8
Polygon
10
1.291575751857291
20
0.5123759138340229
11
1.2781747302961814
21
0.5192282324262161
0
LINE
8
Polygon
10
1.2781747302961814
20
0.5192282324262161
11
1.2641544634716304
21
0.5247030627558819
0
LINE
8
Polygon
10
1.2641544634716304
20
0.5247030627558819
11
1.2496561146887681
21
0.5287452813967662
0
LINE
8
Polygon
10
1.2496561146887684
20
0.5287452813967664
11
1.2483341410446358
21
0.5290749878917165
0
LINE
8
Polygon
10
1.2483341410446358
20
0.5290749878917165
11
1.247028500701552
21
0.5294643771354123
0
LINE
8
Polygon
10
1.247028500701552
20
0.5294643771354123
11
1.2457418866452736
21
0.5299126459819549
0
LINE
8
Polygon
10
1.2457418866452736
20
0.5299126459819549
11
1.244476952618346
21
0.5304188698416401
0
LINE
8
Polygon
10
1.244476952618346
20
0.5304188698416401
11
1.2432363076465511
21
0.5309820045879969
0
LINE
8
Polygon
10
1.2432363076465511
20
0.5309820045879969
11
1.2420225106575875
21
0.5316008887113808
0
LINE
8
Polygon
10
1.2420225106575875
20
0.5316008887113808
11
1.2408380652030797
21
0.5322742457146784
0
LINE
8
Polygon
10
1.24083806520308
20
0.5322742457146783
11
1.2396854142948077
21
0.5330006867461828
0
LINE
8
Polygon
10
1.2396854142948077
20
0.5330006867461828
11
1.238566935365802
21
0.53377871346421
0
LINE
8
Polygon
10
1.238566935365802
20
0.53377871346421
11
1.2374849353667023
21
0.5346067211275454
0
LINE
8
Polygon
10
1.2374849353667023
20
0.5346067211275454
11
1.2364416460074903
21
0.5354830019053494
0
LINE
8
Polygon
10
1.2364416460074903
20
0.5354830019053494
11
1.2354392191544121
21
0.5364057483996921
0
LINE
8
Polygon
10
1.2354392191544121
20
0.5364057483996921
11
1.2344797223915858
21
0.5373730573734538
0
LINE
8
Polygon
10
1.2344797223915858
20
0.5373730573734538
11
1.2335651347564465
21
0.5383829336759008
0
LINE
8
Polygon
10
1.2335651347564465
20
0.5383829336759008
11
1.2326973426578258
21
0.5394332943578408
0
LINE
8
Polygon
10
1.2326973426578258
20
0.5394332943578408
11
1.231878135985086
21
0.5405219729678689
0
LINE
8
Polygon
10
1.231878135985086
20
0.5405219729678689
11
1.2311092044163328
21
0.5416467240208439
0
LINE
8
Polygon
10
1.2311092044163328
20
0.5416467240208439
11
1.2303921339333206
21
0.5428052276293779
0
LINE
8
Polygon
10
1.2303921339333206
20
0.5428052276293779
11
1.2297284035502414
21
0.5439950942887861
0
LINE
8
Polygon
10
1.2297284035502414
20
0.5439950942887861
11
1.2291193822631414
21
0.545213869805628
0
LINE
8
Polygon
10
1.2291193822631414
20
0.545213869805628
11
1.2285663262262598
21
0.5464590403596739
0
LINE
8
Polygon
10
1.2285663262262598
20
0.5464590403596739
11
1.2280703761611114
21
0.5477280376888567
0
LINE
8
Polygon
10
1.2280703761611114
20
0.5477280376888567
11
1.2276325550036586
21
0.5490182443865143
0
LINE
8
Polygon
10
1.2276325550036586
20
0.5490182443865143
11
1.2272537657944267
21
0.5503269992999963
0
LINE
8
Polygon
10
1.2272537657944267
20
0.5503269992999963
11
1.2269347898159106
21
0.5516516030195002
0
LINE
8
Polygon
10
1.2269347898159106
20
0.5516516030195002
11
1.2266762849811197
21
0.5529893234458164
0
LINE
8
Polygon
10
1.2266762849811197
20
0.5529893234458164
11
1.226478784476579
21
0.5543374014254971
0
LINE
8
Polygon
10
1.226478784476579
20
0.5543374014254971
11
1.2263426956625916
21
0.5556930564418273
0
LINE
8
Polygon
10
1.2263426956625916
20
0.5556930564418273
11
1.2262682992330252
21
0.5570534923498589
0
LINE
8
Polygon
10
1.2262682992330252
20
0.5570534923498589
11
1.226255748636359
21
0.558415903143679
0
LINE
8
Polygon
10
1.226255748636359
20
0.5584159031436788
11
1.2263050697591844
21
0.5597774787440174
0
LINE
8
Polygon
10
1.2263050697591844
20
0.5597774787440174
11
1.226416160872812
21
0.5611354107942566
0
LINE
8
Polygon
10
1.226416160872812
20
0.5611354107942566
11
1.2265887928430939
21
0.562486898452887
0
LINE
8
Polygon
10
1.2265887928430939
20
0.562486898452887
11
1.226822609603033
21
0.5638291541704631
0
LINE
8
Polygon
10
1.226822609603033
20
0.5638291541704631
11
1.2271171288871972
21
0.5651594094391424
0
LINE
8
Polygon
10
1.2271171288871972
20
0.5651594094391424
11
1.2274717432264302
21
0.5664749205029516
0
LINE
8
Polygon
10
1.2274717432264302
20
0.5664749205029516
11
1.2278857212008052
21
0.5677729740169972
0
LINE
8
Polygon
10
1.2278857212008052
20
0.5677729740169972
11
1.2283582089482348
21
0.5690508926439539
0
LINE
8
Polygon
10
1.2283582089482348
20
0.5690508926439539
11
1.2288882319256296
21
0.570306040576282
0
LINE
8
Polygon
10
1.2288882319256296
20
0.570306040576282
11
1.229474696918969
21
0.5715358289727882
0
LINE
8
Polygon
10
1.229474696918969
20
0.5715358289727882
11
1.2301163942981417
21
0.5727377212983136
0
LINE
8
Polygon
10
1.2301163942981417
20
0.5727377212983136
11
1.2308120005119023
21
0.5739092385555367
0
LINE
8
Polygon
10
1.2308120005119023
20
0.5739092385555367
11
1.2315600808178
21
0.5750479643981
0
LINE
8
Polygon
10
1.2315600808178
20
0.5750479643981
11
1.2323590922414478
21
0.5761515501145147
0
LINE
8
Polygon
10
1.2323590922414478
20
0.5761515501145147
11
1.2332073867590272
21
0.5772177194725616
0
LINE
8
Polygon
10
1.2332073867590272
20
0.5772177194725616
11
1.2341032146964688
21
0.5782442734141999
0
LINE
8
Polygon
10
1.2341032146964688
20
0.5782442734141999
11
1.2350447283382904
21
0.5792290945912965
0
LINE
8
Polygon
10
1.2350447283382904
20
0.5792290945912965
11
1.2360299857386565
21
0.5801701517328227
0
LINE
8
Polygon
10
1.2360299857386565
20
0.5801701517328226
11
1.2381907114652344
21
0.5821537328084143
0
LINE
8
Polygon
10
1.2381907114652344
20
0.5821537328084143
11
1.24033976380796
21
0.584149955135002
0
LINE
8
Polygon
10
1.24033976380796
20
0.584149955135002
11
1.2424770688108109
21
0.5861587500159515
0
LINE
8
Polygon
10
1.2424770688108109
20
0.5861587500159515
11
1.2446025529220304
21
0.5881800483219657
0
LINE
8
Polygon
10
1.2446025529220304
20
0.5881800483219657
11
1.246716142996657
21
0.5902137804934624
0
LINE
8
Polygon
10
1.246716142996657
20
0.5902137804934624
11
1.2488177662990432
21
0.5922598765429696
0
LINE
8
Polygon
10
1.2488177662990432
20
0.5922598765429696
11
1.2509073505053574
21
0.5943182660575326
0
LINE
8
Polygon
10
1.2509073505053574
20
0.5943182660575326
11
1.2529848237060734
21
0.5963888782011384
0
LINE
8
Polygon
10
1.2529848237060734
20
0.5963888782011384
11
1.2550501144084452
21
0.5984716417171521
0
LINE
8
Polygon
10
1.2550501144084452
20
0.5984716417171521
11
1.2571031515389663
21
0.6005664849307704
0
LINE
8
Polygon
10
1.2571031515389663
20
0.6005664849307704
11
1.259143864445817
21
0.602673335751487
0
LINE
8
Polygon
10
1.259143864445817
20
0.602673335751487
11
1.2611721829012947
21
0.6047921216755743
0
LINE
8
Polygon
10
1.2611721829012947
20
0.6047921216755743
11
1.2631880371042306
21
0.6069227697885781
0
LINE
8
Polygon
10
1.2631880371042306
20
0.6069227697885781
11
1.2651913576823928
21
0.6090652067678268
0
LINE
8
Polygon
10
1.2651913576823928
20
0.6090652067678268
11
1.2671820756948728
21
0.6112193588849553
0
LINE
8
Polygon
10
1.2671820756948728
20
0.6112193588849553
11
1.2691601226344584
21
0.6133851520084409
0
LINE
8
Polygon
10
1.2691601226344584
20
0.6133851520084409
11
1.2711254304299904
21
0.6155625116061559
0
LINE
8
Polygon
10
1.2711254304299904
20
0.6155625116061559
11
1.2730779314487068
21
0.6177513627479316
0
LINE
8
Polygon
10
1.2730779314487068
20
0.6177513627479316
11
1.2750175584985683
21
0.6199516301081374
0
LINE
8
Polygon
10
1.2750175584985683
20
0.6199516301081374
11
1.2769442448305723
21
0.6221632379682722
0
LINE
8
Polygon
10
1.2769442448305723
20
0.6221632379682722
11
1.278857924141049
21
0.6243861102195711
0
LINE
8
Polygon
10
1.278857924141049
20
0.6243861102195711
11
1.2807585305739435
21
0.626620170365624
0
LINE
8
Polygon
10
1.2807585305739435
20
0.626620170365624
11
1.2826459987230814
21
0.6288653415250082
0
LINE
8
Polygon
10
1.2826459987230814
20
0.6288653415250082
11
1.284520263634421
21
0.6311215464339343
0
LINE
8
Polygon
10
1.284520263634421
20
0.6311215464339343
11
1.2863812608082876
21
0.6333887074489046
0
LINE
8
Polygon
10
1.2863812608082876
20
0.6333887074489046
11
1.2882289262015931
21
0.6356667465493862
0
LINE
8
Polygon
10
1.2882289262015931
20
0.6356667465493862
11
1.2900631962300406
21
0.6379555853404941
0
LINE
8
Polygon
10
1.2900631962300406
20
0.6379555853404941
11
1.291884007770312
21
0.6402551450556909
0
LINE
8
Polygon
10
1.291884007770312
20
0.6402551450556909
11
1.29369129816224
21
0.6425653465594965
0
LINE
8
Polygon
10
1.29369129816224
20
0.6425653465594965
11
1.2954850052109657
21
0.6448861103502115
0
LINE
8
Polygon
10
1.2954850052109657
20
0.6448861103502115
11
1.2972650671890773
21
0.6472173565626529
0
LINE
8
Polygon
10
1.2972650671890773
20
0.6472173565626529
11
1.2990314228387356
21
0.649559004970903
0
LINE
8
Polygon
10
1.2990314228387356
20
0.649559004970903
11
1.300784011373782
21
0.6519109749910703
0
LINE
8
Polygon
10
1.300784011373782
20
0.6519109749910703
11
1.3025227724818291
21
0.6542731856840618
0
LINE
8
Polygon
10
1.3025227724818291
20
0.6542731856840618
11
1.304247646326338
21
0.6566455557583695
0
LINE
8
Polygon
10
1.304247646326338
20
0.6566455557583695
11
1.305958573548676
21
0.6590280035728671
0
LINE
8
Polygon
10
1.305958573548676
20
0.6590280035728671
11
1.30765549527016
21
0.6614204471396197
0
LINE
8
Polygon
10
1.30765549527016
20
0.6614204471396197
11
1.3093383530940834
21
0.6638228041267058
0
LINE
8
Polygon
10
1.3093383530940834
20
0.6638228041267058
11
1.311007089107724
21
0.6662349918610498
0
LINE
8
Polygon
10
1.311007089107724
20
0.6662349918610498
11
1.3126616458843385
21
0.6686569273312679
0
LINE
8
Polygon
10
1.3126616458843385
20
0.6686569273312679
11
1.314301966485138
21
0.6710885271905238
0
LINE
8
Polygon
10
1.314301966485138
20
0.6710885271905238
11
1.3159279944612479
21
0.6735297077593981
0
LINE
8
Polygon
10
1.3159279944612479
20
0.6735297077593981
11
1.31753967385565
21
0.675980385028767
0
LINE
8
Polygon
10
1.31753967385565
20
0.675980385028767
11
1.3191369492051084
21
0.6784404746626937
0
LINE
8
Polygon
10
1.3191369492051084
20
0.6784404746626937
11
1.3207197655420782
21
0.680909892001331
0
LINE
8
Polygon
10
1.3207197655420782
20
0.680909892001331
11
1.3222880683965972
21
0.6833885520638343
0
LINE
8
Polygon
10
1.3222880683965972
20
0.6833885520638343
11
1.3238418037981603
21
0.6858763695512862
0
LINE
8
Polygon
10
1.3238418037981603
20
0.6858763695512862
11
1.3253809182775766
21
0.6883732588496315
0
LINE
8
Polygon
10
1.8098875937163466
20
0.3916747259003202
11
1.808955644217047
21
0.3901487774863252
0
LINE
8
Polygon
10
1.808955644217047
20
0.3901487774863252
11
1.808027335284032
21
0.3886206116064864
0
LINE
8
Polygon
10
1.8080273352840317
20
0.3886206116064861
11
1.8071026721934766
21
0.3870902369463509
0
LINE
8
Polygon
10
1.8071026721934766
20
0.3870902369463509
11
1.806181660200835
21
0.38555766220402043
0
LINE
8
Polygon
10
1.806181660200835
20
0.3855576622040201
11
1.805264304540809
21
0.3840228960901
0
LINE
8
Polygon
10
1.805264304540809
20
0.3840228960901
11
1.8043506104273197
21
0.38248594732765084
0
LINE
8
Polygon
10
1.8043506104273195
20
0.38248594732765057
11
1.8034405830534768
21
0.38094682465213836
0
LINE
8
Polygon
10
1.8034405830534768
20
0.38094682465213836
11
1.80253422759155
21
0.3794055368113849
0
LINE
8
Polygon
10
1.8025342275915497
20
0.37940553681138467
11
1.8016315491929384
21
0.3778620925655177
0
LINE
8
Polygon
10
1.8016315491929384
20
0.3778620925655177
11
1.8007325529881435
21
0.37631650068692135
0
LINE
8
Polygon
10
1.8007325529881433
20
0.376316500686921
11
1.7998372440867367
21
0.3747687699601856
0
LINE
8
Polygon
10
1.7998372440867367
20
0.3747687699601856
11
1.7989456275773335
21
0.3732189091820578
0
LINE
8
Polygon
10
1.7989456275773335
20
0.3732189091820575
11
1.7980577085275624
21
0.3716669271613908
0
LINE
8
Polygon
10
1.7980577085275624
20
0.3716669271613908
11
1.7971734919840372
21
0.3701128327190948
0
LINE
8
Polygon
10
1.797173491984037
20
0.37011283271909445
11
1.7962929829723278
21
0.368556634688085
0
LINE
8
Polygon
10
1.7962929829723278
20
0.368556634688085
11
1.795416186496932
21
0.3669983419132341
0
LINE
8
Polygon
10
1.7954161864969318
20
0.3669983419132338
11
1.7945431075412466
21
0.36543796325131916
0
LINE
8
Polygon
10
1.7945431075412466
20
0.36543796325131916
11
1.7936737510675398
21
0.36387550757097403
0
LINE
8
Polygon
10
1.7936737510675396
20
0.36387550757097376
11
1.7928081220169219
21
0.36231098375263615
0
LINE
8
Polygon
10
1.7928081220169219
20
0.36231098375263615
11
1.7919462253093184
21
0.36074440068849895
0
LINE
8
Polygon
10
1.7919462253093181
20
0.3607444006884986
11
1.7910880658434414
21
0.3591757672824586
0
LINE
8
Polygon
10
1.7910880658434414
20
0.3591757672824586
11
1.7902336484967618
21
0.3576050924500658
0
LINE
8
Polygon
10
1.7902336484967618
20
0.35760509245006544
11
1.7893829781254815
21
0.3560323851184729
0
LINE
8
Polygon
10
1.7893829781254815
20
0.3560323851184729
11
1.7885360595645061
21
0.3544576542263854
0
LINE
8
Polygon
10
1.7885360595645061
20
0.35445765422638514
11
1.7876928976274173
21
0.3528809087240089
0
LINE
8
Polygon
10
1.7876928976274173
20
0.3528809087240089
11
1.7868534971064454
21
0.35130215757300026
0
LINE
8
Polygon
10
1.7868534971064454
20
0.35130215757300026
11
1.7860178627724421
21
0.349721409746415
0
LINE
8
Polygon
10
1.7860178627724421
20
0.34972140974641475
11
1.7851859993748533
21
0.34813867422865713
0
LINE
8
Polygon
10
1.7851859993748533
20
0.34813867422865713
11
1.784357911641693
21
0.34655396001542865
0
LINE
8
Polygon
10
1.7843579116416928
20
0.3465539600154284
11
1.7835336042795147
21
0.3449672761136768
0
LINE
8
Polygon
10
1.7835336042795147
20
0.3449672761136768
11
1.782713081973386
21
0.3433786315415447
0
LINE
8
Polygon
10
1.782713081973386
20
0.3433786315415444
11
1.781896349386862
21
0.3417880353283185
0
LINE
8
Polygon
10
1.781896349386862
20
0.3417880353283185
11
1.781083411161958
21
0.34019549651437736
0
LINE
8
Polygon
10
1.7810834111619578
20
0.3401954965143771
11
1.7802742719191231
21
0.3386010241511409
0
LINE
8
Polygon
10
1.7802742719191231
20
0.3386010241511409
11
1.7794689362572154
21
0.3370046273010191
0
LINE
8
Polygon
10
1.7794689362572154
20
0.3370046273010188
11
1.7786674087534737
21
0.3354063150373592
0
LINE
8
Polygon
10
1.7786674087534737
20
0.3354063150373592
11
1.7778696939634937
21
0.33380609644439563
0
LINE
8
Polygon
10
1.7778696939634937
20
0.33380609644439535
11
1.7770757964212
21
0.33220398061719714
0
LINE
8
Polygon
10
1.7770757964212
20
0.33220398061719714
11
1.7762857206388218
21
0.33059997666161645
0
LINE
8
Polygon
10
1.7762857206388216
20
0.3305999766616161
11
1.7754994711068666
21
0.32899409369423666
0
LINE
8
Polygon
10
1.7754994711068666
20
0.32899409369423666
11
1.7747170522940954
21
0.32738634084232177
0
LINE
8
Polygon
10
1.7747170522940952
20
0.32738634084232143
11
1.773938468647496
21
0.3257767272437621
0
LINE
8
Polygon
10
1.773938468647496
20
0.3257767272437621
11
1.773163724592259
21
0.32416526204702534
0
LINE
8
Polygon
10
1.7731637245922587
20
0.32416526204702506
11
1.7723928245317517
21
0.3225519544111015
0
LINE
8
Polygon
10
1.7723928245317517
20
0.3225519544111015
11
1.7716257728474942
21
0.3209368135054538
0
LINE
8
Polygon
10
1.7716257728474938
20
0.32093681350545344
11
1.770862573899133
21
0.31931984850996353
0
LINE
8
Polygon
10
1.770862573899133
20
0.31931984850996353
11
1.7701032320244179
21
0.31770106861488107
0
LINE
8
Polygon
10
1.7701032320244177
20
0.31770106861488073
11
1.7693477515391758
21
0.31608048302077063
0
LINE
8
Polygon
10
1.7693477515391758
20
0.31608048302077063
11
1.7687348403656824
21
0.3148375702391163
0
LINE
8
Polygon
10
1.7687348403656824
20
0.3148375702391163
11
1.7680651834068422
21
0.31362428880149784
0
LINE
8
Polygon
10
1.7680651834068422
20
0.31362428880149784
11
1.7673402096304616
21
0.31244322770529953
0
LINE
8
Polygon
10
1.7673402096304616
20
0.31244322770529953
11
1.7665614660438158
21
0.3112969071935531
0
LINE
8
Polygon
10
1.7665614660438158
20
0.3112969071935531
11
1.7657306143925198
21
0.3101877733770406
0
LINE
8
Polygon
10
1.7657306143925198
20
0.3101877733770406
11
1.7648494276145625
21
0.3091181930145873
0
LINE
8
Polygon
10
1.7648494276145625
20
0.3091181930145873
11
1.7639197860570688
21
0.3080904484626808
0
LINE
8
Polygon
10
1.7639197860570688
20
0.3080904484626808
11
1.7629436734638646
21
0.307106732805196
0
LINE
8
Polygon
10
1.7629436734638646
20
0.307106732805196
11
1.7619231727424038
21
0.3061691451736165
0
LINE
8
Polygon
10
1.7619231727424038
20
0.3061691451736165
11
1.7608604615190946
21
0.3052796862677389
0
LINE
8
Polygon
10
1.7608604615190946
20
0.3052796862677389
11
1.7597578074925033
21
0.3044402540864194
0
LINE
8
Polygon
10
1.7597578074925033
20
0.3044402540864194
11
1.758617563594359
21
0.3036526398774709
0
LINE
8
Polygon
10
1.758617563594359
20
0.3036526398774709
11
1.7574421629686778
21
0.30291852431535493
0
LINE
8
Polygon
10
1.7574421629686778
20
0.30291852431535493
11
1.7562341137797248
21
0.3022394739148232
0
LINE
8
Polygon
10
1.7562341137797248
20
0.3022394739148232
11
1.7549959938598916
21
0.3016169376881627
0
LINE
8
Polygon
10
1.7549959938598916
20
0.3016169376881627
11
1.7537304452089106
21
0.301052244053177
0
LINE
8
Polygon
10
1.7537304452089106
20
0.301052244053177
11
1.7524401683561446
21
0.30054659799850153
0
LINE
8
Polygon
10
1.7524401683561446
20
0.30054659799850153
11
1.751127916597979
21
0.30010107851230194
0
LINE
8
Polygon
10
1.751127916597979
20
0.30010107851230194
11
1.749796490122617
21
0.2997166362798428
0
LINE
8
Polygon
10
1.749796490122617
20
0.2997166362798428
11
1.7484487300348144
21
0.2993940916548386
0
LINE
8
Polygon
10
1.7484487300348144
20
0.2993940916548386
11
1.7470875122933007
21
0.2991341329089176
0
LINE
8
Polygon
10
1.7470875122933007
20
0.2991341329089176
11
1.7457157415738278
21
0.298937314762932
0
LINE
8
Polygon
10
1.7457157415738278
20
0.298937314762932
11
1.7443363450709395
21
0.29880405720325054
0
LINE
8
Polygon
10
1.7443363450709395
20
0.29880405720325054
11
1.742952266251689
21
0.29873464458555754
0
LINE
8
Polygon
10
1.742952266251689
20
0.29873464458555754
11
1.7415664585746322
21
0.29872922502807187
0
LINE
8
Polygon
10
1.7415664585746322
20
0.29872922502807187
11
1.7401818791875008
21
0.2987878100954806
0
LINE
8
Polygon
10
1.7401818791875008
20
0.2987878100954806
11
1.7388014826170024
21
0.29891027477426135
0
LINE
8
Polygon
10
1.7388014826170024
20
0.29891027477426135
11
1.7374282144642148
21
0.2990963577394459
0
LINE
8
Polygon
10
1.7374282144642148
20
0.2990963577394459
11
1.7360650051190254
21
0.29934566191225664
0
LINE
8
Polygon
10
1.7360650051190254
20
0.29934566191225664
11
1.73471476350703
21
0.2996576553074253
0
LINE
8
Polygon
10
1.73471476350703
20
0.2996576553074253
11
1.7333803708822337
21
0.3000316721683853
0
LINE
8
Polygon
10
1.7333803708822337
20
0.3000316721683853
11
1.7320646746788002
21
0.3004669143879171
0
LINE
8
Polygon
10
1.7320646746788002
20
0.3004669143879171
11
1.7307704824349668
21
0.3009624532112135
0
LINE
8
Polygon
10
1.7307704824349668
20
0.3009624532112135
11
1.7295005558020948
21
0.3015172312177308
0
LINE
8
Polygon
10
1.7295005558020948
20
0.3015172312177308
11
1.7282576046516362
21
0.30213006457759806
0
LINE
8
Polygon
10
1.7282576046516362
20
0.30213006457759806
11
1.7270442812925915
21
0.3027996455777683
0
LINE
8
Polygon
10
1.7270442812925915
20
0.3027996455777683
11
1.7258631748118
21
0.3035245454125215
0
LINE
8
Polygon
10
1.7258631748118
20
0.3035245454125215
11
1.724716805549139
21
0.3043032172323653
0
LINE
8
Polygon
10
1.724716805549139
20
0.3043032172323653
11
1.7236076197194194
21
0.30513399944482633
0
LINE
8
Polygon
10
1.7236076197194194
20
0.30513399944482633
11
1.722537984192456
21
0.30601511926008995
0
LINE
8
Polygon
10
1.722537984192456
20
0.30601511926008995
11
1.7215101814424507
21
0.3069446964739214
0
LINE
8
Polygon
10
1.7215101814424507
20
0.3069446964739214
11
1.7205264046774669
21
0.3079207474797968
0
LINE
8
Polygon
10
1.7205264046774669
20
0.3079207474797968
11
1.7195887531593836
21
0.30894118950168187
0
LINE
8
Polygon
10
1.7195887531593836
20
0.3089411895016818
11
1.7186992277243238
21
0.3100038450384267
0
LINE
8
Polygon
10
1.7186992277243238
20
0.3100038450384267
11
1.7178597265131093
21
0.31110644651029307
0
LINE
8
Polygon
10
1.7178597265131093
20
0.31110644651029307
11
1.717072040920854
21
0.31224664109769745
0
LINE
8
Polygon
10
1.717072040920854
20
0.31224664109769745
11
1.7163378517743433
21
0.31342199576184715
0
LINE
8
Polygon
10
1.7163378517743433
20
0.31342199576184715
11
1.715658725745349
21
0.3146300024365535
0
LINE
8
Polygon
10
1.7156587257453488
20
0.31463000243655315
11
1.7080390937129346
21
0.32738219840875415
0
LINE
8
Polygon
10
1.7080390937129346
20
0.32738219840875415
11
1.6991954667431752
21
0.33931817580662804
0
LINE
8
Polygon
10
1.6991954667431752
20
0.339318175806628
11
1.6892145820659628
21
0.3503208679991323
0
LINE
8
Polygon
10
1.6892145820659628
20
0.3503208679991323
11
1.678194330998031
21
0.3602823619042934
0
LINE
8
Polygon
10
1.678194330998031
20
0.3602823619042934
11
1.6662427988366926
21
0.3691049563877379
0
LINE
8
Polygon
10
1.6662427988366926
20
0.3691049563877379
11
1.6534772047722395
21
0.37670212050367036
0
LINE
8
Polygon
10
1.6534772047722395
20
0.37670212050367036
11
1.6400227522162203
21
0.38299934217998455
0
LINE
8
Polygon
10
1.6400227522162205
20
0.38299934217998455
11
1.6260114008214352
21
0.38793485902370684
0
LINE
8
Polygon
10
1.6260114008214352
20
0.38793485902370684
11
1.6115805722375292
21
0.3914602640791193
0
LINE
8
Polygon
10
1.6115805722375292
20
0.3914602640791193
11
1.5968718022959763
21
0.393540980597361
0
LINE
8
Polygon
10
1.5968718022959763
20
0.393540980597361
11
1.5820293528436653
21
0.3941566011610227
0
LINE
8
Polygon
10
1.5820293528436653
20
0.3941566011610227
11
1.5671987968400514
21
0.393301087837643
0
LINE
8
Polygon
10
1.5671987968400514
20
0.393301087837643
11
1.552525590595075
21
0.39098283139902407
0
LINE
8
Polygon
10
1.552525590595075
20
0.39098283139902407
11
1.538153647151165
21
0.38722456902555047
0
LINE
8
Polygon
10
1.5381536471511652
20
0.38722456902555047
11
1.524223924801424
21
0.38206316130265805
0
LINE
8
Polygon
10
1.524223924801424
20
0.38206316130265805
11
1.5108730445876382
21
0.3755492306966448
0
LINE
8
Polygon
10
1.5108730445876382
20
0.3755492306966448
11
1.4982319503375299
21
0.36774666505560805
0
LINE
8
Polygon
10
1.4982319503375299
20
0.36774666505560805
11
1.4864246243834391
21
0.3587319910051132
0
LINE
8
Polygon
10
1.4864246243834391
20
0.3587319910051132
11
1.4755668715585177
21
0.3485936233842521
0
LINE
8
Polygon
10
1.4755668715585177
20
0.3485936233842521
11
1.465765183396851
21
0.33743099808353294
0
LINE
8
Polygon
10
1.465765183396851
20
0.33743099808353294
11
1.4571156936772964
21
0.3253535967896233
0
LINE
8
Polygon
10
1.4571156936772964
20
0.3253535967896233
11
1.4497032355549406
21
0.31247987320213194
0
LINE
8
Polygon
10
1.4497032355549406
20
0.31247987320213194
11
1.4436005095277151
21
0.2989360912539671
0
LINE
8
Polygon
10
1.4436005095277151
20
0.2989360912539671
11
1.4388673703986552
21
0.2848550867298653
0
LINE
8
Polygon
10
1.4388673703986552
20
0.2848550867298653
11
1.435550240227189
21
0.2703749644289882
0
LINE
8
Polygon
10
1.435550240227189
20
0.2703749644289882
11
1.4336816530271599
21
0.25563774364965874
0
LINE
8
Polygon
10
1.4336816530271599
20
0.25563774364965874
11
1.4332799356771326
21
0.24078796528116117
0
LINE
8
Polygon
10
1.4332799356771326
20
0.24078796528116123
11
1.4343490281725706
21
0.22597127416407944
0
LINE
8
Polygon
10
1.4343490281725706
20
0.22597127416407944
11
1.4368784449828342
21
0.2113329906232142
0
LINE
8
Polygon
10
1.4368784449828342
20
0.2113329906232142
11
1.4408433778920058
21
0.19701668518331175
0
LINE
8
Polygon
10
1.4408433778920058
20
0.19701668518331175
11
1.4462049393148868
21
0.1831627704466214
0
LINE
8
Polygon
10
1.4462049393148868
20
0.1831627704466214
11
1.452910543701758
21
0.1699071239429768
0
LINE
8
Polygon
10
1.452910543701758
20
0.1699071239429768
11
1.4608944232911276
21
0.15737975545932237
0
LINE
8
Polygon
10
1.4608944232911276
20
0.15737975545932237
11
1.4700782731520277
21
0.1457035319193563
0
LINE
8
Polygon
10
1.4700782731520277
20
0.1457035319193563
11
1.4803720191893608
21
0.13499297231951757
0
LINE
8
Polygon
10
1.4803720191893608
20
0.13499297231951757
11
1.4916747015797942
21
0.1253531245404394
0
LINE
8
Polygon
10
1.4916747015797942
20
0.1253531245404394
11
1.5038754649735657
21
0.11687853504996765
0
LINE
8
Polygon
10
1.503875464973566
20
0.11687853504996756
11
1.5168546457504255
21
0.10965232160277352
0
LINE
8
Polygon
10
1.5168546457504255
20
0.10965232160277358
11
1.5304849456660325
21
0.10374535803141044
0
LINE
8
Polygon
10
1.5304849456660325
20
0.10374535803141044
11
1.5446326803778296
21
0.09921557912428633
0
LINE
8
Polygon
10
1.5446326803778296
20
0.09921557912428633
11
1.5591590906049981
21
0.09610741240822607
0
LINE
8
Polygon
10
1.5591590906049981
20
0.09610741240822607
11
1.5739217030628
21
0.09445134240863029
0
LINE
8
Polygon
10
1.5739217030628
20
0.09445134240863029
11
1.5887757278234222
21
0.09426361166091618
0
LINE
8
Polygon
10
1.5887757278234222
20
0.09426361166091618
11
1.603575478398177
21
0.09554606140568303
0
LINE
8
Polygon
10
1.603575478398177
20
0.09554606140568303
11
1.6181758006130662
21
0.09828611353004607
0
LINE
8
Polygon
10
1.6181758006130662
20
0.09828611353004607
11
1.6324334962634637
21
0.10245689393225502
0
LINE
8
Polygon
10
1.6324334962634637
20
0.10245689393225502
11
1.6462087275848878
21
0.10801749609965242
0
LINE
8
Polygon
10
1.6462087275848878
20
0.10801749609965242
11
1.6593663887649805
21
0.11491338231483106
0
LINE
8
Polygon
10
1.6593663887649805
20
0.11491338231483071
11
1.660576410299425
21
0.11558891186679221
0
LINE
8
Polygon
10
1.660576410299425
20
0.11558891186679221
11
1.6618163378618866
21
0.11620783991530859
0
LINE
8
Polygon
10
1.6618163378618866
20
0.11620783991530859
11
1.66308352559534
21
0.11676884574199665
0
LINE
8
Polygon
10
1.66308352559534
20
0.11676884574199665
11
1.6643752694728169
21
0.1172707322275626
0
LINE
8
Polygon
10
1.6643752694728169
20
0.1172707322275626
11
1.6656888130674767
21
0.11771242840631117
0
LINE
8
Polygon
10
1.6656888130674767
20
0.11771242840631117
11
1.667021353434491
21
0.11809299175145849
0
LINE
8
Polygon
10
1.667021353434491
20
0.11809299175145849
11
1.6683700470921934
21
0.1184116101863712
0
LINE
8
Polygon
10
1.6683700470921934
20
0.1184116101863712
11
1.6697320160897275
21
0.11866760381744099
0
LINE
8
Polygon
10
1.6697320160897275
20
0.11866760381744099
11
1.6711043541482513
21
0.11886042638489606
0
LINE
8
Polygon
10
1.6711043541482513
20
0.11886042638489606
11
1.672484132862587
21
0.11898966642845418
0
LINE
8
Polygon
10
1.672484132862587
20
0.11898966642845418
11
1.673868407950088
21
0.11905504816532964
0
LINE
8
Polygon
10
1.673868407950088
20
0.11905504816532964
11
1.6752542255333853
21
0.11905643207872071
0
LINE
8
Polygon
10
1.6752542255333853
20
0.11905643207872071
11
1.676638628443609
21
0.11899381521552188
0
LINE
8
Polygon
10
1.676638628443609
20
0.11899381521552188
11
1.6780186625306317
21
0.1188673311926253
0
LINE
8
Polygon
10
1.6780186625306317
20
0.1188673311926253
11
1.679391382966872
21
0.11867724991179843
0
LINE
8
Polygon
10
1.679391382966872
20
0.11867724991179843
11
1.6807538605312042
21
0.11842397698374592
0
LINE
8
Polygon
10
1.6807538605312042
20
0.11842397698374592
11
1.6821031878595651
21
0.11810805286258491
0
LINE
8
Polygon
10
1.6821031878595651
20
0.11810805286258491
11
1.6834364856489212
21
0.11773015169258066
0
LINE
8
Polygon
10
1.6834364856489212
20
0.11773015169258066
11
1.6847509088013572
21
0.11729107986960333
0
LINE
8
Polygon
10
1.6847509088013572
20
0.11729107986960333
11
1.686043652495174
21
0.11679177432037571
0
LINE
8
Polygon
10
1.686043652495174
20
0.11679177432037571
11
1.6873119581700426
21
0.11623330050318374
0
LINE
8
Polygon
10
1.6873119581700426
20
0.11623330050318374
11
1.6885531194134416
21
0.11561685013431604
0
LINE
8
Polygon
10
1.6885531194134416
20
0.11561685013431604
11
1.6897644877358178
21
0.11494373864508392
0
LINE
8
Polygon
10
1.6897644877358178
20
0.11494373864508392
11
1.690943478222146
21
0.11421540237484848
0
LINE
8
Polygon
10
1.690943478222146
20
0.11421540237484848
11
1.692087575047828
21
0.11343339550604425
0
LINE
8
Polygon
10
1.692087575047828
20
0.11343339550604425
11
1.6931943368471616
21
0.11259938674773987
0
LINE
8
Polygon
10
1.6931943368471616
20
0.11259938674773987
11
1.6942614019229225
21
0.11171515577481267
0
LINE
8
Polygon
10
1.6942614019229225
20
0.11171515577481268
11
1.695286493285944
21
0.11078258943033553
0
LINE
8
Polygon
10
1.695286493285944
20
0.11078258943033553
11
1.6962674235139386
21
0.10980367769927943
0
LINE
8
Polygon
10
1.6962674235139386
20
0.10980367769927941
11
1.6972020994191959
21
0.1087805094621238
0
LINE
8
Polygon
10
1.6972020994191959
20
0.1087805094621238
11
1.6980885265151946
21
0.10771526803743556
0
LINE
8
Polygon
10
1.6980885265151946
20
0.10771526803743556
11
1.6989248132725983
21
0.10661022652292852
0
LINE
8
Polygon
10
1.6989248132725983
20
0.10661022652292854
11
1.699709175155552
21
0.10546774294494501
0
LINE
8
Polygon
10
1.699709175155552
20
0.10546774294494503
11
1.7004399384296687
21
0.10429025522670979
0
LINE
8
Polygon
10
1.7004399384296687
20
0.10429025522670979
11
1.701115543733578
21
0.10308027598609362
0
LINE
8
Polygon
10
1.701115543733578
20
0.10308027598609362
11
1.701734549406417
21
0.10184038717398756
0
LINE
8
Polygon
10
1.701734549406417
20
0.10184038717398756
11
1.7022956345641616
21
0.10057323456472868
0
LINE
8
Polygon
10
1.7022956345641616
20
0.10057323456472868
11
1.7027976019182345
21
0.09928152211033425
0
LINE
8
Polygon
10
1.7027976019182345
20
0.09928152211033425
11
1.7032393803303771
21
0.09796800617059181
0
LINE
8
Polygon
10
1.7032393803303771
20
0.09796800617059181
11
1.703620027098329
21
0.09663548963131721
0
LINE
8
Polygon
10
1.703620027098329
20
0.09663548963131723
11
1.703938729967443
21
0.09528681592333177
0
LINE
8
Polygon
10
1.703938729967443
20
0.09528681592333177
11
1.704194808863938
21
0.09392486295492113
0
LINE
8
Polygon
10
1.704194808863938
20
0.09392486295492111
11
1.704387717346096
21
0.09255253697072344
0
LINE
8
Polygon
10
1.704387717346096
20
0.09255253697072344
11
1.7045170437703032
21
0.09117276635015113
0
LINE
8
Polygon
10
1.7045170437703032
20
0.09117276635015115
11
1.7045825121694478
21
0.08978849535857973
0
LINE
8
Polygon
10
1.7045825121694478
20
0.08978849535857972
11
1.7045839828418012
21
0.08840267786463779
0
LINE
8
Polygon
10
1.7045839828418012
20
0.08840267786463779
11
1.7045214526491248
21
0.08701827103700492
0
LINE
8
Polygon
10
1.7045214526491248
20
0.08701827103700492
11
1.704395055023366
21
0.08563822903416762
0
LINE
8
Polygon
10
1.7043950550233662
20
0.08563822903416761
11
1.7041930077214564
21
0.08386165217987449
0
LINE
8
Polygon
10
1.7041930077214564
20
0.08386165217987449
11
1.7039951964191162
21
0.08208459868600171
0
LINE
8
Polygon
10
1.7039951964191162
20
0.08208459868600138
11
1.703801622240634
21
0.0803070786526842
0
LINE
8
Polygon
10
1.703801622240634
20
0.0803070786526842
11
1.7036122862862157
21
0.07852910218270953
0
LINE
8
Polygon
10
1.7036122862862157
20
0.0785291021827092
11
1.7034271896319795
21
0.07675067938145817
0
LINE
8
Polygon
10
1.7034271896319795
20
0.07675067938145817
11
1.7032463333299483
21
0.07497182035684868
0
LINE
8
Polygon
10
1.7032463333299483
20
0.07497182035684835
11
1.7030697184080443
21
0.07319253521927768
0
LINE
8
Polygon
10
1.7030697184080443
20
0.07319253521927768
11
1.7028973458700838
21
0.07141283408156493
0
LINE
8
Polygon
10
1.7028973458700838
20
0.07141283408156461
11
1.7027292166957704
21
0.06963272705889331
0
LINE
8
Polygon
10
1.7027292166957704
20
0.06963272705889331
11
1.70256533184069
21
0.0678522242687539
0
LINE
8
Polygon
10
1.70256533184069
20
0.06785222426875356
11
1.7024056922363051
21
0.06607133583088587
0
LINE
8
Polygon
10
1.7024056922363051
20
0.06607133583088587
11
1.7022502987899506
21
0.06429007186722156
0
LINE
8
Polygon
10
1.7022502987899504
20
0.06429007186722123
11
1.7020991523848268
21
0.06250844250182641
0
LINE
8
Polygon
10
1.7020991523848268
20
0.06250844250182641
11
1.7019522538799956
21
0.06072645786084395
0
LINE
8
Polygon
10
1.7019522538799956
20
0.060726457860843616
11
1.7018096041103759
21
0.05894412807243563
0
LINE
8
Polygon
10
1.7018096041103759
20
0.05894412807243563
11
1.7016712038867376
21
0.05716146326672597
0
LINE
8
Polygon
10
1.7016712038867374
20
0.05716146326672564
11
1.7015370539956978
21
0.05537847357574225
0
LINE
8
Polygon
10
1.7015370539956978
20
0.05537847357574225
11
1.7014071551997167
21
0.053595169133359606
0
LINE
8
Polygon
10
1.7014071551997167
20
0.05359516913335927
11
1.7012815082370927
21
0.05181156007524079
0
LINE
8
Polygon
10
1.7012815082370927
20
0.05181156007524079
11
1.7011601138219574
21
0.05002765653878121
0
LINE
8
Polygon
10
1.7011601138219574
20
0.05002765653878088
11
1.7010429726442737
21
0.048243468663048655
0
LINE
8
Polygon
10
1.7010429726442737
20
0.048243468663048655
11
1.7009300853698301
21
0.046459006588728306
0
LINE
8
Polygon
10
1.7009300853698301
20
0.04645900658872797
11
1.7008214526402372
21
0.04467428045806249
0
LINE
8
Polygon
10
1.7008214526402372
20
0.04467428045806249
11
1.7007170750729246
21
0.04288930041479565
0
LINE
8
Polygon
10
1.7007170750729246
20
0.04288930041479565
11
1.7006169532611368
21
0.04110407660411439
0
LINE
8
Polygon
10
1.7006169532611368
20
0.041104076604114054
11
1.7005210877739305
21
0.03931861917259077
0
LINE
8
Polygon
10
1.7005210877739305
20
0.03931861917259077
11
1.700429479156171
21
0.03753293826812571
0
LINE
8
Polygon
10
1.700429479156171
20
0.03753293826812538
11
1.7003421279285285
21
0.0357470440398889
0
LINE
8
Polygon
10
1.7003421279285285
20
0.0357470440398889
11
1.700259034587476
21
0.033960946638263864
0
LINE
8
Polygon
10
1.700259034587476
20
0.03396094663826353
11
1.7001801996052865
21
0.032174656214787496
0
LINE
8
Polygon
10
1.7001801996052865
20
0.032174656214787496
11
1.7001056234300298
21
0.030388182922095136
0
LINE
8
Polygon
10
1.7001056234300298
20
0.030388182922094803
11
1.70003530648557
21
0.02860153691386014
0
LINE
8
Polygon
10
1.70003530648557
20
0.02860153691386014
11
1.6999692491715637
21
0.02681472834473886
0
LINE
8
Polygon
10
1.6999692491715637
20
0.026814728344738525
11
1.6999074518634565
21
0.025027767370310226
0
LINE
8
Polygon
10
1.6999074518634565
20
0.025027767370310226
11
1.6998499149124828
21
0.023240664147020754
0
LINE
8
Polygon
10
1.6998499149124828
20
0.02324066414702042
11
1.6997966386456613
21
0.02145342883212409
0
LINE
8
Polygon
10
1.6997966386456613
20
0.02145342883212409
11
1.699747623365796
21
0.019666071583625988
0
LINE
8
Polygon
10
1.699747623365796
20
0.019666071583625655
11
1.6997028693514715
21
0.017878602560223895
0
LINE
8
Polygon
10
1.6997028693514715
20
0.017878602560223895
11
1.699662376857054
21
0.016091031921251872
0
LINE
8
Polygon
10
1.699662376857054
20
0.01609103192125154
11
1.699626146112688
21
0.014303369826620208
0
LINE
8
Polygon
10
1.699626146112688
20
0.014303369826620208
11
1.6995941773242964
21
0.012515626436760307
0
LINE
8
Polygon
10
1.6995941773242964
20
0.012515626436759974
11
1.6995664706735782
21
0.010727811912564309
0
LINE
8
Polygon
10
1.6995664706735782
20
0.010727811912564309
11
1.699543026318008
21
0.008939936415329981
0
LINE
8
Polygon
10
1.699543026318008
20
0.008939936415329648
11
1.6995238443908351
21
0.0071520101067003095
0
LINE
8
Polygon
10
1.6995238443908351
20
0.0071520101067003095
11
1.699508925001083
21
0.005364043148608406
0
LINE
8
Polygon
10
1.699508925001083
20
0.005364043148608073
11
1.6994982682335478
21
0.003576045703217085
0
LINE
8
Polygon
10
1.6994982682335478
20
0.003576045703217085
11
1.6994918741487988
21
0.0017880279328637756
0
LINE
8
Polygon
10
1.6994918741487988
20
0.0017880279328634425
11
1.6994897427831779
21
9.184850993605148e-17
0
LINE
8
Polygon
10
1.8098875937163466
20
0.3916747259003202
11
1.3253809182775766
21
0.6883732588496315
0
LINE
8
Polygon
10
0.8989794855663558
20
0.4494897427831783
11
0.8989794855663558
21
0.0
0
LINE
8
Polygon
10
0.8989794855663558
20
0.0
11
1.6994897427831779
21
9.184850993605148e-17
0
ENDSEC
0
EOF
