0
SECTION
2
ENTITIES
0
LINE
8
Polygon
10
3.199489742783178
20
0.0
11
3.1992958135816036
21
0.0170545065547492
0
LINE
8
Polygon
10
3.1992958135816036
20
0.0170545065547492
11
3.1987141262663084
21
0.03410019346459332
0
LINE
8
Polygon
10
3.1987141262663084
20
0.03410019346459332
11
3.19774498165371
21
0.05112824564565849
0
LINE
8
Polygon
10
3.19774498165371
20
0.05112824564565849
11
3.1963888809316505
21
0.06812985713377445
0
LINE
8
Polygon
10
3.1963888809316505
20
0.06812985713377445
11
3.194646525400211
21
0.0850962356384309
0
LINE
8
Polygon
10
3.194646525400211
20
0.0850962356384309
11
3.192518816109037
21
0.10201860708966251
0
LINE
8
Polygon
10
3.192518816109037
20
0.10201860708966251
11
3.190006853391366
21
0.11888822017551115
0
LINE
8
Polygon
10
3.190006853391366
20
0.11888822017551115
11
3.187111936294995
21
0.13569635086771925
0
LINE
8
Polygon
10
3.187111936294995
20
0.13569635086771925
11
3.183835561910488
21
0.15243430693331317
0
LINE
8
Polygon
10
3.183835561910488
20
0.15243430693331317
11
3.180179424596961
21
0.16909343242974426
0
LINE
8
Polygon
10
3.180179424596961
20
0.16909343242974426
11
3.1761454151058532
21
0.18566511218126192
0
LINE
8
Polygon
10
3.1761454151058532
20
0.18566511218126192
11
3.171735619603138
21
0.20214077623420496
0
LINE
8
Polygon
10
3.171735619603138
20
0.20214077623420496
11
3.166952318590471
21
0.21851190428890616
0
LINE
8
Polygon
10
3.166952318590471
20
0.21851190428890616
11
3.1617979857258423
21
0.2347700301059189
0
LINE
8
Polygon
10
3.1617979857258423
20
0.2347700301059189
11
3.1562752865443375
21
0.2509067458842863
0
LINE
8
Polygon
10
3.1562752865443375
20
0.2509067458842863
11
3.150387077079671
21
0.26691370660959
0
LINE
8
Polygon
10
3.150387077079671
20
0.26691370660959
11
3.1441364023872023
21
0.2827826343695284
0
LINE
8
Polygon
10
3.1441364023872023
20
0.2827826343695284
11
3.137526494969206
21
0.2985053226347939
0
LINE
8
Polygon
10
3.137526494969206
20
0.2985053226347939
11
3.1305607731031957
21
0.314073640503035
0
LINE
8
Polygon
10
3.1305607731031957
20
0.314073640503035
11
3.1232428390741847
21
0.32947953690370735
0
LINE
8
Polygon
10
3.1232428390741847
20
0.32947953690370735
11
3.115576477311782
21
0.3447150447616417
0
LINE
8
Polygon
10
3.115576477311782
20
0.3447150447616417
11
3.107565652433096
21
0.35977228511717285
0
LINE
8
Polygon
10
3.107565652433096
20
0.35977228511717285
11
3.099214507192454
21
0.37464347120070063
0
LINE
8
Polygon
10
3.099214507192454
20
0.37464347120070063
11
3.0905273603389993
21
0.3893209124595753
0
LINE
8
Polygon
10
3.0905273603389993
20
0.3893209124595753
11
3.081508704383274
21
0.40379701853522476
0
LINE
8
Polygon
10
3.081508704383274
20
0.40379701853522476
11
3.0721632032739405
21
0.41806430318846755
0
LINE
8
Polygon
10
3.0721632032739405
20
0.41806430318846755
11
3.0624956899858486
21
0.43211538817097966
0
LINE
8
Polygon
10
3.0624956899858486
20
0.43211538817097966
11
3.052511164020687
21
0.44594300704091605
0
LINE
8
Polygon
10
3.052511164020687
20
0.44594300704091605
11
3.0422147888215183
21
0.459540008920711
0
LINE
8
Polygon
10
3.0422147888215183
20
0.459540008920711
11
3.0316118891025328
21
0.4728993621951158
0
LINE
8
Polygon
10
3.0316118891025328
20
0.4728993621951158
11
3.020707948095403
21
0.4860141581475593
0
LINE
8
Polygon
10
3.020707948095403
20
0.4860141581475593
11
3.009508604713657
21
0.4988776145329542
0
LINE
8
Polygon
10
3.009508604713657
20
0.4988776145329542
11
2.9980196506365497
21
0.5114830790850968
0
LINE
8
Polygon
10
2.9980196506365497
20
0.5114830790850968
11
2.986247027313923
21
0.5238240329568511
0
LINE
8
Polygon
10
2.986247027313923
20
0.5238240329568511
11
2.974196822893622
21
0.5358940940913341
0
LINE
8
Polygon
10
2.974196822893622
20
0.5358940940913341
11
2.961875269073038
21
0.5476870205223627
0
LINE
8
Polygon
10
2.961875269073038
20
0.5476870205223627
11
2.949288737876423
21
0.5591967136024515
0
LINE
8
Polygon
10
2.949288737876423
20
0.5591967136024515
11
2.9364437383596322
21
0.5704172211566956
0
LINE
8
Polygon
10
2.9364437383596322
20
0.5704172211566956
11
2.923346913244
21
0.5813427405609047
0
LINE
8
Polygon
10
2.923346913244
20
0.5813427405609047
11
2.910005035481094
21
0.5919676217423995
0
LINE
8
Polygon
10
2.910005035481094
20
0.5919676217423995
11
2.8964250047501197
21
0.602286370101915
0
LINE
8
Polygon
10
2.8964250047501197
20
0.602286370101915
11
2.8826138438897893
21
0.6122936493551029
0
LINE
8
Polygon
10
2.8826138438897893
20
0.6122936493551029
11
2.868578695266499
21
0.6219842842921619
0
LINE
8
Polygon
10
2.868578695266499
20
0.6219842842921619
11
2.8543268170806915
21
0.631353263454169
0
LINE
8
Polygon
10
2.8543268170806915
20
0.631353263454169
11
2.8398655796133214
21
0.6403957417247285
0
LINE
8
Polygon
10
2.8398655796133214
20
0.6403957417247285
11
2.8252024614143507
21
0.6491070428355967
0
LINE
8
Polygon
10
2.8252024614143507
20
0.6491070428355967
11
2.810345045435259
21
0.6574826617849896
0
LINE
8
Polygon
10
2.810345045435259
20
0.6574826617849896
11
2.7953010151075612
21
0.6655182671673192
0
LINE
8
Polygon
10
2.7953010151075612
20
0.6655182671673192
11
2.79395432414857
21
0.6661758391930556
0
LINE
8
Polygon
10
2.79395432414857
20
0.6661758391930556
11
2.7925764745940422
21
0.6667653373806252
0
LINE
8
Polygon
10
2.7925764745940422
20
0.6667653373806252
11
2.7911709049096545
21
0.667285290619283
0
LINE
8
Polygon
10
2.7911709049096545
20
0.667285290619283
11
2.7897411227375155
21
0.6677344013498301
0
LINE
8
Polygon
10
2.7897411227375155
20
0.6677344013498301
11
2.7882906961427354
21
0.6681115488027113
0
LINE
8
Polygon
10
2.7882906961427354
20
0.6681115488027113
11
2.7868232447092134
21
0.6684157917949307
0
LINE
8
Polygon
10
2.7868232447092134
20
0.6684157917949307
11
2.785342430506854
21
0.6686463710788023
0
LINE
8
Polygon
10
2.785342430506854
20
0.6686463710788023
11
2.7838519489527593
21
0.6688027112366757
0
LINE
8
Polygon
10
2.7838519489527593
20
0.6688027112366757
11
2.7823555195892036
21
0.6688844221169081
0
LINE
8
Polygon
10
2.7823555195892036
20
0.6688844221169081
11
2.7808568768014013
21
0.6688912998075007
0
LINE
8
Polygon
10
2.7808568768014013
20
0.6688912998075007
11
2.7793597604982345
21
0.6688233271449665
0
LINE
8
Polygon
10
2.7793597604982345
20
0.6688233271449665
11
2.7778679067791963
21
0.6686806737571621
0
LINE
8
Polygon
10
2.7778679067791963
20
0.6686806737571621
11
2.77638503861084
21
0.6684636956399772
0
LINE
8
Polygon
10
2.77638503861084
20
0.6684636956399772
11
2.7749148565360042
21
0.6681729342689349
0
LINE
8
Polygon
10
2.7749148565360042
20
0.6681729342689349
11
2.7734610294389905
21
0.6678091152479236
0
LINE
8
Polygon
10
2.7734610294389905
20
0.6678091152479236
11
2.772027185389756
21
0.6673731464984303
0
LINE
8
Polygon
10
2.772027185389756
20
0.6673731464984303
11
2.77061690258995
21
0.6668661159937944
0
LINE
8
Polygon
10
2.77061690258995
20
0.6668661159937944
11
2.769233700443404
21
0.6662892890441375
0
LINE
8
Polygon
10
2.769233700443404
20
0.6662892890441375
11
2.7678810307733515
21
0.6656441051387428
0
LINE
8
Polygon
10
2.7678810307733515
20
0.6656441051387428
11
2.766562269208298
21
0.6649321743537661
0
LINE
8
Polygon
10
2.766562269208298
20
0.6649321743537661
11
2.7652807067580363
21
0.6641552733342408
0
LINE
8
Polygon
10
2.7652807067580363
20
0.6641552733342408
11
2.7640395416008317
21
0.663315340860407
0
LINE
8
Polygon
10
2.7640395416008317
20
0.663315340860407
11
2.762841871102269
21
0.6624144730094252
0
LINE
8
Polygon
10
2.762841871102269
20
0.6624144730094252
11
2.7616906840856834
21
0.6614549179245521
0
LINE
8
Polygon
10
2.7616906840856834
20
0.6614549179245521
11
2.760588853373461
21
0.6604390702048304
0
LINE
8
Polygon
10
2.760588853373461
20
0.6604390702048304
11
2.759539128617821
21
0.6593694649292935
0
LINE
8
Polygon
10
2.759539128617821
20
0.6593694649292935
11
2.758544129438975
21
0.6582487713305983
0
LINE
8
Polygon
10
2.758544129438975
20
0.6582487713305983
11
2.757606338887786
21
0.6570797861338742
0
LINE
8
Polygon
10
2.757606338887786
20
0.6570797861338742
11
2.756728097249237
21
0.6558654265774087
0
LINE
8
Polygon
10
2.756728097249237
20
0.6558654265774087
11
2.7559115962021807
21
0.6546087231325914
0
LINE
8
Polygon
10
2.7559115962021807
20
0.6546087231325914
11
2.7551588733499353
21
0.6533128119412794
0
LINE
8
Polygon
10
2.7551588733499353
20
0.6533128119412794
11
2.7544718071353853
21
0.6519809269894595
0
LINE
8
Polygon
10
2.7544718071353853
20
0.6519809269894595
11
2.753852112153269
21
0.6506163920367375
0
LINE
8
Polygon
10
2.753852112153269
20
0.6506163920367375
11
2.7533013348713555
21
0.649222612321794
0
LINE
8
Polygon
10
2.7533013348713555
20
0.649222612321794
11
2.7528208497711857
21
0.647803066064508
0
LINE
8
Polygon
10
2.7528208497711857
20
0.647803066064508
11
2.7524118559180124
21
0.6463612957859523
0
LINE
8
Polygon
10
2.7524118559180124
20
0.6463612957859523
11
2.7520753739684976
21
0.6449008994679238
0
LINE
8
Polygon
10
2.7520753739684976
20
0.6449008994679238
11
2.7518122436236303
21
0.6434255215740708
0
LINE
8
Polygon
10
2.7518122436236303
20
0.6434255215740708
11
2.7516231215332287
21
0.6419388439550215
0
LINE
8
Polygon
10
2.7516231215332287
20
0.6419388439550215
11
2.7515084796572498
21
0.6404445766602138
0
LINE
8
Polygon
10
2.7515084796572498
20
0.6404445766602138
11
2.7514686040879988
21
0.6389464486793534
0
LINE
8
Polygon
10
2.7514686040879988
20
0.6389464486793534
11
2.751503594336178
21
0.637448198636606
0
LINE
8
Polygon
10
2.751503594336178
20
0.637448198636606
11
2.7516133630825537
21
0.6359535654607467
0
LINE
8
Polygon
10
2.7516133630825537
20
0.6359535654607467
11
2.751797636395864
21
0.6344662790545484
0
LINE
8
Polygon
10
2.751797636395864
20
0.6344662790545486
11
2.7520559544164227
21
0.6329900509866964
0
LINE
8
Polygon
10
2.7520559544164227
20
0.6329900509866964
11
2.752387672503715
21
0.6315285652294537
0
LINE
8
Polygon
10
2.752387672503715
20
0.6315285652294537
11
2.7527919628451154
21
0.6300854689651973
0
LINE
8
Polygon
10
2.7527919628451154
20
0.6300854689651973
11
2.7532678165217193
21
0.6286643634847623
0
LINE
8
Polygon
10
2.5187361873813647
20
0.694769695590208
11
2.508422806410067
21
0.6857435459795299
0
LINE
8
Polygon
10
2.508422806410067
20
0.6857435459795299
11
2.4989763256214728
21
0.6758137320555845
0
LINE
8
Polygon
10
2.4989763256214728
20
0.6758137320555845
11
2.4904756072616965
21
0.6650631510842496
0
LINE
8
Polygon
10
2.4904756072616965
20
0.6650631510842496
11
2.4829916180492915
21
0.6535815523575014
0
LINE
8
Polygon
10
2.4829916180492915
20
0.6535815523575013
11
2.476586836722361
21
0.6414647879375884
0
LINE
8
Polygon
10
2.476586836722361
20
0.6414647879375884
11
2.471314732446049
21
0.6288140124533281
0
LINE
8
Polygon
10
2.471314732446049
20
0.6288140124533281
11
2.467219318434831
21
0.6157348386288779
0
LINE
8
Polygon
10
2.467219318434831
20
0.6157348386288779
11
2.4643347845161063
21
0.6023364555948998
0
LINE
8
Polygon
10
2.4643347845161063
20
0.6023364555948998
11
2.4626852117025733
21
0.5887307173427387
0
LINE
8
Polygon
10
2.4626852117025733
20
0.5887307173427387
11
2.4622843711562252
21
0.5750312089314902
0
LINE
8
Polygon
10
2.4622843711562252
20
0.5750312089314902
11
2.4631356092222805
21
0.5613522982435603
0
LINE
8
Polygon
10
2.4631356092222805
20
0.5613522982435603
11
2.4652318194928213
21
0.5478081812049659
0
LINE
8
Polygon
10
2.4652318194928213
20
0.5478081812049659
11
2.468555502133364
21
0.5345119284411823
0
LINE
8
Polygon
10
2.468555502133364
20
0.5345119284411823
11
2.473078909977077
21
0.5215745413273598
0
LINE
8
Polygon
10
2.473078909977077
20
0.5215745413273598
11
2.4787642801670153
21
0.5091040253133039
0
LINE
8
Polygon
10
2.4787642801670153
20
0.5091040253133039
11
2.4855641494125416
21
0.49720448825940106
0
LINE
8
Polygon
10
2.4855641494125416
20
0.49720448825940106
11
2.4934217502280718
21
0.485975271310867
0
LINE
8
Polygon
10
2.4934217502280718
20
0.485975271310867
11
2.5022714848462195
21
0.47551011956606065
0
LINE
8
Polygon
10
2.5022714848462195
20
0.4755101195660606
11
2.512039472848962
21
0.4658963994623885
0
LINE
8
Polygon
10
2.512039472848962
20
0.4658963994623885
11
2.522644167945023
21
0.45721436941331306
0
LINE
8
Polygon
10
2.5226441679450224
20
0.4572143694133131
11
2.5339970387444213
21
0.44953650978542053
0
LINE
8
Polygon
10
2.5339970387444217
20
0.4495365097854205
11
2.546003307846862
21
0.4429269178091145
0
LINE
8
Polygon
10
2.546003307846862
20
0.44292691780911453
11
2.5585627430738143
21
0.4374407724744147
0
LINE
8
Polygon
10
2.5585627430738147
20
0.43744077247441465
11
2.571570494238834
21
0.43312387387908113
0
LINE
8
Polygon
10
2.571570494238834
20
0.43312387387908113
11
2.5849179684704877
21
0.43001226087473476
0
LINE
8
Polygon
10
2.5849179684704877
20
0.43001226087473476
11
2.598493736780411
21
0.4281319102029848
0
LINE
8
Polygon
10
2.598493736780411
20
0.4281319102029848
11
2.6121844643081817
21
0.42749851963327323
0
LINE
8
Polygon
10
2.6121844643081817
20
0.42749851963327323
11
2.625875856477021
21
0.42811737691286955
0
LINE
8
Polygon
10
2.625875856477021
20
0.42811737691286955
11
2.6394536131615127
21
0.42998331562306336
0
LINE
8
Polygon
10
2.6394536131615127
20
0.42998331562306336
11
2.652804382901648
21
0.433080758310082
0
LINE
8
Polygon
10
2.652804382901648
20
0.4330807583100821
11
2.6658167091971023
21
0.43738384653066215
0
LINE
8
Polygon
10
2.665816709197102
20
0.4373838465306621
11
2.6783819609817883
21
0.442856656726613
0
LINE
8
Polygon
10
2.6783819609817883
20
0.44285665672661306
11
2.6903952395107753
21
0.44945350012618246
0
LINE
8
Polygon
10
2.6903952395107753
20
0.4494535001261824
11
2.701756254088597
21
0.45711930416855096
0
LINE
8
Polygon
10
2.701756254088597
20
0.45711930416855107
11
2.7123701593280867
21
0.4657900722672029
0
LINE
8
Polygon
10
2.7123701593280862
20
0.4657900722672028
11
2.7221483469500374
21
0.47539341807391966
0
LINE
8
Polygon
10
2.722148346950038
20
0.47539341807391977
11
2.7310091855134875
21
0.48584916978319176
0
LINE
8
Polygon
10
2.7310091855134875
20
0.48584916978319176
11
2.7388787019011227
21
0.4970700394321186
0
LINE
8
Polygon
10
2.7388787019011227
20
0.4970700394321186
11
2.745691198870546
21
0.5089623516082711
0
LINE
8
Polygon
10
2.745691198870546
20
0.5089623516082711
11
2.751389803515891
21
0.5214268254820259
0
LINE
8
Polygon
10
2.751389803515891
20
0.5214268254820259
11
2.755926942061049
21
0.5343594036347187
0
LINE
8
Polygon
10
2.755926942061049
20
0.5343594036347187
11
2.759264737020783
21
0.547652120763291
0
LINE
8
Polygon
10
2.759264737020783
20
0.547652120763291
11
2.761375323414104
21
0.5611940050092071
0
LINE
8
Polygon
10
2.761375323414104
20
0.5611940050092072
11
2.762241081390051
21
0.5748720043870603
0
LINE
8
Polygon
10
2.762241081390051
20
0.5748720043870602
11
2.7618547833238503
21
0.5885719305787415
0
LINE
8
Polygon
10
2.7618547833238503
20
0.5885719305787416
11
2.7602196541554394
21
0.6021794122140802
0
LINE
8
Polygon
10
2.7602196541554394
20
0.6021794122140802
11
2.757349344466638
21
0.6155808496796598
0
LINE
8
Polygon
10
2.757349344466638
20
0.6155808496796598
11
2.7532678165217193
21
0.6286643634847623
0
LINE
8
Polygon
10
2.5187361873813647
20
0.694769695590208
11
2.5198841448929943
21
0.6957331119381871
0
LINE
8
Polygon
10
2.5198841448929943
20
0.6957331119381871
11
2.5209825572996034
21
0.6967526548225559
0
LINE
8
Polygon
10
2.5209825572996034
20
0.6967526548225559
11
2.5220286834794594
21
0.6978257799428846
0
LINE
8
Polygon
10
2.5220286834794594
20
0.6978257799428846
11
2.5230199127927055
21
0.6989498092826358
0
LINE
8
Polygon
10
2.5230199127927055
20
0.6989498092826358
11
2.5239537715962945
21
0.7001219377922369
0
LINE
8
Polygon
10
2.5239537715962945
20
0.7001219377922369
11
2.524827929417039
21
0.7013392403891664
0
LINE
8
Polygon
10
2.524827929417039
20
0.7013392403891664
11
2.5256402047673787
21
0.7025986792575876
0
LINE
8
Polygon
10
2.5256402047673787
20
0.7025986792575876
11
2.526388570589351
21
0.7038971114293101
0
LINE
8
Polygon
10
2.526388570589351
20
0.7038971114293101
11
2.5270711593131727
21
0.7052312966271636
0
LINE
8
Polygon
10
2.5270711593131727
20
0.7052312966271636
11
2.5276862675178213
21
0.7065979053512079
0
LINE
8
Polygon
10
2.5276862675178213
20
0.7065979053512079
11
2.5282323601819714
21
0.7079935271876027
0
LINE
8
Polygon
10
2.5282323601819714
20
0.7079935271876027
11
2.528708074514688
21
0.7094146793193985
0
LINE
8
Polygon
10
2.528708074514688
20
0.7094146793193985
11
2.529112223356315
21
0.7108578152180137
0
LINE
8
Polygon
10
2.529112223356315
20
0.7108578152180137
11
2.529443798141064
21
0.7123193334937046
0
LINE
8
Polygon
10
2.529443798141064
20
0.7123193334937046
11
2.5297019714139264
21
0.7137955868829436
0
LINE
8
Polygon
10
2.5297019714139264
20
0.7137955868829436
11
2.5298860988956084
21
0.7152828913502769
0
LINE
8
Polygon
10
2.5298860988956084
20
0.7152828913502769
11
2.529995721090352
21
0.7167775352819475
0
LINE
8
Polygon
10
2.529995721090352
20
0.7167775352819475
11
2.530030564432619
21
0.7182757887483409
0
LINE
8
Polygon
10
2.530030564432619
20
0.7182757887483409
11
2.5299905419697843
21
0.7197739128121382
0
LINE
8
Polygon
10
2.5299905419697843
20
0.7197739128121382
11
2.529875753579127
21
0.721268168858949
0
LINE
8
Polygon
10
2.529875753579127
20
0.721268168858949
11
2.5296864857185852
21
0.7227548279271371
0
LINE
8
Polygon
10
2.5296864857185852
20
0.7227548279271371
11
2.5294232107118884
21
0.7242301800135589
0
LINE
8
Polygon
10
2.5294232107118884
20
0.7242301800135589
11
2.5290865855698637
21
0.7256905433319891
0
LINE
8
Polygon
10
2.5290865855698637
20
0.7256905433319891
11
2.5286774503508416
21
0.7271322735011316
0
LINE
8
Polygon
10
2.5286774503508416
20
0.7271322735011316
11
2.5281968260642658
21
0.7285517726392835
0
LINE
8
Polygon
10
2.5281968260642658
20
0.7285517726392835
11
2.527645912122734
21
0.729945498342959
0
LINE
8
Polygon
10
2.527645912122734
20
0.729945498342959
11
2.527026083348825
21
0.7313099725270662
0
LINE
8
Polygon
10
2.527026083348825
20
0.7313099725270662
11
2.5263388865441896
21
0.7326417901045741
0
LINE
8
Polygon
10
2.5263388865441896
20
0.7326417901045741
11
2.5255860366294574
21
0.7339376274840117
0
LINE
8
Polygon
10
2.5255860366294574
20
0.7339376274840117
11
2.524769412364601
21
0.735194250863592
0
LINE
8
Polygon
10
2.524769412364601
20
0.735194250863592
11
2.523891051660433
21
0.7364085243012632
0
LINE
8
Polygon
10
2.523891051660433
20
0.7364085243012632
11
2.5229531464929376
21
0.7375774175405478
0
LINE
8
Polygon
10
2.5229531464929376
20
0.737577417540548
11
2.521958037433127
21
0.7386980135726408
0
LINE
8
Polygon
10
2.521958037433127
20
0.7386980135726408
11
2.520908207806074
21
0.7397675159158933
0
LINE
8
Polygon
10
2.520908207806074
20
0.7397675159158933
11
2.519806277493702
21
0.7407832555945191
0
LINE
8
Polygon
10
2.519806277493702
20
0.7407832555945191
11
2.518654996396784
21
0.7417426977991044
0
LINE
8
Polygon
10
2.518654996396784
20
0.7417426977991044
11
2.5174572375724864
21
0.742643448212303
0
LINE
8
Polygon
10
2.5174572375724864
20
0.742643448212303
11
2.516215990064564
21
0.7434832589839278
0
LINE
8
Polygon
10
2.516215990064564
20
0.7434832589839278
11
2.514934351444111
21
0.7442600343405296
0
LINE
8
Polygon
10
2.514934351444111
20
0.7442600343405296
11
2.513615520079478
21
0.7449718358154642
0
LINE
8
Polygon
10
2.513615520079478
20
0.7449718358154642
11
2.5122627871546435
21
0.7456168870863953
0
LINE
8
Polygon
10
2.5122627871546435
20
0.7456168870863953
11
2.5108795284559684
21
0.7461935784081605
0
LINE
8
Polygon
10
2.5108795284559684
20
0.7461935784081605
11
2.509469195947813
21
0.7467004706299399
0
LINE
8
Polygon
10
2.509469195947813
20
0.7467004706299399
11
2.508035309158058
21
0.7471362987867014
0
LINE
8
Polygon
10
2.508035309158058
20
0.7471362987867014
11
2.506581446395013
21
0.7474999752559587
0
LINE
8
Polygon
10
2.506581446395013
20
0.7474999752559587
11
2.50511123581764
21
0.7477905924719673
0
LINE
8
Polygon
10
2.50511123581764
20
0.7477905924719673
11
2.503628346381371
21
0.748007425190582
0
LINE
8
Polygon
10
2.503628346381371
20
0.748007425190582
11
2.502136478682118
21
0.7481499322991263
0
LINE
8
Polygon
10
2.502136478682118
20
0.7481499322991263
11
2.4851104284637326
21
0.7491536336103878
0
LINE
8
Polygon
10
2.4851104284637326
20
0.7491536336103878
11
2.4680659572023247
21
0.749769914212256
0
LINE
8
Polygon
10
2.4680659572023247
20
0.749769914212256
11
2.4510118793531017
21
0.7499984553985845
0
LINE
8
Polygon
10
2.4510118793531017
20
0.7499984553985845
11
2.433957014339266
21
0.7498391389805468
0
LINE
8
Polygon
10
2.433957014339266
20
0.7498391389805468
11
2.4169101819910983
21
0.7492920473477582
0
LINE
8
Polygon
10
2.4169101819910983
20
0.7492920473477582
11
2.3998801979848294
21
0.7483574634256684
0
LINE
8
Polygon
10
2.3998801979848294
20
0.7483574634256684
11
2.3828758692836622
21
0.7470358705292475
0
LINE
8
Polygon
10
2.3828758692836622
20
0.7470358705292475
11
2.365905989583299
21
0.7453279521130425
0
LINE
8
Polygon
10
2.365905989583299
20
0.7453279521130425
11
2.3489793347643295
21
0.7432345914177332
0
LINE
8
Polygon
10
2.3489793347643295
20
0.7432345914177332
11
2.332104658353832
21
0.7407568710133678
0
LINE
8
Polygon
10
2.332104658353832
20
0.7407568710133678
11
2.315290686998535
21
0.7378960722395196
0
LINE
8
Polygon
10
2.315290686998535
20
0.7378960722395196
11
2.2985461159518787
21
0.7346536745426471
0
LINE
8
Polygon
10
2.2985461159518787
20
0.7346536745426471
11
2.281879604577313
21
0.7310313547110076
0
LINE
8
Polygon
10
2.281879604577313
20
0.7310313547110076
11
2.265299771870156
21
0.7270309860075155
0
LINE
8
Polygon
10
2.265299771870156
20
0.7270309860075155
11
2.248815192000324
21
0.7226546372009937
0
LINE
8
Polygon
10
2.248815192000324
20
0.7226546372009937
11
2.232434389878251
21
0.717904571496322
0
LINE
8
Polygon
10
2.232434389878251
20
0.717904571496322
11
2.216165836746275
21
0.7127832453640325
0
LINE
8
Polygon
10
2.216165836746275
20
0.7127832453640325
11
2.200017945797781
21
0.7072933072699592
0
LINE
8
Polygon
10
2.200017945797781
20
0.7072933072699592
11
2.1839990678263663
21
0.7014375963055991
0
LINE
8
Polygon
10
2.1839990678263663
20
0.7014375963055991
11
2.1681174869072706
21
0.6952191407198907
0
LINE
8
Polygon
10
2.1681174869072706
20
0.6952191407198907
11
2.152381416113314
21
0.6886411563531718
0
LINE
8
Polygon
10
2.152381416113314
20
0.6886411563531718
11
2.1367989932675497
21
0.6817070449741258
0
LINE
8
Polygon
10
2.1367989932675497
20
0.6817070449741258
11
2.121378276734834
21
0.6744203925205752
0
LINE
8
Polygon
10
2.121378276734834
20
0.6744203925205752
11
2.106127241254487
21
0.6667849672450329
0
LINE
8
Polygon
10
2.106127241254487
20
0.6667849672450329
11
2.091053773816198
21
0.6588047177659722
0
LINE
8
Polygon
10
2.091053773816198
20
0.6588047177659722
11
2.076165669581315
21
0.6504837710258189
0
LINE
8
Polygon
10
2.076165669581315
20
0.6504837710258189
11
2.0614706278516173
21
0.6418264301567272
0
LINE
8
Polygon
10
2.0614706278516173
20
0.6418264301567272
11
2.0469762480876637
21
0.632837172255237
0
LINE
8
Polygon
10
2.0469762480876637
20
0.632837172255237
11
2.032690025978775
21
0.6235206460669682
0
LINE
8
Polygon
10
2.032690025978775
20
0.6235206460669682
11
2.0186193495666758
21
0.6138816695825481
0
LINE
8
Polygon
10
2.0186193495666758
20
0.6138816695825481
11
2.004771495424812
21
0.603925227546013
0
LINE
8
Polygon
10
2.004771495424812
20
0.603925227546013
11
1.9911536248953108
21
0.5936564688769752
0
LINE
8
Polygon
10
1.9911536248953108
20
0.5936564688769752
11
1.9777727803855278
21
0.5830807040078878
0
LINE
8
Polygon
10
1.9777727803855278
20
0.5830807040078878
11
1.9646358817261098
21
0.5722034021377829
0
LINE
8
Polygon
10
1.9646358817261098
20
0.5722034021377829
11
1.9517497225924383
21
0.5610301884039058
0
LINE
8
Polygon
10
1.9517497225924383
20
0.5610301884039058
11
1.939120966991319
21
0.5495668409727057
0
LINE
8
Polygon
10
1.939120966991319
20
0.5495668409727057
11
1.9267561458147267
21
0.5378192880516883
0
LINE
8
Polygon
10
1.9267561458147267
20
0.5378192880516883
11
1.9146616534623906
21
0.5257936048236761
0
LINE
8
Polygon
10
1.9146616534623906
20
0.5257936048236761
11
1.902843744534965
21
0.5134960103050606
0
LINE
8
Polygon
10
1.902843744534965
20
0.5134960103050606
11
1.8913085305994968
21
0.500932864129672
0
LINE
8
Polygon
10
1.8913085305994968
20
0.500932864129672
11
1.8800619770288618
21
0.4881106632599288
0
LINE
8
Polygon
10
1.8800619770288618
20
0.4881106632599288
11
1.869109899916805
21
0.4750360386269702
0
LINE
8
Polygon
10
1.869109899916805
20
0.4750360386269702
11
1.8584579630701796
21
0.46171575170150525
0
LINE
8
Polygon
10
1.8584579630701796
20
0.46171575170150525
11
1.8481116750799402
21
0.44815669099715577
0
LINE
8
Polygon
10
1.8481116750799402
20
0.44815669099715577
11
1.8380763864724043
21
0.43436586850809916
0
LINE
8
Polygon
10
1.8380763864724043
20
0.43436586850809916
11
1.8283572869422584
21
0.4203504160828537
0
LINE
8
Polygon
10
1.8283572869422584
20
0.4203504160828537
11
1.8189594026687337
21
0.40611758173608203
0
LINE
8
Polygon
10
1.8189594026687337
20
0.40611758173608203
11
1.8098875937163466
21
0.3916747259003202
0
LINE
8
Polygon
10
1.25
20
3.0
11
1.2501542802168844
21
2.9847882767925134
0
LINE
8
Polygon
10
1.2501542802168844
20
2.9847882767925134
11
1.25061705739451
21
2.969582811899575
0
LINE
8
Polygon
10
1.25061705739451
20
2.9695828118995746
11
1.2513881411399077
21
2.9543898610609753
0
LINE
8
Polygon
10
1.2513881411399077
20
2.9543898610609753
11
1.2524672142184978
21
2.93921567486805
0
LINE
8
Polygon
10
1.2524672142184978
20
2.9392156748680494
11
1.2538538326846038
21
2.924066496192096
0
LINE
8
Polygon
10
1.2538538326846038
20
2.924066496192096
11
1.255547426064099
21
2.9089485576159726
0
LINE
8
Polygon
10
1.255547426064099
20
2.9089485576159726
11
1.257547297589106
21
2.8938680788699256
0
LINE
8
Polygon
10
1.257547297589106
20
2.893868078869925
11
1.2598526244846577
21
2.878831264272706
0
LINE
8
Polygon
10
1.2598526244846577
20
2.878831264272706
11
1.2624624583071986
21
2.8638443001790264
0
LINE
8
Polygon
10
1.2624624583071986
20
2.863844300179026
11
1.2653757253347866
21
2.8489133524344092
0
LINE
8
Polygon
10
1.2653757253347866
20
2.8489133524344092
11
1.2685912270088382
21
2.834044563838472
0
LINE
8
Polygon
10
1.2685912270088382
20
2.8340445638384715
11
1.2721076404272316
21
2.8192440516176918
0
LINE
8
Polygon
10
1.2721076404272316
20
2.8192440516176918
11
1.2759235188885674
21
2.8045179049086975
0
LINE
8
Polygon
10
1.2759235188885674
20
2.8045179049086975
11
1.280037292487361
21
2.7898721822531103
0
LINE
8
Polygon
10
1.280037292487361
20
2.78987218225311
11
1.2844472687599244
21
2.775312909104977
0
LINE
8
Polygon
10
1.2844472687599244
20
2.775312909104977
11
1.289151633380669
21
2.7608460753518163
0
LINE
8
Polygon
10
1.2891516333806692
20
2.760846075351816
11
1.2941484509085441
21
2.746477632850291
0
LINE
8
Polygon
10
1.2941484509085441
20
2.746477632850291
11
1.2994356655833044
21
2.7322134929775364
0
LINE
8
Polygon
10
1.2994356655833044
20
2.732213492977536
11
1.3050111021712785
21
2.7180595241991337
0
LINE
8
Polygon
10
1.3050111021712785
20
2.7180595241991337
11
1.3108724668602907
21
2.7040215496547444
0
LINE
8
Polygon
10
1.3108724668602907
20
2.7040215496547444
11
1.317017348203366
21
2.6901053447623884
0
LINE
8
Polygon
10
1.3170173482033662
20
2.6901053447623884
11
1.3234432181108349
21
2.676316634842356
0
LINE
8
Polygon
10
1.3234432181108349
20
2.676316634842356
11
1.3301474328904221
21
2.6626610927617325
0
LINE
8
Polygon
10
1.3301474328904224
20
2.6626610927617325
11
1.3371272343349005
21
2.6491443366005014
0
LINE
8
Polygon
10
1.3371272343349005
20
2.6491443366005014
11
1.344379750856855
21
2.635771927340189
0
LINE
8
Polygon
10
1.344379750856855
20
2.635771927340189
11
1.3519019986700935
21
2.622549366575998
0
LINE
8
Polygon
10
1.3519019986700938
20
2.6225493665759974
11
1.359690883017219
21
2.6094820942533734
0
LINE
8
Polygon
10
1.359690883017219
20
2.6094820942533734
11
1.3677431994428537
21
2.596575486429938
0
LINE
8
Polygon
10
1.3677431994428542
20
2.5965754864299377
11
1.3760556351119997
21
2.5838348530637028
0
LINE
8
Polygon
10
1.3760556351119997
20
2.5838348530637028
11
1.384624770172982
21
2.571265435828478
0
LINE
8
Polygon
10
1.384624770172982
20
2.571265435828478
11
1.3934470791644253
21
2.558872405957377
0
LINE
8
Polygon
10
1.3934470791644256
20
2.558872405957377
11
1.402518932465678
21
2.5466608621152957
0
LINE
8
Polygon
10
1.402518932465678
20
2.5466608621152957
11
1.4118365977900862
21
2.534635828301255
0
LINE
8
Polygon
10
1.4118365977900864
20
2.5346358283012544
11
1.4213962417205117
21
2.5228022517814535
0
LINE
8
Polygon
10
1.4213962417205117
20
2.5228022517814535
11
1.4311939312864501
21
2.511165001053897
0
LINE
8
Polygon
10
1.4311939312864501
20
2.511165001053897
11
1.441225635582112
21
2.499728863845429
0
LINE
8
Polygon
10
1.4412256355821125
20
2.4997288638454287
11
1.4514872274247925
21
2.4884985451419923
0
LINE
8
Polygon
10
1.4514872274247925
20
2.4884985451419923
11
1.4619744850528504
21
2.477478665252935
0
LINE
8
Polygon
10
1.4619744850528504
20
2.477478665252935
11
1.4726830938626028
21
2.466673757910148
0
LINE
8
Polygon
10
1.4726830938626028
20
2.466673757910148
11
1.48360864818341
21
2.4560882684028273
0
LINE
8
Polygon
10
1.48360864818341
20
2.4560882684028273
11
1.494746653090232
21
2.445726551748618
0
LINE
8
Polygon
10
1.4947466530902322
20
2.4457265517486175
11
1.5060925262529015
21
2.4355928709019
0
LINE
8
Polygon
10
1.506092526252902
20
2.4355928709018997
11
1.517641599821359
21
2.425691394999951
0
LINE
8
Polygon
10
1.517641599821359
20
2.425691394999951
11
1.5293891223460712
21
2.4160261976477035
0
LINE
8
Polygon
10
1.5293891223460712
20
2.4160261976477035
11
1.5413302607328436
21
2.4066012552418075
0
LINE
8
Polygon
10
1.5413302607328438
20
2.406601255241807
11
1.5534601022312227
21
2.3974204453346846
0
LINE
8
Polygon
10
1.5534601022312227
20
2.3974204453346846
11
1.5657736564556688
21
2.3884875450392524
0
LINE
8
Polygon
10
1.565773656455669
20
2.3884875450392524
11
1.5782658574386723
21
2.3798062294749633
0
LINE
8
Polygon
10
1.5782658574386725
20
2.3798062294749633
11
1.579525798083744
21
2.3789947326610714
0
LINE
8
Polygon
10
1.579525798083744
20
2.3789947326610714
11
1.5808246925261407
21
2.3782471694626923
0
LINE
8
Polygon
10
1.5808246925261407
20
2.3782471694626923
11
1.5821592993350815
21
2.377565405446636
0
LINE
8
Polygon
10
1.5821592993350815
20
2.377565405446636
11
1.583526287958483
21
2.3769511419758427
0
LINE
8
Polygon
10
1.583526287958483
20
2.3769511419758427
11
1.5849222470344544
21
2.3764059119635785
0
LINE
8
Polygon
10
1.5849222470344544
20
2.3764059119635785
11
1.5863436929044543
21
2.375931076048004
0
LINE
8
Polygon
10
1.5863436929044543
20
2.375931076048004
11
1.5877870783068688
21
2.3755278191966585
0
LINE
8
Polygon
10
1.5877870783068688
20
2.3755278191966585
11
1.5892488012293098
21
2.375197147749341
0
LINE
8
Polygon
10
1.5892488012293098
20
2.375197147749341
11
1.5907252138975472
21
2.3749398869067546
0
LINE
8
Polygon
10
1.5907252138975472
20
2.3749398869067546
11
1.5922126318786416
21
2.3747566786711953
0
LINE
8
Polygon
10
1.5922126318786416
20
2.3747566786711953
11
1.5937073432755593
21
2.3746479802444145
0
LINE
8
Polygon
10
1.5937073432755593
20
2.3746479802444145
11
1.595205617990324
21
2.3746140628866583
0
LINE
8
Polygon
10
1.595205617990324
20
2.3746140628866583
11
1.5967037170325908
21
2.3746550112397298
0
LINE
8
Polygon
10
1.5967037170325908
20
2.3746550112397298
11
1.598197901850411
21
2.3747707231157626
0
LINE
8
Polygon
10
1.598197901850411
20
2.3747707231157626
11
1.5996844436599034
21
2.374960909752233
0
LINE
8
Polygon
10
1.5996844436599034
20
2.374960909752233
11
1.6011596327505462
21
2.375225096532577
0
LINE
8
Polygon
10
1.6011596327505462
20
2.375225096532577
11
1.6026197877428756
21
2.3755626241706094
0
LINE
8
Polygon
10
1.6026197877428756
20
2.3755626241706094
11
1.6040612647754793
21
2.3759726503557927
0
LINE
8
Polygon
10
1.6040612647754793
20
2.3759726503557927
11
1.6054804665983642
21
2.3764541518552504
0
LINE
8
Polygon
10
1.6054804665983642
20
2.3764541518552504
11
1.6068738515500045
21
2.377005927067273
0
LINE
8
Polygon
10
1.6068738515500045
20
2.377005927067273
11
1.6082379423956648
21
2.3776265990199548
0
LINE
8
Polygon
10
1.6082379423956648
20
2.3776265990199548
11
1.6095693350049474
21
2.378314618807467
0
LINE
8
Polygon
10
1.6095693350049474
20
2.378314618807467
11
1.610864706846902
21
2.379068269455401
0
LINE
8
Polygon
10
1.610864706846902
20
2.379068269455401
11
1.612120825281505
21
2.379885670205529
0
LINE
8
Polygon
10
1.612120825281505
20
2.379885670205529
11
1.61333455562681
21
2.380764781209297
0
LINE
8
Polygon
10
1.61333455562681
20
2.380764781209297
11
1.6145028689816434
21
2.381703408618325
0
LINE
8
Polygon
10
1.6145028689816434
20
2.381703408618325
11
1.615622849784319
21
2.382699210059225
0
LINE
8
Polygon
10
1.615622849784319
20
2.382699210059225
11
1.6166917030885124
21
2.3837497004790644
0
LINE
8
Polygon
10
1.6166917030885122
20
2.3837497004790644
11
1.6177067615381335
21
2.3848522583468936
0
LINE
8
Polygon
10
1.6177067615381335
20
2.3848522583468936
11
1.618665492023797
21
2.3860041321958545
0
LINE
8
Polygon
10
1.618665492023797
20
2.3860041321958545
11
1.6195655020042727
21
2.3872024474895497
0
LINE
8
Polygon
10
1.6195655020042727
20
2.3872024474895497
11
1.6204045454771459
21
2.388444213795539
0
LINE
8
Polygon
10
1.6204045454771459
20
2.388444213795539
11
1.621180528583785
21
2.3897263322480504
0
LINE
8
Polygon
10
1.621180528583785
20
2.3897263322480504
11
1.62189151483463
21
2.3910456032812992
0
LINE
8
Polygon
10
1.62189151483463
20
2.3910456032812992
11
1.6225357299417609
21
2.392398734614099
0
LINE
8
Polygon
10
1.6225357299417609
20
2.392398734614099
11
1.6231115662466875
21
2.393782349465851
0
LINE
8
Polygon
10
1.6231115662466875
20
2.393782349465851
11
1.623617586732311
21
2.395192994983403
0
LINE
8
Polygon
10
1.623617586732311
20
2.395192994983403
11
1.6240525286090433
21
2.39662715085775
0
LINE
8
Polygon
10
1.6240525286090433
20
2.39662715085775
11
1.624415306466137
21
2.398081238109074
0
LINE
8
Polygon
10
1.624415306466137
20
2.398081238109074
11
1.6247050149803617
21
2.3995516280181954
0
LINE
8
Polygon
10
1.6247050149803617
20
2.3995516280181954
11
1.6249209311752655
21
2.401034651182154
0
LINE
8
Polygon
10
1.6249209311752655
20
2.401034651182154
11
1.6250625162253844
21
2.4025266066713167
0
LINE
8
Polygon
10
1.6250625162253844
20
2.4025266066713167
11
1.6251294168008983
21
2.4040237712651593
0
LINE
8
Polygon
10
1.6251294168008983
20
2.4040237712651593
11
1.6251214659493765
21
2.405522408743678
0
LINE
8
Polygon
10
1.6251214659493765
20
2.405522408743678
11
1.625038683512412
21
2.4070187792112394
0
LINE
8
Polygon
10
1.625038683512412
20
2.4070187792112394
11
1.624881276076106
21
2.4085091484296064
0
LINE
8
Polygon
10
1.624881276076106
20
2.4085091484296064
11
1.6246496364555274
21
2.409989797136842
0
LINE
8
Polygon
10
1.6246496364555274
20
2.409989797136842
11
1.624344342714429
21
2.411457030328842
0
LINE
8
Polygon
10
1.849465937783573
20
2.3182086124681387
11
1.8607699482671114
21
2.3259582286419573
0
LINE
8
Polygon
10
1.8607699482671114
20
2.3259582286419573
11
1.8713194375094047
21
2.33470725604963
0
LINE
8
Polygon
10
1.8713194375094047
20
2.33470725604963
11
1.8810263349966143
21
2.34438265500917
0
LINE
8
Polygon
10
1.8810263349966143
20
2.34438265500917
11
1.8898096044406476
21
2.354903652192278
0
LINE
8
Polygon
10
1.8898096044406476
20
2.354903652192278
11
1.8975959202960353
21
2.36618241494595
0
LINE
8
Polygon
10
1.8975959202960353
20
2.36618241494595
11
1.9043202799050618
21
2.3781247845475804
0
LINE
8
Polygon
10
1.9043202799050618
20
2.3781247845475804
11
1.9099265461607646
21
2.3906310622721327
0
LINE
8
Polygon
10
1.9099265461607646
20
2.3906310622721327
11
1.9143679161574754
21
2.4035968417090112
0
LINE
8
Polygon
10
1.9143679161574754
20
2.4035968417090112
11
1.917607311916463
21
2.416913880380207
0
LINE
8
Polygon
10
1.917607311916463
20
2.416913880380207
11
1.9196176899247694
21
2.4304710033831594
0
LINE
8
Polygon
10
1.9196176899247694
20
2.4304710033831594
11
1.9203822669031163
21
2.444155031514439
0
LINE
8
Polygon
10
1.9203822669031163
20
2.444155031514439
11
1.9198946599180928
21
2.457851726125973
0
LINE
8
Polygon
10
1.9198946599180928
20
2.457851726125973
11
1.9181589396689278
21
2.471446742825856
0
LINE
8
Polygon
10
1.9181589396689278
20
2.471446742825856
11
1.9151895965039891
21
2.4848265860619443
0
LINE
8
Polygon
10
1.9151895965039891
20
2.4848265860619443
11
1.9110114194507155
21
2.4978795566190612
0
LINE
8
Polygon
10
1.9110114194507155
20
2.4978795566190612
11
1.9056592892688804
21
2.51049668411981
0
LINE
8
Polygon
10
1.9056592892688804
20
2.51049668411981
11
1.89917788725484
21
2.522572636744173
0
LINE
8
Polygon
10
1.89917788725484
20
2.522572636744173
11
1.891621322227766
21
2.5340066005732687
0
LINE
8
Polygon
10
1.891621322227766
20
2.5340066005732687
11
1.8830526788118995
21
2.544703121216225
0
LINE
8
Polygon
10
1.8830526788118995
20
2.544703121216225
11
1.8735434907859096
21
2.5545729006939966
0
LINE
8
Polygon
10
1.8735434907859096
20
2.5545729006939966
11
1.8631731438960062
21
2.5635335429274826
0
LINE
8
Polygon
10
1.8631731438960062
20
2.5635335429274826
11
1.8520282131183128
21
2.571510241606378
0
LINE
8
Polygon
10
1.8520282131183128
20
2.571510241606378
11
1.8402017399032486
21
2.5784364046962014
0
LINE
8
Polygon
10
1.8402017399032486
20
2.5784364046962014
11
1.8277924554357097
21
2.5842542103699206
0
LINE
8
Polygon
10
1.8277924554357097
20
2.5842542103699206
11
1.8149039563955274
21
2.588915089723078
0
LINE
8
Polygon
10
1.8149039563955274
20
2.588915089723078
11
1.8016438400992163
21
2.592380132242553
0
LINE
8
Polygon
10
1.8016438400992163
20
2.592380132242553
11
1.788122806243126
21
2.5946204106439854
0
LINE
8
Polygon
10
1.788122806243126
20
2.5946204106439854
11
1.7744537327469339
21
2.595617222366009
0
LINE
8
Polygon
10
1.7744537327469339
20
2.595617222366009
11
1.7607507334126307
21
2.5953622457052163
0
LINE
8
Polygon
10
1.7607507334126307
20
2.5953622457052163
11
1.7471282052659656
21
2.5938576092884085
0
LINE
8
Polygon
10
1.7471282052659656
20
2.5938576092884085
11
1.7336998735334492
21
2.591115874302134
0
LINE
8
Polygon
10
1.7336998735334492
20
2.591115874302134
11
1.7205778422277507
21
2.5871599296278838
0
LINE
8
Polygon
10
1.7205778422277507
20
2.5871599296278838
11
1.7078716582675069
21
2.582022800758378
0
LINE
8
Polygon
10
1.7078716582675069
20
2.582022800758378
11
1.6956873969445734
21
2.57574737409018
0
LINE
8
Polygon
10
1.6956873969445734
20
2.57574737409018
11
1.6841267763735244
21
2.568386038894327
0
LINE
8
Polygon
10
1.6841267763735244
20
2.568386038894327
11
1.673286308316265
21
2.5600002499539225
0
LINE
8
Polygon
10
1.673286308316265
20
2.5600002499539225
11
1.6632564924709443
21
2.55066001451993
0
LINE
8
Polygon
10
1.6632564924709443
20
2.55066001451993
11
1.6541210609514974
21
2.5404433078682263
0
LINE
8
Polygon
10
1.6541210609514974
20
2.5404433078682263
11
1.6459562792651514
21
2.5294354223370368
0
LINE
8
Polygon
10
1.6459562792651514
20
2.5294354223370368
11
1.6388303096235524
21
2.517728255279184
0
LINE
8
Polygon
10
1.6388303096235524
20
2.517728255279184
11
1.6328026419027992
21
2.5054195418735654
0
LINE
8
Polygon
10
1.6328026419027992
20
2.5054195418735654
11
1.6279235970029107
21
2.4926120392005875
0
LINE
8
Polygon
10
1.6279235970029107
20
2.4926120392005875
11
1.624233906752841
21
2.4794126683931585
0
LINE
8
Polygon
10
1.624233906752841
20
2.4794126683931585
11
1.6217643738681307
21
2.465931622024838
0
LINE
8
Polygon
10
1.6217643738681309
20
2.465931622024838
11
1.6205356147999748
21
2.452281444186953
0
LINE
8
Polygon
10
1.6205356147999748
20
2.452281444186953
11
1.6205578876224873
21
2.4385760909344882
0
LINE
8
Polygon
10
1.6205578876224873
20
2.4385760909344882
11
1.621831006395015
21
2.4249299789444563
0
LINE
8
Polygon
10
1.621831006395015
20
2.4249299789444563
11
1.6243443427144288
21
2.411457030328842
0
LINE
8
Polygon
10
1.849465937783573
20
2.3182086124681387
11
1.8482125719693434
21
2.317386997203078
0
LINE
8
Polygon
10
1.8482125719693434
20
2.317386997203078
11
1.8470018012813993
21
2.316503814408139
0
LINE
8
Polygon
10
1.8470018012813993
20
2.316503814408139
11
1.8458366472349994
21
2.3155612680929814
0
LINE
8
Polygon
10
1.8458366472349994
20
2.3155612680929814
11
1.8447200175076783
21
2.314561710410742
0
LINE
8
Polygon
10
1.8447200175076783
20
2.314561710410742
11
1.8436546986830504
21
2.3135076357881688
0
LINE
8
Polygon
10
1.8436546986830504
20
2.3135076357881688
11
1.842643349296803
21
2.312401674700699
0
LINE
8
Polygon
10
1.842643349296803
20
2.312401674700699
11
1.8416884932022413
21
2.31124658710803
0
LINE
8
Polygon
10
1.8416884932022413
20
2.31124658710803
11
1.8407925132719338
21
2.3100452555665534
0
LINE
8
Polygon
10
1.8407925132719338
20
2.3100452555665534
11
1.8399576454511815
21
2.30880067803585
0
LINE
8
Polygon
10
1.8399576454511815
20
2.30880067803585
11
1.8391859731781488
21
2.307515960397186
0
LINE
8
Polygon
10
1.8391859731781488
20
2.307515960397186
11
1.8384794221845788
21
2.3061943087026977
0
LINE
8
Polygon
10
1.8384794221845788
20
2.3061943087026977
11
1.8378397556900712
21
2.3048390211745824
0
LINE
8
Polygon
10
1.8378397556900712
20
2.3048390211745824
11
1.837268570001914
21
2.303453479974291
0
LINE
8
Polygon
10
1.837268570001914
20
2.303453479974291
11
1.8367672905314503
21
2.3020411427622376
0
LINE
8
Polygon
10
1.8367672905314503
20
2.3020411427622376
11
1.8363371682369198
21
2.3006055340691014
0
LINE
8
Polygon
10
1.8363371682369198
20
2.3006055340691014
11
1.8359792765016552
21
2.299150236500255
0
LINE
8
Polygon
10
1.8359792765016552
20
2.299150236500255
11
1.8356945084554206
21
2.2976788817952625
0
LINE
8
Polygon
10
1.8356945084554206
20
2.2976788817952625
11
1.8354835747455789
21
2.2961951417647612
0
LINE
8
Polygon
10
1.8354835747455789
20
2.2961951417647612
11
1.8353470017636502
21
2.2947027191273466
0
LINE
8
Polygon
10
1.8353470017636502
20
2.2947027191273466
11
1.8352851303316855
21
2.293205338269326
0
LINE
8
Polygon
10
1.8352851303316855
20
2.293205338269326
11
1.835298114851734
21
2.291706735950397
0
LINE
8
Polygon
10
1.835298114851734
20
2.291706735950397
11
1.8353859229205292
21
2.290210651978451
0
LINE
8
Polygon
10
1.8353859229205292
20
2.290210651978451
11
1.8355483354103515
21
2.288720819876766
0
LINE
8
Polygon
10
1.8355483354103515
20
2.288720819876766
11
1.8357849470158685
21
2.287240957566889
0
LINE
8
Polygon
10
1.8357849470158685
20
2.287240957566889
11
1.836095167265587
21
2.285774758090445
0
LINE
8
Polygon
10
1.836095167265587
20
2.285774758090445
11
1.8364782219953917
21
2.284325880393041
0
LINE
8
Polygon
10
1.8364782219953917
20
2.284325880393041
11
1.8369331552804966
21
2.2828979401932554
0
LINE
8
Polygon
10
1.8369331552804966
20
2.2828979401932554
11
1.8374588318209841
21
2.2814945009595013
0
LINE
8
Polygon
10
1.8374588318209841
20
2.2814945009595013
11
1.8380539397749802
21
2.2801190650172813
0
LINE
8
Polygon
10
1.8380539397749802
20
2.2801190650172813
11
1.8387169940323966
21
2.278775064809029
0
LINE
8
Polygon
10
1.8387169940323966
20
2.278775064809029
11
1.8394463399210679
21
2.2774658543283426
0
LINE
8
Polygon
10
1.8394463399210679
20
2.2774658543283426
11
1.8402401573360367
21
2.2761947007499925
0
LINE
8
Polygon
10
1.8402401573360367
20
2.276194700749993
11
1.8410964652816817
21
2.274964776276586
0
LINE
8
Polygon
10
1.8410964652816817
20
2.274964776276586
11
1.8420131268153517
21
2.273779150222237
0
LINE
8
Polygon
10
1.8420131268153517
20
2.273779150222237
11
1.8429878543801719
21
2.272640781353004
0
LINE
8
Polygon
10
1.8429878543801719
20
2.272640781353004
11
1.8440182155137126
21
2.2715525105031924
0
LINE
8
Polygon
10
1.8440182155137126
20
2.2715525105031924
11
1.8451016389182722
21
2.2705170534859715
0
LINE
8
Polygon
10
1.8451016389182722
20
2.2705170534859715
11
1.8462354208776306
21
2.2695369943159753
0
LINE
8
Polygon
10
1.8462354208776306
20
2.2695369943159753
11
1.8474167320042547
21
2.268614778760818
0
LINE
8
Polygon
10
1.8474167320042547
20
2.268614778760818
11
1.8486426243001215
21
2.267752708237604
0
LINE
8
Polygon
10
1.8486426243001215
20
2.267752708237604
11
1.8499100385135383
21
2.2669529340696735
0
LINE
8
Polygon
10
1.8499100385135383
20
2.2669529340696735
11
1.8512158117735975
21
2.2662174521179064
0
LINE
8
Polygon
10
1.8512158117735975
20
2.2662174521179064
11
1.852556685483218
21
2.2655480977999938
0
LINE
8
Polygon
10
1.852556685483218
20
2.2655480977999938
11
1.8539293134510746
21
2.264946541510094
0
LINE
8
Polygon
10
1.8539293134510746
20
2.264946541510094
11
1.8553302702421197
21
2.264414284450315
0
LINE
8
Polygon
10
1.8553302702421197
20
2.264414284450315
11
1.8567560597258617
21
2.2639526548844175
0
LINE
8
Polygon
10
1.8567560597258617
20
2.2639526548844175
11
1.8582031238010654
21
2.2635628048230925
0
LINE
8
Polygon
10
1.8582031238010654
20
2.2635628048230925
11
1.8596678512751024
21
2.263245707149084
0
LINE
8
Polygon
10
1.8596678512751024
20
2.263245707149084
11
1.8746397884072583
21
2.260551004227186
0
LINE
8
Polygon
10
1.8746397884072583
20
2.260551004227186
11
1.889663300474436
21
2.2581605209091355
0
LINE
8
Polygon
10
1.889663300474436
20
2.2581605209091355
11
1.9047322065947687
21
2.2560752406730247
0
LINE
8
Polygon
10
1.9047322065947687
20
2.2560752406730247
11
1.9198403072106447
21
2.254296021432153
0
LINE
8
Polygon
10
1.9198403072106445
20
2.254296021432153
11
1.9349813866392906
21
2.2528235951820674
0
LINE
8
Polygon
10
1.9349813866392906
20
2.2528235951820674
11
1.9501492156299924
21
2.2516585676994123
0
LINE
8
Polygon
10
1.9501492156299924
20
2.2516585676994123
11
1.9653375539268927
21
2.2508014182927005
0
LINE
8
Polygon
10
1.9653375539268927
20
2.2508014182927005
11
1.980540152836321
21
2.2502524996051227
0
LINE
8
Polygon
10
1.980540152836321
20
2.2502524996051227
11
1.9957507577975913
21
2.250012037469464
0
LINE
8
Polygon
10
1.9957507577975913
20
2.250012037469464
11
2.010963110956218
21
2.2500801308151908
0
LINE
8
Polygon
10
2.010963110956218
20
2.2500801308151908
11
2.026170953738482
21
2.250456751627754
0
LINE
8
Polygon
10
2.026170953738482
20
2.250456751627754
11
2.041368029426296
21
2.2511417449601128
0
LINE
8
Polygon
10
2.041368029426296
20
2.2511417449601128
11
2.056548085731304
21
2.2521348289964793
0
LINE
8
Polygon
10
2.056548085731304
20
2.2521348289964793
11
2.0717048773671634
21
2.2534355951682667
0
LINE
8
Polygon
10
2.0717048773671634
20
2.2534355951682667
11
2.0868321686189373
21
2.2550435083221756
0
LINE
8
Polygon
10
2.0868321686189373
20
2.2550435083221756
11
2.101923735908559
21
2.256957906940366
0
LINE
8
Polygon
10
2.101923735908559
20
2.256957906940366
11
2.116973370355297
21
2.2591780034126128
0
LINE
8
Polygon
10
2.116973370355297
20
2.2591780034126128
11
2.131974880330173
21
2.2617028843603433
0
LINE
8
Polygon
10
2.131974880330173
20
2.2617028843603433
11
2.146922094003287
21
2.2645315110124096
0
LINE
8
Polygon
10
2.146922094003287
20
2.2645315110124096
11
2.1618088618829936
21
2.2676627196324564
0
LINE
8
Polygon
10
2.1618088618829936
20
2.2676627196324564
11
2.1766290593458866
21
2.2710952219976965
0
LINE
8
Polygon
10
2.176629059345886
20
2.2710952219976965
11
2.191376589156555
21
2.2748276059289054
0
LINE
8
Polygon
10
2.191376589156555
20
2.2748276059289054
11
2.2060453839760727
21
2.2788583358714094
0
LINE
8
Polygon
10
2.2060453839760727
20
2.2788583358714094
11
2.2206294088581835
21
2.283185753526837
0
LINE
8
Polygon
10
2.2206294088581835
20
2.283185753526837
11
2.235122663732161
21
2.2878080785353623
0
LINE
8
Polygon
10
2.235122663732161
20
2.2878080785353623
11
2.2495191858713253
21
2.292723409208172
0
LINE
8
Polygon
10
2.2495191858713253
20
2.292723409208172
11
2.263813052346188
21
2.2979297233098475
0
LINE
8
Polygon
10
2.263813052346188
20
2.2979297233098475
11
2.27799838246123
21
2.3034248788903384
0
LINE
8
Polygon
10
2.27799838246123
20
2.3034248788903384
11
2.2920693401742995
21
2.3092066151661923
0
LINE
8
Polygon
10
2.2920693401742995
20
2.3092066151661923
11
2.3060201364976427
21
2.3152725534506713
0
LINE
8
Polygon
10
2.3060201364976427
20
2.3152725534506713
11
2.319845031879573
21
2.3216201981323774
0
LINE
8
Polygon
10
2.3198450318795727
20
2.3216201981323774
11
2.333538338565803
21
2.3282469377019828
0
LINE
8
Polygon
10
2.333538338565803
20
2.3282469377019828
11
2.347094422939464
21
2.335150045826639
0
LINE
8
Polygon
10
2.3470944229394637
20
2.3351500458266385
11
2.360507707838857
21
2.3423266824716293
0
LINE
8
Polygon
10
2.360507707838857
20
2.3423266824716293
11
2.3737726748519736
21
2.3497738950687994
0
LINE
8
Polygon
10
2.3737726748519736
20
2.3497738950687994
11
2.386883866586846
21
2.357488619731283
0
LINE
8
Polygon
10
2.386883866586846
20
2.357488619731283
11
2.399835888916795
21
2.3654676825140295
0
LINE
8
Polygon
10
2.399835888916795
20
2.3654676825140295
11
2.4126234131996505
21
2.3737078007196075
0
LINE
8
Polygon
10
2.4126234131996505
20
2.3737078007196075
11
2.4252411784700256
21
2.3822055842487537
0
LINE
8
Polygon
10
2.4252411784700256
20
2.3822055842487537
11
2.437683993603754
21
2.390957536995105
0
LINE
8
Polygon
10
2.437683993603754
20
2.390957536995105
11
2.4499467394535897
21
2.3999600582835474
0
LINE
8
Polygon
10
2.4499467394535897
20
2.3999600582835474
11
2.4620243709552936
21
2.409209444351583
0
LINE
8
Polygon
10
2.4620243709552936
20
2.409209444351583
11
2.4739119192032457
21
2.418701889873108
0
LINE
8
Polygon
10
2.4739119192032457
20
2.418701889873108
11
2.485604493494721
21
2.428433489523979
0
LINE
8
Polygon
10
2.485604493494721
20
2.428433489523979
11
2.497097283341993
21
2.4384002395887174
0
LINE
8
Polygon
10
2.497097283341993
20
2.4384002395887174
11
2.5083855604514342
21
2.4485980396076914
0
LINE
8
Polygon
10
2.5083855604514342
20
2.448598039607691
11
2.5194646806688024
21
2.459022694064105
0
LINE
8
Polygon
10
2.5194646806688024
20
2.459022694064105
11
2.5303300858899105
21
2.4696699141100895
0
LINE
8
Polygon
10
0.0
20
2.3841640786499876
11
3.4449203092205144e-05
21
2.382726801558422
0
LINE
8
Polygon
10
3.4449203092205144e-05
20
2.382726801558422
11
0.00013771769586257837
21
2.3812928253368852
0
LINE
8
Polygon
10
0.00013771769586258184
20
2.3812928253368852
11
0.0003095683104924231
21
2.3798654432745825
0
LINE
8
Polygon
10
0.0003095683104924231
20
2.3798654432745825
11
0.000549606372533408
21
2.378447933516484
0
LINE
8
Polygon
10
0.0005496063725334115
20
2.378447933516484
11
0.0008572806073222604
21
2.377043551534693
0
LINE
8
Polygon
10
0.0008572806073222604
20
2.377043551534693
11
0.0012318844060456163
21
2.375655522651883
0
LINE
8
Polygon
10
0.0012318844060456163
20
2.375655522651883
11
0.0016725574485473849
21
2.37428703463398
0
LINE
8
Polygon
10
0.0016725574485473883
20
2.37428703463398
11
0.002178287679151677
21
2.372941230369094
0
LINE
8
Polygon
10
0.002178287679151677
20
2.372941230369094
11
0.0027479136309635534
21
2.3716212006495216
0
LINE
8
Polygon
10
0.0027479136309635534
20
2.3716212006495216
11
0.003380127093309652
21
2.3703299770733888
0
LINE
8
Polygon
10
0.0033801270933096587
20
2.3703299770733888
11
0.0040734761161925065
21
2.3690705250822437
0
LINE
8
Polygon
10
0.0040734761161925065
20
2.3690705250822437
11
0.004826368344858573
21
2.367845737150581
0
LINE
8
Polygon
10
0.004826368344858573
20
2.367845737150581
11
0.005637074676821726
21
2.3666584261429473
0
LINE
8
Polygon
10
0.005637074676821736
20
2.3666584261429473
11
0.00650373323294345
21
2.3655113188538794
0
LINE
8
Polygon
10
0.00650373323294345
20
2.3655113188538794
11
0.007424353633449635
21
2.3644070497455076
0
LINE
8
Polygon
10
0.007424353633449635
20
2.3644070497455076
11
0.00839682156906376
21
2.3633481548972175
0
LINE
8
Polygon
10
0.008396821569063767
20
2.3633481548972175
11
0.009418903656758192
21
2.3623370661812553
0
LINE
8
Polygon
10
0.009418903656758203
20
2.3623370661812553
11
0.010488252568971866
21
2.361376105677655
0
LINE
8
Polygon
10
0.010488252568971866
20
2.361376105677655
11
0.011602412424514555
21
2.36046748034132
0
LINE
8
Polygon
10
0.011602412424514555
20
2.36046748034132
11
0.01275882442877688
21
2.3596132769335005
0
LINE
8
Polygon
10
0.012758824428776891
20
2.3596132769335005
11
0.013954832750292644
21
2.3588154572293085
0
LINE
8
Polygon
10
0.013954832750292644
20
2.3588154572293085
11
0.015187690620157302
21
2.358075853512278
0
LINE
8
Polygon
10
0.015187690620157302
20
2.358075853512278
11
0.016454566640294682
21
2.3573961643663197
0
LINE
8
Polygon
10
0.016454566640294693
20
2.3573961643663197
11
0.017752551286084106
21
2.3567779507747293
0
LINE
8
Polygon
10
0.017752551286084103
20
2.3567779507747293
11
0.019078663588413987
21
2.356222632535211
0
LINE
8
Polygon
10
0.019078663588413987
20
2.356222632535211
11
0.020429857979815943
21
2.3557314849991524
0
LINE
8
Polygon
10
0.020429857979815943
20
2.3557314849991524
11
0.0218030312889562
21
2.355305636142635
0
LINE
8
Polygon
10
0.021803031288956196
20
2.355305636142635
11
0.023195029867420936
21
2.3549460639759086
0
LINE
8
Polygon
10
0.023195029867420936
20
2.3549460639759086
11
0.02460265683242792
21
2.354653594297279
0
LINE
8
Polygon
10
0.02460265683242792
20
2.354653594297279
11
0.026022679408830768
21
2.3544288987965705
0
LINE
8
Polygon
10
0.02602267940883076
20
2.3544288987965705
11
0.027451836353554145
21
2.354272493512512
0
LINE
8
Polygon
10
0.027451836353554145
20
2.354272493512512
11
0.02888684544540877
21
2.3541847376475973
0
LINE
8
Polygon
10
0.02888684544540877
20
2.3541847376475973
11
0.030324411023085
21
2.354165832743133
0
LINE
8
Polygon
10
0.030324411023085
20
2.354165832743133
11
0.03176123155401326
21
2.3542158222163794
0
LINE
8
Polygon
10
0.03176123155401326
20
2.3542158222163794
11
0.03319400721670841
21
2.354334591260835
0
LINE
8
Polygon
10
0.033194007216708406
20
2.354334591260835
11
0.03461944747918447
21
2.354521867109904
0
LINE
8
Polygon
10
0.03461944747918447
20
2.354521867109904
11
0.03603427865603491
21
2.3547772196633363
0
LINE
8
Polygon
10
0.03603427865603491
20
2.3547772196633363
11
0.037435251426822906
21
2.355100062475
0
LINE
8
Polygon
10
0.0374352514268229
20
2.355100062475
11
0.03881914829851462
21
2.355489654099723
0
LINE
8
Polygon
10
0.03881914829851462
20
2.355489654099723
11
0.04018279099481728
21
2.355945099796105
0
LINE
8
Polygon
10
0.04018279099481728
20
2.355945099796105
11
0.04152304775545154
21
2.356465353581393
0
LINE
8
Polygon
10
0.04152304775545154
20
2.356465353581393
11
0.04283684052859456
21
2.3570492206337
0
LINE
8
Polygon
10
0.04283684052859456
20
2.3570492206337
11
0.04412115203997545
21
2.357695360036048
0
LINE
8
Polygon
10
0.04412115203997545
20
2.357695360036048
11
0.045373032722388275
21
2.358402287855938
0
LINE
8
Polygon
10
0.04537303272238827
20
2.358402287855938
11
0.046589607489707974
21
2.3591683805533665
0
LINE
8
Polygon
10
0.04658960748970799
20
2.3591683805533665
11
0.047768082339852164
21
2.3599918787094727
0
LINE
8
Polygon
10
0.047768082339852164
20
2.3599918787094727
11
0.04890575077152404
21
2.360870891067241
0
LINE
8
Polygon
10
0.04890575077152404
20
2.360870891067241
11
0.04999999999999999
21
2.3618033988749896
0
LINE
8
Polygon
10
0.050000000000000086
20
2.3618033988749896
11
0.06115958830073921
21
2.370860999702575
0
LINE
8
Polygon
10
0.06115958830073921
20
2.370860999702575
11
0.07313483638805868
21
2.378808953970248
0
LINE
8
Polygon
10
0.07313483638805868
20
2.378808953970248
11
0.08581579735702727
21
2.3855742900814376
0
LINE
8
Polygon
10
0.0858157973570272
20
2.3855742900814376
11
0.0990860450259136
21
2.3910948942694126
0
LINE
8
Polygon
10
0.0990860450259136
20
2.3910948942694126
11
0.11282374286588549
21
2.395320080874937
0
LINE
8
Polygon
10
0.11282374286588549
20
2.395320080874937
11
0.12690276260407773
21
2.398211057700417
0
LINE
8
Polygon
10
0.12690276260407768
20
2.398211057700417
11
0.1411938422299337
21
2.3997412821680406
0
LINE
8
Polygon
10
0.1411938422299337
20
2.3997412821680406
11
0.15556577277295616
21
2.399896705011951
0
LINE
8
Polygon
10
0.15556577277295616
20
2.399896705011951
11
0.1698866029558462
21
2.3986758992670856
0
LINE
8
Polygon
10
0.1698866029558462
20
2.3986758992670856
11
0.18402485066289537
21
2.396090073370396
0
LINE
8
Polygon
10
0.1840248506628953
20
2.396090073370396
11
0.19785071010092029
21
2.3921629682541754
0
LINE
8
Polygon
10
0.19785071010092029
20
2.3921629682541754
11
0.21123724356957949
21
2.3869306393762915
0
LINE
8
Polygon
10
0.21123724356957949
20
2.3869306393762915
11
0.22406154689921348
21
2.3804411256885483
0
LINE
8
Polygon
10
0.22406154689921348
20
2.3804411256885483
11
0.23620587785611558
21
2.372754008582435
0
LINE
8
Polygon
10
0.23620587785611558
20
2.372754008582435
11
0.24755873715514065
21
2.3639398648616634
0
LINE
8
Polygon
10
0.24755873715514065
20
2.363939864861664
11
0.2580158921546811
21
2.3540796187638495
0
LINE
8
Polygon
10
0.2580158921546811
20
2.3540796187638495
11
0.2674813338352827
21
2.3432637989805416
0
LINE
8
Polygon
10
0.2674813338352827
20
2.3432637989805416
11
0.2758681582757071
21
2.331591707497034
0
LINE
8
Polygon
10
0.2758681582757071
20
2.331591707497034
11
0.28309936453345175
21
2.319170507882994
0
LINE
8
Polygon
10
0.28309936453345175
20
2.319170507882994
11
0.2891085616042416
21
2.306114241404468
0
LINE
8
Polygon
10
0.2891085616042416
20
2.306114241404468
11
0.2938405779697719
21
2.292542779990522
0
LINE
8
Polygon
10
0.2938405779697719
20
2.292542779990522
11
0.29725196813733296
21
2.278580725667517
0
LINE
8
Polygon
10
0.29725196813733296
20
2.2785807256675175
11
0.2993114115206871
21
2.2643562665655117
0
LINE
8
Polygon
10
0.2993114115206871
20
2.2643562665655117
11
0.3
21
2.25
0
LINE
8
Polygon
10
0.3
20
2.25
11
0.2993114115206871
21
2.2356437334344883
0
LINE
8
Polygon
10
0.2993114115206871
20
2.2356437334344883
11
0.29725196813733296
21
2.2214192743324825
0
LINE
8
Polygon
10
0.29725196813733296
20
2.2214192743324825
11
0.2938405779697719
21
2.207457220009478
0
LINE
8
Polygon
10
0.2938405779697719
20
2.207457220009478
11
0.2891085616042416
21
2.193885758595532
0
LINE
8
Polygon
10
0.2891085616042416
20
2.193885758595532
11
0.28309936453345175
21
2.180829492117006
0
LINE
8
Polygon
10
0.28309936453345175
20
2.180829492117006
11
0.2758681582757071
21
2.168408292502966
0
LINE
8
Polygon
10
0.27586815827570715
20
2.168408292502966
11
0.2674813338352827
21
2.1567362010194584
0
LINE
8
Polygon
10
0.2674813338352827
20
2.1567362010194584
11
0.2580158921546812
21
2.1459203812361505
0
LINE
8
Polygon
10
0.2580158921546811
20
2.1459203812361505
11
0.24755873715514065
21
2.1360601351383366
0
LINE
8
Polygon
10
0.24755873715514065
20
2.136060135138336
11
0.23620587785611558
21
2.127245991417565
0
LINE
8
Polygon
10
0.23620587785611558
20
2.127245991417565
11
0.22406154689921343
21
2.1195588743114517
0
LINE
8
Polygon
10
0.22406154689921348
20
2.1195588743114517
11
0.21123724356957949
21
2.1130693606237085
0
LINE
8
Polygon
10
0.21123724356957949
20
2.1130693606237085
11
0.19785071010092029
21
2.1078370317458246
0
LINE
8
Polygon
10
0.19785071010092029
20
2.1078370317458246
11
0.18402485066289528
21
2.103909926629604
0
LINE
8
Polygon
10
0.18402485066289537
20
2.103909926629604
11
0.1698866029558462
21
2.1013241007329144
0
LINE
8
Polygon
10
0.1698866029558462
20
2.1013241007329144
11
0.15556577277295616
21
2.100103294988049
0
LINE
8
Polygon
10
0.15556577277295616
20
2.100103294988049
11
0.1411938422299337
21
2.1002587178319594
0
LINE
8
Polygon
10
0.1411938422299337
20
2.1002587178319594
11
0.12690276260407765
21
2.101788942299583
0
LINE
8
Polygon
10
0.12690276260407765
20
2.101788942299583
11
0.11282374286588542
21
2.104679919125063
0
LINE
8
Polygon
10
0.11282374286588549
20
2.104679919125063
11
0.0990860450259136
21
2.1089051057305874
0
LINE
8
Polygon
10
0.09908604502591367
20
2.1089051057305874
11
0.08581579735702727
21
2.1144257099185624
0
LINE
8
Polygon
10
0.0858157973570272
20
2.1144257099185624
11
0.07313483638805861
21
2.121191046029752
0
LINE
8
Polygon
10
0.07313483638805868
20
2.121191046029752
11
0.06115958830073921
21
2.129139000297425
0
LINE
8
Polygon
10
0.06115958830073916
20
2.129139000297425
11
0.05000000000000003
21
2.1381966011250104
0
LINE
8
Polygon
10
0.04999999999999998
20
2.1381966011250104
11
0.04890575077152404
21
2.139129108932759
0
LINE
8
Polygon
10
0.04890575077152404
20
2.139129108932759
11
0.047768082339852164
21
2.1400081212905273
0
LINE
8
Polygon
10
0.047768082339852164
20
2.1400081212905273
11
0.046589607489707974
21
2.1408316194466335
0
LINE
8
Polygon
10
0.046589607489707974
20
2.1408316194466335
11
0.04537303272238827
21
2.141597712144062
0
LINE
8
Polygon
10
0.04537303272238827
20
2.141597712144062
11
0.04412115203997544
21
2.142304639963952
0
LINE
8
Polygon
10
0.04412115203997545
20
2.142304639963952
11
0.04283684052859456
21
2.1429507793663
0
LINE
8
Polygon
10
0.04283684052859456
20
2.1429507793663
11
0.04152304775545154
21
2.143534646418607
0
LINE
8
Polygon
10
0.04152304775545154
20
2.143534646418607
11
0.04018279099481727
21
2.144054900203895
0
LINE
8
Polygon
10
0.04018279099481728
20
2.144054900203895
11
0.03881914829851462
21
2.144510345900277
0
LINE
8
Polygon
10
0.03881914829851462
20
2.144510345900277
11
0.0374352514268229
21
2.144899937525
0
LINE
8
Polygon
10
0.0374352514268229
20
2.144899937525
11
0.0360342786560349
21
2.1452227803366637
0
LINE
8
Polygon
10
0.03603427865603491
20
2.1452227803366637
11
0.03461944747918447
21
2.145478132890096
0
LINE
8
Polygon
10
0.034619447479184454
20
2.145478132890096
11
0.0331940072167084
21
2.145665408739165
0
LINE
8
Polygon
10
0.033194007216708406
20
2.145665408739165
11
0.03176123155401325
21
2.1457841777836206
0
LINE
8
Polygon
10
0.03176123155401325
20
2.1457841777836206
11
0.030324411023084995
21
2.145834167256867
0
LINE
8
Polygon
10
0.030324411023084995
20
2.145834167256867
11
0.028886845445408763
21
2.1458152623524027
0
LINE
8
Polygon
10
0.02888684544540877
20
2.1458152623524027
11
0.027451836353554145
21
2.145727506487488
0
LINE
8
Polygon
10
0.02745183635355414
20
2.145727506487488
11
0.026022679408830754
21
2.1455711012034295
0
LINE
8
Polygon
10
0.02602267940883076
20
2.1455711012034295
11
0.024602656832427912
21
2.145346405702721
0
LINE
8
Polygon
10
0.02460265683242792
20
2.145346405702721
11
0.023195029867420936
21
2.1450539360240914
0
LINE
8
Polygon
10
0.023195029867420933
20
2.1450539360240914
11
0.021803031288956193
21
2.144694363857365
0
LINE
8
Polygon
10
0.021803031288956196
20
2.144694363857365
11
0.020429857979815936
21
2.1442685150008476
0
LINE
8
Polygon
10
0.020429857979815943
20
2.1442685150008476
11
0.019078663588413987
21
2.143777367464789
0
LINE
8
Polygon
10
0.01907866358841398
20
2.143777367464789
11
0.017752551286084096
21
2.1432220492252707
0
LINE
8
Polygon
10
0.017752551286084103
20
2.1432220492252707
11
0.016454566640294693
21
2.1426038356336803
0
LINE
8
Polygon
10
0.016454566640294682
20
2.1426038356336803
11
0.015187690620157302
21
2.141924146487722
0
LINE
8
Polygon
10
0.015187690620157302
20
2.141924146487722
11
0.013954832750292644
21
2.1411845427706915
0
LINE
8
Polygon
10
0.013954832750292644
20
2.1411845427706915
11
0.012758824428776891
21
2.1403867230664995
0
LINE
8
Polygon
10
0.01275882442877688
20
2.1403867230664995
11
0.011602412424514555
21
2.13953251965868
0
LINE
8
Polygon
10
0.011602412424514555
20
2.13953251965868
11
0.010488252568971866
21
2.138623894322345
0
LINE
8
Polygon
10
0.010488252568971866
20
2.138623894322345
11
0.009418903656758203
21
2.1376629338187447
0
LINE
8
Polygon
10
0.009418903656758192
20
2.1376629338187447
11
0.008396821569063767
21
2.1366518451027825
0
LINE
8
Polygon
10
0.008396821569063767
20
2.1366518451027825
11
0.007424353633449645
21
2.1355929502544924
0
LINE
8
Polygon
10
0.007424353633449635
20
2.1355929502544924
11
0.00650373323294345
21
2.1344886811461206
0
LINE
8
Polygon
10
0.00650373323294345
20
2.1344886811461206
11
0.005637074676821736
21
2.1333415738570527
0
LINE
8
Polygon
10
0.005637074676821736
20
2.1333415738570527
11
0.00482636834485858
21
2.132154262849419
0
LINE
8
Polygon
10
0.004826368344858573
20
2.132154262849419
11
0.0040734761161925065
21
2.1309294749177563
0
LINE
8
Polygon
10
0.0040734761161925065
20
2.1309294749177563
11
0.0033801270933096587
21
2.1296700229266112
0
LINE
8
Polygon
10
0.0033801270933096587
20
2.1296700229266112
11
0.002747913630963557
21
2.128378799350479
0
LINE
8
Polygon
10
0.0027479136309635534
20
2.1283787993504784
11
0.002178287679151677
21
2.127058769630906
0
LINE
8
Polygon
10
0.002178287679151677
20
2.127058769630906
11
0.0016725574485473883
21
2.12571296536602
0
LINE
8
Polygon
10
0.0016725574485473849
20
2.12571296536602
11
0.0012318844060456163
21
2.124344477348117
0
LINE
8
Polygon
10
0.0012318844060456163
20
2.124344477348117
11
0.0008572806073222604
21
2.122956448465307
0
LINE
8
Polygon
10
0.0008572806073222604
20
2.122956448465307
11
0.0005496063725334115
21
2.121552066483516
0
LINE
8
Polygon
10
0.0005496063725334115
20
2.121552066483516
11
0.00030956831049242656
21
2.1201345567254175
0
LINE
8
Polygon
10
0.0003095683104924231
20
2.1201345567254175
11
0.00013771769586258184
21
2.1187071746631148
0
LINE
8
Polygon
10
0.00013771769586258184
20
2.1187071746631148
11
3.4449203092205144e-05
21
2.117273198441578
0
LINE
8
Polygon
10
3.4449203092205144e-05
20
2.117273198441578
11
0.0
21
2.1158359213500124
0
LINE
8
Polygon
10
0.0
20
3.0
11
0.0
21
2.3841640786499876
0
LINE
8
Polygon
10
0.0
20
1.5
11
0.0
21
2.1158359213500124
0
LINE
8
Polygon
10
0.04999999999999998
20
2.3618033988749896
11
0.050000000000000086
21
2.3618033988749896
0
LINE
8
Polygon
10
0.050000000000000086
20
2.1381966011250104
11
0.04999999999999998
21
2.1381966011250104
0
LINE
8
Polygon
10
0.0
20
1.5
11
1.8098875937163466
21
0.3916747259003202
0
LINE
8
Polygon
10
3.199489742783178
20
0.0
11
4
21
0
0
LINE
8
Polygon
10
4
20
0
11
2.0
21
2.0
0
LINE
8
Polygon
10
2.0
20
2.0
11
3.0
21
2.0
0
LINE
8
Polygon
10
3.0
20
2.0
11
2.5303300858899105
21
2.4696699141100895
0
LINE
8
Polygon
10
1.25
20
3.0
11
0.0
21
3.0
0
ENDSEC
0
EOF
